mtllib TorusFauna_FishA.mtl
o TorusFauna_FishA
usemtl TorusFaunaKit
s off
v 0.0045000 0.0325000 -0.0525000
v 0.0031820 0.0381569 -0.0525000
v 0.0081317 0.0470083 -0.0350000
v 0.0115000 0.0337500 -0.0350000
v 0.0000000 0.0405000 -0.0525000
v 0.0000000 0.0525000 -0.0350000
v -0.0031820 0.0381569 -0.0525000
v -0.0081317 0.0470083 -0.0350000
v -0.0045000 0.0325000 -0.0525000
v -0.0115000 0.0337500 -0.0350000
v -0.0031820 0.0268431 -0.0525000
v -0.0081317 0.0204917 -0.0350000
v -0.0000000 0.0245000 -0.0525000
v -0.0000000 0.0150000 -0.0350000
v 0.0031820 0.0268431 -0.0525000
v 0.0081317 0.0204917 -0.0350000
v 0.0113137 0.0517938 0.0025000
v 0.0160000 0.0350000 0.0025000
v 0.0000000 0.0587500 0.0025000
v -0.0113137 0.0517938 0.0025000
v -0.0160000 0.0350000 0.0025000
v -0.0113137 0.0182062 0.0025000
v -0.0000000 0.0112500 0.0025000
v 0.0113137 0.0182062 0.0025000
v 0.0088388 0.0470083 0.0425000
v 0.0125000 0.0337500 0.0425000
v 0.0000000 0.0525000 0.0425000
v -0.0088388 0.0470083 0.0425000
v -0.0125000 0.0337500 0.0425000
v -0.0088388 0.0204917 0.0425000
v -0.0000000 0.0150000 0.0425000
v 0.0088388 0.0204917 0.0425000
v 0.0037123 0.0378033 0.0625000
v 0.0052500 0.0325000 0.0625000
v 0.0000000 0.0400000 0.0625000
v -0.0037123 0.0378033 0.0625000
v -0.0052500 0.0325000 0.0625000
v -0.0037123 0.0271967 0.0625000
v -0.0000000 0.0250000 0.0625000
v 0.0037123 0.0271967 0.0625000
v 0.0000000 0.0325000 -0.0525000
v 0.0000000 0.0325000 0.0625000
v -0.0015000 0.0350000 -0.0500000
v -0.0015000 0.0612500 -0.0800000
v -0.0015000 0.0325000 -0.0725000
v -0.0015000 0.0062500 -0.0800000
v 0.0015000 0.0350000 -0.0500000
v 0.0015000 0.0325000 -0.0725000
v 0.0015000 0.0612500 -0.0800000
v 0.0015000 0.0062500 -0.0800000
v -0.0015000 0.0500000 -0.0250000
v -0.0015000 0.0612500 0.0162500
v -0.0015000 0.0712500 -0.0100000
v -0.0015000 0.0525000 0.0250000
v 0.0015000 0.0500000 -0.0250000
v 0.0015000 0.0712500 -0.0100000
v 0.0015000 0.0612500 0.0162500
v 0.0015000 0.0525000 0.0250000
v -0.0012500 0.0150000 -0.0250000
v -0.0012500 0.0000000 -0.0225000
v -0.0012500 0.0037500 0.0012500
v -0.0012500 0.0137500 0.0075000
v 0.0012500 0.0150000 -0.0250000
v 0.0012500 0.0037500 0.0012500
v 0.0012500 0.0000000 -0.0225000
v 0.0012500 0.0137500 0.0075000
v -0.0096018 0.0392500 0.0429900
v -0.0101759 0.0407967 0.0429900
v -0.0101759 0.0407967 0.0490100
v -0.0096018 0.0392500 0.0490100
v -0.0113241 0.0407967 0.0429900
v -0.0113241 0.0407967 0.0490100
v -0.0118982 0.0392500 0.0429900
v -0.0118982 0.0392500 0.0490100
v -0.0113241 0.0377033 0.0429900
v -0.0113241 0.0377033 0.0490100
v -0.0101759 0.0377033 0.0429900
v -0.0101759 0.0377033 0.0490100
v -0.0107500 0.0392500 0.0429900
v -0.0107500 0.0392500 0.0490100
v -0.0126070 0.0222150 0.0287500
v -0.0130535 0.0432850 0.0297443
v -0.0130535 0.0222150 0.0297443
v -0.0126070 0.0432850 0.0287500
v -0.0139465 0.0432850 0.0297443
v -0.0139465 0.0222150 0.0297443
v -0.0143930 0.0432850 0.0287500
v -0.0143930 0.0222150 0.0287500
v -0.0139465 0.0432850 0.0277557
v -0.0139465 0.0222150 0.0277557
v -0.0130535 0.0432850 0.0277557
v -0.0130535 0.0222150 0.0277557
v -0.0135000 0.0222150 0.0287500
v -0.0135000 0.0432850 0.0287500
v -0.0045000 0.0225000 0.0250000
v -0.0250000 0.0170000 0.0045000
v -0.0090000 0.0305000 0.0250000
v -0.0222500 0.0125000 0.0045000
v -0.0277500 0.0125000 0.0045000
v -0.0135000 0.0225000 0.0250000
v -0.0250000 0.0080000 0.0045000
v -0.0090000 0.0145000 0.0250000
v -0.0090000 0.0225000 0.0250000
v -0.0250000 0.0125000 0.0045000
v 0.0118982 0.0392500 0.0429900
v 0.0113241 0.0407967 0.0429900
v 0.0113241 0.0407967 0.0490100
v 0.0118982 0.0392500 0.0490100
v 0.0101759 0.0407967 0.0429900
v 0.0101759 0.0407967 0.0490100
v 0.0096018 0.0392500 0.0429900
v 0.0096018 0.0392500 0.0490100
v 0.0101759 0.0377033 0.0429900
v 0.0101759 0.0377033 0.0490100
v 0.0113241 0.0377033 0.0429900
v 0.0113241 0.0377033 0.0490100
v 0.0107500 0.0392500 0.0429900
v 0.0107500 0.0392500 0.0490100
v 0.0143930 0.0222150 0.0287500
v 0.0139465 0.0432850 0.0297443
v 0.0139465 0.0222150 0.0297443
v 0.0143930 0.0432850 0.0287500
v 0.0130535 0.0432850 0.0297443
v 0.0130535 0.0222150 0.0297443
v 0.0126070 0.0432850 0.0287500
v 0.0126070 0.0222150 0.0287500
v 0.0130535 0.0432850 0.0277557
v 0.0130535 0.0222150 0.0277557
v 0.0139465 0.0432850 0.0277557
v 0.0139465 0.0222150 0.0277557
v 0.0135000 0.0222150 0.0287500
v 0.0135000 0.0432850 0.0287500
v 0.0135000 0.0225000 0.0250000
v 0.0250000 0.0170000 0.0045000
v 0.0090000 0.0305000 0.0250000
v 0.0277500 0.0125000 0.0045000
v 0.0222500 0.0125000 0.0045000
v 0.0045000 0.0225000 0.0250000
v 0.0250000 0.0080000 0.0045000
v 0.0090000 0.0145000 0.0250000
v 0.0090000 0.0225000 0.0250000
v 0.0250000 0.0125000 0.0045000
vt 0.6250000 0.3750000
vt 0.6250000 0.3750000
vt 0.6250000 0.3750000
vt 0.6250000 0.3750000
vt 0.6250000 0.3750000
vt 0.6250000 0.3750000
vt 0.6250000 0.3750000
vt 0.6250000 0.3750000
vt 0.6250000 0.3750000
vt 0.6250000 0.3750000
vt 0.6250000 0.3750000
vt 0.6250000 0.3750000
vt 0.6250000 0.3750000
vt 0.6250000 0.3750000
vt 0.6250000 0.3750000
vt 0.6250000 0.3750000
vt 0.6250000 0.3750000
vt 0.6250000 0.3750000
vt 0.6250000 0.3750000
vt 0.6250000 0.3750000
vt 0.6250000 0.3750000
vt 0.6250000 0.3750000
vt 0.6250000 0.3750000
vt 0.6250000 0.3750000
vt 0.6250000 0.3750000
vt 0.6250000 0.3750000
vt 0.6250000 0.3750000
vt 0.6250000 0.3750000
vt 0.6250000 0.3750000
vt 0.6250000 0.3750000
vt 0.6250000 0.3750000
vt 0.6250000 0.3750000
vt 0.6250000 0.3750000
vt 0.6250000 0.3750000
vt 0.6250000 0.3750000
vt 0.6250000 0.3750000
vt 0.6250000 0.3750000
vt 0.6250000 0.3750000
vt 0.6250000 0.3750000
vt 0.6250000 0.3750000
vt 0.6250000 0.3750000
vt 0.6250000 0.3750000
vt 0.6250000 0.3750000
vt 0.6250000 0.3750000
vt 0.6250000 0.3750000
vt 0.6250000 0.3750000
vt 0.6250000 0.3750000
vt 0.6250000 0.3750000
vt 0.6250000 0.3750000
vt 0.6250000 0.3750000
vt 0.6250000 0.3750000
vt 0.6250000 0.3750000
vt 0.6250000 0.3750000
vt 0.6250000 0.3750000
vt 0.6250000 0.3750000
vt 0.6250000 0.3750000
vt 0.6250000 0.3750000
vt 0.6250000 0.3750000
vt 0.6250000 0.3750000
vt 0.6250000 0.3750000
vt 0.6250000 0.3750000
vt 0.6250000 0.3750000
vt 0.6250000 0.3750000
vt 0.6250000 0.3750000
vt 0.6250000 0.3750000
vt 0.6250000 0.3750000
vt 0.6250000 0.3750000
vt 0.6250000 0.3750000
vt 0.6250000 0.3750000
vt 0.6250000 0.3750000
vt 0.6250000 0.3750000
vt 0.6250000 0.3750000
vt 0.6250000 0.3750000
vt 0.6250000 0.3750000
vt 0.6250000 0.3750000
vt 0.6250000 0.3750000
vt 0.6250000 0.3750000
vt 0.6250000 0.3750000
vt 0.6250000 0.3750000
vt 0.6250000 0.3750000
vt 0.8750000 0.3750000
vt 0.8750000 0.3750000
vt 0.8750000 0.3750000
vt 0.8750000 0.3750000
vt 0.8750000 0.3750000
vt 0.8750000 0.3750000
vt 0.8750000 0.3750000
vt 0.8750000 0.3750000
vt 0.8750000 0.3750000
vt 0.8750000 0.3750000
vt 0.8750000 0.3750000
vt 0.8750000 0.3750000
vt 0.8750000 0.3750000
vt 0.8750000 0.3750000
vt 0.8750000 0.3750000
vt 0.8750000 0.3750000
vt 0.8750000 0.3750000
vt 0.8750000 0.3750000
vt 0.8750000 0.3750000
vt 0.8750000 0.3750000
vt 0.8750000 0.3750000
vt 0.8750000 0.3750000
vt 0.8750000 0.3750000
vt 0.8750000 0.3750000
vt 0.8750000 0.3750000
vt 0.8750000 0.3750000
vt 0.8750000 0.3750000
vt 0.8750000 0.3750000
vt 0.8750000 0.3750000
vt 0.8750000 0.3750000
vt 0.8750000 0.3750000
vt 0.8750000 0.3750000
vt 0.8750000 0.3750000
vt 0.8750000 0.3750000
vt 0.8750000 0.3750000
vt 0.8750000 0.3750000
vt 0.1250000 0.1250000
vt 0.1250000 0.1250000
vt 0.1250000 0.1250000
vt 0.1250000 0.1250000
vt 0.1250000 0.1250000
vt 0.1250000 0.1250000
vt 0.1250000 0.1250000
vt 0.1250000 0.1250000
vt 0.1250000 0.1250000
vt 0.1250000 0.1250000
vt 0.1250000 0.1250000
vt 0.1250000 0.1250000
vt 0.1250000 0.1250000
vt 0.1250000 0.1250000
vt 0.1250000 0.1250000
vt 0.1250000 0.1250000
vt 0.1250000 0.1250000
vt 0.1250000 0.1250000
vt 0.1250000 0.1250000
vt 0.1250000 0.1250000
vt 0.1250000 0.1250000
vt 0.1250000 0.1250000
vt 0.1250000 0.1250000
vt 0.1250000 0.1250000
vt 0.3750000 0.1250000
vt 0.3750000 0.1250000
vt 0.3750000 0.1250000
vt 0.3750000 0.1250000
vt 0.3750000 0.1250000
vt 0.3750000 0.1250000
vt 0.3750000 0.1250000
vt 0.3750000 0.1250000
vt 0.3750000 0.1250000
vt 0.3750000 0.1250000
vt 0.3750000 0.1250000
vt 0.3750000 0.1250000
vt 0.3750000 0.1250000
vt 0.3750000 0.1250000
vt 0.3750000 0.1250000
vt 0.3750000 0.1250000
vt 0.3750000 0.1250000
vt 0.3750000 0.1250000
vt 0.3750000 0.1250000
vt 0.3750000 0.1250000
vt 0.3750000 0.1250000
vt 0.3750000 0.1250000
vt 0.3750000 0.1250000
vt 0.3750000 0.1250000
vt 0.8750000 0.3750000
vt 0.8750000 0.3750000
vt 0.8750000 0.3750000
vt 0.8750000 0.3750000
vt 0.8750000 0.3750000
vt 0.8750000 0.3750000
vt 0.8750000 0.3750000
vt 0.8750000 0.3750000
vt 0.8750000 0.3750000
vt 0.8750000 0.3750000
vt 0.8750000 0.3750000
vt 0.8750000 0.3750000
vt 0.8750000 0.3750000
vt 0.8750000 0.3750000
vt 0.8750000 0.3750000
vt 0.8750000 0.3750000
vt 0.1250000 0.1250000
vt 0.1250000 0.1250000
vt 0.1250000 0.1250000
vt 0.1250000 0.1250000
vt 0.1250000 0.1250000
vt 0.1250000 0.1250000
vt 0.1250000 0.1250000
vt 0.1250000 0.1250000
vt 0.1250000 0.1250000
vt 0.1250000 0.1250000
vt 0.1250000 0.1250000
vt 0.1250000 0.1250000
vt 0.1250000 0.1250000
vt 0.1250000 0.1250000
vt 0.1250000 0.1250000
vt 0.1250000 0.1250000
vt 0.1250000 0.1250000
vt 0.1250000 0.1250000
vt 0.1250000 0.1250000
vt 0.1250000 0.1250000
vt 0.1250000 0.1250000
vt 0.1250000 0.1250000
vt 0.1250000 0.1250000
vt 0.1250000 0.1250000
vt 0.3750000 0.1250000
vt 0.3750000 0.1250000
vt 0.3750000 0.1250000
vt 0.3750000 0.1250000
vt 0.3750000 0.1250000
vt 0.3750000 0.1250000
vt 0.3750000 0.1250000
vt 0.3750000 0.1250000
vt 0.3750000 0.1250000
vt 0.3750000 0.1250000
vt 0.3750000 0.1250000
vt 0.3750000 0.1250000
vt 0.3750000 0.1250000
vt 0.3750000 0.1250000
vt 0.3750000 0.1250000
vt 0.3750000 0.1250000
vt 0.3750000 0.1250000
vt 0.3750000 0.1250000
vt 0.3750000 0.1250000
vt 0.3750000 0.1250000
vt 0.3750000 0.1250000
vt 0.3750000 0.1250000
vt 0.3750000 0.1250000
vt 0.3750000 0.1250000
vt 0.8750000 0.3750000
vt 0.8750000 0.3750000
vt 0.8750000 0.3750000
vt 0.8750000 0.3750000
vt 0.8750000 0.3750000
vt 0.8750000 0.3750000
vt 0.8750000 0.3750000
vt 0.8750000 0.3750000
vt 0.8750000 0.3750000
vt 0.8750000 0.3750000
vt 0.8750000 0.3750000
vt 0.8750000 0.3750000
vt 0.8750000 0.3750000
vt 0.8750000 0.3750000
vt 0.8750000 0.3750000
vt 0.8750000 0.3750000
vn 0.907280911 0.211387198 -0.363533770
vn 0.898247812 0.228201814 -0.375599254
vn 0.519075008 0.704919412 -0.483373311
vn 0.484665273 0.717656208 -0.500069135
vn -0.514031172 0.698069732 -0.498468258
vn -0.486591052 0.720507759 -0.494062463
vn -0.902449560 0.210261542 -0.375998505
vn -0.900301347 0.228723519 -0.370328282
vn -0.916980768 -0.213647166 -0.336899332
vn -0.908957753 -0.230922697 -0.347088623
vn -0.543307125 -0.737827353 -0.400534849
vn -0.508633683 -0.753146843 -0.417206914
vn 0.538695363 -0.731564442 -0.417876505
vn 0.510398207 -0.755759619 -0.410269507
vn 0.912396794 -0.212579147 -0.349774493
vn 0.910898978 -0.231415870 -0.341628082
vn 0.963010614 0.244654944 -0.112935894
vn 0.955817021 0.266720177 -0.123588715
vn 0.554405843 0.820922846 -0.136820474
vn 0.517728876 0.842044389 -0.151387112
vn -0.553210932 0.819153511 -0.151476702
vn -0.518565097 0.843404437 -0.140567406
vn -0.961784523 0.244343453 -0.123558925
vn -0.956782254 0.266989525 -0.115257587
vn -0.964660638 -0.245074137 -0.096791122
vn -0.957772379 -0.267265818 -0.106023825
vn -0.557757071 -0.825885094 -0.082588509
vn -0.521350593 -0.847934822 -0.095917137
vn 0.557000870 -0.824765369 -0.097530081
vn 0.521875384 -0.848788352 -0.084878835
vn 0.963597838 -0.244804130 -0.107471603
vn 0.958598696 -0.267496402 -0.097643309
vn 0.959172482 0.267656516 0.091368156
vn 0.959811189 0.265046101 0.092266170
vn 0.519186602 0.844415264 0.131939885
vn 0.523053620 0.841846120 0.133079000
vn -0.519103548 0.844280183 0.133125805
vn -0.523160265 0.842017764 0.131565276
vn -0.959091131 0.267633815 0.092284031
vn -0.959914231 0.265074556 0.091105150
vn -0.960507105 -0.268028942 0.074743480
vn -0.961149289 -0.265415610 0.075806325
vn -0.522103178 -0.849158840 0.079608641
vn -0.526017033 -0.846615684 0.080919493
vn 0.522052342 -0.849076160 0.080814773
vn 0.526082359 -0.846720825 0.079380077
vn 0.960440295 -0.268010299 0.075663204
vn 0.961234064 -0.265439020 0.074640477
vn 0.904147817 0.249674995 0.346668606
vn 0.902056582 0.261552695 0.343342555
vn 0.466134558 0.750235834 0.468897396
vn 0.450591340 0.761474134 0.465966295
vn -0.467033574 0.751682785 0.465674383
vn -0.448493589 0.757929053 0.473705658
vn -0.905182226 0.249960641 0.343751097
vn -0.899479691 0.260805521 0.350594873
vn -0.913637066 -0.252295394 0.318770052
vn -0.911857764 -0.264394563 0.314023779
vn -0.485754872 -0.781814405 0.390907202
vn -0.469683407 -0.793738658 0.386492484
vn 0.486567571 -0.783122430 0.387261227
vn 0.467785980 -0.790532113 0.395266057
vn 0.914607720 -0.252563434 0.315760084
vn 0.909445646 -0.263695165 0.321517459
vn 0.000000000 0.000000000 -1.000000000
vn 0.000000000 0.000000000 -1.000000000
vn 0.000000000 0.000000000 -1.000000000
vn 0.000000000 0.000000000 -1.000000000
vn -0.000000000 0.000000000 -1.000000000
vn 0.000000000 0.000000000 -1.000000000
vn 0.000000000 -0.000000000 -1.000000000
vn 0.000000000 0.000000000 -1.000000000
vn 0.000000000 0.000000000 1.000000000
vn 0.000000000 0.000000000 1.000000000
vn 0.000000000 -0.000000000 1.000000000
vn 0.000000000 0.000000000 1.000000000
vn 0.000000000 0.000000000 1.000000000
vn 0.000000000 0.000000000 1.000000000
vn 0.000000000 0.000000000 1.000000000
vn -0.000000000 0.000000000 1.000000000
vn -1.000000000 0.000000000 -0.000000000
vn -1.000000000 0.000000000 0.000000000
vn 1.000000000 0.000000000 0.000000000
vn 1.000000000 0.000000000 0.000000000
vn 0.000000000 0.752576695 0.658504608
vn -0.000000000 0.752576695 0.658504608
vn 0.000000000 -0.252421897 -0.967617272
vn 0.000000000 -0.252421897 -0.967617272
vn 0.000000000 0.274721128 -0.961523948
vn 0.000000000 0.274721128 -0.961523948
vn 0.000000000 -0.721988205 0.691905363
vn 0.000000000 -0.721988205 0.691905363
vn -1.000000000 0.000000000 0.000000000
vn -1.000000000 0.000000000 0.000000000
vn 1.000000000 0.000000000 0.000000000
vn 1.000000000 0.000000000 0.000000000
vn 0.000000000 0.576683198 -0.816967863
vn 0.000000000 0.576683198 -0.816967863
vn 0.000000000 0.934487735 0.355995328
vn -0.000000000 0.934487735 0.355995328
vn 0.000000000 0.707106781 0.707106781
vn -0.000000000 0.707106781 0.707106781
vn 0.000000000 -0.998752339 0.049937617
vn 0.000000000 -0.998752339 0.049937617
vn -1.000000000 0.000000000 0.000000000
vn -1.000000000 0.000000000 0.000000000
vn 1.000000000 0.000000000 0.000000000
vn 1.000000000 0.000000000 0.000000000
vn 0.000000000 -0.164398987 -0.986393924
vn 0.000000000 -0.164398987 -0.986393924
vn 0.000000000 -0.987762965 0.155962573
vn 0.000000000 -0.987762965 0.155962573
vn 0.000000000 -0.529998940 0.847998304
vn 0.000000000 -0.529998940 0.847998304
vn 0.000000000 0.999261175 0.038433122
vn -0.000000000 0.999261175 0.038433122
vn 0.937502124 0.347979550 0.000000000
vn 0.937502124 0.347979550 -0.000000000
vn 0.000000000 1.000000000 0.000000000
vn 0.000000000 1.000000000 -0.000000000
vn -0.937502124 0.347979550 0.000000000
vn -0.937502124 0.347979550 0.000000000
vn -0.937502124 -0.347979550 0.000000000
vn -0.937502124 -0.347979550 0.000000000
vn 0.000000000 -1.000000000 0.000000000
vn 0.000000000 -1.000000000 0.000000000
vn 0.937502124 -0.347979550 0.000000000
vn 0.937502124 -0.347979550 0.000000000
vn 0.000000000 0.000000000 -1.000000000
vn 0.000000000 0.000000000 -1.000000000
vn 0.000000000 0.000000000 -1.000000000
vn -0.000000000 0.000000000 -1.000000000
vn 0.000000000 -0.000000000 -1.000000000
vn 0.000000000 0.000000000 -1.000000000
vn 0.000000000 0.000000000 1.000000000
vn 0.000000000 -0.000000000 1.000000000
vn 0.000000000 0.000000000 1.000000000
vn 0.000000000 0.000000000 1.000000000
vn 0.000000000 0.000000000 1.000000000
vn -0.000000000 0.000000000 1.000000000
vn 0.912242246 0.000000000 0.409651174
vn 0.912242246 -0.000000000 0.409651174
vn 0.000000000 0.000000000 1.000000000
vn 0.000000000 -0.000000000 1.000000000
vn -0.912242246 0.000000000 0.409651174
vn -0.912242246 0.000000000 0.409651174
vn -0.912242246 0.000000000 -0.409651174
vn -0.912242246 0.000000000 -0.409651174
vn 0.000000000 0.000000000 -1.000000000
vn 0.000000000 0.000000000 -1.000000000
vn 0.912242246 0.000000000 -0.409651174
vn 0.912242246 0.000000000 -0.409651174
vn 0.000000000 -1.000000000 0.000000000
vn 0.000000000 -1.000000000 0.000000000
vn 0.000000000 -1.000000000 0.000000000
vn -0.000000000 -1.000000000 0.000000000
vn 0.000000000 -1.000000000 -0.000000000
vn 0.000000000 -1.000000000 0.000000000
vn 0.000000000 1.000000000 0.000000000
vn 0.000000000 1.000000000 -0.000000000
vn 0.000000000 1.000000000 0.000000000
vn 0.000000000 1.000000000 0.000000000
vn 0.000000000 1.000000000 0.000000000
vn -0.000000000 1.000000000 0.000000000
vn 0.615339672 0.346128566 -0.708203434
vn 0.605421404 0.369979747 -0.704684263
vn -0.818292955 0.460289787 0.344281792
vn -0.812075316 0.496268249 0.307004083
vn -0.668782893 -0.376190377 0.641256768
vn -0.650951098 -0.397803449 0.646540860
vn 0.774696948 -0.435767033 -0.458204902
vn 0.763003577 -0.466279964 -0.447670120
vn 0.000000000 0.000000000 1.000000000
vn 0.000000000 -0.000000000 1.000000000
vn 0.000000000 0.000000000 1.000000000
vn -0.000000000 0.000000000 1.000000000
vn 0.000000000 0.000000000 -1.000000000
vn 0.000000000 0.000000000 -1.000000000
vn -0.000000000 -0.000000000 -1.000000000
vn 0.000000000 0.000000000 -1.000000000
vn 0.937502124 0.347979550 0.000000000
vn 0.937502124 0.347979550 -0.000000000
vn 0.000000000 1.000000000 0.000000000
vn 0.000000000 1.000000000 -0.000000000
vn -0.937502124 0.347979550 0.000000000
vn -0.937502124 0.347979550 0.000000000
vn -0.937502124 -0.347979550 0.000000000
vn -0.937502124 -0.347979550 0.000000000
vn 0.000000000 -1.000000000 0.000000000
vn 0.000000000 -1.000000000 0.000000000
vn 0.937502124 -0.347979550 0.000000000
vn 0.937502124 -0.347979550 0.000000000
vn 0.000000000 0.000000000 -1.000000000
vn 0.000000000 0.000000000 -1.000000000
vn 0.000000000 0.000000000 -1.000000000
vn -0.000000000 0.000000000 -1.000000000
vn 0.000000000 -0.000000000 -1.000000000
vn 0.000000000 0.000000000 -1.000000000
vn 0.000000000 0.000000000 1.000000000
vn 0.000000000 -0.000000000 1.000000000
vn 0.000000000 0.000000000 1.000000000
vn 0.000000000 0.000000000 1.000000000
vn 0.000000000 0.000000000 1.000000000
vn -0.000000000 0.000000000 1.000000000
vn 0.912242246 0.000000000 0.409651174
vn 0.912242246 -0.000000000 0.409651174
vn 0.000000000 0.000000000 1.000000000
vn 0.000000000 -0.000000000 1.000000000
vn -0.912242246 0.000000000 0.409651174
vn -0.912242246 0.000000000 0.409651174
vn -0.912242246 0.000000000 -0.409651174
vn -0.912242246 0.000000000 -0.409651174
vn 0.000000000 0.000000000 -1.000000000
vn 0.000000000 0.000000000 -1.000000000
vn 0.912242246 0.000000000 -0.409651174
vn 0.912242246 0.000000000 -0.409651174
vn 0.000000000 -1.000000000 0.000000000
vn 0.000000000 -1.000000000 0.000000000
vn 0.000000000 -1.000000000 0.000000000
vn -0.000000000 -1.000000000 0.000000000
vn 0.000000000 -1.000000000 -0.000000000
vn 0.000000000 -1.000000000 0.000000000
vn 0.000000000 1.000000000 0.000000000
vn 0.000000000 1.000000000 -0.000000000
vn 0.000000000 1.000000000 0.000000000
vn 0.000000000 1.000000000 0.000000000
vn 0.000000000 1.000000000 0.000000000
vn -0.000000000 1.000000000 0.000000000
vn 0.820732574 0.461662073 0.336550400
vn 0.808166673 0.493879634 0.320857500
vn -0.618207759 0.347741864 -0.704907627
vn -0.600541283 0.366997451 -0.710396396
vn -0.771752956 -0.434111038 -0.464698807
vn -0.767914714 -0.469281214 -0.435984099
vn 0.665726416 -0.374471109 0.645429879
vn 0.656160479 -0.400986960 0.639267459
vn 0.000000000 0.000000000 1.000000000
vn 0.000000000 -0.000000000 1.000000000
vn 0.000000000 0.000000000 1.000000000
vn -0.000000000 0.000000000 1.000000000
vn 0.000000000 0.000000000 -1.000000000
vn 0.000000000 0.000000000 -1.000000000
vn -0.000000000 -0.000000000 -1.000000000
vn 0.000000000 0.000000000 -1.000000000
f 1/1/1 2/1/1 3/1/1
f 1/2/2 3/2/2 4/2/2
f 2/3/3 5/3/3 6/3/3
f 2/4/4 6/4/4 3/4/4
f 5/5/5 7/5/5 8/5/5
f 5/6/6 8/6/6 6/6/6
f 7/7/7 9/7/7 10/7/7
f 7/8/8 10/8/8 8/8/8
f 9/9/9 11/9/9 12/9/9
f 9/10/10 12/10/10 10/10/10
f 11/11/11 13/11/11 14/11/11
f 11/12/12 14/12/12 12/12/12
f 13/13/13 15/13/13 16/13/13
f 13/14/14 16/14/14 14/14/14
f 15/15/15 1/15/15 4/15/15
f 15/16/16 4/16/16 16/16/16
f 4/17/17 3/17/17 17/17/17
f 4/18/18 17/18/18 18/18/18
f 3/19/19 6/19/19 19/19/19
f 3/20/20 19/20/20 17/20/20
f 6/21/21 8/21/21 20/21/21
f 6/22/22 20/22/22 19/22/22
f 8/23/23 10/23/23 21/23/23
f 8/24/24 21/24/24 20/24/24
f 10/25/25 12/25/25 22/25/25
f 10/26/26 22/26/26 21/26/26
f 12/27/27 14/27/27 23/27/27
f 12/28/28 23/28/28 22/28/28
f 14/29/29 16/29/29 24/29/29
f 14/30/30 24/30/30 23/30/30
f 16/31/31 4/31/31 18/31/31
f 16/32/32 18/32/32 24/32/32
f 18/33/33 17/33/33 25/33/33
f 18/34/34 25/34/34 26/34/34
f 17/35/35 19/35/35 27/35/35
f 17/36/36 27/36/36 25/36/36
f 19/37/37 20/37/37 28/37/37
f 19/38/38 28/38/38 27/38/38
f 20/39/39 21/39/39 29/39/39
f 20/40/40 29/40/40 28/40/40
f 21/41/41 22/41/41 30/41/41
f 21/42/42 30/42/42 29/42/42
f 22/43/43 23/43/43 31/43/43
f 22/44/44 31/44/44 30/44/44
f 23/45/45 24/45/45 32/45/45
f 23/46/46 32/46/46 31/46/46
f 24/47/47 18/47/47 26/47/47
f 24/48/48 26/48/48 32/48/48
f 26/49/49 25/49/49 33/49/49
f 26/50/50 33/50/50 34/50/50
f 25/51/51 27/51/51 35/51/51
f 25/52/52 35/52/52 33/52/52
f 27/53/53 28/53/53 36/53/53
f 27/54/54 36/54/54 35/54/54
f 28/55/55 29/55/55 37/55/55
f 28/56/56 37/56/56 36/56/56
f 29/57/57 30/57/57 38/57/57
f 29/58/58 38/58/58 37/58/58
f 30/59/59 31/59/59 39/59/59
f 30/60/60 39/60/60 38/60/60
f 31/61/61 32/61/61 40/61/61
f 31/62/62 40/62/62 39/62/62
f 32/63/63 26/63/63 34/63/63
f 32/64/64 34/64/64 40/64/64
f 41/65/65 2/65/65 1/65/65
f 41/66/66 5/66/66 2/66/66
f 41/67/67 7/67/67 5/67/67
f 41/68/68 9/68/68 7/68/68
f 41/69/69 11/69/69 9/69/69
f 41/70/70 13/70/70 11/70/70
f 41/71/71 15/71/71 13/71/71
f 41/72/72 1/72/72 15/72/72
f 42/73/73 34/73/73 33/73/73
f 42/74/74 33/74/74 35/74/74
f 42/75/75 35/75/75 36/75/75
f 42/76/76 36/76/76 37/76/76
f 42/77/77 37/77/77 38/77/77
f 42/78/78 38/78/78 39/78/78
f 42/79/79 39/79/79 40/79/79
f 42/80/80 40/80/80 34/80/80
f 43/81/81 44/81/81 45/81/81
f 43/82/82 45/82/82 46/82/82
f 47/83/83 48/83/83 49/83/83
f 47/84/84 50/84/84 48/84/84
f 43/85/85 49/85/85 44/85/85
f 43/86/86 47/86/86 49/86/86
f 44/87/87 48/87/87 45/87/87
f 44/88/88 49/88/88 48/88/88
f 45/89/89 50/89/89 46/89/89
f 45/90/90 48/90/90 50/90/90
f 46/91/91 47/91/91 43/91/91
f 46/92/92 50/92/92 47/92/92
f 51/93/93 52/93/93 53/93/93
f 51/94/94 54/94/94 52/94/94
f 55/95/95 56/95/95 57/95/95
f 55/96/96 57/96/96 58/96/96
f 51/97/97 53/97/97 56/97/97
f 51/98/98 56/98/98 55/98/98
f 53/99/99 52/99/99 57/99/99
f 53/100/100 57/100/100 56/100/100
f 52/101/101 54/101/101 58/101/101
f 52/102/102 58/102/102 57/102/102
f 54/103/103 51/103/103 55/103/103
f 54/104/104 55/104/104 58/104/104
f 59/105/105 60/105/105 61/105/105
f 59/106/106 61/106/106 62/106/106
f 63/107/107 64/107/107 65/107/107
f 63/108/108 66/108/108 64/108/108
f 59/109/109 65/109/109 60/109/109
f 59/110/110 63/110/110 65/110/110
f 60/111/111 64/111/111 61/111/111
f 60/112/112 65/112/112 64/112/112
f 61/113/113 66/113/113 62/113/113
f 61/114/114 64/114/114 66/114/114
f 62/115/115 63/115/115 59/115/115
f 62/116/116 66/116/116 63/116/116
f 67/117/117 68/117/117 69/117/117
f 67/118/118 69/118/118 70/118/118
f 68/119/119 71/119/119 72/119/119
f 68/120/120 72/120/120 69/120/120
f 71/121/121 73/121/121 74/121/121
f 71/122/122 74/122/122 72/122/122
f 73/123/123 75/123/123 76/123/123
f 73/124/124 76/124/124 74/124/124
f 75/125/125 77/125/125 78/125/125
f 75/126/126 78/126/126 76/126/126
f 77/127/127 67/127/127 70/127/127
f 77/128/128 70/128/128 78/128/128
f 79/129/129 68/129/129 67/129/129
f 79/130/130 71/130/130 68/130/130
f 79/131/131 73/131/131 71/131/131
f 79/132/132 75/132/132 73/132/132
f 79/133/133 77/133/133 75/133/133
f 79/134/134 67/134/134 77/134/134
f 80/135/135 70/135/135 69/135/135
f 80/136/136 69/136/136 72/136/136
f 80/137/137 72/137/137 74/137/137
f 80/138/138 74/138/138 76/138/138
f 80/139/139 76/139/139 78/139/139
f 80/140/140 78/140/140 70/140/140
f 81/141/141 82/141/141 83/141/141
f 81/142/142 84/142/142 82/142/142
f 83/143/143 85/143/143 86/143/143
f 83/144/144 82/144/144 85/144/144
f 86/145/145 87/145/145 88/145/145
f 86/146/146 85/146/146 87/146/146
f 88/147/147 89/147/147 90/147/147
f 88/148/148 87/148/148 89/148/148
f 90/149/149 91/149/149 92/149/149
f 90/150/150 89/150/150 91/150/150
f 92/151/151 84/151/151 81/151/151
f 92/152/152 91/152/152 84/152/152
f 93/153/153 81/153/153 83/153/153
f 93/154/154 83/154/154 86/154/154
f 93/155/155 86/155/155 88/155/155
f 93/156/156 88/156/156 90/156/156
f 93/157/157 90/157/157 92/157/157
f 93/158/158 92/158/158 81/158/158
f 94/159/159 82/159/159 84/159/159
f 94/160/160 85/160/160 82/160/160
f 94/161/161 87/161/161 85/161/161
f 94/162/162 89/162/162 87/162/162
f 94/163/163 91/163/163 89/163/163
f 94/164/164 84/164/164 91/164/164
f 95/165/165 96/165/165 97/165/165
f 95/166/166 98/166/166 96/166/166
f 97/167/167 99/167/167 100/167/167
f 97/168/168 96/168/168 99/168/168
f 100/169/169 101/169/169 102/169/169
f 100/170/170 99/170/170 101/170/170
f 102/171/171 98/171/171 95/171/171
f 102/172/172 101/172/172 98/172/172
f 103/173/173 95/173/173 97/173/173
f 103/174/174 97/174/174 100/174/174
f 103/175/175 100/175/175 102/175/175
f 103/176/176 102/176/176 95/176/176
f 104/177/177 96/177/177 98/177/177
f 104/178/178 99/178/178 96/178/178
f 104/179/179 101/179/179 99/179/179
f 104/180/180 98/180/180 101/180/180
f 105/181/181 106/181/181 107/181/181
f 105/182/182 107/182/182 108/182/182
f 106/183/183 109/183/183 110/183/183
f 106/184/184 110/184/184 107/184/184
f 109/185/185 111/185/185 112/185/185
f 109/186/186 112/186/186 110/186/186
f 111/187/187 113/187/187 114/187/187
f 111/188/188 114/188/188 112/188/188
f 113/189/189 115/189/189 116/189/189
f 113/190/190 116/190/190 114/190/190
f 115/191/191 105/191/191 108/191/191
f 115/192/192 108/192/192 116/192/192
f 117/193/193 106/193/193 105/193/193
f 117/194/194 109/194/194 106/194/194
f 117/195/195 111/195/195 109/195/195
f 117/196/196 113/196/196 111/196/196
f 117/197/197 115/197/197 113/197/197
f 117/198/198 105/198/198 115/198/198
f 118/199/199 108/199/199 107/199/199
f 118/200/200 107/200/200 110/200/200
f 118/201/201 110/201/201 112/201/201
f 118/202/202 112/202/202 114/202/202
f 118/203/203 114/203/203 116/203/203
f 118/204/204 116/204/204 108/204/204
f 119/205/205 120/205/205 121/205/205
f 119/206/206 122/206/206 120/206/206
f 121/207/207 123/207/207 124/207/207
f 121/208/208 120/208/208 123/208/208
f 124/209/209 125/209/209 126/209/209
f 124/210/210 123/210/210 125/210/210
f 126/211/211 127/211/211 128/211/211
f 126/212/212 125/212/212 127/212/212
f 128/213/213 129/213/213 130/213/213
f 128/214/214 127/214/214 129/214/214
f 130/215/215 122/215/215 119/215/215
f 130/216/216 129/216/216 122/216/216
f 131/217/217 119/217/217 121/217/217
f 131/218/218 121/218/218 124/218/218
f 131/219/219 124/219/219 126/219/219
f 131/220/220 126/220/220 128/220/220
f 131/221/221 128/221/221 130/221/221
f 131/222/222 130/222/222 119/222/222
f 132/223/223 120/223/223 122/223/223
f 132/224/224 123/224/224 120/224/224
f 132/225/225 125/225/225 123/225/225
f 132/226/226 127/226/226 125/226/226
f 132/227/227 129/227/227 127/227/227
f 132/228/228 122/228/228 129/228/228
f 133/229/229 134/229/229 135/229/229
f 133/230/230 136/230/230 134/230/230
f 135/231/231 137/231/231 138/231/231
f 135/232/232 134/232/232 137/232/232
f 138/233/233 139/233/233 140/233/233
f 138/234/234 137/234/234 139/234/234
f 140/235/235 136/235/235 133/235/235
f 140/236/236 139/236/236 136/236/236
f 141/237/237 133/237/237 135/237/237
f 141/238/238 135/238/238 138/238/238
f 141/239/239 138/239/239 140/239/239
f 141/240/240 140/240/240 133/240/240
f 142/241/241 134/241/241 136/241/241
f 142/242/242 137/242/242 134/242/242
f 142/243/243 139/243/243 137/243/243
f 142/244/244 136/244/244 139/244/244
