mtllib TorusFauna_ChickenA.mtl
o TorusFauna_ChickenA
usemtl TorusFaunaKit
s off
v 0.0178603 0.0710309 -0.0578500
v 0.0126291 0.0881704 -0.0578500
v 0.0247487 0.1046185 -0.0062500
v 0.0350000 0.0710309 -0.0062500
v 0.0000000 0.0952698 -0.0578500
v 0.0000000 0.1185309 -0.0062500
v -0.0126291 0.0881704 -0.0578500
v -0.0247487 0.1046185 -0.0062500
v -0.0178603 0.0710309 -0.0578500
v -0.0350000 0.0710309 -0.0062500
v -0.0126291 0.0538913 -0.0578500
v -0.0247487 0.0374433 -0.0062500
v -0.0000000 0.0467919 -0.0578500
v -0.0000000 0.0235309 -0.0062500
v 0.0126291 0.0538913 -0.0578500
v 0.0247487 0.0374433 -0.0062500
v 0.0126291 0.0881704 0.0453500
v 0.0178603 0.0710309 0.0453500
v 0.0000000 0.0952698 0.0453500
v -0.0126291 0.0881704 0.0453500
v -0.0178603 0.0710309 0.0453500
v -0.0126291 0.0538913 0.0453500
v -0.0000000 0.0467919 0.0453500
v 0.0126291 0.0538913 0.0453500
v 0.0000000 0.0710309 -0.0578500
v 0.0000000 0.0710309 0.0453500
v 0.0187500 0.0760309 0.0225000
v 0.0093750 0.1110309 0.0521530
v 0.0093750 0.0760309 0.0387380
v 0.0187500 0.1110309 0.0337500
v -0.0093750 0.1110309 0.0521530
v -0.0093750 0.0760309 0.0387380
v -0.0187500 0.1110309 0.0337500
v -0.0187500 0.0760309 0.0225000
v -0.0093750 0.1110309 0.0153470
v -0.0093750 0.0760309 0.0062620
v 0.0093750 0.1110309 0.0153470
v 0.0093750 0.0760309 0.0062620
v 0.0068750 0.1410309 0.0554904
v 0.0137500 0.1410309 0.0425000
v -0.0068750 0.1410309 0.0554904
v -0.0137500 0.1410309 0.0425000
v -0.0068750 0.1410309 0.0295096
v 0.0068750 0.1410309 0.0295096
v 0.0000000 0.0760309 0.0225000
v 0.0000000 0.1410309 0.0425000
v 0.0082923 0.1397809 0.0288750
v 0.0041461 0.1475146 0.0288750
v 0.0081250 0.1549363 0.0450000
v 0.0162500 0.1397809 0.0450000
v -0.0041461 0.1475146 0.0288750
v -0.0081250 0.1549363 0.0450000
v -0.0082923 0.1397809 0.0288750
v -0.0162500 0.1397809 0.0450000
v -0.0041461 0.1320471 0.0288750
v -0.0081250 0.1246254 0.0450000
v 0.0041461 0.1320471 0.0288750
v 0.0081250 0.1246254 0.0450000
v 0.0041461 0.1475146 0.0611250
v 0.0082923 0.1397809 0.0611250
v -0.0041461 0.1475146 0.0611250
v -0.0082923 0.1397809 0.0611250
v -0.0041461 0.1320471 0.0611250
v 0.0041461 0.1320471 0.0611250
v 0.0000000 0.1397809 0.0288750
v 0.0000000 0.1397809 0.0611250
v -0.0270349 0.0735309 -0.0410000
v -0.0315000 0.0894776 -0.0410000
v -0.0315000 0.1047809 -0.0087500
v -0.0227500 0.0735309 -0.0087500
v -0.0359651 0.0735309 -0.0410000
v -0.0402500 0.0735309 -0.0087500
v -0.0315000 0.0575842 -0.0410000
v -0.0315000 0.0422809 -0.0087500
v -0.0315000 0.0894776 0.0235000
v -0.0270349 0.0735309 0.0235000
v -0.0359651 0.0735309 0.0235000
v -0.0315000 0.0575842 0.0235000
v -0.0315000 0.0735309 -0.0410000
v -0.0315000 0.0735309 0.0235000
v -0.0130967 0.1435309 0.0502050
v -0.0137983 0.1449671 0.0502050
v -0.0137983 0.1449671 0.0557950
v -0.0130967 0.1435309 0.0557950
v -0.0152017 0.1449671 0.0502050
v -0.0152017 0.1449671 0.0557950
v -0.0159033 0.1435309 0.0502050
v -0.0159033 0.1435309 0.0557950
v -0.0152017 0.1420946 0.0502050
v -0.0152017 0.1420946 0.0557950
v -0.0137983 0.1420946 0.0502050
v -0.0137983 0.1420946 0.0557950
v -0.0145000 0.1435309 0.0502050
v -0.0145000 0.1435309 0.0557950
v -0.0100000 0.0027809 0.0037500
v -0.0126684 0.0335309 -0.0021468
v -0.0125912 0.0027809 0.0070787
v -0.0102500 0.0335309 -0.0050000
v -0.0165816 0.0335309 -0.0032366
v -0.0167838 0.0027809 0.0058072
v -0.0165816 0.0335309 -0.0067634
v -0.0167838 0.0027809 0.0016928
v -0.0126684 0.0335309 -0.0078532
v -0.0125912 0.0027809 0.0004213
v -0.0137500 0.0027809 0.0037500
v -0.0137500 0.0335309 -0.0050000
v -0.0187243 0.0015309 -0.0010750
v -0.0200000 0.0030618 -0.0010750
v -0.0200000 0.0030618 0.0225750
v -0.0187243 0.0015309 0.0225750
v -0.0212757 0.0015309 -0.0010750
v -0.0212757 0.0015309 0.0225750
v -0.0200000 0.0000000 -0.0010750
v -0.0200000 0.0000000 0.0225750
v -0.0200000 0.0015309 -0.0010750
v -0.0200000 0.0015309 0.0225750
v -0.0124743 0.0015309 -0.0010750
v -0.0137500 0.0030618 -0.0010750
v -0.0137500 0.0030618 0.0225750
v -0.0124743 0.0015309 0.0225750
v -0.0150257 0.0015309 -0.0010750
v -0.0150257 0.0015309 0.0225750
v -0.0137500 0.0000000 -0.0010750
v -0.0137500 0.0000000 0.0225750
v -0.0137500 0.0015309 -0.0010750
v -0.0137500 0.0015309 0.0225750
v -0.0062243 0.0015309 -0.0010750
v -0.0075000 0.0030618 -0.0010750
v -0.0075000 0.0030618 0.0225750
v -0.0062243 0.0015309 0.0225750
v -0.0087757 0.0015309 -0.0010750
v -0.0087757 0.0015309 0.0225750
v -0.0075000 0.0000000 -0.0010750
v -0.0075000 0.0000000 0.0225750
v -0.0075000 0.0015309 -0.0010750
v -0.0075000 0.0015309 0.0225750
v 0.0359651 0.0735309 -0.0410000
v 0.0315000 0.0894776 -0.0410000
v 0.0315000 0.1047809 -0.0087500
v 0.0402500 0.0735309 -0.0087500
v 0.0270349 0.0735309 -0.0410000
v 0.0227500 0.0735309 -0.0087500
v 0.0315000 0.0575842 -0.0410000
v 0.0315000 0.0422809 -0.0087500
v 0.0315000 0.0894776 0.0235000
v 0.0359651 0.0735309 0.0235000
v 0.0270349 0.0735309 0.0235000
v 0.0315000 0.0575842 0.0235000
v 0.0315000 0.0735309 -0.0410000
v 0.0315000 0.0735309 0.0235000
v 0.0159033 0.1435309 0.0502050
v 0.0152017 0.1449671 0.0502050
v 0.0152017 0.1449671 0.0557950
v 0.0159033 0.1435309 0.0557950
v 0.0137983 0.1449671 0.0502050
v 0.0137983 0.1449671 0.0557950
v 0.0130967 0.1435309 0.0502050
v 0.0130967 0.1435309 0.0557950
v 0.0137983 0.1420946 0.0502050
v 0.0137983 0.1420946 0.0557950
v 0.0152017 0.1420946 0.0502050
v 0.0152017 0.1420946 0.0557950
v 0.0145000 0.1435309 0.0502050
v 0.0145000 0.1435309 0.0557950
v 0.0175000 0.0027809 0.0037500
v 0.0148316 0.0335309 -0.0021468
v 0.0149088 0.0027809 0.0070787
v 0.0172500 0.0335309 -0.0050000
v 0.0109184 0.0335309 -0.0032366
v 0.0107162 0.0027809 0.0058072
v 0.0109184 0.0335309 -0.0067634
v 0.0107162 0.0027809 0.0016928
v 0.0148316 0.0335309 -0.0078532
v 0.0149088 0.0027809 0.0004213
v 0.0137500 0.0027809 0.0037500
v 0.0137500 0.0335309 -0.0050000
v 0.0087757 0.0015309 -0.0010750
v 0.0075000 0.0030618 -0.0010750
v 0.0075000 0.0030618 0.0225750
v 0.0087757 0.0015309 0.0225750
v 0.0062243 0.0015309 -0.0010750
v 0.0062243 0.0015309 0.0225750
v 0.0075000 0.0000000 -0.0010750
v 0.0075000 0.0000000 0.0225750
v 0.0075000 0.0015309 -0.0010750
v 0.0075000 0.0015309 0.0225750
v 0.0150257 0.0015309 -0.0010750
v 0.0137500 0.0030618 -0.0010750
v 0.0137500 0.0030618 0.0225750
v 0.0150257 0.0015309 0.0225750
v 0.0124743 0.0015309 -0.0010750
v 0.0124743 0.0015309 0.0225750
v 0.0137500 0.0000000 -0.0010750
v 0.0137500 0.0000000 0.0225750
v 0.0137500 0.0015309 -0.0010750
v 0.0137500 0.0015309 0.0225750
v 0.0212757 0.0015309 -0.0010750
v 0.0200000 0.0030618 -0.0010750
v 0.0200000 0.0030618 0.0225750
v 0.0212757 0.0015309 0.0225750
v 0.0187243 0.0015309 -0.0010750
v 0.0187243 0.0015309 0.0225750
v 0.0200000 0.0000000 -0.0010750
v 0.0200000 0.0000000 0.0225750
v 0.0200000 0.0015309 -0.0010750
v 0.0200000 0.0015309 0.0225750
v 0.0087500 0.1397809 0.0575000
v 0.0000000 0.1460309 0.0575000
v 0.0000000 0.1380309 0.0712500
v 0.0015000 0.1365309 0.0712500
v -0.0087500 0.1397809 0.0575000
v -0.0015000 0.1365309 0.0712500
v -0.0000000 0.1335309 0.0575000
v -0.0000000 0.1350309 0.0712500
v 0.0000000 0.1397809 0.0575000
v 0.0000000 0.1365309 0.0712500
v 0.0035721 0.1207909 0.0577500
v 0.0017860 0.1362709 0.0598492
v 0.0017860 0.1207909 0.0598492
v 0.0035721 0.1362709 0.0577500
v -0.0017860 0.1362709 0.0598492
v -0.0017860 0.1207909 0.0598492
v -0.0035721 0.1362709 0.0577500
v -0.0035721 0.1207909 0.0577500
v -0.0017860 0.1362709 0.0556508
v -0.0017860 0.1207909 0.0556508
v 0.0017860 0.1362709 0.0556508
v 0.0017860 0.1207909 0.0556508
v 0.0000000 0.1207909 0.0577500
v 0.0000000 0.1362709 0.0577500
v -0.0032500 0.1497809 0.0325000
v -0.0032500 0.1590309 0.0400000
v -0.0032500 0.1635309 0.0337500
v -0.0032500 0.1662809 0.0450000
v -0.0032500 0.1597809 0.0495000
v -0.0032500 0.1630309 0.0555000
v -0.0032500 0.1495309 0.0585000
v 0.0032500 0.1497809 0.0325000
v 0.0032500 0.1635309 0.0337500
v 0.0032500 0.1590309 0.0400000
v 0.0032500 0.1662809 0.0450000
v 0.0032500 0.1597809 0.0495000
v 0.0032500 0.1630309 0.0555000
v 0.0032500 0.1495309 0.0585000
v 0.0225000 0.0735309 -0.0450000
v 0.0150000 0.1290990 -0.0750000
v 0.0112500 0.0865213 -0.0450000
v 0.0300000 0.1085309 -0.0750000
v -0.0150000 0.1290990 -0.0750000
v -0.0112500 0.0865213 -0.0450000
v -0.0300000 0.1085309 -0.0750000
v -0.0225000 0.0735309 -0.0450000
v -0.0150000 0.0879628 -0.0750000
v -0.0112500 0.0605405 -0.0450000
v 0.0150000 0.0879628 -0.0750000
v 0.0112500 0.0605405 -0.0450000
v 0.0087500 0.1318562 -0.0850000
v 0.0175000 0.1210309 -0.0850000
v -0.0087500 0.1318562 -0.0850000
v -0.0175000 0.1210309 -0.0850000
v -0.0087500 0.1102056 -0.0850000
v 0.0087500 0.1102056 -0.0850000
v 0.0000000 0.0735309 -0.0450000
v 0.0000000 0.1210309 -0.0850000
vt 0.1250000 0.6250000
vt 0.1250000 0.6250000
vt 0.1250000 0.6250000
vt 0.1250000 0.6250000
vt 0.1250000 0.6250000
vt 0.1250000 0.6250000
vt 0.1250000 0.6250000
vt 0.1250000 0.6250000
vt 0.1250000 0.6250000
vt 0.1250000 0.6250000
vt 0.1250000 0.6250000
vt 0.1250000 0.6250000
vt 0.1250000 0.6250000
vt 0.1250000 0.6250000
vt 0.1250000 0.6250000
vt 0.1250000 0.6250000
vt 0.1250000 0.6250000
vt 0.1250000 0.6250000
vt 0.1250000 0.6250000
vt 0.1250000 0.6250000
vt 0.1250000 0.6250000
vt 0.1250000 0.6250000
vt 0.1250000 0.6250000
vt 0.1250000 0.6250000
vt 0.1250000 0.6250000
vt 0.1250000 0.6250000
vt 0.1250000 0.6250000
vt 0.1250000 0.6250000
vt 0.1250000 0.6250000
vt 0.1250000 0.6250000
vt 0.1250000 0.6250000
vt 0.1250000 0.6250000
vt 0.1250000 0.6250000
vt 0.1250000 0.6250000
vt 0.1250000 0.6250000
vt 0.1250000 0.6250000
vt 0.1250000 0.6250000
vt 0.1250000 0.6250000
vt 0.1250000 0.6250000
vt 0.1250000 0.6250000
vt 0.1250000 0.6250000
vt 0.1250000 0.6250000
vt 0.1250000 0.6250000
vt 0.1250000 0.6250000
vt 0.1250000 0.6250000
vt 0.1250000 0.6250000
vt 0.1250000 0.6250000
vt 0.1250000 0.6250000
vt 0.1250000 0.6250000
vt 0.1250000 0.6250000
vt 0.1250000 0.6250000
vt 0.1250000 0.6250000
vt 0.1250000 0.6250000
vt 0.1250000 0.6250000
vt 0.1250000 0.6250000
vt 0.1250000 0.6250000
vt 0.1250000 0.6250000
vt 0.1250000 0.6250000
vt 0.1250000 0.6250000
vt 0.1250000 0.6250000
vt 0.1250000 0.6250000
vt 0.1250000 0.6250000
vt 0.1250000 0.6250000
vt 0.1250000 0.6250000
vt 0.1250000 0.6250000
vt 0.1250000 0.6250000
vt 0.1250000 0.6250000
vt 0.1250000 0.6250000
vt 0.1250000 0.6250000
vt 0.1250000 0.6250000
vt 0.1250000 0.6250000
vt 0.1250000 0.6250000
vt 0.1250000 0.6250000
vt 0.1250000 0.6250000
vt 0.1250000 0.6250000
vt 0.1250000 0.6250000
vt 0.1250000 0.6250000
vt 0.1250000 0.6250000
vt 0.1250000 0.6250000
vt 0.1250000 0.6250000
vt 0.1250000 0.6250000
vt 0.1250000 0.6250000
vt 0.1250000 0.6250000
vt 0.1250000 0.6250000
vt 0.1250000 0.6250000
vt 0.1250000 0.6250000
vt 0.1250000 0.6250000
vt 0.1250000 0.6250000
vt 0.1250000 0.6250000
vt 0.1250000 0.6250000
vt 0.1250000 0.6250000
vt 0.1250000 0.6250000
vt 0.1250000 0.6250000
vt 0.1250000 0.6250000
vt 0.1250000 0.6250000
vt 0.1250000 0.6250000
vt 0.1250000 0.6250000
vt 0.1250000 0.6250000
vt 0.1250000 0.6250000
vt 0.1250000 0.6250000
vt 0.1250000 0.6250000
vt 0.1250000 0.6250000
vt 0.1250000 0.6250000
vt 0.1250000 0.6250000
vt 0.1250000 0.6250000
vt 0.1250000 0.6250000
vt 0.1250000 0.6250000
vt 0.1250000 0.6250000
vt 0.1250000 0.6250000
vt 0.1250000 0.6250000
vt 0.1250000 0.6250000
vt 0.1250000 0.6250000
vt 0.1250000 0.6250000
vt 0.1250000 0.6250000
vt 0.1250000 0.6250000
vt 0.1250000 0.6250000
vt 0.1250000 0.6250000
vt 0.1250000 0.6250000
vt 0.1250000 0.6250000
vt 0.1250000 0.6250000
vt 0.3750000 0.6250000
vt 0.3750000 0.6250000
vt 0.3750000 0.6250000
vt 0.3750000 0.6250000
vt 0.3750000 0.6250000
vt 0.3750000 0.6250000
vt 0.3750000 0.6250000
vt 0.3750000 0.6250000
vt 0.3750000 0.6250000
vt 0.3750000 0.6250000
vt 0.3750000 0.6250000
vt 0.3750000 0.6250000
vt 0.3750000 0.6250000
vt 0.3750000 0.6250000
vt 0.3750000 0.6250000
vt 0.3750000 0.6250000
vt 0.3750000 0.6250000
vt 0.3750000 0.6250000
vt 0.3750000 0.6250000
vt 0.3750000 0.6250000
vt 0.3750000 0.6250000
vt 0.3750000 0.6250000
vt 0.3750000 0.6250000
vt 0.3750000 0.6250000
vt 0.1250000 0.1250000
vt 0.1250000 0.1250000
vt 0.1250000 0.1250000
vt 0.1250000 0.1250000
vt 0.1250000 0.1250000
vt 0.1250000 0.1250000
vt 0.1250000 0.1250000
vt 0.1250000 0.1250000
vt 0.1250000 0.1250000
vt 0.1250000 0.1250000
vt 0.1250000 0.1250000
vt 0.1250000 0.1250000
vt 0.1250000 0.1250000
vt 0.1250000 0.1250000
vt 0.1250000 0.1250000
vt 0.1250000 0.1250000
vt 0.1250000 0.1250000
vt 0.1250000 0.1250000
vt 0.1250000 0.1250000
vt 0.1250000 0.1250000
vt 0.1250000 0.1250000
vt 0.1250000 0.1250000
vt 0.1250000 0.1250000
vt 0.1250000 0.1250000
vt 0.8750000 0.6250000
vt 0.8750000 0.6250000
vt 0.8750000 0.6250000
vt 0.8750000 0.6250000
vt 0.8750000 0.6250000
vt 0.8750000 0.6250000
vt 0.8750000 0.6250000
vt 0.8750000 0.6250000
vt 0.8750000 0.6250000
vt 0.8750000 0.6250000
vt 0.8750000 0.6250000
vt 0.8750000 0.6250000
vt 0.8750000 0.6250000
vt 0.8750000 0.6250000
vt 0.8750000 0.6250000
vt 0.8750000 0.6250000
vt 0.8750000 0.6250000
vt 0.8750000 0.6250000
vt 0.8750000 0.6250000
vt 0.8750000 0.6250000
vt 0.8750000 0.6250000
vt 0.8750000 0.6250000
vt 0.8750000 0.6250000
vt 0.8750000 0.6250000
vt 0.8750000 0.6250000
vt 0.8750000 0.6250000
vt 0.8750000 0.6250000
vt 0.8750000 0.6250000
vt 0.8750000 0.6250000
vt 0.8750000 0.6250000
vt 0.8750000 0.6250000
vt 0.8750000 0.6250000
vt 0.8750000 0.6250000
vt 0.8750000 0.6250000
vt 0.8750000 0.6250000
vt 0.8750000 0.6250000
vt 0.8750000 0.6250000
vt 0.8750000 0.6250000
vt 0.8750000 0.6250000
vt 0.8750000 0.6250000
vt 0.8750000 0.6250000
vt 0.8750000 0.6250000
vt 0.8750000 0.6250000
vt 0.8750000 0.6250000
vt 0.8750000 0.6250000
vt 0.8750000 0.6250000
vt 0.8750000 0.6250000
vt 0.8750000 0.6250000
vt 0.8750000 0.6250000
vt 0.8750000 0.6250000
vt 0.8750000 0.6250000
vt 0.8750000 0.6250000
vt 0.8750000 0.6250000
vt 0.8750000 0.6250000
vt 0.8750000 0.6250000
vt 0.8750000 0.6250000
vt 0.8750000 0.6250000
vt 0.8750000 0.6250000
vt 0.8750000 0.6250000
vt 0.8750000 0.6250000
vt 0.8750000 0.6250000
vt 0.8750000 0.6250000
vt 0.8750000 0.6250000
vt 0.8750000 0.6250000
vt 0.8750000 0.6250000
vt 0.8750000 0.6250000
vt 0.8750000 0.6250000
vt 0.8750000 0.6250000
vt 0.3750000 0.6250000
vt 0.3750000 0.6250000
vt 0.3750000 0.6250000
vt 0.3750000 0.6250000
vt 0.3750000 0.6250000
vt 0.3750000 0.6250000
vt 0.3750000 0.6250000
vt 0.3750000 0.6250000
vt 0.3750000 0.6250000
vt 0.3750000 0.6250000
vt 0.3750000 0.6250000
vt 0.3750000 0.6250000
vt 0.3750000 0.6250000
vt 0.3750000 0.6250000
vt 0.3750000 0.6250000
vt 0.3750000 0.6250000
vt 0.3750000 0.6250000
vt 0.3750000 0.6250000
vt 0.3750000 0.6250000
vt 0.3750000 0.6250000
vt 0.3750000 0.6250000
vt 0.3750000 0.6250000
vt 0.3750000 0.6250000
vt 0.3750000 0.6250000
vt 0.1250000 0.1250000
vt 0.1250000 0.1250000
vt 0.1250000 0.1250000
vt 0.1250000 0.1250000
vt 0.1250000 0.1250000
vt 0.1250000 0.1250000
vt 0.1250000 0.1250000
vt 0.1250000 0.1250000
vt 0.1250000 0.1250000
vt 0.1250000 0.1250000
vt 0.1250000 0.1250000
vt 0.1250000 0.1250000
vt 0.1250000 0.1250000
vt 0.1250000 0.1250000
vt 0.1250000 0.1250000
vt 0.1250000 0.1250000
vt 0.1250000 0.1250000
vt 0.1250000 0.1250000
vt 0.1250000 0.1250000
vt 0.1250000 0.1250000
vt 0.1250000 0.1250000
vt 0.1250000 0.1250000
vt 0.1250000 0.1250000
vt 0.1250000 0.1250000
vt 0.8750000 0.6250000
vt 0.8750000 0.6250000
vt 0.8750000 0.6250000
vt 0.8750000 0.6250000
vt 0.8750000 0.6250000
vt 0.8750000 0.6250000
vt 0.8750000 0.6250000
vt 0.8750000 0.6250000
vt 0.8750000 0.6250000
vt 0.8750000 0.6250000
vt 0.8750000 0.6250000
vt 0.8750000 0.6250000
vt 0.8750000 0.6250000
vt 0.8750000 0.6250000
vt 0.8750000 0.6250000
vt 0.8750000 0.6250000
vt 0.8750000 0.6250000
vt 0.8750000 0.6250000
vt 0.8750000 0.6250000
vt 0.8750000 0.6250000
vt 0.8750000 0.6250000
vt 0.8750000 0.6250000
vt 0.8750000 0.6250000
vt 0.8750000 0.6250000
vt 0.8750000 0.6250000
vt 0.8750000 0.6250000
vt 0.8750000 0.6250000
vt 0.8750000 0.6250000
vt 0.8750000 0.6250000
vt 0.8750000 0.6250000
vt 0.8750000 0.6250000
vt 0.8750000 0.6250000
vt 0.8750000 0.6250000
vt 0.8750000 0.6250000
vt 0.8750000 0.6250000
vt 0.8750000 0.6250000
vt 0.8750000 0.6250000
vt 0.8750000 0.6250000
vt 0.8750000 0.6250000
vt 0.8750000 0.6250000
vt 0.8750000 0.6250000
vt 0.8750000 0.6250000
vt 0.8750000 0.6250000
vt 0.8750000 0.6250000
vt 0.8750000 0.6250000
vt 0.8750000 0.6250000
vt 0.8750000 0.6250000
vt 0.8750000 0.6250000
vt 0.8750000 0.6250000
vt 0.8750000 0.6250000
vt 0.8750000 0.6250000
vt 0.8750000 0.6250000
vt 0.8750000 0.6250000
vt 0.8750000 0.6250000
vt 0.8750000 0.6250000
vt 0.8750000 0.6250000
vt 0.8750000 0.6250000
vt 0.8750000 0.6250000
vt 0.8750000 0.6250000
vt 0.8750000 0.6250000
vt 0.8750000 0.6250000
vt 0.8750000 0.6250000
vt 0.8750000 0.6250000
vt 0.8750000 0.6250000
vt 0.8750000 0.6250000
vt 0.8750000 0.6250000
vt 0.8750000 0.6250000
vt 0.8750000 0.6250000
vt 0.8750000 0.6250000
vt 0.8750000 0.6250000
vt 0.8750000 0.6250000
vt 0.8750000 0.6250000
vt 0.8750000 0.6250000
vt 0.8750000 0.6250000
vt 0.8750000 0.6250000
vt 0.8750000 0.6250000
vt 0.8750000 0.6250000
vt 0.8750000 0.6250000
vt 0.8750000 0.6250000
vt 0.8750000 0.6250000
vt 0.8750000 0.6250000
vt 0.8750000 0.6250000
vt 0.8750000 0.6250000
vt 0.8750000 0.6250000
vt 0.6250000 0.6250000
vt 0.6250000 0.6250000
vt 0.6250000 0.6250000
vt 0.6250000 0.6250000
vt 0.6250000 0.6250000
vt 0.6250000 0.6250000
vt 0.6250000 0.6250000
vt 0.6250000 0.6250000
vt 0.6250000 0.6250000
vt 0.6250000 0.6250000
vt 0.6250000 0.6250000
vt 0.6250000 0.6250000
vt 0.6250000 0.6250000
vt 0.6250000 0.6250000
vt 0.6250000 0.6250000
vt 0.6250000 0.6250000
vt 0.6250000 0.6250000
vt 0.6250000 0.6250000
vt 0.6250000 0.6250000
vt 0.6250000 0.6250000
vt 0.6250000 0.6250000
vt 0.6250000 0.6250000
vt 0.6250000 0.6250000
vt 0.6250000 0.6250000
vt 0.6250000 0.6250000
vt 0.6250000 0.6250000
vt 0.6250000 0.6250000
vt 0.6250000 0.6250000
vt 0.6250000 0.6250000
vt 0.6250000 0.6250000
vt 0.6250000 0.6250000
vt 0.6250000 0.6250000
vt 0.6250000 0.6250000
vt 0.6250000 0.6250000
vt 0.6250000 0.6250000
vt 0.6250000 0.6250000
vt 0.6250000 0.6250000
vt 0.6250000 0.6250000
vt 0.6250000 0.6250000
vt 0.6250000 0.6250000
vt 0.6250000 0.6250000
vt 0.6250000 0.6250000
vt 0.6250000 0.6250000
vt 0.6250000 0.6250000
vt 0.6250000 0.6250000
vt 0.6250000 0.6250000
vt 0.6250000 0.6250000
vt 0.6250000 0.6250000
vt 0.3750000 0.6250000
vt 0.3750000 0.6250000
vt 0.3750000 0.6250000
vt 0.3750000 0.6250000
vt 0.3750000 0.6250000
vt 0.3750000 0.6250000
vt 0.3750000 0.6250000
vt 0.3750000 0.6250000
vt 0.3750000 0.6250000
vt 0.3750000 0.6250000
vt 0.3750000 0.6250000
vt 0.3750000 0.6250000
vt 0.3750000 0.6250000
vt 0.3750000 0.6250000
vt 0.3750000 0.6250000
vt 0.3750000 0.6250000
vt 0.3750000 0.6250000
vt 0.3750000 0.6250000
vt 0.3750000 0.6250000
vt 0.3750000 0.6250000
vt 0.3750000 0.6250000
vt 0.3750000 0.6250000
vt 0.3750000 0.6250000
vt 0.3750000 0.6250000
vt 0.3750000 0.6250000
vt 0.3750000 0.6250000
vt 0.3750000 0.6250000
vt 0.3750000 0.6250000
vt 0.3750000 0.6250000
vt 0.3750000 0.6250000
vt 0.3750000 0.6250000
vt 0.3750000 0.6250000
vt 0.3750000 0.6250000
vt 0.3750000 0.6250000
vt 0.3750000 0.6250000
vt 0.3750000 0.6250000
vn 0.911546571 0.278215959 -0.302784956
vn 0.911547461 0.278214177 -0.302783915
vn 0.456076906 0.811313752 -0.365737409
vn 0.456077273 0.811313620 -0.365737242
vn -0.456076941 0.811313815 -0.365737226
vn -0.456077255 0.811313588 -0.365737335
vn -0.911546940 0.278216071 -0.302783742
vn -0.911547272 0.278214119 -0.302784534
vn -0.911547274 -0.278214550 -0.302784133
vn -0.911547461 -0.278214177 -0.302783915
vn -0.456077168 -0.811314218 -0.365736047
vn -0.456077536 -0.811314087 -0.365735880
vn 0.456077203 -0.811314281 -0.365735864
vn 0.456077518 -0.811314055 -0.365735973
vn 0.911547351 -0.278214574 -0.302783879
vn 0.911547421 -0.278214165 -0.302784045
vn 0.911547272 0.278214119 0.302784534
vn 0.911546940 0.278216071 0.302783742
vn 0.456077255 0.811313588 0.365737335
vn 0.456076941 0.811313815 0.365737226
vn -0.456077273 0.811313620 0.365737242
vn -0.456076906 0.811313752 0.365737409
vn -0.911547461 0.278214177 0.302783915
vn -0.911546571 0.278215959 0.302784956
vn -0.911547421 -0.278214165 0.302784045
vn -0.911547351 -0.278214574 0.302783879
vn -0.456077518 -0.811314055 0.365735973
vn -0.456077203 -0.811314281 0.365735864
vn 0.456077536 -0.811314087 0.365735880
vn 0.456077168 -0.811314218 0.365736047
vn 0.911547461 -0.278214177 0.302783915
vn 0.911547274 -0.278214550 0.302784133
vn 0.000000000 0.000000000 -1.000000000
vn 0.000000000 0.000000000 -1.000000000
vn 0.000000000 0.000000000 -1.000000000
vn 0.000000000 0.000000000 -1.000000000
vn -0.000000000 0.000000000 -1.000000000
vn 0.000000000 0.000000000 -1.000000000
vn 0.000000000 -0.000000000 -1.000000000
vn 0.000000000 0.000000000 -1.000000000
vn 0.000000000 0.000000000 1.000000000
vn 0.000000000 0.000000000 1.000000000
vn 0.000000000 -0.000000000 1.000000000
vn 0.000000000 0.000000000 1.000000000
vn 0.000000000 0.000000000 1.000000000
vn 0.000000000 0.000000000 1.000000000
vn 0.000000000 0.000000000 1.000000000
vn -0.000000000 0.000000000 1.000000000
vn 0.850547565 -0.188217490 0.491063149
vn 0.881706350 -0.144374701 0.449165736
vn 0.000000000 -0.357897243 0.933760978
vn 0.000000000 -0.357897243 0.933760978
vn -0.855053519 -0.158677926 0.493664659
vn -0.877854609 -0.171406733 0.447203552
vn -0.858822793 0.128706117 -0.495840848
vn -0.881706350 0.144374701 -0.449165736
vn 0.000000000 0.251245274 -0.967923454
vn 0.000000000 0.251245274 -0.967923454
vn 0.855053519 0.158677926 -0.493664659
vn 0.884920327 0.117015585 -0.450803025
vn 0.890790387 0.023749530 0.453793397
vn 0.883799516 0.010875933 0.467739382
vn 0.000000000 -0.110564607 0.993868939
vn 0.000000000 -0.110564607 0.993868939
vn -0.890926063 0.016111111 0.453862514
vn -0.883645358 0.021611742 0.467657796
vn -0.856115158 0.277233555 -0.436128871
vn -0.850286525 0.272965316 -0.450003068
vn 0.000000000 0.426906071 -0.904295973
vn 0.000000000 0.426906071 -0.904295973
vn 0.857840195 0.270433931 -0.437007653
vn 0.847853497 0.282487025 -0.448715420
vn 0.000000000 -1.000000000 0.000000000
vn 0.000000000 -1.000000000 0.000000000
vn 0.000000000 -1.000000000 0.000000000
vn -0.000000000 -1.000000000 0.000000000
vn 0.000000000 -1.000000000 -0.000000000
vn 0.000000000 -1.000000000 0.000000000
vn 0.000000000 1.000000000 0.000000000
vn 0.000000000 1.000000000 -0.000000000
vn 0.000000000 1.000000000 0.000000000
vn 0.000000000 1.000000000 0.000000000
vn 0.000000000 1.000000000 0.000000000
vn -0.000000000 1.000000000 0.000000000
vn 0.808194122 0.433289948 -0.398850952
vn 0.808198657 0.433285436 -0.398846664
vn 0.000000000 0.908400601 -0.418100883
vn 0.000000000 0.908400601 -0.418100883
vn -0.808196226 0.433291076 -0.398845464
vn -0.808197584 0.433284860 -0.398849464
vn -0.808196915 -0.433285843 -0.398849752
vn -0.808199659 -0.433283113 -0.398847158
vn 0.000000000 -0.908400601 -0.418100883
vn 0.000000000 -0.908400601 -0.418100883
vn 0.808198188 -0.433286525 -0.398846432
vn 0.808199009 -0.433282765 -0.398848852
vn 0.808197584 0.433284860 0.398849464
vn 0.808196226 0.433291076 0.398845464
vn 0.000000000 0.908400601 0.418100883
vn 0.000000000 0.908400601 0.418100883
vn -0.808198657 0.433285436 0.398846664
vn -0.808194122 0.433289948 0.398850952
vn -0.808199009 -0.433282765 0.398848852
vn -0.808198188 -0.433286525 0.398846432
vn 0.000000000 -0.908400601 0.418100883
vn 0.000000000 -0.908400601 0.418100883
vn 0.808199659 -0.433283113 0.398847158
vn 0.808196915 -0.433285843 0.398849752
vn 0.000000000 0.000000000 -1.000000000
vn 0.000000000 0.000000000 -1.000000000
vn 0.000000000 0.000000000 -1.000000000
vn -0.000000000 0.000000000 -1.000000000
vn 0.000000000 -0.000000000 -1.000000000
vn 0.000000000 0.000000000 -1.000000000
vn 0.000000000 0.000000000 1.000000000
vn 0.000000000 -0.000000000 1.000000000
vn 0.000000000 0.000000000 1.000000000
vn 0.000000000 0.000000000 1.000000000
vn 0.000000000 0.000000000 1.000000000
vn -0.000000000 0.000000000 1.000000000
vn 0.955177208 0.267451056 -0.126911124
vn 0.955177744 0.267449768 -0.126909802
vn -0.955177377 0.267451103 -0.126909753
vn -0.955177658 0.267449744 -0.126910501
vn -0.955177208 -0.267451056 -0.126911124
vn -0.955177744 -0.267449768 -0.126909802
vn 0.955177377 -0.267451103 -0.126909753
vn 0.955177658 -0.267449744 -0.126910501
vn 0.955177658 0.267449744 0.126910501
vn 0.955177377 0.267451103 0.126909753
vn -0.955177744 0.267449768 0.126909802
vn -0.955177208 0.267451056 0.126911124
vn -0.955177658 -0.267449744 0.126910501
vn -0.955177377 -0.267451103 0.126909753
vn 0.955177744 -0.267449768 0.126909802
vn 0.955177208 -0.267451056 0.126911124
vn 0.000000000 0.000000000 -1.000000000
vn 0.000000000 0.000000000 -1.000000000
vn -0.000000000 -0.000000000 -1.000000000
vn 0.000000000 0.000000000 -1.000000000
vn 0.000000000 0.000000000 1.000000000
vn 0.000000000 -0.000000000 1.000000000
vn 0.000000000 0.000000000 1.000000000
vn -0.000000000 0.000000000 1.000000000
vn 0.898518171 0.438936324 0.000000000
vn 0.898518171 0.438936324 -0.000000000
vn 0.000000000 1.000000000 0.000000000
vn 0.000000000 1.000000000 -0.000000000
vn -0.898518171 0.438936324 0.000000000
vn -0.898518171 0.438936324 0.000000000
vn -0.898530223 -0.438911651 0.000000000
vn -0.898530223 -0.438911651 0.000000000
vn 0.000000000 -1.000000000 0.000000000
vn 0.000000000 -1.000000000 0.000000000
vn 0.898530223 -0.438911651 0.000000000
vn 0.898530223 -0.438911651 0.000000000
vn 0.000000000 0.000000000 -1.000000000
vn 0.000000000 0.000000000 -1.000000000
vn 0.000000000 0.000000000 -1.000000000
vn -0.000000000 0.000000000 -1.000000000
vn 0.000000000 -0.000000000 -1.000000000
vn 0.000000000 0.000000000 -1.000000000
vn 0.000000000 0.000000000 1.000000000
vn 0.000000000 -0.000000000 1.000000000
vn 0.000000000 0.000000000 1.000000000
vn 0.000000000 0.000000000 1.000000000
vn 0.000000000 0.000000000 1.000000000
vn -0.000000000 0.000000000 1.000000000
vn 0.775754721 0.183121430 0.603880083
vn 0.749404851 0.186841493 0.635202822
vn -0.279226284 0.272623944 0.920711066
vn -0.257781391 0.277056478 0.925628685
vn -0.999978381 0.006575468 0.000000000
vn -0.999978381 0.006575468 0.000000000
vn -0.281001372 -0.250034101 -0.926564179
vn -0.259450684 -0.254488681 -0.931622699
vn 0.778144829 -0.166038843 -0.605740644
vn 0.751789382 -0.169582817 -0.637223974
vn 0.000000000 -1.000000000 0.000000000
vn 0.000000000 -1.000000000 0.000000000
vn -0.000000000 -1.000000000 0.000000000
vn 0.000000000 -1.000000000 -0.000000000
vn 0.000000000 -1.000000000 0.000000000
vn 0.000000000 1.000000000 0.000000000
vn 0.000000000 1.000000000 -0.000000000
vn 0.000000000 1.000000000 0.000000000
vn 0.000000000 1.000000000 0.000000000
vn -0.000000000 1.000000000 0.000000000
vn 0.768233619 0.640169592 0.000000000
vn 0.768233619 0.640169592 -0.000000000
vn -0.768233619 0.640169592 0.000000000
vn -0.768233619 0.640169592 0.000000000
vn -0.768233619 -0.640169592 0.000000000
vn -0.768233619 -0.640169592 0.000000000
vn 0.768233619 -0.640169592 0.000000000
vn 0.768233619 -0.640169592 0.000000000
vn 0.000000000 0.000000000 -1.000000000
vn 0.000000000 0.000000000 -1.000000000
vn -0.000000000 -0.000000000 -1.000000000
vn 0.000000000 0.000000000 -1.000000000
vn 0.000000000 0.000000000 1.000000000
vn 0.000000000 -0.000000000 1.000000000
vn 0.000000000 0.000000000 1.000000000
vn -0.000000000 0.000000000 1.000000000
vn 0.768233619 0.640169592 0.000000000
vn 0.768233619 0.640169592 -0.000000000
vn -0.768233619 0.640169592 0.000000000
vn -0.768233619 0.640169592 0.000000000
vn -0.768233619 -0.640169592 0.000000000
vn -0.768233619 -0.640169592 0.000000000
vn 0.768233619 -0.640169592 0.000000000
vn 0.768233619 -0.640169592 0.000000000
vn 0.000000000 0.000000000 -1.000000000
vn 0.000000000 0.000000000 -1.000000000
vn -0.000000000 -0.000000000 -1.000000000
vn 0.000000000 0.000000000 -1.000000000
vn 0.000000000 0.000000000 1.000000000
vn 0.000000000 -0.000000000 1.000000000
vn 0.000000000 0.000000000 1.000000000
vn -0.000000000 0.000000000 1.000000000
vn 0.768233619 0.640169592 0.000000000
vn 0.768233619 0.640169592 -0.000000000
vn -0.768233619 0.640169592 0.000000000
vn -0.768233619 0.640169592 0.000000000
vn -0.768233619 -0.640169592 0.000000000
vn -0.768233619 -0.640169592 0.000000000
vn 0.768233619 -0.640169592 0.000000000
vn 0.768233619 -0.640169592 0.000000000
vn 0.000000000 0.000000000 -1.000000000
vn 0.000000000 0.000000000 -1.000000000
vn -0.000000000 -0.000000000 -1.000000000
vn 0.000000000 0.000000000 -1.000000000
vn 0.000000000 0.000000000 1.000000000
vn 0.000000000 -0.000000000 1.000000000
vn 0.000000000 0.000000000 1.000000000
vn -0.000000000 0.000000000 1.000000000
vn 0.955177208 0.267451056 -0.126911124
vn 0.955177744 0.267449768 -0.126909802
vn -0.955177377 0.267451103 -0.126909753
vn -0.955177658 0.267449744 -0.126910501
vn -0.955177208 -0.267451056 -0.126911124
vn -0.955177744 -0.267449768 -0.126909802
vn 0.955177377 -0.267451103 -0.126909753
vn 0.955177658 -0.267449744 -0.126910501
vn 0.955177658 0.267449744 0.126910501
vn 0.955177377 0.267451103 0.126909753
vn -0.955177744 0.267449768 0.126909802
vn -0.955177208 0.267451056 0.126911124
vn -0.955177658 -0.267449744 0.126910501
vn -0.955177377 -0.267451103 0.126909753
vn 0.955177744 -0.267449768 0.126909802
vn 0.955177208 -0.267451056 0.126911124
vn 0.000000000 0.000000000 -1.000000000
vn 0.000000000 0.000000000 -1.000000000
vn -0.000000000 -0.000000000 -1.000000000
vn 0.000000000 0.000000000 -1.000000000
vn 0.000000000 0.000000000 1.000000000
vn 0.000000000 -0.000000000 1.000000000
vn 0.000000000 0.000000000 1.000000000
vn -0.000000000 0.000000000 1.000000000
vn 0.898518171 0.438936324 0.000000000
vn 0.898518171 0.438936324 -0.000000000
vn 0.000000000 1.000000000 0.000000000
vn 0.000000000 1.000000000 -0.000000000
vn -0.898518171 0.438936324 0.000000000
vn -0.898518171 0.438936324 0.000000000
vn -0.898530223 -0.438911651 0.000000000
vn -0.898530223 -0.438911651 0.000000000
vn 0.000000000 -1.000000000 0.000000000
vn 0.000000000 -1.000000000 0.000000000
vn 0.898530223 -0.438911651 0.000000000
vn 0.898530223 -0.438911651 0.000000000
vn 0.000000000 0.000000000 -1.000000000
vn 0.000000000 0.000000000 -1.000000000
vn 0.000000000 0.000000000 -1.000000000
vn -0.000000000 0.000000000 -1.000000000
vn 0.000000000 -0.000000000 -1.000000000
vn 0.000000000 0.000000000 -1.000000000
vn 0.000000000 0.000000000 1.000000000
vn 0.000000000 -0.000000000 1.000000000
vn 0.000000000 0.000000000 1.000000000
vn 0.000000000 0.000000000 1.000000000
vn 0.000000000 0.000000000 1.000000000
vn -0.000000000 0.000000000 1.000000000
vn 0.775754721 0.183121430 0.603880083
vn 0.749404851 0.186841493 0.635202822
vn -0.279226284 0.272623944 0.920711066
vn -0.257781391 0.277056478 0.925628685
vn -0.999978381 0.006575468 0.000000000
vn -0.999978381 0.006575468 0.000000000
vn -0.281001372 -0.250034101 -0.926564179
vn -0.259450684 -0.254488681 -0.931622699
vn 0.778144829 -0.166038843 -0.605740644
vn 0.751789382 -0.169582817 -0.637223974
vn 0.000000000 -1.000000000 0.000000000
vn 0.000000000 -1.000000000 0.000000000
vn -0.000000000 -1.000000000 0.000000000
vn 0.000000000 -1.000000000 -0.000000000
vn 0.000000000 -1.000000000 0.000000000
vn 0.000000000 1.000000000 0.000000000
vn 0.000000000 1.000000000 -0.000000000
vn 0.000000000 1.000000000 0.000000000
vn 0.000000000 1.000000000 0.000000000
vn -0.000000000 1.000000000 0.000000000
vn 0.768233619 0.640169592 0.000000000
vn 0.768233619 0.640169592 -0.000000000
vn -0.768233619 0.640169592 0.000000000
vn -0.768233619 0.640169592 0.000000000
vn -0.768233619 -0.640169592 0.000000000
vn -0.768233619 -0.640169592 0.000000000
vn 0.768233619 -0.640169592 0.000000000
vn 0.768233619 -0.640169592 0.000000000
vn 0.000000000 0.000000000 -1.000000000
vn 0.000000000 0.000000000 -1.000000000
vn -0.000000000 -0.000000000 -1.000000000
vn 0.000000000 0.000000000 -1.000000000
vn 0.000000000 0.000000000 1.000000000
vn 0.000000000 -0.000000000 1.000000000
vn 0.000000000 0.000000000 1.000000000
vn -0.000000000 0.000000000 1.000000000
vn 0.768233619 0.640169592 0.000000000
vn 0.768233619 0.640169592 -0.000000000
vn -0.768233619 0.640169592 0.000000000
vn -0.768233619 0.640169592 0.000000000
vn -0.768233619 -0.640169592 0.000000000
vn -0.768233619 -0.640169592 0.000000000
vn 0.768233619 -0.640169592 0.000000000
vn 0.768233619 -0.640169592 0.000000000
vn 0.000000000 0.000000000 -1.000000000
vn 0.000000000 0.000000000 -1.000000000
vn -0.000000000 -0.000000000 -1.000000000
vn 0.000000000 0.000000000 -1.000000000
vn 0.000000000 0.000000000 1.000000000
vn 0.000000000 -0.000000000 1.000000000
vn 0.000000000 0.000000000 1.000000000
vn -0.000000000 0.000000000 1.000000000
vn 0.768233619 0.640169592 0.000000000
vn 0.768233619 0.640169592 -0.000000000
vn -0.768233619 0.640169592 0.000000000
vn -0.768233619 0.640169592 0.000000000
vn -0.768233619 -0.640169592 0.000000000
vn -0.768233619 -0.640169592 0.000000000
vn 0.768233619 -0.640169592 0.000000000
vn 0.768233619 -0.640169592 0.000000000
vn 0.000000000 0.000000000 -1.000000000
vn 0.000000000 0.000000000 -1.000000000
vn -0.000000000 -0.000000000 -1.000000000
vn 0.000000000 0.000000000 -1.000000000
vn 0.000000000 0.000000000 1.000000000
vn 0.000000000 -0.000000000 1.000000000
vn 0.000000000 0.000000000 1.000000000
vn -0.000000000 0.000000000 1.000000000
vn 0.525335571 0.735469799 0.427909701
vn 0.622194240 0.622194240 0.475130147
vn -0.520122993 0.728172190 0.446360095
vn -0.653928344 0.653928344 0.380467400
vn -0.578961482 -0.810546074 0.088423208
vn -0.692605134 -0.692605134 0.201485130
vn 0.577489010 -0.808484615 0.113397842
vn 0.705012335 -0.705012335 0.076910437
vn 0.000000000 0.000000000 -1.000000000
vn 0.000000000 0.000000000 -1.000000000
vn -0.000000000 0.000000000 -1.000000000
vn 0.000000000 -0.000000000 -1.000000000
vn 0.000000000 0.000000000 1.000000000
vn 0.000000000 -0.000000000 1.000000000
vn 0.000000000 0.000000000 1.000000000
vn -0.000000000 0.000000000 1.000000000
vn 0.761620538 0.000000000 0.648023268
vn 0.761620538 -0.000000000 0.648023268
vn 0.000000000 0.000000000 1.000000000
vn 0.000000000 -0.000000000 1.000000000
vn -0.761620538 0.000000000 0.648023268
vn -0.761620538 0.000000000 0.648023268
vn -0.761620538 0.000000000 -0.648023268
vn -0.761620538 0.000000000 -0.648023268
vn 0.000000000 0.000000000 -1.000000000
vn 0.000000000 0.000000000 -1.000000000
vn 0.761620538 0.000000000 -0.648023268
vn 0.761620538 0.000000000 -0.648023268
vn 0.000000000 -1.000000000 0.000000000
vn 0.000000000 -1.000000000 0.000000000
vn 0.000000000 -1.000000000 0.000000000
vn -0.000000000 -1.000000000 0.000000000
vn 0.000000000 -1.000000000 -0.000000000
vn 0.000000000 -1.000000000 0.000000000
vn 0.000000000 1.000000000 0.000000000
vn 0.000000000 1.000000000 -0.000000000
vn 0.000000000 1.000000000 0.000000000
vn 0.000000000 1.000000000 0.000000000
vn 0.000000000 1.000000000 0.000000000
vn -0.000000000 1.000000000 0.000000000
vn -1.000000000 0.000000000 0.000000000
vn -1.000000000 0.000000000 0.000000000
vn -1.000000000 0.000000000 0.000000000
vn -1.000000000 0.000000000 0.000000000
vn -1.000000000 0.000000000 0.000000000
vn 1.000000000 0.000000000 0.000000000
vn 1.000000000 0.000000000 0.000000000
vn 1.000000000 0.000000000 0.000000000
vn 1.000000000 0.000000000 0.000000000
vn 1.000000000 0.000000000 -0.000000000
vn 0.000000000 0.090535746 -0.995893206
vn 0.000000000 0.090535746 -0.995893206
vn 0.000000000 -0.811534341 -0.584304726
vn 0.000000000 -0.811534341 -0.584304726
vn 0.000000000 0.567732956 -0.823212786
vn 0.000000000 0.567732956 -0.823212786
vn 0.000000000 0.569209979 0.822192192
vn -0.000000000 0.569209979 0.822192192
vn 0.000000000 -0.879291967 0.476283149
vn 0.000000000 -0.879291967 0.476283149
vn 0.000000000 0.216930458 0.976187060
vn -0.000000000 0.216930458 0.976187060
vn 0.000000000 -0.999953775 -0.009614940
vn 0.000000000 -0.999953775 -0.009614940
vn 0.528249919 0.457477182 0.715308780
vn 0.603715992 0.440280817 0.664589951
vn 0.000000000 0.575980155 0.817463675
vn 0.000000000 0.575980155 0.817463675
vn -0.547297834 0.473973137 0.689793118
vn -0.589506053 0.429917727 0.683851856
vn -0.675064194 -0.584621888 -0.450006203
vn -0.726844127 -0.530076279 -0.436711293
vn 0.000000000 -0.738105648 -0.674685150
vn 0.000000000 -0.738105648 -0.674685150
vn 0.655382381 -0.567576963 -0.498327529
vn 0.740190498 -0.539809582 -0.400903531
vn 0.764369264 0.557442786 -0.324032665
vn 0.764549104 0.617978685 -0.183213024
vn 0.000000000 0.964027720 0.265801723
vn 0.000000000 0.964027720 0.265801723
vn -0.779357481 0.568373462 -0.263730023
vn -0.742259339 0.599962053 -0.298490550
vn -0.389797220 -0.284273137 -0.875926316
vn -0.384541907 -0.310822027 -0.869204918
vn 0.000000000 -0.410048890 -0.912063544
vn 0.000000000 -0.410048890 -0.912063544
vn 0.401467366 -0.292783995 -0.867814201
vn 0.364574736 -0.294682729 -0.883316110
vn 0.000000000 0.000000000 1.000000000
vn 0.000000000 -0.000000000 1.000000000
vn 0.000000000 0.000000000 1.000000000
vn 0.000000000 0.000000000 1.000000000
vn 0.000000000 0.000000000 1.000000000
vn -0.000000000 0.000000000 1.000000000
vn 0.000000000 0.000000000 -1.000000000
vn 0.000000000 0.000000000 -1.000000000
vn 0.000000000 0.000000000 -1.000000000
vn -0.000000000 0.000000000 -1.000000000
vn 0.000000000 -0.000000000 -1.000000000
vn 0.000000000 0.000000000 -1.000000000
f 1/1/1 2/1/1 3/1/1
f 1/2/2 3/2/2 4/2/2
f 2/3/3 5/3/3 6/3/3
f 2/4/4 6/4/4 3/4/4
f 5/5/5 7/5/5 8/5/5
f 5/6/6 8/6/6 6/6/6
f 7/7/7 9/7/7 10/7/7
f 7/8/8 10/8/8 8/8/8
f 9/9/9 11/9/9 12/9/9
f 9/10/10 12/10/10 10/10/10
f 11/11/11 13/11/11 14/11/11
f 11/12/12 14/12/12 12/12/12
f 13/13/13 15/13/13 16/13/13
f 13/14/14 16/14/14 14/14/14
f 15/15/15 1/15/15 4/15/15
f 15/16/16 4/16/16 16/16/16
f 4/17/17 3/17/17 17/17/17
f 4/18/18 17/18/18 18/18/18
f 3/19/19 6/19/19 19/19/19
f 3/20/20 19/20/20 17/20/20
f 6/21/21 8/21/21 20/21/21
f 6/22/22 20/22/22 19/22/22
f 8/23/23 10/23/23 21/23/23
f 8/24/24 21/24/24 20/24/24
f 10/25/25 12/25/25 22/25/25
f 10/26/26 22/26/26 21/26/26
f 12/27/27 14/27/27 23/27/27
f 12/28/28 23/28/28 22/28/28
f 14/29/29 16/29/29 24/29/29
f 14/30/30 24/30/30 23/30/30
f 16/31/31 4/31/31 18/31/31
f 16/32/32 18/32/32 24/32/32
f 25/33/33 2/33/33 1/33/33
f 25/34/34 5/34/34 2/34/34
f 25/35/35 7/35/35 5/35/35
f 25/36/36 9/36/36 7/36/36
f 25/37/37 11/37/37 9/37/37
f 25/38/38 13/38/38 11/38/38
f 25/39/39 15/39/39 13/39/39
f 25/40/40 1/40/40 15/40/40
f 26/41/41 18/41/41 17/41/41
f 26/42/42 17/42/42 19/42/42
f 26/43/43 19/43/43 20/43/43
f 26/44/44 20/44/44 21/44/44
f 26/45/45 21/45/45 22/45/45
f 26/46/46 22/46/46 23/46/46
f 26/47/47 23/47/47 24/47/47
f 26/48/48 24/48/48 18/48/48
f 27/49/49 28/49/49 29/49/49
f 27/50/50 30/50/50 28/50/50
f 29/51/51 31/51/51 32/51/51
f 29/52/52 28/52/52 31/52/52
f 32/53/53 33/53/53 34/53/53
f 32/54/54 31/54/54 33/54/54
f 34/55/55 35/55/55 36/55/55
f 34/56/56 33/56/56 35/56/56
f 36/57/57 37/57/57 38/57/57
f 36/58/58 35/58/58 37/58/58
f 38/59/59 30/59/59 27/59/59
f 38/60/60 37/60/60 30/60/60
f 30/61/61 39/61/61 28/61/61
f 30/62/62 40/62/62 39/62/62
f 28/63/63 41/63/63 31/63/63
f 28/64/64 39/64/64 41/64/64
f 31/65/65 42/65/65 33/65/65
f 31/66/66 41/66/66 42/66/66
f 33/67/67 43/67/67 35/67/67
f 33/68/68 42/68/68 43/68/68
f 35/69/69 44/69/69 37/69/69
f 35/70/70 43/70/70 44/70/70
f 37/71/71 40/71/71 30/71/71
f 37/72/72 44/72/72 40/72/72
f 45/73/73 27/73/73 29/73/73
f 45/74/74 29/74/74 32/74/74
f 45/75/75 32/75/75 34/75/75
f 45/76/76 34/76/76 36/76/76
f 45/77/77 36/77/77 38/77/77
f 45/78/78 38/78/78 27/78/78
f 46/79/79 39/79/79 40/79/79
f 46/80/80 41/80/80 39/80/80
f 46/81/81 42/81/81 41/81/81
f 46/82/82 43/82/82 42/82/82
f 46/83/83 44/83/83 43/83/83
f 46/84/84 40/84/84 44/84/84
f 47/85/85 48/85/85 49/85/85
f 47/86/86 49/86/86 50/86/86
f 48/87/87 51/87/87 52/87/87
f 48/88/88 52/88/88 49/88/88
f 51/89/89 53/89/89 54/89/89
f 51/90/90 54/90/90 52/90/90
f 53/91/91 55/91/91 56/91/91
f 53/92/92 56/92/92 54/92/92
f 55/93/93 57/93/93 58/93/93
f 55/94/94 58/94/94 56/94/94
f 57/95/95 47/95/95 50/95/95
f 57/96/96 50/96/96 58/96/96
f 50/97/97 49/97/97 59/97/97
f 50/98/98 59/98/98 60/98/98
f 49/99/99 52/99/99 61/99/99
f 49/100/100 61/100/100 59/100/100
f 52/101/101 54/101/101 62/101/101
f 52/102/102 62/102/102 61/102/102
f 54/103/103 56/103/103 63/103/103
f 54/104/104 63/104/104 62/104/104
f 56/105/105 58/105/105 64/105/105
f 56/106/106 64/106/106 63/106/106
f 58/107/107 50/107/107 60/107/107
f 58/108/108 60/108/108 64/108/108
f 65/109/109 48/109/109 47/109/109
f 65/110/110 51/110/110 48/110/110
f 65/111/111 53/111/111 51/111/111
f 65/112/112 55/112/112 53/112/112
f 65/113/113 57/113/113 55/113/113
f 65/114/114 47/114/114 57/114/114
f 66/115/115 60/115/115 59/115/115
f 66/116/116 59/116/116 61/116/116
f 66/117/117 61/117/117 62/117/117
f 66/118/118 62/118/118 63/118/118
f 66/119/119 63/119/119 64/119/119
f 66/120/120 64/120/120 60/120/120
f 67/121/121 68/121/121 69/121/121
f 67/122/122 69/122/122 70/122/122
f 68/123/123 71/123/123 72/123/123
f 68/124/124 72/124/124 69/124/124
f 71/125/125 73/125/125 74/125/125
f 71/126/126 74/126/126 72/126/126
f 73/127/127 67/127/127 70/127/127
f 73/128/128 70/128/128 74/128/128
f 70/129/129 69/129/129 75/129/129
f 70/130/130 75/130/130 76/130/130
f 69/131/131 72/131/131 77/131/131
f 69/132/132 77/132/132 75/132/132
f 72/133/133 74/133/133 78/133/133
f 72/134/134 78/134/134 77/134/134
f 74/135/135 70/135/135 76/135/135
f 74/136/136 76/136/136 78/136/136
f 79/137/137 68/137/137 67/137/137
f 79/138/138 71/138/138 68/138/138
f 79/139/139 73/139/139 71/139/139
f 79/140/140 67/140/140 73/140/140
f 80/141/141 76/141/141 75/141/141
f 80/142/142 75/142/142 77/142/142
f 80/143/143 77/143/143 78/143/143
f 80/144/144 78/144/144 76/144/144
f 81/145/145 82/145/145 83/145/145
f 81/146/146 83/146/146 84/146/146
f 82/147/147 85/147/147 86/147/147
f 82/148/148 86/148/148 83/148/148
f 85/149/149 87/149/149 88/149/149
f 85/150/150 88/150/150 86/150/150
f 87/151/151 89/151/151 90/151/151
f 87/152/152 90/152/152 88/152/152
f 89/153/153 91/153/153 92/153/153
f 89/154/154 92/154/154 90/154/154
f 91/155/155 81/155/155 84/155/155
f 91/156/156 84/156/156 92/156/156
f 93/157/157 82/157/157 81/157/157
f 93/158/158 85/158/158 82/158/158
f 93/159/159 87/159/159 85/159/159
f 93/160/160 89/160/160 87/160/160
f 93/161/161 91/161/161 89/161/161
f 93/162/162 81/162/162 91/162/162
f 94/163/163 84/163/163 83/163/163
f 94/164/164 83/164/164 86/164/164
f 94/165/165 86/165/165 88/165/165
f 94/166/166 88/166/166 90/166/166
f 94/167/167 90/167/167 92/167/167
f 94/168/168 92/168/168 84/168/168
f 95/169/169 96/169/169 97/169/169
f 95/170/170 98/170/170 96/170/170
f 97/171/171 99/171/171 100/171/171
f 97/172/172 96/172/172 99/172/172
f 100/173/173 101/173/173 102/173/173
f 100/174/174 99/174/174 101/174/174
f 102/175/175 103/175/175 104/175/175
f 102/176/176 101/176/176 103/176/176
f 104/177/177 98/177/177 95/177/177
f 104/178/178 103/178/178 98/178/178
f 105/179/179 95/179/179 97/179/179
f 105/180/180 97/180/180 100/180/180
f 105/181/181 100/181/181 102/181/181
f 105/182/182 102/182/182 104/182/182
f 105/183/183 104/183/183 95/183/183
f 106/184/184 96/184/184 98/184/184
f 106/185/185 99/185/185 96/185/185
f 106/186/186 101/186/186 99/186/186
f 106/187/187 103/187/187 101/187/187
f 106/188/188 98/188/188 103/188/188
f 107/189/189 108/189/189 109/189/189
f 107/190/190 109/190/190 110/190/190
f 108/191/191 111/191/191 112/191/191
f 108/192/192 112/192/192 109/192/192
f 111/193/193 113/193/193 114/193/193
f 111/194/194 114/194/194 112/194/194
f 113/195/195 107/195/195 110/195/195
f 113/196/196 110/196/196 114/196/196
f 115/197/197 108/197/197 107/197/197
f 115/198/198 111/198/198 108/198/198
f 115/199/199 113/199/199 111/199/199
f 115/200/200 107/200/200 113/200/200
f 116/201/201 110/201/201 109/201/201
f 116/202/202 109/202/202 112/202/202
f 116/203/203 112/203/203 114/203/203
f 116/204/204 114/204/204 110/204/204
f 117/205/205 118/205/205 119/205/205
f 117/206/206 119/206/206 120/206/206
f 118/207/207 121/207/207 122/207/207
f 118/208/208 122/208/208 119/208/208
f 121/209/209 123/209/209 124/209/209
f 121/210/210 124/210/210 122/210/210
f 123/211/211 117/211/211 120/211/211
f 123/212/212 120/212/212 124/212/212
f 125/213/213 118/213/213 117/213/213
f 125/214/214 121/214/214 118/214/214
f 125/215/215 123/215/215 121/215/215
f 125/216/216 117/216/216 123/216/216
f 126/217/217 120/217/217 119/217/217
f 126/218/218 119/218/218 122/218/218
f 126/219/219 122/219/219 124/219/219
f 126/220/220 124/220/220 120/220/220
f 127/221/221 128/221/221 129/221/221
f 127/222/222 129/222/222 130/222/222
f 128/223/223 131/223/223 132/223/223
f 128/224/224 132/224/224 129/224/224
f 131/225/225 133/225/225 134/225/225
f 131/226/226 134/226/226 132/226/226
f 133/227/227 127/227/227 130/227/227
f 133/228/228 130/228/228 134/228/228
f 135/229/229 128/229/229 127/229/229
f 135/230/230 131/230/230 128/230/230
f 135/231/231 133/231/231 131/231/231
f 135/232/232 127/232/232 133/232/232
f 136/233/233 130/233/233 129/233/233
f 136/234/234 129/234/234 132/234/234
f 136/235/235 132/235/235 134/235/235
f 136/236/236 134/236/236 130/236/236
f 137/237/237 138/237/237 139/237/237
f 137/238/238 139/238/238 140/238/238
f 138/239/239 141/239/239 142/239/239
f 138/240/240 142/240/240 139/240/240
f 141/241/241 143/241/241 144/241/241
f 141/242/242 144/242/242 142/242/242
f 143/243/243 137/243/243 140/243/243
f 143/244/244 140/244/244 144/244/244
f 140/245/245 139/245/245 145/245/245
f 140/246/246 145/246/246 146/246/246
f 139/247/247 142/247/247 147/247/247
f 139/248/248 147/248/248 145/248/248
f 142/249/249 144/249/249 148/249/249
f 142/250/250 148/250/250 147/250/250
f 144/251/251 140/251/251 146/251/251
f 144/252/252 146/252/252 148/252/252
f 149/253/253 138/253/253 137/253/253
f 149/254/254 141/254/254 138/254/254
f 149/255/255 143/255/255 141/255/255
f 149/256/256 137/256/256 143/256/256
f 150/257/257 146/257/257 145/257/257
f 150/258/258 145/258/258 147/258/258
f 150/259/259 147/259/259 148/259/259
f 150/260/260 148/260/260 146/260/260
f 151/261/261 152/261/261 153/261/261
f 151/262/262 153/262/262 154/262/262
f 152/263/263 155/263/263 156/263/263
f 152/264/264 156/264/264 153/264/264
f 155/265/265 157/265/265 158/265/265
f 155/266/266 158/266/266 156/266/266
f 157/267/267 159/267/267 160/267/267
f 157/268/268 160/268/268 158/268/268
f 159/269/269 161/269/269 162/269/269
f 159/270/270 162/270/270 160/270/270
f 161/271/271 151/271/271 154/271/271
f 161/272/272 154/272/272 162/272/272
f 163/273/273 152/273/273 151/273/273
f 163/274/274 155/274/274 152/274/274
f 163/275/275 157/275/275 155/275/275
f 163/276/276 159/276/276 157/276/276
f 163/277/277 161/277/277 159/277/277
f 163/278/278 151/278/278 161/278/278
f 164/279/279 154/279/279 153/279/279
f 164/280/280 153/280/280 156/280/280
f 164/281/281 156/281/281 158/281/281
f 164/282/282 158/282/282 160/282/282
f 164/283/283 160/283/283 162/283/283
f 164/284/284 162/284/284 154/284/284
f 165/285/285 166/285/285 167/285/285
f 165/286/286 168/286/286 166/286/286
f 167/287/287 169/287/287 170/287/287
f 167/288/288 166/288/288 169/288/288
f 170/289/289 171/289/289 172/289/289
f 170/290/290 169/290/290 171/290/290
f 172/291/291 173/291/291 174/291/291
f 172/292/292 171/292/292 173/292/292
f 174/293/293 168/293/293 165/293/293
f 174/294/294 173/294/294 168/294/294
f 175/295/295 165/295/295 167/295/295
f 175/296/296 167/296/296 170/296/296
f 175/297/297 170/297/297 172/297/297
f 175/298/298 172/298/298 174/298/298
f 175/299/299 174/299/299 165/299/299
f 176/300/300 166/300/300 168/300/300
f 176/301/301 169/301/301 166/301/301
f 176/302/302 171/302/302 169/302/302
f 176/303/303 173/303/303 171/303/303
f 176/304/304 168/304/304 173/304/304
f 177/305/305 178/305/305 179/305/305
f 177/306/306 179/306/306 180/306/306
f 178/307/307 181/307/307 182/307/307
f 178/308/308 182/308/308 179/308/308
f 181/309/309 183/309/309 184/309/309
f 181/310/310 184/310/310 182/310/310
f 183/311/311 177/311/311 180/311/311
f 183/312/312 180/312/312 184/312/312
f 185/313/313 178/313/313 177/313/313
f 185/314/314 181/314/314 178/314/314
f 185/315/315 183/315/315 181/315/315
f 185/316/316 177/316/316 183/316/316
f 186/317/317 180/317/317 179/317/317
f 186/318/318 179/318/318 182/318/318
f 186/319/319 182/319/319 184/319/319
f 186/320/320 184/320/320 180/320/320
f 187/321/321 188/321/321 189/321/321
f 187/322/322 189/322/322 190/322/322
f 188/323/323 191/323/323 192/323/323
f 188/324/324 192/324/324 189/324/324
f 191/325/325 193/325/325 194/325/325
f 191/326/326 194/326/326 192/326/326
f 193/327/327 187/327/327 190/327/327
f 193/328/328 190/328/328 194/328/328
f 195/329/329 188/329/329 187/329/329
f 195/330/330 191/330/330 188/330/330
f 195/331/331 193/331/331 191/331/331
f 195/332/332 187/332/332 193/332/332
f 196/333/333 190/333/333 189/333/333
f 196/334/334 189/334/334 192/334/334
f 196/335/335 192/335/335 194/335/335
f 196/336/336 194/336/336 190/336/336
f 197/337/337 198/337/337 199/337/337
f 197/338/338 199/338/338 200/338/338
f 198/339/339 201/339/339 202/339/339
f 198/340/340 202/340/340 199/340/340
f 201/341/341 203/341/341 204/341/341
f 201/342/342 204/342/342 202/342/342
f 203/343/343 197/343/343 200/343/343
f 203/344/344 200/344/344 204/344/344
f 205/345/345 198/345/345 197/345/345
f 205/346/346 201/346/346 198/346/346
f 205/347/347 203/347/347 201/347/347
f 205/348/348 197/348/348 203/348/348
f 206/349/349 200/349/349 199/349/349
f 206/350/350 199/350/350 202/350/350
f 206/351/351 202/351/351 204/351/351
f 206/352/352 204/352/352 200/352/352
f 207/353/353 208/353/353 209/353/353
f 207/354/354 209/354/354 210/354/354
f 208/355/355 211/355/355 212/355/355
f 208/356/356 212/356/356 209/356/356
f 211/357/357 213/357/357 214/357/357
f 211/358/358 214/358/358 212/358/358
f 213/359/359 207/359/359 210/359/359
f 213/360/360 210/360/360 214/360/360
f 215/361/361 208/361/361 207/361/361
f 215/362/362 211/362/362 208/362/362
f 215/363/363 213/363/363 211/363/363
f 215/364/364 207/364/364 213/364/364
f 216/365/365 210/365/365 209/365/365
f 216/366/366 209/366/366 212/366/366
f 216/367/367 212/367/367 214/367/367
f 216/368/368 214/368/368 210/368/368
f 217/369/369 218/369/369 219/369/369
f 217/370/370 220/370/370 218/370/370
f 219/371/371 221/371/371 222/371/371
f 219/372/372 218/372/372 221/372/372
f 222/373/373 223/373/373 224/373/373
f 222/374/374 221/374/374 223/374/374
f 224/375/375 225/375/375 226/375/375
f 224/376/376 223/376/376 225/376/376
f 226/377/377 227/377/377 228/377/377
f 226/378/378 225/378/378 227/378/378
f 228/379/379 220/379/379 217/379/379
f 228/380/380 227/380/380 220/380/380
f 229/381/381 217/381/381 219/381/381
f 229/382/382 219/382/382 222/382/382
f 229/383/383 222/383/383 224/383/383
f 229/384/384 224/384/384 226/384/384
f 229/385/385 226/385/385 228/385/385
f 229/386/386 228/386/386 217/386/386
f 230/387/387 218/387/387 220/387/387
f 230/388/388 221/388/388 218/388/388
f 230/389/389 223/389/389 221/389/389
f 230/390/390 225/390/390 223/390/390
f 230/391/391 227/391/391 225/391/391
f 230/392/392 220/392/392 227/392/392
f 231/393/393 232/393/393 233/393/393
f 231/394/394 232/394/394 234/394/394
f 231/395/395 235/395/395 234/395/395
f 231/396/396 236/396/396 235/396/396
f 231/397/397 237/397/397 236/397/397
f 238/398/398 239/398/398 240/398/398
f 238/399/399 241/399/399 240/399/399
f 238/400/400 241/400/400 242/400/400
f 238/401/401 242/401/401 243/401/401
f 238/402/402 243/402/402 244/402/402
f 231/403/403 233/403/403 239/403/403
f 231/404/404 239/404/404 238/404/404
f 233/405/405 240/405/405 232/405/405
f 233/406/406 239/406/406 240/406/406
f 232/407/407 234/407/407 241/407/407
f 232/408/408 241/408/408 240/408/408
f 234/409/409 235/409/409 242/409/409
f 234/410/410 242/410/410 241/410/410
f 235/411/411 243/411/411 236/411/411
f 235/412/412 242/412/412 243/412/412
f 236/413/413 237/413/413 244/413/413
f 236/414/414 244/414/414 243/414/414
f 237/415/415 231/415/415 238/415/415
f 237/416/416 238/416/416 244/416/416
f 245/417/417 246/417/417 247/417/417
f 245/418/418 248/418/418 246/418/418
f 247/419/419 249/419/419 250/419/419
f 247/420/420 246/420/420 249/420/420
f 250/421/421 251/421/421 252/421/421
f 250/422/422 249/422/422 251/422/422
f 252/423/423 253/423/423 254/423/423
f 252/424/424 251/424/424 253/424/424
f 254/425/425 255/425/425 256/425/425
f 254/426/426 253/426/426 255/426/426
f 256/427/427 248/427/427 245/427/427
f 256/428/428 255/428/428 248/428/428
f 248/429/429 257/429/429 246/429/429
f 248/430/430 258/430/430 257/430/430
f 246/431/431 259/431/431 249/431/431
f 246/432/432 257/432/432 259/432/432
f 249/433/433 260/433/433 251/433/433
f 249/434/434 259/434/434 260/434/434
f 251/435/435 261/435/435 253/435/435
f 251/436/436 260/436/436 261/436/436
f 253/437/437 262/437/437 255/437/437
f 253/438/438 261/438/438 262/438/438
f 255/439/439 258/439/439 248/439/439
f 255/440/440 262/440/440 258/440/440
f 263/441/441 245/441/441 247/441/441
f 263/442/442 247/442/442 250/442/442
f 263/443/443 250/443/443 252/443/443
f 263/444/444 252/444/444 254/444/444
f 263/445/445 254/445/445 256/445/445
f 263/446/446 256/446/446 245/446/446
f 264/447/447 257/447/447 258/447/447
f 264/448/448 259/448/448 257/448/448
f 264/449/449 260/449/449 259/449/449
f 264/450/450 261/450/450 260/450/450
f 264/451/451 262/451/451 261/451/451
f 264/452/452 258/452/452 262/452/452
