mtllib TorusNature_RockA.mtl
o TorusNature_RockA
usemtl TorusNatureKit
s off
v 0.173581 0.000000 0.025062
v 0.084620 0.000000 0.112288
v -0.065512 0.000000 0.114959
v -0.171907 0.000000 0.031063
v -0.147809 0.000000 -0.076224
v -0.003880 0.000000 -0.126112
v 0.136130 0.000000 -0.081036
v 0.299277 0.113750 0.043211
v 0.145896 0.113750 0.193600
v -0.112952 0.113750 0.198205
v -0.296392 0.113750 0.053557
v -0.254843 0.113750 -0.131420
v -0.006689 0.113750 -0.217435
v 0.234707 0.113750 -0.139717
v 0.233436 0.253500 0.033704
v 0.113799 0.253500 0.151008
v -0.088103 0.253500 0.154600
v -0.231186 0.253500 0.041775
v -0.198777 0.253500 -0.102508
v -0.005217 0.253500 -0.169600
v 0.183071 0.253500 -0.108980
v 0.045000 0.325000 -0.017400
vt 0.023438 0.523438
vt 0.226562 0.523438
vt 0.125000 0.726562
vt 0.023438 0.523438
vt 0.226562 0.523438
vt 0.125000 0.726562
vt 0.023438 0.523438
vt 0.226562 0.523438
vt 0.125000 0.726562
vt 0.023438 0.523438
vt 0.226562 0.523438
vt 0.125000 0.726562
vt 0.023438 0.523438
vt 0.226562 0.523438
vt 0.125000 0.726562
vt 0.023438 0.523438
vt 0.226562 0.523438
vt 0.125000 0.726562
vt 0.023438 0.523438
vt 0.226562 0.523438
vt 0.125000 0.726562
vt 0.023438 0.523438
vt 0.226562 0.523438
vt 0.125000 0.726562
vt 0.023438 0.523438
vt 0.226562 0.523438
vt 0.125000 0.726562
vt 0.023438 0.523438
vt 0.226562 0.523438
vt 0.125000 0.726562
vt 0.023438 0.523438
vt 0.226562 0.523438
vt 0.125000 0.726562
vt 0.023438 0.523438
vt 0.226562 0.523438
vt 0.125000 0.726562
vt 0.023438 0.523438
vt 0.226562 0.523438
vt 0.125000 0.726562
vt 0.023438 0.523438
vt 0.226562 0.523438
vt 0.125000 0.726562
vt 0.023438 0.523438
vt 0.226562 0.523438
vt 0.125000 0.726562
vt 0.023438 0.523438
vt 0.226562 0.523438
vt 0.125000 0.726562
vt 0.023438 0.523438
vt 0.226562 0.523438
vt 0.125000 0.726562
vt 0.023438 0.523438
vt 0.226562 0.523438
vt 0.125000 0.726562
vt 0.023438 0.523438
vt 0.226562 0.523438
vt 0.125000 0.726562
vt 0.023438 0.523438
vt 0.226562 0.523438
vt 0.125000 0.726562
vt 0.023438 0.523438
vt 0.226562 0.523438
vt 0.125000 0.726562
vt 0.023438 0.523438
vt 0.226562 0.523438
vt 0.125000 0.726562
vt 0.023438 0.523438
vt 0.226562 0.523438
vt 0.125000 0.726562
vt 0.023438 0.523438
vt 0.226562 0.523438
vt 0.125000 0.726562
vt 0.023438 0.523438
vt 0.226562 0.523438
vt 0.125000 0.726562
vt 0.023438 0.523438
vt 0.226562 0.523438
vt 0.125000 0.726562
vt 0.023438 0.523438
vt 0.226562 0.523438
vt 0.125000 0.726562
vt 0.023438 0.523438
vt 0.226562 0.523438
vt 0.125000 0.726562
vt 0.023438 0.523438
vt 0.226562 0.523438
vt 0.125000 0.726562
vt 0.023438 0.523438
vt 0.226562 0.523438
vt 0.125000 0.726562
vt 0.023438 0.523438
vt 0.226562 0.523438
vt 0.125000 0.726562
vt 0.023438 0.523438
vt 0.226562 0.523438
vt 0.125000 0.726562
vt 0.023438 0.523438
vt 0.226562 0.523438
vt 0.125000 0.726562
vt 0.023438 0.523438
vt 0.226562 0.523438
vt 0.125000 0.726562
vt 0.023438 0.523438
vt 0.226562 0.523438
vt 0.125000 0.726562
vt 0.023438 0.523438
vt 0.226562 0.523438
vt 0.125000 0.726562
vt 0.023438 0.523438
vt 0.226562 0.523438
vt 0.125000 0.726562
vt 0.023438 0.523438
vt 0.226562 0.523438
vt 0.125000 0.726562
vt 0.023438 0.523438
vt 0.226562 0.523438
vt 0.125000 0.726562
vt 0.023438 0.523438
vt 0.226562 0.523438
vt 0.125000 0.726562
vn 0.00000000 -1.00000000 0.00000000
vn 0.00000000 -1.00000000 0.00000000
vn -0.00000000 -1.00000000 0.00000000
vn 0.00000000 -1.00000000 0.00000000
vn 0.00000000 -1.00000000 0.00000000
vn 0.52361354 -0.66380713 0.53403086
vn 0.52361369 -0.66380866 0.53402881
vn 0.01440578 -0.58659528 0.80975210
vn 0.01440630 -0.58659591 0.80975163
vn -0.47577367 -0.63998977 0.60336764
vn -0.47577535 -0.63998867 0.60336748
vn -0.68154266 -0.71558664 -0.15308615
vn -0.68154123 -0.71558874 -0.15308267
vn -0.25991079 -0.60842346 -0.74984483
vn -0.25990900 -0.60841968 -0.74984852
vn 0.24438803 -0.60338197 -0.75908147
vn 0.24438472 -0.60338476 -0.75908033
vn 0.67049656 -0.70315053 -0.23667215
vn 0.67049398 -0.70315226 -0.23667430
vn 0.65479556 0.35392270 0.66781846
vn 0.65479254 0.35392599 0.66781968
vn 0.01699605 0.29506058 0.95532737
vn 0.01699562 0.29506121 0.95532719
vn -0.58348923 0.33463581 0.73997243
vn -0.58348977 0.33463745 0.73997126
vn -0.89412233 0.40026126 -0.20083870
vn -0.89412453 0.40025787 -0.20083567
vn -0.31129746 0.31068640 -0.89809123
vn -0.31129582 0.31068852 -0.89809106
vn 0.29166150 0.30701423 -0.90591160
vn 0.29166061 0.30701251 -0.90591247
vn 0.86890377 0.38850532 -0.30670810
vn 0.86890356 0.38850751 -0.30670593
vn 0.27359266 0.92048198 0.27903401
vn 0.00690992 0.92146565 0.38839840
vn -0.19338642 0.94997591 0.24524980
vn -0.26198480 0.96327616 -0.05884730
vn -0.13344344 0.91322537 -0.38498347
vn 0.14813848 0.87540915 -0.46012368
vn 0.38336609 0.91362930 -0.13532164
f 1/1/1 2/2/1 3/3/1
f 1/4/2 3/5/2 4/6/2
f 1/7/3 4/8/3 5/9/3
f 1/10/4 5/11/4 6/12/4
f 1/13/5 6/14/5 7/15/5
f 8/16/6 9/17/6 2/18/6
f 8/19/7 2/20/7 1/21/7
f 9/22/8 10/23/8 3/24/8
f 9/25/9 3/26/9 2/27/9
f 10/28/10 11/29/10 4/30/10
f 10/31/11 4/32/11 3/33/11
f 11/34/12 12/35/12 5/36/12
f 11/37/13 5/38/13 4/39/13
f 12/40/14 13/41/14 6/42/14
f 12/43/15 6/44/15 5/45/15
f 13/46/16 14/47/16 7/48/16
f 13/49/17 7/50/17 6/51/17
f 14/52/18 8/53/18 1/54/18
f 14/55/19 1/56/19 7/57/19
f 15/58/20 16/59/20 9/60/20
f 15/61/21 9/62/21 8/63/21
f 16/64/22 17/65/22 10/66/22
f 16/67/23 10/68/23 9/69/23
f 17/70/24 18/71/24 11/72/24
f 17/73/25 11/74/25 10/75/25
f 18/76/26 19/77/26 12/78/26
f 18/79/27 12/80/27 11/81/27
f 19/82/28 20/83/28 13/84/28
f 19/85/29 13/86/29 12/87/29
f 20/88/30 21/89/30 14/90/30
f 20/91/31 14/92/31 13/93/31
f 21/94/32 15/95/32 8/96/32
f 21/97/33 8/98/33 14/99/33
f 22/100/34 16/101/34 15/102/34
f 22/103/35 17/104/35 16/105/35
f 22/106/36 18/107/36 17/108/36
f 22/109/37 19/110/37 18/111/37
f 22/112/38 20/113/38 19/114/38
f 22/115/39 21/116/39 20/117/39
f 22/118/40 15/119/40 21/120/40
