mtllib TorusFauna_RabbitA.mtl
o TorusFauna_RabbitA
usemtl TorusFaunaKit
s off
v 0.0172224 0.0449952 -0.0669500
v 0.0121781 0.0598795 -0.0669500
v 0.0238649 0.0741633 -0.0175000
v 0.0337500 0.0449952 -0.0175000
v 0.0000000 0.0660448 -0.0669500
v 0.0000000 0.0862452 -0.0175000
v -0.0121781 0.0598795 -0.0669500
v -0.0238649 0.0741633 -0.0175000
v -0.0172224 0.0449952 -0.0669500
v -0.0337500 0.0449952 -0.0175000
v -0.0121781 0.0301109 -0.0669500
v -0.0238649 0.0158270 -0.0175000
v -0.0000000 0.0239456 -0.0669500
v -0.0000000 0.0037452 -0.0175000
v 0.0121781 0.0301109 -0.0669500
v 0.0238649 0.0158270 -0.0175000
v 0.0121781 0.0598795 0.0319500
v 0.0172224 0.0449952 0.0319500
v 0.0000000 0.0660448 0.0319500
v -0.0121781 0.0598795 0.0319500
v -0.0172224 0.0449952 0.0319500
v -0.0121781 0.0301109 0.0319500
v -0.0000000 0.0239456 0.0319500
v 0.0121781 0.0301109 0.0319500
v 0.0000000 0.0449952 -0.0669500
v 0.0000000 0.0449952 0.0319500
v 0.0121195 0.0599952 0.0210000
v 0.0085698 0.0685650 0.0210000
v 0.0167938 0.0767890 0.0425000
v 0.0237500 0.0599952 0.0425000
v 0.0000000 0.0721147 0.0210000
v 0.0000000 0.0837452 0.0425000
v -0.0085698 0.0685650 0.0210000
v -0.0167938 0.0767890 0.0425000
v -0.0121195 0.0599952 0.0210000
v -0.0237500 0.0599952 0.0425000
v -0.0085698 0.0514254 0.0210000
v -0.0167938 0.0432014 0.0425000
v -0.0000000 0.0478757 0.0210000
v -0.0000000 0.0362452 0.0425000
v 0.0085698 0.0514254 0.0210000
v 0.0167938 0.0432014 0.0425000
v 0.0085698 0.0685650 0.0640000
v 0.0121195 0.0599952 0.0640000
v 0.0000000 0.0721147 0.0640000
v -0.0085698 0.0685650 0.0640000
v -0.0121195 0.0599952 0.0640000
v -0.0085698 0.0514254 0.0640000
v -0.0000000 0.0478757 0.0640000
v 0.0085698 0.0514254 0.0640000
v 0.0000000 0.0599952 0.0210000
v 0.0000000 0.0599952 0.0640000
v 0.0082923 0.0512452 0.0472750
v 0.0041461 0.0562169 0.0472750
v 0.0041461 0.0562169 0.0752250
v 0.0082923 0.0512452 0.0752250
v -0.0041461 0.0562169 0.0472750
v -0.0041461 0.0562169 0.0752250
v -0.0082923 0.0512452 0.0472750
v -0.0082923 0.0512452 0.0752250
v -0.0041461 0.0462735 0.0472750
v -0.0041461 0.0462735 0.0752250
v 0.0041461 0.0462735 0.0472750
v 0.0041461 0.0462735 0.0752250
v 0.0000000 0.0512452 0.0472750
v 0.0000000 0.0512452 0.0752250
v -0.0167077 0.0262452 -0.0661500
v -0.0250000 0.0377268 -0.0661500
v -0.0250000 0.0487452 -0.0425000
v -0.0087500 0.0262452 -0.0425000
v -0.0332923 0.0262452 -0.0661500
v -0.0412500 0.0262452 -0.0425000
v -0.0250000 0.0147636 -0.0661500
v -0.0250000 0.0037452 -0.0425000
v -0.0250000 0.0377268 -0.0188500
v -0.0167077 0.0262452 -0.0188500
v -0.0332923 0.0262452 -0.0188500
v -0.0250000 0.0147636 -0.0188500
v -0.0250000 0.0262452 -0.0661500
v -0.0250000 0.0262452 -0.0188500
v -0.0174989 0.0064952 -0.0399000
v -0.0206244 0.0098096 -0.0399000
v -0.0176250 0.0129904 -0.0162500
v -0.0115000 0.0064952 -0.0162500
v -0.0268756 0.0098096 -0.0399000
v -0.0298750 0.0129904 -0.0162500
v -0.0300011 0.0064952 -0.0399000
v -0.0360000 0.0064952 -0.0162500
v -0.0268756 0.0031807 -0.0399000
v -0.0298750 0.0000000 -0.0162500
v -0.0206244 0.0031807 -0.0399000
v -0.0176250 0.0000000 -0.0162500
v -0.0206244 0.0098096 0.0074000
v -0.0174989 0.0064952 0.0074000
v -0.0268756 0.0098096 0.0074000
v -0.0300011 0.0064952 0.0074000
v -0.0268756 0.0031807 0.0074000
v -0.0206244 0.0031807 0.0074000
v -0.0237500 0.0064952 -0.0399000
v -0.0237500 0.0064952 0.0074000
v -0.0097500 0.0032452 0.0475000
v -0.0115000 0.0374952 0.0408947
v -0.0133750 0.0032452 0.0604904
v -0.0080000 0.0374952 0.0337500
v -0.0185000 0.0374952 0.0408947
v -0.0206250 0.0032452 0.0604904
v -0.0220000 0.0374952 0.0337500
v -0.0242500 0.0032452 0.0475000
v -0.0185000 0.0374952 0.0266053
v -0.0206250 0.0032452 0.0345096
v -0.0115000 0.0374952 0.0266053
v -0.0133750 0.0032452 0.0345096
v -0.0170000 0.0032452 0.0475000
v -0.0150000 0.0374952 0.0337500
v -0.0057500 0.0724952 0.0387500
v -0.0120000 0.1074952 0.0399796
v -0.0091250 0.0724952 0.0463277
v -0.0077500 0.1074952 0.0350000
v -0.0205000 0.1074952 0.0399796
v -0.0158750 0.0724952 0.0463277
v -0.0247500 0.1074952 0.0350000
v -0.0192500 0.0724952 0.0387500
v -0.0205000 0.1074952 0.0300204
v -0.0158750 0.0724952 0.0311723
v -0.0120000 0.1074952 0.0300204
v -0.0091250 0.0724952 0.0311723
v -0.0165000 0.1399952 0.0305311
v -0.0147500 0.1399952 0.0275000
v -0.0200000 0.1399952 0.0305311
v -0.0217500 0.1399952 0.0275000
v -0.0200000 0.1399952 0.0244689
v -0.0165000 0.1399952 0.0244689
v -0.0125000 0.0724952 0.0387500
v -0.0182500 0.1399952 0.0275000
v -0.0148313 0.0902152 0.0412500
v -0.0170000 0.1297752 0.0423982
v -0.0170000 0.0902152 0.0423982
v -0.0148313 0.1297752 0.0412500
v -0.0191687 0.1297752 0.0412500
v -0.0191687 0.0902152 0.0412500
v -0.0170000 0.1297752 0.0401018
v -0.0170000 0.0902152 0.0401018
v -0.0170000 0.0902152 0.0412500
v -0.0170000 0.1297752 0.0412500
v -0.0193467 0.0644952 0.0505600
v -0.0200483 0.0660419 0.0505600
v -0.0200483 0.0660419 0.0574400
v -0.0193467 0.0644952 0.0574400
v -0.0214517 0.0660419 0.0505600
v -0.0214517 0.0660419 0.0574400
v -0.0221533 0.0644952 0.0505600
v -0.0221533 0.0644952 0.0574400
v -0.0214517 0.0629484 0.0505600
v -0.0214517 0.0629484 0.0574400
v -0.0200483 0.0629484 0.0505600
v -0.0200483 0.0629484 0.0574400
v -0.0207500 0.0644952 0.0505600
v -0.0207500 0.0644952 0.0574400
v 0.0332923 0.0262452 -0.0661500
v 0.0250000 0.0377268 -0.0661500
v 0.0250000 0.0487452 -0.0425000
v 0.0412500 0.0262452 -0.0425000
v 0.0167077 0.0262452 -0.0661500
v 0.0087500 0.0262452 -0.0425000
v 0.0250000 0.0147636 -0.0661500
v 0.0250000 0.0037452 -0.0425000
v 0.0250000 0.0377268 -0.0188500
v 0.0332923 0.0262452 -0.0188500
v 0.0167077 0.0262452 -0.0188500
v 0.0250000 0.0147636 -0.0188500
v 0.0250000 0.0262452 -0.0661500
v 0.0250000 0.0262452 -0.0188500
v 0.0300011 0.0064952 -0.0399000
v 0.0268756 0.0098096 -0.0399000
v 0.0298750 0.0129904 -0.0162500
v 0.0360000 0.0064952 -0.0162500
v 0.0206244 0.0098096 -0.0399000
v 0.0176250 0.0129904 -0.0162500
v 0.0174989 0.0064952 -0.0399000
v 0.0115000 0.0064952 -0.0162500
v 0.0206244 0.0031807 -0.0399000
v 0.0176250 0.0000000 -0.0162500
v 0.0268756 0.0031807 -0.0399000
v 0.0298750 0.0000000 -0.0162500
v 0.0268756 0.0098096 0.0074000
v 0.0300011 0.0064952 0.0074000
v 0.0206244 0.0098096 0.0074000
v 0.0174989 0.0064952 0.0074000
v 0.0206244 0.0031807 0.0074000
v 0.0268756 0.0031807 0.0074000
v 0.0237500 0.0064952 -0.0399000
v 0.0237500 0.0064952 0.0074000
v 0.0242500 0.0032452 0.0475000
v 0.0185000 0.0374952 0.0408947
v 0.0206250 0.0032452 0.0604904
v 0.0220000 0.0374952 0.0337500
v 0.0115000 0.0374952 0.0408947
v 0.0133750 0.0032452 0.0604904
v 0.0080000 0.0374952 0.0337500
v 0.0097500 0.0032452 0.0475000
v 0.0115000 0.0374952 0.0266053
v 0.0133750 0.0032452 0.0345096
v 0.0185000 0.0374952 0.0266053
v 0.0206250 0.0032452 0.0345096
v 0.0170000 0.0032452 0.0475000
v 0.0150000 0.0374952 0.0337500
v 0.0192500 0.0724952 0.0387500
v 0.0205000 0.1074952 0.0399796
v 0.0158750 0.0724952 0.0463277
v 0.0247500 0.1074952 0.0350000
v 0.0120000 0.1074952 0.0399796
v 0.0091250 0.0724952 0.0463277
v 0.0077500 0.1074952 0.0350000
v 0.0057500 0.0724952 0.0387500
v 0.0120000 0.1074952 0.0300204
v 0.0091250 0.0724952 0.0311723
v 0.0205000 0.1074952 0.0300204
v 0.0158750 0.0724952 0.0311723
v 0.0200000 0.1399952 0.0305311
v 0.0217500 0.1399952 0.0275000
v 0.0165000 0.1399952 0.0305311
v 0.0147500 0.1399952 0.0275000
v 0.0165000 0.1399952 0.0244689
v 0.0200000 0.1399952 0.0244689
v 0.0125000 0.0724952 0.0387500
v 0.0182500 0.1399952 0.0275000
v 0.0191687 0.0902152 0.0412500
v 0.0170000 0.1297752 0.0423982
v 0.0170000 0.0902152 0.0423982
v 0.0191687 0.1297752 0.0412500
v 0.0148313 0.1297752 0.0412500
v 0.0148313 0.0902152 0.0412500
v 0.0170000 0.1297752 0.0401018
v 0.0170000 0.0902152 0.0401018
v 0.0170000 0.0902152 0.0412500
v 0.0170000 0.1297752 0.0412500
v 0.0221533 0.0644952 0.0505600
v 0.0214517 0.0660419 0.0505600
v 0.0214517 0.0660419 0.0574400
v 0.0221533 0.0644952 0.0574400
v 0.0200483 0.0660419 0.0505600
v 0.0200483 0.0660419 0.0574400
v 0.0193467 0.0644952 0.0505600
v 0.0193467 0.0644952 0.0574400
v 0.0200483 0.0629484 0.0505600
v 0.0200483 0.0629484 0.0574400
v 0.0214517 0.0629484 0.0505600
v 0.0214517 0.0629484 0.0574400
v 0.0207500 0.0644952 0.0505600
v 0.0207500 0.0644952 0.0574400
v 0.0020412 0.0574952 0.0726000
v 0.0000000 0.0588985 0.0726000
v 0.0000000 0.0588985 0.0769000
v 0.0020412 0.0574952 0.0769000
v -0.0020412 0.0574952 0.0726000
v -0.0020412 0.0574952 0.0769000
v -0.0000000 0.0560919 0.0726000
v -0.0000000 0.0560919 0.0769000
v 0.0000000 0.0574952 0.0726000
v 0.0000000 0.0574952 0.0769000
v 0.0054857 0.0524952 -0.0797050
v 0.0027428 0.0572459 -0.0797050
v 0.0027428 0.0572459 -0.0637950
v 0.0054857 0.0524952 -0.0637950
v -0.0027428 0.0572459 -0.0797050
v -0.0027428 0.0572459 -0.0637950
v -0.0054857 0.0524952 -0.0797050
v -0.0054857 0.0524952 -0.0637950
v -0.0027428 0.0477445 -0.0797050
v -0.0027428 0.0477445 -0.0637950
v 0.0027428 0.0477445 -0.0797050
v 0.0027428 0.0477445 -0.0637950
v 0.0000000 0.0524952 -0.0797050
v 0.0000000 0.0524952 -0.0637950
vt 0.1250000 0.3750000
vt 0.1250000 0.3750000
vt 0.1250000 0.3750000
vt 0.1250000 0.3750000
vt 0.1250000 0.3750000
vt 0.1250000 0.3750000
vt 0.1250000 0.3750000
vt 0.1250000 0.3750000
vt 0.1250000 0.3750000
vt 0.1250000 0.3750000
vt 0.1250000 0.3750000
vt 0.1250000 0.3750000
vt 0.1250000 0.3750000
vt 0.1250000 0.3750000
vt 0.1250000 0.3750000
vt 0.1250000 0.3750000
vt 0.1250000 0.3750000
vt 0.1250000 0.3750000
vt 0.1250000 0.3750000
vt 0.1250000 0.3750000
vt 0.1250000 0.3750000
vt 0.1250000 0.3750000
vt 0.1250000 0.3750000
vt 0.1250000 0.3750000
vt 0.1250000 0.3750000
vt 0.1250000 0.3750000
vt 0.1250000 0.3750000
vt 0.1250000 0.3750000
vt 0.1250000 0.3750000
vt 0.1250000 0.3750000
vt 0.1250000 0.3750000
vt 0.1250000 0.3750000
vt 0.1250000 0.3750000
vt 0.1250000 0.3750000
vt 0.1250000 0.3750000
vt 0.1250000 0.3750000
vt 0.1250000 0.3750000
vt 0.1250000 0.3750000
vt 0.1250000 0.3750000
vt 0.1250000 0.3750000
vt 0.1250000 0.3750000
vt 0.1250000 0.3750000
vt 0.1250000 0.3750000
vt 0.1250000 0.3750000
vt 0.1250000 0.3750000
vt 0.1250000 0.3750000
vt 0.1250000 0.3750000
vt 0.1250000 0.3750000
vt 0.1250000 0.3750000
vt 0.1250000 0.3750000
vt 0.1250000 0.3750000
vt 0.1250000 0.3750000
vt 0.1250000 0.3750000
vt 0.1250000 0.3750000
vt 0.1250000 0.3750000
vt 0.1250000 0.3750000
vt 0.1250000 0.3750000
vt 0.1250000 0.3750000
vt 0.1250000 0.3750000
vt 0.1250000 0.3750000
vt 0.1250000 0.3750000
vt 0.1250000 0.3750000
vt 0.1250000 0.3750000
vt 0.1250000 0.3750000
vt 0.1250000 0.3750000
vt 0.1250000 0.3750000
vt 0.1250000 0.3750000
vt 0.1250000 0.3750000
vt 0.1250000 0.3750000
vt 0.1250000 0.3750000
vt 0.1250000 0.3750000
vt 0.1250000 0.3750000
vt 0.1250000 0.3750000
vt 0.1250000 0.3750000
vt 0.1250000 0.3750000
vt 0.1250000 0.3750000
vt 0.1250000 0.3750000
vt 0.1250000 0.3750000
vt 0.1250000 0.3750000
vt 0.1250000 0.3750000
vt 0.1250000 0.3750000
vt 0.1250000 0.3750000
vt 0.1250000 0.3750000
vt 0.1250000 0.3750000
vt 0.1250000 0.3750000
vt 0.1250000 0.3750000
vt 0.1250000 0.3750000
vt 0.1250000 0.3750000
vt 0.1250000 0.3750000
vt 0.1250000 0.3750000
vt 0.1250000 0.3750000
vt 0.1250000 0.3750000
vt 0.1250000 0.3750000
vt 0.1250000 0.3750000
vt 0.1250000 0.3750000
vt 0.1250000 0.3750000
vt 0.3750000 0.3750000
vt 0.3750000 0.3750000
vt 0.3750000 0.3750000
vt 0.3750000 0.3750000
vt 0.3750000 0.3750000
vt 0.3750000 0.3750000
vt 0.3750000 0.3750000
vt 0.3750000 0.3750000
vt 0.3750000 0.3750000
vt 0.3750000 0.3750000
vt 0.3750000 0.3750000
vt 0.3750000 0.3750000
vt 0.3750000 0.3750000
vt 0.3750000 0.3750000
vt 0.3750000 0.3750000
vt 0.3750000 0.3750000
vt 0.3750000 0.3750000
vt 0.3750000 0.3750000
vt 0.3750000 0.3750000
vt 0.3750000 0.3750000
vt 0.3750000 0.3750000
vt 0.3750000 0.3750000
vt 0.3750000 0.3750000
vt 0.3750000 0.3750000
vt 0.1250000 0.3750000
vt 0.1250000 0.3750000
vt 0.1250000 0.3750000
vt 0.1250000 0.3750000
vt 0.1250000 0.3750000
vt 0.1250000 0.3750000
vt 0.1250000 0.3750000
vt 0.1250000 0.3750000
vt 0.1250000 0.3750000
vt 0.1250000 0.3750000
vt 0.1250000 0.3750000
vt 0.1250000 0.3750000
vt 0.1250000 0.3750000
vt 0.1250000 0.3750000
vt 0.1250000 0.3750000
vt 0.1250000 0.3750000
vt 0.1250000 0.3750000
vt 0.1250000 0.3750000
vt 0.1250000 0.3750000
vt 0.1250000 0.3750000
vt 0.1250000 0.3750000
vt 0.1250000 0.3750000
vt 0.1250000 0.3750000
vt 0.1250000 0.3750000
vt 0.3750000 0.3750000
vt 0.3750000 0.3750000
vt 0.3750000 0.3750000
vt 0.3750000 0.3750000
vt 0.3750000 0.3750000
vt 0.3750000 0.3750000
vt 0.3750000 0.3750000
vt 0.3750000 0.3750000
vt 0.3750000 0.3750000
vt 0.3750000 0.3750000
vt 0.3750000 0.3750000
vt 0.3750000 0.3750000
vt 0.3750000 0.3750000
vt 0.3750000 0.3750000
vt 0.3750000 0.3750000
vt 0.3750000 0.3750000
vt 0.3750000 0.3750000
vt 0.3750000 0.3750000
vt 0.3750000 0.3750000
vt 0.3750000 0.3750000
vt 0.3750000 0.3750000
vt 0.3750000 0.3750000
vt 0.3750000 0.3750000
vt 0.3750000 0.3750000
vt 0.3750000 0.3750000
vt 0.3750000 0.3750000
vt 0.3750000 0.3750000
vt 0.3750000 0.3750000
vt 0.3750000 0.3750000
vt 0.3750000 0.3750000
vt 0.3750000 0.3750000
vt 0.3750000 0.3750000
vt 0.3750000 0.3750000
vt 0.3750000 0.3750000
vt 0.3750000 0.3750000
vt 0.3750000 0.3750000
vt 0.1250000 0.3750000
vt 0.1250000 0.3750000
vt 0.1250000 0.3750000
vt 0.1250000 0.3750000
vt 0.1250000 0.3750000
vt 0.1250000 0.3750000
vt 0.1250000 0.3750000
vt 0.1250000 0.3750000
vt 0.1250000 0.3750000
vt 0.1250000 0.3750000
vt 0.1250000 0.3750000
vt 0.1250000 0.3750000
vt 0.1250000 0.3750000
vt 0.1250000 0.3750000
vt 0.1250000 0.3750000
vt 0.1250000 0.3750000
vt 0.1250000 0.3750000
vt 0.1250000 0.3750000
vt 0.1250000 0.3750000
vt 0.1250000 0.3750000
vt 0.1250000 0.3750000
vt 0.1250000 0.3750000
vt 0.1250000 0.3750000
vt 0.1250000 0.3750000
vt 0.1250000 0.3750000
vt 0.1250000 0.3750000
vt 0.1250000 0.3750000
vt 0.1250000 0.3750000
vt 0.1250000 0.3750000
vt 0.1250000 0.3750000
vt 0.1250000 0.3750000
vt 0.1250000 0.3750000
vt 0.1250000 0.3750000
vt 0.1250000 0.3750000
vt 0.1250000 0.3750000
vt 0.1250000 0.3750000
vt 0.1250000 0.3750000
vt 0.1250000 0.3750000
vt 0.1250000 0.3750000
vt 0.1250000 0.3750000
vt 0.1250000 0.3750000
vt 0.1250000 0.3750000
vt 0.1250000 0.3750000
vt 0.1250000 0.3750000
vt 0.1250000 0.3750000
vt 0.1250000 0.3750000
vt 0.1250000 0.3750000
vt 0.1250000 0.3750000
vt 0.1250000 0.3750000
vt 0.1250000 0.3750000
vt 0.1250000 0.3750000
vt 0.1250000 0.3750000
vt 0.1250000 0.3750000
vt 0.1250000 0.3750000
vt 0.1250000 0.3750000
vt 0.1250000 0.3750000
vt 0.1250000 0.3750000
vt 0.1250000 0.3750000
vt 0.1250000 0.3750000
vt 0.1250000 0.3750000
vt 0.6250000 0.8750000
vt 0.6250000 0.8750000
vt 0.6250000 0.8750000
vt 0.6250000 0.8750000
vt 0.6250000 0.8750000
vt 0.6250000 0.8750000
vt 0.6250000 0.8750000
vt 0.6250000 0.8750000
vt 0.6250000 0.8750000
vt 0.6250000 0.8750000
vt 0.6250000 0.8750000
vt 0.6250000 0.8750000
vt 0.6250000 0.8750000
vt 0.6250000 0.8750000
vt 0.6250000 0.8750000
vt 0.6250000 0.8750000
vt 0.1250000 0.1250000
vt 0.1250000 0.1250000
vt 0.1250000 0.1250000
vt 0.1250000 0.1250000
vt 0.1250000 0.1250000
vt 0.1250000 0.1250000
vt 0.1250000 0.1250000
vt 0.1250000 0.1250000
vt 0.1250000 0.1250000
vt 0.1250000 0.1250000
vt 0.1250000 0.1250000
vt 0.1250000 0.1250000
vt 0.1250000 0.1250000
vt 0.1250000 0.1250000
vt 0.1250000 0.1250000
vt 0.1250000 0.1250000
vt 0.1250000 0.1250000
vt 0.1250000 0.1250000
vt 0.1250000 0.1250000
vt 0.1250000 0.1250000
vt 0.1250000 0.1250000
vt 0.1250000 0.1250000
vt 0.1250000 0.1250000
vt 0.1250000 0.1250000
vt 0.1250000 0.3750000
vt 0.1250000 0.3750000
vt 0.1250000 0.3750000
vt 0.1250000 0.3750000
vt 0.1250000 0.3750000
vt 0.1250000 0.3750000
vt 0.1250000 0.3750000
vt 0.1250000 0.3750000
vt 0.1250000 0.3750000
vt 0.1250000 0.3750000
vt 0.1250000 0.3750000
vt 0.1250000 0.3750000
vt 0.1250000 0.3750000
vt 0.1250000 0.3750000
vt 0.1250000 0.3750000
vt 0.1250000 0.3750000
vt 0.1250000 0.3750000
vt 0.1250000 0.3750000
vt 0.1250000 0.3750000
vt 0.1250000 0.3750000
vt 0.1250000 0.3750000
vt 0.1250000 0.3750000
vt 0.1250000 0.3750000
vt 0.1250000 0.3750000
vt 0.3750000 0.3750000
vt 0.3750000 0.3750000
vt 0.3750000 0.3750000
vt 0.3750000 0.3750000
vt 0.3750000 0.3750000
vt 0.3750000 0.3750000
vt 0.3750000 0.3750000
vt 0.3750000 0.3750000
vt 0.3750000 0.3750000
vt 0.3750000 0.3750000
vt 0.3750000 0.3750000
vt 0.3750000 0.3750000
vt 0.3750000 0.3750000
vt 0.3750000 0.3750000
vt 0.3750000 0.3750000
vt 0.3750000 0.3750000
vt 0.3750000 0.3750000
vt 0.3750000 0.3750000
vt 0.3750000 0.3750000
vt 0.3750000 0.3750000
vt 0.3750000 0.3750000
vt 0.3750000 0.3750000
vt 0.3750000 0.3750000
vt 0.3750000 0.3750000
vt 0.3750000 0.3750000
vt 0.3750000 0.3750000
vt 0.3750000 0.3750000
vt 0.3750000 0.3750000
vt 0.3750000 0.3750000
vt 0.3750000 0.3750000
vt 0.3750000 0.3750000
vt 0.3750000 0.3750000
vt 0.3750000 0.3750000
vt 0.3750000 0.3750000
vt 0.3750000 0.3750000
vt 0.3750000 0.3750000
vt 0.1250000 0.3750000
vt 0.1250000 0.3750000
vt 0.1250000 0.3750000
vt 0.1250000 0.3750000
vt 0.1250000 0.3750000
vt 0.1250000 0.3750000
vt 0.1250000 0.3750000
vt 0.1250000 0.3750000
vt 0.1250000 0.3750000
vt 0.1250000 0.3750000
vt 0.1250000 0.3750000
vt 0.1250000 0.3750000
vt 0.1250000 0.3750000
vt 0.1250000 0.3750000
vt 0.1250000 0.3750000
vt 0.1250000 0.3750000
vt 0.1250000 0.3750000
vt 0.1250000 0.3750000
vt 0.1250000 0.3750000
vt 0.1250000 0.3750000
vt 0.1250000 0.3750000
vt 0.1250000 0.3750000
vt 0.1250000 0.3750000
vt 0.1250000 0.3750000
vt 0.1250000 0.3750000
vt 0.1250000 0.3750000
vt 0.1250000 0.3750000
vt 0.1250000 0.3750000
vt 0.1250000 0.3750000
vt 0.1250000 0.3750000
vt 0.1250000 0.3750000
vt 0.1250000 0.3750000
vt 0.1250000 0.3750000
vt 0.1250000 0.3750000
vt 0.1250000 0.3750000
vt 0.1250000 0.3750000
vt 0.1250000 0.3750000
vt 0.1250000 0.3750000
vt 0.1250000 0.3750000
vt 0.1250000 0.3750000
vt 0.1250000 0.3750000
vt 0.1250000 0.3750000
vt 0.1250000 0.3750000
vt 0.1250000 0.3750000
vt 0.1250000 0.3750000
vt 0.1250000 0.3750000
vt 0.1250000 0.3750000
vt 0.1250000 0.3750000
vt 0.1250000 0.3750000
vt 0.1250000 0.3750000
vt 0.1250000 0.3750000
vt 0.1250000 0.3750000
vt 0.1250000 0.3750000
vt 0.1250000 0.3750000
vt 0.1250000 0.3750000
vt 0.1250000 0.3750000
vt 0.1250000 0.3750000
vt 0.1250000 0.3750000
vt 0.1250000 0.3750000
vt 0.1250000 0.3750000
vt 0.6250000 0.8750000
vt 0.6250000 0.8750000
vt 0.6250000 0.8750000
vt 0.6250000 0.8750000
vt 0.6250000 0.8750000
vt 0.6250000 0.8750000
vt 0.6250000 0.8750000
vt 0.6250000 0.8750000
vt 0.6250000 0.8750000
vt 0.6250000 0.8750000
vt 0.6250000 0.8750000
vt 0.6250000 0.8750000
vt 0.6250000 0.8750000
vt 0.6250000 0.8750000
vt 0.6250000 0.8750000
vt 0.6250000 0.8750000
vt 0.1250000 0.1250000
vt 0.1250000 0.1250000
vt 0.1250000 0.1250000
vt 0.1250000 0.1250000
vt 0.1250000 0.1250000
vt 0.1250000 0.1250000
vt 0.1250000 0.1250000
vt 0.1250000 0.1250000
vt 0.1250000 0.1250000
vt 0.1250000 0.1250000
vt 0.1250000 0.1250000
vt 0.1250000 0.1250000
vt 0.1250000 0.1250000
vt 0.1250000 0.1250000
vt 0.1250000 0.1250000
vt 0.1250000 0.1250000
vt 0.1250000 0.1250000
vt 0.1250000 0.1250000
vt 0.1250000 0.1250000
vt 0.1250000 0.1250000
vt 0.1250000 0.1250000
vt 0.1250000 0.1250000
vt 0.1250000 0.1250000
vt 0.1250000 0.1250000
vt 0.6250000 0.8750000
vt 0.6250000 0.8750000
vt 0.6250000 0.8750000
vt 0.6250000 0.8750000
vt 0.6250000 0.8750000
vt 0.6250000 0.8750000
vt 0.6250000 0.8750000
vt 0.6250000 0.8750000
vt 0.6250000 0.8750000
vt 0.6250000 0.8750000
vt 0.6250000 0.8750000
vt 0.6250000 0.8750000
vt 0.6250000 0.8750000
vt 0.6250000 0.8750000
vt 0.6250000 0.8750000
vt 0.6250000 0.8750000
vt 0.3750000 0.3750000
vt 0.3750000 0.3750000
vt 0.3750000 0.3750000
vt 0.3750000 0.3750000
vt 0.3750000 0.3750000
vt 0.3750000 0.3750000
vt 0.3750000 0.3750000
vt 0.3750000 0.3750000
vt 0.3750000 0.3750000
vt 0.3750000 0.3750000
vt 0.3750000 0.3750000
vt 0.3750000 0.3750000
vt 0.3750000 0.3750000
vt 0.3750000 0.3750000
vt 0.3750000 0.3750000
vt 0.3750000 0.3750000
vt 0.3750000 0.3750000
vt 0.3750000 0.3750000
vt 0.3750000 0.3750000
vt 0.3750000 0.3750000
vt 0.3750000 0.3750000
vt 0.3750000 0.3750000
vt 0.3750000 0.3750000
vt 0.3750000 0.3750000
vn 0.902932324 0.306004415 -0.301785548
vn 0.902932190 0.306004676 -0.301785684
vn 0.424370990 0.838245074 -0.342424384
vn 0.424371776 0.838244812 -0.342424051
vn -0.424371054 0.838245201 -0.342423993
vn -0.424371743 0.838244747 -0.342424251
vn -0.902932274 0.306004399 -0.301785712
vn -0.902932215 0.306004684 -0.301785600
vn -0.902932155 -0.306004358 -0.301786110
vn -0.902932480 -0.306003725 -0.301785781
vn -0.424370990 -0.838245074 -0.342424384
vn -0.424368770 -0.838245813 -0.342425325
vn 0.424370808 -0.838244715 -0.342425489
vn 0.424368863 -0.838245997 -0.342424761
vn 0.902932274 -0.306004399 -0.301785712
vn 0.902932419 -0.306003704 -0.301785984
vn 0.902932215 0.306004684 0.301785600
vn 0.902932274 0.306004399 0.301785712
vn 0.424371743 0.838244747 0.342424251
vn 0.424371054 0.838245201 0.342423993
vn -0.424371776 0.838244812 0.342424051
vn -0.424370990 0.838245074 0.342424384
vn -0.902932190 0.306004676 0.301785684
vn -0.902932324 0.306004415 0.301785548
vn -0.902932419 -0.306003704 0.301785984
vn -0.902932274 -0.306004399 0.301785712
vn -0.424368863 -0.838245997 0.342424761
vn -0.424370808 -0.838244715 0.342425489
vn 0.424368770 -0.838245813 0.342425325
vn 0.424370990 -0.838245074 0.342424384
vn 0.902932480 -0.306003725 0.301785781
vn 0.902932155 -0.306004358 0.301786110
vn 0.000000000 0.000000000 -1.000000000
vn 0.000000000 0.000000000 -1.000000000
vn 0.000000000 0.000000000 -1.000000000
vn 0.000000000 0.000000000 -1.000000000
vn -0.000000000 0.000000000 -1.000000000
vn 0.000000000 0.000000000 -1.000000000
vn 0.000000000 -0.000000000 -1.000000000
vn 0.000000000 0.000000000 -1.000000000
vn 0.000000000 0.000000000 1.000000000
vn 0.000000000 0.000000000 1.000000000
vn 0.000000000 -0.000000000 1.000000000
vn 0.000000000 0.000000000 1.000000000
vn 0.000000000 0.000000000 1.000000000
vn 0.000000000 0.000000000 1.000000000
vn 0.000000000 0.000000000 1.000000000
vn -0.000000000 0.000000000 1.000000000
vn 0.826418286 0.342311021 -0.447052550
vn 0.826417331 0.342312296 -0.447053338
vn 0.342310821 0.826417804 -0.447053594
vn 0.342312398 0.826417577 -0.447052805
vn -0.342311021 0.826418286 -0.447052550
vn -0.342312296 0.826417331 -0.447053338
vn -0.826417804 0.342310821 -0.447053594
vn -0.826417577 0.342312398 -0.447052805
vn -0.826418286 -0.342311021 -0.447052550
vn -0.826417331 -0.342312296 -0.447053338
vn -0.342310821 -0.826417804 -0.447053594
vn -0.342312398 -0.826417577 -0.447052805
vn 0.342311021 -0.826418286 -0.447052550
vn 0.342312296 -0.826417331 -0.447053338
vn 0.826417804 -0.342310821 -0.447053594
vn 0.826417577 -0.342312398 -0.447052805
vn 0.826417577 0.342312398 0.447052805
vn 0.826417804 0.342310821 0.447053594
vn 0.342312296 0.826417331 0.447053338
vn 0.342311021 0.826418286 0.447052550
vn -0.342312398 0.826417577 0.447052805
vn -0.342310821 0.826417804 0.447053594
vn -0.826417331 0.342312296 0.447053338
vn -0.826418286 0.342311021 0.447052550
vn -0.826417577 -0.342312398 0.447052805
vn -0.826417804 -0.342310821 0.447053594
vn -0.342312296 -0.826417331 0.447053338
vn -0.342311021 -0.826418286 0.447052550
vn 0.342312398 -0.826417577 0.447052805
vn 0.342310821 -0.826417804 0.447053594
vn 0.826417331 -0.342312296 0.447053338
vn 0.826418286 -0.342311021 0.447052550
vn 0.000000000 0.000000000 -1.000000000
vn 0.000000000 0.000000000 -1.000000000
vn 0.000000000 0.000000000 -1.000000000
vn 0.000000000 0.000000000 -1.000000000
vn -0.000000000 0.000000000 -1.000000000
vn 0.000000000 0.000000000 -1.000000000
vn 0.000000000 -0.000000000 -1.000000000
vn 0.000000000 0.000000000 -1.000000000
vn 0.000000000 0.000000000 1.000000000
vn 0.000000000 0.000000000 1.000000000
vn 0.000000000 -0.000000000 1.000000000
vn 0.000000000 0.000000000 1.000000000
vn 0.000000000 0.000000000 1.000000000
vn 0.000000000 0.000000000 1.000000000
vn 0.000000000 0.000000000 1.000000000
vn -0.000000000 0.000000000 1.000000000
vn 0.767984456 0.640468482 0.000000000
vn 0.767984456 0.640468482 -0.000000000
vn 0.000000000 1.000000000 0.000000000
vn 0.000000000 1.000000000 -0.000000000
vn -0.767984456 0.640468482 0.000000000
vn -0.767984456 0.640468482 0.000000000
vn -0.767984456 -0.640468482 0.000000000
vn -0.767984456 -0.640468482 0.000000000
vn 0.000000000 -1.000000000 0.000000000
vn 0.000000000 -1.000000000 0.000000000
vn 0.767984456 -0.640468482 0.000000000
vn 0.767984456 -0.640468482 0.000000000
vn 0.000000000 0.000000000 -1.000000000
vn 0.000000000 0.000000000 -1.000000000
vn 0.000000000 0.000000000 -1.000000000
vn -0.000000000 0.000000000 -1.000000000
vn 0.000000000 -0.000000000 -1.000000000
vn 0.000000000 0.000000000 -1.000000000
vn 0.000000000 0.000000000 1.000000000
vn 0.000000000 -0.000000000 1.000000000
vn 0.000000000 0.000000000 1.000000000
vn 0.000000000 0.000000000 1.000000000
vn 0.000000000 0.000000000 1.000000000
vn -0.000000000 0.000000000 1.000000000
vn 0.782102954 0.564854404 -0.263162443
vn 0.782104402 0.564853179 -0.263160770
vn -0.782103399 0.564854725 -0.263160432
vn -0.782104175 0.564853015 -0.263161795
vn -0.782102954 -0.564854404 -0.263162443
vn -0.782104402 -0.564853179 -0.263160770
vn 0.782103399 -0.564854725 -0.263160432
vn 0.782104175 -0.564853015 -0.263161795
vn 0.782104175 0.564853015 0.263161795
vn 0.782103399 0.564854725 0.263160432
vn -0.782104402 0.564853179 0.263160770
vn -0.782102954 0.564854404 0.263162443
vn -0.782104175 -0.564853015 0.263161795
vn -0.782103399 -0.564854725 0.263160432
vn 0.782104402 -0.564853179 0.263160770
vn 0.782102954 -0.564854404 0.263162443
vn 0.000000000 0.000000000 -1.000000000
vn 0.000000000 0.000000000 -1.000000000
vn -0.000000000 -0.000000000 -1.000000000
vn 0.000000000 0.000000000 -1.000000000
vn 0.000000000 0.000000000 1.000000000
vn 0.000000000 -0.000000000 1.000000000
vn 0.000000000 0.000000000 1.000000000
vn -0.000000000 0.000000000 1.000000000
vn 0.715454552 0.674678133 -0.181477826
vn 0.715455372 0.674677324 -0.181477600
vn 0.000000000 0.991076467 -0.133294547
vn 0.000000000 0.991076467 -0.133294547
vn -0.715454608 0.674678186 -0.181477406
vn -0.715455343 0.674677297 -0.181477814
vn -0.715465104 -0.674667727 -0.181474912
vn -0.715455372 -0.674677324 -0.181477600
vn 0.000000000 -0.991077021 -0.133290430
vn 0.000000000 -0.991077021 -0.133290430
vn 0.715464434 -0.674667096 -0.181479898
vn 0.715455714 -0.674677646 -0.181475055
vn 0.715455343 0.674677297 0.181477814
vn 0.715454608 0.674678186 0.181477406
vn 0.000000000 0.991076467 0.133294547
vn 0.000000000 0.991076467 0.133294547
vn -0.715455372 0.674677324 0.181477600
vn -0.715454552 0.674678133 0.181477826
vn -0.715455714 -0.674677646 0.181475055
vn -0.715464434 -0.674667096 0.181479898
vn 0.000000000 -0.991077021 0.133290430
vn 0.000000000 -0.991077021 0.133290430
vn 0.715455372 -0.674677324 0.181477600
vn 0.715465104 -0.674667727 0.181474912
vn 0.000000000 0.000000000 -1.000000000
vn 0.000000000 0.000000000 -1.000000000
vn 0.000000000 0.000000000 -1.000000000
vn -0.000000000 0.000000000 -1.000000000
vn 0.000000000 -0.000000000 -1.000000000
vn 0.000000000 0.000000000 -1.000000000
vn 0.000000000 0.000000000 1.000000000
vn 0.000000000 -0.000000000 1.000000000
vn 0.000000000 0.000000000 1.000000000
vn 0.000000000 0.000000000 1.000000000
vn 0.000000000 0.000000000 1.000000000
vn -0.000000000 0.000000000 1.000000000
vn 0.958320257 0.100538949 0.267421398
vn 0.890458643 0.129623796 0.436212192
vn 0.000000000 0.496602556 0.867978054
vn 0.000000000 0.496602556 0.867978054
vn -0.949391034 0.168727384 0.264929679
vn -0.858390202 0.293843040 0.420502709
vn -0.963198195 -0.002269843 -0.268782598
vn -0.891887287 -0.116811511 -0.436912048
vn 0.000000000 -0.224871765 -0.974388367
vn 0.000000000 -0.224871765 -0.974388367
vn 0.951527202 -0.155216120 -0.265525781
vn 0.888009617 -0.149006925 -0.435012479
vn 0.000000000 -1.000000000 0.000000000
vn 0.000000000 -1.000000000 0.000000000
vn 0.000000000 -1.000000000 0.000000000
vn -0.000000000 -1.000000000 0.000000000
vn 0.000000000 -1.000000000 -0.000000000
vn 0.000000000 -1.000000000 0.000000000
vn 0.000000000 1.000000000 0.000000000
vn 0.000000000 1.000000000 -0.000000000
vn 0.000000000 1.000000000 0.000000000
vn 0.000000000 1.000000000 0.000000000
vn 0.000000000 1.000000000 0.000000000
vn -0.000000000 1.000000000 0.000000000
vn 0.903540036 0.147208708 0.402423905
vn 0.755818802 0.112305135 0.645077899
vn 0.000000000 0.178462628 0.983946691
vn 0.000000000 0.178462628 0.983946691
vn -0.908962501 -0.099461358 0.404838993
vn -0.760517802 0.017230952 0.649088412
vn -0.905387484 -0.132911915 -0.403246732
vn -0.747387586 -0.185791121 -0.637882007
vn 0.000000000 -0.032893619 -0.999458859
vn 0.000000000 -0.032893619 -0.999458859
vn 0.913458279 0.008607471 -0.406841349
vn 0.759988647 0.041080076 -0.648636788
vn 0.729736024 0.282107564 0.622816713
vn 0.829064860 0.289027601 0.478659069
vn 0.000000000 0.279164855 0.960243190
vn 0.000000000 0.279164855 0.960243190
vn -0.742862059 0.214884086 0.634019550
vn -0.855324269 0.156723673 0.493819891
vn -0.756916416 -0.098704380 -0.646014694
vn -0.865482741 -0.035421178 -0.499684866
vn 0.000000000 -0.168376609 -0.985722739
vn 0.000000000 -0.168376609 -0.985722739
vn 0.760556024 0.014014905 -0.649121034
vn 0.865511146 0.034483341 -0.499701266
vn 0.000000000 -1.000000000 0.000000000
vn 0.000000000 -1.000000000 0.000000000
vn 0.000000000 -1.000000000 0.000000000
vn -0.000000000 -1.000000000 0.000000000
vn 0.000000000 -1.000000000 -0.000000000
vn 0.000000000 -1.000000000 0.000000000
vn 0.000000000 1.000000000 0.000000000
vn 0.000000000 1.000000000 -0.000000000
vn 0.000000000 1.000000000 0.000000000
vn 0.000000000 1.000000000 0.000000000
vn 0.000000000 1.000000000 0.000000000
vn -0.000000000 1.000000000 0.000000000
vn 0.467908316 0.000000000 0.883777012
vn 0.467908316 -0.000000000 0.883777012
vn -0.467908316 0.000000000 0.883777012
vn -0.467908316 0.000000000 0.883777012
vn -0.467908316 0.000000000 -0.883777012
vn -0.467908316 0.000000000 -0.883777012
vn 0.467908316 0.000000000 -0.883777012
vn 0.467908316 0.000000000 -0.883777012
vn 0.000000000 -1.000000000 0.000000000
vn 0.000000000 -1.000000000 0.000000000
vn -0.000000000 -1.000000000 -0.000000000
vn 0.000000000 -1.000000000 0.000000000
vn 0.000000000 1.000000000 0.000000000
vn 0.000000000 1.000000000 -0.000000000
vn 0.000000000 1.000000000 0.000000000
vn -0.000000000 1.000000000 0.000000000
vn 0.910686814 0.413097478 0.000000000
vn 0.910686814 0.413097478 -0.000000000
vn 0.000000000 1.000000000 0.000000000
vn 0.000000000 1.000000000 -0.000000000
vn -0.910686814 0.413097478 0.000000000
vn -0.910686814 0.413097478 0.000000000
vn -0.910696861 -0.413075328 0.000000000
vn -0.910696861 -0.413075328 0.000000000
vn 0.000000000 -1.000000000 0.000000000
vn 0.000000000 -1.000000000 0.000000000
vn 0.910696861 -0.413075328 0.000000000
vn 0.910696861 -0.413075328 0.000000000
vn 0.000000000 0.000000000 -1.000000000
vn 0.000000000 0.000000000 -1.000000000
vn 0.000000000 0.000000000 -1.000000000
vn -0.000000000 0.000000000 -1.000000000
vn 0.000000000 -0.000000000 -1.000000000
vn 0.000000000 0.000000000 -1.000000000
vn 0.000000000 0.000000000 1.000000000
vn 0.000000000 -0.000000000 1.000000000
vn 0.000000000 0.000000000 1.000000000
vn 0.000000000 0.000000000 1.000000000
vn 0.000000000 0.000000000 1.000000000
vn -0.000000000 0.000000000 1.000000000
vn 0.782102954 0.564854404 -0.263162443
vn 0.782104402 0.564853179 -0.263160770
vn -0.782103399 0.564854725 -0.263160432
vn -0.782104175 0.564853015 -0.263161795
vn -0.782102954 -0.564854404 -0.263162443
vn -0.782104402 -0.564853179 -0.263160770
vn 0.782103399 -0.564854725 -0.263160432
vn 0.782104175 -0.564853015 -0.263161795
vn 0.782104175 0.564853015 0.263161795
vn 0.782103399 0.564854725 0.263160432
vn -0.782104402 0.564853179 0.263160770
vn -0.782102954 0.564854404 0.263162443
vn -0.782104175 -0.564853015 0.263161795
vn -0.782103399 -0.564854725 0.263160432
vn 0.782104402 -0.564853179 0.263160770
vn 0.782102954 -0.564854404 0.263162443
vn 0.000000000 0.000000000 -1.000000000
vn 0.000000000 0.000000000 -1.000000000
vn -0.000000000 -0.000000000 -1.000000000
vn 0.000000000 0.000000000 -1.000000000
vn 0.000000000 0.000000000 1.000000000
vn 0.000000000 -0.000000000 1.000000000
vn 0.000000000 0.000000000 1.000000000
vn -0.000000000 0.000000000 1.000000000
vn 0.715454552 0.674678133 -0.181477826
vn 0.715455372 0.674677324 -0.181477600
vn 0.000000000 0.991076467 -0.133294547
vn 0.000000000 0.991076467 -0.133294547
vn -0.715454608 0.674678186 -0.181477406
vn -0.715455343 0.674677297 -0.181477814
vn -0.715465104 -0.674667727 -0.181474912
vn -0.715455372 -0.674677324 -0.181477600
vn 0.000000000 -0.991077021 -0.133290430
vn 0.000000000 -0.991077021 -0.133290430
vn 0.715464434 -0.674667096 -0.181479898
vn 0.715455714 -0.674677646 -0.181475055
vn 0.715455343 0.674677297 0.181477814
vn 0.715454608 0.674678186 0.181477406
vn 0.000000000 0.991076467 0.133294547
vn 0.000000000 0.991076467 0.133294547
vn -0.715455372 0.674677324 0.181477600
vn -0.715454552 0.674678133 0.181477826
vn -0.715455714 -0.674677646 0.181475055
vn -0.715464434 -0.674667096 0.181479898
vn 0.000000000 -0.991077021 0.133290430
vn 0.000000000 -0.991077021 0.133290430
vn 0.715455372 -0.674677324 0.181477600
vn 0.715465104 -0.674667727 0.181474912
vn 0.000000000 0.000000000 -1.000000000
vn 0.000000000 0.000000000 -1.000000000
vn 0.000000000 0.000000000 -1.000000000
vn -0.000000000 0.000000000 -1.000000000
vn 0.000000000 -0.000000000 -1.000000000
vn 0.000000000 0.000000000 -1.000000000
vn 0.000000000 0.000000000 1.000000000
vn 0.000000000 -0.000000000 1.000000000
vn 0.000000000 0.000000000 1.000000000
vn 0.000000000 0.000000000 1.000000000
vn 0.000000000 0.000000000 1.000000000
vn -0.000000000 0.000000000 1.000000000
vn 0.941963322 0.208833231 0.262856959
vn 0.874101868 0.229327635 0.428199440
vn 0.000000000 0.496602556 0.867978054
vn 0.000000000 0.496602556 0.867978054
vn -0.961546009 0.058590243 0.268321552
vn -0.880164347 0.198503821 0.431169288
vn -0.956919990 -0.114012127 -0.267030651
vn -0.876599302 -0.217185787 -0.429422867
vn 0.000000000 -0.224871765 -0.974388367
vn 0.000000000 -0.224871765 -0.974388367
vn 0.962242849 -0.044585363 -0.268516006
vn 0.897094370 -0.045761190 -0.439462860
vn 0.000000000 -1.000000000 0.000000000
vn 0.000000000 -1.000000000 0.000000000
vn 0.000000000 -1.000000000 0.000000000
vn -0.000000000 -1.000000000 0.000000000
vn 0.000000000 -1.000000000 -0.000000000
vn 0.000000000 -1.000000000 0.000000000
vn 0.000000000 1.000000000 0.000000000
vn 0.000000000 1.000000000 -0.000000000
vn 0.000000000 1.000000000 0.000000000
vn 0.000000000 1.000000000 0.000000000
vn 0.000000000 1.000000000 0.000000000
vn -0.000000000 1.000000000 0.000000000
vn 0.912488335 -0.046866610 0.406409350
vn 0.759682773 -0.049909893 0.648375730
vn 0.000000000 0.178462628 0.983946691
vn 0.000000000 0.178462628 0.983946691
vn -0.909329653 0.095354821 0.405002518
vn -0.748570589 0.177368249 0.638891679
vn -0.911761276 0.061529821 -0.406085528
vn -0.760371966 -0.026082025 -0.648963944
vn 0.000000000 -0.032893619 -0.999458859
vn 0.000000000 -0.032893619 -0.999458859
vn 0.897904409 -0.183947179 -0.399913876
vn 0.755043642 -0.120982286 -0.644416314
vn 0.745797338 0.196526241 0.636524758
vn 0.849964079 0.191702498 0.490725195
vn 0.000000000 0.279164855 0.960243190
vn 0.000000000 0.279164855 0.960243190
vn -0.725770850 0.299265839 0.619432507
vn -0.837074613 0.256404301 0.483283485
vn -0.760618918 -0.005572563 -0.649174713
vn -0.863842773 0.070965051 -0.498738033
vn 0.000000000 -0.168376609 -0.985722739
vn 0.000000000 -0.168376609 -0.985722739
vn 0.758232392 -0.079348823 -0.647137856
vn 0.863784947 -0.071897427 -0.498704648
vn 0.000000000 -1.000000000 0.000000000
vn 0.000000000 -1.000000000 0.000000000
vn 0.000000000 -1.000000000 0.000000000
vn -0.000000000 -1.000000000 0.000000000
vn 0.000000000 -1.000000000 -0.000000000
vn 0.000000000 -1.000000000 0.000000000
vn 0.000000000 1.000000000 0.000000000
vn 0.000000000 1.000000000 -0.000000000
vn 0.000000000 1.000000000 0.000000000
vn 0.000000000 1.000000000 0.000000000
vn 0.000000000 1.000000000 0.000000000
vn -0.000000000 1.000000000 0.000000000
vn 0.467908316 0.000000000 0.883777012
vn 0.467908316 -0.000000000 0.883777012
vn -0.467908316 0.000000000 0.883777012
vn -0.467908316 0.000000000 0.883777012
vn -0.467908316 0.000000000 -0.883777012
vn -0.467908316 0.000000000 -0.883777012
vn 0.467908316 0.000000000 -0.883777012
vn 0.467908316 0.000000000 -0.883777012
vn 0.000000000 -1.000000000 0.000000000
vn 0.000000000 -1.000000000 0.000000000
vn -0.000000000 -1.000000000 -0.000000000
vn 0.000000000 -1.000000000 0.000000000
vn 0.000000000 1.000000000 0.000000000
vn 0.000000000 1.000000000 -0.000000000
vn 0.000000000 1.000000000 0.000000000
vn -0.000000000 1.000000000 0.000000000
vn 0.910686814 0.413097478 0.000000000
vn 0.910686814 0.413097478 -0.000000000
vn 0.000000000 1.000000000 0.000000000
vn 0.000000000 1.000000000 -0.000000000
vn -0.910686814 0.413097478 0.000000000
vn -0.910686814 0.413097478 0.000000000
vn -0.910696861 -0.413075328 0.000000000
vn -0.910696861 -0.413075328 0.000000000
vn 0.000000000 -1.000000000 0.000000000
vn 0.000000000 -1.000000000 0.000000000
vn 0.910696861 -0.413075328 0.000000000
vn 0.910696861 -0.413075328 0.000000000
vn 0.000000000 0.000000000 -1.000000000
vn 0.000000000 0.000000000 -1.000000000
vn 0.000000000 0.000000000 -1.000000000
vn -0.000000000 0.000000000 -1.000000000
vn 0.000000000 -0.000000000 -1.000000000
vn 0.000000000 0.000000000 -1.000000000
vn 0.000000000 0.000000000 1.000000000
vn 0.000000000 -0.000000000 1.000000000
vn 0.000000000 0.000000000 1.000000000
vn 0.000000000 0.000000000 1.000000000
vn 0.000000000 0.000000000 1.000000000
vn -0.000000000 0.000000000 1.000000000
vn 0.566521969 0.824046636 0.000000000
vn 0.566521969 0.824046636 -0.000000000
vn -0.566521969 0.824046636 0.000000000
vn -0.566521969 0.824046636 0.000000000
vn -0.566521969 -0.824046636 0.000000000
vn -0.566521969 -0.824046636 0.000000000
vn 0.566521969 -0.824046636 0.000000000
vn 0.566521969 -0.824046636 0.000000000
vn 0.000000000 0.000000000 -1.000000000
vn 0.000000000 0.000000000 -1.000000000
vn -0.000000000 0.000000000 -1.000000000
vn 0.000000000 -0.000000000 -1.000000000
vn 0.000000000 0.000000000 1.000000000
vn 0.000000000 -0.000000000 1.000000000
vn 0.000000000 0.000000000 1.000000000
vn -0.000000000 0.000000000 1.000000000
vn 0.866018925 0.500011221 0.000000000
vn 0.866018925 0.500011221 -0.000000000
vn 0.000000000 1.000000000 0.000000000
vn 0.000000000 1.000000000 -0.000000000
vn -0.866018925 0.500011221 0.000000000
vn -0.866018925 0.500011221 0.000000000
vn -0.866018925 -0.500011221 0.000000000
vn -0.866018925 -0.500011221 0.000000000
vn 0.000000000 -1.000000000 0.000000000
vn 0.000000000 -1.000000000 0.000000000
vn 0.866018925 -0.500011221 0.000000000
vn 0.866018925 -0.500011221 0.000000000
vn 0.000000000 0.000000000 -1.000000000
vn 0.000000000 0.000000000 -1.000000000
vn 0.000000000 0.000000000 -1.000000000
vn -0.000000000 0.000000000 -1.000000000
vn 0.000000000 -0.000000000 -1.000000000
vn 0.000000000 0.000000000 -1.000000000
vn 0.000000000 0.000000000 1.000000000
vn 0.000000000 -0.000000000 1.000000000
vn 0.000000000 0.000000000 1.000000000
vn 0.000000000 0.000000000 1.000000000
vn 0.000000000 0.000000000 1.000000000
vn -0.000000000 0.000000000 1.000000000
f 1/1/1 2/1/1 3/1/1
f 1/2/2 3/2/2 4/2/2
f 2/3/3 5/3/3 6/3/3
f 2/4/4 6/4/4 3/4/4
f 5/5/5 7/5/5 8/5/5
f 5/6/6 8/6/6 6/6/6
f 7/7/7 9/7/7 10/7/7
f 7/8/8 10/8/8 8/8/8
f 9/9/9 11/9/9 12/9/9
f 9/10/10 12/10/10 10/10/10
f 11/11/11 13/11/11 14/11/11
f 11/12/12 14/12/12 12/12/12
f 13/13/13 15/13/13 16/13/13
f 13/14/14 16/14/14 14/14/14
f 15/15/15 1/15/15 4/15/15
f 15/16/16 4/16/16 16/16/16
f 4/17/17 3/17/17 17/17/17
f 4/18/18 17/18/18 18/18/18
f 3/19/19 6/19/19 19/19/19
f 3/20/20 19/20/20 17/20/20
f 6/21/21 8/21/21 20/21/21
f 6/22/22 20/22/22 19/22/22
f 8/23/23 10/23/23 21/23/23
f 8/24/24 21/24/24 20/24/24
f 10/25/25 12/25/25 22/25/25
f 10/26/26 22/26/26 21/26/26
f 12/27/27 14/27/27 23/27/27
f 12/28/28 23/28/28 22/28/28
f 14/29/29 16/29/29 24/29/29
f 14/30/30 24/30/30 23/30/30
f 16/31/31 4/31/31 18/31/31
f 16/32/32 18/32/32 24/32/32
f 25/33/33 2/33/33 1/33/33
f 25/34/34 5/34/34 2/34/34
f 25/35/35 7/35/35 5/35/35
f 25/36/36 9/36/36 7/36/36
f 25/37/37 11/37/37 9/37/37
f 25/38/38 13/38/38 11/38/38
f 25/39/39 15/39/39 13/39/39
f 25/40/40 1/40/40 15/40/40
f 26/41/41 18/41/41 17/41/41
f 26/42/42 17/42/42 19/42/42
f 26/43/43 19/43/43 20/43/43
f 26/44/44 20/44/44 21/44/44
f 26/45/45 21/45/45 22/45/45
f 26/46/46 22/46/46 23/46/46
f 26/47/47 23/47/47 24/47/47
f 26/48/48 24/48/48 18/48/48
f 27/49/49 28/49/49 29/49/49
f 27/50/50 29/50/50 30/50/50
f 28/51/51 31/51/51 32/51/51
f 28/52/52 32/52/52 29/52/52
f 31/53/53 33/53/53 34/53/53
f 31/54/54 34/54/54 32/54/54
f 33/55/55 35/55/55 36/55/55
f 33/56/56 36/56/56 34/56/56
f 35/57/57 37/57/57 38/57/57
f 35/58/58 38/58/58 36/58/58
f 37/59/59 39/59/59 40/59/59
f 37/60/60 40/60/60 38/60/60
f 39/61/61 41/61/61 42/61/61
f 39/62/62 42/62/62 40/62/62
f 41/63/63 27/63/63 30/63/63
f 41/64/64 30/64/64 42/64/64
f 30/65/65 29/65/65 43/65/65
f 30/66/66 43/66/66 44/66/66
f 29/67/67 32/67/67 45/67/67
f 29/68/68 45/68/68 43/68/68
f 32/69/69 34/69/69 46/69/69
f 32/70/70 46/70/70 45/70/70
f 34/71/71 36/71/71 47/71/71
f 34/72/72 47/72/72 46/72/72
f 36/73/73 38/73/73 48/73/73
f 36/74/74 48/74/74 47/74/74
f 38/75/75 40/75/75 49/75/75
f 38/76/76 49/76/76 48/76/76
f 40/77/77 42/77/77 50/77/77
f 40/78/78 50/78/78 49/78/78
f 42/79/79 30/79/79 44/79/79
f 42/80/80 44/80/80 50/80/80
f 51/81/81 28/81/81 27/81/81
f 51/82/82 31/82/82 28/82/82
f 51/83/83 33/83/83 31/83/83
f 51/84/84 35/84/84 33/84/84
f 51/85/85 37/85/85 35/85/85
f 51/86/86 39/86/86 37/86/86
f 51/87/87 41/87/87 39/87/87
f 51/88/88 27/88/88 41/88/88
f 52/89/89 44/89/89 43/89/89
f 52/90/90 43/90/90 45/90/90
f 52/91/91 45/91/91 46/91/91
f 52/92/92 46/92/92 47/92/92
f 52/93/93 47/93/93 48/93/93
f 52/94/94 48/94/94 49/94/94
f 52/95/95 49/95/95 50/95/95
f 52/96/96 50/96/96 44/96/96
f 53/97/97 54/97/97 55/97/97
f 53/98/98 55/98/98 56/98/98
f 54/99/99 57/99/99 58/99/99
f 54/100/100 58/100/100 55/100/100
f 57/101/101 59/101/101 60/101/101
f 57/102/102 60/102/102 58/102/102
f 59/103/103 61/103/103 62/103/103
f 59/104/104 62/104/104 60/104/104
f 61/105/105 63/105/105 64/105/105
f 61/106/106 64/106/106 62/106/106
f 63/107/107 53/107/107 56/107/107
f 63/108/108 56/108/108 64/108/108
f 65/109/109 54/109/109 53/109/109
f 65/110/110 57/110/110 54/110/110
f 65/111/111 59/111/111 57/111/111
f 65/112/112 61/112/112 59/112/112
f 65/113/113 63/113/113 61/113/113
f 65/114/114 53/114/114 63/114/114
f 66/115/115 56/115/115 55/115/115
f 66/116/116 55/116/116 58/116/116
f 66/117/117 58/117/117 60/117/117
f 66/118/118 60/118/118 62/118/118
f 66/119/119 62/119/119 64/119/119
f 66/120/120 64/120/120 56/120/120
f 67/121/121 68/121/121 69/121/121
f 67/122/122 69/122/122 70/122/122
f 68/123/123 71/123/123 72/123/123
f 68/124/124 72/124/124 69/124/124
f 71/125/125 73/125/125 74/125/125
f 71/126/126 74/126/126 72/126/126
f 73/127/127 67/127/127 70/127/127
f 73/128/128 70/128/128 74/128/128
f 70/129/129 69/129/129 75/129/129
f 70/130/130 75/130/130 76/130/130
f 69/131/131 72/131/131 77/131/131
f 69/132/132 77/132/132 75/132/132
f 72/133/133 74/133/133 78/133/133
f 72/134/134 78/134/134 77/134/134
f 74/135/135 70/135/135 76/135/135
f 74/136/136 76/136/136 78/136/136
f 79/137/137 68/137/137 67/137/137
f 79/138/138 71/138/138 68/138/138
f 79/139/139 73/139/139 71/139/139
f 79/140/140 67/140/140 73/140/140
f 80/141/141 76/141/141 75/141/141
f 80/142/142 75/142/142 77/142/142
f 80/143/143 77/143/143 78/143/143
f 80/144/144 78/144/144 76/144/144
f 81/145/145 82/145/145 83/145/145
f 81/146/146 83/146/146 84/146/146
f 82/147/147 85/147/147 86/147/147
f 82/148/148 86/148/148 83/148/148
f 85/149/149 87/149/149 88/149/149
f 85/150/150 88/150/150 86/150/150
f 87/151/151 89/151/151 90/151/151
f 87/152/152 90/152/152 88/152/152
f 89/153/153 91/153/153 92/153/153
f 89/154/154 92/154/154 90/154/154
f 91/155/155 81/155/155 84/155/155
f 91/156/156 84/156/156 92/156/156
f 84/157/157 83/157/157 93/157/157
f 84/158/158 93/158/158 94/158/158
f 83/159/159 86/159/159 95/159/159
f 83/160/160 95/160/160 93/160/160
f 86/161/161 88/161/161 96/161/161
f 86/162/162 96/162/162 95/162/162
f 88/163/163 90/163/163 97/163/163
f 88/164/164 97/164/164 96/164/164
f 90/165/165 92/165/165 98/165/165
f 90/166/166 98/166/166 97/166/166
f 92/167/167 84/167/167 94/167/167
f 92/168/168 94/168/168 98/168/168
f 99/169/169 82/169/169 81/169/169
f 99/170/170 85/170/170 82/170/170
f 99/171/171 87/171/171 85/171/171
f 99/172/172 89/172/172 87/172/172
f 99/173/173 91/173/173 89/173/173
f 99/174/174 81/174/174 91/174/174
f 100/175/175 94/175/175 93/175/175
f 100/176/176 93/176/176 95/176/176
f 100/177/177 95/177/177 96/177/177
f 100/178/178 96/178/178 97/178/178
f 100/179/179 97/179/179 98/179/179
f 100/180/180 98/180/180 94/180/180
f 101/181/181 102/181/181 103/181/181
f 101/182/182 104/182/182 102/182/182
f 103/183/183 105/183/183 106/183/183
f 103/184/184 102/184/184 105/184/184
f 106/185/185 107/185/185 108/185/185
f 106/186/186 105/186/186 107/186/186
f 108/187/187 109/187/187 110/187/187
f 108/188/188 107/188/188 109/188/188
f 110/189/189 111/189/189 112/189/189
f 110/190/190 109/190/190 111/190/190
f 112/191/191 104/191/191 101/191/191
f 112/192/192 111/192/192 104/192/192
f 113/193/193 101/193/193 103/193/193
f 113/194/194 103/194/194 106/194/194
f 113/195/195 106/195/195 108/195/195
f 113/196/196 108/196/196 110/196/196
f 113/197/197 110/197/197 112/197/197
f 113/198/198 112/198/198 101/198/198
f 114/199/199 102/199/199 104/199/199
f 114/200/200 105/200/200 102/200/200
f 114/201/201 107/201/201 105/201/201
f 114/202/202 109/202/202 107/202/202
f 114/203/203 111/203/203 109/203/203
f 114/204/204 104/204/204 111/204/204
f 115/205/205 116/205/205 117/205/205
f 115/206/206 118/206/206 116/206/206
f 117/207/207 119/207/207 120/207/207
f 117/208/208 116/208/208 119/208/208
f 120/209/209 121/209/209 122/209/209
f 120/210/210 119/210/210 121/210/210
f 122/211/211 123/211/211 124/211/211
f 122/212/212 121/212/212 123/212/212
f 124/213/213 125/213/213 126/213/213
f 124/214/214 123/214/214 125/214/214
f 126/215/215 118/215/215 115/215/215
f 126/216/216 125/216/216 118/216/216
f 118/217/217 127/217/217 116/217/217
f 118/218/218 128/218/218 127/218/218
f 116/219/219 129/219/219 119/219/219
f 116/220/220 127/220/220 129/220/220
f 119/221/221 130/221/221 121/221/221
f 119/222/222 129/222/222 130/222/222
f 121/223/223 131/223/223 123/223/223
f 121/224/224 130/224/224 131/224/224
f 123/225/225 132/225/225 125/225/225
f 123/226/226 131/226/226 132/226/226
f 125/227/227 128/227/227 118/227/227
f 125/228/228 132/228/228 128/228/228
f 133/229/229 115/229/229 117/229/229
f 133/230/230 117/230/230 120/230/230
f 133/231/231 120/231/231 122/231/231
f 133/232/232 122/232/232 124/232/232
f 133/233/233 124/233/233 126/233/233
f 133/234/234 126/234/234 115/234/234
f 134/235/235 127/235/235 128/235/235
f 134/236/236 129/236/236 127/236/236
f 134/237/237 130/237/237 129/237/237
f 134/238/238 131/238/238 130/238/238
f 134/239/239 132/239/239 131/239/239
f 134/240/240 128/240/240 132/240/240
f 135/241/241 136/241/241 137/241/241
f 135/242/242 138/242/242 136/242/242
f 137/243/243 139/243/243 140/243/243
f 137/244/244 136/244/244 139/244/244
f 140/245/245 141/245/245 142/245/245
f 140/246/246 139/246/246 141/246/246
f 142/247/247 138/247/247 135/247/247
f 142/248/248 141/248/248 138/248/248
f 143/249/249 135/249/249 137/249/249
f 143/250/250 137/250/250 140/250/250
f 143/251/251 140/251/251 142/251/251
f 143/252/252 142/252/252 135/252/252
f 144/253/253 136/253/253 138/253/253
f 144/254/254 139/254/254 136/254/254
f 144/255/255 141/255/255 139/255/255
f 144/256/256 138/256/256 141/256/256
f 145/257/257 146/257/257 147/257/257
f 145/258/258 147/258/258 148/258/258
f 146/259/259 149/259/259 150/259/259
f 146/260/260 150/260/260 147/260/260
f 149/261/261 151/261/261 152/261/261
f 149/262/262 152/262/262 150/262/262
f 151/263/263 153/263/263 154/263/263
f 151/264/264 154/264/264 152/264/264
f 153/265/265 155/265/265 156/265/265
f 153/266/266 156/266/266 154/266/266
f 155/267/267 145/267/267 148/267/267
f 155/268/268 148/268/268 156/268/268
f 157/269/269 146/269/269 145/269/269
f 157/270/270 149/270/270 146/270/270
f 157/271/271 151/271/271 149/271/271
f 157/272/272 153/272/272 151/272/272
f 157/273/273 155/273/273 153/273/273
f 157/274/274 145/274/274 155/274/274
f 158/275/275 148/275/275 147/275/275
f 158/276/276 147/276/276 150/276/276
f 158/277/277 150/277/277 152/277/277
f 158/278/278 152/278/278 154/278/278
f 158/279/279 154/279/279 156/279/279
f 158/280/280 156/280/280 148/280/280
f 159/281/281 160/281/281 161/281/281
f 159/282/282 161/282/282 162/282/282
f 160/283/283 163/283/283 164/283/283
f 160/284/284 164/284/284 161/284/284
f 163/285/285 165/285/285 166/285/285
f 163/286/286 166/286/286 164/286/286
f 165/287/287 159/287/287 162/287/287
f 165/288/288 162/288/288 166/288/288
f 162/289/289 161/289/289 167/289/289
f 162/290/290 167/290/290 168/290/290
f 161/291/291 164/291/291 169/291/291
f 161/292/292 169/292/292 167/292/292
f 164/293/293 166/293/293 170/293/293
f 164/294/294 170/294/294 169/294/294
f 166/295/295 162/295/295 168/295/295
f 166/296/296 168/296/296 170/296/296
f 171/297/297 160/297/297 159/297/297
f 171/298/298 163/298/298 160/298/298
f 171/299/299 165/299/299 163/299/299
f 171/300/300 159/300/300 165/300/300
f 172/301/301 168/301/301 167/301/301
f 172/302/302 167/302/302 169/302/302
f 172/303/303 169/303/303 170/303/303
f 172/304/304 170/304/304 168/304/304
f 173/305/305 174/305/305 175/305/305
f 173/306/306 175/306/306 176/306/306
f 174/307/307 177/307/307 178/307/307
f 174/308/308 178/308/308 175/308/308
f 177/309/309 179/309/309 180/309/309
f 177/310/310 180/310/310 178/310/310
f 179/311/311 181/311/311 182/311/311
f 179/312/312 182/312/312 180/312/312
f 181/313/313 183/313/313 184/313/313
f 181/314/314 184/314/314 182/314/314
f 183/315/315 173/315/315 176/315/315
f 183/316/316 176/316/316 184/316/316
f 176/317/317 175/317/317 185/317/317
f 176/318/318 185/318/318 186/318/318
f 175/319/319 178/319/319 187/319/319
f 175/320/320 187/320/320 185/320/320
f 178/321/321 180/321/321 188/321/321
f 178/322/322 188/322/322 187/322/322
f 180/323/323 182/323/323 189/323/323
f 180/324/324 189/324/324 188/324/324
f 182/325/325 184/325/325 190/325/325
f 182/326/326 190/326/326 189/326/326
f 184/327/327 176/327/327 186/327/327
f 184/328/328 186/328/328 190/328/328
f 191/329/329 174/329/329 173/329/329
f 191/330/330 177/330/330 174/330/330
f 191/331/331 179/331/331 177/331/331
f 191/332/332 181/332/332 179/332/332
f 191/333/333 183/333/333 181/333/333
f 191/334/334 173/334/334 183/334/334
f 192/335/335 186/335/335 185/335/335
f 192/336/336 185/336/336 187/336/336
f 192/337/337 187/337/337 188/337/337
f 192/338/338 188/338/338 189/338/338
f 192/339/339 189/339/339 190/339/339
f 192/340/340 190/340/340 186/340/340
f 193/341/341 194/341/341 195/341/341
f 193/342/342 196/342/342 194/342/342
f 195/343/343 197/343/343 198/343/343
f 195/344/344 194/344/344 197/344/344
f 198/345/345 199/345/345 200/345/345
f 198/346/346 197/346/346 199/346/346
f 200/347/347 201/347/347 202/347/347
f 200/348/348 199/348/348 201/348/348
f 202/349/349 203/349/349 204/349/349
f 202/350/350 201/350/350 203/350/350
f 204/351/351 196/351/351 193/351/351
f 204/352/352 203/352/352 196/352/352
f 205/353/353 193/353/353 195/353/353
f 205/354/354 195/354/354 198/354/354
f 205/355/355 198/355/355 200/355/355
f 205/356/356 200/356/356 202/356/356
f 205/357/357 202/357/357 204/357/357
f 205/358/358 204/358/358 193/358/358
f 206/359/359 194/359/359 196/359/359
f 206/360/360 197/360/360 194/360/360
f 206/361/361 199/361/361 197/361/361
f 206/362/362 201/362/362 199/362/362
f 206/363/363 203/363/363 201/363/363
f 206/364/364 196/364/364 203/364/364
f 207/365/365 208/365/365 209/365/365
f 207/366/366 210/366/366 208/366/366
f 209/367/367 211/367/367 212/367/367
f 209/368/368 208/368/368 211/368/368
f 212/369/369 213/369/369 214/369/369
f 212/370/370 211/370/370 213/370/370
f 214/371/371 215/371/371 216/371/371
f 214/372/372 213/372/372 215/372/372
f 216/373/373 217/373/373 218/373/373
f 216/374/374 215/374/374 217/374/374
f 218/375/375 210/375/375 207/375/375
f 218/376/376 217/376/376 210/376/376
f 210/377/377 219/377/377 208/377/377
f 210/378/378 220/378/378 219/378/378
f 208/379/379 221/379/379 211/379/379
f 208/380/380 219/380/380 221/380/380
f 211/381/381 222/381/381 213/381/381
f 211/382/382 221/382/382 222/382/382
f 213/383/383 223/383/383 215/383/383
f 213/384/384 222/384/384 223/384/384
f 215/385/385 224/385/385 217/385/385
f 215/386/386 223/386/386 224/386/386
f 217/387/387 220/387/387 210/387/387
f 217/388/388 224/388/388 220/388/388
f 225/389/389 207/389/389 209/389/389
f 225/390/390 209/390/390 212/390/390
f 225/391/391 212/391/391 214/391/391
f 225/392/392 214/392/392 216/392/392
f 225/393/393 216/393/393 218/393/393
f 225/394/394 218/394/394 207/394/394
f 226/395/395 219/395/395 220/395/395
f 226/396/396 221/396/396 219/396/396
f 226/397/397 222/397/397 221/397/397
f 226/398/398 223/398/398 222/398/398
f 226/399/399 224/399/399 223/399/399
f 226/400/400 220/400/400 224/400/400
f 227/401/401 228/401/401 229/401/401
f 227/402/402 230/402/402 228/402/402
f 229/403/403 231/403/403 232/403/403
f 229/404/404 228/404/404 231/404/404
f 232/405/405 233/405/405 234/405/405
f 232/406/406 231/406/406 233/406/406
f 234/407/407 230/407/407 227/407/407
f 234/408/408 233/408/408 230/408/408
f 235/409/409 227/409/409 229/409/409
f 235/410/410 229/410/410 232/410/410
f 235/411/411 232/411/411 234/411/411
f 235/412/412 234/412/412 227/412/412
f 236/413/413 228/413/413 230/413/413
f 236/414/414 231/414/414 228/414/414
f 236/415/415 233/415/415 231/415/415
f 236/416/416 230/416/416 233/416/416
f 237/417/417 238/417/417 239/417/417
f 237/418/418 239/418/418 240/418/418
f 238/419/419 241/419/419 242/419/419
f 238/420/420 242/420/420 239/420/420
f 241/421/421 243/421/421 244/421/421
f 241/422/422 244/422/422 242/422/422
f 243/423/423 245/423/423 246/423/423
f 243/424/424 246/424/424 244/424/424
f 245/425/425 247/425/425 248/425/425
f 245/426/426 248/426/426 246/426/426
f 247/427/427 237/427/427 240/427/427
f 247/428/428 240/428/428 248/428/428
f 249/429/429 238/429/429 237/429/429
f 249/430/430 241/430/430 238/430/430
f 249/431/431 243/431/431 241/431/431
f 249/432/432 245/432/432 243/432/432
f 249/433/433 247/433/433 245/433/433
f 249/434/434 237/434/434 247/434/434
f 250/435/435 240/435/435 239/435/435
f 250/436/436 239/436/436 242/436/436
f 250/437/437 242/437/437 244/437/437
f 250/438/438 244/438/438 246/438/438
f 250/439/439 246/439/439 248/439/439
f 250/440/440 248/440/440 240/440/440
f 251/441/441 252/441/441 253/441/441
f 251/442/442 253/442/442 254/442/442
f 252/443/443 255/443/443 256/443/443
f 252/444/444 256/444/444 253/444/444
f 255/445/445 257/445/445 258/445/445
f 255/446/446 258/446/446 256/446/446
f 257/447/447 251/447/447 254/447/447
f 257/448/448 254/448/448 258/448/448
f 259/449/449 252/449/449 251/449/449
f 259/450/450 255/450/450 252/450/450
f 259/451/451 257/451/451 255/451/451
f 259/452/452 251/452/452 257/452/452
f 260/453/453 254/453/453 253/453/453
f 260/454/454 253/454/454 256/454/454
f 260/455/455 256/455/455 258/455/455
f 260/456/456 258/456/456 254/456/456
f 261/457/457 262/457/457 263/457/457
f 261/458/458 263/458/458 264/458/458
f 262/459/459 265/459/459 266/459/459
f 262/460/460 266/460/460 263/460/460
f 265/461/461 267/461/461 268/461/461
f 265/462/462 268/462/462 266/462/462
f 267/463/463 269/463/463 270/463/463
f 267/464/464 270/464/464 268/464/464
f 269/465/465 271/465/465 272/465/465
f 269/466/466 272/466/466 270/466/466
f 271/467/467 261/467/467 264/467/467
f 271/468/468 264/468/468 272/468/468
f 273/469/469 262/469/469 261/469/469
f 273/470/470 265/470/470 262/470/470
f 273/471/471 267/471/471 265/471/471
f 273/472/472 269/472/472 267/472/472
f 273/473/473 271/473/473 269/473/473
f 273/474/474 261/474/474 271/474/474
f 274/475/475 264/475/475 263/475/475
f 274/476/476 263/476/476 266/476/476
f 274/477/477 266/477/477 268/477/477
f 274/478/478 268/478/478 270/478/478
f 274/479/479 270/479/479 272/479/479
f 274/480/480 272/480/480 264/480/480
