mtllib TorusNature_PondA.mtl
o TorusNature_PondA
usemtl TorusNatureKit
s off
v 0.742500 0.025000 0.000000
v 0.756317 0.025000 0.130327
v 0.929481 0.053777 0.170585
v 0.912500 0.047500 0.000000
v 0.929481 0.000000 0.170585
v 0.912500 0.000000 0.000000
v 0.000000 0.026250 0.000000
v 0.633986 0.025000 0.235394
v 0.779141 0.056246 0.308108
v 0.779141 0.000000 0.308108
v 0.498293 0.025000 0.320451
v 0.612380 0.053410 0.419438
v 0.612380 0.000000 0.419438
v 0.381339 0.025000 0.424765
v 0.468649 0.046989 0.555975
v 0.468649 0.000000 0.555975
v 0.200613 0.025000 0.481485
v 0.246544 0.040878 0.630216
v 0.246544 0.000000 0.630216
v 0.000000 0.025000 0.459120
v 0.000000 0.038784 0.600942
v 0.000000 0.000000 0.600942
v -0.185640 0.025000 0.445549
v -0.228143 0.041976 0.583179
v -0.228143 0.000000 0.583179
v -0.388793 0.025000 0.433068
v -0.477810 0.048520 0.566843
v -0.477810 0.000000 0.566843
v -0.536483 0.025000 0.345011
v -0.659314 0.054445 0.451585
v -0.659314 0.000000 0.451585
v -0.609023 0.025000 0.226126
v -0.748462 0.056157 0.295976
v -0.748462 0.000000 0.295976
v -0.711323 0.025000 0.122573
v -0.874184 0.052618 0.160436
v -0.874184 0.000000 0.160436
v -0.783329 0.025000 0.000000
v -0.962677 0.045975 0.000000
v -0.962677 0.000000 0.000000
v -0.712915 0.025000 -0.122848
v -0.876141 0.040257 -0.160795
v -0.876141 0.000000 -0.160795
v -0.608655 0.025000 -0.225989
v -0.748010 0.038932 -0.295797
v -0.748010 0.000000 -0.295797
v -0.535395 0.025000 -0.344311
v -0.657977 0.042805 -0.450669
v -0.657977 0.000000 -0.450669
v -0.389204 0.025000 -0.433525
v -0.478314 0.049526 -0.567442
v -0.478314 0.000000 -0.567442
v -0.185983 0.025000 -0.446373
v -0.228565 0.055018 -0.584258
v -0.228565 0.000000 -0.584258
v -0.000000 0.025000 -0.458371
v -0.000000 0.055950 -0.599963
v -0.000000 0.000000 -0.599963
v 0.200347 0.025000 -0.480847
v 0.246218 0.051756 -0.629381
v 0.246218 0.000000 -0.629381
v 0.382053 0.025000 -0.425561
v 0.469527 0.044981 -0.557016
v 0.469527 0.000000 -0.557016
v 0.498759 0.025000 -0.320751
v 0.612953 0.039734 -0.419831
v 0.612953 0.000000 -0.419831
v 0.632602 0.025000 -0.234881
v 0.777441 0.039198 -0.307435
v 0.777441 0.000000 -0.307435
v 0.756078 0.025000 -0.130285
v 0.929187 0.043698 -0.170531
v 0.929187 0.000000 -0.170531
v 0.898712 0.053777 0.171600
v 0.898712 0.053777 0.149100
v 0.903212 0.060027 0.160350
v 0.937387 0.167527 0.160350
v 0.847678 0.053777 0.168942
v 0.862877 0.053777 0.185532
v 0.851959 0.060027 0.180277
v 0.820649 0.191902 0.208960
v 0.887104 0.053777 0.136429
v 0.864690 0.053777 0.134462
v 0.876291 0.060027 0.130963
v 0.880727 0.216277 0.080407
v 0.879995 0.053777 0.187034
v 0.897851 0.053777 0.173344
v 0.891661 0.060027 0.183761
v 0.912455 0.167527 0.210882
v 0.851053 0.053777 0.144917
v 0.847135 0.053777 0.167073
v 0.844663 0.060027 0.155212
v 0.802849 0.191902 0.147816
v 0.900844 0.053777 0.156423
v 0.888767 0.053777 0.137439
v 0.898602 0.060027 0.144516
v 0.941422 0.216277 0.117276
v 0.856358 0.053777 0.181572
v 0.878087 0.053777 0.187413
v 0.866054 0.060027 0.188838
v 0.857183 0.167527 0.221842
v 0.465530 0.046989 0.533867
v 0.465530 0.046989 0.511367
v 0.470030 0.053239 0.522617
v 0.504205 0.160739 0.522617
v 0.414497 0.046989 0.531209
v 0.429695 0.046989 0.547800
v 0.418778 0.053239 0.542544
v 0.387467 0.185114 0.571227
v 0.453923 0.046989 0.498696
v 0.431509 0.046989 0.496729
v 0.443109 0.053239 0.493230
v 0.447546 0.209489 0.442674
v 0.446813 0.046989 0.549302
v 0.464669 0.046989 0.535612
v 0.458479 0.053239 0.546028
v 0.479273 0.160739 0.573149
v 0.417872 0.046989 0.507185
v 0.413953 0.046989 0.529341
v 0.411481 0.053239 0.517479
v 0.369668 0.185114 0.510083
v 0.467662 0.046989 0.518691
v 0.455586 0.046989 0.499706
v 0.465421 0.053239 0.506783
v 0.508241 0.209489 0.479543
v 0.423176 0.046989 0.543840
v 0.444905 0.046989 0.549680
v 0.432872 0.053239 0.551106
v 0.424001 0.160739 0.584109
v -0.424141 0.048520 0.544082
v -0.424141 0.048520 0.521582
v -0.419641 0.054770 0.532832
v -0.385466 0.162270 0.532832
v -0.475174 0.048520 0.541424
v -0.459976 0.048520 0.558015
v -0.470893 0.054770 0.552759
v -0.502204 0.186645 0.581442
v -0.435749 0.048520 0.508911
v -0.458162 0.048520 0.506944
v -0.446562 0.054770 0.503445
v -0.442126 0.211020 0.452889
v -0.442858 0.048520 0.559517
v -0.425002 0.048520 0.545827
v -0.431192 0.054770 0.556243
v -0.410398 0.162270 0.583364
v -0.471800 0.048520 0.517400
v -0.475718 0.048520 0.539556
v -0.478190 0.054770 0.527694
v -0.520004 0.186645 0.520299
v -0.422009 0.048520 0.528906
v -0.434086 0.048520 0.509922
v -0.424250 0.054770 0.516998
v -0.381430 0.211020 0.489759
v -0.466495 0.048520 0.554055
v -0.444766 0.048520 0.559896
v -0.456799 0.054770 0.561321
v -0.465670 0.162270 0.594324
v -0.879916 0.045975 0.011250
v -0.879916 0.045975 -0.011250
v -0.875416 0.052225 0.000000
v -0.841241 0.159725 0.000000
v -0.930950 0.045975 0.008592
v -0.915751 0.045975 0.025183
v -0.926669 0.052225 0.019927
v -0.957979 0.184100 0.048610
v -0.891524 0.045975 -0.023921
v -0.913938 0.045975 -0.025888
v -0.902338 0.052225 -0.029387
v -0.897901 0.208475 -0.079943
v -0.898633 0.045975 0.026685
v -0.880777 0.045975 0.012995
v -0.886967 0.052225 0.023411
v -0.866174 0.159725 0.050532
v -0.927575 0.045975 -0.015432
v -0.931494 0.045975 0.006724
v -0.933966 0.052225 -0.005138
v -0.975779 0.184100 -0.012534
v -0.877784 0.045975 -0.003926
v -0.889861 0.045975 -0.022911
v -0.880026 0.052225 -0.015834
v -0.837206 0.208475 -0.043074
v -0.922270 0.045975 0.021223
v -0.900542 0.045975 0.027063
v -0.912574 0.052225 0.028489
v -0.921446 0.159725 0.061492
v -0.593499 0.042805 -0.412379
v -0.593499 0.042805 -0.434879
v -0.588999 0.049055 -0.423629
v -0.554824 0.156555 -0.423629
v -0.644532 0.042805 -0.415037
v -0.629333 0.042805 -0.398446
v -0.640251 0.049055 -0.403702
v -0.671561 0.180930 -0.375019
v -0.605106 0.042805 -0.447550
v -0.627520 0.042805 -0.449517
v -0.615920 0.049055 -0.453016
v -0.611483 0.205305 -0.503572
v -0.612215 0.042805 -0.396944
v -0.594359 0.042805 -0.410634
v -0.600549 0.049055 -0.400218
v -0.579756 0.156555 -0.373097
v -0.641157 0.042805 -0.439061
v -0.645076 0.042805 -0.416905
v -0.647548 0.049055 -0.428767
v -0.689361 0.180930 -0.436163
v -0.591367 0.042805 -0.427556
v -0.603443 0.042805 -0.446540
v -0.593608 0.049055 -0.439463
v -0.550788 0.205305 -0.466703
v -0.635853 0.042805 -0.402406
v -0.614124 0.042805 -0.396566
v -0.626156 0.049055 -0.395140
v -0.635028 0.156555 -0.362137
v 0.466355 0.044981 -0.512345
v 0.466355 0.044981 -0.534845
v 0.470855 0.051231 -0.523595
v 0.505030 0.158731 -0.523595
v 0.415322 0.044981 -0.515004
v 0.430520 0.044981 -0.498413
v 0.419603 0.051231 -0.503668
v 0.388292 0.183106 -0.474985
v 0.454747 0.044981 -0.547516
v 0.432334 0.044981 -0.549483
v 0.443934 0.051231 -0.552983
v 0.448370 0.207481 -0.603538
v 0.447638 0.044981 -0.496911
v 0.465494 0.044981 -0.510601
v 0.459304 0.051231 -0.500184
v 0.480098 0.158731 -0.473063
v 0.418697 0.044981 -0.539028
v 0.414778 0.044981 -0.516872
v 0.412306 0.051231 -0.528733
v 0.370492 0.183106 -0.536129
v 0.468487 0.044981 -0.527522
v 0.456410 0.044981 -0.546506
v 0.466246 0.051231 -0.539429
v 0.509066 0.207481 -0.566669
v 0.424001 0.044981 -0.502373
v 0.445730 0.044981 -0.496532
v 0.433697 0.051231 -0.495107
v 0.424826 0.158731 -0.462103
v 0.894600 0.030000 0.000000
v 0.869190 0.030000 0.037672
v 0.814111 0.030000 0.037672
v 0.784317 0.030000 0.000000
v 0.809831 0.030000 -0.037672
v 0.864869 0.030000 -0.037672
v 0.934500 0.065000 0.000000
v 0.890690 0.065000 0.064952
v 0.795726 0.065000 0.064952
v 0.744356 0.065000 0.000000
v 0.788347 0.065000 -0.064952
v 0.883239 0.065000 -0.064952
v 0.913600 0.108000 0.000000
v 0.879428 0.108000 0.050662
v 0.805356 0.108000 0.050662
v 0.765288 0.108000 0.000000
v 0.799600 0.108000 -0.050662
v 0.873617 0.108000 -0.050662
v 0.853750 0.130000 -0.006000
v 0.018294 0.030000 0.594282
v -0.036285 0.030000 0.585095
v -0.050303 0.030000 0.543679
v -0.018302 0.030000 0.511451
v 0.036230 0.030000 0.520638
v 0.050359 0.030000 0.562054
v 0.031542 0.065000 0.624273
v -0.062560 0.065000 0.608433
v -0.086729 0.065000 0.537026
v -0.031555 0.065000 0.481460
v 0.062466 0.065000 0.497300
v 0.086825 0.065000 0.568706
v 0.024603 0.108000 0.608564
v -0.048797 0.108000 0.596209
v -0.067648 0.108000 0.540511
v -0.024613 0.108000 0.497169
v 0.048724 0.108000 0.509524
v 0.067724 0.108000 0.565222
v 0.014250 0.130000 0.546866
v -0.203851 0.030000 0.579804
v -0.252924 0.030000 0.561955
v -0.257537 0.030000 0.518676
v -0.215933 0.030000 0.493246
v -0.166921 0.030000 0.511094
v -0.162184 0.030000 0.554374
v -0.199476 0.065000 0.611144
v -0.284085 0.065000 0.580370
v -0.292039 0.065000 0.505751
v -0.220308 0.065000 0.461906
v -0.135804 0.065000 0.492679
v -0.127636 0.065000 0.567299
v -0.201768 0.108000 0.594728
v -0.267763 0.108000 0.570724
v -0.273967 0.108000 0.512521
v -0.218017 0.108000 0.478322
v -0.152103 0.108000 0.502325
v -0.145732 0.108000 0.560528
v -0.195642 0.130000 0.530525
v -0.743126 0.030000 -0.263423
v -0.721602 0.030000 -0.304688
v -0.669546 0.030000 -0.313398
v -0.633293 0.030000 -0.280843
v -0.654719 0.030000 -0.239579
v -0.706810 0.030000 -0.230869
v -0.782923 0.065000 -0.257116
v -0.745812 0.065000 -0.328261
v -0.656060 0.065000 -0.343279
v -0.593554 0.065000 -0.287151
v -0.630496 0.065000 -0.216006
v -0.720309 0.065000 -0.200988
v -0.762077 0.108000 -0.260420
v -0.733130 0.108000 -0.315913
v -0.663124 0.108000 -0.327627
v -0.614370 0.108000 -0.283847
v -0.643184 0.108000 -0.228354
v -0.713238 0.108000 -0.216640
v -0.673919 0.130000 -0.278133
v -0.041875 0.030000 -0.577888
v 0.006089 0.030000 -0.595179
v 0.055074 0.030000 -0.569257
v 0.041821 0.030000 -0.526043
v -0.006098 0.030000 -0.508752
v -0.055064 0.030000 -0.534674
v -0.072198 0.065000 -0.596659
v 0.010499 0.065000 -0.626472
v 0.094956 0.065000 -0.581778
v 0.072106 0.065000 -0.507272
v -0.010514 0.065000 -0.477459
v -0.094938 0.065000 -0.522153
v -0.056314 0.108000 -0.586827
v 0.008189 0.108000 -0.610080
v 0.074065 0.108000 -0.575219
v 0.056242 0.108000 -0.517104
v -0.008201 0.108000 -0.493851
v -0.074052 0.108000 -0.528712
v 0.014250 0.130000 -0.557966
vt 0.773438 0.523438
vt 0.976562 0.523438
vt 0.875000 0.726562
vt 0.773438 0.523438
vt 0.976562 0.523438
vt 0.875000 0.726562
vt 0.523438 0.523438
vt 0.726562 0.523438
vt 0.625000 0.726562
vt 0.523438 0.523438
vt 0.726562 0.523438
vt 0.625000 0.726562
vt 0.126820 0.374933
vt 0.206951 0.395949
vt 0.205487 0.374933
vt 0.773438 0.523438
vt 0.976562 0.523438
vt 0.875000 0.726562
vt 0.773438 0.523438
vt 0.976562 0.523438
vt 0.875000 0.726562
vt 0.523438 0.523438
vt 0.726562 0.523438
vt 0.625000 0.726562
vt 0.523438 0.523438
vt 0.726562 0.523438
vt 0.625000 0.726562
vt 0.126820 0.374933
vt 0.193990 0.412893
vt 0.206951 0.395949
vt 0.773438 0.523438
vt 0.976562 0.523438
vt 0.875000 0.726562
vt 0.773438 0.523438
vt 0.976562 0.523438
vt 0.875000 0.726562
vt 0.523438 0.523438
vt 0.726562 0.523438
vt 0.625000 0.726562
vt 0.523438 0.523438
vt 0.726562 0.523438
vt 0.625000 0.726562
vt 0.126820 0.374933
vt 0.179613 0.426609
vt 0.193990 0.412893
vt 0.773438 0.523438
vt 0.976562 0.523438
vt 0.875000 0.726562
vt 0.773438 0.523438
vt 0.976562 0.523438
vt 0.875000 0.726562
vt 0.523438 0.523438
vt 0.726562 0.523438
vt 0.625000 0.726562
vt 0.523438 0.523438
vt 0.726562 0.523438
vt 0.625000 0.726562
vt 0.126820 0.374933
vt 0.167222 0.443431
vt 0.179613 0.426609
vt 0.773438 0.523438
vt 0.976562 0.523438
vt 0.875000 0.726562
vt 0.773438 0.523438
vt 0.976562 0.523438
vt 0.875000 0.726562
vt 0.523438 0.523438
vt 0.726562 0.523438
vt 0.625000 0.726562
vt 0.523438 0.523438
vt 0.726562 0.523438
vt 0.625000 0.726562
vt 0.126820 0.374933
vt 0.148075 0.452578
vt 0.167222 0.443431
vt 0.773438 0.523438
vt 0.976562 0.523438
vt 0.875000 0.726562
vt 0.773438 0.523438
vt 0.976562 0.523438
vt 0.875000 0.726562
vt 0.523438 0.523438
vt 0.726562 0.523438
vt 0.625000 0.726562
vt 0.523438 0.523438
vt 0.726562 0.523438
vt 0.625000 0.726562
vt 0.126820 0.374933
vt 0.126820 0.448971
vt 0.148075 0.452578
vt 0.773438 0.523438
vt 0.976562 0.523438
vt 0.875000 0.726562
vt 0.773438 0.523438
vt 0.976562 0.523438
vt 0.875000 0.726562
vt 0.523438 0.523438
vt 0.726562 0.523438
vt 0.625000 0.726562
vt 0.523438 0.523438
vt 0.726562 0.523438
vt 0.625000 0.726562
vt 0.126820 0.374933
vt 0.107152 0.446783
vt 0.126820 0.448971
vt 0.773438 0.523438
vt 0.976562 0.523438
vt 0.875000 0.726562
vt 0.773438 0.523438
vt 0.976562 0.523438
vt 0.875000 0.726562
vt 0.523438 0.523438
vt 0.726562 0.523438
vt 0.625000 0.726562
vt 0.523438 0.523438
vt 0.726562 0.523438
vt 0.625000 0.726562
vt 0.126820 0.374933
vt 0.085628 0.444770
vt 0.107152 0.446783
vt 0.773438 0.523438
vt 0.976562 0.523438
vt 0.875000 0.726562
vt 0.773438 0.523438
vt 0.976562 0.523438
vt 0.875000 0.726562
vt 0.523438 0.523438
vt 0.726562 0.523438
vt 0.625000 0.726562
vt 0.523438 0.523438
vt 0.726562 0.523438
vt 0.625000 0.726562
vt 0.126820 0.374933
vt 0.069980 0.430570
vt 0.085628 0.444770
vt 0.773438 0.523438
vt 0.976562 0.523438
vt 0.875000 0.726562
vt 0.773438 0.523438
vt 0.976562 0.523438
vt 0.875000 0.726562
vt 0.523438 0.523438
vt 0.726562 0.523438
vt 0.625000 0.726562
vt 0.523438 0.523438
vt 0.726562 0.523438
vt 0.625000 0.726562
vt 0.126820 0.374933
vt 0.062295 0.411398
vt 0.069980 0.430570
vt 0.773438 0.523438
vt 0.976562 0.523438
vt 0.875000 0.726562
vt 0.773438 0.523438
vt 0.976562 0.523438
vt 0.875000 0.726562
vt 0.523438 0.523438
vt 0.726562 0.523438
vt 0.625000 0.726562
vt 0.523438 0.523438
vt 0.726562 0.523438
vt 0.625000 0.726562
vt 0.126820 0.374933
vt 0.051456 0.394699
vt 0.062295 0.411398
vt 0.773438 0.523438
vt 0.976562 0.523438
vt 0.875000 0.726562
vt 0.773438 0.523438
vt 0.976562 0.523438
vt 0.875000 0.726562
vt 0.523438 0.523438
vt 0.726562 0.523438
vt 0.625000 0.726562
vt 0.523438 0.523438
vt 0.726562 0.523438
vt 0.625000 0.726562
vt 0.126820 0.374933
vt 0.043827 0.374933
vt 0.051456 0.394699
vt 0.773438 0.523438
vt 0.976562 0.523438
vt 0.875000 0.726562
vt 0.773438 0.523438
vt 0.976562 0.523438
vt 0.875000 0.726562
vt 0.523438 0.523438
vt 0.726562 0.523438
vt 0.625000 0.726562
vt 0.523438 0.523438
vt 0.726562 0.523438
vt 0.625000 0.726562
vt 0.126820 0.374933
vt 0.051288 0.355122
vt 0.043827 0.374933
vt 0.773438 0.523438
vt 0.976562 0.523438
vt 0.875000 0.726562
vt 0.773438 0.523438
vt 0.976562 0.523438
vt 0.875000 0.726562
vt 0.523438 0.523438
vt 0.726562 0.523438
vt 0.625000 0.726562
vt 0.523438 0.523438
vt 0.726562 0.523438
vt 0.625000 0.726562
vt 0.126820 0.374933
vt 0.062334 0.338489
vt 0.051288 0.355122
vt 0.773438 0.523438
vt 0.976562 0.523438
vt 0.875000 0.726562
vt 0.773438 0.523438
vt 0.976562 0.523438
vt 0.875000 0.726562
vt 0.523438 0.523438
vt 0.726562 0.523438
vt 0.625000 0.726562
vt 0.523438 0.523438
vt 0.726562 0.523438
vt 0.625000 0.726562
vt 0.126820 0.374933
vt 0.070096 0.319408
vt 0.062334 0.338489
vt 0.773438 0.523438
vt 0.976562 0.523438
vt 0.875000 0.726562
vt 0.773438 0.523438
vt 0.976562 0.523438
vt 0.875000 0.726562
vt 0.523438 0.523438
vt 0.726562 0.523438
vt 0.625000 0.726562
vt 0.523438 0.523438
vt 0.726562 0.523438
vt 0.625000 0.726562
vt 0.126820 0.374933
vt 0.085584 0.305022
vt 0.070096 0.319408
vt 0.773438 0.523438
vt 0.976562 0.523438
vt 0.875000 0.726562
vt 0.773438 0.523438
vt 0.976562 0.523438
vt 0.875000 0.726562
vt 0.523438 0.523438
vt 0.726562 0.523438
vt 0.625000 0.726562
vt 0.523438 0.523438
vt 0.726562 0.523438
vt 0.625000 0.726562
vt 0.126820 0.374933
vt 0.107115 0.302950
vt 0.085584 0.305022
vt 0.773438 0.523438
vt 0.976562 0.523438
vt 0.875000 0.726562
vt 0.773438 0.523438
vt 0.976562 0.523438
vt 0.875000 0.726562
vt 0.523438 0.523438
vt 0.726562 0.523438
vt 0.625000 0.726562
vt 0.523438 0.523438
vt 0.726562 0.523438
vt 0.625000 0.726562
vt 0.126820 0.374933
vt 0.126820 0.301015
vt 0.107115 0.302950
vt 0.773438 0.523438
vt 0.976562 0.523438
vt 0.875000 0.726562
vt 0.773438 0.523438
vt 0.976562 0.523438
vt 0.875000 0.726562
vt 0.523438 0.523438
vt 0.726562 0.523438
vt 0.625000 0.726562
vt 0.523438 0.523438
vt 0.726562 0.523438
vt 0.625000 0.726562
vt 0.126820 0.374933
vt 0.148047 0.297390
vt 0.126820 0.301015
vt 0.773438 0.523438
vt 0.976562 0.523438
vt 0.875000 0.726562
vt 0.773438 0.523438
vt 0.976562 0.523438
vt 0.875000 0.726562
vt 0.523438 0.523438
vt 0.726562 0.523438
vt 0.625000 0.726562
vt 0.523438 0.523438
vt 0.726562 0.523438
vt 0.625000 0.726562
vt 0.126820 0.374933
vt 0.167298 0.306306
vt 0.148047 0.297390
vt 0.773438 0.523438
vt 0.976562 0.523438
vt 0.875000 0.726562
vt 0.773438 0.523438
vt 0.976562 0.523438
vt 0.875000 0.726562
vt 0.523438 0.523438
vt 0.726562 0.523438
vt 0.625000 0.726562
vt 0.523438 0.523438
vt 0.726562 0.523438
vt 0.625000 0.726562
vt 0.126820 0.374933
vt 0.179663 0.323208
vt 0.167298 0.306306
vt 0.773438 0.523438
vt 0.976562 0.523438
vt 0.875000 0.726562
vt 0.773438 0.523438
vt 0.976562 0.523438
vt 0.875000 0.726562
vt 0.523438 0.523438
vt 0.726562 0.523438
vt 0.625000 0.726562
vt 0.523438 0.523438
vt 0.726562 0.523438
vt 0.625000 0.726562
vt 0.126820 0.374933
vt 0.193843 0.337055
vt 0.179663 0.323208
vt 0.773438 0.523438
vt 0.976562 0.523438
vt 0.875000 0.726562
vt 0.773438 0.523438
vt 0.976562 0.523438
vt 0.875000 0.726562
vt 0.523438 0.523438
vt 0.726562 0.523438
vt 0.625000 0.726562
vt 0.523438 0.523438
vt 0.726562 0.523438
vt 0.625000 0.726562
vt 0.126820 0.374933
vt 0.206925 0.353923
vt 0.193843 0.337055
vt 0.773438 0.523438
vt 0.976562 0.523438
vt 0.875000 0.726562
vt 0.773438 0.523438
vt 0.976562 0.523438
vt 0.875000 0.726562
vt 0.523438 0.523438
vt 0.726562 0.523438
vt 0.625000 0.726562
vt 0.523438 0.523438
vt 0.726562 0.523438
vt 0.625000 0.726562
vt 0.126820 0.374933
vt 0.205487 0.374933
vt 0.206925 0.353923
vt 0.523438 0.523438
vt 0.726562 0.523438
vt 0.625000 0.726562
vt 0.523438 0.523438
vt 0.726562 0.523438
vt 0.625000 0.726562
vt 0.523438 0.523438
vt 0.726562 0.523438
vt 0.625000 0.726562
vt 0.523438 0.523438
vt 0.726562 0.523438
vt 0.625000 0.726562
vt 0.523438 0.523438
vt 0.726562 0.523438
vt 0.625000 0.726562
vt 0.523438 0.523438
vt 0.726562 0.523438
vt 0.625000 0.726562
vt 0.523438 0.523438
vt 0.726562 0.523438
vt 0.625000 0.726562
vt 0.523438 0.523438
vt 0.726562 0.523438
vt 0.625000 0.726562
vt 0.523438 0.523438
vt 0.726562 0.523438
vt 0.625000 0.726562
vt 0.523438 0.523438
vt 0.726562 0.523438
vt 0.625000 0.726562
vt 0.523438 0.523438
vt 0.726562 0.523438
vt 0.625000 0.726562
vt 0.523438 0.523438
vt 0.726562 0.523438
vt 0.625000 0.726562
vt 0.523438 0.523438
vt 0.726562 0.523438
vt 0.625000 0.726562
vt 0.523438 0.523438
vt 0.726562 0.523438
vt 0.625000 0.726562
vt 0.523438 0.523438
vt 0.726562 0.523438
vt 0.625000 0.726562
vt 0.523438 0.523438
vt 0.726562 0.523438
vt 0.625000 0.726562
vt 0.523438 0.523438
vt 0.726562 0.523438
vt 0.625000 0.726562
vt 0.523438 0.523438
vt 0.726562 0.523438
vt 0.625000 0.726562
vt 0.523438 0.523438
vt 0.726562 0.523438
vt 0.625000 0.726562
vt 0.523438 0.523438
vt 0.726562 0.523438
vt 0.625000 0.726562
vt 0.523438 0.523438
vt 0.726562 0.523438
vt 0.625000 0.726562
vt 0.523438 0.523438
vt 0.726562 0.523438
vt 0.625000 0.726562
vt 0.773438 0.773438
vt 0.976562 0.773438
vt 0.875000 0.976562
vt 0.773438 0.773438
vt 0.976562 0.773438
vt 0.875000 0.976562
vt 0.773438 0.773438
vt 0.976562 0.773438
vt 0.875000 0.976562
vt 0.773438 0.773438
vt 0.976562 0.773438
vt 0.875000 0.976562
vt 0.773438 0.773438
vt 0.976562 0.773438
vt 0.875000 0.976562
vt 0.773438 0.773438
vt 0.976562 0.773438
vt 0.875000 0.976562
vt 0.773438 0.773438
vt 0.976562 0.773438
vt 0.875000 0.976562
vt 0.773438 0.773438
vt 0.976562 0.773438
vt 0.875000 0.976562
vt 0.773438 0.773438
vt 0.976562 0.773438
vt 0.875000 0.976562
vt 0.773438 0.773438
vt 0.976562 0.773438
vt 0.875000 0.976562
vt 0.773438 0.773438
vt 0.976562 0.773438
vt 0.875000 0.976562
vt 0.773438 0.773438
vt 0.976562 0.773438
vt 0.875000 0.976562
vt 0.773438 0.773438
vt 0.976562 0.773438
vt 0.875000 0.976562
vt 0.773438 0.773438
vt 0.976562 0.773438
vt 0.875000 0.976562
vt 0.773438 0.773438
vt 0.976562 0.773438
vt 0.875000 0.976562
vt 0.773438 0.773438
vt 0.976562 0.773438
vt 0.875000 0.976562
vt 0.773438 0.773438
vt 0.976562 0.773438
vt 0.875000 0.976562
vt 0.773438 0.773438
vt 0.976562 0.773438
vt 0.875000 0.976562
vt 0.773438 0.773438
vt 0.976562 0.773438
vt 0.875000 0.976562
vt 0.773438 0.773438
vt 0.976562 0.773438
vt 0.875000 0.976562
vt 0.773438 0.773438
vt 0.976562 0.773438
vt 0.875000 0.976562
vt 0.773438 0.773438
vt 0.976562 0.773438
vt 0.875000 0.976562
vt 0.773438 0.773438
vt 0.976562 0.773438
vt 0.875000 0.976562
vt 0.773438 0.773438
vt 0.976562 0.773438
vt 0.875000 0.976562
vt 0.773438 0.773438
vt 0.976562 0.773438
vt 0.875000 0.976562
vt 0.773438 0.773438
vt 0.976562 0.773438
vt 0.875000 0.976562
vt 0.773438 0.773438
vt 0.976562 0.773438
vt 0.875000 0.976562
vt 0.773438 0.773438
vt 0.976562 0.773438
vt 0.875000 0.976562
vt 0.773438 0.773438
vt 0.976562 0.773438
vt 0.875000 0.976562
vt 0.773438 0.773438
vt 0.976562 0.773438
vt 0.875000 0.976562
vt 0.773438 0.773438
vt 0.976562 0.773438
vt 0.875000 0.976562
vt 0.773438 0.773438
vt 0.976562 0.773438
vt 0.875000 0.976562
vt 0.773438 0.773438
vt 0.976562 0.773438
vt 0.875000 0.976562
vt 0.773438 0.773438
vt 0.976562 0.773438
vt 0.875000 0.976562
vt 0.773438 0.773438
vt 0.976562 0.773438
vt 0.875000 0.976562
vt 0.773438 0.773438
vt 0.976562 0.773438
vt 0.875000 0.976562
vt 0.773438 0.773438
vt 0.976562 0.773438
vt 0.875000 0.976562
vt 0.773438 0.773438
vt 0.976562 0.773438
vt 0.875000 0.976562
vt 0.773438 0.773438
vt 0.976562 0.773438
vt 0.875000 0.976562
vt 0.773438 0.773438
vt 0.976562 0.773438
vt 0.875000 0.976562
vt 0.773438 0.773438
vt 0.976562 0.773438
vt 0.875000 0.976562
vt 0.773438 0.773438
vt 0.976562 0.773438
vt 0.875000 0.976562
vt 0.773438 0.773438
vt 0.976562 0.773438
vt 0.875000 0.976562
vt 0.773438 0.773438
vt 0.976562 0.773438
vt 0.875000 0.976562
vt 0.773438 0.773438
vt 0.976562 0.773438
vt 0.875000 0.976562
vt 0.773438 0.773438
vt 0.976562 0.773438
vt 0.875000 0.976562
vt 0.773438 0.773438
vt 0.976562 0.773438
vt 0.875000 0.976562
vt 0.773438 0.773438
vt 0.976562 0.773438
vt 0.875000 0.976562
vt 0.773438 0.773438
vt 0.976562 0.773438
vt 0.875000 0.976562
vt 0.773438 0.773438
vt 0.976562 0.773438
vt 0.875000 0.976562
vt 0.773438 0.773438
vt 0.976562 0.773438
vt 0.875000 0.976562
vt 0.773438 0.773438
vt 0.976562 0.773438
vt 0.875000 0.976562
vt 0.773438 0.773438
vt 0.976562 0.773438
vt 0.875000 0.976562
vt 0.773438 0.773438
vt 0.976562 0.773438
vt 0.875000 0.976562
vt 0.773438 0.773438
vt 0.976562 0.773438
vt 0.875000 0.976562
vt 0.773438 0.773438
vt 0.976562 0.773438
vt 0.875000 0.976562
vt 0.773438 0.773438
vt 0.976562 0.773438
vt 0.875000 0.976562
vt 0.773438 0.773438
vt 0.976562 0.773438
vt 0.875000 0.976562
vt 0.773438 0.773438
vt 0.976562 0.773438
vt 0.875000 0.976562
vt 0.773438 0.773438
vt 0.976562 0.773438
vt 0.875000 0.976562
vt 0.773438 0.773438
vt 0.976562 0.773438
vt 0.875000 0.976562
vt 0.773438 0.773438
vt 0.976562 0.773438
vt 0.875000 0.976562
vt 0.773438 0.773438
vt 0.976562 0.773438
vt 0.875000 0.976562
vt 0.773438 0.773438
vt 0.976562 0.773438
vt 0.875000 0.976562
vt 0.773438 0.773438
vt 0.976562 0.773438
vt 0.875000 0.976562
vt 0.773438 0.773438
vt 0.976562 0.773438
vt 0.875000 0.976562
vt 0.773438 0.773438
vt 0.976562 0.773438
vt 0.875000 0.976562
vt 0.773438 0.773438
vt 0.976562 0.773438
vt 0.875000 0.976562
vt 0.773438 0.773438
vt 0.976562 0.773438
vt 0.875000 0.976562
vt 0.773438 0.773438
vt 0.976562 0.773438
vt 0.875000 0.976562
vt 0.773438 0.773438
vt 0.976562 0.773438
vt 0.875000 0.976562
vt 0.773438 0.773438
vt 0.976562 0.773438
vt 0.875000 0.976562
vt 0.773438 0.773438
vt 0.976562 0.773438
vt 0.875000 0.976562
vt 0.773438 0.773438
vt 0.976562 0.773438
vt 0.875000 0.976562
vt 0.773438 0.773438
vt 0.976562 0.773438
vt 0.875000 0.976562
vt 0.773438 0.773438
vt 0.976562 0.773438
vt 0.875000 0.976562
vt 0.773438 0.773438
vt 0.976562 0.773438
vt 0.875000 0.976562
vt 0.773438 0.773438
vt 0.976562 0.773438
vt 0.875000 0.976562
vt 0.773438 0.773438
vt 0.976562 0.773438
vt 0.875000 0.976562
vt 0.773438 0.773438
vt 0.976562 0.773438
vt 0.875000 0.976562
vt 0.773438 0.773438
vt 0.976562 0.773438
vt 0.875000 0.976562
vt 0.773438 0.773438
vt 0.976562 0.773438
vt 0.875000 0.976562
vt 0.773438 0.773438
vt 0.976562 0.773438
vt 0.875000 0.976562
vt 0.773438 0.773438
vt 0.976562 0.773438
vt 0.875000 0.976562
vt 0.773438 0.773438
vt 0.976562 0.773438
vt 0.875000 0.976562
vt 0.773438 0.773438
vt 0.976562 0.773438
vt 0.875000 0.976562
vt 0.773438 0.773438
vt 0.976562 0.773438
vt 0.875000 0.976562
vt 0.773438 0.773438
vt 0.976562 0.773438
vt 0.875000 0.976562
vt 0.773438 0.773438
vt 0.976562 0.773438
vt 0.875000 0.976562
vt 0.773438 0.773438
vt 0.976562 0.773438
vt 0.875000 0.976562
vt 0.773438 0.773438
vt 0.976562 0.773438
vt 0.875000 0.976562
vt 0.773438 0.773438
vt 0.976562 0.773438
vt 0.875000 0.976562
vt 0.773438 0.773438
vt 0.976562 0.773438
vt 0.875000 0.976562
vt 0.773438 0.773438
vt 0.976562 0.773438
vt 0.875000 0.976562
vt 0.773438 0.773438
vt 0.976562 0.773438
vt 0.875000 0.976562
vt 0.773438 0.773438
vt 0.976562 0.773438
vt 0.875000 0.976562
vt 0.773438 0.773438
vt 0.976562 0.773438
vt 0.875000 0.976562
vt 0.773438 0.773438
vt 0.976562 0.773438
vt 0.875000 0.976562
vt 0.773438 0.773438
vt 0.976562 0.773438
vt 0.875000 0.976562
vt 0.773438 0.773438
vt 0.976562 0.773438
vt 0.875000 0.976562
vt 0.773438 0.773438
vt 0.976562 0.773438
vt 0.875000 0.976562
vt 0.773438 0.773438
vt 0.976562 0.773438
vt 0.875000 0.976562
vt 0.773438 0.773438
vt 0.976562 0.773438
vt 0.875000 0.976562
vt 0.773438 0.773438
vt 0.976562 0.773438
vt 0.875000 0.976562
vt 0.773438 0.773438
vt 0.976562 0.773438
vt 0.875000 0.976562
vt 0.773438 0.773438
vt 0.976562 0.773438
vt 0.875000 0.976562
vt 0.773438 0.773438
vt 0.976562 0.773438
vt 0.875000 0.976562
vt 0.773438 0.773438
vt 0.976562 0.773438
vt 0.875000 0.976562
vt 0.773438 0.773438
vt 0.976562 0.773438
vt 0.875000 0.976562
vt 0.773438 0.773438
vt 0.976562 0.773438
vt 0.875000 0.976562
vt 0.773438 0.773438
vt 0.976562 0.773438
vt 0.875000 0.976562
vt 0.773438 0.773438
vt 0.976562 0.773438
vt 0.875000 0.976562
vt 0.773438 0.773438
vt 0.976562 0.773438
vt 0.875000 0.976562
vt 0.773438 0.773438
vt 0.976562 0.773438
vt 0.875000 0.976562
vt 0.773438 0.773438
vt 0.976562 0.773438
vt 0.875000 0.976562
vt 0.773438 0.773438
vt 0.976562 0.773438
vt 0.875000 0.976562
vt 0.773438 0.773438
vt 0.976562 0.773438
vt 0.875000 0.976562
vt 0.773438 0.773438
vt 0.976562 0.773438
vt 0.875000 0.976562
vt 0.773438 0.773438
vt 0.976562 0.773438
vt 0.875000 0.976562
vt 0.773438 0.773438
vt 0.976562 0.773438
vt 0.875000 0.976562
vt 0.773438 0.773438
vt 0.976562 0.773438
vt 0.875000 0.976562
vt 0.773438 0.773438
vt 0.976562 0.773438
vt 0.875000 0.976562
vt 0.773438 0.773438
vt 0.976562 0.773438
vt 0.875000 0.976562
vt 0.773438 0.773438
vt 0.976562 0.773438
vt 0.875000 0.976562
vt 0.773438 0.773438
vt 0.976562 0.773438
vt 0.875000 0.976562
vt 0.773438 0.773438
vt 0.976562 0.773438
vt 0.875000 0.976562
vt 0.773438 0.773438
vt 0.976562 0.773438
vt 0.875000 0.976562
vt 0.773438 0.773438
vt 0.976562 0.773438
vt 0.875000 0.976562
vt 0.773438 0.773438
vt 0.976562 0.773438
vt 0.875000 0.976562
vt 0.773438 0.773438
vt 0.976562 0.773438
vt 0.875000 0.976562
vt 0.773438 0.773438
vt 0.976562 0.773438
vt 0.875000 0.976562
vt 0.773438 0.773438
vt 0.976562 0.773438
vt 0.875000 0.976562
vt 0.773438 0.773438
vt 0.976562 0.773438
vt 0.875000 0.976562
vt 0.773438 0.773438
vt 0.976562 0.773438
vt 0.875000 0.976562
vt 0.773438 0.773438
vt 0.976562 0.773438
vt 0.875000 0.976562
vt 0.773438 0.773438
vt 0.976562 0.773438
vt 0.875000 0.976562
vt 0.773438 0.773438
vt 0.976562 0.773438
vt 0.875000 0.976562
vt 0.773438 0.773438
vt 0.976562 0.773438
vt 0.875000 0.976562
vt 0.773438 0.773438
vt 0.976562 0.773438
vt 0.875000 0.976562
vt 0.773438 0.773438
vt 0.976562 0.773438
vt 0.875000 0.976562
vt 0.773438 0.773438
vt 0.976562 0.773438
vt 0.875000 0.976562
vt 0.773438 0.773438
vt 0.976562 0.773438
vt 0.875000 0.976562
vt 0.773438 0.773438
vt 0.976562 0.773438
vt 0.875000 0.976562
vt 0.773438 0.773438
vt 0.976562 0.773438
vt 0.875000 0.976562
vt 0.773438 0.773438
vt 0.976562 0.773438
vt 0.875000 0.976562
vt 0.773438 0.773438
vt 0.976562 0.773438
vt 0.875000 0.976562
vt 0.773438 0.773438
vt 0.976562 0.773438
vt 0.875000 0.976562
vt 0.773438 0.773438
vt 0.976562 0.773438
vt 0.875000 0.976562
vt 0.773438 0.773438
vt 0.976562 0.773438
vt 0.875000 0.976562
vt 0.773438 0.773438
vt 0.976562 0.773438
vt 0.875000 0.976562
vt 0.773438 0.773438
vt 0.976562 0.773438
vt 0.875000 0.976562
vt 0.773438 0.773438
vt 0.976562 0.773438
vt 0.875000 0.976562
vt 0.773438 0.773438
vt 0.976562 0.773438
vt 0.875000 0.976562
vt 0.773438 0.773438
vt 0.976562 0.773438
vt 0.875000 0.976562
vt 0.773438 0.773438
vt 0.976562 0.773438
vt 0.875000 0.976562
vt 0.773438 0.773438
vt 0.976562 0.773438
vt 0.875000 0.976562
vt 0.773438 0.773438
vt 0.976562 0.773438
vt 0.875000 0.976562
vt 0.773438 0.773438
vt 0.976562 0.773438
vt 0.875000 0.976562
vt 0.773438 0.773438
vt 0.976562 0.773438
vt 0.875000 0.976562
vt 0.773438 0.773438
vt 0.976562 0.773438
vt 0.875000 0.976562
vt 0.773438 0.773438
vt 0.976562 0.773438
vt 0.875000 0.976562
vt 0.773438 0.773438
vt 0.976562 0.773438
vt 0.875000 0.976562
vt 0.773438 0.773438
vt 0.976562 0.773438
vt 0.875000 0.976562
vt 0.773438 0.773438
vt 0.976562 0.773438
vt 0.875000 0.976562
vt 0.773438 0.773438
vt 0.976562 0.773438
vt 0.875000 0.976562
vt 0.773438 0.773438
vt 0.976562 0.773438
vt 0.875000 0.976562
vt 0.773438 0.773438
vt 0.976562 0.773438
vt 0.875000 0.976562
vt 0.773438 0.773438
vt 0.976562 0.773438
vt 0.875000 0.976562
vt 0.023438 0.523438
vt 0.226562 0.523438
vt 0.125000 0.726562
vt 0.023438 0.523438
vt 0.226562 0.523438
vt 0.125000 0.726562
vt 0.023438 0.523438
vt 0.226562 0.523438
vt 0.125000 0.726562
vt 0.023438 0.523438
vt 0.226562 0.523438
vt 0.125000 0.726562
vt 0.023438 0.523438
vt 0.226562 0.523438
vt 0.125000 0.726562
vt 0.023438 0.523438
vt 0.226562 0.523438
vt 0.125000 0.726562
vt 0.023438 0.523438
vt 0.226562 0.523438
vt 0.125000 0.726562
vt 0.023438 0.523438
vt 0.226562 0.523438
vt 0.125000 0.726562
vt 0.023438 0.523438
vt 0.226562 0.523438
vt 0.125000 0.726562
vt 0.023438 0.523438
vt 0.226562 0.523438
vt 0.125000 0.726562
vt 0.023438 0.523438
vt 0.226562 0.523438
vt 0.125000 0.726562
vt 0.023438 0.523438
vt 0.226562 0.523438
vt 0.125000 0.726562
vt 0.023438 0.523438
vt 0.226562 0.523438
vt 0.125000 0.726562
vt 0.023438 0.523438
vt 0.226562 0.523438
vt 0.125000 0.726562
vt 0.023438 0.523438
vt 0.226562 0.523438
vt 0.125000 0.726562
vt 0.023438 0.523438
vt 0.226562 0.523438
vt 0.125000 0.726562
vt 0.023438 0.523438
vt 0.226562 0.523438
vt 0.125000 0.726562
vt 0.023438 0.523438
vt 0.226562 0.523438
vt 0.125000 0.726562
vt 0.023438 0.523438
vt 0.226562 0.523438
vt 0.125000 0.726562
vt 0.023438 0.523438
vt 0.226562 0.523438
vt 0.125000 0.726562
vt 0.023438 0.523438
vt 0.226562 0.523438
vt 0.125000 0.726562
vt 0.023438 0.523438
vt 0.226562 0.523438
vt 0.125000 0.726562
vt 0.023438 0.523438
vt 0.226562 0.523438
vt 0.125000 0.726562
vt 0.023438 0.523438
vt 0.226562 0.523438
vt 0.125000 0.726562
vt 0.023438 0.523438
vt 0.226562 0.523438
vt 0.125000 0.726562
vt 0.023438 0.523438
vt 0.226562 0.523438
vt 0.125000 0.726562
vt 0.023438 0.523438
vt 0.226562 0.523438
vt 0.125000 0.726562
vt 0.023438 0.523438
vt 0.226562 0.523438
vt 0.125000 0.726562
vt 0.023438 0.523438
vt 0.226562 0.523438
vt 0.125000 0.726562
vt 0.023438 0.523438
vt 0.226562 0.523438
vt 0.125000 0.726562
vt 0.023438 0.523438
vt 0.226562 0.523438
vt 0.125000 0.726562
vt 0.023438 0.523438
vt 0.226562 0.523438
vt 0.125000 0.726562
vt 0.023438 0.523438
vt 0.226562 0.523438
vt 0.125000 0.726562
vt 0.023438 0.523438
vt 0.226562 0.523438
vt 0.125000 0.726562
vt 0.023438 0.523438
vt 0.226562 0.523438
vt 0.125000 0.726562
vt 0.023438 0.523438
vt 0.226562 0.523438
vt 0.125000 0.726562
vt 0.023438 0.523438
vt 0.226562 0.523438
vt 0.125000 0.726562
vt 0.023438 0.523438
vt 0.226562 0.523438
vt 0.125000 0.726562
vt 0.023438 0.523438
vt 0.226562 0.523438
vt 0.125000 0.726562
vt 0.023438 0.523438
vt 0.226562 0.523438
vt 0.125000 0.726562
vt 0.023438 0.523438
vt 0.226562 0.523438
vt 0.125000 0.726562
vt 0.023438 0.523438
vt 0.226562 0.523438
vt 0.125000 0.726562
vt 0.023438 0.523438
vt 0.226562 0.523438
vt 0.125000 0.726562
vt 0.023438 0.523438
vt 0.226562 0.523438
vt 0.125000 0.726562
vt 0.023438 0.523438
vt 0.226562 0.523438
vt 0.125000 0.726562
vt 0.023438 0.523438
vt 0.226562 0.523438
vt 0.125000 0.726562
vt 0.023438 0.523438
vt 0.226562 0.523438
vt 0.125000 0.726562
vt 0.023438 0.523438
vt 0.226562 0.523438
vt 0.125000 0.726562
vt 0.023438 0.523438
vt 0.226562 0.523438
vt 0.125000 0.726562
vt 0.023438 0.523438
vt 0.226562 0.523438
vt 0.125000 0.726562
vt 0.023438 0.523438
vt 0.226562 0.523438
vt 0.125000 0.726562
vt 0.023438 0.523438
vt 0.226562 0.523438
vt 0.125000 0.726562
vt 0.023438 0.523438
vt 0.226562 0.523438
vt 0.125000 0.726562
vt 0.023438 0.523438
vt 0.226562 0.523438
vt 0.125000 0.726562
vt 0.023438 0.523438
vt 0.226562 0.523438
vt 0.125000 0.726562
vt 0.023438 0.523438
vt 0.226562 0.523438
vt 0.125000 0.726562
vt 0.023438 0.523438
vt 0.226562 0.523438
vt 0.125000 0.726562
vt 0.023438 0.523438
vt 0.226562 0.523438
vt 0.125000 0.726562
vt 0.023438 0.523438
vt 0.226562 0.523438
vt 0.125000 0.726562
vt 0.023438 0.523438
vt 0.226562 0.523438
vt 0.125000 0.726562
vt 0.023438 0.523438
vt 0.226562 0.523438
vt 0.125000 0.726562
vt 0.023438 0.523438
vt 0.226562 0.523438
vt 0.125000 0.726562
vt 0.023438 0.523438
vt 0.226562 0.523438
vt 0.125000 0.726562
vt 0.023438 0.523438
vt 0.226562 0.523438
vt 0.125000 0.726562
vt 0.023438 0.523438
vt 0.226562 0.523438
vt 0.125000 0.726562
vt 0.023438 0.523438
vt 0.226562 0.523438
vt 0.125000 0.726562
vt 0.023438 0.523438
vt 0.226562 0.523438
vt 0.125000 0.726562
vt 0.023438 0.523438
vt 0.226562 0.523438
vt 0.125000 0.726562
vt 0.023438 0.523438
vt 0.226562 0.523438
vt 0.125000 0.726562
vt 0.023438 0.523438
vt 0.226562 0.523438
vt 0.125000 0.726562
vt 0.023438 0.523438
vt 0.226562 0.523438
vt 0.125000 0.726562
vt 0.023438 0.523438
vt 0.226562 0.523438
vt 0.125000 0.726562
vt 0.023438 0.523438
vt 0.226562 0.523438
vt 0.125000 0.726562
vt 0.023438 0.523438
vt 0.226562 0.523438
vt 0.125000 0.726562
vt 0.023438 0.523438
vt 0.226562 0.523438
vt 0.125000 0.726562
vt 0.023438 0.523438
vt 0.226562 0.523438
vt 0.125000 0.726562
vt 0.023438 0.523438
vt 0.226562 0.523438
vt 0.125000 0.726562
vt 0.023438 0.523438
vt 0.226562 0.523438
vt 0.125000 0.726562
vt 0.023438 0.523438
vt 0.226562 0.523438
vt 0.125000 0.726562
vt 0.023438 0.523438
vt 0.226562 0.523438
vt 0.125000 0.726562
vt 0.023438 0.523438
vt 0.226562 0.523438
vt 0.125000 0.726562
vt 0.023438 0.523438
vt 0.226562 0.523438
vt 0.125000 0.726562
vt 0.023438 0.523438
vt 0.226562 0.523438
vt 0.125000 0.726562
vt 0.023438 0.523438
vt 0.226562 0.523438
vt 0.125000 0.726562
vt 0.023438 0.523438
vt 0.226562 0.523438
vt 0.125000 0.726562
vt 0.023438 0.523438
vt 0.226562 0.523438
vt 0.125000 0.726562
vt 0.023438 0.523438
vt 0.226562 0.523438
vt 0.125000 0.726562
vt 0.023438 0.523438
vt 0.226562 0.523438
vt 0.125000 0.726562
vt 0.023438 0.523438
vt 0.226562 0.523438
vt 0.125000 0.726562
vt 0.023438 0.523438
vt 0.226562 0.523438
vt 0.125000 0.726562
vt 0.023438 0.523438
vt 0.226562 0.523438
vt 0.125000 0.726562
vt 0.023438 0.523438
vt 0.226562 0.523438
vt 0.125000 0.726562
vt 0.023438 0.523438
vt 0.226562 0.523438
vt 0.125000 0.726562
vt 0.023438 0.523438
vt 0.226562 0.523438
vt 0.125000 0.726562
vt 0.023438 0.523438
vt 0.226562 0.523438
vt 0.125000 0.726562
vt 0.023438 0.523438
vt 0.226562 0.523438
vt 0.125000 0.726562
vt 0.023438 0.523438
vt 0.226562 0.523438
vt 0.125000 0.726562
vt 0.023438 0.523438
vt 0.226562 0.523438
vt 0.125000 0.726562
vt 0.023438 0.523438
vt 0.226562 0.523438
vt 0.125000 0.726562
vt 0.023438 0.523438
vt 0.226562 0.523438
vt 0.125000 0.726562
vt 0.023438 0.523438
vt 0.226562 0.523438
vt 0.125000 0.726562
vt 0.023438 0.523438
vt 0.226562 0.523438
vt 0.125000 0.726562
vt 0.023438 0.523438
vt 0.226562 0.523438
vt 0.125000 0.726562
vt 0.023438 0.523438
vt 0.226562 0.523438
vt 0.125000 0.726562
vt 0.023438 0.523438
vt 0.226562 0.523438
vt 0.125000 0.726562
vt 0.023438 0.523438
vt 0.226562 0.523438
vt 0.125000 0.726562
vt 0.023438 0.523438
vt 0.226562 0.523438
vt 0.125000 0.726562
vt 0.023438 0.523438
vt 0.226562 0.523438
vt 0.125000 0.726562
vt 0.023438 0.523438
vt 0.226562 0.523438
vt 0.125000 0.726562
vt 0.023438 0.523438
vt 0.226562 0.523438
vt 0.125000 0.726562
vt 0.023438 0.523438
vt 0.226562 0.523438
vt 0.125000 0.726562
vt 0.023438 0.523438
vt 0.226562 0.523438
vt 0.125000 0.726562
vt 0.023438 0.523438
vt 0.226562 0.523438
vt 0.125000 0.726562
vt 0.023438 0.523438
vt 0.226562 0.523438
vt 0.125000 0.726562
vt 0.023438 0.523438
vt 0.226562 0.523438
vt 0.125000 0.726562
vt 0.023438 0.523438
vt 0.226562 0.523438
vt 0.125000 0.726562
vt 0.023438 0.523438
vt 0.226562 0.523438
vt 0.125000 0.726562
vt 0.023438 0.523438
vt 0.226562 0.523438
vt 0.125000 0.726562
vt 0.023438 0.523438
vt 0.226562 0.523438
vt 0.125000 0.726562
vt 0.023438 0.523438
vt 0.226562 0.523438
vt 0.125000 0.726562
vt 0.023438 0.523438
vt 0.226562 0.523438
vt 0.125000 0.726562
vt 0.023438 0.523438
vt 0.226562 0.523438
vt 0.125000 0.726562
vt 0.023438 0.523438
vt 0.226562 0.523438
vt 0.125000 0.726562
vt 0.023438 0.523438
vt 0.226562 0.523438
vt 0.125000 0.726562
vt 0.023438 0.523438
vt 0.226562 0.523438
vt 0.125000 0.726562
vt 0.023438 0.523438
vt 0.226562 0.523438
vt 0.125000 0.726562
vt 0.023438 0.523438
vt 0.226562 0.523438
vt 0.125000 0.726562
vt 0.023438 0.523438
vt 0.226562 0.523438
vt 0.125000 0.726562
vt 0.023438 0.523438
vt 0.226562 0.523438
vt 0.125000 0.726562
vt 0.023438 0.523438
vt 0.226562 0.523438
vt 0.125000 0.726562
vt 0.023438 0.523438
vt 0.226562 0.523438
vt 0.125000 0.726562
vt 0.023438 0.523438
vt 0.226562 0.523438
vt 0.125000 0.726562
vt 0.023438 0.523438
vt 0.226562 0.523438
vt 0.125000 0.726562
vt 0.023438 0.523438
vt 0.226562 0.523438
vt 0.125000 0.726562
vt 0.023438 0.523438
vt 0.226562 0.523438
vt 0.125000 0.726562
vt 0.023438 0.523438
vt 0.226562 0.523438
vt 0.125000 0.726562
vt 0.023438 0.523438
vt 0.226562 0.523438
vt 0.125000 0.726562
vt 0.023438 0.523438
vt 0.226562 0.523438
vt 0.125000 0.726562
vt 0.023438 0.523438
vt 0.226562 0.523438
vt 0.125000 0.726562
vt 0.023438 0.523438
vt 0.226562 0.523438
vt 0.125000 0.726562
vt 0.023438 0.523438
vt 0.226562 0.523438
vt 0.125000 0.726562
vt 0.023438 0.523438
vt 0.226562 0.523438
vt 0.125000 0.726562
vt 0.023438 0.523438
vt 0.226562 0.523438
vt 0.125000 0.726562
vt 0.023438 0.523438
vt 0.226562 0.523438
vt 0.125000 0.726562
vt 0.023438 0.523438
vt 0.226562 0.523438
vt 0.125000 0.726562
vt 0.023438 0.523438
vt 0.226562 0.523438
vt 0.125000 0.726562
vt 0.023438 0.523438
vt 0.226562 0.523438
vt 0.125000 0.726562
vt 0.023438 0.523438
vt 0.226562 0.523438
vt 0.125000 0.726562
vt 0.023438 0.523438
vt 0.226562 0.523438
vt 0.125000 0.726562
vt 0.023438 0.523438
vt 0.226562 0.523438
vt 0.125000 0.726562
vt 0.023438 0.523438
vt 0.226562 0.523438
vt 0.125000 0.726562
vt 0.023438 0.523438
vt 0.226562 0.523438
vt 0.125000 0.726562
vt 0.023438 0.523438
vt 0.226562 0.523438
vt 0.125000 0.726562
vt 0.023438 0.523438
vt 0.226562 0.523438
vt 0.125000 0.726562
vt 0.023438 0.523438
vt 0.226562 0.523438
vt 0.125000 0.726562
vt 0.023438 0.523438
vt 0.226562 0.523438
vt 0.125000 0.726562
vt 0.023438 0.523438
vt 0.226562 0.523438
vt 0.125000 0.726562
vt 0.023438 0.523438
vt 0.226562 0.523438
vt 0.125000 0.726562
vt 0.023438 0.523438
vt 0.226562 0.523438
vt 0.125000 0.726562
vt 0.023438 0.523438
vt 0.226562 0.523438
vt 0.125000 0.726562
vt 0.023438 0.523438
vt 0.226562 0.523438
vt 0.125000 0.726562
vt 0.023438 0.523438
vt 0.226562 0.523438
vt 0.125000 0.726562
vt 0.023438 0.523438
vt 0.226562 0.523438
vt 0.125000 0.726562
vt 0.023438 0.523438
vt 0.226562 0.523438
vt 0.125000 0.726562
vt 0.023438 0.523438
vt 0.226562 0.523438
vt 0.125000 0.726562
vt 0.023438 0.523438
vt 0.226562 0.523438
vt 0.125000 0.726562
vt 0.023438 0.523438
vt 0.226562 0.523438
vt 0.125000 0.726562
vt 0.023438 0.523438
vt 0.226562 0.523438
vt 0.125000 0.726562
vt 0.023438 0.523438
vt 0.226562 0.523438
vt 0.125000 0.726562
vt 0.023438 0.523438
vt 0.226562 0.523438
vt 0.125000 0.726562
vn -0.16793584 0.98563714 0.01780421
vn -0.13117276 0.99108306 -0.02341111
vn 0.99508185 0.00000000 -0.09905610
vn 0.99508185 0.00000000 -0.09905610
vn 0.00168350 0.99999857 -0.00017848
vn -0.13309353 0.97891403 -0.15496268
vn -0.12654704 0.97962854 -0.15592872
vn 0.67495440 0.00000000 0.73785944
vn 0.67495440 0.00000000 0.73785944
vn 0.00137656 0.99999777 0.00160275
vn -0.10248452 0.98120648 -0.16349545
vn -0.12738904 0.97787903 -0.16590549
vn 0.55523871 0.00000000 0.83169103
vn 0.55523871 0.00000000 0.83169103
vn 0.00123822 0.99999728 0.00197535
vn -0.09288433 0.99021588 -0.10413937
vn -0.14884850 0.98266912 -0.11047866
vn 0.68872971 0.00000000 0.72501820
vn 0.68872971 0.00000000 0.72501820
vn 0.00145760 0.99999760 0.00163422
vn -0.03038692 0.99483781 -0.09682133
vn -0.06767332 0.99035062 -0.12093790
vn 0.31701934 0.00000000 0.94841907
vn 0.31701934 0.00000000 0.94841907
vn 0.00072056 0.99999710 0.00229590
vn 0.01078387 0.99525216 -0.09673080
vn 0.00431660 0.99419893 -0.10747024
vn -0.11790916 0.00000000 0.99302439
vn -0.11790916 0.00000000 0.99302439
vn -0.00030352 0.99999625 0.00272259
vn 0.00875414 0.99276555 -0.11974941
vn 0.02145248 0.99508098 -0.09671416
vn -0.07762414 0.00000000 0.99698269
vn -0.07762414 0.00000000 0.99698269
vn -0.00019903 0.99999627 0.00272259
vn 0.01023189 0.98598089 -0.16654426
vn 0.03337156 0.99312608 -0.11219151
vn -0.06529154 0.00000000 0.99786623
vn -0.06529154 0.00000000 0.99786623
vn -0.00016806 0.99999624 0.00273549
vn 0.09590893 0.98230635 -0.16085932
vn 0.10033212 0.98916753 -0.10714973
vn -0.53606570 0.00000000 0.84417627
vn -0.53606570 0.00000000 0.84417627
vn -0.00112093 0.99999760 0.00188004
vn 0.16779769 0.98049031 -0.10238503
vn 0.16367472 0.98302048 -0.08295371
vn -0.86769358 0.00000000 0.49709944
vn -0.86769358 0.00000000 0.49709944
vn -0.00167336 0.99999808 0.00102103
vn 0.13538630 0.98172399 -0.13374811
vn 0.14043386 0.97775637 -0.15579095
vn -0.73316174 0.00000000 0.68005431
vn -0.73316174 0.00000000 0.68005431
vn -0.00150166 0.99999777 0.00148349
vn 0.11589020 0.99092611 -0.06808016
vn 0.13939591 0.98322897 -0.11759924
vn -0.87563173 0.00000000 0.48297937
vn -0.87563173 0.00000000 0.48297937
vn -0.00159575 0.99999829 0.00093743
vn 0.08211054 0.99551134 0.04706411
vn 0.11611678 0.99286349 0.02718423
vn -0.88057606 0.00000000 -0.47390485
vn -0.88057606 -0.00000000 -0.47390485
vn -0.00159575 0.99999831 -0.00091465
vn 0.06607446 0.99557676 0.06679132
vn 0.07804251 0.99487391 0.06430613
vn -0.72532371 0.00000000 -0.68840796
vn -0.72532371 -0.00000000 -0.68840796
vn -0.00149325 0.99999775 -0.00150946
vn 0.09391096 0.99388118 0.05814571
vn 0.06743138 0.99566271 0.06409972
vn -0.86452868 0.00000000 -0.50258349
vn -0.86452868 -0.00000000 -0.50258349
vn -0.00166983 0.99999807 -0.00103389
vn 0.07857742 0.98855759 0.12876132
vn 0.04049396 0.99202016 0.11939947
vn -0.54496227 0.00000000 -0.83846057
vn -0.54496227 -0.00000000 -0.83846057
vn -0.00113677 0.99999762 -0.00186278
vn 0.01320122 0.97786755 0.20880802
vn -0.00908288 0.98251077 0.18598411
vn -0.06717949 0.00000000 -0.99774091
vn -0.06717949 -0.00000000 -0.99774091
vn -0.00017250 0.99999626 -0.00272847
vn 0.01377467 0.97684081 0.21352353
vn 0.01041761 0.97772392 0.20963639
vn -0.06854968 0.00000000 -0.99764770
vn -0.06854968 -0.00000000 -0.99764770
vn -0.00017592 0.99999627 -0.00272704
vn 0.02057409 0.98282423 0.18339369
vn 0.04211747 0.97606663 0.21335430
vn -0.11863570 0.00000000 -0.99293785
vn -0.11863570 -0.00000000 -0.99293785
vn -0.00030593 0.99999623 -0.00272704
vn -0.03812903 0.99138380 0.12531696
vn -0.02510642 0.98517424 0.16970973
vn 0.30827519 0.00000000 -0.95129722
vn 0.30827519 0.00000000 -0.95129722
vn 0.00070196 0.99999709 -0.00230710
vn -0.06531030 0.99521150 0.07272306
vn -0.06595866 0.99207912 0.10690400
vn 0.69120926 0.00000000 -0.72265466
vn 0.69120926 0.00000000 -0.72265466
vn 0.00146042 0.99999761 -0.00162618
vn -0.05476283 0.99484430 0.08535719
vn -0.05474115 0.99488833 0.08485642
vn 0.56417636 0.00000000 -0.82565431
vn 0.56417636 0.00000000 -0.82565431
vn 0.00125162 0.99999731 -0.00195086
vn -0.08403292 0.99151278 0.09920120
vn -0.07333162 0.99612570 0.04853922
vn 0.66986335 0.00000000 -0.74248440
vn 0.66986335 0.00000000 -0.74248440
vn 0.00137380 0.99999774 -0.00162178
vn -0.13119645 0.99126209 -0.01367299
vn -0.11499791 0.99280449 -0.03338755
vn 0.99524649 0.00000000 0.09738803
vn 0.99524649 0.00000000 0.09738803
vn 0.00168350 0.99999857 0.00017545
vn 0.00000000 -1.00000000 0.00000000
vn 0.00000000 -1.00000000 0.00000000
vn 0.00000000 -1.00000000 0.00000000
vn 0.00000000 -1.00000000 0.00000000
vn 0.00000000 -1.00000000 0.00000000
vn 0.00000000 -1.00000000 0.00000000
vn 0.00000000 -1.00000000 0.00000000
vn 0.00000000 -1.00000000 0.00000000
vn 0.00000000 -1.00000000 0.00000000
vn 0.00000000 -1.00000000 0.00000000
vn 0.00000000 -1.00000000 0.00000000
vn -0.00000000 -1.00000000 0.00000000
vn 0.00000000 -1.00000000 0.00000000
vn 0.00000000 -1.00000000 0.00000000
vn 0.00000000 -1.00000000 0.00000000
vn 0.00000000 -1.00000000 0.00000000
vn 0.00000000 -1.00000000 0.00000000
vn 0.00000000 -1.00000000 0.00000000
vn 0.00000000 -1.00000000 0.00000000
vn 0.00000000 -1.00000000 0.00000000
vn 0.00000000 -1.00000000 0.00000000
vn 0.00000000 -1.00000000 -0.00000000
vn 0.81153434 -0.58430473 0.00000000
vn -0.94677274 0.32190273 0.00000000
vn 0.93211352 -0.29632539 -0.20822019
vn 0.93211352 -0.29632539 0.20822019
vn -0.59835820 -0.58434313 0.54818844
vn 0.69809550 0.32190308 -0.63956320
vn -0.54764692 -0.29991592 0.78111029
vn -0.82596165 -0.29991938 0.47732139
vn 0.07094685 -0.58428612 -0.80844064
vn -0.08276844 0.32190287 0.94314788
vn -0.12220406 -0.30239563 -0.94531638
vn 0.28500795 -0.30239257 -0.90957639
vn 0.49374792 -0.58436009 0.64400021
vn -0.57605581 0.32190849 -0.75135519
vn 0.73240786 -0.29632460 0.61300119
vn 0.40184021 -0.29632166 0.86643980
vn -0.79915674 -0.58427479 -0.14132046
vn 0.93230728 0.32190402 0.16486640
vn -0.95309855 -0.29992495 0.04059765
vn -0.88138074 -0.29993126 -0.36497840
vn 0.68474634 -0.58426327 -0.43561323
vn -0.79882735 0.32190059 0.50818784
vn 0.67583689 -0.30239387 -0.67216251
vn 0.89523004 -0.30239490 -0.32729267
vn -0.21067303 -0.58429297 0.78372100
vn 0.24577797 0.32190477 -0.91431423
vn -0.04091461 -0.29633159 0.95420835
vn -0.44304630 -0.29632775 0.84610864
vn 0.81153434 -0.58430473 0.00000000
vn -0.94677274 0.32190273 0.00000000
vn 0.93211352 -0.29632539 -0.20822019
vn 0.93211352 -0.29632539 0.20822019
vn -0.59842470 -0.58428272 0.54818025
vn 0.69813561 0.32190327 -0.63951932
vn -0.54774117 -0.29992714 0.78103990
vn -0.82595834 -0.29992530 0.47732340
vn 0.07094732 -0.58427864 -0.80844601
vn -0.08276844 0.32190287 0.94314788
vn -0.12221506 -0.30239422 -0.94531540
vn 0.28498308 -0.30239586 -0.90958309
vn 0.49377765 -0.58429223 0.64403899
vn -0.57605704 0.32190257 -0.75135679
vn 0.73237293 -0.29632796 0.61304130
vn 0.40190777 -0.29632642 0.86640683
vn -0.79911015 -0.58433179 -0.14134829
vn 0.93230072 0.32190206 0.16490732
vn -0.95310061 -0.29991835 0.04059813
vn -0.88134178 -0.29991810 -0.36508327
vn 0.68473721 -0.58432230 -0.43554841
vn -0.79885749 0.32190419 0.50813817
vn 0.67583689 -0.30239387 -0.67216251
vn 0.89526848 -0.30238818 -0.32719372
vn -0.21063168 -0.58433426 0.78370133
vn 0.24573904 0.32190116 -0.91432596
vn -0.04082729 -0.29631796 0.95421633
vn -0.44305116 -0.29632030 0.84610871
vn 0.81153434 -0.58430473 0.00000000
vn -0.94677274 0.32190273 0.00000000
vn 0.93211352 -0.29632539 -0.20822019
vn 0.93211352 -0.29632539 0.20822019
vn -0.59842470 -0.58428272 0.54818025
vn 0.69813561 0.32190327 -0.63951932
vn -0.54774117 -0.29992714 0.78103990
vn -0.82595834 -0.29992530 0.47732340
vn 0.07095023 -0.58428238 -0.80844305
vn -0.08277211 0.32190264 0.94314764
vn -0.12221461 -0.30239496 -0.94531523
vn 0.28500795 -0.30239257 -0.90957639
vn 0.49377765 -0.58429223 0.64403899
vn -0.57605704 0.32190257 -0.75135679
vn 0.73237293 -0.29632796 0.61304130
vn 0.40190777 -0.29632642 0.86640683
vn -0.79914618 -0.58428968 -0.14131859
vn 0.93230728 0.32190402 0.16486640
vn -0.95309855 -0.29992546 0.04059395
vn -0.88136939 -0.29992664 -0.36500961
vn 0.68467462 -0.58438131 -0.43556761
vn -0.79882609 0.32190499 0.50818703
vn 0.67575529 -0.30238241 -0.67224971
vn 0.89526946 -0.30238621 -0.32719287
vn -0.21067303 -0.58429297 0.78372100
vn 0.24577860 0.32189756 -0.91431660
vn -0.04090992 -0.29632319 0.95421116
vn -0.44305116 -0.29632030 0.84610871
vn 0.81153434 -0.58430473 0.00000000
vn -0.94677274 0.32190273 0.00000000
vn 0.93211352 -0.29632539 -0.20822019
vn 0.93211352 -0.29632539 0.20822019
vn -0.59838999 -0.58431425 0.54818453
vn 0.69811522 0.32190101 -0.63954272
vn -0.54770165 -0.29992021 0.78107027
vn -0.82596165 -0.29991938 0.47732139
vn 0.07094732 -0.58427864 -0.80844601
vn -0.08276844 0.32190287 0.94314788
vn -0.12221506 -0.30239422 -0.94531540
vn 0.28498308 -0.30239586 -0.90958309
vn 0.49377765 -0.58429223 0.64403899
vn -0.57605798 0.32189803 -0.75135802
vn 0.73237683 -0.29632151 0.61303975
vn 0.40190640 -0.29632288 0.86640868
vn -0.79911015 -0.58433179 -0.14134829
vn 0.93230072 0.32190206 0.16490732
vn -0.95310061 -0.29991835 0.04059813
vn -0.88134178 -0.29991810 -0.36508327
vn 0.68474279 -0.58428622 -0.43558803
vn -0.79883907 0.32190199 0.50816853
vn 0.67583689 -0.30239387 -0.67216251
vn 0.89524034 -0.30239310 -0.32726618
vn -0.21064279 -0.58432316 0.78370662
vn 0.24574950 0.32190213 -0.91432281
vn -0.04083102 -0.29631854 0.95421599
vn -0.44304861 -0.29632420 0.84610868
vn 0.81153434 -0.58430473 0.00000000
vn -0.94677274 0.32190273 0.00000000
vn 0.93211352 -0.29632539 -0.20822019
vn 0.93211352 -0.29632539 0.20822019
vn -0.59838999 -0.58431425 0.54818453
vn 0.69811522 0.32190101 -0.63954272
vn -0.54770165 -0.29992021 0.78107027
vn -0.82596165 -0.29991938 0.47732139
vn 0.07094732 -0.58427864 -0.80844601
vn -0.08276844 0.32190287 0.94314788
vn -0.12221506 -0.30239422 -0.94531540
vn 0.28498308 -0.30239586 -0.90958309
vn 0.49377765 -0.58429223 0.64403899
vn -0.57605798 0.32189803 -0.75135802
vn 0.73237683 -0.29632151 0.61303975
vn 0.40190640 -0.29632288 0.86640868
vn -0.79911015 -0.58433179 -0.14134829
vn 0.93230072 0.32190206 0.16490732
vn -0.95310061 -0.29991835 0.04059813
vn -0.88134178 -0.29991810 -0.36508327
vn 0.68474076 -0.58429935 -0.43557361
vn -0.79884577 0.32190279 0.50815748
vn 0.67583689 -0.30239387 -0.67216251
vn 0.89525820 -0.30238998 -0.32722021
vn -0.21063583 -0.58431206 0.78371676
vn 0.24573904 0.32190116 -0.91432596
vn -0.04083102 -0.29631854 0.95421599
vn -0.44301422 -0.29632663 0.84612584
vn 0.81153434 -0.58430473 0.00000000
vn -0.94677274 0.32190273 0.00000000
vn 0.93211352 -0.29632539 -0.20822019
vn 0.93211352 -0.29632539 0.20822019
vn -0.59839403 -0.58434048 0.54815216
vn 0.69813457 0.32190742 -0.63951836
vn -0.54768644 -0.29992285 0.78107993
vn -0.82597978 -0.29992268 0.47728795
vn 0.07094487 -0.58436756 -0.80838195
vn -0.08277211 0.32190264 0.94314764
vn -0.12229971 -0.30238406 -0.94530771
vn 0.28508732 -0.30238208 -0.90955500
vn 0.49374792 -0.58436009 0.64400021
vn -0.57605581 0.32190849 -0.75135519
vn 0.73240786 -0.29632460 0.61300119
vn 0.40184021 -0.29632166 0.86643980
vn -0.79912071 -0.58431689 -0.14135016
vn 0.93229906 0.32190704 0.16490702
vn -0.95309855 -0.29992495 0.04059765
vn -0.88135288 -0.29992642 -0.36504965
vn 0.68470251 -0.58433542 -0.43558534
vn -0.79882609 0.32190499 0.50818703
vn 0.67579635 -0.30239016 -0.67220494
vn 0.89525820 -0.30238998 -0.32722021
vn -0.21067303 -0.58429297 0.78372100
vn 0.24577797 0.32190477 -0.91431423
vn -0.04091461 -0.29633159 0.95420835
vn -0.44304630 -0.29632775 0.84610864
vn 0.00000000 -1.00000000 0.00000000
vn 0.00000000 -1.00000000 0.00000000
vn -0.00000000 -1.00000000 0.00000000
vn 0.00000000 -1.00000000 0.00000000
vn 0.60252250 -0.68688095 0.40640028
vn 0.60252349 -0.68687678 0.40640587
vn 0.00000000 -0.61475154 0.78872082
vn 0.00000000 -0.61475154 0.78872082
vn -0.58429733 -0.66711730 0.46211593
vn -0.58430463 -0.66711200 0.46211436
vn -0.60168433 -0.68695724 -0.40751163
vn -0.60168218 -0.68696634 -0.40749945
vn 0.00000000 -0.61475154 -0.78872082
vn 0.00000000 -0.61475154 -0.78872082
vn 0.58495958 -0.66685392 -0.46165804
vn 0.58496349 -0.66685107 -0.46165719
vn 0.76895304 0.37376019 0.51866612
vn 0.76896034 0.37375049 0.51866228
vn 0.00000000 0.31536694 0.94896981
vn 0.00000000 0.31536694 0.94896981
vn -0.73274920 0.35669550 0.57952302
vn -0.73274894 0.35669269 0.57952508
vn -0.76794897 0.37381666 -0.52011103
vn -0.76794138 0.37382672 -0.52011500
vn 0.00000000 0.31536694 -0.94896981
vn 0.00000000 0.31536694 -0.94896981
vn 0.73341403 0.35647333 -0.57881831
vn 0.73341379 0.35647086 -0.57882012
vn 0.31797233 0.92352256 0.21447536
vn 0.00000000 0.93220028 0.36194286
vn -0.22602056 0.95758060 0.17875709
vn -0.24863767 0.95384603 -0.16839556
vn 0.00000000 0.89707073 -0.44188698
vn 0.35580752 0.89137442 -0.28080715
vn 0.00000000 -1.00000000 0.00000000
vn 0.00000000 -1.00000000 0.00000000
vn 0.00000000 -1.00000000 -0.00000000
vn 0.00000000 -1.00000000 0.00000000
vn -0.13074844 -0.61609033 0.77674806
vn -0.13074563 -0.61609349 0.77674603
vn -0.69539630 -0.67898834 0.23536955
vn -0.69539629 -0.67898835 0.23536955
vn -0.53470544 -0.65741917 -0.53093327
vn -0.53470528 -0.65741463 -0.53093905
vn 0.13086409 -0.61604324 -0.77676593
vn 0.13086133 -0.61604634 -0.77676394
vn 0.69488013 -0.67893319 -0.23704710
vn 0.69486964 -0.67894164 -0.23705363
vn 0.53412466 -0.65751840 0.53139477
vn 0.53412388 -0.65749667 0.53142244
vn -0.15746501 0.31633894 0.93548621
vn -0.15746807 0.31634514 0.93548360
vn -0.88118010 0.36684759 0.29823559
vn -0.88118299 0.36682696 0.29825244
vn -0.66509473 0.34862920 -0.66038373
vn -0.66508036 0.34864772 -0.66038843
vn 0.15759861 0.31630190 -0.93547624
vn 0.15760200 0.31630878 -0.93547334
vn 0.88048597 0.36678423 -0.30035609
vn 0.88048731 0.36677456 -0.30036398
vn 0.66441447 0.34870789 0.66102664
vn 0.66442049 0.34870014 0.66102468
vn -0.05788722 0.93721918 0.34390302
vn -0.26486713 0.96010900 0.08964434
vn -0.23529995 0.94342431 -0.23363327
vn 0.07629907 0.88829193 -0.45289723
vn 0.41805737 0.89715686 -0.14260997
vn 0.28146923 0.91779955 0.28003402
vn 0.00000000 -1.00000000 0.00000000
vn 0.00000000 -1.00000000 0.00000000
vn 0.00000000 -1.00000000 -0.00000000
vn 0.00000000 -1.00000000 0.00000000
vn -0.26707060 -0.62411028 0.73427492
vn -0.26707343 -0.62410764 0.73427613
vn -0.72413412 -0.68532594 0.07718896
vn -0.72413907 -0.68532125 0.07718417
vn -0.40146639 -0.63830465 -0.65680432
vn -0.40146589 -0.63830282 -0.65680640
vn 0.26737875 -0.62402681 -0.73423371
vn 0.26737479 -0.62403049 -0.73423203
vn 0.72392471 -0.68531290 -0.07924172
vn 0.72393225 -0.68530577 -0.07923445
vn 0.40097474 -0.63841557 0.65699682
vn 0.40097484 -0.63841593 0.65699641
vn -0.32356695 0.32237856 0.88959344
vn -0.32356426 0.32237232 0.88959668
vn -0.92285653 0.37236980 0.09836953
vn -0.92285747 0.37236685 0.09837184
vn -0.49170926 0.33330781 -0.80444261
vn -0.49170912 0.33330799 -0.80444262
vn 0.32391367 0.32231386 -0.88949070
vn 0.32391611 0.32231952 -0.88948776
vn 0.92258009 0.37235407 -0.10098720
vn 0.92257992 0.37235462 -0.10098677
vn 0.49115224 0.33340419 0.80474289
vn 0.49114654 0.33341173 0.80474325
vn -0.11360694 0.94315168 0.31234336
vn -0.27657399 0.96054033 0.02948070
vn -0.19007997 0.93121708 -0.31097325
vn 0.16058160 0.88304021 -0.44096887
vn 0.42626004 0.90339654 -0.04665915
vn 0.20428178 0.91991150 0.33471151
vn 0.00000000 -1.00000000 0.00000000
vn 0.00000000 -1.00000000 0.00000000
vn 0.00000000 -1.00000000 0.00000000
vn 0.00000000 -1.00000000 0.00000000
vn -0.65094225 -0.67895625 -0.33954765
vn -0.65093716 -0.67896915 -0.33953160
vn -0.13022722 -0.61426941 -0.77827628
vn -0.13022222 -0.61426152 -0.77828334
vn 0.49842221 -0.66594615 -0.55505948
vn 0.49843985 -0.66593350 -0.55505882
vn 0.65163755 -0.67888097 0.33836242
vn 0.65163570 -0.67888565 0.33835660
vn 0.13014141 -0.61426760 0.77829206
vn 0.13013718 -0.61426093 0.77829803
vn -0.49783121 -0.66613827 0.55535924
vn -0.49782925 -0.66613968 0.55535931
vn -0.82481956 0.36681699 -0.43025340
vn -0.82482540 0.36680852 -0.43024943
vn -0.15663243 0.31500073 -0.93607736
vn -0.15663167 0.31500192 -0.93607708
vn 0.62443344 0.35571474 -0.69537752
vn 0.62443069 0.35570165 -0.69538670
vn 0.82565762 0.36673665 0.42871170
vn 0.82564886 0.36674938 0.42871769
vn 0.15652813 0.31499895 0.93609540
vn 0.15652837 0.31499858 0.93609549
vn -0.62379001 0.35587646 0.69587209
vn -0.62378969 0.35587496 0.69587314
vn -0.26593417 0.95395794 -0.13872013
vn -0.06992333 0.90580714 -0.41788054
vn 0.29859126 0.89458195 -0.33251526
vn 0.35613714 0.91595367 0.18491946
vn 0.06206141 0.92649670 0.37114989
vn -0.19496853 0.95639000 0.21749813
vn 0.00000000 -1.00000000 0.00000000
vn 0.00000000 -1.00000000 0.00000000
vn 0.00000000 -1.00000000 0.00000000
vn 0.00000000 -1.00000000 0.00000000
vn -0.26503754 -0.62391585 -0.73517625
vn -0.26503371 -0.62390764 -0.73518460
vn 0.35653152 -0.64728383 -0.67372763
vn 0.35652369 -0.64729034 -0.67372552
vn 0.68128568 -0.70156495 0.20894126
vn 0.68128412 -0.70156735 0.20893827
vn 0.26527985 -0.62382820 0.73516323
vn 0.26527707 -0.62382225 0.73516928
vn -0.35663532 -0.64729656 0.67366046
vn -0.35662630 -0.64730406 0.67365802
vn -0.68133280 -0.70181372 -0.20794980
vn -0.68132929 -0.70181912 -0.20794308
vn -0.32104136 0.32224212 -0.89055739
vn -0.32105453 0.32222349 -0.89055938
vn 0.43979636 0.34043701 -0.83107268
vn 0.43979684 0.34043859 -0.83107178
vn 0.88153668 0.38704231 0.27035409
vn 0.88153552 0.38704415 0.27035523
vn 0.32131341 0.32217671 0.89048294
vn 0.32132690 0.32215763 0.89048497
vn -0.43992653 0.34043850 0.83100318
vn -0.43992951 0.34044815 0.83099765
vn -0.88180404 0.38727494 -0.26914635
vn -0.88181232 0.38726173 -0.26913822
vn -0.13414702 0.91843996 -0.37211909
vn 0.21215415 0.89121698 -0.40090263
vn 0.37174237 0.92130876 0.11400782
vn 0.13077710 0.92278883 0.36243361
vn -0.14563174 0.95032393 0.27509239
vn -0.26621886 0.96048164 -0.08125596
f 1/1/1 2/2/1 3/3/1
f 1/4/2 3/5/2 4/6/2
f 4/7/3 3/8/3 5/9/3
f 4/10/4 5/11/4 6/12/4
f 7/13/5 2/14/5 1/15/5
f 2/16/6 8/17/6 9/18/6
f 2/19/7 9/20/7 3/21/7
f 3/22/8 9/23/8 10/24/8
f 3/25/9 10/26/9 5/27/9
f 7/28/10 8/29/10 2/30/10
f 8/31/11 11/32/11 12/33/11
f 8/34/12 12/35/12 9/36/12
f 9/37/13 12/38/13 13/39/13
f 9/40/14 13/41/14 10/42/14
f 7/43/15 11/44/15 8/45/15
f 11/46/16 14/47/16 15/48/16
f 11/49/17 15/50/17 12/51/17
f 12/52/18 15/53/18 16/54/18
f 12/55/19 16/56/19 13/57/19
f 7/58/20 14/59/20 11/60/20
f 14/61/21 17/62/21 18/63/21
f 14/64/22 18/65/22 15/66/22
f 15/67/23 18/68/23 19/69/23
f 15/70/24 19/71/24 16/72/24
f 7/73/25 17/74/25 14/75/25
f 17/76/26 20/77/26 21/78/26
f 17/79/27 21/80/27 18/81/27
f 18/82/28 21/83/28 22/84/28
f 18/85/29 22/86/29 19/87/29
f 7/88/30 20/89/30 17/90/30
f 20/91/31 23/92/31 24/93/31
f 20/94/32 24/95/32 21/96/32
f 21/97/33 24/98/33 25/99/33
f 21/100/34 25/101/34 22/102/34
f 7/103/35 23/104/35 20/105/35
f 23/106/36 26/107/36 27/108/36
f 23/109/37 27/110/37 24/111/37
f 24/112/38 27/113/38 28/114/38
f 24/115/39 28/116/39 25/117/39
f 7/118/40 26/119/40 23/120/40
f 26/121/41 29/122/41 30/123/41
f 26/124/42 30/125/42 27/126/42
f 27/127/43 30/128/43 31/129/43
f 27/130/44 31/131/44 28/132/44
f 7/133/45 29/134/45 26/135/45
f 29/136/46 32/137/46 33/138/46
f 29/139/47 33/140/47 30/141/47
f 30/142/48 33/143/48 34/144/48
f 30/145/49 34/146/49 31/147/49
f 7/148/50 32/149/50 29/150/50
f 32/151/51 35/152/51 36/153/51
f 32/154/52 36/155/52 33/156/52
f 33/157/53 36/158/53 37/159/53
f 33/160/54 37/161/54 34/162/54
f 7/163/55 35/164/55 32/165/55
f 35/166/56 38/167/56 39/168/56
f 35/169/57 39/170/57 36/171/57
f 36/172/58 39/173/58 40/174/58
f 36/175/59 40/176/59 37/177/59
f 7/178/60 38/179/60 35/180/60
f 38/181/61 41/182/61 42/183/61
f 38/184/62 42/185/62 39/186/62
f 39/187/63 42/188/63 43/189/63
f 39/190/64 43/191/64 40/192/64
f 7/193/65 41/194/65 38/195/65
f 41/196/66 44/197/66 45/198/66
f 41/199/67 45/200/67 42/201/67
f 42/202/68 45/203/68 46/204/68
f 42/205/69 46/206/69 43/207/69
f 7/208/70 44/209/70 41/210/70
f 44/211/71 47/212/71 48/213/71
f 44/214/72 48/215/72 45/216/72
f 45/217/73 48/218/73 49/219/73
f 45/220/74 49/221/74 46/222/74
f 7/223/75 47/224/75 44/225/75
f 47/226/76 50/227/76 51/228/76
f 47/229/77 51/230/77 48/231/77
f 48/232/78 51/233/78 52/234/78
f 48/235/79 52/236/79 49/237/79
f 7/238/80 50/239/80 47/240/80
f 50/241/81 53/242/81 54/243/81
f 50/244/82 54/245/82 51/246/82
f 51/247/83 54/248/83 55/249/83
f 51/250/84 55/251/84 52/252/84
f 7/253/85 53/254/85 50/255/85
f 53/256/86 56/257/86 57/258/86
f 53/259/87 57/260/87 54/261/87
f 54/262/88 57/263/88 58/264/88
f 54/265/89 58/266/89 55/267/89
f 7/268/90 56/269/90 53/270/90
f 56/271/91 59/272/91 60/273/91
f 56/274/92 60/275/92 57/276/92
f 57/277/93 60/278/93 61/279/93
f 57/280/94 61/281/94 58/282/94
f 7/283/95 59/284/95 56/285/95
f 59/286/96 62/287/96 63/288/96
f 59/289/97 63/290/97 60/291/97
f 60/292/98 63/293/98 64/294/98
f 60/295/99 64/296/99 61/297/99
f 7/298/100 62/299/100 59/300/100
f 62/301/101 65/302/101 66/303/101
f 62/304/102 66/305/102 63/306/102
f 63/307/103 66/308/103 67/309/103
f 63/310/104 67/311/104 64/312/104
f 7/313/105 65/314/105 62/315/105
f 65/316/106 68/317/106 69/318/106
f 65/319/107 69/320/107 66/321/107
f 66/322/108 69/323/108 70/324/108
f 66/325/109 70/326/109 67/327/109
f 7/328/110 68/329/110 65/330/110
f 68/331/111 71/332/111 72/333/111
f 68/334/112 72/335/112 69/336/112
f 69/337/113 72/338/113 73/339/113
f 69/340/114 73/341/114 70/342/114
f 7/343/115 71/344/115 68/345/115
f 71/346/116 1/347/116 4/348/116
f 71/349/117 4/350/117 72/351/117
f 72/352/118 4/353/118 6/354/118
f 72/355/119 6/356/119 73/357/119
f 7/358/120 1/359/120 71/360/120
f 6/361/121 5/362/121 10/363/121
f 6/364/122 10/365/122 13/366/122
f 6/367/123 13/368/123 16/369/123
f 6/370/124 16/371/124 19/372/124
f 6/373/125 19/374/125 22/375/125
f 6/376/126 22/377/126 25/378/126
f 6/379/127 25/380/127 28/381/127
f 6/382/128 28/383/128 31/384/128
f 6/385/129 31/386/129 34/387/129
f 6/388/130 34/389/130 37/390/130
f 6/391/131 37/392/131 40/393/131
f 6/394/132 40/395/132 43/396/132
f 6/397/133 43/398/133 46/399/133
f 6/400/134 46/401/134 49/402/134
f 6/403/135 49/404/135 52/405/135
f 6/406/136 52/407/136 55/408/136
f 6/409/137 55/410/137 58/411/137
f 6/412/138 58/413/138 61/414/138
f 6/415/139 61/416/139 64/417/139
f 6/418/140 64/419/140 67/420/140
f 6/421/141 67/422/141 70/423/141
f 6/424/142 70/425/142 73/426/142
f 74/427/143 75/428/143 76/429/143
f 77/430/144 75/431/144 74/432/144
f 77/433/145 76/434/145 75/435/145
f 77/436/146 74/437/146 76/438/146
f 78/439/147 79/440/147 80/441/147
f 81/442/148 79/443/148 78/444/148
f 81/445/149 80/446/149 79/447/149
f 81/448/150 78/449/150 80/450/150
f 82/451/151 83/452/151 84/453/151
f 85/454/152 83/455/152 82/456/152
f 85/457/153 84/458/153 83/459/153
f 85/460/154 82/461/154 84/462/154
f 86/463/155 87/464/155 88/465/155
f 89/466/156 87/467/156 86/468/156
f 89/469/157 88/470/157 87/471/157
f 89/472/158 86/473/158 88/474/158
f 90/475/159 91/476/159 92/477/159
f 93/478/160 91/479/160 90/480/160
f 93/481/161 92/482/161 91/483/161
f 93/484/162 90/485/162 92/486/162
f 94/487/163 95/488/163 96/489/163
f 97/490/164 95/491/164 94/492/164
f 97/493/165 96/494/165 95/495/165
f 97/496/166 94/497/166 96/498/166
f 98/499/167 99/500/167 100/501/167
f 101/502/168 99/503/168 98/504/168
f 101/505/169 100/506/169 99/507/169
f 101/508/170 98/509/170 100/510/170
f 102/511/171 103/512/171 104/513/171
f 105/514/172 103/515/172 102/516/172
f 105/517/173 104/518/173 103/519/173
f 105/520/174 102/521/174 104/522/174
f 106/523/175 107/524/175 108/525/175
f 109/526/176 107/527/176 106/528/176
f 109/529/177 108/530/177 107/531/177
f 109/532/178 106/533/178 108/534/178
f 110/535/179 111/536/179 112/537/179
f 113/538/180 111/539/180 110/540/180
f 113/541/181 112/542/181 111/543/181
f 113/544/182 110/545/182 112/546/182
f 114/547/183 115/548/183 116/549/183
f 117/550/184 115/551/184 114/552/184
f 117/553/185 116/554/185 115/555/185
f 117/556/186 114/557/186 116/558/186
f 118/559/187 119/560/187 120/561/187
f 121/562/188 119/563/188 118/564/188
f 121/565/189 120/566/189 119/567/189
f 121/568/190 118/569/190 120/570/190
f 122/571/191 123/572/191 124/573/191
f 125/574/192 123/575/192 122/576/192
f 125/577/193 124/578/193 123/579/193
f 125/580/194 122/581/194 124/582/194
f 126/583/195 127/584/195 128/585/195
f 129/586/196 127/587/196 126/588/196
f 129/589/197 128/590/197 127/591/197
f 129/592/198 126/593/198 128/594/198
f 130/595/199 131/596/199 132/597/199
f 133/598/200 131/599/200 130/600/200
f 133/601/201 132/602/201 131/603/201
f 133/604/202 130/605/202 132/606/202
f 134/607/203 135/608/203 136/609/203
f 137/610/204 135/611/204 134/612/204
f 137/613/205 136/614/205 135/615/205
f 137/616/206 134/617/206 136/618/206
f 138/619/207 139/620/207 140/621/207
f 141/622/208 139/623/208 138/624/208
f 141/625/209 140/626/209 139/627/209
f 141/628/210 138/629/210 140/630/210
f 142/631/211 143/632/211 144/633/211
f 145/634/212 143/635/212 142/636/212
f 145/637/213 144/638/213 143/639/213
f 145/640/214 142/641/214 144/642/214
f 146/643/215 147/644/215 148/645/215
f 149/646/216 147/647/216 146/648/216
f 149/649/217 148/650/217 147/651/217
f 149/652/218 146/653/218 148/654/218
f 150/655/219 151/656/219 152/657/219
f 153/658/220 151/659/220 150/660/220
f 153/661/221 152/662/221 151/663/221
f 153/664/222 150/665/222 152/666/222
f 154/667/223 155/668/223 156/669/223
f 157/670/224 155/671/224 154/672/224
f 157/673/225 156/674/225 155/675/225
f 157/676/226 154/677/226 156/678/226
f 158/679/227 159/680/227 160/681/227
f 161/682/228 159/683/228 158/684/228
f 161/685/229 160/686/229 159/687/229
f 161/688/230 158/689/230 160/690/230
f 162/691/231 163/692/231 164/693/231
f 165/694/232 163/695/232 162/696/232
f 165/697/233 164/698/233 163/699/233
f 165/700/234 162/701/234 164/702/234
f 166/703/235 167/704/235 168/705/235
f 169/706/236 167/707/236 166/708/236
f 169/709/237 168/710/237 167/711/237
f 169/712/238 166/713/238 168/714/238
f 170/715/239 171/716/239 172/717/239
f 173/718/240 171/719/240 170/720/240
f 173/721/241 172/722/241 171/723/241
f 173/724/242 170/725/242 172/726/242
f 174/727/243 175/728/243 176/729/243
f 177/730/244 175/731/244 174/732/244
f 177/733/245 176/734/245 175/735/245
f 177/736/246 174/737/246 176/738/246
f 178/739/247 179/740/247 180/741/247
f 181/742/248 179/743/248 178/744/248
f 181/745/249 180/746/249 179/747/249
f 181/748/250 178/749/250 180/750/250
f 182/751/251 183/752/251 184/753/251
f 185/754/252 183/755/252 182/756/252
f 185/757/253 184/758/253 183/759/253
f 185/760/254 182/761/254 184/762/254
f 186/763/255 187/764/255 188/765/255
f 189/766/256 187/767/256 186/768/256
f 189/769/257 188/770/257 187/771/257
f 189/772/258 186/773/258 188/774/258
f 190/775/259 191/776/259 192/777/259
f 193/778/260 191/779/260 190/780/260
f 193/781/261 192/782/261 191/783/261
f 193/784/262 190/785/262 192/786/262
f 194/787/263 195/788/263 196/789/263
f 197/790/264 195/791/264 194/792/264
f 197/793/265 196/794/265 195/795/265
f 197/796/266 194/797/266 196/798/266
f 198/799/267 199/800/267 200/801/267
f 201/802/268 199/803/268 198/804/268
f 201/805/269 200/806/269 199/807/269
f 201/808/270 198/809/270 200/810/270
f 202/811/271 203/812/271 204/813/271
f 205/814/272 203/815/272 202/816/272
f 205/817/273 204/818/273 203/819/273
f 205/820/274 202/821/274 204/822/274
f 206/823/275 207/824/275 208/825/275
f 209/826/276 207/827/276 206/828/276
f 209/829/277 208/830/277 207/831/277
f 209/832/278 206/833/278 208/834/278
f 210/835/279 211/836/279 212/837/279
f 213/838/280 211/839/280 210/840/280
f 213/841/281 212/842/281 211/843/281
f 213/844/282 210/845/282 212/846/282
f 214/847/283 215/848/283 216/849/283
f 217/850/284 215/851/284 214/852/284
f 217/853/285 216/854/285 215/855/285
f 217/856/286 214/857/286 216/858/286
f 218/859/287 219/860/287 220/861/287
f 221/862/288 219/863/288 218/864/288
f 221/865/289 220/866/289 219/867/289
f 221/868/290 218/869/290 220/870/290
f 222/871/291 223/872/291 224/873/291
f 225/874/292 223/875/292 222/876/292
f 225/877/293 224/878/293 223/879/293
f 225/880/294 222/881/294 224/882/294
f 226/883/295 227/884/295 228/885/295
f 229/886/296 227/887/296 226/888/296
f 229/889/297 228/890/297 227/891/297
f 229/892/298 226/893/298 228/894/298
f 230/895/299 231/896/299 232/897/299
f 233/898/300 231/899/300 230/900/300
f 233/901/301 232/902/301 231/903/301
f 233/904/302 230/905/302 232/906/302
f 234/907/303 235/908/303 236/909/303
f 237/910/304 235/911/304 234/912/304
f 237/913/305 236/914/305 235/915/305
f 237/916/306 234/917/306 236/918/306
f 238/919/307 239/920/307 240/921/307
f 241/922/308 239/923/308 238/924/308
f 241/925/309 240/926/309 239/927/309
f 241/928/310 238/929/310 240/930/310
f 242/931/311 243/932/311 244/933/311
f 242/934/312 244/935/312 245/936/312
f 242/937/313 245/938/313 246/939/313
f 242/940/314 246/941/314 247/942/314
f 248/943/315 249/944/315 243/945/315
f 248/946/316 243/947/316 242/948/316
f 249/949/317 250/950/317 244/951/317
f 249/952/318 244/953/318 243/954/318
f 250/955/319 251/956/319 245/957/319
f 250/958/320 245/959/320 244/960/320
f 251/961/321 252/962/321 246/963/321
f 251/964/322 246/965/322 245/966/322
f 252/967/323 253/968/323 247/969/323
f 252/970/324 247/971/324 246/972/324
f 253/973/325 248/974/325 242/975/325
f 253/976/326 242/977/326 247/978/326
f 254/979/327 255/980/327 249/981/327
f 254/982/328 249/983/328 248/984/328
f 255/985/329 256/986/329 250/987/329
f 255/988/330 250/989/330 249/990/330
f 256/991/331 257/992/331 251/993/331
f 256/994/332 251/995/332 250/996/332
f 257/997/333 258/998/333 252/999/333
f 257/1000/334 252/1001/334 251/1002/334
f 258/1003/335 259/1004/335 253/1005/335
f 258/1006/336 253/1007/336 252/1008/336
f 259/1009/337 254/1010/337 248/1011/337
f 259/1012/338 248/1013/338 253/1014/338
f 260/1015/339 255/1016/339 254/1017/339
f 260/1018/340 256/1019/340 255/1020/340
f 260/1021/341 257/1022/341 256/1023/341
f 260/1024/342 258/1025/342 257/1026/342
f 260/1027/343 259/1028/343 258/1029/343
f 260/1030/344 254/1031/344 259/1032/344
f 261/1033/345 262/1034/345 263/1035/345
f 261/1036/346 263/1037/346 264/1038/346
f 261/1039/347 264/1040/347 265/1041/347
f 261/1042/348 265/1043/348 266/1044/348
f 267/1045/349 268/1046/349 262/1047/349
f 267/1048/350 262/1049/350 261/1050/350
f 268/1051/351 269/1052/351 263/1053/351
f 268/1054/352 263/1055/352 262/1056/352
f 269/1057/353 270/1058/353 264/1059/353
f 269/1060/354 264/1061/354 263/1062/354
f 270/1063/355 271/1064/355 265/1065/355
f 270/1066/356 265/1067/356 264/1068/356
f 271/1069/357 272/1070/357 266/1071/357
f 271/1072/358 266/1073/358 265/1074/358
f 272/1075/359 267/1076/359 261/1077/359
f 272/1078/360 261/1079/360 266/1080/360
f 273/1081/361 274/1082/361 268/1083/361
f 273/1084/362 268/1085/362 267/1086/362
f 274/1087/363 275/1088/363 269/1089/363
f 274/1090/364 269/1091/364 268/1092/364
f 275/1093/365 276/1094/365 270/1095/365
f 275/1096/366 270/1097/366 269/1098/366
f 276/1099/367 277/1100/367 271/1101/367
f 276/1102/368 271/1103/368 270/1104/368
f 277/1105/369 278/1106/369 272/1107/369
f 277/1108/370 272/1109/370 271/1110/370
f 278/1111/371 273/1112/371 267/1113/371
f 278/1114/372 267/1115/372 272/1116/372
f 279/1117/373 274/1118/373 273/1119/373
f 279/1120/374 275/1121/374 274/1122/374
f 279/1123/375 276/1124/375 275/1125/375
f 279/1126/376 277/1127/376 276/1128/376
f 279/1129/377 278/1130/377 277/1131/377
f 279/1132/378 273/1133/378 278/1134/378
f 280/1135/379 281/1136/379 282/1137/379
f 280/1138/380 282/1139/380 283/1140/380
f 280/1141/381 283/1142/381 284/1143/381
f 280/1144/382 284/1145/382 285/1146/382
f 286/1147/383 287/1148/383 281/1149/383
f 286/1150/384 281/1151/384 280/1152/384
f 287/1153/385 288/1154/385 282/1155/385
f 287/1156/386 282/1157/386 281/1158/386
f 288/1159/387 289/1160/387 283/1161/387
f 288/1162/388 283/1163/388 282/1164/388
f 289/1165/389 290/1166/389 284/1167/389
f 289/1168/390 284/1169/390 283/1170/390
f 290/1171/391 291/1172/391 285/1173/391
f 290/1174/392 285/1175/392 284/1176/392
f 291/1177/393 286/1178/393 280/1179/393
f 291/1180/394 280/1181/394 285/1182/394
f 292/1183/395 293/1184/395 287/1185/395
f 292/1186/396 287/1187/396 286/1188/396
f 293/1189/397 294/1190/397 288/1191/397
f 293/1192/398 288/1193/398 287/1194/398
f 294/1195/399 295/1196/399 289/1197/399
f 294/1198/400 289/1199/400 288/1200/400
f 295/1201/401 296/1202/401 290/1203/401
f 295/1204/402 290/1205/402 289/1206/402
f 296/1207/403 297/1208/403 291/1209/403
f 296/1210/404 291/1211/404 290/1212/404
f 297/1213/405 292/1214/405 286/1215/405
f 297/1216/406 286/1217/406 291/1218/406
f 298/1219/407 293/1220/407 292/1221/407
f 298/1222/408 294/1223/408 293/1224/408
f 298/1225/409 295/1226/409 294/1227/409
f 298/1228/410 296/1229/410 295/1230/410
f 298/1231/411 297/1232/411 296/1233/411
f 298/1234/412 292/1235/412 297/1236/412
f 299/1237/413 300/1238/413 301/1239/413
f 299/1240/414 301/1241/414 302/1242/414
f 299/1243/415 302/1244/415 303/1245/415
f 299/1246/416 303/1247/416 304/1248/416
f 305/1249/417 306/1250/417 300/1251/417
f 305/1252/418 300/1253/418 299/1254/418
f 306/1255/419 307/1256/419 301/1257/419
f 306/1258/420 301/1259/420 300/1260/420
f 307/1261/421 308/1262/421 302/1263/421
f 307/1264/422 302/1265/422 301/1266/422
f 308/1267/423 309/1268/423 303/1269/423
f 308/1270/424 303/1271/424 302/1272/424
f 309/1273/425 310/1274/425 304/1275/425
f 309/1276/426 304/1277/426 303/1278/426
f 310/1279/427 305/1280/427 299/1281/427
f 310/1282/428 299/1283/428 304/1284/428
f 311/1285/429 312/1286/429 306/1287/429
f 311/1288/430 306/1289/430 305/1290/430
f 312/1291/431 313/1292/431 307/1293/431
f 312/1294/432 307/1295/432 306/1296/432
f 313/1297/433 314/1298/433 308/1299/433
f 313/1300/434 308/1301/434 307/1302/434
f 314/1303/435 315/1304/435 309/1305/435
f 314/1306/436 309/1307/436 308/1308/436
f 315/1309/437 316/1310/437 310/1311/437
f 315/1312/438 310/1313/438 309/1314/438
f 316/1315/439 311/1316/439 305/1317/439
f 316/1318/440 305/1319/440 310/1320/440
f 317/1321/441 312/1322/441 311/1323/441
f 317/1324/442 313/1325/442 312/1326/442
f 317/1327/443 314/1328/443 313/1329/443
f 317/1330/444 315/1331/444 314/1332/444
f 317/1333/445 316/1334/445 315/1335/445
f 317/1336/446 311/1337/446 316/1338/446
f 318/1339/447 319/1340/447 320/1341/447
f 318/1342/448 320/1343/448 321/1344/448
f 318/1345/449 321/1346/449 322/1347/449
f 318/1348/450 322/1349/450 323/1350/450
f 324/1351/451 325/1352/451 319/1353/451
f 324/1354/452 319/1355/452 318/1356/452
f 325/1357/453 326/1358/453 320/1359/453
f 325/1360/454 320/1361/454 319/1362/454
f 326/1363/455 327/1364/455 321/1365/455
f 326/1366/456 321/1367/456 320/1368/456
f 327/1369/457 328/1370/457 322/1371/457
f 327/1372/458 322/1373/458 321/1374/458
f 328/1375/459 329/1376/459 323/1377/459
f 328/1378/460 323/1379/460 322/1380/460
f 329/1381/461 324/1382/461 318/1383/461
f 329/1384/462 318/1385/462 323/1386/462
f 330/1387/463 331/1388/463 325/1389/463
f 330/1390/464 325/1391/464 324/1392/464
f 331/1393/465 332/1394/465 326/1395/465
f 331/1396/466 326/1397/466 325/1398/466
f 332/1399/467 333/1400/467 327/1401/467
f 332/1402/468 327/1403/468 326/1404/468
f 333/1405/469 334/1406/469 328/1407/469
f 333/1408/470 328/1409/470 327/1410/470
f 334/1411/471 335/1412/471 329/1413/471
f 334/1414/472 329/1415/472 328/1416/472
f 335/1417/473 330/1418/473 324/1419/473
f 335/1420/474 324/1421/474 329/1422/474
f 336/1423/475 331/1424/475 330/1425/475
f 336/1426/476 332/1427/476 331/1428/476
f 336/1429/477 333/1430/477 332/1431/477
f 336/1432/478 334/1433/478 333/1434/478
f 336/1435/479 335/1436/479 334/1437/479
f 336/1438/480 330/1439/480 335/1440/480
