mtllib TorusNature_StreamA.mtl
o TorusNature_StreamA
usemtl TorusNatureKit
s off
v -0.380000 0.000000 -1.000000
v -0.351313 0.000000 -0.750000
v -0.341313 0.050000 -0.750000
v -0.370000 0.050000 -1.000000
v -0.186313 0.023750 -0.750000
v -0.215000 0.023750 -1.000000
v 0.292379 0.023750 -0.750000
v 0.215000 0.023750 -1.000000
v 0.447379 0.050000 -0.750000
v 0.370000 0.050000 -1.000000
v 0.457379 0.000000 -0.750000
v 0.380000 0.000000 -1.000000
v -0.293937 0.000000 -0.500000
v -0.283937 0.050000 -0.500000
v -0.128937 0.023750 -0.500000
v 0.278937 0.023750 -0.500000
v 0.433937 0.050000 -0.500000
v 0.443937 0.000000 -0.500000
v -0.307648 0.000000 -0.250000
v -0.297648 0.050000 -0.250000
v -0.142648 0.023750 -0.250000
v 0.248714 0.023750 -0.250000
v 0.403714 0.050000 -0.250000
v 0.413714 0.000000 -0.250000
v -0.399842 0.000000 0.000000
v -0.389842 0.050000 0.000000
v -0.234842 0.023750 0.000000
v 0.234842 0.023750 0.000000
v 0.389842 0.050000 0.000000
v 0.399842 0.000000 0.000000
v -0.443336 0.000000 0.250000
v -0.433336 0.050000 0.250000
v -0.278336 0.023750 0.250000
v 0.172270 0.023750 0.250000
v 0.327270 0.050000 0.250000
v 0.337270 0.000000 0.250000
v -0.430477 0.000000 0.500000
v -0.420477 0.050000 0.500000
v -0.265477 0.023750 0.500000
v 0.115477 0.023750 0.500000
v 0.270477 0.050000 0.500000
v 0.280477 0.000000 0.500000
v -0.433874 0.000000 0.750000
v -0.423874 0.050000 0.750000
v -0.268874 0.023750 0.750000
v 0.162808 0.023750 0.750000
v 0.317808 0.050000 0.750000
v 0.327808 0.000000 0.750000
v -0.404141 0.000000 1.000000
v -0.394141 0.050000 1.000000
v -0.239141 0.023750 1.000000
v 0.239141 0.023750 1.000000
v 0.394141 0.050000 1.000000
v 0.404141 0.000000 1.000000
v -0.316313 0.050000 -0.738750
v -0.316313 0.050000 -0.761250
v -0.311813 0.056250 -0.750000
v -0.287753 0.134000 -0.750000
v -0.367347 0.050000 -0.741408
v -0.352148 0.050000 -0.724817
v -0.363065 0.056250 -0.730073
v -0.385319 0.152000 -0.709687
v -0.327921 0.050000 -0.773921
v -0.350335 0.050000 -0.775888
v -0.338734 0.056250 -0.779387
v -0.335561 0.170000 -0.815548
v -0.335030 0.050000 -0.723315
v -0.317174 0.050000 -0.737005
v -0.323364 0.056250 -0.726589
v -0.308725 0.134000 -0.707495
v -0.363972 0.050000 -0.765432
v -0.367890 0.050000 -0.743276
v -0.370362 0.056250 -0.755138
v -0.400081 0.152000 -0.760394
v -0.314181 0.050000 -0.753926
v -0.326258 0.050000 -0.772911
v -0.316423 0.056250 -0.765834
v -0.285795 0.170000 -0.785318
v 0.472379 0.050000 -0.738750
v 0.472379 0.050000 -0.761250
v 0.476879 0.056250 -0.750000
v 0.500939 0.134000 -0.750000
v 0.421346 0.050000 -0.741408
v 0.436544 0.050000 -0.724817
v 0.425627 0.056250 -0.730073
v 0.403373 0.152000 -0.709687
v 0.460772 0.050000 -0.773921
v 0.438358 0.050000 -0.775888
v 0.449958 0.056250 -0.779387
v 0.453131 0.170000 -0.815548
v 0.453662 0.050000 -0.723315
v 0.471518 0.050000 -0.737005
v 0.465328 0.056250 -0.726589
v 0.479968 0.134000 -0.707495
v 0.424721 0.050000 -0.765432
v 0.420802 0.050000 -0.743276
v 0.418330 0.056250 -0.755138
v 0.388611 0.152000 -0.760394
v 0.474511 0.050000 -0.753926
v 0.462435 0.050000 -0.772911
v 0.472270 0.056250 -0.765834
v 0.502898 0.170000 -0.785318
v -0.272648 0.050000 -0.238750
v -0.272648 0.050000 -0.261250
v -0.268148 0.056250 -0.250000
v -0.244088 0.134000 -0.250000
v -0.323681 0.050000 -0.241408
v -0.308483 0.050000 -0.224817
v -0.319400 0.056250 -0.230073
v -0.341654 0.152000 -0.209687
v -0.284255 0.050000 -0.273921
v -0.306669 0.050000 -0.275888
v -0.295069 0.056250 -0.279387
v -0.291896 0.170000 -0.315548
v -0.291365 0.050000 -0.223315
v -0.273509 0.050000 -0.237005
v -0.279699 0.056250 -0.226589
v -0.265059 0.134000 -0.207495
v -0.320306 0.050000 -0.265432
v -0.324225 0.050000 -0.243276
v -0.326697 0.056250 -0.255138
v -0.356416 0.152000 -0.260394
v -0.270516 0.050000 -0.253926
v -0.282593 0.050000 -0.272911
v -0.272757 0.056250 -0.265834
v -0.242129 0.170000 -0.285318
v 0.428714 0.050000 -0.238750
v 0.428714 0.050000 -0.261250
v 0.433214 0.056250 -0.250000
v 0.457274 0.134000 -0.250000
v 0.377680 0.050000 -0.241408
v 0.392879 0.050000 -0.224817
v 0.381962 0.056250 -0.230073
v 0.359708 0.152000 -0.209687
v 0.417106 0.050000 -0.273921
v 0.394692 0.050000 -0.275888
v 0.406293 0.056250 -0.279387
v 0.409466 0.170000 -0.315548
v 0.409997 0.050000 -0.223315
v 0.427853 0.050000 -0.237005
v 0.421663 0.056250 -0.226589
v 0.436302 0.134000 -0.207495
v 0.381055 0.050000 -0.265432
v 0.377137 0.050000 -0.243276
v 0.374665 0.056250 -0.255138
v 0.344946 0.152000 -0.260394
v 0.430846 0.050000 -0.253926
v 0.418769 0.050000 -0.272911
v 0.428604 0.056250 -0.265834
v 0.459232 0.170000 -0.285318
v -0.408336 0.050000 0.261250
v -0.408336 0.050000 0.238750
v -0.403836 0.056250 0.250000
v -0.379776 0.134000 0.250000
v -0.459369 0.050000 0.258592
v -0.444171 0.050000 0.275183
v -0.455088 0.056250 0.269927
v -0.477342 0.152000 0.290313
v -0.419944 0.050000 0.226079
v -0.442357 0.050000 0.224112
v -0.430757 0.056250 0.220613
v -0.427584 0.170000 0.184452
v -0.427053 0.050000 0.276685
v -0.409197 0.050000 0.262995
v -0.415387 0.056250 0.273411
v -0.400748 0.134000 0.292505
v -0.455994 0.050000 0.234568
v -0.459913 0.050000 0.256724
v -0.462385 0.056250 0.244862
v -0.492104 0.152000 0.239606
v -0.406204 0.050000 0.246074
v -0.418281 0.050000 0.227089
v -0.408445 0.056250 0.234166
v -0.377817 0.170000 0.214682
v 0.352270 0.050000 0.261250
v 0.352270 0.050000 0.238750
v 0.356770 0.056250 0.250000
v 0.380830 0.134000 0.250000
v 0.301236 0.050000 0.258592
v 0.316435 0.050000 0.275183
v 0.305518 0.056250 0.269927
v 0.283264 0.152000 0.290313
v 0.340662 0.050000 0.226079
v 0.318249 0.050000 0.224112
v 0.329849 0.056250 0.220613
v 0.333022 0.170000 0.184452
v 0.333553 0.050000 0.276685
v 0.351409 0.050000 0.262995
v 0.345219 0.056250 0.273411
v 0.359858 0.134000 0.292505
v 0.304611 0.050000 0.234568
v 0.300693 0.050000 0.256724
v 0.298221 0.056250 0.244862
v 0.268502 0.152000 0.239606
v 0.354402 0.050000 0.246074
v 0.342325 0.050000 0.227089
v 0.352160 0.056250 0.234166
v 0.382788 0.170000 0.214682
v -0.398874 0.050000 0.761250
v -0.398874 0.050000 0.738750
v -0.394374 0.056250 0.750000
v -0.370314 0.134000 0.750000
v -0.449907 0.050000 0.758592
v -0.434708 0.050000 0.775183
v -0.445626 0.056250 0.769927
v -0.467880 0.152000 0.790313
v -0.410481 0.050000 0.726079
v -0.432895 0.050000 0.724112
v -0.421295 0.056250 0.720613
v -0.418121 0.170000 0.684452
v -0.417590 0.050000 0.776685
v -0.399734 0.050000 0.762995
v -0.405924 0.056250 0.773411
v -0.391285 0.134000 0.792505
v -0.446532 0.050000 0.734568
v -0.450451 0.050000 0.756724
v -0.452923 0.056250 0.744862
v -0.482641 0.152000 0.739606
v -0.396742 0.050000 0.746074
v -0.408818 0.050000 0.727089
v -0.398983 0.056250 0.734166
v -0.368355 0.170000 0.714682
v 0.342808 0.050000 0.761250
v 0.342808 0.050000 0.738750
v 0.347308 0.056250 0.750000
v 0.371368 0.134000 0.750000
v 0.291774 0.050000 0.758592
v 0.306973 0.050000 0.775183
v 0.296055 0.056250 0.769927
v 0.273802 0.152000 0.790313
v 0.331200 0.050000 0.726079
v 0.308786 0.050000 0.724112
v 0.320386 0.056250 0.720613
v 0.323560 0.170000 0.684452
v 0.324091 0.050000 0.776685
v 0.341947 0.050000 0.762995
v 0.335757 0.056250 0.773411
v 0.350396 0.134000 0.792505
v 0.295149 0.050000 0.734568
v 0.291230 0.050000 0.756724
v 0.288758 0.056250 0.744862
v 0.259040 0.152000 0.739606
v 0.344940 0.050000 0.746074
v 0.332863 0.050000 0.727089
v 0.342698 0.056250 0.734166
v 0.373326 0.170000 0.714682
v -0.191329 0.022500 -0.477894
v -0.236621 0.022500 -0.460964
v -0.272105 0.022500 -0.483070
v -0.274377 0.022500 -0.522106
v -0.229041 0.022500 -0.539036
v -0.193546 0.022500 -0.516930
v -0.161278 0.054000 -0.461887
v -0.239368 0.054000 -0.432697
v -0.300546 0.054000 -0.470810
v -0.304463 0.054000 -0.538113
v -0.226298 0.054000 -0.567303
v -0.165100 0.054000 -0.529190
v -0.177019 0.092700 -0.470272
v -0.237929 0.092700 -0.447504
v -0.285648 0.092700 -0.477232
v -0.288704 0.092700 -0.529728
v -0.227735 0.092700 -0.552496
v -0.180000 0.092700 -0.522768
v -0.220453 0.112500 -0.505400
v 0.338463 0.022500 0.036489
v 0.290142 0.022500 0.030530
v 0.275667 0.022500 -0.005959
v 0.300868 0.022500 -0.036489
v 0.349154 0.022500 -0.030530
v 0.363719 0.022500 0.005959
v 0.352072 0.054000 0.062913
v 0.268759 0.054000 0.052639
v 0.243802 0.054000 -0.010274
v 0.287252 0.054000 -0.062913
v 0.370504 0.054000 -0.052639
v 0.395617 0.054000 0.010274
v 0.344944 0.092700 0.049072
v 0.279960 0.092700 0.041058
v 0.260493 0.092700 -0.008014
v 0.294384 0.092700 -0.049072
v 0.359321 0.092700 -0.041058
v 0.378909 0.092700 0.008014
v 0.332045 0.112500 -0.005400
v -0.356615 0.022500 0.538126
v -0.387748 0.022500 0.511360
v -0.378832 0.022500 0.473234
v -0.332970 0.022500 0.461874
v -0.301884 0.022500 0.488640
v -0.310698 0.022500 0.526766
v -0.365178 0.054000 0.565735
v -0.418855 0.054000 0.519586
v -0.403483 0.054000 0.453851
v -0.324410 0.054000 0.434265
v -0.270813 0.054000 0.480414
v -0.286011 0.054000 0.546149
v -0.360693 0.092700 0.551273
v -0.402560 0.092700 0.515277
v -0.390571 0.092700 0.464004
v -0.328894 0.092700 0.448727
v -0.287088 0.092700 0.484723
v -0.298942 0.092700 0.535996
v -0.332416 0.112500 0.494600
v 0.234569 0.022500 0.783795
v 0.216506 0.022500 0.749781
v 0.236874 0.022500 0.715986
v 0.286617 0.022500 0.716205
v 0.304663 0.022500 0.750219
v 0.284366 0.022500 0.784014
v 0.215717 0.054000 0.808267
v 0.184575 0.054000 0.749622
v 0.219691 0.054000 0.691355
v 0.305455 0.054000 0.691733
v 0.336569 0.054000 0.750378
v 0.301575 0.054000 0.808645
v 0.225591 0.092700 0.795448
v 0.201301 0.092700 0.749705
v 0.228692 0.092700 0.704257
v 0.295588 0.092700 0.704552
v 0.319857 0.092700 0.750295
v 0.292561 0.092700 0.795743
v 0.272977 0.112500 0.744600
vt 0.523438 0.523438
vt 0.726562 0.523438
vt 0.625000 0.726562
vt 0.523438 0.523438
vt 0.726562 0.523438
vt 0.625000 0.726562
vt 0.773438 0.523438
vt 0.976562 0.523438
vt 0.875000 0.726562
vt 0.773438 0.523438
vt 0.976562 0.523438
vt 0.875000 0.726562
vt 0.080007 0.273438
vt 0.085863 0.298828
vt 0.183586 0.298828
vt 0.080007 0.273438
vt 0.183586 0.298828
vt 0.167789 0.273438
vt 0.773438 0.523438
vt 0.976562 0.523438
vt 0.875000 0.726562
vt 0.773438 0.523438
vt 0.976562 0.523438
vt 0.875000 0.726562
vt 0.523438 0.523438
vt 0.726562 0.523438
vt 0.625000 0.726562
vt 0.523438 0.523438
vt 0.726562 0.523438
vt 0.625000 0.726562
vt 0.523438 0.523438
vt 0.726562 0.523438
vt 0.625000 0.726562
vt 0.523438 0.523438
vt 0.726562 0.523438
vt 0.625000 0.726562
vt 0.523438 0.523438
vt 0.726562 0.523438
vt 0.625000 0.726562
vt 0.523438 0.523438
vt 0.726562 0.523438
vt 0.625000 0.726562
vt 0.773438 0.523438
vt 0.976562 0.523438
vt 0.875000 0.726562
vt 0.773438 0.523438
vt 0.976562 0.523438
vt 0.875000 0.726562
vt 0.085863 0.298828
vt 0.097576 0.324219
vt 0.180842 0.324219
vt 0.085863 0.298828
vt 0.180842 0.324219
vt 0.183586 0.298828
vt 0.773438 0.523438
vt 0.976562 0.523438
vt 0.875000 0.726562
vt 0.773438 0.523438
vt 0.976562 0.523438
vt 0.875000 0.726562
vt 0.523438 0.523438
vt 0.726562 0.523438
vt 0.625000 0.726562
vt 0.523438 0.523438
vt 0.726562 0.523438
vt 0.625000 0.726562
vt 0.523438 0.523438
vt 0.726562 0.523438
vt 0.625000 0.726562
vt 0.523438 0.523438
vt 0.726562 0.523438
vt 0.625000 0.726562
vt 0.523438 0.523438
vt 0.726562 0.523438
vt 0.625000 0.726562
vt 0.523438 0.523438
vt 0.726562 0.523438
vt 0.625000 0.726562
vt 0.773438 0.523438
vt 0.976562 0.523438
vt 0.875000 0.726562
vt 0.773438 0.523438
vt 0.976562 0.523438
vt 0.875000 0.726562
vt 0.097576 0.324219
vt 0.094777 0.349609
vt 0.174672 0.349609
vt 0.097576 0.324219
vt 0.174672 0.349609
vt 0.180842 0.324219
vt 0.773438 0.523438
vt 0.976562 0.523438
vt 0.875000 0.726562
vt 0.773438 0.523438
vt 0.976562 0.523438
vt 0.875000 0.726562
vt 0.523438 0.523438
vt 0.726562 0.523438
vt 0.625000 0.726562
vt 0.523438 0.523438
vt 0.726562 0.523438
vt 0.625000 0.726562
vt 0.523438 0.523438
vt 0.726562 0.523438
vt 0.625000 0.726562
vt 0.523438 0.523438
vt 0.726562 0.523438
vt 0.625000 0.726562
vt 0.523438 0.523438
vt 0.726562 0.523438
vt 0.625000 0.726562
vt 0.523438 0.523438
vt 0.726562 0.523438
vt 0.625000 0.726562
vt 0.773438 0.523438
vt 0.976562 0.523438
vt 0.875000 0.726562
vt 0.773438 0.523438
vt 0.976562 0.523438
vt 0.875000 0.726562
vt 0.094777 0.349609
vt 0.075956 0.375000
vt 0.171840 0.375000
vt 0.094777 0.349609
vt 0.171840 0.375000
vt 0.174672 0.349609
vt 0.773438 0.523438
vt 0.976562 0.523438
vt 0.875000 0.726562
vt 0.773438 0.523438
vt 0.976562 0.523438
vt 0.875000 0.726562
vt 0.523438 0.523438
vt 0.726562 0.523438
vt 0.625000 0.726562
vt 0.523438 0.523438
vt 0.726562 0.523438
vt 0.625000 0.726562
vt 0.523438 0.523438
vt 0.726562 0.523438
vt 0.625000 0.726562
vt 0.523438 0.523438
vt 0.726562 0.523438
vt 0.625000 0.726562
vt 0.523438 0.523438
vt 0.726562 0.523438
vt 0.625000 0.726562
vt 0.523438 0.523438
vt 0.726562 0.523438
vt 0.625000 0.726562
vt 0.773438 0.523438
vt 0.976562 0.523438
vt 0.875000 0.726562
vt 0.773438 0.523438
vt 0.976562 0.523438
vt 0.875000 0.726562
vt 0.075956 0.375000
vt 0.067077 0.400391
vt 0.159066 0.400391
vt 0.075956 0.375000
vt 0.159066 0.400391
vt 0.171840 0.375000
vt 0.773438 0.523438
vt 0.976562 0.523438
vt 0.875000 0.726562
vt 0.773438 0.523438
vt 0.976562 0.523438
vt 0.875000 0.726562
vt 0.523438 0.523438
vt 0.726562 0.523438
vt 0.625000 0.726562
vt 0.523438 0.523438
vt 0.726562 0.523438
vt 0.625000 0.726562
vt 0.523438 0.523438
vt 0.726562 0.523438
vt 0.625000 0.726562
vt 0.523438 0.523438
vt 0.726562 0.523438
vt 0.625000 0.726562
vt 0.523438 0.523438
vt 0.726562 0.523438
vt 0.625000 0.726562
vt 0.523438 0.523438
vt 0.726562 0.523438
vt 0.625000 0.726562
vt 0.773438 0.523438
vt 0.976562 0.523438
vt 0.875000 0.726562
vt 0.773438 0.523438
vt 0.976562 0.523438
vt 0.875000 0.726562
vt 0.067077 0.400391
vt 0.069702 0.425781
vt 0.147472 0.425781
vt 0.067077 0.400391
vt 0.147472 0.425781
vt 0.159066 0.400391
vt 0.773438 0.523438
vt 0.976562 0.523438
vt 0.875000 0.726562
vt 0.773438 0.523438
vt 0.976562 0.523438
vt 0.875000 0.726562
vt 0.523438 0.523438
vt 0.726562 0.523438
vt 0.625000 0.726562
vt 0.523438 0.523438
vt 0.726562 0.523438
vt 0.625000 0.726562
vt 0.523438 0.523438
vt 0.726562 0.523438
vt 0.625000 0.726562
vt 0.523438 0.523438
vt 0.726562 0.523438
vt 0.625000 0.726562
vt 0.523438 0.523438
vt 0.726562 0.523438
vt 0.625000 0.726562
vt 0.523438 0.523438
vt 0.726562 0.523438
vt 0.625000 0.726562
vt 0.773438 0.523438
vt 0.976562 0.523438
vt 0.875000 0.726562
vt 0.773438 0.523438
vt 0.976562 0.523438
vt 0.875000 0.726562
vt 0.069702 0.425781
vt 0.069009 0.451172
vt 0.157135 0.451172
vt 0.069702 0.425781
vt 0.157135 0.451172
vt 0.147472 0.425781
vt 0.773438 0.523438
vt 0.976562 0.523438
vt 0.875000 0.726562
vt 0.773438 0.523438
vt 0.976562 0.523438
vt 0.875000 0.726562
vt 0.523438 0.523438
vt 0.726562 0.523438
vt 0.625000 0.726562
vt 0.523438 0.523438
vt 0.726562 0.523438
vt 0.625000 0.726562
vt 0.523438 0.523438
vt 0.726562 0.523438
vt 0.625000 0.726562
vt 0.523438 0.523438
vt 0.726562 0.523438
vt 0.625000 0.726562
vt 0.523438 0.523438
vt 0.726562 0.523438
vt 0.625000 0.726562
vt 0.523438 0.523438
vt 0.726562 0.523438
vt 0.625000 0.726562
vt 0.773438 0.523438
vt 0.976562 0.523438
vt 0.875000 0.726562
vt 0.773438 0.523438
vt 0.976562 0.523438
vt 0.875000 0.726562
vt 0.069009 0.451172
vt 0.075079 0.476562
vt 0.172718 0.476562
vt 0.069009 0.451172
vt 0.172718 0.476562
vt 0.157135 0.451172
vt 0.773438 0.523438
vt 0.976562 0.523438
vt 0.875000 0.726562
vt 0.773438 0.523438
vt 0.976562 0.523438
vt 0.875000 0.726562
vt 0.523438 0.523438
vt 0.726562 0.523438
vt 0.625000 0.726562
vt 0.523438 0.523438
vt 0.726562 0.523438
vt 0.625000 0.726562
vt 0.523438 0.523438
vt 0.726562 0.523438
vt 0.625000 0.726562
vt 0.523438 0.523438
vt 0.726562 0.523438
vt 0.625000 0.726562
vt 0.523438 0.523438
vt 0.726562 0.523438
vt 0.625000 0.726562
vt 0.523438 0.523438
vt 0.726562 0.523438
vt 0.625000 0.726562
vt 0.523438 0.523438
vt 0.726562 0.523438
vt 0.625000 0.726562
vt 0.523438 0.523438
vt 0.726562 0.523438
vt 0.625000 0.726562
vt 0.523438 0.523438
vt 0.726562 0.523438
vt 0.625000 0.726562
vt 0.523438 0.523438
vt 0.726562 0.523438
vt 0.625000 0.726562
vt 0.523438 0.523438
vt 0.726562 0.523438
vt 0.625000 0.726562
vt 0.523438 0.523438
vt 0.726562 0.523438
vt 0.625000 0.726562
vt 0.773438 0.773438
vt 0.976562 0.773438
vt 0.875000 0.976562
vt 0.773438 0.773438
vt 0.976562 0.773438
vt 0.875000 0.976562
vt 0.773438 0.773438
vt 0.976562 0.773438
vt 0.875000 0.976562
vt 0.773438 0.773438
vt 0.976562 0.773438
vt 0.875000 0.976562
vt 0.773438 0.773438
vt 0.976562 0.773438
vt 0.875000 0.976562
vt 0.773438 0.773438
vt 0.976562 0.773438
vt 0.875000 0.976562
vt 0.773438 0.773438
vt 0.976562 0.773438
vt 0.875000 0.976562
vt 0.773438 0.773438
vt 0.976562 0.773438
vt 0.875000 0.976562
vt 0.773438 0.773438
vt 0.976562 0.773438
vt 0.875000 0.976562
vt 0.773438 0.773438
vt 0.976562 0.773438
vt 0.875000 0.976562
vt 0.773438 0.773438
vt 0.976562 0.773438
vt 0.875000 0.976562
vt 0.773438 0.773438
vt 0.976562 0.773438
vt 0.875000 0.976562
vt 0.773438 0.773438
vt 0.976562 0.773438
vt 0.875000 0.976562
vt 0.773438 0.773438
vt 0.976562 0.773438
vt 0.875000 0.976562
vt 0.773438 0.773438
vt 0.976562 0.773438
vt 0.875000 0.976562
vt 0.773438 0.773438
vt 0.976562 0.773438
vt 0.875000 0.976562
vt 0.773438 0.773438
vt 0.976562 0.773438
vt 0.875000 0.976562
vt 0.773438 0.773438
vt 0.976562 0.773438
vt 0.875000 0.976562
vt 0.773438 0.773438
vt 0.976562 0.773438
vt 0.875000 0.976562
vt 0.773438 0.773438
vt 0.976562 0.773438
vt 0.875000 0.976562
vt 0.773438 0.773438
vt 0.976562 0.773438
vt 0.875000 0.976562
vt 0.773438 0.773438
vt 0.976562 0.773438
vt 0.875000 0.976562
vt 0.773438 0.773438
vt 0.976562 0.773438
vt 0.875000 0.976562
vt 0.773438 0.773438
vt 0.976562 0.773438
vt 0.875000 0.976562
vt 0.773438 0.773438
vt 0.976562 0.773438
vt 0.875000 0.976562
vt 0.773438 0.773438
vt 0.976562 0.773438
vt 0.875000 0.976562
vt 0.773438 0.773438
vt 0.976562 0.773438
vt 0.875000 0.976562
vt 0.773438 0.773438
vt 0.976562 0.773438
vt 0.875000 0.976562
vt 0.773438 0.773438
vt 0.976562 0.773438
vt 0.875000 0.976562
vt 0.773438 0.773438
vt 0.976562 0.773438
vt 0.875000 0.976562
vt 0.773438 0.773438
vt 0.976562 0.773438
vt 0.875000 0.976562
vt 0.773438 0.773438
vt 0.976562 0.773438
vt 0.875000 0.976562
vt 0.773438 0.773438
vt 0.976562 0.773438
vt 0.875000 0.976562
vt 0.773438 0.773438
vt 0.976562 0.773438
vt 0.875000 0.976562
vt 0.773438 0.773438
vt 0.976562 0.773438
vt 0.875000 0.976562
vt 0.773438 0.773438
vt 0.976562 0.773438
vt 0.875000 0.976562
vt 0.773438 0.773438
vt 0.976562 0.773438
vt 0.875000 0.976562
vt 0.773438 0.773438
vt 0.976562 0.773438
vt 0.875000 0.976562
vt 0.773438 0.773438
vt 0.976562 0.773438
vt 0.875000 0.976562
vt 0.773438 0.773438
vt 0.976562 0.773438
vt 0.875000 0.976562
vt 0.773438 0.773438
vt 0.976562 0.773438
vt 0.875000 0.976562
vt 0.773438 0.773438
vt 0.976562 0.773438
vt 0.875000 0.976562
vt 0.773438 0.773438
vt 0.976562 0.773438
vt 0.875000 0.976562
vt 0.773438 0.773438
vt 0.976562 0.773438
vt 0.875000 0.976562
vt 0.773438 0.773438
vt 0.976562 0.773438
vt 0.875000 0.976562
vt 0.773438 0.773438
vt 0.976562 0.773438
vt 0.875000 0.976562
vt 0.773438 0.773438
vt 0.976562 0.773438
vt 0.875000 0.976562
vt 0.773438 0.773438
vt 0.976562 0.773438
vt 0.875000 0.976562
vt 0.773438 0.773438
vt 0.976562 0.773438
vt 0.875000 0.976562
vt 0.773438 0.773438
vt 0.976562 0.773438
vt 0.875000 0.976562
vt 0.773438 0.773438
vt 0.976562 0.773438
vt 0.875000 0.976562
vt 0.773438 0.773438
vt 0.976562 0.773438
vt 0.875000 0.976562
vt 0.773438 0.773438
vt 0.976562 0.773438
vt 0.875000 0.976562
vt 0.773438 0.773438
vt 0.976562 0.773438
vt 0.875000 0.976562
vt 0.773438 0.773438
vt 0.976562 0.773438
vt 0.875000 0.976562
vt 0.773438 0.773438
vt 0.976562 0.773438
vt 0.875000 0.976562
vt 0.773438 0.773438
vt 0.976562 0.773438
vt 0.875000 0.976562
vt 0.773438 0.773438
vt 0.976562 0.773438
vt 0.875000 0.976562
vt 0.773438 0.773438
vt 0.976562 0.773438
vt 0.875000 0.976562
vt 0.773438 0.773438
vt 0.976562 0.773438
vt 0.875000 0.976562
vt 0.773438 0.773438
vt 0.976562 0.773438
vt 0.875000 0.976562
vt 0.773438 0.773438
vt 0.976562 0.773438
vt 0.875000 0.976562
vt 0.773438 0.773438
vt 0.976562 0.773438
vt 0.875000 0.976562
vt 0.773438 0.773438
vt 0.976562 0.773438
vt 0.875000 0.976562
vt 0.773438 0.773438
vt 0.976562 0.773438
vt 0.875000 0.976562
vt 0.773438 0.773438
vt 0.976562 0.773438
vt 0.875000 0.976562
vt 0.773438 0.773438
vt 0.976562 0.773438
vt 0.875000 0.976562
vt 0.773438 0.773438
vt 0.976562 0.773438
vt 0.875000 0.976562
vt 0.773438 0.773438
vt 0.976562 0.773438
vt 0.875000 0.976562
vt 0.773438 0.773438
vt 0.976562 0.773438
vt 0.875000 0.976562
vt 0.773438 0.773438
vt 0.976562 0.773438
vt 0.875000 0.976562
vt 0.773438 0.773438
vt 0.976562 0.773438
vt 0.875000 0.976562
vt 0.773438 0.773438
vt 0.976562 0.773438
vt 0.875000 0.976562
vt 0.773438 0.773438
vt 0.976562 0.773438
vt 0.875000 0.976562
vt 0.773438 0.773438
vt 0.976562 0.773438
vt 0.875000 0.976562
vt 0.773438 0.773438
vt 0.976562 0.773438
vt 0.875000 0.976562
vt 0.773438 0.773438
vt 0.976562 0.773438
vt 0.875000 0.976562
vt 0.773438 0.773438
vt 0.976562 0.773438
vt 0.875000 0.976562
vt 0.773438 0.773438
vt 0.976562 0.773438
vt 0.875000 0.976562
vt 0.773438 0.773438
vt 0.976562 0.773438
vt 0.875000 0.976562
vt 0.773438 0.773438
vt 0.976562 0.773438
vt 0.875000 0.976562
vt 0.773438 0.773438
vt 0.976562 0.773438
vt 0.875000 0.976562
vt 0.773438 0.773438
vt 0.976562 0.773438
vt 0.875000 0.976562
vt 0.773438 0.773438
vt 0.976562 0.773438
vt 0.875000 0.976562
vt 0.773438 0.773438
vt 0.976562 0.773438
vt 0.875000 0.976562
vt 0.773438 0.773438
vt 0.976562 0.773438
vt 0.875000 0.976562
vt 0.773438 0.773438
vt 0.976562 0.773438
vt 0.875000 0.976562
vt 0.773438 0.773438
vt 0.976562 0.773438
vt 0.875000 0.976562
vt 0.773438 0.773438
vt 0.976562 0.773438
vt 0.875000 0.976562
vt 0.773438 0.773438
vt 0.976562 0.773438
vt 0.875000 0.976562
vt 0.773438 0.773438
vt 0.976562 0.773438
vt 0.875000 0.976562
vt 0.773438 0.773438
vt 0.976562 0.773438
vt 0.875000 0.976562
vt 0.773438 0.773438
vt 0.976562 0.773438
vt 0.875000 0.976562
vt 0.773438 0.773438
vt 0.976562 0.773438
vt 0.875000 0.976562
vt 0.773438 0.773438
vt 0.976562 0.773438
vt 0.875000 0.976562
vt 0.773438 0.773438
vt 0.976562 0.773438
vt 0.875000 0.976562
vt 0.773438 0.773438
vt 0.976562 0.773438
vt 0.875000 0.976562
vt 0.773438 0.773438
vt 0.976562 0.773438
vt 0.875000 0.976562
vt 0.773438 0.773438
vt 0.976562 0.773438
vt 0.875000 0.976562
vt 0.773438 0.773438
vt 0.976562 0.773438
vt 0.875000 0.976562
vt 0.773438 0.773438
vt 0.976562 0.773438
vt 0.875000 0.976562
vt 0.773438 0.773438
vt 0.976562 0.773438
vt 0.875000 0.976562
vt 0.773438 0.773438
vt 0.976562 0.773438
vt 0.875000 0.976562
vt 0.773438 0.773438
vt 0.976562 0.773438
vt 0.875000 0.976562
vt 0.773438 0.773438
vt 0.976562 0.773438
vt 0.875000 0.976562
vt 0.773438 0.773438
vt 0.976562 0.773438
vt 0.875000 0.976562
vt 0.773438 0.773438
vt 0.976562 0.773438
vt 0.875000 0.976562
vt 0.773438 0.773438
vt 0.976562 0.773438
vt 0.875000 0.976562
vt 0.773438 0.773438
vt 0.976562 0.773438
vt 0.875000 0.976562
vt 0.773438 0.773438
vt 0.976562 0.773438
vt 0.875000 0.976562
vt 0.773438 0.773438
vt 0.976562 0.773438
vt 0.875000 0.976562
vt 0.773438 0.773438
vt 0.976562 0.773438
vt 0.875000 0.976562
vt 0.773438 0.773438
vt 0.976562 0.773438
vt 0.875000 0.976562
vt 0.773438 0.773438
vt 0.976562 0.773438
vt 0.875000 0.976562
vt 0.773438 0.773438
vt 0.976562 0.773438
vt 0.875000 0.976562
vt 0.773438 0.773438
vt 0.976562 0.773438
vt 0.875000 0.976562
vt 0.773438 0.773438
vt 0.976562 0.773438
vt 0.875000 0.976562
vt 0.773438 0.773438
vt 0.976562 0.773438
vt 0.875000 0.976562
vt 0.773438 0.773438
vt 0.976562 0.773438
vt 0.875000 0.976562
vt 0.773438 0.773438
vt 0.976562 0.773438
vt 0.875000 0.976562
vt 0.773438 0.773438
vt 0.976562 0.773438
vt 0.875000 0.976562
vt 0.773438 0.773438
vt 0.976562 0.773438
vt 0.875000 0.976562
vt 0.773438 0.773438
vt 0.976562 0.773438
vt 0.875000 0.976562
vt 0.773438 0.773438
vt 0.976562 0.773438
vt 0.875000 0.976562
vt 0.773438 0.773438
vt 0.976562 0.773438
vt 0.875000 0.976562
vt 0.773438 0.773438
vt 0.976562 0.773438
vt 0.875000 0.976562
vt 0.773438 0.773438
vt 0.976562 0.773438
vt 0.875000 0.976562
vt 0.773438 0.773438
vt 0.976562 0.773438
vt 0.875000 0.976562
vt 0.773438 0.773438
vt 0.976562 0.773438
vt 0.875000 0.976562
vt 0.773438 0.773438
vt 0.976562 0.773438
vt 0.875000 0.976562
vt 0.773438 0.773438
vt 0.976562 0.773438
vt 0.875000 0.976562
vt 0.773438 0.773438
vt 0.976562 0.773438
vt 0.875000 0.976562
vt 0.773438 0.773438
vt 0.976562 0.773438
vt 0.875000 0.976562
vt 0.773438 0.773438
vt 0.976562 0.773438
vt 0.875000 0.976562
vt 0.773438 0.773438
vt 0.976562 0.773438
vt 0.875000 0.976562
vt 0.773438 0.773438
vt 0.976562 0.773438
vt 0.875000 0.976562
vt 0.773438 0.773438
vt 0.976562 0.773438
vt 0.875000 0.976562
vt 0.773438 0.773438
vt 0.976562 0.773438
vt 0.875000 0.976562
vt 0.773438 0.773438
vt 0.976562 0.773438
vt 0.875000 0.976562
vt 0.773438 0.773438
vt 0.976562 0.773438
vt 0.875000 0.976562
vt 0.773438 0.773438
vt 0.976562 0.773438
vt 0.875000 0.976562
vt 0.773438 0.773438
vt 0.976562 0.773438
vt 0.875000 0.976562
vt 0.773438 0.773438
vt 0.976562 0.773438
vt 0.875000 0.976562
vt 0.773438 0.773438
vt 0.976562 0.773438
vt 0.875000 0.976562
vt 0.773438 0.773438
vt 0.976562 0.773438
vt 0.875000 0.976562
vt 0.773438 0.773438
vt 0.976562 0.773438
vt 0.875000 0.976562
vt 0.773438 0.773438
vt 0.976562 0.773438
vt 0.875000 0.976562
vt 0.773438 0.773438
vt 0.976562 0.773438
vt 0.875000 0.976562
vt 0.773438 0.773438
vt 0.976562 0.773438
vt 0.875000 0.976562
vt 0.773438 0.773438
vt 0.976562 0.773438
vt 0.875000 0.976562
vt 0.773438 0.773438
vt 0.976562 0.773438
vt 0.875000 0.976562
vt 0.773438 0.773438
vt 0.976562 0.773438
vt 0.875000 0.976562
vt 0.773438 0.773438
vt 0.976562 0.773438
vt 0.875000 0.976562
vt 0.773438 0.773438
vt 0.976562 0.773438
vt 0.875000 0.976562
vt 0.773438 0.773438
vt 0.976562 0.773438
vt 0.875000 0.976562
vt 0.773438 0.773438
vt 0.976562 0.773438
vt 0.875000 0.976562
vt 0.773438 0.773438
vt 0.976562 0.773438
vt 0.875000 0.976562
vt 0.773438 0.773438
vt 0.976562 0.773438
vt 0.875000 0.976562
vt 0.773438 0.773438
vt 0.976562 0.773438
vt 0.875000 0.976562
vt 0.773438 0.773438
vt 0.976562 0.773438
vt 0.875000 0.976562
vt 0.773438 0.773438
vt 0.976562 0.773438
vt 0.875000 0.976562
vt 0.773438 0.773438
vt 0.976562 0.773438
vt 0.875000 0.976562
vt 0.773438 0.773438
vt 0.976562 0.773438
vt 0.875000 0.976562
vt 0.773438 0.773438
vt 0.976562 0.773438
vt 0.875000 0.976562
vt 0.773438 0.773438
vt 0.976562 0.773438
vt 0.875000 0.976562
vt 0.773438 0.773438
vt 0.976562 0.773438
vt 0.875000 0.976562
vt 0.773438 0.773438
vt 0.976562 0.773438
vt 0.875000 0.976562
vt 0.773438 0.773438
vt 0.976562 0.773438
vt 0.875000 0.976562
vt 0.773438 0.773438
vt 0.976562 0.773438
vt 0.875000 0.976562
vt 0.773438 0.773438
vt 0.976562 0.773438
vt 0.875000 0.976562
vt 0.773438 0.773438
vt 0.976562 0.773438
vt 0.875000 0.976562
vt 0.773438 0.773438
vt 0.976562 0.773438
vt 0.875000 0.976562
vt 0.773438 0.773438
vt 0.976562 0.773438
vt 0.875000 0.976562
vt 0.773438 0.773438
vt 0.976562 0.773438
vt 0.875000 0.976562
vt 0.773438 0.773438
vt 0.976562 0.773438
vt 0.875000 0.976562
vt 0.773438 0.773438
vt 0.976562 0.773438
vt 0.875000 0.976562
vt 0.773438 0.773438
vt 0.976562 0.773438
vt 0.875000 0.976562
vt 0.773438 0.773438
vt 0.976562 0.773438
vt 0.875000 0.976562
vt 0.773438 0.773438
vt 0.976562 0.773438
vt 0.875000 0.976562
vt 0.773438 0.773438
vt 0.976562 0.773438
vt 0.875000 0.976562
vt 0.773438 0.773438
vt 0.976562 0.773438
vt 0.875000 0.976562
vt 0.773438 0.773438
vt 0.976562 0.773438
vt 0.875000 0.976562
vt 0.773438 0.773438
vt 0.976562 0.773438
vt 0.875000 0.976562
vt 0.773438 0.773438
vt 0.976562 0.773438
vt 0.875000 0.976562
vt 0.773438 0.773438
vt 0.976562 0.773438
vt 0.875000 0.976562
vt 0.773438 0.773438
vt 0.976562 0.773438
vt 0.875000 0.976562
vt 0.773438 0.773438
vt 0.976562 0.773438
vt 0.875000 0.976562
vt 0.773438 0.773438
vt 0.976562 0.773438
vt 0.875000 0.976562
vt 0.773438 0.773438
vt 0.976562 0.773438
vt 0.875000 0.976562
vt 0.773438 0.773438
vt 0.976562 0.773438
vt 0.875000 0.976562
vt 0.773438 0.773438
vt 0.976562 0.773438
vt 0.875000 0.976562
vt 0.773438 0.773438
vt 0.976562 0.773438
vt 0.875000 0.976562
vt 0.023438 0.523438
vt 0.226562 0.523438
vt 0.125000 0.726562
vt 0.023438 0.523438
vt 0.226562 0.523438
vt 0.125000 0.726562
vt 0.023438 0.523438
vt 0.226562 0.523438
vt 0.125000 0.726562
vt 0.023438 0.523438
vt 0.226562 0.523438
vt 0.125000 0.726562
vt 0.023438 0.523438
vt 0.226562 0.523438
vt 0.125000 0.726562
vt 0.023438 0.523438
vt 0.226562 0.523438
vt 0.125000 0.726562
vt 0.023438 0.523438
vt 0.226562 0.523438
vt 0.125000 0.726562
vt 0.023438 0.523438
vt 0.226562 0.523438
vt 0.125000 0.726562
vt 0.023438 0.523438
vt 0.226562 0.523438
vt 0.125000 0.726562
vt 0.023438 0.523438
vt 0.226562 0.523438
vt 0.125000 0.726562
vt 0.023438 0.523438
vt 0.226562 0.523438
vt 0.125000 0.726562
vt 0.023438 0.523438
vt 0.226562 0.523438
vt 0.125000 0.726562
vt 0.023438 0.523438
vt 0.226562 0.523438
vt 0.125000 0.726562
vt 0.023438 0.523438
vt 0.226562 0.523438
vt 0.125000 0.726562
vt 0.023438 0.523438
vt 0.226562 0.523438
vt 0.125000 0.726562
vt 0.023438 0.523438
vt 0.226562 0.523438
vt 0.125000 0.726562
vt 0.023438 0.523438
vt 0.226562 0.523438
vt 0.125000 0.726562
vt 0.023438 0.523438
vt 0.226562 0.523438
vt 0.125000 0.726562
vt 0.023438 0.523438
vt 0.226562 0.523438
vt 0.125000 0.726562
vt 0.023438 0.523438
vt 0.226562 0.523438
vt 0.125000 0.726562
vt 0.023438 0.523438
vt 0.226562 0.523438
vt 0.125000 0.726562
vt 0.023438 0.523438
vt 0.226562 0.523438
vt 0.125000 0.726562
vt 0.023438 0.523438
vt 0.226562 0.523438
vt 0.125000 0.726562
vt 0.023438 0.523438
vt 0.226562 0.523438
vt 0.125000 0.726562
vt 0.023438 0.523438
vt 0.226562 0.523438
vt 0.125000 0.726562
vt 0.023438 0.523438
vt 0.226562 0.523438
vt 0.125000 0.726562
vt 0.023438 0.523438
vt 0.226562 0.523438
vt 0.125000 0.726562
vt 0.023438 0.523438
vt 0.226562 0.523438
vt 0.125000 0.726562
vt 0.023438 0.523438
vt 0.226562 0.523438
vt 0.125000 0.726562
vt 0.023438 0.523438
vt 0.226562 0.523438
vt 0.125000 0.726562
vt 0.023438 0.523438
vt 0.226562 0.523438
vt 0.125000 0.726562
vt 0.023438 0.523438
vt 0.226562 0.523438
vt 0.125000 0.726562
vt 0.023438 0.523438
vt 0.226562 0.523438
vt 0.125000 0.726562
vt 0.023438 0.523438
vt 0.226562 0.523438
vt 0.125000 0.726562
vt 0.023438 0.523438
vt 0.226562 0.523438
vt 0.125000 0.726562
vt 0.023438 0.523438
vt 0.226562 0.523438
vt 0.125000 0.726562
vt 0.023438 0.523438
vt 0.226562 0.523438
vt 0.125000 0.726562
vt 0.023438 0.523438
vt 0.226562 0.523438
vt 0.125000 0.726562
vt 0.023438 0.523438
vt 0.226562 0.523438
vt 0.125000 0.726562
vt 0.023438 0.523438
vt 0.226562 0.523438
vt 0.125000 0.726562
vt 0.023438 0.523438
vt 0.226562 0.523438
vt 0.125000 0.726562
vt 0.023438 0.523438
vt 0.226562 0.523438
vt 0.125000 0.726562
vt 0.023438 0.523438
vt 0.226562 0.523438
vt 0.125000 0.726562
vt 0.023438 0.523438
vt 0.226562 0.523438
vt 0.125000 0.726562
vt 0.023438 0.523438
vt 0.226562 0.523438
vt 0.125000 0.726562
vt 0.023438 0.523438
vt 0.226562 0.523438
vt 0.125000 0.726562
vt 0.023438 0.523438
vt 0.226562 0.523438
vt 0.125000 0.726562
vt 0.023438 0.523438
vt 0.226562 0.523438
vt 0.125000 0.726562
vt 0.023438 0.523438
vt 0.226562 0.523438
vt 0.125000 0.726562
vt 0.023438 0.523438
vt 0.226562 0.523438
vt 0.125000 0.726562
vt 0.023438 0.523438
vt 0.226562 0.523438
vt 0.125000 0.726562
vt 0.023438 0.523438
vt 0.226562 0.523438
vt 0.125000 0.726562
vt 0.023438 0.523438
vt 0.226562 0.523438
vt 0.125000 0.726562
vt 0.023438 0.523438
vt 0.226562 0.523438
vt 0.125000 0.726562
vt 0.023438 0.523438
vt 0.226562 0.523438
vt 0.125000 0.726562
vt 0.023438 0.523438
vt 0.226562 0.523438
vt 0.125000 0.726562
vt 0.023438 0.523438
vt 0.226562 0.523438
vt 0.125000 0.726562
vt 0.023438 0.523438
vt 0.226562 0.523438
vt 0.125000 0.726562
vt 0.023438 0.523438
vt 0.226562 0.523438
vt 0.125000 0.726562
vt 0.023438 0.523438
vt 0.226562 0.523438
vt 0.125000 0.726562
vt 0.023438 0.523438
vt 0.226562 0.523438
vt 0.125000 0.726562
vt 0.023438 0.523438
vt 0.226562 0.523438
vt 0.125000 0.726562
vt 0.023438 0.523438
vt 0.226562 0.523438
vt 0.125000 0.726562
vt 0.023438 0.523438
vt 0.226562 0.523438
vt 0.125000 0.726562
vt 0.023438 0.523438
vt 0.226562 0.523438
vt 0.125000 0.726562
vt 0.023438 0.523438
vt 0.226562 0.523438
vt 0.125000 0.726562
vt 0.023438 0.523438
vt 0.226562 0.523438
vt 0.125000 0.726562
vt 0.023438 0.523438
vt 0.226562 0.523438
vt 0.125000 0.726562
vt 0.023438 0.523438
vt 0.226562 0.523438
vt 0.125000 0.726562
vt 0.023438 0.523438
vt 0.226562 0.523438
vt 0.125000 0.726562
vt 0.023438 0.523438
vt 0.226562 0.523438
vt 0.125000 0.726562
vt 0.023438 0.523438
vt 0.226562 0.523438
vt 0.125000 0.726562
vt 0.023438 0.523438
vt 0.226562 0.523438
vt 0.125000 0.726562
vt 0.023438 0.523438
vt 0.226562 0.523438
vt 0.125000 0.726562
vt 0.023438 0.523438
vt 0.226562 0.523438
vt 0.125000 0.726562
vt 0.023438 0.523438
vt 0.226562 0.523438
vt 0.125000 0.726562
vt 0.023438 0.523438
vt 0.226562 0.523438
vt 0.125000 0.726562
vt 0.023438 0.523438
vt 0.226562 0.523438
vt 0.125000 0.726562
vt 0.023438 0.523438
vt 0.226562 0.523438
vt 0.125000 0.726562
vt 0.023438 0.523438
vt 0.226562 0.523438
vt 0.125000 0.726562
vt 0.023438 0.523438
vt 0.226562 0.523438
vt 0.125000 0.726562
vt 0.023438 0.523438
vt 0.226562 0.523438
vt 0.125000 0.726562
vt 0.023438 0.523438
vt 0.226562 0.523438
vt 0.125000 0.726562
vt 0.023438 0.523438
vt 0.226562 0.523438
vt 0.125000 0.726562
vt 0.023438 0.523438
vt 0.226562 0.523438
vt 0.125000 0.726562
vt 0.023438 0.523438
vt 0.226562 0.523438
vt 0.125000 0.726562
vt 0.023438 0.523438
vt 0.226562 0.523438
vt 0.125000 0.726562
vt 0.023438 0.523438
vt 0.226562 0.523438
vt 0.125000 0.726562
vt 0.023438 0.523438
vt 0.226562 0.523438
vt 0.125000 0.726562
vt 0.023438 0.523438
vt 0.226562 0.523438
vt 0.125000 0.726562
vt 0.023438 0.523438
vt 0.226562 0.523438
vt 0.125000 0.726562
vt 0.023438 0.523438
vt 0.226562 0.523438
vt 0.125000 0.726562
vt 0.023438 0.523438
vt 0.226562 0.523438
vt 0.125000 0.726562
vt 0.023438 0.523438
vt 0.226562 0.523438
vt 0.125000 0.726562
vt 0.023438 0.523438
vt 0.226562 0.523438
vt 0.125000 0.726562
vt 0.023438 0.523438
vt 0.226562 0.523438
vt 0.125000 0.726562
vt 0.023438 0.523438
vt 0.226562 0.523438
vt 0.125000 0.726562
vt 0.023438 0.523438
vt 0.226562 0.523438
vt 0.125000 0.726562
vt 0.023438 0.523438
vt 0.226562 0.523438
vt 0.125000 0.726562
vt 0.023438 0.523438
vt 0.226562 0.523438
vt 0.125000 0.726562
vt 0.023438 0.523438
vt 0.226562 0.523438
vt 0.125000 0.726562
vt 0.023438 0.523438
vt 0.226562 0.523438
vt 0.125000 0.726562
vt 0.023438 0.523438
vt 0.226562 0.523438
vt 0.125000 0.726562
vt 0.023438 0.523438
vt 0.226562 0.523438
vt 0.125000 0.726562
vt 0.023438 0.523438
vt 0.226562 0.523438
vt 0.125000 0.726562
vt 0.023438 0.523438
vt 0.226562 0.523438
vt 0.125000 0.726562
vt 0.023438 0.523438
vt 0.226562 0.523438
vt 0.125000 0.726562
vt 0.023438 0.523438
vt 0.226562 0.523438
vt 0.125000 0.726562
vt 0.023438 0.523438
vt 0.226562 0.523438
vt 0.125000 0.726562
vt 0.023438 0.523438
vt 0.226562 0.523438
vt 0.125000 0.726562
vt 0.023438 0.523438
vt 0.226562 0.523438
vt 0.125000 0.726562
vt 0.023438 0.523438
vt 0.226562 0.523438
vt 0.125000 0.726562
vt 0.023438 0.523438
vt 0.226562 0.523438
vt 0.125000 0.726562
vt 0.023438 0.523438
vt 0.226562 0.523438
vt 0.125000 0.726562
vt 0.023438 0.523438
vt 0.226562 0.523438
vt 0.125000 0.726562
vt 0.023438 0.523438
vt 0.226562 0.523438
vt 0.125000 0.726562
vt 0.023438 0.523438
vt 0.226562 0.523438
vt 0.125000 0.726562
vt 0.023438 0.523438
vt 0.226562 0.523438
vt 0.125000 0.726562
vt 0.023438 0.523438
vt 0.226562 0.523438
vt 0.125000 0.726562
vt 0.023438 0.523438
vt 0.226562 0.523438
vt 0.125000 0.726562
vt 0.023438 0.523438
vt 0.226562 0.523438
vt 0.125000 0.726562
vt 0.023438 0.523438
vt 0.226562 0.523438
vt 0.125000 0.726562
vt 0.023438 0.523438
vt 0.226562 0.523438
vt 0.125000 0.726562
vt 0.023438 0.523438
vt 0.226562 0.523438
vt 0.125000 0.726562
vt 0.023438 0.523438
vt 0.226562 0.523438
vt 0.125000 0.726562
vt 0.023438 0.523438
vt 0.226562 0.523438
vt 0.125000 0.726562
vt 0.023438 0.523438
vt 0.226562 0.523438
vt 0.125000 0.726562
vt 0.023438 0.523438
vt 0.226562 0.523438
vt 0.125000 0.726562
vt 0.023438 0.523438
vt 0.226562 0.523438
vt 0.125000 0.726562
vt 0.023438 0.523438
vt 0.226562 0.523438
vt 0.125000 0.726562
vt 0.023438 0.523438
vt 0.226562 0.523438
vt 0.125000 0.726562
vt 0.023438 0.523438
vt 0.226562 0.523438
vt 0.125000 0.726562
vt 0.023438 0.523438
vt 0.226562 0.523438
vt 0.125000 0.726562
vt 0.023438 0.523438
vt 0.226562 0.523438
vt 0.125000 0.726562
vt 0.023438 0.523438
vt 0.226562 0.523438
vt 0.125000 0.726562
vt 0.023438 0.523438
vt 0.226562 0.523438
vt 0.125000 0.726562
vn -0.97443160 0.19488632 0.11181408
vn -0.97443160 0.19488632 0.11181408
vn 0.16694658 0.98577982 -0.01915679
vn 0.16694658 0.98577982 -0.01915679
vn 0.00000000 1.00000000 0.00000000
vn 0.00000000 1.00000000 0.00000000
vn -0.16675467 0.98464661 0.05161324
vn -0.16675467 0.98464661 0.05161324
vn 0.93831582 0.18766316 -0.29042376
vn 0.93831582 0.18766316 -0.29042376
vn 0.00000000 -1.00000000 0.00000000
vn 0.00000000 -1.00000000 0.00000000
vn -0.95665441 0.19133088 0.21955601
vn -0.95665441 0.19133088 0.21955601
vn 0.16685475 0.98523757 -0.03829383
vn 0.16685475 0.98523757 -0.03829383
vn 0.00000000 1.00000000 0.00000000
vn 0.00000000 1.00000000 0.00000000
vn -0.16697050 0.98592102 -0.00897767
vn -0.16697050 0.98592102 -0.00897767
vn 0.97922060 0.19584412 0.05265073
vn 0.97922060 0.19584412 0.05265073
vn 0.00000000 -1.00000000 0.00000000
vn 0.00000000 -1.00000000 0.00000000
vn -0.97916574 0.19583315 -0.05370137
vn -0.97916574 0.19583315 -0.05370137
vn 0.16697022 0.98591941 0.00915731
vn 0.16697022 0.98591941 0.00915731
vn 0.00000000 1.00000000 -0.00000000
vn 0.00000000 1.00000000 0.00000000
vn -0.16694321 0.98575993 -0.02018210
vn -0.16694321 0.98575993 -0.02018210
vn 0.97376252 0.19475250 0.11772010
vn 0.97376252 0.19475250 0.11772010
vn 0.00000000 -1.00000000 0.00000000
vn 0.00000000 -1.00000000 0.00000000
vn -0.92214056 0.18442811 -0.34006331
vn -0.92214056 0.18442811 -0.34006331
vn 0.16666155 0.98409679 0.06146078
vn 0.16666155 0.98409679 0.06146078
vn 0.00000000 1.00000000 -0.00000000
vn 0.00000000 1.00000000 0.00000000
vn -0.16697006 0.98591844 -0.00926483
vn -0.16697006 0.98591844 -0.00926483
vn 0.97913239 0.19582648 0.05433010
vn 0.97913239 0.19582648 0.05433010
vn 0.00000000 -1.00000000 0.00000000
vn 0.00000000 -1.00000000 0.00000000
vn -0.96661560 0.19332312 -0.16816792
vn -0.96661560 0.19332312 -0.16816792
vn 0.16690681 0.98554499 0.02903778
vn 0.16690681 0.98554499 0.02903778
vn 0.00000000 1.00000000 -0.00000000
vn 0.00000000 1.00000000 0.00000000
vn -0.16683159 0.98510084 -0.04175595
vn -0.16683159 0.98510084 -0.04175595
vn 0.95231873 0.19046375 0.23835395
vn 0.95231873 0.19046375 0.23835395
vn 0.00000000 -1.00000000 0.00000000
vn 0.00000000 -1.00000000 0.00000000
vn -0.97933580 0.19586716 0.05037312
vn -0.97933580 0.19586716 0.05037312
vn 0.16697107 0.98592439 -0.00858832
vn 0.16697107 0.98592439 -0.00858832
vn 0.00000000 1.00000000 0.00000000
vn 0.00000000 1.00000000 0.00000000
vn -0.16685722 0.98525218 -0.03790529
vn -0.16685722 0.98525218 -0.03790529
vn 0.95712095 0.19142419 0.21743108
vn 0.95712095 0.19142419 0.21743108
vn 0.00000000 -1.00000000 0.00000000
vn 0.00000000 -1.00000000 0.00000000
vn -0.98049364 0.19609873 -0.01332295
vn -0.98049364 0.19609873 -0.01332295
vn 0.16697679 0.98595822 0.00226888
vn 0.16697679 0.98595822 0.00226888
vn 0.00000000 1.00000000 -0.00000000
vn 0.00000000 1.00000000 0.00000000
vn -0.16689385 0.98546845 0.03159701
vn -0.16689385 0.98546845 0.03159701
vn 0.96410744 0.19282149 -0.18252868
vn 0.96410744 0.19282149 -0.18252868
vn 0.00000000 -1.00000000 0.00000000
vn 0.00000000 -1.00000000 0.00000000
vn -0.97397960 0.19479592 0.11583734
vn -0.97397960 0.19479592 0.11583734
vn 0.16694431 0.98576639 -0.01985502
vn 0.16694431 0.98576639 -0.01985502
vn 0.00000000 1.00000000 0.00000000
vn 0.00000000 1.00000000 0.00000000
vn -0.16676063 0.98468183 0.05091736
vn -0.16676063 0.98468183 0.05091736
vn 0.93938024 0.18787605 -0.28682285
vn 0.93938024 0.18787605 -0.28682285
vn 0.00000000 -1.00000000 0.00000000
vn 0.00000000 -1.00000000 0.00000000
vn 0.00000000 0.00000000 -1.00000000
vn 0.00000000 0.00000000 -1.00000000
vn 0.00000000 0.00000000 1.00000000
vn 0.00000000 0.00000000 -1.00000000
vn 0.00000000 0.00000000 1.00000000
vn 0.00000000 0.00000000 1.00000000
vn 0.00000000 0.00000000 -1.00000000
vn 0.00000000 0.00000000 1.00000000
vn 0.81153434 -0.58430473 0.00000000
vn -0.94677274 0.32190273 0.00000000
vn 0.93340515 -0.28884537 -0.21289241
vn 0.93340515 -0.28884537 0.21289241
vn -0.59842347 -0.58425119 0.54821519
vn 0.69811619 0.32189713 -0.63954361
vn -0.54599230 -0.29393268 0.78453552
vn -0.82925029 -0.29393592 0.47533738
vn 0.07094685 -0.58428612 -0.80844064
vn -0.08276850 0.32190079 0.94314859
vn -0.12525408 -0.29739801 -0.94650190
vn 0.28821795 -0.29739520 -0.91021234
vn 0.49377765 -0.58429223 0.64403899
vn -0.57605741 0.32190074 -0.75135728
vn 0.73686844 -0.28884510 0.61122288
vn 0.39898575 -0.28884605 0.87027486
vn -0.79914618 -0.58428968 -0.14131859
vn 0.93230765 0.32190294 0.16486646
vn -0.95480774 -0.29393319 0.04410743
vn -0.88176982 -0.29393458 -0.36889625
vn 0.68474279 -0.58428622 -0.43558803
vn -0.79883900 0.32190224 0.50816848
vn 0.67492228 -0.29739885 -0.67530278
vn 0.89769688 -0.29739821 -0.32510709
vn 0.81153434 -0.58430473 0.00000000
vn -0.94677274 0.32190273 0.00000000
vn 0.93340515 -0.28884537 -0.21289241
vn 0.93340515 -0.28884537 0.21289241
vn -0.59842470 -0.58428272 0.54818025
vn 0.69813638 0.32190019 -0.63952002
vn -0.54599230 -0.29393268 0.78453552
vn -0.82928727 -0.29393137 0.47527568
vn 0.07094732 -0.58427864 -0.80844601
vn -0.08276852 0.32190017 0.94314880
vn -0.12526488 -0.29739732 -0.94650068
vn 0.28819396 -0.29739678 -0.91021942
vn 0.49377765 -0.58429223 0.64403899
vn -0.57605614 0.32190689 -0.75135562
vn 0.73686307 -0.28885411 0.61122510
vn 0.39898766 -0.28885093 0.87027236
vn -0.79911015 -0.58433179 -0.14134829
vn 0.93229906 0.32190703 0.16490702
vn -0.95480774 -0.29393319 0.04410743
vn -0.88174168 -0.29392975 -0.36896737
vn 0.68473721 -0.58432230 -0.43554841
vn -0.79885720 0.32190522 0.50813798
vn 0.67492228 -0.29739885 -0.67530278
vn 0.89772484 -0.29739329 -0.32503438
vn 0.81153434 -0.58430473 0.00000000
vn -0.94677274 0.32190273 0.00000000
vn 0.93340515 -0.28884537 -0.21289241
vn 0.93340515 -0.28884537 0.21289241
vn -0.59842470 -0.58428272 0.54818025
vn 0.69813638 0.32190019 -0.63952002
vn -0.54599230 -0.29393268 0.78453552
vn -0.82928727 -0.29393137 0.47527568
vn 0.07094732 -0.58427864 -0.80844601
vn -0.08276852 0.32190017 0.94314880
vn -0.12526488 -0.29739732 -0.94650068
vn 0.28819396 -0.29739678 -0.91021942
vn 0.49377765 -0.58429223 0.64403899
vn -0.57605614 0.32190689 -0.75135562
vn 0.73686307 -0.28885411 0.61122510
vn 0.39898766 -0.28885093 0.87027236
vn -0.79911015 -0.58433179 -0.14134829
vn 0.93229906 0.32190703 0.16490702
vn -0.95480774 -0.29393319 0.04410743
vn -0.88174168 -0.29392975 -0.36896737
vn 0.68469896 -0.58435837 -0.43556014
vn -0.79883729 0.32190821 0.50816739
vn 0.67488167 -0.29739514 -0.67534499
vn 0.89772484 -0.29739329 -0.32503438
vn 0.81153434 -0.58430473 0.00000000
vn -0.94677274 0.32190273 0.00000000
vn 0.93340515 -0.28884537 -0.21289241
vn 0.93340515 -0.28884537 0.21289241
vn -0.59842347 -0.58425119 0.54821519
vn 0.69811619 0.32189713 -0.63954361
vn -0.54599230 -0.29393268 0.78453552
vn -0.82925029 -0.29393592 0.47533738
vn 0.07094685 -0.58428612 -0.80844064
vn -0.08276850 0.32190079 0.94314859
vn -0.12525408 -0.29739801 -0.94650190
vn 0.28821795 -0.29739520 -0.91021234
vn 0.49377765 -0.58429223 0.64403899
vn -0.57605741 0.32190074 -0.75135728
vn 0.73686844 -0.28884510 0.61122288
vn 0.39898575 -0.28884605 0.87027486
vn -0.79914618 -0.58428968 -0.14131859
vn 0.93230765 0.32190294 0.16486646
vn -0.95480774 -0.29393319 0.04410743
vn -0.88176982 -0.29393458 -0.36889625
vn 0.68474279 -0.58428622 -0.43558803
vn -0.79883900 0.32190224 0.50816848
vn 0.67492228 -0.29739885 -0.67530278
vn 0.89769688 -0.29739821 -0.32510709
vn 0.81153434 -0.58430473 0.00000000
vn -0.94677274 0.32190273 0.00000000
vn 0.93340515 -0.28884537 -0.21289241
vn 0.93340515 -0.28884537 0.21289241
vn -0.59842470 -0.58428272 0.54818025
vn 0.69813638 0.32190019 -0.63952002
vn -0.54599230 -0.29393268 0.78453552
vn -0.82928727 -0.29393137 0.47527568
vn 0.07095023 -0.58428238 -0.80844305
vn -0.08277218 0.32190048 0.94314837
vn -0.12526488 -0.29739732 -0.94650068
vn 0.28821795 -0.29739520 -0.91021234
vn 0.49377765 -0.58429223 0.64403899
vn -0.57605741 0.32190074 -0.75135728
vn 0.73686844 -0.28884510 0.61122288
vn 0.39898575 -0.28884605 0.87027486
vn -0.79911015 -0.58433179 -0.14134829
vn 0.93229906 0.32190703 0.16490702
vn -0.95480774 -0.29393319 0.04410743
vn -0.88174168 -0.29392975 -0.36896737
vn 0.68469896 -0.58435837 -0.43556014
vn -0.79883729 0.32190821 0.50816739
vn 0.67488167 -0.29739514 -0.67534499
vn 0.89772484 -0.29739329 -0.32503438
vn 0.81153434 -0.58430473 0.00000000
vn -0.94677274 0.32190273 0.00000000
vn 0.93340515 -0.28884537 -0.21289241
vn 0.93340515 -0.28884537 0.21289241
vn -0.59842347 -0.58425119 0.54821519
vn 0.69811619 0.32189713 -0.63954361
vn -0.54599230 -0.29393268 0.78453552
vn -0.82925029 -0.29393592 0.47533738
vn 0.07095023 -0.58428238 -0.80844305
vn -0.08277218 0.32190048 0.94314837
vn -0.12526488 -0.29739732 -0.94650068
vn 0.28821795 -0.29739520 -0.91021234
vn 0.49377765 -0.58429223 0.64403899
vn -0.57605741 0.32190074 -0.75135728
vn 0.73686844 -0.28884510 0.61122288
vn 0.39898575 -0.28884605 0.87027486
vn -0.79914618 -0.58428968 -0.14131859
vn 0.93230765 0.32190294 0.16486646
vn -0.95480774 -0.29393319 0.04410743
vn -0.88176982 -0.29393458 -0.36889625
vn 0.68474279 -0.58428622 -0.43558803
vn -0.79883900 0.32190224 0.50816848
vn 0.67492228 -0.29739885 -0.67530278
vn 0.89769688 -0.29739821 -0.32510709
vn 0.81153434 -0.58430473 0.00000000
vn -0.94677274 0.32190273 0.00000000
vn 0.93340515 -0.28884537 -0.21289241
vn 0.93340515 -0.28884537 0.21289241
vn -0.59838999 -0.58431425 0.54818453
vn 0.69811465 0.32190326 -0.63954220
vn -0.54595396 -0.29392969 0.78456332
vn -0.82928727 -0.29393137 0.47527568
vn 0.07094732 -0.58427864 -0.80844601
vn -0.08276850 0.32190079 0.94314859
vn -0.12526551 -0.29739628 -0.94650093
vn 0.28819242 -0.29739918 -0.91021912
vn 0.49377765 -0.58429223 0.64403899
vn -0.57605741 0.32190074 -0.75135728
vn 0.73686844 -0.28884510 0.61122288
vn 0.39898575 -0.28884605 0.87027486
vn -0.79911015 -0.58433179 -0.14134829
vn 0.93230180 0.32189884 0.16490751
vn -0.95481039 -0.29392373 0.04411296
vn -0.88174222 -0.29392102 -0.36897301
vn 0.68473721 -0.58432230 -0.43554841
vn -0.79885720 0.32190522 0.50813798
vn 0.67492228 -0.29739885 -0.67530278
vn 0.89772484 -0.29739329 -0.32503438
vn 0.81153434 -0.58430473 0.00000000
vn -0.94677274 0.32190273 0.00000000
vn 0.93340515 -0.28884537 -0.21289241
vn 0.93340515 -0.28884537 0.21289241
vn -0.59838999 -0.58431425 0.54818453
vn 0.69811619 0.32189713 -0.63954361
vn -0.54595238 -0.29392428 0.78456645
vn -0.82929179 -0.29392316 0.47527287
vn 0.07094732 -0.58427864 -0.80844601
vn -0.08276850 0.32190079 0.94314859
vn -0.12526551 -0.29739628 -0.94650093
vn 0.28819242 -0.29739918 -0.91021912
vn 0.49377765 -0.58429223 0.64403899
vn -0.57605741 0.32190074 -0.75135728
vn 0.73686844 -0.28884510 0.61122288
vn 0.39898575 -0.28884605 0.87027486
vn -0.79911015 -0.58433179 -0.14134829
vn 0.93230180 0.32189884 0.16490751
vn -0.95481039 -0.29392373 0.04411296
vn -0.88174222 -0.29392102 -0.36897301
vn 0.68474279 -0.58428622 -0.43558803
vn -0.79883900 0.32190224 0.50816848
vn 0.67492228 -0.29739885 -0.67530278
vn 0.89769688 -0.29739821 -0.32510709
vn -0.00000000 -1.00000000 0.00000000
vn 0.00000000 -1.00000000 0.00000000
vn 0.00000000 -1.00000000 0.00000000
vn 0.00000000 -1.00000000 0.00000000
vn 0.27207560 -0.62943404 0.72786514
vn 0.27207456 -0.62943148 0.72786774
vn -0.41133648 -0.62837111 0.66026665
vn -0.41133620 -0.62837133 0.66026661
vn -0.73323458 -0.67863539 0.04267388
vn -0.73323260 -0.67863738 0.04267611
vn -0.27182404 -0.62951331 -0.72789057
vn -0.27182145 -0.62950693 -0.72789706
vn 0.41123928 -0.62837190 -0.66032644
vn 0.41124665 -0.62836595 -0.66032751
vn 0.73341029 -0.67850918 -0.04164887
vn 0.73340674 -0.67851278 -0.04165290
vn 0.33095333 0.32644969 0.88538155
vn 0.33095527 0.32644687 0.88538187
vn -0.49994641 0.32563062 0.80250750
vn -0.49994838 0.32563579 0.80250418
vn -0.92883905 0.36651643 0.05407140
vn -0.92883253 0.36653501 0.05405758
vn -0.33066497 0.32651018 -0.88546698
vn -0.33066979 0.32650317 -0.88546777
vn 0.49982700 0.32562331 -0.80258484
vn 0.49983100 0.32563387 -0.80257807
vn 0.92895409 0.36641731 -0.05275092
vn 0.92895530 0.36641387 -0.05275348
vn 0.13325143 0.92475176 0.35648036
vn -0.16983026 0.94701734 0.27260933
vn -0.28401132 0.95867837 0.01653342
vn -0.13663897 0.92057005 -0.36589694
vn 0.25406795 0.87693524 -0.40796332
vn 0.43099371 0.90202297 -0.02447410
vn 0.00000000 -1.00000000 0.00000000
vn 0.00000000 -1.00000000 0.00000000
vn 0.00000000 -1.00000000 -0.00000000
vn 0.00000000 -1.00000000 0.00000000
vn -0.09652062 -0.61487411 0.78269637
vn -0.09652325 -0.61487106 0.78269843
vn -0.69443017 -0.66474118 0.27547397
vn -0.69442709 -0.66474369 0.27547568
vn -0.58259448 -0.65522937 -0.48089307
vn -0.58259485 -0.65522165 -0.48090314
vn 0.09659384 -0.61483683 -0.78271662
vn 0.09659563 -0.61483476 -0.78271802
vn 0.69387339 -0.66469943 -0.27697364
vn 0.69387986 -0.66469416 -0.27697005
vn 0.58201302 -0.65532720 0.48146350
vn 0.58201332 -0.65532098 0.48147161
vn -0.11614610 0.31545259 0.94180664
vn -0.11614216 0.31544511 0.94180963
vn -0.86909238 0.35469865 0.34477138
vn -0.86909123 0.35471217 0.34476038
vn -0.72333187 0.34684312 -0.59706855
vn -0.72333668 0.34683676 -0.59706641
vn 0.11623012 0.31542274 -0.94180627
vn 0.11622713 0.31541706 -0.94180854
vn 0.86837003 0.35466025 -0.34662602
vn 0.86837019 0.35465834 -0.34662757
vn 0.72267086 0.34691730 0.59782541
vn 0.72267429 0.34691277 0.59782389
vn -0.04320275 0.93563209 0.35032287
vn -0.26879496 0.95727684 0.10663171
vn -0.25367362 0.94435392 -0.20939287
vn 0.05575325 0.89039290 -0.45176549
vn 0.42430801 0.88953717 -0.16937042
vn 0.31229493 0.91418277 0.25834422
vn 0.00000000 -1.00000000 0.00000000
vn 0.00000000 -1.00000000 -0.00000000
vn 0.00000000 -1.00000000 0.00000000
vn 0.00000000 -1.00000000 0.00000000
vn -0.49874084 -0.64400673 0.58009733
vn -0.49872781 -0.64401655 0.58009762
vn -0.72300249 -0.66983716 -0.16907270
vn -0.72300596 -0.66983172 -0.16907940
vn -0.18908014 -0.61768352 -0.76335822
vn -0.18908253 -0.61768783 -0.76335414
vn 0.49924699 -0.64386373 -0.57982060
vn 0.49924341 -0.64386644 -0.57982069
vn 0.72340554 -0.66985906 0.16725211
vn 0.72339688 -0.66987256 0.16723549
vn 0.18885863 -0.61773634 0.76337031
vn 0.18885963 -0.61773814 0.76336861
vn -0.61360952 0.33783095 0.71369013
vn -0.61360585 0.33781771 0.71369956
vn -0.90883158 0.35897775 -0.21250915
vn -0.90881784 0.35900298 -0.21252526
vn -0.22798431 0.31754412 -0.92042864
vn -0.22798583 0.31754184 -0.92042905
vn 0.61415497 0.33769798 -0.71328377
vn 0.61415770 0.33770780 -0.71327678
vn 0.90935081 0.35900114 0.21023627
vn 0.90934614 0.35900973 0.21024177
vn 0.22772342 0.31758706 0.92047841
vn 0.22772762 0.31758074 0.92047955
vn -0.20006329 0.95175008 0.23269391
vn -0.28946745 0.95479176 -0.06768524
vn -0.09926198 0.91079664 -0.40074497
vn 0.30746675 0.88201365 -0.35709399
vn 0.41596054 0.90428349 0.09616750
vn 0.09121601 0.92506084 0.36870325
vn 0.00000000 -1.00000000 -0.00000000
vn 0.00000000 -1.00000000 0.00000000
vn 0.00000000 -1.00000000 0.00000000
vn 0.00000000 -1.00000000 0.00000000
vn -0.65879161 -0.66603972 0.34983525
vn -0.65877758 -0.66605046 0.34984123
vn -0.64590295 -0.65671846 -0.38926885
vn -0.64590540 -0.65670798 -0.38928247
vn 0.00347606 -0.61479498 -0.78867930
vn 0.00347225 -0.61480001 -0.78867540
vn 0.65909291 -0.66582283 -0.34968057
vn 0.65909426 -0.66582179 -0.34967999
vn 0.64646546 -0.65676557 0.38825429
vn 0.64646700 -0.65675904 0.38826278
vn -0.00347226 -0.61479454 0.78867967
vn -0.00346848 -0.61479951 0.78867581
vn -0.82540892 0.35579872 0.43830056
vn -0.82540874 0.35578354 0.43831322
vn -0.80291741 0.34807384 -0.48390932
vn -0.80292709 0.34806001 -0.48390320
vn 0.00418471 0.31539756 -0.94895040
vn 0.00418245 0.31539352 -0.94895176
vn 0.82563346 0.35559765 -0.43804076
vn 0.82563349 0.35560051 -0.43803837
vn 0.80365035 0.34810149 0.48267118
vn 0.80366232 0.34808439 0.48266359
vn -0.00418009 0.31539719 0.94895055
vn -0.00417787 0.31539322 0.94895187
vn -0.25485388 0.95746294 0.13533001
vn -0.27351869 0.94763554 -0.16484665
vn 0.00195052 0.89685916 -0.44231193
vn 0.40199734 0.89045479 -0.21328014
vn 0.35772564 0.90877504 0.21484948
vn -0.00159269 0.93234479 0.36156694
f 1/1/1 2/2/1 3/3/1
f 1/4/2 3/5/2 4/6/2
f 4/7/3 3/8/3 5/9/3
f 4/10/4 5/11/4 6/12/4
f 6/13/5 5/14/5 7/15/5
f 6/16/6 7/17/6 8/18/6
f 8/19/7 7/20/7 9/21/7
f 8/22/8 9/23/8 10/24/8
f 10/25/9 9/26/9 11/27/9
f 10/28/10 11/29/10 12/30/10
f 1/31/11 12/32/11 11/33/11
f 1/34/12 11/35/12 2/36/12
f 2/37/13 13/38/13 14/39/13
f 2/40/14 14/41/14 3/42/14
f 3/43/15 14/44/15 15/45/15
f 3/46/16 15/47/16 5/48/16
f 5/49/17 15/50/17 16/51/17
f 5/52/18 16/53/18 7/54/18
f 7/55/19 16/56/19 17/57/19
f 7/58/20 17/59/20 9/60/20
f 9/61/21 17/62/21 18/63/21
f 9/64/22 18/65/22 11/66/22
f 2/67/23 11/68/23 18/69/23
f 2/70/24 18/71/24 13/72/24
f 13/73/25 19/74/25 20/75/25
f 13/76/26 20/77/26 14/78/26
f 14/79/27 20/80/27 21/81/27
f 14/82/28 21/83/28 15/84/28
f 15/85/29 21/86/29 22/87/29
f 15/88/30 22/89/30 16/90/30
f 16/91/31 22/92/31 23/93/31
f 16/94/32 23/95/32 17/96/32
f 17/97/33 23/98/33 24/99/33
f 17/100/34 24/101/34 18/102/34
f 13/103/35 18/104/35 24/105/35
f 13/106/36 24/107/36 19/108/36
f 19/109/37 25/110/37 26/111/37
f 19/112/38 26/113/38 20/114/38
f 20/115/39 26/116/39 27/117/39
f 20/118/40 27/119/40 21/120/40
f 21/121/41 27/122/41 28/123/41
f 21/124/42 28/125/42 22/126/42
f 22/127/43 28/128/43 29/129/43
f 22/130/44 29/131/44 23/132/44
f 23/133/45 29/134/45 30/135/45
f 23/136/46 30/137/46 24/138/46
f 19/139/47 24/140/47 30/141/47
f 19/142/48 30/143/48 25/144/48
f 25/145/49 31/146/49 32/147/49
f 25/148/50 32/149/50 26/150/50
f 26/151/51 32/152/51 33/153/51
f 26/154/52 33/155/52 27/156/52
f 27/157/53 33/158/53 34/159/53
f 27/160/54 34/161/54 28/162/54
f 28/163/55 34/164/55 35/165/55
f 28/166/56 35/167/56 29/168/56
f 29/169/57 35/170/57 36/171/57
f 29/172/58 36/173/58 30/174/58
f 25/175/59 30/176/59 36/177/59
f 25/178/60 36/179/60 31/180/60
f 31/181/61 37/182/61 38/183/61
f 31/184/62 38/185/62 32/186/62
f 32/187/63 38/188/63 39/189/63
f 32/190/64 39/191/64 33/192/64
f 33/193/65 39/194/65 40/195/65
f 33/196/66 40/197/66 34/198/66
f 34/199/67 40/200/67 41/201/67
f 34/202/68 41/203/68 35/204/68
f 35/205/69 41/206/69 42/207/69
f 35/208/70 42/209/70 36/210/70
f 31/211/71 36/212/71 42/213/71
f 31/214/72 42/215/72 37/216/72
f 37/217/73 43/218/73 44/219/73
f 37/220/74 44/221/74 38/222/74
f 38/223/75 44/224/75 45/225/75
f 38/226/76 45/227/76 39/228/76
f 39/229/77 45/230/77 46/231/77
f 39/232/78 46/233/78 40/234/78
f 40/235/79 46/236/79 47/237/79
f 40/238/80 47/239/80 41/240/80
f 41/241/81 47/242/81 48/243/81
f 41/244/82 48/245/82 42/246/82
f 37/247/83 42/248/83 48/249/83
f 37/250/84 48/251/84 43/252/84
f 43/253/85 49/254/85 50/255/85
f 43/256/86 50/257/86 44/258/86
f 44/259/87 50/260/87 51/261/87
f 44/262/88 51/263/88 45/264/88
f 45/265/89 51/266/89 52/267/89
f 45/268/90 52/269/90 46/270/90
f 46/271/91 52/272/91 53/273/91
f 46/274/92 53/275/92 47/276/92
f 47/277/93 53/278/93 54/279/93
f 47/280/94 54/281/94 48/282/94
f 43/283/95 48/284/95 54/285/95
f 43/286/96 54/287/96 49/288/96
f 1/289/97 4/290/97 6/291/97
f 1/292/98 6/293/98 8/294/98
f 1/295/99 8/296/99 10/297/99
f 1/298/100 10/299/100 12/300/100
f 54/301/101 53/302/101 52/303/101
f 54/304/102 52/305/102 51/306/102
f 54/307/103 51/308/103 50/309/103
f 54/310/104 50/311/104 49/312/104
f 55/313/105 56/314/105 57/315/105
f 58/316/106 56/317/106 55/318/106
f 58/319/107 57/320/107 56/321/107
f 58/322/108 55/323/108 57/324/108
f 59/325/109 60/326/109 61/327/109
f 62/328/110 60/329/110 59/330/110
f 62/331/111 61/332/111 60/333/111
f 62/334/112 59/335/112 61/336/112
f 63/337/113 64/338/113 65/339/113
f 66/340/114 64/341/114 63/342/114
f 66/343/115 65/344/115 64/345/115
f 66/346/116 63/347/116 65/348/116
f 67/349/117 68/350/117 69/351/117
f 70/352/118 68/353/118 67/354/118
f 70/355/119 69/356/119 68/357/119
f 70/358/120 67/359/120 69/360/120
f 71/361/121 72/362/121 73/363/121
f 74/364/122 72/365/122 71/366/122
f 74/367/123 73/368/123 72/369/123
f 74/370/124 71/371/124 73/372/124
f 75/373/125 76/374/125 77/375/125
f 78/376/126 76/377/126 75/378/126
f 78/379/127 77/380/127 76/381/127
f 78/382/128 75/383/128 77/384/128
f 79/385/129 80/386/129 81/387/129
f 82/388/130 80/389/130 79/390/130
f 82/391/131 81/392/131 80/393/131
f 82/394/132 79/395/132 81/396/132
f 83/397/133 84/398/133 85/399/133
f 86/400/134 84/401/134 83/402/134
f 86/403/135 85/404/135 84/405/135
f 86/406/136 83/407/136 85/408/136
f 87/409/137 88/410/137 89/411/137
f 90/412/138 88/413/138 87/414/138
f 90/415/139 89/416/139 88/417/139
f 90/418/140 87/419/140 89/420/140
f 91/421/141 92/422/141 93/423/141
f 94/424/142 92/425/142 91/426/142
f 94/427/143 93/428/143 92/429/143
f 94/430/144 91/431/144 93/432/144
f 95/433/145 96/434/145 97/435/145
f 98/436/146 96/437/146 95/438/146
f 98/439/147 97/440/147 96/441/147
f 98/442/148 95/443/148 97/444/148
f 99/445/149 100/446/149 101/447/149
f 102/448/150 100/449/150 99/450/150
f 102/451/151 101/452/151 100/453/151
f 102/454/152 99/455/152 101/456/152
f 103/457/153 104/458/153 105/459/153
f 106/460/154 104/461/154 103/462/154
f 106/463/155 105/464/155 104/465/155
f 106/466/156 103/467/156 105/468/156
f 107/469/157 108/470/157 109/471/157
f 110/472/158 108/473/158 107/474/158
f 110/475/159 109/476/159 108/477/159
f 110/478/160 107/479/160 109/480/160
f 111/481/161 112/482/161 113/483/161
f 114/484/162 112/485/162 111/486/162
f 114/487/163 113/488/163 112/489/163
f 114/490/164 111/491/164 113/492/164
f 115/493/165 116/494/165 117/495/165
f 118/496/166 116/497/166 115/498/166
f 118/499/167 117/500/167 116/501/167
f 118/502/168 115/503/168 117/504/168
f 119/505/169 120/506/169 121/507/169
f 122/508/170 120/509/170 119/510/170
f 122/511/171 121/512/171 120/513/171
f 122/514/172 119/515/172 121/516/172
f 123/517/173 124/518/173 125/519/173
f 126/520/174 124/521/174 123/522/174
f 126/523/175 125/524/175 124/525/175
f 126/526/176 123/527/176 125/528/176
f 127/529/177 128/530/177 129/531/177
f 130/532/178 128/533/178 127/534/178
f 130/535/179 129/536/179 128/537/179
f 130/538/180 127/539/180 129/540/180
f 131/541/181 132/542/181 133/543/181
f 134/544/182 132/545/182 131/546/182
f 134/547/183 133/548/183 132/549/183
f 134/550/184 131/551/184 133/552/184
f 135/553/185 136/554/185 137/555/185
f 138/556/186 136/557/186 135/558/186
f 138/559/187 137/560/187 136/561/187
f 138/562/188 135/563/188 137/564/188
f 139/565/189 140/566/189 141/567/189
f 142/568/190 140/569/190 139/570/190
f 142/571/191 141/572/191 140/573/191
f 142/574/192 139/575/192 141/576/192
f 143/577/193 144/578/193 145/579/193
f 146/580/194 144/581/194 143/582/194
f 146/583/195 145/584/195 144/585/195
f 146/586/196 143/587/196 145/588/196
f 147/589/197 148/590/197 149/591/197
f 150/592/198 148/593/198 147/594/198
f 150/595/199 149/596/199 148/597/199
f 150/598/200 147/599/200 149/600/200
f 151/601/201 152/602/201 153/603/201
f 154/604/202 152/605/202 151/606/202
f 154/607/203 153/608/203 152/609/203
f 154/610/204 151/611/204 153/612/204
f 155/613/205 156/614/205 157/615/205
f 158/616/206 156/617/206 155/618/206
f 158/619/207 157/620/207 156/621/207
f 158/622/208 155/623/208 157/624/208
f 159/625/209 160/626/209 161/627/209
f 162/628/210 160/629/210 159/630/210
f 162/631/211 161/632/211 160/633/211
f 162/634/212 159/635/212 161/636/212
f 163/637/213 164/638/213 165/639/213
f 166/640/214 164/641/214 163/642/214
f 166/643/215 165/644/215 164/645/215
f 166/646/216 163/647/216 165/648/216
f 167/649/217 168/650/217 169/651/217
f 170/652/218 168/653/218 167/654/218
f 170/655/219 169/656/219 168/657/219
f 170/658/220 167/659/220 169/660/220
f 171/661/221 172/662/221 173/663/221
f 174/664/222 172/665/222 171/666/222
f 174/667/223 173/668/223 172/669/223
f 174/670/224 171/671/224 173/672/224
f 175/673/225 176/674/225 177/675/225
f 178/676/226 176/677/226 175/678/226
f 178/679/227 177/680/227 176/681/227
f 178/682/228 175/683/228 177/684/228
f 179/685/229 180/686/229 181/687/229
f 182/688/230 180/689/230 179/690/230
f 182/691/231 181/692/231 180/693/231
f 182/694/232 179/695/232 181/696/232
f 183/697/233 184/698/233 185/699/233
f 186/700/234 184/701/234 183/702/234
f 186/703/235 185/704/235 184/705/235
f 186/706/236 183/707/236 185/708/236
f 187/709/237 188/710/237 189/711/237
f 190/712/238 188/713/238 187/714/238
f 190/715/239 189/716/239 188/717/239
f 190/718/240 187/719/240 189/720/240
f 191/721/241 192/722/241 193/723/241
f 194/724/242 192/725/242 191/726/242
f 194/727/243 193/728/243 192/729/243
f 194/730/244 191/731/244 193/732/244
f 195/733/245 196/734/245 197/735/245
f 198/736/246 196/737/246 195/738/246
f 198/739/247 197/740/247 196/741/247
f 198/742/248 195/743/248 197/744/248
f 199/745/249 200/746/249 201/747/249
f 202/748/250 200/749/250 199/750/250
f 202/751/251 201/752/251 200/753/251
f 202/754/252 199/755/252 201/756/252
f 203/757/253 204/758/253 205/759/253
f 206/760/254 204/761/254 203/762/254
f 206/763/255 205/764/255 204/765/255
f 206/766/256 203/767/256 205/768/256
f 207/769/257 208/770/257 209/771/257
f 210/772/258 208/773/258 207/774/258
f 210/775/259 209/776/259 208/777/259
f 210/778/260 207/779/260 209/780/260
f 211/781/261 212/782/261 213/783/261
f 214/784/262 212/785/262 211/786/262
f 214/787/263 213/788/263 212/789/263
f 214/790/264 211/791/264 213/792/264
f 215/793/265 216/794/265 217/795/265
f 218/796/266 216/797/266 215/798/266
f 218/799/267 217/800/267 216/801/267
f 218/802/268 215/803/268 217/804/268
f 219/805/269 220/806/269 221/807/269
f 222/808/270 220/809/270 219/810/270
f 222/811/271 221/812/271 220/813/271
f 222/814/272 219/815/272 221/816/272
f 223/817/273 224/818/273 225/819/273
f 226/820/274 224/821/274 223/822/274
f 226/823/275 225/824/275 224/825/275
f 226/826/276 223/827/276 225/828/276
f 227/829/277 228/830/277 229/831/277
f 230/832/278 228/833/278 227/834/278
f 230/835/279 229/836/279 228/837/279
f 230/838/280 227/839/280 229/840/280
f 231/841/281 232/842/281 233/843/281
f 234/844/282 232/845/282 231/846/282
f 234/847/283 233/848/283 232/849/283
f 234/850/284 231/851/284 233/852/284
f 235/853/285 236/854/285 237/855/285
f 238/856/286 236/857/286 235/858/286
f 238/859/287 237/860/287 236/861/287
f 238/862/288 235/863/288 237/864/288
f 239/865/289 240/866/289 241/867/289
f 242/868/290 240/869/290 239/870/290
f 242/871/291 241/872/291 240/873/291
f 242/874/292 239/875/292 241/876/292
f 243/877/293 244/878/293 245/879/293
f 246/880/294 244/881/294 243/882/294
f 246/883/295 245/884/295 244/885/295
f 246/886/296 243/887/296 245/888/296
f 247/889/297 248/890/297 249/891/297
f 247/892/298 249/893/298 250/894/298
f 247/895/299 250/896/299 251/897/299
f 247/898/300 251/899/300 252/900/300
f 253/901/301 254/902/301 248/903/301
f 253/904/302 248/905/302 247/906/302
f 254/907/303 255/908/303 249/909/303
f 254/910/304 249/911/304 248/912/304
f 255/913/305 256/914/305 250/915/305
f 255/916/306 250/917/306 249/918/306
f 256/919/307 257/920/307 251/921/307
f 256/922/308 251/923/308 250/924/308
f 257/925/309 258/926/309 252/927/309
f 257/928/310 252/929/310 251/930/310
f 258/931/311 253/932/311 247/933/311
f 258/934/312 247/935/312 252/936/312
f 259/937/313 260/938/313 254/939/313
f 259/940/314 254/941/314 253/942/314
f 260/943/315 261/944/315 255/945/315
f 260/946/316 255/947/316 254/948/316
f 261/949/317 262/950/317 256/951/317
f 261/952/318 256/953/318 255/954/318
f 262/955/319 263/956/319 257/957/319
f 262/958/320 257/959/320 256/960/320
f 263/961/321 264/962/321 258/963/321
f 263/964/322 258/965/322 257/966/322
f 264/967/323 259/968/323 253/969/323
f 264/970/324 253/971/324 258/972/324
f 265/973/325 260/974/325 259/975/325
f 265/976/326 261/977/326 260/978/326
f 265/979/327 262/980/327 261/981/327
f 265/982/328 263/983/328 262/984/328
f 265/985/329 264/986/329 263/987/329
f 265/988/330 259/989/330 264/990/330
f 266/991/331 267/992/331 268/993/331
f 266/994/332 268/995/332 269/996/332
f 266/997/333 269/998/333 270/999/333
f 266/1000/334 270/1001/334 271/1002/334
f 272/1003/335 273/1004/335 267/1005/335
f 272/1006/336 267/1007/336 266/1008/336
f 273/1009/337 274/1010/337 268/1011/337
f 273/1012/338 268/1013/338 267/1014/338
f 274/1015/339 275/1016/339 269/1017/339
f 274/1018/340 269/1019/340 268/1020/340
f 275/1021/341 276/1022/341 270/1023/341
f 275/1024/342 270/1025/342 269/1026/342
f 276/1027/343 277/1028/343 271/1029/343
f 276/1030/344 271/1031/344 270/1032/344
f 277/1033/345 272/1034/345 266/1035/345
f 277/1036/346 266/1037/346 271/1038/346
f 278/1039/347 279/1040/347 273/1041/347
f 278/1042/348 273/1043/348 272/1044/348
f 279/1045/349 280/1046/349 274/1047/349
f 279/1048/350 274/1049/350 273/1050/350
f 280/1051/351 281/1052/351 275/1053/351
f 280/1054/352 275/1055/352 274/1056/352
f 281/1057/353 282/1058/353 276/1059/353
f 281/1060/354 276/1061/354 275/1062/354
f 282/1063/355 283/1064/355 277/1065/355
f 282/1066/356 277/1067/356 276/1068/356
f 283/1069/357 278/1070/357 272/1071/357
f 283/1072/358 272/1073/358 277/1074/358
f 284/1075/359 279/1076/359 278/1077/359
f 284/1078/360 280/1079/360 279/1080/360
f 284/1081/361 281/1082/361 280/1083/361
f 284/1084/362 282/1085/362 281/1086/362
f 284/1087/363 283/1088/363 282/1089/363
f 284/1090/364 278/1091/364 283/1092/364
f 285/1093/365 286/1094/365 287/1095/365
f 285/1096/366 287/1097/366 288/1098/366
f 285/1099/367 288/1100/367 289/1101/367
f 285/1102/368 289/1103/368 290/1104/368
f 291/1105/369 292/1106/369 286/1107/369
f 291/1108/370 286/1109/370 285/1110/370
f 292/1111/371 293/1112/371 287/1113/371
f 292/1114/372 287/1115/372 286/1116/372
f 293/1117/373 294/1118/373 288/1119/373
f 293/1120/374 288/1121/374 287/1122/374
f 294/1123/375 295/1124/375 289/1125/375
f 294/1126/376 289/1127/376 288/1128/376
f 295/1129/377 296/1130/377 290/1131/377
f 295/1132/378 290/1133/378 289/1134/378
f 296/1135/379 291/1136/379 285/1137/379
f 296/1138/380 285/1139/380 290/1140/380
f 297/1141/381 298/1142/381 292/1143/381
f 297/1144/382 292/1145/382 291/1146/382
f 298/1147/383 299/1148/383 293/1149/383
f 298/1150/384 293/1151/384 292/1152/384
f 299/1153/385 300/1154/385 294/1155/385
f 299/1156/386 294/1157/386 293/1158/386
f 300/1159/387 301/1160/387 295/1161/387
f 300/1162/388 295/1163/388 294/1164/388
f 301/1165/389 302/1166/389 296/1167/389
f 301/1168/390 296/1169/390 295/1170/390
f 302/1171/391 297/1172/391 291/1173/391
f 302/1174/392 291/1175/392 296/1176/392
f 303/1177/393 298/1178/393 297/1179/393
f 303/1180/394 299/1181/394 298/1182/394
f 303/1183/395 300/1184/395 299/1185/395
f 303/1186/396 301/1187/396 300/1188/396
f 303/1189/397 302/1190/397 301/1191/397
f 303/1192/398 297/1193/398 302/1194/398
f 304/1195/399 305/1196/399 306/1197/399
f 304/1198/400 306/1199/400 307/1200/400
f 304/1201/401 307/1202/401 308/1203/401
f 304/1204/402 308/1205/402 309/1206/402
f 310/1207/403 311/1208/403 305/1209/403
f 310/1210/404 305/1211/404 304/1212/404
f 311/1213/405 312/1214/405 306/1215/405
f 311/1216/406 306/1217/406 305/1218/406
f 312/1219/407 313/1220/407 307/1221/407
f 312/1222/408 307/1223/408 306/1224/408
f 313/1225/409 314/1226/409 308/1227/409
f 313/1228/410 308/1229/410 307/1230/410
f 314/1231/411 315/1232/411 309/1233/411
f 314/1234/412 309/1235/412 308/1236/412
f 315/1237/413 310/1238/413 304/1239/413
f 315/1240/414 304/1241/414 309/1242/414
f 316/1243/415 317/1244/415 311/1245/415
f 316/1246/416 311/1247/416 310/1248/416
f 317/1249/417 318/1250/417 312/1251/417
f 317/1252/418 312/1253/418 311/1254/418
f 318/1255/419 319/1256/419 313/1257/419
f 318/1258/420 313/1259/420 312/1260/420
f 319/1261/421 320/1262/421 314/1263/421
f 319/1264/422 314/1265/422 313/1266/422
f 320/1267/423 321/1268/423 315/1269/423
f 320/1270/424 315/1271/424 314/1272/424
f 321/1273/425 316/1274/425 310/1275/425
f 321/1276/426 310/1277/426 315/1278/426
f 322/1279/427 317/1280/427 316/1281/427
f 322/1282/428 318/1283/428 317/1284/428
f 322/1285/429 319/1286/429 318/1287/429
f 322/1288/430 320/1289/430 319/1290/430
f 322/1291/431 321/1292/431 320/1293/431
f 322/1294/432 316/1295/432 321/1296/432
