mtllib TorusNature_TreeA.mtl
o TorusNature_TreeA
usemtl TorusNatureKit
s off
v 0.079915 0.000000 0.000000
v 0.039957 0.001844 -0.069282
v 0.051227 0.652709 -0.036806
v 0.072455 0.651729 0.000000
v -0.039957 0.005533 -0.069282
v 0.008773 0.654668 -0.036806
v -0.079915 0.007377 -0.000000
v -0.012455 0.655648 -0.000000
v -0.039957 0.005533 0.069282
v 0.008773 0.654668 0.036806
v 0.039957 0.001844 0.069282
v 0.051227 0.652709 0.036806
v 0.042182 0.425736 0.000000
v 0.027358 0.416233 -0.030248
v -0.345145 0.858617 0.025617
v -0.339321 0.862350 0.037500
v 0.000176 0.394185 -0.030248
v -0.355824 0.849955 0.025617
v -0.012182 0.381640 -0.000000
v -0.360679 0.845027 0.037500
v 0.002642 0.391144 0.030248
v -0.354855 0.848760 0.049383
v 0.029824 0.413192 0.030248
v -0.344176 0.857422 0.049383
v 0.053748 0.508725 0.000000
v 0.041334 0.521528 -0.030116
v 0.343917 0.975875 0.050669
v 0.348794 0.970845 0.062500
v 0.012586 0.541492 -0.030116
v 0.332623 0.983718 0.050669
v -0.003748 0.548652 -0.000000
v 0.326206 0.986531 0.062500
v 0.008666 0.535848 0.030116
v 0.331083 0.981501 0.074331
v 0.037414 0.515885 0.030116
v 0.342377 0.973658 0.074331
v 0.064997 0.603211 0.000000
v 0.047307 0.589410 -0.026863
v 0.044299 1.148079 -0.298053
v 0.051249 1.153501 -0.287500
v 0.012310 0.589888 -0.026863
v 0.030550 1.148267 -0.298053
v -0.004997 0.604166 -0.000000
v 0.023751 1.153876 -0.287500
v 0.012693 0.617966 0.026863
v 0.030701 1.159298 -0.276947
v 0.047690 0.617489 0.026863
v 0.044450 1.159110 -0.276947
v 0.058099 0.640066 0.000000
v 0.035694 0.651411 -0.024379
v -0.108299 1.037615 0.302923
v -0.099497 1.033158 0.312500
v 0.002595 0.640033 -0.024379
v -0.121302 1.033145 0.302923
v -0.008099 0.617311 -0.000000
v -0.125503 1.024219 0.312500
v 0.014306 0.605966 0.024379
v -0.116701 1.019762 0.322077
v 0.047405 0.617344 0.024379
v -0.103698 1.024232 0.322077
v -0.133090 0.660163 0.020000
v -0.142484 0.642443 -0.008684
v -0.404636 1.029181 -0.148769
v -0.400946 1.036143 -0.137500
v -0.171894 0.623469 -0.008684
v -0.416191 1.021727 -0.148769
v -0.191910 0.622214 0.020000
v -0.424054 1.021234 -0.137500
v -0.182516 0.639933 0.048684
v -0.420364 1.028195 -0.126231
v -0.153106 0.658908 0.048684
v -0.408809 1.035650 -0.126231
v -0.174000 0.791188 0.050000
v -0.218855 0.791188 0.173037
v -0.362500 0.791188 0.224000
v -0.495991 0.791188 0.173037
v -0.565498 0.791188 0.050000
v -0.485237 0.791188 -0.073037
v -0.362500 0.791188 -0.124000
v -0.219065 0.791188 -0.073037
v -0.037500 0.957438 0.050000
v -0.114837 0.957438 0.262132
v -0.362500 0.957438 0.350000
v -0.592657 0.957438 0.262132
v -0.712497 0.957438 0.050000
v -0.574115 0.957438 -0.162132
v -0.362500 0.957438 -0.250000
v -0.115198 0.957438 -0.162132
v -0.109000 1.161688 0.050000
v -0.169323 1.161688 0.215463
v -0.362500 1.161688 0.284000
v -0.542023 1.161688 0.215463
v -0.635498 1.161688 0.050000
v -0.527560 1.161688 -0.115463
v -0.362500 1.161688 -0.184000
v -0.169604 1.161688 -0.115463
v -0.313750 1.266188 0.026000
v 0.507541 0.878688 0.086272
v 0.426106 0.878688 0.195982
v 0.275200 0.878688 0.220177
v 0.144947 0.878688 0.144685
v 0.108514 0.878688 0.013728
v 0.215178 0.878688 -0.095982
v 0.354192 0.878688 -0.120177
v 0.487311 0.878688 -0.044685
v 0.648778 1.053688 0.112538
v 0.508372 1.053688 0.301693
v 0.248189 1.053688 0.343409
v 0.023615 1.053688 0.213251
v -0.039200 1.053688 -0.012538
v 0.144703 1.053688 -0.201693
v 0.384383 1.053688 -0.243409
v 0.613899 1.053688 -0.113251
v 0.574797 1.268688 0.098780
v 0.465280 1.268688 0.246320
v 0.262338 1.268688 0.278859
v 0.087170 1.268688 0.177336
v 0.038174 1.268688 0.001220
v 0.181618 1.268688 -0.146320
v 0.368568 1.268688 -0.178859
v 0.547591 1.268688 -0.077336
v 0.363125 1.378688 0.026000
v 0.217159 1.003688 -0.148137
v 0.101338 1.003688 -0.048944
v -0.050357 1.003688 -0.052883
v -0.171817 1.003688 -0.157645
v -0.169842 1.003688 -0.301863
v -0.041027 1.003688 -0.401056
v 0.111040 1.003688 -0.397117
v 0.224063 1.003688 -0.292355
v 0.356309 1.178688 -0.092478
v 0.156617 1.178688 0.078544
v -0.104926 1.178688 0.071754
v -0.314340 1.178688 -0.108871
v -0.310935 1.178688 -0.357522
v -0.088839 1.178688 -0.528544
v 0.173345 1.178688 -0.521754
v 0.368212 1.178688 -0.341129
v 0.283421 1.393688 -0.121633
v 0.127661 1.393688 0.011764
v -0.076343 1.393688 0.006468
v -0.239685 1.393688 -0.134419
v -0.237029 1.393688 -0.328367
v -0.063794 1.393688 -0.461764
v 0.140709 1.393688 -0.456468
v 0.292705 1.393688 -0.315581
v 0.077500 1.503688 -0.251000
v 0.048052 0.941188 0.373240
v -0.072100 0.941188 0.439741
v -0.193349 0.941188 0.409739
v -0.281227 0.941188 0.300808
v -0.245463 0.941188 0.176760
v -0.124529 0.941188 0.110259
v 0.008194 0.941188 0.140261
v 0.077613 0.941188 0.249192
v 0.155261 1.107438 0.444379
v -0.051896 1.107438 0.559036
v -0.260946 1.107438 0.507308
v -0.412460 1.107438 0.319497
v -0.350799 1.107438 0.105621
v -0.142291 1.107438 -0.009036
v 0.086542 1.107438 0.042692
v 0.206229 1.107438 0.230503
v 0.099104 1.311688 0.407116
v -0.062479 1.311688 0.496548
v -0.225538 1.311688 0.456200
v -0.343719 1.311688 0.309708
v -0.295623 1.311688 0.142884
v -0.132987 1.311688 0.053452
v 0.045503 1.311688 0.093800
v 0.138858 1.311688 0.240292
v -0.055000 1.416188 0.252000
v -0.241568 0.972438 -0.043729
v -0.358459 0.972438 -0.003238
v -0.453711 0.972438 -0.056040
v -0.512363 0.972438 -0.171205
v -0.453302 0.972438 -0.281271
v -0.342395 0.972438 -0.321762
v -0.228805 0.972438 -0.268960
v -0.195690 0.972438 -0.153795
v -0.163049 1.116813 0.042277
v -0.364584 1.116813 0.112090
v -0.528812 1.116813 0.021052
v -0.629937 1.116813 -0.177508
v -0.528106 1.116813 -0.367277
v -0.336888 1.116813 -0.437090
v -0.141044 1.116813 -0.346052
v -0.083948 1.116813 -0.147492
v -0.204178 1.294188 -0.002774
v -0.361376 1.294188 0.051680
v -0.489474 1.294188 -0.019329
v -0.568351 1.294188 -0.174206
v -0.488923 1.294188 -0.322226
v -0.339772 1.294188 -0.376680
v -0.187014 1.294188 -0.305671
v -0.142479 1.294188 -0.150794
v -0.310625 1.384938 -0.184500
v 0.126947 1.184938 0.213354
v -0.006076 1.184938 0.228949
v -0.095961 1.184938 0.154363
v -0.136131 1.184938 0.033287
v -0.045282 1.184938 -0.063354
v 0.077772 1.184938 -0.078949
v 0.193646 1.184938 -0.004363
v 0.197838 1.184938 0.116713
v 0.191719 1.320563 0.313541
v -0.037632 1.320563 0.340429
v -0.192606 1.320563 0.211832
v -0.261863 1.320563 0.003081
v -0.105227 1.320563 -0.163541
v 0.106935 1.320563 -0.190429
v 0.306718 1.320563 -0.061832
v 0.313945 1.320563 0.146919
v 0.157791 1.487188 0.261062
v -0.021103 1.487188 0.282035
v -0.141982 1.487188 0.181729
v -0.196003 1.487188 0.018903
v -0.073827 1.487188 -0.111062
v 0.091659 1.487188 -0.132035
v 0.247490 1.487188 -0.031729
v 0.253127 1.487188 0.131097
v 0.080625 1.572438 0.053000
v 0.132772 0.753688 0.219956
v -0.002965 0.753688 0.210423
v -0.079730 0.753688 0.121561
v -0.093100 0.753688 0.005424
v 0.022904 0.753688 -0.069956
v 0.149350 0.753688 -0.060423
v 0.255004 0.753688 0.028439
v 0.226295 0.753688 0.144576
v 0.174607 0.867438 0.324924
v -0.059422 0.867438 0.308487
v -0.191776 0.867438 0.155277
v -0.214828 0.867438 -0.044958
v -0.014821 0.867438 -0.174924
v 0.203190 0.867438 -0.158487
v 0.385352 0.867438 -0.005277
v 0.335853 0.867438 0.194958
v 0.152693 1.007188 0.269940
v -0.029849 1.007188 0.257120
v -0.133085 1.007188 0.137616
v -0.151066 1.007188 -0.018568
v 0.004940 1.007188 -0.119940
v 0.174988 1.007188 -0.107120
v 0.317075 1.007188 0.012384
v 0.278466 1.007188 0.168568
v 0.120000 1.078688 0.054000
vt 0.023438 0.773438
vt 0.226562 0.773438
vt 0.125000 0.976562
vt 0.023438 0.773438
vt 0.226562 0.773438
vt 0.125000 0.976562
vt 0.023438 0.773438
vt 0.226562 0.773438
vt 0.125000 0.976562
vt 0.023438 0.773438
vt 0.226562 0.773438
vt 0.125000 0.976562
vt 0.023438 0.773438
vt 0.226562 0.773438
vt 0.125000 0.976562
vt 0.023438 0.773438
vt 0.226562 0.773438
vt 0.125000 0.976562
vt 0.023438 0.773438
vt 0.226562 0.773438
vt 0.125000 0.976562
vt 0.023438 0.773438
vt 0.226562 0.773438
vt 0.125000 0.976562
vt 0.023438 0.773438
vt 0.226562 0.773438
vt 0.125000 0.976562
vt 0.023438 0.773438
vt 0.226562 0.773438
vt 0.125000 0.976562
vt 0.023438 0.773438
vt 0.226562 0.773438
vt 0.125000 0.976562
vt 0.023438 0.773438
vt 0.226562 0.773438
vt 0.125000 0.976562
vt 0.023438 0.773438
vt 0.226562 0.773438
vt 0.125000 0.976562
vt 0.023438 0.773438
vt 0.226562 0.773438
vt 0.125000 0.976562
vt 0.023438 0.773438
vt 0.226562 0.773438
vt 0.125000 0.976562
vt 0.023438 0.773438
vt 0.226562 0.773438
vt 0.125000 0.976562
vt 0.023438 0.773438
vt 0.226562 0.773438
vt 0.125000 0.976562
vt 0.023438 0.773438
vt 0.226562 0.773438
vt 0.125000 0.976562
vt 0.023438 0.773438
vt 0.226562 0.773438
vt 0.125000 0.976562
vt 0.023438 0.773438
vt 0.226562 0.773438
vt 0.125000 0.976562
vt 0.023438 0.773438
vt 0.226562 0.773438
vt 0.125000 0.976562
vt 0.023438 0.773438
vt 0.226562 0.773438
vt 0.125000 0.976562
vt 0.023438 0.773438
vt 0.226562 0.773438
vt 0.125000 0.976562
vt 0.023438 0.773438
vt 0.226562 0.773438
vt 0.125000 0.976562
vt 0.023438 0.773438
vt 0.226562 0.773438
vt 0.125000 0.976562
vt 0.023438 0.773438
vt 0.226562 0.773438
vt 0.125000 0.976562
vt 0.023438 0.773438
vt 0.226562 0.773438
vt 0.125000 0.976562
vt 0.023438 0.773438
vt 0.226562 0.773438
vt 0.125000 0.976562
vt 0.023438 0.773438
vt 0.226562 0.773438
vt 0.125000 0.976562
vt 0.023438 0.773438
vt 0.226562 0.773438
vt 0.125000 0.976562
vt 0.023438 0.773438
vt 0.226562 0.773438
vt 0.125000 0.976562
vt 0.023438 0.773438
vt 0.226562 0.773438
vt 0.125000 0.976562
vt 0.023438 0.773438
vt 0.226562 0.773438
vt 0.125000 0.976562
vt 0.023438 0.773438
vt 0.226562 0.773438
vt 0.125000 0.976562
vt 0.023438 0.773438
vt 0.226562 0.773438
vt 0.125000 0.976562
vt 0.023438 0.773438
vt 0.226562 0.773438
vt 0.125000 0.976562
vt 0.023438 0.773438
vt 0.226562 0.773438
vt 0.125000 0.976562
vt 0.023438 0.773438
vt 0.226562 0.773438
vt 0.125000 0.976562
vt 0.023438 0.773438
vt 0.226562 0.773438
vt 0.125000 0.976562
vt 0.023438 0.773438
vt 0.226562 0.773438
vt 0.125000 0.976562
vt 0.023438 0.773438
vt 0.226562 0.773438
vt 0.125000 0.976562
vt 0.023438 0.773438
vt 0.226562 0.773438
vt 0.125000 0.976562
vt 0.023438 0.773438
vt 0.226562 0.773438
vt 0.125000 0.976562
vt 0.023438 0.773438
vt 0.226562 0.773438
vt 0.125000 0.976562
vt 0.023438 0.773438
vt 0.226562 0.773438
vt 0.125000 0.976562
vt 0.023438 0.773438
vt 0.226562 0.773438
vt 0.125000 0.976562
vt 0.023438 0.773438
vt 0.226562 0.773438
vt 0.125000 0.976562
vt 0.023438 0.773438
vt 0.226562 0.773438
vt 0.125000 0.976562
vt 0.023438 0.773438
vt 0.226562 0.773438
vt 0.125000 0.976562
vt 0.023438 0.773438
vt 0.226562 0.773438
vt 0.125000 0.976562
vt 0.023438 0.773438
vt 0.226562 0.773438
vt 0.125000 0.976562
vt 0.023438 0.773438
vt 0.226562 0.773438
vt 0.125000 0.976562
vt 0.023438 0.773438
vt 0.226562 0.773438
vt 0.125000 0.976562
vt 0.023438 0.773438
vt 0.226562 0.773438
vt 0.125000 0.976562
vt 0.023438 0.773438
vt 0.226562 0.773438
vt 0.125000 0.976562
vt 0.023438 0.773438
vt 0.226562 0.773438
vt 0.125000 0.976562
vt 0.023438 0.773438
vt 0.226562 0.773438
vt 0.125000 0.976562
vt 0.023438 0.773438
vt 0.226562 0.773438
vt 0.125000 0.976562
vt 0.023438 0.773438
vt 0.226562 0.773438
vt 0.125000 0.976562
vt 0.023438 0.773438
vt 0.226562 0.773438
vt 0.125000 0.976562
vt 0.023438 0.773438
vt 0.226562 0.773438
vt 0.125000 0.976562
vt 0.023438 0.773438
vt 0.226562 0.773438
vt 0.125000 0.976562
vt 0.023438 0.773438
vt 0.226562 0.773438
vt 0.125000 0.976562
vt 0.023438 0.773438
vt 0.226562 0.773438
vt 0.125000 0.976562
vt 0.023438 0.773438
vt 0.226562 0.773438
vt 0.125000 0.976562
vt 0.023438 0.773438
vt 0.226562 0.773438
vt 0.125000 0.976562
vt 0.023438 0.773438
vt 0.226562 0.773438
vt 0.125000 0.976562
vt 0.023438 0.773438
vt 0.226562 0.773438
vt 0.125000 0.976562
vt 0.023438 0.773438
vt 0.226562 0.773438
vt 0.125000 0.976562
vt 0.023438 0.773438
vt 0.226562 0.773438
vt 0.125000 0.976562
vt 0.023438 0.773438
vt 0.226562 0.773438
vt 0.125000 0.976562
vt 0.023438 0.773438
vt 0.226562 0.773438
vt 0.125000 0.976562
vt 0.023438 0.773438
vt 0.226562 0.773438
vt 0.125000 0.976562
vt 0.023438 0.773438
vt 0.226562 0.773438
vt 0.125000 0.976562
vt 0.023438 0.773438
vt 0.226562 0.773438
vt 0.125000 0.976562
vt 0.023438 0.773438
vt 0.226562 0.773438
vt 0.125000 0.976562
vt 0.023438 0.773438
vt 0.226562 0.773438
vt 0.125000 0.976562
vt 0.023438 0.773438
vt 0.226562 0.773438
vt 0.125000 0.976562
vt 0.023438 0.773438
vt 0.226562 0.773438
vt 0.125000 0.976562
vt 0.023438 0.773438
vt 0.226562 0.773438
vt 0.125000 0.976562
vt 0.023438 0.773438
vt 0.226562 0.773438
vt 0.125000 0.976562
vt 0.023438 0.773438
vt 0.226562 0.773438
vt 0.125000 0.976562
vt 0.023438 0.773438
vt 0.226562 0.773438
vt 0.125000 0.976562
vt 0.023438 0.773438
vt 0.226562 0.773438
vt 0.125000 0.976562
vt 0.023438 0.773438
vt 0.226562 0.773438
vt 0.125000 0.976562
vt 0.023438 0.773438
vt 0.226562 0.773438
vt 0.125000 0.976562
vt 0.023438 0.773438
vt 0.226562 0.773438
vt 0.125000 0.976562
vt 0.023438 0.773438
vt 0.226562 0.773438
vt 0.125000 0.976562
vt 0.023438 0.773438
vt 0.226562 0.773438
vt 0.125000 0.976562
vt 0.023438 0.773438
vt 0.226562 0.773438
vt 0.125000 0.976562
vt 0.023438 0.773438
vt 0.226562 0.773438
vt 0.125000 0.976562
vt 0.023438 0.773438
vt 0.226562 0.773438
vt 0.125000 0.976562
vt 0.023438 0.773438
vt 0.226562 0.773438
vt 0.125000 0.976562
vt 0.023438 0.773438
vt 0.226562 0.773438
vt 0.125000 0.976562
vt 0.023438 0.773438
vt 0.226562 0.773438
vt 0.125000 0.976562
vt 0.023438 0.773438
vt 0.226562 0.773438
vt 0.125000 0.976562
vt 0.023438 0.773438
vt 0.226562 0.773438
vt 0.125000 0.976562
vt 0.023438 0.773438
vt 0.226562 0.773438
vt 0.125000 0.976562
vt 0.023438 0.773438
vt 0.226562 0.773438
vt 0.125000 0.976562
vt 0.023438 0.773438
vt 0.226562 0.773438
vt 0.125000 0.976562
vt 0.023438 0.773438
vt 0.226562 0.773438
vt 0.125000 0.976562
vt 0.023438 0.773438
vt 0.226562 0.773438
vt 0.125000 0.976562
vt 0.023438 0.773438
vt 0.226562 0.773438
vt 0.125000 0.976562
vt 0.023438 0.773438
vt 0.226562 0.773438
vt 0.125000 0.976562
vt 0.023438 0.773438
vt 0.226562 0.773438
vt 0.125000 0.976562
vt 0.023438 0.773438
vt 0.226562 0.773438
vt 0.125000 0.976562
vt 0.023438 0.773438
vt 0.226562 0.773438
vt 0.125000 0.976562
vt 0.023438 0.773438
vt 0.226562 0.773438
vt 0.125000 0.976562
vt 0.023438 0.773438
vt 0.226562 0.773438
vt 0.125000 0.976562
vt 0.023438 0.773438
vt 0.226562 0.773438
vt 0.125000 0.976562
vt 0.023438 0.773438
vt 0.226562 0.773438
vt 0.125000 0.976562
vt 0.023438 0.773438
vt 0.226562 0.773438
vt 0.125000 0.976562
vt 0.023438 0.773438
vt 0.226562 0.773438
vt 0.125000 0.976562
vt 0.023438 0.773438
vt 0.226562 0.773438
vt 0.125000 0.976562
vt 0.023438 0.773438
vt 0.226562 0.773438
vt 0.125000 0.976562
vt 0.023438 0.773438
vt 0.226562 0.773438
vt 0.125000 0.976562
vt 0.023438 0.773438
vt 0.226562 0.773438
vt 0.125000 0.976562
vt 0.023438 0.773438
vt 0.226562 0.773438
vt 0.125000 0.976562
vt 0.023438 0.773438
vt 0.226562 0.773438
vt 0.125000 0.976562
vt 0.023438 0.773438
vt 0.226562 0.773438
vt 0.125000 0.976562
vt 0.523438 0.773438
vt 0.726562 0.773438
vt 0.625000 0.976562
vt 0.523438 0.773438
vt 0.726562 0.773438
vt 0.625000 0.976562
vt 0.523438 0.773438
vt 0.726562 0.773438
vt 0.625000 0.976562
vt 0.523438 0.773438
vt 0.726562 0.773438
vt 0.625000 0.976562
vt 0.523438 0.773438
vt 0.726562 0.773438
vt 0.625000 0.976562
vt 0.523438 0.773438
vt 0.726562 0.773438
vt 0.625000 0.976562
vt 0.523438 0.773438
vt 0.726562 0.773438
vt 0.625000 0.976562
vt 0.523438 0.773438
vt 0.726562 0.773438
vt 0.625000 0.976562
vt 0.523438 0.773438
vt 0.726562 0.773438
vt 0.625000 0.976562
vt 0.523438 0.773438
vt 0.726562 0.773438
vt 0.625000 0.976562
vt 0.523438 0.773438
vt 0.726562 0.773438
vt 0.625000 0.976562
vt 0.523438 0.773438
vt 0.726562 0.773438
vt 0.625000 0.976562
vt 0.523438 0.773438
vt 0.726562 0.773438
vt 0.625000 0.976562
vt 0.523438 0.773438
vt 0.726562 0.773438
vt 0.625000 0.976562
vt 0.523438 0.773438
vt 0.726562 0.773438
vt 0.625000 0.976562
vt 0.523438 0.773438
vt 0.726562 0.773438
vt 0.625000 0.976562
vt 0.523438 0.773438
vt 0.726562 0.773438
vt 0.625000 0.976562
vt 0.523438 0.773438
vt 0.726562 0.773438
vt 0.625000 0.976562
vt 0.523438 0.773438
vt 0.726562 0.773438
vt 0.625000 0.976562
vt 0.523438 0.773438
vt 0.726562 0.773438
vt 0.625000 0.976562
vt 0.523438 0.773438
vt 0.726562 0.773438
vt 0.625000 0.976562
vt 0.523438 0.773438
vt 0.726562 0.773438
vt 0.625000 0.976562
vt 0.523438 0.773438
vt 0.726562 0.773438
vt 0.625000 0.976562
vt 0.523438 0.773438
vt 0.726562 0.773438
vt 0.625000 0.976562
vt 0.523438 0.773438
vt 0.726562 0.773438
vt 0.625000 0.976562
vt 0.523438 0.773438
vt 0.726562 0.773438
vt 0.625000 0.976562
vt 0.523438 0.773438
vt 0.726562 0.773438
vt 0.625000 0.976562
vt 0.523438 0.773438
vt 0.726562 0.773438
vt 0.625000 0.976562
vt 0.523438 0.773438
vt 0.726562 0.773438
vt 0.625000 0.976562
vt 0.523438 0.773438
vt 0.726562 0.773438
vt 0.625000 0.976562
vt 0.523438 0.773438
vt 0.726562 0.773438
vt 0.625000 0.976562
vt 0.523438 0.773438
vt 0.726562 0.773438
vt 0.625000 0.976562
vt 0.523438 0.773438
vt 0.726562 0.773438
vt 0.625000 0.976562
vt 0.523438 0.773438
vt 0.726562 0.773438
vt 0.625000 0.976562
vt 0.523438 0.773438
vt 0.726562 0.773438
vt 0.625000 0.976562
vt 0.523438 0.773438
vt 0.726562 0.773438
vt 0.625000 0.976562
vt 0.523438 0.773438
vt 0.726562 0.773438
vt 0.625000 0.976562
vt 0.523438 0.773438
vt 0.726562 0.773438
vt 0.625000 0.976562
vt 0.523438 0.773438
vt 0.726562 0.773438
vt 0.625000 0.976562
vt 0.523438 0.773438
vt 0.726562 0.773438
vt 0.625000 0.976562
vt 0.523438 0.773438
vt 0.726562 0.773438
vt 0.625000 0.976562
vt 0.523438 0.773438
vt 0.726562 0.773438
vt 0.625000 0.976562
vt 0.523438 0.773438
vt 0.726562 0.773438
vt 0.625000 0.976562
vt 0.523438 0.773438
vt 0.726562 0.773438
vt 0.625000 0.976562
vt 0.523438 0.773438
vt 0.726562 0.773438
vt 0.625000 0.976562
vt 0.523438 0.773438
vt 0.726562 0.773438
vt 0.625000 0.976562
vt 0.273438 0.773438
vt 0.476562 0.773438
vt 0.375000 0.976562
vt 0.273438 0.773438
vt 0.476562 0.773438
vt 0.375000 0.976562
vt 0.273438 0.773438
vt 0.476562 0.773438
vt 0.375000 0.976562
vt 0.273438 0.773438
vt 0.476562 0.773438
vt 0.375000 0.976562
vt 0.273438 0.773438
vt 0.476562 0.773438
vt 0.375000 0.976562
vt 0.273438 0.773438
vt 0.476562 0.773438
vt 0.375000 0.976562
vt 0.273438 0.773438
vt 0.476562 0.773438
vt 0.375000 0.976562
vt 0.273438 0.773438
vt 0.476562 0.773438
vt 0.375000 0.976562
vt 0.273438 0.773438
vt 0.476562 0.773438
vt 0.375000 0.976562
vt 0.273438 0.773438
vt 0.476562 0.773438
vt 0.375000 0.976562
vt 0.273438 0.773438
vt 0.476562 0.773438
vt 0.375000 0.976562
vt 0.273438 0.773438
vt 0.476562 0.773438
vt 0.375000 0.976562
vt 0.273438 0.773438
vt 0.476562 0.773438
vt 0.375000 0.976562
vt 0.273438 0.773438
vt 0.476562 0.773438
vt 0.375000 0.976562
vt 0.273438 0.773438
vt 0.476562 0.773438
vt 0.375000 0.976562
vt 0.273438 0.773438
vt 0.476562 0.773438
vt 0.375000 0.976562
vt 0.273438 0.773438
vt 0.476562 0.773438
vt 0.375000 0.976562
vt 0.273438 0.773438
vt 0.476562 0.773438
vt 0.375000 0.976562
vt 0.273438 0.773438
vt 0.476562 0.773438
vt 0.375000 0.976562
vt 0.273438 0.773438
vt 0.476562 0.773438
vt 0.375000 0.976562
vt 0.273438 0.773438
vt 0.476562 0.773438
vt 0.375000 0.976562
vt 0.273438 0.773438
vt 0.476562 0.773438
vt 0.375000 0.976562
vt 0.273438 0.773438
vt 0.476562 0.773438
vt 0.375000 0.976562
vt 0.273438 0.773438
vt 0.476562 0.773438
vt 0.375000 0.976562
vt 0.273438 0.773438
vt 0.476562 0.773438
vt 0.375000 0.976562
vt 0.273438 0.773438
vt 0.476562 0.773438
vt 0.375000 0.976562
vt 0.273438 0.773438
vt 0.476562 0.773438
vt 0.375000 0.976562
vt 0.273438 0.773438
vt 0.476562 0.773438
vt 0.375000 0.976562
vt 0.273438 0.773438
vt 0.476562 0.773438
vt 0.375000 0.976562
vt 0.273438 0.773438
vt 0.476562 0.773438
vt 0.375000 0.976562
vt 0.273438 0.773438
vt 0.476562 0.773438
vt 0.375000 0.976562
vt 0.273438 0.773438
vt 0.476562 0.773438
vt 0.375000 0.976562
vt 0.273438 0.773438
vt 0.476562 0.773438
vt 0.375000 0.976562
vt 0.273438 0.773438
vt 0.476562 0.773438
vt 0.375000 0.976562
vt 0.273438 0.773438
vt 0.476562 0.773438
vt 0.375000 0.976562
vt 0.273438 0.773438
vt 0.476562 0.773438
vt 0.375000 0.976562
vt 0.273438 0.773438
vt 0.476562 0.773438
vt 0.375000 0.976562
vt 0.273438 0.773438
vt 0.476562 0.773438
vt 0.375000 0.976562
vt 0.273438 0.773438
vt 0.476562 0.773438
vt 0.375000 0.976562
vt 0.273438 0.773438
vt 0.476562 0.773438
vt 0.375000 0.976562
vt 0.273438 0.773438
vt 0.476562 0.773438
vt 0.375000 0.976562
vt 0.273438 0.773438
vt 0.476562 0.773438
vt 0.375000 0.976562
vt 0.273438 0.773438
vt 0.476562 0.773438
vt 0.375000 0.976562
vt 0.273438 0.773438
vt 0.476562 0.773438
vt 0.375000 0.976562
vt 0.273438 0.773438
vt 0.476562 0.773438
vt 0.375000 0.976562
vt 0.273438 0.773438
vt 0.476562 0.773438
vt 0.375000 0.976562
vt 0.273438 0.773438
vt 0.476562 0.773438
vt 0.375000 0.976562
vt 0.273438 0.773438
vt 0.476562 0.773438
vt 0.375000 0.976562
vt 0.273438 0.773438
vt 0.476562 0.773438
vt 0.375000 0.976562
vt 0.273438 0.773438
vt 0.476562 0.773438
vt 0.375000 0.976562
vt 0.273438 0.773438
vt 0.476562 0.773438
vt 0.375000 0.976562
vt 0.273438 0.773438
vt 0.476562 0.773438
vt 0.375000 0.976562
vt 0.273438 0.773438
vt 0.476562 0.773438
vt 0.375000 0.976562
vt 0.273438 0.773438
vt 0.476562 0.773438
vt 0.375000 0.976562
vt 0.273438 0.773438
vt 0.476562 0.773438
vt 0.375000 0.976562
vt 0.273438 0.773438
vt 0.476562 0.773438
vt 0.375000 0.976562
vt 0.273438 0.773438
vt 0.476562 0.773438
vt 0.375000 0.976562
vt 0.273438 0.773438
vt 0.476562 0.773438
vt 0.375000 0.976562
vt 0.273438 0.773438
vt 0.476562 0.773438
vt 0.375000 0.976562
vt 0.273438 0.773438
vt 0.476562 0.773438
vt 0.375000 0.976562
vt 0.273438 0.773438
vt 0.476562 0.773438
vt 0.375000 0.976562
vt 0.273438 0.773438
vt 0.476562 0.773438
vt 0.375000 0.976562
vt 0.273438 0.773438
vt 0.476562 0.773438
vt 0.375000 0.976562
vt 0.273438 0.773438
vt 0.476562 0.773438
vt 0.375000 0.976562
vt 0.273438 0.773438
vt 0.476562 0.773438
vt 0.375000 0.976562
vt 0.273438 0.773438
vt 0.476562 0.773438
vt 0.375000 0.976562
vt 0.273438 0.773438
vt 0.476562 0.773438
vt 0.375000 0.976562
vt 0.273438 0.773438
vt 0.476562 0.773438
vt 0.375000 0.976562
vt 0.273438 0.773438
vt 0.476562 0.773438
vt 0.375000 0.976562
vt 0.273438 0.773438
vt 0.476562 0.773438
vt 0.375000 0.976562
vt 0.273438 0.773438
vt 0.476562 0.773438
vt 0.375000 0.976562
vt 0.273438 0.773438
vt 0.476562 0.773438
vt 0.375000 0.976562
vt 0.273438 0.773438
vt 0.476562 0.773438
vt 0.375000 0.976562
vt 0.273438 0.773438
vt 0.476562 0.773438
vt 0.375000 0.976562
vt 0.273438 0.773438
vt 0.476562 0.773438
vt 0.375000 0.976562
vt 0.273438 0.773438
vt 0.476562 0.773438
vt 0.375000 0.976562
vt 0.273438 0.773438
vt 0.476562 0.773438
vt 0.375000 0.976562
vt 0.273438 0.773438
vt 0.476562 0.773438
vt 0.375000 0.976562
vt 0.273438 0.773438
vt 0.476562 0.773438
vt 0.375000 0.976562
vt 0.273438 0.773438
vt 0.476562 0.773438
vt 0.375000 0.976562
vt 0.273438 0.773438
vt 0.476562 0.773438
vt 0.375000 0.976562
vt 0.273438 0.773438
vt 0.476562 0.773438
vt 0.375000 0.976562
vt 0.273438 0.773438
vt 0.476562 0.773438
vt 0.375000 0.976562
vt 0.273438 0.773438
vt 0.476562 0.773438
vt 0.375000 0.976562
vt 0.273438 0.773438
vt 0.476562 0.773438
vt 0.375000 0.976562
vt 0.273438 0.773438
vt 0.476562 0.773438
vt 0.375000 0.976562
vt 0.273438 0.773438
vt 0.476562 0.773438
vt 0.375000 0.976562
vt 0.273438 0.773438
vt 0.476562 0.773438
vt 0.375000 0.976562
vt 0.273438 0.773438
vt 0.476562 0.773438
vt 0.375000 0.976562
vt 0.273438 0.773438
vt 0.476562 0.773438
vt 0.375000 0.976562
vt 0.273438 0.773438
vt 0.476562 0.773438
vt 0.375000 0.976562
vt 0.273438 0.773438
vt 0.476562 0.773438
vt 0.375000 0.976562
vt 0.523438 0.773438
vt 0.726562 0.773438
vt 0.625000 0.976562
vt 0.523438 0.773438
vt 0.726562 0.773438
vt 0.625000 0.976562
vt 0.523438 0.773438
vt 0.726562 0.773438
vt 0.625000 0.976562
vt 0.523438 0.773438
vt 0.726562 0.773438
vt 0.625000 0.976562
vt 0.523438 0.773438
vt 0.726562 0.773438
vt 0.625000 0.976562
vt 0.523438 0.773438
vt 0.726562 0.773438
vt 0.625000 0.976562
vt 0.523438 0.773438
vt 0.726562 0.773438
vt 0.625000 0.976562
vt 0.523438 0.773438
vt 0.726562 0.773438
vt 0.625000 0.976562
vt 0.523438 0.773438
vt 0.726562 0.773438
vt 0.625000 0.976562
vt 0.523438 0.773438
vt 0.726562 0.773438
vt 0.625000 0.976562
vt 0.523438 0.773438
vt 0.726562 0.773438
vt 0.625000 0.976562
vt 0.523438 0.773438
vt 0.726562 0.773438
vt 0.625000 0.976562
vt 0.523438 0.773438
vt 0.726562 0.773438
vt 0.625000 0.976562
vt 0.523438 0.773438
vt 0.726562 0.773438
vt 0.625000 0.976562
vt 0.523438 0.773438
vt 0.726562 0.773438
vt 0.625000 0.976562
vt 0.523438 0.773438
vt 0.726562 0.773438
vt 0.625000 0.976562
vt 0.523438 0.773438
vt 0.726562 0.773438
vt 0.625000 0.976562
vt 0.523438 0.773438
vt 0.726562 0.773438
vt 0.625000 0.976562
vt 0.523438 0.773438
vt 0.726562 0.773438
vt 0.625000 0.976562
vt 0.523438 0.773438
vt 0.726562 0.773438
vt 0.625000 0.976562
vt 0.523438 0.773438
vt 0.726562 0.773438
vt 0.625000 0.976562
vt 0.523438 0.773438
vt 0.726562 0.773438
vt 0.625000 0.976562
vt 0.523438 0.773438
vt 0.726562 0.773438
vt 0.625000 0.976562
vt 0.523438 0.773438
vt 0.726562 0.773438
vt 0.625000 0.976562
vt 0.523438 0.773438
vt 0.726562 0.773438
vt 0.625000 0.976562
vt 0.523438 0.773438
vt 0.726562 0.773438
vt 0.625000 0.976562
vt 0.523438 0.773438
vt 0.726562 0.773438
vt 0.625000 0.976562
vt 0.523438 0.773438
vt 0.726562 0.773438
vt 0.625000 0.976562
vt 0.523438 0.773438
vt 0.726562 0.773438
vt 0.625000 0.976562
vt 0.523438 0.773438
vt 0.726562 0.773438
vt 0.625000 0.976562
vt 0.523438 0.773438
vt 0.726562 0.773438
vt 0.625000 0.976562
vt 0.523438 0.773438
vt 0.726562 0.773438
vt 0.625000 0.976562
vt 0.523438 0.773438
vt 0.726562 0.773438
vt 0.625000 0.976562
vt 0.523438 0.773438
vt 0.726562 0.773438
vt 0.625000 0.976562
vt 0.523438 0.773438
vt 0.726562 0.773438
vt 0.625000 0.976562
vt 0.523438 0.773438
vt 0.726562 0.773438
vt 0.625000 0.976562
vt 0.523438 0.773438
vt 0.726562 0.773438
vt 0.625000 0.976562
vt 0.523438 0.773438
vt 0.726562 0.773438
vt 0.625000 0.976562
vt 0.523438 0.773438
vt 0.726562 0.773438
vt 0.625000 0.976562
vt 0.523438 0.773438
vt 0.726562 0.773438
vt 0.625000 0.976562
vt 0.523438 0.773438
vt 0.726562 0.773438
vt 0.625000 0.976562
vt 0.523438 0.773438
vt 0.726562 0.773438
vt 0.625000 0.976562
vt 0.523438 0.773438
vt 0.726562 0.773438
vt 0.625000 0.976562
vt 0.523438 0.773438
vt 0.726562 0.773438
vt 0.625000 0.976562
vt 0.523438 0.773438
vt 0.726562 0.773438
vt 0.625000 0.976562
vt 0.523438 0.773438
vt 0.726562 0.773438
vt 0.625000 0.976562
vt 0.273438 0.773438
vt 0.476562 0.773438
vt 0.375000 0.976562
vt 0.273438 0.773438
vt 0.476562 0.773438
vt 0.375000 0.976562
vt 0.273438 0.773438
vt 0.476562 0.773438
vt 0.375000 0.976562
vt 0.273438 0.773438
vt 0.476562 0.773438
vt 0.375000 0.976562
vt 0.273438 0.773438
vt 0.476562 0.773438
vt 0.375000 0.976562
vt 0.273438 0.773438
vt 0.476562 0.773438
vt 0.375000 0.976562
vt 0.273438 0.773438
vt 0.476562 0.773438
vt 0.375000 0.976562
vt 0.273438 0.773438
vt 0.476562 0.773438
vt 0.375000 0.976562
vt 0.273438 0.773438
vt 0.476562 0.773438
vt 0.375000 0.976562
vt 0.273438 0.773438
vt 0.476562 0.773438
vt 0.375000 0.976562
vt 0.273438 0.773438
vt 0.476562 0.773438
vt 0.375000 0.976562
vt 0.273438 0.773438
vt 0.476562 0.773438
vt 0.375000 0.976562
vt 0.273438 0.773438
vt 0.476562 0.773438
vt 0.375000 0.976562
vt 0.273438 0.773438
vt 0.476562 0.773438
vt 0.375000 0.976562
vt 0.273438 0.773438
vt 0.476562 0.773438
vt 0.375000 0.976562
vt 0.273438 0.773438
vt 0.476562 0.773438
vt 0.375000 0.976562
vt 0.273438 0.773438
vt 0.476562 0.773438
vt 0.375000 0.976562
vt 0.273438 0.773438
vt 0.476562 0.773438
vt 0.375000 0.976562
vt 0.273438 0.773438
vt 0.476562 0.773438
vt 0.375000 0.976562
vt 0.273438 0.773438
vt 0.476562 0.773438
vt 0.375000 0.976562
vt 0.273438 0.773438
vt 0.476562 0.773438
vt 0.375000 0.976562
vt 0.273438 0.773438
vt 0.476562 0.773438
vt 0.375000 0.976562
vt 0.273438 0.773438
vt 0.476562 0.773438
vt 0.375000 0.976562
vt 0.273438 0.773438
vt 0.476562 0.773438
vt 0.375000 0.976562
vt 0.273438 0.773438
vt 0.476562 0.773438
vt 0.375000 0.976562
vt 0.273438 0.773438
vt 0.476562 0.773438
vt 0.375000 0.976562
vt 0.273438 0.773438
vt 0.476562 0.773438
vt 0.375000 0.976562
vt 0.273438 0.773438
vt 0.476562 0.773438
vt 0.375000 0.976562
vt 0.273438 0.773438
vt 0.476562 0.773438
vt 0.375000 0.976562
vt 0.273438 0.773438
vt 0.476562 0.773438
vt 0.375000 0.976562
vt 0.273438 0.773438
vt 0.476562 0.773438
vt 0.375000 0.976562
vt 0.273438 0.773438
vt 0.476562 0.773438
vt 0.375000 0.976562
vt 0.273438 0.773438
vt 0.476562 0.773438
vt 0.375000 0.976562
vt 0.273438 0.773438
vt 0.476562 0.773438
vt 0.375000 0.976562
vt 0.273438 0.773438
vt 0.476562 0.773438
vt 0.375000 0.976562
vt 0.273438 0.773438
vt 0.476562 0.773438
vt 0.375000 0.976562
vt 0.273438 0.773438
vt 0.476562 0.773438
vt 0.375000 0.976562
vt 0.273438 0.773438
vt 0.476562 0.773438
vt 0.375000 0.976562
vt 0.273438 0.773438
vt 0.476562 0.773438
vt 0.375000 0.976562
vt 0.273438 0.773438
vt 0.476562 0.773438
vt 0.375000 0.976562
vt 0.273438 0.773438
vt 0.476562 0.773438
vt 0.375000 0.976562
vt 0.273438 0.773438
vt 0.476562 0.773438
vt 0.375000 0.976562
vt 0.273438 0.773438
vt 0.476562 0.773438
vt 0.375000 0.976562
vt 0.273438 0.773438
vt 0.476562 0.773438
vt 0.375000 0.976562
vt 0.273438 0.773438
vt 0.476562 0.773438
vt 0.375000 0.976562
vt 0.273438 0.773438
vt 0.476562 0.773438
vt 0.375000 0.976562
vt 0.273438 0.773438
vt 0.476562 0.773438
vt 0.375000 0.976562
vt 0.273438 0.773438
vt 0.476562 0.773438
vt 0.375000 0.976562
vt 0.273438 0.773438
vt 0.476562 0.773438
vt 0.375000 0.976562
vt 0.273438 0.773438
vt 0.476562 0.773438
vt 0.375000 0.976562
vt 0.273438 0.773438
vt 0.476562 0.773438
vt 0.375000 0.976562
vt 0.273438 0.773438
vt 0.476562 0.773438
vt 0.375000 0.976562
vt 0.273438 0.773438
vt 0.476562 0.773438
vt 0.375000 0.976562
vt 0.273438 0.773438
vt 0.476562 0.773438
vt 0.375000 0.976562
vt 0.273438 0.773438
vt 0.476562 0.773438
vt 0.375000 0.976562
vt 0.273438 0.773438
vt 0.476562 0.773438
vt 0.375000 0.976562
vt 0.273438 0.773438
vt 0.476562 0.773438
vt 0.375000 0.976562
vt 0.273438 0.773438
vt 0.476562 0.773438
vt 0.375000 0.976562
vt 0.273438 0.773438
vt 0.476562 0.773438
vt 0.375000 0.976562
vt 0.273438 0.773438
vt 0.476562 0.773438
vt 0.375000 0.976562
vt 0.273438 0.773438
vt 0.476562 0.773438
vt 0.375000 0.976562
vt 0.273438 0.773438
vt 0.476562 0.773438
vt 0.375000 0.976562
vt 0.273438 0.773438
vt 0.476562 0.773438
vt 0.375000 0.976562
vt 0.273438 0.773438
vt 0.476562 0.773438
vt 0.375000 0.976562
vt 0.273438 0.773438
vt 0.476562 0.773438
vt 0.375000 0.976562
vt 0.273438 0.773438
vt 0.476562 0.773438
vt 0.375000 0.976562
vt 0.273438 0.773438
vt 0.476562 0.773438
vt 0.375000 0.976562
vt 0.273438 0.773438
vt 0.476562 0.773438
vt 0.375000 0.976562
vt 0.273438 0.773438
vt 0.476562 0.773438
vt 0.375000 0.976562
vt 0.273438 0.773438
vt 0.476562 0.773438
vt 0.375000 0.976562
vt 0.273438 0.773438
vt 0.476562 0.773438
vt 0.375000 0.976562
vt 0.273438 0.773438
vt 0.476562 0.773438
vt 0.375000 0.976562
vt 0.273438 0.773438
vt 0.476562 0.773438
vt 0.375000 0.976562
vt 0.273438 0.773438
vt 0.476562 0.773438
vt 0.375000 0.976562
vt 0.273438 0.773438
vt 0.476562 0.773438
vt 0.375000 0.976562
vt 0.273438 0.773438
vt 0.476562 0.773438
vt 0.375000 0.976562
vt 0.273438 0.773438
vt 0.476562 0.773438
vt 0.375000 0.976562
vt 0.273438 0.773438
vt 0.476562 0.773438
vt 0.375000 0.976562
vt 0.273438 0.773438
vt 0.476562 0.773438
vt 0.375000 0.976562
vt 0.273438 0.773438
vt 0.476562 0.773438
vt 0.375000 0.976562
vt 0.273438 0.773438
vt 0.476562 0.773438
vt 0.375000 0.976562
vt 0.273438 0.773438
vt 0.476562 0.773438
vt 0.375000 0.976562
vt 0.273438 0.773438
vt 0.476562 0.773438
vt 0.375000 0.976562
vt 0.273438 0.773438
vt 0.476562 0.773438
vt 0.375000 0.976562
vt 0.273438 0.773438
vt 0.476562 0.773438
vt 0.375000 0.976562
vt 0.273438 0.773438
vt 0.476562 0.773438
vt 0.375000 0.976562
vt 0.273438 0.773438
vt 0.476562 0.773438
vt 0.375000 0.976562
vt 0.273438 0.773438
vt 0.476562 0.773438
vt 0.375000 0.976562
vt 0.273438 0.773438
vt 0.476562 0.773438
vt 0.375000 0.976562
vt 0.273438 0.773438
vt 0.476562 0.773438
vt 0.375000 0.976562
vt 0.273438 0.773438
vt 0.476562 0.773438
vt 0.375000 0.976562
vt 0.273438 0.773438
vt 0.476562 0.773438
vt 0.375000 0.976562
vt 0.523438 0.773438
vt 0.726562 0.773438
vt 0.625000 0.976562
vt 0.523438 0.773438
vt 0.726562 0.773438
vt 0.625000 0.976562
vt 0.523438 0.773438
vt 0.726562 0.773438
vt 0.625000 0.976562
vt 0.523438 0.773438
vt 0.726562 0.773438
vt 0.625000 0.976562
vt 0.523438 0.773438
vt 0.726562 0.773438
vt 0.625000 0.976562
vt 0.523438 0.773438
vt 0.726562 0.773438
vt 0.625000 0.976562
vt 0.523438 0.773438
vt 0.726562 0.773438
vt 0.625000 0.976562
vt 0.523438 0.773438
vt 0.726562 0.773438
vt 0.625000 0.976562
vt 0.523438 0.773438
vt 0.726562 0.773438
vt 0.625000 0.976562
vt 0.523438 0.773438
vt 0.726562 0.773438
vt 0.625000 0.976562
vt 0.523438 0.773438
vt 0.726562 0.773438
vt 0.625000 0.976562
vt 0.523438 0.773438
vt 0.726562 0.773438
vt 0.625000 0.976562
vt 0.523438 0.773438
vt 0.726562 0.773438
vt 0.625000 0.976562
vt 0.523438 0.773438
vt 0.726562 0.773438
vt 0.625000 0.976562
vt 0.523438 0.773438
vt 0.726562 0.773438
vt 0.625000 0.976562
vt 0.523438 0.773438
vt 0.726562 0.773438
vt 0.625000 0.976562
vt 0.523438 0.773438
vt 0.726562 0.773438
vt 0.625000 0.976562
vt 0.523438 0.773438
vt 0.726562 0.773438
vt 0.625000 0.976562
vt 0.523438 0.773438
vt 0.726562 0.773438
vt 0.625000 0.976562
vt 0.523438 0.773438
vt 0.726562 0.773438
vt 0.625000 0.976562
vt 0.523438 0.773438
vt 0.726562 0.773438
vt 0.625000 0.976562
vt 0.523438 0.773438
vt 0.726562 0.773438
vt 0.625000 0.976562
vt 0.523438 0.773438
vt 0.726562 0.773438
vt 0.625000 0.976562
vt 0.523438 0.773438
vt 0.726562 0.773438
vt 0.625000 0.976562
vt 0.523438 0.773438
vt 0.726562 0.773438
vt 0.625000 0.976562
vt 0.523438 0.773438
vt 0.726562 0.773438
vt 0.625000 0.976562
vt 0.523438 0.773438
vt 0.726562 0.773438
vt 0.625000 0.976562
vt 0.523438 0.773438
vt 0.726562 0.773438
vt 0.625000 0.976562
vt 0.523438 0.773438
vt 0.726562 0.773438
vt 0.625000 0.976562
vt 0.523438 0.773438
vt 0.726562 0.773438
vt 0.625000 0.976562
vt 0.523438 0.773438
vt 0.726562 0.773438
vt 0.625000 0.976562
vt 0.523438 0.773438
vt 0.726562 0.773438
vt 0.625000 0.976562
vt 0.523438 0.773438
vt 0.726562 0.773438
vt 0.625000 0.976562
vt 0.523438 0.773438
vt 0.726562 0.773438
vt 0.625000 0.976562
vt 0.523438 0.773438
vt 0.726562 0.773438
vt 0.625000 0.976562
vt 0.523438 0.773438
vt 0.726562 0.773438
vt 0.625000 0.976562
vt 0.523438 0.773438
vt 0.726562 0.773438
vt 0.625000 0.976562
vt 0.523438 0.773438
vt 0.726562 0.773438
vt 0.625000 0.976562
vt 0.523438 0.773438
vt 0.726562 0.773438
vt 0.625000 0.976562
vt 0.523438 0.773438
vt 0.726562 0.773438
vt 0.625000 0.976562
vt 0.523438 0.773438
vt 0.726562 0.773438
vt 0.625000 0.976562
vt 0.523438 0.773438
vt 0.726562 0.773438
vt 0.625000 0.976562
vt 0.523438 0.773438
vt 0.726562 0.773438
vt 0.625000 0.976562
vt 0.523438 0.773438
vt 0.726562 0.773438
vt 0.625000 0.976562
vt 0.523438 0.773438
vt 0.726562 0.773438
vt 0.625000 0.976562
vt 0.523438 0.773438
vt 0.726562 0.773438
vt 0.625000 0.976562
vn 0.86632422 0.00991682 -0.49938363
vn 0.86632071 0.00991632 -0.49938972
vn 0.00229864 0.04979490 -0.99875682
vn 0.00229774 0.04979486 -0.99875682
vn -0.86172793 0.08967263 -0.49938341
vn -0.86172394 0.08967319 -0.49939020
vn -0.86172789 0.08967314 0.49938339
vn -0.86172403 0.08967222 0.49939022
vn 0.00229864 0.04979484 0.99875682
vn 0.00229774 0.04979497 0.99875682
vn 0.86632422 0.00991636 0.49938364
vn 0.86632071 0.00991718 0.49938970
vn -0.04611302 -0.99893623 0.00000787
vn -0.04610621 -0.99893654 -0.00000394
vn -0.04611302 -0.99893623 -0.00000000
vn -0.04609939 -0.99893686 -0.00000000
vn 0.04609501 0.99893706 0.00001232
vn 0.04610567 0.99893657 -0.00000616
vn 0.04610567 0.99893657 0.00000616
vn 0.04609501 0.99893706 -0.00001232
vn 0.63201763 0.59489767 -0.49663918
vn 0.63201589 0.59489634 -0.49664299
vn -0.06057977 0.07468610 -0.99536530
vn -0.06057975 0.07468612 -0.99536530
vn -0.71249930 -0.49565276 -0.49666194
vn -0.71250104 -0.49565484 -0.49665738
vn -0.67183915 -0.54578999 0.50074489
vn -0.67184327 -0.54579218 0.50073697
vn 0.02074993 -0.02558167 0.99945736
vn 0.02074992 -0.02558167 0.99945736
vn 0.67267649 0.54476106 0.50074117
vn 0.67267319 0.54475822 0.50074870
vn 0.62863456 -0.77501563 -0.06457056
vn 0.62864238 -0.77500770 -0.06458969
vn 0.62863404 -0.77501499 -0.06458331
vn 0.62861684 -0.77502894 -0.06458331
vn -0.62863186 0.77501265 0.06463264
vn -0.62861196 0.77503285 0.06458393
vn -0.62861063 0.77503122 0.06461641
vn -0.62863450 0.77501592 0.06456770
vn 0.76215043 -0.41996740 -0.49270083
vn 0.76214217 -0.41996021 -0.49271974
vn 0.08351909 0.12026682 -0.98922215
vn 0.08351835 0.12026728 -0.98922215
vn -0.65972066 0.56744566 -0.49272109
vn -0.65971102 0.56744235 -0.49273781
vn -0.72433930 0.47440437 0.50027300
vn -0.72433626 0.47440067 0.50028090
vn -0.04570987 -0.06582514 0.99678366
vn -0.04571099 -0.06582429 0.99678366
vn 0.69752626 -0.51300527 0.50028263
vn 0.69751769 -0.51300060 0.50029936
vn -0.56670159 -0.81608663 -0.11336630
vn -0.56671247 -0.81608186 -0.11334624
vn -0.56672248 -0.81607584 -0.11333956
vn -0.56670333 -0.81608914 -0.11333955
vn 0.56671724 0.81607860 0.11334590
vn 0.56671724 0.81607860 0.11334590
vn 0.56671724 0.81607860 0.11334590
vn 0.56671724 0.81607860 0.11334590
vn 0.86276586 -0.21702552 -0.45665632
vn 0.86275058 -0.21703851 -0.45667902
vn -0.00596471 -0.43670900 -0.89958306
vn -0.00597144 -0.43670914 -0.89958294
vn -0.86836347 -0.19341945 -0.45665502
vn -0.86836227 -0.19342035 -0.45665691
vn -0.86204582 0.26955746 0.42920365
vn -0.86203513 0.26956510 0.42922033
vn 0.00666819 0.48923838 0.87212461
vn 0.00668970 0.48923735 0.87212502
vn 0.86907974 0.24594730 0.42919732
vn 0.86907846 0.24594844 0.42919925
vn -0.01207831 -0.88617316 0.46319677
vn -0.01209083 -0.88616283 0.46321620
vn -0.01210344 -0.88615927 0.46322268
vn -0.01207812 -0.88615962 0.46322268
vn 0.01211678 0.88613655 -0.46326580
vn 0.01208492 0.88616284 -0.46321634
vn 0.01208468 0.88614560 -0.46324931
vn 0.01211726 0.88617102 -0.46319985
vn 0.71281973 0.58875970 -0.38111683
vn 0.71281146 0.58876353 -0.38112639
vn -0.20220117 0.58821029 -0.78302193
vn -0.20220648 0.58820825 -0.78302209
vn -0.92416106 0.02604511 -0.38111414
vn -0.92416123 0.02604470 -0.38111374
vn -0.73110738 -0.53555782 0.42268171
vn -0.73109775 -0.53556314 0.42269161
vn 0.18391235 -0.53500745 0.82458673
vn 0.18391730 -0.53500596 0.82458659
vn 0.90587302 0.02715683 0.42267786
vn 0.90587329 0.02715734 0.42267726
vn 0.26146141 -0.76060040 -0.59424318
vn 0.26145477 -0.76061451 -0.59422805
vn 0.26146384 -0.76060745 -0.59423309
vn 0.26144329 -0.76061452 -0.59423309
vn -0.26146247 0.76058088 0.59426769
vn -0.26144557 0.76061680 0.59422916
vn -0.26143940 0.76059885 0.59425485
vn -0.26147481 0.76061678 0.59421632
vn 0.79538626 0.36346846 -0.48502718
vn 0.79539203 0.36348150 -0.48500796
vn 0.15573356 -0.24138948 -0.95785081
vn 0.15572265 -0.24139727 -0.95785062
vn -0.65901592 -0.57485132 -0.48501956
vn -0.65903350 -0.57485378 -0.48499275
vn -0.83410910 -0.30345718 0.46062539
vn -0.83412100 -0.30347614 0.46059135
vn -0.19446170 0.30140282 0.93345647
vn -0.19445874 0.30140453 0.93345654
vn 0.62029460 0.63486920 0.46062535
vn 0.62031289 0.63486912 0.46060083
vn 0.51304832 -0.79519110 0.32319116
vn 0.51303533 -0.79519192 0.32320978
vn 0.51302464 -0.79519630 0.32321599
vn 0.51304373 -0.79518398 0.32321599
vn -0.51297171 0.79519562 -0.32330165
vn -0.51304746 0.79519087 -0.32319310
vn -0.51304576 0.79518824 -0.32320228
vn -0.51304125 0.79519674 -0.32318852
vn 0.00000000 -1.00000000 0.00000000
vn 0.00000000 -1.00000000 0.00000000
vn 0.00000000 -1.00000000 0.00000000
vn -0.00000000 -1.00000000 0.00000000
vn 0.00000000 -1.00000000 0.00000000
vn 0.00000000 -1.00000000 0.00000000
vn 0.74390417 -0.61078170 0.27120527
vn 0.74390367 -0.61078406 0.27120134
vn 0.27208805 -0.58123097 0.76690198
vn 0.27208583 -0.58122831 0.76690479
vn -0.29108721 -0.57786185 0.76245913
vn -0.29108471 -0.57786352 0.76245881
vn -0.68990707 -0.61001894 0.38975008
vn -0.68990910 -0.61001753 0.38974871
vn -0.67307571 -0.59513315 -0.43907361
vn -0.67307570 -0.59513657 -0.43906897
vn -0.31416703 -0.57343633 -0.75661738
vn -0.31416469 -0.57343398 -0.75662013
vn 0.27245605 -0.58116696 -0.76681984
vn 0.27245387 -0.58116845 -0.76681948
vn 0.74364704 -0.61057336 -0.27237705
vn 0.74364704 -0.61057335 -0.27237704
vn 0.89248179 0.31242395 0.32537292
vn 0.89248218 0.31242338 0.32537238
vn 0.31986439 0.29132523 0.90156330
vn 0.31986435 0.29132527 0.90156330
vn -0.34144549 0.28899889 0.89436828
vn -0.34144644 0.28900004 0.89436755
vn -0.82724820 0.31185941 0.46733726
vn -0.82724801 0.31185843 0.46733827
vn -0.79868141 0.30109025 -0.52101119
vn -0.79868146 0.30109020 -0.52101115
vn -0.36746608 0.28596697 -0.88498112
vn -0.36746692 0.28596622 -0.88498101
vn 0.32028269 0.29128077 -0.90142915
vn 0.32028341 0.29128170 -0.90142859
vn 0.89204115 0.31226900 -0.32672720
vn 0.89204099 0.31226695 -0.32672959
vn 0.43408553 0.88686251 0.15825497
vn 0.13989896 0.90826366 0.39431638
vn -0.13370986 0.92706944 0.35023411
vn -0.29342390 0.94150132 0.16576394
vn -0.31614520 0.92602365 -0.20623390
vn -0.16913705 0.89747868 -0.40733853
vn 0.16701261 0.86669278 -0.47005362
vn 0.46371052 0.86955503 -0.16984288
vn 0.00000000 -1.00000000 0.00000000
vn 0.00000000 -1.00000000 0.00000000
vn -0.00000000 -1.00000000 0.00000000
vn 0.00000000 -1.00000000 0.00000000
vn 0.00000000 -1.00000000 0.00000000
vn 0.00000000 -1.00000000 0.00000000
vn 0.64622778 -0.59354425 0.47968205
vn 0.64622820 -0.59354619 0.47967909
vn 0.13146758 -0.55711296 0.81996428
vn 0.13146634 -0.55711177 0.81996529
vn -0.41337507 -0.56605327 0.71323540
vn -0.41337673 -0.56605218 0.71323531
vn -0.76224458 -0.61156729 0.21205813
vn -0.76224267 -0.61156890 0.21206035
vn -0.58467041 -0.57882661 -0.56843669
vn -0.58467026 -0.57882605 -0.56843741
vn -0.14283674 -0.55326022 -0.82067094
vn -0.14283564 -0.55325928 -0.82067177
vn 0.40457076 -0.57216674 -0.71340572
vn 0.40457346 -0.57216500 -0.71340559
vn 0.78126538 -0.61242068 -0.12068682
vn 0.78126433 -0.61242173 -0.12068830
vn 0.76598725 0.29996292 0.56858225
vn 0.76599060 0.29995939 0.56857961
vn 0.15221049 0.27499970 0.94931930
vn 0.15220744 0.27500261 0.94931894
vn -0.48124407 0.28096331 0.83033955
vn -0.48124525 0.28096500 0.83033829
vn -0.91500333 0.31300129 0.25455667
vn -0.91500332 0.31300192 0.25455595
vn -0.68625077 0.28966401 -0.66719910
vn -0.68625238 0.28966234 -0.66719817
vn -0.16498663 0.27245924 -0.94791633
vn -0.16498359 0.27246198 -0.94791607
vn 0.47282165 0.28509952 -0.83376133
vn 0.47282321 0.28510179 -0.83375967
vn 0.93841446 0.31362988 -0.14496414
vn 0.93841427 0.31363118 -0.14496256
vn 0.36797500 0.88881230 0.27314300
vn 0.06741828 0.90479350 0.42048008
vn -0.18960825 0.92575444 0.32715047
vn -0.32551098 0.94119171 0.09055813
vn -0.28850774 0.91546930 -0.28049820
vn -0.08235455 0.87711829 -0.47316090
vn 0.25631111 0.85441539 -0.45197229
vn 0.47980264 0.87424014 -0.07411882
vn 0.00000000 -1.00000000 0.00000000
vn -0.00000000 -1.00000000 0.00000000
vn 0.00000000 -1.00000000 0.00000000
vn 0.00000000 -1.00000000 0.00000000
vn 0.00000000 -1.00000000 0.00000000
vn 0.00000000 -1.00000000 -0.00000000
vn 0.51818872 -0.60447157 0.60505749
vn 0.51818951 -0.60447332 0.60505507
vn -0.02106076 -0.58433901 0.81123632
vn -0.02106509 -0.58433563 0.81123864
vn -0.52427281 -0.59638538 0.60783427
vn -0.52427113 -0.59638649 0.60783463
vn -0.77679150 -0.62966802 -0.01063730
vn -0.77679177 -0.62966768 -0.01063781
vn -0.48952044 -0.59685971 -0.63571080
vn -0.48952161 -0.59686235 -0.63570742
vn 0.02099809 -0.58494020 -0.81080457
vn 0.02100237 -0.58493697 -0.81080678
vn 0.54009308 -0.60727682 -0.58267858
vn 0.54009047 -0.60727848 -0.58267927
vn 0.77638722 -0.62915942 0.03716590
vn 0.77638788 -0.62915853 0.03716722
vn 0.61889553 0.30781032 0.72264869
vn 0.61889677 0.30780909 0.72264816
vn -0.02480873 0.29348439 0.95564190
vn -0.02480971 0.29348537 0.95564157
vn -0.62264597 0.30198306 0.72188519
vn -0.62264545 0.30198200 0.72188608
vn -0.94506690 0.32662066 -0.01294212
vn -0.94506706 0.32662022 -0.01294165
vn -0.58156060 0.30232587 -0.75523926
vn -0.58156146 0.30232499 -0.75523894
vn 0.02474490 0.29390374 -0.95551467
vn 0.02474576 0.29390462 -0.95551438
vn 0.64634128 0.30985141 -0.69730557
vn 0.64634172 0.30985231 -0.69730476
vn 0.94420953 0.32622925 0.04519789
vn 0.94420891 0.32623081 0.04519957
vn 0.27847794 0.90372522 0.32516266
vn -0.01006662 0.92170108 0.38777028
vn -0.22789313 0.93715256 0.26421543
vn -0.32913137 0.94427339 -0.00450725
vn -0.24310820 0.91718330 -0.31571062
vn 0.01214668 0.88309383 -0.46903918
vn 0.33574834 0.86952177 -0.36222223
vn 0.46025545 0.88751311 0.02203174
vn 0.00000000 -1.00000000 0.00000000
vn -0.00000000 -1.00000000 0.00000000
vn 0.00000000 -1.00000000 0.00000000
vn 0.00000000 -1.00000000 0.00000000
vn 0.00000000 -1.00000000 0.00000000
vn 0.00000000 -1.00000000 -0.00000000
vn 0.39920068 -0.56606230 0.72125744
vn 0.39919882 -0.56605985 0.72126039
vn -0.19979329 -0.55510170 0.80743095
vn -0.19979161 -0.55510282 0.80743060
vn -0.64211750 -0.56510241 0.51801967
vn -0.64212037 -0.56510039 0.51801832
vn -0.77706024 -0.58820799 -0.22402846
vn -0.77706112 -0.58820519 -0.22403274
vn -0.39840540 -0.56245107 -0.72451497
vn -0.39840634 -0.56245230 -0.72451349
vn 0.18263717 -0.56023882 -0.80794562
vn 0.18263583 -0.56023974 -0.80794529
vn 0.68670602 -0.58045146 -0.43761964
vn 0.68670529 -0.58045198 -0.43762009
vn 0.78699733 -0.58775977 0.18754643
vn 0.78699666 -0.58776156 0.18754360
vn 0.46474311 0.28097198 0.83968362
vn 0.46474658 0.28096878 0.83968277
vn -0.23102962 0.27367430 0.93366359
vn -0.23102881 0.27367353 0.93366401
vn -0.74709749 0.28032408 0.60271365
vn -0.74709836 0.28032627 0.60271156
vn -0.91774858 0.29619157 -0.26459044
vn -0.91774918 0.29619060 -0.26458944
vn -0.46277440 0.27855090 -0.84157546
vn -0.46277589 0.27854950 -0.84157510
vn 0.21185605 0.27707628 -0.93720102
vn 0.21185558 0.27707578 -0.93720127
vn 0.80687339 0.29078745 -0.51419645
vn 0.80687270 0.29078539 -0.51419870
vn 0.92920752 0.29587577 0.22142926
vn 0.92920428 0.29588148 0.22143524
vn 0.21545725 0.89556577 0.38928156
vn -0.09616585 0.91635897 0.38863654
vn -0.28934563 0.92832701 0.23342678
vn -0.35664011 0.92856649 -0.10282071
vn -0.21339684 0.89658369 -0.38807148
vn 0.11234780 0.86044692 -0.49700007
vn 0.44204914 0.85160729 -0.28170478
vn 0.47673997 0.87167226 0.11360668
vn -0.00000000 -1.00000000 0.00000000
vn 0.00000000 -1.00000000 0.00000000
vn 0.00000000 -1.00000000 0.00000000
vn 0.00000000 -1.00000000 0.00000000
vn 0.00000000 -1.00000000 -0.00000000
vn 0.00000000 -1.00000000 0.00000000
vn 0.26300098 -0.59531934 0.75922682
vn 0.26299732 -0.59531570 0.75923095
vn -0.39360261 -0.58388440 0.71003943
vn -0.39360330 -0.58388395 0.71003942
vn -0.72799989 -0.57667138 0.37076445
vn -0.72800304 -0.57666881 0.37076225
vn -0.70891164 -0.59391574 -0.38040555
vn -0.70891143 -0.59392006 -0.38039920
vn -0.27603930 -0.59342802 -0.75607241
vn -0.27603568 -0.59342462 -0.75607640
vn 0.33877247 -0.59507546 -0.72877871
vn 0.33877072 -0.59507662 -0.72877858
vn 0.77558051 -0.59054013 -0.22301846
vn 0.77558439 -0.59053648 -0.22301461
vn 0.74509331 -0.59023618 0.31057562
vn 0.74509298 -0.59023870 0.31057162
vn 0.31211856 0.30122420 0.90102497
vn 0.31212073 0.30122219 0.90102489
vn -0.46352371 0.29316402 0.83618217
vn -0.46352683 0.29316748 0.83617923
vn -0.85328897 0.28817874 0.43456984
vn -0.85328846 0.28817562 0.43457290
vn -0.84050489 0.30022436 -0.45101758
vn -0.84050386 0.30022571 -0.45101860
vn -0.32716772 0.29987958 -0.89612137
vn -0.32717060 0.29987699 -0.89612119
vn 0.40197453 0.30104649 -0.86474707
vn 0.40197648 0.30104898 -0.86474529
vn 0.91744238 0.29783067 -0.26381126
vn 0.91744238 0.29783100 -0.26381089
vn 0.88119646 0.29761987 0.36730807
vn 0.88119698 0.29761911 0.36730742
vn 0.13166047 0.91553608 0.38007790
vn -0.17716416 0.93084350 0.31959857
vn -0.32180822 0.93251195 0.16389307
vn -0.33312480 0.92578303 -0.17875582
vn -0.14748043 0.90281312 -0.40395295
vn 0.20602678 0.87241825 -0.44321479
vn 0.49198639 0.85903162 -0.14147106
vn 0.43834080 0.88004164 0.18271307
vn -0.00000000 -1.00000000 0.00000000
vn 0.00000000 -1.00000000 0.00000000
vn 0.00000000 -1.00000000 0.00000000
vn 0.00000000 -1.00000000 0.00000000
vn 0.00000000 -1.00000000 -0.00000000
vn 0.00000000 -1.00000000 0.00000000
vn 0.09139814 -0.61955527 0.77961378
vn 0.09139829 -0.61955541 0.77961365
vn -0.50324313 -0.61558620 0.60646516
vn -0.50324119 -0.61558747 0.60646548
vn -0.73761838 -0.62931072 0.24471852
vn -0.73761451 -0.62931384 0.24472212
vn -0.56119687 -0.63775792 -0.52756318
vn -0.56119694 -0.63775831 -0.52756264
vn -0.09873231 -0.61913200 -0.77905551
vn -0.09873205 -0.61913178 -0.77905572
vn 0.42108976 -0.62826894 -0.65418770
vn 0.42108881 -0.62826956 -0.65418772
vn 0.76228375 -0.64670474 -0.02639041
vn 0.76228238 -0.64670628 -0.02639241
vn 0.62288666 -0.63500882 0.45692013
vn 0.62288681 -0.63500978 0.45691859
vn 0.11035840 0.31894221 0.94132720
vn 0.11035659 0.31894413 0.94132676
vn -0.60586334 0.31598049 0.73012735
vn -0.60586087 0.31597633 0.73013120
vn -0.89716229 0.32634747 0.29765273
vn -0.89716217 0.32635018 0.29765012
vn -0.68704714 0.33289100 -0.64587136
vn -0.68704740 0.33289072 -0.64587123
vn -0.11917717 0.31862435 -0.94035915
vn -0.11917480 0.31862668 -0.94035866
vn 0.51176547 0.32554795 -0.79505637
vn 0.51176501 0.32554708 -0.79505703
vn 0.93987535 0.33996410 -0.03253828
vn 0.93987547 0.33996373 -0.03253867
vn 0.76094142 0.33074540 0.55818960
vn 0.76094076 0.33074615 0.55819006
vn 0.04281012 0.92996045 0.36515867
vn -0.21278713 0.94284948 0.25643028
vn -0.30434808 0.94719402 0.10097397
vn -0.25824514 0.93507919 -0.24276812
vn -0.05328898 0.90573878 -0.42047300
vn 0.25259054 0.88442615 -0.39241357
vn 0.44863615 0.89357953 -0.01553168
vn 0.33702830 0.90845498 0.24722756
vn 0.00000000 -1.00000000 0.00000000
vn 0.00000000 -1.00000000 0.00000000
vn 0.00000000 -1.00000000 0.00000000
vn 0.00000000 -1.00000000 -0.00000000
vn 0.00000000 -1.00000000 0.00000000
vn 0.00000000 -1.00000000 0.00000000
vn -0.05221281 -0.66680290 0.74340279
vn -0.05221009 -0.66680524 0.74340089
vn -0.55160753 -0.68458663 0.47651892
vn -0.55161023 -0.68458496 0.47651819
vn -0.69810499 -0.71147047 0.08036915
vn -0.69810602 -0.71146961 0.08036782
vn -0.39414966 -0.69045363 -0.60656395
vn -0.39414931 -0.69045260 -0.60656536
vn 0.05601448 -0.66700560 -0.74294408
vn 0.05601181 -0.66700773 -0.74294237
vn 0.46330828 -0.69418974 -0.55085937
vn 0.46330909 -0.69418925 -0.55085930
vn 0.67241970 -0.72126343 0.16622520
vn 0.67241789 -0.72126601 0.16622132
vn 0.45513537 -0.68847087 0.56467660
vn 0.45513461 -0.68846883 0.56467968
vn -0.06545659 0.35643033 0.93202621
vn -0.06546059 0.35643575 0.93202385
vn -0.70250889 0.37172809 0.60687682
vn -0.70250849 0.37172662 0.60687819
vn -0.91208856 0.39631829 0.10500605
vn -0.91208777 0.39632069 0.10500386
vn -0.50467707 0.37694010 -0.77667059
vn -0.50468556 0.37693075 -0.77666962
vn 0.07023476 0.35660060 -0.93161316
vn 0.07023905 0.35660603 -0.93161076
vn 0.59530660 0.38029527 -0.70780333
vn 0.59530712 0.38029706 -0.70780194
vn 0.88726860 0.40576689 0.21933459
vn 0.88726712 0.40576913 0.21933645
vn 0.58169749 0.37517120 0.72171643
vn 0.58170875 0.37515948 0.72171344
vn -0.02228331 0.94806717 0.31728865
vn -0.21106286 0.96031655 0.18233101
vn -0.26248950 0.96446153 0.03021964
vn -0.17671136 0.94594754 -0.27194918
vn 0.02992184 0.91737768 -0.39689152
vn 0.26440036 0.91173856 -0.31436482
vn 0.35610413 0.93029061 0.08802966
vn 0.22240926 0.93508747 0.27594484
f 1/1/1 2/2/1 3/3/1
f 1/4/2 3/5/2 4/6/2
f 2/7/3 5/8/3 6/9/3
f 2/10/4 6/11/4 3/12/4
f 5/13/5 7/14/5 8/15/5
f 5/16/6 8/17/6 6/18/6
f 7/19/7 9/20/7 10/21/7
f 7/22/8 10/23/8 8/24/8
f 9/25/9 11/26/9 12/27/9
f 9/28/10 12/29/10 10/30/10
f 11/31/11 1/32/11 4/33/11
f 11/34/12 4/35/12 12/36/12
f 11/37/13 9/38/13 7/39/13
f 11/40/14 7/41/14 5/42/14
f 11/43/15 5/44/15 2/45/15
f 11/46/16 2/47/16 1/48/16
f 4/49/17 3/50/17 6/51/17
f 4/52/18 6/53/18 8/54/18
f 4/55/19 8/56/19 10/57/19
f 4/58/20 10/59/20 12/60/20
f 13/61/21 14/62/21 15/63/21
f 13/64/22 15/65/22 16/66/22
f 14/67/23 17/68/23 18/69/23
f 14/70/24 18/71/24 15/72/24
f 17/73/25 19/74/25 20/75/25
f 17/76/26 20/77/26 18/78/26
f 19/79/27 21/80/27 22/81/27
f 19/82/28 22/83/28 20/84/28
f 21/85/29 23/86/29 24/87/29
f 21/88/30 24/89/30 22/90/30
f 23/91/31 13/92/31 16/93/31
f 23/94/32 16/95/32 24/96/32
f 23/97/33 21/98/33 19/99/33
f 23/100/34 19/101/34 17/102/34
f 23/103/35 17/104/35 14/105/35
f 23/106/36 14/107/36 13/108/36
f 16/109/37 15/110/37 18/111/37
f 16/112/38 18/113/38 20/114/38
f 16/115/39 20/116/39 22/117/39
f 16/118/40 22/119/40 24/120/40
f 25/121/41 26/122/41 27/123/41
f 25/124/42 27/125/42 28/126/42
f 26/127/43 29/128/43 30/129/43
f 26/130/44 30/131/44 27/132/44
f 29/133/45 31/134/45 32/135/45
f 29/136/46 32/137/46 30/138/46
f 31/139/47 33/140/47 34/141/47
f 31/142/48 34/143/48 32/144/48
f 33/145/49 35/146/49 36/147/49
f 33/148/50 36/149/50 34/150/50
f 35/151/51 25/152/51 28/153/51
f 35/154/52 28/155/52 36/156/52
f 35/157/53 33/158/53 31/159/53
f 35/160/54 31/161/54 29/162/54
f 35/163/55 29/164/55 26/165/55
f 35/166/56 26/167/56 25/168/56
f 28/169/57 27/170/57 30/171/57
f 28/172/58 30/173/58 32/174/58
f 28/175/59 32/176/59 34/177/59
f 28/178/60 34/179/60 36/180/60
f 37/181/61 38/182/61 39/183/61
f 37/184/62 39/185/62 40/186/62
f 38/187/63 41/188/63 42/189/63
f 38/190/64 42/191/64 39/192/64
f 41/193/65 43/194/65 44/195/65
f 41/196/66 44/197/66 42/198/66
f 43/199/67 45/200/67 46/201/67
f 43/202/68 46/203/68 44/204/68
f 45/205/69 47/206/69 48/207/69
f 45/208/70 48/209/70 46/210/70
f 47/211/71 37/212/71 40/213/71
f 47/214/72 40/215/72 48/216/72
f 47/217/73 45/218/73 43/219/73
f 47/220/74 43/221/74 41/222/74
f 47/223/75 41/224/75 38/225/75
f 47/226/76 38/227/76 37/228/76
f 40/229/77 39/230/77 42/231/77
f 40/232/78 42/233/78 44/234/78
f 40/235/79 44/236/79 46/237/79
f 40/238/80 46/239/80 48/240/80
f 49/241/81 50/242/81 51/243/81
f 49/244/82 51/245/82 52/246/82
f 50/247/83 53/248/83 54/249/83
f 50/250/84 54/251/84 51/252/84
f 53/253/85 55/254/85 56/255/85
f 53/256/86 56/257/86 54/258/86
f 55/259/87 57/260/87 58/261/87
f 55/262/88 58/263/88 56/264/88
f 57/265/89 59/266/89 60/267/89
f 57/268/90 60/269/90 58/270/90
f 59/271/91 49/272/91 52/273/91
f 59/274/92 52/275/92 60/276/92
f 59/277/93 57/278/93 55/279/93
f 59/280/94 55/281/94 53/282/94
f 59/283/95 53/284/95 50/285/95
f 59/286/96 50/287/96 49/288/96
f 52/289/97 51/290/97 54/291/97
f 52/292/98 54/293/98 56/294/98
f 52/295/99 56/296/99 58/297/99
f 52/298/100 58/299/100 60/300/100
f 61/301/101 62/302/101 63/303/101
f 61/304/102 63/305/102 64/306/102
f 62/307/103 65/308/103 66/309/103
f 62/310/104 66/311/104 63/312/104
f 65/313/105 67/314/105 68/315/105
f 65/316/106 68/317/106 66/318/106
f 67/319/107 69/320/107 70/321/107
f 67/322/108 70/323/108 68/324/108
f 69/325/109 71/326/109 72/327/109
f 69/328/110 72/329/110 70/330/110
f 71/331/111 61/332/111 64/333/111
f 71/334/112 64/335/112 72/336/112
f 71/337/113 69/338/113 67/339/113
f 71/340/114 67/341/114 65/342/114
f 71/343/115 65/344/115 62/345/115
f 71/346/116 62/347/116 61/348/116
f 64/349/117 63/350/117 66/351/117
f 64/352/118 66/353/118 68/354/118
f 64/355/119 68/356/119 70/357/119
f 64/358/120 70/359/120 72/360/120
f 73/361/121 74/362/121 75/363/121
f 73/364/122 75/365/122 76/366/122
f 73/367/123 76/368/123 77/369/123
f 73/370/124 77/371/124 78/372/124
f 73/373/125 78/374/125 79/375/125
f 73/376/126 79/377/126 80/378/126
f 81/379/127 82/380/127 74/381/127
f 81/382/128 74/383/128 73/384/128
f 82/385/129 83/386/129 75/387/129
f 82/388/130 75/389/130 74/390/130
f 83/391/131 84/392/131 76/393/131
f 83/394/132 76/395/132 75/396/132
f 84/397/133 85/398/133 77/399/133
f 84/400/134 77/401/134 76/402/134
f 85/403/135 86/404/135 78/405/135
f 85/406/136 78/407/136 77/408/136
f 86/409/137 87/410/137 79/411/137
f 86/412/138 79/413/138 78/414/138
f 87/415/139 88/416/139 80/417/139
f 87/418/140 80/419/140 79/420/140
f 88/421/141 81/422/141 73/423/141
f 88/424/142 73/425/142 80/426/142
f 89/427/143 90/428/143 82/429/143
f 89/430/144 82/431/144 81/432/144
f 90/433/145 91/434/145 83/435/145
f 90/436/146 83/437/146 82/438/146
f 91/439/147 92/440/147 84/441/147
f 91/442/148 84/443/148 83/444/148
f 92/445/149 93/446/149 85/447/149
f 92/448/150 85/449/150 84/450/150
f 93/451/151 94/452/151 86/453/151
f 93/454/152 86/455/152 85/456/152
f 94/457/153 95/458/153 87/459/153
f 94/460/154 87/461/154 86/462/154
f 95/463/155 96/464/155 88/465/155
f 95/466/156 88/467/156 87/468/156
f 96/469/157 89/470/157 81/471/157
f 96/472/158 81/473/158 88/474/158
f 97/475/159 90/476/159 89/477/159
f 97/478/160 91/479/160 90/480/160
f 97/481/161 92/482/161 91/483/161
f 97/484/162 93/485/162 92/486/162
f 97/487/163 94/488/163 93/489/163
f 97/490/164 95/491/164 94/492/164
f 97/493/165 96/494/165 95/495/165
f 97/496/166 89/497/166 96/498/166
f 98/499/167 99/500/167 100/501/167
f 98/502/168 100/503/168 101/504/168
f 98/505/169 101/506/169 102/507/169
f 98/508/170 102/509/170 103/510/170
f 98/511/171 103/512/171 104/513/171
f 98/514/172 104/515/172 105/516/172
f 106/517/173 107/518/173 99/519/173
f 106/520/174 99/521/174 98/522/174
f 107/523/175 108/524/175 100/525/175
f 107/526/176 100/527/176 99/528/176
f 108/529/177 109/530/177 101/531/177
f 108/532/178 101/533/178 100/534/178
f 109/535/179 110/536/179 102/537/179
f 109/538/180 102/539/180 101/540/180
f 110/541/181 111/542/181 103/543/181
f 110/544/182 103/545/182 102/546/182
f 111/547/183 112/548/183 104/549/183
f 111/550/184 104/551/184 103/552/184
f 112/553/185 113/554/185 105/555/185
f 112/556/186 105/557/186 104/558/186
f 113/559/187 106/560/187 98/561/187
f 113/562/188 98/563/188 105/564/188
f 114/565/189 115/566/189 107/567/189
f 114/568/190 107/569/190 106/570/190
f 115/571/191 116/572/191 108/573/191
f 115/574/192 108/575/192 107/576/192
f 116/577/193 117/578/193 109/579/193
f 116/580/194 109/581/194 108/582/194
f 117/583/195 118/584/195 110/585/195
f 117/586/196 110/587/196 109/588/196
f 118/589/197 119/590/197 111/591/197
f 118/592/198 111/593/198 110/594/198
f 119/595/199 120/596/199 112/597/199
f 119/598/200 112/599/200 111/600/200
f 120/601/201 121/602/201 113/603/201
f 120/604/202 113/605/202 112/606/202
f 121/607/203 114/608/203 106/609/203
f 121/610/204 106/611/204 113/612/204
f 122/613/205 115/614/205 114/615/205
f 122/616/206 116/617/206 115/618/206
f 122/619/207 117/620/207 116/621/207
f 122/622/208 118/623/208 117/624/208
f 122/625/209 119/626/209 118/627/209
f 122/628/210 120/629/210 119/630/210
f 122/631/211 121/632/211 120/633/211
f 122/634/212 114/635/212 121/636/212
f 123/637/213 124/638/213 125/639/213
f 123/640/214 125/641/214 126/642/214
f 123/643/215 126/644/215 127/645/215
f 123/646/216 127/647/216 128/648/216
f 123/649/217 128/650/217 129/651/217
f 123/652/218 129/653/218 130/654/218
f 131/655/219 132/656/219 124/657/219
f 131/658/220 124/659/220 123/660/220
f 132/661/221 133/662/221 125/663/221
f 132/664/222 125/665/222 124/666/222
f 133/667/223 134/668/223 126/669/223
f 133/670/224 126/671/224 125/672/224
f 134/673/225 135/674/225 127/675/225
f 134/676/226 127/677/226 126/678/226
f 135/679/227 136/680/227 128/681/227
f 135/682/228 128/683/228 127/684/228
f 136/685/229 137/686/229 129/687/229
f 136/688/230 129/689/230 128/690/230
f 137/691/231 138/692/231 130/693/231
f 137/694/232 130/695/232 129/696/232
f 138/697/233 131/698/233 123/699/233
f 138/700/234 123/701/234 130/702/234
f 139/703/235 140/704/235 132/705/235
f 139/706/236 132/707/236 131/708/236
f 140/709/237 141/710/237 133/711/237
f 140/712/238 133/713/238 132/714/238
f 141/715/239 142/716/239 134/717/239
f 141/718/240 134/719/240 133/720/240
f 142/721/241 143/722/241 135/723/241
f 142/724/242 135/725/242 134/726/242
f 143/727/243 144/728/243 136/729/243
f 143/730/244 136/731/244 135/732/244
f 144/733/245 145/734/245 137/735/245
f 144/736/246 137/737/246 136/738/246
f 145/739/247 146/740/247 138/741/247
f 145/742/248 138/743/248 137/744/248
f 146/745/249 139/746/249 131/747/249
f 146/748/250 131/749/250 138/750/250
f 147/751/251 140/752/251 139/753/251
f 147/754/252 141/755/252 140/756/252
f 147/757/253 142/758/253 141/759/253
f 147/760/254 143/761/254 142/762/254
f 147/763/255 144/764/255 143/765/255
f 147/766/256 145/767/256 144/768/256
f 147/769/257 146/770/257 145/771/257
f 147/772/258 139/773/258 146/774/258
f 148/775/259 149/776/259 150/777/259
f 148/778/260 150/779/260 151/780/260
f 148/781/261 151/782/261 152/783/261
f 148/784/262 152/785/262 153/786/262
f 148/787/263 153/788/263 154/789/263
f 148/790/264 154/791/264 155/792/264
f 156/793/265 157/794/265 149/795/265
f 156/796/266 149/797/266 148/798/266
f 157/799/267 158/800/267 150/801/267
f 157/802/268 150/803/268 149/804/268
f 158/805/269 159/806/269 151/807/269
f 158/808/270 151/809/270 150/810/270
f 159/811/271 160/812/271 152/813/271
f 159/814/272 152/815/272 151/816/272
f 160/817/273 161/818/273 153/819/273
f 160/820/274 153/821/274 152/822/274
f 161/823/275 162/824/275 154/825/275
f 161/826/276 154/827/276 153/828/276
f 162/829/277 163/830/277 155/831/277
f 162/832/278 155/833/278 154/834/278
f 163/835/279 156/836/279 148/837/279
f 163/838/280 148/839/280 155/840/280
f 164/841/281 165/842/281 157/843/281
f 164/844/282 157/845/282 156/846/282
f 165/847/283 166/848/283 158/849/283
f 165/850/284 158/851/284 157/852/284
f 166/853/285 167/854/285 159/855/285
f 166/856/286 159/857/286 158/858/286
f 167/859/287 168/860/287 160/861/287
f 167/862/288 160/863/288 159/864/288
f 168/865/289 169/866/289 161/867/289
f 168/868/290 161/869/290 160/870/290
f 169/871/291 170/872/291 162/873/291
f 169/874/292 162/875/292 161/876/292
f 170/877/293 171/878/293 163/879/293
f 170/880/294 163/881/294 162/882/294
f 171/883/295 164/884/295 156/885/295
f 171/886/296 156/887/296 163/888/296
f 172/889/297 165/890/297 164/891/297
f 172/892/298 166/893/298 165/894/298
f 172/895/299 167/896/299 166/897/299
f 172/898/300 168/899/300 167/900/300
f 172/901/301 169/902/301 168/903/301
f 172/904/302 170/905/302 169/906/302
f 172/907/303 171/908/303 170/909/303
f 172/910/304 164/911/304 171/912/304
f 173/913/305 174/914/305 175/915/305
f 173/916/306 175/917/306 176/918/306
f 173/919/307 176/920/307 177/921/307
f 173/922/308 177/923/308 178/924/308
f 173/925/309 178/926/309 179/927/309
f 173/928/310 179/929/310 180/930/310
f 181/931/311 182/932/311 174/933/311
f 181/934/312 174/935/312 173/936/312
f 182/937/313 183/938/313 175/939/313
f 182/940/314 175/941/314 174/942/314
f 183/943/315 184/944/315 176/945/315
f 183/946/316 176/947/316 175/948/316
f 184/949/317 185/950/317 177/951/317
f 184/952/318 177/953/318 176/954/318
f 185/955/319 186/956/319 178/957/319
f 185/958/320 178/959/320 177/960/320
f 186/961/321 187/962/321 179/963/321
f 186/964/322 179/965/322 178/966/322
f 187/967/323 188/968/323 180/969/323
f 187/970/324 180/971/324 179/972/324
f 188/973/325 181/974/325 173/975/325
f 188/976/326 173/977/326 180/978/326
f 189/979/327 190/980/327 182/981/327
f 189/982/328 182/983/328 181/984/328
f 190/985/329 191/986/329 183/987/329
f 190/988/330 183/989/330 182/990/330
f 191/991/331 192/992/331 184/993/331
f 191/994/332 184/995/332 183/996/332
f 192/997/333 193/998/333 185/999/333
f 192/1000/334 185/1001/334 184/1002/334
f 193/1003/335 194/1004/335 186/1005/335
f 193/1006/336 186/1007/336 185/1008/336
f 194/1009/337 195/1010/337 187/1011/337
f 194/1012/338 187/1013/338 186/1014/338
f 195/1015/339 196/1016/339 188/1017/339
f 195/1018/340 188/1019/340 187/1020/340
f 196/1021/341 189/1022/341 181/1023/341
f 196/1024/342 181/1025/342 188/1026/342
f 197/1027/343 190/1028/343 189/1029/343
f 197/1030/344 191/1031/344 190/1032/344
f 197/1033/345 192/1034/345 191/1035/345
f 197/1036/346 193/1037/346 192/1038/346
f 197/1039/347 194/1040/347 193/1041/347
f 197/1042/348 195/1043/348 194/1044/348
f 197/1045/349 196/1046/349 195/1047/349
f 197/1048/350 189/1049/350 196/1050/350
f 198/1051/351 199/1052/351 200/1053/351
f 198/1054/352 200/1055/352 201/1056/352
f 198/1057/353 201/1058/353 202/1059/353
f 198/1060/354 202/1061/354 203/1062/354
f 198/1063/355 203/1064/355 204/1065/355
f 198/1066/356 204/1067/356 205/1068/356
f 206/1069/357 207/1070/357 199/1071/357
f 206/1072/358 199/1073/358 198/1074/358
f 207/1075/359 208/1076/359 200/1077/359
f 207/1078/360 200/1079/360 199/1080/360
f 208/1081/361 209/1082/361 201/1083/361
f 208/1084/362 201/1085/362 200/1086/362
f 209/1087/363 210/1088/363 202/1089/363
f 209/1090/364 202/1091/364 201/1092/364
f 210/1093/365 211/1094/365 203/1095/365
f 210/1096/366 203/1097/366 202/1098/366
f 211/1099/367 212/1100/367 204/1101/367
f 211/1102/368 204/1103/368 203/1104/368
f 212/1105/369 213/1106/369 205/1107/369
f 212/1108/370 205/1109/370 204/1110/370
f 213/1111/371 206/1112/371 198/1113/371
f 213/1114/372 198/1115/372 205/1116/372
f 214/1117/373 215/1118/373 207/1119/373
f 214/1120/374 207/1121/374 206/1122/374
f 215/1123/375 216/1124/375 208/1125/375
f 215/1126/376 208/1127/376 207/1128/376
f 216/1129/377 217/1130/377 209/1131/377
f 216/1132/378 209/1133/378 208/1134/378
f 217/1135/379 218/1136/379 210/1137/379
f 217/1138/380 210/1139/380 209/1140/380
f 218/1141/381 219/1142/381 211/1143/381
f 218/1144/382 211/1145/382 210/1146/382
f 219/1147/383 220/1148/383 212/1149/383
f 219/1150/384 212/1151/384 211/1152/384
f 220/1153/385 221/1154/385 213/1155/385
f 220/1156/386 213/1157/386 212/1158/386
f 221/1159/387 214/1160/387 206/1161/387
f 221/1162/388 206/1163/388 213/1164/388
f 222/1165/389 215/1166/389 214/1167/389
f 222/1168/390 216/1169/390 215/1170/390
f 222/1171/391 217/1172/391 216/1173/391
f 222/1174/392 218/1175/392 217/1176/392
f 222/1177/393 219/1178/393 218/1179/393
f 222/1180/394 220/1181/394 219/1182/394
f 222/1183/395 221/1184/395 220/1185/395
f 222/1186/396 214/1187/396 221/1188/396
f 223/1189/397 224/1190/397 225/1191/397
f 223/1192/398 225/1193/398 226/1194/398
f 223/1195/399 226/1196/399 227/1197/399
f 223/1198/400 227/1199/400 228/1200/400
f 223/1201/401 228/1202/401 229/1203/401
f 223/1204/402 229/1205/402 230/1206/402
f 231/1207/403 232/1208/403 224/1209/403
f 231/1210/404 224/1211/404 223/1212/404
f 232/1213/405 233/1214/405 225/1215/405
f 232/1216/406 225/1217/406 224/1218/406
f 233/1219/407 234/1220/407 226/1221/407
f 233/1222/408 226/1223/408 225/1224/408
f 234/1225/409 235/1226/409 227/1227/409
f 234/1228/410 227/1229/410 226/1230/410
f 235/1231/411 236/1232/411 228/1233/411
f 235/1234/412 228/1235/412 227/1236/412
f 236/1237/413 237/1238/413 229/1239/413
f 236/1240/414 229/1241/414 228/1242/414
f 237/1243/415 238/1244/415 230/1245/415
f 237/1246/416 230/1247/416 229/1248/416
f 238/1249/417 231/1250/417 223/1251/417
f 238/1252/418 223/1253/418 230/1254/418
f 239/1255/419 240/1256/419 232/1257/419
f 239/1258/420 232/1259/420 231/1260/420
f 240/1261/421 241/1262/421 233/1263/421
f 240/1264/422 233/1265/422 232/1266/422
f 241/1267/423 242/1268/423 234/1269/423
f 241/1270/424 234/1271/424 233/1272/424
f 242/1273/425 243/1274/425 235/1275/425
f 242/1276/426 235/1277/426 234/1278/426
f 243/1279/427 244/1280/427 236/1281/427
f 243/1282/428 236/1283/428 235/1284/428
f 244/1285/429 245/1286/429 237/1287/429
f 244/1288/430 237/1289/430 236/1290/430
f 245/1291/431 246/1292/431 238/1293/431
f 245/1294/432 238/1295/432 237/1296/432
f 246/1297/433 239/1298/433 231/1299/433
f 246/1300/434 231/1301/434 238/1302/434
f 247/1303/435 240/1304/435 239/1305/435
f 247/1306/436 241/1307/436 240/1308/436
f 247/1309/437 242/1310/437 241/1311/437
f 247/1312/438 243/1313/438 242/1314/438
f 247/1315/439 244/1316/439 243/1317/439
f 247/1318/440 245/1319/440 244/1320/440
f 247/1321/441 246/1322/441 245/1323/441
f 247/1324/442 239/1325/442 246/1326/442
