mtllib TorusFauna_CowA.mtl
o TorusFauna_CowA
usemtl TorusFaunaKit
s off
v 0.0550000 0.2650000 -0.2475000
v 0.0388909 0.3127297 -0.2475000
v 0.0689429 0.3560140 -0.1875000
v 0.0975000 0.2800000 -0.1875000
v 0.0000000 0.3325000 -0.2475000
v 0.0000000 0.3875000 -0.1875000
v -0.0388909 0.3127297 -0.2475000
v -0.0689429 0.3560140 -0.1875000
v -0.0550000 0.2650000 -0.2475000
v -0.0975000 0.2800000 -0.1875000
v -0.0388909 0.2172703 -0.2475000
v -0.0689429 0.2039860 -0.1875000
v -0.0000000 0.1975000 -0.2475000
v -0.0000000 0.1725000 -0.1875000
v 0.0388909 0.2172703 -0.2475000
v 0.0689429 0.2039860 -0.1875000
v 0.0760140 0.3613173 -0.0300000
v 0.1075000 0.2800000 -0.0300000
v 0.0000000 0.3950000 -0.0300000
v -0.0760140 0.3613173 -0.0300000
v -0.1075000 0.2800000 -0.0300000
v -0.0760140 0.1986827 -0.0300000
v -0.0000000 0.1650000 -0.0300000
v 0.0760140 0.1986827 -0.0300000
v 0.0601041 0.3685140 0.1425000
v 0.0850000 0.2925000 0.1425000
v 0.0000000 0.4000000 0.1425000
v -0.0601041 0.3685140 0.1425000
v -0.0850000 0.2925000 0.1425000
v -0.0601041 0.2164860 0.1425000
v -0.0000000 0.1850000 0.1425000
v 0.0601041 0.2164860 0.1425000
v 0.0424264 0.3580330 0.1950000
v 0.0600000 0.3050000 0.1950000
v 0.0000000 0.3800000 0.1950000
v -0.0424264 0.3580330 0.1950000
v -0.0600000 0.3050000 0.1950000
v -0.0424264 0.2519670 0.1950000
v -0.0000000 0.2300000 0.1950000
v 0.0424264 0.2519670 0.1950000
v 0.0000000 0.2650000 -0.2475000
v 0.0000000 0.3050000 0.1950000
v 0.0575000 0.2375000 0.1400000
v 0.0441942 0.3375000 0.2330330
v 0.0406586 0.2375000 0.1859619
v 0.0625000 0.3375000 0.1800000
v 0.0000000 0.3375000 0.2550000
v 0.0000000 0.2375000 0.2050000
v -0.0441942 0.3375000 0.2330330
v -0.0406586 0.2375000 0.1859619
v -0.0625000 0.3375000 0.1800000
v -0.0575000 0.2375000 0.1400000
v -0.0441942 0.3375000 0.1269670
v -0.0406586 0.2375000 0.0940381
v -0.0000000 0.3375000 0.1050000
v -0.0000000 0.2375000 0.0750000
v 0.0441942 0.3375000 0.1269670
v 0.0406586 0.2375000 0.0940381
v 0.0353553 0.4000000 0.2513909
v 0.0500000 0.4000000 0.2125000
v 0.0000000 0.4000000 0.2675000
v -0.0353553 0.4000000 0.2513909
v -0.0500000 0.4000000 0.2125000
v -0.0353553 0.4000000 0.1736091
v -0.0000000 0.4000000 0.1575000
v 0.0353553 0.4000000 0.1736091
v 0.0000000 0.2375000 0.1400000
v 0.0000000 0.4000000 0.2125000
v 0.0425000 0.3950000 0.1875000
v 0.0300520 0.4374264 0.1875000
v 0.0371231 0.4444975 0.2600000
v 0.0525000 0.3950000 0.2600000
v 0.0000000 0.4550000 0.1875000
v 0.0000000 0.4650000 0.2600000
v -0.0300520 0.4374264 0.1875000
v -0.0371231 0.4444975 0.2600000
v -0.0425000 0.3950000 0.1875000
v -0.0525000 0.3950000 0.2600000
v -0.0300520 0.3525736 0.1875000
v -0.0371231 0.3455025 0.2600000
v -0.0000000 0.3350000 0.1875000
v -0.0000000 0.3250000 0.2600000
v 0.0300520 0.3525736 0.1875000
v 0.0371231 0.3455025 0.2600000
v 0.0318198 0.3928553 0.3175000
v 0.0450000 0.3575000 0.3175000
v 0.0000000 0.4075000 0.3175000
v -0.0318198 0.3928553 0.3175000
v -0.0450000 0.3575000 0.3175000
v -0.0318198 0.3221447 0.3175000
v -0.0000000 0.3075000 0.3175000
v 0.0318198 0.3221447 0.3175000
v 0.0000000 0.3950000 0.1875000
v 0.0000000 0.3575000 0.3175000
v 0.0280662 0.3375000 0.2977500
v 0.0198458 0.3492271 0.2977500
v 0.0388909 0.3604810 0.3300000
v 0.0550000 0.3375000 0.3300000
v 0.0000000 0.3540846 0.2977500
v 0.0000000 0.3700000 0.3300000
v -0.0198458 0.3492271 0.2977500
v -0.0388909 0.3604810 0.3300000
v -0.0280662 0.3375000 0.2977500
v -0.0550000 0.3375000 0.3300000
v -0.0198458 0.3257729 0.2977500
v -0.0388909 0.3145190 0.3300000
v -0.0000000 0.3209154 0.2977500
v -0.0000000 0.3050000 0.3300000
v 0.0198458 0.3257729 0.2977500
v 0.0388909 0.3145190 0.3300000
v 0.0198458 0.3492271 0.3622500
v 0.0280662 0.3375000 0.3622500
v 0.0000000 0.3540846 0.3622500
v -0.0198458 0.3492271 0.3622500
v -0.0280662 0.3375000 0.3622500
v -0.0198458 0.3257729 0.3622500
v -0.0000000 0.3209154 0.3622500
v 0.0198458 0.3257729 0.3622500
v 0.0000000 0.3375000 0.2977500
v 0.0000000 0.3375000 0.3622500
v -0.0432096 0.4300000 0.1827750
v -0.0566048 0.4382861 0.1827750
v -0.0566048 0.4382861 0.2322250
v -0.0432096 0.4300000 0.2322250
v -0.0833952 0.4382861 0.1827750
v -0.0833952 0.4382861 0.2322250
v -0.0967904 0.4300000 0.1827750
v -0.0967904 0.4300000 0.2322250
v -0.0833952 0.4217139 0.1827750
v -0.0833952 0.4217139 0.2322250
v -0.0566048 0.4217139 0.1827750
v -0.0566048 0.4217139 0.2322250
v -0.0700000 0.4300000 0.1827750
v -0.0700000 0.4300000 0.2322250
v -0.0484434 0.4075000 0.2564000
v -0.0498467 0.4103725 0.2564000
v -0.0498467 0.4103725 0.2736000
v -0.0484434 0.4075000 0.2736000
v -0.0526533 0.4103725 0.2564000
v -0.0526533 0.4103725 0.2736000
v -0.0540566 0.4075000 0.2564000
v -0.0540566 0.4075000 0.2736000
v -0.0526533 0.4046275 0.2564000
v -0.0526533 0.4046275 0.2736000
v -0.0498467 0.4046275 0.2564000
v -0.0498467 0.4046275 0.2736000
v -0.0512500 0.4075000 0.2564000
v -0.0512500 0.4075000 0.2736000
v -0.0202798 0.3450000 0.3558100
v -0.0226399 0.3475411 0.3558100
v -0.0226399 0.3475411 0.3626900
v -0.0202798 0.3450000 0.3626900
v -0.0273601 0.3475411 0.3558100
v -0.0273601 0.3475411 0.3626900
v -0.0297202 0.3450000 0.3558100
v -0.0297202 0.3450000 0.3626900
v -0.0273601 0.3424589 0.3558100
v -0.0273601 0.3424589 0.3626900
v -0.0226399 0.3424589 0.3558100
v -0.0226399 0.3424589 0.3626900
v -0.0250000 0.3450000 0.3558100
v -0.0250000 0.3450000 0.3626900
v -0.0475000 0.0225000 -0.1725000
v -0.0618750 0.1125000 -0.1625120
v -0.0575000 0.0225000 -0.1519319
v -0.0537500 0.1125000 -0.1787500
v -0.0781250 0.1125000 -0.1625120
v -0.0775000 0.0225000 -0.1519319
v -0.0862500 0.1125000 -0.1787500
v -0.0875000 0.0225000 -0.1725000
v -0.0781250 0.1125000 -0.1949880
v -0.0775000 0.0225000 -0.1930681
v -0.0618750 0.1125000 -0.1949880
v -0.0575000 0.0225000 -0.1930681
v -0.0543750 0.2275000 -0.1476018
v -0.0412500 0.2275000 -0.1725000
v -0.0806250 0.2275000 -0.1476018
v -0.0937500 0.2275000 -0.1725000
v -0.0806250 0.2275000 -0.1973982
v -0.0543750 0.2275000 -0.1973982
v -0.0675000 0.0225000 -0.1725000
v -0.0675000 0.2275000 -0.1725000
v -0.0450000 0.0000000 -0.1662500
v -0.0568750 0.0325000 -0.1461843
v -0.0562500 0.0000000 -0.1402692
v -0.0462500 0.0325000 -0.1700000
v -0.0781250 0.0325000 -0.1461843
v -0.0787500 0.0000000 -0.1402692
v -0.0887500 0.0325000 -0.1700000
v -0.0900000 0.0000000 -0.1662500
v -0.0781250 0.0325000 -0.1938157
v -0.0787500 0.0000000 -0.1922308
v -0.0568750 0.0325000 -0.1938157
v -0.0562500 0.0000000 -0.1922308
v -0.0675000 0.0000000 -0.1662500
v -0.0675000 0.0325000 -0.1700000
v -0.0475000 0.0225000 0.1200000
v -0.0618750 0.1125000 0.1299880
v -0.0575000 0.0225000 0.1405681
v -0.0537500 0.1125000 0.1137500
v -0.0781250 0.1125000 0.1299880
v -0.0775000 0.0225000 0.1405681
v -0.0862500 0.1125000 0.1137500
v -0.0875000 0.0225000 0.1200000
v -0.0781250 0.1125000 0.0975120
v -0.0775000 0.0225000 0.0994319
v -0.0618750 0.1125000 0.0975120
v -0.0575000 0.0225000 0.0994319
v -0.0543750 0.2275000 0.1448982
v -0.0412500 0.2275000 0.1200000
v -0.0806250 0.2275000 0.1448982
v -0.0937500 0.2275000 0.1200000
v -0.0806250 0.2275000 0.0951018
v -0.0543750 0.2275000 0.0951018
v -0.0675000 0.0225000 0.1200000
v -0.0675000 0.2275000 0.1200000
v -0.0450000 0.0000000 0.1262500
v -0.0568750 0.0325000 0.1463157
v -0.0562500 0.0000000 0.1522308
v -0.0462500 0.0325000 0.1225000
v -0.0781250 0.0325000 0.1463157
v -0.0787500 0.0000000 0.1522308
v -0.0887500 0.0325000 0.1225000
v -0.0900000 0.0000000 0.1262500
v -0.0781250 0.0325000 0.0986843
v -0.0787500 0.0000000 0.1002692
v -0.0568750 0.0325000 0.0986843
v -0.0562500 0.0000000 0.1002692
v -0.0675000 0.0000000 0.1262500
v -0.0675000 0.0325000 0.1225000
v 0.0967904 0.4300000 0.1827750
v 0.0833952 0.4382861 0.1827750
v 0.0833952 0.4382861 0.2322250
v 0.0967904 0.4300000 0.2322250
v 0.0566048 0.4382861 0.1827750
v 0.0566048 0.4382861 0.2322250
v 0.0432096 0.4300000 0.1827750
v 0.0432096 0.4300000 0.2322250
v 0.0566048 0.4217139 0.1827750
v 0.0566048 0.4217139 0.2322250
v 0.0833952 0.4217139 0.1827750
v 0.0833952 0.4217139 0.2322250
v 0.0700000 0.4300000 0.1827750
v 0.0700000 0.4300000 0.2322250
v 0.0540566 0.4075000 0.2564000
v 0.0526533 0.4103725 0.2564000
v 0.0526533 0.4103725 0.2736000
v 0.0540566 0.4075000 0.2736000
v 0.0498467 0.4103725 0.2564000
v 0.0498467 0.4103725 0.2736000
v 0.0484434 0.4075000 0.2564000
v 0.0484434 0.4075000 0.2736000
v 0.0498467 0.4046275 0.2564000
v 0.0498467 0.4046275 0.2736000
v 0.0526533 0.4046275 0.2564000
v 0.0526533 0.4046275 0.2736000
v 0.0512500 0.4075000 0.2564000
v 0.0512500 0.4075000 0.2736000
v 0.0297202 0.3450000 0.3558100
v 0.0273601 0.3475411 0.3558100
v 0.0273601 0.3475411 0.3626900
v 0.0297202 0.3450000 0.3626900
v 0.0226399 0.3475411 0.3558100
v 0.0226399 0.3475411 0.3626900
v 0.0202798 0.3450000 0.3558100
v 0.0202798 0.3450000 0.3626900
v 0.0226399 0.3424589 0.3558100
v 0.0226399 0.3424589 0.3626900
v 0.0273601 0.3424589 0.3558100
v 0.0273601 0.3424589 0.3626900
v 0.0250000 0.3450000 0.3558100
v 0.0250000 0.3450000 0.3626900
v 0.0875000 0.0225000 -0.1725000
v 0.0781250 0.1125000 -0.1625120
v 0.0775000 0.0225000 -0.1519319
v 0.0862500 0.1125000 -0.1787500
v 0.0618750 0.1125000 -0.1625120
v 0.0575000 0.0225000 -0.1519319
v 0.0537500 0.1125000 -0.1787500
v 0.0475000 0.0225000 -0.1725000
v 0.0618750 0.1125000 -0.1949880
v 0.0575000 0.0225000 -0.1930681
v 0.0781250 0.1125000 -0.1949880
v 0.0775000 0.0225000 -0.1930681
v 0.0806250 0.2275000 -0.1476018
v 0.0937500 0.2275000 -0.1725000
v 0.0543750 0.2275000 -0.1476018
v 0.0412500 0.2275000 -0.1725000
v 0.0543750 0.2275000 -0.1973982
v 0.0806250 0.2275000 -0.1973982
v 0.0675000 0.0225000 -0.1725000
v 0.0675000 0.2275000 -0.1725000
v 0.0900000 0.0000000 -0.1662500
v 0.0781250 0.0325000 -0.1461843
v 0.0787500 0.0000000 -0.1402692
v 0.0887500 0.0325000 -0.1700000
v 0.0568750 0.0325000 -0.1461843
v 0.0562500 0.0000000 -0.1402692
v 0.0462500 0.0325000 -0.1700000
v 0.0450000 0.0000000 -0.1662500
v 0.0568750 0.0325000 -0.1938157
v 0.0562500 0.0000000 -0.1922308
v 0.0781250 0.0325000 -0.1938157
v 0.0787500 0.0000000 -0.1922308
v 0.0675000 0.0000000 -0.1662500
v 0.0675000 0.0325000 -0.1700000
v 0.0875000 0.0225000 0.1200000
v 0.0781250 0.1125000 0.1299880
v 0.0775000 0.0225000 0.1405681
v 0.0862500 0.1125000 0.1137500
v 0.0618750 0.1125000 0.1299880
v 0.0575000 0.0225000 0.1405681
v 0.0537500 0.1125000 0.1137500
v 0.0475000 0.0225000 0.1200000
v 0.0618750 0.1125000 0.0975120
v 0.0575000 0.0225000 0.0994319
v 0.0781250 0.1125000 0.0975120
v 0.0775000 0.0225000 0.0994319
v 0.0806250 0.2275000 0.1448982
v 0.0937500 0.2275000 0.1200000
v 0.0543750 0.2275000 0.1448982
v 0.0412500 0.2275000 0.1200000
v 0.0543750 0.2275000 0.0951018
v 0.0806250 0.2275000 0.0951018
v 0.0675000 0.0225000 0.1200000
v 0.0675000 0.2275000 0.1200000
v 0.0900000 0.0000000 0.1262500
v 0.0781250 0.0325000 0.1463157
v 0.0787500 0.0000000 0.1522308
v 0.0887500 0.0325000 0.1225000
v 0.0568750 0.0325000 0.1463157
v 0.0562500 0.0000000 0.1522308
v 0.0462500 0.0325000 0.1225000
v 0.0450000 0.0000000 0.1262500
v 0.0568750 0.0325000 0.0986843
v 0.0562500 0.0000000 0.1002692
v 0.0781250 0.0325000 0.0986843
v 0.0787500 0.0000000 0.1002692
v 0.0675000 0.0000000 0.1262500
v 0.0675000 0.0325000 0.1225000
v 0.0280662 0.1925000 -0.1384000
v 0.0140331 0.2068626 -0.1384000
v 0.0275000 0.2206458 -0.0825000
v 0.0550000 0.1925000 -0.0825000
v -0.0140331 0.2068626 -0.1384000
v -0.0275000 0.2206458 -0.0825000
v -0.0280662 0.1925000 -0.1384000
v -0.0550000 0.1925000 -0.0825000
v -0.0140331 0.1781374 -0.1384000
v -0.0275000 0.1643542 -0.0825000
v 0.0140331 0.1781374 -0.1384000
v 0.0275000 0.1643542 -0.0825000
v 0.0140331 0.2068626 -0.0266000
v 0.0280662 0.1925000 -0.0266000
v -0.0140331 0.2068626 -0.0266000
v -0.0280662 0.1925000 -0.0266000
v -0.0140331 0.1781374 -0.0266000
v 0.0140331 0.1781374 -0.0266000
v 0.0000000 0.1925000 -0.1384000
v 0.0000000 0.1925000 -0.0266000
v 0.0112500 0.3300000 -0.2250000
v 0.0056250 0.3300000 -0.2152572
v 0.0160000 0.2375000 -0.2524223
v 0.0195000 0.2375000 -0.2600000
v -0.0056250 0.3300000 -0.2152572
v 0.0090000 0.2375000 -0.2524223
v -0.0112500 0.3300000 -0.2250000
v 0.0055000 0.2375000 -0.2600000
v -0.0056250 0.3300000 -0.2347428
v 0.0090000 0.2375000 -0.2675777
v 0.0056250 0.3300000 -0.2347428
v 0.0160000 0.2375000 -0.2675777
v 0.0206250 0.1250000 -0.2670873
v 0.0237500 0.1250000 -0.2725000
v 0.0143750 0.1250000 -0.2670873
v 0.0112500 0.1250000 -0.2725000
v 0.0143750 0.1250000 -0.2779127
v 0.0206250 0.1250000 -0.2779127
v 0.0000000 0.3300000 -0.2250000
v 0.0175000 0.1250000 -0.2725000
v 0.0245165 0.0820500 -0.2725000
v 0.0210083 0.1379500 -0.2664235
v 0.0210083 0.0820500 -0.2664235
v 0.0245165 0.1379500 -0.2725000
v 0.0139917 0.1379500 -0.2664235
v 0.0139917 0.0820500 -0.2664235
v 0.0104835 0.1379500 -0.2725000
v 0.0104835 0.0820500 -0.2725000
v 0.0139917 0.1379500 -0.2785765
v 0.0139917 0.0820500 -0.2785765
v 0.0210083 0.1379500 -0.2785765
v 0.0210083 0.0820500 -0.2785765
v 0.0175000 0.0820500 -0.2725000
v 0.0175000 0.1379500 -0.2725000
vt 0.1250000 0.8750000
vt 0.1250000 0.8750000
vt 0.1250000 0.8750000
vt 0.1250000 0.8750000
vt 0.1250000 0.8750000
vt 0.1250000 0.8750000
vt 0.1250000 0.8750000
vt 0.1250000 0.8750000
vt 0.1250000 0.8750000
vt 0.1250000 0.8750000
vt 0.1250000 0.8750000
vt 0.1250000 0.8750000
vt 0.1250000 0.8750000
vt 0.1250000 0.8750000
vt 0.1250000 0.8750000
vt 0.1250000 0.8750000
vt 0.3750000 0.8750000
vt 0.3750000 0.8750000
vt 0.3750000 0.8750000
vt 0.3750000 0.8750000
vt 0.1250000 0.8750000
vt 0.1250000 0.8750000
vt 0.1250000 0.8750000
vt 0.1250000 0.8750000
vt 0.3750000 0.8750000
vt 0.3750000 0.8750000
vt 0.1250000 0.8750000
vt 0.1250000 0.8750000
vt 0.1250000 0.8750000
vt 0.1250000 0.8750000
vt 0.1250000 0.8750000
vt 0.1250000 0.8750000
vt 0.1250000 0.8750000
vt 0.1250000 0.8750000
vt 0.1250000 0.8750000
vt 0.1250000 0.8750000
vt 0.1250000 0.8750000
vt 0.1250000 0.8750000
vt 0.3750000 0.8750000
vt 0.3750000 0.8750000
vt 0.3750000 0.8750000
vt 0.3750000 0.8750000
vt 0.3750000 0.8750000
vt 0.3750000 0.8750000
vt 0.1250000 0.8750000
vt 0.1250000 0.8750000
vt 0.1250000 0.8750000
vt 0.1250000 0.8750000
vt 0.1250000 0.8750000
vt 0.1250000 0.8750000
vt 0.1250000 0.8750000
vt 0.1250000 0.8750000
vt 0.1250000 0.8750000
vt 0.1250000 0.8750000
vt 0.1250000 0.8750000
vt 0.1250000 0.8750000
vt 0.1250000 0.8750000
vt 0.1250000 0.8750000
vt 0.1250000 0.8750000
vt 0.1250000 0.8750000
vt 0.1250000 0.8750000
vt 0.1250000 0.8750000
vt 0.1250000 0.8750000
vt 0.1250000 0.8750000
vt 0.1250000 0.8750000
vt 0.1250000 0.8750000
vt 0.1250000 0.8750000
vt 0.1250000 0.8750000
vt 0.1250000 0.8750000
vt 0.1250000 0.8750000
vt 0.1250000 0.8750000
vt 0.1250000 0.8750000
vt 0.1250000 0.8750000
vt 0.1250000 0.8750000
vt 0.1250000 0.8750000
vt 0.1250000 0.8750000
vt 0.1250000 0.8750000
vt 0.1250000 0.8750000
vt 0.1250000 0.8750000
vt 0.1250000 0.8750000
vt 0.1250000 0.8750000
vt 0.1250000 0.8750000
vt 0.1250000 0.8750000
vt 0.1250000 0.8750000
vt 0.1250000 0.8750000
vt 0.1250000 0.8750000
vt 0.1250000 0.8750000
vt 0.1250000 0.8750000
vt 0.1250000 0.8750000
vt 0.1250000 0.8750000
vt 0.1250000 0.8750000
vt 0.1250000 0.8750000
vt 0.1250000 0.8750000
vt 0.1250000 0.8750000
vt 0.1250000 0.8750000
vt 0.1250000 0.8750000
vt 0.1250000 0.8750000
vt 0.1250000 0.8750000
vt 0.1250000 0.8750000
vt 0.1250000 0.8750000
vt 0.1250000 0.8750000
vt 0.1250000 0.8750000
vt 0.1250000 0.8750000
vt 0.1250000 0.8750000
vt 0.1250000 0.8750000
vt 0.1250000 0.8750000
vt 0.1250000 0.8750000
vt 0.1250000 0.8750000
vt 0.1250000 0.8750000
vt 0.1250000 0.8750000
vt 0.1250000 0.8750000
vt 0.1250000 0.8750000
vt 0.1250000 0.8750000
vt 0.1250000 0.8750000
vt 0.1250000 0.8750000
vt 0.1250000 0.8750000
vt 0.1250000 0.8750000
vt 0.1250000 0.8750000
vt 0.1250000 0.8750000
vt 0.1250000 0.8750000
vt 0.1250000 0.8750000
vt 0.1250000 0.8750000
vt 0.1250000 0.8750000
vt 0.1250000 0.8750000
vt 0.1250000 0.8750000
vt 0.1250000 0.8750000
vt 0.1250000 0.8750000
vt 0.1250000 0.8750000
vt 0.1250000 0.8750000
vt 0.1250000 0.8750000
vt 0.1250000 0.8750000
vt 0.1250000 0.8750000
vt 0.1250000 0.8750000
vt 0.1250000 0.8750000
vt 0.1250000 0.8750000
vt 0.1250000 0.8750000
vt 0.1250000 0.8750000
vt 0.1250000 0.8750000
vt 0.1250000 0.8750000
vt 0.1250000 0.8750000
vt 0.1250000 0.8750000
vt 0.1250000 0.8750000
vt 0.1250000 0.8750000
vt 0.1250000 0.8750000
vt 0.1250000 0.8750000
vt 0.1250000 0.8750000
vt 0.1250000 0.8750000
vt 0.1250000 0.8750000
vt 0.1250000 0.8750000
vt 0.1250000 0.8750000
vt 0.1250000 0.8750000
vt 0.1250000 0.8750000
vt 0.1250000 0.8750000
vt 0.1250000 0.8750000
vt 0.1250000 0.8750000
vt 0.1250000 0.8750000
vt 0.1250000 0.8750000
vt 0.1250000 0.8750000
vt 0.1250000 0.8750000
vt 0.1250000 0.8750000
vt 0.1250000 0.8750000
vt 0.1250000 0.8750000
vt 0.1250000 0.8750000
vt 0.1250000 0.8750000
vt 0.1250000 0.8750000
vt 0.1250000 0.8750000
vt 0.1250000 0.8750000
vt 0.1250000 0.8750000
vt 0.1250000 0.8750000
vt 0.1250000 0.8750000
vt 0.1250000 0.8750000
vt 0.1250000 0.8750000
vt 0.1250000 0.8750000
vt 0.1250000 0.8750000
vt 0.1250000 0.8750000
vt 0.1250000 0.8750000
vt 0.6250000 0.8750000
vt 0.6250000 0.8750000
vt 0.6250000 0.8750000
vt 0.6250000 0.8750000
vt 0.6250000 0.8750000
vt 0.6250000 0.8750000
vt 0.6250000 0.8750000
vt 0.6250000 0.8750000
vt 0.6250000 0.8750000
vt 0.6250000 0.8750000
vt 0.6250000 0.8750000
vt 0.6250000 0.8750000
vt 0.6250000 0.8750000
vt 0.6250000 0.8750000
vt 0.6250000 0.8750000
vt 0.6250000 0.8750000
vt 0.6250000 0.8750000
vt 0.6250000 0.8750000
vt 0.6250000 0.8750000
vt 0.6250000 0.8750000
vt 0.6250000 0.8750000
vt 0.6250000 0.8750000
vt 0.6250000 0.8750000
vt 0.6250000 0.8750000
vt 0.6250000 0.8750000
vt 0.6250000 0.8750000
vt 0.6250000 0.8750000
vt 0.6250000 0.8750000
vt 0.6250000 0.8750000
vt 0.6250000 0.8750000
vt 0.6250000 0.8750000
vt 0.6250000 0.8750000
vt 0.6250000 0.8750000
vt 0.6250000 0.8750000
vt 0.6250000 0.8750000
vt 0.6250000 0.8750000
vt 0.6250000 0.8750000
vt 0.6250000 0.8750000
vt 0.6250000 0.8750000
vt 0.6250000 0.8750000
vt 0.6250000 0.8750000
vt 0.6250000 0.8750000
vt 0.6250000 0.8750000
vt 0.6250000 0.8750000
vt 0.6250000 0.8750000
vt 0.6250000 0.8750000
vt 0.6250000 0.8750000
vt 0.6250000 0.8750000
vt 0.1250000 0.8750000
vt 0.1250000 0.8750000
vt 0.1250000 0.8750000
vt 0.1250000 0.8750000
vt 0.1250000 0.8750000
vt 0.1250000 0.8750000
vt 0.1250000 0.8750000
vt 0.1250000 0.8750000
vt 0.1250000 0.8750000
vt 0.1250000 0.8750000
vt 0.1250000 0.8750000
vt 0.1250000 0.8750000
vt 0.1250000 0.8750000
vt 0.1250000 0.8750000
vt 0.1250000 0.8750000
vt 0.1250000 0.8750000
vt 0.1250000 0.8750000
vt 0.1250000 0.8750000
vt 0.1250000 0.8750000
vt 0.1250000 0.8750000
vt 0.1250000 0.8750000
vt 0.1250000 0.8750000
vt 0.1250000 0.8750000
vt 0.1250000 0.8750000
vt 0.1250000 0.1250000
vt 0.1250000 0.1250000
vt 0.1250000 0.1250000
vt 0.1250000 0.1250000
vt 0.1250000 0.1250000
vt 0.1250000 0.1250000
vt 0.1250000 0.1250000
vt 0.1250000 0.1250000
vt 0.1250000 0.1250000
vt 0.1250000 0.1250000
vt 0.1250000 0.1250000
vt 0.1250000 0.1250000
vt 0.1250000 0.1250000
vt 0.1250000 0.1250000
vt 0.1250000 0.1250000
vt 0.1250000 0.1250000
vt 0.1250000 0.1250000
vt 0.1250000 0.1250000
vt 0.1250000 0.1250000
vt 0.1250000 0.1250000
vt 0.1250000 0.1250000
vt 0.1250000 0.1250000
vt 0.1250000 0.1250000
vt 0.1250000 0.1250000
vt 0.8750000 0.8750000
vt 0.8750000 0.8750000
vt 0.8750000 0.8750000
vt 0.8750000 0.8750000
vt 0.8750000 0.8750000
vt 0.8750000 0.8750000
vt 0.8750000 0.8750000
vt 0.8750000 0.8750000
vt 0.8750000 0.8750000
vt 0.8750000 0.8750000
vt 0.8750000 0.8750000
vt 0.8750000 0.8750000
vt 0.8750000 0.8750000
vt 0.8750000 0.8750000
vt 0.8750000 0.8750000
vt 0.8750000 0.8750000
vt 0.8750000 0.8750000
vt 0.8750000 0.8750000
vt 0.8750000 0.8750000
vt 0.8750000 0.8750000
vt 0.8750000 0.8750000
vt 0.8750000 0.8750000
vt 0.8750000 0.8750000
vt 0.8750000 0.8750000
vt 0.1250000 0.8750000
vt 0.1250000 0.8750000
vt 0.1250000 0.8750000
vt 0.1250000 0.8750000
vt 0.1250000 0.8750000
vt 0.1250000 0.8750000
vt 0.1250000 0.8750000
vt 0.1250000 0.8750000
vt 0.1250000 0.8750000
vt 0.1250000 0.8750000
vt 0.1250000 0.8750000
vt 0.1250000 0.8750000
vt 0.1250000 0.8750000
vt 0.1250000 0.8750000
vt 0.1250000 0.8750000
vt 0.1250000 0.8750000
vt 0.1250000 0.8750000
vt 0.1250000 0.8750000
vt 0.1250000 0.8750000
vt 0.1250000 0.8750000
vt 0.1250000 0.8750000
vt 0.1250000 0.8750000
vt 0.1250000 0.8750000
vt 0.1250000 0.8750000
vt 0.1250000 0.8750000
vt 0.1250000 0.8750000
vt 0.1250000 0.8750000
vt 0.1250000 0.8750000
vt 0.1250000 0.8750000
vt 0.1250000 0.8750000
vt 0.1250000 0.8750000
vt 0.1250000 0.8750000
vt 0.1250000 0.8750000
vt 0.1250000 0.8750000
vt 0.1250000 0.8750000
vt 0.1250000 0.8750000
vt 0.8750000 0.8750000
vt 0.8750000 0.8750000
vt 0.8750000 0.8750000
vt 0.8750000 0.8750000
vt 0.8750000 0.8750000
vt 0.8750000 0.8750000
vt 0.8750000 0.8750000
vt 0.8750000 0.8750000
vt 0.8750000 0.8750000
vt 0.8750000 0.8750000
vt 0.8750000 0.8750000
vt 0.8750000 0.8750000
vt 0.8750000 0.8750000
vt 0.8750000 0.8750000
vt 0.8750000 0.8750000
vt 0.8750000 0.8750000
vt 0.8750000 0.8750000
vt 0.8750000 0.8750000
vt 0.8750000 0.8750000
vt 0.8750000 0.8750000
vt 0.8750000 0.8750000
vt 0.8750000 0.8750000
vt 0.8750000 0.8750000
vt 0.8750000 0.8750000
vt 0.1250000 0.8750000
vt 0.1250000 0.8750000
vt 0.1250000 0.8750000
vt 0.1250000 0.8750000
vt 0.1250000 0.8750000
vt 0.1250000 0.8750000
vt 0.1250000 0.8750000
vt 0.1250000 0.8750000
vt 0.1250000 0.8750000
vt 0.1250000 0.8750000
vt 0.1250000 0.8750000
vt 0.1250000 0.8750000
vt 0.1250000 0.8750000
vt 0.1250000 0.8750000
vt 0.1250000 0.8750000
vt 0.1250000 0.8750000
vt 0.1250000 0.8750000
vt 0.1250000 0.8750000
vt 0.1250000 0.8750000
vt 0.1250000 0.8750000
vt 0.1250000 0.8750000
vt 0.1250000 0.8750000
vt 0.1250000 0.8750000
vt 0.1250000 0.8750000
vt 0.1250000 0.8750000
vt 0.1250000 0.8750000
vt 0.1250000 0.8750000
vt 0.1250000 0.8750000
vt 0.1250000 0.8750000
vt 0.1250000 0.8750000
vt 0.1250000 0.8750000
vt 0.1250000 0.8750000
vt 0.1250000 0.8750000
vt 0.1250000 0.8750000
vt 0.1250000 0.8750000
vt 0.1250000 0.8750000
vt 0.8750000 0.8750000
vt 0.8750000 0.8750000
vt 0.8750000 0.8750000
vt 0.8750000 0.8750000
vt 0.8750000 0.8750000
vt 0.8750000 0.8750000
vt 0.8750000 0.8750000
vt 0.8750000 0.8750000
vt 0.8750000 0.8750000
vt 0.8750000 0.8750000
vt 0.8750000 0.8750000
vt 0.8750000 0.8750000
vt 0.8750000 0.8750000
vt 0.8750000 0.8750000
vt 0.8750000 0.8750000
vt 0.8750000 0.8750000
vt 0.8750000 0.8750000
vt 0.8750000 0.8750000
vt 0.8750000 0.8750000
vt 0.8750000 0.8750000
vt 0.8750000 0.8750000
vt 0.8750000 0.8750000
vt 0.8750000 0.8750000
vt 0.8750000 0.8750000
vt 0.1250000 0.8750000
vt 0.1250000 0.8750000
vt 0.1250000 0.8750000
vt 0.1250000 0.8750000
vt 0.1250000 0.8750000
vt 0.1250000 0.8750000
vt 0.1250000 0.8750000
vt 0.1250000 0.8750000
vt 0.1250000 0.8750000
vt 0.1250000 0.8750000
vt 0.1250000 0.8750000
vt 0.1250000 0.8750000
vt 0.1250000 0.8750000
vt 0.1250000 0.8750000
vt 0.1250000 0.8750000
vt 0.1250000 0.8750000
vt 0.1250000 0.8750000
vt 0.1250000 0.8750000
vt 0.1250000 0.8750000
vt 0.1250000 0.8750000
vt 0.1250000 0.8750000
vt 0.1250000 0.8750000
vt 0.1250000 0.8750000
vt 0.1250000 0.8750000
vt 0.1250000 0.1250000
vt 0.1250000 0.1250000
vt 0.1250000 0.1250000
vt 0.1250000 0.1250000
vt 0.1250000 0.1250000
vt 0.1250000 0.1250000
vt 0.1250000 0.1250000
vt 0.1250000 0.1250000
vt 0.1250000 0.1250000
vt 0.1250000 0.1250000
vt 0.1250000 0.1250000
vt 0.1250000 0.1250000
vt 0.1250000 0.1250000
vt 0.1250000 0.1250000
vt 0.1250000 0.1250000
vt 0.1250000 0.1250000
vt 0.1250000 0.1250000
vt 0.1250000 0.1250000
vt 0.1250000 0.1250000
vt 0.1250000 0.1250000
vt 0.1250000 0.1250000
vt 0.1250000 0.1250000
vt 0.1250000 0.1250000
vt 0.1250000 0.1250000
vt 0.8750000 0.8750000
vt 0.8750000 0.8750000
vt 0.8750000 0.8750000
vt 0.8750000 0.8750000
vt 0.8750000 0.8750000
vt 0.8750000 0.8750000
vt 0.8750000 0.8750000
vt 0.8750000 0.8750000
vt 0.8750000 0.8750000
vt 0.8750000 0.8750000
vt 0.8750000 0.8750000
vt 0.8750000 0.8750000
vt 0.8750000 0.8750000
vt 0.8750000 0.8750000
vt 0.8750000 0.8750000
vt 0.8750000 0.8750000
vt 0.8750000 0.8750000
vt 0.8750000 0.8750000
vt 0.8750000 0.8750000
vt 0.8750000 0.8750000
vt 0.8750000 0.8750000
vt 0.8750000 0.8750000
vt 0.8750000 0.8750000
vt 0.8750000 0.8750000
vt 0.1250000 0.8750000
vt 0.1250000 0.8750000
vt 0.1250000 0.8750000
vt 0.1250000 0.8750000
vt 0.1250000 0.8750000
vt 0.1250000 0.8750000
vt 0.1250000 0.8750000
vt 0.1250000 0.8750000
vt 0.1250000 0.8750000
vt 0.1250000 0.8750000
vt 0.1250000 0.8750000
vt 0.1250000 0.8750000
vt 0.1250000 0.8750000
vt 0.1250000 0.8750000
vt 0.1250000 0.8750000
vt 0.1250000 0.8750000
vt 0.1250000 0.8750000
vt 0.1250000 0.8750000
vt 0.1250000 0.8750000
vt 0.1250000 0.8750000
vt 0.1250000 0.8750000
vt 0.1250000 0.8750000
vt 0.1250000 0.8750000
vt 0.1250000 0.8750000
vt 0.1250000 0.8750000
vt 0.1250000 0.8750000
vt 0.1250000 0.8750000
vt 0.1250000 0.8750000
vt 0.1250000 0.8750000
vt 0.1250000 0.8750000
vt 0.1250000 0.8750000
vt 0.1250000 0.8750000
vt 0.1250000 0.8750000
vt 0.1250000 0.8750000
vt 0.1250000 0.8750000
vt 0.1250000 0.8750000
vt 0.8750000 0.8750000
vt 0.8750000 0.8750000
vt 0.8750000 0.8750000
vt 0.8750000 0.8750000
vt 0.8750000 0.8750000
vt 0.8750000 0.8750000
vt 0.8750000 0.8750000
vt 0.8750000 0.8750000
vt 0.8750000 0.8750000
vt 0.8750000 0.8750000
vt 0.8750000 0.8750000
vt 0.8750000 0.8750000
vt 0.8750000 0.8750000
vt 0.8750000 0.8750000
vt 0.8750000 0.8750000
vt 0.8750000 0.8750000
vt 0.8750000 0.8750000
vt 0.8750000 0.8750000
vt 0.8750000 0.8750000
vt 0.8750000 0.8750000
vt 0.8750000 0.8750000
vt 0.8750000 0.8750000
vt 0.8750000 0.8750000
vt 0.8750000 0.8750000
vt 0.1250000 0.8750000
vt 0.1250000 0.8750000
vt 0.1250000 0.8750000
vt 0.1250000 0.8750000
vt 0.1250000 0.8750000
vt 0.1250000 0.8750000
vt 0.1250000 0.8750000
vt 0.1250000 0.8750000
vt 0.1250000 0.8750000
vt 0.1250000 0.8750000
vt 0.1250000 0.8750000
vt 0.1250000 0.8750000
vt 0.1250000 0.8750000
vt 0.1250000 0.8750000
vt 0.1250000 0.8750000
vt 0.1250000 0.8750000
vt 0.1250000 0.8750000
vt 0.1250000 0.8750000
vt 0.1250000 0.8750000
vt 0.1250000 0.8750000
vt 0.1250000 0.8750000
vt 0.1250000 0.8750000
vt 0.1250000 0.8750000
vt 0.1250000 0.8750000
vt 0.1250000 0.8750000
vt 0.1250000 0.8750000
vt 0.1250000 0.8750000
vt 0.1250000 0.8750000
vt 0.1250000 0.8750000
vt 0.1250000 0.8750000
vt 0.1250000 0.8750000
vt 0.1250000 0.8750000
vt 0.1250000 0.8750000
vt 0.1250000 0.8750000
vt 0.1250000 0.8750000
vt 0.1250000 0.8750000
vt 0.8750000 0.8750000
vt 0.8750000 0.8750000
vt 0.8750000 0.8750000
vt 0.8750000 0.8750000
vt 0.8750000 0.8750000
vt 0.8750000 0.8750000
vt 0.8750000 0.8750000
vt 0.8750000 0.8750000
vt 0.8750000 0.8750000
vt 0.8750000 0.8750000
vt 0.8750000 0.8750000
vt 0.8750000 0.8750000
vt 0.8750000 0.8750000
vt 0.8750000 0.8750000
vt 0.8750000 0.8750000
vt 0.8750000 0.8750000
vt 0.8750000 0.8750000
vt 0.8750000 0.8750000
vt 0.8750000 0.8750000
vt 0.8750000 0.8750000
vt 0.8750000 0.8750000
vt 0.8750000 0.8750000
vt 0.8750000 0.8750000
vt 0.8750000 0.8750000
vt 0.6250000 0.8750000
vt 0.6250000 0.8750000
vt 0.6250000 0.8750000
vt 0.6250000 0.8750000
vt 0.6250000 0.8750000
vt 0.6250000 0.8750000
vt 0.6250000 0.8750000
vt 0.6250000 0.8750000
vt 0.6250000 0.8750000
vt 0.6250000 0.8750000
vt 0.6250000 0.8750000
vt 0.6250000 0.8750000
vt 0.6250000 0.8750000
vt 0.6250000 0.8750000
vt 0.6250000 0.8750000
vt 0.6250000 0.8750000
vt 0.6250000 0.8750000
vt 0.6250000 0.8750000
vt 0.6250000 0.8750000
vt 0.6250000 0.8750000
vt 0.6250000 0.8750000
vt 0.6250000 0.8750000
vt 0.6250000 0.8750000
vt 0.6250000 0.8750000
vt 0.6250000 0.8750000
vt 0.6250000 0.8750000
vt 0.6250000 0.8750000
vt 0.6250000 0.8750000
vt 0.6250000 0.8750000
vt 0.6250000 0.8750000
vt 0.6250000 0.8750000
vt 0.6250000 0.8750000
vt 0.6250000 0.8750000
vt 0.6250000 0.8750000
vt 0.6250000 0.8750000
vt 0.6250000 0.8750000
vt 0.1250000 0.8750000
vt 0.1250000 0.8750000
vt 0.1250000 0.8750000
vt 0.1250000 0.8750000
vt 0.1250000 0.8750000
vt 0.1250000 0.8750000
vt 0.1250000 0.8750000
vt 0.1250000 0.8750000
vt 0.1250000 0.8750000
vt 0.1250000 0.8750000
vt 0.1250000 0.8750000
vt 0.1250000 0.8750000
vt 0.1250000 0.8750000
vt 0.1250000 0.8750000
vt 0.1250000 0.8750000
vt 0.1250000 0.8750000
vt 0.1250000 0.8750000
vt 0.1250000 0.8750000
vt 0.1250000 0.8750000
vt 0.1250000 0.8750000
vt 0.1250000 0.8750000
vt 0.1250000 0.8750000
vt 0.1250000 0.8750000
vt 0.1250000 0.8750000
vt 0.1250000 0.8750000
vt 0.1250000 0.8750000
vt 0.1250000 0.8750000
vt 0.1250000 0.8750000
vt 0.1250000 0.8750000
vt 0.1250000 0.8750000
vt 0.1250000 0.8750000
vt 0.1250000 0.8750000
vt 0.1250000 0.8750000
vt 0.1250000 0.8750000
vt 0.1250000 0.8750000
vt 0.1250000 0.8750000
vt 0.3750000 0.8750000
vt 0.3750000 0.8750000
vt 0.3750000 0.8750000
vt 0.3750000 0.8750000
vt 0.3750000 0.8750000
vt 0.3750000 0.8750000
vt 0.3750000 0.8750000
vt 0.3750000 0.8750000
vt 0.3750000 0.8750000
vt 0.3750000 0.8750000
vt 0.3750000 0.8750000
vt 0.3750000 0.8750000
vt 0.3750000 0.8750000
vt 0.3750000 0.8750000
vt 0.3750000 0.8750000
vt 0.3750000 0.8750000
vt 0.3750000 0.8750000
vt 0.3750000 0.8750000
vt 0.3750000 0.8750000
vt 0.3750000 0.8750000
vt 0.3750000 0.8750000
vt 0.3750000 0.8750000
vt 0.3750000 0.8750000
vt 0.3750000 0.8750000
vn 0.774295950 0.261330176 -0.576343927
vn 0.748533964 0.281210820 -0.600514263
vn 0.350905393 0.690279184 -0.632755919
vn 0.314302090 0.688207380 -0.653899685
vn -0.341874582 0.672514336 -0.656388786
vn -0.319060390 0.698626327 -0.640407466
vn -0.757597482 0.255694329 -0.600555132
vn -0.758764554 0.285054269 -0.585679448
vn -0.831827748 -0.280747551 -0.478793703
vn -0.811470174 -0.304854828 -0.498577667
vn -0.424804043 -0.835647995 -0.348186665
vn -0.384443657 -0.841791927 -0.378931955
vn 0.417156656 -0.820604533 -0.390625811
vn 0.388458976 -0.850584017 -0.354410007
vn 0.815618162 -0.275276705 -0.508910355
vn 0.821372178 -0.308574834 -0.479717956
vn 0.934763748 0.351174018 -0.053791677
vn 0.930905621 0.360445986 -0.059105119
vn 0.415034931 0.908775702 -0.043275033
vn 0.404635853 0.913168770 -0.048914467
vn -0.414920595 0.908525347 -0.049219857
vn -0.404737403 0.913397946 -0.043495140
vn -0.934469956 0.351063646 -0.059331426
vn -0.931177983 0.360551445 -0.053946445
vn -0.934763748 -0.351174018 -0.053791677
vn -0.930905621 -0.360445986 -0.059105119
vn -0.415034931 -0.908775702 -0.043275033
vn -0.404635853 -0.913168770 -0.048914467
vn 0.414920595 -0.908525347 -0.049219857
vn 0.404737403 -0.913397946 -0.043495140
vn 0.934469956 -0.351063646 -0.059331426
vn 0.931177983 -0.360551445 -0.053946445
vn 0.930197928 0.360171968 0.070766994
vn 0.945479983 0.309661051 0.100884269
vn 0.404978617 0.913942308 -0.026491081
vn 0.464032612 0.885798847 0.005842805
vn -0.405120671 0.914262892 -0.000778240
vn -0.463887650 0.885522127 -0.025667308
vn -0.928314928 0.359442872 0.095037971
vn -0.947690468 0.310385023 0.074457465
vn -0.925529930 -0.358364522 0.122348752
vn -0.940290210 -0.307961310 0.144962586
vn -0.402863763 -0.909169576 0.105410965
vn -0.459916220 -0.877941005 0.133028801
vn 0.401651229 -0.906433170 0.130595551
vn 0.461612393 -0.881178856 0.102165664
vn 0.922514242 -0.357196850 0.146211774
vn 0.943584341 -0.309040195 0.118923292
vn 0.887722010 0.290744315 0.356955706
vn 0.888179267 0.294316881 0.352867060
vn 0.439681091 0.839313861 0.319738614
vn 0.436356972 0.842766670 0.315177621
vn -0.440259228 0.840417476 0.316022593
vn -0.435543544 0.841195640 0.320455482
vn -0.888813778 0.291101888 0.353934683
vn -0.886619277 0.293799946 0.357194416
vn -0.839564982 -0.274972056 0.468530693
vn -0.839793736 -0.278283318 0.466159712
vn -0.369581618 -0.705499922 0.604714219
vn -0.366955054 -0.708725902 0.602537621
vn 0.370357879 -0.706981738 0.602504658
vn 0.365862833 -0.706616420 0.605671217
vn 0.840849065 -0.275392615 0.465973987
vn 0.837956157 -0.277674397 0.469815292
vn 0.000000000 0.000000000 -1.000000000
vn 0.000000000 0.000000000 -1.000000000
vn 0.000000000 0.000000000 -1.000000000
vn 0.000000000 0.000000000 -1.000000000
vn -0.000000000 0.000000000 -1.000000000
vn 0.000000000 0.000000000 -1.000000000
vn 0.000000000 -0.000000000 -1.000000000
vn 0.000000000 0.000000000 -1.000000000
vn 0.000000000 0.000000000 1.000000000
vn 0.000000000 0.000000000 1.000000000
vn 0.000000000 -0.000000000 1.000000000
vn 0.000000000 0.000000000 1.000000000
vn 0.000000000 0.000000000 1.000000000
vn 0.000000000 0.000000000 1.000000000
vn 0.000000000 0.000000000 1.000000000
vn -0.000000000 0.000000000 1.000000000
vn 0.921567252 -0.191533322 0.337681487
vn 0.930678330 -0.175033616 0.321249248
vn 0.386298594 -0.412498096 0.824996192
vn 0.407822371 -0.400625771 0.820475414
vn -0.387961959 -0.403723698 0.828548547
vn -0.406242324 -0.408648302 0.817296604
vn -0.923355373 -0.181502445 0.338336692
vn -0.929163340 -0.183820900 0.320726308
vn -0.935953535 0.079839051 -0.342952921
vn -0.942012214 0.082963969 -0.325161450
vn -0.409222647 0.262186141 -0.873953804
vn -0.428714822 0.268856686 -0.862507788
vn 0.408008697 0.272504116 -0.871361240
vn 0.429862182 0.259444830 -0.864816099
vn 0.935114692 0.090302486 -0.342645551
vn 0.942691929 0.073819531 -0.325396072
vn 0.944594838 0.037816520 0.326052914
vn 0.935841590 0.003920770 0.352399130
vn 0.438132288 -0.176290854 0.881454271
vn 0.405883172 -0.204252967 0.890808383
vn -0.436453266 -0.196189934 0.878076339
vn -0.407923341 -0.179057205 0.895286024
vn -0.945093429 0.019381677 0.326225016
vn -0.935459824 0.028828271 0.352255373
vn -0.884448906 0.352912164 -0.305291889
vn -0.877577218 0.347354219 -0.330459184
vn -0.355706351 0.601125890 -0.715626059
vn -0.333652413 0.593667594 -0.732280585
vn 0.359295392 0.590253791 -0.722846653
vn 0.329409584 0.607293686 -0.722968674
vn 0.889755094 0.337655221 -0.307123467
vn 0.870305782 0.367650310 -0.327721063
vn 0.000000000 -1.000000000 0.000000000
vn 0.000000000 -1.000000000 0.000000000
vn 0.000000000 -1.000000000 0.000000000
vn 0.000000000 -1.000000000 0.000000000
vn -0.000000000 -1.000000000 0.000000000
vn 0.000000000 -1.000000000 0.000000000
vn 0.000000000 -1.000000000 -0.000000000
vn 0.000000000 -1.000000000 0.000000000
vn 0.000000000 1.000000000 0.000000000
vn 0.000000000 1.000000000 0.000000000
vn 0.000000000 1.000000000 -0.000000000
vn 0.000000000 1.000000000 0.000000000
vn 0.000000000 1.000000000 0.000000000
vn 0.000000000 1.000000000 0.000000000
vn 0.000000000 1.000000000 0.000000000
vn -0.000000000 1.000000000 0.000000000
vn 0.952597701 0.279494282 -0.120168905
vn 0.946800460 0.294133158 -0.130593167
vn 0.501257365 0.857182725 -0.118232100
vn 0.479262554 0.867782549 -0.131380560
vn -0.500363692 0.855654486 -0.132255726
vn -0.479967222 0.869058466 -0.119870133
vn -0.951255713 0.279100539 -0.131207685
vn -0.947941525 0.294487642 -0.121177116
vn -0.952597701 -0.279494282 -0.120168905
vn -0.946800460 -0.294133158 -0.130593167
vn -0.501257365 -0.857182725 -0.118232100
vn -0.479262554 -0.867782549 -0.131380560
vn 0.500363692 -0.855654486 -0.132255726
vn 0.479967222 -0.869058466 -0.119870133
vn 0.951255713 -0.279100539 -0.131207685
vn 0.947941525 -0.294487642 -0.121177116
vn 0.900086331 0.279620940 0.334150754
vn 0.884394261 0.329695781 0.330374761
vn 0.363768798 0.658662380 0.658662380
vn 0.317859925 0.690641613 0.649599284
vn -0.371865225 0.673322274 0.639025328
vn -0.309462612 0.672396048 0.672396048
vn -0.910059834 0.282719310 0.303085615
vn -0.869945961 0.324309559 0.371506844
vn -0.954476870 -0.296517913 -0.032419633
vn -0.931826972 -0.347378352 -0.105008451
vn -0.467158319 -0.845865870 -0.257437439
vn -0.396971169 -0.862533422 -0.313767408
vn 0.461642294 -0.835878212 -0.296974757
vn 0.402967284 -0.875561696 -0.266475299
vn 0.952718816 -0.295971755 -0.068757386
vn 0.935568834 -0.348773291 -0.055390862
vn 0.000000000 0.000000000 -1.000000000
vn 0.000000000 0.000000000 -1.000000000
vn 0.000000000 0.000000000 -1.000000000
vn 0.000000000 0.000000000 -1.000000000
vn -0.000000000 0.000000000 -1.000000000
vn 0.000000000 0.000000000 -1.000000000
vn 0.000000000 -0.000000000 -1.000000000
vn 0.000000000 0.000000000 -1.000000000
vn 0.000000000 0.000000000 1.000000000
vn 0.000000000 0.000000000 1.000000000
vn 0.000000000 -0.000000000 1.000000000
vn 0.000000000 0.000000000 1.000000000
vn 0.000000000 0.000000000 1.000000000
vn 0.000000000 0.000000000 1.000000000
vn 0.000000000 0.000000000 1.000000000
vn -0.000000000 0.000000000 1.000000000
vn 0.675914567 0.473798988 -0.564494479
vn 0.675914546 0.473799009 -0.564494487
vn 0.214386167 0.875896035 -0.432255372
vn 0.214385735 0.875896016 -0.432255626
vn -0.214386119 0.875895840 -0.432255791
vn -0.214385759 0.875896115 -0.432255412
vn -0.675914558 0.473798981 -0.564494496
vn -0.675914551 0.473799012 -0.564494478
vn -0.675914567 -0.473798988 -0.564494479
vn -0.675914546 -0.473799009 -0.564494487
vn -0.214386167 -0.875896035 -0.432255372
vn -0.214385735 -0.875896016 -0.432255626
vn 0.214386119 -0.875895840 -0.432255791
vn 0.214385759 -0.875896115 -0.432255412
vn 0.675914558 -0.473798981 -0.564494496
vn 0.675914551 -0.473799012 -0.564494478
vn 0.675914551 0.473799012 0.564494478
vn 0.675914558 0.473798981 0.564494496
vn 0.214385759 0.875896115 0.432255412
vn 0.214386119 0.875895840 0.432255791
vn -0.214385735 0.875896016 0.432255626
vn -0.214386167 0.875896035 0.432255372
vn -0.675914546 0.473799009 0.564494487
vn -0.675914567 0.473798988 0.564494479
vn -0.675914551 -0.473799012 0.564494478
vn -0.675914558 -0.473798981 0.564494496
vn -0.214385759 -0.875896115 0.432255412
vn -0.214386119 -0.875895840 0.432255791
vn 0.214385735 -0.875896016 0.432255626
vn 0.214386167 -0.875896035 0.432255372
vn 0.675914546 -0.473799009 0.564494487
vn 0.675914567 -0.473798988 0.564494479
vn 0.000000000 0.000000000 -1.000000000
vn 0.000000000 0.000000000 -1.000000000
vn 0.000000000 0.000000000 -1.000000000
vn 0.000000000 0.000000000 -1.000000000
vn -0.000000000 0.000000000 -1.000000000
vn 0.000000000 0.000000000 -1.000000000
vn 0.000000000 -0.000000000 -1.000000000
vn 0.000000000 0.000000000 -1.000000000
vn 0.000000000 0.000000000 1.000000000
vn 0.000000000 0.000000000 1.000000000
vn 0.000000000 -0.000000000 1.000000000
vn 0.000000000 0.000000000 1.000000000
vn 0.000000000 0.000000000 1.000000000
vn 0.000000000 0.000000000 1.000000000
vn 0.000000000 0.000000000 1.000000000
vn -0.000000000 0.000000000 1.000000000
vn 0.526071542 0.850440317 0.000000000
vn 0.526071542 0.850440317 -0.000000000
vn 0.000000000 1.000000000 0.000000000
vn 0.000000000 1.000000000 -0.000000000
vn -0.526071542 0.850440317 0.000000000
vn -0.526071542 0.850440317 0.000000000
vn -0.526071542 -0.850440317 0.000000000
vn -0.526071542 -0.850440317 0.000000000
vn 0.000000000 -1.000000000 0.000000000
vn 0.000000000 -1.000000000 0.000000000
vn 0.526071542 -0.850440317 0.000000000
vn 0.526071542 -0.850440317 0.000000000
vn 0.000000000 0.000000000 -1.000000000
vn 0.000000000 0.000000000 -1.000000000
vn 0.000000000 0.000000000 -1.000000000
vn -0.000000000 0.000000000 -1.000000000
vn 0.000000000 -0.000000000 -1.000000000
vn 0.000000000 0.000000000 -1.000000000
vn 0.000000000 0.000000000 1.000000000
vn 0.000000000 -0.000000000 1.000000000
vn 0.000000000 0.000000000 1.000000000
vn 0.000000000 0.000000000 1.000000000
vn 0.000000000 0.000000000 1.000000000
vn -0.000000000 0.000000000 1.000000000
vn 0.898511861 0.438949241 0.000000000
vn 0.898511861 0.438949241 -0.000000000
vn 0.000000000 1.000000000 0.000000000
vn 0.000000000 1.000000000 -0.000000000
vn -0.898511861 0.438949241 0.000000000
vn -0.898511861 0.438949241 0.000000000
vn -0.898511861 -0.438949241 0.000000000
vn -0.898511861 -0.438949241 0.000000000
vn 0.000000000 -1.000000000 0.000000000
vn 0.000000000 -1.000000000 0.000000000
vn 0.898511861 -0.438949241 0.000000000
vn 0.898511861 -0.438949241 0.000000000
vn 0.000000000 0.000000000 -1.000000000
vn 0.000000000 0.000000000 -1.000000000
vn 0.000000000 0.000000000 -1.000000000
vn -0.000000000 0.000000000 -1.000000000
vn 0.000000000 -0.000000000 -1.000000000
vn 0.000000000 0.000000000 -1.000000000
vn 0.000000000 0.000000000 1.000000000
vn 0.000000000 -0.000000000 1.000000000
vn 0.000000000 0.000000000 1.000000000
vn 0.000000000 0.000000000 1.000000000
vn 0.000000000 0.000000000 1.000000000
vn -0.000000000 0.000000000 1.000000000
vn 0.732720571 0.680529621 0.000000000
vn 0.732720571 0.680529621 -0.000000000
vn 0.000000000 1.000000000 0.000000000
vn 0.000000000 1.000000000 -0.000000000
vn -0.732720571 0.680529621 0.000000000
vn -0.732720571 0.680529621 0.000000000
vn -0.732720571 -0.680529621 0.000000000
vn -0.732720571 -0.680529621 0.000000000
vn 0.000000000 -1.000000000 0.000000000
vn 0.000000000 -1.000000000 0.000000000
vn 0.732720571 -0.680529621 0.000000000
vn 0.732720571 -0.680529621 0.000000000
vn 0.000000000 0.000000000 -1.000000000
vn 0.000000000 0.000000000 -1.000000000
vn 0.000000000 0.000000000 -1.000000000
vn -0.000000000 0.000000000 -1.000000000
vn 0.000000000 -0.000000000 -1.000000000
vn 0.000000000 0.000000000 -1.000000000
vn 0.000000000 0.000000000 1.000000000
vn 0.000000000 -0.000000000 1.000000000
vn 0.000000000 0.000000000 1.000000000
vn 0.000000000 0.000000000 1.000000000
vn 0.000000000 0.000000000 1.000000000
vn -0.000000000 0.000000000 1.000000000
vn 0.895298942 0.094692153 0.435285195
vn 0.890437819 0.092776788 0.445547930
vn 0.000000000 0.116752699 0.993161018
vn 0.000000000 0.116752699 0.993161018
vn -0.898515312 0.042816113 0.436848961
vn -0.893334098 0.046343785 0.446997139
vn -0.899231001 -0.015571042 -0.437196922
vn -0.894139418 -0.018650848 -0.447400097
vn 0.000000000 -0.021327370 -0.999772546
vn 0.000000000 -0.021327370 -0.999772546
vn 0.898877347 0.032073081 -0.437024979
vn 0.893780733 0.033907465 -0.447220622
vn 0.888303500 -0.115561406 0.444479981
vn 0.878157383 -0.120610456 0.462917627
vn 0.000000000 -0.128577712 0.991699436
vn 0.000000000 -0.128577712 0.991699436
vn -0.891256569 -0.082362255 0.445957607
vn -0.881819501 -0.079439364 0.464848099
vn -0.893923819 -0.028807593 -0.447292218
vn -0.884152665 -0.032331803 -0.466078019
vn 0.000000000 -0.020953659 -0.999780448
vn 0.000000000 -0.020953659 -0.999780448
vn 0.891928950 -0.072693688 -0.446294046
vn 0.882608787 -0.067312570 -0.465264169
vn 0.000000000 -1.000000000 0.000000000
vn 0.000000000 -1.000000000 0.000000000
vn 0.000000000 -1.000000000 0.000000000
vn -0.000000000 -1.000000000 0.000000000
vn 0.000000000 -1.000000000 -0.000000000
vn 0.000000000 -1.000000000 0.000000000
vn 0.000000000 1.000000000 0.000000000
vn 0.000000000 1.000000000 -0.000000000
vn 0.000000000 1.000000000 0.000000000
vn 0.000000000 1.000000000 0.000000000
vn 0.000000000 1.000000000 0.000000000
vn -0.000000000 1.000000000 0.000000000
vn 0.913971651 0.089606053 0.395760757
vn 0.910172952 0.081859654 0.406059348
vn 0.000000000 0.179061521 0.983837879
vn 0.000000000 0.179061521 0.983837879
vn -0.914656886 0.080878050 0.396057472
vn -0.909421033 0.091331863 0.405723891
vn -0.917661773 -0.001730310 -0.397358624
vn -0.913173395 -0.011885402 -0.407397948
vn 0.000000000 -0.048708271 -0.998813048
vn 0.000000000 -0.048708271 -0.998813048
vn 0.917612039 -0.010553816 -0.397337089
vn 0.913235471 -0.002306361 -0.407425643
vn 0.000000000 -1.000000000 0.000000000
vn 0.000000000 -1.000000000 0.000000000
vn 0.000000000 -1.000000000 0.000000000
vn -0.000000000 -1.000000000 0.000000000
vn 0.000000000 -1.000000000 -0.000000000
vn 0.000000000 -1.000000000 0.000000000
vn 0.000000000 1.000000000 0.000000000
vn 0.000000000 1.000000000 -0.000000000
vn 0.000000000 1.000000000 0.000000000
vn 0.000000000 1.000000000 0.000000000
vn 0.000000000 1.000000000 0.000000000
vn -0.000000000 1.000000000 0.000000000
vn 0.895298942 0.094692153 0.435285195
vn 0.890437819 0.092776788 0.445547930
vn 0.000000000 0.116752699 0.993161018
vn 0.000000000 0.116752699 0.993161018
vn -0.898515312 0.042816113 0.436848961
vn -0.893334098 0.046343785 0.446997139
vn -0.899231001 -0.015571042 -0.437196922
vn -0.894139418 -0.018650848 -0.447400097
vn 0.000000000 -0.021327370 -0.999772546
vn 0.000000000 -0.021327370 -0.999772546
vn 0.898877347 0.032073081 -0.437024979
vn 0.893780733 0.033907465 -0.447220622
vn 0.888303500 -0.115561406 0.444479981
vn 0.878157383 -0.120610456 0.462917627
vn 0.000000000 -0.128577712 0.991699436
vn 0.000000000 -0.128577712 0.991699436
vn -0.891256569 -0.082362255 0.445957607
vn -0.881819501 -0.079439364 0.464848099
vn -0.893923819 -0.028807593 -0.447292218
vn -0.884152665 -0.032331803 -0.466078019
vn 0.000000000 -0.020953659 -0.999780448
vn 0.000000000 -0.020953659 -0.999780448
vn 0.891928950 -0.072693688 -0.446294046
vn 0.882608787 -0.067312570 -0.465264169
vn 0.000000000 -1.000000000 0.000000000
vn 0.000000000 -1.000000000 0.000000000
vn 0.000000000 -1.000000000 0.000000000
vn -0.000000000 -1.000000000 0.000000000
vn 0.000000000 -1.000000000 -0.000000000
vn 0.000000000 -1.000000000 0.000000000
vn 0.000000000 1.000000000 0.000000000
vn 0.000000000 1.000000000 -0.000000000
vn 0.000000000 1.000000000 0.000000000
vn 0.000000000 1.000000000 0.000000000
vn 0.000000000 1.000000000 0.000000000
vn -0.000000000 1.000000000 0.000000000
vn 0.913971651 0.089606053 0.395760757
vn 0.910172952 0.081859654 0.406059348
vn 0.000000000 0.179061521 0.983837879
vn 0.000000000 0.179061521 0.983837879
vn -0.914656886 0.080878050 0.396057472
vn -0.909421033 0.091331863 0.405723891
vn -0.917661773 -0.001730310 -0.397358624
vn -0.913173395 -0.011885402 -0.407397948
vn 0.000000000 -0.048708271 -0.998813048
vn 0.000000000 -0.048708271 -0.998813048
vn 0.917612039 -0.010553816 -0.397337089
vn 0.913235471 -0.002306361 -0.407425643
vn 0.000000000 -1.000000000 0.000000000
vn 0.000000000 -1.000000000 0.000000000
vn 0.000000000 -1.000000000 0.000000000
vn -0.000000000 -1.000000000 0.000000000
vn 0.000000000 -1.000000000 -0.000000000
vn 0.000000000 -1.000000000 0.000000000
vn 0.000000000 1.000000000 0.000000000
vn 0.000000000 1.000000000 -0.000000000
vn 0.000000000 1.000000000 0.000000000
vn 0.000000000 1.000000000 0.000000000
vn 0.000000000 1.000000000 0.000000000
vn -0.000000000 1.000000000 0.000000000
vn 0.526071542 0.850440317 0.000000000
vn 0.526071542 0.850440317 -0.000000000
vn 0.000000000 1.000000000 0.000000000
vn 0.000000000 1.000000000 -0.000000000
vn -0.526071542 0.850440317 0.000000000
vn -0.526071542 0.850440317 0.000000000
vn -0.526071542 -0.850440317 0.000000000
vn -0.526071542 -0.850440317 0.000000000
vn 0.000000000 -1.000000000 0.000000000
vn 0.000000000 -1.000000000 0.000000000
vn 0.526071542 -0.850440317 0.000000000
vn 0.526071542 -0.850440317 0.000000000
vn 0.000000000 0.000000000 -1.000000000
vn 0.000000000 0.000000000 -1.000000000
vn 0.000000000 0.000000000 -1.000000000
vn -0.000000000 0.000000000 -1.000000000
vn 0.000000000 -0.000000000 -1.000000000
vn 0.000000000 0.000000000 -1.000000000
vn 0.000000000 0.000000000 1.000000000
vn 0.000000000 -0.000000000 1.000000000
vn 0.000000000 0.000000000 1.000000000
vn 0.000000000 0.000000000 1.000000000
vn 0.000000000 0.000000000 1.000000000
vn -0.000000000 0.000000000 1.000000000
vn 0.898511861 0.438949241 0.000000000
vn 0.898511861 0.438949241 -0.000000000
vn 0.000000000 1.000000000 0.000000000
vn 0.000000000 1.000000000 -0.000000000
vn -0.898511861 0.438949241 0.000000000
vn -0.898511861 0.438949241 0.000000000
vn -0.898511861 -0.438949241 0.000000000
vn -0.898511861 -0.438949241 0.000000000
vn 0.000000000 -1.000000000 0.000000000
vn 0.000000000 -1.000000000 0.000000000
vn 0.898511861 -0.438949241 0.000000000
vn 0.898511861 -0.438949241 0.000000000
vn 0.000000000 0.000000000 -1.000000000
vn 0.000000000 0.000000000 -1.000000000
vn 0.000000000 0.000000000 -1.000000000
vn -0.000000000 0.000000000 -1.000000000
vn 0.000000000 -0.000000000 -1.000000000
vn 0.000000000 0.000000000 -1.000000000
vn 0.000000000 0.000000000 1.000000000
vn 0.000000000 -0.000000000 1.000000000
vn 0.000000000 0.000000000 1.000000000
vn 0.000000000 0.000000000 1.000000000
vn 0.000000000 0.000000000 1.000000000
vn -0.000000000 0.000000000 1.000000000
vn 0.732720571 0.680529621 0.000000000
vn 0.732720571 0.680529621 -0.000000000
vn 0.000000000 1.000000000 0.000000000
vn 0.000000000 1.000000000 -0.000000000
vn -0.732720571 0.680529621 0.000000000
vn -0.732720571 0.680529621 0.000000000
vn -0.732720571 -0.680529621 0.000000000
vn -0.732720571 -0.680529621 0.000000000
vn 0.000000000 -1.000000000 0.000000000
vn 0.000000000 -1.000000000 0.000000000
vn 0.732720571 -0.680529621 0.000000000
vn 0.732720571 -0.680529621 0.000000000
vn 0.000000000 0.000000000 -1.000000000
vn 0.000000000 0.000000000 -1.000000000
vn 0.000000000 0.000000000 -1.000000000
vn -0.000000000 0.000000000 -1.000000000
vn 0.000000000 -0.000000000 -1.000000000
vn 0.000000000 0.000000000 -1.000000000
vn 0.000000000 0.000000000 1.000000000
vn 0.000000000 -0.000000000 1.000000000
vn 0.000000000 0.000000000 1.000000000
vn 0.000000000 0.000000000 1.000000000
vn 0.000000000 0.000000000 1.000000000
vn -0.000000000 0.000000000 1.000000000
vn 0.898424518 0.045110259 0.436804818
vn 0.893450228 0.043454534 0.447055247
vn 0.000000000 0.116752699 0.993161018
vn 0.000000000 0.116752699 0.993161018
vn -0.895490837 0.092421481 0.435378492
vn -0.890195833 0.095636304 0.445426847
vn -0.898808680 0.034370087 -0.436991594
vn -0.893864772 0.031014035 -0.447262673
vn 0.000000000 -0.021327370 -0.999772546
vn 0.000000000 -0.021327370 -0.999772546
vn 0.899196412 -0.017870890 -0.437180105
vn 0.894183988 -0.015754125 -0.447422398
vn 0.891624185 -0.077227132 0.446141551
vn 0.881581140 -0.082751077 0.464722448
vn 0.000000000 -0.128577712 0.991699436
vn 0.000000000 -0.128577712 0.991699436
vn -0.887763563 -0.120637877 0.444209813
vn -0.878504411 -0.117336566 0.463100561
vn -0.892252468 -0.067547318 -0.446455925
vn -0.882405685 -0.070633384 -0.465157104
vn 0.000000000 -0.020953659 -0.999780448
vn 0.000000000 -0.020953659 -0.999780448
vn 0.893778394 -0.033984490 -0.447219451
vn 0.884243300 -0.028991866 -0.466125797
vn 0.000000000 -1.000000000 0.000000000
vn 0.000000000 -1.000000000 0.000000000
vn 0.000000000 -1.000000000 0.000000000
vn -0.000000000 -1.000000000 0.000000000
vn 0.000000000 -1.000000000 -0.000000000
vn 0.000000000 -1.000000000 0.000000000
vn 0.000000000 1.000000000 0.000000000
vn 0.000000000 1.000000000 -0.000000000
vn 0.000000000 1.000000000 0.000000000
vn 0.000000000 1.000000000 0.000000000
vn 0.000000000 1.000000000 0.000000000
vn -0.000000000 1.000000000 0.000000000
vn 0.913971651 0.089606053 0.395760757
vn 0.910172952 0.081859654 0.406059348
vn 0.000000000 0.179061521 0.983837879
vn 0.000000000 0.179061521 0.983837879
vn -0.914656886 0.080878050 0.396057472
vn -0.909421033 0.091331863 0.405723891
vn -0.917661773 -0.001730310 -0.397358624
vn -0.913173395 -0.011885402 -0.407397948
vn 0.000000000 -0.048708271 -0.998813048
vn 0.000000000 -0.048708271 -0.998813048
vn 0.917612039 -0.010553816 -0.397337089
vn 0.913235471 -0.002306361 -0.407425643
vn 0.000000000 -1.000000000 0.000000000
vn 0.000000000 -1.000000000 0.000000000
vn 0.000000000 -1.000000000 0.000000000
vn -0.000000000 -1.000000000 0.000000000
vn 0.000000000 -1.000000000 -0.000000000
vn 0.000000000 -1.000000000 0.000000000
vn 0.000000000 1.000000000 0.000000000
vn 0.000000000 1.000000000 -0.000000000
vn 0.000000000 1.000000000 0.000000000
vn 0.000000000 1.000000000 0.000000000
vn 0.000000000 1.000000000 0.000000000
vn -0.000000000 1.000000000 0.000000000
vn 0.898424518 0.045110259 0.436804818
vn 0.893450228 0.043454534 0.447055247
vn 0.000000000 0.116752699 0.993161018
vn 0.000000000 0.116752699 0.993161018
vn -0.895490837 0.092421481 0.435378492
vn -0.890195833 0.095636304 0.445426847
vn -0.898808680 0.034370087 -0.436991594
vn -0.893864772 0.031014035 -0.447262673
vn 0.000000000 -0.021327370 -0.999772546
vn 0.000000000 -0.021327370 -0.999772546
vn 0.899196412 -0.017870890 -0.437180105
vn 0.894183988 -0.015754125 -0.447422398
vn 0.891624185 -0.077227132 0.446141551
vn 0.881581140 -0.082751077 0.464722448
vn 0.000000000 -0.128577712 0.991699436
vn 0.000000000 -0.128577712 0.991699436
vn -0.887763563 -0.120637877 0.444209813
vn -0.878504411 -0.117336566 0.463100561
vn -0.892252468 -0.067547318 -0.446455925
vn -0.882405685 -0.070633384 -0.465157104
vn 0.000000000 -0.020953659 -0.999780448
vn 0.000000000 -0.020953659 -0.999780448
vn 0.893778394 -0.033984490 -0.447219451
vn 0.884243300 -0.028991866 -0.466125797
vn 0.000000000 -1.000000000 0.000000000
vn 0.000000000 -1.000000000 0.000000000
vn 0.000000000 -1.000000000 0.000000000
vn -0.000000000 -1.000000000 0.000000000
vn 0.000000000 -1.000000000 -0.000000000
vn 0.000000000 -1.000000000 0.000000000
vn 0.000000000 1.000000000 0.000000000
vn 0.000000000 1.000000000 -0.000000000
vn 0.000000000 1.000000000 0.000000000
vn 0.000000000 1.000000000 0.000000000
vn 0.000000000 1.000000000 0.000000000
vn -0.000000000 1.000000000 0.000000000
vn 0.913971651 0.089606053 0.395760757
vn 0.910172952 0.081859654 0.406059348
vn 0.000000000 0.179061521 0.983837879
vn 0.000000000 0.179061521 0.983837879
vn -0.914656886 0.080878050 0.396057472
vn -0.909421033 0.091331863 0.405723891
vn -0.917661773 -0.001730310 -0.397358624
vn -0.913173395 -0.011885402 -0.407397948
vn 0.000000000 -0.048708271 -0.998813048
vn 0.000000000 -0.048708271 -0.998813048
vn 0.917612039 -0.010553816 -0.397337089
vn 0.913235471 -0.002306361 -0.407425643
vn 0.000000000 -1.000000000 0.000000000
vn 0.000000000 -1.000000000 0.000000000
vn 0.000000000 -1.000000000 0.000000000
vn -0.000000000 -1.000000000 0.000000000
vn 0.000000000 -1.000000000 -0.000000000
vn 0.000000000 -1.000000000 0.000000000
vn 0.000000000 1.000000000 0.000000000
vn 0.000000000 1.000000000 -0.000000000
vn 0.000000000 1.000000000 0.000000000
vn 0.000000000 1.000000000 0.000000000
vn 0.000000000 1.000000000 0.000000000
vn -0.000000000 1.000000000 0.000000000
vn 0.676232162 0.660718362 -0.325824047
vn 0.676233399 0.660717353 -0.325823526
vn 0.000000000 0.970921282 -0.239398966
vn 0.000000000 0.970921282 -0.239398966
vn -0.676232408 0.660718603 -0.325823049
vn -0.676233273 0.660717230 -0.325824036
vn -0.676232162 -0.660718362 -0.325824047
vn -0.676233399 -0.660717353 -0.325823526
vn 0.000000000 -0.970921282 -0.239398966
vn 0.000000000 -0.970921282 -0.239398966
vn 0.676232408 -0.660718603 -0.325823049
vn 0.676233273 -0.660717230 -0.325824036
vn 0.676233273 0.660717230 0.325824036
vn 0.676232408 0.660718603 0.325823049
vn 0.000000000 0.970921282 0.239398966
vn 0.000000000 0.970921282 0.239398966
vn -0.676233399 0.660717353 0.325823526
vn -0.676232162 0.660718362 0.325824047
vn -0.676233273 -0.660717230 0.325824036
vn -0.676232408 -0.660718603 0.325823049
vn 0.000000000 -0.970921282 0.239398966
vn 0.000000000 -0.970921282 0.239398966
vn 0.676233399 -0.660717353 0.325823526
vn 0.676232162 -0.660718362 0.325824047
vn 0.000000000 0.000000000 -1.000000000
vn 0.000000000 0.000000000 -1.000000000
vn 0.000000000 0.000000000 -1.000000000
vn -0.000000000 0.000000000 -1.000000000
vn 0.000000000 -0.000000000 -1.000000000
vn 0.000000000 0.000000000 -1.000000000
vn 0.000000000 0.000000000 1.000000000
vn 0.000000000 -0.000000000 1.000000000
vn 0.000000000 0.000000000 1.000000000
vn 0.000000000 0.000000000 1.000000000
vn 0.000000000 0.000000000 1.000000000
vn -0.000000000 0.000000000 1.000000000
vn 0.861401426 -0.103202868 0.497329620
vn 0.905113417 -0.077456720 0.418055209
vn 0.000000000 -0.372817982 0.927904495
vn 0.000000000 -0.372817982 0.927904495
vn -0.818418665 -0.326989046 0.472513547
vn -0.866636362 -0.297850034 0.400283367
vn -0.865314240 0.040526742 -0.499588681
vn -0.907825910 -0.005732993 -0.419308060
vn 0.000000000 0.334521316 -0.942388184
vn 0.000000000 0.334521316 -0.942388184
vn 0.836833780 0.257448338 -0.483145504
vn 0.880595888 0.243147617 -0.406731015
vn 0.907704414 -0.017335083 0.419251943
vn 0.865801279 -0.022832707 0.499866794
vn 0.000000000 -0.129261936 0.991610484
vn 0.000000000 -0.129261936 0.991610484
vn -0.903940881 -0.092591827 0.417513637
vn -0.861152172 -0.105954458 0.497182652
vn -0.907830137 -0.004853493 -0.419310012
vn -0.865971848 0.011290913 -0.499965272
vn 0.000000000 0.091481450 -0.995806781
vn 0.000000000 0.091481450 -0.995806781
vn 0.904885473 0.080623443 -0.417949926
vn 0.863162573 0.081266715 -0.498343348
vn 0.000000000 1.000000000 0.000000000
vn 0.000000000 1.000000000 -0.000000000
vn 0.000000000 1.000000000 0.000000000
vn 0.000000000 1.000000000 0.000000000
vn 0.000000000 1.000000000 0.000000000
vn -0.000000000 1.000000000 0.000000000
vn 0.000000000 -1.000000000 0.000000000
vn 0.000000000 -1.000000000 0.000000000
vn 0.000000000 -1.000000000 0.000000000
vn -0.000000000 -1.000000000 0.000000000
vn 0.000000000 -1.000000000 -0.000000000
vn 0.000000000 -1.000000000 0.000000000
vn 0.866029656 0.000000000 0.499992634
vn 0.866029656 -0.000000000 0.499992634
vn 0.000000000 0.000000000 1.000000000
vn 0.000000000 -0.000000000 1.000000000
vn -0.866029656 0.000000000 0.499992634
vn -0.866029656 0.000000000 0.499992634
vn -0.866029656 0.000000000 -0.499992634
vn -0.866029656 0.000000000 -0.499992634
vn 0.000000000 0.000000000 -1.000000000
vn 0.000000000 0.000000000 -1.000000000
vn 0.866029656 0.000000000 -0.499992634
vn 0.866029656 0.000000000 -0.499992634
vn 0.000000000 -1.000000000 0.000000000
vn 0.000000000 -1.000000000 0.000000000
vn 0.000000000 -1.000000000 0.000000000
vn -0.000000000 -1.000000000 0.000000000
vn 0.000000000 -1.000000000 -0.000000000
vn 0.000000000 -1.000000000 0.000000000
vn 0.000000000 1.000000000 0.000000000
vn 0.000000000 1.000000000 -0.000000000
vn 0.000000000 1.000000000 0.000000000
vn 0.000000000 1.000000000 0.000000000
vn 0.000000000 1.000000000 0.000000000
vn -0.000000000 1.000000000 0.000000000
f 1/1/1 2/1/1 3/1/1
f 1/2/2 3/2/2 4/2/2
f 2/3/3 5/3/3 6/3/3
f 2/4/4 6/4/4 3/4/4
f 5/5/5 7/5/5 8/5/5
f 5/6/6 8/6/6 6/6/6
f 7/7/7 9/7/7 10/7/7
f 7/8/8 10/8/8 8/8/8
f 9/9/9 11/9/9 12/9/9
f 9/10/10 12/10/10 10/10/10
f 11/11/11 13/11/11 14/11/11
f 11/12/12 14/12/12 12/12/12
f 13/13/13 15/13/13 16/13/13
f 13/14/14 16/14/14 14/14/14
f 15/15/15 1/15/15 4/15/15
f 15/16/16 4/16/16 16/16/16
f 4/17/17 3/17/17 17/17/17
f 4/18/18 17/18/18 18/18/18
f 3/19/19 6/19/19 19/19/19
f 3/20/20 19/20/20 17/20/20
f 6/21/21 8/21/21 20/21/21
f 6/22/22 20/22/22 19/22/22
f 8/23/23 10/23/23 21/23/23
f 8/24/24 21/24/24 20/24/24
f 10/25/25 12/25/25 22/25/25
f 10/26/26 22/26/26 21/26/26
f 12/27/27 14/27/27 23/27/27
f 12/28/28 23/28/28 22/28/28
f 14/29/29 16/29/29 24/29/29
f 14/30/30 24/30/30 23/30/30
f 16/31/31 4/31/31 18/31/31
f 16/32/32 18/32/32 24/32/32
f 18/33/33 17/33/33 25/33/33
f 18/34/34 25/34/34 26/34/34
f 17/35/35 19/35/35 27/35/35
f 17/36/36 27/36/36 25/36/36
f 19/37/37 20/37/37 28/37/37
f 19/38/38 28/38/38 27/38/38
f 20/39/39 21/39/39 29/39/39
f 20/40/40 29/40/40 28/40/40
f 21/41/41 22/41/41 30/41/41
f 21/42/42 30/42/42 29/42/42
f 22/43/43 23/43/43 31/43/43
f 22/44/44 31/44/44 30/44/44
f 23/45/45 24/45/45 32/45/45
f 23/46/46 32/46/46 31/46/46
f 24/47/47 18/47/47 26/47/47
f 24/48/48 26/48/48 32/48/48
f 26/49/49 25/49/49 33/49/49
f 26/50/50 33/50/50 34/50/50
f 25/51/51 27/51/51 35/51/51
f 25/52/52 35/52/52 33/52/52
f 27/53/53 28/53/53 36/53/53
f 27/54/54 36/54/54 35/54/54
f 28/55/55 29/55/55 37/55/55
f 28/56/56 37/56/56 36/56/56
f 29/57/57 30/57/57 38/57/57
f 29/58/58 38/58/58 37/58/58
f 30/59/59 31/59/59 39/59/59
f 30/60/60 39/60/60 38/60/60
f 31/61/61 32/61/61 40/61/61
f 31/62/62 40/62/62 39/62/62
f 32/63/63 26/63/63 34/63/63
f 32/64/64 34/64/64 40/64/64
f 41/65/65 2/65/65 1/65/65
f 41/66/66 5/66/66 2/66/66
f 41/67/67 7/67/67 5/67/67
f 41/68/68 9/68/68 7/68/68
f 41/69/69 11/69/69 9/69/69
f 41/70/70 13/70/70 11/70/70
f 41/71/71 15/71/71 13/71/71
f 41/72/72 1/72/72 15/72/72
f 42/73/73 34/73/73 33/73/73
f 42/74/74 33/74/74 35/74/74
f 42/75/75 35/75/75 36/75/75
f 42/76/76 36/76/76 37/76/76
f 42/77/77 37/77/77 38/77/77
f 42/78/78 38/78/78 39/78/78
f 42/79/79 39/79/79 40/79/79
f 42/80/80 40/80/80 34/80/80
f 43/81/81 44/81/81 45/81/81
f 43/82/82 46/82/82 44/82/82
f 45/83/83 47/83/83 48/83/83
f 45/84/84 44/84/84 47/84/84
f 48/85/85 49/85/85 50/85/85
f 48/86/86 47/86/86 49/86/86
f 50/87/87 51/87/87 52/87/87
f 50/88/88 49/88/88 51/88/88
f 52/89/89 53/89/89 54/89/89
f 52/90/90 51/90/90 53/90/90
f 54/91/91 55/91/91 56/91/91
f 54/92/92 53/92/92 55/92/92
f 56/93/93 57/93/93 58/93/93
f 56/94/94 55/94/94 57/94/94
f 58/95/95 46/95/95 43/95/95
f 58/96/96 57/96/96 46/96/96
f 46/97/97 59/97/97 44/97/97
f 46/98/98 60/98/98 59/98/98
f 44/99/99 61/99/99 47/99/99
f 44/100/100 59/100/100 61/100/100
f 47/101/101 62/101/101 49/101/101
f 47/102/102 61/102/102 62/102/102
f 49/103/103 63/103/103 51/103/103
f 49/104/104 62/104/104 63/104/104
f 51/105/105 64/105/105 53/105/105
f 51/106/106 63/106/106 64/106/106
f 53/107/107 65/107/107 55/107/107
f 53/108/108 64/108/108 65/108/108
f 55/109/109 66/109/109 57/109/109
f 55/110/110 65/110/110 66/110/110
f 57/111/111 60/111/111 46/111/111
f 57/112/112 66/112/112 60/112/112
f 67/113/113 43/113/113 45/113/113
f 67/114/114 45/114/114 48/114/114
f 67/115/115 48/115/115 50/115/115
f 67/116/116 50/116/116 52/116/116
f 67/117/117 52/117/117 54/117/117
f 67/118/118 54/118/118 56/118/118
f 67/119/119 56/119/119 58/119/119
f 67/120/120 58/120/120 43/120/120
f 68/121/121 59/121/121 60/121/121
f 68/122/122 61/122/122 59/122/122
f 68/123/123 62/123/123 61/123/123
f 68/124/124 63/124/124 62/124/124
f 68/125/125 64/125/125 63/125/125
f 68/126/126 65/126/126 64/126/126
f 68/127/127 66/127/127 65/127/127
f 68/128/128 60/128/128 66/128/128
f 69/129/129 70/129/129 71/129/129
f 69/130/130 71/130/130 72/130/130
f 70/131/131 73/131/131 74/131/131
f 70/132/132 74/132/132 71/132/132
f 73/133/133 75/133/133 76/133/133
f 73/134/134 76/134/134 74/134/134
f 75/135/135 77/135/135 78/135/135
f 75/136/136 78/136/136 76/136/136
f 77/137/137 79/137/137 80/137/137
f 77/138/138 80/138/138 78/138/138
f 79/139/139 81/139/139 82/139/139
f 79/140/140 82/140/140 80/140/140
f 81/141/141 83/141/141 84/141/141
f 81/142/142 84/142/142 82/142/142
f 83/143/143 69/143/143 72/143/143
f 83/144/144 72/144/144 84/144/144
f 72/145/145 71/145/145 85/145/145
f 72/146/146 85/146/146 86/146/146
f 71/147/147 74/147/147 87/147/147
f 71/148/148 87/148/148 85/148/148
f 74/149/149 76/149/149 88/149/149
f 74/150/150 88/150/150 87/150/150
f 76/151/151 78/151/151 89/151/151
f 76/152/152 89/152/152 88/152/152
f 78/153/153 80/153/153 90/153/153
f 78/154/154 90/154/154 89/154/154
f 80/155/155 82/155/155 91/155/155
f 80/156/156 91/156/156 90/156/156
f 82/157/157 84/157/157 92/157/157
f 82/158/158 92/158/158 91/158/158
f 84/159/159 72/159/159 86/159/159
f 84/160/160 86/160/160 92/160/160
f 93/161/161 70/161/161 69/161/161
f 93/162/162 73/162/162 70/162/162
f 93/163/163 75/163/163 73/163/163
f 93/164/164 77/164/164 75/164/164
f 93/165/165 79/165/165 77/165/165
f 93/166/166 81/166/166 79/166/166
f 93/167/167 83/167/167 81/167/167
f 93/168/168 69/168/168 83/168/168
f 94/169/169 86/169/169 85/169/169
f 94/170/170 85/170/170 87/170/170
f 94/171/171 87/171/171 88/171/171
f 94/172/172 88/172/172 89/172/172
f 94/173/173 89/173/173 90/173/173
f 94/174/174 90/174/174 91/174/174
f 94/175/175 91/175/175 92/175/175
f 94/176/176 92/176/176 86/176/176
f 95/177/177 96/177/177 97/177/177
f 95/178/178 97/178/178 98/178/178
f 96/179/179 99/179/179 100/179/179
f 96/180/180 100/180/180 97/180/180
f 99/181/181 101/181/181 102/181/181
f 99/182/182 102/182/182 100/182/182
f 101/183/183 103/183/183 104/183/183
f 101/184/184 104/184/184 102/184/184
f 103/185/185 105/185/185 106/185/185
f 103/186/186 106/186/186 104/186/186
f 105/187/187 107/187/187 108/187/187
f 105/188/188 108/188/188 106/188/188
f 107/189/189 109/189/189 110/189/189
f 107/190/190 110/190/190 108/190/190
f 109/191/191 95/191/191 98/191/191
f 109/192/192 98/192/192 110/192/192
f 98/193/193 97/193/193 111/193/193
f 98/194/194 111/194/194 112/194/194
f 97/195/195 100/195/195 113/195/195
f 97/196/196 113/196/196 111/196/196
f 100/197/197 102/197/197 114/197/197
f 100/198/198 114/198/198 113/198/198
f 102/199/199 104/199/199 115/199/199
f 102/200/200 115/200/200 114/200/200
f 104/201/201 106/201/201 116/201/201
f 104/202/202 116/202/202 115/202/202
f 106/203/203 108/203/203 117/203/203
f 106/204/204 117/204/204 116/204/204
f 108/205/205 110/205/205 118/205/205
f 108/206/206 118/206/206 117/206/206
f 110/207/207 98/207/207 112/207/207
f 110/208/208 112/208/208 118/208/208
f 119/209/209 96/209/209 95/209/209
f 119/210/210 99/210/210 96/210/210
f 119/211/211 101/211/211 99/211/211
f 119/212/212 103/212/212 101/212/212
f 119/213/213 105/213/213 103/213/213
f 119/214/214 107/214/214 105/214/214
f 119/215/215 109/215/215 107/215/215
f 119/216/216 95/216/216 109/216/216
f 120/217/217 112/217/217 111/217/217
f 120/218/218 111/218/218 113/218/218
f 120/219/219 113/219/219 114/219/219
f 120/220/220 114/220/220 115/220/220
f 120/221/221 115/221/221 116/221/221
f 120/222/222 116/222/222 117/222/222
f 120/223/223 117/223/223 118/223/223
f 120/224/224 118/224/224 112/224/224
f 121/225/225 122/225/225 123/225/225
f 121/226/226 123/226/226 124/226/226
f 122/227/227 125/227/227 126/227/227
f 122/228/228 126/228/228 123/228/228
f 125/229/229 127/229/229 128/229/229
f 125/230/230 128/230/230 126/230/230
f 127/231/231 129/231/231 130/231/231
f 127/232/232 130/232/232 128/232/232
f 129/233/233 131/233/233 132/233/233
f 129/234/234 132/234/234 130/234/234
f 131/235/235 121/235/235 124/235/235
f 131/236/236 124/236/236 132/236/236
f 133/237/237 122/237/237 121/237/237
f 133/238/238 125/238/238 122/238/238
f 133/239/239 127/239/239 125/239/239
f 133/240/240 129/240/240 127/240/240
f 133/241/241 131/241/241 129/241/241
f 133/242/242 121/242/242 131/242/242
f 134/243/243 124/243/243 123/243/243
f 134/244/244 123/244/244 126/244/244
f 134/245/245 126/245/245 128/245/245
f 134/246/246 128/246/246 130/246/246
f 134/247/247 130/247/247 132/247/247
f 134/248/248 132/248/248 124/248/248
f 135/249/249 136/249/249 137/249/249
f 135/250/250 137/250/250 138/250/250
f 136/251/251 139/251/251 140/251/251
f 136/252/252 140/252/252 137/252/252
f 139/253/253 141/253/253 142/253/253
f 139/254/254 142/254/254 140/254/254
f 141/255/255 143/255/255 144/255/255
f 141/256/256 144/256/256 142/256/256
f 143/257/257 145/257/257 146/257/257
f 143/258/258 146/258/258 144/258/258
f 145/259/259 135/259/259 138/259/259
f 145/260/260 138/260/260 146/260/260
f 147/261/261 136/261/261 135/261/261
f 147/262/262 139/262/262 136/262/262
f 147/263/263 141/263/263 139/263/263
f 147/264/264 143/264/264 141/264/264
f 147/265/265 145/265/265 143/265/265
f 147/266/266 135/266/266 145/266/266
f 148/267/267 138/267/267 137/267/267
f 148/268/268 137/268/268 140/268/268
f 148/269/269 140/269/269 142/269/269
f 148/270/270 142/270/270 144/270/270
f 148/271/271 144/271/271 146/271/271
f 148/272/272 146/272/272 138/272/272
f 149/273/273 150/273/273 151/273/273
f 149/274/274 151/274/274 152/274/274
f 150/275/275 153/275/275 154/275/275
f 150/276/276 154/276/276 151/276/276
f 153/277/277 155/277/277 156/277/277
f 153/278/278 156/278/278 154/278/278
f 155/279/279 157/279/279 158/279/279
f 155/280/280 158/280/280 156/280/280
f 157/281/281 159/281/281 160/281/281
f 157/282/282 160/282/282 158/282/282
f 159/283/283 149/283/283 152/283/283
f 159/284/284 152/284/284 160/284/284
f 161/285/285 150/285/285 149/285/285
f 161/286/286 153/286/286 150/286/286
f 161/287/287 155/287/287 153/287/287
f 161/288/288 157/288/288 155/288/288
f 161/289/289 159/289/289 157/289/289
f 161/290/290 149/290/290 159/290/290
f 162/291/291 152/291/291 151/291/291
f 162/292/292 151/292/292 154/292/292
f 162/293/293 154/293/293 156/293/293
f 162/294/294 156/294/294 158/294/294
f 162/295/295 158/295/295 160/295/295
f 162/296/296 160/296/296 152/296/296
f 163/297/297 164/297/297 165/297/297
f 163/298/298 166/298/298 164/298/298
f 165/299/299 167/299/299 168/299/299
f 165/300/300 164/300/300 167/300/300
f 168/301/301 169/301/301 170/301/301
f 168/302/302 167/302/302 169/302/302
f 170/303/303 171/303/303 172/303/303
f 170/304/304 169/304/304 171/304/304
f 172/305/305 173/305/305 174/305/305
f 172/306/306 171/306/306 173/306/306
f 174/307/307 166/307/307 163/307/307
f 174/308/308 173/308/308 166/308/308
f 166/309/309 175/309/309 164/309/309
f 166/310/310 176/310/310 175/310/310
f 164/311/311 177/311/311 167/311/311
f 164/312/312 175/312/312 177/312/312
f 167/313/313 178/313/313 169/313/313
f 167/314/314 177/314/314 178/314/314
f 169/315/315 179/315/315 171/315/315
f 169/316/316 178/316/316 179/316/316
f 171/317/317 180/317/317 173/317/317
f 171/318/318 179/318/318 180/318/318
f 173/319/319 176/319/319 166/319/319
f 173/320/320 180/320/320 176/320/320
f 181/321/321 163/321/321 165/321/321
f 181/322/322 165/322/322 168/322/322
f 181/323/323 168/323/323 170/323/323
f 181/324/324 170/324/324 172/324/324
f 181/325/325 172/325/325 174/325/325
f 181/326/326 174/326/326 163/326/326
f 182/327/327 175/327/327 176/327/327
f 182/328/328 177/328/328 175/328/328
f 182/329/329 178/329/329 177/329/329
f 182/330/330 179/330/330 178/330/330
f 182/331/331 180/331/331 179/331/331
f 182/332/332 176/332/332 180/332/332
f 183/333/333 184/333/333 185/333/333
f 183/334/334 186/334/334 184/334/334
f 185/335/335 187/335/335 188/335/335
f 185/336/336 184/336/336 187/336/336
f 188/337/337 189/337/337 190/337/337
f 188/338/338 187/338/338 189/338/338
f 190/339/339 191/339/339 192/339/339
f 190/340/340 189/340/340 191/340/340
f 192/341/341 193/341/341 194/341/341
f 192/342/342 191/342/342 193/342/342
f 194/343/343 186/343/343 183/343/343
f 194/344/344 193/344/344 186/344/344
f 195/345/345 183/345/345 185/345/345
f 195/346/346 185/346/346 188/346/346
f 195/347/347 188/347/347 190/347/347
f 195/348/348 190/348/348 192/348/348
f 195/349/349 192/349/349 194/349/349
f 195/350/350 194/350/350 183/350/350
f 196/351/351 184/351/351 186/351/351
f 196/352/352 187/352/352 184/352/352
f 196/353/353 189/353/353 187/353/353
f 196/354/354 191/354/354 189/354/354
f 196/355/355 193/355/355 191/355/355
f 196/356/356 186/356/356 193/356/356
f 197/357/357 198/357/357 199/357/357
f 197/358/358 200/358/358 198/358/358
f 199/359/359 201/359/359 202/359/359
f 199/360/360 198/360/360 201/360/360
f 202/361/361 203/361/361 204/361/361
f 202/362/362 201/362/362 203/362/362
f 204/363/363 205/363/363 206/363/363
f 204/364/364 203/364/364 205/364/364
f 206/365/365 207/365/365 208/365/365
f 206/366/366 205/366/366 207/366/366
f 208/367/367 200/367/367 197/367/367
f 208/368/368 207/368/368 200/368/368
f 200/369/369 209/369/369 198/369/369
f 200/370/370 210/370/370 209/370/370
f 198/371/371 211/371/371 201/371/371
f 198/372/372 209/372/372 211/372/372
f 201/373/373 212/373/373 203/373/373
f 201/374/374 211/374/374 212/374/374
f 203/375/375 213/375/375 205/375/375
f 203/376/376 212/376/376 213/376/376
f 205/377/377 214/377/377 207/377/377
f 205/378/378 213/378/378 214/378/378
f 207/379/379 210/379/379 200/379/379
f 207/380/380 214/380/380 210/380/380
f 215/381/381 197/381/381 199/381/381
f 215/382/382 199/382/382 202/382/382
f 215/383/383 202/383/383 204/383/383
f 215/384/384 204/384/384 206/384/384
f 215/385/385 206/385/385 208/385/385
f 215/386/386 208/386/386 197/386/386
f 216/387/387 209/387/387 210/387/387
f 216/388/388 211/388/388 209/388/388
f 216/389/389 212/389/389 211/389/389
f 216/390/390 213/390/390 212/390/390
f 216/391/391 214/391/391 213/391/391
f 216/392/392 210/392/392 214/392/392
f 217/393/393 218/393/393 219/393/393
f 217/394/394 220/394/394 218/394/394
f 219/395/395 221/395/395 222/395/395
f 219/396/396 218/396/396 221/396/396
f 222/397/397 223/397/397 224/397/397
f 222/398/398 221/398/398 223/398/398
f 224/399/399 225/399/399 226/399/399
f 224/400/400 223/400/400 225/400/400
f 226/401/401 227/401/401 228/401/401
f 226/402/402 225/402/402 227/402/402
f 228/403/403 220/403/403 217/403/403
f 228/404/404 227/404/404 220/404/404
f 229/405/405 217/405/405 219/405/405
f 229/406/406 219/406/406 222/406/406
f 229/407/407 222/407/407 224/407/407
f 229/408/408 224/408/408 226/408/408
f 229/409/409 226/409/409 228/409/409
f 229/410/410 228/410/410 217/410/410
f 230/411/411 218/411/411 220/411/411
f 230/412/412 221/412/412 218/412/412
f 230/413/413 223/413/413 221/413/413
f 230/414/414 225/414/414 223/414/414
f 230/415/415 227/415/415 225/415/415
f 230/416/416 220/416/416 227/416/416
f 231/417/417 232/417/417 233/417/417
f 231/418/418 233/418/418 234/418/418
f 232/419/419 235/419/419 236/419/419
f 232/420/420 236/420/420 233/420/420
f 235/421/421 237/421/421 238/421/421
f 235/422/422 238/422/422 236/422/422
f 237/423/423 239/423/423 240/423/423
f 237/424/424 240/424/424 238/424/424
f 239/425/425 241/425/425 242/425/425
f 239/426/426 242/426/426 240/426/426
f 241/427/427 231/427/427 234/427/427
f 241/428/428 234/428/428 242/428/428
f 243/429/429 232/429/429 231/429/429
f 243/430/430 235/430/430 232/430/430
f 243/431/431 237/431/431 235/431/431
f 243/432/432 239/432/432 237/432/432
f 243/433/433 241/433/433 239/433/433
f 243/434/434 231/434/434 241/434/434
f 244/435/435 234/435/435 233/435/435
f 244/436/436 233/436/436 236/436/436
f 244/437/437 236/437/437 238/437/437
f 244/438/438 238/438/438 240/438/438
f 244/439/439 240/439/439 242/439/439
f 244/440/440 242/440/440 234/440/440
f 245/441/441 246/441/441 247/441/441
f 245/442/442 247/442/442 248/442/442
f 246/443/443 249/443/443 250/443/443
f 246/444/444 250/444/444 247/444/444
f 249/445/445 251/445/445 252/445/445
f 249/446/446 252/446/446 250/446/446
f 251/447/447 253/447/447 254/447/447
f 251/448/448 254/448/448 252/448/448
f 253/449/449 255/449/449 256/449/449
f 253/450/450 256/450/450 254/450/450
f 255/451/451 245/451/451 248/451/451
f 255/452/452 248/452/452 256/452/452
f 257/453/453 246/453/453 245/453/453
f 257/454/454 249/454/454 246/454/454
f 257/455/455 251/455/455 249/455/455
f 257/456/456 253/456/456 251/456/456
f 257/457/457 255/457/457 253/457/457
f 257/458/458 245/458/458 255/458/458
f 258/459/459 248/459/459 247/459/459
f 258/460/460 247/460/460 250/460/460
f 258/461/461 250/461/461 252/461/461
f 258/462/462 252/462/462 254/462/462
f 258/463/463 254/463/463 256/463/463
f 258/464/464 256/464/464 248/464/464
f 259/465/465 260/465/465 261/465/465
f 259/466/466 261/466/466 262/466/466
f 260/467/467 263/467/467 264/467/467
f 260/468/468 264/468/468 261/468/468
f 263/469/469 265/469/469 266/469/469
f 263/470/470 266/470/470 264/470/470
f 265/471/471 267/471/471 268/471/471
f 265/472/472 268/472/472 266/472/472
f 267/473/473 269/473/473 270/473/473
f 267/474/474 270/474/474 268/474/474
f 269/475/475 259/475/475 262/475/475
f 269/476/476 262/476/476 270/476/476
f 271/477/477 260/477/477 259/477/477
f 271/478/478 263/478/478 260/478/478
f 271/479/479 265/479/479 263/479/479
f 271/480/480 267/480/480 265/480/480
f 271/481/481 269/481/481 267/481/481
f 271/482/482 259/482/482 269/482/482
f 272/483/483 262/483/483 261/483/483
f 272/484/484 261/484/484 264/484/484
f 272/485/485 264/485/485 266/485/485
f 272/486/486 266/486/486 268/486/486
f 272/487/487 268/487/487 270/487/487
f 272/488/488 270/488/488 262/488/488
f 273/489/489 274/489/489 275/489/489
f 273/490/490 276/490/490 274/490/490
f 275/491/491 277/491/491 278/491/491
f 275/492/492 274/492/492 277/492/492
f 278/493/493 279/493/493 280/493/493
f 278/494/494 277/494/494 279/494/494
f 280/495/495 281/495/495 282/495/495
f 280/496/496 279/496/496 281/496/496
f 282/497/497 283/497/497 284/497/497
f 282/498/498 281/498/498 283/498/498
f 284/499/499 276/499/499 273/499/499
f 284/500/500 283/500/500 276/500/500
f 276/501/501 285/501/501 274/501/501
f 276/502/502 286/502/502 285/502/502
f 274/503/503 287/503/503 277/503/503
f 274/504/504 285/504/504 287/504/504
f 277/505/505 288/505/505 279/505/505
f 277/506/506 287/506/506 288/506/506
f 279/507/507 289/507/507 281/507/507
f 279/508/508 288/508/508 289/508/508
f 281/509/509 290/509/509 283/509/509
f 281/510/510 289/510/510 290/510/510
f 283/511/511 286/511/511 276/511/511
f 283/512/512 290/512/512 286/512/512
f 291/513/513 273/513/513 275/513/513
f 291/514/514 275/514/514 278/514/514
f 291/515/515 278/515/515 280/515/515
f 291/516/516 280/516/516 282/516/516
f 291/517/517 282/517/517 284/517/517
f 291/518/518 284/518/518 273/518/518
f 292/519/519 285/519/519 286/519/519
f 292/520/520 287/520/520 285/520/520
f 292/521/521 288/521/521 287/521/521
f 292/522/522 289/522/522 288/522/522
f 292/523/523 290/523/523 289/523/523
f 292/524/524 286/524/524 290/524/524
f 293/525/525 294/525/525 295/525/525
f 293/526/526 296/526/526 294/526/526
f 295/527/527 297/527/527 298/527/527
f 295/528/528 294/528/528 297/528/528
f 298/529/529 299/529/529 300/529/529
f 298/530/530 297/530/530 299/530/530
f 300/531/531 301/531/531 302/531/531
f 300/532/532 299/532/532 301/532/532
f 302/533/533 303/533/533 304/533/533
f 302/534/534 301/534/534 303/534/534
f 304/535/535 296/535/535 293/535/535
f 304/536/536 303/536/536 296/536/536
f 305/537/537 293/537/537 295/537/537
f 305/538/538 295/538/538 298/538/538
f 305/539/539 298/539/539 300/539/539
f 305/540/540 300/540/540 302/540/540
f 305/541/541 302/541/541 304/541/541
f 305/542/542 304/542/542 293/542/542
f 306/543/543 294/543/543 296/543/543
f 306/544/544 297/544/544 294/544/544
f 306/545/545 299/545/545 297/545/545
f 306/546/546 301/546/546 299/546/546
f 306/547/547 303/547/547 301/547/547
f 306/548/548 296/548/548 303/548/548
f 307/549/549 308/549/549 309/549/549
f 307/550/550 310/550/550 308/550/550
f 309/551/551 311/551/551 312/551/551
f 309/552/552 308/552/552 311/552/552
f 312/553/553 313/553/553 314/553/553
f 312/554/554 311/554/554 313/554/554
f 314/555/555 315/555/555 316/555/555
f 314/556/556 313/556/556 315/556/556
f 316/557/557 317/557/557 318/557/557
f 316/558/558 315/558/558 317/558/558
f 318/559/559 310/559/559 307/559/559
f 318/560/560 317/560/560 310/560/560
f 310/561/561 319/561/561 308/561/561
f 310/562/562 320/562/562 319/562/562
f 308/563/563 321/563/563 311/563/563
f 308/564/564 319/564/564 321/564/564
f 311/565/565 322/565/565 313/565/565
f 311/566/566 321/566/566 322/566/566
f 313/567/567 323/567/567 315/567/567
f 313/568/568 322/568/568 323/568/568
f 315/569/569 324/569/569 317/569/569
f 315/570/570 323/570/570 324/570/570
f 317/571/571 320/571/571 310/571/571
f 317/572/572 324/572/572 320/572/572
f 325/573/573 307/573/573 309/573/573
f 325/574/574 309/574/574 312/574/574
f 325/575/575 312/575/575 314/575/575
f 325/576/576 314/576/576 316/576/576
f 325/577/577 316/577/577 318/577/577
f 325/578/578 318/578/578 307/578/578
f 326/579/579 319/579/579 320/579/579
f 326/580/580 321/580/580 319/580/580
f 326/581/581 322/581/581 321/581/581
f 326/582/582 323/582/582 322/582/582
f 326/583/583 324/583/583 323/583/583
f 326/584/584 320/584/584 324/584/584
f 327/585/585 328/585/585 329/585/585
f 327/586/586 330/586/586 328/586/586
f 329/587/587 331/587/587 332/587/587
f 329/588/588 328/588/588 331/588/588
f 332/589/589 333/589/589 334/589/589
f 332/590/590 331/590/590 333/590/590
f 334/591/591 335/591/591 336/591/591
f 334/592/592 333/592/592 335/592/592
f 336/593/593 337/593/593 338/593/593
f 336/594/594 335/594/594 337/594/594
f 338/595/595 330/595/595 327/595/595
f 338/596/596 337/596/596 330/596/596
f 339/597/597 327/597/597 329/597/597
f 339/598/598 329/598/598 332/598/598
f 339/599/599 332/599/599 334/599/599
f 339/600/600 334/600/600 336/600/600
f 339/601/601 336/601/601 338/601/601
f 339/602/602 338/602/602 327/602/602
f 340/603/603 328/603/603 330/603/603
f 340/604/604 331/604/604 328/604/604
f 340/605/605 333/605/605 331/605/605
f 340/606/606 335/606/606 333/606/606
f 340/607/607 337/607/607 335/607/607
f 340/608/608 330/608/608 337/608/608
f 341/609/609 342/609/609 343/609/609
f 341/610/610 343/610/610 344/610/610
f 342/611/611 345/611/611 346/611/611
f 342/612/612 346/612/612 343/612/612
f 345/613/613 347/613/613 348/613/613
f 345/614/614 348/614/614 346/614/614
f 347/615/615 349/615/615 350/615/615
f 347/616/616 350/616/616 348/616/616
f 349/617/617 351/617/617 352/617/617
f 349/618/618 352/618/618 350/618/618
f 351/619/619 341/619/619 344/619/619
f 351/620/620 344/620/620 352/620/620
f 344/621/621 343/621/621 353/621/621
f 344/622/622 353/622/622 354/622/622
f 343/623/623 346/623/623 355/623/623
f 343/624/624 355/624/624 353/624/624
f 346/625/625 348/625/625 356/625/625
f 346/626/626 356/626/626 355/626/626
f 348/627/627 350/627/627 357/627/627
f 348/628/628 357/628/628 356/628/628
f 350/629/629 352/629/629 358/629/629
f 350/630/630 358/630/630 357/630/630
f 352/631/631 344/631/631 354/631/631
f 352/632/632 354/632/632 358/632/632
f 359/633/633 342/633/633 341/633/633
f 359/634/634 345/634/634 342/634/634
f 359/635/635 347/635/635 345/635/635
f 359/636/636 349/636/636 347/636/636
f 359/637/637 351/637/637 349/637/637
f 359/638/638 341/638/638 351/638/638
f 360/639/639 354/639/639 353/639/639
f 360/640/640 353/640/640 355/640/640
f 360/641/641 355/641/641 356/641/641
f 360/642/642 356/642/642 357/642/642
f 360/643/643 357/643/643 358/643/643
f 360/644/644 358/644/644 354/644/644
f 361/645/645 362/645/645 363/645/645
f 361/646/646 363/646/646 364/646/646
f 362/647/647 365/647/647 366/647/647
f 362/648/648 366/648/648 363/648/648
f 365/649/649 367/649/649 368/649/649
f 365/650/650 368/650/650 366/650/650
f 367/651/651 369/651/651 370/651/651
f 367/652/652 370/652/652 368/652/652
f 369/653/653 371/653/653 372/653/653
f 369/654/654 372/654/654 370/654/654
f 371/655/655 361/655/655 364/655/655
f 371/656/656 364/656/656 372/656/656
f 364/657/657 363/657/657 373/657/657
f 364/658/658 373/658/658 374/658/658
f 363/659/659 366/659/659 375/659/659
f 363/660/660 375/660/660 373/660/660
f 366/661/661 368/661/661 376/661/661
f 366/662/662 376/662/662 375/662/662
f 368/663/663 370/663/663 377/663/663
f 368/664/664 377/664/664 376/664/664
f 370/665/665 372/665/665 378/665/665
f 370/666/666 378/666/666 377/666/666
f 372/667/667 364/667/667 374/667/667
f 372/668/668 374/668/668 378/668/668
f 379/669/669 362/669/669 361/669/669
f 379/670/670 365/670/670 362/670/670
f 379/671/671 367/671/671 365/671/671
f 379/672/672 369/672/672 367/672/672
f 379/673/673 371/673/673 369/673/673
f 379/674/674 361/674/674 371/674/674
f 380/675/675 374/675/675 373/675/675
f 380/676/676 373/676/676 375/676/676
f 380/677/677 375/677/677 376/677/677
f 380/678/678 376/678/678 377/678/678
f 380/679/679 377/679/679 378/679/679
f 380/680/680 378/680/680 374/680/680
f 381/681/681 382/681/681 383/681/681
f 381/682/682 384/682/682 382/682/682
f 383/683/683 385/683/683 386/683/683
f 383/684/684 382/684/684 385/684/684
f 386/685/685 387/685/685 388/685/685
f 386/686/686 385/686/686 387/686/686
f 388/687/687 389/687/687 390/687/687
f 388/688/688 387/688/688 389/688/688
f 390/689/689 391/689/689 392/689/689
f 390/690/690 389/690/690 391/690/690
f 392/691/691 384/691/691 381/691/691
f 392/692/692 391/692/692 384/692/692
f 393/693/693 381/693/693 383/693/693
f 393/694/694 383/694/694 386/694/694
f 393/695/695 386/695/695 388/695/695
f 393/696/696 388/696/696 390/696/696
f 393/697/697 390/697/697 392/697/697
f 393/698/698 392/698/698 381/698/698
f 394/699/699 382/699/699 384/699/699
f 394/700/700 385/700/700 382/700/700
f 394/701/701 387/701/701 385/701/701
f 394/702/702 389/702/702 387/702/702
f 394/703/703 391/703/703 389/703/703
f 394/704/704 384/704/704 391/704/704
