mtllib TorusNature_ShrubA.mtl
o TorusNature_ShrubA
usemtl TorusNatureKit
s off
v -0.146335 0.000601 -0.050000
v -0.154417 0.001430 -0.064073
v -0.139391 0.196940 -0.055413
v -0.136283 0.196621 -0.050000
v -0.170583 0.003088 -0.064073
v -0.145609 0.197577 -0.055413
v -0.178665 0.003917 -0.050000
v -0.148717 0.197896 -0.050000
v -0.170583 0.003088 -0.035927
v -0.145609 0.197577 -0.044587
v -0.154417 0.001430 -0.035927
v -0.139391 0.196940 -0.044587
v -0.068250 0.067259 -0.050000
v -0.090678 0.067259 0.005315
v -0.162500 0.067259 0.028227
v -0.229246 0.067259 0.005315
v -0.263999 0.067259 -0.050000
v -0.223868 0.067259 -0.105315
v -0.162500 0.067259 -0.128227
v -0.090782 0.067259 -0.105315
v 0.000000 0.158259 -0.050000
v -0.038668 0.158259 0.045371
v -0.162500 0.158259 0.084875
v -0.277579 0.158259 0.045371
v -0.337499 0.158259 -0.050000
v -0.268308 0.158259 -0.145371
v -0.162500 0.158259 -0.184875
v -0.038849 0.158259 -0.145371
v -0.035750 0.270059 -0.050000
v -0.065911 0.270059 0.024389
v -0.162500 0.270059 0.055203
v -0.252261 0.270059 0.024389
v -0.298999 0.270059 -0.050000
v -0.245030 0.270059 -0.124389
v -0.162500 0.270059 -0.155203
v -0.066052 0.270059 -0.124389
v -0.138125 0.327259 -0.060790
v 0.078694 0.000909 -0.087500
v 0.070597 0.001584 -0.101573
v 0.085614 0.241999 -0.092913
v 0.088728 0.241740 -0.087500
v 0.054403 0.002933 -0.101573
v 0.079386 0.242518 -0.092913
v 0.046306 0.003608 -0.087500
v 0.076272 0.242778 -0.087500
v 0.054403 0.002933 -0.073427
v 0.079386 0.242518 -0.082087
v 0.070597 0.001584 -0.073427
v 0.085614 0.241999 -0.082087
v 0.168910 0.082259 -0.059965
v 0.115267 0.082259 -0.007247
v 0.032250 0.082259 -0.001540
v -0.036984 0.082259 -0.046188
v -0.047176 0.082259 -0.115035
v 0.017129 0.082259 -0.167753
v 0.096681 0.082259 -0.173460
v 0.164783 0.082259 -0.128812
v 0.245965 0.194259 -0.040025
v 0.153477 0.194259 0.050868
v 0.010344 0.194259 0.060707
v -0.109025 0.194259 -0.016272
v -0.126596 0.194259 -0.134975
v -0.015726 0.194259 -0.225868
v 0.121433 0.194259 -0.235707
v 0.238851 0.194259 -0.158728
v 0.205603 0.331859 -0.050470
v 0.133462 0.331859 0.020427
v 0.021819 0.331859 0.028101
v -0.071289 0.331859 -0.031942
v -0.084995 0.331859 -0.124530
v 0.001483 0.331859 -0.195427
v 0.108468 0.331859 -0.203101
v 0.200053 0.331859 -0.143058
v 0.090625 0.402259 -0.099950
v 0.228642 0.000387 0.062500
v 0.220571 0.001323 0.048427
v 0.235604 0.174399 0.057087
v 0.238708 0.174039 0.062500
v 0.204429 0.003194 0.048427
v 0.229396 0.175118 0.057087
v 0.196358 0.004130 0.062500
v 0.226292 0.175478 0.062500
v 0.204429 0.003194 0.076573
v 0.229396 0.175118 0.067913
v 0.220571 0.001323 0.076573
v 0.235604 0.174399 0.067913
v 0.287010 0.059759 0.104457
v 0.227352 0.059759 0.133725
v 0.166473 0.059759 0.121270
v 0.122095 0.059759 0.074389
v 0.139183 0.059759 0.020543
v 0.199455 0.059759 -0.008725
v 0.265816 0.059759 0.003730
v 0.301234 0.059759 0.050611
v 0.340966 0.140259 0.134839
v 0.238106 0.140259 0.185301
v 0.133143 0.140259 0.163828
v 0.056629 0.140259 0.082998
v 0.086091 0.140259 -0.009839
v 0.190009 0.140259 -0.060301
v 0.304425 0.140259 -0.038828
v 0.365490 0.140259 0.042002
v 0.312703 0.239159 0.118924
v 0.232473 0.239159 0.158285
v 0.150602 0.239159 0.141536
v 0.090921 0.239159 0.078489
v 0.113901 0.239159 0.006076
v 0.194957 0.239159 -0.033285
v 0.284201 0.239159 -0.016536
v 0.331832 0.239159 0.046511
v 0.235000 0.289759 0.052540
v -0.071408 0.000000 0.162500
v -0.079454 0.001129 0.148427
v -0.064405 0.144324 0.157087
v -0.061311 0.143890 0.162500
v -0.095546 0.003388 0.148427
v -0.070595 0.145193 0.157087
v -0.103592 0.004517 0.162500
v -0.073689 0.145627 0.162500
v -0.095546 0.003388 0.176573
v -0.070595 0.145193 0.167913
v -0.079454 0.001129 0.176573
v -0.064405 0.144324 0.167913
v -0.027089 0.049759 0.225209
v -0.101217 0.049759 0.239911
v -0.156837 0.049759 0.209267
v -0.187579 0.049759 0.151228
v -0.144326 0.049759 0.099791
v -0.075027 0.049759 0.085089
v -0.006363 0.049759 0.115733
v 0.006420 0.049759 0.173772
v 0.016657 0.116259 0.270618
v -0.111151 0.116259 0.295967
v -0.207047 0.116259 0.243133
v -0.260049 0.116259 0.143065
v -0.185475 0.116259 0.054382
v -0.065996 0.116259 0.029033
v 0.052392 0.116259 0.081867
v 0.074431 0.116259 0.181935
v -0.006258 0.197959 0.246832
v -0.105948 0.197959 0.266605
v -0.180747 0.197959 0.225394
v -0.222088 0.197959 0.147340
v -0.163921 0.197959 0.078168
v -0.070727 0.197959 0.058395
v 0.021615 0.197959 0.099606
v 0.038806 0.197959 0.177660
v -0.063125 0.239759 0.151710
v 0.053677 0.000718 0.062500
v 0.045588 0.001488 0.048427
v 0.060611 0.211962 0.057087
v 0.063722 0.211666 0.062500
v 0.029412 0.003029 0.048427
v 0.054389 0.212555 0.057087
v 0.021323 0.003799 0.062500
v 0.051278 0.212851 0.062500
v 0.029412 0.003029 0.076573
v 0.054389 0.212555 0.067913
v 0.045588 0.001488 0.076573
v 0.060611 0.211962 0.067913
v 0.072251 0.072259 0.139901
v -0.005028 0.072259 0.136026
v -0.049487 0.072259 0.089081
v -0.058669 0.072259 0.026565
v 0.006091 0.072259 -0.014901
v 0.077930 0.072259 -0.011026
v 0.138779 0.072259 0.035919
v 0.124252 0.072259 0.098435
v 0.097415 0.170259 0.195950
v -0.035824 0.170259 0.189269
v -0.112477 0.170259 0.108329
v -0.128308 0.170259 0.000542
v -0.016654 0.170259 -0.070950
v 0.107207 0.170259 -0.064269
v 0.212120 0.170259 0.016671
v 0.187073 0.170259 0.124458
v 0.084234 0.290659 0.166591
v -0.019692 0.290659 0.161380
v -0.079482 0.290659 0.098246
v -0.091830 0.290659 0.014173
v -0.004740 0.290659 -0.041591
v 0.091871 0.290659 -0.036380
v 0.173703 0.290659 0.026754
v 0.154167 0.290659 0.110827
v 0.063000 0.352259 0.051212
vt 0.023438 0.773438
vt 0.226562 0.773438
vt 0.125000 0.976562
vt 0.023438 0.773438
vt 0.226562 0.773438
vt 0.125000 0.976562
vt 0.023438 0.773438
vt 0.226562 0.773438
vt 0.125000 0.976562
vt 0.023438 0.773438
vt 0.226562 0.773438
vt 0.125000 0.976562
vt 0.023438 0.773438
vt 0.226562 0.773438
vt 0.125000 0.976562
vt 0.023438 0.773438
vt 0.226562 0.773438
vt 0.125000 0.976562
vt 0.023438 0.773438
vt 0.226562 0.773438
vt 0.125000 0.976562
vt 0.023438 0.773438
vt 0.226562 0.773438
vt 0.125000 0.976562
vt 0.023438 0.773438
vt 0.226562 0.773438
vt 0.125000 0.976562
vt 0.023438 0.773438
vt 0.226562 0.773438
vt 0.125000 0.976562
vt 0.023438 0.773438
vt 0.226562 0.773438
vt 0.125000 0.976562
vt 0.023438 0.773438
vt 0.226562 0.773438
vt 0.125000 0.976562
vt 0.023438 0.773438
vt 0.226562 0.773438
vt 0.125000 0.976562
vt 0.023438 0.773438
vt 0.226562 0.773438
vt 0.125000 0.976562
vt 0.023438 0.773438
vt 0.226562 0.773438
vt 0.125000 0.976562
vt 0.023438 0.773438
vt 0.226562 0.773438
vt 0.125000 0.976562
vt 0.023438 0.773438
vt 0.226562 0.773438
vt 0.125000 0.976562
vt 0.023438 0.773438
vt 0.226562 0.773438
vt 0.125000 0.976562
vt 0.023438 0.773438
vt 0.226562 0.773438
vt 0.125000 0.976562
vt 0.023438 0.773438
vt 0.226562 0.773438
vt 0.125000 0.976562
vt 0.273438 0.773438
vt 0.476562 0.773438
vt 0.375000 0.976562
vt 0.273438 0.773438
vt 0.476562 0.773438
vt 0.375000 0.976562
vt 0.273438 0.773438
vt 0.476562 0.773438
vt 0.375000 0.976562
vt 0.273438 0.773438
vt 0.476562 0.773438
vt 0.375000 0.976562
vt 0.273438 0.773438
vt 0.476562 0.773438
vt 0.375000 0.976562
vt 0.273438 0.773438
vt 0.476562 0.773438
vt 0.375000 0.976562
vt 0.273438 0.773438
vt 0.476562 0.773438
vt 0.375000 0.976562
vt 0.273438 0.773438
vt 0.476562 0.773438
vt 0.375000 0.976562
vt 0.273438 0.773438
vt 0.476562 0.773438
vt 0.375000 0.976562
vt 0.273438 0.773438
vt 0.476562 0.773438
vt 0.375000 0.976562
vt 0.273438 0.773438
vt 0.476562 0.773438
vt 0.375000 0.976562
vt 0.273438 0.773438
vt 0.476562 0.773438
vt 0.375000 0.976562
vt 0.273438 0.773438
vt 0.476562 0.773438
vt 0.375000 0.976562
vt 0.273438 0.773438
vt 0.476562 0.773438
vt 0.375000 0.976562
vt 0.273438 0.773438
vt 0.476562 0.773438
vt 0.375000 0.976562
vt 0.273438 0.773438
vt 0.476562 0.773438
vt 0.375000 0.976562
vt 0.273438 0.773438
vt 0.476562 0.773438
vt 0.375000 0.976562
vt 0.273438 0.773438
vt 0.476562 0.773438
vt 0.375000 0.976562
vt 0.273438 0.773438
vt 0.476562 0.773438
vt 0.375000 0.976562
vt 0.273438 0.773438
vt 0.476562 0.773438
vt 0.375000 0.976562
vt 0.273438 0.773438
vt 0.476562 0.773438
vt 0.375000 0.976562
vt 0.273438 0.773438
vt 0.476562 0.773438
vt 0.375000 0.976562
vt 0.273438 0.773438
vt 0.476562 0.773438
vt 0.375000 0.976562
vt 0.273438 0.773438
vt 0.476562 0.773438
vt 0.375000 0.976562
vt 0.273438 0.773438
vt 0.476562 0.773438
vt 0.375000 0.976562
vt 0.273438 0.773438
vt 0.476562 0.773438
vt 0.375000 0.976562
vt 0.273438 0.773438
vt 0.476562 0.773438
vt 0.375000 0.976562
vt 0.273438 0.773438
vt 0.476562 0.773438
vt 0.375000 0.976562
vt 0.273438 0.773438
vt 0.476562 0.773438
vt 0.375000 0.976562
vt 0.273438 0.773438
vt 0.476562 0.773438
vt 0.375000 0.976562
vt 0.273438 0.773438
vt 0.476562 0.773438
vt 0.375000 0.976562
vt 0.273438 0.773438
vt 0.476562 0.773438
vt 0.375000 0.976562
vt 0.273438 0.773438
vt 0.476562 0.773438
vt 0.375000 0.976562
vt 0.273438 0.773438
vt 0.476562 0.773438
vt 0.375000 0.976562
vt 0.273438 0.773438
vt 0.476562 0.773438
vt 0.375000 0.976562
vt 0.273438 0.773438
vt 0.476562 0.773438
vt 0.375000 0.976562
vt 0.273438 0.773438
vt 0.476562 0.773438
vt 0.375000 0.976562
vt 0.273438 0.773438
vt 0.476562 0.773438
vt 0.375000 0.976562
vt 0.273438 0.773438
vt 0.476562 0.773438
vt 0.375000 0.976562
vt 0.273438 0.773438
vt 0.476562 0.773438
vt 0.375000 0.976562
vt 0.273438 0.773438
vt 0.476562 0.773438
vt 0.375000 0.976562
vt 0.273438 0.773438
vt 0.476562 0.773438
vt 0.375000 0.976562
vt 0.273438 0.773438
vt 0.476562 0.773438
vt 0.375000 0.976562
vt 0.273438 0.773438
vt 0.476562 0.773438
vt 0.375000 0.976562
vt 0.273438 0.773438
vt 0.476562 0.773438
vt 0.375000 0.976562
vt 0.273438 0.773438
vt 0.476562 0.773438
vt 0.375000 0.976562
vt 0.023438 0.773438
vt 0.226562 0.773438
vt 0.125000 0.976562
vt 0.023438 0.773438
vt 0.226562 0.773438
vt 0.125000 0.976562
vt 0.023438 0.773438
vt 0.226562 0.773438
vt 0.125000 0.976562
vt 0.023438 0.773438
vt 0.226562 0.773438
vt 0.125000 0.976562
vt 0.023438 0.773438
vt 0.226562 0.773438
vt 0.125000 0.976562
vt 0.023438 0.773438
vt 0.226562 0.773438
vt 0.125000 0.976562
vt 0.023438 0.773438
vt 0.226562 0.773438
vt 0.125000 0.976562
vt 0.023438 0.773438
vt 0.226562 0.773438
vt 0.125000 0.976562
vt 0.023438 0.773438
vt 0.226562 0.773438
vt 0.125000 0.976562
vt 0.023438 0.773438
vt 0.226562 0.773438
vt 0.125000 0.976562
vt 0.023438 0.773438
vt 0.226562 0.773438
vt 0.125000 0.976562
vt 0.023438 0.773438
vt 0.226562 0.773438
vt 0.125000 0.976562
vt 0.023438 0.773438
vt 0.226562 0.773438
vt 0.125000 0.976562
vt 0.023438 0.773438
vt 0.226562 0.773438
vt 0.125000 0.976562
vt 0.023438 0.773438
vt 0.226562 0.773438
vt 0.125000 0.976562
vt 0.023438 0.773438
vt 0.226562 0.773438
vt 0.125000 0.976562
vt 0.023438 0.773438
vt 0.226562 0.773438
vt 0.125000 0.976562
vt 0.023438 0.773438
vt 0.226562 0.773438
vt 0.125000 0.976562
vt 0.023438 0.773438
vt 0.226562 0.773438
vt 0.125000 0.976562
vt 0.023438 0.773438
vt 0.226562 0.773438
vt 0.125000 0.976562
vt 0.523438 0.773438
vt 0.726562 0.773438
vt 0.625000 0.976562
vt 0.523438 0.773438
vt 0.726562 0.773438
vt 0.625000 0.976562
vt 0.523438 0.773438
vt 0.726562 0.773438
vt 0.625000 0.976562
vt 0.523438 0.773438
vt 0.726562 0.773438
vt 0.625000 0.976562
vt 0.523438 0.773438
vt 0.726562 0.773438
vt 0.625000 0.976562
vt 0.523438 0.773438
vt 0.726562 0.773438
vt 0.625000 0.976562
vt 0.523438 0.773438
vt 0.726562 0.773438
vt 0.625000 0.976562
vt 0.523438 0.773438
vt 0.726562 0.773438
vt 0.625000 0.976562
vt 0.523438 0.773438
vt 0.726562 0.773438
vt 0.625000 0.976562
vt 0.523438 0.773438
vt 0.726562 0.773438
vt 0.625000 0.976562
vt 0.523438 0.773438
vt 0.726562 0.773438
vt 0.625000 0.976562
vt 0.523438 0.773438
vt 0.726562 0.773438
vt 0.625000 0.976562
vt 0.523438 0.773438
vt 0.726562 0.773438
vt 0.625000 0.976562
vt 0.523438 0.773438
vt 0.726562 0.773438
vt 0.625000 0.976562
vt 0.523438 0.773438
vt 0.726562 0.773438
vt 0.625000 0.976562
vt 0.523438 0.773438
vt 0.726562 0.773438
vt 0.625000 0.976562
vt 0.523438 0.773438
vt 0.726562 0.773438
vt 0.625000 0.976562
vt 0.523438 0.773438
vt 0.726562 0.773438
vt 0.625000 0.976562
vt 0.523438 0.773438
vt 0.726562 0.773438
vt 0.625000 0.976562
vt 0.523438 0.773438
vt 0.726562 0.773438
vt 0.625000 0.976562
vt 0.523438 0.773438
vt 0.726562 0.773438
vt 0.625000 0.976562
vt 0.523438 0.773438
vt 0.726562 0.773438
vt 0.625000 0.976562
vt 0.523438 0.773438
vt 0.726562 0.773438
vt 0.625000 0.976562
vt 0.523438 0.773438
vt 0.726562 0.773438
vt 0.625000 0.976562
vt 0.523438 0.773438
vt 0.726562 0.773438
vt 0.625000 0.976562
vt 0.523438 0.773438
vt 0.726562 0.773438
vt 0.625000 0.976562
vt 0.523438 0.773438
vt 0.726562 0.773438
vt 0.625000 0.976562
vt 0.523438 0.773438
vt 0.726562 0.773438
vt 0.625000 0.976562
vt 0.523438 0.773438
vt 0.726562 0.773438
vt 0.625000 0.976562
vt 0.523438 0.773438
vt 0.726562 0.773438
vt 0.625000 0.976562
vt 0.523438 0.773438
vt 0.726562 0.773438
vt 0.625000 0.976562
vt 0.523438 0.773438
vt 0.726562 0.773438
vt 0.625000 0.976562
vt 0.523438 0.773438
vt 0.726562 0.773438
vt 0.625000 0.976562
vt 0.523438 0.773438
vt 0.726562 0.773438
vt 0.625000 0.976562
vt 0.523438 0.773438
vt 0.726562 0.773438
vt 0.625000 0.976562
vt 0.523438 0.773438
vt 0.726562 0.773438
vt 0.625000 0.976562
vt 0.523438 0.773438
vt 0.726562 0.773438
vt 0.625000 0.976562
vt 0.523438 0.773438
vt 0.726562 0.773438
vt 0.625000 0.976562
vt 0.523438 0.773438
vt 0.726562 0.773438
vt 0.625000 0.976562
vt 0.523438 0.773438
vt 0.726562 0.773438
vt 0.625000 0.976562
vt 0.523438 0.773438
vt 0.726562 0.773438
vt 0.625000 0.976562
vt 0.523438 0.773438
vt 0.726562 0.773438
vt 0.625000 0.976562
vt 0.523438 0.773438
vt 0.726562 0.773438
vt 0.625000 0.976562
vt 0.523438 0.773438
vt 0.726562 0.773438
vt 0.625000 0.976562
vt 0.523438 0.773438
vt 0.726562 0.773438
vt 0.625000 0.976562
vt 0.523438 0.773438
vt 0.726562 0.773438
vt 0.625000 0.976562
vt 0.023438 0.773438
vt 0.226562 0.773438
vt 0.125000 0.976562
vt 0.023438 0.773438
vt 0.226562 0.773438
vt 0.125000 0.976562
vt 0.023438 0.773438
vt 0.226562 0.773438
vt 0.125000 0.976562
vt 0.023438 0.773438
vt 0.226562 0.773438
vt 0.125000 0.976562
vt 0.023438 0.773438
vt 0.226562 0.773438
vt 0.125000 0.976562
vt 0.023438 0.773438
vt 0.226562 0.773438
vt 0.125000 0.976562
vt 0.023438 0.773438
vt 0.226562 0.773438
vt 0.125000 0.976562
vt 0.023438 0.773438
vt 0.226562 0.773438
vt 0.125000 0.976562
vt 0.023438 0.773438
vt 0.226562 0.773438
vt 0.125000 0.976562
vt 0.023438 0.773438
vt 0.226562 0.773438
vt 0.125000 0.976562
vt 0.023438 0.773438
vt 0.226562 0.773438
vt 0.125000 0.976562
vt 0.023438 0.773438
vt 0.226562 0.773438
vt 0.125000 0.976562
vt 0.023438 0.773438
vt 0.226562 0.773438
vt 0.125000 0.976562
vt 0.023438 0.773438
vt 0.226562 0.773438
vt 0.125000 0.976562
vt 0.023438 0.773438
vt 0.226562 0.773438
vt 0.125000 0.976562
vt 0.023438 0.773438
vt 0.226562 0.773438
vt 0.125000 0.976562
vt 0.023438 0.773438
vt 0.226562 0.773438
vt 0.125000 0.976562
vt 0.023438 0.773438
vt 0.226562 0.773438
vt 0.125000 0.976562
vt 0.023438 0.773438
vt 0.226562 0.773438
vt 0.125000 0.976562
vt 0.023438 0.773438
vt 0.226562 0.773438
vt 0.125000 0.976562
vt 0.273438 0.773438
vt 0.476562 0.773438
vt 0.375000 0.976562
vt 0.273438 0.773438
vt 0.476562 0.773438
vt 0.375000 0.976562
vt 0.273438 0.773438
vt 0.476562 0.773438
vt 0.375000 0.976562
vt 0.273438 0.773438
vt 0.476562 0.773438
vt 0.375000 0.976562
vt 0.273438 0.773438
vt 0.476562 0.773438
vt 0.375000 0.976562
vt 0.273438 0.773438
vt 0.476562 0.773438
vt 0.375000 0.976562
vt 0.273438 0.773438
vt 0.476562 0.773438
vt 0.375000 0.976562
vt 0.273438 0.773438
vt 0.476562 0.773438
vt 0.375000 0.976562
vt 0.273438 0.773438
vt 0.476562 0.773438
vt 0.375000 0.976562
vt 0.273438 0.773438
vt 0.476562 0.773438
vt 0.375000 0.976562
vt 0.273438 0.773438
vt 0.476562 0.773438
vt 0.375000 0.976562
vt 0.273438 0.773438
vt 0.476562 0.773438
vt 0.375000 0.976562
vt 0.273438 0.773438
vt 0.476562 0.773438
vt 0.375000 0.976562
vt 0.273438 0.773438
vt 0.476562 0.773438
vt 0.375000 0.976562
vt 0.273438 0.773438
vt 0.476562 0.773438
vt 0.375000 0.976562
vt 0.273438 0.773438
vt 0.476562 0.773438
vt 0.375000 0.976562
vt 0.273438 0.773438
vt 0.476562 0.773438
vt 0.375000 0.976562
vt 0.273438 0.773438
vt 0.476562 0.773438
vt 0.375000 0.976562
vt 0.273438 0.773438
vt 0.476562 0.773438
vt 0.375000 0.976562
vt 0.273438 0.773438
vt 0.476562 0.773438
vt 0.375000 0.976562
vt 0.273438 0.773438
vt 0.476562 0.773438
vt 0.375000 0.976562
vt 0.273438 0.773438
vt 0.476562 0.773438
vt 0.375000 0.976562
vt 0.273438 0.773438
vt 0.476562 0.773438
vt 0.375000 0.976562
vt 0.273438 0.773438
vt 0.476562 0.773438
vt 0.375000 0.976562
vt 0.273438 0.773438
vt 0.476562 0.773438
vt 0.375000 0.976562
vt 0.273438 0.773438
vt 0.476562 0.773438
vt 0.375000 0.976562
vt 0.273438 0.773438
vt 0.476562 0.773438
vt 0.375000 0.976562
vt 0.273438 0.773438
vt 0.476562 0.773438
vt 0.375000 0.976562
vt 0.273438 0.773438
vt 0.476562 0.773438
vt 0.375000 0.976562
vt 0.273438 0.773438
vt 0.476562 0.773438
vt 0.375000 0.976562
vt 0.273438 0.773438
vt 0.476562 0.773438
vt 0.375000 0.976562
vt 0.273438 0.773438
vt 0.476562 0.773438
vt 0.375000 0.976562
vt 0.273438 0.773438
vt 0.476562 0.773438
vt 0.375000 0.976562
vt 0.273438 0.773438
vt 0.476562 0.773438
vt 0.375000 0.976562
vt 0.273438 0.773438
vt 0.476562 0.773438
vt 0.375000 0.976562
vt 0.273438 0.773438
vt 0.476562 0.773438
vt 0.375000 0.976562
vt 0.273438 0.773438
vt 0.476562 0.773438
vt 0.375000 0.976562
vt 0.273438 0.773438
vt 0.476562 0.773438
vt 0.375000 0.976562
vt 0.273438 0.773438
vt 0.476562 0.773438
vt 0.375000 0.976562
vt 0.273438 0.773438
vt 0.476562 0.773438
vt 0.375000 0.976562
vt 0.273438 0.773438
vt 0.476562 0.773438
vt 0.375000 0.976562
vt 0.273438 0.773438
vt 0.476562 0.773438
vt 0.375000 0.976562
vt 0.273438 0.773438
vt 0.476562 0.773438
vt 0.375000 0.976562
vt 0.273438 0.773438
vt 0.476562 0.773438
vt 0.375000 0.976562
vt 0.273438 0.773438
vt 0.476562 0.773438
vt 0.375000 0.976562
vt 0.273438 0.773438
vt 0.476562 0.773438
vt 0.375000 0.976562
vt 0.023438 0.773438
vt 0.226562 0.773438
vt 0.125000 0.976562
vt 0.023438 0.773438
vt 0.226562 0.773438
vt 0.125000 0.976562
vt 0.023438 0.773438
vt 0.226562 0.773438
vt 0.125000 0.976562
vt 0.023438 0.773438
vt 0.226562 0.773438
vt 0.125000 0.976562
vt 0.023438 0.773438
vt 0.226562 0.773438
vt 0.125000 0.976562
vt 0.023438 0.773438
vt 0.226562 0.773438
vt 0.125000 0.976562
vt 0.023438 0.773438
vt 0.226562 0.773438
vt 0.125000 0.976562
vt 0.023438 0.773438
vt 0.226562 0.773438
vt 0.125000 0.976562
vt 0.023438 0.773438
vt 0.226562 0.773438
vt 0.125000 0.976562
vt 0.023438 0.773438
vt 0.226562 0.773438
vt 0.125000 0.976562
vt 0.023438 0.773438
vt 0.226562 0.773438
vt 0.125000 0.976562
vt 0.023438 0.773438
vt 0.226562 0.773438
vt 0.125000 0.976562
vt 0.023438 0.773438
vt 0.226562 0.773438
vt 0.125000 0.976562
vt 0.023438 0.773438
vt 0.226562 0.773438
vt 0.125000 0.976562
vt 0.023438 0.773438
vt 0.226562 0.773438
vt 0.125000 0.976562
vt 0.023438 0.773438
vt 0.226562 0.773438
vt 0.125000 0.976562
vt 0.023438 0.773438
vt 0.226562 0.773438
vt 0.125000 0.976562
vt 0.023438 0.773438
vt 0.226562 0.773438
vt 0.125000 0.976562
vt 0.023438 0.773438
vt 0.226562 0.773438
vt 0.125000 0.976562
vt 0.023438 0.773438
vt 0.226562 0.773438
vt 0.125000 0.976562
vt 0.523438 0.773438
vt 0.726562 0.773438
vt 0.625000 0.976562
vt 0.523438 0.773438
vt 0.726562 0.773438
vt 0.625000 0.976562
vt 0.523438 0.773438
vt 0.726562 0.773438
vt 0.625000 0.976562
vt 0.523438 0.773438
vt 0.726562 0.773438
vt 0.625000 0.976562
vt 0.523438 0.773438
vt 0.726562 0.773438
vt 0.625000 0.976562
vt 0.523438 0.773438
vt 0.726562 0.773438
vt 0.625000 0.976562
vt 0.523438 0.773438
vt 0.726562 0.773438
vt 0.625000 0.976562
vt 0.523438 0.773438
vt 0.726562 0.773438
vt 0.625000 0.976562
vt 0.523438 0.773438
vt 0.726562 0.773438
vt 0.625000 0.976562
vt 0.523438 0.773438
vt 0.726562 0.773438
vt 0.625000 0.976562
vt 0.523438 0.773438
vt 0.726562 0.773438
vt 0.625000 0.976562
vt 0.523438 0.773438
vt 0.726562 0.773438
vt 0.625000 0.976562
vt 0.523438 0.773438
vt 0.726562 0.773438
vt 0.625000 0.976562
vt 0.523438 0.773438
vt 0.726562 0.773438
vt 0.625000 0.976562
vt 0.523438 0.773438
vt 0.726562 0.773438
vt 0.625000 0.976562
vt 0.523438 0.773438
vt 0.726562 0.773438
vt 0.625000 0.976562
vt 0.523438 0.773438
vt 0.726562 0.773438
vt 0.625000 0.976562
vt 0.523438 0.773438
vt 0.726562 0.773438
vt 0.625000 0.976562
vt 0.523438 0.773438
vt 0.726562 0.773438
vt 0.625000 0.976562
vt 0.523438 0.773438
vt 0.726562 0.773438
vt 0.625000 0.976562
vt 0.523438 0.773438
vt 0.726562 0.773438
vt 0.625000 0.976562
vt 0.523438 0.773438
vt 0.726562 0.773438
vt 0.625000 0.976562
vt 0.523438 0.773438
vt 0.726562 0.773438
vt 0.625000 0.976562
vt 0.523438 0.773438
vt 0.726562 0.773438
vt 0.625000 0.976562
vt 0.523438 0.773438
vt 0.726562 0.773438
vt 0.625000 0.976562
vt 0.523438 0.773438
vt 0.726562 0.773438
vt 0.625000 0.976562
vt 0.523438 0.773438
vt 0.726562 0.773438
vt 0.625000 0.976562
vt 0.523438 0.773438
vt 0.726562 0.773438
vt 0.625000 0.976562
vt 0.523438 0.773438
vt 0.726562 0.773438
vt 0.625000 0.976562
vt 0.523438 0.773438
vt 0.726562 0.773438
vt 0.625000 0.976562
vt 0.523438 0.773438
vt 0.726562 0.773438
vt 0.625000 0.976562
vt 0.523438 0.773438
vt 0.726562 0.773438
vt 0.625000 0.976562
vt 0.523438 0.773438
vt 0.726562 0.773438
vt 0.625000 0.976562
vt 0.523438 0.773438
vt 0.726562 0.773438
vt 0.625000 0.976562
vt 0.523438 0.773438
vt 0.726562 0.773438
vt 0.625000 0.976562
vt 0.523438 0.773438
vt 0.726562 0.773438
vt 0.625000 0.976562
vt 0.523438 0.773438
vt 0.726562 0.773438
vt 0.625000 0.976562
vt 0.523438 0.773438
vt 0.726562 0.773438
vt 0.625000 0.976562
vt 0.523438 0.773438
vt 0.726562 0.773438
vt 0.625000 0.976562
vt 0.523438 0.773438
vt 0.726562 0.773438
vt 0.625000 0.976562
vt 0.523438 0.773438
vt 0.726562 0.773438
vt 0.625000 0.976562
vt 0.523438 0.773438
vt 0.726562 0.773438
vt 0.625000 0.976562
vt 0.523438 0.773438
vt 0.726562 0.773438
vt 0.625000 0.976562
vt 0.523438 0.773438
vt 0.726562 0.773438
vt 0.625000 0.976562
vt 0.523438 0.773438
vt 0.726562 0.773438
vt 0.625000 0.976562
vt 0.523438 0.773438
vt 0.726562 0.773438
vt 0.625000 0.976562
vt 0.023438 0.773438
vt 0.226562 0.773438
vt 0.125000 0.976562
vt 0.023438 0.773438
vt 0.226562 0.773438
vt 0.125000 0.976562
vt 0.023438 0.773438
vt 0.226562 0.773438
vt 0.125000 0.976562
vt 0.023438 0.773438
vt 0.226562 0.773438
vt 0.125000 0.976562
vt 0.023438 0.773438
vt 0.226562 0.773438
vt 0.125000 0.976562
vt 0.023438 0.773438
vt 0.226562 0.773438
vt 0.125000 0.976562
vt 0.023438 0.773438
vt 0.226562 0.773438
vt 0.125000 0.976562
vt 0.023438 0.773438
vt 0.226562 0.773438
vt 0.125000 0.976562
vt 0.023438 0.773438
vt 0.226562 0.773438
vt 0.125000 0.976562
vt 0.023438 0.773438
vt 0.226562 0.773438
vt 0.125000 0.976562
vt 0.023438 0.773438
vt 0.226562 0.773438
vt 0.125000 0.976562
vt 0.023438 0.773438
vt 0.226562 0.773438
vt 0.125000 0.976562
vt 0.023438 0.773438
vt 0.226562 0.773438
vt 0.125000 0.976562
vt 0.023438 0.773438
vt 0.226562 0.773438
vt 0.125000 0.976562
vt 0.023438 0.773438
vt 0.226562 0.773438
vt 0.125000 0.976562
vt 0.023438 0.773438
vt 0.226562 0.773438
vt 0.125000 0.976562
vt 0.023438 0.773438
vt 0.226562 0.773438
vt 0.125000 0.976562
vt 0.023438 0.773438
vt 0.226562 0.773438
vt 0.125000 0.976562
vt 0.023438 0.773438
vt 0.226562 0.773438
vt 0.125000 0.976562
vt 0.023438 0.773438
vt 0.226562 0.773438
vt 0.125000 0.976562
vt 0.273438 0.773438
vt 0.476562 0.773438
vt 0.375000 0.976562
vt 0.273438 0.773438
vt 0.476562 0.773438
vt 0.375000 0.976562
vt 0.273438 0.773438
vt 0.476562 0.773438
vt 0.375000 0.976562
vt 0.273438 0.773438
vt 0.476562 0.773438
vt 0.375000 0.976562
vt 0.273438 0.773438
vt 0.476562 0.773438
vt 0.375000 0.976562
vt 0.273438 0.773438
vt 0.476562 0.773438
vt 0.375000 0.976562
vt 0.273438 0.773438
vt 0.476562 0.773438
vt 0.375000 0.976562
vt 0.273438 0.773438
vt 0.476562 0.773438
vt 0.375000 0.976562
vt 0.273438 0.773438
vt 0.476562 0.773438
vt 0.375000 0.976562
vt 0.273438 0.773438
vt 0.476562 0.773438
vt 0.375000 0.976562
vt 0.273438 0.773438
vt 0.476562 0.773438
vt 0.375000 0.976562
vt 0.273438 0.773438
vt 0.476562 0.773438
vt 0.375000 0.976562
vt 0.273438 0.773438
vt 0.476562 0.773438
vt 0.375000 0.976562
vt 0.273438 0.773438
vt 0.476562 0.773438
vt 0.375000 0.976562
vt 0.273438 0.773438
vt 0.476562 0.773438
vt 0.375000 0.976562
vt 0.273438 0.773438
vt 0.476562 0.773438
vt 0.375000 0.976562
vt 0.273438 0.773438
vt 0.476562 0.773438
vt 0.375000 0.976562
vt 0.273438 0.773438
vt 0.476562 0.773438
vt 0.375000 0.976562
vt 0.273438 0.773438
vt 0.476562 0.773438
vt 0.375000 0.976562
vt 0.273438 0.773438
vt 0.476562 0.773438
vt 0.375000 0.976562
vt 0.273438 0.773438
vt 0.476562 0.773438
vt 0.375000 0.976562
vt 0.273438 0.773438
vt 0.476562 0.773438
vt 0.375000 0.976562
vt 0.273438 0.773438
vt 0.476562 0.773438
vt 0.375000 0.976562
vt 0.273438 0.773438
vt 0.476562 0.773438
vt 0.375000 0.976562
vt 0.273438 0.773438
vt 0.476562 0.773438
vt 0.375000 0.976562
vt 0.273438 0.773438
vt 0.476562 0.773438
vt 0.375000 0.976562
vt 0.273438 0.773438
vt 0.476562 0.773438
vt 0.375000 0.976562
vt 0.273438 0.773438
vt 0.476562 0.773438
vt 0.375000 0.976562
vt 0.273438 0.773438
vt 0.476562 0.773438
vt 0.375000 0.976562
vt 0.273438 0.773438
vt 0.476562 0.773438
vt 0.375000 0.976562
vt 0.273438 0.773438
vt 0.476562 0.773438
vt 0.375000 0.976562
vt 0.273438 0.773438
vt 0.476562 0.773438
vt 0.375000 0.976562
vt 0.273438 0.773438
vt 0.476562 0.773438
vt 0.375000 0.976562
vt 0.273438 0.773438
vt 0.476562 0.773438
vt 0.375000 0.976562
vt 0.273438 0.773438
vt 0.476562 0.773438
vt 0.375000 0.976562
vt 0.273438 0.773438
vt 0.476562 0.773438
vt 0.375000 0.976562
vt 0.273438 0.773438
vt 0.476562 0.773438
vt 0.375000 0.976562
vt 0.273438 0.773438
vt 0.476562 0.773438
vt 0.375000 0.976562
vt 0.273438 0.773438
vt 0.476562 0.773438
vt 0.375000 0.976562
vt 0.273438 0.773438
vt 0.476562 0.773438
vt 0.375000 0.976562
vt 0.273438 0.773438
vt 0.476562 0.773438
vt 0.375000 0.976562
vt 0.273438 0.773438
vt 0.476562 0.773438
vt 0.375000 0.976562
vt 0.273438 0.773438
vt 0.476562 0.773438
vt 0.375000 0.976562
vt 0.273438 0.773438
vt 0.476562 0.773438
vt 0.375000 0.976562
vt 0.273438 0.773438
vt 0.476562 0.773438
vt 0.375000 0.976562
vt 0.273438 0.773438
vt 0.476562 0.773438
vt 0.375000 0.976562
vn 0.86518679 -0.04436998 -0.49948286
vn 0.86523057 -0.04436944 -0.49940707
vn 0.00450297 0.04390533 -0.99902555
vn 0.00449788 0.04390556 -0.99902556
vn -0.85617991 0.13218377 -0.49948315
vn -0.85622264 0.13218329 -0.49941002
vn -0.85618028 0.13218111 0.49948321
vn -0.85622166 0.13219022 0.49940987
vn 0.00450296 0.04390517 0.99902555
vn 0.00449793 0.04390598 0.99902554
vn 0.86518696 -0.04436720 0.49948280
vn 0.86523010 -0.04437666 0.49940723
vn -0.10202574 -0.99478176 -0.00000725
vn -0.10203199 -0.99478112 0.00000363
vn -0.10202574 -0.99478176 -0.00000000
vn -0.10203824 -0.99478048 -0.00000000
vn 0.10191114 0.99479350 0.00011072
vn 0.10200653 0.99478373 -0.00005537
vn 0.10200653 0.99478373 0.00005537
vn 0.10191114 0.99479350 -0.00011072
vn 0.00000000 -1.00000000 0.00000000
vn 0.00000000 -1.00000000 0.00000000
vn 0.00000000 -1.00000000 0.00000000
vn -0.00000000 -1.00000000 0.00000000
vn 0.00000000 -1.00000000 0.00000000
vn 0.00000000 -1.00000000 0.00000000
vn 0.76096831 -0.57073153 0.30853323
vn 0.76096857 -0.57072642 0.30854204
vn 0.26140848 -0.51009924 0.81942930
vn 0.26140727 -0.51009783 0.81943056
vn -0.27978644 -0.50736667 0.81504516
vn -0.27978166 -0.50736987 0.81504481
vn -0.69892369 -0.56451529 0.43912203
vn -0.69892812 -0.56451242 0.43911867
vn -0.67748543 -0.54720238 -0.49151099
vn -0.67748497 -0.54719940 -0.49151495
vn -0.30214556 -0.50377526 -0.80927038
vn -0.30214478 -0.50377449 -0.80927115
vn 0.26176547 -0.51004516 -0.81934899
vn 0.26176009 -0.51004888 -0.81934840
vn 0.76063096 -0.57047322 -0.30984002
vn 0.76063426 -0.57047070 -0.30983659
vn 0.88853213 0.28412481 0.36025511
vn 0.88853286 0.28412388 0.36025405
vn 0.29465720 0.24513294 0.92362708
vn 0.29464911 0.24514027 0.92362771
vn -0.31491886 0.24348028 0.91735678
vn -0.31490968 0.24347032 0.91736257
vn -0.81289052 0.27993099 0.51073246
vn -0.81289236 0.27993627 0.51072664
vn -0.77969646 0.26850277 -0.56566748
vn -0.77969838 0.26850078 -0.56566577
vn -0.33944700 0.24129080 -0.90915042
vn -0.33943690 0.24129910 -0.90915199
vn 0.29504988 0.24510987 -0.92350784
vn 0.29504342 0.24510237 -0.92351189
vn 0.88799256 0.28395111 -0.36171948
vn 0.88799244 0.28395055 -0.36172021
vn 0.46387367 0.86570670 0.18807746
vn 0.14745102 0.87443232 0.46219727
vn -0.14199676 0.89930106 0.41363573
vn -0.31645699 0.92753580 0.19882733
vn -0.33931799 0.90788852 -0.24617420
vn -0.17770625 0.86132847 -0.47595563
vn 0.17337967 0.82185070 -0.54267939
vn 0.49386069 0.84595008 -0.20117177
vn 0.86546019 -0.03606015 -0.49967823
vn 0.86549028 -0.03605985 -0.49962613
vn 0.00298318 0.03581141 -0.99935411
vn 0.00298428 0.03581137 -0.99935411
vn -0.85949069 0.10768699 -0.49967916
vn -0.85951572 0.10768675 -0.49963616
vn -0.85949084 0.10768571 0.49967918
vn -0.85951534 0.10769008 0.49963610
vn 0.00298318 0.03581144 0.99935411
vn 0.00298428 0.03581130 0.99935411
vn 0.86546027 -0.03605860 0.49967820
vn 0.86549007 -0.03606390 0.49962620
vn -0.08301492 -0.99654830 -0.00003541
vn -0.08304548 -0.99654576 0.00001770
vn -0.08301492 -0.99654830 -0.00000000
vn -0.08307604 -0.99654321 -0.00000000
vn 0.08304548 0.99654575 -0.00009205
vn 0.08304548 0.99654575 -0.00009205
vn 0.08304548 0.99654575 0.00009205
vn 0.08304548 0.99654575 0.00009205
vn 0.00000000 -1.00000000 0.00000000
vn 0.00000000 -1.00000000 0.00000000
vn -0.00000000 -1.00000000 0.00000000
vn 0.00000000 -1.00000000 0.00000000
vn 0.00000000 -1.00000000 0.00000000
vn 0.00000000 -1.00000000 0.00000000
vn 0.59859574 -0.52026953 0.60909996
vn 0.59859605 -0.52027014 0.60909913
vn 0.06031590 -0.47586725 0.87744650
vn 0.06031988 -0.47587058 0.87744442
vn -0.47021952 -0.49721865 0.72915514
vn -0.47022130 -0.49721753 0.72915475
vn -0.81976477 -0.55969721 0.12134560
vn -0.81975919 -0.55970316 0.12135584
vn -0.54669595 -0.50639108 -0.66685202
vn -0.54669499 -0.50638919 -0.66685423
vn -0.06299601 -0.47415316 -0.87818579
vn -0.06300023 -0.47415643 -0.87818372
vn 0.47304536 -0.50556565 -0.72154796
vn 0.47304968 -0.50556303 -0.72154697
vn 0.82693902 -0.56010332 -0.04955936
vn 0.82693403 -0.56010974 -0.04957016
vn 0.67841894 0.25140024 0.69032287
vn 0.67841832 0.25140078 0.69032328
vn 0.06682024 0.22478217 0.97211523
vn 0.06682349 0.22477939 0.97211565
vn -0.52646966 0.23735246 0.81639054
vn -0.52647356 0.23735745 0.81638657
vn -0.95059337 0.27671389 0.14071837
vn -0.95059294 0.27671892 0.14071143
vn -0.61501571 0.24287759 -0.75017742
vn -0.61500995 0.24288273 -0.75018047
vn -0.06973127 0.22379012 -0.97213967
vn -0.06973576 0.22378636 -0.97214021
vn 0.53192659 0.24238155 -0.81136014
vn 0.53192627 0.24238113 -0.81136048
vn 0.95915327 0.27698266 -0.05749450
vn 0.95915163 0.27699072 -0.05748300
vn 0.36392987 0.85464695 0.37031560
vn 0.03405798 0.86794983 0.49548274
vn -0.23683124 0.89946500 0.36725153
vn -0.37824129 0.92401214 0.05599187
vn -0.30127790 0.87987670 -0.36748961
vn -0.04074597 0.82198553 -0.56804890
vn 0.32412527 0.80654542 -0.49439589
vn 0.53186010 0.84623189 -0.03188128
vn 0.86493061 -0.05013904 -0.49938074
vn 0.86495894 -0.05013865 -0.49933170
vn 0.00573468 0.04947578 -0.99875886
vn 0.00573023 0.04947601 -0.99875887
vn -0.85345649 0.14909638 -0.49938191
vn -0.85348492 0.14909603 -0.49933341
vn -0.85345681 0.14909439 0.49938196
vn -0.85348410 0.14910120 0.49933328
vn 0.00573466 0.04947562 0.99875887
vn 0.00573027 0.04947642 0.99875885
vn 0.86493076 -0.05013702 0.49938068
vn 0.86495856 -0.05014392 0.49933183
vn -0.11513796 -0.99334951 -0.00003529
vn -0.11516832 -0.99334599 0.00001765
vn -0.11513796 -0.99334951 -0.00000000
vn -0.11519868 -0.99334247 -0.00000000
vn 0.11504924 0.99335979 0.00009176
vn 0.11512819 0.99335064 -0.00004588
vn 0.11512819 0.99335064 0.00004588
vn 0.11504924 0.99335979 -0.00009176
vn 0.00000000 -1.00000000 0.00000000
vn -0.00000000 -1.00000000 0.00000000
vn 0.00000000 -1.00000000 0.00000000
vn 0.00000000 -1.00000000 0.00000000
vn 0.00000000 -1.00000000 0.00000000
vn 0.00000000 -1.00000000 -0.00000000
vn 0.37197417 -0.53547987 0.75821931
vn 0.37197736 -0.53548431 0.75821461
vn -0.17179336 -0.51508002 0.83974973
vn -0.17180155 -0.51507423 0.83975161
vn -0.60496994 -0.55323046 0.57266695
vn -0.60496754 -0.55323197 0.57266802
vn -0.76516148 -0.59629163 -0.24282546
vn -0.76516116 -0.59629283 -0.24282350
vn -0.36998769 -0.53157853 -0.76192741
vn -0.36998957 -0.53158114 -0.76192467
vn 0.15760479 -0.51955465 -0.83977598
vn 0.15761428 -0.51954771 -0.83977849
vn 0.65324731 -0.57420746 -0.49351165
vn 0.65324110 -0.57421133 -0.49351536
vn 0.77553882 -0.59713375 0.20486782
vn 0.77553864 -0.59713431 0.20486687
vn 0.42518917 0.26096055 0.86666820
vn 0.42517910 0.26096963 0.86667040
vn -0.19415565 0.24819101 0.94905469
vn -0.19415471 0.24819009 0.94905512
vn -0.69875619 0.27243910 0.66145047
vn -0.69875796 0.27244280 0.66144707
vn -0.90867581 0.30191711 -0.28836494
vn -0.90867323 0.30192079 -0.28836919
vn -0.42197727 0.25848551 -0.86897665
vn -0.42197087 0.25849136 -0.86897802
vn 0.17855329 0.25095469 -0.95138871
vn 0.17855182 0.25095310 -0.95138940
vn 0.76444947 0.28649060 -0.57752935
vn 0.76445175 0.28649577 -0.57752376
vn 0.92153060 0.30252285 0.24343638
vn 0.92153207 0.30252056 0.24343368
vn 0.20907480 0.88015660 0.42615969
vn -0.08761536 0.89939154 0.42827375
vn -0.27730727 0.92422577 0.26250219
vn -0.34693480 0.93140462 -0.11009849
vn -0.20586699 0.88198216 -0.42394134
vn 0.10133033 0.83559457 -0.53992025
vn 0.42312386 0.84780987 -0.31966331
vn 0.46562211 0.87639418 0.12300119
vn 0.86442566 -0.06066304 -0.49908743
vn 0.86448184 -0.06066212 -0.49899024
vn 0.00835123 0.05949006 -0.99819396
vn 0.00835167 0.05949003 -0.99819396
vn -0.84772727 0.17964417 -0.49908562
vn -0.84778574 0.17964335 -0.49898657
vn -0.84772821 0.17963929 0.49908576
vn -0.84778328 0.17965604 0.49898618
vn 0.00835124 0.05949008 0.99819396
vn 0.00835166 0.05948999 0.99819396
vn 0.86442609 -0.06065821 0.49908729
vn 0.86448074 -0.06067469 0.49899062
vn -0.13901722 -0.99028996 0.00003518
vn -0.13898704 -0.99029420 -0.00001759
vn -0.13901722 -0.99028996 -0.00000000
vn -0.13895686 -0.99029843 -0.00000000
vn 0.13902441 0.99028895 -0.00006579
vn 0.13896798 0.99029687 0.00003290
vn 0.13896798 0.99029687 -0.00003290
vn 0.13902441 0.99028895 0.00006579
vn -0.00000000 -1.00000000 0.00000000
vn 0.00000000 -1.00000000 0.00000000
vn 0.00000000 -1.00000000 0.00000000
vn 0.00000000 -1.00000000 0.00000000
vn 0.00000000 -1.00000000 -0.00000000
vn 0.00000000 -1.00000000 0.00000000
vn 0.15208029 -0.62363594 0.76677885
vn 0.15207783 -0.62363294 0.76678177
vn -0.37490610 -0.62960692 0.68047082
vn -0.37490740 -0.62960610 0.68047087
vn -0.65502791 -0.67124489 0.34694197
vn -0.65501780 -0.67125127 0.34694873
vn -0.56520266 -0.67427968 -0.47528188
vn -0.56520280 -0.67428446 -0.47527493
vn -0.16234807 -0.62298007 -0.76520516
vn -0.16234211 -0.62297330 -0.76521194
vn 0.31434332 -0.63644065 -0.70436608
vn 0.31435157 -0.63643505 -0.70436745
vn 0.70015752 -0.69713767 -0.15420286
vn 0.70015302 -0.69714114 -0.15420762
vn 0.61542027 -0.67861366 0.40092566
vn 0.61542013 -0.67861724 0.40091982
vn 0.18419187 0.32201358 0.92864450
vn 0.18418384 0.32202291 0.92864286
vn -0.45610472 0.32656836 0.82784152
vn -0.45610194 0.32656398 0.82784479
vn -0.82438567 0.36019461 0.43663269
vn -0.82438499 0.36018294 0.43664361
vn -0.71322539 0.36277366 -0.59975396
vn -0.71322466 0.36277443 -0.59975436
vn -0.19653017 0.32151524 -0.92628497
vn -0.19652296 0.32152315 -0.92628375
vn 0.38444653 0.33186158 -0.86143413
vn 0.38444182 0.33185291 -0.86143957
vn 0.90213666 0.38297692 -0.19869105
vn 0.90213594 0.38298090 -0.19868663
vn 0.77957183 0.36651368 0.50787349
vn 0.77957803 0.36650682 0.50786894
vn 0.07233453 0.92831481 0.36469073
vn -0.15722153 0.94543666 0.28536102
vn -0.25544797 0.95730927 0.13529703
vn -0.24364260 0.94797810 -0.20488000
vn -0.08519268 0.91187506 -0.40152969
vn 0.18487972 0.89118251 -0.41426228
vn 0.39693681 0.91367299 -0.08742333
vn 0.32432345 0.92204722 0.21128942
vn 0.86527350 -0.04120430 -0.49960382
vn 0.86529699 -0.04120403 -0.49956315
vn 0.00388993 0.04083289 -0.99915842
vn 0.00389165 0.04083282 -0.99915841
vn -0.85749668 0.12287045 -0.49960214
vn -0.85752127 0.12287018 -0.49955999
vn -0.85749687 0.12286902 0.49960217
vn -0.85752078 0.12287390 0.49955992
vn 0.00388993 0.04083295 0.99915842
vn 0.00389164 0.04083269 0.99915842
vn 0.86527358 -0.04120292 0.49960380
vn 0.86529678 -0.04120764 0.49956323
vn -0.09483523 -0.99549298 0.00004211
vn -0.09479893 -0.99549644 -0.00002105
vn -0.09483523 -0.99549298 -0.00000000
vn -0.09476263 -0.99549990 -0.00000000
vn 0.09487704 0.99548899 -0.00009195
vn 0.09479777 0.99549655 0.00004598
vn 0.09479777 0.99549655 -0.00004598
vn 0.09487704 0.99548899 0.00009195
vn 0.00000000 -1.00000000 0.00000000
vn 0.00000000 -1.00000000 0.00000000
vn 0.00000000 -1.00000000 0.00000000
vn 0.00000000 -1.00000000 -0.00000000
vn 0.00000000 -1.00000000 0.00000000
vn 0.00000000 -1.00000000 0.00000000
vn -0.04372584 -0.48750733 0.87202331
vn -0.04372585 -0.48750732 0.87202332
vn -0.62212459 -0.51559227 0.58917366
vn -0.62212045 -0.51559493 0.58917570
vn -0.82405208 -0.55343442 0.12103100
vn -0.82405153 -0.55343501 0.12103207
vn -0.46099838 -0.51876711 -0.71997304
vn -0.46099942 -0.51876885 -0.71997112
vn 0.04702230 -0.48767134 -0.87176004
vn 0.04702280 -0.48767097 -0.87176022
vn 0.52086059 -0.52240148 -0.67513031
vn 0.52086255 -0.52240026 -0.67512974
vn 0.80378074 -0.56484538 0.18677852
vn 0.80378029 -0.56484671 0.18677645
vn 0.53288845 -0.51904944 0.66829453
vn 0.53289424 -0.51905801 0.66828326
vn -0.04871715 0.23158388 0.97159433
vn -0.04871861 0.23158527 0.97159393
vn -0.70329613 0.24851317 0.66604486
vn -0.70329571 0.24851255 0.66604554
vn -0.95192122 0.27257824 0.13981092
vn -0.95192127 0.27257776 0.13981153
vn -0.52204656 0.25046840 -0.81531158
vn -0.52204416 0.25047052 -0.81531246
vn 0.05239425 0.23168051 -0.97137994
vn 0.05239572 0.23168181 -0.97137955
vn 0.59101235 0.25273248 -0.76604876
vn 0.59100808 0.25272581 -0.76605425
vn 0.93504359 0.28015140 0.21727560
vn 0.93504146 0.28015491 0.21728022
vn 0.60355005 0.25064265 0.75690528
vn 0.60354675 0.25064542 0.75690699
vn -0.02377914 0.88007379 0.47424117
vn -0.29994921 0.91068069 0.28406189
vn -0.38061122 0.92304396 0.05590127
vn -0.25516282 0.88095809 -0.39850316
vn 0.03064766 0.82231807 -0.56820217
vn 0.35301795 0.81609367 -0.45756906
vn 0.50248328 0.85666635 0.11676178
vn 0.31897406 0.85920786 0.40002175
f 1/1/1 2/2/1 3/3/1
f 1/4/2 3/5/2 4/6/2
f 2/7/3 5/8/3 6/9/3
f 2/10/4 6/11/4 3/12/4
f 5/13/5 7/14/5 8/15/5
f 5/16/6 8/17/6 6/18/6
f 7/19/7 9/20/7 10/21/7
f 7/22/8 10/23/8 8/24/8
f 9/25/9 11/26/9 12/27/9
f 9/28/10 12/29/10 10/30/10
f 11/31/11 1/32/11 4/33/11
f 11/34/12 4/35/12 12/36/12
f 11/37/13 9/38/13 7/39/13
f 11/40/14 7/41/14 5/42/14
f 11/43/15 5/44/15 2/45/15
f 11/46/16 2/47/16 1/48/16
f 4/49/17 3/50/17 6/51/17
f 4/52/18 6/53/18 8/54/18
f 4/55/19 8/56/19 10/57/19
f 4/58/20 10/59/20 12/60/20
f 13/61/21 14/62/21 15/63/21
f 13/64/22 15/65/22 16/66/22
f 13/67/23 16/68/23 17/69/23
f 13/70/24 17/71/24 18/72/24
f 13/73/25 18/74/25 19/75/25
f 13/76/26 19/77/26 20/78/26
f 21/79/27 22/80/27 14/81/27
f 21/82/28 14/83/28 13/84/28
f 22/85/29 23/86/29 15/87/29
f 22/88/30 15/89/30 14/90/30
f 23/91/31 24/92/31 16/93/31
f 23/94/32 16/95/32 15/96/32
f 24/97/33 25/98/33 17/99/33
f 24/100/34 17/101/34 16/102/34
f 25/103/35 26/104/35 18/105/35
f 25/106/36 18/107/36 17/108/36
f 26/109/37 27/110/37 19/111/37
f 26/112/38 19/113/38 18/114/38
f 27/115/39 28/116/39 20/117/39
f 27/118/40 20/119/40 19/120/40
f 28/121/41 21/122/41 13/123/41
f 28/124/42 13/125/42 20/126/42
f 29/127/43 30/128/43 22/129/43
f 29/130/44 22/131/44 21/132/44
f 30/133/45 31/134/45 23/135/45
f 30/136/46 23/137/46 22/138/46
f 31/139/47 32/140/47 24/141/47
f 31/142/48 24/143/48 23/144/48
f 32/145/49 33/146/49 25/147/49
f 32/148/50 25/149/50 24/150/50
f 33/151/51 34/152/51 26/153/51
f 33/154/52 26/155/52 25/156/52
f 34/157/53 35/158/53 27/159/53
f 34/160/54 27/161/54 26/162/54
f 35/163/55 36/164/55 28/165/55
f 35/166/56 28/167/56 27/168/56
f 36/169/57 29/170/57 21/171/57
f 36/172/58 21/173/58 28/174/58
f 37/175/59 30/176/59 29/177/59
f 37/178/60 31/179/60 30/180/60
f 37/181/61 32/182/61 31/183/61
f 37/184/62 33/185/62 32/186/62
f 37/187/63 34/188/63 33/189/63
f 37/190/64 35/191/64 34/192/64
f 37/193/65 36/194/65 35/195/65
f 37/196/66 29/197/66 36/198/66
f 38/199/67 39/200/67 40/201/67
f 38/202/68 40/203/68 41/204/68
f 39/205/69 42/206/69 43/207/69
f 39/208/70 43/209/70 40/210/70
f 42/211/71 44/212/71 45/213/71
f 42/214/72 45/215/72 43/216/72
f 44/217/73 46/218/73 47/219/73
f 44/220/74 47/221/74 45/222/74
f 46/223/75 48/224/75 49/225/75
f 46/226/76 49/227/76 47/228/76
f 48/229/77 38/230/77 41/231/77
f 48/232/78 41/233/78 49/234/78
f 48/235/79 46/236/79 44/237/79
f 48/238/80 44/239/80 42/240/80
f 48/241/81 42/242/81 39/243/81
f 48/244/82 39/245/82 38/246/82
f 41/247/83 40/248/83 43/249/83
f 41/250/84 43/251/84 45/252/84
f 41/253/85 45/254/85 47/255/85
f 41/256/86 47/257/86 49/258/86
f 50/259/87 51/260/87 52/261/87
f 50/262/88 52/263/88 53/264/88
f 50/265/89 53/266/89 54/267/89
f 50/268/90 54/269/90 55/270/90
f 50/271/91 55/272/91 56/273/91
f 50/274/92 56/275/92 57/276/92
f 58/277/93 59/278/93 51/279/93
f 58/280/94 51/281/94 50/282/94
f 59/283/95 60/284/95 52/285/95
f 59/286/96 52/287/96 51/288/96
f 60/289/97 61/290/97 53/291/97
f 60/292/98 53/293/98 52/294/98
f 61/295/99 62/296/99 54/297/99
f 61/298/100 54/299/100 53/300/100
f 62/301/101 63/302/101 55/303/101
f 62/304/102 55/305/102 54/306/102
f 63/307/103 64/308/103 56/309/103
f 63/310/104 56/311/104 55/312/104
f 64/313/105 65/314/105 57/315/105
f 64/316/106 57/317/106 56/318/106
f 65/319/107 58/320/107 50/321/107
f 65/322/108 50/323/108 57/324/108
f 66/325/109 67/326/109 59/327/109
f 66/328/110 59/329/110 58/330/110
f 67/331/111 68/332/111 60/333/111
f 67/334/112 60/335/112 59/336/112
f 68/337/113 69/338/113 61/339/113
f 68/340/114 61/341/114 60/342/114
f 69/343/115 70/344/115 62/345/115
f 69/346/116 62/347/116 61/348/116
f 70/349/117 71/350/117 63/351/117
f 70/352/118 63/353/118 62/354/118
f 71/355/119 72/356/119 64/357/119
f 71/358/120 64/359/120 63/360/120
f 72/361/121 73/362/121 65/363/121
f 72/364/122 65/365/122 64/366/122
f 73/367/123 66/368/123 58/369/123
f 73/370/124 58/371/124 65/372/124
f 74/373/125 67/374/125 66/375/125
f 74/376/126 68/377/126 67/378/126
f 74/379/127 69/380/127 68/381/127
f 74/382/128 70/383/128 69/384/128
f 74/385/129 71/386/129 70/387/129
f 74/388/130 72/389/130 71/390/130
f 74/391/131 73/392/131 72/393/131
f 74/394/132 66/395/132 73/396/132
f 75/397/133 76/398/133 77/399/133
f 75/400/134 77/401/134 78/402/134
f 76/403/135 79/404/135 80/405/135
f 76/406/136 80/407/136 77/408/136
f 79/409/137 81/410/137 82/411/137
f 79/412/138 82/413/138 80/414/138
f 81/415/139 83/416/139 84/417/139
f 81/418/140 84/419/140 82/420/140
f 83/421/141 85/422/141 86/423/141
f 83/424/142 86/425/142 84/426/142
f 85/427/143 75/428/143 78/429/143
f 85/430/144 78/431/144 86/432/144
f 85/433/145 83/434/145 81/435/145
f 85/436/146 81/437/146 79/438/146
f 85/439/147 79/440/147 76/441/147
f 85/442/148 76/443/148 75/444/148
f 78/445/149 77/446/149 80/447/149
f 78/448/150 80/449/150 82/450/150
f 78/451/151 82/452/151 84/453/151
f 78/454/152 84/455/152 86/456/152
f 87/457/153 88/458/153 89/459/153
f 87/460/154 89/461/154 90/462/154
f 87/463/155 90/464/155 91/465/155
f 87/466/156 91/467/156 92/468/156
f 87/469/157 92/470/157 93/471/157
f 87/472/158 93/473/158 94/474/158
f 95/475/159 96/476/159 88/477/159
f 95/478/160 88/479/160 87/480/160
f 96/481/161 97/482/161 89/483/161
f 96/484/162 89/485/162 88/486/162
f 97/487/163 98/488/163 90/489/163
f 97/490/164 90/491/164 89/492/164
f 98/493/165 99/494/165 91/495/165
f 98/496/166 91/497/166 90/498/166
f 99/499/167 100/500/167 92/501/167
f 99/502/168 92/503/168 91/504/168
f 100/505/169 101/506/169 93/507/169
f 100/508/170 93/509/170 92/510/170
f 101/511/171 102/512/171 94/513/171
f 101/514/172 94/515/172 93/516/172
f 102/517/173 95/518/173 87/519/173
f 102/520/174 87/521/174 94/522/174
f 103/523/175 104/524/175 96/525/175
f 103/526/176 96/527/176 95/528/176
f 104/529/177 105/530/177 97/531/177
f 104/532/178 97/533/178 96/534/178
f 105/535/179 106/536/179 98/537/179
f 105/538/180 98/539/180 97/540/180
f 106/541/181 107/542/181 99/543/181
f 106/544/182 99/545/182 98/546/182
f 107/547/183 108/548/183 100/549/183
f 107/550/184 100/551/184 99/552/184
f 108/553/185 109/554/185 101/555/185
f 108/556/186 101/557/186 100/558/186
f 109/559/187 110/560/187 102/561/187
f 109/562/188 102/563/188 101/564/188
f 110/565/189 103/566/189 95/567/189
f 110/568/190 95/569/190 102/570/190
f 111/571/191 104/572/191 103/573/191
f 111/574/192 105/575/192 104/576/192
f 111/577/193 106/578/193 105/579/193
f 111/580/194 107/581/194 106/582/194
f 111/583/195 108/584/195 107/585/195
f 111/586/196 109/587/196 108/588/196
f 111/589/197 110/590/197 109/591/197
f 111/592/198 103/593/198 110/594/198
f 112/595/199 113/596/199 114/597/199
f 112/598/200 114/599/200 115/600/200
f 113/601/201 116/602/201 117/603/201
f 113/604/202 117/605/202 114/606/202
f 116/607/203 118/608/203 119/609/203
f 116/610/204 119/611/204 117/612/204
f 118/613/205 120/614/205 121/615/205
f 118/616/206 121/617/206 119/618/206
f 120/619/207 122/620/207 123/621/207
f 120/622/208 123/623/208 121/624/208
f 122/625/209 112/626/209 115/627/209
f 122/628/210 115/629/210 123/630/210
f 122/631/211 120/632/211 118/633/211
f 122/634/212 118/635/212 116/636/212
f 122/637/213 116/638/213 113/639/213
f 122/640/214 113/641/214 112/642/214
f 115/643/215 114/644/215 117/645/215
f 115/646/216 117/647/216 119/648/216
f 115/649/217 119/650/217 121/651/217
f 115/652/218 121/653/218 123/654/218
f 124/655/219 125/656/219 126/657/219
f 124/658/220 126/659/220 127/660/220
f 124/661/221 127/662/221 128/663/221
f 124/664/222 128/665/222 129/666/222
f 124/667/223 129/668/223 130/669/223
f 124/670/224 130/671/224 131/672/224
f 132/673/225 133/674/225 125/675/225
f 132/676/226 125/677/226 124/678/226
f 133/679/227 134/680/227 126/681/227
f 133/682/228 126/683/228 125/684/228
f 134/685/229 135/686/229 127/687/229
f 134/688/230 127/689/230 126/690/230
f 135/691/231 136/692/231 128/693/231
f 135/694/232 128/695/232 127/696/232
f 136/697/233 137/698/233 129/699/233
f 136/700/234 129/701/234 128/702/234
f 137/703/235 138/704/235 130/705/235
f 137/706/236 130/707/236 129/708/236
f 138/709/237 139/710/237 131/711/237
f 138/712/238 131/713/238 130/714/238
f 139/715/239 132/716/239 124/717/239
f 139/718/240 124/719/240 131/720/240
f 140/721/241 141/722/241 133/723/241
f 140/724/242 133/725/242 132/726/242
f 141/727/243 142/728/243 134/729/243
f 141/730/244 134/731/244 133/732/244
f 142/733/245 143/734/245 135/735/245
f 142/736/246 135/737/246 134/738/246
f 143/739/247 144/740/247 136/741/247
f 143/742/248 136/743/248 135/744/248
f 144/745/249 145/746/249 137/747/249
f 144/748/250 137/749/250 136/750/250
f 145/751/251 146/752/251 138/753/251
f 145/754/252 138/755/252 137/756/252
f 146/757/253 147/758/253 139/759/253
f 146/760/254 139/761/254 138/762/254
f 147/763/255 140/764/255 132/765/255
f 147/766/256 132/767/256 139/768/256
f 148/769/257 141/770/257 140/771/257
f 148/772/258 142/773/258 141/774/258
f 148/775/259 143/776/259 142/777/259
f 148/778/260 144/779/260 143/780/260
f 148/781/261 145/782/261 144/783/261
f 148/784/262 146/785/262 145/786/262
f 148/787/263 147/788/263 146/789/263
f 148/790/264 140/791/264 147/792/264
f 149/793/265 150/794/265 151/795/265
f 149/796/266 151/797/266 152/798/266
f 150/799/267 153/800/267 154/801/267
f 150/802/268 154/803/268 151/804/268
f 153/805/269 155/806/269 156/807/269
f 153/808/270 156/809/270 154/810/270
f 155/811/271 157/812/271 158/813/271
f 155/814/272 158/815/272 156/816/272
f 157/817/273 159/818/273 160/819/273
f 157/820/274 160/821/274 158/822/274
f 159/823/275 149/824/275 152/825/275
f 159/826/276 152/827/276 160/828/276
f 159/829/277 157/830/277 155/831/277
f 159/832/278 155/833/278 153/834/278
f 159/835/279 153/836/279 150/837/279
f 159/838/280 150/839/280 149/840/280
f 152/841/281 151/842/281 154/843/281
f 152/844/282 154/845/282 156/846/282
f 152/847/283 156/848/283 158/849/283
f 152/850/284 158/851/284 160/852/284
f 161/853/285 162/854/285 163/855/285
f 161/856/286 163/857/286 164/858/286
f 161/859/287 164/860/287 165/861/287
f 161/862/288 165/863/288 166/864/288
f 161/865/289 166/866/289 167/867/289
f 161/868/290 167/869/290 168/870/290
f 169/871/291 170/872/291 162/873/291
f 169/874/292 162/875/292 161/876/292
f 170/877/293 171/878/293 163/879/293
f 170/880/294 163/881/294 162/882/294
f 171/883/295 172/884/295 164/885/295
f 171/886/296 164/887/296 163/888/296
f 172/889/297 173/890/297 165/891/297
f 172/892/298 165/893/298 164/894/298
f 173/895/299 174/896/299 166/897/299
f 173/898/300 166/899/300 165/900/300
f 174/901/301 175/902/301 167/903/301
f 174/904/302 167/905/302 166/906/302
f 175/907/303 176/908/303 168/909/303
f 175/910/304 168/911/304 167/912/304
f 176/913/305 169/914/305 161/915/305
f 176/916/306 161/917/306 168/918/306
f 177/919/307 178/920/307 170/921/307
f 177/922/308 170/923/308 169/924/308
f 178/925/309 179/926/309 171/927/309
f 178/928/310 171/929/310 170/930/310
f 179/931/311 180/932/311 172/933/311
f 179/934/312 172/935/312 171/936/312
f 180/937/313 181/938/313 173/939/313
f 180/940/314 173/941/314 172/942/314
f 181/943/315 182/944/315 174/945/315
f 181/946/316 174/947/316 173/948/316
f 182/949/317 183/950/317 175/951/317
f 182/952/318 175/953/318 174/954/318
f 183/955/319 184/956/319 176/957/319
f 183/958/320 176/959/320 175/960/320
f 184/961/321 177/962/321 169/963/321
f 184/964/322 169/965/322 176/966/322
f 185/967/323 178/968/323 177/969/323
f 185/970/324 179/971/324 178/972/324
f 185/973/325 180/974/325 179/975/325
f 185/976/326 181/977/326 180/978/326
f 185/979/327 182/980/327 181/981/327
f 185/982/328 183/983/328 182/984/328
f 185/985/329 184/986/329 183/987/329
f 185/988/330 177/989/330 184/990/330
