mtllib TorusNature_FlowersA.mtl
o TorusNature_FlowersA
usemtl TorusNatureKit
s off
v 0.196363 0.000000 0.013158
v 0.152224 0.000000 0.069802
v 0.032853 0.000000 0.099784
v -0.085221 0.000000 0.091652
v -0.184016 0.000000 0.048512
v -0.177784 0.000000 -0.013158
v -0.144197 0.000000 -0.069802
v -0.038328 0.000000 -0.099784
v 0.076999 0.000000 -0.091652
v 0.174722 0.000000 -0.048512
v 0.338557 0.009625 0.022686
v 0.262454 0.009625 0.120348
v 0.056642 0.009625 0.172041
v -0.146933 0.009625 0.158020
v -0.317269 0.009625 0.083641
v -0.306524 0.009625 -0.022686
v -0.248615 0.009625 -0.120348
v -0.066083 0.009625 -0.172041
v 0.132757 0.009625 -0.158020
v 0.301244 0.009625 -0.083641
v 0.264074 0.021450 0.017695
v 0.204714 0.021450 0.093871
v 0.044181 0.021450 0.134192
v -0.114608 0.021450 0.123256
v -0.247470 0.021450 0.065240
v -0.239089 0.021450 -0.017695
v -0.193920 0.021450 -0.093871
v -0.051545 0.021450 -0.134192
v 0.103550 0.021450 -0.123256
v 0.234970 0.021450 -0.065240
v 0.050625 0.027500 -0.014000
v -0.258250 0.025000 -0.077500
v -0.262500 0.025000 -0.081750
v -0.262500 0.120000 -0.081000
v -0.259000 0.120000 -0.077500
v -0.266750 0.025000 -0.077500
v -0.266000 0.120000 -0.077500
v -0.262500 0.025000 -0.073250
v -0.262500 0.120000 -0.074000
v -0.262500 0.052800 -0.066250
v -0.262500 0.052800 -0.088750
v -0.310000 0.052800 -0.077500
v -0.262500 0.044050 -0.077500
v -0.215000 0.052800 -0.077500
v -0.262500 0.120000 -0.095500
v -0.262500 0.120000 -0.059500
v -0.205000 0.120000 -0.077500
v -0.262500 0.111250 -0.077500
v -0.245381 0.120000 -0.083062
v -0.279619 0.120000 -0.071938
v -0.244732 0.120000 -0.022814
v -0.251920 0.120000 -0.062938
v -0.273080 0.120000 -0.092062
v -0.309018 0.120000 -0.043702
v -0.273080 0.120000 -0.062938
v -0.251920 0.120000 -0.092062
v -0.309018 0.120000 -0.111298
v -0.279619 0.120000 -0.083062
v -0.245381 0.120000 -0.071938
v -0.244732 0.120000 -0.132186
v -0.256148 0.126250 -0.089128
v -0.268852 0.126250 -0.065872
v -0.248239 0.126250 -0.069709
v -0.262500 0.117500 -0.077500
v -0.153250 0.025000 -0.077500
v -0.157500 0.025000 -0.081750
v -0.157500 0.167917 -0.081000
v -0.154000 0.167917 -0.077500
v -0.161750 0.025000 -0.077500
v -0.161000 0.167917 -0.077500
v -0.157500 0.025000 -0.073250
v -0.157500 0.167917 -0.074000
v -0.157500 0.073883 -0.066250
v -0.157500 0.073883 -0.088750
v -0.205000 0.073883 -0.077500
v -0.157500 0.065133 -0.077500
v -0.110000 0.073883 -0.077500
v -0.157500 0.167917 -0.095500
v -0.157500 0.167917 -0.059500
v -0.100000 0.167917 -0.077500
v -0.157500 0.159167 -0.077500
v -0.140381 0.167917 -0.083062
v -0.174619 0.167917 -0.071938
v -0.139732 0.167917 -0.022814
v -0.146920 0.167917 -0.062938
v -0.168080 0.167917 -0.092062
v -0.204018 0.167917 -0.043702
v -0.168080 0.167917 -0.062938
v -0.146920 0.167917 -0.092062
v -0.204018 0.167917 -0.111298
v -0.174619 0.167917 -0.083062
v -0.140381 0.167917 -0.071938
v -0.139732 0.167917 -0.132186
v -0.151148 0.174167 -0.089128
v -0.163852 0.174167 -0.065872
v -0.143239 0.174167 -0.069709
v -0.157500 0.165417 -0.077500
v -0.048250 0.025000 -0.077500
v -0.052500 0.025000 -0.081750
v -0.052500 0.148750 -0.081000
v -0.049000 0.148750 -0.077500
v -0.056750 0.025000 -0.077500
v -0.056000 0.148750 -0.077500
v -0.052500 0.025000 -0.073250
v -0.052500 0.148750 -0.074000
v -0.052500 0.065450 -0.066250
v -0.052500 0.065450 -0.088750
v -0.100000 0.065450 -0.077500
v -0.052500 0.056700 -0.077500
v -0.005000 0.065450 -0.077500
v -0.052500 0.148750 -0.095500
v -0.052500 0.148750 -0.059500
v 0.005000 0.148750 -0.077500
v -0.052500 0.140000 -0.077500
v -0.035381 0.148750 -0.083062
v -0.069619 0.148750 -0.071938
v -0.034732 0.148750 -0.022814
v -0.041920 0.148750 -0.062938
v -0.063080 0.148750 -0.092062
v -0.099018 0.148750 -0.043702
v -0.063080 0.148750 -0.062938
v -0.041920 0.148750 -0.092062
v -0.099018 0.148750 -0.111298
v -0.069619 0.148750 -0.083062
v -0.035381 0.148750 -0.071938
v -0.034732 0.148750 -0.132186
v -0.046148 0.155000 -0.089128
v -0.058852 0.155000 -0.065872
v -0.038239 0.155000 -0.069709
v -0.052500 0.146250 -0.077500
v 0.056750 0.025000 -0.077500
v 0.052500 0.025000 -0.081750
v 0.052500 0.129583 -0.081000
v 0.056000 0.129583 -0.077500
v 0.048250 0.025000 -0.077500
v 0.049000 0.129583 -0.077500
v 0.052500 0.025000 -0.073250
v 0.052500 0.129583 -0.074000
v 0.052500 0.057017 -0.066250
v 0.052500 0.057017 -0.088750
v 0.005000 0.057017 -0.077500
v 0.052500 0.048267 -0.077500
v 0.100000 0.057017 -0.077500
v 0.052500 0.129583 -0.095500
v 0.052500 0.129583 -0.059500
v 0.110000 0.129583 -0.077500
v 0.052500 0.120833 -0.077500
v 0.069619 0.129583 -0.083062
v 0.035381 0.129583 -0.071938
v 0.070268 0.129583 -0.022814
v 0.063080 0.129583 -0.062938
v 0.041920 0.129583 -0.092062
v 0.005982 0.129583 -0.043702
v 0.041920 0.129583 -0.062938
v 0.063080 0.129583 -0.092062
v 0.005982 0.129583 -0.111298
v 0.035381 0.129583 -0.083062
v 0.069619 0.129583 -0.071938
v 0.070268 0.129583 -0.132186
v 0.058852 0.135833 -0.089128
v 0.046148 0.135833 -0.065872
v 0.066761 0.135833 -0.069709
v 0.052500 0.127083 -0.077500
v 0.161750 0.025000 -0.077500
v 0.157500 0.025000 -0.081750
v 0.157500 0.177500 -0.081000
v 0.161000 0.177500 -0.077500
v 0.153250 0.025000 -0.077500
v 0.154000 0.177500 -0.077500
v 0.157500 0.025000 -0.073250
v 0.157500 0.177500 -0.074000
v 0.157500 0.078100 -0.066250
v 0.157500 0.078100 -0.088750
v 0.110000 0.078100 -0.077500
v 0.157500 0.069350 -0.077500
v 0.205000 0.078100 -0.077500
v 0.157500 0.177500 -0.095500
v 0.157500 0.177500 -0.059500
v 0.215000 0.177500 -0.077500
v 0.157500 0.168750 -0.077500
v 0.174619 0.177500 -0.083062
v 0.140381 0.177500 -0.071938
v 0.175268 0.177500 -0.022814
v 0.168080 0.177500 -0.062938
v 0.146920 0.177500 -0.092062
v 0.110982 0.177500 -0.043702
v 0.146920 0.177500 -0.062938
v 0.168080 0.177500 -0.092062
v 0.110982 0.177500 -0.111298
v 0.140381 0.177500 -0.083062
v 0.174619 0.177500 -0.071938
v 0.175268 0.177500 -0.132186
v 0.163852 0.183750 -0.089128
v 0.151148 0.183750 -0.065872
v 0.171761 0.183750 -0.069709
v 0.157500 0.175000 -0.077500
v 0.266750 0.025000 -0.077500
v 0.262500 0.025000 -0.081750
v 0.262500 0.158333 -0.081000
v 0.266000 0.158333 -0.077500
v 0.258250 0.025000 -0.077500
v 0.259000 0.158333 -0.077500
v 0.262500 0.025000 -0.073250
v 0.262500 0.158333 -0.074000
v 0.262500 0.069667 -0.066250
v 0.262500 0.069667 -0.088750
v 0.215000 0.069667 -0.077500
v 0.262500 0.060917 -0.077500
v 0.310000 0.069667 -0.077500
v 0.262500 0.158333 -0.095500
v 0.262500 0.158333 -0.059500
v 0.320000 0.158333 -0.077500
v 0.262500 0.149583 -0.077500
v 0.279619 0.158333 -0.083062
v 0.245381 0.158333 -0.071938
v 0.280268 0.158333 -0.022814
v 0.273080 0.158333 -0.062938
v 0.251920 0.158333 -0.092062
v 0.215982 0.158333 -0.043702
v 0.251920 0.158333 -0.062938
v 0.273080 0.158333 -0.092062
v 0.215982 0.158333 -0.111298
v 0.245381 0.158333 -0.083062
v 0.279619 0.158333 -0.071938
v 0.280268 0.158333 -0.132186
v 0.268852 0.164583 -0.089128
v 0.256148 0.164583 -0.065872
v 0.276761 0.164583 -0.069709
v 0.262500 0.155833 -0.077500
v -0.258250 0.025000 0.075000
v -0.262500 0.025000 0.070750
v -0.262500 0.139167 0.071500
v -0.259000 0.139167 0.075000
v -0.266750 0.025000 0.075000
v -0.266000 0.139167 0.075000
v -0.262500 0.025000 0.079250
v -0.262500 0.139167 0.078500
v -0.262500 0.061233 0.086250
v -0.262500 0.061233 0.063750
v -0.310000 0.061233 0.075000
v -0.262500 0.052483 0.075000
v -0.215000 0.061233 0.075000
v -0.262500 0.139167 0.057000
v -0.262500 0.139167 0.093000
v -0.205000 0.139167 0.075000
v -0.262500 0.130417 0.075000
v -0.245381 0.139167 0.069438
v -0.279619 0.139167 0.080562
v -0.244732 0.139167 0.129686
v -0.251920 0.139167 0.089562
v -0.273080 0.139167 0.060438
v -0.309018 0.139167 0.108798
v -0.273080 0.139167 0.089562
v -0.251920 0.139167 0.060438
v -0.309018 0.139167 0.041202
v -0.279619 0.139167 0.069438
v -0.245381 0.139167 0.080562
v -0.244732 0.139167 0.020314
v -0.256148 0.145417 0.063372
v -0.268852 0.145417 0.086628
v -0.248239 0.145417 0.082791
v -0.262500 0.136667 0.075000
v -0.153250 0.025000 0.075000
v -0.157500 0.025000 0.070750
v -0.157500 0.120000 0.071500
v -0.154000 0.120000 0.075000
v -0.161750 0.025000 0.075000
v -0.161000 0.120000 0.075000
v -0.157500 0.025000 0.079250
v -0.157500 0.120000 0.078500
v -0.157500 0.052800 0.086250
v -0.157500 0.052800 0.063750
v -0.205000 0.052800 0.075000
v -0.157500 0.044050 0.075000
v -0.110000 0.052800 0.075000
v -0.157500 0.120000 0.057000
v -0.157500 0.120000 0.093000
v -0.100000 0.120000 0.075000
v -0.157500 0.111250 0.075000
v -0.140381 0.120000 0.069438
v -0.174619 0.120000 0.080562
v -0.139732 0.120000 0.129686
v -0.146920 0.120000 0.089562
v -0.168080 0.120000 0.060438
v -0.204018 0.120000 0.108798
v -0.168080 0.120000 0.089562
v -0.146920 0.120000 0.060438
v -0.204018 0.120000 0.041202
v -0.174619 0.120000 0.069438
v -0.140381 0.120000 0.080562
v -0.139732 0.120000 0.020314
v -0.151148 0.126250 0.063372
v -0.163852 0.126250 0.086628
v -0.143239 0.126250 0.082791
v -0.157500 0.117500 0.075000
v -0.048250 0.025000 0.075000
v -0.052500 0.025000 0.070750
v -0.052500 0.167917 0.071500
v -0.049000 0.167917 0.075000
v -0.056750 0.025000 0.075000
v -0.056000 0.167917 0.075000
v -0.052500 0.025000 0.079250
v -0.052500 0.167917 0.078500
v -0.052500 0.073883 0.086250
v -0.052500 0.073883 0.063750
v -0.100000 0.073883 0.075000
v -0.052500 0.065133 0.075000
v -0.005000 0.073883 0.075000
v -0.052500 0.167917 0.057000
v -0.052500 0.167917 0.093000
v 0.005000 0.167917 0.075000
v -0.052500 0.159167 0.075000
v -0.035381 0.167917 0.069438
v -0.069619 0.167917 0.080562
v -0.034732 0.167917 0.129686
v -0.041920 0.167917 0.089562
v -0.063080 0.167917 0.060438
v -0.099018 0.167917 0.108798
v -0.063080 0.167917 0.089562
v -0.041920 0.167917 0.060438
v -0.099018 0.167917 0.041202
v -0.069619 0.167917 0.069438
v -0.035381 0.167917 0.080562
v -0.034732 0.167917 0.020314
v -0.046148 0.174167 0.063372
v -0.058852 0.174167 0.086628
v -0.038239 0.174167 0.082791
v -0.052500 0.165417 0.075000
v 0.056750 0.025000 0.075000
v 0.052500 0.025000 0.070750
v 0.052500 0.148750 0.071500
v 0.056000 0.148750 0.075000
v 0.048250 0.025000 0.075000
v 0.049000 0.148750 0.075000
v 0.052500 0.025000 0.079250
v 0.052500 0.148750 0.078500
v 0.052500 0.065450 0.086250
v 0.052500 0.065450 0.063750
v 0.005000 0.065450 0.075000
v 0.052500 0.056700 0.075000
v 0.100000 0.065450 0.075000
v 0.052500 0.148750 0.057000
v 0.052500 0.148750 0.093000
v 0.110000 0.148750 0.075000
v 0.052500 0.140000 0.075000
v 0.069619 0.148750 0.069438
v 0.035381 0.148750 0.080562
v 0.070268 0.148750 0.129686
v 0.063080 0.148750 0.089562
v 0.041920 0.148750 0.060438
v 0.005982 0.148750 0.108798
v 0.041920 0.148750 0.089562
v 0.063080 0.148750 0.060438
v 0.005982 0.148750 0.041202
v 0.035381 0.148750 0.069438
v 0.069619 0.148750 0.080562
v 0.070268 0.148750 0.020314
v 0.058852 0.155000 0.063372
v 0.046148 0.155000 0.086628
v 0.066761 0.155000 0.082791
v 0.052500 0.146250 0.075000
v 0.161750 0.025000 0.075000
v 0.157500 0.025000 0.070750
v 0.157500 0.129583 0.071500
v 0.161000 0.129583 0.075000
v 0.153250 0.025000 0.075000
v 0.154000 0.129583 0.075000
v 0.157500 0.025000 0.079250
v 0.157500 0.129583 0.078500
v 0.157500 0.057017 0.086250
v 0.157500 0.057017 0.063750
v 0.110000 0.057017 0.075000
v 0.157500 0.048267 0.075000
v 0.205000 0.057017 0.075000
v 0.157500 0.129583 0.057000
v 0.157500 0.129583 0.093000
v 0.215000 0.129583 0.075000
v 0.157500 0.120833 0.075000
v 0.174619 0.129583 0.069438
v 0.140381 0.129583 0.080562
v 0.175268 0.129583 0.129686
v 0.168080 0.129583 0.089562
v 0.146920 0.129583 0.060438
v 0.110982 0.129583 0.108798
v 0.146920 0.129583 0.089562
v 0.168080 0.129583 0.060438
v 0.110982 0.129583 0.041202
v 0.140381 0.129583 0.069438
v 0.174619 0.129583 0.080562
v 0.175268 0.129583 0.020314
v 0.163852 0.135833 0.063372
v 0.151148 0.135833 0.086628
v 0.171761 0.135833 0.082791
v 0.157500 0.127083 0.075000
v 0.266750 0.025000 0.075000
v 0.262500 0.025000 0.070750
v 0.262500 0.177500 0.071500
v 0.266000 0.177500 0.075000
v 0.258250 0.025000 0.075000
v 0.259000 0.177500 0.075000
v 0.262500 0.025000 0.079250
v 0.262500 0.177500 0.078500
v 0.262500 0.078100 0.086250
v 0.262500 0.078100 0.063750
v 0.215000 0.078100 0.075000
v 0.262500 0.069350 0.075000
v 0.310000 0.078100 0.075000
v 0.262500 0.177500 0.057000
v 0.262500 0.177500 0.093000
v 0.320000 0.177500 0.075000
v 0.262500 0.168750 0.075000
v 0.279619 0.177500 0.069438
v 0.245381 0.177500 0.080562
v 0.280268 0.177500 0.129686
v 0.273080 0.177500 0.089562
v 0.251920 0.177500 0.060438
v 0.215982 0.177500 0.108798
v 0.251920 0.177500 0.089562
v 0.273080 0.177500 0.060438
v 0.215982 0.177500 0.041202
v 0.245381 0.177500 0.069438
v 0.279619 0.177500 0.080562
v 0.280268 0.177500 0.020314
v 0.268852 0.183750 0.063372
v 0.256148 0.183750 0.086628
v 0.276761 0.183750 0.082791
v 0.262500 0.175000 0.075000
vt 0.523438 0.523438
vt 0.726562 0.523438
vt 0.625000 0.726562
vt 0.523438 0.523438
vt 0.726562 0.523438
vt 0.625000 0.726562
vt 0.523438 0.523438
vt 0.726562 0.523438
vt 0.625000 0.726562
vt 0.523438 0.523438
vt 0.726562 0.523438
vt 0.625000 0.726562
vt 0.523438 0.523438
vt 0.726562 0.523438
vt 0.625000 0.726562
vt 0.523438 0.523438
vt 0.726562 0.523438
vt 0.625000 0.726562
vt 0.523438 0.523438
vt 0.726562 0.523438
vt 0.625000 0.726562
vt 0.523438 0.523438
vt 0.726562 0.523438
vt 0.625000 0.726562
vt 0.523438 0.523438
vt 0.726562 0.523438
vt 0.625000 0.726562
vt 0.523438 0.523438
vt 0.726562 0.523438
vt 0.625000 0.726562
vt 0.523438 0.523438
vt 0.726562 0.523438
vt 0.625000 0.726562
vt 0.523438 0.523438
vt 0.726562 0.523438
vt 0.625000 0.726562
vt 0.523438 0.523438
vt 0.726562 0.523438
vt 0.625000 0.726562
vt 0.523438 0.523438
vt 0.726562 0.523438
vt 0.625000 0.726562
vt 0.523438 0.523438
vt 0.726562 0.523438
vt 0.625000 0.726562
vt 0.523438 0.523438
vt 0.726562 0.523438
vt 0.625000 0.726562
vt 0.523438 0.523438
vt 0.726562 0.523438
vt 0.625000 0.726562
vt 0.523438 0.523438
vt 0.726562 0.523438
vt 0.625000 0.726562
vt 0.523438 0.523438
vt 0.726562 0.523438
vt 0.625000 0.726562
vt 0.523438 0.523438
vt 0.726562 0.523438
vt 0.625000 0.726562
vt 0.523438 0.523438
vt 0.726562 0.523438
vt 0.625000 0.726562
vt 0.523438 0.523438
vt 0.726562 0.523438
vt 0.625000 0.726562
vt 0.523438 0.523438
vt 0.726562 0.523438
vt 0.625000 0.726562
vt 0.523438 0.523438
vt 0.726562 0.523438
vt 0.625000 0.726562
vt 0.523438 0.523438
vt 0.726562 0.523438
vt 0.625000 0.726562
vt 0.523438 0.523438
vt 0.726562 0.523438
vt 0.625000 0.726562
vt 0.523438 0.523438
vt 0.726562 0.523438
vt 0.625000 0.726562
vt 0.523438 0.523438
vt 0.726562 0.523438
vt 0.625000 0.726562
vt 0.523438 0.523438
vt 0.726562 0.523438
vt 0.625000 0.726562
vt 0.523438 0.523438
vt 0.726562 0.523438
vt 0.625000 0.726562
vt 0.523438 0.523438
vt 0.726562 0.523438
vt 0.625000 0.726562
vt 0.523438 0.523438
vt 0.726562 0.523438
vt 0.625000 0.726562
vt 0.523438 0.523438
vt 0.726562 0.523438
vt 0.625000 0.726562
vt 0.523438 0.523438
vt 0.726562 0.523438
vt 0.625000 0.726562
vt 0.523438 0.523438
vt 0.726562 0.523438
vt 0.625000 0.726562
vt 0.523438 0.523438
vt 0.726562 0.523438
vt 0.625000 0.726562
vt 0.523438 0.523438
vt 0.726562 0.523438
vt 0.625000 0.726562
vt 0.523438 0.523438
vt 0.726562 0.523438
vt 0.625000 0.726562
vt 0.523438 0.523438
vt 0.726562 0.523438
vt 0.625000 0.726562
vt 0.523438 0.523438
vt 0.726562 0.523438
vt 0.625000 0.726562
vt 0.523438 0.523438
vt 0.726562 0.523438
vt 0.625000 0.726562
vt 0.523438 0.523438
vt 0.726562 0.523438
vt 0.625000 0.726562
vt 0.523438 0.523438
vt 0.726562 0.523438
vt 0.625000 0.726562
vt 0.523438 0.523438
vt 0.726562 0.523438
vt 0.625000 0.726562
vt 0.523438 0.523438
vt 0.726562 0.523438
vt 0.625000 0.726562
vt 0.523438 0.523438
vt 0.726562 0.523438
vt 0.625000 0.726562
vt 0.523438 0.523438
vt 0.726562 0.523438
vt 0.625000 0.726562
vt 0.523438 0.523438
vt 0.726562 0.523438
vt 0.625000 0.726562
vt 0.523438 0.523438
vt 0.726562 0.523438
vt 0.625000 0.726562
vt 0.523438 0.523438
vt 0.726562 0.523438
vt 0.625000 0.726562
vt 0.523438 0.523438
vt 0.726562 0.523438
vt 0.625000 0.726562
vt 0.523438 0.523438
vt 0.726562 0.523438
vt 0.625000 0.726562
vt 0.523438 0.523438
vt 0.726562 0.523438
vt 0.625000 0.726562
vt 0.523438 0.523438
vt 0.726562 0.523438
vt 0.625000 0.726562
vt 0.523438 0.523438
vt 0.726562 0.523438
vt 0.625000 0.726562
vt 0.523438 0.523438
vt 0.726562 0.523438
vt 0.625000 0.726562
vt 0.523438 0.523438
vt 0.726562 0.523438
vt 0.625000 0.726562
vt 0.523438 0.523438
vt 0.726562 0.523438
vt 0.625000 0.726562
vt 0.273438 0.023438
vt 0.476562 0.023438
vt 0.375000 0.226562
vt 0.273438 0.023438
vt 0.476562 0.023438
vt 0.375000 0.226562
vt 0.273438 0.023438
vt 0.476562 0.023438
vt 0.375000 0.226562
vt 0.273438 0.023438
vt 0.476562 0.023438
vt 0.375000 0.226562
vt 0.273438 0.023438
vt 0.476562 0.023438
vt 0.375000 0.226562
vt 0.273438 0.023438
vt 0.476562 0.023438
vt 0.375000 0.226562
vt 0.273438 0.023438
vt 0.476562 0.023438
vt 0.375000 0.226562
vt 0.273438 0.023438
vt 0.476562 0.023438
vt 0.375000 0.226562
vt 0.273438 0.023438
vt 0.476562 0.023438
vt 0.375000 0.226562
vt 0.273438 0.023438
vt 0.476562 0.023438
vt 0.375000 0.226562
vt 0.273438 0.023438
vt 0.476562 0.023438
vt 0.375000 0.226562
vt 0.273438 0.023438
vt 0.476562 0.023438
vt 0.375000 0.226562
vt 0.523438 0.773438
vt 0.726562 0.773438
vt 0.625000 0.976562
vt 0.523438 0.773438
vt 0.726562 0.773438
vt 0.625000 0.976562
vt 0.523438 0.773438
vt 0.726562 0.773438
vt 0.625000 0.976562
vt 0.523438 0.773438
vt 0.726562 0.773438
vt 0.625000 0.976562
vt 0.523438 0.773438
vt 0.726562 0.773438
vt 0.625000 0.976562
vt 0.523438 0.773438
vt 0.726562 0.773438
vt 0.625000 0.976562
vt 0.523438 0.773438
vt 0.726562 0.773438
vt 0.625000 0.976562
vt 0.523438 0.773438
vt 0.726562 0.773438
vt 0.625000 0.976562
vt 0.773438 0.273438
vt 0.976562 0.273438
vt 0.875000 0.476562
vt 0.773438 0.273438
vt 0.976562 0.273438
vt 0.875000 0.476562
vt 0.773438 0.273438
vt 0.976562 0.273438
vt 0.875000 0.476562
vt 0.773438 0.273438
vt 0.976562 0.273438
vt 0.875000 0.476562
vt 0.773438 0.273438
vt 0.976562 0.273438
vt 0.875000 0.476562
vt 0.773438 0.273438
vt 0.976562 0.273438
vt 0.875000 0.476562
vt 0.773438 0.273438
vt 0.976562 0.273438
vt 0.875000 0.476562
vt 0.773438 0.273438
vt 0.976562 0.273438
vt 0.875000 0.476562
vt 0.773438 0.273438
vt 0.976562 0.273438
vt 0.875000 0.476562
vt 0.773438 0.273438
vt 0.976562 0.273438
vt 0.875000 0.476562
vt 0.773438 0.273438
vt 0.976562 0.273438
vt 0.875000 0.476562
vt 0.773438 0.273438
vt 0.976562 0.273438
vt 0.875000 0.476562
vt 0.773438 0.273438
vt 0.976562 0.273438
vt 0.875000 0.476562
vt 0.773438 0.273438
vt 0.976562 0.273438
vt 0.875000 0.476562
vt 0.773438 0.273438
vt 0.976562 0.273438
vt 0.875000 0.476562
vt 0.773438 0.273438
vt 0.976562 0.273438
vt 0.875000 0.476562
vt 0.773438 0.273438
vt 0.976562 0.273438
vt 0.875000 0.476562
vt 0.773438 0.273438
vt 0.976562 0.273438
vt 0.875000 0.476562
vt 0.773438 0.273438
vt 0.976562 0.273438
vt 0.875000 0.476562
vt 0.773438 0.273438
vt 0.976562 0.273438
vt 0.875000 0.476562
vt 0.023438 0.023438
vt 0.226562 0.023438
vt 0.125000 0.226562
vt 0.023438 0.023438
vt 0.226562 0.023438
vt 0.125000 0.226562
vt 0.023438 0.023438
vt 0.226562 0.023438
vt 0.125000 0.226562
vt 0.023438 0.023438
vt 0.226562 0.023438
vt 0.125000 0.226562
vt 0.273438 0.023438
vt 0.476562 0.023438
vt 0.375000 0.226562
vt 0.273438 0.023438
vt 0.476562 0.023438
vt 0.375000 0.226562
vt 0.273438 0.023438
vt 0.476562 0.023438
vt 0.375000 0.226562
vt 0.273438 0.023438
vt 0.476562 0.023438
vt 0.375000 0.226562
vt 0.273438 0.023438
vt 0.476562 0.023438
vt 0.375000 0.226562
vt 0.273438 0.023438
vt 0.476562 0.023438
vt 0.375000 0.226562
vt 0.273438 0.023438
vt 0.476562 0.023438
vt 0.375000 0.226562
vt 0.273438 0.023438
vt 0.476562 0.023438
vt 0.375000 0.226562
vt 0.273438 0.023438
vt 0.476562 0.023438
vt 0.375000 0.226562
vt 0.273438 0.023438
vt 0.476562 0.023438
vt 0.375000 0.226562
vt 0.273438 0.023438
vt 0.476562 0.023438
vt 0.375000 0.226562
vt 0.273438 0.023438
vt 0.476562 0.023438
vt 0.375000 0.226562
vt 0.523438 0.773438
vt 0.726562 0.773438
vt 0.625000 0.976562
vt 0.523438 0.773438
vt 0.726562 0.773438
vt 0.625000 0.976562
vt 0.523438 0.773438
vt 0.726562 0.773438
vt 0.625000 0.976562
vt 0.523438 0.773438
vt 0.726562 0.773438
vt 0.625000 0.976562
vt 0.523438 0.773438
vt 0.726562 0.773438
vt 0.625000 0.976562
vt 0.523438 0.773438
vt 0.726562 0.773438
vt 0.625000 0.976562
vt 0.523438 0.773438
vt 0.726562 0.773438
vt 0.625000 0.976562
vt 0.523438 0.773438
vt 0.726562 0.773438
vt 0.625000 0.976562
vt 0.523438 0.273438
vt 0.726562 0.273438
vt 0.625000 0.476562
vt 0.523438 0.273438
vt 0.726562 0.273438
vt 0.625000 0.476562
vt 0.523438 0.273438
vt 0.726562 0.273438
vt 0.625000 0.476562
vt 0.523438 0.273438
vt 0.726562 0.273438
vt 0.625000 0.476562
vt 0.523438 0.273438
vt 0.726562 0.273438
vt 0.625000 0.476562
vt 0.523438 0.273438
vt 0.726562 0.273438
vt 0.625000 0.476562
vt 0.523438 0.273438
vt 0.726562 0.273438
vt 0.625000 0.476562
vt 0.523438 0.273438
vt 0.726562 0.273438
vt 0.625000 0.476562
vt 0.523438 0.273438
vt 0.726562 0.273438
vt 0.625000 0.476562
vt 0.523438 0.273438
vt 0.726562 0.273438
vt 0.625000 0.476562
vt 0.523438 0.273438
vt 0.726562 0.273438
vt 0.625000 0.476562
vt 0.523438 0.273438
vt 0.726562 0.273438
vt 0.625000 0.476562
vt 0.523438 0.273438
vt 0.726562 0.273438
vt 0.625000 0.476562
vt 0.523438 0.273438
vt 0.726562 0.273438
vt 0.625000 0.476562
vt 0.523438 0.273438
vt 0.726562 0.273438
vt 0.625000 0.476562
vt 0.523438 0.273438
vt 0.726562 0.273438
vt 0.625000 0.476562
vt 0.523438 0.273438
vt 0.726562 0.273438
vt 0.625000 0.476562
vt 0.523438 0.273438
vt 0.726562 0.273438
vt 0.625000 0.476562
vt 0.523438 0.273438
vt 0.726562 0.273438
vt 0.625000 0.476562
vt 0.523438 0.273438
vt 0.726562 0.273438
vt 0.625000 0.476562
vt 0.023438 0.023438
vt 0.226562 0.023438
vt 0.125000 0.226562
vt 0.023438 0.023438
vt 0.226562 0.023438
vt 0.125000 0.226562
vt 0.023438 0.023438
vt 0.226562 0.023438
vt 0.125000 0.226562
vt 0.023438 0.023438
vt 0.226562 0.023438
vt 0.125000 0.226562
vt 0.273438 0.023438
vt 0.476562 0.023438
vt 0.375000 0.226562
vt 0.273438 0.023438
vt 0.476562 0.023438
vt 0.375000 0.226562
vt 0.273438 0.023438
vt 0.476562 0.023438
vt 0.375000 0.226562
vt 0.273438 0.023438
vt 0.476562 0.023438
vt 0.375000 0.226562
vt 0.273438 0.023438
vt 0.476562 0.023438
vt 0.375000 0.226562
vt 0.273438 0.023438
vt 0.476562 0.023438
vt 0.375000 0.226562
vt 0.273438 0.023438
vt 0.476562 0.023438
vt 0.375000 0.226562
vt 0.273438 0.023438
vt 0.476562 0.023438
vt 0.375000 0.226562
vt 0.273438 0.023438
vt 0.476562 0.023438
vt 0.375000 0.226562
vt 0.273438 0.023438
vt 0.476562 0.023438
vt 0.375000 0.226562
vt 0.273438 0.023438
vt 0.476562 0.023438
vt 0.375000 0.226562
vt 0.273438 0.023438
vt 0.476562 0.023438
vt 0.375000 0.226562
vt 0.523438 0.773438
vt 0.726562 0.773438
vt 0.625000 0.976562
vt 0.523438 0.773438
vt 0.726562 0.773438
vt 0.625000 0.976562
vt 0.523438 0.773438
vt 0.726562 0.773438
vt 0.625000 0.976562
vt 0.523438 0.773438
vt 0.726562 0.773438
vt 0.625000 0.976562
vt 0.523438 0.773438
vt 0.726562 0.773438
vt 0.625000 0.976562
vt 0.523438 0.773438
vt 0.726562 0.773438
vt 0.625000 0.976562
vt 0.523438 0.773438
vt 0.726562 0.773438
vt 0.625000 0.976562
vt 0.523438 0.773438
vt 0.726562 0.773438
vt 0.625000 0.976562
vt 0.773438 0.273438
vt 0.976562 0.273438
vt 0.875000 0.476562
vt 0.773438 0.273438
vt 0.976562 0.273438
vt 0.875000 0.476562
vt 0.773438 0.273438
vt 0.976562 0.273438
vt 0.875000 0.476562
vt 0.773438 0.273438
vt 0.976562 0.273438
vt 0.875000 0.476562
vt 0.773438 0.273438
vt 0.976562 0.273438
vt 0.875000 0.476562
vt 0.773438 0.273438
vt 0.976562 0.273438
vt 0.875000 0.476562
vt 0.773438 0.273438
vt 0.976562 0.273438
vt 0.875000 0.476562
vt 0.773438 0.273438
vt 0.976562 0.273438
vt 0.875000 0.476562
vt 0.773438 0.273438
vt 0.976562 0.273438
vt 0.875000 0.476562
vt 0.773438 0.273438
vt 0.976562 0.273438
vt 0.875000 0.476562
vt 0.773438 0.273438
vt 0.976562 0.273438
vt 0.875000 0.476562
vt 0.773438 0.273438
vt 0.976562 0.273438
vt 0.875000 0.476562
vt 0.773438 0.273438
vt 0.976562 0.273438
vt 0.875000 0.476562
vt 0.773438 0.273438
vt 0.976562 0.273438
vt 0.875000 0.476562
vt 0.773438 0.273438
vt 0.976562 0.273438
vt 0.875000 0.476562
vt 0.773438 0.273438
vt 0.976562 0.273438
vt 0.875000 0.476562
vt 0.773438 0.273438
vt 0.976562 0.273438
vt 0.875000 0.476562
vt 0.773438 0.273438
vt 0.976562 0.273438
vt 0.875000 0.476562
vt 0.773438 0.273438
vt 0.976562 0.273438
vt 0.875000 0.476562
vt 0.773438 0.273438
vt 0.976562 0.273438
vt 0.875000 0.476562
vt 0.023438 0.023438
vt 0.226562 0.023438
vt 0.125000 0.226562
vt 0.023438 0.023438
vt 0.226562 0.023438
vt 0.125000 0.226562
vt 0.023438 0.023438
vt 0.226562 0.023438
vt 0.125000 0.226562
vt 0.023438 0.023438
vt 0.226562 0.023438
vt 0.125000 0.226562
vt 0.273438 0.023438
vt 0.476562 0.023438
vt 0.375000 0.226562
vt 0.273438 0.023438
vt 0.476562 0.023438
vt 0.375000 0.226562
vt 0.273438 0.023438
vt 0.476562 0.023438
vt 0.375000 0.226562
vt 0.273438 0.023438
vt 0.476562 0.023438
vt 0.375000 0.226562
vt 0.273438 0.023438
vt 0.476562 0.023438
vt 0.375000 0.226562
vt 0.273438 0.023438
vt 0.476562 0.023438
vt 0.375000 0.226562
vt 0.273438 0.023438
vt 0.476562 0.023438
vt 0.375000 0.226562
vt 0.273438 0.023438
vt 0.476562 0.023438
vt 0.375000 0.226562
vt 0.273438 0.023438
vt 0.476562 0.023438
vt 0.375000 0.226562
vt 0.273438 0.023438
vt 0.476562 0.023438
vt 0.375000 0.226562
vt 0.273438 0.023438
vt 0.476562 0.023438
vt 0.375000 0.226562
vt 0.273438 0.023438
vt 0.476562 0.023438
vt 0.375000 0.226562
vt 0.523438 0.773438
vt 0.726562 0.773438
vt 0.625000 0.976562
vt 0.523438 0.773438
vt 0.726562 0.773438
vt 0.625000 0.976562
vt 0.523438 0.773438
vt 0.726562 0.773438
vt 0.625000 0.976562
vt 0.523438 0.773438
vt 0.726562 0.773438
vt 0.625000 0.976562
vt 0.523438 0.773438
vt 0.726562 0.773438
vt 0.625000 0.976562
vt 0.523438 0.773438
vt 0.726562 0.773438
vt 0.625000 0.976562
vt 0.523438 0.773438
vt 0.726562 0.773438
vt 0.625000 0.976562
vt 0.523438 0.773438
vt 0.726562 0.773438
vt 0.625000 0.976562
vt 0.523438 0.273438
vt 0.726562 0.273438
vt 0.625000 0.476562
vt 0.523438 0.273438
vt 0.726562 0.273438
vt 0.625000 0.476562
vt 0.523438 0.273438
vt 0.726562 0.273438
vt 0.625000 0.476562
vt 0.523438 0.273438
vt 0.726562 0.273438
vt 0.625000 0.476562
vt 0.523438 0.273438
vt 0.726562 0.273438
vt 0.625000 0.476562
vt 0.523438 0.273438
vt 0.726562 0.273438
vt 0.625000 0.476562
vt 0.523438 0.273438
vt 0.726562 0.273438
vt 0.625000 0.476562
vt 0.523438 0.273438
vt 0.726562 0.273438
vt 0.625000 0.476562
vt 0.523438 0.273438
vt 0.726562 0.273438
vt 0.625000 0.476562
vt 0.523438 0.273438
vt 0.726562 0.273438
vt 0.625000 0.476562
vt 0.523438 0.273438
vt 0.726562 0.273438
vt 0.625000 0.476562
vt 0.523438 0.273438
vt 0.726562 0.273438
vt 0.625000 0.476562
vt 0.523438 0.273438
vt 0.726562 0.273438
vt 0.625000 0.476562
vt 0.523438 0.273438
vt 0.726562 0.273438
vt 0.625000 0.476562
vt 0.523438 0.273438
vt 0.726562 0.273438
vt 0.625000 0.476562
vt 0.523438 0.273438
vt 0.726562 0.273438
vt 0.625000 0.476562
vt 0.523438 0.273438
vt 0.726562 0.273438
vt 0.625000 0.476562
vt 0.523438 0.273438
vt 0.726562 0.273438
vt 0.625000 0.476562
vt 0.523438 0.273438
vt 0.726562 0.273438
vt 0.625000 0.476562
vt 0.523438 0.273438
vt 0.726562 0.273438
vt 0.625000 0.476562
vt 0.023438 0.023438
vt 0.226562 0.023438
vt 0.125000 0.226562
vt 0.023438 0.023438
vt 0.226562 0.023438
vt 0.125000 0.226562
vt 0.023438 0.023438
vt 0.226562 0.023438
vt 0.125000 0.226562
vt 0.023438 0.023438
vt 0.226562 0.023438
vt 0.125000 0.226562
vt 0.273438 0.023438
vt 0.476562 0.023438
vt 0.375000 0.226562
vt 0.273438 0.023438
vt 0.476562 0.023438
vt 0.375000 0.226562
vt 0.273438 0.023438
vt 0.476562 0.023438
vt 0.375000 0.226562
vt 0.273438 0.023438
vt 0.476562 0.023438
vt 0.375000 0.226562
vt 0.273438 0.023438
vt 0.476562 0.023438
vt 0.375000 0.226562
vt 0.273438 0.023438
vt 0.476562 0.023438
vt 0.375000 0.226562
vt 0.273438 0.023438
vt 0.476562 0.023438
vt 0.375000 0.226562
vt 0.273438 0.023438
vt 0.476562 0.023438
vt 0.375000 0.226562
vt 0.273438 0.023438
vt 0.476562 0.023438
vt 0.375000 0.226562
vt 0.273438 0.023438
vt 0.476562 0.023438
vt 0.375000 0.226562
vt 0.273438 0.023438
vt 0.476562 0.023438
vt 0.375000 0.226562
vt 0.273438 0.023438
vt 0.476562 0.023438
vt 0.375000 0.226562
vt 0.523438 0.773438
vt 0.726562 0.773438
vt 0.625000 0.976562
vt 0.523438 0.773438
vt 0.726562 0.773438
vt 0.625000 0.976562
vt 0.523438 0.773438
vt 0.726562 0.773438
vt 0.625000 0.976562
vt 0.523438 0.773438
vt 0.726562 0.773438
vt 0.625000 0.976562
vt 0.523438 0.773438
vt 0.726562 0.773438
vt 0.625000 0.976562
vt 0.523438 0.773438
vt 0.726562 0.773438
vt 0.625000 0.976562
vt 0.523438 0.773438
vt 0.726562 0.773438
vt 0.625000 0.976562
vt 0.523438 0.773438
vt 0.726562 0.773438
vt 0.625000 0.976562
vt 0.773438 0.273438
vt 0.976562 0.273438
vt 0.875000 0.476562
vt 0.773438 0.273438
vt 0.976562 0.273438
vt 0.875000 0.476562
vt 0.773438 0.273438
vt 0.976562 0.273438
vt 0.875000 0.476562
vt 0.773438 0.273438
vt 0.976562 0.273438
vt 0.875000 0.476562
vt 0.773438 0.273438
vt 0.976562 0.273438
vt 0.875000 0.476562
vt 0.773438 0.273438
vt 0.976562 0.273438
vt 0.875000 0.476562
vt 0.773438 0.273438
vt 0.976562 0.273438
vt 0.875000 0.476562
vt 0.773438 0.273438
vt 0.976562 0.273438
vt 0.875000 0.476562
vt 0.773438 0.273438
vt 0.976562 0.273438
vt 0.875000 0.476562
vt 0.773438 0.273438
vt 0.976562 0.273438
vt 0.875000 0.476562
vt 0.773438 0.273438
vt 0.976562 0.273438
vt 0.875000 0.476562
vt 0.773438 0.273438
vt 0.976562 0.273438
vt 0.875000 0.476562
vt 0.773438 0.273438
vt 0.976562 0.273438
vt 0.875000 0.476562
vt 0.773438 0.273438
vt 0.976562 0.273438
vt 0.875000 0.476562
vt 0.773438 0.273438
vt 0.976562 0.273438
vt 0.875000 0.476562
vt 0.773438 0.273438
vt 0.976562 0.273438
vt 0.875000 0.476562
vt 0.773438 0.273438
vt 0.976562 0.273438
vt 0.875000 0.476562
vt 0.773438 0.273438
vt 0.976562 0.273438
vt 0.875000 0.476562
vt 0.773438 0.273438
vt 0.976562 0.273438
vt 0.875000 0.476562
vt 0.773438 0.273438
vt 0.976562 0.273438
vt 0.875000 0.476562
vt 0.023438 0.023438
vt 0.226562 0.023438
vt 0.125000 0.226562
vt 0.023438 0.023438
vt 0.226562 0.023438
vt 0.125000 0.226562
vt 0.023438 0.023438
vt 0.226562 0.023438
vt 0.125000 0.226562
vt 0.023438 0.023438
vt 0.226562 0.023438
vt 0.125000 0.226562
vt 0.273438 0.023438
vt 0.476562 0.023438
vt 0.375000 0.226562
vt 0.273438 0.023438
vt 0.476562 0.023438
vt 0.375000 0.226562
vt 0.273438 0.023438
vt 0.476562 0.023438
vt 0.375000 0.226562
vt 0.273438 0.023438
vt 0.476562 0.023438
vt 0.375000 0.226562
vt 0.273438 0.023438
vt 0.476562 0.023438
vt 0.375000 0.226562
vt 0.273438 0.023438
vt 0.476562 0.023438
vt 0.375000 0.226562
vt 0.273438 0.023438
vt 0.476562 0.023438
vt 0.375000 0.226562
vt 0.273438 0.023438
vt 0.476562 0.023438
vt 0.375000 0.226562
vt 0.273438 0.023438
vt 0.476562 0.023438
vt 0.375000 0.226562
vt 0.273438 0.023438
vt 0.476562 0.023438
vt 0.375000 0.226562
vt 0.273438 0.023438
vt 0.476562 0.023438
vt 0.375000 0.226562
vt 0.273438 0.023438
vt 0.476562 0.023438
vt 0.375000 0.226562
vt 0.523438 0.773438
vt 0.726562 0.773438
vt 0.625000 0.976562
vt 0.523438 0.773438
vt 0.726562 0.773438
vt 0.625000 0.976562
vt 0.523438 0.773438
vt 0.726562 0.773438
vt 0.625000 0.976562
vt 0.523438 0.773438
vt 0.726562 0.773438
vt 0.625000 0.976562
vt 0.523438 0.773438
vt 0.726562 0.773438
vt 0.625000 0.976562
vt 0.523438 0.773438
vt 0.726562 0.773438
vt 0.625000 0.976562
vt 0.523438 0.773438
vt 0.726562 0.773438
vt 0.625000 0.976562
vt 0.523438 0.773438
vt 0.726562 0.773438
vt 0.625000 0.976562
vt 0.523438 0.273438
vt 0.726562 0.273438
vt 0.625000 0.476562
vt 0.523438 0.273438
vt 0.726562 0.273438
vt 0.625000 0.476562
vt 0.523438 0.273438
vt 0.726562 0.273438
vt 0.625000 0.476562
vt 0.523438 0.273438
vt 0.726562 0.273438
vt 0.625000 0.476562
vt 0.523438 0.273438
vt 0.726562 0.273438
vt 0.625000 0.476562
vt 0.523438 0.273438
vt 0.726562 0.273438
vt 0.625000 0.476562
vt 0.523438 0.273438
vt 0.726562 0.273438
vt 0.625000 0.476562
vt 0.523438 0.273438
vt 0.726562 0.273438
vt 0.625000 0.476562
vt 0.523438 0.273438
vt 0.726562 0.273438
vt 0.625000 0.476562
vt 0.523438 0.273438
vt 0.726562 0.273438
vt 0.625000 0.476562
vt 0.523438 0.273438
vt 0.726562 0.273438
vt 0.625000 0.476562
vt 0.523438 0.273438
vt 0.726562 0.273438
vt 0.625000 0.476562
vt 0.523438 0.273438
vt 0.726562 0.273438
vt 0.625000 0.476562
vt 0.523438 0.273438
vt 0.726562 0.273438
vt 0.625000 0.476562
vt 0.523438 0.273438
vt 0.726562 0.273438
vt 0.625000 0.476562
vt 0.523438 0.273438
vt 0.726562 0.273438
vt 0.625000 0.476562
vt 0.523438 0.273438
vt 0.726562 0.273438
vt 0.625000 0.476562
vt 0.523438 0.273438
vt 0.726562 0.273438
vt 0.625000 0.476562
vt 0.523438 0.273438
vt 0.726562 0.273438
vt 0.625000 0.476562
vt 0.523438 0.273438
vt 0.726562 0.273438
vt 0.625000 0.476562
vt 0.023438 0.023438
vt 0.226562 0.023438
vt 0.125000 0.226562
vt 0.023438 0.023438
vt 0.226562 0.023438
vt 0.125000 0.226562
vt 0.023438 0.023438
vt 0.226562 0.023438
vt 0.125000 0.226562
vt 0.023438 0.023438
vt 0.226562 0.023438
vt 0.125000 0.226562
vt 0.273438 0.023438
vt 0.476562 0.023438
vt 0.375000 0.226562
vt 0.273438 0.023438
vt 0.476562 0.023438
vt 0.375000 0.226562
vt 0.273438 0.023438
vt 0.476562 0.023438
vt 0.375000 0.226562
vt 0.273438 0.023438
vt 0.476562 0.023438
vt 0.375000 0.226562
vt 0.273438 0.023438
vt 0.476562 0.023438
vt 0.375000 0.226562
vt 0.273438 0.023438
vt 0.476562 0.023438
vt 0.375000 0.226562
vt 0.273438 0.023438
vt 0.476562 0.023438
vt 0.375000 0.226562
vt 0.273438 0.023438
vt 0.476562 0.023438
vt 0.375000 0.226562
vt 0.273438 0.023438
vt 0.476562 0.023438
vt 0.375000 0.226562
vt 0.273438 0.023438
vt 0.476562 0.023438
vt 0.375000 0.226562
vt 0.273438 0.023438
vt 0.476562 0.023438
vt 0.375000 0.226562
vt 0.273438 0.023438
vt 0.476562 0.023438
vt 0.375000 0.226562
vt 0.523438 0.773438
vt 0.726562 0.773438
vt 0.625000 0.976562
vt 0.523438 0.773438
vt 0.726562 0.773438
vt 0.625000 0.976562
vt 0.523438 0.773438
vt 0.726562 0.773438
vt 0.625000 0.976562
vt 0.523438 0.773438
vt 0.726562 0.773438
vt 0.625000 0.976562
vt 0.523438 0.773438
vt 0.726562 0.773438
vt 0.625000 0.976562
vt 0.523438 0.773438
vt 0.726562 0.773438
vt 0.625000 0.976562
vt 0.523438 0.773438
vt 0.726562 0.773438
vt 0.625000 0.976562
vt 0.523438 0.773438
vt 0.726562 0.773438
vt 0.625000 0.976562
vt 0.773438 0.273438
vt 0.976562 0.273438
vt 0.875000 0.476562
vt 0.773438 0.273438
vt 0.976562 0.273438
vt 0.875000 0.476562
vt 0.773438 0.273438
vt 0.976562 0.273438
vt 0.875000 0.476562
vt 0.773438 0.273438
vt 0.976562 0.273438
vt 0.875000 0.476562
vt 0.773438 0.273438
vt 0.976562 0.273438
vt 0.875000 0.476562
vt 0.773438 0.273438
vt 0.976562 0.273438
vt 0.875000 0.476562
vt 0.773438 0.273438
vt 0.976562 0.273438
vt 0.875000 0.476562
vt 0.773438 0.273438
vt 0.976562 0.273438
vt 0.875000 0.476562
vt 0.773438 0.273438
vt 0.976562 0.273438
vt 0.875000 0.476562
vt 0.773438 0.273438
vt 0.976562 0.273438
vt 0.875000 0.476562
vt 0.773438 0.273438
vt 0.976562 0.273438
vt 0.875000 0.476562
vt 0.773438 0.273438
vt 0.976562 0.273438
vt 0.875000 0.476562
vt 0.773438 0.273438
vt 0.976562 0.273438
vt 0.875000 0.476562
vt 0.773438 0.273438
vt 0.976562 0.273438
vt 0.875000 0.476562
vt 0.773438 0.273438
vt 0.976562 0.273438
vt 0.875000 0.476562
vt 0.773438 0.273438
vt 0.976562 0.273438
vt 0.875000 0.476562
vt 0.773438 0.273438
vt 0.976562 0.273438
vt 0.875000 0.476562
vt 0.773438 0.273438
vt 0.976562 0.273438
vt 0.875000 0.476562
vt 0.773438 0.273438
vt 0.976562 0.273438
vt 0.875000 0.476562
vt 0.773438 0.273438
vt 0.976562 0.273438
vt 0.875000 0.476562
vt 0.023438 0.023438
vt 0.226562 0.023438
vt 0.125000 0.226562
vt 0.023438 0.023438
vt 0.226562 0.023438
vt 0.125000 0.226562
vt 0.023438 0.023438
vt 0.226562 0.023438
vt 0.125000 0.226562
vt 0.023438 0.023438
vt 0.226562 0.023438
vt 0.125000 0.226562
vt 0.273438 0.023438
vt 0.476562 0.023438
vt 0.375000 0.226562
vt 0.273438 0.023438
vt 0.476562 0.023438
vt 0.375000 0.226562
vt 0.273438 0.023438
vt 0.476562 0.023438
vt 0.375000 0.226562
vt 0.273438 0.023438
vt 0.476562 0.023438
vt 0.375000 0.226562
vt 0.273438 0.023438
vt 0.476562 0.023438
vt 0.375000 0.226562
vt 0.273438 0.023438
vt 0.476562 0.023438
vt 0.375000 0.226562
vt 0.273438 0.023438
vt 0.476562 0.023438
vt 0.375000 0.226562
vt 0.273438 0.023438
vt 0.476562 0.023438
vt 0.375000 0.226562
vt 0.273438 0.023438
vt 0.476562 0.023438
vt 0.375000 0.226562
vt 0.273438 0.023438
vt 0.476562 0.023438
vt 0.375000 0.226562
vt 0.273438 0.023438
vt 0.476562 0.023438
vt 0.375000 0.226562
vt 0.273438 0.023438
vt 0.476562 0.023438
vt 0.375000 0.226562
vt 0.523438 0.773438
vt 0.726562 0.773438
vt 0.625000 0.976562
vt 0.523438 0.773438
vt 0.726562 0.773438
vt 0.625000 0.976562
vt 0.523438 0.773438
vt 0.726562 0.773438
vt 0.625000 0.976562
vt 0.523438 0.773438
vt 0.726562 0.773438
vt 0.625000 0.976562
vt 0.523438 0.773438
vt 0.726562 0.773438
vt 0.625000 0.976562
vt 0.523438 0.773438
vt 0.726562 0.773438
vt 0.625000 0.976562
vt 0.523438 0.773438
vt 0.726562 0.773438
vt 0.625000 0.976562
vt 0.523438 0.773438
vt 0.726562 0.773438
vt 0.625000 0.976562
vt 0.523438 0.273438
vt 0.726562 0.273438
vt 0.625000 0.476562
vt 0.523438 0.273438
vt 0.726562 0.273438
vt 0.625000 0.476562
vt 0.523438 0.273438
vt 0.726562 0.273438
vt 0.625000 0.476562
vt 0.523438 0.273438
vt 0.726562 0.273438
vt 0.625000 0.476562
vt 0.523438 0.273438
vt 0.726562 0.273438
vt 0.625000 0.476562
vt 0.523438 0.273438
vt 0.726562 0.273438
vt 0.625000 0.476562
vt 0.523438 0.273438
vt 0.726562 0.273438
vt 0.625000 0.476562
vt 0.523438 0.273438
vt 0.726562 0.273438
vt 0.625000 0.476562
vt 0.523438 0.273438
vt 0.726562 0.273438
vt 0.625000 0.476562
vt 0.523438 0.273438
vt 0.726562 0.273438
vt 0.625000 0.476562
vt 0.523438 0.273438
vt 0.726562 0.273438
vt 0.625000 0.476562
vt 0.523438 0.273438
vt 0.726562 0.273438
vt 0.625000 0.476562
vt 0.523438 0.273438
vt 0.726562 0.273438
vt 0.625000 0.476562
vt 0.523438 0.273438
vt 0.726562 0.273438
vt 0.625000 0.476562
vt 0.523438 0.273438
vt 0.726562 0.273438
vt 0.625000 0.476562
vt 0.523438 0.273438
vt 0.726562 0.273438
vt 0.625000 0.476562
vt 0.523438 0.273438
vt 0.726562 0.273438
vt 0.625000 0.476562
vt 0.523438 0.273438
vt 0.726562 0.273438
vt 0.625000 0.476562
vt 0.523438 0.273438
vt 0.726562 0.273438
vt 0.625000 0.476562
vt 0.523438 0.273438
vt 0.726562 0.273438
vt 0.625000 0.476562
vt 0.023438 0.023438
vt 0.226562 0.023438
vt 0.125000 0.226562
vt 0.023438 0.023438
vt 0.226562 0.023438
vt 0.125000 0.226562
vt 0.023438 0.023438
vt 0.226562 0.023438
vt 0.125000 0.226562
vt 0.023438 0.023438
vt 0.226562 0.023438
vt 0.125000 0.226562
vt 0.273438 0.023438
vt 0.476562 0.023438
vt 0.375000 0.226562
vt 0.273438 0.023438
vt 0.476562 0.023438
vt 0.375000 0.226562
vt 0.273438 0.023438
vt 0.476562 0.023438
vt 0.375000 0.226562
vt 0.273438 0.023438
vt 0.476562 0.023438
vt 0.375000 0.226562
vt 0.273438 0.023438
vt 0.476562 0.023438
vt 0.375000 0.226562
vt 0.273438 0.023438
vt 0.476562 0.023438
vt 0.375000 0.226562
vt 0.273438 0.023438
vt 0.476562 0.023438
vt 0.375000 0.226562
vt 0.273438 0.023438
vt 0.476562 0.023438
vt 0.375000 0.226562
vt 0.273438 0.023438
vt 0.476562 0.023438
vt 0.375000 0.226562
vt 0.273438 0.023438
vt 0.476562 0.023438
vt 0.375000 0.226562
vt 0.273438 0.023438
vt 0.476562 0.023438
vt 0.375000 0.226562
vt 0.273438 0.023438
vt 0.476562 0.023438
vt 0.375000 0.226562
vt 0.523438 0.773438
vt 0.726562 0.773438
vt 0.625000 0.976562
vt 0.523438 0.773438
vt 0.726562 0.773438
vt 0.625000 0.976562
vt 0.523438 0.773438
vt 0.726562 0.773438
vt 0.625000 0.976562
vt 0.523438 0.773438
vt 0.726562 0.773438
vt 0.625000 0.976562
vt 0.523438 0.773438
vt 0.726562 0.773438
vt 0.625000 0.976562
vt 0.523438 0.773438
vt 0.726562 0.773438
vt 0.625000 0.976562
vt 0.523438 0.773438
vt 0.726562 0.773438
vt 0.625000 0.976562
vt 0.523438 0.773438
vt 0.726562 0.773438
vt 0.625000 0.976562
vt 0.773438 0.273438
vt 0.976562 0.273438
vt 0.875000 0.476562
vt 0.773438 0.273438
vt 0.976562 0.273438
vt 0.875000 0.476562
vt 0.773438 0.273438
vt 0.976562 0.273438
vt 0.875000 0.476562
vt 0.773438 0.273438
vt 0.976562 0.273438
vt 0.875000 0.476562
vt 0.773438 0.273438
vt 0.976562 0.273438
vt 0.875000 0.476562
vt 0.773438 0.273438
vt 0.976562 0.273438
vt 0.875000 0.476562
vt 0.773438 0.273438
vt 0.976562 0.273438
vt 0.875000 0.476562
vt 0.773438 0.273438
vt 0.976562 0.273438
vt 0.875000 0.476562
vt 0.773438 0.273438
vt 0.976562 0.273438
vt 0.875000 0.476562
vt 0.773438 0.273438
vt 0.976562 0.273438
vt 0.875000 0.476562
vt 0.773438 0.273438
vt 0.976562 0.273438
vt 0.875000 0.476562
vt 0.773438 0.273438
vt 0.976562 0.273438
vt 0.875000 0.476562
vt 0.773438 0.273438
vt 0.976562 0.273438
vt 0.875000 0.476562
vt 0.773438 0.273438
vt 0.976562 0.273438
vt 0.875000 0.476562
vt 0.773438 0.273438
vt 0.976562 0.273438
vt 0.875000 0.476562
vt 0.773438 0.273438
vt 0.976562 0.273438
vt 0.875000 0.476562
vt 0.773438 0.273438
vt 0.976562 0.273438
vt 0.875000 0.476562
vt 0.773438 0.273438
vt 0.976562 0.273438
vt 0.875000 0.476562
vt 0.773438 0.273438
vt 0.976562 0.273438
vt 0.875000 0.476562
vt 0.773438 0.273438
vt 0.976562 0.273438
vt 0.875000 0.476562
vt 0.023438 0.023438
vt 0.226562 0.023438
vt 0.125000 0.226562
vt 0.023438 0.023438
vt 0.226562 0.023438
vt 0.125000 0.226562
vt 0.023438 0.023438
vt 0.226562 0.023438
vt 0.125000 0.226562
vt 0.023438 0.023438
vt 0.226562 0.023438
vt 0.125000 0.226562
vt 0.273438 0.023438
vt 0.476562 0.023438
vt 0.375000 0.226562
vt 0.273438 0.023438
vt 0.476562 0.023438
vt 0.375000 0.226562
vt 0.273438 0.023438
vt 0.476562 0.023438
vt 0.375000 0.226562
vt 0.273438 0.023438
vt 0.476562 0.023438
vt 0.375000 0.226562
vt 0.273438 0.023438
vt 0.476562 0.023438
vt 0.375000 0.226562
vt 0.273438 0.023438
vt 0.476562 0.023438
vt 0.375000 0.226562
vt 0.273438 0.023438
vt 0.476562 0.023438
vt 0.375000 0.226562
vt 0.273438 0.023438
vt 0.476562 0.023438
vt 0.375000 0.226562
vt 0.273438 0.023438
vt 0.476562 0.023438
vt 0.375000 0.226562
vt 0.273438 0.023438
vt 0.476562 0.023438
vt 0.375000 0.226562
vt 0.273438 0.023438
vt 0.476562 0.023438
vt 0.375000 0.226562
vt 0.273438 0.023438
vt 0.476562 0.023438
vt 0.375000 0.226562
vt 0.523438 0.773438
vt 0.726562 0.773438
vt 0.625000 0.976562
vt 0.523438 0.773438
vt 0.726562 0.773438
vt 0.625000 0.976562
vt 0.523438 0.773438
vt 0.726562 0.773438
vt 0.625000 0.976562
vt 0.523438 0.773438
vt 0.726562 0.773438
vt 0.625000 0.976562
vt 0.523438 0.773438
vt 0.726562 0.773438
vt 0.625000 0.976562
vt 0.523438 0.773438
vt 0.726562 0.773438
vt 0.625000 0.976562
vt 0.523438 0.773438
vt 0.726562 0.773438
vt 0.625000 0.976562
vt 0.523438 0.773438
vt 0.726562 0.773438
vt 0.625000 0.976562
vt 0.523438 0.273438
vt 0.726562 0.273438
vt 0.625000 0.476562
vt 0.523438 0.273438
vt 0.726562 0.273438
vt 0.625000 0.476562
vt 0.523438 0.273438
vt 0.726562 0.273438
vt 0.625000 0.476562
vt 0.523438 0.273438
vt 0.726562 0.273438
vt 0.625000 0.476562
vt 0.523438 0.273438
vt 0.726562 0.273438
vt 0.625000 0.476562
vt 0.523438 0.273438
vt 0.726562 0.273438
vt 0.625000 0.476562
vt 0.523438 0.273438
vt 0.726562 0.273438
vt 0.625000 0.476562
vt 0.523438 0.273438
vt 0.726562 0.273438
vt 0.625000 0.476562
vt 0.523438 0.273438
vt 0.726562 0.273438
vt 0.625000 0.476562
vt 0.523438 0.273438
vt 0.726562 0.273438
vt 0.625000 0.476562
vt 0.523438 0.273438
vt 0.726562 0.273438
vt 0.625000 0.476562
vt 0.523438 0.273438
vt 0.726562 0.273438
vt 0.625000 0.476562
vt 0.523438 0.273438
vt 0.726562 0.273438
vt 0.625000 0.476562
vt 0.523438 0.273438
vt 0.726562 0.273438
vt 0.625000 0.476562
vt 0.523438 0.273438
vt 0.726562 0.273438
vt 0.625000 0.476562
vt 0.523438 0.273438
vt 0.726562 0.273438
vt 0.625000 0.476562
vt 0.523438 0.273438
vt 0.726562 0.273438
vt 0.625000 0.476562
vt 0.523438 0.273438
vt 0.726562 0.273438
vt 0.625000 0.476562
vt 0.523438 0.273438
vt 0.726562 0.273438
vt 0.625000 0.476562
vt 0.523438 0.273438
vt 0.726562 0.273438
vt 0.625000 0.476562
vt 0.023438 0.023438
vt 0.226562 0.023438
vt 0.125000 0.226562
vt 0.023438 0.023438
vt 0.226562 0.023438
vt 0.125000 0.226562
vt 0.023438 0.023438
vt 0.226562 0.023438
vt 0.125000 0.226562
vt 0.023438 0.023438
vt 0.226562 0.023438
vt 0.125000 0.226562
vt 0.273438 0.023438
vt 0.476562 0.023438
vt 0.375000 0.226562
vt 0.273438 0.023438
vt 0.476562 0.023438
vt 0.375000 0.226562
vt 0.273438 0.023438
vt 0.476562 0.023438
vt 0.375000 0.226562
vt 0.273438 0.023438
vt 0.476562 0.023438
vt 0.375000 0.226562
vt 0.273438 0.023438
vt 0.476562 0.023438
vt 0.375000 0.226562
vt 0.273438 0.023438
vt 0.476562 0.023438
vt 0.375000 0.226562
vt 0.273438 0.023438
vt 0.476562 0.023438
vt 0.375000 0.226562
vt 0.273438 0.023438
vt 0.476562 0.023438
vt 0.375000 0.226562
vt 0.273438 0.023438
vt 0.476562 0.023438
vt 0.375000 0.226562
vt 0.273438 0.023438
vt 0.476562 0.023438
vt 0.375000 0.226562
vt 0.273438 0.023438
vt 0.476562 0.023438
vt 0.375000 0.226562
vt 0.273438 0.023438
vt 0.476562 0.023438
vt 0.375000 0.226562
vt 0.523438 0.773438
vt 0.726562 0.773438
vt 0.625000 0.976562
vt 0.523438 0.773438
vt 0.726562 0.773438
vt 0.625000 0.976562
vt 0.523438 0.773438
vt 0.726562 0.773438
vt 0.625000 0.976562
vt 0.523438 0.773438
vt 0.726562 0.773438
vt 0.625000 0.976562
vt 0.523438 0.773438
vt 0.726562 0.773438
vt 0.625000 0.976562
vt 0.523438 0.773438
vt 0.726562 0.773438
vt 0.625000 0.976562
vt 0.523438 0.773438
vt 0.726562 0.773438
vt 0.625000 0.976562
vt 0.523438 0.773438
vt 0.726562 0.773438
vt 0.625000 0.976562
vt 0.773438 0.273438
vt 0.976562 0.273438
vt 0.875000 0.476562
vt 0.773438 0.273438
vt 0.976562 0.273438
vt 0.875000 0.476562
vt 0.773438 0.273438
vt 0.976562 0.273438
vt 0.875000 0.476562
vt 0.773438 0.273438
vt 0.976562 0.273438
vt 0.875000 0.476562
vt 0.773438 0.273438
vt 0.976562 0.273438
vt 0.875000 0.476562
vt 0.773438 0.273438
vt 0.976562 0.273438
vt 0.875000 0.476562
vt 0.773438 0.273438
vt 0.976562 0.273438
vt 0.875000 0.476562
vt 0.773438 0.273438
vt 0.976562 0.273438
vt 0.875000 0.476562
vt 0.773438 0.273438
vt 0.976562 0.273438
vt 0.875000 0.476562
vt 0.773438 0.273438
vt 0.976562 0.273438
vt 0.875000 0.476562
vt 0.773438 0.273438
vt 0.976562 0.273438
vt 0.875000 0.476562
vt 0.773438 0.273438
vt 0.976562 0.273438
vt 0.875000 0.476562
vt 0.773438 0.273438
vt 0.976562 0.273438
vt 0.875000 0.476562
vt 0.773438 0.273438
vt 0.976562 0.273438
vt 0.875000 0.476562
vt 0.773438 0.273438
vt 0.976562 0.273438
vt 0.875000 0.476562
vt 0.773438 0.273438
vt 0.976562 0.273438
vt 0.875000 0.476562
vt 0.773438 0.273438
vt 0.976562 0.273438
vt 0.875000 0.476562
vt 0.773438 0.273438
vt 0.976562 0.273438
vt 0.875000 0.476562
vt 0.773438 0.273438
vt 0.976562 0.273438
vt 0.875000 0.476562
vt 0.773438 0.273438
vt 0.976562 0.273438
vt 0.875000 0.476562
vt 0.023438 0.023438
vt 0.226562 0.023438
vt 0.125000 0.226562
vt 0.023438 0.023438
vt 0.226562 0.023438
vt 0.125000 0.226562
vt 0.023438 0.023438
vt 0.226562 0.023438
vt 0.125000 0.226562
vt 0.023438 0.023438
vt 0.226562 0.023438
vt 0.125000 0.226562
vt 0.273438 0.023438
vt 0.476562 0.023438
vt 0.375000 0.226562
vt 0.273438 0.023438
vt 0.476562 0.023438
vt 0.375000 0.226562
vt 0.273438 0.023438
vt 0.476562 0.023438
vt 0.375000 0.226562
vt 0.273438 0.023438
vt 0.476562 0.023438
vt 0.375000 0.226562
vt 0.273438 0.023438
vt 0.476562 0.023438
vt 0.375000 0.226562
vt 0.273438 0.023438
vt 0.476562 0.023438
vt 0.375000 0.226562
vt 0.273438 0.023438
vt 0.476562 0.023438
vt 0.375000 0.226562
vt 0.273438 0.023438
vt 0.476562 0.023438
vt 0.375000 0.226562
vt 0.273438 0.023438
vt 0.476562 0.023438
vt 0.375000 0.226562
vt 0.273438 0.023438
vt 0.476562 0.023438
vt 0.375000 0.226562
vt 0.273438 0.023438
vt 0.476562 0.023438
vt 0.375000 0.226562
vt 0.273438 0.023438
vt 0.476562 0.023438
vt 0.375000 0.226562
vt 0.523438 0.773438
vt 0.726562 0.773438
vt 0.625000 0.976562
vt 0.523438 0.773438
vt 0.726562 0.773438
vt 0.625000 0.976562
vt 0.523438 0.773438
vt 0.726562 0.773438
vt 0.625000 0.976562
vt 0.523438 0.773438
vt 0.726562 0.773438
vt 0.625000 0.976562
vt 0.523438 0.773438
vt 0.726562 0.773438
vt 0.625000 0.976562
vt 0.523438 0.773438
vt 0.726562 0.773438
vt 0.625000 0.976562
vt 0.523438 0.773438
vt 0.726562 0.773438
vt 0.625000 0.976562
vt 0.523438 0.773438
vt 0.726562 0.773438
vt 0.625000 0.976562
vt 0.523438 0.273438
vt 0.726562 0.273438
vt 0.625000 0.476562
vt 0.523438 0.273438
vt 0.726562 0.273438
vt 0.625000 0.476562
vt 0.523438 0.273438
vt 0.726562 0.273438
vt 0.625000 0.476562
vt 0.523438 0.273438
vt 0.726562 0.273438
vt 0.625000 0.476562
vt 0.523438 0.273438
vt 0.726562 0.273438
vt 0.625000 0.476562
vt 0.523438 0.273438
vt 0.726562 0.273438
vt 0.625000 0.476562
vt 0.523438 0.273438
vt 0.726562 0.273438
vt 0.625000 0.476562
vt 0.523438 0.273438
vt 0.726562 0.273438
vt 0.625000 0.476562
vt 0.523438 0.273438
vt 0.726562 0.273438
vt 0.625000 0.476562
vt 0.523438 0.273438
vt 0.726562 0.273438
vt 0.625000 0.476562
vt 0.523438 0.273438
vt 0.726562 0.273438
vt 0.625000 0.476562
vt 0.523438 0.273438
vt 0.726562 0.273438
vt 0.625000 0.476562
vt 0.523438 0.273438
vt 0.726562 0.273438
vt 0.625000 0.476562
vt 0.523438 0.273438
vt 0.726562 0.273438
vt 0.625000 0.476562
vt 0.523438 0.273438
vt 0.726562 0.273438
vt 0.625000 0.476562
vt 0.523438 0.273438
vt 0.726562 0.273438
vt 0.625000 0.476562
vt 0.523438 0.273438
vt 0.726562 0.273438
vt 0.625000 0.476562
vt 0.523438 0.273438
vt 0.726562 0.273438
vt 0.625000 0.476562
vt 0.523438 0.273438
vt 0.726562 0.273438
vt 0.625000 0.476562
vt 0.523438 0.273438
vt 0.726562 0.273438
vt 0.625000 0.476562
vt 0.023438 0.023438
vt 0.226562 0.023438
vt 0.125000 0.226562
vt 0.023438 0.023438
vt 0.226562 0.023438
vt 0.125000 0.226562
vt 0.023438 0.023438
vt 0.226562 0.023438
vt 0.125000 0.226562
vt 0.023438 0.023438
vt 0.226562 0.023438
vt 0.125000 0.226562
vn 0.00000000 -1.00000000 0.00000000
vn 0.00000000 -1.00000000 0.00000000
vn 0.00000000 -1.00000000 0.00000000
vn -0.00000000 -1.00000000 0.00000000
vn 0.00000000 -1.00000000 0.00000000
vn 0.00000000 -1.00000000 0.00000000
vn 0.00000000 -1.00000000 0.00000000
vn 0.00000000 -1.00000000 0.00000000
vn 0.06411765 -0.99669081 0.04996360
vn 0.06411738 -0.99669088 0.04996252
vn 0.03065568 -0.99205000 0.12205341
vn 0.03065569 -0.99205001 0.12205326
vn -0.00930084 -0.99079628 0.13504160
vn -0.00930056 -0.99079634 0.13504111
vn -0.04475672 -0.99372584 0.10249776
vn -0.04475688 -0.99372583 0.10249781
vn -0.07400252 -0.99723001 -0.00747841
vn -0.07400240 -0.99723002 -0.00747824
vn -0.07137324 -0.99655145 -0.04232099
vn -0.07137313 -0.99655147 -0.04232062
vn -0.03376046 -0.99229482 -0.11921082
vn -0.03376044 -0.99229480 -0.11921101
vn 0.00956466 -0.99071173 -0.13564209
vn 0.00956444 -0.99071179 -0.13564170
vn 0.04639194 -0.99338010 -0.10508932
vn 0.04639186 -0.99338011 -0.10508929
vn 0.06913292 -0.99731242 -0.02426060
vn 0.06913344 -0.99731240 -0.02426004
vn 0.14819583 0.98219248 0.11548131
vn 0.14819568 0.98219250 0.11548131
vn 0.06946883 0.95847628 0.27658144
vn 0.06946710 0.95847731 0.27657831
vn -0.02096656 0.95230356 0.30443118
vn -0.02096710 0.95230474 0.30442745
vn -0.10213905 0.96687886 0.23390787
vn -0.10213957 0.96687811 0.23391072
vn -0.17144856 0.98504071 -0.01732574
vn -0.17144832 0.98504075 -0.01732591
vn -0.16486691 0.98145918 -0.09775879
vn -0.16486750 0.98145909 -0.09775872
vn -0.07658279 0.95969258 -0.27041677
vn -0.07658126 0.95969337 -0.27041439
vn 0.02155385 0.95189098 -0.30567793
vn 0.02155434 0.95189202 -0.30567466
vn 0.10571538 0.96513117 -0.23947041
vn 0.10571580 0.96513057 -0.23947266
vn 0.16022320 0.98547812 -0.05622639
vn 0.16022347 0.98547805 -0.05622672
vn 0.02539128 0.99948176 0.01978611
vn 0.01035796 0.99909562 0.04123890
vn -0.00280097 0.99916872 0.04066968
vn -0.01260942 0.99950345 0.02887673
vn -0.02085120 0.99978037 -0.00210712
vn -0.02071991 0.99970983 -0.01228599
vn -0.01147919 0.99911224 -0.04053348
vn 0.00377016 0.99856241 -0.05346861
vn 0.02011376 0.99875898 -0.04556245
vn 0.02988717 0.99949825 -0.01048817
vn 0.70709576 0.00558233 -0.70709576
vn 0.70709576 0.00558233 -0.70709576
vn -0.70709576 0.00558233 -0.70709576
vn -0.70709576 0.00558233 -0.70709576
vn -0.70709576 0.00558233 0.70709576
vn -0.70709576 0.00558233 0.70709576
vn 0.70709576 0.00558233 0.70709576
vn 0.70709576 0.00558233 0.70709576
vn 0.00000000 -1.00000000 -0.00000000
vn 0.00000000 -1.00000000 0.00000000
vn 0.00000000 1.00000000 0.00000000
vn 0.00000000 1.00000000 0.00000000
vn 0.00000000 1.00000000 0.00000000
vn -0.14389376 -0.78113754 -0.60755142
vn -0.14389376 -0.78113754 0.60755142
vn 1.00000000 0.00000000 0.00000000
vn 0.00000000 1.00000000 0.00000000
vn 0.14389376 -0.78113754 0.60755142
vn 0.14389376 -0.78113754 -0.60755142
vn -1.00000000 0.00000000 0.00000000
vn 0.00000000 1.00000000 0.00000000
vn 0.13559631 -0.89106145 0.43315487
vn 0.13559631 -0.89106145 -0.43315487
vn -1.00000000 0.00000000 0.00000000
vn 0.00000000 1.00000000 -0.00000000
vn -0.37005852 -0.89106009 0.26280905
vn 0.45385765 -0.89106079 -0.00488902
vn -0.30900191 0.00000000 -0.95106142
vn 0.00000000 1.00000000 0.00000000
vn -0.36430845 -0.89105806 -0.27073030
vn 0.14490989 -0.89105867 0.43013437
vn 0.80901468 -0.00000000 -0.58778844
vn 0.00000000 1.00000000 0.00000000
vn 0.14490989 -0.89105867 -0.43013437
vn -0.36430845 -0.89105806 0.27073030
vn 0.80901468 -0.00000000 0.58778844
vn -0.00000000 1.00000000 0.00000000
vn 0.45385765 -0.89106079 0.00488902
vn -0.37005852 -0.89106009 -0.26280905
vn -0.30900191 0.00000000 0.95106142
vn 0.00000000 1.00000000 -0.00000000
vn 0.11868706 -0.76116442 0.63760654
vn 0.60066438 -0.76115295 -0.24463951
vn -0.87759543 0.00000000 -0.47940198
vn 0.70710191 0.00371073 -0.70710191
vn 0.70710191 0.00371073 -0.70710191
vn -0.70710191 0.00371073 -0.70710191
vn -0.70710191 0.00371073 -0.70710191
vn -0.70710191 0.00371073 0.70710191
vn -0.70710191 0.00371073 0.70710191
vn 0.70710191 0.00371073 0.70710191
vn 0.70710191 0.00371073 0.70710191
vn 0.00000000 -1.00000000 -0.00000000
vn 0.00000000 -1.00000000 0.00000000
vn 0.00000000 1.00000000 0.00000000
vn 0.00000000 1.00000000 0.00000000
vn 0.00000000 1.00000000 0.00000000
vn -0.14389376 -0.78113754 -0.60755142
vn -0.14389376 -0.78113754 0.60755142
vn 1.00000000 0.00000000 0.00000000
vn 0.00000000 1.00000000 0.00000000
vn 0.14389376 -0.78113754 0.60755142
vn 0.14389376 -0.78113754 -0.60755142
vn -1.00000000 0.00000000 0.00000000
vn 0.00000000 1.00000000 0.00000000
vn 0.13559631 -0.89106145 0.43315487
vn 0.13559631 -0.89106145 -0.43315487
vn -1.00000000 0.00000000 0.00000000
vn 0.00000000 1.00000000 -0.00000000
vn -0.37005852 -0.89106009 0.26280905
vn 0.45385765 -0.89106079 -0.00488902
vn -0.30900191 0.00000000 -0.95106142
vn 0.00000000 1.00000000 0.00000000
vn -0.36430845 -0.89105806 -0.27073030
vn 0.14490989 -0.89105867 0.43013437
vn 0.80901468 0.00000000 -0.58778844
vn 0.00000000 1.00000000 0.00000000
vn 0.14490989 -0.89105867 -0.43013437
vn -0.36430845 -0.89105806 0.27073030
vn 0.80901468 0.00000000 0.58778844
vn -0.00000000 1.00000000 0.00000000
vn 0.45385765 -0.89106079 0.00488902
vn -0.37005852 -0.89106009 -0.26280905
vn -0.30900191 0.00000000 0.95106142
vn 0.00000000 1.00000000 -0.00000000
vn 0.11868706 -0.76116442 0.63760654
vn 0.60066438 -0.76115295 -0.24463951
vn -0.87759543 0.00000000 -0.47940198
vn 0.70710029 0.00428546 -0.70710029
vn 0.70710029 0.00428546 -0.70710029
vn -0.70710029 0.00428546 -0.70710029
vn -0.70710029 0.00428546 -0.70710029
vn -0.70710029 0.00428546 0.70710029
vn -0.70710029 0.00428546 0.70710029
vn 0.70710029 0.00428546 0.70710029
vn 0.70710029 0.00428546 0.70710029
vn 0.00000000 -1.00000000 -0.00000000
vn 0.00000000 -1.00000000 0.00000000
vn 0.00000000 1.00000000 0.00000000
vn 0.00000000 1.00000000 0.00000000
vn 0.00000000 1.00000000 0.00000000
vn -0.14389376 -0.78113754 -0.60755142
vn -0.14389376 -0.78113754 0.60755142
vn 1.00000000 0.00000000 0.00000000
vn 0.00000000 1.00000000 0.00000000
vn 0.14389376 -0.78113754 0.60755142
vn 0.14389376 -0.78113754 -0.60755142
vn -1.00000000 0.00000000 0.00000000
vn 0.00000000 1.00000000 0.00000000
vn 0.13559631 -0.89106145 0.43315487
vn 0.13559631 -0.89106145 -0.43315487
vn -1.00000000 0.00000000 0.00000000
vn 0.00000000 1.00000000 -0.00000000
vn -0.37005852 -0.89106009 0.26280905
vn 0.45385765 -0.89106079 -0.00488902
vn -0.30900191 -0.00000000 -0.95106142
vn 0.00000000 1.00000000 0.00000000
vn -0.36430845 -0.89105806 -0.27073030
vn 0.14490989 -0.89105867 0.43013437
vn 0.80901468 0.00000000 -0.58778844
vn 0.00000000 1.00000000 0.00000000
vn 0.14490989 -0.89105867 -0.43013437
vn -0.36430845 -0.89105806 0.27073030
vn 0.80901468 0.00000000 0.58778844
vn -0.00000000 1.00000000 0.00000000
vn 0.45385765 -0.89106079 0.00488902
vn -0.37005852 -0.89106009 -0.26280905
vn -0.30900191 -0.00000000 0.95106142
vn 0.00000000 1.00000000 -0.00000000
vn 0.11868706 -0.76116442 0.63760654
vn 0.60066438 -0.76115295 -0.24463951
vn -0.87759543 -0.00000000 -0.47940198
vn 0.70709769 0.00507084 -0.70709769
vn 0.70709769 0.00507084 -0.70709769
vn -0.70709769 0.00507084 -0.70709769
vn -0.70709769 0.00507084 -0.70709769
vn -0.70709769 0.00507084 0.70709769
vn -0.70709769 0.00507084 0.70709769
vn 0.70709769 0.00507084 0.70709769
vn 0.70709769 0.00507084 0.70709769
vn 0.00000000 -1.00000000 -0.00000000
vn 0.00000000 -1.00000000 0.00000000
vn 0.00000000 1.00000000 0.00000000
vn 0.00000000 1.00000000 0.00000000
vn 0.00000000 1.00000000 0.00000000
vn -0.14389376 -0.78113754 -0.60755142
vn -0.14389376 -0.78113754 0.60755142
vn 1.00000000 0.00000000 0.00000000
vn 0.00000000 1.00000000 0.00000000
vn 0.14389376 -0.78113754 0.60755142
vn 0.14389376 -0.78113754 -0.60755142
vn -1.00000000 0.00000000 0.00000000
vn 0.00000000 1.00000000 0.00000000
vn 0.13559631 -0.89106145 0.43315487
vn 0.13559631 -0.89106145 -0.43315487
vn -1.00000000 0.00000000 0.00000000
vn 0.00000000 1.00000000 -0.00000000
vn -0.37005852 -0.89106009 0.26280905
vn 0.45385765 -0.89106079 -0.00488902
vn -0.30900191 0.00000000 -0.95106142
vn 0.00000000 1.00000000 0.00000000
vn -0.36430845 -0.89105806 -0.27073030
vn 0.14490989 -0.89105867 0.43013437
vn 0.80901468 0.00000000 -0.58778844
vn 0.00000000 1.00000000 0.00000000
vn 0.14490989 -0.89105867 -0.43013437
vn -0.36430845 -0.89105806 0.27073030
vn 0.80901468 0.00000000 0.58778844
vn -0.00000000 1.00000000 0.00000000
vn 0.45385765 -0.89106079 0.00488902
vn -0.37005852 -0.89106009 -0.26280905
vn -0.30900191 0.00000000 0.95106142
vn 0.00000000 1.00000000 -0.00000000
vn 0.11868706 -0.76116442 0.63760654
vn 0.60066438 -0.76115295 -0.24463951
vn -0.87759543 0.00000000 -0.47940198
vn 0.70710251 0.00347755 -0.70710251
vn 0.70710251 0.00347755 -0.70710251
vn -0.70710251 0.00347755 -0.70710251
vn -0.70710251 0.00347755 -0.70710251
vn -0.70710251 0.00347755 0.70710251
vn -0.70710251 0.00347755 0.70710251
vn 0.70710251 0.00347755 0.70710251
vn 0.70710251 0.00347755 0.70710251
vn 0.00000000 -1.00000000 -0.00000000
vn 0.00000000 -1.00000000 0.00000000
vn 0.00000000 1.00000000 0.00000000
vn 0.00000000 1.00000000 0.00000000
vn 0.00000000 1.00000000 0.00000000
vn -0.14389376 -0.78113754 -0.60755142
vn -0.14389376 -0.78113754 0.60755142
vn 1.00000000 0.00000000 0.00000000
vn 0.00000000 1.00000000 0.00000000
vn 0.14389376 -0.78113754 0.60755142
vn 0.14389376 -0.78113754 -0.60755142
vn -1.00000000 0.00000000 0.00000000
vn 0.00000000 1.00000000 0.00000000
vn 0.13559631 -0.89106145 0.43315487
vn 0.13559631 -0.89106145 -0.43315487
vn -1.00000000 0.00000000 0.00000000
vn 0.00000000 1.00000000 -0.00000000
vn -0.37005852 -0.89106009 0.26280905
vn 0.45385765 -0.89106079 -0.00488902
vn -0.30900191 0.00000000 -0.95106142
vn 0.00000000 1.00000000 0.00000000
vn -0.36430845 -0.89105806 -0.27073030
vn 0.14490989 -0.89105867 0.43013437
vn 0.80901468 0.00000000 -0.58778844
vn 0.00000000 1.00000000 0.00000000
vn 0.14490989 -0.89105867 -0.43013437
vn -0.36430845 -0.89105806 0.27073030
vn 0.80901468 0.00000000 0.58778844
vn -0.00000000 1.00000000 0.00000000
vn 0.45385765 -0.89106079 0.00488902
vn -0.37005852 -0.89106009 -0.26280905
vn -0.30900191 0.00000000 0.95106142
vn 0.00000000 1.00000000 -0.00000000
vn 0.11868706 -0.76116442 0.63760654
vn 0.60066438 -0.76115295 -0.24463951
vn -0.87759543 0.00000000 -0.47940198
vn 0.70710119 0.00397745 -0.70710119
vn 0.70710119 0.00397745 -0.70710119
vn -0.70710119 0.00397745 -0.70710119
vn -0.70710119 0.00397745 -0.70710119
vn -0.70710119 0.00397745 0.70710119
vn -0.70710119 0.00397745 0.70710119
vn 0.70710119 0.00397745 0.70710119
vn 0.70710119 0.00397745 0.70710119
vn 0.00000000 -1.00000000 -0.00000000
vn 0.00000000 -1.00000000 0.00000000
vn 0.00000000 1.00000000 0.00000000
vn 0.00000000 1.00000000 0.00000000
vn 0.00000000 1.00000000 0.00000000
vn -0.14389376 -0.78113754 -0.60755142
vn -0.14389376 -0.78113754 0.60755142
vn 1.00000000 0.00000000 0.00000000
vn 0.00000000 1.00000000 0.00000000
vn 0.14389376 -0.78113754 0.60755142
vn 0.14389376 -0.78113754 -0.60755142
vn -1.00000000 0.00000000 0.00000000
vn 0.00000000 1.00000000 0.00000000
vn 0.13559631 -0.89106145 0.43315487
vn 0.13559631 -0.89106145 -0.43315487
vn -1.00000000 0.00000000 0.00000000
vn 0.00000000 1.00000000 -0.00000000
vn -0.37005852 -0.89106009 0.26280905
vn 0.45385765 -0.89106079 -0.00488902
vn -0.30900191 -0.00000000 -0.95106142
vn 0.00000000 1.00000000 0.00000000
vn -0.36430845 -0.89105806 -0.27073030
vn 0.14490989 -0.89105867 0.43013437
vn 0.80901468 0.00000000 -0.58778844
vn 0.00000000 1.00000000 0.00000000
vn 0.14490989 -0.89105867 -0.43013437
vn -0.36430845 -0.89105806 0.27073030
vn 0.80901468 0.00000000 0.58778844
vn -0.00000000 1.00000000 0.00000000
vn 0.45385765 -0.89106079 0.00488902
vn -0.37005852 -0.89106009 -0.26280905
vn -0.30900191 -0.00000000 0.95106142
vn 0.00000000 1.00000000 -0.00000000
vn 0.11868706 -0.76116442 0.63760654
vn 0.60066438 -0.76115295 -0.24463951
vn -0.87759543 -0.00000000 -0.47940198
vn 0.70709915 0.00464516 -0.70709915
vn 0.70709915 0.00464516 -0.70709915
vn -0.70709915 0.00464516 -0.70709915
vn -0.70709915 0.00464516 -0.70709915
vn -0.70709915 0.00464516 0.70709915
vn -0.70709915 0.00464516 0.70709915
vn 0.70709915 0.00464516 0.70709915
vn 0.70709915 0.00464516 0.70709915
vn 0.00000000 -1.00000000 -0.00000000
vn 0.00000000 -1.00000000 0.00000000
vn 0.00000000 1.00000000 0.00000000
vn 0.00000000 1.00000000 0.00000000
vn 0.00000000 1.00000000 0.00000000
vn -0.14389376 -0.78113754 -0.60755142
vn -0.14389376 -0.78113754 0.60755142
vn 1.00000000 0.00000000 0.00000000
vn 0.00000000 1.00000000 0.00000000
vn 0.14389376 -0.78113754 0.60755142
vn 0.14389376 -0.78113754 -0.60755142
vn -1.00000000 0.00000000 0.00000000
vn 0.00000000 1.00000000 0.00000000
vn 0.13559631 -0.89106145 0.43315487
vn 0.13559631 -0.89106145 -0.43315487
vn -1.00000000 0.00000000 0.00000000
vn 0.00000000 1.00000000 -0.00000000
vn -0.37005852 -0.89106009 0.26280905
vn 0.45385765 -0.89106079 -0.00488902
vn -0.30900191 0.00000000 -0.95106142
vn 0.00000000 1.00000000 0.00000000
vn -0.36430845 -0.89105806 -0.27073030
vn 0.14490989 -0.89105867 0.43013437
vn 0.80901468 -0.00000000 -0.58778844
vn 0.00000000 1.00000000 0.00000000
vn 0.14490989 -0.89105867 -0.43013437
vn -0.36430845 -0.89105806 0.27073030
vn 0.80901468 -0.00000000 0.58778844
vn -0.00000000 1.00000000 0.00000000
vn 0.45385765 -0.89106079 0.00488902
vn -0.37005852 -0.89106009 -0.26280905
vn -0.30900191 0.00000000 0.95106142
vn 0.00000000 1.00000000 -0.00000000
vn 0.11868706 -0.76116442 0.63760654
vn 0.60066438 -0.76115295 -0.24463951
vn -0.87759543 0.00000000 -0.47940198
vn 0.70709576 0.00558233 -0.70709576
vn 0.70709576 0.00558233 -0.70709576
vn -0.70709576 0.00558233 -0.70709576
vn -0.70709576 0.00558233 -0.70709576
vn -0.70709576 0.00558233 0.70709576
vn -0.70709576 0.00558233 0.70709576
vn 0.70709576 0.00558233 0.70709576
vn 0.70709576 0.00558233 0.70709576
vn 0.00000000 -1.00000000 -0.00000000
vn 0.00000000 -1.00000000 0.00000000
vn 0.00000000 1.00000000 0.00000000
vn 0.00000000 1.00000000 0.00000000
vn 0.00000000 1.00000000 0.00000000
vn -0.14389376 -0.78113754 -0.60755142
vn -0.14389376 -0.78113754 0.60755142
vn 1.00000000 0.00000000 0.00000000
vn 0.00000000 1.00000000 0.00000000
vn 0.14389376 -0.78113754 0.60755142
vn 0.14389376 -0.78113754 -0.60755142
vn -1.00000000 0.00000000 0.00000000
vn 0.00000000 1.00000000 0.00000000
vn 0.13559631 -0.89106145 0.43315487
vn 0.13559631 -0.89106145 -0.43315487
vn -1.00000000 0.00000000 0.00000000
vn 0.00000000 1.00000000 -0.00000000
vn -0.37005852 -0.89106009 0.26280905
vn 0.45385765 -0.89106079 -0.00488902
vn -0.30900191 0.00000000 -0.95106142
vn 0.00000000 1.00000000 0.00000000
vn -0.36430845 -0.89105806 -0.27073030
vn 0.14490989 -0.89105867 0.43013437
vn 0.80901468 0.00000000 -0.58778844
vn 0.00000000 1.00000000 0.00000000
vn 0.14490989 -0.89105867 -0.43013437
vn -0.36430845 -0.89105806 0.27073030
vn 0.80901468 -0.00000000 0.58778844
vn -0.00000000 1.00000000 0.00000000
vn 0.45385765 -0.89106079 0.00488902
vn -0.37005852 -0.89106009 -0.26280905
vn -0.30900191 0.00000000 0.95106142
vn 0.00000000 1.00000000 -0.00000000
vn 0.11868706 -0.76116442 0.63760654
vn 0.60066438 -0.76115295 -0.24463951
vn -0.87759543 0.00000000 -0.47940198
vn 0.70710191 0.00371073 -0.70710191
vn 0.70710191 0.00371073 -0.70710191
vn -0.70710191 0.00371073 -0.70710191
vn -0.70710191 0.00371073 -0.70710191
vn -0.70710191 0.00371073 0.70710191
vn -0.70710191 0.00371073 0.70710191
vn 0.70710191 0.00371073 0.70710191
vn 0.70710191 0.00371073 0.70710191
vn 0.00000000 -1.00000000 -0.00000000
vn 0.00000000 -1.00000000 0.00000000
vn 0.00000000 1.00000000 0.00000000
vn 0.00000000 1.00000000 0.00000000
vn 0.00000000 1.00000000 0.00000000
vn -0.14389376 -0.78113754 -0.60755142
vn -0.14389376 -0.78113754 0.60755142
vn 1.00000000 0.00000000 0.00000000
vn 0.00000000 1.00000000 0.00000000
vn 0.14389376 -0.78113754 0.60755142
vn 0.14389376 -0.78113754 -0.60755142
vn -1.00000000 0.00000000 0.00000000
vn 0.00000000 1.00000000 0.00000000
vn 0.13559631 -0.89106145 0.43315487
vn 0.13559631 -0.89106145 -0.43315487
vn -1.00000000 0.00000000 0.00000000
vn 0.00000000 1.00000000 -0.00000000
vn -0.37005852 -0.89106009 0.26280905
vn 0.45385765 -0.89106079 -0.00488902
vn -0.30900191 -0.00000000 -0.95106142
vn 0.00000000 1.00000000 0.00000000
vn -0.36430845 -0.89105806 -0.27073030
vn 0.14490989 -0.89105867 0.43013437
vn 0.80901468 0.00000000 -0.58778844
vn 0.00000000 1.00000000 0.00000000
vn 0.14490989 -0.89105867 -0.43013437
vn -0.36430845 -0.89105806 0.27073030
vn 0.80901468 -0.00000000 0.58778844
vn -0.00000000 1.00000000 0.00000000
vn 0.45385765 -0.89106079 0.00488902
vn -0.37005852 -0.89106009 -0.26280905
vn -0.30900191 -0.00000000 0.95106142
vn 0.00000000 1.00000000 -0.00000000
vn 0.11868706 -0.76116442 0.63760654
vn 0.60066438 -0.76115295 -0.24463951
vn -0.87759543 -0.00000000 -0.47940198
vn 0.70710029 0.00428546 -0.70710029
vn 0.70710029 0.00428546 -0.70710029
vn -0.70710029 0.00428546 -0.70710029
vn -0.70710029 0.00428546 -0.70710029
vn -0.70710029 0.00428546 0.70710029
vn -0.70710029 0.00428546 0.70710029
vn 0.70710029 0.00428546 0.70710029
vn 0.70710029 0.00428546 0.70710029
vn 0.00000000 -1.00000000 -0.00000000
vn 0.00000000 -1.00000000 0.00000000
vn 0.00000000 1.00000000 0.00000000
vn 0.00000000 1.00000000 0.00000000
vn 0.00000000 1.00000000 0.00000000
vn -0.14389376 -0.78113754 -0.60755142
vn -0.14389376 -0.78113754 0.60755142
vn 1.00000000 0.00000000 0.00000000
vn 0.00000000 1.00000000 0.00000000
vn 0.14389376 -0.78113754 0.60755142
vn 0.14389376 -0.78113754 -0.60755142
vn -1.00000000 0.00000000 0.00000000
vn 0.00000000 1.00000000 0.00000000
vn 0.13559631 -0.89106145 0.43315487
vn 0.13559631 -0.89106145 -0.43315487
vn -1.00000000 0.00000000 0.00000000
vn 0.00000000 1.00000000 -0.00000000
vn -0.37005852 -0.89106009 0.26280905
vn 0.45385765 -0.89106079 -0.00488902
vn -0.30900191 0.00000000 -0.95106142
vn 0.00000000 1.00000000 0.00000000
vn -0.36430845 -0.89105806 -0.27073030
vn 0.14490989 -0.89105867 0.43013437
vn 0.80901468 0.00000000 -0.58778844
vn 0.00000000 1.00000000 0.00000000
vn 0.14490989 -0.89105867 -0.43013437
vn -0.36430845 -0.89105806 0.27073030
vn 0.80901468 -0.00000000 0.58778844
vn -0.00000000 1.00000000 0.00000000
vn 0.45385765 -0.89106079 0.00488902
vn -0.37005852 -0.89106009 -0.26280905
vn -0.30900191 0.00000000 0.95106142
vn 0.00000000 1.00000000 -0.00000000
vn 0.11868706 -0.76116442 0.63760654
vn 0.60066438 -0.76115295 -0.24463951
vn -0.87759543 0.00000000 -0.47940198
vn 0.70709769 0.00507084 -0.70709769
vn 0.70709769 0.00507084 -0.70709769
vn -0.70709769 0.00507084 -0.70709769
vn -0.70709769 0.00507084 -0.70709769
vn -0.70709769 0.00507084 0.70709769
vn -0.70709769 0.00507084 0.70709769
vn 0.70709769 0.00507084 0.70709769
vn 0.70709769 0.00507084 0.70709769
vn 0.00000000 -1.00000000 -0.00000000
vn 0.00000000 -1.00000000 0.00000000
vn 0.00000000 1.00000000 0.00000000
vn 0.00000000 1.00000000 0.00000000
vn 0.00000000 1.00000000 0.00000000
vn -0.14389376 -0.78113754 -0.60755142
vn -0.14389376 -0.78113754 0.60755142
vn 1.00000000 0.00000000 0.00000000
vn 0.00000000 1.00000000 0.00000000
vn 0.14389376 -0.78113754 0.60755142
vn 0.14389376 -0.78113754 -0.60755142
vn -1.00000000 0.00000000 0.00000000
vn 0.00000000 1.00000000 0.00000000
vn 0.13559631 -0.89106145 0.43315487
vn 0.13559631 -0.89106145 -0.43315487
vn -1.00000000 0.00000000 0.00000000
vn 0.00000000 1.00000000 -0.00000000
vn -0.37005852 -0.89106009 0.26280905
vn 0.45385765 -0.89106079 -0.00488902
vn -0.30900191 0.00000000 -0.95106142
vn 0.00000000 1.00000000 0.00000000
vn -0.36430845 -0.89105806 -0.27073030
vn 0.14490989 -0.89105867 0.43013437
vn 0.80901468 0.00000000 -0.58778844
vn 0.00000000 1.00000000 0.00000000
vn 0.14490989 -0.89105867 -0.43013437
vn -0.36430845 -0.89105806 0.27073030
vn 0.80901468 -0.00000000 0.58778844
vn -0.00000000 1.00000000 0.00000000
vn 0.45385765 -0.89106079 0.00488902
vn -0.37005852 -0.89106009 -0.26280905
vn -0.30900191 0.00000000 0.95106142
vn 0.00000000 1.00000000 -0.00000000
vn 0.11868706 -0.76116442 0.63760654
vn 0.60066438 -0.76115295 -0.24463951
vn -0.87759543 0.00000000 -0.47940198
vn 0.70710251 0.00347755 -0.70710251
vn 0.70710251 0.00347755 -0.70710251
vn -0.70710251 0.00347755 -0.70710251
vn -0.70710251 0.00347755 -0.70710251
vn -0.70710251 0.00347755 0.70710251
vn -0.70710251 0.00347755 0.70710251
vn 0.70710251 0.00347755 0.70710251
vn 0.70710251 0.00347755 0.70710251
vn 0.00000000 -1.00000000 -0.00000000
vn 0.00000000 -1.00000000 0.00000000
vn 0.00000000 1.00000000 0.00000000
vn 0.00000000 1.00000000 0.00000000
vn 0.00000000 1.00000000 0.00000000
vn -0.14389376 -0.78113754 -0.60755142
vn -0.14389376 -0.78113754 0.60755142
vn 1.00000000 0.00000000 0.00000000
vn 0.00000000 1.00000000 0.00000000
vn 0.14389376 -0.78113754 0.60755142
vn 0.14389376 -0.78113754 -0.60755142
vn -1.00000000 0.00000000 0.00000000
vn 0.00000000 1.00000000 0.00000000
vn 0.13559631 -0.89106145 0.43315487
vn 0.13559631 -0.89106145 -0.43315487
vn -1.00000000 0.00000000 0.00000000
vn 0.00000000 1.00000000 -0.00000000
vn -0.37005852 -0.89106009 0.26280905
vn 0.45385765 -0.89106079 -0.00488902
vn -0.30900191 -0.00000000 -0.95106142
vn 0.00000000 1.00000000 0.00000000
vn -0.36430845 -0.89105806 -0.27073030
vn 0.14490989 -0.89105867 0.43013437
vn 0.80901468 0.00000000 -0.58778844
vn 0.00000000 1.00000000 0.00000000
vn 0.14490989 -0.89105867 -0.43013437
vn -0.36430845 -0.89105806 0.27073030
vn 0.80901468 0.00000000 0.58778844
vn -0.00000000 1.00000000 0.00000000
vn 0.45385765 -0.89106079 0.00488902
vn -0.37005852 -0.89106009 -0.26280905
vn -0.30900191 -0.00000000 0.95106142
vn 0.00000000 1.00000000 -0.00000000
vn 0.11868706 -0.76116442 0.63760654
vn 0.60066438 -0.76115295 -0.24463951
vn -0.87759543 -0.00000000 -0.47940198
f 1/1/1 2/2/1 3/3/1
f 1/4/2 3/5/2 4/6/2
f 1/7/3 4/8/3 5/9/3
f 1/10/4 5/11/4 6/12/4
f 1/13/5 6/14/5 7/15/5
f 1/16/6 7/17/6 8/18/6
f 1/19/7 8/20/7 9/21/7
f 1/22/8 9/23/8 10/24/8
f 11/25/9 12/26/9 2/27/9
f 11/28/10 2/29/10 1/30/10
f 12/31/11 13/32/11 3/33/11
f 12/34/12 3/35/12 2/36/12
f 13/37/13 14/38/13 4/39/13
f 13/40/14 4/41/14 3/42/14
f 14/43/15 15/44/15 5/45/15
f 14/46/16 5/47/16 4/48/16
f 15/49/17 16/50/17 6/51/17
f 15/52/18 6/53/18 5/54/18
f 16/55/19 17/56/19 7/57/19
f 16/58/20 7/59/20 6/60/20
f 17/61/21 18/62/21 8/63/21
f 17/64/22 8/65/22 7/66/22
f 18/67/23 19/68/23 9/69/23
f 18/70/24 9/71/24 8/72/24
f 19/73/25 20/74/25 10/75/25
f 19/76/26 10/77/26 9/78/26
f 20/79/27 11/80/27 1/81/27
f 20/82/28 1/83/28 10/84/28
f 21/85/29 22/86/29 12/87/29
f 21/88/30 12/89/30 11/90/30
f 22/91/31 23/92/31 13/93/31
f 22/94/32 13/95/32 12/96/32
f 23/97/33 24/98/33 14/99/33
f 23/100/34 14/101/34 13/102/34
f 24/103/35 25/104/35 15/105/35
f 24/106/36 15/107/36 14/108/36
f 25/109/37 26/110/37 16/111/37
f 25/112/38 16/113/38 15/114/38
f 26/115/39 27/116/39 17/117/39
f 26/118/40 17/119/40 16/120/40
f 27/121/41 28/122/41 18/123/41
f 27/124/42 18/125/42 17/126/42
f 28/127/43 29/128/43 19/129/43
f 28/130/44 19/131/44 18/132/44
f 29/133/45 30/134/45 20/135/45
f 29/136/46 20/137/46 19/138/46
f 30/139/47 21/140/47 11/141/47
f 30/142/48 11/143/48 20/144/48
f 31/145/49 22/146/49 21/147/49
f 31/148/50 23/149/50 22/150/50
f 31/151/51 24/152/51 23/153/51
f 31/154/52 25/155/52 24/156/52
f 31/157/53 26/158/53 25/159/53
f 31/160/54 27/161/54 26/162/54
f 31/163/55 28/164/55 27/165/55
f 31/166/56 29/167/56 28/168/56
f 31/169/57 30/170/57 29/171/57
f 31/172/58 21/173/58 30/174/58
f 32/175/59 33/176/59 34/177/59
f 32/178/60 34/179/60 35/180/60
f 33/181/61 36/182/61 37/183/61
f 33/184/62 37/185/62 34/186/62
f 36/187/63 38/188/63 39/189/63
f 36/190/64 39/191/64 37/192/64
f 38/193/65 32/194/65 35/195/65
f 38/196/66 35/197/66 39/198/66
f 38/199/67 36/200/67 33/201/67
f 38/202/68 33/203/68 32/204/68
f 35/205/69 34/206/69 37/207/69
f 35/208/70 37/209/70 39/210/70
f 40/211/71 41/212/71 42/213/71
f 41/214/72 43/215/72 42/216/72
f 43/217/73 40/218/73 42/219/73
f 40/220/74 43/221/74 41/222/74
f 41/223/75 40/224/75 44/225/75
f 40/226/76 43/227/76 44/228/76
f 43/229/77 41/230/77 44/231/77
f 41/232/78 43/233/78 40/234/78
f 45/235/79 46/236/79 47/237/79
f 46/238/80 48/239/80 47/240/80
f 48/241/81 45/242/81 47/243/81
f 45/244/82 48/245/82 46/246/82
f 49/247/83 50/248/83 51/249/83
f 50/250/84 48/251/84 51/252/84
f 48/253/85 49/254/85 51/255/85
f 49/256/86 48/257/86 50/258/86
f 52/259/87 53/260/87 54/261/87
f 53/262/88 48/263/88 54/264/88
f 48/265/89 52/266/89 54/267/89
f 52/268/90 48/269/90 53/270/90
f 55/271/91 56/272/91 57/273/91
f 56/274/92 48/275/92 57/276/92
f 48/277/93 55/278/93 57/279/93
f 55/280/94 48/281/94 56/282/94
f 58/283/95 59/284/95 60/285/95
f 59/286/96 48/287/96 60/288/96
f 48/289/97 58/290/97 60/291/97
f 58/292/98 48/293/98 59/294/98
f 61/295/99 62/296/99 63/297/99
f 62/298/100 64/299/100 63/300/100
f 64/301/101 61/302/101 63/303/101
f 61/304/102 64/305/102 62/306/102
f 65/307/103 66/308/103 67/309/103
f 65/310/104 67/311/104 68/312/104
f 66/313/105 69/314/105 70/315/105
f 66/316/106 70/317/106 67/318/106
f 69/319/107 71/320/107 72/321/107
f 69/322/108 72/323/108 70/324/108
f 71/325/109 65/326/109 68/327/109
f 71/328/110 68/329/110 72/330/110
f 71/331/111 69/332/111 66/333/111
f 71/334/112 66/335/112 65/336/112
f 68/337/113 67/338/113 70/339/113
f 68/340/114 70/341/114 72/342/114
f 73/343/115 74/344/115 75/345/115
f 74/346/116 76/347/116 75/348/116
f 76/349/117 73/350/117 75/351/117
f 73/352/118 76/353/118 74/354/118
f 74/355/119 73/356/119 77/357/119
f 73/358/120 76/359/120 77/360/120
f 76/361/121 74/362/121 77/363/121
f 74/364/122 76/365/122 73/366/122
f 78/367/123 79/368/123 80/369/123
f 79/370/124 81/371/124 80/372/124
f 81/373/125 78/374/125 80/375/125
f 78/376/126 81/377/126 79/378/126
f 82/379/127 83/380/127 84/381/127
f 83/382/128 81/383/128 84/384/128
f 81/385/129 82/386/129 84/387/129
f 82/388/130 81/389/130 83/390/130
f 85/391/131 86/392/131 87/393/131
f 86/394/132 81/395/132 87/396/132
f 81/397/133 85/398/133 87/399/133
f 85/400/134 81/401/134 86/402/134
f 88/403/135 89/404/135 90/405/135
f 89/406/136 81/407/136 90/408/136
f 81/409/137 88/410/137 90/411/137
f 88/412/138 81/413/138 89/414/138
f 91/415/139 92/416/139 93/417/139
f 92/418/140 81/419/140 93/420/140
f 81/421/141 91/422/141 93/423/141
f 91/424/142 81/425/142 92/426/142
f 94/427/143 95/428/143 96/429/143
f 95/430/144 97/431/144 96/432/144
f 97/433/145 94/434/145 96/435/145
f 94/436/146 97/437/146 95/438/146
f 98/439/147 99/440/147 100/441/147
f 98/442/148 100/443/148 101/444/148
f 99/445/149 102/446/149 103/447/149
f 99/448/150 103/449/150 100/450/150
f 102/451/151 104/452/151 105/453/151
f 102/454/152 105/455/152 103/456/152
f 104/457/153 98/458/153 101/459/153
f 104/460/154 101/461/154 105/462/154
f 104/463/155 102/464/155 99/465/155
f 104/466/156 99/467/156 98/468/156
f 101/469/157 100/470/157 103/471/157
f 101/472/158 103/473/158 105/474/158
f 106/475/159 107/476/159 108/477/159
f 107/478/160 109/479/160 108/480/160
f 109/481/161 106/482/161 108/483/161
f 106/484/162 109/485/162 107/486/162
f 107/487/163 106/488/163 110/489/163
f 106/490/164 109/491/164 110/492/164
f 109/493/165 107/494/165 110/495/165
f 107/496/166 109/497/166 106/498/166
f 111/499/167 112/500/167 113/501/167
f 112/502/168 114/503/168 113/504/168
f 114/505/169 111/506/169 113/507/169
f 111/508/170 114/509/170 112/510/170
f 115/511/171 116/512/171 117/513/171
f 116/514/172 114/515/172 117/516/172
f 114/517/173 115/518/173 117/519/173
f 115/520/174 114/521/174 116/522/174
f 118/523/175 119/524/175 120/525/175
f 119/526/176 114/527/176 120/528/176
f 114/529/177 118/530/177 120/531/177
f 118/532/178 114/533/178 119/534/178
f 121/535/179 122/536/179 123/537/179
f 122/538/180 114/539/180 123/540/180
f 114/541/181 121/542/181 123/543/181
f 121/544/182 114/545/182 122/546/182
f 124/547/183 125/548/183 126/549/183
f 125/550/184 114/551/184 126/552/184
f 114/553/185 124/554/185 126/555/185
f 124/556/186 114/557/186 125/558/186
f 127/559/187 128/560/187 129/561/187
f 128/562/188 130/563/188 129/564/188
f 130/565/189 127/566/189 129/567/189
f 127/568/190 130/569/190 128/570/190
f 131/571/191 132/572/191 133/573/191
f 131/574/192 133/575/192 134/576/192
f 132/577/193 135/578/193 136/579/193
f 132/580/194 136/581/194 133/582/194
f 135/583/195 137/584/195 138/585/195
f 135/586/196 138/587/196 136/588/196
f 137/589/197 131/590/197 134/591/197
f 137/592/198 134/593/198 138/594/198
f 137/595/199 135/596/199 132/597/199
f 137/598/200 132/599/200 131/600/200
f 134/601/201 133/602/201 136/603/201
f 134/604/202 136/605/202 138/606/202
f 139/607/203 140/608/203 141/609/203
f 140/610/204 142/611/204 141/612/204
f 142/613/205 139/614/205 141/615/205
f 139/616/206 142/617/206 140/618/206
f 140/619/207 139/620/207 143/621/207
f 139/622/208 142/623/208 143/624/208
f 142/625/209 140/626/209 143/627/209
f 140/628/210 142/629/210 139/630/210
f 144/631/211 145/632/211 146/633/211
f 145/634/212 147/635/212 146/636/212
f 147/637/213 144/638/213 146/639/213
f 144/640/214 147/641/214 145/642/214
f 148/643/215 149/644/215 150/645/215
f 149/646/216 147/647/216 150/648/216
f 147/649/217 148/650/217 150/651/217
f 148/652/218 147/653/218 149/654/218
f 151/655/219 152/656/219 153/657/219
f 152/658/220 147/659/220 153/660/220
f 147/661/221 151/662/221 153/663/221
f 151/664/222 147/665/222 152/666/222
f 154/667/223 155/668/223 156/669/223
f 155/670/224 147/671/224 156/672/224
f 147/673/225 154/674/225 156/675/225
f 154/676/226 147/677/226 155/678/226
f 157/679/227 158/680/227 159/681/227
f 158/682/228 147/683/228 159/684/228
f 147/685/229 157/686/229 159/687/229
f 157/688/230 147/689/230 158/690/230
f 160/691/231 161/692/231 162/693/231
f 161/694/232 163/695/232 162/696/232
f 163/697/233 160/698/233 162/699/233
f 160/700/234 163/701/234 161/702/234
f 164/703/235 165/704/235 166/705/235
f 164/706/236 166/707/236 167/708/236
f 165/709/237 168/710/237 169/711/237
f 165/712/238 169/713/238 166/714/238
f 168/715/239 170/716/239 171/717/239
f 168/718/240 171/719/240 169/720/240
f 170/721/241 164/722/241 167/723/241
f 170/724/242 167/725/242 171/726/242
f 170/727/243 168/728/243 165/729/243
f 170/730/244 165/731/244 164/732/244
f 167/733/245 166/734/245 169/735/245
f 167/736/246 169/737/246 171/738/246
f 172/739/247 173/740/247 174/741/247
f 173/742/248 175/743/248 174/744/248
f 175/745/249 172/746/249 174/747/249
f 172/748/250 175/749/250 173/750/250
f 173/751/251 172/752/251 176/753/251
f 172/754/252 175/755/252 176/756/252
f 175/757/253 173/758/253 176/759/253
f 173/760/254 175/761/254 172/762/254
f 177/763/255 178/764/255 179/765/255
f 178/766/256 180/767/256 179/768/256
f 180/769/257 177/770/257 179/771/257
f 177/772/258 180/773/258 178/774/258
f 181/775/259 182/776/259 183/777/259
f 182/778/260 180/779/260 183/780/260
f 180/781/261 181/782/261 183/783/261
f 181/784/262 180/785/262 182/786/262
f 184/787/263 185/788/263 186/789/263
f 185/790/264 180/791/264 186/792/264
f 180/793/265 184/794/265 186/795/265
f 184/796/266 180/797/266 185/798/266
f 187/799/267 188/800/267 189/801/267
f 188/802/268 180/803/268 189/804/268
f 180/805/269 187/806/269 189/807/269
f 187/808/270 180/809/270 188/810/270
f 190/811/271 191/812/271 192/813/271
f 191/814/272 180/815/272 192/816/272
f 180/817/273 190/818/273 192/819/273
f 190/820/274 180/821/274 191/822/274
f 193/823/275 194/824/275 195/825/275
f 194/826/276 196/827/276 195/828/276
f 196/829/277 193/830/277 195/831/277
f 193/832/278 196/833/278 194/834/278
f 197/835/279 198/836/279 199/837/279
f 197/838/280 199/839/280 200/840/280
f 198/841/281 201/842/281 202/843/281
f 198/844/282 202/845/282 199/846/282
f 201/847/283 203/848/283 204/849/283
f 201/850/284 204/851/284 202/852/284
f 203/853/285 197/854/285 200/855/285
f 203/856/286 200/857/286 204/858/286
f 203/859/287 201/860/287 198/861/287
f 203/862/288 198/863/288 197/864/288
f 200/865/289 199/866/289 202/867/289
f 200/868/290 202/869/290 204/870/290
f 205/871/291 206/872/291 207/873/291
f 206/874/292 208/875/292 207/876/292
f 208/877/293 205/878/293 207/879/293
f 205/880/294 208/881/294 206/882/294
f 206/883/295 205/884/295 209/885/295
f 205/886/296 208/887/296 209/888/296
f 208/889/297 206/890/297 209/891/297
f 206/892/298 208/893/298 205/894/298
f 210/895/299 211/896/299 212/897/299
f 211/898/300 213/899/300 212/900/300
f 213/901/301 210/902/301 212/903/301
f 210/904/302 213/905/302 211/906/302
f 214/907/303 215/908/303 216/909/303
f 215/910/304 213/911/304 216/912/304
f 213/913/305 214/914/305 216/915/305
f 214/916/306 213/917/306 215/918/306
f 217/919/307 218/920/307 219/921/307
f 218/922/308 213/923/308 219/924/308
f 213/925/309 217/926/309 219/927/309
f 217/928/310 213/929/310 218/930/310
f 220/931/311 221/932/311 222/933/311
f 221/934/312 213/935/312 222/936/312
f 213/937/313 220/938/313 222/939/313
f 220/940/314 213/941/314 221/942/314
f 223/943/315 224/944/315 225/945/315
f 224/946/316 213/947/316 225/948/316
f 213/949/317 223/950/317 225/951/317
f 223/952/318 213/953/318 224/954/318
f 226/955/319 227/956/319 228/957/319
f 227/958/320 229/959/320 228/960/320
f 229/961/321 226/962/321 228/963/321
f 226/964/322 229/965/322 227/966/322
f 230/967/323 231/968/323 232/969/323
f 230/970/324 232/971/324 233/972/324
f 231/973/325 234/974/325 235/975/325
f 231/976/326 235/977/326 232/978/326
f 234/979/327 236/980/327 237/981/327
f 234/982/328 237/983/328 235/984/328
f 236/985/329 230/986/329 233/987/329
f 236/988/330 233/989/330 237/990/330
f 236/991/331 234/992/331 231/993/331
f 236/994/332 231/995/332 230/996/332
f 233/997/333 232/998/333 235/999/333
f 233/1000/334 235/1001/334 237/1002/334
f 238/1003/335 239/1004/335 240/1005/335
f 239/1006/336 241/1007/336 240/1008/336
f 241/1009/337 238/1010/337 240/1011/337
f 238/1012/338 241/1013/338 239/1014/338
f 239/1015/339 238/1016/339 242/1017/339
f 238/1018/340 241/1019/340 242/1020/340
f 241/1021/341 239/1022/341 242/1023/341
f 239/1024/342 241/1025/342 238/1026/342
f 243/1027/343 244/1028/343 245/1029/343
f 244/1030/344 246/1031/344 245/1032/344
f 246/1033/345 243/1034/345 245/1035/345
f 243/1036/346 246/1037/346 244/1038/346
f 247/1039/347 248/1040/347 249/1041/347
f 248/1042/348 246/1043/348 249/1044/348
f 246/1045/349 247/1046/349 249/1047/349
f 247/1048/350 246/1049/350 248/1050/350
f 250/1051/351 251/1052/351 252/1053/351
f 251/1054/352 246/1055/352 252/1056/352
f 246/1057/353 250/1058/353 252/1059/353
f 250/1060/354 246/1061/354 251/1062/354
f 253/1063/355 254/1064/355 255/1065/355
f 254/1066/356 246/1067/356 255/1068/356
f 246/1069/357 253/1070/357 255/1071/357
f 253/1072/358 246/1073/358 254/1074/358
f 256/1075/359 257/1076/359 258/1077/359
f 257/1078/360 246/1079/360 258/1080/360
f 246/1081/361 256/1082/361 258/1083/361
f 256/1084/362 246/1085/362 257/1086/362
f 259/1087/363 260/1088/363 261/1089/363
f 260/1090/364 262/1091/364 261/1092/364
f 262/1093/365 259/1094/365 261/1095/365
f 259/1096/366 262/1097/366 260/1098/366
f 263/1099/367 264/1100/367 265/1101/367
f 263/1102/368 265/1103/368 266/1104/368
f 264/1105/369 267/1106/369 268/1107/369
f 264/1108/370 268/1109/370 265/1110/370
f 267/1111/371 269/1112/371 270/1113/371
f 267/1114/372 270/1115/372 268/1116/372
f 269/1117/373 263/1118/373 266/1119/373
f 269/1120/374 266/1121/374 270/1122/374
f 269/1123/375 267/1124/375 264/1125/375
f 269/1126/376 264/1127/376 263/1128/376
f 266/1129/377 265/1130/377 268/1131/377
f 266/1132/378 268/1133/378 270/1134/378
f 271/1135/379 272/1136/379 273/1137/379
f 272/1138/380 274/1139/380 273/1140/380
f 274/1141/381 271/1142/381 273/1143/381
f 271/1144/382 274/1145/382 272/1146/382
f 272/1147/383 271/1148/383 275/1149/383
f 271/1150/384 274/1151/384 275/1152/384
f 274/1153/385 272/1154/385 275/1155/385
f 272/1156/386 274/1157/386 271/1158/386
f 276/1159/387 277/1160/387 278/1161/387
f 277/1162/388 279/1163/388 278/1164/388
f 279/1165/389 276/1166/389 278/1167/389
f 276/1168/390 279/1169/390 277/1170/390
f 280/1171/391 281/1172/391 282/1173/391
f 281/1174/392 279/1175/392 282/1176/392
f 279/1177/393 280/1178/393 282/1179/393
f 280/1180/394 279/1181/394 281/1182/394
f 283/1183/395 284/1184/395 285/1185/395
f 284/1186/396 279/1187/396 285/1188/396
f 279/1189/397 283/1190/397 285/1191/397
f 283/1192/398 279/1193/398 284/1194/398
f 286/1195/399 287/1196/399 288/1197/399
f 287/1198/400 279/1199/400 288/1200/400
f 279/1201/401 286/1202/401 288/1203/401
f 286/1204/402 279/1205/402 287/1206/402
f 289/1207/403 290/1208/403 291/1209/403
f 290/1210/404 279/1211/404 291/1212/404
f 279/1213/405 289/1214/405 291/1215/405
f 289/1216/406 279/1217/406 290/1218/406
f 292/1219/407 293/1220/407 294/1221/407
f 293/1222/408 295/1223/408 294/1224/408
f 295/1225/409 292/1226/409 294/1227/409
f 292/1228/410 295/1229/410 293/1230/410
f 296/1231/411 297/1232/411 298/1233/411
f 296/1234/412 298/1235/412 299/1236/412
f 297/1237/413 300/1238/413 301/1239/413
f 297/1240/414 301/1241/414 298/1242/414
f 300/1243/415 302/1244/415 303/1245/415
f 300/1246/416 303/1247/416 301/1248/416
f 302/1249/417 296/1250/417 299/1251/417
f 302/1252/418 299/1253/418 303/1254/418
f 302/1255/419 300/1256/419 297/1257/419
f 302/1258/420 297/1259/420 296/1260/420
f 299/1261/421 298/1262/421 301/1263/421
f 299/1264/422 301/1265/422 303/1266/422
f 304/1267/423 305/1268/423 306/1269/423
f 305/1270/424 307/1271/424 306/1272/424
f 307/1273/425 304/1274/425 306/1275/425
f 304/1276/426 307/1277/426 305/1278/426
f 305/1279/427 304/1280/427 308/1281/427
f 304/1282/428 307/1283/428 308/1284/428
f 307/1285/429 305/1286/429 308/1287/429
f 305/1288/430 307/1289/430 304/1290/430
f 309/1291/431 310/1292/431 311/1293/431
f 310/1294/432 312/1295/432 311/1296/432
f 312/1297/433 309/1298/433 311/1299/433
f 309/1300/434 312/1301/434 310/1302/434
f 313/1303/435 314/1304/435 315/1305/435
f 314/1306/436 312/1307/436 315/1308/436
f 312/1309/437 313/1310/437 315/1311/437
f 313/1312/438 312/1313/438 314/1314/438
f 316/1315/439 317/1316/439 318/1317/439
f 317/1318/440 312/1319/440 318/1320/440
f 312/1321/441 316/1322/441 318/1323/441
f 316/1324/442 312/1325/442 317/1326/442
f 319/1327/443 320/1328/443 321/1329/443
f 320/1330/444 312/1331/444 321/1332/444
f 312/1333/445 319/1334/445 321/1335/445
f 319/1336/446 312/1337/446 320/1338/446
f 322/1339/447 323/1340/447 324/1341/447
f 323/1342/448 312/1343/448 324/1344/448
f 312/1345/449 322/1346/449 324/1347/449
f 322/1348/450 312/1349/450 323/1350/450
f 325/1351/451 326/1352/451 327/1353/451
f 326/1354/452 328/1355/452 327/1356/452
f 328/1357/453 325/1358/453 327/1359/453
f 325/1360/454 328/1361/454 326/1362/454
f 329/1363/455 330/1364/455 331/1365/455
f 329/1366/456 331/1367/456 332/1368/456
f 330/1369/457 333/1370/457 334/1371/457
f 330/1372/458 334/1373/458 331/1374/458
f 333/1375/459 335/1376/459 336/1377/459
f 333/1378/460 336/1379/460 334/1380/460
f 335/1381/461 329/1382/461 332/1383/461
f 335/1384/462 332/1385/462 336/1386/462
f 335/1387/463 333/1388/463 330/1389/463
f 335/1390/464 330/1391/464 329/1392/464
f 332/1393/465 331/1394/465 334/1395/465
f 332/1396/466 334/1397/466 336/1398/466
f 337/1399/467 338/1400/467 339/1401/467
f 338/1402/468 340/1403/468 339/1404/468
f 340/1405/469 337/1406/469 339/1407/469
f 337/1408/470 340/1409/470 338/1410/470
f 338/1411/471 337/1412/471 341/1413/471
f 337/1414/472 340/1415/472 341/1416/472
f 340/1417/473 338/1418/473 341/1419/473
f 338/1420/474 340/1421/474 337/1422/474
f 342/1423/475 343/1424/475 344/1425/475
f 343/1426/476 345/1427/476 344/1428/476
f 345/1429/477 342/1430/477 344/1431/477
f 342/1432/478 345/1433/478 343/1434/478
f 346/1435/479 347/1436/479 348/1437/479
f 347/1438/480 345/1439/480 348/1440/480
f 345/1441/481 346/1442/481 348/1443/481
f 346/1444/482 345/1445/482 347/1446/482
f 349/1447/483 350/1448/483 351/1449/483
f 350/1450/484 345/1451/484 351/1452/484
f 345/1453/485 349/1454/485 351/1455/485
f 349/1456/486 345/1457/486 350/1458/486
f 352/1459/487 353/1460/487 354/1461/487
f 353/1462/488 345/1463/488 354/1464/488
f 345/1465/489 352/1466/489 354/1467/489
f 352/1468/490 345/1469/490 353/1470/490
f 355/1471/491 356/1472/491 357/1473/491
f 356/1474/492 345/1475/492 357/1476/492
f 345/1477/493 355/1478/493 357/1479/493
f 355/1480/494 345/1481/494 356/1482/494
f 358/1483/495 359/1484/495 360/1485/495
f 359/1486/496 361/1487/496 360/1488/496
f 361/1489/497 358/1490/497 360/1491/497
f 358/1492/498 361/1493/498 359/1494/498
f 362/1495/499 363/1496/499 364/1497/499
f 362/1498/500 364/1499/500 365/1500/500
f 363/1501/501 366/1502/501 367/1503/501
f 363/1504/502 367/1505/502 364/1506/502
f 366/1507/503 368/1508/503 369/1509/503
f 366/1510/504 369/1511/504 367/1512/504
f 368/1513/505 362/1514/505 365/1515/505
f 368/1516/506 365/1517/506 369/1518/506
f 368/1519/507 366/1520/507 363/1521/507
f 368/1522/508 363/1523/508 362/1524/508
f 365/1525/509 364/1526/509 367/1527/509
f 365/1528/510 367/1529/510 369/1530/510
f 370/1531/511 371/1532/511 372/1533/511
f 371/1534/512 373/1535/512 372/1536/512
f 373/1537/513 370/1538/513 372/1539/513
f 370/1540/514 373/1541/514 371/1542/514
f 371/1543/515 370/1544/515 374/1545/515
f 370/1546/516 373/1547/516 374/1548/516
f 373/1549/517 371/1550/517 374/1551/517
f 371/1552/518 373/1553/518 370/1554/518
f 375/1555/519 376/1556/519 377/1557/519
f 376/1558/520 378/1559/520 377/1560/520
f 378/1561/521 375/1562/521 377/1563/521
f 375/1564/522 378/1565/522 376/1566/522
f 379/1567/523 380/1568/523 381/1569/523
f 380/1570/524 378/1571/524 381/1572/524
f 378/1573/525 379/1574/525 381/1575/525
f 379/1576/526 378/1577/526 380/1578/526
f 382/1579/527 383/1580/527 384/1581/527
f 383/1582/528 378/1583/528 384/1584/528
f 378/1585/529 382/1586/529 384/1587/529
f 382/1588/530 378/1589/530 383/1590/530
f 385/1591/531 386/1592/531 387/1593/531
f 386/1594/532 378/1595/532 387/1596/532
f 378/1597/533 385/1598/533 387/1599/533
f 385/1600/534 378/1601/534 386/1602/534
f 388/1603/535 389/1604/535 390/1605/535
f 389/1606/536 378/1607/536 390/1608/536
f 378/1609/537 388/1610/537 390/1611/537
f 388/1612/538 378/1613/538 389/1614/538
f 391/1615/539 392/1616/539 393/1617/539
f 392/1618/540 394/1619/540 393/1620/540
f 394/1621/541 391/1622/541 393/1623/541
f 391/1624/542 394/1625/542 392/1626/542
f 395/1627/543 396/1628/543 397/1629/543
f 395/1630/544 397/1631/544 398/1632/544
f 396/1633/545 399/1634/545 400/1635/545
f 396/1636/546 400/1637/546 397/1638/546
f 399/1639/547 401/1640/547 402/1641/547
f 399/1642/548 402/1643/548 400/1644/548
f 401/1645/549 395/1646/549 398/1647/549
f 401/1648/550 398/1649/550 402/1650/550
f 401/1651/551 399/1652/551 396/1653/551
f 401/1654/552 396/1655/552 395/1656/552
f 398/1657/553 397/1658/553 400/1659/553
f 398/1660/554 400/1661/554 402/1662/554
f 403/1663/555 404/1664/555 405/1665/555
f 404/1666/556 406/1667/556 405/1668/556
f 406/1669/557 403/1670/557 405/1671/557
f 403/1672/558 406/1673/558 404/1674/558
f 404/1675/559 403/1676/559 407/1677/559
f 403/1678/560 406/1679/560 407/1680/560
f 406/1681/561 404/1682/561 407/1683/561
f 404/1684/562 406/1685/562 403/1686/562
f 408/1687/563 409/1688/563 410/1689/563
f 409/1690/564 411/1691/564 410/1692/564
f 411/1693/565 408/1694/565 410/1695/565
f 408/1696/566 411/1697/566 409/1698/566
f 412/1699/567 413/1700/567 414/1701/567
f 413/1702/568 411/1703/568 414/1704/568
f 411/1705/569 412/1706/569 414/1707/569
f 412/1708/570 411/1709/570 413/1710/570
f 415/1711/571 416/1712/571 417/1713/571
f 416/1714/572 411/1715/572 417/1716/572
f 411/1717/573 415/1718/573 417/1719/573
f 415/1720/574 411/1721/574 416/1722/574
f 418/1723/575 419/1724/575 420/1725/575
f 419/1726/576 411/1727/576 420/1728/576
f 411/1729/577 418/1730/577 420/1731/577
f 418/1732/578 411/1733/578 419/1734/578
f 421/1735/579 422/1736/579 423/1737/579
f 422/1738/580 411/1739/580 423/1740/580
f 411/1741/581 421/1742/581 423/1743/581
f 421/1744/582 411/1745/582 422/1746/582
f 424/1747/583 425/1748/583 426/1749/583
f 425/1750/584 427/1751/584 426/1752/584
f 427/1753/585 424/1754/585 426/1755/585
f 424/1756/586 427/1757/586 425/1758/586
