mtllib TorusNature_GrassA.mtl
o TorusNature_GrassA
usemtl TorusNatureKit
s off
v 0.000000 0.000000 0.011250
v 0.000000 0.000000 -0.011250
v 0.004500 0.006250 0.000000
v 0.036550 0.107500 0.000000
v -0.022556 0.000000 0.005406
v -0.007357 0.000000 0.021997
v -0.018275 0.006250 0.016741
v -0.057263 0.168750 0.052458
v 0.013715 0.000000 -0.027592
v -0.008699 0.000000 -0.029559
v 0.002901 0.006250 -0.033058
v 0.005963 0.116250 -0.067949
v 0.012448 0.000000 0.034726
v 0.030304 0.000000 0.021036
v 0.024114 0.006250 0.031452
v 0.058096 0.177500 0.075774
v -0.037988 0.000000 -0.018144
v -0.041907 0.000000 0.004012
v -0.044379 0.006250 -0.007849
v -0.081798 0.125000 -0.014468
v 0.044307 0.000000 -0.014852
v 0.032230 0.000000 -0.033836
v 0.042066 0.006250 -0.026760
v 0.091699 0.186250 -0.058333
v -0.023762 0.000000 0.045061
v -0.002033 0.000000 0.050902
v -0.014066 0.006250 0.052327
v -0.024702 0.133750 0.091898
v -0.014752 0.000000 -0.052810
v -0.034720 0.000000 -0.042439
v -0.026810 0.006250 -0.051618
v -0.055295 0.195000 -0.106462
v 0.050031 0.000000 0.030247
v 0.057749 0.000000 0.009112
v 0.058117 0.006250 0.021223
v 0.099401 0.142500 0.036298
v -0.060540 0.000000 0.012821
v -0.051954 0.000000 0.033619
v -0.060406 0.006250 0.024937
v -0.120280 0.203750 0.049654
v 0.037374 0.000000 -0.053329
v 0.016995 0.000000 -0.062865
v 0.029092 0.006250 -0.062173
v 0.048980 0.151250 -0.104675
v 0.009402 0.000000 0.067557
v 0.030870 0.000000 0.060822
v 0.021483 0.006250 0.068483
v 0.041762 0.212500 0.133127
v -0.055155 0.000000 -0.044963
v -0.066436 0.000000 -0.025495
v -0.064689 0.006250 -0.037485
v -0.107864 0.160000 -0.062504
v 0.073844 0.000000 -0.004719
v 0.069011 0.000000 -0.026694
v 0.075822 0.006250 -0.016673
v 0.107125 0.107500 -0.023556
v -0.052850 0.000000 0.055619
v -0.034443 0.000000 0.068558
v -0.046234 0.006250 0.065770
v -0.076642 0.168750 0.109026
v 0.001057 0.000000 -0.079353
v -0.021256 0.000000 -0.076460
v -0.010678 0.006250 -0.082369
v -0.015181 0.116250 -0.117104
v 0.054793 0.000000 0.060887
v 0.069292 0.000000 0.043681
v 0.065483 0.006250 0.055184
v 0.108191 0.177500 0.091174
v -0.084026 0.000000 -0.007780
v -0.083095 0.000000 0.014700
v -0.088056 0.006250 0.003646
v -0.126024 0.125000 0.005218
v 0.068932 0.000000 -0.052732
v 0.053060 0.000000 -0.068680
v 0.064185 0.006250 -0.063880
v 0.105880 0.186250 -0.105377
v -0.015317 0.000000 0.087802
v 0.007159 0.000000 0.088839
v -0.004286 0.006250 0.092816
v -0.006176 0.133750 0.133747
v -0.049487 0.000000 -0.076852
v -0.066761 0.000000 -0.062434
v -0.061008 0.006250 -0.073098
v -0.100606 0.195000 -0.120544
v 0.090623 0.000000 0.023538
v 0.093622 0.000000 0.001239
v 0.096582 0.006250 0.012988
v 0.140140 0.142500 0.018846
v -0.084518 0.000000 0.045108
v -0.071666 0.000000 0.063577
v -0.081785 0.006250 0.056913
v -0.134954 0.203750 0.093912
v 0.032319 0.000000 -0.092439
v 0.010368 0.000000 -0.097375
v 0.022331 0.006250 -0.099297
v 0.032627 0.151250 -0.145079
v 0.039651 0.000000 0.091808
v 0.059172 0.000000 0.080620
v 0.051649 0.006250 0.090118
v 0.085337 0.212500 0.148898
v -0.093205 0.000000 -0.041535
v -0.100042 0.000000 -0.020099
v -0.100910 0.006250 -0.032184
v -0.148451 0.160000 -0.047347
v 0.098606 0.000000 -0.033175
v 0.089167 0.000000 -0.053600
v 0.097971 0.006250 -0.045275
v 0.127065 0.107500 -0.058720
v -0.051059 0.000000 0.092887
v -0.030303 0.000000 0.101572
v -0.042418 0.006250 0.101381
v -0.062827 0.168750 0.150158
v -0.025750 0.000000 -0.104802
v -0.046921 0.000000 -0.097185
v -0.037859 0.006250 -0.105228
v -0.049716 0.116250 -0.138185
v 0.091462 0.000000 0.060767
v 0.101928 0.000000 0.040850
v 0.100679 0.006250 0.052902
v 0.150119 0.177500 0.078880
v -0.110295 0.000000 0.017450
v -0.104558 0.000000 0.039206
v -0.111777 0.006250 0.029476
v -0.148521 0.125000 0.039165
v 0.070533 0.000000 -0.088915
v 0.051607 0.000000 -0.101082
v 0.063503 0.006250 -0.098784
v 0.095313 0.186250 -0.148266
v 0.008359 0.000000 0.114989
v 0.030533 0.000000 0.111175
v 0.020209 0.006250 0.117517
v 0.027153 0.133750 0.157899
v -0.085244 0.000000 -0.080232
v -0.099019 0.000000 -0.062441
v -0.095690 0.006250 -0.074091
v -0.144554 0.195000 -0.111926
v 0.118798 0.000000 0.001433
v 0.116938 0.000000 -0.020990
v 0.122353 0.006250 -0.010150
v 0.166153 0.142500 -0.013784
vt 0.773438 0.773438
vt 0.976562 0.773438
vt 0.875000 0.976562
vt 0.773438 0.773438
vt 0.976562 0.773438
vt 0.875000 0.976562
vt 0.773438 0.773438
vt 0.976562 0.773438
vt 0.875000 0.976562
vt 0.773438 0.773438
vt 0.976562 0.773438
vt 0.875000 0.976562
vt 0.773438 0.773438
vt 0.976562 0.773438
vt 0.875000 0.976562
vt 0.773438 0.773438
vt 0.976562 0.773438
vt 0.875000 0.976562
vt 0.773438 0.773438
vt 0.976562 0.773438
vt 0.875000 0.976562
vt 0.773438 0.773438
vt 0.976562 0.773438
vt 0.875000 0.976562
vt 0.773438 0.773438
vt 0.976562 0.773438
vt 0.875000 0.976562
vt 0.773438 0.773438
vt 0.976562 0.773438
vt 0.875000 0.976562
vt 0.773438 0.773438
vt 0.976562 0.773438
vt 0.875000 0.976562
vt 0.773438 0.773438
vt 0.976562 0.773438
vt 0.875000 0.976562
vt 0.773438 0.773438
vt 0.976562 0.773438
vt 0.875000 0.976562
vt 0.773438 0.773438
vt 0.976562 0.773438
vt 0.875000 0.976562
vt 0.773438 0.773438
vt 0.976562 0.773438
vt 0.875000 0.976562
vt 0.773438 0.773438
vt 0.976562 0.773438
vt 0.875000 0.976562
vt 0.773438 0.773438
vt 0.976562 0.773438
vt 0.875000 0.976562
vt 0.773438 0.773438
vt 0.976562 0.773438
vt 0.875000 0.976562
vt 0.773438 0.773438
vt 0.976562 0.773438
vt 0.875000 0.976562
vt 0.773438 0.773438
vt 0.976562 0.773438
vt 0.875000 0.976562
vt 0.773438 0.773438
vt 0.976562 0.773438
vt 0.875000 0.976562
vt 0.773438 0.773438
vt 0.976562 0.773438
vt 0.875000 0.976562
vt 0.773438 0.773438
vt 0.976562 0.773438
vt 0.875000 0.976562
vt 0.773438 0.773438
vt 0.976562 0.773438
vt 0.875000 0.976562
vt 0.773438 0.773438
vt 0.976562 0.773438
vt 0.875000 0.976562
vt 0.773438 0.773438
vt 0.976562 0.773438
vt 0.875000 0.976562
vt 0.773438 0.773438
vt 0.976562 0.773438
vt 0.875000 0.976562
vt 0.773438 0.773438
vt 0.976562 0.773438
vt 0.875000 0.976562
vt 0.773438 0.773438
vt 0.976562 0.773438
vt 0.875000 0.976562
vt 0.773438 0.773438
vt 0.976562 0.773438
vt 0.875000 0.976562
vt 0.773438 0.773438
vt 0.976562 0.773438
vt 0.875000 0.976562
vt 0.773438 0.773438
vt 0.976562 0.773438
vt 0.875000 0.976562
vt 0.773438 0.773438
vt 0.976562 0.773438
vt 0.875000 0.976562
vt 0.773438 0.773438
vt 0.976562 0.773438
vt 0.875000 0.976562
vt 0.773438 0.773438
vt 0.976562 0.773438
vt 0.875000 0.976562
vt 0.773438 0.773438
vt 0.976562 0.773438
vt 0.875000 0.976562
vt 0.773438 0.773438
vt 0.976562 0.773438
vt 0.875000 0.976562
vt 0.773438 0.773438
vt 0.976562 0.773438
vt 0.875000 0.976562
vt 0.773438 0.773438
vt 0.976562 0.773438
vt 0.875000 0.976562
vt 0.773438 0.773438
vt 0.976562 0.773438
vt 0.875000 0.976562
vt 0.773438 0.773438
vt 0.976562 0.773438
vt 0.875000 0.976562
vt 0.773438 0.773438
vt 0.976562 0.773438
vt 0.875000 0.976562
vt 0.773438 0.773438
vt 0.976562 0.773438
vt 0.875000 0.976562
vt 0.773438 0.773438
vt 0.976562 0.773438
vt 0.875000 0.976562
vt 0.773438 0.773438
vt 0.976562 0.773438
vt 0.875000 0.976562
vt 0.773438 0.773438
vt 0.976562 0.773438
vt 0.875000 0.976562
vt 0.773438 0.773438
vt 0.976562 0.773438
vt 0.875000 0.976562
vt 0.773438 0.773438
vt 0.976562 0.773438
vt 0.875000 0.976562
vt 0.773438 0.773438
vt 0.976562 0.773438
vt 0.875000 0.976562
vt 0.773438 0.773438
vt 0.976562 0.773438
vt 0.875000 0.976562
vt 0.773438 0.773438
vt 0.976562 0.773438
vt 0.875000 0.976562
vt 0.773438 0.773438
vt 0.976562 0.773438
vt 0.875000 0.976562
vt 0.773438 0.773438
vt 0.976562 0.773438
vt 0.875000 0.976562
vt 0.773438 0.773438
vt 0.976562 0.773438
vt 0.875000 0.976562
vt 0.773438 0.773438
vt 0.976562 0.773438
vt 0.875000 0.976562
vt 0.773438 0.773438
vt 0.976562 0.773438
vt 0.875000 0.976562
vt 0.773438 0.773438
vt 0.976562 0.773438
vt 0.875000 0.976562
vt 0.773438 0.773438
vt 0.976562 0.773438
vt 0.875000 0.976562
vt 0.773438 0.773438
vt 0.976562 0.773438
vt 0.875000 0.976562
vt 0.773438 0.773438
vt 0.976562 0.773438
vt 0.875000 0.976562
vt 0.773438 0.773438
vt 0.976562 0.773438
vt 0.875000 0.976562
vt 0.773438 0.773438
vt 0.976562 0.773438
vt 0.875000 0.976562
vt 0.773438 0.773438
vt 0.976562 0.773438
vt 0.875000 0.976562
vt 0.773438 0.773438
vt 0.976562 0.773438
vt 0.875000 0.976562
vt 0.773438 0.773438
vt 0.976562 0.773438
vt 0.875000 0.976562
vt 0.773438 0.773438
vt 0.976562 0.773438
vt 0.875000 0.976562
vt 0.773438 0.773438
vt 0.976562 0.773438
vt 0.875000 0.976562
vt 0.773438 0.773438
vt 0.976562 0.773438
vt 0.875000 0.976562
vt 0.773438 0.773438
vt 0.976562 0.773438
vt 0.875000 0.976562
vt 0.773438 0.773438
vt 0.976562 0.773438
vt 0.875000 0.976562
vt 0.773438 0.773438
vt 0.976562 0.773438
vt 0.875000 0.976562
vt 0.773438 0.773438
vt 0.976562 0.773438
vt 0.875000 0.976562
vt 0.773438 0.773438
vt 0.976562 0.773438
vt 0.875000 0.976562
vt 0.773438 0.773438
vt 0.976562 0.773438
vt 0.875000 0.976562
vt 0.773438 0.773438
vt 0.976562 0.773438
vt 0.875000 0.976562
vt 0.773438 0.773438
vt 0.976562 0.773438
vt 0.875000 0.976562
vt 0.773438 0.773438
vt 0.976562 0.773438
vt 0.875000 0.976562
vt 0.773438 0.773438
vt 0.976562 0.773438
vt 0.875000 0.976562
vt 0.773438 0.773438
vt 0.976562 0.773438
vt 0.875000 0.976562
vt 0.773438 0.773438
vt 0.976562 0.773438
vt 0.875000 0.976562
vt 0.773438 0.773438
vt 0.976562 0.773438
vt 0.875000 0.976562
vt 0.773438 0.773438
vt 0.976562 0.773438
vt 0.875000 0.976562
vt 0.773438 0.773438
vt 0.976562 0.773438
vt 0.875000 0.976562
vt 0.773438 0.773438
vt 0.976562 0.773438
vt 0.875000 0.976562
vt 0.773438 0.773438
vt 0.976562 0.773438
vt 0.875000 0.976562
vt 0.773438 0.773438
vt 0.976562 0.773438
vt 0.875000 0.976562
vt 0.773438 0.773438
vt 0.976562 0.773438
vt 0.875000 0.976562
vt 0.773438 0.773438
vt 0.976562 0.773438
vt 0.875000 0.976562
vt 0.773438 0.773438
vt 0.976562 0.773438
vt 0.875000 0.976562
vt 0.773438 0.773438
vt 0.976562 0.773438
vt 0.875000 0.976562
vt 0.773438 0.773438
vt 0.976562 0.773438
vt 0.875000 0.976562
vt 0.773438 0.773438
vt 0.976562 0.773438
vt 0.875000 0.976562
vt 0.773438 0.773438
vt 0.976562 0.773438
vt 0.875000 0.976562
vt 0.773438 0.773438
vt 0.976562 0.773438
vt 0.875000 0.976562
vt 0.773438 0.773438
vt 0.976562 0.773438
vt 0.875000 0.976562
vt 0.773438 0.773438
vt 0.976562 0.773438
vt 0.875000 0.976562
vt 0.773438 0.773438
vt 0.976562 0.773438
vt 0.875000 0.976562
vt 0.773438 0.773438
vt 0.976562 0.773438
vt 0.875000 0.976562
vt 0.773438 0.773438
vt 0.976562 0.773438
vt 0.875000 0.976562
vt 0.773438 0.773438
vt 0.976562 0.773438
vt 0.875000 0.976562
vt 0.773438 0.773438
vt 0.976562 0.773438
vt 0.875000 0.976562
vt 0.773438 0.773438
vt 0.976562 0.773438
vt 0.875000 0.976562
vt 0.773438 0.773438
vt 0.976562 0.773438
vt 0.875000 0.976562
vt 0.773438 0.773438
vt 0.976562 0.773438
vt 0.875000 0.976562
vt 0.773438 0.773438
vt 0.976562 0.773438
vt 0.875000 0.976562
vt 0.773438 0.773438
vt 0.976562 0.773438
vt 0.875000 0.976562
vt 0.773438 0.773438
vt 0.976562 0.773438
vt 0.875000 0.976562
vt 0.773438 0.773438
vt 0.976562 0.773438
vt 0.875000 0.976562
vt 0.773438 0.773438
vt 0.976562 0.773438
vt 0.875000 0.976562
vt 0.773438 0.773438
vt 0.976562 0.773438
vt 0.875000 0.976562
vt 0.773438 0.773438
vt 0.976562 0.773438
vt 0.875000 0.976562
vt 0.773438 0.773438
vt 0.976562 0.773438
vt 0.875000 0.976562
vt 0.773438 0.773438
vt 0.976562 0.773438
vt 0.875000 0.976562
vt 0.773438 0.773438
vt 0.976562 0.773438
vt 0.875000 0.976562
vt 0.773438 0.773438
vt 0.976562 0.773438
vt 0.875000 0.976562
vt 0.773438 0.773438
vt 0.976562 0.773438
vt 0.875000 0.976562
vt 0.773438 0.773438
vt 0.976562 0.773438
vt 0.875000 0.976562
vt 0.773438 0.773438
vt 0.976562 0.773438
vt 0.875000 0.976562
vt 0.773438 0.773438
vt 0.976562 0.773438
vt 0.875000 0.976562
vt 0.773438 0.773438
vt 0.976562 0.773438
vt 0.875000 0.976562
vt 0.773438 0.773438
vt 0.976562 0.773438
vt 0.875000 0.976562
vt 0.773438 0.773438
vt 0.976562 0.773438
vt 0.875000 0.976562
vt 0.773438 0.773438
vt 0.976562 0.773438
vt 0.875000 0.976562
vt 0.773438 0.773438
vt 0.976562 0.773438
vt 0.875000 0.976562
vt 0.773438 0.773438
vt 0.976562 0.773438
vt 0.875000 0.976562
vt 0.773438 0.773438
vt 0.976562 0.773438
vt 0.875000 0.976562
vt 0.773438 0.773438
vt 0.976562 0.773438
vt 0.875000 0.976562
vt 0.773438 0.773438
vt 0.976562 0.773438
vt 0.875000 0.976562
vt 0.773438 0.773438
vt 0.976562 0.773438
vt 0.875000 0.976562
vt 0.773438 0.773438
vt 0.976562 0.773438
vt 0.875000 0.976562
vt 0.773438 0.773438
vt 0.976562 0.773438
vt 0.875000 0.976562
vt 0.773438 0.773438
vt 0.976562 0.773438
vt 0.875000 0.976562
vt 0.773438 0.773438
vt 0.976562 0.773438
vt 0.875000 0.976562
vt 0.773438 0.773438
vt 0.976562 0.773438
vt 0.875000 0.976562
vt 0.773438 0.773438
vt 0.976562 0.773438
vt 0.875000 0.976562
vt 0.773438 0.773438
vt 0.976562 0.773438
vt 0.875000 0.976562
vt 0.773438 0.773438
vt 0.976562 0.773438
vt 0.875000 0.976562
vt 0.773438 0.773438
vt 0.976562 0.773438
vt 0.875000 0.976562
vt 0.773438 0.773438
vt 0.976562 0.773438
vt 0.875000 0.976562
vt 0.773438 0.773438
vt 0.976562 0.773438
vt 0.875000 0.976562
vn 0.81153434 -0.58430473 0.00000000
vn -0.94677274 0.32190273 0.00000000
vn 0.93232666 -0.29512167 -0.20897418
vn 0.93232666 -0.29512167 0.20897418
vn -0.59838999 -0.58431425 0.54818453
vn 0.69811461 0.32190342 -0.63954216
vn -0.54856365 -0.30290504 0.77931153
vn -0.82428515 -0.30290387 0.47833382
vn 0.07094732 -0.58427864 -0.80844601
vn -0.08276849 0.32190125 0.94314843
vn -0.12564685 -0.29677023 -0.94664687
vn 0.28859453 -0.29677125 -0.91029667
vn 0.49377765 -0.58429223 0.64403899
vn -0.57605721 0.32190176 -0.75135701
vn 0.72795851 -0.30356079 0.61475788
vn 0.40471153 -0.30355963 0.86258920
vn -0.79912071 -0.58431689 -0.14135016
vn 0.93230039 0.32190305 0.16490726
vn -0.95360529 -0.29816768 0.04162923
vn -0.88147500 -0.29817040 -0.36619153
vn 0.68467462 -0.58438131 -0.43556761
vn -0.79882658 0.32190327 0.50818735
vn 0.67607207 -0.30414055 -0.67113715
vn 0.89439605 -0.30414424 -0.32795121
vn -0.21067303 -0.58429297 0.78372100
vn 0.24577796 0.32190480 -0.91431422
vn -0.04262247 -0.29938520 0.95317985
vn -0.44105308 -0.29938103 0.84607516
vn -0.37405416 -0.58430015 -0.72019221
vn 0.43638669 0.32190319 0.84020533
vn -0.60902693 -0.30468842 -0.73229172
vn -0.24881400 -0.30468800 -0.91937849
vn 0.76229744 -0.58430398 0.27837292
vn -0.88932969 0.32190416 -0.32476208
vn 0.94540136 -0.30043416 0.12631540
vn 0.80432545 -0.30043187 0.51264145
vn -0.75015615 -0.58426073 0.30968558
vn 0.87513242 0.32190141 -0.36127930
vn -0.78277122 -0.30517835 0.54234251
vn -0.93739575 -0.30517965 0.16779332
vn 0.34394328 -0.58432688 -0.73502728
vn -0.40126753 0.32190400 0.85753261
vn 0.20891653 -0.30135448 -0.93034368
vn 0.58042147 -0.30135387 -0.75650298
vn 0.24292579 -0.58429096 0.77433270
vn -0.28340477 0.32190274 -0.90336059
vn 0.47158563 -0.30562205 0.82716513
vn 0.08542465 -0.30562440 0.94831237
vn -0.70217252 -0.58429407 -0.40688351
vn 0.81917841 0.32190319 0.47468418
vn -0.90812284 -0.30217572 -0.28983226
vn -0.70303114 -0.30217741 -0.64376706
vn 0.79262026 -0.58426436 -0.17432235
vn -0.92467276 0.32190529 0.20336489
vn 0.86569338 -0.29512821 -0.40431956
vn 0.95544834 -0.29513405 0.00378861
vn -0.46669861 -0.58429141 0.66392467
vn 0.54446582 0.32190016 -0.77455617
vn -0.36838523 -0.30290137 0.87894430
vn -0.70229613 -0.30290528 0.64422709
vn -0.10434763 -0.58429112 -0.80480771
vn 0.12173505 0.32190643 0.93891258
vn -0.32604226 -0.29677337 -0.89756449
vn 0.08636333 -0.29677523 -0.95103409
vn 0.62059413 -0.58427660 0.52295677
vn -0.72399523 0.32190248 -0.61008991
vn 0.84299673 -0.30356268 0.44407905
vn 0.58054496 -0.30356339 0.75552420
vn -0.81087950 -0.58424881 0.03358224
vn 0.94596214 0.32190189 -0.03917663
vn -0.92242803 -0.29817687 0.24539171
vn -0.93955870 -0.29817787 -0.16828372
vn 0.57523949 -0.58424768 -0.57249819
vn -0.67106636 0.32190331 0.66786840
vn 0.51629425 -0.30415857 -0.80057967
vn 0.80303467 -0.30415784 -0.51246789
vn -0.03740212 -0.58432723 0.81065576
vn 0.04363589 0.32190194 -0.94576691
vn 0.16318193 -0.29937214 0.94007871
vn -0.24903397 -0.29937772 0.92106192
vn -0.52000139 -0.58434730 -0.62300625
vn 0.60668052 0.32190083 0.72685528
vn -0.75214735 -0.30467728 -0.58433390
vn -0.44045592 -0.30468314 -0.84449202
vn 0.80431651 -0.58427185 0.10817280
vn -0.93832520 0.32190133 -0.12619567
vn 0.95047197 -0.30043398 -0.07963951
vn 0.89566135 -0.30043419 0.32791775
vn -0.66614916 -0.58426404 0.46355239
vn 0.77713170 0.32190294 -0.54078167
vn -0.64803529 -0.30517996 0.69779327
vn -0.87949056 -0.30518060 0.36518648
vn 0.17804367 -0.58427865 -0.79178211
vn -0.20770894 0.32190362 0.92370723
vn 0.00425149 -0.30135846 -0.95350144
vn 0.40434464 -0.30136097 -0.86353169
vn 0.40354270 -0.58428213 0.70410772
vn -0.47078241 0.32189894 -0.82142863
vn 0.63820470 -0.30561991 0.70660543
vn 0.28707994 -0.30562053 0.90784426
vn -0.77320745 -0.58423603 -0.24661408
vn 0.90200435 0.32190130 0.28769377
vn -0.94916997 -0.30218169 -0.08810559
vn -0.82490155 -0.30218165 -0.47772763
vn 0.73670051 -0.58426478 -0.34045122
vn -0.85943788 0.32190229 0.39717181
vn 0.75868584 -0.29512768 -0.58077143
vn 0.93397776 -0.29512826 -0.20145682
vn -0.31324951 -0.58432488 0.74862486
vn 0.36545772 0.32190189 -0.87339557
vn -0.17104490 -0.30290201 0.93754681
vn -0.54762080 -0.30290026 0.77997621
vn -0.27473214 -0.58432413 -0.76360170
vn 0.32052028 0.32190456 0.89086711
vn -0.51121436 -0.29676636 -0.80659135
vn -0.11984526 -0.29676776 -0.94739960
vn 0.71835835 -0.58435221 0.37748348
vn -0.83810459 0.32190314 -0.44040783
vn 0.91871211 -0.30355589 0.25262992
vn 0.72918295 -0.30355242 0.61330918
vn -0.78474462 -0.58425487 0.20693509
vn 0.91547950 0.32189862 -0.24140954
vn -0.84820024 -0.29817183 0.43777838
vn -0.95377734 -0.29817449 0.03742662
vn 0.43885250 -0.58429997 -0.68264342
vn -0.51198336 0.32190108 0.79639986
vn 0.33226225 -0.30414933 -0.89280176
vn 0.67428354 -0.30414936 -0.67293006
vn 0.13756480 -0.58431797 0.79978024
vn -0.16049127 0.32190174 -0.93307118
vn 0.36125200 -0.29937289 0.88310411
vn -0.04541772 -0.29937879 0.95305276
vn -0.64167531 -0.58430655 -0.49682859
vn 0.74860928 0.32190063 0.57962413
vn -0.86006220 -0.30468307 -0.40922028
vn -0.61155740 -0.30468624 -0.73018069
vn 0.80873460 -0.58433548 -0.06708497
vn -0.94353046 0.32190782 0.07826636
vn 0.91117766 -0.30043434 -0.28194764
vn 0.94517821 -0.30043097 0.12798196
f 1/1/1 2/2/1 3/3/1
f 4/4/2 2/5/2 1/6/2
f 4/7/3 3/8/3 2/9/3
f 4/10/4 1/11/4 3/12/4
f 5/13/5 6/14/5 7/15/5
f 8/16/6 6/17/6 5/18/6
f 8/19/7 7/20/7 6/21/7
f 8/22/8 5/23/8 7/24/8
f 9/25/9 10/26/9 11/27/9
f 12/28/10 10/29/10 9/30/10
f 12/31/11 11/32/11 10/33/11
f 12/34/12 9/35/12 11/36/12
f 13/37/13 14/38/13 15/39/13
f 16/40/14 14/41/14 13/42/14
f 16/43/15 15/44/15 14/45/15
f 16/46/16 13/47/16 15/48/16
f 17/49/17 18/50/17 19/51/17
f 20/52/18 18/53/18 17/54/18
f 20/55/19 19/56/19 18/57/19
f 20/58/20 17/59/20 19/60/20
f 21/61/21 22/62/21 23/63/21
f 24/64/22 22/65/22 21/66/22
f 24/67/23 23/68/23 22/69/23
f 24/70/24 21/71/24 23/72/24
f 25/73/25 26/74/25 27/75/25
f 28/76/26 26/77/26 25/78/26
f 28/79/27 27/80/27 26/81/27
f 28/82/28 25/83/28 27/84/28
f 29/85/29 30/86/29 31/87/29
f 32/88/30 30/89/30 29/90/30
f 32/91/31 31/92/31 30/93/31
f 32/94/32 29/95/32 31/96/32
f 33/97/33 34/98/33 35/99/33
f 36/100/34 34/101/34 33/102/34
f 36/103/35 35/104/35 34/105/35
f 36/106/36 33/107/36 35/108/36
f 37/109/37 38/110/37 39/111/37
f 40/112/38 38/113/38 37/114/38
f 40/115/39 39/116/39 38/117/39
f 40/118/40 37/119/40 39/120/40
f 41/121/41 42/122/41 43/123/41
f 44/124/42 42/125/42 41/126/42
f 44/127/43 43/128/43 42/129/43
f 44/130/44 41/131/44 43/132/44
f 45/133/45 46/134/45 47/135/45
f 48/136/46 46/137/46 45/138/46
f 48/139/47 47/140/47 46/141/47
f 48/142/48 45/143/48 47/144/48
f 49/145/49 50/146/49 51/147/49
f 52/148/50 50/149/50 49/150/50
f 52/151/51 51/152/51 50/153/51
f 52/154/52 49/155/52 51/156/52
f 53/157/53 54/158/53 55/159/53
f 56/160/54 54/161/54 53/162/54
f 56/163/55 55/164/55 54/165/55
f 56/166/56 53/167/56 55/168/56
f 57/169/57 58/170/57 59/171/57
f 60/172/58 58/173/58 57/174/58
f 60/175/59 59/176/59 58/177/59
f 60/178/60 57/179/60 59/180/60
f 61/181/61 62/182/61 63/183/61
f 64/184/62 62/185/62 61/186/62
f 64/187/63 63/188/63 62/189/63
f 64/190/64 61/191/64 63/192/64
f 65/193/65 66/194/65 67/195/65
f 68/196/66 66/197/66 65/198/66
f 68/199/67 67/200/67 66/201/67
f 68/202/68 65/203/68 67/204/68
f 69/205/69 70/206/69 71/207/69
f 72/208/70 70/209/70 69/210/70
f 72/211/71 71/212/71 70/213/71
f 72/214/72 69/215/72 71/216/72
f 73/217/73 74/218/73 75/219/73
f 76/220/74 74/221/74 73/222/74
f 76/223/75 75/224/75 74/225/75
f 76/226/76 73/227/76 75/228/76
f 77/229/77 78/230/77 79/231/77
f 80/232/78 78/233/78 77/234/78
f 80/235/79 79/236/79 78/237/79
f 80/238/80 77/239/80 79/240/80
f 81/241/81 82/242/81 83/243/81
f 84/244/82 82/245/82 81/246/82
f 84/247/83 83/248/83 82/249/83
f 84/250/84 81/251/84 83/252/84
f 85/253/85 86/254/85 87/255/85
f 88/256/86 86/257/86 85/258/86
f 88/259/87 87/260/87 86/261/87
f 88/262/88 85/263/88 87/264/88
f 89/265/89 90/266/89 91/267/89
f 92/268/90 90/269/90 89/270/90
f 92/271/91 91/272/91 90/273/91
f 92/274/92 89/275/92 91/276/92
f 93/277/93 94/278/93 95/279/93
f 96/280/94 94/281/94 93/282/94
f 96/283/95 95/284/95 94/285/95
f 96/286/96 93/287/96 95/288/96
f 97/289/97 98/290/97 99/291/97
f 100/292/98 98/293/98 97/294/98
f 100/295/99 99/296/99 98/297/99
f 100/298/100 97/299/100 99/300/100
f 101/301/101 102/302/101 103/303/101
f 104/304/102 102/305/102 101/306/102
f 104/307/103 103/308/103 102/309/103
f 104/310/104 101/311/104 103/312/104
f 105/313/105 106/314/105 107/315/105
f 108/316/106 106/317/106 105/318/106
f 108/319/107 107/320/107 106/321/107
f 108/322/108 105/323/108 107/324/108
f 109/325/109 110/326/109 111/327/109
f 112/328/110 110/329/110 109/330/110
f 112/331/111 111/332/111 110/333/111
f 112/334/112 109/335/112 111/336/112
f 113/337/113 114/338/113 115/339/113
f 116/340/114 114/341/114 113/342/114
f 116/343/115 115/344/115 114/345/115
f 116/346/116 113/347/116 115/348/116
f 117/349/117 118/350/117 119/351/117
f 120/352/118 118/353/118 117/354/118
f 120/355/119 119/356/119 118/357/119
f 120/358/120 117/359/120 119/360/120
f 121/361/121 122/362/121 123/363/121
f 124/364/122 122/365/122 121/366/122
f 124/367/123 123/368/123 122/369/123
f 124/370/124 121/371/124 123/372/124
f 125/373/125 126/374/125 127/375/125
f 128/376/126 126/377/126 125/378/126
f 128/379/127 127/380/127 126/381/127
f 128/382/128 125/383/128 127/384/128
f 129/385/129 130/386/129 131/387/129
f 132/388/130 130/389/130 129/390/130
f 132/391/131 131/392/131 130/393/131
f 132/394/132 129/395/132 131/396/132
f 133/397/133 134/398/133 135/399/133
f 136/400/134 134/401/134 133/402/134
f 136/403/135 135/404/135 134/405/135
f 136/406/136 133/407/136 135/408/136
f 137/409/137 138/410/137 139/411/137
f 140/412/138 138/413/138 137/414/138
f 140/415/139 139/416/139 138/417/139
f 140/418/140 137/419/140 139/420/140
