mtllib TorusSettlementFarm_A62.mtl
v -2.6041044 0.0155899 12.0000000
v -0.8680533 0.0017322 12.0000000
v -0.8680533 0.0017322 -12.0000000
v -2.6041044 0.0155899 -12.0000000
v -0.8680533 0.0017322 12.0000000
v 0.8680533 0.0017322 12.0000000
v 0.8680533 0.0017322 -12.0000000
v -0.8680533 0.0017322 -12.0000000
v 0.8680533 0.0017322 12.0000000
v 2.6041044 0.0155899 12.0000000
v 2.6041044 0.0155899 -12.0000000
v 0.8680533 0.0017322 -12.0000000
v -2.6039548 0.0280890 -11.6500000
v -0.8680034 0.0142321 -11.6500000
v -0.8680034 0.0142321 -12.0000000
v -2.6039548 0.0280890 -12.0000000
v -0.8680034 0.0142321 -11.6500000
v 0.8680034 0.0142321 -11.6500000
v 0.8680034 0.0142321 -12.0000000
v -0.8680034 0.0142321 -12.0000000
v 0.8680034 0.0142321 -11.6500000
v 2.6039548 0.0280890 -11.6500000
v 2.6039548 0.0280890 -12.0000000
v 0.8680034 0.0142321 -12.0000000
v -2.6039548 0.0280890 12.0000000
v -0.8680034 0.0142321 12.0000000
v -0.8680034 0.0142321 11.6500000
v -2.6039548 0.0280890 11.6500000
v -0.8680034 0.0142321 12.0000000
v 0.8680034 0.0142321 12.0000000
v 0.8680034 0.0142321 11.6500000
v -0.8680034 0.0142321 11.6500000
v 0.8680034 0.0142321 12.0000000
v 2.6039548 0.0280890 12.0000000
v 2.6039548 0.0280890 11.6500000
v 0.8680034 0.0142321 11.6500000
v -0.2999827 0.0127069 12.0000000
v 0.2999827 0.0127069 12.0000000
v 0.2999827 0.0127069 -12.0000000
v -0.2999827 0.0127069 -12.0000000
v -2.3627990 0.6503722 -1.8000000
v -0.5452715 0.6381855 -1.8000000
v -0.5452715 0.6381855 -9.2400000
v -2.3627990 0.6503722 -9.2400000
v -2.3627990 0.6503722 -9.2400000
v -0.5452715 0.6381855 -9.2400000
v -0.5468430 0.0131875 -9.2400000
v -2.3696086 0.0254093 -9.2400000
v -0.5452715 0.6381855 -9.2400000
v -0.5452715 0.6381855 -1.8000000
v -0.5468430 0.0131875 -1.8000000
v -0.5468430 0.0131875 -9.2400000
v -0.5452715 0.6381855 -1.8000000
v -2.3627990 0.6503722 -1.8000000
v -2.3696086 0.0254093 -1.8000000
v -0.5468430 0.0131875 -1.8000000
v -2.3627990 0.6503722 -1.8000000
v -2.3627990 0.6503722 -9.2400000
v -2.3696086 0.0254093 -9.2400000
v -2.3696086 0.0254093 -1.8000000
v -2.3860727 0.8006361 -5.5200000
v -0.5199850 0.7881238 -5.5200000
v -0.5203449 0.6381243 -9.2650000
v -2.3877242 0.6506452 -9.2650000
v -2.3877242 0.6506452 -1.7750000
v -0.5203449 0.6381243 -1.7750000
v -0.5199850 0.7881238 -5.5200000
v -2.3860727 0.8006361 -5.5200000
v -2.3695541 0.0304090 -1.5500000
v -0.5468304 0.0181875 -1.5500000
v -0.5468304 0.0181875 -1.7750000
v -2.3695541 0.0304090 -1.7750000
v 0.5452715 0.6381855 -1.8000000
v 2.3627990 0.6503722 -1.8000000
v 2.3627990 0.6503722 -9.2400000
v 0.5452715 0.6381855 -9.2400000
v 0.5452715 0.6381855 -9.2400000
v 2.3627990 0.6503722 -9.2400000
v 2.3696086 0.0254093 -9.2400000
v 0.5468430 0.0131875 -9.2400000
v 2.3627990 0.6503722 -9.2400000
v 2.3627990 0.6503722 -1.8000000
v 2.3696086 0.0254093 -1.8000000
v 2.3696086 0.0254093 -9.2400000
v 2.3627990 0.6503722 -1.8000000
v 0.5452715 0.6381855 -1.8000000
v 0.5468430 0.0131875 -1.8000000
v 2.3696086 0.0254093 -1.8000000
v 0.5452715 0.6381855 -1.8000000
v 0.5452715 0.6381855 -9.2400000
v 0.5468430 0.0131875 -9.2400000
v 0.5468430 0.0131875 -1.8000000
v 0.5199850 0.7881238 -5.5200000
v 2.3860727 0.8006361 -5.5200000
v 2.3877242 0.6506452 -9.2650000
v 0.5203449 0.6381243 -9.2650000
v 0.5203449 0.6381243 -1.7750000
v 2.3877242 0.6506452 -1.7750000
v 2.3860727 0.8006361 -5.5200000
v 0.5199850 0.7881238 -5.5200000
v 0.5468304 0.0181875 -1.5500000
v 2.3695541 0.0304090 -1.5500000
v 2.3695541 0.0304090 -1.7750000
v 0.5468304 0.0181875 -1.7750000
v -2.1344465 0.2329842 3.1812500
v -1.8197818 0.2301208 3.1812500
v -1.8197818 0.2301208 3.0587500
v -2.1344465 0.2329842 3.0587500
v -2.1344465 0.2329842 3.0587500
v -1.8197818 0.2301208 3.0587500
v -1.8208078 0.1076251 3.0587500
v -2.1356499 0.1104901 3.0587500
v -1.8197818 0.2301208 3.0587500
v -1.8197818 0.2301208 3.1812500
v -1.8208078 0.1076251 3.1812500
v -1.8208078 0.1076251 3.0587500
v -1.8197818 0.2301208 3.1812500
v -2.1344465 0.2329842 3.1812500
v -2.1356499 0.1104901 3.1812500
v -1.8208078 0.1076251 3.1812500
v -2.1344465 0.2329842 3.1812500
v -2.1344465 0.2329842 3.0587500
v -2.1356499 0.1104901 3.0587500
v -2.1356499 0.1104901 3.1812500
v -1.8758841 0.3131010 3.1725000
v -1.7797724 0.3122922 3.1725000
v -1.7797724 0.3122922 3.0675000
v -1.8758841 0.3131010 3.0675000
v -1.8758841 0.3131010 3.0675000
v -1.7797724 0.3122922 3.0675000
v -1.7806328 0.2072957 3.0675000
v -1.8767909 0.2081049 3.0675000
v -1.7797724 0.3122922 3.0675000
v -1.7797724 0.3122922 3.1725000
v -1.7806328 0.2072957 3.1725000
v -1.7806328 0.2072957 3.0675000
v -1.7797724 0.3122922 3.1725000
v -1.8758841 0.3131010 3.1725000
v -1.8767909 0.2081049 3.1725000
v -1.7806328 0.2072957 3.1725000
v -1.8758841 0.3131010 3.1725000
v -1.8758841 0.3131010 3.0675000
v -1.8767909 0.2081049 3.0675000
v -1.8767909 0.2081049 3.1725000
v -0.8337275 0.2240996 3.1812500
v -0.5190513 0.2231200 3.1812500
v -0.5190513 0.2231200 3.0587500
v -0.8337275 0.2240996 3.0587500
v -0.8337275 0.2240996 3.0587500
v -0.5190513 0.2231200 3.0587500
v -0.5193440 0.1006203 3.0587500
v -0.8341976 0.1016005 3.0587500
v -0.5190513 0.2231200 3.0587500
v -0.5190513 0.2231200 3.1812500
v -0.5193440 0.1006203 3.1812500
v -0.5193440 0.1006203 3.0587500
v -0.5190513 0.2231200 3.1812500
v -0.8337275 0.2240996 3.1812500
v -0.8341976 0.1016005 3.1812500
v -0.5193440 0.1006203 3.1812500
v -0.8337275 0.2240996 3.1812500
v -0.8337275 0.2240996 3.0587500
v -0.8341976 0.1016005 3.0587500
v -0.8341976 0.1016005 3.1812500
v -0.5756493 0.3057628 3.1725000
v -0.4795345 0.3055294 3.1725000
v -0.4795345 0.3055294 3.0675000
v -0.5756493 0.3057628 3.0675000
v -0.5756493 0.3057628 3.0675000
v -0.4795345 0.3055294 3.0675000
v -0.4797664 0.2005296 3.0675000
v -0.5759276 0.2007632 3.0675000
v -0.4795345 0.3055294 3.0675000
v -0.4795345 0.3055294 3.1725000
v -0.4797664 0.2005296 3.1725000
v -0.4797664 0.2005296 3.0675000
v -0.4795345 0.3055294 3.1725000
v -0.5756493 0.3057628 3.1725000
v -0.5759276 0.2007632 3.1725000
v -0.4797664 0.2005296 3.1725000
v -0.5756493 0.3057628 3.1725000
v -0.5756493 0.3057628 3.0675000
v -0.5759276 0.2007632 3.0675000
v -0.5759276 0.2007632 3.1725000
v 0.4670214 0.2230019 3.1812500
v 0.7816978 0.2239062 3.1812500
v 0.7816978 0.2239062 3.0587500
v 0.4670214 0.2230019 3.0587500
v 0.4670214 0.2230019 3.0587500
v 0.7816978 0.2239062 3.0587500
v 0.7821385 0.1014070 3.0587500
v 0.4672847 0.1005022 3.0587500
v 0.7816978 0.2239062 3.0587500
v 0.7816978 0.2239062 3.1812500
v 0.7821385 0.1014070 3.1812500
v 0.7821385 0.1014070 3.0587500
v 0.7816978 0.2239062 3.1812500
v 0.4670214 0.2230019 3.1812500
v 0.4672847 0.1005022 3.1812500
v 0.7821385 0.1014070 3.1812500
v 0.4670214 0.2230019 3.1812500
v 0.4670214 0.2230019 3.0587500
v 0.4672847 0.1005022 3.0587500
v 0.4672847 0.1005022 3.1812500
v 0.7246061 0.3062087 3.1725000
v 0.8207205 0.3065506 3.1725000
v 0.8207205 0.3065506 3.0675000
v 0.7246061 0.3062087 3.0675000
v 0.7246061 0.3062087 3.0675000
v 0.8207205 0.3065506 3.0675000
v 0.8211173 0.2015514 3.0675000
v 0.7249564 0.2012093 3.0675000
v 0.8207205 0.3065506 3.0675000
v 0.8207205 0.3065506 3.1725000
v 0.8211173 0.2015514 3.1725000
v 0.8211173 0.2015514 3.0675000
v 0.8207205 0.3065506 3.1725000
v 0.7246061 0.3062087 3.1725000
v 0.7249564 0.2012093 3.1725000
v 0.8211173 0.2015514 3.1725000
v 0.7246061 0.3062087 3.1725000
v 0.7246061 0.3062087 3.0675000
v 0.7249564 0.2012093 3.0675000
v 0.7249564 0.2012093 3.1725000
v 1.7677536 0.2296913 3.1812500
v 2.0824189 0.2324793 3.1812500
v 2.0824189 0.2324793 3.0587500
v 1.7677536 0.2296913 3.0587500
v 1.7677536 0.2296913 3.0587500
v 2.0824189 0.2324793 3.0587500
v 2.0835930 0.1099850 3.0587500
v 1.7687502 0.1071953 3.0587500
v 2.0824189 0.2324793 3.0587500
v 2.0824189 0.2324793 3.1812500
v 2.0835930 0.1099850 3.1812500
v 2.0835930 0.1099850 3.0587500
v 2.0824189 0.2324793 3.1812500
v 1.7677536 0.2296913 3.1812500
v 1.7687502 0.1071953 3.1812500
v 2.0835930 0.1099850 3.1812500
v 1.7677536 0.2296913 3.1812500
v 1.7677536 0.2296913 3.0587500
v 1.7687502 0.1071953 3.0587500
v 1.7687502 0.1071953 3.1812500
v 2.0248355 0.3144386 3.1725000
v 2.1209462 0.3153559 3.1725000
v 2.1209462 0.3153559 3.0675000
v 2.0248355 0.3144386 3.0675000
v 2.0248355 0.3144386 3.0675000
v 2.1209462 0.3153559 3.0675000
v 2.1219715 0.2103610 3.0675000
v 2.0258144 0.2094432 3.0675000
v 2.1209462 0.3153559 3.0675000
v 2.1209462 0.3153559 3.1725000
v 2.1219715 0.2103610 3.1725000
v 2.1219715 0.2103610 3.0675000
v 2.1209462 0.3153559 3.1725000
v 2.0248355 0.3144386 3.1725000
v 2.0258144 0.2094432 3.1725000
v 2.1219715 0.2103610 3.1725000
v 2.0248355 0.3144386 3.1725000
v 2.0248355 0.3144386 3.0675000
v 2.0258144 0.2094432 3.0675000
v 2.0258144 0.2094432 3.1725000
v -2.1344465 0.2329842 7.5012500
v -1.8197818 0.2301208 7.5012500
v -1.8197818 0.2301208 7.3787500
v -2.1344465 0.2329842 7.3787500
v -2.1344465 0.2329842 7.3787500
v -1.8197818 0.2301208 7.3787500
v -1.8208078 0.1076251 7.3787500
v -2.1356499 0.1104901 7.3787500
v -1.8197818 0.2301208 7.3787500
v -1.8197818 0.2301208 7.5012500
v -1.8208078 0.1076251 7.5012500
v -1.8208078 0.1076251 7.3787500
v -1.8197818 0.2301208 7.5012500
v -2.1344465 0.2329842 7.5012500
v -2.1356499 0.1104901 7.5012500
v -1.8208078 0.1076251 7.5012500
v -2.1344465 0.2329842 7.5012500
v -2.1344465 0.2329842 7.3787500
v -2.1356499 0.1104901 7.3787500
v -2.1356499 0.1104901 7.5012500
v -1.8758841 0.3131010 7.4925000
v -1.7797724 0.3122922 7.4925000
v -1.7797724 0.3122922 7.3875000
v -1.8758841 0.3131010 7.3875000
v -1.8758841 0.3131010 7.3875000
v -1.7797724 0.3122922 7.3875000
v -1.7806328 0.2072957 7.3875000
v -1.8767909 0.2081049 7.3875000
v -1.7797724 0.3122922 7.3875000
v -1.7797724 0.3122922 7.4925000
v -1.7806328 0.2072957 7.4925000
v -1.7806328 0.2072957 7.3875000
v -1.7797724 0.3122922 7.4925000
v -1.8758841 0.3131010 7.4925000
v -1.8767909 0.2081049 7.4925000
v -1.7806328 0.2072957 7.4925000
v -1.8758841 0.3131010 7.4925000
v -1.8758841 0.3131010 7.3875000
v -1.8767909 0.2081049 7.3875000
v -1.8767909 0.2081049 7.4925000
v -0.8337275 0.2240996 7.5012500
v -0.5190513 0.2231200 7.5012500
v -0.5190513 0.2231200 7.3787500
v -0.8337275 0.2240996 7.3787500
v -0.8337275 0.2240996 7.3787500
v -0.5190513 0.2231200 7.3787500
v -0.5193440 0.1006203 7.3787500
v -0.8341976 0.1016005 7.3787500
v -0.5190513 0.2231200 7.3787500
v -0.5190513 0.2231200 7.5012500
v -0.5193440 0.1006203 7.5012500
v -0.5193440 0.1006203 7.3787500
v -0.5190513 0.2231200 7.5012500
v -0.8337275 0.2240996 7.5012500
v -0.8341976 0.1016005 7.5012500
v -0.5193440 0.1006203 7.5012500
v -0.8337275 0.2240996 7.5012500
v -0.8337275 0.2240996 7.3787500
v -0.8341976 0.1016005 7.3787500
v -0.8341976 0.1016005 7.5012500
v -0.5756493 0.3057628 7.4925000
v -0.4795345 0.3055294 7.4925000
v -0.4795345 0.3055294 7.3875000
v -0.5756493 0.3057628 7.3875000
v -0.5756493 0.3057628 7.3875000
v -0.4795345 0.3055294 7.3875000
v -0.4797664 0.2005296 7.3875000
v -0.5759276 0.2007632 7.3875000
v -0.4795345 0.3055294 7.3875000
v -0.4795345 0.3055294 7.4925000
v -0.4797664 0.2005296 7.4925000
v -0.4797664 0.2005296 7.3875000
v -0.4795345 0.3055294 7.4925000
v -0.5756493 0.3057628 7.4925000
v -0.5759276 0.2007632 7.4925000
v -0.4797664 0.2005296 7.4925000
v -0.5756493 0.3057628 7.4925000
v -0.5756493 0.3057628 7.3875000
v -0.5759276 0.2007632 7.3875000
v -0.5759276 0.2007632 7.4925000
v 0.4670214 0.2230019 7.5012500
v 0.7816978 0.2239062 7.5012500
v 0.7816978 0.2239062 7.3787500
v 0.4670214 0.2230019 7.3787500
v 0.4670214 0.2230019 7.3787500
v 0.7816978 0.2239062 7.3787500
v 0.7821385 0.1014070 7.3787500
v 0.4672847 0.1005022 7.3787500
v 0.7816978 0.2239062 7.3787500
v 0.7816978 0.2239062 7.5012500
v 0.7821385 0.1014070 7.5012500
v 0.7821385 0.1014070 7.3787500
v 0.7816978 0.2239062 7.5012500
v 0.4670214 0.2230019 7.5012500
v 0.4672847 0.1005022 7.5012500
v 0.7821385 0.1014070 7.5012500
v 0.4670214 0.2230019 7.5012500
v 0.4670214 0.2230019 7.3787500
v 0.4672847 0.1005022 7.3787500
v 0.4672847 0.1005022 7.5012500
v 0.7246061 0.3062087 7.4925000
v 0.8207205 0.3065506 7.4925000
v 0.8207205 0.3065506 7.3875000
v 0.7246061 0.3062087 7.3875000
v 0.7246061 0.3062087 7.3875000
v 0.8207205 0.3065506 7.3875000
v 0.8211173 0.2015514 7.3875000
v 0.7249564 0.2012093 7.3875000
v 0.8207205 0.3065506 7.3875000
v 0.8207205 0.3065506 7.4925000
v 0.8211173 0.2015514 7.4925000
v 0.8211173 0.2015514 7.3875000
v 0.8207205 0.3065506 7.4925000
v 0.7246061 0.3062087 7.4925000
v 0.7249564 0.2012093 7.4925000
v 0.8211173 0.2015514 7.4925000
v 0.7246061 0.3062087 7.4925000
v 0.7246061 0.3062087 7.3875000
v 0.7249564 0.2012093 7.3875000
v 0.7249564 0.2012093 7.4925000
v 1.7677536 0.2296913 7.5012500
v 2.0824189 0.2324793 7.5012500
v 2.0824189 0.2324793 7.3787500
v 1.7677536 0.2296913 7.3787500
v 1.7677536 0.2296913 7.3787500
v 2.0824189 0.2324793 7.3787500
v 2.0835930 0.1099850 7.3787500
v 1.7687502 0.1071953 7.3787500
v 2.0824189 0.2324793 7.3787500
v 2.0824189 0.2324793 7.5012500
v 2.0835930 0.1099850 7.5012500
v 2.0835930 0.1099850 7.3787500
v 2.0824189 0.2324793 7.5012500
v 1.7677536 0.2296913 7.5012500
v 1.7687502 0.1071953 7.5012500
v 2.0835930 0.1099850 7.5012500
v 1.7677536 0.2296913 7.5012500
v 1.7677536 0.2296913 7.3787500
v 1.7687502 0.1071953 7.3787500
v 1.7687502 0.1071953 7.5012500
v 2.0248355 0.3144386 7.4925000
v 2.1209462 0.3153559 7.4925000
v 2.1209462 0.3153559 7.3875000
v 2.0248355 0.3144386 7.3875000
v 2.0248355 0.3144386 7.3875000
v 2.1209462 0.3153559 7.3875000
v 2.1219715 0.2103610 7.3875000
v 2.0258144 0.2094432 7.3875000
v 2.1209462 0.3153559 7.3875000
v 2.1209462 0.3153559 7.4925000
v 2.1219715 0.2103610 7.4925000
v 2.1219715 0.2103610 7.3875000
v 2.1209462 0.3153559 7.4925000
v 2.0248355 0.3144386 7.4925000
v 2.0258144 0.2094432 7.4925000
v 2.1219715 0.2103610 7.4925000
v 2.0248355 0.3144386 7.4925000
v 2.0248355 0.3144386 7.3875000
v 2.0258144 0.2094432 7.3875000
v 2.0258144 0.2094432 7.4925000
v -2.2536340 0.0591784 6.4250000
v -0.3249289 0.0477428 6.4250000
v -0.3249775 0.0152428 1.2000000
v -2.2539709 0.0266802 1.2000000
v -2.2539709 0.0266802 11.6500000
v -0.3249775 0.0152428 11.6500000
v -0.3249289 0.0477428 6.4250000
v -2.2536340 0.0591784 6.4250000
v 0.3249289 0.0477428 6.4250000
v 2.2536340 0.0591784 6.4250000
v 2.2539709 0.0266802 1.2000000
v 0.3249775 0.0152428 1.2000000
v 0.3249775 0.0152428 11.6500000
v 2.2539709 0.0266802 11.6500000
v 2.2536340 0.0591784 6.4250000
v 0.3249289 0.0477428 6.4250000
v -2.2450580 0.8866340 -7.1750000
v -0.7483646 0.8762927 -7.1750000
v -0.7483646 0.8762927 -7.2250000
v -2.2450580 0.8866340 -7.2250000
v -0.7483646 0.8762927 -7.1750000
v 0.7483646 0.8762927 -7.1750000
v 0.7483646 0.8762927 -7.2250000
v -0.7483646 0.8762927 -7.2250000
v 0.7483646 0.8762927 -7.1750000
v 2.2450580 0.8866340 -7.1750000
v 2.2450580 0.8866340 -7.2250000
v 0.7483646 0.8762927 -7.2250000
v -2.2450580 0.8866340 7.2250000
v -0.7483646 0.8762927 7.2250000
v -0.7483646 0.8762927 7.1750000
v -2.2450580 0.8866340 7.1750000
v -0.7483646 0.8762927 7.2250000
v 0.7483646 0.8762927 7.2250000
v 0.7483646 0.8762927 7.1750000
v -0.7483646 0.8762927 7.1750000
v 0.7483646 0.8762927 7.2250000
v 2.2450580 0.8866340 7.2250000
v 2.2450580 0.8866340 7.1750000
v 0.7483646 0.8762927 7.1750000
vt 0.005000 0.995000
vt 0.245000 0.995000
vt 0.245000 0.755000
vt 0.255000 0.995000
vt 0.495000 0.995000
vt 0.495000 0.755000
vt 0.505000 0.995000
vt 0.745000 0.995000
vt 0.745000 0.755000
vt 0.755000 0.995000
vt 0.995000 0.995000
vt 0.995000 0.755000
vt 0.005000 0.745000
vt 0.245000 0.745000
vt 0.245000 0.505000
vt 0.255000 0.745000
vt 0.495000 0.745000
vt 0.495000 0.505000
vt 0.505000 0.745000
vt 0.745000 0.745000
vt 0.745000 0.505000
vt 0.755000 0.745000
vt 0.995000 0.745000
vt 0.995000 0.505000
vt 0.005000 0.495000
vt 0.245000 0.495000
vt 0.245000 0.255000
vt 0.255000 0.495000
vt 0.495000 0.495000
vt 0.495000 0.255000
vt 0.505000 0.495000
vt 0.745000 0.495000
vt 0.745000 0.255000
vt 0.755000 0.495000
vt 0.995000 0.495000
vt 0.995000 0.255000
vt 0.005000 0.245000
vt 0.245000 0.245000
vt 0.245000 0.005000
vt 0.255000 0.245000
vt 0.495000 0.245000
vt 0.495000 0.005000
vt 0.505000 0.245000
vt 0.745000 0.245000
vt 0.745000 0.005000
vt 0.755000 0.245000
vt 0.995000 0.245000
vt 0.995000 0.005000
g lighting
usemtl farm-kit
f 441/43 442/44 443/45
f 441/43 443/44 444/45
f 445/43 446/44 447/45
f 445/43 447/44 448/45
f 449/43 450/44 451/45
f 449/43 451/44 452/45
f 453/43 454/44 455/45
f 453/43 455/44 456/45
f 457/43 458/44 459/45
f 457/43 459/44 460/45
f 461/43 462/44 463/45
f 461/43 463/44 464/45
g ornament
usemtl farm-kit
f 61/31 62/32 63/33
f 61/31 63/32 64/33
f 65/31 66/32 67/33
f 65/31 67/32 68/33
f 93/31 94/32 95/33
f 93/31 95/32 96/33
f 97/31 98/32 99/33
f 97/31 99/32 100/33
f 105/28 106/29 107/30
f 105/28 107/29 108/30
f 109/28 110/29 111/30
f 109/28 111/29 112/30
f 113/28 114/29 115/30
f 113/28 115/29 116/30
f 117/28 118/29 119/30
f 117/28 119/29 120/30
f 121/28 122/29 123/30
f 121/28 123/29 124/30
f 125/34 126/35 127/36
f 125/34 127/35 128/36
f 129/34 130/35 131/36
f 129/34 131/35 132/36
f 133/34 134/35 135/36
f 133/34 135/35 136/36
f 137/34 138/35 139/36
f 137/34 139/35 140/36
f 141/34 142/35 143/36
f 141/34 143/35 144/36
f 145/28 146/29 147/30
f 145/28 147/29 148/30
f 149/28 150/29 151/30
f 149/28 151/29 152/30
f 153/28 154/29 155/30
f 153/28 155/29 156/30
f 157/28 158/29 159/30
f 157/28 159/29 160/30
f 161/28 162/29 163/30
f 161/28 163/29 164/30
f 165/34 166/35 167/36
f 165/34 167/35 168/36
f 169/34 170/35 171/36
f 169/34 171/35 172/36
f 173/34 174/35 175/36
f 173/34 175/35 176/36
f 177/34 178/35 179/36
f 177/34 179/35 180/36
f 181/34 182/35 183/36
f 181/34 183/35 184/36
f 185/28 186/29 187/30
f 185/28 187/29 188/30
f 189/28 190/29 191/30
f 189/28 191/29 192/30
f 193/28 194/29 195/30
f 193/28 195/29 196/30
f 197/28 198/29 199/30
f 197/28 199/29 200/30
f 201/28 202/29 203/30
f 201/28 203/29 204/30
f 205/34 206/35 207/36
f 205/34 207/35 208/36
f 209/34 210/35 211/36
f 209/34 211/35 212/36
f 213/34 214/35 215/36
f 213/34 215/35 216/36
f 217/34 218/35 219/36
f 217/34 219/35 220/36
f 221/34 222/35 223/36
f 221/34 223/35 224/36
f 225/28 226/29 227/30
f 225/28 227/29 228/30
f 229/28 230/29 231/30
f 229/28 231/29 232/30
f 233/28 234/29 235/30
f 233/28 235/29 236/30
f 237/28 238/29 239/30
f 237/28 239/29 240/30
f 241/28 242/29 243/30
f 241/28 243/29 244/30
f 245/34 246/35 247/36
f 245/34 247/35 248/36
f 249/34 250/35 251/36
f 249/34 251/35 252/36
f 253/34 254/35 255/36
f 253/34 255/35 256/36
f 257/34 258/35 259/36
f 257/34 259/35 260/36
f 261/34 262/35 263/36
f 261/34 263/35 264/36
f 265/28 266/29 267/30
f 265/28 267/29 268/30
f 269/28 270/29 271/30
f 269/28 271/29 272/30
f 273/28 274/29 275/30
f 273/28 275/29 276/30
f 277/28 278/29 279/30
f 277/28 279/29 280/30
f 281/28 282/29 283/30
f 281/28 283/29 284/30
f 285/34 286/35 287/36
f 285/34 287/35 288/36
f 289/34 290/35 291/36
f 289/34 291/35 292/36
f 293/34 294/35 295/36
f 293/34 295/35 296/36
f 297/34 298/35 299/36
f 297/34 299/35 300/36
f 301/34 302/35 303/36
f 301/34 303/35 304/36
f 305/28 306/29 307/30
f 305/28 307/29 308/30
f 309/28 310/29 311/30
f 309/28 311/29 312/30
f 313/28 314/29 315/30
f 313/28 315/29 316/30
f 317/28 318/29 319/30
f 317/28 319/29 320/30
f 321/28 322/29 323/30
f 321/28 323/29 324/30
f 325/34 326/35 327/36
f 325/34 327/35 328/36
f 329/34 330/35 331/36
f 329/34 331/35 332/36
f 333/34 334/35 335/36
f 333/34 335/35 336/36
f 337/34 338/35 339/36
f 337/34 339/35 340/36
f 341/34 342/35 343/36
f 341/34 343/35 344/36
f 345/28 346/29 347/30
f 345/28 347/29 348/30
f 349/28 350/29 351/30
f 349/28 351/29 352/30
f 353/28 354/29 355/30
f 353/28 355/29 356/30
f 357/28 358/29 359/30
f 357/28 359/29 360/30
f 361/28 362/29 363/30
f 361/28 363/29 364/30
f 365/34 366/35 367/36
f 365/34 367/35 368/36
f 369/34 370/35 371/36
f 369/34 371/35 372/36
f 373/34 374/35 375/36
f 373/34 375/35 376/36
f 377/34 378/35 379/36
f 377/34 379/35 380/36
f 381/34 382/35 383/36
f 381/34 383/35 384/36
f 385/28 386/29 387/30
f 385/28 387/29 388/30
f 389/28 390/29 391/30
f 389/28 391/29 392/30
f 393/28 394/29 395/30
f 393/28 395/29 396/30
f 397/28 398/29 399/30
f 397/28 399/29 400/30
f 401/28 402/29 403/30
f 401/28 403/29 404/30
f 405/34 406/35 407/36
f 405/34 407/35 408/36
f 409/34 410/35 411/36
f 409/34 411/35 412/36
f 413/34 414/35 415/36
f 413/34 415/35 416/36
f 417/34 418/35 419/36
f 417/34 419/35 420/36
f 421/34 422/35 423/36
f 421/34 423/35 424/36
f 425/13 426/14 427/15
f 425/13 427/14 428/15
f 429/13 430/14 431/15
f 429/13 431/14 432/15
f 433/13 434/14 435/15
f 433/13 435/14 436/15
f 437/13 438/14 439/15
f 437/13 439/14 440/15
g solid
usemtl farm-kit
f 41/28 42/29 43/30
f 41/28 43/29 44/30
f 45/28 46/29 47/30
f 45/28 47/29 48/30
f 49/28 50/29 51/30
f 49/28 51/29 52/30
f 53/28 54/29 55/30
f 53/28 55/29 56/30
f 57/28 58/29 59/30
f 57/28 59/29 60/30
f 73/28 74/29 75/30
f 73/28 75/29 76/30
f 77/28 78/29 79/30
f 77/28 79/29 80/30
f 81/28 82/29 83/30
f 81/28 83/29 84/30
f 85/28 86/29 87/30
f 85/28 87/29 88/30
f 89/28 90/29 91/30
f 89/28 91/29 92/30
g support
usemtl farm-kit
f 1/1 2/2 3/3
f 1/1 3/2 4/3
f 5/1 6/2 7/3
f 5/1 7/2 8/3
f 9/1 10/2 11/3
f 9/1 11/2 12/3
f 13/4 14/5 15/6
f 13/4 15/5 16/6
f 17/4 18/5 19/6
f 17/4 19/5 20/6
f 21/4 22/5 23/6
f 21/4 23/5 24/6
f 25/4 26/5 27/6
f 25/4 27/5 28/6
f 29/4 30/5 31/6
f 29/4 31/5 32/6
f 33/4 34/5 35/6
f 33/4 35/5 36/6
f 37/4 38/5 39/6
f 37/4 39/5 40/6
f 69/4 70/5 71/6
f 69/4 71/5 72/6
f 101/4 102/5 103/6
f 101/4 103/5 104/6
