mtllib TorusSettlementFarm_A29.mtl
v -8.7474684 0.1822653 4.2500000
v -6.5614319 0.1025307 4.2500000
v -6.5614319 0.1025307 -4.2500000
v -8.7474684 0.1822653 -4.2500000
v -6.5614319 0.1025307 4.2500000
v -4.3746835 0.0455713 4.2500000
v -4.3746835 0.0455713 -4.2500000
v -6.5614319 0.1025307 -4.2500000
v -4.3746835 0.0455713 4.2500000
v -2.1874604 0.0113931 4.2500000
v -2.1874604 0.0113931 -4.2500000
v -4.3746835 0.0455713 -4.2500000
v -2.1874604 0.0113931 4.2500000
v 0.0000000 0.0000000 4.2500000
v 0.0000000 0.0000000 -4.2500000
v -2.1874604 0.0113931 -4.2500000
v 0.0000000 0.0000000 4.2500000
v 2.1874604 0.0113931 4.2500000
v 2.1874604 0.0113931 -4.2500000
v 0.0000000 0.0000000 -4.2500000
v 2.1874604 0.0113931 4.2500000
v 4.3746835 0.0455713 4.2500000
v 4.3746835 0.0455713 -4.2500000
v 2.1874604 0.0113931 -4.2500000
v 4.3746835 0.0455713 4.2500000
v 6.5614319 0.1025307 4.2500000
v 6.5614319 0.1025307 -4.2500000
v 4.3746835 0.0455713 -4.2500000
v 6.5614319 0.1025307 4.2500000
v 8.7474684 0.1822653 4.2500000
v 8.7474684 0.1822653 -4.2500000
v 6.5614319 0.1025307 -4.2500000
v -8.7469477 0.1947544 -3.9000000
v -6.5610414 0.1150246 -3.9000000
v -6.5610414 0.1150246 -4.2500000
v -8.7469477 0.1947544 -4.2500000
v -6.5610414 0.1150246 -3.9000000
v -4.3744231 0.0580686 -3.9000000
v -4.3744231 0.0580686 -4.2500000
v -6.5610414 0.1150246 -4.2500000
v -4.3744231 0.0580686 -3.9000000
v -2.1873302 0.0238924 -3.9000000
v -2.1873302 0.0238924 -4.2500000
v -4.3744231 0.0580686 -4.2500000
v -2.1873302 0.0238924 -3.9000000
v 0.0000000 0.0125000 -3.9000000
v 0.0000000 0.0125000 -4.2500000
v -2.1873302 0.0238924 -4.2500000
v 0.0000000 0.0125000 -3.9000000
v 2.1873302 0.0238924 -3.9000000
v 2.1873302 0.0238924 -4.2500000
v 0.0000000 0.0125000 -4.2500000
v 2.1873302 0.0238924 -3.9000000
v 4.3744231 0.0580686 -3.9000000
v 4.3744231 0.0580686 -4.2500000
v 2.1873302 0.0238924 -4.2500000
v 4.3744231 0.0580686 -3.9000000
v 6.5610414 0.1150246 -3.9000000
v 6.5610414 0.1150246 -4.2500000
v 4.3744231 0.0580686 -4.2500000
v 6.5610414 0.1150246 -3.9000000
v 8.7469477 0.1947544 -3.9000000
v 8.7469477 0.1947544 -4.2500000
v 6.5610414 0.1150246 -4.2500000
v -8.7469477 0.1947544 4.2500000
v -6.5610414 0.1150246 4.2500000
v -6.5610414 0.1150246 3.9000000
v -8.7469477 0.1947544 3.9000000
v -6.5610414 0.1150246 4.2500000
v -4.3744231 0.0580686 4.2500000
v -4.3744231 0.0580686 3.9000000
v -6.5610414 0.1150246 3.9000000
v -4.3744231 0.0580686 4.2500000
v -2.1873302 0.0238924 4.2500000
v -2.1873302 0.0238924 3.9000000
v -4.3744231 0.0580686 3.9000000
v -2.1873302 0.0238924 4.2500000
v 0.0000000 0.0125000 4.2500000
v 0.0000000 0.0125000 3.9000000
v -2.1873302 0.0238924 3.9000000
v 0.0000000 0.0125000 4.2500000
v 2.1873302 0.0238924 4.2500000
v 2.1873302 0.0238924 3.9000000
v 0.0000000 0.0125000 3.9000000
v 2.1873302 0.0238924 4.2500000
v 4.3744231 0.0580686 4.2500000
v 4.3744231 0.0580686 3.9000000
v 2.1873302 0.0238924 3.9000000
v 4.3744231 0.0580686 4.2500000
v 6.5610414 0.1150246 4.2500000
v 6.5610414 0.1150246 3.9000000
v 4.3744231 0.0580686 3.9000000
v 6.5610414 0.1150246 4.2500000
v 8.7469477 0.1947544 4.2500000
v 8.7469477 0.1947544 3.9000000
v 6.5610414 0.1150246 3.9000000
v -0.2999820 0.0127143 4.2500000
v 0.2999820 0.0127143 4.2500000
v 0.2999820 0.0127143 -4.2500000
v -0.2999820 0.0127143 -4.2500000
v -8.3887626 0.3927976 -3.7105714
v -6.3734320 0.3218419 -3.7105714
v -6.3783691 0.1594169 -3.9000000
v -8.3952608 0.2304276 -3.9000000
v -8.3952608 0.2304276 -3.5211429
v -6.3783691 0.1594169 -3.5211429
v -6.3734320 0.3218419 -3.7105714
v -8.3887626 0.3927976 -3.7105714
v -6.3734320 0.3218419 -3.7105714
v -4.3575125 0.2702627 -3.7105714
v -4.3608880 0.1077978 -3.9000000
v -6.3783691 0.1594169 -3.9000000
v -6.3783691 0.1594169 -3.5211429
v -4.3608880 0.1077978 -3.5211429
v -4.3575125 0.2702627 -3.7105714
v -6.3734320 0.3218419 -3.7105714
v -4.3575125 0.2702627 -3.7105714
v -2.3411902 0.2380648 -3.7105714
v -2.3430038 0.0755749 -3.9000000
v -4.3608880 0.1077978 -3.9000000
v -4.3608880 0.1077978 -3.5211429
v -2.3430038 0.0755749 -3.5211429
v -2.3411902 0.2380648 -3.7105714
v -4.3575125 0.2702627 -3.7105714
v -2.3411902 0.2380648 -3.7105714
v -0.3246517 0.2252512 -3.7105714
v -0.3249031 0.0627514 -3.9000000
v -2.3430038 0.0755749 -3.9000000
v -2.3430038 0.0755749 -3.5211429
v -0.3249031 0.0627514 -3.5211429
v -0.3246517 0.2252512 -3.7105714
v -2.3411902 0.2380648 -3.7105714
v 0.3246517 0.2252512 -3.7105714
v 2.3411902 0.2380648 -3.7105714
v 2.3430038 0.0755749 -3.9000000
v 0.3249031 0.0627514 -3.9000000
v 0.3249031 0.0627514 -3.5211429
v 2.3430038 0.0755749 -3.5211429
v 2.3411902 0.2380648 -3.7105714
v 0.3246517 0.2252512 -3.7105714
v 2.3411902 0.2380648 -3.7105714
v 4.3575125 0.2702627 -3.7105714
v 4.3608880 0.1077978 -3.9000000
v 2.3430038 0.0755749 -3.9000000
v 2.3430038 0.0755749 -3.5211429
v 4.3608880 0.1077978 -3.5211429
v 4.3575125 0.2702627 -3.7105714
v 2.3411902 0.2380648 -3.7105714
v 4.3575125 0.2702627 -3.7105714
v 6.3734320 0.3218419 -3.7105714
v 6.3783691 0.1594169 -3.9000000
v 4.3608880 0.1077978 -3.9000000
v 4.3608880 0.1077978 -3.5211429
v 6.3783691 0.1594169 -3.5211429
v 6.3734320 0.3218419 -3.7105714
v 4.3575125 0.2702627 -3.7105714
v 6.3734320 0.3218419 -3.7105714
v 8.3887626 0.3927976 -3.7105714
v 8.3952608 0.2304276 -3.9000000
v 6.3783691 0.1594169 -3.9000000
v 6.3783691 0.1594169 -3.5211429
v 8.3952608 0.2304276 -3.5211429
v 8.3887626 0.3927976 -3.7105714
v 6.3734320 0.3218419 -3.7105714
v -8.3887626 0.3927976 -3.1534286
v -6.3734320 0.3218419 -3.1534286
v -6.3783691 0.1594169 -3.3428571
v -8.3952608 0.2304276 -3.3428571
v -8.3952608 0.2304276 -2.9640000
v -6.3783691 0.1594169 -2.9640000
v -6.3734320 0.3218419 -3.1534286
v -8.3887626 0.3927976 -3.1534286
v -6.3734320 0.3218419 -3.1534286
v -4.3575125 0.2702627 -3.1534286
v -4.3608880 0.1077978 -3.3428571
v -6.3783691 0.1594169 -3.3428571
v -6.3783691 0.1594169 -2.9640000
v -4.3608880 0.1077978 -2.9640000
v -4.3575125 0.2702627 -3.1534286
v -6.3734320 0.3218419 -3.1534286
v -4.3575125 0.2702627 -3.1534286
v -2.3411902 0.2380648 -3.1534286
v -2.3430038 0.0755749 -3.3428571
v -4.3608880 0.1077978 -3.3428571
v -4.3608880 0.1077978 -2.9640000
v -2.3430038 0.0755749 -2.9640000
v -2.3411902 0.2380648 -3.1534286
v -4.3575125 0.2702627 -3.1534286
v -2.3411902 0.2380648 -3.1534286
v -0.3246517 0.2252512 -3.1534286
v -0.3249031 0.0627514 -3.3428571
v -2.3430038 0.0755749 -3.3428571
v -2.3430038 0.0755749 -2.9640000
v -0.3249031 0.0627514 -2.9640000
v -0.3246517 0.2252512 -3.1534286
v -2.3411902 0.2380648 -3.1534286
v 0.3246517 0.2252512 -3.1534286
v 2.3411902 0.2380648 -3.1534286
v 2.3430038 0.0755749 -3.3428571
v 0.3249031 0.0627514 -3.3428571
v 0.3249031 0.0627514 -2.9640000
v 2.3430038 0.0755749 -2.9640000
v 2.3411902 0.2380648 -3.1534286
v 0.3246517 0.2252512 -3.1534286
v 2.3411902 0.2380648 -3.1534286
v 4.3575125 0.2702627 -3.1534286
v 4.3608880 0.1077978 -3.3428571
v 2.3430038 0.0755749 -3.3428571
v 2.3430038 0.0755749 -2.9640000
v 4.3608880 0.1077978 -2.9640000
v 4.3575125 0.2702627 -3.1534286
v 2.3411902 0.2380648 -3.1534286
v 4.3575125 0.2702627 -3.1534286
v 6.3734320 0.3218419 -3.1534286
v 6.3783691 0.1594169 -3.3428571
v 4.3608880 0.1077978 -3.3428571
v 4.3608880 0.1077978 -2.9640000
v 6.3783691 0.1594169 -2.9640000
v 6.3734320 0.3218419 -3.1534286
v 4.3575125 0.2702627 -3.1534286
v 6.3734320 0.3218419 -3.1534286
v 8.3887626 0.3927976 -3.1534286
v 8.3952608 0.2304276 -3.3428571
v 6.3783691 0.1594169 -3.3428571
v 6.3783691 0.1594169 -2.9640000
v 8.3952608 0.2304276 -2.9640000
v 8.3887626 0.3927976 -3.1534286
v 6.3734320 0.3218419 -3.1534286
v -8.3887626 0.3927976 -2.5962857
v -6.3734320 0.3218419 -2.5962857
v -6.3783691 0.1594169 -2.7857143
v -8.3952608 0.2304276 -2.7857143
v -8.3952608 0.2304276 -2.4068571
v -6.3783691 0.1594169 -2.4068571
v -6.3734320 0.3218419 -2.5962857
v -8.3887626 0.3927976 -2.5962857
v -6.3734320 0.3218419 -2.5962857
v -4.3575125 0.2702627 -2.5962857
v -4.3608880 0.1077978 -2.7857143
v -6.3783691 0.1594169 -2.7857143
v -6.3783691 0.1594169 -2.4068571
v -4.3608880 0.1077978 -2.4068571
v -4.3575125 0.2702627 -2.5962857
v -6.3734320 0.3218419 -2.5962857
v -4.3575125 0.2702627 -2.5962857
v -2.3411902 0.2380648 -2.5962857
v -2.3430038 0.0755749 -2.7857143
v -4.3608880 0.1077978 -2.7857143
v -4.3608880 0.1077978 -2.4068571
v -2.3430038 0.0755749 -2.4068571
v -2.3411902 0.2380648 -2.5962857
v -4.3575125 0.2702627 -2.5962857
v -2.3411902 0.2380648 -2.5962857
v -0.3246517 0.2252512 -2.5962857
v -0.3249031 0.0627514 -2.7857143
v -2.3430038 0.0755749 -2.7857143
v -2.3430038 0.0755749 -2.4068571
v -0.3249031 0.0627514 -2.4068571
v -0.3246517 0.2252512 -2.5962857
v -2.3411902 0.2380648 -2.5962857
v 0.3246517 0.2252512 -2.5962857
v 2.3411902 0.2380648 -2.5962857
v 2.3430038 0.0755749 -2.7857143
v 0.3249031 0.0627514 -2.7857143
v 0.3249031 0.0627514 -2.4068571
v 2.3430038 0.0755749 -2.4068571
v 2.3411902 0.2380648 -2.5962857
v 0.3246517 0.2252512 -2.5962857
v 2.3411902 0.2380648 -2.5962857
v 4.3575125 0.2702627 -2.5962857
v 4.3608880 0.1077978 -2.7857143
v 2.3430038 0.0755749 -2.7857143
v 2.3430038 0.0755749 -2.4068571
v 4.3608880 0.1077978 -2.4068571
v 4.3575125 0.2702627 -2.5962857
v 2.3411902 0.2380648 -2.5962857
v 4.3575125 0.2702627 -2.5962857
v 6.3734320 0.3218419 -2.5962857
v 6.3783691 0.1594169 -2.7857143
v 4.3608880 0.1077978 -2.7857143
v 4.3608880 0.1077978 -2.4068571
v 6.3783691 0.1594169 -2.4068571
v 6.3734320 0.3218419 -2.5962857
v 4.3575125 0.2702627 -2.5962857
v 6.3734320 0.3218419 -2.5962857
v 8.3887626 0.3927976 -2.5962857
v 8.3952608 0.2304276 -2.7857143
v 6.3783691 0.1594169 -2.7857143
v 6.3783691 0.1594169 -2.4068571
v 8.3952608 0.2304276 -2.4068571
v 8.3887626 0.3927976 -2.5962857
v 6.3734320 0.3218419 -2.5962857
v -8.3887626 0.3927976 -2.0391429
v -6.3734320 0.3218419 -2.0391429
v -6.3783691 0.1594169 -2.2285714
v -8.3952608 0.2304276 -2.2285714
v -8.3952608 0.2304276 -1.8497143
v -6.3783691 0.1594169 -1.8497143
v -6.3734320 0.3218419 -2.0391429
v -8.3887626 0.3927976 -2.0391429
v -6.3734320 0.3218419 -2.0391429
v -4.3575125 0.2702627 -2.0391429
v -4.3608880 0.1077978 -2.2285714
v -6.3783691 0.1594169 -2.2285714
v -6.3783691 0.1594169 -1.8497143
v -4.3608880 0.1077978 -1.8497143
v -4.3575125 0.2702627 -2.0391429
v -6.3734320 0.3218419 -2.0391429
v -4.3575125 0.2702627 -2.0391429
v -2.3411902 0.2380648 -2.0391429
v -2.3430038 0.0755749 -2.2285714
v -4.3608880 0.1077978 -2.2285714
v -4.3608880 0.1077978 -1.8497143
v -2.3430038 0.0755749 -1.8497143
v -2.3411902 0.2380648 -2.0391429
v -4.3575125 0.2702627 -2.0391429
v -2.3411902 0.2380648 -2.0391429
v -0.3246517 0.2252512 -2.0391429
v -0.3249031 0.0627514 -2.2285714
v -2.3430038 0.0755749 -2.2285714
v -2.3430038 0.0755749 -1.8497143
v -0.3249031 0.0627514 -1.8497143
v -0.3246517 0.2252512 -2.0391429
v -2.3411902 0.2380648 -2.0391429
v 0.3246517 0.2252512 -2.0391429
v 2.3411902 0.2380648 -2.0391429
v 2.3430038 0.0755749 -2.2285714
v 0.3249031 0.0627514 -2.2285714
v 0.3249031 0.0627514 -1.8497143
v 2.3430038 0.0755749 -1.8497143
v 2.3411902 0.2380648 -2.0391429
v 0.3246517 0.2252512 -2.0391429
v 2.3411902 0.2380648 -2.0391429
v 4.3575125 0.2702627 -2.0391429
v 4.3608880 0.1077978 -2.2285714
v 2.3430038 0.0755749 -2.2285714
v 2.3430038 0.0755749 -1.8497143
v 4.3608880 0.1077978 -1.8497143
v 4.3575125 0.2702627 -2.0391429
v 2.3411902 0.2380648 -2.0391429
v 4.3575125 0.2702627 -2.0391429
v 6.3734320 0.3218419 -2.0391429
v 6.3783691 0.1594169 -2.2285714
v 4.3608880 0.1077978 -2.2285714
v 4.3608880 0.1077978 -1.8497143
v 6.3783691 0.1594169 -1.8497143
v 6.3734320 0.3218419 -2.0391429
v 4.3575125 0.2702627 -2.0391429
v 6.3734320 0.3218419 -2.0391429
v 8.3887626 0.3927976 -2.0391429
v 8.3952608 0.2304276 -2.2285714
v 6.3783691 0.1594169 -2.2285714
v 6.3783691 0.1594169 -1.8497143
v 8.3952608 0.2304276 -1.8497143
v 8.3887626 0.3927976 -2.0391429
v 6.3734320 0.3218419 -2.0391429
v -8.3887626 0.3927976 -1.4820000
v -6.3734320 0.3218419 -1.4820000
v -6.3783691 0.1594169 -1.6714286
v -8.3952608 0.2304276 -1.6714286
v -8.3952608 0.2304276 -1.2925714
v -6.3783691 0.1594169 -1.2925714
v -6.3734320 0.3218419 -1.4820000
v -8.3887626 0.3927976 -1.4820000
v -6.3734320 0.3218419 -1.4820000
v -4.3575125 0.2702627 -1.4820000
v -4.3608880 0.1077978 -1.6714286
v -6.3783691 0.1594169 -1.6714286
v -6.3783691 0.1594169 -1.2925714
v -4.3608880 0.1077978 -1.2925714
v -4.3575125 0.2702627 -1.4820000
v -6.3734320 0.3218419 -1.4820000
v -4.3575125 0.2702627 -1.4820000
v -2.3411902 0.2380648 -1.4820000
v -2.3430038 0.0755749 -1.6714286
v -4.3608880 0.1077978 -1.6714286
v -4.3608880 0.1077978 -1.2925714
v -2.3430038 0.0755749 -1.2925714
v -2.3411902 0.2380648 -1.4820000
v -4.3575125 0.2702627 -1.4820000
v -2.3411902 0.2380648 -1.4820000
v -0.3246517 0.2252512 -1.4820000
v -0.3249031 0.0627514 -1.6714286
v -2.3430038 0.0755749 -1.6714286
v -2.3430038 0.0755749 -1.2925714
v -0.3249031 0.0627514 -1.2925714
v -0.3246517 0.2252512 -1.4820000
v -2.3411902 0.2380648 -1.4820000
v 0.3246517 0.2252512 -1.4820000
v 2.3411902 0.2380648 -1.4820000
v 2.3430038 0.0755749 -1.6714286
v 0.3249031 0.0627514 -1.6714286
v 0.3249031 0.0627514 -1.2925714
v 2.3430038 0.0755749 -1.2925714
v 2.3411902 0.2380648 -1.4820000
v 0.3246517 0.2252512 -1.4820000
v 2.3411902 0.2380648 -1.4820000
v 4.3575125 0.2702627 -1.4820000
v 4.3608880 0.1077978 -1.6714286
v 2.3430038 0.0755749 -1.6714286
v 2.3430038 0.0755749 -1.2925714
v 4.3608880 0.1077978 -1.2925714
v 4.3575125 0.2702627 -1.4820000
v 2.3411902 0.2380648 -1.4820000
v 4.3575125 0.2702627 -1.4820000
v 6.3734320 0.3218419 -1.4820000
v 6.3783691 0.1594169 -1.6714286
v 4.3608880 0.1077978 -1.6714286
v 4.3608880 0.1077978 -1.2925714
v 6.3783691 0.1594169 -1.2925714
v 6.3734320 0.3218419 -1.4820000
v 4.3575125 0.2702627 -1.4820000
v 6.3734320 0.3218419 -1.4820000
v 8.3887626 0.3927976 -1.4820000
v 8.3952608 0.2304276 -1.6714286
v 6.3783691 0.1594169 -1.6714286
v 6.3783691 0.1594169 -1.2925714
v 8.3952608 0.2304276 -1.2925714
v 8.3887626 0.3927976 -1.4820000
v 6.3734320 0.3218419 -1.4820000
v -8.3887626 0.3927976 -0.9248571
v -6.3734320 0.3218419 -0.9248571
v -6.3783691 0.1594169 -1.1142857
v -8.3952608 0.2304276 -1.1142857
v -8.3952608 0.2304276 -0.7354286
v -6.3783691 0.1594169 -0.7354286
v -6.3734320 0.3218419 -0.9248571
v -8.3887626 0.3927976 -0.9248571
v -6.3734320 0.3218419 -0.9248571
v -4.3575125 0.2702627 -0.9248571
v -4.3608880 0.1077978 -1.1142857
v -6.3783691 0.1594169 -1.1142857
v -6.3783691 0.1594169 -0.7354286
v -4.3608880 0.1077978 -0.7354286
v -4.3575125 0.2702627 -0.9248571
v -6.3734320 0.3218419 -0.9248571
v -4.3575125 0.2702627 -0.9248571
v -2.3411902 0.2380648 -0.9248571
v -2.3430038 0.0755749 -1.1142857
v -4.3608880 0.1077978 -1.1142857
v -4.3608880 0.1077978 -0.7354286
v -2.3430038 0.0755749 -0.7354286
v -2.3411902 0.2380648 -0.9248571
v -4.3575125 0.2702627 -0.9248571
v -2.3411902 0.2380648 -0.9248571
v -0.3246517 0.2252512 -0.9248571
v -0.3249031 0.0627514 -1.1142857
v -2.3430038 0.0755749 -1.1142857
v -2.3430038 0.0755749 -0.7354286
v -0.3249031 0.0627514 -0.7354286
v -0.3246517 0.2252512 -0.9248571
v -2.3411902 0.2380648 -0.9248571
v 0.3246517 0.2252512 -0.9248571
v 2.3411902 0.2380648 -0.9248571
v 2.3430038 0.0755749 -1.1142857
v 0.3249031 0.0627514 -1.1142857
v 0.3249031 0.0627514 -0.7354286
v 2.3430038 0.0755749 -0.7354286
v 2.3411902 0.2380648 -0.9248571
v 0.3246517 0.2252512 -0.9248571
v 2.3411902 0.2380648 -0.9248571
v 4.3575125 0.2702627 -0.9248571
v 4.3608880 0.1077978 -1.1142857
v 2.3430038 0.0755749 -1.1142857
v 2.3430038 0.0755749 -0.7354286
v 4.3608880 0.1077978 -0.7354286
v 4.3575125 0.2702627 -0.9248571
v 2.3411902 0.2380648 -0.9248571
v 4.3575125 0.2702627 -0.9248571
v 6.3734320 0.3218419 -0.9248571
v 6.3783691 0.1594169 -1.1142857
v 4.3608880 0.1077978 -1.1142857
v 4.3608880 0.1077978 -0.7354286
v 6.3783691 0.1594169 -0.7354286
v 6.3734320 0.3218419 -0.9248571
v 4.3575125 0.2702627 -0.9248571
v 6.3734320 0.3218419 -0.9248571
v 8.3887626 0.3927976 -0.9248571
v 8.3952608 0.2304276 -1.1142857
v 6.3783691 0.1594169 -1.1142857
v 6.3783691 0.1594169 -0.7354286
v 8.3952608 0.2304276 -0.7354286
v 8.3887626 0.3927976 -0.9248571
v 6.3734320 0.3218419 -0.9248571
v -8.3887626 0.3927976 -0.3677143
v -6.3734320 0.3218419 -0.3677143
v -6.3783691 0.1594169 -0.5571429
v -8.3952608 0.2304276 -0.5571429
v -8.3952608 0.2304276 -0.1782857
v -6.3783691 0.1594169 -0.1782857
v -6.3734320 0.3218419 -0.3677143
v -8.3887626 0.3927976 -0.3677143
v -6.3734320 0.3218419 -0.3677143
v -4.3575125 0.2702627 -0.3677143
v -4.3608880 0.1077978 -0.5571429
v -6.3783691 0.1594169 -0.5571429
v -6.3783691 0.1594169 -0.1782857
v -4.3608880 0.1077978 -0.1782857
v -4.3575125 0.2702627 -0.3677143
v -6.3734320 0.3218419 -0.3677143
v -4.3575125 0.2702627 -0.3677143
v -2.3411902 0.2380648 -0.3677143
v -2.3430038 0.0755749 -0.5571429
v -4.3608880 0.1077978 -0.5571429
v -4.3608880 0.1077978 -0.1782857
v -2.3430038 0.0755749 -0.1782857
v -2.3411902 0.2380648 -0.3677143
v -4.3575125 0.2702627 -0.3677143
v -2.3411902 0.2380648 -0.3677143
v -0.3246517 0.2252512 -0.3677143
v -0.3249031 0.0627514 -0.5571429
v -2.3430038 0.0755749 -0.5571429
v -2.3430038 0.0755749 -0.1782857
v -0.3249031 0.0627514 -0.1782857
v -0.3246517 0.2252512 -0.3677143
v -2.3411902 0.2380648 -0.3677143
v 0.3246517 0.2252512 -0.3677143
v 2.3411902 0.2380648 -0.3677143
v 2.3430038 0.0755749 -0.5571429
v 0.3249031 0.0627514 -0.5571429
v 0.3249031 0.0627514 -0.1782857
v 2.3430038 0.0755749 -0.1782857
v 2.3411902 0.2380648 -0.3677143
v 0.3246517 0.2252512 -0.3677143
v 2.3411902 0.2380648 -0.3677143
v 4.3575125 0.2702627 -0.3677143
v 4.3608880 0.1077978 -0.5571429
v 2.3430038 0.0755749 -0.5571429
v 2.3430038 0.0755749 -0.1782857
v 4.3608880 0.1077978 -0.1782857
v 4.3575125 0.2702627 -0.3677143
v 2.3411902 0.2380648 -0.3677143
v 4.3575125 0.2702627 -0.3677143
v 6.3734320 0.3218419 -0.3677143
v 6.3783691 0.1594169 -0.5571429
v 4.3608880 0.1077978 -0.5571429
v 4.3608880 0.1077978 -0.1782857
v 6.3783691 0.1594169 -0.1782857
v 6.3734320 0.3218419 -0.3677143
v 4.3575125 0.2702627 -0.3677143
v 6.3734320 0.3218419 -0.3677143
v 8.3887626 0.3927976 -0.3677143
v 8.3952608 0.2304276 -0.5571429
v 6.3783691 0.1594169 -0.5571429
v 6.3783691 0.1594169 -0.1782857
v 8.3952608 0.2304276 -0.1782857
v 8.3887626 0.3927976 -0.3677143
v 6.3734320 0.3218419 -0.3677143
v -8.3887626 0.3927976 0.1894286
v -6.3734320 0.3218419 0.1894286
v -6.3783691 0.1594169 0.0000000
v -8.3952608 0.2304276 0.0000000
v -8.3952608 0.2304276 0.3788571
v -6.3783691 0.1594169 0.3788571
v -6.3734320 0.3218419 0.1894286
v -8.3887626 0.3927976 0.1894286
v -6.3734320 0.3218419 0.1894286
v -4.3575125 0.2702627 0.1894286
v -4.3608880 0.1077978 0.0000000
v -6.3783691 0.1594169 0.0000000
v -6.3783691 0.1594169 0.3788571
v -4.3608880 0.1077978 0.3788571
v -4.3575125 0.2702627 0.1894286
v -6.3734320 0.3218419 0.1894286
v -4.3575125 0.2702627 0.1894286
v -2.3411902 0.2380648 0.1894286
v -2.3430038 0.0755749 0.0000000
v -4.3608880 0.1077978 0.0000000
v -4.3608880 0.1077978 0.3788571
v -2.3430038 0.0755749 0.3788571
v -2.3411902 0.2380648 0.1894286
v -4.3575125 0.2702627 0.1894286
v -2.3411902 0.2380648 0.1894286
v -0.3246517 0.2252512 0.1894286
v -0.3249031 0.0627514 0.0000000
v -2.3430038 0.0755749 0.0000000
v -2.3430038 0.0755749 0.3788571
v -0.3249031 0.0627514 0.3788571
v -0.3246517 0.2252512 0.1894286
v -2.3411902 0.2380648 0.1894286
v 0.3246517 0.2252512 0.1894286
v 2.3411902 0.2380648 0.1894286
v 2.3430038 0.0755749 0.0000000
v 0.3249031 0.0627514 0.0000000
v 0.3249031 0.0627514 0.3788571
v 2.3430038 0.0755749 0.3788571
v 2.3411902 0.2380648 0.1894286
v 0.3246517 0.2252512 0.1894286
v 2.3411902 0.2380648 0.1894286
v 4.3575125 0.2702627 0.1894286
v 4.3608880 0.1077978 0.0000000
v 2.3430038 0.0755749 0.0000000
v 2.3430038 0.0755749 0.3788571
v 4.3608880 0.1077978 0.3788571
v 4.3575125 0.2702627 0.1894286
v 2.3411902 0.2380648 0.1894286
v 4.3575125 0.2702627 0.1894286
v 6.3734320 0.3218419 0.1894286
v 6.3783691 0.1594169 0.0000000
v 4.3608880 0.1077978 0.0000000
v 4.3608880 0.1077978 0.3788571
v 6.3783691 0.1594169 0.3788571
v 6.3734320 0.3218419 0.1894286
v 4.3575125 0.2702627 0.1894286
v 6.3734320 0.3218419 0.1894286
v 8.3887626 0.3927976 0.1894286
v 8.3952608 0.2304276 0.0000000
v 6.3783691 0.1594169 0.0000000
v 6.3783691 0.1594169 0.3788571
v 8.3952608 0.2304276 0.3788571
v 8.3887626 0.3927976 0.1894286
v 6.3734320 0.3218419 0.1894286
v -8.3887626 0.3927976 0.7465714
v -6.3734320 0.3218419 0.7465714
v -6.3783691 0.1594169 0.5571429
v -8.3952608 0.2304276 0.5571429
v -8.3952608 0.2304276 0.9360000
v -6.3783691 0.1594169 0.9360000
v -6.3734320 0.3218419 0.7465714
v -8.3887626 0.3927976 0.7465714
v -6.3734320 0.3218419 0.7465714
v -4.3575125 0.2702627 0.7465714
v -4.3608880 0.1077978 0.5571429
v -6.3783691 0.1594169 0.5571429
v -6.3783691 0.1594169 0.9360000
v -4.3608880 0.1077978 0.9360000
v -4.3575125 0.2702627 0.7465714
v -6.3734320 0.3218419 0.7465714
v -4.3575125 0.2702627 0.7465714
v -2.3411902 0.2380648 0.7465714
v -2.3430038 0.0755749 0.5571429
v -4.3608880 0.1077978 0.5571429
v -4.3608880 0.1077978 0.9360000
v -2.3430038 0.0755749 0.9360000
v -2.3411902 0.2380648 0.7465714
v -4.3575125 0.2702627 0.7465714
v -2.3411902 0.2380648 0.7465714
v -0.3246517 0.2252512 0.7465714
v -0.3249031 0.0627514 0.5571429
v -2.3430038 0.0755749 0.5571429
v -2.3430038 0.0755749 0.9360000
v -0.3249031 0.0627514 0.9360000
v -0.3246517 0.2252512 0.7465714
v -2.3411902 0.2380648 0.7465714
v 0.3246517 0.2252512 0.7465714
v 2.3411902 0.2380648 0.7465714
v 2.3430038 0.0755749 0.5571429
v 0.3249031 0.0627514 0.5571429
v 0.3249031 0.0627514 0.9360000
v 2.3430038 0.0755749 0.9360000
v 2.3411902 0.2380648 0.7465714
v 0.3246517 0.2252512 0.7465714
v 2.3411902 0.2380648 0.7465714
v 4.3575125 0.2702627 0.7465714
v 4.3608880 0.1077978 0.5571429
v 2.3430038 0.0755749 0.5571429
v 2.3430038 0.0755749 0.9360000
v 4.3608880 0.1077978 0.9360000
v 4.3575125 0.2702627 0.7465714
v 2.3411902 0.2380648 0.7465714
v 4.3575125 0.2702627 0.7465714
v 6.3734320 0.3218419 0.7465714
v 6.3783691 0.1594169 0.5571429
v 4.3608880 0.1077978 0.5571429
v 4.3608880 0.1077978 0.9360000
v 6.3783691 0.1594169 0.9360000
v 6.3734320 0.3218419 0.7465714
v 4.3575125 0.2702627 0.7465714
v 6.3734320 0.3218419 0.7465714
v 8.3887626 0.3927976 0.7465714
v 8.3952608 0.2304276 0.5571429
v 6.3783691 0.1594169 0.5571429
v 6.3783691 0.1594169 0.9360000
v 8.3952608 0.2304276 0.9360000
v 8.3887626 0.3927976 0.7465714
v 6.3734320 0.3218419 0.7465714
v -8.3887626 0.3927976 1.3037143
v -6.3734320 0.3218419 1.3037143
v -6.3783691 0.1594169 1.1142857
v -8.3952608 0.2304276 1.1142857
v -8.3952608 0.2304276 1.4931429
v -6.3783691 0.1594169 1.4931429
v -6.3734320 0.3218419 1.3037143
v -8.3887626 0.3927976 1.3037143
v -6.3734320 0.3218419 1.3037143
v -4.3575125 0.2702627 1.3037143
v -4.3608880 0.1077978 1.1142857
v -6.3783691 0.1594169 1.1142857
v -6.3783691 0.1594169 1.4931429
v -4.3608880 0.1077978 1.4931429
v -4.3575125 0.2702627 1.3037143
v -6.3734320 0.3218419 1.3037143
v -4.3575125 0.2702627 1.3037143
v -2.3411902 0.2380648 1.3037143
v -2.3430038 0.0755749 1.1142857
v -4.3608880 0.1077978 1.1142857
v -4.3608880 0.1077978 1.4931429
v -2.3430038 0.0755749 1.4931429
v -2.3411902 0.2380648 1.3037143
v -4.3575125 0.2702627 1.3037143
v -2.3411902 0.2380648 1.3037143
v -0.3246517 0.2252512 1.3037143
v -0.3249031 0.0627514 1.1142857
v -2.3430038 0.0755749 1.1142857
v -2.3430038 0.0755749 1.4931429
v -0.3249031 0.0627514 1.4931429
v -0.3246517 0.2252512 1.3037143
v -2.3411902 0.2380648 1.3037143
v 0.3246517 0.2252512 1.3037143
v 2.3411902 0.2380648 1.3037143
v 2.3430038 0.0755749 1.1142857
v 0.3249031 0.0627514 1.1142857
v 0.3249031 0.0627514 1.4931429
v 2.3430038 0.0755749 1.4931429
v 2.3411902 0.2380648 1.3037143
v 0.3246517 0.2252512 1.3037143
v 2.3411902 0.2380648 1.3037143
v 4.3575125 0.2702627 1.3037143
v 4.3608880 0.1077978 1.1142857
v 2.3430038 0.0755749 1.1142857
v 2.3430038 0.0755749 1.4931429
v 4.3608880 0.1077978 1.4931429
v 4.3575125 0.2702627 1.3037143
v 2.3411902 0.2380648 1.3037143
v 4.3575125 0.2702627 1.3037143
v 6.3734320 0.3218419 1.3037143
v 6.3783691 0.1594169 1.1142857
v 4.3608880 0.1077978 1.1142857
v 4.3608880 0.1077978 1.4931429
v 6.3783691 0.1594169 1.4931429
v 6.3734320 0.3218419 1.3037143
v 4.3575125 0.2702627 1.3037143
v 6.3734320 0.3218419 1.3037143
v 8.3887626 0.3927976 1.3037143
v 8.3952608 0.2304276 1.1142857
v 6.3783691 0.1594169 1.1142857
v 6.3783691 0.1594169 1.4931429
v 8.3952608 0.2304276 1.4931429
v 8.3887626 0.3927976 1.3037143
v 6.3734320 0.3218419 1.3037143
v -8.3887626 0.3927976 1.8608571
v -6.3734320 0.3218419 1.8608571
v -6.3783691 0.1594169 1.6714286
v -8.3952608 0.2304276 1.6714286
v -8.3952608 0.2304276 2.0502857
v -6.3783691 0.1594169 2.0502857
v -6.3734320 0.3218419 1.8608571
v -8.3887626 0.3927976 1.8608571
v -6.3734320 0.3218419 1.8608571
v -4.3575125 0.2702627 1.8608571
v -4.3608880 0.1077978 1.6714286
v -6.3783691 0.1594169 1.6714286
v -6.3783691 0.1594169 2.0502857
v -4.3608880 0.1077978 2.0502857
v -4.3575125 0.2702627 1.8608571
v -6.3734320 0.3218419 1.8608571
v -4.3575125 0.2702627 1.8608571
v -2.3411902 0.2380648 1.8608571
v -2.3430038 0.0755749 1.6714286
v -4.3608880 0.1077978 1.6714286
v -4.3608880 0.1077978 2.0502857
v -2.3430038 0.0755749 2.0502857
v -2.3411902 0.2380648 1.8608571
v -4.3575125 0.2702627 1.8608571
v -2.3411902 0.2380648 1.8608571
v -0.3246517 0.2252512 1.8608571
v -0.3249031 0.0627514 1.6714286
v -2.3430038 0.0755749 1.6714286
v -2.3430038 0.0755749 2.0502857
v -0.3249031 0.0627514 2.0502857
v -0.3246517 0.2252512 1.8608571
v -2.3411902 0.2380648 1.8608571
v 0.3246517 0.2252512 1.8608571
v 2.3411902 0.2380648 1.8608571
v 2.3430038 0.0755749 1.6714286
v 0.3249031 0.0627514 1.6714286
v 0.3249031 0.0627514 2.0502857
v 2.3430038 0.0755749 2.0502857
v 2.3411902 0.2380648 1.8608571
v 0.3246517 0.2252512 1.8608571
v 2.3411902 0.2380648 1.8608571
v 4.3575125 0.2702627 1.8608571
v 4.3608880 0.1077978 1.6714286
v 2.3430038 0.0755749 1.6714286
v 2.3430038 0.0755749 2.0502857
v 4.3608880 0.1077978 2.0502857
v 4.3575125 0.2702627 1.8608571
v 2.3411902 0.2380648 1.8608571
v 4.3575125 0.2702627 1.8608571
v 6.3734320 0.3218419 1.8608571
v 6.3783691 0.1594169 1.6714286
v 4.3608880 0.1077978 1.6714286
v 4.3608880 0.1077978 2.0502857
v 6.3783691 0.1594169 2.0502857
v 6.3734320 0.3218419 1.8608571
v 4.3575125 0.2702627 1.8608571
v 6.3734320 0.3218419 1.8608571
v 8.3887626 0.3927976 1.8608571
v 8.3952608 0.2304276 1.6714286
v 6.3783691 0.1594169 1.6714286
v 6.3783691 0.1594169 2.0502857
v 8.3952608 0.2304276 2.0502857
v 8.3887626 0.3927976 1.8608571
v 6.3734320 0.3218419 1.8608571
v -8.3887626 0.3927976 2.4180000
v -6.3734320 0.3218419 2.4180000
v -6.3783691 0.1594169 2.2285714
v -8.3952608 0.2304276 2.2285714
v -8.3952608 0.2304276 2.6074286
v -6.3783691 0.1594169 2.6074286
v -6.3734320 0.3218419 2.4180000
v -8.3887626 0.3927976 2.4180000
v -6.3734320 0.3218419 2.4180000
v -4.3575125 0.2702627 2.4180000
v -4.3608880 0.1077978 2.2285714
v -6.3783691 0.1594169 2.2285714
v -6.3783691 0.1594169 2.6074286
v -4.3608880 0.1077978 2.6074286
v -4.3575125 0.2702627 2.4180000
v -6.3734320 0.3218419 2.4180000
v -4.3575125 0.2702627 2.4180000
v -2.3411902 0.2380648 2.4180000
v -2.3430038 0.0755749 2.2285714
v -4.3608880 0.1077978 2.2285714
v -4.3608880 0.1077978 2.6074286
v -2.3430038 0.0755749 2.6074286
v -2.3411902 0.2380648 2.4180000
v -4.3575125 0.2702627 2.4180000
v -2.3411902 0.2380648 2.4180000
v -0.3246517 0.2252512 2.4180000
v -0.3249031 0.0627514 2.2285714
v -2.3430038 0.0755749 2.2285714
v -2.3430038 0.0755749 2.6074286
v -0.3249031 0.0627514 2.6074286
v -0.3246517 0.2252512 2.4180000
v -2.3411902 0.2380648 2.4180000
v 0.3246517 0.2252512 2.4180000
v 2.3411902 0.2380648 2.4180000
v 2.3430038 0.0755749 2.2285714
v 0.3249031 0.0627514 2.2285714
v 0.3249031 0.0627514 2.6074286
v 2.3430038 0.0755749 2.6074286
v 2.3411902 0.2380648 2.4180000
v 0.3246517 0.2252512 2.4180000
v 2.3411902 0.2380648 2.4180000
v 4.3575125 0.2702627 2.4180000
v 4.3608880 0.1077978 2.2285714
v 2.3430038 0.0755749 2.2285714
v 2.3430038 0.0755749 2.6074286
v 4.3608880 0.1077978 2.6074286
v 4.3575125 0.2702627 2.4180000
v 2.3411902 0.2380648 2.4180000
v 4.3575125 0.2702627 2.4180000
v 6.3734320 0.3218419 2.4180000
v 6.3783691 0.1594169 2.2285714
v 4.3608880 0.1077978 2.2285714
v 4.3608880 0.1077978 2.6074286
v 6.3783691 0.1594169 2.6074286
v 6.3734320 0.3218419 2.4180000
v 4.3575125 0.2702627 2.4180000
v 6.3734320 0.3218419 2.4180000
v 8.3887626 0.3927976 2.4180000
v 8.3952608 0.2304276 2.2285714
v 6.3783691 0.1594169 2.2285714
v 6.3783691 0.1594169 2.6074286
v 8.3952608 0.2304276 2.6074286
v 8.3887626 0.3927976 2.4180000
v 6.3734320 0.3218419 2.4180000
v -8.3887626 0.3927976 2.9751429
v -6.3734320 0.3218419 2.9751429
v -6.3783691 0.1594169 2.7857143
v -8.3952608 0.2304276 2.7857143
v -8.3952608 0.2304276 3.1645714
v -6.3783691 0.1594169 3.1645714
v -6.3734320 0.3218419 2.9751429
v -8.3887626 0.3927976 2.9751429
v -6.3734320 0.3218419 2.9751429
v -4.3575125 0.2702627 2.9751429
v -4.3608880 0.1077978 2.7857143
v -6.3783691 0.1594169 2.7857143
v -6.3783691 0.1594169 3.1645714
v -4.3608880 0.1077978 3.1645714
v -4.3575125 0.2702627 2.9751429
v -6.3734320 0.3218419 2.9751429
v -4.3575125 0.2702627 2.9751429
v -2.3411902 0.2380648 2.9751429
v -2.3430038 0.0755749 2.7857143
v -4.3608880 0.1077978 2.7857143
v -4.3608880 0.1077978 3.1645714
v -2.3430038 0.0755749 3.1645714
v -2.3411902 0.2380648 2.9751429
v -4.3575125 0.2702627 2.9751429
v -2.3411902 0.2380648 2.9751429
v -0.3246517 0.2252512 2.9751429
v -0.3249031 0.0627514 2.7857143
v -2.3430038 0.0755749 2.7857143
v -2.3430038 0.0755749 3.1645714
v -0.3249031 0.0627514 3.1645714
v -0.3246517 0.2252512 2.9751429
v -2.3411902 0.2380648 2.9751429
v 0.3246517 0.2252512 2.9751429
v 2.3411902 0.2380648 2.9751429
v 2.3430038 0.0755749 2.7857143
v 0.3249031 0.0627514 2.7857143
v 0.3249031 0.0627514 3.1645714
v 2.3430038 0.0755749 3.1645714
v 2.3411902 0.2380648 2.9751429
v 0.3246517 0.2252512 2.9751429
v 2.3411902 0.2380648 2.9751429
v 4.3575125 0.2702627 2.9751429
v 4.3608880 0.1077978 2.7857143
v 2.3430038 0.0755749 2.7857143
v 2.3430038 0.0755749 3.1645714
v 4.3608880 0.1077978 3.1645714
v 4.3575125 0.2702627 2.9751429
v 2.3411902 0.2380648 2.9751429
v 4.3575125 0.2702627 2.9751429
v 6.3734320 0.3218419 2.9751429
v 6.3783691 0.1594169 2.7857143
v 4.3608880 0.1077978 2.7857143
v 4.3608880 0.1077978 3.1645714
v 6.3783691 0.1594169 3.1645714
v 6.3734320 0.3218419 2.9751429
v 4.3575125 0.2702627 2.9751429
v 6.3734320 0.3218419 2.9751429
v 8.3887626 0.3927976 2.9751429
v 8.3952608 0.2304276 2.7857143
v 6.3783691 0.1594169 2.7857143
v 6.3783691 0.1594169 3.1645714
v 8.3952608 0.2304276 3.1645714
v 8.3887626 0.3927976 2.9751429
v 6.3734320 0.3218419 2.9751429
v -8.3887626 0.3927976 3.5322857
v -6.3734320 0.3218419 3.5322857
v -6.3783691 0.1594169 3.3428571
v -8.3952608 0.2304276 3.3428571
v -8.3952608 0.2304276 3.7217143
v -6.3783691 0.1594169 3.7217143
v -6.3734320 0.3218419 3.5322857
v -8.3887626 0.3927976 3.5322857
v -6.3734320 0.3218419 3.5322857
v -4.3575125 0.2702627 3.5322857
v -4.3608880 0.1077978 3.3428571
v -6.3783691 0.1594169 3.3428571
v -6.3783691 0.1594169 3.7217143
v -4.3608880 0.1077978 3.7217143
v -4.3575125 0.2702627 3.5322857
v -6.3734320 0.3218419 3.5322857
v -4.3575125 0.2702627 3.5322857
v -2.3411902 0.2380648 3.5322857
v -2.3430038 0.0755749 3.3428571
v -4.3608880 0.1077978 3.3428571
v -4.3608880 0.1077978 3.7217143
v -2.3430038 0.0755749 3.7217143
v -2.3411902 0.2380648 3.5322857
v -4.3575125 0.2702627 3.5322857
v -2.3411902 0.2380648 3.5322857
v -0.3246517 0.2252512 3.5322857
v -0.3249031 0.0627514 3.3428571
v -2.3430038 0.0755749 3.3428571
v -2.3430038 0.0755749 3.7217143
v -0.3249031 0.0627514 3.7217143
v -0.3246517 0.2252512 3.5322857
v -2.3411902 0.2380648 3.5322857
v 0.3246517 0.2252512 3.5322857
v 2.3411902 0.2380648 3.5322857
v 2.3430038 0.0755749 3.3428571
v 0.3249031 0.0627514 3.3428571
v 0.3249031 0.0627514 3.7217143
v 2.3430038 0.0755749 3.7217143
v 2.3411902 0.2380648 3.5322857
v 0.3246517 0.2252512 3.5322857
v 2.3411902 0.2380648 3.5322857
v 4.3575125 0.2702627 3.5322857
v 4.3608880 0.1077978 3.3428571
v 2.3430038 0.0755749 3.3428571
v 2.3430038 0.0755749 3.7217143
v 4.3608880 0.1077978 3.7217143
v 4.3575125 0.2702627 3.5322857
v 2.3411902 0.2380648 3.5322857
v 4.3575125 0.2702627 3.5322857
v 6.3734320 0.3218419 3.5322857
v 6.3783691 0.1594169 3.3428571
v 4.3608880 0.1077978 3.3428571
v 4.3608880 0.1077978 3.7217143
v 6.3783691 0.1594169 3.7217143
v 6.3734320 0.3218419 3.5322857
v 4.3575125 0.2702627 3.5322857
v 6.3734320 0.3218419 3.5322857
v 8.3887626 0.3927976 3.5322857
v 8.3952608 0.2304276 3.3428571
v 6.3783691 0.1594169 3.3428571
v 6.3783691 0.1594169 3.7217143
v 8.3952608 0.2304276 3.7217143
v 8.3887626 0.3927976 3.5322857
v 6.3734320 0.3218419 3.5322857
v -8.3627695 1.0422777 -2.5250000
v -6.2728090 0.9690992 -2.5250000
v -6.2728090 0.9690992 -2.5750000
v -8.3627695 1.0422777 -2.5750000
v -6.2728090 0.9690992 -2.5250000
v -4.1822212 0.9168236 -2.5250000
v -4.1822212 0.9168236 -2.5750000
v -6.2728090 0.9690992 -2.5750000
v -4.1822212 0.9168236 -2.5250000
v -2.0912151 0.8854562 -2.5250000
v -2.0912151 0.8854562 -2.5750000
v -4.1822212 0.9168236 -2.5750000
v -2.0912151 0.8854562 -2.5250000
v 0.0000000 0.8750000 -2.5250000
v 0.0000000 0.8750000 -2.5750000
v -2.0912151 0.8854562 -2.5750000
v 0.0000000 0.8750000 -2.5250000
v 2.0912151 0.8854562 -2.5250000
v 2.0912151 0.8854562 -2.5750000
v 0.0000000 0.8750000 -2.5750000
v 2.0912151 0.8854562 -2.5250000
v 4.1822212 0.9168236 -2.5250000
v 4.1822212 0.9168236 -2.5750000
v 2.0912151 0.8854562 -2.5750000
v 4.1822212 0.9168236 -2.5250000
v 6.2728090 0.9690992 -2.5250000
v 6.2728090 0.9690992 -2.5750000
v 4.1822212 0.9168236 -2.5750000
v 6.2728090 0.9690992 -2.5250000
v 8.3627695 1.0422777 -2.5250000
v 8.3627695 1.0422777 -2.5750000
v 6.2728090 0.9690992 -2.5750000
v -8.3627695 1.0422777 2.5750000
v -6.2728090 0.9690992 2.5750000
v -6.2728090 0.9690992 2.5250000
v -8.3627695 1.0422777 2.5250000
v -6.2728090 0.9690992 2.5750000
v -4.1822212 0.9168236 2.5750000
v -4.1822212 0.9168236 2.5250000
v -6.2728090 0.9690992 2.5250000
v -4.1822212 0.9168236 2.5750000
v -2.0912151 0.8854562 2.5750000
v -2.0912151 0.8854562 2.5250000
v -4.1822212 0.9168236 2.5250000
v -2.0912151 0.8854562 2.5750000
v 0.0000000 0.8750000 2.5750000
v 0.0000000 0.8750000 2.5250000
v -2.0912151 0.8854562 2.5250000
v 0.0000000 0.8750000 2.5750000
v 2.0912151 0.8854562 2.5750000
v 2.0912151 0.8854562 2.5250000
v 0.0000000 0.8750000 2.5250000
v 2.0912151 0.8854562 2.5750000
v 4.1822212 0.9168236 2.5750000
v 4.1822212 0.9168236 2.5250000
v 2.0912151 0.8854562 2.5250000
v 4.1822212 0.9168236 2.5750000
v 6.2728090 0.9690992 2.5750000
v 6.2728090 0.9690992 2.5250000
v 4.1822212 0.9168236 2.5250000
v 6.2728090 0.9690992 2.5750000
v 8.3627695 1.0422777 2.5750000
v 8.3627695 1.0422777 2.5250000
v 6.2728090 0.9690992 2.5250000
vt 0.005000 0.995000
vt 0.245000 0.995000
vt 0.245000 0.755000
vt 0.255000 0.995000
vt 0.495000 0.995000
vt 0.495000 0.755000
vt 0.505000 0.995000
vt 0.745000 0.995000
vt 0.745000 0.755000
vt 0.755000 0.995000
vt 0.995000 0.995000
vt 0.995000 0.755000
vt 0.005000 0.745000
vt 0.245000 0.745000
vt 0.245000 0.505000
vt 0.255000 0.745000
vt 0.495000 0.745000
vt 0.495000 0.505000
vt 0.505000 0.745000
vt 0.745000 0.745000
vt 0.745000 0.505000
vt 0.755000 0.745000
vt 0.995000 0.745000
vt 0.995000 0.505000
vt 0.005000 0.495000
vt 0.245000 0.495000
vt 0.245000 0.255000
vt 0.255000 0.495000
vt 0.495000 0.495000
vt 0.495000 0.255000
vt 0.505000 0.495000
vt 0.745000 0.495000
vt 0.745000 0.255000
vt 0.755000 0.495000
vt 0.995000 0.495000
vt 0.995000 0.255000
vt 0.005000 0.245000
vt 0.245000 0.245000
vt 0.245000 0.005000
vt 0.255000 0.245000
vt 0.495000 0.245000
vt 0.495000 0.005000
vt 0.505000 0.245000
vt 0.745000 0.245000
vt 0.745000 0.005000
vt 0.755000 0.245000
vt 0.995000 0.245000
vt 0.995000 0.005000
g lighting
usemtl farm-kit
f 997/43 998/44 999/45
f 997/43 999/44 1000/45
f 1001/43 1002/44 1003/45
f 1001/43 1003/44 1004/45
f 1005/43 1006/44 1007/45
f 1005/43 1007/44 1008/45
f 1009/43 1010/44 1011/45
f 1009/43 1011/44 1012/45
f 1013/43 1014/44 1015/45
f 1013/43 1015/44 1016/45
f 1017/43 1018/44 1019/45
f 1017/43 1019/44 1020/45
f 1021/43 1022/44 1023/45
f 1021/43 1023/44 1024/45
f 1025/43 1026/44 1027/45
f 1025/43 1027/44 1028/45
f 1029/43 1030/44 1031/45
f 1029/43 1031/44 1032/45
f 1033/43 1034/44 1035/45
f 1033/43 1035/44 1036/45
f 1037/43 1038/44 1039/45
f 1037/43 1039/44 1040/45
f 1041/43 1042/44 1043/45
f 1041/43 1043/44 1044/45
f 1045/43 1046/44 1047/45
f 1045/43 1047/44 1048/45
f 1049/43 1050/44 1051/45
f 1049/43 1051/44 1052/45
f 1053/43 1054/44 1055/45
f 1053/43 1055/44 1056/45
f 1057/43 1058/44 1059/45
f 1057/43 1059/44 1060/45
g ornament
usemtl farm-kit
f 101/10 102/11 103/12
f 101/10 103/11 104/12
f 105/10 106/11 107/12
f 105/10 107/11 108/12
f 109/10 110/11 111/12
f 109/10 111/11 112/12
f 113/10 114/11 115/12
f 113/10 115/11 116/12
f 117/10 118/11 119/12
f 117/10 119/11 120/12
f 121/10 122/11 123/12
f 121/10 123/11 124/12
f 125/10 126/11 127/12
f 125/10 127/11 128/12
f 129/10 130/11 131/12
f 129/10 131/11 132/12
f 133/10 134/11 135/12
f 133/10 135/11 136/12
f 137/10 138/11 139/12
f 137/10 139/11 140/12
f 141/10 142/11 143/12
f 141/10 143/11 144/12
f 145/10 146/11 147/12
f 145/10 147/11 148/12
f 149/10 150/11 151/12
f 149/10 151/11 152/12
f 153/10 154/11 155/12
f 153/10 155/11 156/12
f 157/10 158/11 159/12
f 157/10 159/11 160/12
f 161/10 162/11 163/12
f 161/10 163/11 164/12
f 165/10 166/11 167/12
f 165/10 167/11 168/12
f 169/10 170/11 171/12
f 169/10 171/11 172/12
f 173/10 174/11 175/12
f 173/10 175/11 176/12
f 177/10 178/11 179/12
f 177/10 179/11 180/12
f 181/10 182/11 183/12
f 181/10 183/11 184/12
f 185/10 186/11 187/12
f 185/10 187/11 188/12
f 189/10 190/11 191/12
f 189/10 191/11 192/12
f 193/10 194/11 195/12
f 193/10 195/11 196/12
f 197/10 198/11 199/12
f 197/10 199/11 200/12
f 201/10 202/11 203/12
f 201/10 203/11 204/12
f 205/10 206/11 207/12
f 205/10 207/11 208/12
f 209/10 210/11 211/12
f 209/10 211/11 212/12
f 213/10 214/11 215/12
f 213/10 215/11 216/12
f 217/10 218/11 219/12
f 217/10 219/11 220/12
f 221/10 222/11 223/12
f 221/10 223/11 224/12
f 225/10 226/11 227/12
f 225/10 227/11 228/12
f 229/10 230/11 231/12
f 229/10 231/11 232/12
f 233/10 234/11 235/12
f 233/10 235/11 236/12
f 237/10 238/11 239/12
f 237/10 239/11 240/12
f 241/10 242/11 243/12
f 241/10 243/11 244/12
f 245/10 246/11 247/12
f 245/10 247/11 248/12
f 249/10 250/11 251/12
f 249/10 251/11 252/12
f 253/10 254/11 255/12
f 253/10 255/11 256/12
f 257/10 258/11 259/12
f 257/10 259/11 260/12
f 261/10 262/11 263/12
f 261/10 263/11 264/12
f 265/10 266/11 267/12
f 265/10 267/11 268/12
f 269/10 270/11 271/12
f 269/10 271/11 272/12
f 273/10 274/11 275/12
f 273/10 275/11 276/12
f 277/10 278/11 279/12
f 277/10 279/11 280/12
f 281/10 282/11 283/12
f 281/10 283/11 284/12
f 285/10 286/11 287/12
f 285/10 287/11 288/12
f 289/10 290/11 291/12
f 289/10 291/11 292/12
f 293/10 294/11 295/12
f 293/10 295/11 296/12
f 297/10 298/11 299/12
f 297/10 299/11 300/12
f 301/10 302/11 303/12
f 301/10 303/11 304/12
f 305/10 306/11 307/12
f 305/10 307/11 308/12
f 309/10 310/11 311/12
f 309/10 311/11 312/12
f 313/10 314/11 315/12
f 313/10 315/11 316/12
f 317/10 318/11 319/12
f 317/10 319/11 320/12
f 321/10 322/11 323/12
f 321/10 323/11 324/12
f 325/10 326/11 327/12
f 325/10 327/11 328/12
f 329/10 330/11 331/12
f 329/10 331/11 332/12
f 333/10 334/11 335/12
f 333/10 335/11 336/12
f 337/10 338/11 339/12
f 337/10 339/11 340/12
f 341/10 342/11 343/12
f 341/10 343/11 344/12
f 345/10 346/11 347/12
f 345/10 347/11 348/12
f 349/10 350/11 351/12
f 349/10 351/11 352/12
f 353/10 354/11 355/12
f 353/10 355/11 356/12
f 357/10 358/11 359/12
f 357/10 359/11 360/12
f 361/10 362/11 363/12
f 361/10 363/11 364/12
f 365/10 366/11 367/12
f 365/10 367/11 368/12
f 369/10 370/11 371/12
f 369/10 371/11 372/12
f 373/10 374/11 375/12
f 373/10 375/11 376/12
f 377/10 378/11 379/12
f 377/10 379/11 380/12
f 381/10 382/11 383/12
f 381/10 383/11 384/12
f 385/10 386/11 387/12
f 385/10 387/11 388/12
f 389/10 390/11 391/12
f 389/10 391/11 392/12
f 393/10 394/11 395/12
f 393/10 395/11 396/12
f 397/10 398/11 399/12
f 397/10 399/11 400/12
f 401/10 402/11 403/12
f 401/10 403/11 404/12
f 405/10 406/11 407/12
f 405/10 407/11 408/12
f 409/10 410/11 411/12
f 409/10 411/11 412/12
f 413/10 414/11 415/12
f 413/10 415/11 416/12
f 417/10 418/11 419/12
f 417/10 419/11 420/12
f 421/10 422/11 423/12
f 421/10 423/11 424/12
f 425/10 426/11 427/12
f 425/10 427/11 428/12
f 429/10 430/11 431/12
f 429/10 431/11 432/12
f 433/10 434/11 435/12
f 433/10 435/11 436/12
f 437/10 438/11 439/12
f 437/10 439/11 440/12
f 441/10 442/11 443/12
f 441/10 443/11 444/12
f 445/10 446/11 447/12
f 445/10 447/11 448/12
f 449/10 450/11 451/12
f 449/10 451/11 452/12
f 453/10 454/11 455/12
f 453/10 455/11 456/12
f 457/10 458/11 459/12
f 457/10 459/11 460/12
f 461/10 462/11 463/12
f 461/10 463/11 464/12
f 465/10 466/11 467/12
f 465/10 467/11 468/12
f 469/10 470/11 471/12
f 469/10 471/11 472/12
f 473/10 474/11 475/12
f 473/10 475/11 476/12
f 477/10 478/11 479/12
f 477/10 479/11 480/12
f 481/10 482/11 483/12
f 481/10 483/11 484/12
f 485/10 486/11 487/12
f 485/10 487/11 488/12
f 489/10 490/11 491/12
f 489/10 491/11 492/12
f 493/10 494/11 495/12
f 493/10 495/11 496/12
f 497/10 498/11 499/12
f 497/10 499/11 500/12
f 501/10 502/11 503/12
f 501/10 503/11 504/12
f 505/10 506/11 507/12
f 505/10 507/11 508/12
f 509/10 510/11 511/12
f 509/10 511/11 512/12
f 513/10 514/11 515/12
f 513/10 515/11 516/12
f 517/10 518/11 519/12
f 517/10 519/11 520/12
f 521/10 522/11 523/12
f 521/10 523/11 524/12
f 525/10 526/11 527/12
f 525/10 527/11 528/12
f 529/10 530/11 531/12
f 529/10 531/11 532/12
f 533/10 534/11 535/12
f 533/10 535/11 536/12
f 537/10 538/11 539/12
f 537/10 539/11 540/12
f 541/10 542/11 543/12
f 541/10 543/11 544/12
f 545/10 546/11 547/12
f 545/10 547/11 548/12
f 549/10 550/11 551/12
f 549/10 551/11 552/12
f 553/10 554/11 555/12
f 553/10 555/11 556/12
f 557/10 558/11 559/12
f 557/10 559/11 560/12
f 561/10 562/11 563/12
f 561/10 563/11 564/12
f 565/10 566/11 567/12
f 565/10 567/11 568/12
f 569/10 570/11 571/12
f 569/10 571/11 572/12
f 573/10 574/11 575/12
f 573/10 575/11 576/12
f 577/10 578/11 579/12
f 577/10 579/11 580/12
f 581/10 582/11 583/12
f 581/10 583/11 584/12
f 585/10 586/11 587/12
f 585/10 587/11 588/12
f 589/10 590/11 591/12
f 589/10 591/11 592/12
f 593/10 594/11 595/12
f 593/10 595/11 596/12
f 597/10 598/11 599/12
f 597/10 599/11 600/12
f 601/10 602/11 603/12
f 601/10 603/11 604/12
f 605/10 606/11 607/12
f 605/10 607/11 608/12
f 609/10 610/11 611/12
f 609/10 611/11 612/12
f 613/10 614/11 615/12
f 613/10 615/11 616/12
f 617/10 618/11 619/12
f 617/10 619/11 620/12
f 621/10 622/11 623/12
f 621/10 623/11 624/12
f 625/10 626/11 627/12
f 625/10 627/11 628/12
f 629/10 630/11 631/12
f 629/10 631/11 632/12
f 633/10 634/11 635/12
f 633/10 635/11 636/12
f 637/10 638/11 639/12
f 637/10 639/11 640/12
f 641/10 642/11 643/12
f 641/10 643/11 644/12
f 645/10 646/11 647/12
f 645/10 647/11 648/12
f 649/10 650/11 651/12
f 649/10 651/11 652/12
f 653/10 654/11 655/12
f 653/10 655/11 656/12
f 657/10 658/11 659/12
f 657/10 659/11 660/12
f 661/10 662/11 663/12
f 661/10 663/11 664/12
f 665/10 666/11 667/12
f 665/10 667/11 668/12
f 669/10 670/11 671/12
f 669/10 671/11 672/12
f 673/10 674/11 675/12
f 673/10 675/11 676/12
f 677/10 678/11 679/12
f 677/10 679/11 680/12
f 681/10 682/11 683/12
f 681/10 683/11 684/12
f 685/10 686/11 687/12
f 685/10 687/11 688/12
f 689/10 690/11 691/12
f 689/10 691/11 692/12
f 693/10 694/11 695/12
f 693/10 695/11 696/12
f 697/10 698/11 699/12
f 697/10 699/11 700/12
f 701/10 702/11 703/12
f 701/10 703/11 704/12
f 705/10 706/11 707/12
f 705/10 707/11 708/12
f 709/10 710/11 711/12
f 709/10 711/11 712/12
f 713/10 714/11 715/12
f 713/10 715/11 716/12
f 717/10 718/11 719/12
f 717/10 719/11 720/12
f 721/10 722/11 723/12
f 721/10 723/11 724/12
f 725/10 726/11 727/12
f 725/10 727/11 728/12
f 729/10 730/11 731/12
f 729/10 731/11 732/12
f 733/10 734/11 735/12
f 733/10 735/11 736/12
f 737/10 738/11 739/12
f 737/10 739/11 740/12
f 741/10 742/11 743/12
f 741/10 743/11 744/12
f 745/10 746/11 747/12
f 745/10 747/11 748/12
f 749/10 750/11 751/12
f 749/10 751/11 752/12
f 753/10 754/11 755/12
f 753/10 755/11 756/12
f 757/10 758/11 759/12
f 757/10 759/11 760/12
f 761/10 762/11 763/12
f 761/10 763/11 764/12
f 765/10 766/11 767/12
f 765/10 767/11 768/12
f 769/10 770/11 771/12
f 769/10 771/11 772/12
f 773/10 774/11 775/12
f 773/10 775/11 776/12
f 777/10 778/11 779/12
f 777/10 779/11 780/12
f 781/10 782/11 783/12
f 781/10 783/11 784/12
f 785/10 786/11 787/12
f 785/10 787/11 788/12
f 789/10 790/11 791/12
f 789/10 791/11 792/12
f 793/10 794/11 795/12
f 793/10 795/11 796/12
f 797/10 798/11 799/12
f 797/10 799/11 800/12
f 801/10 802/11 803/12
f 801/10 803/11 804/12
f 805/10 806/11 807/12
f 805/10 807/11 808/12
f 809/10 810/11 811/12
f 809/10 811/11 812/12
f 813/10 814/11 815/12
f 813/10 815/11 816/12
f 817/10 818/11 819/12
f 817/10 819/11 820/12
f 821/10 822/11 823/12
f 821/10 823/11 824/12
f 825/10 826/11 827/12
f 825/10 827/11 828/12
f 829/10 830/11 831/12
f 829/10 831/11 832/12
f 833/10 834/11 835/12
f 833/10 835/11 836/12
f 837/10 838/11 839/12
f 837/10 839/11 840/12
f 841/10 842/11 843/12
f 841/10 843/11 844/12
f 845/10 846/11 847/12
f 845/10 847/11 848/12
f 849/10 850/11 851/12
f 849/10 851/11 852/12
f 853/10 854/11 855/12
f 853/10 855/11 856/12
f 857/10 858/11 859/12
f 857/10 859/11 860/12
f 861/10 862/11 863/12
f 861/10 863/11 864/12
f 865/10 866/11 867/12
f 865/10 867/11 868/12
f 869/10 870/11 871/12
f 869/10 871/11 872/12
f 873/10 874/11 875/12
f 873/10 875/11 876/12
f 877/10 878/11 879/12
f 877/10 879/11 880/12
f 881/10 882/11 883/12
f 881/10 883/11 884/12
f 885/10 886/11 887/12
f 885/10 887/11 888/12
f 889/10 890/11 891/12
f 889/10 891/11 892/12
f 893/10 894/11 895/12
f 893/10 895/11 896/12
f 897/10 898/11 899/12
f 897/10 899/11 900/12
f 901/10 902/11 903/12
f 901/10 903/11 904/12
f 905/10 906/11 907/12
f 905/10 907/11 908/12
f 909/10 910/11 911/12
f 909/10 911/11 912/12
f 913/10 914/11 915/12
f 913/10 915/11 916/12
f 917/10 918/11 919/12
f 917/10 919/11 920/12
f 921/10 922/11 923/12
f 921/10 923/11 924/12
f 925/10 926/11 927/12
f 925/10 927/11 928/12
f 929/10 930/11 931/12
f 929/10 931/11 932/12
f 933/10 934/11 935/12
f 933/10 935/11 936/12
f 937/10 938/11 939/12
f 937/10 939/11 940/12
f 941/10 942/11 943/12
f 941/10 943/11 944/12
f 945/10 946/11 947/12
f 945/10 947/11 948/12
f 949/10 950/11 951/12
f 949/10 951/11 952/12
f 953/10 954/11 955/12
f 953/10 955/11 956/12
f 957/10 958/11 959/12
f 957/10 959/11 960/12
f 961/10 962/11 963/12
f 961/10 963/11 964/12
f 965/10 966/11 967/12
f 965/10 967/11 968/12
f 969/10 970/11 971/12
f 969/10 971/11 972/12
f 973/10 974/11 975/12
f 973/10 975/11 976/12
f 977/10 978/11 979/12
f 977/10 979/11 980/12
f 981/10 982/11 983/12
f 981/10 983/11 984/12
f 985/10 986/11 987/12
f 985/10 987/11 988/12
f 989/10 990/11 991/12
f 989/10 991/11 992/12
f 993/10 994/11 995/12
f 993/10 995/11 996/12
g support
usemtl farm-kit
f 1/1 2/2 3/3
f 1/1 3/2 4/3
f 5/1 6/2 7/3
f 5/1 7/2 8/3
f 9/1 10/2 11/3
f 9/1 11/2 12/3
f 13/1 14/2 15/3
f 13/1 15/2 16/3
f 17/1 18/2 19/3
f 17/1 19/2 20/3
f 21/1 22/2 23/3
f 21/1 23/2 24/3
f 25/1 26/2 27/3
f 25/1 27/2 28/3
f 29/1 30/2 31/3
f 29/1 31/2 32/3
f 33/4 34/5 35/6
f 33/4 35/5 36/6
f 37/4 38/5 39/6
f 37/4 39/5 40/6
f 41/4 42/5 43/6
f 41/4 43/5 44/6
f 45/4 46/5 47/6
f 45/4 47/5 48/6
f 49/4 50/5 51/6
f 49/4 51/5 52/6
f 53/4 54/5 55/6
f 53/4 55/5 56/6
f 57/4 58/5 59/6
f 57/4 59/5 60/6
f 61/4 62/5 63/6
f 61/4 63/5 64/6
f 65/4 66/5 67/6
f 65/4 67/5 68/6
f 69/4 70/5 71/6
f 69/4 71/5 72/6
f 73/4 74/5 75/6
f 73/4 75/5 76/6
f 77/4 78/5 79/6
f 77/4 79/5 80/6
f 81/4 82/5 83/6
f 81/4 83/5 84/6
f 85/4 86/5 87/6
f 85/4 87/5 88/6
f 89/4 90/5 91/6
f 89/4 91/5 92/6
f 93/4 94/5 95/6
f 93/4 95/5 96/6
f 97/4 98/5 99/6
f 97/4 99/5 100/6
