mtllib TorusUtility_AirHandlerA.mtl
o TorusUtility_AirHandlerA
usemtl TorusUtilityKit
v -0.97500000 0.00000000 -0.75000000
v -0.97500000 0.04000000 -0.75000000
v 0.97500000 0.04000000 -0.75000000
v 0.97500000 0.00000000 -0.75000000
v -0.97500000 0.00000000 0.70000000
v 0.97500000 0.00000000 0.70000000
v 0.97500000 0.04000000 0.70000000
v -0.97500000 0.04000000 0.70000000
v -0.85000000 0.04000000 0.62500000
v -0.85000000 0.04100000 0.62500000
v 0.85000000 0.04100000 0.62500000
v 0.85000000 0.04000000 0.62500000
v -0.85000000 0.04000000 0.65000000
v 0.85000000 0.04000000 0.65000000
v 0.85000000 0.04100000 0.65000000
v -0.85000000 0.04100000 0.65000000
v -0.76250000 0.04000000 -0.36875000
v -0.76250000 0.66000000 -0.36875000
v -0.13750000 0.66000000 -0.36875000
v -0.13750000 0.04000000 -0.36875000
v -0.76250000 0.04000000 0.04375000
v -0.13750000 0.04000000 0.04375000
v -0.13750000 0.66000000 0.04375000
v -0.76250000 0.66000000 0.04375000
v -0.71250000 0.20625000 0.04250000
v -0.71250000 0.61875000 0.04250000
v -0.18750000 0.61875000 0.04250000
v -0.18750000 0.20625000 0.04250000
v -0.71250000 0.20625000 0.05250000
v -0.18750000 0.20625000 0.05250000
v -0.18750000 0.61875000 0.05250000
v -0.71250000 0.61875000 0.05250000
v -0.53750000 0.60250000 0.05250000
v -0.53750000 0.64750000 0.05250000
v -0.36250000 0.64750000 0.05250000
v -0.36250000 0.60250000 0.05250000
v -0.53750000 0.60250000 0.06250000
v -0.36250000 0.60250000 0.06250000
v -0.36250000 0.64750000 0.06250000
v -0.53750000 0.64750000 0.06250000
v 0.31220000 0.36250000 -0.30000000
v 0.28711995 0.45610000 -0.30000000
v 0.35016660 0.49250000 -0.27690000
v 0.38500000 0.36250000 -0.27690000
v 0.21860000 0.52461995 -0.30000000
v 0.25500000 0.58766660 -0.27690000
v 0.12500000 0.54970000 -0.30000000
v 0.12500000 0.62250000 -0.27690000
v 0.03140000 0.52461995 -0.30000000
v -0.00500000 0.58766660 -0.27690000
v -0.03711995 0.45610000 -0.30000000
v -0.10016660 0.49250000 -0.27690000
v -0.06220000 0.36250000 -0.30000000
v -0.13500000 0.36250000 -0.27690000
v -0.03711995 0.26890000 -0.30000000
v -0.10016660 0.23250000 -0.27690000
v 0.03140000 0.20038005 -0.30000000
v -0.00500000 0.13733340 -0.27690000
v 0.12500000 0.17530000 -0.30000000
v 0.12500000 0.10250000 -0.27690000
v 0.21860000 0.20038005 -0.30000000
v 0.25500000 0.13733340 -0.27690000
v 0.28711995 0.26890000 -0.30000000
v 0.35016660 0.23250000 -0.27690000
v 0.35016660 0.49250000 0.00690000
v 0.38500000 0.36250000 0.00690000
v 0.25500000 0.58766660 0.00690000
v 0.12500000 0.62250000 0.00690000
v -0.00500000 0.58766660 0.00690000
v -0.10016660 0.49250000 0.00690000
v -0.13500000 0.36250000 0.00690000
v -0.10016660 0.23250000 0.00690000
v -0.00500000 0.13733340 0.00690000
v 0.12500000 0.10250000 0.00690000
v 0.25500000 0.13733340 0.00690000
v 0.35016660 0.23250000 0.00690000
v 0.28711995 0.45610000 0.03000000
v 0.31220000 0.36250000 0.03000000
v 0.21860000 0.52461995 0.03000000
v 0.12500000 0.54970000 0.03000000
v 0.03140000 0.52461995 0.03000000
v -0.03711995 0.45610000 0.03000000
v -0.06220000 0.36250000 0.03000000
v -0.03711995 0.26890000 0.03000000
v 0.03140000 0.20038005 0.03000000
v 0.12500000 0.17530000 0.03000000
v 0.21860000 0.20038005 0.03000000
v 0.28711995 0.26890000 0.03000000
v 0.12500000 0.36250000 -0.30000000
v 0.12500000 0.36250000 0.03000000
v 0.29500000 0.36250000 0.03000000
v 0.27222432 0.44750000 0.03000000
v 0.27222432 0.44750000 0.05500000
v 0.29500000 0.36250000 0.05500000
v 0.21000000 0.50972432 0.03000000
v 0.21000000 0.50972432 0.05500000
v 0.12500000 0.53250000 0.03000000
v 0.12500000 0.53250000 0.05500000
v 0.04000000 0.50972432 0.03000000
v 0.04000000 0.50972432 0.05500000
v -0.02222432 0.44750000 0.03000000
v -0.02222432 0.44750000 0.05500000
v -0.04500000 0.36250000 0.03000000
v -0.04500000 0.36250000 0.05500000
v -0.02222432 0.27750000 0.03000000
v -0.02222432 0.27750000 0.05500000
v 0.04000000 0.21527567 0.03000000
v 0.04000000 0.21527567 0.05500000
v 0.12500000 0.19250000 0.03000000
v 0.12500000 0.19250000 0.05500000
v 0.21000000 0.21527567 0.03000000
v 0.21000000 0.21527567 0.05500000
v 0.27222432 0.27750000 0.03000000
v 0.27222432 0.27750000 0.05500000
v 0.12500000 0.36250000 0.05500000
v -0.01250000 0.53750000 -0.27500000
v -0.01250000 0.83750000 -0.27500000
v 0.26250000 0.83750000 -0.27500000
v 0.26250000 0.53750000 -0.27500000
v -0.01250000 0.53750000 -0.02500000
v 0.26250000 0.53750000 -0.02500000
v 0.26250000 0.83750000 -0.02500000
v -0.01250000 0.83750000 -0.02500000
v 0.05000000 0.71250000 -0.27500000
v 0.05000000 0.91250000 -0.27500000
v 0.87500000 0.91250000 -0.27500000
v 0.87500000 0.71250000 -0.27500000
v 0.05000000 0.71250000 -0.02500000
v 0.87500000 0.71250000 -0.02500000
v 0.87500000 0.91250000 -0.02500000
v 0.05000000 0.91250000 -0.02500000
v 0.87250000 0.72750000 -0.25625000
v 0.87250000 0.89750000 -0.25625000
v 0.88250000 0.89750000 -0.25625000
v 0.88250000 0.72750000 -0.25625000
v 0.87250000 0.72750000 -0.04375000
v 0.88250000 0.72750000 -0.04375000
v 0.88250000 0.89750000 -0.04375000
v 0.87250000 0.89750000 -0.04375000
v -0.00625000 0.04000000 -0.28750000
v -0.00625000 0.10250000 -0.28750000
v 0.25625000 0.10250000 -0.28750000
v 0.25625000 0.04000000 -0.28750000
v -0.00625000 0.04000000 -0.01250000
v 0.25625000 0.04000000 -0.01250000
v 0.25625000 0.10250000 -0.01250000
v -0.00625000 0.10250000 -0.01250000
v 0.67750000 0.04000000 -0.18750000
v 0.67750000 0.71250000 -0.18750000
v 0.72250000 0.71250000 -0.18750000
v 0.72250000 0.04000000 -0.18750000
v 0.67750000 0.04000000 -0.11250000
v 0.72250000 0.04000000 -0.11250000
v 0.72250000 0.71250000 -0.11250000
v 0.67750000 0.71250000 -0.11250000
vt 0.01562500 0.26562500
vt 0.23437500 0.26562500
vt 0.23437500 0.48437500
vt 0.01562500 0.48437500
vt 0.01562500 0.26562500
vt 0.23437500 0.26562500
vt 0.23437500 0.48437500
vt 0.01562500 0.48437500
vt 0.01562500 0.26562500
vt 0.23437500 0.26562500
vt 0.23437500 0.48437500
vt 0.01562500 0.48437500
vt 0.01562500 0.26562500
vt 0.23437500 0.26562500
vt 0.23437500 0.48437500
vt 0.01562500 0.48437500
vt 0.01562500 0.26562500
vt 0.23437500 0.26562500
vt 0.23437500 0.48437500
vt 0.01562500 0.48437500
vt 0.01562500 0.26562500
vt 0.23437500 0.26562500
vt 0.23437500 0.48437500
vt 0.01562500 0.48437500
vt 0.01562500 0.01562500
vt 0.23437500 0.01562500
vt 0.23437500 0.23437500
vt 0.01562500 0.23437500
vt 0.01562500 0.01562500
vt 0.23437500 0.01562500
vt 0.23437500 0.23437500
vt 0.01562500 0.23437500
vt 0.01562500 0.01562500
vt 0.23437500 0.01562500
vt 0.23437500 0.23437500
vt 0.01562500 0.23437500
vt 0.01562500 0.01562500
vt 0.23437500 0.01562500
vt 0.23437500 0.23437500
vt 0.01562500 0.23437500
vt 0.01562500 0.01562500
vt 0.23437500 0.01562500
vt 0.23437500 0.23437500
vt 0.01562500 0.23437500
vt 0.01562500 0.01562500
vt 0.23437500 0.01562500
vt 0.23437500 0.23437500
vt 0.01562500 0.23437500
vt 0.01562500 0.76562500
vt 0.23437500 0.76562500
vt 0.23437500 0.98437500
vt 0.01562500 0.98437500
vt 0.01562500 0.76562500
vt 0.23437500 0.76562500
vt 0.23437500 0.98437500
vt 0.01562500 0.98437500
vt 0.01562500 0.76562500
vt 0.23437500 0.76562500
vt 0.23437500 0.98437500
vt 0.01562500 0.98437500
vt 0.01562500 0.76562500
vt 0.23437500 0.76562500
vt 0.23437500 0.98437500
vt 0.01562500 0.98437500
vt 0.01562500 0.76562500
vt 0.23437500 0.76562500
vt 0.23437500 0.98437500
vt 0.01562500 0.98437500
vt 0.01562500 0.76562500
vt 0.23437500 0.76562500
vt 0.23437500 0.98437500
vt 0.01562500 0.98437500
vt 0.26562500 0.26562500
vt 0.48437500 0.26562500
vt 0.48437500 0.48437500
vt 0.26562500 0.48437500
vt 0.26562500 0.26562500
vt 0.48437500 0.26562500
vt 0.48437500 0.48437500
vt 0.26562500 0.48437500
vt 0.26562500 0.26562500
vt 0.48437500 0.26562500
vt 0.48437500 0.48437500
vt 0.26562500 0.48437500
vt 0.26562500 0.26562500
vt 0.48437500 0.26562500
vt 0.48437500 0.48437500
vt 0.26562500 0.48437500
vt 0.26562500 0.26562500
vt 0.48437500 0.26562500
vt 0.48437500 0.48437500
vt 0.26562500 0.48437500
vt 0.26562500 0.26562500
vt 0.48437500 0.26562500
vt 0.48437500 0.48437500
vt 0.26562500 0.48437500
vt 0.76562500 0.01562500
vt 0.98437500 0.01562500
vt 0.98437500 0.23437500
vt 0.76562500 0.23437500
vt 0.76562500 0.01562500
vt 0.98437500 0.01562500
vt 0.98437500 0.23437500
vt 0.76562500 0.23437500
vt 0.76562500 0.01562500
vt 0.98437500 0.01562500
vt 0.98437500 0.23437500
vt 0.76562500 0.23437500
vt 0.76562500 0.01562500
vt 0.98437500 0.01562500
vt 0.98437500 0.23437500
vt 0.76562500 0.23437500
vt 0.76562500 0.01562500
vt 0.98437500 0.01562500
vt 0.98437500 0.23437500
vt 0.76562500 0.23437500
vt 0.76562500 0.01562500
vt 0.98437500 0.01562500
vt 0.98437500 0.23437500
vt 0.76562500 0.23437500
vt 0.26562500 0.76562500
vt 0.48437500 0.76562500
vt 0.48437500 0.98437500
vt 0.26562500 0.98437500
vt 0.26562500 0.76562500
vt 0.48437500 0.76562500
vt 0.48437500 0.98437500
vt 0.26562500 0.98437500
vt 0.26562500 0.76562500
vt 0.48437500 0.76562500
vt 0.48437500 0.98437500
vt 0.26562500 0.98437500
vt 0.26562500 0.76562500
vt 0.48437500 0.76562500
vt 0.48437500 0.98437500
vt 0.26562500 0.98437500
vt 0.26562500 0.76562500
vt 0.48437500 0.76562500
vt 0.48437500 0.98437500
vt 0.26562500 0.98437500
vt 0.26562500 0.76562500
vt 0.48437500 0.76562500
vt 0.48437500 0.98437500
vt 0.26562500 0.98437500
vt 0.26562500 0.76562500
vt 0.48437500 0.76562500
vt 0.48437500 0.98437500
vt 0.26562500 0.98437500
vt 0.26562500 0.76562500
vt 0.48437500 0.76562500
vt 0.48437500 0.98437500
vt 0.26562500 0.98437500
vt 0.26562500 0.76562500
vt 0.48437500 0.76562500
vt 0.48437500 0.98437500
vt 0.26562500 0.98437500
vt 0.26562500 0.76562500
vt 0.48437500 0.76562500
vt 0.48437500 0.98437500
vt 0.26562500 0.98437500
vt 0.26562500 0.76562500
vt 0.48437500 0.76562500
vt 0.48437500 0.98437500
vt 0.26562500 0.98437500
vt 0.26562500 0.76562500
vt 0.48437500 0.76562500
vt 0.48437500 0.98437500
vt 0.26562500 0.98437500
vt 0.26562500 0.76562500
vt 0.48437500 0.76562500
vt 0.48437500 0.98437500
vt 0.26562500 0.98437500
vt 0.26562500 0.76562500
vt 0.48437500 0.76562500
vt 0.48437500 0.98437500
vt 0.26562500 0.98437500
vt 0.26562500 0.76562500
vt 0.48437500 0.76562500
vt 0.48437500 0.98437500
vt 0.26562500 0.98437500
vt 0.26562500 0.76562500
vt 0.48437500 0.76562500
vt 0.48437500 0.98437500
vt 0.26562500 0.98437500
vt 0.26562500 0.76562500
vt 0.48437500 0.76562500
vt 0.48437500 0.98437500
vt 0.26562500 0.98437500
vt 0.26562500 0.76562500
vt 0.48437500 0.76562500
vt 0.48437500 0.98437500
vt 0.26562500 0.98437500
vt 0.26562500 0.76562500
vt 0.48437500 0.76562500
vt 0.48437500 0.98437500
vt 0.26562500 0.98437500
vt 0.26562500 0.76562500
vt 0.48437500 0.76562500
vt 0.48437500 0.98437500
vt 0.26562500 0.98437500
vt 0.26562500 0.76562500
vt 0.48437500 0.76562500
vt 0.48437500 0.98437500
vt 0.26562500 0.98437500
vt 0.26562500 0.76562500
vt 0.48437500 0.76562500
vt 0.48437500 0.98437500
vt 0.26562500 0.98437500
vt 0.26562500 0.76562500
vt 0.48437500 0.76562500
vt 0.48437500 0.98437500
vt 0.26562500 0.98437500
vt 0.26562500 0.76562500
vt 0.48437500 0.76562500
vt 0.48437500 0.98437500
vt 0.26562500 0.98437500
vt 0.26562500 0.76562500
vt 0.48437500 0.76562500
vt 0.48437500 0.98437500
vt 0.26562500 0.98437500
vt 0.26562500 0.76562500
vt 0.48437500 0.76562500
vt 0.48437500 0.98437500
vt 0.26562500 0.98437500
vt 0.26562500 0.76562500
vt 0.48437500 0.76562500
vt 0.48437500 0.98437500
vt 0.26562500 0.98437500
vt 0.26562500 0.76562500
vt 0.48437500 0.76562500
vt 0.48437500 0.98437500
vt 0.26562500 0.98437500
vt 0.26562500 0.76562500
vt 0.48437500 0.76562500
vt 0.48437500 0.98437500
vt 0.26562500 0.98437500
vt 0.26562500 0.76562500
vt 0.48437500 0.76562500
vt 0.48437500 0.98437500
vt 0.26562500 0.98437500
vt 0.26562500 0.76562500
vt 0.48437500 0.76562500
vt 0.48437500 0.98437500
vt 0.26562500 0.98437500
vt 0.26562500 0.76562500
vt 0.48437500 0.76562500
vt 0.48437500 0.98437500
vt 0.26562500 0.98437500
vt 0.26562500 0.76562500
vt 0.48437500 0.76562500
vt 0.48437500 0.98437500
vt 0.26562500 0.98437500
vt 0.26562500 0.76562500
vt 0.48437500 0.76562500
vt 0.48437500 0.98437500
vt 0.26562500 0.98437500
vt 0.26562500 0.76562500
vt 0.48437500 0.76562500
vt 0.48437500 0.98437500
vt 0.26562500 0.98437500
vt 0.26562500 0.76562500
vt 0.48437500 0.76562500
vt 0.48437500 0.98437500
vt 0.26562500 0.98437500
vt 0.26562500 0.76562500
vt 0.48437500 0.76562500
vt 0.48437500 0.98437500
vt 0.26562500 0.76562500
vt 0.48437500 0.76562500
vt 0.48437500 0.98437500
vt 0.26562500 0.76562500
vt 0.48437500 0.76562500
vt 0.48437500 0.98437500
vt 0.26562500 0.76562500
vt 0.48437500 0.76562500
vt 0.48437500 0.98437500
vt 0.26562500 0.76562500
vt 0.48437500 0.76562500
vt 0.48437500 0.98437500
vt 0.26562500 0.76562500
vt 0.48437500 0.76562500
vt 0.48437500 0.98437500
vt 0.26562500 0.76562500
vt 0.48437500 0.76562500
vt 0.48437500 0.98437500
vt 0.26562500 0.76562500
vt 0.48437500 0.76562500
vt 0.48437500 0.98437500
vt 0.26562500 0.76562500
vt 0.48437500 0.76562500
vt 0.48437500 0.98437500
vt 0.26562500 0.76562500
vt 0.48437500 0.76562500
vt 0.48437500 0.98437500
vt 0.26562500 0.76562500
vt 0.48437500 0.76562500
vt 0.48437500 0.98437500
vt 0.26562500 0.76562500
vt 0.48437500 0.76562500
vt 0.48437500 0.98437500
vt 0.26562500 0.76562500
vt 0.48437500 0.76562500
vt 0.48437500 0.98437500
vt 0.26562500 0.76562500
vt 0.48437500 0.76562500
vt 0.48437500 0.98437500
vt 0.26562500 0.76562500
vt 0.48437500 0.76562500
vt 0.48437500 0.98437500
vt 0.26562500 0.76562500
vt 0.48437500 0.76562500
vt 0.48437500 0.98437500
vt 0.26562500 0.76562500
vt 0.48437500 0.76562500
vt 0.48437500 0.98437500
vt 0.26562500 0.76562500
vt 0.48437500 0.76562500
vt 0.48437500 0.98437500
vt 0.26562500 0.76562500
vt 0.48437500 0.76562500
vt 0.48437500 0.98437500
vt 0.26562500 0.76562500
vt 0.48437500 0.76562500
vt 0.48437500 0.98437500
vt 0.26562500 0.76562500
vt 0.48437500 0.76562500
vt 0.48437500 0.98437500
vt 0.26562500 0.76562500
vt 0.48437500 0.76562500
vt 0.48437500 0.98437500
vt 0.26562500 0.76562500
vt 0.48437500 0.76562500
vt 0.48437500 0.98437500
vt 0.26562500 0.76562500
vt 0.48437500 0.76562500
vt 0.48437500 0.98437500
vt 0.26562500 0.26562500
vt 0.48437500 0.26562500
vt 0.48437500 0.48437500
vt 0.26562500 0.48437500
vt 0.26562500 0.26562500
vt 0.48437500 0.26562500
vt 0.48437500 0.48437500
vt 0.26562500 0.48437500
vt 0.26562500 0.26562500
vt 0.48437500 0.26562500
vt 0.48437500 0.48437500
vt 0.26562500 0.48437500
vt 0.26562500 0.26562500
vt 0.48437500 0.26562500
vt 0.48437500 0.48437500
vt 0.26562500 0.48437500
vt 0.26562500 0.26562500
vt 0.48437500 0.26562500
vt 0.48437500 0.48437500
vt 0.26562500 0.48437500
vt 0.26562500 0.26562500
vt 0.48437500 0.26562500
vt 0.48437500 0.48437500
vt 0.26562500 0.48437500
vt 0.26562500 0.26562500
vt 0.48437500 0.26562500
vt 0.48437500 0.48437500
vt 0.26562500 0.48437500
vt 0.26562500 0.26562500
vt 0.48437500 0.26562500
vt 0.48437500 0.48437500
vt 0.26562500 0.48437500
vt 0.26562500 0.26562500
vt 0.48437500 0.26562500
vt 0.48437500 0.48437500
vt 0.26562500 0.48437500
vt 0.26562500 0.26562500
vt 0.48437500 0.26562500
vt 0.48437500 0.48437500
vt 0.26562500 0.48437500
vt 0.26562500 0.26562500
vt 0.48437500 0.26562500
vt 0.48437500 0.48437500
vt 0.26562500 0.48437500
vt 0.26562500 0.26562500
vt 0.48437500 0.26562500
vt 0.48437500 0.48437500
vt 0.26562500 0.48437500
vt 0.26562500 0.26562500
vt 0.48437500 0.26562500
vt 0.48437500 0.48437500
vt 0.26562500 0.26562500
vt 0.48437500 0.26562500
vt 0.48437500 0.48437500
vt 0.26562500 0.26562500
vt 0.48437500 0.26562500
vt 0.48437500 0.48437500
vt 0.26562500 0.26562500
vt 0.48437500 0.26562500
vt 0.48437500 0.48437500
vt 0.26562500 0.26562500
vt 0.48437500 0.26562500
vt 0.48437500 0.48437500
vt 0.26562500 0.26562500
vt 0.48437500 0.26562500
vt 0.48437500 0.48437500
vt 0.26562500 0.26562500
vt 0.48437500 0.26562500
vt 0.48437500 0.48437500
vt 0.26562500 0.26562500
vt 0.48437500 0.26562500
vt 0.48437500 0.48437500
vt 0.26562500 0.26562500
vt 0.48437500 0.26562500
vt 0.48437500 0.48437500
vt 0.26562500 0.26562500
vt 0.48437500 0.26562500
vt 0.48437500 0.48437500
vt 0.26562500 0.26562500
vt 0.48437500 0.26562500
vt 0.48437500 0.48437500
vt 0.26562500 0.26562500
vt 0.48437500 0.26562500
vt 0.48437500 0.48437500
vt 0.26562500 0.26562500
vt 0.48437500 0.26562500
vt 0.48437500 0.48437500
vt 0.26562500 0.26562500
vt 0.48437500 0.26562500
vt 0.48437500 0.48437500
vt 0.26562500 0.26562500
vt 0.48437500 0.26562500
vt 0.48437500 0.48437500
vt 0.26562500 0.26562500
vt 0.48437500 0.26562500
vt 0.48437500 0.48437500
vt 0.26562500 0.26562500
vt 0.48437500 0.26562500
vt 0.48437500 0.48437500
vt 0.26562500 0.26562500
vt 0.48437500 0.26562500
vt 0.48437500 0.48437500
vt 0.26562500 0.26562500
vt 0.48437500 0.26562500
vt 0.48437500 0.48437500
vt 0.26562500 0.26562500
vt 0.48437500 0.26562500
vt 0.48437500 0.48437500
vt 0.26562500 0.26562500
vt 0.48437500 0.26562500
vt 0.48437500 0.48437500
vt 0.26562500 0.26562500
vt 0.48437500 0.26562500
vt 0.48437500 0.48437500
vt 0.26562500 0.26562500
vt 0.48437500 0.26562500
vt 0.48437500 0.48437500
vt 0.26562500 0.26562500
vt 0.48437500 0.26562500
vt 0.48437500 0.48437500
vt 0.51562500 0.76562500
vt 0.73437500 0.76562500
vt 0.73437500 0.98437500
vt 0.51562500 0.98437500
vt 0.51562500 0.76562500
vt 0.73437500 0.76562500
vt 0.73437500 0.98437500
vt 0.51562500 0.98437500
vt 0.51562500 0.76562500
vt 0.73437500 0.76562500
vt 0.73437500 0.98437500
vt 0.51562500 0.98437500
vt 0.51562500 0.76562500
vt 0.73437500 0.76562500
vt 0.73437500 0.98437500
vt 0.51562500 0.98437500
vt 0.51562500 0.76562500
vt 0.73437500 0.76562500
vt 0.73437500 0.98437500
vt 0.51562500 0.98437500
vt 0.51562500 0.76562500
vt 0.73437500 0.76562500
vt 0.73437500 0.98437500
vt 0.51562500 0.98437500
vt 0.01562500 0.76562500
vt 0.23437500 0.76562500
vt 0.23437500 0.98437500
vt 0.01562500 0.98437500
vt 0.01562500 0.76562500
vt 0.23437500 0.76562500
vt 0.23437500 0.98437500
vt 0.01562500 0.98437500
vt 0.01562500 0.76562500
vt 0.23437500 0.76562500
vt 0.23437500 0.98437500
vt 0.01562500 0.98437500
vt 0.01562500 0.76562500
vt 0.23437500 0.76562500
vt 0.23437500 0.98437500
vt 0.01562500 0.98437500
vt 0.01562500 0.76562500
vt 0.23437500 0.76562500
vt 0.23437500 0.98437500
vt 0.01562500 0.98437500
vt 0.01562500 0.76562500
vt 0.23437500 0.76562500
vt 0.23437500 0.98437500
vt 0.01562500 0.98437500
vt 0.26562500 0.26562500
vt 0.48437500 0.26562500
vt 0.48437500 0.48437500
vt 0.26562500 0.48437500
vt 0.26562500 0.26562500
vt 0.48437500 0.26562500
vt 0.48437500 0.48437500
vt 0.26562500 0.48437500
vt 0.26562500 0.26562500
vt 0.48437500 0.26562500
vt 0.48437500 0.48437500
vt 0.26562500 0.48437500
vt 0.26562500 0.26562500
vt 0.48437500 0.26562500
vt 0.48437500 0.48437500
vt 0.26562500 0.48437500
vt 0.26562500 0.26562500
vt 0.48437500 0.26562500
vt 0.48437500 0.48437500
vt 0.26562500 0.48437500
vt 0.26562500 0.26562500
vt 0.48437500 0.26562500
vt 0.48437500 0.48437500
vt 0.26562500 0.48437500
vt 0.51562500 0.76562500
vt 0.73437500 0.76562500
vt 0.73437500 0.98437500
vt 0.51562500 0.98437500
vt 0.51562500 0.76562500
vt 0.73437500 0.76562500
vt 0.73437500 0.98437500
vt 0.51562500 0.98437500
vt 0.51562500 0.76562500
vt 0.73437500 0.76562500
vt 0.73437500 0.98437500
vt 0.51562500 0.98437500
vt 0.51562500 0.76562500
vt 0.73437500 0.76562500
vt 0.73437500 0.98437500
vt 0.51562500 0.98437500
vt 0.51562500 0.76562500
vt 0.73437500 0.76562500
vt 0.73437500 0.98437500
vt 0.51562500 0.98437500
vt 0.51562500 0.76562500
vt 0.73437500 0.76562500
vt 0.73437500 0.98437500
vt 0.51562500 0.98437500
vt 0.51562500 0.76562500
vt 0.73437500 0.76562500
vt 0.73437500 0.98437500
vt 0.51562500 0.98437500
vt 0.51562500 0.76562500
vt 0.73437500 0.76562500
vt 0.73437500 0.98437500
vt 0.51562500 0.98437500
vt 0.51562500 0.76562500
vt 0.73437500 0.76562500
vt 0.73437500 0.98437500
vt 0.51562500 0.98437500
vt 0.51562500 0.76562500
vt 0.73437500 0.76562500
vt 0.73437500 0.98437500
vt 0.51562500 0.98437500
vt 0.51562500 0.76562500
vt 0.73437500 0.76562500
vt 0.73437500 0.98437500
vt 0.51562500 0.98437500
vt 0.51562500 0.76562500
vt 0.73437500 0.76562500
vt 0.73437500 0.98437500
vt 0.51562500 0.98437500
vn 0.00000000 0.00000000 -1.00000000
vn 0.00000000 0.00000000 1.00000000
vn -1.00000000 0.00000000 0.00000000
vn 1.00000000 0.00000000 0.00000000
vn 0.00000000 -1.00000000 0.00000000
vn 0.00000000 1.00000000 0.00000000
vn 0.00000000 0.00000000 -1.00000000
vn 0.00000000 0.00000000 1.00000000
vn -1.00000000 0.00000000 0.00000000
vn 1.00000000 0.00000000 0.00000000
vn 0.00000000 -1.00000000 0.00000000
vn 0.00000000 1.00000000 0.00000000
vn 0.00000000 0.00000000 -1.00000000
vn 0.00000000 0.00000000 1.00000000
vn -1.00000000 0.00000000 0.00000000
vn 1.00000000 0.00000000 0.00000000
vn 0.00000000 -1.00000000 0.00000000
vn 0.00000000 1.00000000 0.00000000
vn 0.00000000 0.00000000 -1.00000000
vn 0.00000000 0.00000000 1.00000000
vn -1.00000000 0.00000000 0.00000000
vn 1.00000000 0.00000000 0.00000000
vn 0.00000000 -1.00000000 0.00000000
vn 0.00000000 1.00000000 0.00000000
vn 0.00000000 0.00000000 -1.00000000
vn 0.00000000 0.00000000 1.00000000
vn -1.00000000 0.00000000 0.00000000
vn 1.00000000 0.00000000 0.00000000
vn 0.00000000 -1.00000000 0.00000000
vn 0.00000000 1.00000000 0.00000000
vn 0.30145867 0.08077561 -0.95005156
vn 0.22068306 0.22068306 -0.95005156
vn 0.08077561 0.30145867 -0.95005156
vn -0.08077561 0.30145867 -0.95005156
vn -0.22068306 0.22068306 -0.95005156
vn -0.30145867 0.08077561 -0.95005156
vn -0.30145867 -0.08077561 -0.95005156
vn -0.22068306 -0.22068306 -0.95005156
vn -0.08077561 -0.30145867 -0.95005156
vn 0.08077561 -0.30145867 -0.95005156
vn 0.22068306 -0.22068306 -0.95005156
vn 0.30145867 -0.08077561 -0.95005156
vn 0.96592583 0.25881905 0.00000000
vn 0.70710678 0.70710678 0.00000000
vn 0.25881905 0.96592583 0.00000000
vn -0.25881905 0.96592583 0.00000000
vn -0.70710678 0.70710678 0.00000000
vn -0.96592583 0.25881905 0.00000000
vn -0.96592583 -0.25881905 0.00000000
vn -0.70710678 -0.70710678 0.00000000
vn -0.25881905 -0.96592583 0.00000000
vn 0.25881905 -0.96592583 0.00000000
vn 0.70710678 -0.70710678 0.00000000
vn 0.96592583 -0.25881905 0.00000000
vn 0.30145867 0.08077561 0.95005156
vn 0.22068306 0.22068306 0.95005156
vn 0.08077561 0.30145867 0.95005156
vn -0.08077561 0.30145867 0.95005156
vn -0.22068306 0.22068306 0.95005156
vn -0.30145867 0.08077561 0.95005156
vn -0.30145867 -0.08077561 0.95005156
vn -0.22068306 -0.22068306 0.95005156
vn -0.08077561 -0.30145867 0.95005156
vn 0.08077561 -0.30145867 0.95005156
vn 0.22068306 -0.22068306 0.95005156
vn 0.30145867 -0.08077561 0.95005156
vn 0.00000000 0.00000000 -1.00000000
vn 0.00000000 0.00000000 -1.00000000
vn 0.00000000 0.00000000 -1.00000000
vn 0.00000000 0.00000000 -1.00000000
vn 0.00000000 0.00000000 -1.00000000
vn 0.00000000 0.00000000 -1.00000000
vn -0.00000000 0.00000000 -1.00000000
vn 0.00000000 0.00000000 -1.00000000
vn 0.00000000 0.00000000 -1.00000000
vn 0.00000000 -0.00000000 -1.00000000
vn 0.00000000 0.00000000 -1.00000000
vn 0.00000000 0.00000000 -1.00000000
vn 0.00000000 0.00000000 1.00000000
vn 0.00000000 0.00000000 1.00000000
vn 0.00000000 0.00000000 1.00000000
vn -0.00000000 0.00000000 1.00000000
vn -0.00000000 0.00000000 1.00000000
vn -0.00000000 0.00000000 1.00000000
vn -0.00000000 -0.00000000 1.00000000
vn -0.00000000 -0.00000000 1.00000000
vn -0.00000000 -0.00000000 1.00000000
vn 0.00000000 -0.00000000 1.00000000
vn 0.00000000 -0.00000000 1.00000000
vn 0.00000000 -0.00000000 1.00000000
vn 0.96592583 0.25881905 0.00000000
vn 0.70710678 0.70710678 0.00000000
vn 0.25881905 0.96592583 0.00000000
vn -0.25881905 0.96592583 0.00000000
vn -0.70710678 0.70710678 0.00000000
vn -0.96592583 0.25881905 0.00000000
vn -0.96592583 -0.25881905 0.00000000
vn -0.70710678 -0.70710678 0.00000000
vn -0.25881905 -0.96592583 0.00000000
vn 0.25881905 -0.96592583 0.00000000
vn 0.70710678 -0.70710678 0.00000000
vn 0.96592583 -0.25881905 0.00000000
vn 0.00000000 0.00000000 -1.00000000
vn 0.00000000 0.00000000 -1.00000000
vn 0.00000000 0.00000000 -1.00000000
vn 0.00000000 0.00000000 -1.00000000
vn 0.00000000 0.00000000 -1.00000000
vn 0.00000000 0.00000000 -1.00000000
vn -0.00000000 0.00000000 -1.00000000
vn 0.00000000 0.00000000 -1.00000000
vn 0.00000000 0.00000000 -1.00000000
vn 0.00000000 -0.00000000 -1.00000000
vn 0.00000000 0.00000000 -1.00000000
vn 0.00000000 0.00000000 -1.00000000
vn 0.00000000 0.00000000 1.00000000
vn 0.00000000 0.00000000 1.00000000
vn 0.00000000 0.00000000 1.00000000
vn 0.00000000 -0.00000000 1.00000000
vn 0.00000000 0.00000000 1.00000000
vn 0.00000000 0.00000000 1.00000000
vn 0.00000000 0.00000000 1.00000000
vn 0.00000000 0.00000000 1.00000000
vn 0.00000000 0.00000000 1.00000000
vn 0.00000000 0.00000000 1.00000000
vn 0.00000000 0.00000000 1.00000000
vn -0.00000000 0.00000000 1.00000000
vn 0.00000000 0.00000000 -1.00000000
vn 0.00000000 0.00000000 1.00000000
vn -1.00000000 0.00000000 0.00000000
vn 1.00000000 0.00000000 0.00000000
vn 0.00000000 -1.00000000 0.00000000
vn 0.00000000 1.00000000 0.00000000
vn 0.00000000 0.00000000 -1.00000000
vn 0.00000000 0.00000000 1.00000000
vn -1.00000000 0.00000000 0.00000000
vn 1.00000000 0.00000000 0.00000000
vn 0.00000000 -1.00000000 0.00000000
vn 0.00000000 1.00000000 0.00000000
vn 0.00000000 0.00000000 -1.00000000
vn 0.00000000 0.00000000 1.00000000
vn -1.00000000 0.00000000 0.00000000
vn 1.00000000 0.00000000 0.00000000
vn 0.00000000 -1.00000000 0.00000000
vn 0.00000000 1.00000000 0.00000000
vn 0.00000000 0.00000000 -1.00000000
vn 0.00000000 0.00000000 1.00000000
vn -1.00000000 0.00000000 0.00000000
vn 1.00000000 0.00000000 0.00000000
vn 0.00000000 -1.00000000 0.00000000
vn 0.00000000 1.00000000 0.00000000
vn 0.00000000 0.00000000 -1.00000000
vn 0.00000000 0.00000000 1.00000000
vn -1.00000000 0.00000000 0.00000000
vn 1.00000000 0.00000000 0.00000000
vn 0.00000000 -1.00000000 0.00000000
vn 0.00000000 1.00000000 0.00000000
f 1/1/1 2/2/1 3/3/1
f 1/1/1 3/3/1 4/4/1
f 5/5/2 6/6/2 7/7/2
f 5/5/2 7/7/2 8/8/2
f 1/9/3 5/10/3 8/11/3
f 1/9/3 8/11/3 2/12/3
f 4/13/4 3/14/4 7/15/4
f 4/13/4 7/15/4 6/16/4
f 1/17/5 4/18/5 6/19/5
f 1/17/5 6/19/5 5/20/5
f 2/21/6 8/22/6 7/23/6
f 2/21/6 7/23/6 3/24/6
f 9/25/7 10/26/7 11/27/7
f 9/25/7 11/27/7 12/28/7
f 13/29/8 14/30/8 15/31/8
f 13/29/8 15/31/8 16/32/8
f 9/33/9 13/34/9 16/35/9
f 9/33/9 16/35/9 10/36/9
f 12/37/10 11/38/10 15/39/10
f 12/37/10 15/39/10 14/40/10
f 9/41/11 12/42/11 14/43/11
f 9/41/11 14/43/11 13/44/11
f 10/45/12 16/46/12 15/47/12
f 10/45/12 15/47/12 11/48/12
f 17/49/13 18/50/13 19/51/13
f 17/49/13 19/51/13 20/52/13
f 21/53/14 22/54/14 23/55/14
f 21/53/14 23/55/14 24/56/14
f 17/57/15 21/58/15 24/59/15
f 17/57/15 24/59/15 18/60/15
f 20/61/16 19/62/16 23/63/16
f 20/61/16 23/63/16 22/64/16
f 17/65/17 20/66/17 22/67/17
f 17/65/17 22/67/17 21/68/17
f 18/69/18 24/70/18 23/71/18
f 18/69/18 23/71/18 19/72/18
f 25/73/19 26/74/19 27/75/19
f 25/73/19 27/75/19 28/76/19
f 29/77/20 30/78/20 31/79/20
f 29/77/20 31/79/20 32/80/20
f 25/81/21 29/82/21 32/83/21
f 25/81/21 32/83/21 26/84/21
f 28/85/22 27/86/22 31/87/22
f 28/85/22 31/87/22 30/88/22
f 25/89/23 28/90/23 30/91/23
f 25/89/23 30/91/23 29/92/23
f 26/93/24 32/94/24 31/95/24
f 26/93/24 31/95/24 27/96/24
f 33/97/25 34/98/25 35/99/25
f 33/97/25 35/99/25 36/100/25
f 37/101/26 38/102/26 39/103/26
f 37/101/26 39/103/26 40/104/26
f 33/105/27 37/106/27 40/107/27
f 33/105/27 40/107/27 34/108/27
f 36/109/28 35/110/28 39/111/28
f 36/109/28 39/111/28 38/112/28
f 33/113/29 36/114/29 38/115/29
f 33/113/29 38/115/29 37/116/29
f 34/117/30 40/118/30 39/119/30
f 34/117/30 39/119/30 35/120/30
f 41/121/31 42/122/31 43/123/31
f 41/121/31 43/123/31 44/124/31
f 42/125/32 45/126/32 46/127/32
f 42/125/32 46/127/32 43/128/32
f 45/129/33 47/130/33 48/131/33
f 45/129/33 48/131/33 46/132/33
f 47/133/34 49/134/34 50/135/34
f 47/133/34 50/135/34 48/136/34
f 49/137/35 51/138/35 52/139/35
f 49/137/35 52/139/35 50/140/35
f 51/141/36 53/142/36 54/143/36
f 51/141/36 54/143/36 52/144/36
f 53/145/37 55/146/37 56/147/37
f 53/145/37 56/147/37 54/148/37
f 55/149/38 57/150/38 58/151/38
f 55/149/38 58/151/38 56/152/38
f 57/153/39 59/154/39 60/155/39
f 57/153/39 60/155/39 58/156/39
f 59/157/40 61/158/40 62/159/40
f 59/157/40 62/159/40 60/160/40
f 61/161/41 63/162/41 64/163/41
f 61/161/41 64/163/41 62/164/41
f 63/165/42 41/166/42 44/167/42
f 63/165/42 44/167/42 64/168/42
f 44/169/43 43/170/43 65/171/43
f 44/169/43 65/171/43 66/172/43
f 43/173/44 46/174/44 67/175/44
f 43/173/44 67/175/44 65/176/44
f 46/177/45 48/178/45 68/179/45
f 46/177/45 68/179/45 67/180/45
f 48/181/46 50/182/46 69/183/46
f 48/181/46 69/183/46 68/184/46
f 50/185/47 52/186/47 70/187/47
f 50/185/47 70/187/47 69/188/47
f 52/189/48 54/190/48 71/191/48
f 52/189/48 71/191/48 70/192/48
f 54/193/49 56/194/49 72/195/49
f 54/193/49 72/195/49 71/196/49
f 56/197/50 58/198/50 73/199/50
f 56/197/50 73/199/50 72/200/50
f 58/201/51 60/202/51 74/203/51
f 58/201/51 74/203/51 73/204/51
f 60/205/52 62/206/52 75/207/52
f 60/205/52 75/207/52 74/208/52
f 62/209/53 64/210/53 76/211/53
f 62/209/53 76/211/53 75/212/53
f 64/213/54 44/214/54 66/215/54
f 64/213/54 66/215/54 76/216/54
f 66/217/55 65/218/55 77/219/55
f 66/217/55 77/219/55 78/220/55
f 65/221/56 67/222/56 79/223/56
f 65/221/56 79/223/56 77/224/56
f 67/225/57 68/226/57 80/227/57
f 67/225/57 80/227/57 79/228/57
f 68/229/58 69/230/58 81/231/58
f 68/229/58 81/231/58 80/232/58
f 69/233/59 70/234/59 82/235/59
f 69/233/59 82/235/59 81/236/59
f 70/237/60 71/238/60 83/239/60
f 70/237/60 83/239/60 82/240/60
f 71/241/61 72/242/61 84/243/61
f 71/241/61 84/243/61 83/244/61
f 72/245/62 73/246/62 85/247/62
f 72/245/62 85/247/62 84/248/62
f 73/249/63 74/250/63 86/251/63
f 73/249/63 86/251/63 85/252/63
f 74/253/64 75/254/64 87/255/64
f 74/253/64 87/255/64 86/256/64
f 75/257/65 76/258/65 88/259/65
f 75/257/65 88/259/65 87/260/65
f 76/261/66 66/262/66 78/263/66
f 76/261/66 78/263/66 88/264/66
f 89/265/67 42/266/67 41/267/67
f 89/268/68 45/269/68 42/270/68
f 89/271/69 47/272/69 45/273/69
f 89/274/70 49/275/70 47/276/70
f 89/277/71 51/278/71 49/279/71
f 89/280/72 53/281/72 51/282/72
f 89/283/73 55/284/73 53/285/73
f 89/286/74 57/287/74 55/288/74
f 89/289/75 59/290/75 57/291/75
f 89/292/76 61/293/76 59/294/76
f 89/295/77 63/296/77 61/297/77
f 89/298/78 41/299/78 63/300/78
f 90/301/79 78/302/79 77/303/79
f 90/304/80 77/305/80 79/306/80
f 90/307/81 79/308/81 80/309/81
f 90/310/82 80/311/82 81/312/82
f 90/313/83 81/314/83 82/315/83
f 90/316/84 82/317/84 83/318/84
f 90/319/85 83/320/85 84/321/85
f 90/322/86 84/323/86 85/324/86
f 90/325/87 85/326/87 86/327/87
f 90/328/88 86/329/88 87/330/88
f 90/331/89 87/332/89 88/333/89
f 90/334/90 88/335/90 78/336/90
f 91/337/91 92/338/91 93/339/91
f 91/337/91 93/339/91 94/340/91
f 92/341/92 95/342/92 96/343/92
f 92/341/92 96/343/92 93/344/92
f 95/345/93 97/346/93 98/347/93
f 95/345/93 98/347/93 96/348/93
f 97/349/94 99/350/94 100/351/94
f 97/349/94 100/351/94 98/352/94
f 99/353/95 101/354/95 102/355/95
f 99/353/95 102/355/95 100/356/95
f 101/357/96 103/358/96 104/359/96
f 101/357/96 104/359/96 102/360/96
f 103/361/97 105/362/97 106/363/97
f 103/361/97 106/363/97 104/364/97
f 105/365/98 107/366/98 108/367/98
f 105/365/98 108/367/98 106/368/98
f 107/369/99 109/370/99 110/371/99
f 107/369/99 110/371/99 108/372/99
f 109/373/100 111/374/100 112/375/100
f 109/373/100 112/375/100 110/376/100
f 111/377/101 113/378/101 114/379/101
f 111/377/101 114/379/101 112/380/101
f 113/381/102 91/382/102 94/383/102
f 113/381/102 94/383/102 114/384/102
f 90/385/103 92/386/103 91/387/103
f 90/388/104 95/389/104 92/390/104
f 90/391/105 97/392/105 95/393/105
f 90/394/106 99/395/106 97/396/106
f 90/397/107 101/398/107 99/399/107
f 90/400/108 103/401/108 101/402/108
f 90/403/109 105/404/109 103/405/109
f 90/406/110 107/407/110 105/408/110
f 90/409/111 109/410/111 107/411/111
f 90/412/112 111/413/112 109/414/112
f 90/415/113 113/416/113 111/417/113
f 90/418/114 91/419/114 113/420/114
f 115/421/115 94/422/115 93/423/115
f 115/424/116 93/425/116 96/426/116
f 115/427/117 96/428/117 98/429/117
f 115/430/118 98/431/118 100/432/118
f 115/433/119 100/434/119 102/435/119
f 115/436/120 102/437/120 104/438/120
f 115/439/121 104/440/121 106/441/121
f 115/442/122 106/443/122 108/444/122
f 115/445/123 108/446/123 110/447/123
f 115/448/124 110/449/124 112/450/124
f 115/451/125 112/452/125 114/453/125
f 115/454/126 114/455/126 94/456/126
f 116/457/127 117/458/127 118/459/127
f 116/457/127 118/459/127 119/460/127
f 120/461/128 121/462/128 122/463/128
f 120/461/128 122/463/128 123/464/128
f 116/465/129 120/466/129 123/467/129
f 116/465/129 123/467/129 117/468/129
f 119/469/130 118/470/130 122/471/130
f 119/469/130 122/471/130 121/472/130
f 116/473/131 119/474/131 121/475/131
f 116/473/131 121/475/131 120/476/131
f 117/477/132 123/478/132 122/479/132
f 117/477/132 122/479/132 118/480/132
f 124/481/133 125/482/133 126/483/133
f 124/481/133 126/483/133 127/484/133
f 128/485/134 129/486/134 130/487/134
f 128/485/134 130/487/134 131/488/134
f 124/489/135 128/490/135 131/491/135
f 124/489/135 131/491/135 125/492/135
f 127/493/136 126/494/136 130/495/136
f 127/493/136 130/495/136 129/496/136
f 124/497/137 127/498/137 129/499/137
f 124/497/137 129/499/137 128/500/137
f 125/501/138 131/502/138 130/503/138
f 125/501/138 130/503/138 126/504/138
f 132/505/139 133/506/139 134/507/139
f 132/505/139 134/507/139 135/508/139
f 136/509/140 137/510/140 138/511/140
f 136/509/140 138/511/140 139/512/140
f 132/513/141 136/514/141 139/515/141
f 132/513/141 139/515/141 133/516/141
f 135/517/142 134/518/142 138/519/142
f 135/517/142 138/519/142 137/520/142
f 132/521/143 135/522/143 137/523/143
f 132/521/143 137/523/143 136/524/143
f 133/525/144 139/526/144 138/527/144
f 133/525/144 138/527/144 134/528/144
f 140/529/145 141/530/145 142/531/145
f 140/529/145 142/531/145 143/532/145
f 144/533/146 145/534/146 146/535/146
f 144/533/146 146/535/146 147/536/146
f 140/537/147 144/538/147 147/539/147
f 140/537/147 147/539/147 141/540/147
f 143/541/148 142/542/148 146/543/148
f 143/541/148 146/543/148 145/544/148
f 140/545/149 143/546/149 145/547/149
f 140/545/149 145/547/149 144/548/149
f 141/549/150 147/550/150 146/551/150
f 141/549/150 146/551/150 142/552/150
f 148/553/151 149/554/151 150/555/151
f 148/553/151 150/555/151 151/556/151
f 152/557/152 153/558/152 154/559/152
f 152/557/152 154/559/152 155/560/152
f 148/561/153 152/562/153 155/563/153
f 148/561/153 155/563/153 149/564/153
f 151/565/154 150/566/154 154/567/154
f 151/565/154 154/567/154 153/568/154
f 148/569/155 151/570/155 153/571/155
f 148/569/155 153/571/155 152/572/155
f 149/573/156 155/574/156 154/575/156
f 149/573/156 154/575/156 150/576/156
