mtllib TorusSettlementFarm_Greenhouse.mtl
v -7.2485250 0.1266437 3.7500000
v -5.1780339 0.0646174 3.7500000
v -5.1780339 0.0646174 -3.7500000
v -7.2485250 0.1266437 -3.7500000
v -5.1780339 0.0646174 3.7500000
v -3.1070267 0.0232630 3.7500000
v -3.1070267 0.0232630 -3.7500000
v -5.1780339 0.0646174 -3.7500000
v -3.1070267 0.0232630 3.7500000
v -1.0357100 0.0025848 3.7500000
v -1.0357100 0.0025848 -3.7500000
v -3.1070267 0.0232630 -3.7500000
v -1.0357100 0.0025848 3.7500000
v 1.0357100 0.0025848 3.7500000
v 1.0357100 0.0025848 -3.7500000
v -1.0357100 0.0025848 -3.7500000
v 1.0357100 0.0025848 3.7500000
v 3.1070267 0.0232630 3.7500000
v 3.1070267 0.0232630 -3.7500000
v 1.0357100 0.0025848 -3.7500000
v 3.1070267 0.0232630 3.7500000
v 5.1780339 0.0646174 3.7500000
v 5.1780339 0.0646174 -3.7500000
v 3.1070267 0.0232630 -3.7500000
v 5.1780339 0.0646174 3.7500000
v 7.2485250 0.1266437 3.7500000
v 7.2485250 0.1266437 -3.7500000
v 5.1780339 0.0646174 -3.7500000
v -7.2480883 0.1391361 -3.4000000
v -5.1777219 0.0771135 -3.4000000
v -5.1777219 0.0771135 -3.7500000
v -7.2480883 0.1391361 -3.7500000
v -5.1777219 0.0771135 -3.4000000
v -3.1068396 0.0357616 -3.4000000
v -3.1068396 0.0357616 -3.7500000
v -5.1777219 0.0771135 -3.7500000
v -3.1068396 0.0357616 -3.4000000
v -1.0356476 0.0150847 -3.4000000
v -1.0356476 0.0150847 -3.7500000
v -3.1068396 0.0357616 -3.7500000
v -1.0356476 0.0150847 -3.4000000
v 1.0356476 0.0150847 -3.4000000
v 1.0356476 0.0150847 -3.7500000
v -1.0356476 0.0150847 -3.7500000
v 1.0356476 0.0150847 -3.4000000
v 3.1068396 0.0357616 -3.4000000
v 3.1068396 0.0357616 -3.7500000
v 1.0356476 0.0150847 -3.7500000
v 3.1068396 0.0357616 -3.4000000
v 5.1777219 0.0771135 -3.4000000
v 5.1777219 0.0771135 -3.7500000
v 3.1068396 0.0357616 -3.7500000
v 5.1777219 0.0771135 -3.4000000
v 7.2480883 0.1391361 -3.4000000
v 7.2480883 0.1391361 -3.7500000
v 5.1777219 0.0771135 -3.7500000
v -7.2480883 0.1391361 3.7500000
v -5.1777219 0.0771135 3.7500000
v -5.1777219 0.0771135 3.4000000
v -7.2480883 0.1391361 3.4000000
v -5.1777219 0.0771135 3.7500000
v -3.1068396 0.0357616 3.7500000
v -3.1068396 0.0357616 3.4000000
v -5.1777219 0.0771135 3.4000000
v -3.1068396 0.0357616 3.7500000
v -1.0356476 0.0150847 3.7500000
v -1.0356476 0.0150847 3.4000000
v -3.1068396 0.0357616 3.4000000
v -1.0356476 0.0150847 3.7500000
v 1.0356476 0.0150847 3.7500000
v 1.0356476 0.0150847 3.4000000
v -1.0356476 0.0150847 3.4000000
v 1.0356476 0.0150847 3.7500000
v 3.1068396 0.0357616 3.7500000
v 3.1068396 0.0357616 3.4000000
v 1.0356476 0.0150847 3.4000000
v 3.1068396 0.0357616 3.7500000
v 5.1777219 0.0771135 3.7500000
v 5.1777219 0.0771135 3.4000000
v 3.1068396 0.0357616 3.4000000
v 5.1777219 0.0771135 3.7500000
v 7.2480883 0.1391361 3.7500000
v 7.2480883 0.1391361 3.4000000
v 5.1777219 0.0771135 3.4000000
v -0.2999818 0.0127169 3.7500000
v 0.2999818 0.0127169 3.7500000
v 0.2999818 0.0127169 -3.7500000
v -0.2999818 0.0127169 -3.7500000
v -6.5693671 0.9544459 -2.5312500
v -4.8852820 0.9077530 -2.5312500
v -4.9018303 0.2079486 -2.8875000
v -6.5916200 0.2547997 -2.8875000
v -6.5916200 0.2547997 -2.1750000
v -4.9018303 0.2079486 -2.1750000
v -4.8852820 0.9077530 -2.5312500
v -6.5693671 0.9544459 -2.5312500
v -4.8852820 0.9077530 -2.5312500
v -3.2008722 0.8747912 -2.5312500
v -3.2117147 0.1748752 -2.8875000
v -4.9018303 0.2079486 -2.8875000
v -4.9018303 0.2079486 -2.1750000
v -3.2117147 0.1748752 -2.1750000
v -3.2008722 0.8747912 -2.5312500
v -4.8852820 0.9077530 -2.5312500
v -3.2008722 0.8747912 -2.5312500
v -1.5162496 0.8555627 -2.5312500
v -1.5213857 0.1555815 -2.8875000
v -3.2117147 0.1748752 -2.8875000
v -3.2117147 0.1748752 -2.1750000
v -1.5213857 0.1555815 -2.1750000
v -1.5162496 0.8555627 -2.5312500
v -3.2008722 0.8747912 -2.5312500
v -6.5169474 0.2449344 -1.7250000
v -4.8770317 0.1998616 -1.7250000
v -4.8790897 0.1123858 -2.7875000
v -6.5196974 0.1574777 -2.7875000
v -6.5196974 0.1574777 -0.6625000
v -4.8790897 0.1123858 -0.6625000
v -4.8770317 0.1998616 -1.7250000
v -6.5169474 0.2449344 -1.7250000
v -4.8770317 0.1998616 -1.7250000
v -3.2368107 0.1677645 -1.7250000
v -3.2381766 0.0802752 -2.7875000
v -4.8790897 0.1123858 -2.7875000
v -4.8790897 0.1123858 -0.6625000
v -3.2381766 0.0802752 -0.6625000
v -3.2368107 0.1677645 -1.7250000
v -4.8770317 0.1998616 -1.7250000
v -3.2368107 0.1677645 -1.7250000
v -1.5963872 0.1486452 -1.7250000
v -1.5970608 0.0611478 -2.7875000
v -3.2381766 0.0802752 -2.7875000
v -3.2381766 0.0802752 -0.6625000
v -1.5970608 0.0611478 -0.6625000
v -1.5963872 0.1486452 -1.7250000
v -3.2368107 0.1677645 -1.7250000
v -6.5932114 0.7926230 -0.5625000
v -6.5558545 0.7914348 -0.5625000
v -6.5558545 0.7914348 -2.8875000
v -6.5932114 0.7926230 -2.8875000
v -6.5932114 0.7926230 -2.8875000
v -6.5558545 0.7914348 -2.8875000
v -6.5772517 0.1167740 -2.8875000
v -6.6147304 0.1179661 -2.8875000
v -6.5558545 0.7914348 -2.8875000
v -6.5558545 0.7914348 -0.5625000
v -6.5772517 0.1167740 -0.5625000
v -6.5772517 0.1167740 -2.8875000
v -6.5558545 0.7914348 -0.5625000
v -6.5932114 0.7926230 -0.5625000
v -6.6147304 0.1179661 -0.5625000
v -6.5772517 0.1167740 -0.5625000
v -6.5932114 0.7926230 -0.5625000
v -6.5932114 0.7926230 -2.8875000
v -6.6147304 0.1179661 -2.8875000
v -6.6147304 0.1179661 -0.5625000
v -4.0649743 0.7274531 -0.5625000
v -4.0276057 0.7267219 -0.5625000
v -4.0276057 0.7267219 -2.8875000
v -4.0649743 0.7274531 -2.8875000
v -4.0649743 0.7274531 -2.8875000
v -4.0276057 0.7267219 -2.8875000
v -4.0407511 0.0518499 -2.8875000
v -4.0782417 0.0525835 -2.8875000
v -4.0276057 0.7267219 -2.8875000
v -4.0276057 0.7267219 -0.5625000
v -4.0407511 0.0518499 -0.5625000
v -4.0407511 0.0518499 -2.8875000
v -4.0276057 0.7267219 -0.5625000
v -4.0649743 0.7274531 -0.5625000
v -4.0782417 0.0525835 -0.5625000
v -4.0407511 0.0518499 -0.5625000
v -4.0649743 0.7274531 -0.5625000
v -4.0649743 0.7274531 -2.8875000
v -4.0782417 0.0525835 -2.8875000
v -4.0782417 0.0525835 -0.5625000
v -1.5361293 0.6932050 -0.5625000
v -1.4987546 0.6929308 -0.5625000
v -1.4987546 0.6929308 -2.8875000
v -1.5361293 0.6932050 -2.8875000
v -1.5361293 0.6932050 -2.8875000
v -1.4987546 0.6929308 -2.8875000
v -1.5036463 0.0179485 -2.8875000
v -1.5411430 0.0182236 -2.8875000
v -1.4987546 0.6929308 -2.8875000
v -1.4987546 0.6929308 -0.5625000
v -1.5036463 0.0179485 -0.5625000
v -1.5036463 0.0179485 -2.8875000
v -1.4987546 0.6929308 -0.5625000
v -1.5361293 0.6932050 -0.5625000
v -1.5411430 0.0182236 -0.5625000
v -1.5036463 0.0179485 -0.5625000
v -1.5361293 0.6932050 -0.5625000
v -1.5361293 0.6932050 -2.8875000
v -1.5411430 0.0182236 -2.8875000
v -1.5411430 0.0182236 -0.5625000
v -6.5693671 0.9544459 -1.7562500
v -4.8852820 0.9077530 -1.7562500
v -4.9018303 0.2079486 -2.1125000
v -6.5916200 0.2547997 -2.1125000
v -6.5916200 0.2547997 -1.4000000
v -4.9018303 0.2079486 -1.4000000
v -4.8852820 0.9077530 -1.7562500
v -6.5693671 0.9544459 -1.7562500
v -4.8852820 0.9077530 -1.7562500
v -3.2008722 0.8747912 -1.7562500
v -3.2117147 0.1748752 -2.1125000
v -4.9018303 0.2079486 -2.1125000
v -4.9018303 0.2079486 -1.4000000
v -3.2117147 0.1748752 -1.4000000
v -3.2008722 0.8747912 -1.7562500
v -4.8852820 0.9077530 -1.7562500
v -3.2008722 0.8747912 -1.7562500
v -1.5162496 0.8555627 -1.7562500
v -1.5213857 0.1555815 -2.1125000
v -3.2117147 0.1748752 -2.1125000
v -3.2117147 0.1748752 -1.4000000
v -1.5213857 0.1555815 -1.4000000
v -1.5162496 0.8555627 -1.7562500
v -3.2008722 0.8747912 -1.7562500
v -6.5169474 0.2449344 -1.7250000
v -4.8770317 0.1998616 -1.7250000
v -4.8790897 0.1123858 -2.7875000
v -6.5196974 0.1574777 -2.7875000
v -6.5196974 0.1574777 -0.6625000
v -4.8790897 0.1123858 -0.6625000
v -4.8770317 0.1998616 -1.7250000
v -6.5169474 0.2449344 -1.7250000
v -4.8770317 0.1998616 -1.7250000
v -3.2368107 0.1677645 -1.7250000
v -3.2381766 0.0802752 -2.7875000
v -4.8790897 0.1123858 -2.7875000
v -4.8790897 0.1123858 -0.6625000
v -3.2381766 0.0802752 -0.6625000
v -3.2368107 0.1677645 -1.7250000
v -4.8770317 0.1998616 -1.7250000
v -3.2368107 0.1677645 -1.7250000
v -1.5963872 0.1486452 -1.7250000
v -1.5970608 0.0611478 -2.7875000
v -3.2381766 0.0802752 -2.7875000
v -3.2381766 0.0802752 -0.6625000
v -1.5970608 0.0611478 -0.6625000
v -1.5963872 0.1486452 -1.7250000
v -3.2368107 0.1677645 -1.7250000
v -6.5932114 0.7926230 -0.5625000
v -6.5558545 0.7914348 -0.5625000
v -6.5558545 0.7914348 -2.8875000
v -6.5932114 0.7926230 -2.8875000
v -6.5932114 0.7926230 -2.8875000
v -6.5558545 0.7914348 -2.8875000
v -6.5772517 0.1167740 -2.8875000
v -6.6147304 0.1179661 -2.8875000
v -6.5558545 0.7914348 -2.8875000
v -6.5558545 0.7914348 -0.5625000
v -6.5772517 0.1167740 -0.5625000
v -6.5772517 0.1167740 -2.8875000
v -6.5558545 0.7914348 -0.5625000
v -6.5932114 0.7926230 -0.5625000
v -6.6147304 0.1179661 -0.5625000
v -6.5772517 0.1167740 -0.5625000
v -6.5932114 0.7926230 -0.5625000
v -6.5932114 0.7926230 -2.8875000
v -6.6147304 0.1179661 -2.8875000
v -6.6147304 0.1179661 -0.5625000
v -4.0649743 0.7274531 -0.5625000
v -4.0276057 0.7267219 -0.5625000
v -4.0276057 0.7267219 -2.8875000
v -4.0649743 0.7274531 -2.8875000
v -4.0649743 0.7274531 -2.8875000
v -4.0276057 0.7267219 -2.8875000
v -4.0407511 0.0518499 -2.8875000
v -4.0782417 0.0525835 -2.8875000
v -4.0276057 0.7267219 -2.8875000
v -4.0276057 0.7267219 -0.5625000
v -4.0407511 0.0518499 -0.5625000
v -4.0407511 0.0518499 -2.8875000
v -4.0276057 0.7267219 -0.5625000
v -4.0649743 0.7274531 -0.5625000
v -4.0782417 0.0525835 -0.5625000
v -4.0407511 0.0518499 -0.5625000
v -4.0649743 0.7274531 -0.5625000
v -4.0649743 0.7274531 -2.8875000
v -4.0782417 0.0525835 -2.8875000
v -4.0782417 0.0525835 -0.5625000
v -1.5361293 0.6932050 -0.5625000
v -1.4987546 0.6929308 -0.5625000
v -1.4987546 0.6929308 -2.8875000
v -1.5361293 0.6932050 -2.8875000
v -1.5361293 0.6932050 -2.8875000
v -1.4987546 0.6929308 -2.8875000
v -1.5036463 0.0179485 -2.8875000
v -1.5411430 0.0182236 -2.8875000
v -1.4987546 0.6929308 -2.8875000
v -1.4987546 0.6929308 -0.5625000
v -1.5036463 0.0179485 -0.5625000
v -1.5036463 0.0179485 -2.8875000
v -1.4987546 0.6929308 -0.5625000
v -1.5361293 0.6932050 -0.5625000
v -1.5411430 0.0182236 -0.5625000
v -1.5036463 0.0179485 -0.5625000
v -1.5361293 0.6932050 -0.5625000
v -1.5361293 0.6932050 -2.8875000
v -1.5411430 0.0182236 -2.8875000
v -1.5411430 0.0182236 -0.5625000
v -6.5693671 0.9544459 -0.9812500
v -4.8852820 0.9077530 -0.9812500
v -4.9018303 0.2079486 -1.3375000
v -6.5916200 0.2547997 -1.3375000
v -6.5916200 0.2547997 -0.6250000
v -4.9018303 0.2079486 -0.6250000
v -4.8852820 0.9077530 -0.9812500
v -6.5693671 0.9544459 -0.9812500
v -4.8852820 0.9077530 -0.9812500
v -3.2008722 0.8747912 -0.9812500
v -3.2117147 0.1748752 -1.3375000
v -4.9018303 0.2079486 -1.3375000
v -4.9018303 0.2079486 -0.6250000
v -3.2117147 0.1748752 -0.6250000
v -3.2008722 0.8747912 -0.9812500
v -4.8852820 0.9077530 -0.9812500
v -3.2008722 0.8747912 -0.9812500
v -1.5162496 0.8555627 -0.9812500
v -1.5213857 0.1555815 -1.3375000
v -3.2117147 0.1748752 -1.3375000
v -3.2117147 0.1748752 -0.6250000
v -1.5213857 0.1555815 -0.6250000
v -1.5162496 0.8555627 -0.9812500
v -3.2008722 0.8747912 -0.9812500
v -6.5169474 0.2449344 -1.7250000
v -4.8770317 0.1998616 -1.7250000
v -4.8790897 0.1123858 -2.7875000
v -6.5196974 0.1574777 -2.7875000
v -6.5196974 0.1574777 -0.6625000
v -4.8790897 0.1123858 -0.6625000
v -4.8770317 0.1998616 -1.7250000
v -6.5169474 0.2449344 -1.7250000
v -4.8770317 0.1998616 -1.7250000
v -3.2368107 0.1677645 -1.7250000
v -3.2381766 0.0802752 -2.7875000
v -4.8790897 0.1123858 -2.7875000
v -4.8790897 0.1123858 -0.6625000
v -3.2381766 0.0802752 -0.6625000
v -3.2368107 0.1677645 -1.7250000
v -4.8770317 0.1998616 -1.7250000
v -3.2368107 0.1677645 -1.7250000
v -1.5963872 0.1486452 -1.7250000
v -1.5970608 0.0611478 -2.7875000
v -3.2381766 0.0802752 -2.7875000
v -3.2381766 0.0802752 -0.6625000
v -1.5970608 0.0611478 -0.6625000
v -1.5963872 0.1486452 -1.7250000
v -3.2368107 0.1677645 -1.7250000
v -6.5932114 0.7926230 -0.5625000
v -6.5558545 0.7914348 -0.5625000
v -6.5558545 0.7914348 -2.8875000
v -6.5932114 0.7926230 -2.8875000
v -6.5932114 0.7926230 -2.8875000
v -6.5558545 0.7914348 -2.8875000
v -6.5772517 0.1167740 -2.8875000
v -6.6147304 0.1179661 -2.8875000
v -6.5558545 0.7914348 -2.8875000
v -6.5558545 0.7914348 -0.5625000
v -6.5772517 0.1167740 -0.5625000
v -6.5772517 0.1167740 -2.8875000
v -6.5558545 0.7914348 -0.5625000
v -6.5932114 0.7926230 -0.5625000
v -6.6147304 0.1179661 -0.5625000
v -6.5772517 0.1167740 -0.5625000
v -6.5932114 0.7926230 -0.5625000
v -6.5932114 0.7926230 -2.8875000
v -6.6147304 0.1179661 -2.8875000
v -6.6147304 0.1179661 -0.5625000
v -4.0649743 0.7274531 -0.5625000
v -4.0276057 0.7267219 -0.5625000
v -4.0276057 0.7267219 -2.8875000
v -4.0649743 0.7274531 -2.8875000
v -4.0649743 0.7274531 -2.8875000
v -4.0276057 0.7267219 -2.8875000
v -4.0407511 0.0518499 -2.8875000
v -4.0782417 0.0525835 -2.8875000
v -4.0276057 0.7267219 -2.8875000
v -4.0276057 0.7267219 -0.5625000
v -4.0407511 0.0518499 -0.5625000
v -4.0407511 0.0518499 -2.8875000
v -4.0276057 0.7267219 -0.5625000
v -4.0649743 0.7274531 -0.5625000
v -4.0782417 0.0525835 -0.5625000
v -4.0407511 0.0518499 -0.5625000
v -4.0649743 0.7274531 -0.5625000
v -4.0649743 0.7274531 -2.8875000
v -4.0782417 0.0525835 -2.8875000
v -4.0782417 0.0525835 -0.5625000
v -1.5361293 0.6932050 -0.5625000
v -1.4987546 0.6929308 -0.5625000
v -1.4987546 0.6929308 -2.8875000
v -1.5361293 0.6932050 -2.8875000
v -1.5361293 0.6932050 -2.8875000
v -1.4987546 0.6929308 -2.8875000
v -1.5036463 0.0179485 -2.8875000
v -1.5411430 0.0182236 -2.8875000
v -1.4987546 0.6929308 -2.8875000
v -1.4987546 0.6929308 -0.5625000
v -1.5036463 0.0179485 -0.5625000
v -1.5036463 0.0179485 -2.8875000
v -1.4987546 0.6929308 -0.5625000
v -1.5361293 0.6932050 -0.5625000
v -1.5411430 0.0182236 -0.5625000
v -1.5036463 0.0179485 -0.5625000
v -1.5361293 0.6932050 -0.5625000
v -1.5361293 0.6932050 -2.8875000
v -1.5411430 0.0182236 -2.8875000
v -1.5411430 0.0182236 -0.5625000
v 1.5162496 0.8555627 -2.5312500
v 3.2008722 0.8747912 -2.5312500
v 3.2117147 0.1748752 -2.8875000
v 1.5213857 0.1555815 -2.8875000
v 1.5213857 0.1555815 -2.1750000
v 3.2117147 0.1748752 -2.1750000
v 3.2008722 0.8747912 -2.5312500
v 1.5162496 0.8555627 -2.5312500
v 3.2008722 0.8747912 -2.5312500
v 4.8852820 0.9077530 -2.5312500
v 4.9018303 0.2079486 -2.8875000
v 3.2117147 0.1748752 -2.8875000
v 3.2117147 0.1748752 -2.1750000
v 4.9018303 0.2079486 -2.1750000
v 4.8852820 0.9077530 -2.5312500
v 3.2008722 0.8747912 -2.5312500
v 4.8852820 0.9077530 -2.5312500
v 6.5693671 0.9544459 -2.5312500
v 6.5916200 0.2547997 -2.8875000
v 4.9018303 0.2079486 -2.8875000
v 4.9018303 0.2079486 -2.1750000
v 6.5916200 0.2547997 -2.1750000
v 6.5693671 0.9544459 -2.5312500
v 4.8852820 0.9077530 -2.5312500
v 1.5963872 0.1486452 -1.7250000
v 3.2368107 0.1677645 -1.7250000
v 3.2381766 0.0802752 -2.7875000
v 1.5970608 0.0611478 -2.7875000
v 1.5970608 0.0611478 -0.6625000
v 3.2381766 0.0802752 -0.6625000
v 3.2368107 0.1677645 -1.7250000
v 1.5963872 0.1486452 -1.7250000
v 3.2368107 0.1677645 -1.7250000
v 4.8770317 0.1998616 -1.7250000
v 4.8790897 0.1123858 -2.7875000
v 3.2381766 0.0802752 -2.7875000
v 3.2381766 0.0802752 -0.6625000
v 4.8790897 0.1123858 -0.6625000
v 4.8770317 0.1998616 -1.7250000
v 3.2368107 0.1677645 -1.7250000
v 4.8770317 0.1998616 -1.7250000
v 6.5169474 0.2449344 -1.7250000
v 6.5196974 0.1574777 -2.7875000
v 4.8790897 0.1123858 -2.7875000
v 4.8790897 0.1123858 -0.6625000
v 6.5196974 0.1574777 -0.6625000
v 6.5169474 0.2449344 -1.7250000
v 4.8770317 0.1998616 -1.7250000
v 1.4987546 0.6929308 -0.5625000
v 1.5361293 0.6932050 -0.5625000
v 1.5361293 0.6932050 -2.8875000
v 1.4987546 0.6929308 -2.8875000
v 1.4987546 0.6929308 -2.8875000
v 1.5361293 0.6932050 -2.8875000
v 1.5411430 0.0182236 -2.8875000
v 1.5036463 0.0179485 -2.8875000
v 1.5361293 0.6932050 -2.8875000
v 1.5361293 0.6932050 -0.5625000
v 1.5411430 0.0182236 -0.5625000
v 1.5411430 0.0182236 -2.8875000
v 1.5361293 0.6932050 -0.5625000
v 1.4987546 0.6929308 -0.5625000
v 1.5036463 0.0179485 -0.5625000
v 1.5411430 0.0182236 -0.5625000
v 1.4987546 0.6929308 -0.5625000
v 1.4987546 0.6929308 -2.8875000
v 1.5036463 0.0179485 -2.8875000
v 1.5036463 0.0179485 -0.5625000
v 4.0276057 0.7267219 -0.5625000
v 4.0649743 0.7274531 -0.5625000
v 4.0649743 0.7274531 -2.8875000
v 4.0276057 0.7267219 -2.8875000
v 4.0276057 0.7267219 -2.8875000
v 4.0649743 0.7274531 -2.8875000
v 4.0782417 0.0525835 -2.8875000
v 4.0407511 0.0518499 -2.8875000
v 4.0649743 0.7274531 -2.8875000
v 4.0649743 0.7274531 -0.5625000
v 4.0782417 0.0525835 -0.5625000
v 4.0782417 0.0525835 -2.8875000
v 4.0649743 0.7274531 -0.5625000
v 4.0276057 0.7267219 -0.5625000
v 4.0407511 0.0518499 -0.5625000
v 4.0782417 0.0525835 -0.5625000
v 4.0276057 0.7267219 -0.5625000
v 4.0276057 0.7267219 -2.8875000
v 4.0407511 0.0518499 -2.8875000
v 4.0407511 0.0518499 -0.5625000
v 6.5558545 0.7914348 -0.5625000
v 6.5932114 0.7926230 -0.5625000
v 6.5932114 0.7926230 -2.8875000
v 6.5558545 0.7914348 -2.8875000
v 6.5558545 0.7914348 -2.8875000
v 6.5932114 0.7926230 -2.8875000
v 6.6147304 0.1179661 -2.8875000
v 6.5772517 0.1167740 -2.8875000
v 6.5932114 0.7926230 -2.8875000
v 6.5932114 0.7926230 -0.5625000
v 6.6147304 0.1179661 -0.5625000
v 6.6147304 0.1179661 -2.8875000
v 6.5932114 0.7926230 -0.5625000
v 6.5558545 0.7914348 -0.5625000
v 6.5772517 0.1167740 -0.5625000
v 6.6147304 0.1179661 -0.5625000
v 6.5558545 0.7914348 -0.5625000
v 6.5558545 0.7914348 -2.8875000
v 6.5772517 0.1167740 -2.8875000
v 6.5772517 0.1167740 -0.5625000
v 1.5162496 0.8555627 -1.7562500
v 3.2008722 0.8747912 -1.7562500
v 3.2117147 0.1748752 -2.1125000
v 1.5213857 0.1555815 -2.1125000
v 1.5213857 0.1555815 -1.4000000
v 3.2117147 0.1748752 -1.4000000
v 3.2008722 0.8747912 -1.7562500
v 1.5162496 0.8555627 -1.7562500
v 3.2008722 0.8747912 -1.7562500
v 4.8852820 0.9077530 -1.7562500
v 4.9018303 0.2079486 -2.1125000
v 3.2117147 0.1748752 -2.1125000
v 3.2117147 0.1748752 -1.4000000
v 4.9018303 0.2079486 -1.4000000
v 4.8852820 0.9077530 -1.7562500
v 3.2008722 0.8747912 -1.7562500
v 4.8852820 0.9077530 -1.7562500
v 6.5693671 0.9544459 -1.7562500
v 6.5916200 0.2547997 -2.1125000
v 4.9018303 0.2079486 -2.1125000
v 4.9018303 0.2079486 -1.4000000
v 6.5916200 0.2547997 -1.4000000
v 6.5693671 0.9544459 -1.7562500
v 4.8852820 0.9077530 -1.7562500
v 1.5963872 0.1486452 -1.7250000
v 3.2368107 0.1677645 -1.7250000
v 3.2381766 0.0802752 -2.7875000
v 1.5970608 0.0611478 -2.7875000
v 1.5970608 0.0611478 -0.6625000
v 3.2381766 0.0802752 -0.6625000
v 3.2368107 0.1677645 -1.7250000
v 1.5963872 0.1486452 -1.7250000
v 3.2368107 0.1677645 -1.7250000
v 4.8770317 0.1998616 -1.7250000
v 4.8790897 0.1123858 -2.7875000
v 3.2381766 0.0802752 -2.7875000
v 3.2381766 0.0802752 -0.6625000
v 4.8790897 0.1123858 -0.6625000
v 4.8770317 0.1998616 -1.7250000
v 3.2368107 0.1677645 -1.7250000
v 4.8770317 0.1998616 -1.7250000
v 6.5169474 0.2449344 -1.7250000
v 6.5196974 0.1574777 -2.7875000
v 4.8790897 0.1123858 -2.7875000
v 4.8790897 0.1123858 -0.6625000
v 6.5196974 0.1574777 -0.6625000
v 6.5169474 0.2449344 -1.7250000
v 4.8770317 0.1998616 -1.7250000
v 1.4987546 0.6929308 -0.5625000
v 1.5361293 0.6932050 -0.5625000
v 1.5361293 0.6932050 -2.8875000
v 1.4987546 0.6929308 -2.8875000
v 1.4987546 0.6929308 -2.8875000
v 1.5361293 0.6932050 -2.8875000
v 1.5411430 0.0182236 -2.8875000
v 1.5036463 0.0179485 -2.8875000
v 1.5361293 0.6932050 -2.8875000
v 1.5361293 0.6932050 -0.5625000
v 1.5411430 0.0182236 -0.5625000
v 1.5411430 0.0182236 -2.8875000
v 1.5361293 0.6932050 -0.5625000
v 1.4987546 0.6929308 -0.5625000
v 1.5036463 0.0179485 -0.5625000
v 1.5411430 0.0182236 -0.5625000
v 1.4987546 0.6929308 -0.5625000
v 1.4987546 0.6929308 -2.8875000
v 1.5036463 0.0179485 -2.8875000
v 1.5036463 0.0179485 -0.5625000
v 4.0276057 0.7267219 -0.5625000
v 4.0649743 0.7274531 -0.5625000
v 4.0649743 0.7274531 -2.8875000
v 4.0276057 0.7267219 -2.8875000
v 4.0276057 0.7267219 -2.8875000
v 4.0649743 0.7274531 -2.8875000
v 4.0782417 0.0525835 -2.8875000
v 4.0407511 0.0518499 -2.8875000
v 4.0649743 0.7274531 -2.8875000
v 4.0649743 0.7274531 -0.5625000
v 4.0782417 0.0525835 -0.5625000
v 4.0782417 0.0525835 -2.8875000
v 4.0649743 0.7274531 -0.5625000
v 4.0276057 0.7267219 -0.5625000
v 4.0407511 0.0518499 -0.5625000
v 4.0782417 0.0525835 -0.5625000
v 4.0276057 0.7267219 -0.5625000
v 4.0276057 0.7267219 -2.8875000
v 4.0407511 0.0518499 -2.8875000
v 4.0407511 0.0518499 -0.5625000
v 6.5558545 0.7914348 -0.5625000
v 6.5932114 0.7926230 -0.5625000
v 6.5932114 0.7926230 -2.8875000
v 6.5558545 0.7914348 -2.8875000
v 6.5558545 0.7914348 -2.8875000
v 6.5932114 0.7926230 -2.8875000
v 6.6147304 0.1179661 -2.8875000
v 6.5772517 0.1167740 -2.8875000
v 6.5932114 0.7926230 -2.8875000
v 6.5932114 0.7926230 -0.5625000
v 6.6147304 0.1179661 -0.5625000
v 6.6147304 0.1179661 -2.8875000
v 6.5932114 0.7926230 -0.5625000
v 6.5558545 0.7914348 -0.5625000
v 6.5772517 0.1167740 -0.5625000
v 6.6147304 0.1179661 -0.5625000
v 6.5558545 0.7914348 -0.5625000
v 6.5558545 0.7914348 -2.8875000
v 6.5772517 0.1167740 -2.8875000
v 6.5772517 0.1167740 -0.5625000
v 1.5162496 0.8555627 -0.9812500
v 3.2008722 0.8747912 -0.9812500
v 3.2117147 0.1748752 -1.3375000
v 1.5213857 0.1555815 -1.3375000
v 1.5213857 0.1555815 -0.6250000
v 3.2117147 0.1748752 -0.6250000
v 3.2008722 0.8747912 -0.9812500
v 1.5162496 0.8555627 -0.9812500
v 3.2008722 0.8747912 -0.9812500
v 4.8852820 0.9077530 -0.9812500
v 4.9018303 0.2079486 -1.3375000
v 3.2117147 0.1748752 -1.3375000
v 3.2117147 0.1748752 -0.6250000
v 4.9018303 0.2079486 -0.6250000
v 4.8852820 0.9077530 -0.9812500
v 3.2008722 0.8747912 -0.9812500
v 4.8852820 0.9077530 -0.9812500
v 6.5693671 0.9544459 -0.9812500
v 6.5916200 0.2547997 -1.3375000
v 4.9018303 0.2079486 -1.3375000
v 4.9018303 0.2079486 -0.6250000
v 6.5916200 0.2547997 -0.6250000
v 6.5693671 0.9544459 -0.9812500
v 4.8852820 0.9077530 -0.9812500
v 1.5963872 0.1486452 -1.7250000
v 3.2368107 0.1677645 -1.7250000
v 3.2381766 0.0802752 -2.7875000
v 1.5970608 0.0611478 -2.7875000
v 1.5970608 0.0611478 -0.6625000
v 3.2381766 0.0802752 -0.6625000
v 3.2368107 0.1677645 -1.7250000
v 1.5963872 0.1486452 -1.7250000
v 3.2368107 0.1677645 -1.7250000
v 4.8770317 0.1998616 -1.7250000
v 4.8790897 0.1123858 -2.7875000
v 3.2381766 0.0802752 -2.7875000
v 3.2381766 0.0802752 -0.6625000
v 4.8790897 0.1123858 -0.6625000
v 4.8770317 0.1998616 -1.7250000
v 3.2368107 0.1677645 -1.7250000
v 4.8770317 0.1998616 -1.7250000
v 6.5169474 0.2449344 -1.7250000
v 6.5196974 0.1574777 -2.7875000
v 4.8790897 0.1123858 -2.7875000
v 4.8790897 0.1123858 -0.6625000
v 6.5196974 0.1574777 -0.6625000
v 6.5169474 0.2449344 -1.7250000
v 4.8770317 0.1998616 -1.7250000
v 1.4987546 0.6929308 -0.5625000
v 1.5361293 0.6932050 -0.5625000
v 1.5361293 0.6932050 -2.8875000
v 1.4987546 0.6929308 -2.8875000
v 1.4987546 0.6929308 -2.8875000
v 1.5361293 0.6932050 -2.8875000
v 1.5411430 0.0182236 -2.8875000
v 1.5036463 0.0179485 -2.8875000
v 1.5361293 0.6932050 -2.8875000
v 1.5361293 0.6932050 -0.5625000
v 1.5411430 0.0182236 -0.5625000
v 1.5411430 0.0182236 -2.8875000
v 1.5361293 0.6932050 -0.5625000
v 1.4987546 0.6929308 -0.5625000
v 1.5036463 0.0179485 -0.5625000
v 1.5411430 0.0182236 -0.5625000
v 1.4987546 0.6929308 -0.5625000
v 1.4987546 0.6929308 -2.8875000
v 1.5036463 0.0179485 -2.8875000
v 1.5036463 0.0179485 -0.5625000
v 4.0276057 0.7267219 -0.5625000
v 4.0649743 0.7274531 -0.5625000
v 4.0649743 0.7274531 -2.8875000
v 4.0276057 0.7267219 -2.8875000
v 4.0276057 0.7267219 -2.8875000
v 4.0649743 0.7274531 -2.8875000
v 4.0782417 0.0525835 -2.8875000
v 4.0407511 0.0518499 -2.8875000
v 4.0649743 0.7274531 -2.8875000
v 4.0649743 0.7274531 -0.5625000
v 4.0782417 0.0525835 -0.5625000
v 4.0782417 0.0525835 -2.8875000
v 4.0649743 0.7274531 -0.5625000
v 4.0276057 0.7267219 -0.5625000
v 4.0407511 0.0518499 -0.5625000
v 4.0782417 0.0525835 -0.5625000
v 4.0276057 0.7267219 -0.5625000
v 4.0276057 0.7267219 -2.8875000
v 4.0407511 0.0518499 -2.8875000
v 4.0407511 0.0518499 -0.5625000
v 6.5558545 0.7914348 -0.5625000
v 6.5932114 0.7926230 -0.5625000
v 6.5932114 0.7926230 -2.8875000
v 6.5558545 0.7914348 -2.8875000
v 6.5558545 0.7914348 -2.8875000
v 6.5932114 0.7926230 -2.8875000
v 6.6147304 0.1179661 -2.8875000
v 6.5772517 0.1167740 -2.8875000
v 6.5932114 0.7926230 -2.8875000
v 6.5932114 0.7926230 -0.5625000
v 6.6147304 0.1179661 -0.5625000
v 6.6147304 0.1179661 -2.8875000
v 6.5932114 0.7926230 -0.5625000
v 6.5558545 0.7914348 -0.5625000
v 6.5772517 0.1167740 -0.5625000
v 6.6147304 0.1179661 -0.5625000
v 6.5558545 0.7914348 -0.5625000
v 6.5558545 0.7914348 -2.8875000
v 6.5772517 0.1167740 -2.8875000
v 6.5772517 0.1167740 -0.5625000
v -6.8958193 0.2021639 2.1500000
v -4.7059440 0.1408930 2.1500000
v -4.7070785 0.0909059 0.9000000
v -6.8974817 0.1521916 0.9000000
v -6.8974817 0.1521916 3.4000000
v -4.7070785 0.0909059 3.4000000
v -4.7059440 0.1408930 2.1500000
v -6.8958193 0.2021639 2.1500000
v -4.7059440 0.1408930 2.1500000
v -2.5155437 0.1027551 2.1500000
v -2.5161502 0.0527588 0.9000000
v -4.7070785 0.0909059 0.9000000
v -4.7070785 0.0909059 3.4000000
v -2.5161502 0.0527588 3.4000000
v -2.5155437 0.1027551 2.1500000
v -4.7059440 0.1408930 2.1500000
v -2.5155437 0.1027551 2.1500000
v -0.3248628 0.0877544 2.1500000
v -0.3249411 0.0377545 0.9000000
v -2.5161502 0.0527588 0.9000000
v -2.5161502 0.0527588 3.4000000
v -0.3249411 0.0377545 3.4000000
v -0.3248628 0.0877544 2.1500000
v -2.5155437 0.1027551 2.1500000
v 0.3248628 0.0877544 2.1500000
v 2.5155437 0.1027551 2.1500000
v 2.5161502 0.0527588 0.9000000
v 0.3249411 0.0377545 0.9000000
v 0.3249411 0.0377545 3.4000000
v 2.5161502 0.0527588 3.4000000
v 2.5155437 0.1027551 2.1500000
v 0.3248628 0.0877544 2.1500000
v 2.5155437 0.1027551 2.1500000
v 4.7059440 0.1408930 2.1500000
v 4.7070785 0.0909059 0.9000000
v 2.5161502 0.0527588 0.9000000
v 2.5161502 0.0527588 3.4000000
v 4.7070785 0.0909059 3.4000000
v 4.7059440 0.1408930 2.1500000
v 2.5155437 0.1027551 2.1500000
v 4.7059440 0.1408930 2.1500000
v 6.8958193 0.2021639 2.1500000
v 6.8974817 0.1521916 0.9000000
v 4.7070785 0.0909059 0.9000000
v 4.7070785 0.0909059 3.4000000
v 6.8974817 0.1521916 3.4000000
v 6.8958193 0.2021639 2.1500000
v 4.7059440 0.1408930 2.1500000
vt 0.005000 0.995000
vt 0.245000 0.995000
vt 0.245000 0.755000
vt 0.255000 0.995000
vt 0.495000 0.995000
vt 0.495000 0.755000
vt 0.505000 0.995000
vt 0.745000 0.995000
vt 0.745000 0.755000
vt 0.755000 0.995000
vt 0.995000 0.995000
vt 0.995000 0.755000
vt 0.005000 0.745000
vt 0.245000 0.745000
vt 0.245000 0.505000
vt 0.255000 0.745000
vt 0.495000 0.745000
vt 0.495000 0.505000
vt 0.505000 0.745000
vt 0.745000 0.745000
vt 0.745000 0.505000
vt 0.755000 0.745000
vt 0.995000 0.745000
vt 0.995000 0.505000
vt 0.005000 0.495000
vt 0.245000 0.495000
vt 0.245000 0.255000
vt 0.255000 0.495000
vt 0.495000 0.495000
vt 0.495000 0.255000
vt 0.505000 0.495000
vt 0.745000 0.495000
vt 0.745000 0.255000
vt 0.755000 0.495000
vt 0.995000 0.495000
vt 0.995000 0.255000
vt 0.005000 0.245000
vt 0.245000 0.245000
vt 0.245000 0.005000
vt 0.255000 0.245000
vt 0.495000 0.245000
vt 0.495000 0.005000
vt 0.505000 0.245000
vt 0.745000 0.245000
vt 0.745000 0.005000
vt 0.755000 0.245000
vt 0.995000 0.245000
vt 0.995000 0.005000
g glass
usemtl farm-glass
f 89/46 90/47 91/48
f 89/46 91/47 92/48
f 93/46 94/47 95/48
f 93/46 95/47 96/48
f 97/46 98/47 99/48
f 97/46 99/47 100/48
f 101/46 102/47 103/48
f 101/46 103/47 104/48
f 105/46 106/47 107/48
f 105/46 107/47 108/48
f 109/46 110/47 111/48
f 109/46 111/47 112/48
f 197/46 198/47 199/48
f 197/46 199/47 200/48
f 201/46 202/47 203/48
f 201/46 203/47 204/48
f 205/46 206/47 207/48
f 205/46 207/47 208/48
f 209/46 210/47 211/48
f 209/46 211/47 212/48
f 213/46 214/47 215/48
f 213/46 215/47 216/48
f 217/46 218/47 219/48
f 217/46 219/47 220/48
f 305/46 306/47 307/48
f 305/46 307/47 308/48
f 309/46 310/47 311/48
f 309/46 311/47 312/48
f 313/46 314/47 315/48
f 313/46 315/47 316/48
f 317/46 318/47 319/48
f 317/46 319/47 320/48
f 321/46 322/47 323/48
f 321/46 323/47 324/48
f 325/46 326/47 327/48
f 325/46 327/47 328/48
f 413/46 414/47 415/48
f 413/46 415/47 416/48
f 417/46 418/47 419/48
f 417/46 419/47 420/48
f 421/46 422/47 423/48
f 421/46 423/47 424/48
f 425/46 426/47 427/48
f 425/46 427/47 428/48
f 429/46 430/47 431/48
f 429/46 431/47 432/48
f 433/46 434/47 435/48
f 433/46 435/47 436/48
f 521/46 522/47 523/48
f 521/46 523/47 524/48
f 525/46 526/47 527/48
f 525/46 527/47 528/48
f 529/46 530/47 531/48
f 529/46 531/47 532/48
f 533/46 534/47 535/48
f 533/46 535/47 536/48
f 537/46 538/47 539/48
f 537/46 539/47 540/48
f 541/46 542/47 543/48
f 541/46 543/47 544/48
f 629/46 630/47 631/48
f 629/46 631/47 632/48
f 633/46 634/47 635/48
f 633/46 635/47 636/48
f 637/46 638/47 639/48
f 637/46 639/47 640/48
f 641/46 642/47 643/48
f 641/46 643/47 644/48
f 645/46 646/47 647/48
f 645/46 647/47 648/48
f 649/46 650/47 651/48
f 649/46 651/47 652/48
g ornament
usemtl farm-kit
f 113/16 114/17 115/18
f 113/16 115/17 116/18
f 117/16 118/17 119/18
f 117/16 119/17 120/18
f 121/16 122/17 123/18
f 121/16 123/17 124/18
f 125/16 126/17 127/18
f 125/16 127/17 128/18
f 129/16 130/17 131/18
f 129/16 131/17 132/18
f 133/16 134/17 135/18
f 133/16 135/17 136/18
f 221/16 222/17 223/18
f 221/16 223/17 224/18
f 225/16 226/17 227/18
f 225/16 227/17 228/18
f 229/16 230/17 231/18
f 229/16 231/17 232/18
f 233/16 234/17 235/18
f 233/16 235/17 236/18
f 237/16 238/17 239/18
f 237/16 239/17 240/18
f 241/16 242/17 243/18
f 241/16 243/17 244/18
f 329/16 330/17 331/18
f 329/16 331/17 332/18
f 333/16 334/17 335/18
f 333/16 335/17 336/18
f 337/16 338/17 339/18
f 337/16 339/17 340/18
f 341/16 342/17 343/18
f 341/16 343/17 344/18
f 345/16 346/17 347/18
f 345/16 347/17 348/18
f 349/16 350/17 351/18
f 349/16 351/17 352/18
f 437/16 438/17 439/18
f 437/16 439/17 440/18
f 441/16 442/17 443/18
f 441/16 443/17 444/18
f 445/16 446/17 447/18
f 445/16 447/17 448/18
f 449/16 450/17 451/18
f 449/16 451/17 452/18
f 453/16 454/17 455/18
f 453/16 455/17 456/18
f 457/16 458/17 459/18
f 457/16 459/17 460/18
f 545/16 546/17 547/18
f 545/16 547/17 548/18
f 549/16 550/17 551/18
f 549/16 551/17 552/18
f 553/16 554/17 555/18
f 553/16 555/17 556/18
f 557/16 558/17 559/18
f 557/16 559/17 560/18
f 561/16 562/17 563/18
f 561/16 563/17 564/18
f 565/16 566/17 567/18
f 565/16 567/17 568/18
f 653/16 654/17 655/18
f 653/16 655/17 656/18
f 657/16 658/17 659/18
f 657/16 659/17 660/18
f 661/16 662/17 663/18
f 661/16 663/17 664/18
f 665/16 666/17 667/18
f 665/16 667/17 668/18
f 669/16 670/17 671/18
f 669/16 671/17 672/18
f 673/16 674/17 675/18
f 673/16 675/17 676/18
f 737/16 738/17 739/18
f 737/16 739/17 740/18
f 741/16 742/17 743/18
f 741/16 743/17 744/18
f 745/16 746/17 747/18
f 745/16 747/17 748/18
f 749/16 750/17 751/18
f 749/16 751/17 752/18
f 753/16 754/17 755/18
f 753/16 755/17 756/18
f 757/16 758/17 759/18
f 757/16 759/17 760/18
f 761/16 762/17 763/18
f 761/16 763/17 764/18
f 765/16 766/17 767/18
f 765/16 767/17 768/18
f 769/16 770/17 771/18
f 769/16 771/17 772/18
f 773/16 774/17 775/18
f 773/16 775/17 776/18
f 777/16 778/17 779/18
f 777/16 779/17 780/18
f 781/16 782/17 783/18
f 781/16 783/17 784/18
g solid
usemtl farm-kit
f 137/28 138/29 139/30
f 137/28 139/29 140/30
f 141/28 142/29 143/30
f 141/28 143/29 144/30
f 145/28 146/29 147/30
f 145/28 147/29 148/30
f 149/28 150/29 151/30
f 149/28 151/29 152/30
f 153/28 154/29 155/30
f 153/28 155/29 156/30
f 157/28 158/29 159/30
f 157/28 159/29 160/30
f 161/28 162/29 163/30
f 161/28 163/29 164/30
f 165/28 166/29 167/30
f 165/28 167/29 168/30
f 169/28 170/29 171/30
f 169/28 171/29 172/30
f 173/28 174/29 175/30
f 173/28 175/29 176/30
f 177/28 178/29 179/30
f 177/28 179/29 180/30
f 181/28 182/29 183/30
f 181/28 183/29 184/30
f 185/28 186/29 187/30
f 185/28 187/29 188/30
f 189/28 190/29 191/30
f 189/28 191/29 192/30
f 193/28 194/29 195/30
f 193/28 195/29 196/30
f 245/28 246/29 247/30
f 245/28 247/29 248/30
f 249/28 250/29 251/30
f 249/28 251/29 252/30
f 253/28 254/29 255/30
f 253/28 255/29 256/30
f 257/28 258/29 259/30
f 257/28 259/29 260/30
f 261/28 262/29 263/30
f 261/28 263/29 264/30
f 265/28 266/29 267/30
f 265/28 267/29 268/30
f 269/28 270/29 271/30
f 269/28 271/29 272/30
f 273/28 274/29 275/30
f 273/28 275/29 276/30
f 277/28 278/29 279/30
f 277/28 279/29 280/30
f 281/28 282/29 283/30
f 281/28 283/29 284/30
f 285/28 286/29 287/30
f 285/28 287/29 288/30
f 289/28 290/29 291/30
f 289/28 291/29 292/30
f 293/28 294/29 295/30
f 293/28 295/29 296/30
f 297/28 298/29 299/30
f 297/28 299/29 300/30
f 301/28 302/29 303/30
f 301/28 303/29 304/30
f 353/28 354/29 355/30
f 353/28 355/29 356/30
f 357/28 358/29 359/30
f 357/28 359/29 360/30
f 361/28 362/29 363/30
f 361/28 363/29 364/30
f 365/28 366/29 367/30
f 365/28 367/29 368/30
f 369/28 370/29 371/30
f 369/28 371/29 372/30
f 373/28 374/29 375/30
f 373/28 375/29 376/30
f 377/28 378/29 379/30
f 377/28 379/29 380/30
f 381/28 382/29 383/30
f 381/28 383/29 384/30
f 385/28 386/29 387/30
f 385/28 387/29 388/30
f 389/28 390/29 391/30
f 389/28 391/29 392/30
f 393/28 394/29 395/30
f 393/28 395/29 396/30
f 397/28 398/29 399/30
f 397/28 399/29 400/30
f 401/28 402/29 403/30
f 401/28 403/29 404/30
f 405/28 406/29 407/30
f 405/28 407/29 408/30
f 409/28 410/29 411/30
f 409/28 411/29 412/30
f 461/28 462/29 463/30
f 461/28 463/29 464/30
f 465/28 466/29 467/30
f 465/28 467/29 468/30
f 469/28 470/29 471/30
f 469/28 471/29 472/30
f 473/28 474/29 475/30
f 473/28 475/29 476/30
f 477/28 478/29 479/30
f 477/28 479/29 480/30
f 481/28 482/29 483/30
f 481/28 483/29 484/30
f 485/28 486/29 487/30
f 485/28 487/29 488/30
f 489/28 490/29 491/30
f 489/28 491/29 492/30
f 493/28 494/29 495/30
f 493/28 495/29 496/30
f 497/28 498/29 499/30
f 497/28 499/29 500/30
f 501/28 502/29 503/30
f 501/28 503/29 504/30
f 505/28 506/29 507/30
f 505/28 507/29 508/30
f 509/28 510/29 511/30
f 509/28 511/29 512/30
f 513/28 514/29 515/30
f 513/28 515/29 516/30
f 517/28 518/29 519/30
f 517/28 519/29 520/30
f 569/28 570/29 571/30
f 569/28 571/29 572/30
f 573/28 574/29 575/30
f 573/28 575/29 576/30
f 577/28 578/29 579/30
f 577/28 579/29 580/30
f 581/28 582/29 583/30
f 581/28 583/29 584/30
f 585/28 586/29 587/30
f 585/28 587/29 588/30
f 589/28 590/29 591/30
f 589/28 591/29 592/30
f 593/28 594/29 595/30
f 593/28 595/29 596/30
f 597/28 598/29 599/30
f 597/28 599/29 600/30
f 601/28 602/29 603/30
f 601/28 603/29 604/30
f 605/28 606/29 607/30
f 605/28 607/29 608/30
f 609/28 610/29 611/30
f 609/28 611/29 612/30
f 613/28 614/29 615/30
f 613/28 615/29 616/30
f 617/28 618/29 619/30
f 617/28 619/29 620/30
f 621/28 622/29 623/30
f 621/28 623/29 624/30
f 625/28 626/29 627/30
f 625/28 627/29 628/30
f 677/28 678/29 679/30
f 677/28 679/29 680/30
f 681/28 682/29 683/30
f 681/28 683/29 684/30
f 685/28 686/29 687/30
f 685/28 687/29 688/30
f 689/28 690/29 691/30
f 689/28 691/29 692/30
f 693/28 694/29 695/30
f 693/28 695/29 696/30
f 697/28 698/29 699/30
f 697/28 699/29 700/30
f 701/28 702/29 703/30
f 701/28 703/29 704/30
f 705/28 706/29 707/30
f 705/28 707/29 708/30
f 709/28 710/29 711/30
f 709/28 711/29 712/30
f 713/28 714/29 715/30
f 713/28 715/29 716/30
f 717/28 718/29 719/30
f 717/28 719/29 720/30
f 721/28 722/29 723/30
f 721/28 723/29 724/30
f 725/28 726/29 727/30
f 725/28 727/29 728/30
f 729/28 730/29 731/30
f 729/28 731/29 732/30
f 733/28 734/29 735/30
f 733/28 735/29 736/30
g support
usemtl farm-kit
f 1/1 2/2 3/3
f 1/1 3/2 4/3
f 5/1 6/2 7/3
f 5/1 7/2 8/3
f 9/1 10/2 11/3
f 9/1 11/2 12/3
f 13/1 14/2 15/3
f 13/1 15/2 16/3
f 17/1 18/2 19/3
f 17/1 19/2 20/3
f 21/1 22/2 23/3
f 21/1 23/2 24/3
f 25/1 26/2 27/3
f 25/1 27/2 28/3
f 29/4 30/5 31/6
f 29/4 31/5 32/6
f 33/4 34/5 35/6
f 33/4 35/5 36/6
f 37/4 38/5 39/6
f 37/4 39/5 40/6
f 41/4 42/5 43/6
f 41/4 43/5 44/6
f 45/4 46/5 47/6
f 45/4 47/5 48/6
f 49/4 50/5 51/6
f 49/4 51/5 52/6
f 53/4 54/5 55/6
f 53/4 55/5 56/6
f 57/4 58/5 59/6
f 57/4 59/5 60/6
f 61/4 62/5 63/6
f 61/4 63/5 64/6
f 65/4 66/5 67/6
f 65/4 67/5 68/6
f 69/4 70/5 71/6
f 69/4 71/5 72/6
f 73/4 74/5 75/6
f 73/4 75/5 76/6
f 77/4 78/5 79/6
f 77/4 79/5 80/6
f 81/4 82/5 83/6
f 81/4 83/5 84/6
f 85/4 86/5 87/6
f 85/4 87/5 88/6
