mtllib TorusRailing_A.mtl
o TorusRailing_A
usemtl TorusStreetKit
s off
v -0.250000 0.000000 -0.020000
v -0.220000 0.000000 -0.020000
v -0.220000 0.012500 -0.020000
v -0.250000 0.012500 -0.020000
v -0.250000 0.000000 0.020000
v -0.220000 0.000000 0.020000
v -0.220000 0.012500 0.020000
v -0.250000 0.012500 0.020000
v -0.242500 0.006250 -0.007500
v -0.227500 0.006250 -0.007500
v -0.227500 0.261250 -0.007500
v -0.242500 0.261250 -0.007500
v -0.242500 0.006250 0.007500
v -0.227500 0.006250 0.007500
v -0.227500 0.261250 0.007500
v -0.242500 0.261250 0.007500
v -0.015000 0.000000 -0.020000
v 0.015000 0.000000 -0.020000
v 0.015000 0.012500 -0.020000
v -0.015000 0.012500 -0.020000
v -0.015000 0.000000 0.020000
v 0.015000 0.000000 0.020000
v 0.015000 0.012500 0.020000
v -0.015000 0.012500 0.020000
v -0.007500 0.006250 -0.007500
v 0.007500 0.006250 -0.007500
v 0.007500 0.261250 -0.007500
v -0.007500 0.261250 -0.007500
v -0.007500 0.006250 0.007500
v 0.007500 0.006250 0.007500
v 0.007500 0.261250 0.007500
v -0.007500 0.261250 0.007500
v 0.220000 0.000000 -0.020000
v 0.250000 0.000000 -0.020000
v 0.250000 0.012500 -0.020000
v 0.220000 0.012500 -0.020000
v 0.220000 0.000000 0.020000
v 0.250000 0.000000 0.020000
v 0.250000 0.012500 0.020000
v 0.220000 0.012500 0.020000
v 0.227500 0.006250 -0.007500
v 0.242500 0.006250 -0.007500
v 0.242500 0.261250 -0.007500
v 0.227500 0.261250 -0.007500
v 0.227500 0.006250 0.007500
v 0.242500 0.006250 0.007500
v 0.242500 0.261250 0.007500
v 0.227500 0.261250 0.007500
v -0.250000 0.250000 -0.009375
v 0.250000 0.250000 -0.009375
v 0.250000 0.270000 -0.009375
v -0.250000 0.270000 -0.009375
v -0.250000 0.250000 0.009375
v 0.250000 0.250000 0.009375
v 0.250000 0.270000 0.009375
v -0.250000 0.270000 0.009375
v -0.250000 0.041875 -0.009375
v 0.250000 0.041875 -0.009375
v 0.250000 0.053125 -0.009375
v -0.250000 0.053125 -0.009375
v -0.250000 0.041875 0.009375
v 0.250000 0.041875 0.009375
v 0.250000 0.053125 0.009375
v -0.250000 0.053125 0.009375
v -0.193125 0.050000 -0.003125
v -0.186875 0.050000 -0.003125
v -0.186875 0.250000 -0.003125
v -0.193125 0.250000 -0.003125
v -0.193125 0.050000 0.003125
v -0.186875 0.050000 0.003125
v -0.186875 0.250000 0.003125
v -0.193125 0.250000 0.003125
v -0.145625 0.050000 -0.003125
v -0.139375 0.050000 -0.003125
v -0.139375 0.250000 -0.003125
v -0.145625 0.250000 -0.003125
v -0.145625 0.050000 0.003125
v -0.139375 0.050000 0.003125
v -0.139375 0.250000 0.003125
v -0.145625 0.250000 0.003125
v -0.098125 0.050000 -0.003125
v -0.091875 0.050000 -0.003125
v -0.091875 0.250000 -0.003125
v -0.098125 0.250000 -0.003125
v -0.098125 0.050000 0.003125
v -0.091875 0.050000 0.003125
v -0.091875 0.250000 0.003125
v -0.098125 0.250000 0.003125
v -0.050625 0.050000 -0.003125
v -0.044375 0.050000 -0.003125
v -0.044375 0.250000 -0.003125
v -0.050625 0.250000 -0.003125
v -0.050625 0.050000 0.003125
v -0.044375 0.050000 0.003125
v -0.044375 0.250000 0.003125
v -0.050625 0.250000 0.003125
v 0.044375 0.050000 -0.003125
v 0.050625 0.050000 -0.003125
v 0.050625 0.250000 -0.003125
v 0.044375 0.250000 -0.003125
v 0.044375 0.050000 0.003125
v 0.050625 0.050000 0.003125
v 0.050625 0.250000 0.003125
v 0.044375 0.250000 0.003125
v 0.091875 0.050000 -0.003125
v 0.098125 0.050000 -0.003125
v 0.098125 0.250000 -0.003125
v 0.091875 0.250000 -0.003125
v 0.091875 0.050000 0.003125
v 0.098125 0.050000 0.003125
v 0.098125 0.250000 0.003125
v 0.091875 0.250000 0.003125
v 0.139375 0.050000 -0.003125
v 0.145625 0.050000 -0.003125
v 0.145625 0.250000 -0.003125
v 0.139375 0.250000 -0.003125
v 0.139375 0.050000 0.003125
v 0.145625 0.050000 0.003125
v 0.145625 0.250000 0.003125
v 0.139375 0.250000 0.003125
v 0.186875 0.050000 -0.003125
v 0.193125 0.050000 -0.003125
v 0.193125 0.250000 -0.003125
v 0.186875 0.250000 -0.003125
v 0.186875 0.050000 0.003125
v 0.193125 0.050000 0.003125
v 0.193125 0.250000 0.003125
v 0.186875 0.250000 0.003125
vt 0.265625 0.765625
vt 0.484375 0.765625
vt 0.484375 0.984375
vt 0.265625 0.984375
vt 0.265625 0.765625
vt 0.484375 0.765625
vt 0.484375 0.984375
vt 0.265625 0.984375
vt 0.265625 0.765625
vt 0.484375 0.765625
vt 0.484375 0.984375
vt 0.265625 0.984375
vt 0.265625 0.765625
vt 0.484375 0.765625
vt 0.484375 0.984375
vt 0.265625 0.984375
vt 0.265625 0.765625
vt 0.484375 0.765625
vt 0.484375 0.984375
vt 0.265625 0.984375
vt 0.265625 0.765625
vt 0.484375 0.765625
vt 0.484375 0.984375
vt 0.265625 0.984375
vt 0.265625 0.765625
vt 0.484375 0.765625
vt 0.484375 0.984375
vt 0.265625 0.984375
vt 0.265625 0.765625
vt 0.484375 0.765625
vt 0.484375 0.984375
vt 0.265625 0.984375
vt 0.265625 0.765625
vt 0.484375 0.765625
vt 0.484375 0.984375
vt 0.265625 0.984375
vt 0.265625 0.765625
vt 0.484375 0.765625
vt 0.484375 0.984375
vt 0.265625 0.984375
vt 0.265625 0.765625
vt 0.484375 0.765625
vt 0.484375 0.984375
vt 0.265625 0.984375
vt 0.265625 0.765625
vt 0.484375 0.765625
vt 0.484375 0.984375
vt 0.265625 0.984375
vt 0.265625 0.765625
vt 0.484375 0.765625
vt 0.484375 0.984375
vt 0.265625 0.984375
vt 0.265625 0.765625
vt 0.484375 0.765625
vt 0.484375 0.984375
vt 0.265625 0.984375
vt 0.265625 0.765625
vt 0.484375 0.765625
vt 0.484375 0.984375
vt 0.265625 0.984375
vt 0.265625 0.765625
vt 0.484375 0.765625
vt 0.484375 0.984375
vt 0.265625 0.984375
vt 0.265625 0.765625
vt 0.484375 0.765625
vt 0.484375 0.984375
vt 0.265625 0.984375
vt 0.265625 0.765625
vt 0.484375 0.765625
vt 0.484375 0.984375
vt 0.265625 0.984375
vt 0.265625 0.765625
vt 0.484375 0.765625
vt 0.484375 0.984375
vt 0.265625 0.984375
vt 0.265625 0.765625
vt 0.484375 0.765625
vt 0.484375 0.984375
vt 0.265625 0.984375
vt 0.265625 0.765625
vt 0.484375 0.765625
vt 0.484375 0.984375
vt 0.265625 0.984375
vt 0.265625 0.765625
vt 0.484375 0.765625
vt 0.484375 0.984375
vt 0.265625 0.984375
vt 0.265625 0.765625
vt 0.484375 0.765625
vt 0.484375 0.984375
vt 0.265625 0.984375
vt 0.265625 0.765625
vt 0.484375 0.765625
vt 0.484375 0.984375
vt 0.265625 0.984375
vt 0.265625 0.765625
vt 0.484375 0.765625
vt 0.484375 0.984375
vt 0.265625 0.984375
vt 0.265625 0.765625
vt 0.484375 0.765625
vt 0.484375 0.984375
vt 0.265625 0.984375
vt 0.265625 0.765625
vt 0.484375 0.765625
vt 0.484375 0.984375
vt 0.265625 0.984375
vt 0.265625 0.765625
vt 0.484375 0.765625
vt 0.484375 0.984375
vt 0.265625 0.984375
vt 0.265625 0.765625
vt 0.484375 0.765625
vt 0.484375 0.984375
vt 0.265625 0.984375
vt 0.265625 0.765625
vt 0.484375 0.765625
vt 0.484375 0.984375
vt 0.265625 0.984375
vt 0.265625 0.765625
vt 0.484375 0.765625
vt 0.484375 0.984375
vt 0.265625 0.984375
vt 0.265625 0.765625
vt 0.484375 0.765625
vt 0.484375 0.984375
vt 0.265625 0.984375
vt 0.265625 0.765625
vt 0.484375 0.765625
vt 0.484375 0.984375
vt 0.265625 0.984375
vt 0.265625 0.765625
vt 0.484375 0.765625
vt 0.484375 0.984375
vt 0.265625 0.984375
vt 0.265625 0.765625
vt 0.484375 0.765625
vt 0.484375 0.984375
vt 0.265625 0.984375
vt 0.265625 0.765625
vt 0.484375 0.765625
vt 0.484375 0.984375
vt 0.265625 0.984375
vt 0.265625 0.765625
vt 0.484375 0.765625
vt 0.484375 0.984375
vt 0.265625 0.984375
vt 0.265625 0.765625
vt 0.484375 0.765625
vt 0.484375 0.984375
vt 0.265625 0.984375
vt 0.265625 0.765625
vt 0.484375 0.765625
vt 0.484375 0.984375
vt 0.265625 0.984375
vt 0.265625 0.765625
vt 0.484375 0.765625
vt 0.484375 0.984375
vt 0.265625 0.984375
vt 0.265625 0.765625
vt 0.484375 0.765625
vt 0.484375 0.984375
vt 0.265625 0.984375
vt 0.265625 0.765625
vt 0.484375 0.765625
vt 0.484375 0.984375
vt 0.265625 0.984375
vt 0.265625 0.765625
vt 0.484375 0.765625
vt 0.484375 0.984375
vt 0.265625 0.984375
vt 0.265625 0.765625
vt 0.484375 0.765625
vt 0.484375 0.984375
vt 0.265625 0.984375
vt 0.265625 0.765625
vt 0.484375 0.765625
vt 0.484375 0.984375
vt 0.265625 0.984375
vt 0.265625 0.765625
vt 0.484375 0.765625
vt 0.484375 0.984375
vt 0.265625 0.984375
vt 0.265625 0.765625
vt 0.484375 0.765625
vt 0.484375 0.984375
vt 0.265625 0.984375
vt 0.265625 0.765625
vt 0.484375 0.765625
vt 0.484375 0.984375
vt 0.265625 0.984375
vt 0.265625 0.765625
vt 0.484375 0.765625
vt 0.484375 0.984375
vt 0.265625 0.984375
vt 0.265625 0.765625
vt 0.484375 0.765625
vt 0.484375 0.984375
vt 0.265625 0.984375
vt 0.265625 0.765625
vt 0.484375 0.765625
vt 0.484375 0.984375
vt 0.265625 0.984375
vt 0.265625 0.765625
vt 0.484375 0.765625
vt 0.484375 0.984375
vt 0.265625 0.984375
vt 0.265625 0.765625
vt 0.484375 0.765625
vt 0.484375 0.984375
vt 0.265625 0.984375
vt 0.265625 0.765625
vt 0.484375 0.765625
vt 0.484375 0.984375
vt 0.265625 0.984375
vt 0.265625 0.765625
vt 0.484375 0.765625
vt 0.484375 0.984375
vt 0.265625 0.984375
vt 0.265625 0.765625
vt 0.484375 0.765625
vt 0.484375 0.984375
vt 0.265625 0.984375
vt 0.265625 0.765625
vt 0.484375 0.765625
vt 0.484375 0.984375
vt 0.265625 0.984375
vt 0.265625 0.765625
vt 0.484375 0.765625
vt 0.484375 0.984375
vt 0.265625 0.984375
vt 0.265625 0.765625
vt 0.484375 0.765625
vt 0.484375 0.984375
vt 0.265625 0.984375
vt 0.265625 0.765625
vt 0.484375 0.765625
vt 0.484375 0.984375
vt 0.265625 0.984375
vt 0.265625 0.765625
vt 0.484375 0.765625
vt 0.484375 0.984375
vt 0.265625 0.984375
vt 0.265625 0.765625
vt 0.484375 0.765625
vt 0.484375 0.984375
vt 0.265625 0.984375
vt 0.265625 0.765625
vt 0.484375 0.765625
vt 0.484375 0.984375
vt 0.265625 0.984375
vt 0.265625 0.765625
vt 0.484375 0.765625
vt 0.484375 0.984375
vt 0.265625 0.984375
vt 0.265625 0.765625
vt 0.484375 0.765625
vt 0.484375 0.984375
vt 0.265625 0.984375
vt 0.265625 0.765625
vt 0.484375 0.765625
vt 0.484375 0.984375
vt 0.265625 0.984375
vt 0.265625 0.765625
vt 0.484375 0.765625
vt 0.484375 0.984375
vt 0.265625 0.984375
vt 0.265625 0.765625
vt 0.484375 0.765625
vt 0.484375 0.984375
vt 0.265625 0.984375
vt 0.265625 0.765625
vt 0.484375 0.765625
vt 0.484375 0.984375
vt 0.265625 0.984375
vt 0.265625 0.765625
vt 0.484375 0.765625
vt 0.484375 0.984375
vt 0.265625 0.984375
vt 0.265625 0.765625
vt 0.484375 0.765625
vt 0.484375 0.984375
vt 0.265625 0.984375
vt 0.265625 0.765625
vt 0.484375 0.765625
vt 0.484375 0.984375
vt 0.265625 0.984375
vt 0.265625 0.765625
vt 0.484375 0.765625
vt 0.484375 0.984375
vt 0.265625 0.984375
vt 0.265625 0.765625
vt 0.484375 0.765625
vt 0.484375 0.984375
vt 0.265625 0.984375
vt 0.265625 0.765625
vt 0.484375 0.765625
vt 0.484375 0.984375
vt 0.265625 0.984375
vt 0.265625 0.765625
vt 0.484375 0.765625
vt 0.484375 0.984375
vt 0.265625 0.984375
vt 0.265625 0.765625
vt 0.484375 0.765625
vt 0.484375 0.984375
vt 0.265625 0.984375
vt 0.265625 0.765625
vt 0.484375 0.765625
vt 0.484375 0.984375
vt 0.265625 0.984375
vt 0.265625 0.765625
vt 0.484375 0.765625
vt 0.484375 0.984375
vt 0.265625 0.984375
vt 0.265625 0.765625
vt 0.484375 0.765625
vt 0.484375 0.984375
vt 0.265625 0.984375
vt 0.265625 0.765625
vt 0.484375 0.765625
vt 0.484375 0.984375
vt 0.265625 0.984375
vt 0.265625 0.765625
vt 0.484375 0.765625
vt 0.484375 0.984375
vt 0.265625 0.984375
vt 0.265625 0.765625
vt 0.484375 0.765625
vt 0.484375 0.984375
vt 0.265625 0.984375
vt 0.265625 0.765625
vt 0.484375 0.765625
vt 0.484375 0.984375
vt 0.265625 0.984375
vt 0.265625 0.765625
vt 0.484375 0.765625
vt 0.484375 0.984375
vt 0.265625 0.984375
vt 0.265625 0.765625
vt 0.484375 0.765625
vt 0.484375 0.984375
vt 0.265625 0.984375
vt 0.265625 0.765625
vt 0.484375 0.765625
vt 0.484375 0.984375
vt 0.265625 0.984375
vt 0.265625 0.765625
vt 0.484375 0.765625
vt 0.484375 0.984375
vt 0.265625 0.984375
vt 0.265625 0.765625
vt 0.484375 0.765625
vt 0.484375 0.984375
vt 0.265625 0.984375
vt 0.265625 0.765625
vt 0.484375 0.765625
vt 0.484375 0.984375
vt 0.265625 0.984375
vt 0.265625 0.765625
vt 0.484375 0.765625
vt 0.484375 0.984375
vt 0.265625 0.984375
vt 0.265625 0.765625
vt 0.484375 0.765625
vt 0.484375 0.984375
vt 0.265625 0.984375
vt 0.265625 0.765625
vt 0.484375 0.765625
vt 0.484375 0.984375
vt 0.265625 0.984375
vt 0.265625 0.765625
vt 0.484375 0.765625
vt 0.484375 0.984375
vt 0.265625 0.984375
vt 0.265625 0.765625
vt 0.484375 0.765625
vt 0.484375 0.984375
vt 0.265625 0.984375
vt 0.265625 0.765625
vt 0.484375 0.765625
vt 0.484375 0.984375
vt 0.265625 0.984375
vn 0.00000000 0.00000000 -1.00000000
vn 0.00000000 0.00000000 1.00000000
vn -1.00000000 0.00000000 0.00000000
vn 1.00000000 0.00000000 0.00000000
vn 0.00000000 -1.00000000 0.00000000
vn 0.00000000 1.00000000 0.00000000
vn 0.00000000 0.00000000 -1.00000000
vn 0.00000000 0.00000000 1.00000000
vn -1.00000000 0.00000000 0.00000000
vn 1.00000000 0.00000000 0.00000000
vn 0.00000000 -1.00000000 0.00000000
vn 0.00000000 1.00000000 0.00000000
vn 0.00000000 0.00000000 -1.00000000
vn 0.00000000 0.00000000 1.00000000
vn -1.00000000 0.00000000 0.00000000
vn 1.00000000 0.00000000 0.00000000
vn 0.00000000 -1.00000000 0.00000000
vn 0.00000000 1.00000000 0.00000000
vn 0.00000000 0.00000000 -1.00000000
vn 0.00000000 0.00000000 1.00000000
vn -1.00000000 0.00000000 0.00000000
vn 1.00000000 0.00000000 0.00000000
vn 0.00000000 -1.00000000 0.00000000
vn 0.00000000 1.00000000 0.00000000
vn 0.00000000 0.00000000 -1.00000000
vn 0.00000000 0.00000000 1.00000000
vn -1.00000000 0.00000000 0.00000000
vn 1.00000000 0.00000000 0.00000000
vn 0.00000000 -1.00000000 0.00000000
vn 0.00000000 1.00000000 0.00000000
vn 0.00000000 0.00000000 -1.00000000
vn 0.00000000 0.00000000 1.00000000
vn -1.00000000 0.00000000 0.00000000
vn 1.00000000 0.00000000 0.00000000
vn 0.00000000 -1.00000000 0.00000000
vn 0.00000000 1.00000000 0.00000000
vn 0.00000000 0.00000000 -1.00000000
vn 0.00000000 0.00000000 1.00000000
vn -1.00000000 0.00000000 0.00000000
vn 1.00000000 0.00000000 0.00000000
vn 0.00000000 -1.00000000 0.00000000
vn 0.00000000 1.00000000 0.00000000
vn 0.00000000 0.00000000 -1.00000000
vn 0.00000000 0.00000000 1.00000000
vn -1.00000000 0.00000000 0.00000000
vn 1.00000000 0.00000000 0.00000000
vn 0.00000000 -1.00000000 0.00000000
vn 0.00000000 1.00000000 0.00000000
vn 0.00000000 0.00000000 -1.00000000
vn 0.00000000 0.00000000 1.00000000
vn -1.00000000 0.00000000 0.00000000
vn 1.00000000 0.00000000 0.00000000
vn 0.00000000 -1.00000000 0.00000000
vn 0.00000000 1.00000000 0.00000000
vn 0.00000000 0.00000000 -1.00000000
vn 0.00000000 0.00000000 1.00000000
vn -1.00000000 0.00000000 0.00000000
vn 1.00000000 0.00000000 0.00000000
vn 0.00000000 -1.00000000 0.00000000
vn 0.00000000 1.00000000 0.00000000
vn 0.00000000 0.00000000 -1.00000000
vn 0.00000000 0.00000000 1.00000000
vn -1.00000000 0.00000000 0.00000000
vn 1.00000000 0.00000000 0.00000000
vn 0.00000000 -1.00000000 0.00000000
vn 0.00000000 1.00000000 0.00000000
vn 0.00000000 0.00000000 -1.00000000
vn 0.00000000 0.00000000 1.00000000
vn -1.00000000 0.00000000 0.00000000
vn 1.00000000 0.00000000 0.00000000
vn 0.00000000 -1.00000000 0.00000000
vn 0.00000000 1.00000000 0.00000000
vn 0.00000000 0.00000000 -1.00000000
vn 0.00000000 0.00000000 1.00000000
vn -1.00000000 0.00000000 0.00000000
vn 1.00000000 0.00000000 0.00000000
vn 0.00000000 -1.00000000 0.00000000
vn 0.00000000 1.00000000 0.00000000
vn 0.00000000 0.00000000 -1.00000000
vn 0.00000000 0.00000000 1.00000000
vn -1.00000000 0.00000000 0.00000000
vn 1.00000000 0.00000000 0.00000000
vn 0.00000000 -1.00000000 0.00000000
vn 0.00000000 1.00000000 0.00000000
vn 0.00000000 0.00000000 -1.00000000
vn 0.00000000 0.00000000 1.00000000
vn -1.00000000 0.00000000 0.00000000
vn 1.00000000 0.00000000 0.00000000
vn 0.00000000 -1.00000000 0.00000000
vn 0.00000000 1.00000000 0.00000000
vn 0.00000000 0.00000000 -1.00000000
vn 0.00000000 0.00000000 1.00000000
vn -1.00000000 0.00000000 0.00000000
vn 1.00000000 0.00000000 0.00000000
vn 0.00000000 -1.00000000 0.00000000
vn 0.00000000 1.00000000 0.00000000
f 1/1/1 4/2/1 3/3/1
f 1/1/1 3/3/1 2/4/1
f 5/5/2 6/6/2 7/7/2
f 5/5/2 7/7/2 8/8/2
f 1/9/3 5/10/3 8/11/3
f 1/9/3 8/11/3 4/12/3
f 2/13/4 3/14/4 7/15/4
f 2/13/4 7/15/4 6/16/4
f 1/17/5 2/18/5 6/19/5
f 1/17/5 6/19/5 5/20/5
f 4/21/6 8/22/6 7/23/6
f 4/21/6 7/23/6 3/24/6
f 9/25/7 12/26/7 11/27/7
f 9/25/7 11/27/7 10/28/7
f 13/29/8 14/30/8 15/31/8
f 13/29/8 15/31/8 16/32/8
f 9/33/9 13/34/9 16/35/9
f 9/33/9 16/35/9 12/36/9
f 10/37/10 11/38/10 15/39/10
f 10/37/10 15/39/10 14/40/10
f 9/41/11 10/42/11 14/43/11
f 9/41/11 14/43/11 13/44/11
f 12/45/12 16/46/12 15/47/12
f 12/45/12 15/47/12 11/48/12
f 17/49/13 20/50/13 19/51/13
f 17/49/13 19/51/13 18/52/13
f 21/53/14 22/54/14 23/55/14
f 21/53/14 23/55/14 24/56/14
f 17/57/15 21/58/15 24/59/15
f 17/57/15 24/59/15 20/60/15
f 18/61/16 19/62/16 23/63/16
f 18/61/16 23/63/16 22/64/16
f 17/65/17 18/66/17 22/67/17
f 17/65/17 22/67/17 21/68/17
f 20/69/18 24/70/18 23/71/18
f 20/69/18 23/71/18 19/72/18
f 25/73/19 28/74/19 27/75/19
f 25/73/19 27/75/19 26/76/19
f 29/77/20 30/78/20 31/79/20
f 29/77/20 31/79/20 32/80/20
f 25/81/21 29/82/21 32/83/21
f 25/81/21 32/83/21 28/84/21
f 26/85/22 27/86/22 31/87/22
f 26/85/22 31/87/22 30/88/22
f 25/89/23 26/90/23 30/91/23
f 25/89/23 30/91/23 29/92/23
f 28/93/24 32/94/24 31/95/24
f 28/93/24 31/95/24 27/96/24
f 33/97/25 36/98/25 35/99/25
f 33/97/25 35/99/25 34/100/25
f 37/101/26 38/102/26 39/103/26
f 37/101/26 39/103/26 40/104/26
f 33/105/27 37/106/27 40/107/27
f 33/105/27 40/107/27 36/108/27
f 34/109/28 35/110/28 39/111/28
f 34/109/28 39/111/28 38/112/28
f 33/113/29 34/114/29 38/115/29
f 33/113/29 38/115/29 37/116/29
f 36/117/30 40/118/30 39/119/30
f 36/117/30 39/119/30 35/120/30
f 41/121/31 44/122/31 43/123/31
f 41/121/31 43/123/31 42/124/31
f 45/125/32 46/126/32 47/127/32
f 45/125/32 47/127/32 48/128/32
f 41/129/33 45/130/33 48/131/33
f 41/129/33 48/131/33 44/132/33
f 42/133/34 43/134/34 47/135/34
f 42/133/34 47/135/34 46/136/34
f 41/137/35 42/138/35 46/139/35
f 41/137/35 46/139/35 45/140/35
f 44/141/36 48/142/36 47/143/36
f 44/141/36 47/143/36 43/144/36
f 49/145/37 52/146/37 51/147/37
f 49/145/37 51/147/37 50/148/37
f 53/149/38 54/150/38 55/151/38
f 53/149/38 55/151/38 56/152/38
f 49/153/39 53/154/39 56/155/39
f 49/153/39 56/155/39 52/156/39
f 50/157/40 51/158/40 55/159/40
f 50/157/40 55/159/40 54/160/40
f 49/161/41 50/162/41 54/163/41
f 49/161/41 54/163/41 53/164/41
f 52/165/42 56/166/42 55/167/42
f 52/165/42 55/167/42 51/168/42
f 57/169/43 60/170/43 59/171/43
f 57/169/43 59/171/43 58/172/43
f 61/173/44 62/174/44 63/175/44
f 61/173/44 63/175/44 64/176/44
f 57/177/45 61/178/45 64/179/45
f 57/177/45 64/179/45 60/180/45
f 58/181/46 59/182/46 63/183/46
f 58/181/46 63/183/46 62/184/46
f 57/185/47 58/186/47 62/187/47
f 57/185/47 62/187/47 61/188/47
f 60/189/48 64/190/48 63/191/48
f 60/189/48 63/191/48 59/192/48
f 65/193/49 68/194/49 67/195/49
f 65/193/49 67/195/49 66/196/49
f 69/197/50 70/198/50 71/199/50
f 69/197/50 71/199/50 72/200/50
f 65/201/51 69/202/51 72/203/51
f 65/201/51 72/203/51 68/204/51
f 66/205/52 67/206/52 71/207/52
f 66/205/52 71/207/52 70/208/52
f 65/209/53 66/210/53 70/211/53
f 65/209/53 70/211/53 69/212/53
f 68/213/54 72/214/54 71/215/54
f 68/213/54 71/215/54 67/216/54
f 73/217/55 76/218/55 75/219/55
f 73/217/55 75/219/55 74/220/55
f 77/221/56 78/222/56 79/223/56
f 77/221/56 79/223/56 80/224/56
f 73/225/57 77/226/57 80/227/57
f 73/225/57 80/227/57 76/228/57
f 74/229/58 75/230/58 79/231/58
f 74/229/58 79/231/58 78/232/58
f 73/233/59 74/234/59 78/235/59
f 73/233/59 78/235/59 77/236/59
f 76/237/60 80/238/60 79/239/60
f 76/237/60 79/239/60 75/240/60
f 81/241/61 84/242/61 83/243/61
f 81/241/61 83/243/61 82/244/61
f 85/245/62 86/246/62 87/247/62
f 85/245/62 87/247/62 88/248/62
f 81/249/63 85/250/63 88/251/63
f 81/249/63 88/251/63 84/252/63
f 82/253/64 83/254/64 87/255/64
f 82/253/64 87/255/64 86/256/64
f 81/257/65 82/258/65 86/259/65
f 81/257/65 86/259/65 85/260/65
f 84/261/66 88/262/66 87/263/66
f 84/261/66 87/263/66 83/264/66
f 89/265/67 92/266/67 91/267/67
f 89/265/67 91/267/67 90/268/67
f 93/269/68 94/270/68 95/271/68
f 93/269/68 95/271/68 96/272/68
f 89/273/69 93/274/69 96/275/69
f 89/273/69 96/275/69 92/276/69
f 90/277/70 91/278/70 95/279/70
f 90/277/70 95/279/70 94/280/70
f 89/281/71 90/282/71 94/283/71
f 89/281/71 94/283/71 93/284/71
f 92/285/72 96/286/72 95/287/72
f 92/285/72 95/287/72 91/288/72
f 97/289/73 100/290/73 99/291/73
f 97/289/73 99/291/73 98/292/73
f 101/293/74 102/294/74 103/295/74
f 101/293/74 103/295/74 104/296/74
f 97/297/75 101/298/75 104/299/75
f 97/297/75 104/299/75 100/300/75
f 98/301/76 99/302/76 103/303/76
f 98/301/76 103/303/76 102/304/76
f 97/305/77 98/306/77 102/307/77
f 97/305/77 102/307/77 101/308/77
f 100/309/78 104/310/78 103/311/78
f 100/309/78 103/311/78 99/312/78
f 105/313/79 108/314/79 107/315/79
f 105/313/79 107/315/79 106/316/79
f 109/317/80 110/318/80 111/319/80
f 109/317/80 111/319/80 112/320/80
f 105/321/81 109/322/81 112/323/81
f 105/321/81 112/323/81 108/324/81
f 106/325/82 107/326/82 111/327/82
f 106/325/82 111/327/82 110/328/82
f 105/329/83 106/330/83 110/331/83
f 105/329/83 110/331/83 109/332/83
f 108/333/84 112/334/84 111/335/84
f 108/333/84 111/335/84 107/336/84
f 113/337/85 116/338/85 115/339/85
f 113/337/85 115/339/85 114/340/85
f 117/341/86 118/342/86 119/343/86
f 117/341/86 119/343/86 120/344/86
f 113/345/87 117/346/87 120/347/87
f 113/345/87 120/347/87 116/348/87
f 114/349/88 115/350/88 119/351/88
f 114/349/88 119/351/88 118/352/88
f 113/353/89 114/354/89 118/355/89
f 113/353/89 118/355/89 117/356/89
f 116/357/90 120/358/90 119/359/90
f 116/357/90 119/359/90 115/360/90
f 121/361/91 124/362/91 123/363/91
f 121/361/91 123/363/91 122/364/91
f 125/365/92 126/366/92 127/367/92
f 125/365/92 127/367/92 128/368/92
f 121/369/93 125/370/93 128/371/93
f 121/369/93 128/371/93 124/372/93
f 122/373/94 123/374/94 127/375/94
f 122/373/94 127/375/94 126/376/94
f 121/377/95 122/378/95 126/379/95
f 121/377/95 126/379/95 125/380/95
f 124/381/96 128/382/96 127/383/96
f 124/381/96 127/383/96 123/384/96
