mtllib TorusSettlementFarm_Corn.mtl
v -7.2485250 0.1266437 3.7500000
v -5.1780339 0.0646174 3.7500000
v -5.1780339 0.0646174 -3.7500000
v -7.2485250 0.1266437 -3.7500000
v -5.1780339 0.0646174 3.7500000
v -3.1070267 0.0232630 3.7500000
v -3.1070267 0.0232630 -3.7500000
v -5.1780339 0.0646174 -3.7500000
v -3.1070267 0.0232630 3.7500000
v -1.0357100 0.0025848 3.7500000
v -1.0357100 0.0025848 -3.7500000
v -3.1070267 0.0232630 -3.7500000
v -1.0357100 0.0025848 3.7500000
v 1.0357100 0.0025848 3.7500000
v 1.0357100 0.0025848 -3.7500000
v -1.0357100 0.0025848 -3.7500000
v 1.0357100 0.0025848 3.7500000
v 3.1070267 0.0232630 3.7500000
v 3.1070267 0.0232630 -3.7500000
v 1.0357100 0.0025848 -3.7500000
v 3.1070267 0.0232630 3.7500000
v 5.1780339 0.0646174 3.7500000
v 5.1780339 0.0646174 -3.7500000
v 3.1070267 0.0232630 -3.7500000
v 5.1780339 0.0646174 3.7500000
v 7.2485250 0.1266437 3.7500000
v 7.2485250 0.1266437 -3.7500000
v 5.1780339 0.0646174 -3.7500000
v -7.2480883 0.1391361 -3.4000000
v -5.1777219 0.0771135 -3.4000000
v -5.1777219 0.0771135 -3.7500000
v -7.2480883 0.1391361 -3.7500000
v -5.1777219 0.0771135 -3.4000000
v -3.1068396 0.0357616 -3.4000000
v -3.1068396 0.0357616 -3.7500000
v -5.1777219 0.0771135 -3.7500000
v -3.1068396 0.0357616 -3.4000000
v -1.0356476 0.0150847 -3.4000000
v -1.0356476 0.0150847 -3.7500000
v -3.1068396 0.0357616 -3.7500000
v -1.0356476 0.0150847 -3.4000000
v 1.0356476 0.0150847 -3.4000000
v 1.0356476 0.0150847 -3.7500000
v -1.0356476 0.0150847 -3.7500000
v 1.0356476 0.0150847 -3.4000000
v 3.1068396 0.0357616 -3.4000000
v 3.1068396 0.0357616 -3.7500000
v 1.0356476 0.0150847 -3.7500000
v 3.1068396 0.0357616 -3.4000000
v 5.1777219 0.0771135 -3.4000000
v 5.1777219 0.0771135 -3.7500000
v 3.1068396 0.0357616 -3.7500000
v 5.1777219 0.0771135 -3.4000000
v 7.2480883 0.1391361 -3.4000000
v 7.2480883 0.1391361 -3.7500000
v 5.1777219 0.0771135 -3.7500000
v -7.2480883 0.1391361 3.7500000
v -5.1777219 0.0771135 3.7500000
v -5.1777219 0.0771135 3.4000000
v -7.2480883 0.1391361 3.4000000
v -5.1777219 0.0771135 3.7500000
v -3.1068396 0.0357616 3.7500000
v -3.1068396 0.0357616 3.4000000
v -5.1777219 0.0771135 3.4000000
v -3.1068396 0.0357616 3.7500000
v -1.0356476 0.0150847 3.7500000
v -1.0356476 0.0150847 3.4000000
v -3.1068396 0.0357616 3.4000000
v -1.0356476 0.0150847 3.7500000
v 1.0356476 0.0150847 3.7500000
v 1.0356476 0.0150847 3.4000000
v -1.0356476 0.0150847 3.4000000
v 1.0356476 0.0150847 3.7500000
v 3.1068396 0.0357616 3.7500000
v 3.1068396 0.0357616 3.4000000
v 1.0356476 0.0150847 3.4000000
v 3.1068396 0.0357616 3.7500000
v 5.1777219 0.0771135 3.7500000
v 5.1777219 0.0771135 3.4000000
v 3.1068396 0.0357616 3.4000000
v 5.1777219 0.0771135 3.7500000
v 7.2480883 0.1391361 3.7500000
v 7.2480883 0.1391361 3.4000000
v 5.1777219 0.0771135 3.4000000
v -0.2999818 0.0127169 3.7500000
v 0.2999818 0.0127169 3.7500000
v 0.2999818 0.0127169 -3.7500000
v -0.2999818 0.0127169 -3.7500000
v -6.8912479 0.3395879 -3.2348571
v -4.7028243 0.2783576 -3.2348571
v -4.7065113 0.1158995 -3.4000000
v -6.8966505 0.1771778 -3.4000000
v -6.8966505 0.1771778 -3.0697143
v -4.7065113 0.1158995 -3.0697143
v -4.7028243 0.2783576 -3.2348571
v -6.8912479 0.3395879 -3.2348571
v -4.7028243 0.2783576 -3.2348571
v -2.5138761 0.2402450 -3.2348571
v -2.5158470 0.0777569 -3.4000000
v -4.7065113 0.1158995 -3.4000000
v -4.7065113 0.1158995 -3.0697143
v -2.5158470 0.0777569 -3.0697143
v -2.5138761 0.2402450 -3.2348571
v -4.7028243 0.2783576 -3.2348571
v -2.5138761 0.2402450 -3.2348571
v -0.3246475 0.2252542 -3.2348571
v -0.3249020 0.0627544 -3.4000000
v -2.5158470 0.0777569 -3.4000000
v -2.5158470 0.0777569 -3.0697143
v -0.3249020 0.0627544 -3.0697143
v -0.3246475 0.2252542 -3.2348571
v -2.5138761 0.2402450 -3.2348571
v 0.3246475 0.2252542 -3.2348571
v 2.5138761 0.2402450 -3.2348571
v 2.5158470 0.0777569 -3.4000000
v 0.3249020 0.0627544 -3.4000000
v 0.3249020 0.0627544 -3.0697143
v 2.5158470 0.0777569 -3.0697143
v 2.5138761 0.2402450 -3.2348571
v 0.3246475 0.2252542 -3.2348571
v 2.5138761 0.2402450 -3.2348571
v 4.7028243 0.2783576 -3.2348571
v 4.7065113 0.1158995 -3.4000000
v 2.5158470 0.0777569 -3.4000000
v 2.5158470 0.0777569 -3.0697143
v 4.7065113 0.1158995 -3.0697143
v 4.7028243 0.2783576 -3.2348571
v 2.5138761 0.2402450 -3.2348571
v 4.7028243 0.2783576 -3.2348571
v 6.8912479 0.3395879 -3.2348571
v 6.8966505 0.1771778 -3.4000000
v 4.7065113 0.1158995 -3.4000000
v 4.7065113 0.1158995 -3.0697143
v 6.8966505 0.1771778 -3.0697143
v 6.8912479 0.3395879 -3.2348571
v 4.7028243 0.2783576 -3.2348571
v -6.8912479 0.3395879 -2.7491429
v -4.7028243 0.2783576 -2.7491429
v -4.7065113 0.1158995 -2.9142857
v -6.8966505 0.1771778 -2.9142857
v -6.8966505 0.1771778 -2.5840000
v -4.7065113 0.1158995 -2.5840000
v -4.7028243 0.2783576 -2.7491429
v -6.8912479 0.3395879 -2.7491429
v -4.7028243 0.2783576 -2.7491429
v -2.5138761 0.2402450 -2.7491429
v -2.5158470 0.0777569 -2.9142857
v -4.7065113 0.1158995 -2.9142857
v -4.7065113 0.1158995 -2.5840000
v -2.5158470 0.0777569 -2.5840000
v -2.5138761 0.2402450 -2.7491429
v -4.7028243 0.2783576 -2.7491429
v -2.5138761 0.2402450 -2.7491429
v -0.3246475 0.2252542 -2.7491429
v -0.3249020 0.0627544 -2.9142857
v -2.5158470 0.0777569 -2.9142857
v -2.5158470 0.0777569 -2.5840000
v -0.3249020 0.0627544 -2.5840000
v -0.3246475 0.2252542 -2.7491429
v -2.5138761 0.2402450 -2.7491429
v 0.3246475 0.2252542 -2.7491429
v 2.5138761 0.2402450 -2.7491429
v 2.5158470 0.0777569 -2.9142857
v 0.3249020 0.0627544 -2.9142857
v 0.3249020 0.0627544 -2.5840000
v 2.5158470 0.0777569 -2.5840000
v 2.5138761 0.2402450 -2.7491429
v 0.3246475 0.2252542 -2.7491429
v 2.5138761 0.2402450 -2.7491429
v 4.7028243 0.2783576 -2.7491429
v 4.7065113 0.1158995 -2.9142857
v 2.5158470 0.0777569 -2.9142857
v 2.5158470 0.0777569 -2.5840000
v 4.7065113 0.1158995 -2.5840000
v 4.7028243 0.2783576 -2.7491429
v 2.5138761 0.2402450 -2.7491429
v 4.7028243 0.2783576 -2.7491429
v 6.8912479 0.3395879 -2.7491429
v 6.8966505 0.1771778 -2.9142857
v 4.7065113 0.1158995 -2.9142857
v 4.7065113 0.1158995 -2.5840000
v 6.8966505 0.1771778 -2.5840000
v 6.8912479 0.3395879 -2.7491429
v 4.7028243 0.2783576 -2.7491429
v -6.8912479 0.3395879 -2.2634286
v -4.7028243 0.2783576 -2.2634286
v -4.7065113 0.1158995 -2.4285714
v -6.8966505 0.1771778 -2.4285714
v -6.8966505 0.1771778 -2.0982857
v -4.7065113 0.1158995 -2.0982857
v -4.7028243 0.2783576 -2.2634286
v -6.8912479 0.3395879 -2.2634286
v -4.7028243 0.2783576 -2.2634286
v -2.5138761 0.2402450 -2.2634286
v -2.5158470 0.0777569 -2.4285714
v -4.7065113 0.1158995 -2.4285714
v -4.7065113 0.1158995 -2.0982857
v -2.5158470 0.0777569 -2.0982857
v -2.5138761 0.2402450 -2.2634286
v -4.7028243 0.2783576 -2.2634286
v -2.5138761 0.2402450 -2.2634286
v -0.3246475 0.2252542 -2.2634286
v -0.3249020 0.0627544 -2.4285714
v -2.5158470 0.0777569 -2.4285714
v -2.5158470 0.0777569 -2.0982857
v -0.3249020 0.0627544 -2.0982857
v -0.3246475 0.2252542 -2.2634286
v -2.5138761 0.2402450 -2.2634286
v 0.3246475 0.2252542 -2.2634286
v 2.5138761 0.2402450 -2.2634286
v 2.5158470 0.0777569 -2.4285714
v 0.3249020 0.0627544 -2.4285714
v 0.3249020 0.0627544 -2.0982857
v 2.5158470 0.0777569 -2.0982857
v 2.5138761 0.2402450 -2.2634286
v 0.3246475 0.2252542 -2.2634286
v 2.5138761 0.2402450 -2.2634286
v 4.7028243 0.2783576 -2.2634286
v 4.7065113 0.1158995 -2.4285714
v 2.5158470 0.0777569 -2.4285714
v 2.5158470 0.0777569 -2.0982857
v 4.7065113 0.1158995 -2.0982857
v 4.7028243 0.2783576 -2.2634286
v 2.5138761 0.2402450 -2.2634286
v 4.7028243 0.2783576 -2.2634286
v 6.8912479 0.3395879 -2.2634286
v 6.8966505 0.1771778 -2.4285714
v 4.7065113 0.1158995 -2.4285714
v 4.7065113 0.1158995 -2.0982857
v 6.8966505 0.1771778 -2.0982857
v 6.8912479 0.3395879 -2.2634286
v 4.7028243 0.2783576 -2.2634286
v -6.8912479 0.3395879 -1.7777143
v -4.7028243 0.2783576 -1.7777143
v -4.7065113 0.1158995 -1.9428571
v -6.8966505 0.1771778 -1.9428571
v -6.8966505 0.1771778 -1.6125714
v -4.7065113 0.1158995 -1.6125714
v -4.7028243 0.2783576 -1.7777143
v -6.8912479 0.3395879 -1.7777143
v -4.7028243 0.2783576 -1.7777143
v -2.5138761 0.2402450 -1.7777143
v -2.5158470 0.0777569 -1.9428571
v -4.7065113 0.1158995 -1.9428571
v -4.7065113 0.1158995 -1.6125714
v -2.5158470 0.0777569 -1.6125714
v -2.5138761 0.2402450 -1.7777143
v -4.7028243 0.2783576 -1.7777143
v -2.5138761 0.2402450 -1.7777143
v -0.3246475 0.2252542 -1.7777143
v -0.3249020 0.0627544 -1.9428571
v -2.5158470 0.0777569 -1.9428571
v -2.5158470 0.0777569 -1.6125714
v -0.3249020 0.0627544 -1.6125714
v -0.3246475 0.2252542 -1.7777143
v -2.5138761 0.2402450 -1.7777143
v 0.3246475 0.2252542 -1.7777143
v 2.5138761 0.2402450 -1.7777143
v 2.5158470 0.0777569 -1.9428571
v 0.3249020 0.0627544 -1.9428571
v 0.3249020 0.0627544 -1.6125714
v 2.5158470 0.0777569 -1.6125714
v 2.5138761 0.2402450 -1.7777143
v 0.3246475 0.2252542 -1.7777143
v 2.5138761 0.2402450 -1.7777143
v 4.7028243 0.2783576 -1.7777143
v 4.7065113 0.1158995 -1.9428571
v 2.5158470 0.0777569 -1.9428571
v 2.5158470 0.0777569 -1.6125714
v 4.7065113 0.1158995 -1.6125714
v 4.7028243 0.2783576 -1.7777143
v 2.5138761 0.2402450 -1.7777143
v 4.7028243 0.2783576 -1.7777143
v 6.8912479 0.3395879 -1.7777143
v 6.8966505 0.1771778 -1.9428571
v 4.7065113 0.1158995 -1.9428571
v 4.7065113 0.1158995 -1.6125714
v 6.8966505 0.1771778 -1.6125714
v 6.8912479 0.3395879 -1.7777143
v 4.7028243 0.2783576 -1.7777143
v -6.8912479 0.3395879 -1.2920000
v -4.7028243 0.2783576 -1.2920000
v -4.7065113 0.1158995 -1.4571429
v -6.8966505 0.1771778 -1.4571429
v -6.8966505 0.1771778 -1.1268571
v -4.7065113 0.1158995 -1.1268571
v -4.7028243 0.2783576 -1.2920000
v -6.8912479 0.3395879 -1.2920000
v -4.7028243 0.2783576 -1.2920000
v -2.5138761 0.2402450 -1.2920000
v -2.5158470 0.0777569 -1.4571429
v -4.7065113 0.1158995 -1.4571429
v -4.7065113 0.1158995 -1.1268571
v -2.5158470 0.0777569 -1.1268571
v -2.5138761 0.2402450 -1.2920000
v -4.7028243 0.2783576 -1.2920000
v -2.5138761 0.2402450 -1.2920000
v -0.3246475 0.2252542 -1.2920000
v -0.3249020 0.0627544 -1.4571429
v -2.5158470 0.0777569 -1.4571429
v -2.5158470 0.0777569 -1.1268571
v -0.3249020 0.0627544 -1.1268571
v -0.3246475 0.2252542 -1.2920000
v -2.5138761 0.2402450 -1.2920000
v 0.3246475 0.2252542 -1.2920000
v 2.5138761 0.2402450 -1.2920000
v 2.5158470 0.0777569 -1.4571429
v 0.3249020 0.0627544 -1.4571429
v 0.3249020 0.0627544 -1.1268571
v 2.5158470 0.0777569 -1.1268571
v 2.5138761 0.2402450 -1.2920000
v 0.3246475 0.2252542 -1.2920000
v 2.5138761 0.2402450 -1.2920000
v 4.7028243 0.2783576 -1.2920000
v 4.7065113 0.1158995 -1.4571429
v 2.5158470 0.0777569 -1.4571429
v 2.5158470 0.0777569 -1.1268571
v 4.7065113 0.1158995 -1.1268571
v 4.7028243 0.2783576 -1.2920000
v 2.5138761 0.2402450 -1.2920000
v 4.7028243 0.2783576 -1.2920000
v 6.8912479 0.3395879 -1.2920000
v 6.8966505 0.1771778 -1.4571429
v 4.7065113 0.1158995 -1.4571429
v 4.7065113 0.1158995 -1.1268571
v 6.8966505 0.1771778 -1.1268571
v 6.8912479 0.3395879 -1.2920000
v 4.7028243 0.2783576 -1.2920000
v -6.8912479 0.3395879 -0.8062857
v -4.7028243 0.2783576 -0.8062857
v -4.7065113 0.1158995 -0.9714286
v -6.8966505 0.1771778 -0.9714286
v -6.8966505 0.1771778 -0.6411429
v -4.7065113 0.1158995 -0.6411429
v -4.7028243 0.2783576 -0.8062857
v -6.8912479 0.3395879 -0.8062857
v -4.7028243 0.2783576 -0.8062857
v -2.5138761 0.2402450 -0.8062857
v -2.5158470 0.0777569 -0.9714286
v -4.7065113 0.1158995 -0.9714286
v -4.7065113 0.1158995 -0.6411429
v -2.5158470 0.0777569 -0.6411429
v -2.5138761 0.2402450 -0.8062857
v -4.7028243 0.2783576 -0.8062857
v -2.5138761 0.2402450 -0.8062857
v -0.3246475 0.2252542 -0.8062857
v -0.3249020 0.0627544 -0.9714286
v -2.5158470 0.0777569 -0.9714286
v -2.5158470 0.0777569 -0.6411429
v -0.3249020 0.0627544 -0.6411429
v -0.3246475 0.2252542 -0.8062857
v -2.5138761 0.2402450 -0.8062857
v 0.3246475 0.2252542 -0.8062857
v 2.5138761 0.2402450 -0.8062857
v 2.5158470 0.0777569 -0.9714286
v 0.3249020 0.0627544 -0.9714286
v 0.3249020 0.0627544 -0.6411429
v 2.5158470 0.0777569 -0.6411429
v 2.5138761 0.2402450 -0.8062857
v 0.3246475 0.2252542 -0.8062857
v 2.5138761 0.2402450 -0.8062857
v 4.7028243 0.2783576 -0.8062857
v 4.7065113 0.1158995 -0.9714286
v 2.5158470 0.0777569 -0.9714286
v 2.5158470 0.0777569 -0.6411429
v 4.7065113 0.1158995 -0.6411429
v 4.7028243 0.2783576 -0.8062857
v 2.5138761 0.2402450 -0.8062857
v 4.7028243 0.2783576 -0.8062857
v 6.8912479 0.3395879 -0.8062857
v 6.8966505 0.1771778 -0.9714286
v 4.7065113 0.1158995 -0.9714286
v 4.7065113 0.1158995 -0.6411429
v 6.8966505 0.1771778 -0.6411429
v 6.8912479 0.3395879 -0.8062857
v 4.7028243 0.2783576 -0.8062857
v -6.8912479 0.3395879 -0.3205714
v -4.7028243 0.2783576 -0.3205714
v -4.7065113 0.1158995 -0.4857143
v -6.8966505 0.1771778 -0.4857143
v -6.8966505 0.1771778 -0.1554286
v -4.7065113 0.1158995 -0.1554286
v -4.7028243 0.2783576 -0.3205714
v -6.8912479 0.3395879 -0.3205714
v -4.7028243 0.2783576 -0.3205714
v -2.5138761 0.2402450 -0.3205714
v -2.5158470 0.0777569 -0.4857143
v -4.7065113 0.1158995 -0.4857143
v -4.7065113 0.1158995 -0.1554286
v -2.5158470 0.0777569 -0.1554286
v -2.5138761 0.2402450 -0.3205714
v -4.7028243 0.2783576 -0.3205714
v -2.5138761 0.2402450 -0.3205714
v -0.3246475 0.2252542 -0.3205714
v -0.3249020 0.0627544 -0.4857143
v -2.5158470 0.0777569 -0.4857143
v -2.5158470 0.0777569 -0.1554286
v -0.3249020 0.0627544 -0.1554286
v -0.3246475 0.2252542 -0.3205714
v -2.5138761 0.2402450 -0.3205714
v 0.3246475 0.2252542 -0.3205714
v 2.5138761 0.2402450 -0.3205714
v 2.5158470 0.0777569 -0.4857143
v 0.3249020 0.0627544 -0.4857143
v 0.3249020 0.0627544 -0.1554286
v 2.5158470 0.0777569 -0.1554286
v 2.5138761 0.2402450 -0.3205714
v 0.3246475 0.2252542 -0.3205714
v 2.5138761 0.2402450 -0.3205714
v 4.7028243 0.2783576 -0.3205714
v 4.7065113 0.1158995 -0.4857143
v 2.5158470 0.0777569 -0.4857143
v 2.5158470 0.0777569 -0.1554286
v 4.7065113 0.1158995 -0.1554286
v 4.7028243 0.2783576 -0.3205714
v 2.5138761 0.2402450 -0.3205714
v 4.7028243 0.2783576 -0.3205714
v 6.8912479 0.3395879 -0.3205714
v 6.8966505 0.1771778 -0.4857143
v 4.7065113 0.1158995 -0.4857143
v 4.7065113 0.1158995 -0.1554286
v 6.8966505 0.1771778 -0.1554286
v 6.8912479 0.3395879 -0.3205714
v 4.7028243 0.2783576 -0.3205714
v -6.8912479 0.3395879 0.1651429
v -4.7028243 0.2783576 0.1651429
v -4.7065113 0.1158995 0.0000000
v -6.8966505 0.1771778 0.0000000
v -6.8966505 0.1771778 0.3302857
v -4.7065113 0.1158995 0.3302857
v -4.7028243 0.2783576 0.1651429
v -6.8912479 0.3395879 0.1651429
v -4.7028243 0.2783576 0.1651429
v -2.5138761 0.2402450 0.1651429
v -2.5158470 0.0777569 0.0000000
v -4.7065113 0.1158995 0.0000000
v -4.7065113 0.1158995 0.3302857
v -2.5158470 0.0777569 0.3302857
v -2.5138761 0.2402450 0.1651429
v -4.7028243 0.2783576 0.1651429
v -2.5138761 0.2402450 0.1651429
v -0.3246475 0.2252542 0.1651429
v -0.3249020 0.0627544 0.0000000
v -2.5158470 0.0777569 0.0000000
v -2.5158470 0.0777569 0.3302857
v -0.3249020 0.0627544 0.3302857
v -0.3246475 0.2252542 0.1651429
v -2.5138761 0.2402450 0.1651429
v 0.3246475 0.2252542 0.1651429
v 2.5138761 0.2402450 0.1651429
v 2.5158470 0.0777569 0.0000000
v 0.3249020 0.0627544 0.0000000
v 0.3249020 0.0627544 0.3302857
v 2.5158470 0.0777569 0.3302857
v 2.5138761 0.2402450 0.1651429
v 0.3246475 0.2252542 0.1651429
v 2.5138761 0.2402450 0.1651429
v 4.7028243 0.2783576 0.1651429
v 4.7065113 0.1158995 0.0000000
v 2.5158470 0.0777569 0.0000000
v 2.5158470 0.0777569 0.3302857
v 4.7065113 0.1158995 0.3302857
v 4.7028243 0.2783576 0.1651429
v 2.5138761 0.2402450 0.1651429
v 4.7028243 0.2783576 0.1651429
v 6.8912479 0.3395879 0.1651429
v 6.8966505 0.1771778 0.0000000
v 4.7065113 0.1158995 0.0000000
v 4.7065113 0.1158995 0.3302857
v 6.8966505 0.1771778 0.3302857
v 6.8912479 0.3395879 0.1651429
v 4.7028243 0.2783576 0.1651429
v -6.8912479 0.3395879 0.6508571
v -4.7028243 0.2783576 0.6508571
v -4.7065113 0.1158995 0.4857143
v -6.8966505 0.1771778 0.4857143
v -6.8966505 0.1771778 0.8160000
v -4.7065113 0.1158995 0.8160000
v -4.7028243 0.2783576 0.6508571
v -6.8912479 0.3395879 0.6508571
v -4.7028243 0.2783576 0.6508571
v -2.5138761 0.2402450 0.6508571
v -2.5158470 0.0777569 0.4857143
v -4.7065113 0.1158995 0.4857143
v -4.7065113 0.1158995 0.8160000
v -2.5158470 0.0777569 0.8160000
v -2.5138761 0.2402450 0.6508571
v -4.7028243 0.2783576 0.6508571
v -2.5138761 0.2402450 0.6508571
v -0.3246475 0.2252542 0.6508571
v -0.3249020 0.0627544 0.4857143
v -2.5158470 0.0777569 0.4857143
v -2.5158470 0.0777569 0.8160000
v -0.3249020 0.0627544 0.8160000
v -0.3246475 0.2252542 0.6508571
v -2.5138761 0.2402450 0.6508571
v 0.3246475 0.2252542 0.6508571
v 2.5138761 0.2402450 0.6508571
v 2.5158470 0.0777569 0.4857143
v 0.3249020 0.0627544 0.4857143
v 0.3249020 0.0627544 0.8160000
v 2.5158470 0.0777569 0.8160000
v 2.5138761 0.2402450 0.6508571
v 0.3246475 0.2252542 0.6508571
v 2.5138761 0.2402450 0.6508571
v 4.7028243 0.2783576 0.6508571
v 4.7065113 0.1158995 0.4857143
v 2.5158470 0.0777569 0.4857143
v 2.5158470 0.0777569 0.8160000
v 4.7065113 0.1158995 0.8160000
v 4.7028243 0.2783576 0.6508571
v 2.5138761 0.2402450 0.6508571
v 4.7028243 0.2783576 0.6508571
v 6.8912479 0.3395879 0.6508571
v 6.8966505 0.1771778 0.4857143
v 4.7065113 0.1158995 0.4857143
v 4.7065113 0.1158995 0.8160000
v 6.8966505 0.1771778 0.8160000
v 6.8912479 0.3395879 0.6508571
v 4.7028243 0.2783576 0.6508571
v -6.8912479 0.3395879 1.1365714
v -4.7028243 0.2783576 1.1365714
v -4.7065113 0.1158995 0.9714286
v -6.8966505 0.1771778 0.9714286
v -6.8966505 0.1771778 1.3017143
v -4.7065113 0.1158995 1.3017143
v -4.7028243 0.2783576 1.1365714
v -6.8912479 0.3395879 1.1365714
v -4.7028243 0.2783576 1.1365714
v -2.5138761 0.2402450 1.1365714
v -2.5158470 0.0777569 0.9714286
v -4.7065113 0.1158995 0.9714286
v -4.7065113 0.1158995 1.3017143
v -2.5158470 0.0777569 1.3017143
v -2.5138761 0.2402450 1.1365714
v -4.7028243 0.2783576 1.1365714
v -2.5138761 0.2402450 1.1365714
v -0.3246475 0.2252542 1.1365714
v -0.3249020 0.0627544 0.9714286
v -2.5158470 0.0777569 0.9714286
v -2.5158470 0.0777569 1.3017143
v -0.3249020 0.0627544 1.3017143
v -0.3246475 0.2252542 1.1365714
v -2.5138761 0.2402450 1.1365714
v 0.3246475 0.2252542 1.1365714
v 2.5138761 0.2402450 1.1365714
v 2.5158470 0.0777569 0.9714286
v 0.3249020 0.0627544 0.9714286
v 0.3249020 0.0627544 1.3017143
v 2.5158470 0.0777569 1.3017143
v 2.5138761 0.2402450 1.1365714
v 0.3246475 0.2252542 1.1365714
v 2.5138761 0.2402450 1.1365714
v 4.7028243 0.2783576 1.1365714
v 4.7065113 0.1158995 0.9714286
v 2.5158470 0.0777569 0.9714286
v 2.5158470 0.0777569 1.3017143
v 4.7065113 0.1158995 1.3017143
v 4.7028243 0.2783576 1.1365714
v 2.5138761 0.2402450 1.1365714
v 4.7028243 0.2783576 1.1365714
v 6.8912479 0.3395879 1.1365714
v 6.8966505 0.1771778 0.9714286
v 4.7065113 0.1158995 0.9714286
v 4.7065113 0.1158995 1.3017143
v 6.8966505 0.1771778 1.3017143
v 6.8912479 0.3395879 1.1365714
v 4.7028243 0.2783576 1.1365714
v -6.8912479 0.3395879 1.6222857
v -4.7028243 0.2783576 1.6222857
v -4.7065113 0.1158995 1.4571429
v -6.8966505 0.1771778 1.4571429
v -6.8966505 0.1771778 1.7874286
v -4.7065113 0.1158995 1.7874286
v -4.7028243 0.2783576 1.6222857
v -6.8912479 0.3395879 1.6222857
v -4.7028243 0.2783576 1.6222857
v -2.5138761 0.2402450 1.6222857
v -2.5158470 0.0777569 1.4571429
v -4.7065113 0.1158995 1.4571429
v -4.7065113 0.1158995 1.7874286
v -2.5158470 0.0777569 1.7874286
v -2.5138761 0.2402450 1.6222857
v -4.7028243 0.2783576 1.6222857
v -2.5138761 0.2402450 1.6222857
v -0.3246475 0.2252542 1.6222857
v -0.3249020 0.0627544 1.4571429
v -2.5158470 0.0777569 1.4571429
v -2.5158470 0.0777569 1.7874286
v -0.3249020 0.0627544 1.7874286
v -0.3246475 0.2252542 1.6222857
v -2.5138761 0.2402450 1.6222857
v 0.3246475 0.2252542 1.6222857
v 2.5138761 0.2402450 1.6222857
v 2.5158470 0.0777569 1.4571429
v 0.3249020 0.0627544 1.4571429
v 0.3249020 0.0627544 1.7874286
v 2.5158470 0.0777569 1.7874286
v 2.5138761 0.2402450 1.6222857
v 0.3246475 0.2252542 1.6222857
v 2.5138761 0.2402450 1.6222857
v 4.7028243 0.2783576 1.6222857
v 4.7065113 0.1158995 1.4571429
v 2.5158470 0.0777569 1.4571429
v 2.5158470 0.0777569 1.7874286
v 4.7065113 0.1158995 1.7874286
v 4.7028243 0.2783576 1.6222857
v 2.5138761 0.2402450 1.6222857
v 4.7028243 0.2783576 1.6222857
v 6.8912479 0.3395879 1.6222857
v 6.8966505 0.1771778 1.4571429
v 4.7065113 0.1158995 1.4571429
v 4.7065113 0.1158995 1.7874286
v 6.8966505 0.1771778 1.7874286
v 6.8912479 0.3395879 1.6222857
v 4.7028243 0.2783576 1.6222857
v -6.8912479 0.3395879 2.1080000
v -4.7028243 0.2783576 2.1080000
v -4.7065113 0.1158995 1.9428571
v -6.8966505 0.1771778 1.9428571
v -6.8966505 0.1771778 2.2731429
v -4.7065113 0.1158995 2.2731429
v -4.7028243 0.2783576 2.1080000
v -6.8912479 0.3395879 2.1080000
v -4.7028243 0.2783576 2.1080000
v -2.5138761 0.2402450 2.1080000
v -2.5158470 0.0777569 1.9428571
v -4.7065113 0.1158995 1.9428571
v -4.7065113 0.1158995 2.2731429
v -2.5158470 0.0777569 2.2731429
v -2.5138761 0.2402450 2.1080000
v -4.7028243 0.2783576 2.1080000
v -2.5138761 0.2402450 2.1080000
v -0.3246475 0.2252542 2.1080000
v -0.3249020 0.0627544 1.9428571
v -2.5158470 0.0777569 1.9428571
v -2.5158470 0.0777569 2.2731429
v -0.3249020 0.0627544 2.2731429
v -0.3246475 0.2252542 2.1080000
v -2.5138761 0.2402450 2.1080000
v 0.3246475 0.2252542 2.1080000
v 2.5138761 0.2402450 2.1080000
v 2.5158470 0.0777569 1.9428571
v 0.3249020 0.0627544 1.9428571
v 0.3249020 0.0627544 2.2731429
v 2.5158470 0.0777569 2.2731429
v 2.5138761 0.2402450 2.1080000
v 0.3246475 0.2252542 2.1080000
v 2.5138761 0.2402450 2.1080000
v 4.7028243 0.2783576 2.1080000
v 4.7065113 0.1158995 1.9428571
v 2.5158470 0.0777569 1.9428571
v 2.5158470 0.0777569 2.2731429
v 4.7065113 0.1158995 2.2731429
v 4.7028243 0.2783576 2.1080000
v 2.5138761 0.2402450 2.1080000
v 4.7028243 0.2783576 2.1080000
v 6.8912479 0.3395879 2.1080000
v 6.8966505 0.1771778 1.9428571
v 4.7065113 0.1158995 1.9428571
v 4.7065113 0.1158995 2.2731429
v 6.8966505 0.1771778 2.2731429
v 6.8912479 0.3395879 2.1080000
v 4.7028243 0.2783576 2.1080000
v -6.8912479 0.3395879 2.5937143
v -4.7028243 0.2783576 2.5937143
v -4.7065113 0.1158995 2.4285714
v -6.8966505 0.1771778 2.4285714
v -6.8966505 0.1771778 2.7588571
v -4.7065113 0.1158995 2.7588571
v -4.7028243 0.2783576 2.5937143
v -6.8912479 0.3395879 2.5937143
v -4.7028243 0.2783576 2.5937143
v -2.5138761 0.2402450 2.5937143
v -2.5158470 0.0777569 2.4285714
v -4.7065113 0.1158995 2.4285714
v -4.7065113 0.1158995 2.7588571
v -2.5158470 0.0777569 2.7588571
v -2.5138761 0.2402450 2.5937143
v -4.7028243 0.2783576 2.5937143
v -2.5138761 0.2402450 2.5937143
v -0.3246475 0.2252542 2.5937143
v -0.3249020 0.0627544 2.4285714
v -2.5158470 0.0777569 2.4285714
v -2.5158470 0.0777569 2.7588571
v -0.3249020 0.0627544 2.7588571
v -0.3246475 0.2252542 2.5937143
v -2.5138761 0.2402450 2.5937143
v 0.3246475 0.2252542 2.5937143
v 2.5138761 0.2402450 2.5937143
v 2.5158470 0.0777569 2.4285714
v 0.3249020 0.0627544 2.4285714
v 0.3249020 0.0627544 2.7588571
v 2.5158470 0.0777569 2.7588571
v 2.5138761 0.2402450 2.5937143
v 0.3246475 0.2252542 2.5937143
v 2.5138761 0.2402450 2.5937143
v 4.7028243 0.2783576 2.5937143
v 4.7065113 0.1158995 2.4285714
v 2.5158470 0.0777569 2.4285714
v 2.5158470 0.0777569 2.7588571
v 4.7065113 0.1158995 2.7588571
v 4.7028243 0.2783576 2.5937143
v 2.5138761 0.2402450 2.5937143
v 4.7028243 0.2783576 2.5937143
v 6.8912479 0.3395879 2.5937143
v 6.8966505 0.1771778 2.4285714
v 4.7065113 0.1158995 2.4285714
v 4.7065113 0.1158995 2.7588571
v 6.8966505 0.1771778 2.7588571
v 6.8912479 0.3395879 2.5937143
v 4.7028243 0.2783576 2.5937143
v -6.8912479 0.3395879 3.0794286
v -4.7028243 0.2783576 3.0794286
v -4.7065113 0.1158995 2.9142857
v -6.8966505 0.1771778 2.9142857
v -6.8966505 0.1771778 3.2445714
v -4.7065113 0.1158995 3.2445714
v -4.7028243 0.2783576 3.0794286
v -6.8912479 0.3395879 3.0794286
v -4.7028243 0.2783576 3.0794286
v -2.5138761 0.2402450 3.0794286
v -2.5158470 0.0777569 2.9142857
v -4.7065113 0.1158995 2.9142857
v -4.7065113 0.1158995 3.2445714
v -2.5158470 0.0777569 3.2445714
v -2.5138761 0.2402450 3.0794286
v -4.7028243 0.2783576 3.0794286
v -2.5138761 0.2402450 3.0794286
v -0.3246475 0.2252542 3.0794286
v -0.3249020 0.0627544 2.9142857
v -2.5158470 0.0777569 2.9142857
v -2.5158470 0.0777569 3.2445714
v -0.3249020 0.0627544 3.2445714
v -0.3246475 0.2252542 3.0794286
v -2.5138761 0.2402450 3.0794286
v 0.3246475 0.2252542 3.0794286
v 2.5138761 0.2402450 3.0794286
v 2.5158470 0.0777569 2.9142857
v 0.3249020 0.0627544 2.9142857
v 0.3249020 0.0627544 3.2445714
v 2.5158470 0.0777569 3.2445714
v 2.5138761 0.2402450 3.0794286
v 0.3246475 0.2252542 3.0794286
v 2.5138761 0.2402450 3.0794286
v 4.7028243 0.2783576 3.0794286
v 4.7065113 0.1158995 2.9142857
v 2.5158470 0.0777569 2.9142857
v 2.5158470 0.0777569 3.2445714
v 4.7065113 0.1158995 3.2445714
v 4.7028243 0.2783576 3.0794286
v 2.5138761 0.2402450 3.0794286
v 4.7028243 0.2783576 3.0794286
v 6.8912479 0.3395879 3.0794286
v 6.8966505 0.1771778 2.9142857
v 4.7065113 0.1158995 2.9142857
v 4.7065113 0.1158995 3.2445714
v 6.8966505 0.1771778 3.2445714
v 6.8912479 0.3395879 3.0794286
v 4.7028243 0.2783576 3.0794286
vt 0.005000 0.995000
vt 0.245000 0.995000
vt 0.245000 0.755000
vt 0.255000 0.995000
vt 0.495000 0.995000
vt 0.495000 0.755000
vt 0.505000 0.995000
vt 0.745000 0.995000
vt 0.745000 0.755000
vt 0.755000 0.995000
vt 0.995000 0.995000
vt 0.995000 0.755000
vt 0.005000 0.745000
vt 0.245000 0.745000
vt 0.245000 0.505000
vt 0.255000 0.745000
vt 0.495000 0.745000
vt 0.495000 0.505000
vt 0.505000 0.745000
vt 0.745000 0.745000
vt 0.745000 0.505000
vt 0.755000 0.745000
vt 0.995000 0.745000
vt 0.995000 0.505000
vt 0.005000 0.495000
vt 0.245000 0.495000
vt 0.245000 0.255000
vt 0.255000 0.495000
vt 0.495000 0.495000
vt 0.495000 0.255000
vt 0.505000 0.495000
vt 0.745000 0.495000
vt 0.745000 0.255000
vt 0.755000 0.495000
vt 0.995000 0.495000
vt 0.995000 0.255000
vt 0.005000 0.245000
vt 0.245000 0.245000
vt 0.245000 0.005000
vt 0.255000 0.245000
vt 0.495000 0.245000
vt 0.495000 0.005000
vt 0.505000 0.245000
vt 0.745000 0.245000
vt 0.745000 0.005000
vt 0.755000 0.245000
vt 0.995000 0.245000
vt 0.995000 0.005000
g ornament
usemtl farm-kit
f 89/19 90/20 91/21
f 89/19 91/20 92/21
f 93/19 94/20 95/21
f 93/19 95/20 96/21
f 97/19 98/20 99/21
f 97/19 99/20 100/21
f 101/19 102/20 103/21
f 101/19 103/20 104/21
f 105/19 106/20 107/21
f 105/19 107/20 108/21
f 109/19 110/20 111/21
f 109/19 111/20 112/21
f 113/19 114/20 115/21
f 113/19 115/20 116/21
f 117/19 118/20 119/21
f 117/19 119/20 120/21
f 121/19 122/20 123/21
f 121/19 123/20 124/21
f 125/19 126/20 127/21
f 125/19 127/20 128/21
f 129/19 130/20 131/21
f 129/19 131/20 132/21
f 133/19 134/20 135/21
f 133/19 135/20 136/21
f 137/19 138/20 139/21
f 137/19 139/20 140/21
f 141/19 142/20 143/21
f 141/19 143/20 144/21
f 145/19 146/20 147/21
f 145/19 147/20 148/21
f 149/19 150/20 151/21
f 149/19 151/20 152/21
f 153/19 154/20 155/21
f 153/19 155/20 156/21
f 157/19 158/20 159/21
f 157/19 159/20 160/21
f 161/19 162/20 163/21
f 161/19 163/20 164/21
f 165/19 166/20 167/21
f 165/19 167/20 168/21
f 169/19 170/20 171/21
f 169/19 171/20 172/21
f 173/19 174/20 175/21
f 173/19 175/20 176/21
f 177/19 178/20 179/21
f 177/19 179/20 180/21
f 181/19 182/20 183/21
f 181/19 183/20 184/21
f 185/19 186/20 187/21
f 185/19 187/20 188/21
f 189/19 190/20 191/21
f 189/19 191/20 192/21
f 193/19 194/20 195/21
f 193/19 195/20 196/21
f 197/19 198/20 199/21
f 197/19 199/20 200/21
f 201/19 202/20 203/21
f 201/19 203/20 204/21
f 205/19 206/20 207/21
f 205/19 207/20 208/21
f 209/19 210/20 211/21
f 209/19 211/20 212/21
f 213/19 214/20 215/21
f 213/19 215/20 216/21
f 217/19 218/20 219/21
f 217/19 219/20 220/21
f 221/19 222/20 223/21
f 221/19 223/20 224/21
f 225/19 226/20 227/21
f 225/19 227/20 228/21
f 229/19 230/20 231/21
f 229/19 231/20 232/21
f 233/19 234/20 235/21
f 233/19 235/20 236/21
f 237/19 238/20 239/21
f 237/19 239/20 240/21
f 241/19 242/20 243/21
f 241/19 243/20 244/21
f 245/19 246/20 247/21
f 245/19 247/20 248/21
f 249/19 250/20 251/21
f 249/19 251/20 252/21
f 253/19 254/20 255/21
f 253/19 255/20 256/21
f 257/19 258/20 259/21
f 257/19 259/20 260/21
f 261/19 262/20 263/21
f 261/19 263/20 264/21
f 265/19 266/20 267/21
f 265/19 267/20 268/21
f 269/19 270/20 271/21
f 269/19 271/20 272/21
f 273/19 274/20 275/21
f 273/19 275/20 276/21
f 277/19 278/20 279/21
f 277/19 279/20 280/21
f 281/19 282/20 283/21
f 281/19 283/20 284/21
f 285/19 286/20 287/21
f 285/19 287/20 288/21
f 289/19 290/20 291/21
f 289/19 291/20 292/21
f 293/19 294/20 295/21
f 293/19 295/20 296/21
f 297/19 298/20 299/21
f 297/19 299/20 300/21
f 301/19 302/20 303/21
f 301/19 303/20 304/21
f 305/19 306/20 307/21
f 305/19 307/20 308/21
f 309/19 310/20 311/21
f 309/19 311/20 312/21
f 313/19 314/20 315/21
f 313/19 315/20 316/21
f 317/19 318/20 319/21
f 317/19 319/20 320/21
f 321/19 322/20 323/21
f 321/19 323/20 324/21
f 325/19 326/20 327/21
f 325/19 327/20 328/21
f 329/19 330/20 331/21
f 329/19 331/20 332/21
f 333/19 334/20 335/21
f 333/19 335/20 336/21
f 337/19 338/20 339/21
f 337/19 339/20 340/21
f 341/19 342/20 343/21
f 341/19 343/20 344/21
f 345/19 346/20 347/21
f 345/19 347/20 348/21
f 349/19 350/20 351/21
f 349/19 351/20 352/21
f 353/19 354/20 355/21
f 353/19 355/20 356/21
f 357/19 358/20 359/21
f 357/19 359/20 360/21
f 361/19 362/20 363/21
f 361/19 363/20 364/21
f 365/19 366/20 367/21
f 365/19 367/20 368/21
f 369/19 370/20 371/21
f 369/19 371/20 372/21
f 373/19 374/20 375/21
f 373/19 375/20 376/21
f 377/19 378/20 379/21
f 377/19 379/20 380/21
f 381/19 382/20 383/21
f 381/19 383/20 384/21
f 385/19 386/20 387/21
f 385/19 387/20 388/21
f 389/19 390/20 391/21
f 389/19 391/20 392/21
f 393/19 394/20 395/21
f 393/19 395/20 396/21
f 397/19 398/20 399/21
f 397/19 399/20 400/21
f 401/19 402/20 403/21
f 401/19 403/20 404/21
f 405/19 406/20 407/21
f 405/19 407/20 408/21
f 409/19 410/20 411/21
f 409/19 411/20 412/21
f 413/19 414/20 415/21
f 413/19 415/20 416/21
f 417/19 418/20 419/21
f 417/19 419/20 420/21
f 421/19 422/20 423/21
f 421/19 423/20 424/21
f 425/19 426/20 427/21
f 425/19 427/20 428/21
f 429/19 430/20 431/21
f 429/19 431/20 432/21
f 433/19 434/20 435/21
f 433/19 435/20 436/21
f 437/19 438/20 439/21
f 437/19 439/20 440/21
f 441/19 442/20 443/21
f 441/19 443/20 444/21
f 445/19 446/20 447/21
f 445/19 447/20 448/21
f 449/19 450/20 451/21
f 449/19 451/20 452/21
f 453/19 454/20 455/21
f 453/19 455/20 456/21
f 457/19 458/20 459/21
f 457/19 459/20 460/21
f 461/19 462/20 463/21
f 461/19 463/20 464/21
f 465/19 466/20 467/21
f 465/19 467/20 468/21
f 469/19 470/20 471/21
f 469/19 471/20 472/21
f 473/19 474/20 475/21
f 473/19 475/20 476/21
f 477/19 478/20 479/21
f 477/19 479/20 480/21
f 481/19 482/20 483/21
f 481/19 483/20 484/21
f 485/19 486/20 487/21
f 485/19 487/20 488/21
f 489/19 490/20 491/21
f 489/19 491/20 492/21
f 493/19 494/20 495/21
f 493/19 495/20 496/21
f 497/19 498/20 499/21
f 497/19 499/20 500/21
f 501/19 502/20 503/21
f 501/19 503/20 504/21
f 505/19 506/20 507/21
f 505/19 507/20 508/21
f 509/19 510/20 511/21
f 509/19 511/20 512/21
f 513/19 514/20 515/21
f 513/19 515/20 516/21
f 517/19 518/20 519/21
f 517/19 519/20 520/21
f 521/19 522/20 523/21
f 521/19 523/20 524/21
f 525/19 526/20 527/21
f 525/19 527/20 528/21
f 529/19 530/20 531/21
f 529/19 531/20 532/21
f 533/19 534/20 535/21
f 533/19 535/20 536/21
f 537/19 538/20 539/21
f 537/19 539/20 540/21
f 541/19 542/20 543/21
f 541/19 543/20 544/21
f 545/19 546/20 547/21
f 545/19 547/20 548/21
f 549/19 550/20 551/21
f 549/19 551/20 552/21
f 553/19 554/20 555/21
f 553/19 555/20 556/21
f 557/19 558/20 559/21
f 557/19 559/20 560/21
f 561/19 562/20 563/21
f 561/19 563/20 564/21
f 565/19 566/20 567/21
f 565/19 567/20 568/21
f 569/19 570/20 571/21
f 569/19 571/20 572/21
f 573/19 574/20 575/21
f 573/19 575/20 576/21
f 577/19 578/20 579/21
f 577/19 579/20 580/21
f 581/19 582/20 583/21
f 581/19 583/20 584/21
f 585/19 586/20 587/21
f 585/19 587/20 588/21
f 589/19 590/20 591/21
f 589/19 591/20 592/21
f 593/19 594/20 595/21
f 593/19 595/20 596/21
f 597/19 598/20 599/21
f 597/19 599/20 600/21
f 601/19 602/20 603/21
f 601/19 603/20 604/21
f 605/19 606/20 607/21
f 605/19 607/20 608/21
f 609/19 610/20 611/21
f 609/19 611/20 612/21
f 613/19 614/20 615/21
f 613/19 615/20 616/21
f 617/19 618/20 619/21
f 617/19 619/20 620/21
f 621/19 622/20 623/21
f 621/19 623/20 624/21
f 625/19 626/20 627/21
f 625/19 627/20 628/21
f 629/19 630/20 631/21
f 629/19 631/20 632/21
f 633/19 634/20 635/21
f 633/19 635/20 636/21
f 637/19 638/20 639/21
f 637/19 639/20 640/21
f 641/19 642/20 643/21
f 641/19 643/20 644/21
f 645/19 646/20 647/21
f 645/19 647/20 648/21
f 649/19 650/20 651/21
f 649/19 651/20 652/21
f 653/19 654/20 655/21
f 653/19 655/20 656/21
f 657/19 658/20 659/21
f 657/19 659/20 660/21
f 661/19 662/20 663/21
f 661/19 663/20 664/21
f 665/19 666/20 667/21
f 665/19 667/20 668/21
f 669/19 670/20 671/21
f 669/19 671/20 672/21
f 673/19 674/20 675/21
f 673/19 675/20 676/21
f 677/19 678/20 679/21
f 677/19 679/20 680/21
f 681/19 682/20 683/21
f 681/19 683/20 684/21
f 685/19 686/20 687/21
f 685/19 687/20 688/21
f 689/19 690/20 691/21
f 689/19 691/20 692/21
f 693/19 694/20 695/21
f 693/19 695/20 696/21
f 697/19 698/20 699/21
f 697/19 699/20 700/21
f 701/19 702/20 703/21
f 701/19 703/20 704/21
f 705/19 706/20 707/21
f 705/19 707/20 708/21
f 709/19 710/20 711/21
f 709/19 711/20 712/21
f 713/19 714/20 715/21
f 713/19 715/20 716/21
f 717/19 718/20 719/21
f 717/19 719/20 720/21
f 721/19 722/20 723/21
f 721/19 723/20 724/21
f 725/19 726/20 727/21
f 725/19 727/20 728/21
f 729/19 730/20 731/21
f 729/19 731/20 732/21
f 733/19 734/20 735/21
f 733/19 735/20 736/21
f 737/19 738/20 739/21
f 737/19 739/20 740/21
f 741/19 742/20 743/21
f 741/19 743/20 744/21
f 745/19 746/20 747/21
f 745/19 747/20 748/21
f 749/19 750/20 751/21
f 749/19 751/20 752/21
f 753/19 754/20 755/21
f 753/19 755/20 756/21
f 757/19 758/20 759/21
f 757/19 759/20 760/21
g support
usemtl farm-kit
f 1/1 2/2 3/3
f 1/1 3/2 4/3
f 5/1 6/2 7/3
f 5/1 7/2 8/3
f 9/1 10/2 11/3
f 9/1 11/2 12/3
f 13/1 14/2 15/3
f 13/1 15/2 16/3
f 17/1 18/2 19/3
f 17/1 19/2 20/3
f 21/1 22/2 23/3
f 21/1 23/2 24/3
f 25/1 26/2 27/3
f 25/1 27/2 28/3
f 29/4 30/5 31/6
f 29/4 31/5 32/6
f 33/4 34/5 35/6
f 33/4 35/5 36/6
f 37/4 38/5 39/6
f 37/4 39/5 40/6
f 41/4 42/5 43/6
f 41/4 43/5 44/6
f 45/4 46/5 47/6
f 45/4 47/5 48/6
f 49/4 50/5 51/6
f 49/4 51/5 52/6
f 53/4 54/5 55/6
f 53/4 55/5 56/6
f 57/4 58/5 59/6
f 57/4 59/5 60/6
f 61/4 62/5 63/6
f 61/4 63/5 64/6
f 65/4 66/5 67/6
f 65/4 67/5 68/6
f 69/4 70/5 71/6
f 69/4 71/5 72/6
f 73/4 74/5 75/6
f 73/4 75/5 76/6
f 77/4 78/5 79/6
f 77/4 79/5 80/6
f 81/4 82/5 83/6
f 81/4 83/5 84/6
f 85/4 86/5 87/6
f 85/4 87/5 88/6
