mtllib TorusAgri_AnimalHousingA.mtl
o TorusAgri_AnimalHousingA
usemtl TorusAgricultureKit
s off
v -1.000000 0.000000 -1.000000
v 1.000000 0.000000 -1.000000
v 1.000000 0.020000 -1.000000
v -1.000000 0.020000 -1.000000
v -1.000000 0.000000 1.000000
v 1.000000 0.000000 1.000000
v 1.000000 0.020000 1.000000
v -1.000000 0.020000 1.000000
v -0.965000 0.000000 -1.000000
v -0.965000 0.750000 -1.000000
v -1.000000 0.750000 -1.000000
v -0.965000 0.000000 1.000000
v -0.965000 0.750000 1.000000
v -1.000000 0.750000 1.000000
v 0.965000 0.000000 -1.000000
v 1.000000 0.750000 -1.000000
v 0.965000 0.750000 -1.000000
v 0.965000 0.000000 1.000000
v 1.000000 0.750000 1.000000
v 0.965000 0.750000 1.000000
v -0.965000 0.000000 -0.965000
v 0.965000 0.000000 -0.965000
v 0.965000 0.750000 -0.965000
v -0.965000 0.750000 -0.965000
v -0.965000 0.000000 0.965000
v -0.300000 0.000000 0.965000
v -0.300000 0.750000 0.965000
v -0.965000 0.750000 0.965000
v -0.300000 0.000000 1.000000
v -0.300000 0.750000 1.000000
v 0.300000 0.000000 0.965000
v 0.965000 0.000000 0.965000
v 0.965000 0.750000 0.965000
v 0.300000 0.750000 0.965000
v 0.300000 0.000000 1.000000
v 0.300000 0.750000 1.000000
v -0.300000 0.650000 0.965000
v 0.300000 0.650000 0.965000
v -0.300000 0.650000 1.000000
v 0.300000 0.650000 1.000000
v -0.972500 0.020000 -0.977500
v -0.942500 0.020000 -0.977500
v -0.942500 0.745000 -0.977500
v -0.972500 0.745000 -0.977500
v -0.972500 0.020000 -0.947500
v -0.942500 0.020000 -0.947500
v -0.942500 0.745000 -0.947500
v -0.972500 0.745000 -0.947500
v -0.963882 0.766295 -0.980000
v -0.951118 0.733705 -0.980000
v -0.951118 0.733705 -0.945000
v -0.963882 0.766295 -0.945000
v -0.006382 1.141295 -0.980000
v -0.006382 1.141295 -0.945000
v 0.006382 1.108705 -0.945000
v 0.006382 1.108705 -0.980000
v 0.942500 0.020000 -0.977500
v 0.972500 0.020000 -0.977500
v 0.972500 0.745000 -0.977500
v 0.942500 0.745000 -0.977500
v 0.942500 0.020000 -0.947500
v 0.972500 0.020000 -0.947500
v 0.972500 0.745000 -0.947500
v 0.942500 0.745000 -0.947500
v 0.963882 0.766295 -0.945000
v 0.951118 0.733705 -0.945000
v 0.951118 0.733705 -0.980000
v 0.963882 0.766295 -0.980000
v 0.006382 1.141295 -0.945000
v 0.006382 1.141295 -0.980000
v -0.006382 1.108705 -0.980000
v -0.006382 1.108705 -0.945000
v -0.015000 1.110000 -0.987500
v 0.015000 1.110000 -0.987500
v 0.015000 1.140000 -0.987500
v -0.015000 1.140000 -0.987500
v -0.015000 1.110000 -0.937500
v 0.015000 1.110000 -0.937500
v 0.015000 1.140000 -0.937500
v -0.015000 1.140000 -0.937500
v -0.972500 0.020000 -0.340000
v -0.942500 0.020000 -0.340000
v -0.942500 0.745000 -0.340000
v -0.972500 0.745000 -0.340000
v -0.972500 0.020000 -0.310000
v -0.942500 0.020000 -0.310000
v -0.942500 0.745000 -0.310000
v -0.972500 0.745000 -0.310000
v -0.963882 0.766295 -0.342500
v -0.951118 0.733705 -0.342500
v -0.951118 0.733705 -0.307500
v -0.963882 0.766295 -0.307500
v -0.006382 1.141295 -0.342500
v -0.006382 1.141295 -0.307500
v 0.006382 1.108705 -0.307500
v 0.006382 1.108705 -0.342500
v 0.942500 0.020000 -0.340000
v 0.972500 0.020000 -0.340000
v 0.972500 0.745000 -0.340000
v 0.942500 0.745000 -0.340000
v 0.942500 0.020000 -0.310000
v 0.972500 0.020000 -0.310000
v 0.972500 0.745000 -0.310000
v 0.942500 0.745000 -0.310000
v 0.963882 0.766295 -0.307500
v 0.951118 0.733705 -0.307500
v 0.951118 0.733705 -0.342500
v 0.963882 0.766295 -0.342500
v 0.006382 1.141295 -0.307500
v 0.006382 1.141295 -0.342500
v -0.006382 1.108705 -0.342500
v -0.006382 1.108705 -0.307500
v -0.015000 1.110000 -0.350000
v 0.015000 1.110000 -0.350000
v 0.015000 1.140000 -0.350000
v -0.015000 1.140000 -0.350000
v -0.015000 1.110000 -0.300000
v 0.015000 1.110000 -0.300000
v 0.015000 1.140000 -0.300000
v -0.015000 1.140000 -0.300000
v -0.972500 0.020000 0.310000
v -0.942500 0.020000 0.310000
v -0.942500 0.745000 0.310000
v -0.972500 0.745000 0.310000
v -0.972500 0.020000 0.340000
v -0.942500 0.020000 0.340000
v -0.942500 0.745000 0.340000
v -0.972500 0.745000 0.340000
v -0.963882 0.766295 0.307500
v -0.951118 0.733705 0.307500
v -0.951118 0.733705 0.342500
v -0.963882 0.766295 0.342500
v -0.006382 1.141295 0.307500
v -0.006382 1.141295 0.342500
v 0.006382 1.108705 0.342500
v 0.006382 1.108705 0.307500
v 0.942500 0.020000 0.310000
v 0.972500 0.020000 0.310000
v 0.972500 0.745000 0.310000
v 0.942500 0.745000 0.310000
v 0.942500 0.020000 0.340000
v 0.972500 0.020000 0.340000
v 0.972500 0.745000 0.340000
v 0.942500 0.745000 0.340000
v 0.963882 0.766295 0.342500
v 0.951118 0.733705 0.342500
v 0.951118 0.733705 0.307500
v 0.963882 0.766295 0.307500
v 0.006382 1.141295 0.342500
v 0.006382 1.141295 0.307500
v -0.006382 1.108705 0.307500
v -0.006382 1.108705 0.342500
v -0.015000 1.110000 0.300000
v 0.015000 1.110000 0.300000
v 0.015000 1.140000 0.300000
v -0.015000 1.140000 0.300000
v -0.015000 1.110000 0.350000
v 0.015000 1.110000 0.350000
v 0.015000 1.140000 0.350000
v -0.015000 1.140000 0.350000
v -0.972500 0.020000 0.947500
v -0.942500 0.020000 0.947500
v -0.942500 0.745000 0.947500
v -0.972500 0.745000 0.947500
v -0.972500 0.020000 0.977500
v -0.942500 0.020000 0.977500
v -0.942500 0.745000 0.977500
v -0.972500 0.745000 0.977500
v -0.963882 0.766295 0.945000
v -0.951118 0.733705 0.945000
v -0.951118 0.733705 0.980000
v -0.963882 0.766295 0.980000
v -0.006382 1.141295 0.945000
v -0.006382 1.141295 0.980000
v 0.006382 1.108705 0.980000
v 0.006382 1.108705 0.945000
v 0.942500 0.020000 0.947500
v 0.972500 0.020000 0.947500
v 0.972500 0.745000 0.947500
v 0.942500 0.745000 0.947500
v 0.942500 0.020000 0.977500
v 0.972500 0.020000 0.977500
v 0.972500 0.745000 0.977500
v 0.942500 0.745000 0.977500
v 0.963882 0.766295 0.980000
v 0.951118 0.733705 0.980000
v 0.951118 0.733705 0.945000
v 0.963882 0.766295 0.945000
v 0.006382 1.141295 0.980000
v 0.006382 1.141295 0.945000
v -0.006382 1.108705 0.945000
v -0.006382 1.108705 0.980000
v -0.015000 1.110000 0.937500
v 0.015000 1.110000 0.937500
v 0.015000 1.140000 0.937500
v -0.015000 1.140000 0.937500
v -0.015000 1.110000 0.987500
v 0.015000 1.110000 0.987500
v 0.015000 1.140000 0.987500
v -0.015000 1.140000 0.987500
v 0.016250 1.141250 -1.000000
v 0.016250 1.108750 -1.000000
v -0.016250 1.108750 -1.000000
v -0.016250 1.141250 -1.000000
v 0.016250 1.141250 1.000000
v -0.016250 1.141250 1.000000
v -0.016250 1.108750 1.000000
v 0.016250 1.108750 1.000000
v -1.004389 0.761704 -1.000000
v -0.995611 0.738296 -1.000000
v -0.995611 0.738296 1.000000
v -1.004389 0.761704 1.000000
v -0.004389 1.136704 -1.000000
v -0.004389 1.136704 1.000000
v 0.004389 1.113296 1.000000
v 0.004389 1.113296 -1.000000
v 1.004389 0.761704 1.000000
v 0.995611 0.738296 1.000000
v 0.995611 0.738296 -1.000000
v 1.004389 0.761704 -1.000000
v 0.004389 1.136704 1.000000
v 0.004389 1.136704 -1.000000
v -0.004389 1.113296 -1.000000
v -0.004389 1.113296 1.000000
v 0.000000 1.125000 -0.982500
v 0.965000 0.750000 -0.982500
v -0.965000 0.750000 -0.982500
v -0.965000 0.750000 0.982500
v 0.965000 0.750000 0.982500
v 0.000000 1.125000 0.982500
v -0.361250 0.020000 -0.586250
v -0.338750 0.020000 -0.586250
v -0.338750 0.310000 -0.586250
v -0.361250 0.310000 -0.586250
v -0.361250 0.020000 -0.563750
v -0.338750 0.020000 -0.563750
v -0.338750 0.310000 -0.563750
v -0.361250 0.310000 -0.563750
v -0.936250 0.020000 -0.586250
v -0.913750 0.020000 -0.586250
v -0.913750 0.310000 -0.586250
v -0.936250 0.310000 -0.586250
v -0.936250 0.020000 -0.563750
v -0.913750 0.020000 -0.563750
v -0.913750 0.310000 -0.563750
v -0.936250 0.310000 -0.563750
v -0.925000 0.136250 -0.583750
v -0.350000 0.136250 -0.583750
v -0.350000 0.153750 -0.583750
v -0.925000 0.153750 -0.583750
v -0.925000 0.136250 -0.566250
v -0.350000 0.136250 -0.566250
v -0.350000 0.153750 -0.566250
v -0.925000 0.153750 -0.566250
v -0.925000 0.271250 -0.583750
v -0.350000 0.271250 -0.583750
v -0.350000 0.288750 -0.583750
v -0.925000 0.288750 -0.583750
v -0.925000 0.271250 -0.566250
v -0.350000 0.271250 -0.566250
v -0.350000 0.288750 -0.566250
v -0.925000 0.288750 -0.566250
v -0.361250 0.020000 -0.011250
v -0.338750 0.020000 -0.011250
v -0.338750 0.310000 -0.011250
v -0.361250 0.310000 -0.011250
v -0.361250 0.020000 0.011250
v -0.338750 0.020000 0.011250
v -0.338750 0.310000 0.011250
v -0.361250 0.310000 0.011250
v -0.936250 0.020000 -0.011250
v -0.913750 0.020000 -0.011250
v -0.913750 0.310000 -0.011250
v -0.936250 0.310000 -0.011250
v -0.936250 0.020000 0.011250
v -0.913750 0.020000 0.011250
v -0.913750 0.310000 0.011250
v -0.936250 0.310000 0.011250
v -0.925000 0.136250 -0.008750
v -0.350000 0.136250 -0.008750
v -0.350000 0.153750 -0.008750
v -0.925000 0.153750 -0.008750
v -0.925000 0.136250 0.008750
v -0.350000 0.136250 0.008750
v -0.350000 0.153750 0.008750
v -0.925000 0.153750 0.008750
v -0.925000 0.271250 -0.008750
v -0.350000 0.271250 -0.008750
v -0.350000 0.288750 -0.008750
v -0.925000 0.288750 -0.008750
v -0.925000 0.271250 0.008750
v -0.350000 0.271250 0.008750
v -0.350000 0.288750 0.008750
v -0.925000 0.288750 0.008750
v -0.361250 0.020000 0.563750
v -0.338750 0.020000 0.563750
v -0.338750 0.310000 0.563750
v -0.361250 0.310000 0.563750
v -0.361250 0.020000 0.586250
v -0.338750 0.020000 0.586250
v -0.338750 0.310000 0.586250
v -0.361250 0.310000 0.586250
v -0.936250 0.020000 0.563750
v -0.913750 0.020000 0.563750
v -0.913750 0.310000 0.563750
v -0.936250 0.310000 0.563750
v -0.936250 0.020000 0.586250
v -0.913750 0.020000 0.586250
v -0.913750 0.310000 0.586250
v -0.936250 0.310000 0.586250
v -0.925000 0.136250 0.566250
v -0.350000 0.136250 0.566250
v -0.350000 0.153750 0.566250
v -0.925000 0.153750 0.566250
v -0.925000 0.136250 0.583750
v -0.350000 0.136250 0.583750
v -0.350000 0.153750 0.583750
v -0.925000 0.153750 0.583750
v -0.925000 0.271250 0.566250
v -0.350000 0.271250 0.566250
v -0.350000 0.288750 0.566250
v -0.925000 0.288750 0.566250
v -0.925000 0.271250 0.583750
v -0.350000 0.271250 0.583750
v -0.350000 0.288750 0.583750
v -0.925000 0.288750 0.583750
v -0.358750 0.136250 -0.562500
v -0.341250 0.136250 -0.562500
v -0.341250 0.153750 -0.562500
v -0.358750 0.153750 -0.562500
v -0.358750 0.136250 0.012500
v -0.341250 0.136250 0.012500
v -0.341250 0.153750 0.012500
v -0.358750 0.153750 0.012500
v -0.358750 0.271250 -0.562500
v -0.341250 0.271250 -0.562500
v -0.341250 0.288750 -0.562500
v -0.358750 0.288750 -0.562500
v -0.358750 0.271250 0.012500
v -0.341250 0.271250 0.012500
v -0.341250 0.288750 0.012500
v -0.358750 0.288750 0.012500
v -0.912500 0.020000 -0.756250
v -0.637500 0.020000 -0.756250
v -0.637500 0.140000 -0.756250
v -0.912500 0.140000 -0.756250
v -0.912500 0.020000 -0.643750
v -0.637500 0.020000 -0.643750
v -0.637500 0.140000 -0.643750
v -0.912500 0.140000 -0.643750
v 0.338750 0.020000 -0.586250
v 0.361250 0.020000 -0.586250
v 0.361250 0.310000 -0.586250
v 0.338750 0.310000 -0.586250
v 0.338750 0.020000 -0.563750
v 0.361250 0.020000 -0.563750
v 0.361250 0.310000 -0.563750
v 0.338750 0.310000 -0.563750
v 0.913750 0.020000 -0.586250
v 0.936250 0.020000 -0.586250
v 0.936250 0.310000 -0.586250
v 0.913750 0.310000 -0.586250
v 0.913750 0.020000 -0.563750
v 0.936250 0.020000 -0.563750
v 0.936250 0.310000 -0.563750
v 0.913750 0.310000 -0.563750
v 0.350000 0.136250 -0.583750
v 0.925000 0.136250 -0.583750
v 0.925000 0.153750 -0.583750
v 0.350000 0.153750 -0.583750
v 0.350000 0.136250 -0.566250
v 0.925000 0.136250 -0.566250
v 0.925000 0.153750 -0.566250
v 0.350000 0.153750 -0.566250
v 0.350000 0.271250 -0.583750
v 0.925000 0.271250 -0.583750
v 0.925000 0.288750 -0.583750
v 0.350000 0.288750 -0.583750
v 0.350000 0.271250 -0.566250
v 0.925000 0.271250 -0.566250
v 0.925000 0.288750 -0.566250
v 0.350000 0.288750 -0.566250
v 0.338750 0.020000 -0.011250
v 0.361250 0.020000 -0.011250
v 0.361250 0.310000 -0.011250
v 0.338750 0.310000 -0.011250
v 0.338750 0.020000 0.011250
v 0.361250 0.020000 0.011250
v 0.361250 0.310000 0.011250
v 0.338750 0.310000 0.011250
v 0.913750 0.020000 -0.011250
v 0.936250 0.020000 -0.011250
v 0.936250 0.310000 -0.011250
v 0.913750 0.310000 -0.011250
v 0.913750 0.020000 0.011250
v 0.936250 0.020000 0.011250
v 0.936250 0.310000 0.011250
v 0.913750 0.310000 0.011250
v 0.350000 0.136250 -0.008750
v 0.925000 0.136250 -0.008750
v 0.925000 0.153750 -0.008750
v 0.350000 0.153750 -0.008750
v 0.350000 0.136250 0.008750
v 0.925000 0.136250 0.008750
v 0.925000 0.153750 0.008750
v 0.350000 0.153750 0.008750
v 0.350000 0.271250 -0.008750
v 0.925000 0.271250 -0.008750
v 0.925000 0.288750 -0.008750
v 0.350000 0.288750 -0.008750
v 0.350000 0.271250 0.008750
v 0.925000 0.271250 0.008750
v 0.925000 0.288750 0.008750
v 0.350000 0.288750 0.008750
v 0.338750 0.020000 0.563750
v 0.361250 0.020000 0.563750
v 0.361250 0.310000 0.563750
v 0.338750 0.310000 0.563750
v 0.338750 0.020000 0.586250
v 0.361250 0.020000 0.586250
v 0.361250 0.310000 0.586250
v 0.338750 0.310000 0.586250
v 0.913750 0.020000 0.563750
v 0.936250 0.020000 0.563750
v 0.936250 0.310000 0.563750
v 0.913750 0.310000 0.563750
v 0.913750 0.020000 0.586250
v 0.936250 0.020000 0.586250
v 0.936250 0.310000 0.586250
v 0.913750 0.310000 0.586250
v 0.350000 0.136250 0.566250
v 0.925000 0.136250 0.566250
v 0.925000 0.153750 0.566250
v 0.350000 0.153750 0.566250
v 0.350000 0.136250 0.583750
v 0.925000 0.136250 0.583750
v 0.925000 0.153750 0.583750
v 0.350000 0.153750 0.583750
v 0.350000 0.271250 0.566250
v 0.925000 0.271250 0.566250
v 0.925000 0.288750 0.566250
v 0.350000 0.288750 0.566250
v 0.350000 0.271250 0.583750
v 0.925000 0.271250 0.583750
v 0.925000 0.288750 0.583750
v 0.350000 0.288750 0.583750
v 0.341250 0.136250 -0.562500
v 0.358750 0.136250 -0.562500
v 0.358750 0.153750 -0.562500
v 0.341250 0.153750 -0.562500
v 0.341250 0.136250 0.012500
v 0.358750 0.136250 0.012500
v 0.358750 0.153750 0.012500
v 0.341250 0.153750 0.012500
v 0.341250 0.271250 -0.562500
v 0.358750 0.271250 -0.562500
v 0.358750 0.288750 -0.562500
v 0.341250 0.288750 -0.562500
v 0.341250 0.271250 0.012500
v 0.358750 0.271250 0.012500
v 0.358750 0.288750 0.012500
v 0.341250 0.288750 0.012500
v 0.637500 0.020000 -0.756250
v 0.912500 0.020000 -0.756250
v 0.912500 0.140000 -0.756250
v 0.637500 0.140000 -0.756250
v 0.637500 0.020000 -0.643750
v 0.912500 0.020000 -0.643750
v 0.912500 0.140000 -0.643750
v 0.637500 0.140000 -0.643750
vt 0.765625 0.015625
vt 0.984375 0.015625
vt 0.984375 0.234375
vt 0.765625 0.234375
vt 0.765625 0.015625
vt 0.984375 0.015625
vt 0.984375 0.234375
vt 0.765625 0.234375
vt 0.765625 0.015625
vt 0.984375 0.015625
vt 0.984375 0.234375
vt 0.765625 0.234375
vt 0.765625 0.015625
vt 0.984375 0.015625
vt 0.984375 0.234375
vt 0.765625 0.234375
vt 0.765625 0.015625
vt 0.984375 0.015625
vt 0.984375 0.234375
vt 0.765625 0.234375
vt 0.765625 0.015625
vt 0.984375 0.015625
vt 0.984375 0.234375
vt 0.765625 0.234375
vt 0.015625 0.765625
vt 0.234375 0.765625
vt 0.234375 0.984375
vt 0.015625 0.984375
vt 0.015625 0.765625
vt 0.234375 0.765625
vt 0.234375 0.984375
vt 0.015625 0.984375
vt 0.015625 0.765625
vt 0.234375 0.765625
vt 0.234375 0.984375
vt 0.015625 0.984375
vt 0.015625 0.765625
vt 0.234375 0.765625
vt 0.234375 0.984375
vt 0.015625 0.984375
vt 0.015625 0.765625
vt 0.234375 0.765625
vt 0.234375 0.984375
vt 0.015625 0.984375
vt 0.015625 0.765625
vt 0.234375 0.765625
vt 0.234375 0.984375
vt 0.015625 0.984375
vt 0.015625 0.765625
vt 0.234375 0.765625
vt 0.234375 0.984375
vt 0.015625 0.984375
vt 0.015625 0.765625
vt 0.234375 0.765625
vt 0.234375 0.984375
vt 0.015625 0.984375
vt 0.015625 0.765625
vt 0.234375 0.765625
vt 0.234375 0.984375
vt 0.015625 0.984375
vt 0.015625 0.765625
vt 0.234375 0.765625
vt 0.234375 0.984375
vt 0.015625 0.984375
vt 0.015625 0.765625
vt 0.234375 0.765625
vt 0.234375 0.984375
vt 0.015625 0.984375
vt 0.015625 0.765625
vt 0.234375 0.765625
vt 0.234375 0.984375
vt 0.015625 0.984375
vt 0.015625 0.765625
vt 0.234375 0.765625
vt 0.234375 0.984375
vt 0.015625 0.984375
vt 0.015625 0.765625
vt 0.234375 0.765625
vt 0.234375 0.984375
vt 0.015625 0.984375
vt 0.015625 0.765625
vt 0.234375 0.765625
vt 0.234375 0.984375
vt 0.015625 0.984375
vt 0.015625 0.765625
vt 0.234375 0.765625
vt 0.234375 0.984375
vt 0.015625 0.984375
vt 0.015625 0.765625
vt 0.234375 0.765625
vt 0.234375 0.984375
vt 0.015625 0.984375
vt 0.015625 0.765625
vt 0.234375 0.765625
vt 0.234375 0.984375
vt 0.015625 0.984375
vt 0.015625 0.765625
vt 0.234375 0.765625
vt 0.234375 0.984375
vt 0.015625 0.984375
vt 0.015625 0.765625
vt 0.234375 0.765625
vt 0.234375 0.984375
vt 0.015625 0.984375
vt 0.015625 0.765625
vt 0.234375 0.765625
vt 0.234375 0.984375
vt 0.015625 0.984375
vt 0.015625 0.765625
vt 0.234375 0.765625
vt 0.234375 0.984375
vt 0.015625 0.984375
vt 0.015625 0.765625
vt 0.234375 0.765625
vt 0.234375 0.984375
vt 0.015625 0.984375
vt 0.015625 0.765625
vt 0.234375 0.765625
vt 0.234375 0.984375
vt 0.015625 0.984375
vt 0.015625 0.765625
vt 0.234375 0.765625
vt 0.234375 0.984375
vt 0.015625 0.984375
vt 0.015625 0.765625
vt 0.234375 0.765625
vt 0.234375 0.984375
vt 0.015625 0.984375
vt 0.015625 0.765625
vt 0.234375 0.765625
vt 0.234375 0.984375
vt 0.015625 0.984375
vt 0.015625 0.765625
vt 0.234375 0.765625
vt 0.234375 0.984375
vt 0.015625 0.984375
vt 0.015625 0.765625
vt 0.234375 0.765625
vt 0.234375 0.984375
vt 0.015625 0.984375
vt 0.015625 0.765625
vt 0.234375 0.765625
vt 0.234375 0.984375
vt 0.015625 0.984375
vt 0.515625 0.015625
vt 0.734375 0.015625
vt 0.734375 0.234375
vt 0.515625 0.234375
vt 0.515625 0.015625
vt 0.734375 0.015625
vt 0.734375 0.234375
vt 0.515625 0.234375
vt 0.515625 0.015625
vt 0.734375 0.015625
vt 0.734375 0.234375
vt 0.515625 0.234375
vt 0.515625 0.015625
vt 0.734375 0.015625
vt 0.734375 0.234375
vt 0.515625 0.234375
vt 0.515625 0.015625
vt 0.734375 0.015625
vt 0.734375 0.234375
vt 0.515625 0.234375
vt 0.515625 0.015625
vt 0.734375 0.015625
vt 0.734375 0.234375
vt 0.515625 0.234375
vt 0.265625 0.765625
vt 0.484375 0.765625
vt 0.484375 0.984375
vt 0.265625 0.984375
vt 0.265625 0.765625
vt 0.484375 0.765625
vt 0.484375 0.984375
vt 0.265625 0.984375
vt 0.265625 0.765625
vt 0.484375 0.765625
vt 0.484375 0.984375
vt 0.265625 0.984375
vt 0.265625 0.765625
vt 0.484375 0.765625
vt 0.484375 0.984375
vt 0.265625 0.984375
vt 0.265625 0.765625
vt 0.484375 0.765625
vt 0.484375 0.984375
vt 0.265625 0.984375
vt 0.265625 0.765625
vt 0.484375 0.765625
vt 0.484375 0.984375
vt 0.265625 0.984375
vt 0.265625 0.765625
vt 0.484375 0.765625
vt 0.484375 0.984375
vt 0.265625 0.984375
vt 0.265625 0.765625
vt 0.484375 0.765625
vt 0.484375 0.984375
vt 0.265625 0.984375
vt 0.265625 0.765625
vt 0.484375 0.765625
vt 0.484375 0.984375
vt 0.265625 0.984375
vt 0.265625 0.765625
vt 0.484375 0.765625
vt 0.484375 0.984375
vt 0.265625 0.984375
vt 0.265625 0.765625
vt 0.484375 0.765625
vt 0.484375 0.984375
vt 0.265625 0.984375
vt 0.265625 0.765625
vt 0.484375 0.765625
vt 0.484375 0.984375
vt 0.265625 0.984375
vt 0.265625 0.765625
vt 0.484375 0.765625
vt 0.484375 0.984375
vt 0.265625 0.984375
vt 0.265625 0.765625
vt 0.484375 0.765625
vt 0.484375 0.984375
vt 0.265625 0.984375
vt 0.265625 0.765625
vt 0.484375 0.765625
vt 0.484375 0.984375
vt 0.265625 0.984375
vt 0.265625 0.765625
vt 0.484375 0.765625
vt 0.484375 0.984375
vt 0.265625 0.984375
vt 0.265625 0.765625
vt 0.484375 0.765625
vt 0.484375 0.984375
vt 0.265625 0.984375
vt 0.265625 0.765625
vt 0.484375 0.765625
vt 0.484375 0.984375
vt 0.265625 0.984375
vt 0.265625 0.765625
vt 0.484375 0.765625
vt 0.484375 0.984375
vt 0.265625 0.984375
vt 0.265625 0.765625
vt 0.484375 0.765625
vt 0.484375 0.984375
vt 0.265625 0.984375
vt 0.265625 0.765625
vt 0.484375 0.765625
vt 0.484375 0.984375
vt 0.265625 0.984375
vt 0.265625 0.765625
vt 0.484375 0.765625
vt 0.484375 0.984375
vt 0.265625 0.984375
vt 0.265625 0.765625
vt 0.484375 0.765625
vt 0.484375 0.984375
vt 0.265625 0.984375
vt 0.265625 0.765625
vt 0.484375 0.765625
vt 0.484375 0.984375
vt 0.265625 0.984375
vt 0.515625 0.765625
vt 0.734375 0.765625
vt 0.734375 0.984375
vt 0.515625 0.984375
vt 0.515625 0.765625
vt 0.734375 0.765625
vt 0.734375 0.984375
vt 0.515625 0.984375
vt 0.515625 0.765625
vt 0.734375 0.765625
vt 0.734375 0.984375
vt 0.515625 0.984375
vt 0.515625 0.765625
vt 0.734375 0.765625
vt 0.734375 0.984375
vt 0.515625 0.984375
vt 0.515625 0.765625
vt 0.734375 0.765625
vt 0.734375 0.984375
vt 0.515625 0.984375
vt 0.515625 0.765625
vt 0.734375 0.765625
vt 0.734375 0.984375
vt 0.515625 0.984375
vt 0.265625 0.765625
vt 0.484375 0.765625
vt 0.484375 0.984375
vt 0.265625 0.984375
vt 0.265625 0.765625
vt 0.484375 0.765625
vt 0.484375 0.984375
vt 0.265625 0.984375
vt 0.265625 0.765625
vt 0.484375 0.765625
vt 0.484375 0.984375
vt 0.265625 0.984375
vt 0.265625 0.765625
vt 0.484375 0.765625
vt 0.484375 0.984375
vt 0.265625 0.984375
vt 0.265625 0.765625
vt 0.484375 0.765625
vt 0.484375 0.984375
vt 0.265625 0.984375
vt 0.265625 0.765625
vt 0.484375 0.765625
vt 0.484375 0.984375
vt 0.265625 0.984375
vt 0.265625 0.765625
vt 0.484375 0.765625
vt 0.484375 0.984375
vt 0.265625 0.984375
vt 0.265625 0.765625
vt 0.484375 0.765625
vt 0.484375 0.984375
vt 0.265625 0.984375
vt 0.265625 0.765625
vt 0.484375 0.765625
vt 0.484375 0.984375
vt 0.265625 0.984375
vt 0.265625 0.765625
vt 0.484375 0.765625
vt 0.484375 0.984375
vt 0.265625 0.984375
vt 0.265625 0.765625
vt 0.484375 0.765625
vt 0.484375 0.984375
vt 0.265625 0.984375
vt 0.265625 0.765625
vt 0.484375 0.765625
vt 0.484375 0.984375
vt 0.265625 0.984375
vt 0.265625 0.765625
vt 0.484375 0.765625
vt 0.484375 0.984375
vt 0.265625 0.984375
vt 0.265625 0.765625
vt 0.484375 0.765625
vt 0.484375 0.984375
vt 0.265625 0.984375
vt 0.265625 0.765625
vt 0.484375 0.765625
vt 0.484375 0.984375
vt 0.265625 0.984375
vt 0.265625 0.765625
vt 0.484375 0.765625
vt 0.484375 0.984375
vt 0.265625 0.984375
vt 0.265625 0.765625
vt 0.484375 0.765625
vt 0.484375 0.984375
vt 0.265625 0.984375
vt 0.265625 0.765625
vt 0.484375 0.765625
vt 0.484375 0.984375
vt 0.265625 0.984375
vt 0.265625 0.765625
vt 0.484375 0.765625
vt 0.484375 0.984375
vt 0.265625 0.984375
vt 0.265625 0.765625
vt 0.484375 0.765625
vt 0.484375 0.984375
vt 0.265625 0.984375
vt 0.265625 0.765625
vt 0.484375 0.765625
vt 0.484375 0.984375
vt 0.265625 0.984375
vt 0.265625 0.765625
vt 0.484375 0.765625
vt 0.484375 0.984375
vt 0.265625 0.984375
vt 0.265625 0.765625
vt 0.484375 0.765625
vt 0.484375 0.984375
vt 0.265625 0.984375
vt 0.265625 0.765625
vt 0.484375 0.765625
vt 0.484375 0.984375
vt 0.265625 0.984375
vt 0.515625 0.765625
vt 0.734375 0.765625
vt 0.734375 0.984375
vt 0.515625 0.984375
vt 0.515625 0.765625
vt 0.734375 0.765625
vt 0.734375 0.984375
vt 0.515625 0.984375
vt 0.515625 0.765625
vt 0.734375 0.765625
vt 0.734375 0.984375
vt 0.515625 0.984375
vt 0.515625 0.765625
vt 0.734375 0.765625
vt 0.734375 0.984375
vt 0.515625 0.984375
vt 0.515625 0.765625
vt 0.734375 0.765625
vt 0.734375 0.984375
vt 0.515625 0.984375
vt 0.515625 0.765625
vt 0.734375 0.765625
vt 0.734375 0.984375
vt 0.515625 0.984375
vt 0.265625 0.765625
vt 0.484375 0.765625
vt 0.484375 0.984375
vt 0.265625 0.984375
vt 0.265625 0.765625
vt 0.484375 0.765625
vt 0.484375 0.984375
vt 0.265625 0.984375
vt 0.265625 0.765625
vt 0.484375 0.765625
vt 0.484375 0.984375
vt 0.265625 0.984375
vt 0.265625 0.765625
vt 0.484375 0.765625
vt 0.484375 0.984375
vt 0.265625 0.984375
vt 0.265625 0.765625
vt 0.484375 0.765625
vt 0.484375 0.984375
vt 0.265625 0.984375
vt 0.265625 0.765625
vt 0.484375 0.765625
vt 0.484375 0.984375
vt 0.265625 0.984375
vt 0.265625 0.765625
vt 0.484375 0.765625
vt 0.484375 0.984375
vt 0.265625 0.984375
vt 0.265625 0.765625
vt 0.484375 0.765625
vt 0.484375 0.984375
vt 0.265625 0.984375
vt 0.265625 0.765625
vt 0.484375 0.765625
vt 0.484375 0.984375
vt 0.265625 0.984375
vt 0.265625 0.765625
vt 0.484375 0.765625
vt 0.484375 0.984375
vt 0.265625 0.984375
vt 0.265625 0.765625
vt 0.484375 0.765625
vt 0.484375 0.984375
vt 0.265625 0.984375
vt 0.265625 0.765625
vt 0.484375 0.765625
vt 0.484375 0.984375
vt 0.265625 0.984375
vt 0.265625 0.765625
vt 0.484375 0.765625
vt 0.484375 0.984375
vt 0.265625 0.984375
vt 0.265625 0.765625
vt 0.484375 0.765625
vt 0.484375 0.984375
vt 0.265625 0.984375
vt 0.265625 0.765625
vt 0.484375 0.765625
vt 0.484375 0.984375
vt 0.265625 0.984375
vt 0.265625 0.765625
vt 0.484375 0.765625
vt 0.484375 0.984375
vt 0.265625 0.984375
vt 0.265625 0.765625
vt 0.484375 0.765625
vt 0.484375 0.984375
vt 0.265625 0.984375
vt 0.265625 0.765625
vt 0.484375 0.765625
vt 0.484375 0.984375
vt 0.265625 0.984375
vt 0.265625 0.765625
vt 0.484375 0.765625
vt 0.484375 0.984375
vt 0.265625 0.984375
vt 0.265625 0.765625
vt 0.484375 0.765625
vt 0.484375 0.984375
vt 0.265625 0.984375
vt 0.265625 0.765625
vt 0.484375 0.765625
vt 0.484375 0.984375
vt 0.265625 0.984375
vt 0.265625 0.765625
vt 0.484375 0.765625
vt 0.484375 0.984375
vt 0.265625 0.984375
vt 0.265625 0.765625
vt 0.484375 0.765625
vt 0.484375 0.984375
vt 0.265625 0.984375
vt 0.265625 0.765625
vt 0.484375 0.765625
vt 0.484375 0.984375
vt 0.265625 0.984375
vt 0.515625 0.765625
vt 0.734375 0.765625
vt 0.734375 0.984375
vt 0.515625 0.984375
vt 0.515625 0.765625
vt 0.734375 0.765625
vt 0.734375 0.984375
vt 0.515625 0.984375
vt 0.515625 0.765625
vt 0.734375 0.765625
vt 0.734375 0.984375
vt 0.515625 0.984375
vt 0.515625 0.765625
vt 0.734375 0.765625
vt 0.734375 0.984375
vt 0.515625 0.984375
vt 0.515625 0.765625
vt 0.734375 0.765625
vt 0.734375 0.984375
vt 0.515625 0.984375
vt 0.515625 0.765625
vt 0.734375 0.765625
vt 0.734375 0.984375
vt 0.515625 0.984375
vt 0.265625 0.765625
vt 0.484375 0.765625
vt 0.484375 0.984375
vt 0.265625 0.984375
vt 0.265625 0.765625
vt 0.484375 0.765625
vt 0.484375 0.984375
vt 0.265625 0.984375
vt 0.265625 0.765625
vt 0.484375 0.765625
vt 0.484375 0.984375
vt 0.265625 0.984375
vt 0.265625 0.765625
vt 0.484375 0.765625
vt 0.484375 0.984375
vt 0.265625 0.984375
vt 0.265625 0.765625
vt 0.484375 0.765625
vt 0.484375 0.984375
vt 0.265625 0.984375
vt 0.265625 0.765625
vt 0.484375 0.765625
vt 0.484375 0.984375
vt 0.265625 0.984375
vt 0.265625 0.765625
vt 0.484375 0.765625
vt 0.484375 0.984375
vt 0.265625 0.984375
vt 0.265625 0.765625
vt 0.484375 0.765625
vt 0.484375 0.984375
vt 0.265625 0.984375
vt 0.265625 0.765625
vt 0.484375 0.765625
vt 0.484375 0.984375
vt 0.265625 0.984375
vt 0.265625 0.765625
vt 0.484375 0.765625
vt 0.484375 0.984375
vt 0.265625 0.984375
vt 0.265625 0.765625
vt 0.484375 0.765625
vt 0.484375 0.984375
vt 0.265625 0.984375
vt 0.265625 0.765625
vt 0.484375 0.765625
vt 0.484375 0.984375
vt 0.265625 0.984375
vt 0.265625 0.765625
vt 0.484375 0.765625
vt 0.484375 0.984375
vt 0.265625 0.984375
vt 0.265625 0.765625
vt 0.484375 0.765625
vt 0.484375 0.984375
vt 0.265625 0.984375
vt 0.265625 0.765625
vt 0.484375 0.765625
vt 0.484375 0.984375
vt 0.265625 0.984375
vt 0.265625 0.765625
vt 0.484375 0.765625
vt 0.484375 0.984375
vt 0.265625 0.984375
vt 0.265625 0.765625
vt 0.484375 0.765625
vt 0.484375 0.984375
vt 0.265625 0.984375
vt 0.265625 0.765625
vt 0.484375 0.765625
vt 0.484375 0.984375
vt 0.265625 0.984375
vt 0.265625 0.765625
vt 0.484375 0.765625
vt 0.484375 0.984375
vt 0.265625 0.984375
vt 0.265625 0.765625
vt 0.484375 0.765625
vt 0.484375 0.984375
vt 0.265625 0.984375
vt 0.265625 0.765625
vt 0.484375 0.765625
vt 0.484375 0.984375
vt 0.265625 0.984375
vt 0.265625 0.765625
vt 0.484375 0.765625
vt 0.484375 0.984375
vt 0.265625 0.984375
vt 0.265625 0.765625
vt 0.484375 0.765625
vt 0.484375 0.984375
vt 0.265625 0.984375
vt 0.265625 0.765625
vt 0.484375 0.765625
vt 0.484375 0.984375
vt 0.265625 0.984375
vt 0.515625 0.765625
vt 0.734375 0.765625
vt 0.734375 0.984375
vt 0.515625 0.984375
vt 0.515625 0.765625
vt 0.734375 0.765625
vt 0.734375 0.984375
vt 0.515625 0.984375
vt 0.515625 0.765625
vt 0.734375 0.765625
vt 0.734375 0.984375
vt 0.515625 0.984375
vt 0.515625 0.765625
vt 0.734375 0.765625
vt 0.734375 0.984375
vt 0.515625 0.984375
vt 0.515625 0.765625
vt 0.734375 0.765625
vt 0.734375 0.984375
vt 0.515625 0.984375
vt 0.515625 0.765625
vt 0.734375 0.765625
vt 0.734375 0.984375
vt 0.515625 0.984375
vt 0.515625 0.765625
vt 0.734375 0.765625
vt 0.734375 0.984375
vt 0.515625 0.984375
vt 0.515625 0.765625
vt 0.734375 0.765625
vt 0.734375 0.984375
vt 0.515625 0.984375
vt 0.515625 0.765625
vt 0.734375 0.765625
vt 0.734375 0.984375
vt 0.515625 0.984375
vt 0.515625 0.765625
vt 0.734375 0.765625
vt 0.734375 0.984375
vt 0.515625 0.984375
vt 0.515625 0.765625
vt 0.734375 0.765625
vt 0.734375 0.984375
vt 0.515625 0.984375
vt 0.515625 0.765625
vt 0.734375 0.765625
vt 0.734375 0.984375
vt 0.515625 0.984375
vt 0.015625 0.015625
vt 0.234375 0.015625
vt 0.234375 0.234375
vt 0.015625 0.234375
vt 0.015625 0.015625
vt 0.234375 0.015625
vt 0.234375 0.234375
vt 0.015625 0.234375
vt 0.015625 0.015625
vt 0.234375 0.015625
vt 0.234375 0.234375
vt 0.015625 0.234375
vt 0.015625 0.015625
vt 0.234375 0.015625
vt 0.234375 0.234375
vt 0.015625 0.234375
vt 0.015625 0.015625
vt 0.234375 0.015625
vt 0.234375 0.234375
vt 0.015625 0.234375
vt 0.015625 0.015625
vt 0.234375 0.015625
vt 0.234375 0.234375
vt 0.015625 0.234375
vt 0.015625 0.015625
vt 0.234375 0.015625
vt 0.234375 0.234375
vt 0.015625 0.234375
vt 0.015625 0.015625
vt 0.234375 0.015625
vt 0.234375 0.234375
vt 0.015625 0.234375
vt 0.015625 0.015625
vt 0.234375 0.015625
vt 0.234375 0.234375
vt 0.015625 0.234375
vt 0.015625 0.015625
vt 0.234375 0.015625
vt 0.234375 0.234375
vt 0.015625 0.234375
vt 0.015625 0.015625
vt 0.234375 0.015625
vt 0.234375 0.234375
vt 0.015625 0.234375
vt 0.015625 0.015625
vt 0.234375 0.015625
vt 0.234375 0.234375
vt 0.015625 0.234375
vt 0.015625 0.015625
vt 0.234375 0.015625
vt 0.234375 0.234375
vt 0.015625 0.015625
vt 0.234375 0.015625
vt 0.234375 0.234375
vt 0.015625 0.015625
vt 0.234375 0.015625
vt 0.234375 0.234375
vt 0.015625 0.015625
vt 0.234375 0.015625
vt 0.234375 0.234375
vt 0.265625 0.765625
vt 0.484375 0.765625
vt 0.484375 0.984375
vt 0.265625 0.984375
vt 0.265625 0.765625
vt 0.484375 0.765625
vt 0.484375 0.984375
vt 0.265625 0.984375
vt 0.265625 0.765625
vt 0.484375 0.765625
vt 0.484375 0.984375
vt 0.265625 0.984375
vt 0.265625 0.765625
vt 0.484375 0.765625
vt 0.484375 0.984375
vt 0.265625 0.984375
vt 0.265625 0.765625
vt 0.484375 0.765625
vt 0.484375 0.984375
vt 0.265625 0.984375
vt 0.265625 0.765625
vt 0.484375 0.765625
vt 0.484375 0.984375
vt 0.265625 0.984375
vt 0.265625 0.765625
vt 0.484375 0.765625
vt 0.484375 0.984375
vt 0.265625 0.984375
vt 0.265625 0.765625
vt 0.484375 0.765625
vt 0.484375 0.984375
vt 0.265625 0.984375
vt 0.265625 0.765625
vt 0.484375 0.765625
vt 0.484375 0.984375
vt 0.265625 0.984375
vt 0.265625 0.765625
vt 0.484375 0.765625
vt 0.484375 0.984375
vt 0.265625 0.984375
vt 0.265625 0.765625
vt 0.484375 0.765625
vt 0.484375 0.984375
vt 0.265625 0.984375
vt 0.265625 0.765625
vt 0.484375 0.765625
vt 0.484375 0.984375
vt 0.265625 0.984375
vt 0.515625 0.765625
vt 0.734375 0.765625
vt 0.734375 0.984375
vt 0.515625 0.984375
vt 0.515625 0.765625
vt 0.734375 0.765625
vt 0.734375 0.984375
vt 0.515625 0.984375
vt 0.515625 0.765625
vt 0.734375 0.765625
vt 0.734375 0.984375
vt 0.515625 0.984375
vt 0.515625 0.765625
vt 0.734375 0.765625
vt 0.734375 0.984375
vt 0.515625 0.984375
vt 0.515625 0.765625
vt 0.734375 0.765625
vt 0.734375 0.984375
vt 0.515625 0.984375
vt 0.515625 0.765625
vt 0.734375 0.765625
vt 0.734375 0.984375
vt 0.515625 0.984375
vt 0.515625 0.765625
vt 0.734375 0.765625
vt 0.734375 0.984375
vt 0.515625 0.984375
vt 0.515625 0.765625
vt 0.734375 0.765625
vt 0.734375 0.984375
vt 0.515625 0.984375
vt 0.515625 0.765625
vt 0.734375 0.765625
vt 0.734375 0.984375
vt 0.515625 0.984375
vt 0.515625 0.765625
vt 0.734375 0.765625
vt 0.734375 0.984375
vt 0.515625 0.984375
vt 0.515625 0.765625
vt 0.734375 0.765625
vt 0.734375 0.984375
vt 0.515625 0.984375
vt 0.515625 0.765625
vt 0.734375 0.765625
vt 0.734375 0.984375
vt 0.515625 0.984375
vt 0.265625 0.765625
vt 0.484375 0.765625
vt 0.484375 0.984375
vt 0.265625 0.984375
vt 0.265625 0.765625
vt 0.484375 0.765625
vt 0.484375 0.984375
vt 0.265625 0.984375
vt 0.265625 0.765625
vt 0.484375 0.765625
vt 0.484375 0.984375
vt 0.265625 0.984375
vt 0.265625 0.765625
vt 0.484375 0.765625
vt 0.484375 0.984375
vt 0.265625 0.984375
vt 0.265625 0.765625
vt 0.484375 0.765625
vt 0.484375 0.984375
vt 0.265625 0.984375
vt 0.265625 0.765625
vt 0.484375 0.765625
vt 0.484375 0.984375
vt 0.265625 0.984375
vt 0.265625 0.765625
vt 0.484375 0.765625
vt 0.484375 0.984375
vt 0.265625 0.984375
vt 0.265625 0.765625
vt 0.484375 0.765625
vt 0.484375 0.984375
vt 0.265625 0.984375
vt 0.265625 0.765625
vt 0.484375 0.765625
vt 0.484375 0.984375
vt 0.265625 0.984375
vt 0.265625 0.765625
vt 0.484375 0.765625
vt 0.484375 0.984375
vt 0.265625 0.984375
vt 0.265625 0.765625
vt 0.484375 0.765625
vt 0.484375 0.984375
vt 0.265625 0.984375
vt 0.265625 0.765625
vt 0.484375 0.765625
vt 0.484375 0.984375
vt 0.265625 0.984375
vt 0.515625 0.765625
vt 0.734375 0.765625
vt 0.734375 0.984375
vt 0.515625 0.984375
vt 0.515625 0.765625
vt 0.734375 0.765625
vt 0.734375 0.984375
vt 0.515625 0.984375
vt 0.515625 0.765625
vt 0.734375 0.765625
vt 0.734375 0.984375
vt 0.515625 0.984375
vt 0.515625 0.765625
vt 0.734375 0.765625
vt 0.734375 0.984375
vt 0.515625 0.984375
vt 0.515625 0.765625
vt 0.734375 0.765625
vt 0.734375 0.984375
vt 0.515625 0.984375
vt 0.515625 0.765625
vt 0.734375 0.765625
vt 0.734375 0.984375
vt 0.515625 0.984375
vt 0.515625 0.765625
vt 0.734375 0.765625
vt 0.734375 0.984375
vt 0.515625 0.984375
vt 0.515625 0.765625
vt 0.734375 0.765625
vt 0.734375 0.984375
vt 0.515625 0.984375
vt 0.515625 0.765625
vt 0.734375 0.765625
vt 0.734375 0.984375
vt 0.515625 0.984375
vt 0.515625 0.765625
vt 0.734375 0.765625
vt 0.734375 0.984375
vt 0.515625 0.984375
vt 0.515625 0.765625
vt 0.734375 0.765625
vt 0.734375 0.984375
vt 0.515625 0.984375
vt 0.515625 0.765625
vt 0.734375 0.765625
vt 0.734375 0.984375
vt 0.515625 0.984375
vt 0.265625 0.765625
vt 0.484375 0.765625
vt 0.484375 0.984375
vt 0.265625 0.984375
vt 0.265625 0.765625
vt 0.484375 0.765625
vt 0.484375 0.984375
vt 0.265625 0.984375
vt 0.265625 0.765625
vt 0.484375 0.765625
vt 0.484375 0.984375
vt 0.265625 0.984375
vt 0.265625 0.765625
vt 0.484375 0.765625
vt 0.484375 0.984375
vt 0.265625 0.984375
vt 0.265625 0.765625
vt 0.484375 0.765625
vt 0.484375 0.984375
vt 0.265625 0.984375
vt 0.265625 0.765625
vt 0.484375 0.765625
vt 0.484375 0.984375
vt 0.265625 0.984375
vt 0.265625 0.765625
vt 0.484375 0.765625
vt 0.484375 0.984375
vt 0.265625 0.984375
vt 0.265625 0.765625
vt 0.484375 0.765625
vt 0.484375 0.984375
vt 0.265625 0.984375
vt 0.265625 0.765625
vt 0.484375 0.765625
vt 0.484375 0.984375
vt 0.265625 0.984375
vt 0.265625 0.765625
vt 0.484375 0.765625
vt 0.484375 0.984375
vt 0.265625 0.984375
vt 0.265625 0.765625
vt 0.484375 0.765625
vt 0.484375 0.984375
vt 0.265625 0.984375
vt 0.265625 0.765625
vt 0.484375 0.765625
vt 0.484375 0.984375
vt 0.265625 0.984375
vt 0.515625 0.765625
vt 0.734375 0.765625
vt 0.734375 0.984375
vt 0.515625 0.984375
vt 0.515625 0.765625
vt 0.734375 0.765625
vt 0.734375 0.984375
vt 0.515625 0.984375
vt 0.515625 0.765625
vt 0.734375 0.765625
vt 0.734375 0.984375
vt 0.515625 0.984375
vt 0.515625 0.765625
vt 0.734375 0.765625
vt 0.734375 0.984375
vt 0.515625 0.984375
vt 0.515625 0.765625
vt 0.734375 0.765625
vt 0.734375 0.984375
vt 0.515625 0.984375
vt 0.515625 0.765625
vt 0.734375 0.765625
vt 0.734375 0.984375
vt 0.515625 0.984375
vt 0.515625 0.765625
vt 0.734375 0.765625
vt 0.734375 0.984375
vt 0.515625 0.984375
vt 0.515625 0.765625
vt 0.734375 0.765625
vt 0.734375 0.984375
vt 0.515625 0.984375
vt 0.515625 0.765625
vt 0.734375 0.765625
vt 0.734375 0.984375
vt 0.515625 0.984375
vt 0.515625 0.765625
vt 0.734375 0.765625
vt 0.734375 0.984375
vt 0.515625 0.984375
vt 0.515625 0.765625
vt 0.734375 0.765625
vt 0.734375 0.984375
vt 0.515625 0.984375
vt 0.515625 0.765625
vt 0.734375 0.765625
vt 0.734375 0.984375
vt 0.515625 0.984375
vt 0.515625 0.765625
vt 0.734375 0.765625
vt 0.734375 0.984375
vt 0.515625 0.984375
vt 0.515625 0.765625
vt 0.734375 0.765625
vt 0.734375 0.984375
vt 0.515625 0.984375
vt 0.515625 0.765625
vt 0.734375 0.765625
vt 0.734375 0.984375
vt 0.515625 0.984375
vt 0.515625 0.765625
vt 0.734375 0.765625
vt 0.734375 0.984375
vt 0.515625 0.984375
vt 0.515625 0.765625
vt 0.734375 0.765625
vt 0.734375 0.984375
vt 0.515625 0.984375
vt 0.515625 0.765625
vt 0.734375 0.765625
vt 0.734375 0.984375
vt 0.515625 0.984375
vt 0.515625 0.765625
vt 0.734375 0.765625
vt 0.734375 0.984375
vt 0.515625 0.984375
vt 0.515625 0.765625
vt 0.734375 0.765625
vt 0.734375 0.984375
vt 0.515625 0.984375
vt 0.515625 0.765625
vt 0.734375 0.765625
vt 0.734375 0.984375
vt 0.515625 0.984375
vt 0.515625 0.765625
vt 0.734375 0.765625
vt 0.734375 0.984375
vt 0.515625 0.984375
vt 0.515625 0.765625
vt 0.734375 0.765625
vt 0.734375 0.984375
vt 0.515625 0.984375
vt 0.515625 0.765625
vt 0.734375 0.765625
vt 0.734375 0.984375
vt 0.515625 0.984375
vt 0.265625 0.015625
vt 0.484375 0.015625
vt 0.484375 0.234375
vt 0.265625 0.234375
vt 0.265625 0.015625
vt 0.484375 0.015625
vt 0.484375 0.234375
vt 0.265625 0.234375
vt 0.265625 0.015625
vt 0.484375 0.015625
vt 0.484375 0.234375
vt 0.265625 0.234375
vt 0.265625 0.015625
vt 0.484375 0.015625
vt 0.484375 0.234375
vt 0.265625 0.234375
vt 0.265625 0.015625
vt 0.484375 0.015625
vt 0.484375 0.234375
vt 0.265625 0.234375
vt 0.265625 0.015625
vt 0.484375 0.015625
vt 0.484375 0.234375
vt 0.265625 0.234375
vt 0.265625 0.765625
vt 0.484375 0.765625
vt 0.484375 0.984375
vt 0.265625 0.984375
vt 0.265625 0.765625
vt 0.484375 0.765625
vt 0.484375 0.984375
vt 0.265625 0.984375
vt 0.265625 0.765625
vt 0.484375 0.765625
vt 0.484375 0.984375
vt 0.265625 0.984375
vt 0.265625 0.765625
vt 0.484375 0.765625
vt 0.484375 0.984375
vt 0.265625 0.984375
vt 0.265625 0.765625
vt 0.484375 0.765625
vt 0.484375 0.984375
vt 0.265625 0.984375
vt 0.265625 0.765625
vt 0.484375 0.765625
vt 0.484375 0.984375
vt 0.265625 0.984375
vt 0.265625 0.765625
vt 0.484375 0.765625
vt 0.484375 0.984375
vt 0.265625 0.984375
vt 0.265625 0.765625
vt 0.484375 0.765625
vt 0.484375 0.984375
vt 0.265625 0.984375
vt 0.265625 0.765625
vt 0.484375 0.765625
vt 0.484375 0.984375
vt 0.265625 0.984375
vt 0.265625 0.765625
vt 0.484375 0.765625
vt 0.484375 0.984375
vt 0.265625 0.984375
vt 0.265625 0.765625
vt 0.484375 0.765625
vt 0.484375 0.984375
vt 0.265625 0.984375
vt 0.265625 0.765625
vt 0.484375 0.765625
vt 0.484375 0.984375
vt 0.265625 0.984375
vt 0.515625 0.765625
vt 0.734375 0.765625
vt 0.734375 0.984375
vt 0.515625 0.984375
vt 0.515625 0.765625
vt 0.734375 0.765625
vt 0.734375 0.984375
vt 0.515625 0.984375
vt 0.515625 0.765625
vt 0.734375 0.765625
vt 0.734375 0.984375
vt 0.515625 0.984375
vt 0.515625 0.765625
vt 0.734375 0.765625
vt 0.734375 0.984375
vt 0.515625 0.984375
vt 0.515625 0.765625
vt 0.734375 0.765625
vt 0.734375 0.984375
vt 0.515625 0.984375
vt 0.515625 0.765625
vt 0.734375 0.765625
vt 0.734375 0.984375
vt 0.515625 0.984375
vt 0.515625 0.765625
vt 0.734375 0.765625
vt 0.734375 0.984375
vt 0.515625 0.984375
vt 0.515625 0.765625
vt 0.734375 0.765625
vt 0.734375 0.984375
vt 0.515625 0.984375
vt 0.515625 0.765625
vt 0.734375 0.765625
vt 0.734375 0.984375
vt 0.515625 0.984375
vt 0.515625 0.765625
vt 0.734375 0.765625
vt 0.734375 0.984375
vt 0.515625 0.984375
vt 0.515625 0.765625
vt 0.734375 0.765625
vt 0.734375 0.984375
vt 0.515625 0.984375
vt 0.515625 0.765625
vt 0.734375 0.765625
vt 0.734375 0.984375
vt 0.515625 0.984375
vt 0.265625 0.765625
vt 0.484375 0.765625
vt 0.484375 0.984375
vt 0.265625 0.984375
vt 0.265625 0.765625
vt 0.484375 0.765625
vt 0.484375 0.984375
vt 0.265625 0.984375
vt 0.265625 0.765625
vt 0.484375 0.765625
vt 0.484375 0.984375
vt 0.265625 0.984375
vt 0.265625 0.765625
vt 0.484375 0.765625
vt 0.484375 0.984375
vt 0.265625 0.984375
vt 0.265625 0.765625
vt 0.484375 0.765625
vt 0.484375 0.984375
vt 0.265625 0.984375
vt 0.265625 0.765625
vt 0.484375 0.765625
vt 0.484375 0.984375
vt 0.265625 0.984375
vt 0.265625 0.765625
vt 0.484375 0.765625
vt 0.484375 0.984375
vt 0.265625 0.984375
vt 0.265625 0.765625
vt 0.484375 0.765625
vt 0.484375 0.984375
vt 0.265625 0.984375
vt 0.265625 0.765625
vt 0.484375 0.765625
vt 0.484375 0.984375
vt 0.265625 0.984375
vt 0.265625 0.765625
vt 0.484375 0.765625
vt 0.484375 0.984375
vt 0.265625 0.984375
vt 0.265625 0.765625
vt 0.484375 0.765625
vt 0.484375 0.984375
vt 0.265625 0.984375
vt 0.265625 0.765625
vt 0.484375 0.765625
vt 0.484375 0.984375
vt 0.265625 0.984375
vt 0.515625 0.765625
vt 0.734375 0.765625
vt 0.734375 0.984375
vt 0.515625 0.984375
vt 0.515625 0.765625
vt 0.734375 0.765625
vt 0.734375 0.984375
vt 0.515625 0.984375
vt 0.515625 0.765625
vt 0.734375 0.765625
vt 0.734375 0.984375
vt 0.515625 0.984375
vt 0.515625 0.765625
vt 0.734375 0.765625
vt 0.734375 0.984375
vt 0.515625 0.984375
vt 0.515625 0.765625
vt 0.734375 0.765625
vt 0.734375 0.984375
vt 0.515625 0.984375
vt 0.515625 0.765625
vt 0.734375 0.765625
vt 0.734375 0.984375
vt 0.515625 0.984375
vt 0.515625 0.765625
vt 0.734375 0.765625
vt 0.734375 0.984375
vt 0.515625 0.984375
vt 0.515625 0.765625
vt 0.734375 0.765625
vt 0.734375 0.984375
vt 0.515625 0.984375
vt 0.515625 0.765625
vt 0.734375 0.765625
vt 0.734375 0.984375
vt 0.515625 0.984375
vt 0.515625 0.765625
vt 0.734375 0.765625
vt 0.734375 0.984375
vt 0.515625 0.984375
vt 0.515625 0.765625
vt 0.734375 0.765625
vt 0.734375 0.984375
vt 0.515625 0.984375
vt 0.515625 0.765625
vt 0.734375 0.765625
vt 0.734375 0.984375
vt 0.515625 0.984375
vt 0.265625 0.765625
vt 0.484375 0.765625
vt 0.484375 0.984375
vt 0.265625 0.984375
vt 0.265625 0.765625
vt 0.484375 0.765625
vt 0.484375 0.984375
vt 0.265625 0.984375
vt 0.265625 0.765625
vt 0.484375 0.765625
vt 0.484375 0.984375
vt 0.265625 0.984375
vt 0.265625 0.765625
vt 0.484375 0.765625
vt 0.484375 0.984375
vt 0.265625 0.984375
vt 0.265625 0.765625
vt 0.484375 0.765625
vt 0.484375 0.984375
vt 0.265625 0.984375
vt 0.265625 0.765625
vt 0.484375 0.765625
vt 0.484375 0.984375
vt 0.265625 0.984375
vt 0.265625 0.765625
vt 0.484375 0.765625
vt 0.484375 0.984375
vt 0.265625 0.984375
vt 0.265625 0.765625
vt 0.484375 0.765625
vt 0.484375 0.984375
vt 0.265625 0.984375
vt 0.265625 0.765625
vt 0.484375 0.765625
vt 0.484375 0.984375
vt 0.265625 0.984375
vt 0.265625 0.765625
vt 0.484375 0.765625
vt 0.484375 0.984375
vt 0.265625 0.984375
vt 0.265625 0.765625
vt 0.484375 0.765625
vt 0.484375 0.984375
vt 0.265625 0.984375
vt 0.265625 0.765625
vt 0.484375 0.765625
vt 0.484375 0.984375
vt 0.265625 0.984375
vt 0.515625 0.765625
vt 0.734375 0.765625
vt 0.734375 0.984375
vt 0.515625 0.984375
vt 0.515625 0.765625
vt 0.734375 0.765625
vt 0.734375 0.984375
vt 0.515625 0.984375
vt 0.515625 0.765625
vt 0.734375 0.765625
vt 0.734375 0.984375
vt 0.515625 0.984375
vt 0.515625 0.765625
vt 0.734375 0.765625
vt 0.734375 0.984375
vt 0.515625 0.984375
vt 0.515625 0.765625
vt 0.734375 0.765625
vt 0.734375 0.984375
vt 0.515625 0.984375
vt 0.515625 0.765625
vt 0.734375 0.765625
vt 0.734375 0.984375
vt 0.515625 0.984375
vt 0.515625 0.765625
vt 0.734375 0.765625
vt 0.734375 0.984375
vt 0.515625 0.984375
vt 0.515625 0.765625
vt 0.734375 0.765625
vt 0.734375 0.984375
vt 0.515625 0.984375
vt 0.515625 0.765625
vt 0.734375 0.765625
vt 0.734375 0.984375
vt 0.515625 0.984375
vt 0.515625 0.765625
vt 0.734375 0.765625
vt 0.734375 0.984375
vt 0.515625 0.984375
vt 0.515625 0.765625
vt 0.734375 0.765625
vt 0.734375 0.984375
vt 0.515625 0.984375
vt 0.515625 0.765625
vt 0.734375 0.765625
vt 0.734375 0.984375
vt 0.515625 0.984375
vt 0.515625 0.765625
vt 0.734375 0.765625
vt 0.734375 0.984375
vt 0.515625 0.984375
vt 0.515625 0.765625
vt 0.734375 0.765625
vt 0.734375 0.984375
vt 0.515625 0.984375
vt 0.515625 0.765625
vt 0.734375 0.765625
vt 0.734375 0.984375
vt 0.515625 0.984375
vt 0.515625 0.765625
vt 0.734375 0.765625
vt 0.734375 0.984375
vt 0.515625 0.984375
vt 0.515625 0.765625
vt 0.734375 0.765625
vt 0.734375 0.984375
vt 0.515625 0.984375
vt 0.515625 0.765625
vt 0.734375 0.765625
vt 0.734375 0.984375
vt 0.515625 0.984375
vt 0.515625 0.765625
vt 0.734375 0.765625
vt 0.734375 0.984375
vt 0.515625 0.984375
vt 0.515625 0.765625
vt 0.734375 0.765625
vt 0.734375 0.984375
vt 0.515625 0.984375
vt 0.515625 0.765625
vt 0.734375 0.765625
vt 0.734375 0.984375
vt 0.515625 0.984375
vt 0.515625 0.765625
vt 0.734375 0.765625
vt 0.734375 0.984375
vt 0.515625 0.984375
vt 0.515625 0.765625
vt 0.734375 0.765625
vt 0.734375 0.984375
vt 0.515625 0.984375
vt 0.515625 0.765625
vt 0.734375 0.765625
vt 0.734375 0.984375
vt 0.515625 0.984375
vt 0.265625 0.015625
vt 0.484375 0.015625
vt 0.484375 0.234375
vt 0.265625 0.234375
vt 0.265625 0.015625
vt 0.484375 0.015625
vt 0.484375 0.234375
vt 0.265625 0.234375
vt 0.265625 0.015625
vt 0.484375 0.015625
vt 0.484375 0.234375
vt 0.265625 0.234375
vt 0.265625 0.015625
vt 0.484375 0.015625
vt 0.484375 0.234375
vt 0.265625 0.234375
vt 0.265625 0.015625
vt 0.484375 0.015625
vt 0.484375 0.234375
vt 0.265625 0.234375
vt 0.265625 0.015625
vt 0.484375 0.015625
vt 0.484375 0.234375
vt 0.265625 0.234375
vn 0.00000000 0.00000000 -1.00000000
vn 0.00000000 0.00000000 1.00000000
vn -1.00000000 0.00000000 0.00000000
vn 1.00000000 0.00000000 0.00000000
vn 0.00000000 -1.00000000 0.00000000
vn 0.00000000 1.00000000 0.00000000
vn 0.00000000 0.00000000 -1.00000000
vn 0.00000000 0.00000000 1.00000000
vn -1.00000000 0.00000000 0.00000000
vn 1.00000000 0.00000000 0.00000000
vn 0.00000000 -1.00000000 0.00000000
vn 0.00000000 1.00000000 0.00000000
vn 0.00000000 0.00000000 -1.00000000
vn 0.00000000 0.00000000 1.00000000
vn -1.00000000 0.00000000 0.00000000
vn 1.00000000 0.00000000 0.00000000
vn 0.00000000 -1.00000000 0.00000000
vn 0.00000000 1.00000000 0.00000000
vn 0.00000000 0.00000000 -1.00000000
vn 0.00000000 0.00000000 1.00000000
vn -1.00000000 0.00000000 0.00000000
vn 1.00000000 0.00000000 0.00000000
vn 0.00000000 -1.00000000 0.00000000
vn 0.00000000 1.00000000 0.00000000
vn 0.00000000 0.00000000 -1.00000000
vn 0.00000000 0.00000000 1.00000000
vn -1.00000000 0.00000000 0.00000000
vn 1.00000000 0.00000000 0.00000000
vn 0.00000000 -1.00000000 0.00000000
vn 0.00000000 1.00000000 0.00000000
vn 0.00000000 0.00000000 -1.00000000
vn 0.00000000 0.00000000 1.00000000
vn -1.00000000 0.00000000 0.00000000
vn 1.00000000 0.00000000 0.00000000
vn 0.00000000 -1.00000000 0.00000000
vn 0.00000000 1.00000000 0.00000000
vn 0.00000000 0.00000000 -1.00000000
vn 0.00000000 0.00000000 1.00000000
vn -1.00000000 0.00000000 0.00000000
vn 1.00000000 0.00000000 0.00000000
vn 0.00000000 -1.00000000 0.00000000
vn 0.00000000 1.00000000 0.00000000
vn 0.00000000 0.00000000 -1.00000000
vn 0.00000000 0.00000000 1.00000000
vn -1.00000000 0.00000000 0.00000000
vn 1.00000000 0.00000000 0.00000000
vn 0.00000000 -1.00000000 0.00000000
vn 0.00000000 1.00000000 0.00000000
vn -0.93113229 -0.36468158 0.00000000
vn 0.93113229 0.36468158 -0.00000000
vn 0.00000000 0.00000000 -1.00000000
vn -0.00000000 0.00000000 1.00000000
vn -0.36467433 0.93113513 0.00000000
vn 0.36467433 -0.93113513 0.00000000
vn 0.00000000 0.00000000 -1.00000000
vn 0.00000000 0.00000000 1.00000000
vn -1.00000000 0.00000000 0.00000000
vn 1.00000000 0.00000000 0.00000000
vn 0.00000000 -1.00000000 0.00000000
vn 0.00000000 1.00000000 0.00000000
vn 0.93113229 -0.36468158 0.00000000
vn -0.93113229 0.36468158 0.00000000
vn 0.00000000 0.00000000 1.00000000
vn -0.00000000 0.00000000 -1.00000000
vn 0.36467433 0.93113513 0.00000000
vn -0.36467433 -0.93113513 0.00000000
vn 0.00000000 0.00000000 -1.00000000
vn 0.00000000 0.00000000 1.00000000
vn -1.00000000 0.00000000 0.00000000
vn 1.00000000 0.00000000 0.00000000
vn 0.00000000 -1.00000000 0.00000000
vn 0.00000000 1.00000000 0.00000000
vn 0.00000000 0.00000000 -1.00000000
vn 0.00000000 0.00000000 1.00000000
vn -1.00000000 0.00000000 0.00000000
vn 1.00000000 0.00000000 0.00000000
vn 0.00000000 -1.00000000 0.00000000
vn 0.00000000 1.00000000 0.00000000
vn -0.93113229 -0.36468158 0.00000000
vn 0.93113229 0.36468158 -0.00000000
vn 0.00000000 0.00000000 -1.00000000
vn -0.00000000 0.00000000 1.00000000
vn -0.36467433 0.93113513 0.00000000
vn 0.36467433 -0.93113513 0.00000000
vn 0.00000000 0.00000000 -1.00000000
vn 0.00000000 0.00000000 1.00000000
vn -1.00000000 0.00000000 0.00000000
vn 1.00000000 0.00000000 0.00000000
vn 0.00000000 -1.00000000 0.00000000
vn 0.00000000 1.00000000 0.00000000
vn 0.93113229 -0.36468158 0.00000000
vn -0.93113229 0.36468158 0.00000000
vn 0.00000000 0.00000000 1.00000000
vn -0.00000000 0.00000000 -1.00000000
vn 0.36467433 0.93113513 0.00000000
vn -0.36467433 -0.93113513 0.00000000
vn 0.00000000 0.00000000 -1.00000000
vn 0.00000000 0.00000000 1.00000000
vn -1.00000000 0.00000000 0.00000000
vn 1.00000000 0.00000000 0.00000000
vn 0.00000000 -1.00000000 0.00000000
vn 0.00000000 1.00000000 0.00000000
vn 0.00000000 0.00000000 -1.00000000
vn 0.00000000 0.00000000 1.00000000
vn -1.00000000 0.00000000 0.00000000
vn 1.00000000 0.00000000 0.00000000
vn 0.00000000 -1.00000000 0.00000000
vn 0.00000000 1.00000000 0.00000000
vn -0.93113229 -0.36468158 0.00000000
vn 0.93113229 0.36468158 -0.00000000
vn 0.00000000 0.00000000 -1.00000000
vn -0.00000000 0.00000000 1.00000000
vn -0.36467433 0.93113513 0.00000000
vn 0.36467433 -0.93113513 0.00000000
vn 0.00000000 0.00000000 -1.00000000
vn 0.00000000 0.00000000 1.00000000
vn -1.00000000 0.00000000 0.00000000
vn 1.00000000 0.00000000 0.00000000
vn 0.00000000 -1.00000000 0.00000000
vn 0.00000000 1.00000000 0.00000000
vn 0.93113229 -0.36468158 0.00000000
vn -0.93113229 0.36468158 0.00000000
vn 0.00000000 0.00000000 1.00000000
vn -0.00000000 0.00000000 -1.00000000
vn 0.36467433 0.93113513 0.00000000
vn -0.36467433 -0.93113513 0.00000000
vn 0.00000000 0.00000000 -1.00000000
vn 0.00000000 0.00000000 1.00000000
vn -1.00000000 0.00000000 0.00000000
vn 1.00000000 0.00000000 0.00000000
vn 0.00000000 -1.00000000 0.00000000
vn 0.00000000 1.00000000 0.00000000
vn 0.00000000 0.00000000 -1.00000000
vn 0.00000000 0.00000000 1.00000000
vn -1.00000000 0.00000000 0.00000000
vn 1.00000000 0.00000000 0.00000000
vn 0.00000000 -1.00000000 0.00000000
vn 0.00000000 1.00000000 0.00000000
vn -0.93113229 -0.36468158 0.00000000
vn 0.93113229 0.36468158 -0.00000000
vn 0.00000000 0.00000000 -1.00000000
vn -0.00000000 0.00000000 1.00000000
vn -0.36467433 0.93113513 0.00000000
vn 0.36467433 -0.93113513 0.00000000
vn 0.00000000 0.00000000 -1.00000000
vn 0.00000000 0.00000000 1.00000000
vn -1.00000000 0.00000000 0.00000000
vn 1.00000000 0.00000000 0.00000000
vn 0.00000000 -1.00000000 0.00000000
vn 0.00000000 1.00000000 0.00000000
vn 0.93113229 -0.36468158 0.00000000
vn -0.93113229 0.36468158 0.00000000
vn 0.00000000 0.00000000 1.00000000
vn -0.00000000 0.00000000 -1.00000000
vn 0.36467433 0.93113513 0.00000000
vn -0.36467433 -0.93113513 0.00000000
vn 0.00000000 0.00000000 -1.00000000
vn 0.00000000 0.00000000 1.00000000
vn -1.00000000 0.00000000 0.00000000
vn 1.00000000 0.00000000 0.00000000
vn 0.00000000 -1.00000000 0.00000000
vn 0.00000000 1.00000000 0.00000000
vn 0.00000000 -0.00000000 -1.00000000
vn 0.00000000 0.00000000 1.00000000
vn 1.00000000 0.00000000 -0.00000000
vn -1.00000000 0.00000000 0.00000000
vn 0.00000000 1.00000000 0.00000000
vn 0.00000000 -1.00000000 0.00000000
vn -0.93632918 -0.35112344 0.00000000
vn 0.93632918 0.35112344 -0.00000000
vn 0.00000000 0.00000000 -1.00000000
vn -0.00000000 0.00000000 1.00000000
vn -0.35112344 0.93632918 0.00000000
vn 0.35112344 -0.93632918 0.00000000
vn 0.93632918 -0.35112344 0.00000000
vn -0.93632918 0.35112344 0.00000000
vn 0.00000000 0.00000000 1.00000000
vn -0.00000000 0.00000000 -1.00000000
vn 0.35112344 0.93632918 0.00000000
vn -0.35112344 -0.93632918 0.00000000
vn 0.00000000 -0.00000000 -1.00000000
vn 0.00000000 0.00000000 1.00000000
vn 0.00000000 0.00000000 1.00000000
vn 0.00000000 -0.00000000 -1.00000000
vn 0.00000000 0.00000000 -1.00000000
vn 0.00000000 0.00000000 1.00000000
vn -1.00000000 0.00000000 0.00000000
vn 1.00000000 0.00000000 0.00000000
vn 0.00000000 -1.00000000 0.00000000
vn 0.00000000 1.00000000 0.00000000
vn 0.00000000 0.00000000 -1.00000000
vn 0.00000000 0.00000000 1.00000000
vn -1.00000000 0.00000000 0.00000000
vn 1.00000000 0.00000000 0.00000000
vn 0.00000000 -1.00000000 0.00000000
vn 0.00000000 1.00000000 0.00000000
vn 0.00000000 0.00000000 -1.00000000
vn 0.00000000 0.00000000 1.00000000
vn -1.00000000 0.00000000 0.00000000
vn 1.00000000 0.00000000 0.00000000
vn 0.00000000 -1.00000000 0.00000000
vn 0.00000000 1.00000000 0.00000000
vn 0.00000000 0.00000000 -1.00000000
vn 0.00000000 0.00000000 1.00000000
vn -1.00000000 0.00000000 0.00000000
vn 1.00000000 0.00000000 0.00000000
vn 0.00000000 -1.00000000 0.00000000
vn 0.00000000 1.00000000 0.00000000
vn 0.00000000 0.00000000 -1.00000000
vn 0.00000000 0.00000000 1.00000000
vn -1.00000000 0.00000000 0.00000000
vn 1.00000000 0.00000000 0.00000000
vn 0.00000000 -1.00000000 0.00000000
vn 0.00000000 1.00000000 0.00000000
vn 0.00000000 0.00000000 -1.00000000
vn 0.00000000 0.00000000 1.00000000
vn -1.00000000 0.00000000 0.00000000
vn 1.00000000 0.00000000 0.00000000
vn 0.00000000 -1.00000000 0.00000000
vn 0.00000000 1.00000000 0.00000000
vn 0.00000000 0.00000000 -1.00000000
vn 0.00000000 0.00000000 1.00000000
vn -1.00000000 0.00000000 0.00000000
vn 1.00000000 0.00000000 0.00000000
vn 0.00000000 -1.00000000 0.00000000
vn 0.00000000 1.00000000 0.00000000
vn 0.00000000 0.00000000 -1.00000000
vn 0.00000000 0.00000000 1.00000000
vn -1.00000000 0.00000000 0.00000000
vn 1.00000000 0.00000000 0.00000000
vn 0.00000000 -1.00000000 0.00000000
vn 0.00000000 1.00000000 0.00000000
vn 0.00000000 0.00000000 -1.00000000
vn 0.00000000 0.00000000 1.00000000
vn -1.00000000 0.00000000 0.00000000
vn 1.00000000 0.00000000 0.00000000
vn 0.00000000 -1.00000000 0.00000000
vn 0.00000000 1.00000000 0.00000000
vn 0.00000000 0.00000000 -1.00000000
vn 0.00000000 0.00000000 1.00000000
vn -1.00000000 0.00000000 0.00000000
vn 1.00000000 0.00000000 0.00000000
vn 0.00000000 -1.00000000 0.00000000
vn 0.00000000 1.00000000 0.00000000
vn 0.00000000 0.00000000 -1.00000000
vn 0.00000000 0.00000000 1.00000000
vn -1.00000000 0.00000000 0.00000000
vn 1.00000000 0.00000000 0.00000000
vn 0.00000000 -1.00000000 0.00000000
vn 0.00000000 1.00000000 0.00000000
vn 0.00000000 0.00000000 -1.00000000
vn 0.00000000 0.00000000 1.00000000
vn -1.00000000 0.00000000 0.00000000
vn 1.00000000 0.00000000 0.00000000
vn 0.00000000 -1.00000000 0.00000000
vn 0.00000000 1.00000000 0.00000000
vn 0.00000000 0.00000000 -1.00000000
vn 0.00000000 0.00000000 1.00000000
vn -1.00000000 0.00000000 0.00000000
vn 1.00000000 0.00000000 0.00000000
vn 0.00000000 -1.00000000 0.00000000
vn 0.00000000 1.00000000 0.00000000
vn 0.00000000 0.00000000 -1.00000000
vn 0.00000000 0.00000000 1.00000000
vn -1.00000000 0.00000000 0.00000000
vn 1.00000000 0.00000000 0.00000000
vn 0.00000000 -1.00000000 0.00000000
vn 0.00000000 1.00000000 0.00000000
vn 0.00000000 0.00000000 -1.00000000
vn 0.00000000 0.00000000 1.00000000
vn -1.00000000 0.00000000 0.00000000
vn 1.00000000 0.00000000 0.00000000
vn 0.00000000 -1.00000000 0.00000000
vn 0.00000000 1.00000000 0.00000000
vn 0.00000000 0.00000000 -1.00000000
vn 0.00000000 0.00000000 1.00000000
vn -1.00000000 0.00000000 0.00000000
vn 1.00000000 0.00000000 0.00000000
vn 0.00000000 -1.00000000 0.00000000
vn 0.00000000 1.00000000 0.00000000
vn 0.00000000 0.00000000 -1.00000000
vn 0.00000000 0.00000000 1.00000000
vn -1.00000000 0.00000000 0.00000000
vn 1.00000000 0.00000000 0.00000000
vn 0.00000000 -1.00000000 0.00000000
vn 0.00000000 1.00000000 0.00000000
vn 0.00000000 0.00000000 -1.00000000
vn 0.00000000 0.00000000 1.00000000
vn -1.00000000 0.00000000 0.00000000
vn 1.00000000 0.00000000 0.00000000
vn 0.00000000 -1.00000000 0.00000000
vn 0.00000000 1.00000000 0.00000000
vn 0.00000000 0.00000000 -1.00000000
vn 0.00000000 0.00000000 1.00000000
vn -1.00000000 0.00000000 0.00000000
vn 1.00000000 0.00000000 0.00000000
vn 0.00000000 -1.00000000 0.00000000
vn 0.00000000 1.00000000 0.00000000
vn 0.00000000 0.00000000 -1.00000000
vn 0.00000000 0.00000000 1.00000000
vn -1.00000000 0.00000000 0.00000000
vn 1.00000000 0.00000000 0.00000000
vn 0.00000000 -1.00000000 0.00000000
vn 0.00000000 1.00000000 0.00000000
vn 0.00000000 0.00000000 -1.00000000
vn 0.00000000 0.00000000 1.00000000
vn -1.00000000 0.00000000 0.00000000
vn 1.00000000 0.00000000 0.00000000
vn 0.00000000 -1.00000000 0.00000000
vn 0.00000000 1.00000000 0.00000000
vn 0.00000000 0.00000000 -1.00000000
vn 0.00000000 0.00000000 1.00000000
vn -1.00000000 0.00000000 0.00000000
vn 1.00000000 0.00000000 0.00000000
vn 0.00000000 -1.00000000 0.00000000
vn 0.00000000 1.00000000 0.00000000
vn 0.00000000 0.00000000 -1.00000000
vn 0.00000000 0.00000000 1.00000000
vn -1.00000000 0.00000000 0.00000000
vn 1.00000000 0.00000000 0.00000000
vn 0.00000000 -1.00000000 0.00000000
vn 0.00000000 1.00000000 0.00000000
vn 0.00000000 0.00000000 -1.00000000
vn 0.00000000 0.00000000 1.00000000
vn -1.00000000 0.00000000 0.00000000
vn 1.00000000 0.00000000 0.00000000
vn 0.00000000 -1.00000000 0.00000000
vn 0.00000000 1.00000000 0.00000000
vn 0.00000000 0.00000000 -1.00000000
vn 0.00000000 0.00000000 1.00000000
vn -1.00000000 0.00000000 0.00000000
vn 1.00000000 0.00000000 0.00000000
vn 0.00000000 -1.00000000 0.00000000
vn 0.00000000 1.00000000 0.00000000
vn 0.00000000 0.00000000 -1.00000000
vn 0.00000000 0.00000000 1.00000000
vn -1.00000000 0.00000000 0.00000000
vn 1.00000000 0.00000000 0.00000000
vn 0.00000000 -1.00000000 0.00000000
vn 0.00000000 1.00000000 0.00000000
vn 0.00000000 0.00000000 -1.00000000
vn 0.00000000 0.00000000 1.00000000
vn -1.00000000 0.00000000 0.00000000
vn 1.00000000 0.00000000 0.00000000
vn 0.00000000 -1.00000000 0.00000000
vn 0.00000000 1.00000000 0.00000000
vn 0.00000000 0.00000000 -1.00000000
vn 0.00000000 0.00000000 1.00000000
vn -1.00000000 0.00000000 0.00000000
vn 1.00000000 0.00000000 0.00000000
vn 0.00000000 -1.00000000 0.00000000
vn 0.00000000 1.00000000 0.00000000
vn 0.00000000 0.00000000 -1.00000000
vn 0.00000000 0.00000000 1.00000000
vn -1.00000000 0.00000000 0.00000000
vn 1.00000000 0.00000000 0.00000000
vn 0.00000000 -1.00000000 0.00000000
vn 0.00000000 1.00000000 0.00000000
vn 0.00000000 0.00000000 -1.00000000
vn 0.00000000 0.00000000 1.00000000
vn -1.00000000 0.00000000 0.00000000
vn 1.00000000 0.00000000 0.00000000
vn 0.00000000 -1.00000000 0.00000000
vn 0.00000000 1.00000000 0.00000000
f 1/1/1 4/2/1 3/3/1
f 1/1/1 3/3/1 2/4/1
f 5/5/2 6/6/2 7/7/2
f 5/5/2 7/7/2 8/8/2
f 1/9/3 5/10/3 8/11/3
f 1/9/3 8/11/3 4/12/3
f 2/13/4 3/14/4 7/15/4
f 2/13/4 7/15/4 6/16/4
f 1/17/5 2/18/5 6/19/5
f 1/17/5 6/19/5 5/20/5
f 4/21/6 8/22/6 7/23/6
f 4/21/6 7/23/6 3/24/6
f 1/25/7 11/26/7 10/27/7
f 1/25/7 10/27/7 9/28/7
f 5/29/8 12/30/8 13/31/8
f 5/29/8 13/31/8 14/32/8
f 1/33/9 5/34/9 14/35/9
f 1/33/9 14/35/9 11/36/9
f 9/37/10 10/38/10 13/39/10
f 9/37/10 13/39/10 12/40/10
f 1/41/11 9/42/11 12/43/11
f 1/41/11 12/43/11 5/44/11
f 11/45/12 14/46/12 13/47/12
f 11/45/12 13/47/12 10/48/12
f 15/49/13 17/50/13 16/51/13
f 15/49/13 16/51/13 2/52/13
f 18/53/14 6/54/14 19/55/14
f 18/53/14 19/55/14 20/56/14
f 15/57/15 18/58/15 20/59/15
f 15/57/15 20/59/15 17/60/15
f 2/61/16 16/62/16 19/63/16
f 2/61/16 19/63/16 6/64/16
f 15/65/17 2/66/17 6/67/17
f 15/65/17 6/67/17 18/68/17
f 17/69/18 20/70/18 19/71/18
f 17/69/18 19/71/18 16/72/18
f 9/73/19 10/74/19 17/75/19
f 9/73/19 17/75/19 15/76/19
f 21/77/20 22/78/20 23/79/20
f 21/77/20 23/79/20 24/80/20
f 9/81/21 21/82/21 24/83/21
f 9/81/21 24/83/21 10/84/21
f 15/85/22 17/86/22 23/87/22
f 15/85/22 23/87/22 22/88/22
f 9/89/23 15/90/23 22/91/23
f 9/89/23 22/91/23 21/92/23
f 10/93/24 24/94/24 23/95/24
f 10/93/24 23/95/24 17/96/24
f 25/97/25 28/98/25 27/99/25
f 25/97/25 27/99/25 26/100/25
f 12/101/26 29/102/26 30/103/26
f 12/101/26 30/103/26 13/104/26
f 25/105/27 12/106/27 13/107/27
f 25/105/27 13/107/27 28/108/27
f 26/109/28 27/110/28 30/111/28
f 26/109/28 30/111/28 29/112/28
f 25/113/29 26/114/29 29/115/29
f 25/113/29 29/115/29 12/116/29
f 28/117/30 13/118/30 30/119/30
f 28/117/30 30/119/30 27/120/30
f 31/121/31 34/122/31 33/123/31
f 31/121/31 33/123/31 32/124/31
f 35/125/32 18/126/32 20/127/32
f 35/125/32 20/127/32 36/128/32
f 31/129/33 35/130/33 36/131/33
f 31/129/33 36/131/33 34/132/33
f 32/133/34 33/134/34 20/135/34
f 32/133/34 20/135/34 18/136/34
f 31/137/35 32/138/35 18/139/35
f 31/137/35 18/139/35 35/140/35
f 34/141/36 36/142/36 20/143/36
f 34/141/36 20/143/36 33/144/36
f 37/145/37 27/146/37 34/147/37
f 37/145/37 34/147/37 38/148/37
f 39/149/38 40/150/38 36/151/38
f 39/149/38 36/151/38 30/152/38
f 37/153/39 39/154/39 30/155/39
f 37/153/39 30/155/39 27/156/39
f 38/157/40 34/158/40 36/159/40
f 38/157/40 36/159/40 40/160/40
f 37/161/41 38/162/41 40/163/41
f 37/161/41 40/163/41 39/164/41
f 27/165/42 30/166/42 36/167/42
f 27/165/42 36/167/42 34/168/42
f 41/169/43 44/170/43 43/171/43
f 41/169/43 43/171/43 42/172/43
f 45/173/44 46/174/44 47/175/44
f 45/173/44 47/175/44 48/176/44
f 41/177/45 45/178/45 48/179/45
f 41/177/45 48/179/45 44/180/45
f 42/181/46 43/182/46 47/183/46
f 42/181/46 47/183/46 46/184/46
f 41/185/47 42/186/47 46/187/47
f 41/185/47 46/187/47 45/188/47
f 44/189/48 48/190/48 47/191/48
f 44/189/48 47/191/48 43/192/48
f 49/193/49 50/194/49 51/195/49
f 49/193/49 51/195/49 52/196/49
f 53/197/50 54/198/50 55/199/50
f 53/197/50 55/199/50 56/200/50
f 49/201/51 53/202/51 56/203/51
f 49/201/51 56/203/51 50/204/51
f 52/205/52 51/206/52 55/207/52
f 52/205/52 55/207/52 54/208/52
f 49/209/53 52/210/53 54/211/53
f 49/209/53 54/211/53 53/212/53
f 50/213/54 56/214/54 55/215/54
f 50/213/54 55/215/54 51/216/54
f 57/217/55 60/218/55 59/219/55
f 57/217/55 59/219/55 58/220/55
f 61/221/56 62/222/56 63/223/56
f 61/221/56 63/223/56 64/224/56
f 57/225/57 61/226/57 64/227/57
f 57/225/57 64/227/57 60/228/57
f 58/229/58 59/230/58 63/231/58
f 58/229/58 63/231/58 62/232/58
f 57/233/59 58/234/59 62/235/59
f 57/233/59 62/235/59 61/236/59
f 60/237/60 64/238/60 63/239/60
f 60/237/60 63/239/60 59/240/60
f 65/241/61 66/242/61 67/243/61
f 65/241/61 67/243/61 68/244/61
f 69/245/62 70/246/62 71/247/62
f 69/245/62 71/247/62 72/248/62
f 65/249/63 69/250/63 72/251/63
f 65/249/63 72/251/63 66/252/63
f 68/253/64 67/254/64 71/255/64
f 68/253/64 71/255/64 70/256/64
f 65/257/65 68/258/65 70/259/65
f 65/257/65 70/259/65 69/260/65
f 66/261/66 72/262/66 71/263/66
f 66/261/66 71/263/66 67/264/66
f 73/265/67 76/266/67 75/267/67
f 73/265/67 75/267/67 74/268/67
f 77/269/68 78/270/68 79/271/68
f 77/269/68 79/271/68 80/272/68
f 73/273/69 77/274/69 80/275/69
f 73/273/69 80/275/69 76/276/69
f 74/277/70 75/278/70 79/279/70
f 74/277/70 79/279/70 78/280/70
f 73/281/71 74/282/71 78/283/71
f 73/281/71 78/283/71 77/284/71
f 76/285/72 80/286/72 79/287/72
f 76/285/72 79/287/72 75/288/72
f 81/289/73 84/290/73 83/291/73
f 81/289/73 83/291/73 82/292/73
f 85/293/74 86/294/74 87/295/74
f 85/293/74 87/295/74 88/296/74
f 81/297/75 85/298/75 88/299/75
f 81/297/75 88/299/75 84/300/75
f 82/301/76 83/302/76 87/303/76
f 82/301/76 87/303/76 86/304/76
f 81/305/77 82/306/77 86/307/77
f 81/305/77 86/307/77 85/308/77
f 84/309/78 88/310/78 87/311/78
f 84/309/78 87/311/78 83/312/78
f 89/313/79 90/314/79 91/315/79
f 89/313/79 91/315/79 92/316/79
f 93/317/80 94/318/80 95/319/80
f 93/317/80 95/319/80 96/320/80
f 89/321/81 93/322/81 96/323/81
f 89/321/81 96/323/81 90/324/81
f 92/325/82 91/326/82 95/327/82
f 92/325/82 95/327/82 94/328/82
f 89/329/83 92/330/83 94/331/83
f 89/329/83 94/331/83 93/332/83
f 90/333/84 96/334/84 95/335/84
f 90/333/84 95/335/84 91/336/84
f 97/337/85 100/338/85 99/339/85
f 97/337/85 99/339/85 98/340/85
f 101/341/86 102/342/86 103/343/86
f 101/341/86 103/343/86 104/344/86
f 97/345/87 101/346/87 104/347/87
f 97/345/87 104/347/87 100/348/87
f 98/349/88 99/350/88 103/351/88
f 98/349/88 103/351/88 102/352/88
f 97/353/89 98/354/89 102/355/89
f 97/353/89 102/355/89 101/356/89
f 100/357/90 104/358/90 103/359/90
f 100/357/90 103/359/90 99/360/90
f 105/361/91 106/362/91 107/363/91
f 105/361/91 107/363/91 108/364/91
f 109/365/92 110/366/92 111/367/92
f 109/365/92 111/367/92 112/368/92
f 105/369/93 109/370/93 112/371/93
f 105/369/93 112/371/93 106/372/93
f 108/373/94 107/374/94 111/375/94
f 108/373/94 111/375/94 110/376/94
f 105/377/95 108/378/95 110/379/95
f 105/377/95 110/379/95 109/380/95
f 106/381/96 112/382/96 111/383/96
f 106/381/96 111/383/96 107/384/96
f 113/385/97 116/386/97 115/387/97
f 113/385/97 115/387/97 114/388/97
f 117/389/98 118/390/98 119/391/98
f 117/389/98 119/391/98 120/392/98
f 113/393/99 117/394/99 120/395/99
f 113/393/99 120/395/99 116/396/99
f 114/397/100 115/398/100 119/399/100
f 114/397/100 119/399/100 118/400/100
f 113/401/101 114/402/101 118/403/101
f 113/401/101 118/403/101 117/404/101
f 116/405/102 120/406/102 119/407/102
f 116/405/102 119/407/102 115/408/102
f 121/409/103 124/410/103 123/411/103
f 121/409/103 123/411/103 122/412/103
f 125/413/104 126/414/104 127/415/104
f 125/413/104 127/415/104 128/416/104
f 121/417/105 125/418/105 128/419/105
f 121/417/105 128/419/105 124/420/105
f 122/421/106 123/422/106 127/423/106
f 122/421/106 127/423/106 126/424/106
f 121/425/107 122/426/107 126/427/107
f 121/425/107 126/427/107 125/428/107
f 124/429/108 128/430/108 127/431/108
f 124/429/108 127/431/108 123/432/108
f 129/433/109 130/434/109 131/435/109
f 129/433/109 131/435/109 132/436/109
f 133/437/110 134/438/110 135/439/110
f 133/437/110 135/439/110 136/440/110
f 129/441/111 133/442/111 136/443/111
f 129/441/111 136/443/111 130/444/111
f 132/445/112 131/446/112 135/447/112
f 132/445/112 135/447/112 134/448/112
f 129/449/113 132/450/113 134/451/113
f 129/449/113 134/451/113 133/452/113
f 130/453/114 136/454/114 135/455/114
f 130/453/114 135/455/114 131/456/114
f 137/457/115 140/458/115 139/459/115
f 137/457/115 139/459/115 138/460/115
f 141/461/116 142/462/116 143/463/116
f 141/461/116 143/463/116 144/464/116
f 137/465/117 141/466/117 144/467/117
f 137/465/117 144/467/117 140/468/117
f 138/469/118 139/470/118 143/471/118
f 138/469/118 143/471/118 142/472/118
f 137/473/119 138/474/119 142/475/119
f 137/473/119 142/475/119 141/476/119
f 140/477/120 144/478/120 143/479/120
f 140/477/120 143/479/120 139/480/120
f 145/481/121 146/482/121 147/483/121
f 145/481/121 147/483/121 148/484/121
f 149/485/122 150/486/122 151/487/122
f 149/485/122 151/487/122 152/488/122
f 145/489/123 149/490/123 152/491/123
f 145/489/123 152/491/123 146/492/123
f 148/493/124 147/494/124 151/495/124
f 148/493/124 151/495/124 150/496/124
f 145/497/125 148/498/125 150/499/125
f 145/497/125 150/499/125 149/500/125
f 146/501/126 152/502/126 151/503/126
f 146/501/126 151/503/126 147/504/126
f 153/505/127 156/506/127 155/507/127
f 153/505/127 155/507/127 154/508/127
f 157/509/128 158/510/128 159/511/128
f 157/509/128 159/511/128 160/512/128
f 153/513/129 157/514/129 160/515/129
f 153/513/129 160/515/129 156/516/129
f 154/517/130 155/518/130 159/519/130
f 154/517/130 159/519/130 158/520/130
f 153/521/131 154/522/131 158/523/131
f 153/521/131 158/523/131 157/524/131
f 156/525/132 160/526/132 159/527/132
f 156/525/132 159/527/132 155/528/132
f 161/529/133 164/530/133 163/531/133
f 161/529/133 163/531/133 162/532/133
f 165/533/134 166/534/134 167/535/134
f 165/533/134 167/535/134 168/536/134
f 161/537/135 165/538/135 168/539/135
f 161/537/135 168/539/135 164/540/135
f 162/541/136 163/542/136 167/543/136
f 162/541/136 167/543/136 166/544/136
f 161/545/137 162/546/137 166/547/137
f 161/545/137 166/547/137 165/548/137
f 164/549/138 168/550/138 167/551/138
f 164/549/138 167/551/138 163/552/138
f 169/553/139 170/554/139 171/555/139
f 169/553/139 171/555/139 172/556/139
f 173/557/140 174/558/140 175/559/140
f 173/557/140 175/559/140 176/560/140
f 169/561/141 173/562/141 176/563/141
f 169/561/141 176/563/141 170/564/141
f 172/565/142 171/566/142 175/567/142
f 172/565/142 175/567/142 174/568/142
f 169/569/143 172/570/143 174/571/143
f 169/569/143 174/571/143 173/572/143
f 170/573/144 176/574/144 175/575/144
f 170/573/144 175/575/144 171/576/144
f 177/577/145 180/578/145 179/579/145
f 177/577/145 179/579/145 178/580/145
f 181/581/146 182/582/146 183/583/146
f 181/581/146 183/583/146 184/584/146
f 177/585/147 181/586/147 184/587/147
f 177/585/147 184/587/147 180/588/147
f 178/589/148 179/590/148 183/591/148
f 178/589/148 183/591/148 182/592/148
f 177/593/149 178/594/149 182/595/149
f 177/593/149 182/595/149 181/596/149
f 180/597/150 184/598/150 183/599/150
f 180/597/150 183/599/150 179/600/150
f 185/601/151 186/602/151 187/603/151
f 185/601/151 187/603/151 188/604/151
f 189/605/152 190/606/152 191/607/152
f 189/605/152 191/607/152 192/608/152
f 185/609/153 189/610/153 192/611/153
f 185/609/153 192/611/153 186/612/153
f 188/613/154 187/614/154 191/615/154
f 188/613/154 191/615/154 190/616/154
f 185/617/155 188/618/155 190/619/155
f 185/617/155 190/619/155 189/620/155
f 186/621/156 192/622/156 191/623/156
f 186/621/156 191/623/156 187/624/156
f 193/625/157 196/626/157 195/627/157
f 193/625/157 195/627/157 194/628/157
f 197/629/158 198/630/158 199/631/158
f 197/629/158 199/631/158 200/632/158
f 193/633/159 197/634/159 200/635/159
f 193/633/159 200/635/159 196/636/159
f 194/637/160 195/638/160 199/639/160
f 194/637/160 199/639/160 198/640/160
f 193/641/161 194/642/161 198/643/161
f 193/641/161 198/643/161 197/644/161
f 196/645/162 200/646/162 199/647/162
f 196/645/162 199/647/162 195/648/162
f 201/649/163 202/650/163 203/651/163
f 201/649/163 203/651/163 204/652/163
f 205/653/164 206/654/164 207/655/164
f 205/653/164 207/655/164 208/656/164
f 201/657/165 205/658/165 208/659/165
f 201/657/165 208/659/165 202/660/165
f 204/661/166 203/662/166 207/663/166
f 204/661/166 207/663/166 206/664/166
f 201/665/167 204/666/167 206/667/167
f 201/665/167 206/667/167 205/668/167
f 202/669/168 208/670/168 207/671/168
f 202/669/168 207/671/168 203/672/168
f 209/673/169 210/674/169 211/675/169
f 209/673/169 211/675/169 212/676/169
f 213/677/170 214/678/170 215/679/170
f 213/677/170 215/679/170 216/680/170
f 209/681/171 213/682/171 216/683/171
f 209/681/171 216/683/171 210/684/171
f 212/685/172 211/686/172 215/687/172
f 212/685/172 215/687/172 214/688/172
f 209/689/173 212/690/173 214/691/173
f 209/689/173 214/691/173 213/692/173
f 210/693/174 216/694/174 215/695/174
f 210/693/174 215/695/174 211/696/174
f 217/697/175 218/698/175 219/699/175
f 217/697/175 219/699/175 220/700/175
f 221/701/176 222/702/176 223/703/176
f 221/701/176 223/703/176 224/704/176
f 217/705/177 221/706/177 224/707/177
f 217/705/177 224/707/177 218/708/177
f 220/709/178 219/710/178 223/711/178
f 220/709/178 223/711/178 222/712/178
f 217/713/179 220/714/179 222/715/179
f 217/713/179 222/715/179 221/716/179
f 218/717/180 224/718/180 223/719/180
f 218/717/180 223/719/180 219/720/180
f 225/721/181 226/722/181 227/723/181
f 227/724/182 226/725/182 225/726/182
f 228/727/183 229/728/183 230/729/183
f 230/730/184 229/731/184 228/732/184
f 231/733/185 234/734/185 233/735/185
f 231/733/185 233/735/185 232/736/185
f 235/737/186 236/738/186 237/739/186
f 235/737/186 237/739/186 238/740/186
f 231/741/187 235/742/187 238/743/187
f 231/741/187 238/743/187 234/744/187
f 232/745/188 233/746/188 237/747/188
f 232/745/188 237/747/188 236/748/188
f 231/749/189 232/750/189 236/751/189
f 231/749/189 236/751/189 235/752/189
f 234/753/190 238/754/190 237/755/190
f 234/753/190 237/755/190 233/756/190
f 239/757/191 242/758/191 241/759/191
f 239/757/191 241/759/191 240/760/191
f 243/761/192 244/762/192 245/763/192
f 243/761/192 245/763/192 246/764/192
f 239/765/193 243/766/193 246/767/193
f 239/765/193 246/767/193 242/768/193
f 240/769/194 241/770/194 245/771/194
f 240/769/194 245/771/194 244/772/194
f 239/773/195 240/774/195 244/775/195
f 239/773/195 244/775/195 243/776/195
f 242/777/196 246/778/196 245/779/196
f 242/777/196 245/779/196 241/780/196
f 247/781/197 250/782/197 249/783/197
f 247/781/197 249/783/197 248/784/197
f 251/785/198 252/786/198 253/787/198
f 251/785/198 253/787/198 254/788/198
f 247/789/199 251/790/199 254/791/199
f 247/789/199 254/791/199 250/792/199
f 248/793/200 249/794/200 253/795/200
f 248/793/200 253/795/200 252/796/200
f 247/797/201 248/798/201 252/799/201
f 247/797/201 252/799/201 251/800/201
f 250/801/202 254/802/202 253/803/202
f 250/801/202 253/803/202 249/804/202
f 255/805/203 258/806/203 257/807/203
f 255/805/203 257/807/203 256/808/203
f 259/809/204 260/810/204 261/811/204
f 259/809/204 261/811/204 262/812/204
f 255/813/205 259/814/205 262/815/205
f 255/813/205 262/815/205 258/816/205
f 256/817/206 257/818/206 261/819/206
f 256/817/206 261/819/206 260/820/206
f 255/821/207 256/822/207 260/823/207
f 255/821/207 260/823/207 259/824/207
f 258/825/208 262/826/208 261/827/208
f 258/825/208 261/827/208 257/828/208
f 263/829/209 266/830/209 265/831/209
f 263/829/209 265/831/209 264/832/209
f 267/833/210 268/834/210 269/835/210
f 267/833/210 269/835/210 270/836/210
f 263/837/211 267/838/211 270/839/211
f 263/837/211 270/839/211 266/840/211
f 264/841/212 265/842/212 269/843/212
f 264/841/212 269/843/212 268/844/212
f 263/845/213 264/846/213 268/847/213
f 263/845/213 268/847/213 267/848/213
f 266/849/214 270/850/214 269/851/214
f 266/849/214 269/851/214 265/852/214
f 271/853/215 274/854/215 273/855/215
f 271/853/215 273/855/215 272/856/215
f 275/857/216 276/858/216 277/859/216
f 275/857/216 277/859/216 278/860/216
f 271/861/217 275/862/217 278/863/217
f 271/861/217 278/863/217 274/864/217
f 272/865/218 273/866/218 277/867/218
f 272/865/218 277/867/218 276/868/218
f 271/869/219 272/870/219 276/871/219
f 271/869/219 276/871/219 275/872/219
f 274/873/220 278/874/220 277/875/220
f 274/873/220 277/875/220 273/876/220
f 279/877/221 282/878/221 281/879/221
f 279/877/221 281/879/221 280/880/221
f 283/881/222 284/882/222 285/883/222
f 283/881/222 285/883/222 286/884/222
f 279/885/223 283/886/223 286/887/223
f 279/885/223 286/887/223 282/888/223
f 280/889/224 281/890/224 285/891/224
f 280/889/224 285/891/224 284/892/224
f 279/893/225 280/894/225 284/895/225
f 279/893/225 284/895/225 283/896/225
f 282/897/226 286/898/226 285/899/226
f 282/897/226 285/899/226 281/900/226
f 287/901/227 290/902/227 289/903/227
f 287/901/227 289/903/227 288/904/227
f 291/905/228 292/906/228 293/907/228
f 291/905/228 293/907/228 294/908/228
f 287/909/229 291/910/229 294/911/229
f 287/909/229 294/911/229 290/912/229
f 288/913/230 289/914/230 293/915/230
f 288/913/230 293/915/230 292/916/230
f 287/917/231 288/918/231 292/919/231
f 287/917/231 292/919/231 291/920/231
f 290/921/232 294/922/232 293/923/232
f 290/921/232 293/923/232 289/924/232
f 295/925/233 298/926/233 297/927/233
f 295/925/233 297/927/233 296/928/233
f 299/929/234 300/930/234 301/931/234
f 299/929/234 301/931/234 302/932/234
f 295/933/235 299/934/235 302/935/235
f 295/933/235 302/935/235 298/936/235
f 296/937/236 297/938/236 301/939/236
f 296/937/236 301/939/236 300/940/236
f 295/941/237 296/942/237 300/943/237
f 295/941/237 300/943/237 299/944/237
f 298/945/238 302/946/238 301/947/238
f 298/945/238 301/947/238 297/948/238
f 303/949/239 306/950/239 305/951/239
f 303/949/239 305/951/239 304/952/239
f 307/953/240 308/954/240 309/955/240
f 307/953/240 309/955/240 310/956/240
f 303/957/241 307/958/241 310/959/241
f 303/957/241 310/959/241 306/960/241
f 304/961/242 305/962/242 309/963/242
f 304/961/242 309/963/242 308/964/242
f 303/965/243 304/966/243 308/967/243
f 303/965/243 308/967/243 307/968/243
f 306/969/244 310/970/244 309/971/244
f 306/969/244 309/971/244 305/972/244
f 311/973/245 314/974/245 313/975/245
f 311/973/245 313/975/245 312/976/245
f 315/977/246 316/978/246 317/979/246
f 315/977/246 317/979/246 318/980/246
f 311/981/247 315/982/247 318/983/247
f 311/981/247 318/983/247 314/984/247
f 312/985/248 313/986/248 317/987/248
f 312/985/248 317/987/248 316/988/248
f 311/989/249 312/990/249 316/991/249
f 311/989/249 316/991/249 315/992/249
f 314/993/250 318/994/250 317/995/250
f 314/993/250 317/995/250 313/996/250
f 319/997/251 322/998/251 321/999/251
f 319/997/251 321/999/251 320/1000/251
f 323/1001/252 324/1002/252 325/1003/252
f 323/1001/252 325/1003/252 326/1004/252
f 319/1005/253 323/1006/253 326/1007/253
f 319/1005/253 326/1007/253 322/1008/253
f 320/1009/254 321/1010/254 325/1011/254
f 320/1009/254 325/1011/254 324/1012/254
f 319/1013/255 320/1014/255 324/1015/255
f 319/1013/255 324/1015/255 323/1016/255
f 322/1017/256 326/1018/256 325/1019/256
f 322/1017/256 325/1019/256 321/1020/256
f 327/1021/257 330/1022/257 329/1023/257
f 327/1021/257 329/1023/257 328/1024/257
f 331/1025/258 332/1026/258 333/1027/258
f 331/1025/258 333/1027/258 334/1028/258
f 327/1029/259 331/1030/259 334/1031/259
f 327/1029/259 334/1031/259 330/1032/259
f 328/1033/260 329/1034/260 333/1035/260
f 328/1033/260 333/1035/260 332/1036/260
f 327/1037/261 328/1038/261 332/1039/261
f 327/1037/261 332/1039/261 331/1040/261
f 330/1041/262 334/1042/262 333/1043/262
f 330/1041/262 333/1043/262 329/1044/262
f 335/1045/263 338/1046/263 337/1047/263
f 335/1045/263 337/1047/263 336/1048/263
f 339/1049/264 340/1050/264 341/1051/264
f 339/1049/264 341/1051/264 342/1052/264
f 335/1053/265 339/1054/265 342/1055/265
f 335/1053/265 342/1055/265 338/1056/265
f 336/1057/266 337/1058/266 341/1059/266
f 336/1057/266 341/1059/266 340/1060/266
f 335/1061/267 336/1062/267 340/1063/267
f 335/1061/267 340/1063/267 339/1064/267
f 338/1065/268 342/1066/268 341/1067/268
f 338/1065/268 341/1067/268 337/1068/268
f 343/1069/269 346/1070/269 345/1071/269
f 343/1069/269 345/1071/269 344/1072/269
f 347/1073/270 348/1074/270 349/1075/270
f 347/1073/270 349/1075/270 350/1076/270
f 343/1077/271 347/1078/271 350/1079/271
f 343/1077/271 350/1079/271 346/1080/271
f 344/1081/272 345/1082/272 349/1083/272
f 344/1081/272 349/1083/272 348/1084/272
f 343/1085/273 344/1086/273 348/1087/273
f 343/1085/273 348/1087/273 347/1088/273
f 346/1089/274 350/1090/274 349/1091/274
f 346/1089/274 349/1091/274 345/1092/274
f 351/1093/275 354/1094/275 353/1095/275
f 351/1093/275 353/1095/275 352/1096/275
f 355/1097/276 356/1098/276 357/1099/276
f 355/1097/276 357/1099/276 358/1100/276
f 351/1101/277 355/1102/277 358/1103/277
f 351/1101/277 358/1103/277 354/1104/277
f 352/1105/278 353/1106/278 357/1107/278
f 352/1105/278 357/1107/278 356/1108/278
f 351/1109/279 352/1110/279 356/1111/279
f 351/1109/279 356/1111/279 355/1112/279
f 354/1113/280 358/1114/280 357/1115/280
f 354/1113/280 357/1115/280 353/1116/280
f 359/1117/281 362/1118/281 361/1119/281
f 359/1117/281 361/1119/281 360/1120/281
f 363/1121/282 364/1122/282 365/1123/282
f 363/1121/282 365/1123/282 366/1124/282
f 359/1125/283 363/1126/283 366/1127/283
f 359/1125/283 366/1127/283 362/1128/283
f 360/1129/284 361/1130/284 365/1131/284
f 360/1129/284 365/1131/284 364/1132/284
f 359/1133/285 360/1134/285 364/1135/285
f 359/1133/285 364/1135/285 363/1136/285
f 362/1137/286 366/1138/286 365/1139/286
f 362/1137/286 365/1139/286 361/1140/286
f 367/1141/287 370/1142/287 369/1143/287
f 367/1141/287 369/1143/287 368/1144/287
f 371/1145/288 372/1146/288 373/1147/288
f 371/1145/288 373/1147/288 374/1148/288
f 367/1149/289 371/1150/289 374/1151/289
f 367/1149/289 374/1151/289 370/1152/289
f 368/1153/290 369/1154/290 373/1155/290
f 368/1153/290 373/1155/290 372/1156/290
f 367/1157/291 368/1158/291 372/1159/291
f 367/1157/291 372/1159/291 371/1160/291
f 370/1161/292 374/1162/292 373/1163/292
f 370/1161/292 373/1163/292 369/1164/292
f 375/1165/293 378/1166/293 377/1167/293
f 375/1165/293 377/1167/293 376/1168/293
f 379/1169/294 380/1170/294 381/1171/294
f 379/1169/294 381/1171/294 382/1172/294
f 375/1173/295 379/1174/295 382/1175/295
f 375/1173/295 382/1175/295 378/1176/295
f 376/1177/296 377/1178/296 381/1179/296
f 376/1177/296 381/1179/296 380/1180/296
f 375/1181/297 376/1182/297 380/1183/297
f 375/1181/297 380/1183/297 379/1184/297
f 378/1185/298 382/1186/298 381/1187/298
f 378/1185/298 381/1187/298 377/1188/298
f 383/1189/299 386/1190/299 385/1191/299
f 383/1189/299 385/1191/299 384/1192/299
f 387/1193/300 388/1194/300 389/1195/300
f 387/1193/300 389/1195/300 390/1196/300
f 383/1197/301 387/1198/301 390/1199/301
f 383/1197/301 390/1199/301 386/1200/301
f 384/1201/302 385/1202/302 389/1203/302
f 384/1201/302 389/1203/302 388/1204/302
f 383/1205/303 384/1206/303 388/1207/303
f 383/1205/303 388/1207/303 387/1208/303
f 386/1209/304 390/1210/304 389/1211/304
f 386/1209/304 389/1211/304 385/1212/304
f 391/1213/305 394/1214/305 393/1215/305
f 391/1213/305 393/1215/305 392/1216/305
f 395/1217/306 396/1218/306 397/1219/306
f 395/1217/306 397/1219/306 398/1220/306
f 391/1221/307 395/1222/307 398/1223/307
f 391/1221/307 398/1223/307 394/1224/307
f 392/1225/308 393/1226/308 397/1227/308
f 392/1225/308 397/1227/308 396/1228/308
f 391/1229/309 392/1230/309 396/1231/309
f 391/1229/309 396/1231/309 395/1232/309
f 394/1233/310 398/1234/310 397/1235/310
f 394/1233/310 397/1235/310 393/1236/310
f 399/1237/311 402/1238/311 401/1239/311
f 399/1237/311 401/1239/311 400/1240/311
f 403/1241/312 404/1242/312 405/1243/312
f 403/1241/312 405/1243/312 406/1244/312
f 399/1245/313 403/1246/313 406/1247/313
f 399/1245/313 406/1247/313 402/1248/313
f 400/1249/314 401/1250/314 405/1251/314
f 400/1249/314 405/1251/314 404/1252/314
f 399/1253/315 400/1254/315 404/1255/315
f 399/1253/315 404/1255/315 403/1256/315
f 402/1257/316 406/1258/316 405/1259/316
f 402/1257/316 405/1259/316 401/1260/316
f 407/1261/317 410/1262/317 409/1263/317
f 407/1261/317 409/1263/317 408/1264/317
f 411/1265/318 412/1266/318 413/1267/318
f 411/1265/318 413/1267/318 414/1268/318
f 407/1269/319 411/1270/319 414/1271/319
f 407/1269/319 414/1271/319 410/1272/319
f 408/1273/320 409/1274/320 413/1275/320
f 408/1273/320 413/1275/320 412/1276/320
f 407/1277/321 408/1278/321 412/1279/321
f 407/1277/321 412/1279/321 411/1280/321
f 410/1281/322 414/1282/322 413/1283/322
f 410/1281/322 413/1283/322 409/1284/322
f 415/1285/323 418/1286/323 417/1287/323
f 415/1285/323 417/1287/323 416/1288/323
f 419/1289/324 420/1290/324 421/1291/324
f 419/1289/324 421/1291/324 422/1292/324
f 415/1293/325 419/1294/325 422/1295/325
f 415/1293/325 422/1295/325 418/1296/325
f 416/1297/326 417/1298/326 421/1299/326
f 416/1297/326 421/1299/326 420/1300/326
f 415/1301/327 416/1302/327 420/1303/327
f 415/1301/327 420/1303/327 419/1304/327
f 418/1305/328 422/1306/328 421/1307/328
f 418/1305/328 421/1307/328 417/1308/328
f 423/1309/329 426/1310/329 425/1311/329
f 423/1309/329 425/1311/329 424/1312/329
f 427/1313/330 428/1314/330 429/1315/330
f 427/1313/330 429/1315/330 430/1316/330
f 423/1317/331 427/1318/331 430/1319/331
f 423/1317/331 430/1319/331 426/1320/331
f 424/1321/332 425/1322/332 429/1323/332
f 424/1321/332 429/1323/332 428/1324/332
f 423/1325/333 424/1326/333 428/1327/333
f 423/1325/333 428/1327/333 427/1328/333
f 426/1329/334 430/1330/334 429/1331/334
f 426/1329/334 429/1331/334 425/1332/334
f 431/1333/335 434/1334/335 433/1335/335
f 431/1333/335 433/1335/335 432/1336/335
f 435/1337/336 436/1338/336 437/1339/336
f 435/1337/336 437/1339/336 438/1340/336
f 431/1341/337 435/1342/337 438/1343/337
f 431/1341/337 438/1343/337 434/1344/337
f 432/1345/338 433/1346/338 437/1347/338
f 432/1345/338 437/1347/338 436/1348/338
f 431/1349/339 432/1350/339 436/1351/339
f 431/1349/339 436/1351/339 435/1352/339
f 434/1353/340 438/1354/340 437/1355/340
f 434/1353/340 437/1355/340 433/1356/340
f 439/1357/341 442/1358/341 441/1359/341
f 439/1357/341 441/1359/341 440/1360/341
f 443/1361/342 444/1362/342 445/1363/342
f 443/1361/342 445/1363/342 446/1364/342
f 439/1365/343 443/1366/343 446/1367/343
f 439/1365/343 446/1367/343 442/1368/343
f 440/1369/344 441/1370/344 445/1371/344
f 440/1369/344 445/1371/344 444/1372/344
f 439/1373/345 440/1374/345 444/1375/345
f 439/1373/345 444/1375/345 443/1376/345
f 442/1377/346 446/1378/346 445/1379/346
f 442/1377/346 445/1379/346 441/1380/346
f 447/1381/347 450/1382/347 449/1383/347
f 447/1381/347 449/1383/347 448/1384/347
f 451/1385/348 452/1386/348 453/1387/348
f 451/1385/348 453/1387/348 454/1388/348
f 447/1389/349 451/1390/349 454/1391/349
f 447/1389/349 454/1391/349 450/1392/349
f 448/1393/350 449/1394/350 453/1395/350
f 448/1393/350 453/1395/350 452/1396/350
f 447/1397/351 448/1398/351 452/1399/351
f 447/1397/351 452/1399/351 451/1400/351
f 450/1401/352 454/1402/352 453/1403/352
f 450/1401/352 453/1403/352 449/1404/352
f 455/1405/353 458/1406/353 457/1407/353
f 455/1405/353 457/1407/353 456/1408/353
f 459/1409/354 460/1410/354 461/1411/354
f 459/1409/354 461/1411/354 462/1412/354
f 455/1413/355 459/1414/355 462/1415/355
f 455/1413/355 462/1415/355 458/1416/355
f 456/1417/356 457/1418/356 461/1419/356
f 456/1417/356 461/1419/356 460/1420/356
f 455/1421/357 456/1422/357 460/1423/357
f 455/1421/357 460/1423/357 459/1424/357
f 458/1425/358 462/1426/358 461/1427/358
f 458/1425/358 461/1427/358 457/1428/358
f 463/1429/359 466/1430/359 465/1431/359
f 463/1429/359 465/1431/359 464/1432/359
f 467/1433/360 468/1434/360 469/1435/360
f 467/1433/360 469/1435/360 470/1436/360
f 463/1437/361 467/1438/361 470/1439/361
f 463/1437/361 470/1439/361 466/1440/361
f 464/1441/362 465/1442/362 469/1443/362
f 464/1441/362 469/1443/362 468/1444/362
f 463/1445/363 464/1446/363 468/1447/363
f 463/1445/363 468/1447/363 467/1448/363
f 466/1449/364 470/1450/364 469/1451/364
f 466/1449/364 469/1451/364 465/1452/364
