mtllib TorusSettlementFarm_Sorghum.mtl
v -7.2485250 0.1266437 3.7500000
v -5.1780339 0.0646174 3.7500000
v -5.1780339 0.0646174 -3.7500000
v -7.2485250 0.1266437 -3.7500000
v -5.1780339 0.0646174 3.7500000
v -3.1070267 0.0232630 3.7500000
v -3.1070267 0.0232630 -3.7500000
v -5.1780339 0.0646174 -3.7500000
v -3.1070267 0.0232630 3.7500000
v -1.0357100 0.0025848 3.7500000
v -1.0357100 0.0025848 -3.7500000
v -3.1070267 0.0232630 -3.7500000
v -1.0357100 0.0025848 3.7500000
v 1.0357100 0.0025848 3.7500000
v 1.0357100 0.0025848 -3.7500000
v -1.0357100 0.0025848 -3.7500000
v 1.0357100 0.0025848 3.7500000
v 3.1070267 0.0232630 3.7500000
v 3.1070267 0.0232630 -3.7500000
v 1.0357100 0.0025848 -3.7500000
v 3.1070267 0.0232630 3.7500000
v 5.1780339 0.0646174 3.7500000
v 5.1780339 0.0646174 -3.7500000
v 3.1070267 0.0232630 -3.7500000
v 5.1780339 0.0646174 3.7500000
v 7.2485250 0.1266437 3.7500000
v 7.2485250 0.1266437 -3.7500000
v 5.1780339 0.0646174 -3.7500000
v -7.2480883 0.1391361 -3.4000000
v -5.1777219 0.0771135 -3.4000000
v -5.1777219 0.0771135 -3.7500000
v -7.2480883 0.1391361 -3.7500000
v -5.1777219 0.0771135 -3.4000000
v -3.1068396 0.0357616 -3.4000000
v -3.1068396 0.0357616 -3.7500000
v -5.1777219 0.0771135 -3.7500000
v -3.1068396 0.0357616 -3.4000000
v -1.0356476 0.0150847 -3.4000000
v -1.0356476 0.0150847 -3.7500000
v -3.1068396 0.0357616 -3.7500000
v -1.0356476 0.0150847 -3.4000000
v 1.0356476 0.0150847 -3.4000000
v 1.0356476 0.0150847 -3.7500000
v -1.0356476 0.0150847 -3.7500000
v 1.0356476 0.0150847 -3.4000000
v 3.1068396 0.0357616 -3.4000000
v 3.1068396 0.0357616 -3.7500000
v 1.0356476 0.0150847 -3.7500000
v 3.1068396 0.0357616 -3.4000000
v 5.1777219 0.0771135 -3.4000000
v 5.1777219 0.0771135 -3.7500000
v 3.1068396 0.0357616 -3.7500000
v 5.1777219 0.0771135 -3.4000000
v 7.2480883 0.1391361 -3.4000000
v 7.2480883 0.1391361 -3.7500000
v 5.1777219 0.0771135 -3.7500000
v -7.2480883 0.1391361 3.7500000
v -5.1777219 0.0771135 3.7500000
v -5.1777219 0.0771135 3.4000000
v -7.2480883 0.1391361 3.4000000
v -5.1777219 0.0771135 3.7500000
v -3.1068396 0.0357616 3.7500000
v -3.1068396 0.0357616 3.4000000
v -5.1777219 0.0771135 3.4000000
v -3.1068396 0.0357616 3.7500000
v -1.0356476 0.0150847 3.7500000
v -1.0356476 0.0150847 3.4000000
v -3.1068396 0.0357616 3.4000000
v -1.0356476 0.0150847 3.7500000
v 1.0356476 0.0150847 3.7500000
v 1.0356476 0.0150847 3.4000000
v -1.0356476 0.0150847 3.4000000
v 1.0356476 0.0150847 3.7500000
v 3.1068396 0.0357616 3.7500000
v 3.1068396 0.0357616 3.4000000
v 1.0356476 0.0150847 3.4000000
v 3.1068396 0.0357616 3.7500000
v 5.1777219 0.0771135 3.7500000
v 5.1777219 0.0771135 3.4000000
v 3.1068396 0.0357616 3.4000000
v 5.1777219 0.0771135 3.7500000
v 7.2480883 0.1391361 3.7500000
v 7.2480883 0.1391361 3.4000000
v 5.1777219 0.0771135 3.4000000
v -0.2999818 0.0127169 3.7500000
v 0.2999818 0.0127169 3.7500000
v 0.2999818 0.0127169 -3.7500000
v -0.2999818 0.0127169 -3.7500000
v -6.8912479 0.3395879 -3.2348571
v -4.7028243 0.2783576 -3.2348571
v -4.7065113 0.1158995 -3.4000000
v -6.8966505 0.1771778 -3.4000000
v -6.8966505 0.1771778 -3.0697143
v -4.7065113 0.1158995 -3.0697143
v -4.7028243 0.2783576 -3.2348571
v -6.8912479 0.3395879 -3.2348571
v -4.7028243 0.2783576 -3.2348571
v -2.5138761 0.2402450 -3.2348571
v -2.5158470 0.0777569 -3.4000000
v -4.7065113 0.1158995 -3.4000000
v -4.7065113 0.1158995 -3.0697143
v -2.5158470 0.0777569 -3.0697143
v -2.5138761 0.2402450 -3.2348571
v -4.7028243 0.2783576 -3.2348571
v -2.5138761 0.2402450 -3.2348571
v -0.3246475 0.2252542 -3.2348571
v -0.3249020 0.0627544 -3.4000000
v -2.5158470 0.0777569 -3.4000000
v -2.5158470 0.0777569 -3.0697143
v -0.3249020 0.0627544 -3.0697143
v -0.3246475 0.2252542 -3.2348571
v -2.5138761 0.2402450 -3.2348571
v 0.3246475 0.2252542 -3.2348571
v 2.5138761 0.2402450 -3.2348571
v 2.5158470 0.0777569 -3.4000000
v 0.3249020 0.0627544 -3.4000000
v 0.3249020 0.0627544 -3.0697143
v 2.5158470 0.0777569 -3.0697143
v 2.5138761 0.2402450 -3.2348571
v 0.3246475 0.2252542 -3.2348571
v 2.5138761 0.2402450 -3.2348571
v 4.7028243 0.2783576 -3.2348571
v 4.7065113 0.1158995 -3.4000000
v 2.5158470 0.0777569 -3.4000000
v 2.5158470 0.0777569 -3.0697143
v 4.7065113 0.1158995 -3.0697143
v 4.7028243 0.2783576 -3.2348571
v 2.5138761 0.2402450 -3.2348571
v 4.7028243 0.2783576 -3.2348571
v 6.8912479 0.3395879 -3.2348571
v 6.8966505 0.1771778 -3.4000000
v 4.7065113 0.1158995 -3.4000000
v 4.7065113 0.1158995 -3.0697143
v 6.8966505 0.1771778 -3.0697143
v 6.8912479 0.3395879 -3.2348571
v 4.7028243 0.2783576 -3.2348571
v -6.8912479 0.3395879 -2.7491429
v -4.7028243 0.2783576 -2.7491429
v -4.7065113 0.1158995 -2.9142857
v -6.8966505 0.1771778 -2.9142857
v -6.8966505 0.1771778 -2.5840000
v -4.7065113 0.1158995 -2.5840000
v -4.7028243 0.2783576 -2.7491429
v -6.8912479 0.3395879 -2.7491429
v -4.7028243 0.2783576 -2.7491429
v -2.5138761 0.2402450 -2.7491429
v -2.5158470 0.0777569 -2.9142857
v -4.7065113 0.1158995 -2.9142857
v -4.7065113 0.1158995 -2.5840000
v -2.5158470 0.0777569 -2.5840000
v -2.5138761 0.2402450 -2.7491429
v -4.7028243 0.2783576 -2.7491429
v -2.5138761 0.2402450 -2.7491429
v -0.3246475 0.2252542 -2.7491429
v -0.3249020 0.0627544 -2.9142857
v -2.5158470 0.0777569 -2.9142857
v -2.5158470 0.0777569 -2.5840000
v -0.3249020 0.0627544 -2.5840000
v -0.3246475 0.2252542 -2.7491429
v -2.5138761 0.2402450 -2.7491429
v 0.3246475 0.2252542 -2.7491429
v 2.5138761 0.2402450 -2.7491429
v 2.5158470 0.0777569 -2.9142857
v 0.3249020 0.0627544 -2.9142857
v 0.3249020 0.0627544 -2.5840000
v 2.5158470 0.0777569 -2.5840000
v 2.5138761 0.2402450 -2.7491429
v 0.3246475 0.2252542 -2.7491429
v 2.5138761 0.2402450 -2.7491429
v 4.7028243 0.2783576 -2.7491429
v 4.7065113 0.1158995 -2.9142857
v 2.5158470 0.0777569 -2.9142857
v 2.5158470 0.0777569 -2.5840000
v 4.7065113 0.1158995 -2.5840000
v 4.7028243 0.2783576 -2.7491429
v 2.5138761 0.2402450 -2.7491429
v 4.7028243 0.2783576 -2.7491429
v 6.8912479 0.3395879 -2.7491429
v 6.8966505 0.1771778 -2.9142857
v 4.7065113 0.1158995 -2.9142857
v 4.7065113 0.1158995 -2.5840000
v 6.8966505 0.1771778 -2.5840000
v 6.8912479 0.3395879 -2.7491429
v 4.7028243 0.2783576 -2.7491429
v -6.8912479 0.3395879 -2.2634286
v -4.7028243 0.2783576 -2.2634286
v -4.7065113 0.1158995 -2.4285714
v -6.8966505 0.1771778 -2.4285714
v -6.8966505 0.1771778 -2.0982857
v -4.7065113 0.1158995 -2.0982857
v -4.7028243 0.2783576 -2.2634286
v -6.8912479 0.3395879 -2.2634286
v -4.7028243 0.2783576 -2.2634286
v -2.5138761 0.2402450 -2.2634286
v -2.5158470 0.0777569 -2.4285714
v -4.7065113 0.1158995 -2.4285714
v -4.7065113 0.1158995 -2.0982857
v -2.5158470 0.0777569 -2.0982857
v -2.5138761 0.2402450 -2.2634286
v -4.7028243 0.2783576 -2.2634286
v -2.5138761 0.2402450 -2.2634286
v -0.3246475 0.2252542 -2.2634286
v -0.3249020 0.0627544 -2.4285714
v -2.5158470 0.0777569 -2.4285714
v -2.5158470 0.0777569 -2.0982857
v -0.3249020 0.0627544 -2.0982857
v -0.3246475 0.2252542 -2.2634286
v -2.5138761 0.2402450 -2.2634286
v 0.3246475 0.2252542 -2.2634286
v 2.5138761 0.2402450 -2.2634286
v 2.5158470 0.0777569 -2.4285714
v 0.3249020 0.0627544 -2.4285714
v 0.3249020 0.0627544 -2.0982857
v 2.5158470 0.0777569 -2.0982857
v 2.5138761 0.2402450 -2.2634286
v 0.3246475 0.2252542 -2.2634286
v 2.5138761 0.2402450 -2.2634286
v 4.7028243 0.2783576 -2.2634286
v 4.7065113 0.1158995 -2.4285714
v 2.5158470 0.0777569 -2.4285714
v 2.5158470 0.0777569 -2.0982857
v 4.7065113 0.1158995 -2.0982857
v 4.7028243 0.2783576 -2.2634286
v 2.5138761 0.2402450 -2.2634286
v 4.7028243 0.2783576 -2.2634286
v 6.8912479 0.3395879 -2.2634286
v 6.8966505 0.1771778 -2.4285714
v 4.7065113 0.1158995 -2.4285714
v 4.7065113 0.1158995 -2.0982857
v 6.8966505 0.1771778 -2.0982857
v 6.8912479 0.3395879 -2.2634286
v 4.7028243 0.2783576 -2.2634286
v -6.8912479 0.3395879 -1.7777143
v -4.7028243 0.2783576 -1.7777143
v -4.7065113 0.1158995 -1.9428571
v -6.8966505 0.1771778 -1.9428571
v -6.8966505 0.1771778 -1.6125714
v -4.7065113 0.1158995 -1.6125714
v -4.7028243 0.2783576 -1.7777143
v -6.8912479 0.3395879 -1.7777143
v -4.7028243 0.2783576 -1.7777143
v -2.5138761 0.2402450 -1.7777143
v -2.5158470 0.0777569 -1.9428571
v -4.7065113 0.1158995 -1.9428571
v -4.7065113 0.1158995 -1.6125714
v -2.5158470 0.0777569 -1.6125714
v -2.5138761 0.2402450 -1.7777143
v -4.7028243 0.2783576 -1.7777143
v -2.5138761 0.2402450 -1.7777143
v -0.3246475 0.2252542 -1.7777143
v -0.3249020 0.0627544 -1.9428571
v -2.5158470 0.0777569 -1.9428571
v -2.5158470 0.0777569 -1.6125714
v -0.3249020 0.0627544 -1.6125714
v -0.3246475 0.2252542 -1.7777143
v -2.5138761 0.2402450 -1.7777143
v 0.3246475 0.2252542 -1.7777143
v 2.5138761 0.2402450 -1.7777143
v 2.5158470 0.0777569 -1.9428571
v 0.3249020 0.0627544 -1.9428571
v 0.3249020 0.0627544 -1.6125714
v 2.5158470 0.0777569 -1.6125714
v 2.5138761 0.2402450 -1.7777143
v 0.3246475 0.2252542 -1.7777143
v 2.5138761 0.2402450 -1.7777143
v 4.7028243 0.2783576 -1.7777143
v 4.7065113 0.1158995 -1.9428571
v 2.5158470 0.0777569 -1.9428571
v 2.5158470 0.0777569 -1.6125714
v 4.7065113 0.1158995 -1.6125714
v 4.7028243 0.2783576 -1.7777143
v 2.5138761 0.2402450 -1.7777143
v 4.7028243 0.2783576 -1.7777143
v 6.8912479 0.3395879 -1.7777143
v 6.8966505 0.1771778 -1.9428571
v 4.7065113 0.1158995 -1.9428571
v 4.7065113 0.1158995 -1.6125714
v 6.8966505 0.1771778 -1.6125714
v 6.8912479 0.3395879 -1.7777143
v 4.7028243 0.2783576 -1.7777143
v -6.8912479 0.3395879 -1.2920000
v -4.7028243 0.2783576 -1.2920000
v -4.7065113 0.1158995 -1.4571429
v -6.8966505 0.1771778 -1.4571429
v -6.8966505 0.1771778 -1.1268571
v -4.7065113 0.1158995 -1.1268571
v -4.7028243 0.2783576 -1.2920000
v -6.8912479 0.3395879 -1.2920000
v -4.7028243 0.2783576 -1.2920000
v -2.5138761 0.2402450 -1.2920000
v -2.5158470 0.0777569 -1.4571429
v -4.7065113 0.1158995 -1.4571429
v -4.7065113 0.1158995 -1.1268571
v -2.5158470 0.0777569 -1.1268571
v -2.5138761 0.2402450 -1.2920000
v -4.7028243 0.2783576 -1.2920000
v -2.5138761 0.2402450 -1.2920000
v -0.3246475 0.2252542 -1.2920000
v -0.3249020 0.0627544 -1.4571429
v -2.5158470 0.0777569 -1.4571429
v -2.5158470 0.0777569 -1.1268571
v -0.3249020 0.0627544 -1.1268571
v -0.3246475 0.2252542 -1.2920000
v -2.5138761 0.2402450 -1.2920000
v 0.3246475 0.2252542 -1.2920000
v 2.5138761 0.2402450 -1.2920000
v 2.5158470 0.0777569 -1.4571429
v 0.3249020 0.0627544 -1.4571429
v 0.3249020 0.0627544 -1.1268571
v 2.5158470 0.0777569 -1.1268571
v 2.5138761 0.2402450 -1.2920000
v 0.3246475 0.2252542 -1.2920000
v 2.5138761 0.2402450 -1.2920000
v 4.7028243 0.2783576 -1.2920000
v 4.7065113 0.1158995 -1.4571429
v 2.5158470 0.0777569 -1.4571429
v 2.5158470 0.0777569 -1.1268571
v 4.7065113 0.1158995 -1.1268571
v 4.7028243 0.2783576 -1.2920000
v 2.5138761 0.2402450 -1.2920000
v 4.7028243 0.2783576 -1.2920000
v 6.8912479 0.3395879 -1.2920000
v 6.8966505 0.1771778 -1.4571429
v 4.7065113 0.1158995 -1.4571429
v 4.7065113 0.1158995 -1.1268571
v 6.8966505 0.1771778 -1.1268571
v 6.8912479 0.3395879 -1.2920000
v 4.7028243 0.2783576 -1.2920000
v -6.8912479 0.3395879 -0.8062857
v -4.7028243 0.2783576 -0.8062857
v -4.7065113 0.1158995 -0.9714286
v -6.8966505 0.1771778 -0.9714286
v -6.8966505 0.1771778 -0.6411429
v -4.7065113 0.1158995 -0.6411429
v -4.7028243 0.2783576 -0.8062857
v -6.8912479 0.3395879 -0.8062857
v -4.7028243 0.2783576 -0.8062857
v -2.5138761 0.2402450 -0.8062857
v -2.5158470 0.0777569 -0.9714286
v -4.7065113 0.1158995 -0.9714286
v -4.7065113 0.1158995 -0.6411429
v -2.5158470 0.0777569 -0.6411429
v -2.5138761 0.2402450 -0.8062857
v -4.7028243 0.2783576 -0.8062857
v -2.5138761 0.2402450 -0.8062857
v -0.3246475 0.2252542 -0.8062857
v -0.3249020 0.0627544 -0.9714286
v -2.5158470 0.0777569 -0.9714286
v -2.5158470 0.0777569 -0.6411429
v -0.3249020 0.0627544 -0.6411429
v -0.3246475 0.2252542 -0.8062857
v -2.5138761 0.2402450 -0.8062857
v 0.3246475 0.2252542 -0.8062857
v 2.5138761 0.2402450 -0.8062857
v 2.5158470 0.0777569 -0.9714286
v 0.3249020 0.0627544 -0.9714286
v 0.3249020 0.0627544 -0.6411429
v 2.5158470 0.0777569 -0.6411429
v 2.5138761 0.2402450 -0.8062857
v 0.3246475 0.2252542 -0.8062857
v 2.5138761 0.2402450 -0.8062857
v 4.7028243 0.2783576 -0.8062857
v 4.7065113 0.1158995 -0.9714286
v 2.5158470 0.0777569 -0.9714286
v 2.5158470 0.0777569 -0.6411429
v 4.7065113 0.1158995 -0.6411429
v 4.7028243 0.2783576 -0.8062857
v 2.5138761 0.2402450 -0.8062857
v 4.7028243 0.2783576 -0.8062857
v 6.8912479 0.3395879 -0.8062857
v 6.8966505 0.1771778 -0.9714286
v 4.7065113 0.1158995 -0.9714286
v 4.7065113 0.1158995 -0.6411429
v 6.8966505 0.1771778 -0.6411429
v 6.8912479 0.3395879 -0.8062857
v 4.7028243 0.2783576 -0.8062857
v -6.8912479 0.3395879 -0.3205714
v -4.7028243 0.2783576 -0.3205714
v -4.7065113 0.1158995 -0.4857143
v -6.8966505 0.1771778 -0.4857143
v -6.8966505 0.1771778 -0.1554286
v -4.7065113 0.1158995 -0.1554286
v -4.7028243 0.2783576 -0.3205714
v -6.8912479 0.3395879 -0.3205714
v -4.7028243 0.2783576 -0.3205714
v -2.5138761 0.2402450 -0.3205714
v -2.5158470 0.0777569 -0.4857143
v -4.7065113 0.1158995 -0.4857143
v -4.7065113 0.1158995 -0.1554286
v -2.5158470 0.0777569 -0.1554286
v -2.5138761 0.2402450 -0.3205714
v -4.7028243 0.2783576 -0.3205714
v -2.5138761 0.2402450 -0.3205714
v -0.3246475 0.2252542 -0.3205714
v -0.3249020 0.0627544 -0.4857143
v -2.5158470 0.0777569 -0.4857143
v -2.5158470 0.0777569 -0.1554286
v -0.3249020 0.0627544 -0.1554286
v -0.3246475 0.2252542 -0.3205714
v -2.5138761 0.2402450 -0.3205714
v 0.3246475 0.2252542 -0.3205714
v 2.5138761 0.2402450 -0.3205714
v 2.5158470 0.0777569 -0.4857143
v 0.3249020 0.0627544 -0.4857143
v 0.3249020 0.0627544 -0.1554286
v 2.5158470 0.0777569 -0.1554286
v 2.5138761 0.2402450 -0.3205714
v 0.3246475 0.2252542 -0.3205714
v 2.5138761 0.2402450 -0.3205714
v 4.7028243 0.2783576 -0.3205714
v 4.7065113 0.1158995 -0.4857143
v 2.5158470 0.0777569 -0.4857143
v 2.5158470 0.0777569 -0.1554286
v 4.7065113 0.1158995 -0.1554286
v 4.7028243 0.2783576 -0.3205714
v 2.5138761 0.2402450 -0.3205714
v 4.7028243 0.2783576 -0.3205714
v 6.8912479 0.3395879 -0.3205714
v 6.8966505 0.1771778 -0.4857143
v 4.7065113 0.1158995 -0.4857143
v 4.7065113 0.1158995 -0.1554286
v 6.8966505 0.1771778 -0.1554286
v 6.8912479 0.3395879 -0.3205714
v 4.7028243 0.2783576 -0.3205714
v -6.8912479 0.3395879 0.1651429
v -4.7028243 0.2783576 0.1651429
v -4.7065113 0.1158995 0.0000000
v -6.8966505 0.1771778 0.0000000
v -6.8966505 0.1771778 0.3302857
v -4.7065113 0.1158995 0.3302857
v -4.7028243 0.2783576 0.1651429
v -6.8912479 0.3395879 0.1651429
v -4.7028243 0.2783576 0.1651429
v -2.5138761 0.2402450 0.1651429
v -2.5158470 0.0777569 0.0000000
v -4.7065113 0.1158995 0.0000000
v -4.7065113 0.1158995 0.3302857
v -2.5158470 0.0777569 0.3302857
v -2.5138761 0.2402450 0.1651429
v -4.7028243 0.2783576 0.1651429
v -2.5138761 0.2402450 0.1651429
v -0.3246475 0.2252542 0.1651429
v -0.3249020 0.0627544 0.0000000
v -2.5158470 0.0777569 0.0000000
v -2.5158470 0.0777569 0.3302857
v -0.3249020 0.0627544 0.3302857
v -0.3246475 0.2252542 0.1651429
v -2.5138761 0.2402450 0.1651429
v 0.3246475 0.2252542 0.1651429
v 2.5138761 0.2402450 0.1651429
v 2.5158470 0.0777569 0.0000000
v 0.3249020 0.0627544 0.0000000
v 0.3249020 0.0627544 0.3302857
v 2.5158470 0.0777569 0.3302857
v 2.5138761 0.2402450 0.1651429
v 0.3246475 0.2252542 0.1651429
v 2.5138761 0.2402450 0.1651429
v 4.7028243 0.2783576 0.1651429
v 4.7065113 0.1158995 0.0000000
v 2.5158470 0.0777569 0.0000000
v 2.5158470 0.0777569 0.3302857
v 4.7065113 0.1158995 0.3302857
v 4.7028243 0.2783576 0.1651429
v 2.5138761 0.2402450 0.1651429
v 4.7028243 0.2783576 0.1651429
v 6.8912479 0.3395879 0.1651429
v 6.8966505 0.1771778 0.0000000
v 4.7065113 0.1158995 0.0000000
v 4.7065113 0.1158995 0.3302857
v 6.8966505 0.1771778 0.3302857
v 6.8912479 0.3395879 0.1651429
v 4.7028243 0.2783576 0.1651429
v -6.8912479 0.3395879 0.6508571
v -4.7028243 0.2783576 0.6508571
v -4.7065113 0.1158995 0.4857143
v -6.8966505 0.1771778 0.4857143
v -6.8966505 0.1771778 0.8160000
v -4.7065113 0.1158995 0.8160000
v -4.7028243 0.2783576 0.6508571
v -6.8912479 0.3395879 0.6508571
v -4.7028243 0.2783576 0.6508571
v -2.5138761 0.2402450 0.6508571
v -2.5158470 0.0777569 0.4857143
v -4.7065113 0.1158995 0.4857143
v -4.7065113 0.1158995 0.8160000
v -2.5158470 0.0777569 0.8160000
v -2.5138761 0.2402450 0.6508571
v -4.7028243 0.2783576 0.6508571
v -2.5138761 0.2402450 0.6508571
v -0.3246475 0.2252542 0.6508571
v -0.3249020 0.0627544 0.4857143
v -2.5158470 0.0777569 0.4857143
v -2.5158470 0.0777569 0.8160000
v -0.3249020 0.0627544 0.8160000
v -0.3246475 0.2252542 0.6508571
v -2.5138761 0.2402450 0.6508571
v 0.3246475 0.2252542 0.6508571
v 2.5138761 0.2402450 0.6508571
v 2.5158470 0.0777569 0.4857143
v 0.3249020 0.0627544 0.4857143
v 0.3249020 0.0627544 0.8160000
v 2.5158470 0.0777569 0.8160000
v 2.5138761 0.2402450 0.6508571
v 0.3246475 0.2252542 0.6508571
v 2.5138761 0.2402450 0.6508571
v 4.7028243 0.2783576 0.6508571
v 4.7065113 0.1158995 0.4857143
v 2.5158470 0.0777569 0.4857143
v 2.5158470 0.0777569 0.8160000
v 4.7065113 0.1158995 0.8160000
v 4.7028243 0.2783576 0.6508571
v 2.5138761 0.2402450 0.6508571
v 4.7028243 0.2783576 0.6508571
v 6.8912479 0.3395879 0.6508571
v 6.8966505 0.1771778 0.4857143
v 4.7065113 0.1158995 0.4857143
v 4.7065113 0.1158995 0.8160000
v 6.8966505 0.1771778 0.8160000
v 6.8912479 0.3395879 0.6508571
v 4.7028243 0.2783576 0.6508571
v -6.8912479 0.3395879 1.1365714
v -4.7028243 0.2783576 1.1365714
v -4.7065113 0.1158995 0.9714286
v -6.8966505 0.1771778 0.9714286
v -6.8966505 0.1771778 1.3017143
v -4.7065113 0.1158995 1.3017143
v -4.7028243 0.2783576 1.1365714
v -6.8912479 0.3395879 1.1365714
v -4.7028243 0.2783576 1.1365714
v -2.5138761 0.2402450 1.1365714
v -2.5158470 0.0777569 0.9714286
v -4.7065113 0.1158995 0.9714286
v -4.7065113 0.1158995 1.3017143
v -2.5158470 0.0777569 1.3017143
v -2.5138761 0.2402450 1.1365714
v -4.7028243 0.2783576 1.1365714
v -2.5138761 0.2402450 1.1365714
v -0.3246475 0.2252542 1.1365714
v -0.3249020 0.0627544 0.9714286
v -2.5158470 0.0777569 0.9714286
v -2.5158470 0.0777569 1.3017143
v -0.3249020 0.0627544 1.3017143
v -0.3246475 0.2252542 1.1365714
v -2.5138761 0.2402450 1.1365714
v 0.3246475 0.2252542 1.1365714
v 2.5138761 0.2402450 1.1365714
v 2.5158470 0.0777569 0.9714286
v 0.3249020 0.0627544 0.9714286
v 0.3249020 0.0627544 1.3017143
v 2.5158470 0.0777569 1.3017143
v 2.5138761 0.2402450 1.1365714
v 0.3246475 0.2252542 1.1365714
v 2.5138761 0.2402450 1.1365714
v 4.7028243 0.2783576 1.1365714
v 4.7065113 0.1158995 0.9714286
v 2.5158470 0.0777569 0.9714286
v 2.5158470 0.0777569 1.3017143
v 4.7065113 0.1158995 1.3017143
v 4.7028243 0.2783576 1.1365714
v 2.5138761 0.2402450 1.1365714
v 4.7028243 0.2783576 1.1365714
v 6.8912479 0.3395879 1.1365714
v 6.8966505 0.1771778 0.9714286
v 4.7065113 0.1158995 0.9714286
v 4.7065113 0.1158995 1.3017143
v 6.8966505 0.1771778 1.3017143
v 6.8912479 0.3395879 1.1365714
v 4.7028243 0.2783576 1.1365714
v -6.8912479 0.3395879 1.6222857
v -4.7028243 0.2783576 1.6222857
v -4.7065113 0.1158995 1.4571429
v -6.8966505 0.1771778 1.4571429
v -6.8966505 0.1771778 1.7874286
v -4.7065113 0.1158995 1.7874286
v -4.7028243 0.2783576 1.6222857
v -6.8912479 0.3395879 1.6222857
v -4.7028243 0.2783576 1.6222857
v -2.5138761 0.2402450 1.6222857
v -2.5158470 0.0777569 1.4571429
v -4.7065113 0.1158995 1.4571429
v -4.7065113 0.1158995 1.7874286
v -2.5158470 0.0777569 1.7874286
v -2.5138761 0.2402450 1.6222857
v -4.7028243 0.2783576 1.6222857
v -2.5138761 0.2402450 1.6222857
v -0.3246475 0.2252542 1.6222857
v -0.3249020 0.0627544 1.4571429
v -2.5158470 0.0777569 1.4571429
v -2.5158470 0.0777569 1.7874286
v -0.3249020 0.0627544 1.7874286
v -0.3246475 0.2252542 1.6222857
v -2.5138761 0.2402450 1.6222857
v 0.3246475 0.2252542 1.6222857
v 2.5138761 0.2402450 1.6222857
v 2.5158470 0.0777569 1.4571429
v 0.3249020 0.0627544 1.4571429
v 0.3249020 0.0627544 1.7874286
v 2.5158470 0.0777569 1.7874286
v 2.5138761 0.2402450 1.6222857
v 0.3246475 0.2252542 1.6222857
v 2.5138761 0.2402450 1.6222857
v 4.7028243 0.2783576 1.6222857
v 4.7065113 0.1158995 1.4571429
v 2.5158470 0.0777569 1.4571429
v 2.5158470 0.0777569 1.7874286
v 4.7065113 0.1158995 1.7874286
v 4.7028243 0.2783576 1.6222857
v 2.5138761 0.2402450 1.6222857
v 4.7028243 0.2783576 1.6222857
v 6.8912479 0.3395879 1.6222857
v 6.8966505 0.1771778 1.4571429
v 4.7065113 0.1158995 1.4571429
v 4.7065113 0.1158995 1.7874286
v 6.8966505 0.1771778 1.7874286
v 6.8912479 0.3395879 1.6222857
v 4.7028243 0.2783576 1.6222857
v -6.8912479 0.3395879 2.1080000
v -4.7028243 0.2783576 2.1080000
v -4.7065113 0.1158995 1.9428571
v -6.8966505 0.1771778 1.9428571
v -6.8966505 0.1771778 2.2731429
v -4.7065113 0.1158995 2.2731429
v -4.7028243 0.2783576 2.1080000
v -6.8912479 0.3395879 2.1080000
v -4.7028243 0.2783576 2.1080000
v -2.5138761 0.2402450 2.1080000
v -2.5158470 0.0777569 1.9428571
v -4.7065113 0.1158995 1.9428571
v -4.7065113 0.1158995 2.2731429
v -2.5158470 0.0777569 2.2731429
v -2.5138761 0.2402450 2.1080000
v -4.7028243 0.2783576 2.1080000
v -2.5138761 0.2402450 2.1080000
v -0.3246475 0.2252542 2.1080000
v -0.3249020 0.0627544 1.9428571
v -2.5158470 0.0777569 1.9428571
v -2.5158470 0.0777569 2.2731429
v -0.3249020 0.0627544 2.2731429
v -0.3246475 0.2252542 2.1080000
v -2.5138761 0.2402450 2.1080000
v 0.3246475 0.2252542 2.1080000
v 2.5138761 0.2402450 2.1080000
v 2.5158470 0.0777569 1.9428571
v 0.3249020 0.0627544 1.9428571
v 0.3249020 0.0627544 2.2731429
v 2.5158470 0.0777569 2.2731429
v 2.5138761 0.2402450 2.1080000
v 0.3246475 0.2252542 2.1080000
v 2.5138761 0.2402450 2.1080000
v 4.7028243 0.2783576 2.1080000
v 4.7065113 0.1158995 1.9428571
v 2.5158470 0.0777569 1.9428571
v 2.5158470 0.0777569 2.2731429
v 4.7065113 0.1158995 2.2731429
v 4.7028243 0.2783576 2.1080000
v 2.5138761 0.2402450 2.1080000
v 4.7028243 0.2783576 2.1080000
v 6.8912479 0.3395879 2.1080000
v 6.8966505 0.1771778 1.9428571
v 4.7065113 0.1158995 1.9428571
v 4.7065113 0.1158995 2.2731429
v 6.8966505 0.1771778 2.2731429
v 6.8912479 0.3395879 2.1080000
v 4.7028243 0.2783576 2.1080000
v -6.8912479 0.3395879 2.5937143
v -4.7028243 0.2783576 2.5937143
v -4.7065113 0.1158995 2.4285714
v -6.8966505 0.1771778 2.4285714
v -6.8966505 0.1771778 2.7588571
v -4.7065113 0.1158995 2.7588571
v -4.7028243 0.2783576 2.5937143
v -6.8912479 0.3395879 2.5937143
v -4.7028243 0.2783576 2.5937143
v -2.5138761 0.2402450 2.5937143
v -2.5158470 0.0777569 2.4285714
v -4.7065113 0.1158995 2.4285714
v -4.7065113 0.1158995 2.7588571
v -2.5158470 0.0777569 2.7588571
v -2.5138761 0.2402450 2.5937143
v -4.7028243 0.2783576 2.5937143
v -2.5138761 0.2402450 2.5937143
v -0.3246475 0.2252542 2.5937143
v -0.3249020 0.0627544 2.4285714
v -2.5158470 0.0777569 2.4285714
v -2.5158470 0.0777569 2.7588571
v -0.3249020 0.0627544 2.7588571
v -0.3246475 0.2252542 2.5937143
v -2.5138761 0.2402450 2.5937143
v 0.3246475 0.2252542 2.5937143
v 2.5138761 0.2402450 2.5937143
v 2.5158470 0.0777569 2.4285714
v 0.3249020 0.0627544 2.4285714
v 0.3249020 0.0627544 2.7588571
v 2.5158470 0.0777569 2.7588571
v 2.5138761 0.2402450 2.5937143
v 0.3246475 0.2252542 2.5937143
v 2.5138761 0.2402450 2.5937143
v 4.7028243 0.2783576 2.5937143
v 4.7065113 0.1158995 2.4285714
v 2.5158470 0.0777569 2.4285714
v 2.5158470 0.0777569 2.7588571
v 4.7065113 0.1158995 2.7588571
v 4.7028243 0.2783576 2.5937143
v 2.5138761 0.2402450 2.5937143
v 4.7028243 0.2783576 2.5937143
v 6.8912479 0.3395879 2.5937143
v 6.8966505 0.1771778 2.4285714
v 4.7065113 0.1158995 2.4285714
v 4.7065113 0.1158995 2.7588571
v 6.8966505 0.1771778 2.7588571
v 6.8912479 0.3395879 2.5937143
v 4.7028243 0.2783576 2.5937143
v -6.8912479 0.3395879 3.0794286
v -4.7028243 0.2783576 3.0794286
v -4.7065113 0.1158995 2.9142857
v -6.8966505 0.1771778 2.9142857
v -6.8966505 0.1771778 3.2445714
v -4.7065113 0.1158995 3.2445714
v -4.7028243 0.2783576 3.0794286
v -6.8912479 0.3395879 3.0794286
v -4.7028243 0.2783576 3.0794286
v -2.5138761 0.2402450 3.0794286
v -2.5158470 0.0777569 2.9142857
v -4.7065113 0.1158995 2.9142857
v -4.7065113 0.1158995 3.2445714
v -2.5158470 0.0777569 3.2445714
v -2.5138761 0.2402450 3.0794286
v -4.7028243 0.2783576 3.0794286
v -2.5138761 0.2402450 3.0794286
v -0.3246475 0.2252542 3.0794286
v -0.3249020 0.0627544 2.9142857
v -2.5158470 0.0777569 2.9142857
v -2.5158470 0.0777569 3.2445714
v -0.3249020 0.0627544 3.2445714
v -0.3246475 0.2252542 3.0794286
v -2.5138761 0.2402450 3.0794286
v 0.3246475 0.2252542 3.0794286
v 2.5138761 0.2402450 3.0794286
v 2.5158470 0.0777569 2.9142857
v 0.3249020 0.0627544 2.9142857
v 0.3249020 0.0627544 3.2445714
v 2.5158470 0.0777569 3.2445714
v 2.5138761 0.2402450 3.0794286
v 0.3246475 0.2252542 3.0794286
v 2.5138761 0.2402450 3.0794286
v 4.7028243 0.2783576 3.0794286
v 4.7065113 0.1158995 2.9142857
v 2.5158470 0.0777569 2.9142857
v 2.5158470 0.0777569 3.2445714
v 4.7065113 0.1158995 3.2445714
v 4.7028243 0.2783576 3.0794286
v 2.5138761 0.2402450 3.0794286
v 4.7028243 0.2783576 3.0794286
v 6.8912479 0.3395879 3.0794286
v 6.8966505 0.1771778 2.9142857
v 4.7065113 0.1158995 2.9142857
v 4.7065113 0.1158995 3.2445714
v 6.8966505 0.1771778 3.2445714
v 6.8912479 0.3395879 3.0794286
v 4.7028243 0.2783576 3.0794286
vt 0.005000 0.995000
vt 0.245000 0.995000
vt 0.245000 0.755000
vt 0.255000 0.995000
vt 0.495000 0.995000
vt 0.495000 0.755000
vt 0.505000 0.995000
vt 0.745000 0.995000
vt 0.745000 0.755000
vt 0.755000 0.995000
vt 0.995000 0.995000
vt 0.995000 0.755000
vt 0.005000 0.745000
vt 0.245000 0.745000
vt 0.245000 0.505000
vt 0.255000 0.745000
vt 0.495000 0.745000
vt 0.495000 0.505000
vt 0.505000 0.745000
vt 0.745000 0.745000
vt 0.745000 0.505000
vt 0.755000 0.745000
vt 0.995000 0.745000
vt 0.995000 0.505000
vt 0.005000 0.495000
vt 0.245000 0.495000
vt 0.245000 0.255000
vt 0.255000 0.495000
vt 0.495000 0.495000
vt 0.495000 0.255000
vt 0.505000 0.495000
vt 0.745000 0.495000
vt 0.745000 0.255000
vt 0.755000 0.495000
vt 0.995000 0.495000
vt 0.995000 0.255000
vt 0.005000 0.245000
vt 0.245000 0.245000
vt 0.245000 0.005000
vt 0.255000 0.245000
vt 0.495000 0.245000
vt 0.495000 0.005000
vt 0.505000 0.245000
vt 0.745000 0.245000
vt 0.745000 0.005000
vt 0.755000 0.245000
vt 0.995000 0.245000
vt 0.995000 0.005000
g ornament
usemtl farm-kit
f 89/10 90/11 91/12
f 89/10 91/11 92/12
f 93/10 94/11 95/12
f 93/10 95/11 96/12
f 97/10 98/11 99/12
f 97/10 99/11 100/12
f 101/10 102/11 103/12
f 101/10 103/11 104/12
f 105/10 106/11 107/12
f 105/10 107/11 108/12
f 109/10 110/11 111/12
f 109/10 111/11 112/12
f 113/10 114/11 115/12
f 113/10 115/11 116/12
f 117/10 118/11 119/12
f 117/10 119/11 120/12
f 121/10 122/11 123/12
f 121/10 123/11 124/12
f 125/10 126/11 127/12
f 125/10 127/11 128/12
f 129/10 130/11 131/12
f 129/10 131/11 132/12
f 133/10 134/11 135/12
f 133/10 135/11 136/12
f 137/10 138/11 139/12
f 137/10 139/11 140/12
f 141/10 142/11 143/12
f 141/10 143/11 144/12
f 145/10 146/11 147/12
f 145/10 147/11 148/12
f 149/10 150/11 151/12
f 149/10 151/11 152/12
f 153/10 154/11 155/12
f 153/10 155/11 156/12
f 157/10 158/11 159/12
f 157/10 159/11 160/12
f 161/10 162/11 163/12
f 161/10 163/11 164/12
f 165/10 166/11 167/12
f 165/10 167/11 168/12
f 169/10 170/11 171/12
f 169/10 171/11 172/12
f 173/10 174/11 175/12
f 173/10 175/11 176/12
f 177/10 178/11 179/12
f 177/10 179/11 180/12
f 181/10 182/11 183/12
f 181/10 183/11 184/12
f 185/10 186/11 187/12
f 185/10 187/11 188/12
f 189/10 190/11 191/12
f 189/10 191/11 192/12
f 193/10 194/11 195/12
f 193/10 195/11 196/12
f 197/10 198/11 199/12
f 197/10 199/11 200/12
f 201/10 202/11 203/12
f 201/10 203/11 204/12
f 205/10 206/11 207/12
f 205/10 207/11 208/12
f 209/10 210/11 211/12
f 209/10 211/11 212/12
f 213/10 214/11 215/12
f 213/10 215/11 216/12
f 217/10 218/11 219/12
f 217/10 219/11 220/12
f 221/10 222/11 223/12
f 221/10 223/11 224/12
f 225/10 226/11 227/12
f 225/10 227/11 228/12
f 229/10 230/11 231/12
f 229/10 231/11 232/12
f 233/10 234/11 235/12
f 233/10 235/11 236/12
f 237/10 238/11 239/12
f 237/10 239/11 240/12
f 241/10 242/11 243/12
f 241/10 243/11 244/12
f 245/10 246/11 247/12
f 245/10 247/11 248/12
f 249/10 250/11 251/12
f 249/10 251/11 252/12
f 253/10 254/11 255/12
f 253/10 255/11 256/12
f 257/10 258/11 259/12
f 257/10 259/11 260/12
f 261/10 262/11 263/12
f 261/10 263/11 264/12
f 265/10 266/11 267/12
f 265/10 267/11 268/12
f 269/10 270/11 271/12
f 269/10 271/11 272/12
f 273/10 274/11 275/12
f 273/10 275/11 276/12
f 277/10 278/11 279/12
f 277/10 279/11 280/12
f 281/10 282/11 283/12
f 281/10 283/11 284/12
f 285/10 286/11 287/12
f 285/10 287/11 288/12
f 289/10 290/11 291/12
f 289/10 291/11 292/12
f 293/10 294/11 295/12
f 293/10 295/11 296/12
f 297/10 298/11 299/12
f 297/10 299/11 300/12
f 301/10 302/11 303/12
f 301/10 303/11 304/12
f 305/10 306/11 307/12
f 305/10 307/11 308/12
f 309/10 310/11 311/12
f 309/10 311/11 312/12
f 313/10 314/11 315/12
f 313/10 315/11 316/12
f 317/10 318/11 319/12
f 317/10 319/11 320/12
f 321/10 322/11 323/12
f 321/10 323/11 324/12
f 325/10 326/11 327/12
f 325/10 327/11 328/12
f 329/10 330/11 331/12
f 329/10 331/11 332/12
f 333/10 334/11 335/12
f 333/10 335/11 336/12
f 337/10 338/11 339/12
f 337/10 339/11 340/12
f 341/10 342/11 343/12
f 341/10 343/11 344/12
f 345/10 346/11 347/12
f 345/10 347/11 348/12
f 349/10 350/11 351/12
f 349/10 351/11 352/12
f 353/10 354/11 355/12
f 353/10 355/11 356/12
f 357/10 358/11 359/12
f 357/10 359/11 360/12
f 361/10 362/11 363/12
f 361/10 363/11 364/12
f 365/10 366/11 367/12
f 365/10 367/11 368/12
f 369/10 370/11 371/12
f 369/10 371/11 372/12
f 373/10 374/11 375/12
f 373/10 375/11 376/12
f 377/10 378/11 379/12
f 377/10 379/11 380/12
f 381/10 382/11 383/12
f 381/10 383/11 384/12
f 385/10 386/11 387/12
f 385/10 387/11 388/12
f 389/10 390/11 391/12
f 389/10 391/11 392/12
f 393/10 394/11 395/12
f 393/10 395/11 396/12
f 397/10 398/11 399/12
f 397/10 399/11 400/12
f 401/10 402/11 403/12
f 401/10 403/11 404/12
f 405/10 406/11 407/12
f 405/10 407/11 408/12
f 409/10 410/11 411/12
f 409/10 411/11 412/12
f 413/10 414/11 415/12
f 413/10 415/11 416/12
f 417/10 418/11 419/12
f 417/10 419/11 420/12
f 421/10 422/11 423/12
f 421/10 423/11 424/12
f 425/10 426/11 427/12
f 425/10 427/11 428/12
f 429/10 430/11 431/12
f 429/10 431/11 432/12
f 433/10 434/11 435/12
f 433/10 435/11 436/12
f 437/10 438/11 439/12
f 437/10 439/11 440/12
f 441/10 442/11 443/12
f 441/10 443/11 444/12
f 445/10 446/11 447/12
f 445/10 447/11 448/12
f 449/10 450/11 451/12
f 449/10 451/11 452/12
f 453/10 454/11 455/12
f 453/10 455/11 456/12
f 457/10 458/11 459/12
f 457/10 459/11 460/12
f 461/10 462/11 463/12
f 461/10 463/11 464/12
f 465/10 466/11 467/12
f 465/10 467/11 468/12
f 469/10 470/11 471/12
f 469/10 471/11 472/12
f 473/10 474/11 475/12
f 473/10 475/11 476/12
f 477/10 478/11 479/12
f 477/10 479/11 480/12
f 481/10 482/11 483/12
f 481/10 483/11 484/12
f 485/10 486/11 487/12
f 485/10 487/11 488/12
f 489/10 490/11 491/12
f 489/10 491/11 492/12
f 493/10 494/11 495/12
f 493/10 495/11 496/12
f 497/10 498/11 499/12
f 497/10 499/11 500/12
f 501/10 502/11 503/12
f 501/10 503/11 504/12
f 505/10 506/11 507/12
f 505/10 507/11 508/12
f 509/10 510/11 511/12
f 509/10 511/11 512/12
f 513/10 514/11 515/12
f 513/10 515/11 516/12
f 517/10 518/11 519/12
f 517/10 519/11 520/12
f 521/10 522/11 523/12
f 521/10 523/11 524/12
f 525/10 526/11 527/12
f 525/10 527/11 528/12
f 529/10 530/11 531/12
f 529/10 531/11 532/12
f 533/10 534/11 535/12
f 533/10 535/11 536/12
f 537/10 538/11 539/12
f 537/10 539/11 540/12
f 541/10 542/11 543/12
f 541/10 543/11 544/12
f 545/10 546/11 547/12
f 545/10 547/11 548/12
f 549/10 550/11 551/12
f 549/10 551/11 552/12
f 553/10 554/11 555/12
f 553/10 555/11 556/12
f 557/10 558/11 559/12
f 557/10 559/11 560/12
f 561/10 562/11 563/12
f 561/10 563/11 564/12
f 565/10 566/11 567/12
f 565/10 567/11 568/12
f 569/10 570/11 571/12
f 569/10 571/11 572/12
f 573/10 574/11 575/12
f 573/10 575/11 576/12
f 577/10 578/11 579/12
f 577/10 579/11 580/12
f 581/10 582/11 583/12
f 581/10 583/11 584/12
f 585/10 586/11 587/12
f 585/10 587/11 588/12
f 589/10 590/11 591/12
f 589/10 591/11 592/12
f 593/10 594/11 595/12
f 593/10 595/11 596/12
f 597/10 598/11 599/12
f 597/10 599/11 600/12
f 601/10 602/11 603/12
f 601/10 603/11 604/12
f 605/10 606/11 607/12
f 605/10 607/11 608/12
f 609/10 610/11 611/12
f 609/10 611/11 612/12
f 613/10 614/11 615/12
f 613/10 615/11 616/12
f 617/10 618/11 619/12
f 617/10 619/11 620/12
f 621/10 622/11 623/12
f 621/10 623/11 624/12
f 625/10 626/11 627/12
f 625/10 627/11 628/12
f 629/10 630/11 631/12
f 629/10 631/11 632/12
f 633/10 634/11 635/12
f 633/10 635/11 636/12
f 637/10 638/11 639/12
f 637/10 639/11 640/12
f 641/10 642/11 643/12
f 641/10 643/11 644/12
f 645/10 646/11 647/12
f 645/10 647/11 648/12
f 649/10 650/11 651/12
f 649/10 651/11 652/12
f 653/10 654/11 655/12
f 653/10 655/11 656/12
f 657/10 658/11 659/12
f 657/10 659/11 660/12
f 661/10 662/11 663/12
f 661/10 663/11 664/12
f 665/10 666/11 667/12
f 665/10 667/11 668/12
f 669/10 670/11 671/12
f 669/10 671/11 672/12
f 673/10 674/11 675/12
f 673/10 675/11 676/12
f 677/10 678/11 679/12
f 677/10 679/11 680/12
f 681/10 682/11 683/12
f 681/10 683/11 684/12
f 685/10 686/11 687/12
f 685/10 687/11 688/12
f 689/10 690/11 691/12
f 689/10 691/11 692/12
f 693/10 694/11 695/12
f 693/10 695/11 696/12
f 697/10 698/11 699/12
f 697/10 699/11 700/12
f 701/10 702/11 703/12
f 701/10 703/11 704/12
f 705/10 706/11 707/12
f 705/10 707/11 708/12
f 709/10 710/11 711/12
f 709/10 711/11 712/12
f 713/10 714/11 715/12
f 713/10 715/11 716/12
f 717/10 718/11 719/12
f 717/10 719/11 720/12
f 721/10 722/11 723/12
f 721/10 723/11 724/12
f 725/10 726/11 727/12
f 725/10 727/11 728/12
f 729/10 730/11 731/12
f 729/10 731/11 732/12
f 733/10 734/11 735/12
f 733/10 735/11 736/12
f 737/10 738/11 739/12
f 737/10 739/11 740/12
f 741/10 742/11 743/12
f 741/10 743/11 744/12
f 745/10 746/11 747/12
f 745/10 747/11 748/12
f 749/10 750/11 751/12
f 749/10 751/11 752/12
f 753/10 754/11 755/12
f 753/10 755/11 756/12
f 757/10 758/11 759/12
f 757/10 759/11 760/12
g support
usemtl farm-kit
f 1/1 2/2 3/3
f 1/1 3/2 4/3
f 5/1 6/2 7/3
f 5/1 7/2 8/3
f 9/1 10/2 11/3
f 9/1 11/2 12/3
f 13/1 14/2 15/3
f 13/1 15/2 16/3
f 17/1 18/2 19/3
f 17/1 19/2 20/3
f 21/1 22/2 23/3
f 21/1 23/2 24/3
f 25/1 26/2 27/3
f 25/1 27/2 28/3
f 29/4 30/5 31/6
f 29/4 31/5 32/6
f 33/4 34/5 35/6
f 33/4 35/5 36/6
f 37/4 38/5 39/6
f 37/4 39/5 40/6
f 41/4 42/5 43/6
f 41/4 43/5 44/6
f 45/4 46/5 47/6
f 45/4 47/5 48/6
f 49/4 50/5 51/6
f 49/4 51/5 52/6
f 53/4 54/5 55/6
f 53/4 55/5 56/6
f 57/4 58/5 59/6
f 57/4 59/5 60/6
f 61/4 62/5 63/6
f 61/4 63/5 64/6
f 65/4 66/5 67/6
f 65/4 67/5 68/6
f 69/4 70/5 71/6
f 69/4 71/5 72/6
f 73/4 74/5 75/6
f 73/4 75/5 76/6
f 77/4 78/5 79/6
f 77/4 79/5 80/6
f 81/4 82/5 83/6
f 81/4 83/5 84/6
f 85/4 86/5 87/6
f 85/4 87/5 88/6
