mtllib TorusPlanter_A.mtl
o TorusPlanter_A
usemtl TorusStreetKit
s off
v -0.172500 0.000000 -0.085000
v 0.172500 0.000000 -0.085000
v 0.172500 0.025000 -0.085000
v -0.172500 0.025000 -0.085000
v -0.172500 0.000000 0.085000
v 0.172500 0.000000 0.085000
v 0.172500 0.025000 0.085000
v -0.172500 0.025000 0.085000
v -0.187500 0.015000 -0.100000
v 0.187500 0.015000 -0.100000
v 0.187500 0.165000 -0.100000
v -0.187500 0.165000 -0.100000
v -0.187500 0.015000 -0.080000
v 0.187500 0.015000 -0.080000
v 0.187500 0.165000 -0.080000
v -0.187500 0.165000 -0.080000
v -0.187500 0.015000 0.080000
v 0.187500 0.015000 0.080000
v 0.187500 0.165000 0.080000
v -0.187500 0.165000 0.080000
v -0.187500 0.015000 0.100000
v 0.187500 0.015000 0.100000
v 0.187500 0.165000 0.100000
v -0.187500 0.165000 0.100000
v -0.167500 0.015000 -0.080000
v -0.167500 0.165000 -0.080000
v -0.167500 0.015000 0.080000
v -0.167500 0.165000 0.080000
v 0.167500 0.015000 -0.080000
v 0.167500 0.165000 -0.080000
v 0.167500 0.015000 0.080000
v 0.167500 0.165000 0.080000
v -0.192500 0.162500 -0.103750
v 0.192500 0.162500 -0.103750
v 0.192500 0.175000 -0.103750
v -0.192500 0.175000 -0.103750
v -0.192500 0.162500 -0.078750
v 0.192500 0.162500 -0.078750
v 0.192500 0.175000 -0.078750
v -0.192500 0.175000 -0.078750
v -0.192500 0.162500 0.078750
v 0.192500 0.162500 0.078750
v 0.192500 0.175000 0.078750
v -0.192500 0.175000 0.078750
v -0.192500 0.162500 0.103750
v 0.192500 0.162500 0.103750
v 0.192500 0.175000 0.103750
v -0.192500 0.175000 0.103750
v -0.192500 0.162500 -0.080000
v -0.167500 0.162500 -0.080000
v -0.167500 0.175000 -0.080000
v -0.192500 0.175000 -0.080000
v -0.192500 0.162500 0.080000
v -0.167500 0.162500 0.080000
v -0.167500 0.175000 0.080000
v -0.192500 0.175000 0.080000
v 0.167500 0.162500 -0.080000
v 0.192500 0.162500 -0.080000
v 0.192500 0.175000 -0.080000
v 0.167500 0.175000 -0.080000
v 0.167500 0.162500 0.080000
v 0.192500 0.162500 0.080000
v 0.192500 0.175000 0.080000
v 0.167500 0.175000 0.080000
v -0.167500 0.141250 -0.077500
v 0.167500 0.141250 -0.077500
v 0.167500 0.148750 -0.077500
v -0.167500 0.148750 -0.077500
v -0.167500 0.141250 0.077500
v 0.167500 0.141250 0.077500
v 0.167500 0.148750 0.077500
v -0.167500 0.148750 0.077500
v -0.120000 0.155000 -0.030000
v -0.060000 0.201375 -0.030000
v -0.090000 0.201375 0.010530
v -0.073200 0.254375 -0.030000
v -0.096600 0.254375 0.001613
v -0.114000 0.287500 -0.030000
v -0.150000 0.201375 0.010530
v -0.143400 0.254375 0.001613
v -0.180000 0.201375 -0.030000
v -0.166800 0.254375 -0.030000
v -0.150000 0.201375 -0.070530
v -0.143400 0.254375 -0.061613
v -0.090000 0.201375 -0.070530
v -0.096600 0.254375 -0.061613
v -0.030000 0.155000 0.025000
v 0.035000 0.214500 0.025000
v 0.002500 0.214500 0.068907
v 0.020700 0.282500 0.025000
v -0.004650 0.282500 0.059248
v -0.023500 0.325000 0.025000
v -0.062500 0.214500 0.068907
v -0.055350 0.282500 0.059248
v -0.095000 0.214500 0.025000
v -0.080700 0.282500 0.025000
v -0.062500 0.214500 -0.018907
v -0.055350 0.282500 -0.009248
v 0.002500 0.214500 -0.018907
v -0.004650 0.282500 -0.009248
v 0.067500 0.155000 -0.025000
v 0.127500 0.204875 -0.025000
v 0.097500 0.204875 0.015530
v 0.114300 0.261875 -0.025000
v 0.090900 0.261875 0.006613
v 0.073500 0.297500 -0.025000
v 0.037500 0.204875 0.015530
v 0.044100 0.261875 0.006613
v 0.007500 0.204875 -0.025000
v 0.020700 0.261875 -0.025000
v 0.037500 0.204875 -0.065530
v 0.044100 0.261875 -0.056613
v 0.097500 0.204875 -0.065530
v 0.090900 0.261875 -0.056613
v 0.130000 0.155000 0.025000
v 0.180000 0.195250 0.025000
v 0.155000 0.195250 0.058775
v 0.169000 0.241250 0.025000
v 0.149500 0.241250 0.051344
v 0.135000 0.270000 0.025000
v 0.105000 0.195250 0.058775
v 0.110500 0.241250 0.051344
v 0.080000 0.195250 0.025000
v 0.091000 0.241250 0.025000
v 0.105000 0.195250 -0.008775
v 0.110500 0.241250 -0.001344
v 0.155000 0.195250 -0.008775
v 0.149500 0.241250 -0.001344
v -0.105000 0.155000 0.037500
v -0.055000 0.186500 0.037500
v -0.080000 0.186500 0.071275
v -0.066000 0.222500 0.037500
v -0.085500 0.222500 0.063844
v -0.100000 0.245000 0.037500
v -0.130000 0.186500 0.071275
v -0.124500 0.222500 0.063844
v -0.155000 0.186500 0.037500
v -0.144000 0.222500 0.037500
v -0.130000 0.186500 0.003725
v -0.124500 0.222500 0.011156
v -0.080000 0.186500 0.003725
v -0.085500 0.222500 0.011156
v 0.020000 0.155000 -0.042500
v 0.067500 0.190875 -0.042500
v 0.043750 0.190875 -0.010414
v 0.057050 0.231875 -0.042500
v 0.038525 0.231875 -0.017473
v 0.024750 0.257500 -0.042500
v -0.003750 0.190875 -0.010414
v 0.001475 0.231875 -0.017473
v -0.027500 0.190875 -0.042500
v -0.017050 0.231875 -0.042500
v -0.003750 0.190875 -0.074586
v 0.001475 0.231875 -0.067527
v 0.043750 0.190875 -0.074586
v 0.038525 0.231875 -0.067527
v 0.090000 0.155000 0.037500
v 0.135000 0.185625 0.037500
v 0.112500 0.185625 0.067897
v 0.125100 0.220625 0.037500
v 0.107550 0.220625 0.061210
v 0.094500 0.242500 0.037500
v 0.067500 0.185625 0.067897
v 0.072450 0.220625 0.061210
v 0.045000 0.185625 0.037500
v 0.054900 0.220625 0.037500
v 0.067500 0.185625 0.007103
v 0.072450 0.220625 0.013790
v 0.112500 0.185625 0.007103
v 0.107550 0.220625 0.013790
vt 0.265625 0.765625
vt 0.484375 0.765625
vt 0.484375 0.984375
vt 0.265625 0.984375
vt 0.265625 0.765625
vt 0.484375 0.765625
vt 0.484375 0.984375
vt 0.265625 0.984375
vt 0.265625 0.765625
vt 0.484375 0.765625
vt 0.484375 0.984375
vt 0.265625 0.984375
vt 0.265625 0.765625
vt 0.484375 0.765625
vt 0.484375 0.984375
vt 0.265625 0.984375
vt 0.265625 0.765625
vt 0.484375 0.765625
vt 0.484375 0.984375
vt 0.265625 0.984375
vt 0.265625 0.765625
vt 0.484375 0.765625
vt 0.484375 0.984375
vt 0.265625 0.984375
vt 0.015625 0.765625
vt 0.234375 0.765625
vt 0.234375 0.984375
vt 0.015625 0.984375
vt 0.015625 0.765625
vt 0.234375 0.765625
vt 0.234375 0.984375
vt 0.015625 0.984375
vt 0.015625 0.765625
vt 0.234375 0.765625
vt 0.234375 0.984375
vt 0.015625 0.984375
vt 0.015625 0.765625
vt 0.234375 0.765625
vt 0.234375 0.984375
vt 0.015625 0.984375
vt 0.015625 0.765625
vt 0.234375 0.765625
vt 0.234375 0.984375
vt 0.015625 0.984375
vt 0.015625 0.765625
vt 0.234375 0.765625
vt 0.234375 0.984375
vt 0.015625 0.984375
vt 0.015625 0.765625
vt 0.234375 0.765625
vt 0.234375 0.984375
vt 0.015625 0.984375
vt 0.015625 0.765625
vt 0.234375 0.765625
vt 0.234375 0.984375
vt 0.015625 0.984375
vt 0.015625 0.765625
vt 0.234375 0.765625
vt 0.234375 0.984375
vt 0.015625 0.984375
vt 0.015625 0.765625
vt 0.234375 0.765625
vt 0.234375 0.984375
vt 0.015625 0.984375
vt 0.015625 0.765625
vt 0.234375 0.765625
vt 0.234375 0.984375
vt 0.015625 0.984375
vt 0.015625 0.765625
vt 0.234375 0.765625
vt 0.234375 0.984375
vt 0.015625 0.984375
vt 0.015625 0.765625
vt 0.234375 0.765625
vt 0.234375 0.984375
vt 0.015625 0.984375
vt 0.015625 0.765625
vt 0.234375 0.765625
vt 0.234375 0.984375
vt 0.015625 0.984375
vt 0.015625 0.765625
vt 0.234375 0.765625
vt 0.234375 0.984375
vt 0.015625 0.984375
vt 0.015625 0.765625
vt 0.234375 0.765625
vt 0.234375 0.984375
vt 0.015625 0.984375
vt 0.015625 0.765625
vt 0.234375 0.765625
vt 0.234375 0.984375
vt 0.015625 0.984375
vt 0.015625 0.765625
vt 0.234375 0.765625
vt 0.234375 0.984375
vt 0.015625 0.984375
vt 0.015625 0.765625
vt 0.234375 0.765625
vt 0.234375 0.984375
vt 0.015625 0.984375
vt 0.015625 0.765625
vt 0.234375 0.765625
vt 0.234375 0.984375
vt 0.015625 0.984375
vt 0.015625 0.765625
vt 0.234375 0.765625
vt 0.234375 0.984375
vt 0.015625 0.984375
vt 0.015625 0.765625
vt 0.234375 0.765625
vt 0.234375 0.984375
vt 0.015625 0.984375
vt 0.015625 0.765625
vt 0.234375 0.765625
vt 0.234375 0.984375
vt 0.015625 0.984375
vt 0.015625 0.765625
vt 0.234375 0.765625
vt 0.234375 0.984375
vt 0.015625 0.984375
vt 0.265625 0.765625
vt 0.484375 0.765625
vt 0.484375 0.984375
vt 0.265625 0.984375
vt 0.265625 0.765625
vt 0.484375 0.765625
vt 0.484375 0.984375
vt 0.265625 0.984375
vt 0.265625 0.765625
vt 0.484375 0.765625
vt 0.484375 0.984375
vt 0.265625 0.984375
vt 0.265625 0.765625
vt 0.484375 0.765625
vt 0.484375 0.984375
vt 0.265625 0.984375
vt 0.265625 0.765625
vt 0.484375 0.765625
vt 0.484375 0.984375
vt 0.265625 0.984375
vt 0.265625 0.765625
vt 0.484375 0.765625
vt 0.484375 0.984375
vt 0.265625 0.984375
vt 0.265625 0.765625
vt 0.484375 0.765625
vt 0.484375 0.984375
vt 0.265625 0.984375
vt 0.265625 0.765625
vt 0.484375 0.765625
vt 0.484375 0.984375
vt 0.265625 0.984375
vt 0.265625 0.765625
vt 0.484375 0.765625
vt 0.484375 0.984375
vt 0.265625 0.984375
vt 0.265625 0.765625
vt 0.484375 0.765625
vt 0.484375 0.984375
vt 0.265625 0.984375
vt 0.265625 0.765625
vt 0.484375 0.765625
vt 0.484375 0.984375
vt 0.265625 0.984375
vt 0.265625 0.765625
vt 0.484375 0.765625
vt 0.484375 0.984375
vt 0.265625 0.984375
vt 0.265625 0.765625
vt 0.484375 0.765625
vt 0.484375 0.984375
vt 0.265625 0.984375
vt 0.265625 0.765625
vt 0.484375 0.765625
vt 0.484375 0.984375
vt 0.265625 0.984375
vt 0.265625 0.765625
vt 0.484375 0.765625
vt 0.484375 0.984375
vt 0.265625 0.984375
vt 0.265625 0.765625
vt 0.484375 0.765625
vt 0.484375 0.984375
vt 0.265625 0.984375
vt 0.265625 0.765625
vt 0.484375 0.765625
vt 0.484375 0.984375
vt 0.265625 0.984375
vt 0.265625 0.765625
vt 0.484375 0.765625
vt 0.484375 0.984375
vt 0.265625 0.984375
vt 0.265625 0.765625
vt 0.484375 0.765625
vt 0.484375 0.984375
vt 0.265625 0.984375
vt 0.265625 0.765625
vt 0.484375 0.765625
vt 0.484375 0.984375
vt 0.265625 0.984375
vt 0.515625 0.515625
vt 0.734375 0.515625
vt 0.734375 0.734375
vt 0.515625 0.734375
vt 0.015625 0.515625
vt 0.234375 0.515625
vt 0.234375 0.734375
vt 0.015625 0.515625
vt 0.234375 0.515625
vt 0.234375 0.734375
vt 0.015625 0.734375
vt 0.015625 0.515625
vt 0.234375 0.515625
vt 0.234375 0.734375
vt 0.015625 0.515625
vt 0.234375 0.515625
vt 0.234375 0.734375
vt 0.015625 0.515625
vt 0.234375 0.515625
vt 0.234375 0.734375
vt 0.015625 0.734375
vt 0.015625 0.515625
vt 0.234375 0.515625
vt 0.234375 0.734375
vt 0.015625 0.515625
vt 0.234375 0.515625
vt 0.234375 0.734375
vt 0.015625 0.515625
vt 0.234375 0.515625
vt 0.234375 0.734375
vt 0.015625 0.734375
vt 0.015625 0.515625
vt 0.234375 0.515625
vt 0.234375 0.734375
vt 0.015625 0.515625
vt 0.234375 0.515625
vt 0.234375 0.734375
vt 0.015625 0.515625
vt 0.234375 0.515625
vt 0.234375 0.734375
vt 0.015625 0.734375
vt 0.015625 0.515625
vt 0.234375 0.515625
vt 0.234375 0.734375
vt 0.015625 0.515625
vt 0.234375 0.515625
vt 0.234375 0.734375
vt 0.015625 0.515625
vt 0.234375 0.515625
vt 0.234375 0.734375
vt 0.015625 0.734375
vt 0.015625 0.515625
vt 0.234375 0.515625
vt 0.234375 0.734375
vt 0.015625 0.515625
vt 0.234375 0.515625
vt 0.234375 0.734375
vt 0.015625 0.515625
vt 0.234375 0.515625
vt 0.234375 0.734375
vt 0.015625 0.734375
vt 0.015625 0.515625
vt 0.234375 0.515625
vt 0.234375 0.734375
vt 0.265625 0.515625
vt 0.484375 0.515625
vt 0.484375 0.734375
vt 0.265625 0.515625
vt 0.484375 0.515625
vt 0.484375 0.734375
vt 0.265625 0.734375
vt 0.265625 0.515625
vt 0.484375 0.515625
vt 0.484375 0.734375
vt 0.265625 0.515625
vt 0.484375 0.515625
vt 0.484375 0.734375
vt 0.265625 0.515625
vt 0.484375 0.515625
vt 0.484375 0.734375
vt 0.265625 0.734375
vt 0.265625 0.515625
vt 0.484375 0.515625
vt 0.484375 0.734375
vt 0.265625 0.515625
vt 0.484375 0.515625
vt 0.484375 0.734375
vt 0.265625 0.515625
vt 0.484375 0.515625
vt 0.484375 0.734375
vt 0.265625 0.734375
vt 0.265625 0.515625
vt 0.484375 0.515625
vt 0.484375 0.734375
vt 0.265625 0.515625
vt 0.484375 0.515625
vt 0.484375 0.734375
vt 0.265625 0.515625
vt 0.484375 0.515625
vt 0.484375 0.734375
vt 0.265625 0.734375
vt 0.265625 0.515625
vt 0.484375 0.515625
vt 0.484375 0.734375
vt 0.265625 0.515625
vt 0.484375 0.515625
vt 0.484375 0.734375
vt 0.265625 0.515625
vt 0.484375 0.515625
vt 0.484375 0.734375
vt 0.265625 0.734375
vt 0.265625 0.515625
vt 0.484375 0.515625
vt 0.484375 0.734375
vt 0.265625 0.515625
vt 0.484375 0.515625
vt 0.484375 0.734375
vt 0.265625 0.515625
vt 0.484375 0.515625
vt 0.484375 0.734375
vt 0.265625 0.734375
vt 0.265625 0.515625
vt 0.484375 0.515625
vt 0.484375 0.734375
vt 0.015625 0.515625
vt 0.234375 0.515625
vt 0.234375 0.734375
vt 0.015625 0.515625
vt 0.234375 0.515625
vt 0.234375 0.734375
vt 0.015625 0.734375
vt 0.015625 0.515625
vt 0.234375 0.515625
vt 0.234375 0.734375
vt 0.015625 0.515625
vt 0.234375 0.515625
vt 0.234375 0.734375
vt 0.015625 0.515625
vt 0.234375 0.515625
vt 0.234375 0.734375
vt 0.015625 0.734375
vt 0.015625 0.515625
vt 0.234375 0.515625
vt 0.234375 0.734375
vt 0.015625 0.515625
vt 0.234375 0.515625
vt 0.234375 0.734375
vt 0.015625 0.515625
vt 0.234375 0.515625
vt 0.234375 0.734375
vt 0.015625 0.734375
vt 0.015625 0.515625
vt 0.234375 0.515625
vt 0.234375 0.734375
vt 0.015625 0.515625
vt 0.234375 0.515625
vt 0.234375 0.734375
vt 0.015625 0.515625
vt 0.234375 0.515625
vt 0.234375 0.734375
vt 0.015625 0.734375
vt 0.015625 0.515625
vt 0.234375 0.515625
vt 0.234375 0.734375
vt 0.015625 0.515625
vt 0.234375 0.515625
vt 0.234375 0.734375
vt 0.015625 0.515625
vt 0.234375 0.515625
vt 0.234375 0.734375
vt 0.015625 0.734375
vt 0.015625 0.515625
vt 0.234375 0.515625
vt 0.234375 0.734375
vt 0.015625 0.515625
vt 0.234375 0.515625
vt 0.234375 0.734375
vt 0.015625 0.515625
vt 0.234375 0.515625
vt 0.234375 0.734375
vt 0.015625 0.734375
vt 0.015625 0.515625
vt 0.234375 0.515625
vt 0.234375 0.734375
vt 0.265625 0.515625
vt 0.484375 0.515625
vt 0.484375 0.734375
vt 0.265625 0.515625
vt 0.484375 0.515625
vt 0.484375 0.734375
vt 0.265625 0.734375
vt 0.265625 0.515625
vt 0.484375 0.515625
vt 0.484375 0.734375
vt 0.265625 0.515625
vt 0.484375 0.515625
vt 0.484375 0.734375
vt 0.265625 0.515625
vt 0.484375 0.515625
vt 0.484375 0.734375
vt 0.265625 0.734375
vt 0.265625 0.515625
vt 0.484375 0.515625
vt 0.484375 0.734375
vt 0.265625 0.515625
vt 0.484375 0.515625
vt 0.484375 0.734375
vt 0.265625 0.515625
vt 0.484375 0.515625
vt 0.484375 0.734375
vt 0.265625 0.734375
vt 0.265625 0.515625
vt 0.484375 0.515625
vt 0.484375 0.734375
vt 0.265625 0.515625
vt 0.484375 0.515625
vt 0.484375 0.734375
vt 0.265625 0.515625
vt 0.484375 0.515625
vt 0.484375 0.734375
vt 0.265625 0.734375
vt 0.265625 0.515625
vt 0.484375 0.515625
vt 0.484375 0.734375
vt 0.265625 0.515625
vt 0.484375 0.515625
vt 0.484375 0.734375
vt 0.265625 0.515625
vt 0.484375 0.515625
vt 0.484375 0.734375
vt 0.265625 0.734375
vt 0.265625 0.515625
vt 0.484375 0.515625
vt 0.484375 0.734375
vt 0.265625 0.515625
vt 0.484375 0.515625
vt 0.484375 0.734375
vt 0.265625 0.515625
vt 0.484375 0.515625
vt 0.484375 0.734375
vt 0.265625 0.734375
vt 0.265625 0.515625
vt 0.484375 0.515625
vt 0.484375 0.734375
vt 0.265625 0.515625
vt 0.484375 0.515625
vt 0.484375 0.734375
vt 0.265625 0.515625
vt 0.484375 0.515625
vt 0.484375 0.734375
vt 0.265625 0.734375
vt 0.265625 0.515625
vt 0.484375 0.515625
vt 0.484375 0.734375
vt 0.265625 0.515625
vt 0.484375 0.515625
vt 0.484375 0.734375
vt 0.265625 0.515625
vt 0.484375 0.515625
vt 0.484375 0.734375
vt 0.265625 0.734375
vt 0.265625 0.515625
vt 0.484375 0.515625
vt 0.484375 0.734375
vt 0.265625 0.515625
vt 0.484375 0.515625
vt 0.484375 0.734375
vt 0.265625 0.515625
vt 0.484375 0.515625
vt 0.484375 0.734375
vt 0.265625 0.734375
vt 0.265625 0.515625
vt 0.484375 0.515625
vt 0.484375 0.734375
vt 0.265625 0.515625
vt 0.484375 0.515625
vt 0.484375 0.734375
vt 0.265625 0.515625
vt 0.484375 0.515625
vt 0.484375 0.734375
vt 0.265625 0.734375
vt 0.265625 0.515625
vt 0.484375 0.515625
vt 0.484375 0.734375
vt 0.265625 0.515625
vt 0.484375 0.515625
vt 0.484375 0.734375
vt 0.265625 0.515625
vt 0.484375 0.515625
vt 0.484375 0.734375
vt 0.265625 0.734375
vt 0.265625 0.515625
vt 0.484375 0.515625
vt 0.484375 0.734375
vt 0.265625 0.515625
vt 0.484375 0.515625
vt 0.484375 0.734375
vt 0.265625 0.515625
vt 0.484375 0.515625
vt 0.484375 0.734375
vt 0.265625 0.734375
vt 0.265625 0.515625
vt 0.484375 0.515625
vt 0.484375 0.734375
vt 0.015625 0.515625
vt 0.234375 0.515625
vt 0.234375 0.734375
vt 0.015625 0.515625
vt 0.234375 0.515625
vt 0.234375 0.734375
vt 0.015625 0.734375
vt 0.015625 0.515625
vt 0.234375 0.515625
vt 0.234375 0.734375
vt 0.015625 0.515625
vt 0.234375 0.515625
vt 0.234375 0.734375
vt 0.015625 0.515625
vt 0.234375 0.515625
vt 0.234375 0.734375
vt 0.015625 0.734375
vt 0.015625 0.515625
vt 0.234375 0.515625
vt 0.234375 0.734375
vt 0.015625 0.515625
vt 0.234375 0.515625
vt 0.234375 0.734375
vt 0.015625 0.515625
vt 0.234375 0.515625
vt 0.234375 0.734375
vt 0.015625 0.734375
vt 0.015625 0.515625
vt 0.234375 0.515625
vt 0.234375 0.734375
vt 0.015625 0.515625
vt 0.234375 0.515625
vt 0.234375 0.734375
vt 0.015625 0.515625
vt 0.234375 0.515625
vt 0.234375 0.734375
vt 0.015625 0.734375
vt 0.015625 0.515625
vt 0.234375 0.515625
vt 0.234375 0.734375
vt 0.015625 0.515625
vt 0.234375 0.515625
vt 0.234375 0.734375
vt 0.015625 0.515625
vt 0.234375 0.515625
vt 0.234375 0.734375
vt 0.015625 0.734375
vt 0.015625 0.515625
vt 0.234375 0.515625
vt 0.234375 0.734375
vt 0.015625 0.515625
vt 0.234375 0.515625
vt 0.234375 0.734375
vt 0.015625 0.515625
vt 0.234375 0.515625
vt 0.234375 0.734375
vt 0.015625 0.734375
vt 0.015625 0.515625
vt 0.234375 0.515625
vt 0.234375 0.734375
vt 0.265625 0.515625
vt 0.484375 0.515625
vt 0.484375 0.734375
vt 0.265625 0.515625
vt 0.484375 0.515625
vt 0.484375 0.734375
vt 0.265625 0.734375
vt 0.265625 0.515625
vt 0.484375 0.515625
vt 0.484375 0.734375
vt 0.265625 0.515625
vt 0.484375 0.515625
vt 0.484375 0.734375
vt 0.265625 0.515625
vt 0.484375 0.515625
vt 0.484375 0.734375
vt 0.265625 0.734375
vt 0.265625 0.515625
vt 0.484375 0.515625
vt 0.484375 0.734375
vt 0.265625 0.515625
vt 0.484375 0.515625
vt 0.484375 0.734375
vt 0.265625 0.515625
vt 0.484375 0.515625
vt 0.484375 0.734375
vt 0.265625 0.734375
vt 0.265625 0.515625
vt 0.484375 0.515625
vt 0.484375 0.734375
vt 0.265625 0.515625
vt 0.484375 0.515625
vt 0.484375 0.734375
vt 0.265625 0.515625
vt 0.484375 0.515625
vt 0.484375 0.734375
vt 0.265625 0.734375
vt 0.265625 0.515625
vt 0.484375 0.515625
vt 0.484375 0.734375
vt 0.265625 0.515625
vt 0.484375 0.515625
vt 0.484375 0.734375
vt 0.265625 0.515625
vt 0.484375 0.515625
vt 0.484375 0.734375
vt 0.265625 0.734375
vt 0.265625 0.515625
vt 0.484375 0.515625
vt 0.484375 0.734375
vt 0.265625 0.515625
vt 0.484375 0.515625
vt 0.484375 0.734375
vt 0.265625 0.515625
vt 0.484375 0.515625
vt 0.484375 0.734375
vt 0.265625 0.734375
vt 0.265625 0.515625
vt 0.484375 0.515625
vt 0.484375 0.734375
vn 0.00000000 0.00000000 -1.00000000
vn 0.00000000 0.00000000 1.00000000
vn -1.00000000 0.00000000 0.00000000
vn 1.00000000 0.00000000 0.00000000
vn 0.00000000 -1.00000000 0.00000000
vn 0.00000000 1.00000000 0.00000000
vn 0.00000000 0.00000000 -1.00000000
vn 0.00000000 0.00000000 1.00000000
vn -1.00000000 0.00000000 0.00000000
vn 1.00000000 0.00000000 0.00000000
vn 0.00000000 -1.00000000 0.00000000
vn 0.00000000 1.00000000 0.00000000
vn 0.00000000 0.00000000 -1.00000000
vn 0.00000000 0.00000000 1.00000000
vn -1.00000000 0.00000000 0.00000000
vn 1.00000000 0.00000000 0.00000000
vn 0.00000000 -1.00000000 0.00000000
vn 0.00000000 1.00000000 0.00000000
vn 0.00000000 0.00000000 -1.00000000
vn 0.00000000 0.00000000 1.00000000
vn -1.00000000 0.00000000 0.00000000
vn 1.00000000 0.00000000 0.00000000
vn 0.00000000 -1.00000000 0.00000000
vn 0.00000000 1.00000000 0.00000000
vn 0.00000000 0.00000000 -1.00000000
vn 0.00000000 0.00000000 1.00000000
vn -1.00000000 0.00000000 0.00000000
vn 1.00000000 0.00000000 0.00000000
vn 0.00000000 -1.00000000 0.00000000
vn 0.00000000 1.00000000 0.00000000
vn 0.00000000 0.00000000 -1.00000000
vn 0.00000000 0.00000000 1.00000000
vn -1.00000000 0.00000000 0.00000000
vn 1.00000000 0.00000000 0.00000000
vn 0.00000000 1.00000000 0.00000000
vn 0.00000000 0.00000000 -1.00000000
vn 0.00000000 0.00000000 1.00000000
vn -1.00000000 0.00000000 0.00000000
vn 1.00000000 0.00000000 0.00000000
vn 0.00000000 1.00000000 0.00000000
vn 0.00000000 0.00000000 -1.00000000
vn 0.00000000 0.00000000 1.00000000
vn -1.00000000 0.00000000 0.00000000
vn 1.00000000 0.00000000 0.00000000
vn 0.00000000 1.00000000 0.00000000
vn 0.00000000 0.00000000 -1.00000000
vn 0.00000000 0.00000000 1.00000000
vn -1.00000000 0.00000000 0.00000000
vn 1.00000000 0.00000000 0.00000000
vn 0.00000000 1.00000000 0.00000000
vn 0.00000000 1.00000000 0.00000000
vn 0.55712211 -0.72080489 0.41237758
vn 0.78812805 0.19628850 0.58337381
vn 0.57119744 0.70354281 0.42280138
vn 0.00000000 -0.65806194 0.75296380
vn 0.00000000 0.16591346 0.98614032
vn 0.00000000 0.69040354 0.72342446
vn -0.55712211 -0.72080489 0.41237758
vn -0.78812718 0.19629392 0.58337317
vn -0.49455195 0.78829715 0.36606825
vn -0.55712211 -0.72080489 -0.41237758
vn -0.78812805 0.19628850 -0.58337381
vn -0.49455195 0.78829715 -0.36606825
vn 0.00000000 -0.65806194 -0.75296380
vn 0.00000000 0.16591346 -0.98614032
vn 0.00000000 0.69040354 -0.72342446
vn 0.55712211 -0.72080489 -0.41237758
vn 0.78812718 0.19629392 -0.58337317
vn 0.57119744 0.70354281 -0.42280138
vn 0.60397708 -0.65980689 0.44706437
vn 0.79252747 0.16666387 0.58662028
vn 0.61668738 0.64135487 0.45646534
vn 0.00000000 -0.59376767 0.80463654
vn 0.00000000 0.14063246 0.99006187
vn 0.00000000 0.62746163 0.77864749
vn -0.60397708 -0.65980689 0.44706437
vn -0.79252826 0.16665806 0.58662087
vn -0.54560324 0.73431777 0.40384963
vn -0.60397708 -0.65980689 -0.44706437
vn -0.79252747 0.16666387 -0.58662028
vn -0.54560324 0.73431777 -0.40384963
vn 0.00000000 -0.59376767 -0.80463654
vn 0.00000000 0.14063246 -0.99006187
vn 0.00000000 0.62746163 -0.77864749
vn 0.60397708 -0.65980689 -0.44706437
vn 0.79252826 0.16665806 -0.58662087
vn 0.61668738 0.64135487 -0.45646534
vn 0.57782120 -0.69512324 0.42769889
vn 0.79019230 0.18299190 0.58490178
vn 0.59136136 0.67726438 0.43772675
vn 0.00000000 -0.63065413 0.77606402
vn 0.00000000 0.15455877 0.98798360
vn 0.00000000 0.66373417 0.74796855
vn -0.57782120 -0.69512324 0.42769889
vn -0.79019154 0.18299699 0.58490121
vn -0.51677449 0.76591419 0.38251742
vn -0.57782120 -0.69512324 -0.42769889
vn -0.79019230 0.18299190 -0.58490178
vn -0.51677449 0.76591419 -0.38251742
vn 0.00000000 -0.63065413 -0.77606402
vn 0.00000000 0.15455877 -0.98798360
vn 0.00000000 0.66373417 -0.74796855
vn 0.57782120 -0.69512324 -0.42769889
vn 0.79019154 0.18299699 -0.58490121
vn 0.59136136 0.67726438 -0.43772675
vn 0.56878486 -0.70656504 0.42101026
vn 0.78931515 0.18874927 0.58425620
vn 0.58257127 0.68895385 0.43122304
vn 0.00000000 -0.64280146 0.76603282
vn 0.00000000 0.15947601 0.98720180
vn 0.00000000 0.67558294 0.73728400
vn -0.56878486 -0.70656504 0.42101026
vn -0.78931393 0.18875713 0.58425530
vn -0.50701125 0.77594764 0.37529302
vn -0.56878486 -0.70656504 -0.42101026
vn -0.78931515 0.18874927 -0.58425620
vn -0.50701125 0.77594764 -0.37529302
vn 0.00000000 -0.64280146 -0.76603282
vn 0.00000000 0.15947601 -0.98720180
vn 0.00000000 0.67558294 -0.73728400
vn 0.56878486 -0.70656504 -0.42101026
vn 0.78931393 0.18875713 -0.58425530
vn 0.58257127 0.68895385 -0.43122304
vn 0.49583932 -0.78704653 0.36701652
vn 0.78056667 0.23850648 0.57778052
vn 0.51088527 0.77200441 0.37816060
vn 0.00000000 -0.73130723 0.68204819
vn 0.00000000 0.20215490 0.97935356
vn 0.00000000 0.76040456 0.64944969
vn -0.49583932 -0.78704653 0.36701652
vn -0.78056475 0.23851619 0.57777910
vn -0.43144737 0.84371930 0.31936015
vn -0.49583932 -0.78704653 -0.36701652
vn -0.78056667 0.23850648 -0.57778052
vn -0.43144737 0.84371930 -0.31936015
vn 0.00000000 -0.73130723 -0.68204819
vn 0.00000000 0.20215490 -0.97935356
vn 0.00000000 0.76040456 -0.64944969
vn 0.49583932 -0.78704653 -0.36701652
vn 0.78056475 0.23851619 -0.57777910
vn 0.51088527 0.77200441 -0.37816060
vn 0.55040015 -0.72875282 0.40740521
vn 0.78741141 0.20069388 0.58284238
vn 0.56462705 0.71170551 0.41793727
vn 0.00000000 -0.66664848 0.74537226
vn 0.00000000 0.16967429 0.98550020
vn 0.00000000 0.69870995 0.71540506
vn -0.55040015 -0.72875282 0.40740521
vn -0.78741118 0.20069528 0.58284221
vn -0.48744116 0.79512353 0.36080423
vn -0.55040015 -0.72875282 -0.40740521
vn -0.78741141 0.20069388 -0.58284238
vn -0.48744116 0.79512353 -0.36080423
vn 0.00000000 -0.66664848 -0.74537226
vn 0.00000000 0.16967429 -0.98550020
vn 0.00000000 0.69870995 -0.71540506
vn 0.55040015 -0.72875282 -0.40740521
vn 0.78741118 0.20069528 -0.58284221
vn 0.56462705 0.71170551 -0.41793727
vn 0.51938394 -0.76317640 0.38445039
vn 0.78376661 0.22169399 0.58013935
vn 0.53416483 0.74722029 0.39538561
vn 0.00000000 -0.70445986 0.70974383
vn 0.00000000 0.18766273 0.98223353
vn 0.00000000 0.73497575 0.67809340
vn -0.51938394 -0.76317640 0.38445039
vn -0.78376787 0.22168712 0.58014028
vn -0.45525044 0.82413336 0.33697365
vn -0.51938394 -0.76317640 -0.38445039
vn -0.78376661 0.22169399 -0.58013935
vn -0.45525044 0.82413336 -0.33697365
vn 0.00000000 -0.70445986 -0.70974383
vn 0.00000000 0.18766273 -0.98223353
vn 0.00000000 0.73497575 -0.67809340
vn 0.51938394 -0.76317640 -0.38445039
vn 0.78376787 0.22168712 -0.58014028
vn 0.53416483 0.74722029 -0.39538561
f 1/1/1 4/2/1 3/3/1
f 1/1/1 3/3/1 2/4/1
f 5/5/2 6/6/2 7/7/2
f 5/5/2 7/7/2 8/8/2
f 1/9/3 5/10/3 8/11/3
f 1/9/3 8/11/3 4/12/3
f 2/13/4 3/14/4 7/15/4
f 2/13/4 7/15/4 6/16/4
f 1/17/5 2/18/5 6/19/5
f 1/17/5 6/19/5 5/20/5
f 4/21/6 8/22/6 7/23/6
f 4/21/6 7/23/6 3/24/6
f 9/25/7 12/26/7 11/27/7
f 9/25/7 11/27/7 10/28/7
f 13/29/8 14/30/8 15/31/8
f 13/29/8 15/31/8 16/32/8
f 9/33/9 13/34/9 16/35/9
f 9/33/9 16/35/9 12/36/9
f 10/37/10 11/38/10 15/39/10
f 10/37/10 15/39/10 14/40/10
f 9/41/11 10/42/11 14/43/11
f 9/41/11 14/43/11 13/44/11
f 12/45/12 16/46/12 15/47/12
f 12/45/12 15/47/12 11/48/12
f 17/49/13 20/50/13 19/51/13
f 17/49/13 19/51/13 18/52/13
f 21/53/14 22/54/14 23/55/14
f 21/53/14 23/55/14 24/56/14
f 17/57/15 21/58/15 24/59/15
f 17/57/15 24/59/15 20/60/15
f 18/61/16 19/62/16 23/63/16
f 18/61/16 23/63/16 22/64/16
f 17/65/17 18/66/17 22/67/17
f 17/65/17 22/67/17 21/68/17
f 20/69/18 24/70/18 23/71/18
f 20/69/18 23/71/18 19/72/18
f 13/73/19 16/74/19 26/75/19
f 13/73/19 26/75/19 25/76/19
f 17/77/20 27/78/20 28/79/20
f 17/77/20 28/79/20 20/80/20
f 13/81/21 17/82/21 20/83/21
f 13/81/21 20/83/21 16/84/21
f 25/85/22 26/86/22 28/87/22
f 25/85/22 28/87/22 27/88/22
f 13/89/23 25/90/23 27/91/23
f 13/89/23 27/91/23 17/92/23
f 16/93/24 20/94/24 28/95/24
f 16/93/24 28/95/24 26/96/24
f 29/97/25 30/98/25 15/99/25
f 29/97/25 15/99/25 14/100/25
f 31/101/26 18/102/26 19/103/26
f 31/101/26 19/103/26 32/104/26
f 29/105/27 31/106/27 32/107/27
f 29/105/27 32/107/27 30/108/27
f 14/109/28 15/110/28 19/111/28
f 14/109/28 19/111/28 18/112/28
f 29/113/29 14/114/29 18/115/29
f 29/113/29 18/115/29 31/116/29
f 30/117/30 32/118/30 19/119/30
f 30/117/30 19/119/30 15/120/30
f 33/121/31 36/122/31 35/123/31
f 33/121/31 35/123/31 34/124/31
f 37/125/32 38/126/32 39/127/32
f 37/125/32 39/127/32 40/128/32
f 33/129/33 37/130/33 40/131/33
f 33/129/33 40/131/33 36/132/33
f 34/133/34 35/134/34 39/135/34
f 34/133/34 39/135/34 38/136/34
f 36/137/35 40/138/35 39/139/35
f 36/137/35 39/139/35 35/140/35
f 41/141/36 44/142/36 43/143/36
f 41/141/36 43/143/36 42/144/36
f 45/145/37 46/146/37 47/147/37
f 45/145/37 47/147/37 48/148/37
f 41/149/38 45/150/38 48/151/38
f 41/149/38 48/151/38 44/152/38
f 42/153/39 43/154/39 47/155/39
f 42/153/39 47/155/39 46/156/39
f 44/157/40 48/158/40 47/159/40
f 44/157/40 47/159/40 43/160/40
f 49/161/41 52/162/41 51/163/41
f 49/161/41 51/163/41 50/164/41
f 53/165/42 54/166/42 55/167/42
f 53/165/42 55/167/42 56/168/42
f 49/169/43 53/170/43 56/171/43
f 49/169/43 56/171/43 52/172/43
f 50/173/44 51/174/44 55/175/44
f 50/173/44 55/175/44 54/176/44
f 52/177/45 56/178/45 55/179/45
f 52/177/45 55/179/45 51/180/45
f 57/181/46 60/182/46 59/183/46
f 57/181/46 59/183/46 58/184/46
f 61/185/47 62/186/47 63/187/47
f 61/185/47 63/187/47 64/188/47
f 57/189/48 61/190/48 64/191/48
f 57/189/48 64/191/48 60/192/48
f 58/193/49 59/194/49 63/195/49
f 58/193/49 63/195/49 62/196/49
f 60/197/50 64/198/50 63/199/50
f 60/197/50 63/199/50 59/200/50
f 68/201/51 72/202/51 71/203/51
f 68/201/51 71/203/51 67/204/51
f 73/205/52 74/206/52 75/207/52
f 74/208/53 76/209/53 77/210/53
f 74/208/53 77/210/53 75/211/53
f 78/212/54 77/213/54 76/214/54
f 73/215/55 75/216/55 79/217/55
f 75/218/56 77/219/56 80/220/56
f 75/218/56 80/220/56 79/221/56
f 78/222/57 80/223/57 77/224/57
f 73/225/58 79/226/58 81/227/58
f 79/228/59 80/229/59 82/230/59
f 79/228/59 82/230/59 81/231/59
f 78/232/60 82/233/60 80/234/60
f 73/235/61 81/236/61 83/237/61
f 81/238/62 82/239/62 84/240/62
f 81/238/62 84/240/62 83/241/62
f 78/242/63 84/243/63 82/244/63
f 73/245/64 83/246/64 85/247/64
f 83/248/65 84/249/65 86/250/65
f 83/248/65 86/250/65 85/251/65
f 78/252/66 86/253/66 84/254/66
f 73/255/67 85/256/67 74/257/67
f 85/258/68 86/259/68 76/260/68
f 85/258/68 76/260/68 74/261/68
f 78/262/69 76/263/69 86/264/69
f 87/265/70 88/266/70 89/267/70
f 88/268/71 90/269/71 91/270/71
f 88/268/71 91/270/71 89/271/71
f 92/272/72 91/273/72 90/274/72
f 87/275/73 89/276/73 93/277/73
f 89/278/74 91/279/74 94/280/74
f 89/278/74 94/280/74 93/281/74
f 92/282/75 94/283/75 91/284/75
f 87/285/76 93/286/76 95/287/76
f 93/288/77 94/289/77 96/290/77
f 93/288/77 96/290/77 95/291/77
f 92/292/78 96/293/78 94/294/78
f 87/295/79 95/296/79 97/297/79
f 95/298/80 96/299/80 98/300/80
f 95/298/80 98/300/80 97/301/80
f 92/302/81 98/303/81 96/304/81
f 87/305/82 97/306/82 99/307/82
f 97/308/83 98/309/83 100/310/83
f 97/308/83 100/310/83 99/311/83
f 92/312/84 100/313/84 98/314/84
f 87/315/85 99/316/85 88/317/85
f 99/318/86 100/319/86 90/320/86
f 99/318/86 90/320/86 88/321/86
f 92/322/87 90/323/87 100/324/87
f 101/325/88 102/326/88 103/327/88
f 102/328/89 104/329/89 105/330/89
f 102/328/89 105/330/89 103/331/89
f 106/332/90 105/333/90 104/334/90
f 101/335/91 103/336/91 107/337/91
f 103/338/92 105/339/92 108/340/92
f 103/338/92 108/340/92 107/341/92
f 106/342/93 108/343/93 105/344/93
f 101/345/94 107/346/94 109/347/94
f 107/348/95 108/349/95 110/350/95
f 107/348/95 110/350/95 109/351/95
f 106/352/96 110/353/96 108/354/96
f 101/355/97 109/356/97 111/357/97
f 109/358/98 110/359/98 112/360/98
f 109/358/98 112/360/98 111/361/98
f 106/362/99 112/363/99 110/364/99
f 101/365/100 111/366/100 113/367/100
f 111/368/101 112/369/101 114/370/101
f 111/368/101 114/370/101 113/371/101
f 106/372/102 114/373/102 112/374/102
f 101/375/103 113/376/103 102/377/103
f 113/378/104 114/379/104 104/380/104
f 113/378/104 104/380/104 102/381/104
f 106/382/105 104/383/105 114/384/105
f 115/385/106 116/386/106 117/387/106
f 116/388/107 118/389/107 119/390/107
f 116/388/107 119/390/107 117/391/107
f 120/392/108 119/393/108 118/394/108
f 115/395/109 117/396/109 121/397/109
f 117/398/110 119/399/110 122/400/110
f 117/398/110 122/400/110 121/401/110
f 120/402/111 122/403/111 119/404/111
f 115/405/112 121/406/112 123/407/112
f 121/408/113 122/409/113 124/410/113
f 121/408/113 124/410/113 123/411/113
f 120/412/114 124/413/114 122/414/114
f 115/415/115 123/416/115 125/417/115
f 123/418/116 124/419/116 126/420/116
f 123/418/116 126/420/116 125/421/116
f 120/422/117 126/423/117 124/424/117
f 115/425/118 125/426/118 127/427/118
f 125/428/119 126/429/119 128/430/119
f 125/428/119 128/430/119 127/431/119
f 120/432/120 128/433/120 126/434/120
f 115/435/121 127/436/121 116/437/121
f 127/438/122 128/439/122 118/440/122
f 127/438/122 118/440/122 116/441/122
f 120/442/123 118/443/123 128/444/123
f 129/445/124 130/446/124 131/447/124
f 130/448/125 132/449/125 133/450/125
f 130/448/125 133/450/125 131/451/125
f 134/452/126 133/453/126 132/454/126
f 129/455/127 131/456/127 135/457/127
f 131/458/128 133/459/128 136/460/128
f 131/458/128 136/460/128 135/461/128
f 134/462/129 136/463/129 133/464/129
f 129/465/130 135/466/130 137/467/130
f 135/468/131 136/469/131 138/470/131
f 135/468/131 138/470/131 137/471/131
f 134/472/132 138/473/132 136/474/132
f 129/475/133 137/476/133 139/477/133
f 137/478/134 138/479/134 140/480/134
f 137/478/134 140/480/134 139/481/134
f 134/482/135 140/483/135 138/484/135
f 129/485/136 139/486/136 141/487/136
f 139/488/137 140/489/137 142/490/137
f 139/488/137 142/490/137 141/491/137
f 134/492/138 142/493/138 140/494/138
f 129/495/139 141/496/139 130/497/139
f 141/498/140 142/499/140 132/500/140
f 141/498/140 132/500/140 130/501/140
f 134/502/141 132/503/141 142/504/141
f 143/505/142 144/506/142 145/507/142
f 144/508/143 146/509/143 147/510/143
f 144/508/143 147/510/143 145/511/143
f 148/512/144 147/513/144 146/514/144
f 143/515/145 145/516/145 149/517/145
f 145/518/146 147/519/146 150/520/146
f 145/518/146 150/520/146 149/521/146
f 148/522/147 150/523/147 147/524/147
f 143/525/148 149/526/148 151/527/148
f 149/528/149 150/529/149 152/530/149
f 149/528/149 152/530/149 151/531/149
f 148/532/150 152/533/150 150/534/150
f 143/535/151 151/536/151 153/537/151
f 151/538/152 152/539/152 154/540/152
f 151/538/152 154/540/152 153/541/152
f 148/542/153 154/543/153 152/544/153
f 143/545/154 153/546/154 155/547/154
f 153/548/155 154/549/155 156/550/155
f 153/548/155 156/550/155 155/551/155
f 148/552/156 156/553/156 154/554/156
f 143/555/157 155/556/157 144/557/157
f 155/558/158 156/559/158 146/560/158
f 155/558/158 146/560/158 144/561/158
f 148/562/159 146/563/159 156/564/159
f 157/565/160 158/566/160 159/567/160
f 158/568/161 160/569/161 161/570/161
f 158/568/161 161/570/161 159/571/161
f 162/572/162 161/573/162 160/574/162
f 157/575/163 159/576/163 163/577/163
f 159/578/164 161/579/164 164/580/164
f 159/578/164 164/580/164 163/581/164
f 162/582/165 164/583/165 161/584/165
f 157/585/166 163/586/166 165/587/166
f 163/588/167 164/589/167 166/590/167
f 163/588/167 166/590/167 165/591/167
f 162/592/168 166/593/168 164/594/168
f 157/595/169 165/596/169 167/597/169
f 165/598/170 166/599/170 168/600/170
f 165/598/170 168/600/170 167/601/170
f 162/602/171 168/603/171 166/604/171
f 157/605/172 167/606/172 169/607/172
f 167/608/173 168/609/173 170/610/173
f 167/608/173 170/610/173 169/611/173
f 162/612/174 170/613/174 168/614/174
f 157/615/175 169/616/175 158/617/175
f 169/618/176 170/619/176 160/620/176
f 169/618/176 160/620/176 158/621/176
f 162/622/177 160/623/177 170/624/177
