mtllib TorusSettlementFarm_A34.mtl
v -2.8185428 0.0189156 4.2500000
v -0.9395393 0.0021018 4.2500000
v -0.9395393 0.0021018 -4.2500000
v -2.8185428 0.0189156 -4.2500000
v -0.9395393 0.0021018 4.2500000
v 0.9395393 0.0021018 4.2500000
v 0.9395393 0.0021018 -4.2500000
v -0.9395393 0.0021018 -4.2500000
v 0.9395393 0.0021018 4.2500000
v 2.8185428 0.0189156 4.2500000
v 2.8185428 0.0189156 -4.2500000
v 0.9395393 0.0021018 -4.2500000
v -2.8183751 0.0314144 -3.9000000
v -0.9394834 0.0146016 -3.9000000
v -0.9394834 0.0146016 -4.2500000
v -2.8183751 0.0314144 -4.2500000
v -0.9394834 0.0146016 -3.9000000
v 0.9394834 0.0146016 -3.9000000
v 0.9394834 0.0146016 -4.2500000
v -0.9394834 0.0146016 -4.2500000
v 0.9394834 0.0146016 -3.9000000
v 2.8183751 0.0314144 -3.9000000
v 2.8183751 0.0314144 -4.2500000
v 0.9394834 0.0146016 -4.2500000
v -2.8183751 0.0314144 4.2500000
v -0.9394834 0.0146016 4.2500000
v -0.9394834 0.0146016 3.9000000
v -2.8183751 0.0314144 3.9000000
v -0.9394834 0.0146016 4.2500000
v 0.9394834 0.0146016 4.2500000
v 0.9394834 0.0146016 3.9000000
v -0.9394834 0.0146016 3.9000000
v 0.9394834 0.0146016 4.2500000
v 2.8183751 0.0314144 4.2500000
v 2.8183751 0.0314144 3.9000000
v 0.9394834 0.0146016 3.9000000
v -0.2999820 0.0127143 4.2500000
v 0.2999820 0.0127143 4.2500000
v 0.2999820 0.0127143 -4.2500000
v -0.2999820 0.0127143 -4.2500000
v -2.4659257 0.2394941 -3.7105714
v -0.3246517 0.2252512 -3.7105714
v -0.3249031 0.0627514 -3.9000000
v -2.4678359 0.0770053 -3.9000000
v -2.4678359 0.0770053 -3.5211429
v -0.3249031 0.0627514 -3.5211429
v -0.3246517 0.2252512 -3.7105714
v -2.4659257 0.2394941 -3.7105714
v 0.3246517 0.2252512 -3.7105714
v 2.4659257 0.2394941 -3.7105714
v 2.4678359 0.0770053 -3.9000000
v 0.3249031 0.0627514 -3.9000000
v 0.3249031 0.0627514 -3.5211429
v 2.4678359 0.0770053 -3.5211429
v 2.4659257 0.2394941 -3.7105714
v 0.3246517 0.2252512 -3.7105714
v -2.4659257 0.2394941 -3.1534286
v -0.3246517 0.2252512 -3.1534286
v -0.3249031 0.0627514 -3.3428571
v -2.4678359 0.0770053 -3.3428571
v -2.4678359 0.0770053 -2.9640000
v -0.3249031 0.0627514 -2.9640000
v -0.3246517 0.2252512 -3.1534286
v -2.4659257 0.2394941 -3.1534286
v 0.3246517 0.2252512 -3.1534286
v 2.4659257 0.2394941 -3.1534286
v 2.4678359 0.0770053 -3.3428571
v 0.3249031 0.0627514 -3.3428571
v 0.3249031 0.0627514 -2.9640000
v 2.4678359 0.0770053 -2.9640000
v 2.4659257 0.2394941 -3.1534286
v 0.3246517 0.2252512 -3.1534286
v -2.4659257 0.2394941 -2.5962857
v -0.3246517 0.2252512 -2.5962857
v -0.3249031 0.0627514 -2.7857143
v -2.4678359 0.0770053 -2.7857143
v -2.4678359 0.0770053 -2.4068571
v -0.3249031 0.0627514 -2.4068571
v -0.3246517 0.2252512 -2.5962857
v -2.4659257 0.2394941 -2.5962857
v 0.3246517 0.2252512 -2.5962857
v 2.4659257 0.2394941 -2.5962857
v 2.4678359 0.0770053 -2.7857143
v 0.3249031 0.0627514 -2.7857143
v 0.3249031 0.0627514 -2.4068571
v 2.4678359 0.0770053 -2.4068571
v 2.4659257 0.2394941 -2.5962857
v 0.3246517 0.2252512 -2.5962857
v -2.4659257 0.2394941 -2.0391429
v -0.3246517 0.2252512 -2.0391429
v -0.3249031 0.0627514 -2.2285714
v -2.4678359 0.0770053 -2.2285714
v -2.4678359 0.0770053 -1.8497143
v -0.3249031 0.0627514 -1.8497143
v -0.3246517 0.2252512 -2.0391429
v -2.4659257 0.2394941 -2.0391429
v 0.3246517 0.2252512 -2.0391429
v 2.4659257 0.2394941 -2.0391429
v 2.4678359 0.0770053 -2.2285714
v 0.3249031 0.0627514 -2.2285714
v 0.3249031 0.0627514 -1.8497143
v 2.4678359 0.0770053 -1.8497143
v 2.4659257 0.2394941 -2.0391429
v 0.3246517 0.2252512 -2.0391429
v -2.4659257 0.2394941 -1.4820000
v -0.3246517 0.2252512 -1.4820000
v -0.3249031 0.0627514 -1.6714286
v -2.4678359 0.0770053 -1.6714286
v -2.4678359 0.0770053 -1.2925714
v -0.3249031 0.0627514 -1.2925714
v -0.3246517 0.2252512 -1.4820000
v -2.4659257 0.2394941 -1.4820000
v 0.3246517 0.2252512 -1.4820000
v 2.4659257 0.2394941 -1.4820000
v 2.4678359 0.0770053 -1.6714286
v 0.3249031 0.0627514 -1.6714286
v 0.3249031 0.0627514 -1.2925714
v 2.4678359 0.0770053 -1.2925714
v 2.4659257 0.2394941 -1.4820000
v 0.3246517 0.2252512 -1.4820000
v -2.4659257 0.2394941 -0.9248571
v -0.3246517 0.2252512 -0.9248571
v -0.3249031 0.0627514 -1.1142857
v -2.4678359 0.0770053 -1.1142857
v -2.4678359 0.0770053 -0.7354286
v -0.3249031 0.0627514 -0.7354286
v -0.3246517 0.2252512 -0.9248571
v -2.4659257 0.2394941 -0.9248571
v 0.3246517 0.2252512 -0.9248571
v 2.4659257 0.2394941 -0.9248571
v 2.4678359 0.0770053 -1.1142857
v 0.3249031 0.0627514 -1.1142857
v 0.3249031 0.0627514 -0.7354286
v 2.4678359 0.0770053 -0.7354286
v 2.4659257 0.2394941 -0.9248571
v 0.3246517 0.2252512 -0.9248571
v -2.4659257 0.2394941 -0.3677143
v -0.3246517 0.2252512 -0.3677143
v -0.3249031 0.0627514 -0.5571429
v -2.4678359 0.0770053 -0.5571429
v -2.4678359 0.0770053 -0.1782857
v -0.3249031 0.0627514 -0.1782857
v -0.3246517 0.2252512 -0.3677143
v -2.4659257 0.2394941 -0.3677143
v 0.3246517 0.2252512 -0.3677143
v 2.4659257 0.2394941 -0.3677143
v 2.4678359 0.0770053 -0.5571429
v 0.3249031 0.0627514 -0.5571429
v 0.3249031 0.0627514 -0.1782857
v 2.4678359 0.0770053 -0.1782857
v 2.4659257 0.2394941 -0.3677143
v 0.3246517 0.2252512 -0.3677143
v -2.4659257 0.2394941 0.1894286
v -0.3246517 0.2252512 0.1894286
v -0.3249031 0.0627514 0.0000000
v -2.4678359 0.0770053 0.0000000
v -2.4678359 0.0770053 0.3788571
v -0.3249031 0.0627514 0.3788571
v -0.3246517 0.2252512 0.1894286
v -2.4659257 0.2394941 0.1894286
v 0.3246517 0.2252512 0.1894286
v 2.4659257 0.2394941 0.1894286
v 2.4678359 0.0770053 0.0000000
v 0.3249031 0.0627514 0.0000000
v 0.3249031 0.0627514 0.3788571
v 2.4678359 0.0770053 0.3788571
v 2.4659257 0.2394941 0.1894286
v 0.3246517 0.2252512 0.1894286
v -2.4659257 0.2394941 0.7465714
v -0.3246517 0.2252512 0.7465714
v -0.3249031 0.0627514 0.5571429
v -2.4678359 0.0770053 0.5571429
v -2.4678359 0.0770053 0.9360000
v -0.3249031 0.0627514 0.9360000
v -0.3246517 0.2252512 0.7465714
v -2.4659257 0.2394941 0.7465714
v 0.3246517 0.2252512 0.7465714
v 2.4659257 0.2394941 0.7465714
v 2.4678359 0.0770053 0.5571429
v 0.3249031 0.0627514 0.5571429
v 0.3249031 0.0627514 0.9360000
v 2.4678359 0.0770053 0.9360000
v 2.4659257 0.2394941 0.7465714
v 0.3246517 0.2252512 0.7465714
v -2.4659257 0.2394941 1.3037143
v -0.3246517 0.2252512 1.3037143
v -0.3249031 0.0627514 1.1142857
v -2.4678359 0.0770053 1.1142857
v -2.4678359 0.0770053 1.4931429
v -0.3249031 0.0627514 1.4931429
v -0.3246517 0.2252512 1.3037143
v -2.4659257 0.2394941 1.3037143
v 0.3246517 0.2252512 1.3037143
v 2.4659257 0.2394941 1.3037143
v 2.4678359 0.0770053 1.1142857
v 0.3249031 0.0627514 1.1142857
v 0.3249031 0.0627514 1.4931429
v 2.4678359 0.0770053 1.4931429
v 2.4659257 0.2394941 1.3037143
v 0.3246517 0.2252512 1.3037143
v -2.4659257 0.2394941 1.8608571
v -0.3246517 0.2252512 1.8608571
v -0.3249031 0.0627514 1.6714286
v -2.4678359 0.0770053 1.6714286
v -2.4678359 0.0770053 2.0502857
v -0.3249031 0.0627514 2.0502857
v -0.3246517 0.2252512 1.8608571
v -2.4659257 0.2394941 1.8608571
v 0.3246517 0.2252512 1.8608571
v 2.4659257 0.2394941 1.8608571
v 2.4678359 0.0770053 1.6714286
v 0.3249031 0.0627514 1.6714286
v 0.3249031 0.0627514 2.0502857
v 2.4678359 0.0770053 2.0502857
v 2.4659257 0.2394941 1.8608571
v 0.3246517 0.2252512 1.8608571
v -2.4659257 0.2394941 2.4180000
v -0.3246517 0.2252512 2.4180000
v -0.3249031 0.0627514 2.2285714
v -2.4678359 0.0770053 2.2285714
v -2.4678359 0.0770053 2.6074286
v -0.3249031 0.0627514 2.6074286
v -0.3246517 0.2252512 2.4180000
v -2.4659257 0.2394941 2.4180000
v 0.3246517 0.2252512 2.4180000
v 2.4659257 0.2394941 2.4180000
v 2.4678359 0.0770053 2.2285714
v 0.3249031 0.0627514 2.2285714
v 0.3249031 0.0627514 2.6074286
v 2.4678359 0.0770053 2.6074286
v 2.4659257 0.2394941 2.4180000
v 0.3246517 0.2252512 2.4180000
v -2.4659257 0.2394941 2.9751429
v -0.3246517 0.2252512 2.9751429
v -0.3249031 0.0627514 2.7857143
v -2.4678359 0.0770053 2.7857143
v -2.4678359 0.0770053 3.1645714
v -0.3249031 0.0627514 3.1645714
v -0.3246517 0.2252512 2.9751429
v -2.4659257 0.2394941 2.9751429
v 0.3246517 0.2252512 2.9751429
v 2.4659257 0.2394941 2.9751429
v 2.4678359 0.0770053 2.7857143
v 0.3249031 0.0627514 2.7857143
v 0.3249031 0.0627514 3.1645714
v 2.4678359 0.0770053 3.1645714
v 2.4659257 0.2394941 2.9751429
v 0.3246517 0.2252512 2.9751429
v -2.4659257 0.2394941 3.5322857
v -0.3246517 0.2252512 3.5322857
v -0.3249031 0.0627514 3.3428571
v -2.4678359 0.0770053 3.3428571
v -2.4678359 0.0770053 3.7217143
v -0.3249031 0.0627514 3.7217143
v -0.3246517 0.2252512 3.5322857
v -2.4659257 0.2394941 3.5322857
v 0.3246517 0.2252512 3.5322857
v 2.4659257 0.2394941 3.5322857
v 2.4678359 0.0770053 3.3428571
v 0.3249031 0.0627514 3.3428571
v 0.3249031 0.0627514 3.7217143
v 2.4678359 0.0770053 3.7217143
v 2.4659257 0.2394941 3.5322857
v 0.3246517 0.2252512 3.5322857
v -2.4582849 0.8894492 -2.5250000
v -0.8194451 0.8766055 -2.5250000
v -0.8194451 0.8766055 -2.5750000
v -2.4582849 0.8894492 -2.5750000
v -0.8194451 0.8766055 -2.5250000
v 0.8194451 0.8766055 -2.5250000
v 0.8194451 0.8766055 -2.5750000
v -0.8194451 0.8766055 -2.5750000
v 0.8194451 0.8766055 -2.5250000
v 2.4582849 0.8894492 -2.5250000
v 2.4582849 0.8894492 -2.5750000
v 0.8194451 0.8766055 -2.5750000
v -2.4582849 0.8894492 2.5750000
v -0.8194451 0.8766055 2.5750000
v -0.8194451 0.8766055 2.5250000
v -2.4582849 0.8894492 2.5250000
v -0.8194451 0.8766055 2.5750000
v 0.8194451 0.8766055 2.5750000
v 0.8194451 0.8766055 2.5250000
v -0.8194451 0.8766055 2.5250000
v 0.8194451 0.8766055 2.5750000
v 2.4582849 0.8894492 2.5750000
v 2.4582849 0.8894492 2.5250000
v 0.8194451 0.8766055 2.5250000
vt 0.005000 0.995000
vt 0.245000 0.995000
vt 0.245000 0.755000
vt 0.255000 0.995000
vt 0.495000 0.995000
vt 0.495000 0.755000
vt 0.505000 0.995000
vt 0.745000 0.995000
vt 0.745000 0.755000
vt 0.755000 0.995000
vt 0.995000 0.995000
vt 0.995000 0.755000
vt 0.005000 0.745000
vt 0.245000 0.745000
vt 0.245000 0.505000
vt 0.255000 0.745000
vt 0.495000 0.745000
vt 0.495000 0.505000
vt 0.505000 0.745000
vt 0.745000 0.745000
vt 0.745000 0.505000
vt 0.755000 0.745000
vt 0.995000 0.745000
vt 0.995000 0.505000
vt 0.005000 0.495000
vt 0.245000 0.495000
vt 0.245000 0.255000
vt 0.255000 0.495000
vt 0.495000 0.495000
vt 0.495000 0.255000
vt 0.505000 0.495000
vt 0.745000 0.495000
vt 0.745000 0.255000
vt 0.755000 0.495000
vt 0.995000 0.495000
vt 0.995000 0.255000
vt 0.005000 0.245000
vt 0.245000 0.245000
vt 0.245000 0.005000
vt 0.255000 0.245000
vt 0.495000 0.245000
vt 0.495000 0.005000
vt 0.505000 0.245000
vt 0.745000 0.245000
vt 0.745000 0.005000
vt 0.755000 0.245000
vt 0.995000 0.245000
vt 0.995000 0.005000
g lighting
usemtl farm-kit
f 265/43 266/44 267/45
f 265/43 267/44 268/45
f 269/43 270/44 271/45
f 269/43 271/44 272/45
f 273/43 274/44 275/45
f 273/43 275/44 276/45
f 277/43 278/44 279/45
f 277/43 279/44 280/45
f 281/43 282/44 283/45
f 281/43 283/44 284/45
f 285/43 286/44 287/45
f 285/43 287/44 288/45
g ornament
usemtl farm-kit
f 41/10 42/11 43/12
f 41/10 43/11 44/12
f 45/10 46/11 47/12
f 45/10 47/11 48/12
f 49/10 50/11 51/12
f 49/10 51/11 52/12
f 53/10 54/11 55/12
f 53/10 55/11 56/12
f 57/10 58/11 59/12
f 57/10 59/11 60/12
f 61/10 62/11 63/12
f 61/10 63/11 64/12
f 65/10 66/11 67/12
f 65/10 67/11 68/12
f 69/10 70/11 71/12
f 69/10 71/11 72/12
f 73/10 74/11 75/12
f 73/10 75/11 76/12
f 77/10 78/11 79/12
f 77/10 79/11 80/12
f 81/10 82/11 83/12
f 81/10 83/11 84/12
f 85/10 86/11 87/12
f 85/10 87/11 88/12
f 89/10 90/11 91/12
f 89/10 91/11 92/12
f 93/10 94/11 95/12
f 93/10 95/11 96/12
f 97/10 98/11 99/12
f 97/10 99/11 100/12
f 101/10 102/11 103/12
f 101/10 103/11 104/12
f 105/10 106/11 107/12
f 105/10 107/11 108/12
f 109/10 110/11 111/12
f 109/10 111/11 112/12
f 113/10 114/11 115/12
f 113/10 115/11 116/12
f 117/10 118/11 119/12
f 117/10 119/11 120/12
f 121/10 122/11 123/12
f 121/10 123/11 124/12
f 125/10 126/11 127/12
f 125/10 127/11 128/12
f 129/10 130/11 131/12
f 129/10 131/11 132/12
f 133/10 134/11 135/12
f 133/10 135/11 136/12
f 137/10 138/11 139/12
f 137/10 139/11 140/12
f 141/10 142/11 143/12
f 141/10 143/11 144/12
f 145/10 146/11 147/12
f 145/10 147/11 148/12
f 149/10 150/11 151/12
f 149/10 151/11 152/12
f 153/10 154/11 155/12
f 153/10 155/11 156/12
f 157/10 158/11 159/12
f 157/10 159/11 160/12
f 161/10 162/11 163/12
f 161/10 163/11 164/12
f 165/10 166/11 167/12
f 165/10 167/11 168/12
f 169/10 170/11 171/12
f 169/10 171/11 172/12
f 173/10 174/11 175/12
f 173/10 175/11 176/12
f 177/10 178/11 179/12
f 177/10 179/11 180/12
f 181/10 182/11 183/12
f 181/10 183/11 184/12
f 185/10 186/11 187/12
f 185/10 187/11 188/12
f 189/10 190/11 191/12
f 189/10 191/11 192/12
f 193/10 194/11 195/12
f 193/10 195/11 196/12
f 197/10 198/11 199/12
f 197/10 199/11 200/12
f 201/10 202/11 203/12
f 201/10 203/11 204/12
f 205/10 206/11 207/12
f 205/10 207/11 208/12
f 209/10 210/11 211/12
f 209/10 211/11 212/12
f 213/10 214/11 215/12
f 213/10 215/11 216/12
f 217/10 218/11 219/12
f 217/10 219/11 220/12
f 221/10 222/11 223/12
f 221/10 223/11 224/12
f 225/10 226/11 227/12
f 225/10 227/11 228/12
f 229/10 230/11 231/12
f 229/10 231/11 232/12
f 233/10 234/11 235/12
f 233/10 235/11 236/12
f 237/10 238/11 239/12
f 237/10 239/11 240/12
f 241/10 242/11 243/12
f 241/10 243/11 244/12
f 245/10 246/11 247/12
f 245/10 247/11 248/12
f 249/10 250/11 251/12
f 249/10 251/11 252/12
f 253/10 254/11 255/12
f 253/10 255/11 256/12
f 257/10 258/11 259/12
f 257/10 259/11 260/12
f 261/10 262/11 263/12
f 261/10 263/11 264/12
g support
usemtl farm-kit
f 1/1 2/2 3/3
f 1/1 3/2 4/3
f 5/1 6/2 7/3
f 5/1 7/2 8/3
f 9/1 10/2 11/3
f 9/1 11/2 12/3
f 13/4 14/5 15/6
f 13/4 15/5 16/6
f 17/4 18/5 19/6
f 17/4 19/5 20/6
f 21/4 22/5 23/6
f 21/4 23/5 24/6
f 25/4 26/5 27/6
f 25/4 27/5 28/6
f 29/4 30/5 31/6
f 29/4 31/5 32/6
f 33/4 34/5 35/6
f 33/4 35/5 36/6
f 37/4 38/5 39/6
f 37/4 39/5 40/6
