mtllib TorusWasteBin_A.mtl
o TorusWasteBin_A
usemtl TorusStreetKit
s off
v -0.077500 0.000000 -0.070000
v 0.077500 0.000000 -0.070000
v 0.077500 0.022500 -0.070000
v -0.077500 0.022500 -0.070000
v -0.077500 0.000000 0.070000
v 0.077500 0.000000 0.070000
v 0.077500 0.022500 0.070000
v -0.077500 0.022500 0.070000
v -0.075000 0.011250 -0.060000
v -0.060000 0.011250 -0.060000
v -0.060000 0.226250 -0.060000
v -0.075000 0.226250 -0.060000
v -0.075000 0.011250 0.060000
v -0.060000 0.011250 0.060000
v -0.060000 0.226250 0.060000
v -0.075000 0.226250 0.060000
v 0.060000 0.011250 -0.060000
v 0.075000 0.011250 -0.060000
v 0.075000 0.226250 -0.060000
v 0.060000 0.226250 -0.060000
v 0.060000 0.011250 0.060000
v 0.075000 0.011250 0.060000
v 0.075000 0.226250 0.060000
v 0.060000 0.226250 0.060000
v -0.060000 0.011250 -0.067500
v 0.060000 0.011250 -0.067500
v 0.060000 0.226250 -0.067500
v -0.060000 0.226250 -0.067500
v -0.060000 0.011250 -0.052500
v 0.060000 0.011250 -0.052500
v 0.060000 0.226250 -0.052500
v -0.060000 0.226250 -0.052500
v -0.060000 0.011250 0.052500
v 0.060000 0.011250 0.052500
v 0.060000 0.176250 0.052500
v -0.060000 0.176250 0.052500
v -0.060000 0.011250 0.067500
v 0.060000 0.011250 0.067500
v 0.060000 0.176250 0.067500
v -0.060000 0.176250 0.067500
v -0.058750 0.185000 0.035000
v 0.058750 0.185000 0.035000
v 0.058750 0.190000 0.035000
v -0.058750 0.190000 0.035000
v -0.058750 0.185000 0.060000
v 0.058750 0.185000 0.060000
v 0.058750 0.190000 0.060000
v -0.058750 0.190000 0.060000
v -0.060000 0.187500 -0.040000
v 0.060000 0.187500 -0.040000
v 0.060000 0.225000 -0.040000
v -0.060000 0.225000 -0.040000
v -0.060000 0.187500 -0.035000
v 0.060000 0.187500 -0.035000
v 0.060000 0.225000 -0.035000
v -0.060000 0.225000 -0.035000
v -0.080000 0.232500 -0.072500
v 0.080000 0.232500 -0.072500
v 0.080000 0.250000 -0.072500
v -0.080000 0.250000 -0.072500
v -0.080000 0.232500 0.072500
v 0.080000 0.232500 0.072500
v 0.080000 0.250000 0.072500
v -0.080000 0.250000 0.072500
v -0.075625 0.207500 0.037500
v -0.061875 0.207500 0.037500
v -0.061875 0.242500 0.037500
v -0.075625 0.242500 0.037500
v -0.075625 0.207500 0.062500
v -0.061875 0.207500 0.062500
v -0.061875 0.242500 0.062500
v -0.075625 0.242500 0.062500
v 0.061875 0.207500 0.037500
v 0.075625 0.207500 0.037500
v 0.075625 0.242500 0.037500
v 0.061875 0.242500 0.037500
v 0.061875 0.207500 0.062500
v 0.075625 0.207500 0.062500
v 0.075625 0.242500 0.062500
v 0.061875 0.242500 0.062500
v -0.072500 0.250000 -0.065000
v 0.072500 0.250000 -0.065000
v 0.072500 0.262500 -0.065000
v -0.072500 0.262500 -0.065000
v -0.072500 0.250000 0.065000
v 0.072500 0.250000 0.065000
v 0.072500 0.262500 0.065000
v -0.072500 0.262500 0.065000
v -0.061250 0.173125 0.065625
v 0.061250 0.173125 0.065625
v 0.061250 0.179375 0.065625
v -0.061250 0.179375 0.065625
v -0.061250 0.173125 0.071875
v 0.061250 0.173125 0.071875
v 0.061250 0.179375 0.071875
v -0.061250 0.179375 0.071875
vt 0.265625 0.765625
vt 0.484375 0.765625
vt 0.484375 0.984375
vt 0.265625 0.984375
vt 0.265625 0.765625
vt 0.484375 0.765625
vt 0.484375 0.984375
vt 0.265625 0.984375
vt 0.265625 0.765625
vt 0.484375 0.765625
vt 0.484375 0.984375
vt 0.265625 0.984375
vt 0.265625 0.765625
vt 0.484375 0.765625
vt 0.484375 0.984375
vt 0.265625 0.984375
vt 0.265625 0.765625
vt 0.484375 0.765625
vt 0.484375 0.984375
vt 0.265625 0.984375
vt 0.265625 0.765625
vt 0.484375 0.765625
vt 0.484375 0.984375
vt 0.265625 0.984375
vt 0.015625 0.765625
vt 0.234375 0.765625
vt 0.234375 0.984375
vt 0.015625 0.984375
vt 0.015625 0.765625
vt 0.234375 0.765625
vt 0.234375 0.984375
vt 0.015625 0.984375
vt 0.015625 0.765625
vt 0.234375 0.765625
vt 0.234375 0.984375
vt 0.015625 0.984375
vt 0.015625 0.765625
vt 0.234375 0.765625
vt 0.234375 0.984375
vt 0.015625 0.984375
vt 0.015625 0.765625
vt 0.234375 0.765625
vt 0.234375 0.984375
vt 0.015625 0.984375
vt 0.015625 0.765625
vt 0.234375 0.765625
vt 0.234375 0.984375
vt 0.015625 0.984375
vt 0.015625 0.765625
vt 0.234375 0.765625
vt 0.234375 0.984375
vt 0.015625 0.984375
vt 0.015625 0.765625
vt 0.234375 0.765625
vt 0.234375 0.984375
vt 0.015625 0.984375
vt 0.015625 0.765625
vt 0.234375 0.765625
vt 0.234375 0.984375
vt 0.015625 0.984375
vt 0.015625 0.765625
vt 0.234375 0.765625
vt 0.234375 0.984375
vt 0.015625 0.984375
vt 0.015625 0.765625
vt 0.234375 0.765625
vt 0.234375 0.984375
vt 0.015625 0.984375
vt 0.015625 0.765625
vt 0.234375 0.765625
vt 0.234375 0.984375
vt 0.015625 0.984375
vt 0.015625 0.765625
vt 0.234375 0.765625
vt 0.234375 0.984375
vt 0.015625 0.984375
vt 0.015625 0.765625
vt 0.234375 0.765625
vt 0.234375 0.984375
vt 0.015625 0.984375
vt 0.015625 0.765625
vt 0.234375 0.765625
vt 0.234375 0.984375
vt 0.015625 0.984375
vt 0.015625 0.765625
vt 0.234375 0.765625
vt 0.234375 0.984375
vt 0.015625 0.984375
vt 0.015625 0.765625
vt 0.234375 0.765625
vt 0.234375 0.984375
vt 0.015625 0.984375
vt 0.015625 0.765625
vt 0.234375 0.765625
vt 0.234375 0.984375
vt 0.015625 0.984375
vt 0.015625 0.765625
vt 0.234375 0.765625
vt 0.234375 0.984375
vt 0.015625 0.984375
vt 0.515625 0.015625
vt 0.984375 0.015625
vt 0.984375 0.484375
vt 0.515625 0.484375
vt 0.015625 0.765625
vt 0.234375 0.765625
vt 0.234375 0.984375
vt 0.015625 0.984375
vt 0.015625 0.765625
vt 0.234375 0.765625
vt 0.234375 0.984375
vt 0.015625 0.984375
vt 0.015625 0.765625
vt 0.234375 0.765625
vt 0.234375 0.984375
vt 0.015625 0.984375
vt 0.015625 0.765625
vt 0.234375 0.765625
vt 0.234375 0.984375
vt 0.015625 0.984375
vt 0.765625 0.515625
vt 0.984375 0.515625
vt 0.984375 0.734375
vt 0.765625 0.734375
vt 0.765625 0.515625
vt 0.984375 0.515625
vt 0.984375 0.734375
vt 0.765625 0.734375
vt 0.765625 0.515625
vt 0.984375 0.515625
vt 0.984375 0.734375
vt 0.765625 0.734375
vt 0.765625 0.515625
vt 0.984375 0.515625
vt 0.984375 0.734375
vt 0.765625 0.734375
vt 0.765625 0.515625
vt 0.984375 0.515625
vt 0.984375 0.734375
vt 0.765625 0.734375
vt 0.765625 0.515625
vt 0.984375 0.515625
vt 0.984375 0.734375
vt 0.765625 0.734375
vt 0.765625 0.515625
vt 0.984375 0.515625
vt 0.984375 0.734375
vt 0.765625 0.734375
vt 0.765625 0.515625
vt 0.984375 0.515625
vt 0.984375 0.734375
vt 0.765625 0.734375
vt 0.765625 0.515625
vt 0.984375 0.515625
vt 0.984375 0.734375
vt 0.765625 0.734375
vt 0.765625 0.515625
vt 0.984375 0.515625
vt 0.984375 0.734375
vt 0.765625 0.734375
vt 0.765625 0.515625
vt 0.984375 0.515625
vt 0.984375 0.734375
vt 0.765625 0.734375
vt 0.265625 0.765625
vt 0.484375 0.765625
vt 0.484375 0.984375
vt 0.265625 0.984375
vt 0.265625 0.765625
vt 0.484375 0.765625
vt 0.484375 0.984375
vt 0.265625 0.984375
vt 0.265625 0.765625
vt 0.484375 0.765625
vt 0.484375 0.984375
vt 0.265625 0.984375
vt 0.265625 0.765625
vt 0.484375 0.765625
vt 0.484375 0.984375
vt 0.265625 0.984375
vt 0.265625 0.765625
vt 0.484375 0.765625
vt 0.484375 0.984375
vt 0.265625 0.984375
vt 0.265625 0.765625
vt 0.484375 0.765625
vt 0.484375 0.984375
vt 0.265625 0.984375
vt 0.765625 0.765625
vt 0.984375 0.765625
vt 0.984375 0.984375
vt 0.765625 0.984375
vt 0.765625 0.765625
vt 0.984375 0.765625
vt 0.984375 0.984375
vt 0.765625 0.984375
vt 0.765625 0.765625
vt 0.984375 0.765625
vt 0.984375 0.984375
vt 0.765625 0.984375
vt 0.765625 0.765625
vt 0.984375 0.765625
vt 0.984375 0.984375
vt 0.765625 0.984375
vt 0.765625 0.765625
vt 0.984375 0.765625
vt 0.984375 0.984375
vt 0.765625 0.984375
vt 0.765625 0.765625
vt 0.984375 0.765625
vt 0.984375 0.984375
vt 0.765625 0.984375
vt 0.765625 0.765625
vt 0.984375 0.765625
vt 0.984375 0.984375
vt 0.765625 0.984375
vt 0.765625 0.765625
vt 0.984375 0.765625
vt 0.984375 0.984375
vt 0.765625 0.984375
vt 0.765625 0.765625
vt 0.984375 0.765625
vt 0.984375 0.984375
vt 0.765625 0.984375
vt 0.765625 0.765625
vt 0.984375 0.765625
vt 0.984375 0.984375
vt 0.765625 0.984375
vt 0.765625 0.765625
vt 0.984375 0.765625
vt 0.984375 0.984375
vt 0.765625 0.984375
vt 0.765625 0.765625
vt 0.984375 0.765625
vt 0.984375 0.984375
vt 0.765625 0.984375
vt 0.015625 0.765625
vt 0.234375 0.765625
vt 0.234375 0.984375
vt 0.015625 0.984375
vt 0.015625 0.765625
vt 0.234375 0.765625
vt 0.234375 0.984375
vt 0.015625 0.984375
vt 0.015625 0.765625
vt 0.234375 0.765625
vt 0.234375 0.984375
vt 0.015625 0.984375
vt 0.015625 0.765625
vt 0.234375 0.765625
vt 0.234375 0.984375
vt 0.015625 0.984375
vt 0.015625 0.765625
vt 0.234375 0.765625
vt 0.234375 0.984375
vt 0.015625 0.984375
vt 0.515625 0.765625
vt 0.734375 0.765625
vt 0.734375 0.984375
vt 0.515625 0.984375
vt 0.515625 0.765625
vt 0.734375 0.765625
vt 0.734375 0.984375
vt 0.515625 0.984375
vt 0.515625 0.765625
vt 0.734375 0.765625
vt 0.734375 0.984375
vt 0.515625 0.984375
vt 0.515625 0.765625
vt 0.734375 0.765625
vt 0.734375 0.984375
vt 0.515625 0.984375
vt 0.515625 0.765625
vt 0.734375 0.765625
vt 0.734375 0.984375
vt 0.515625 0.984375
vn 0.00000000 0.00000000 -1.00000000
vn 0.00000000 0.00000000 1.00000000
vn -1.00000000 0.00000000 0.00000000
vn 1.00000000 0.00000000 0.00000000
vn 0.00000000 -1.00000000 0.00000000
vn 0.00000000 1.00000000 0.00000000
vn 0.00000000 0.00000000 -1.00000000
vn 0.00000000 0.00000000 1.00000000
vn -1.00000000 0.00000000 0.00000000
vn 1.00000000 0.00000000 0.00000000
vn 0.00000000 -1.00000000 0.00000000
vn 0.00000000 1.00000000 0.00000000
vn 0.00000000 0.00000000 -1.00000000
vn 0.00000000 0.00000000 1.00000000
vn -1.00000000 0.00000000 0.00000000
vn 1.00000000 0.00000000 0.00000000
vn 0.00000000 -1.00000000 0.00000000
vn 0.00000000 1.00000000 0.00000000
vn 0.00000000 0.00000000 -1.00000000
vn 0.00000000 0.00000000 1.00000000
vn -1.00000000 0.00000000 0.00000000
vn 1.00000000 0.00000000 0.00000000
vn 0.00000000 -1.00000000 0.00000000
vn 0.00000000 1.00000000 0.00000000
vn 0.00000000 0.00000000 -1.00000000
vn 0.00000000 0.00000000 1.00000000
vn -1.00000000 0.00000000 0.00000000
vn 1.00000000 0.00000000 0.00000000
vn 0.00000000 -1.00000000 0.00000000
vn 0.00000000 1.00000000 0.00000000
vn 0.00000000 0.00000000 -1.00000000
vn 0.00000000 0.00000000 1.00000000
vn -1.00000000 0.00000000 0.00000000
vn 1.00000000 0.00000000 0.00000000
vn 0.00000000 1.00000000 0.00000000
vn 0.00000000 0.00000000 -1.00000000
vn 0.00000000 0.00000000 1.00000000
vn -1.00000000 0.00000000 0.00000000
vn 1.00000000 0.00000000 0.00000000
vn 0.00000000 -1.00000000 0.00000000
vn 0.00000000 1.00000000 0.00000000
vn 0.00000000 0.00000000 -1.00000000
vn 0.00000000 0.00000000 1.00000000
vn -1.00000000 0.00000000 0.00000000
vn 1.00000000 0.00000000 0.00000000
vn 0.00000000 -1.00000000 0.00000000
vn 0.00000000 1.00000000 0.00000000
vn 0.00000000 0.00000000 -1.00000000
vn 0.00000000 0.00000000 1.00000000
vn -1.00000000 0.00000000 0.00000000
vn 1.00000000 0.00000000 0.00000000
vn 0.00000000 -1.00000000 0.00000000
vn 0.00000000 1.00000000 0.00000000
vn 0.00000000 0.00000000 -1.00000000
vn 0.00000000 0.00000000 1.00000000
vn -1.00000000 0.00000000 0.00000000
vn 1.00000000 0.00000000 0.00000000
vn 0.00000000 -1.00000000 0.00000000
vn 0.00000000 1.00000000 0.00000000
vn 0.00000000 0.00000000 -1.00000000
vn 0.00000000 0.00000000 1.00000000
vn -1.00000000 0.00000000 0.00000000
vn 1.00000000 0.00000000 0.00000000
vn 0.00000000 1.00000000 0.00000000
vn 0.00000000 0.00000000 1.00000000
vn -1.00000000 0.00000000 0.00000000
vn 1.00000000 0.00000000 0.00000000
vn 0.00000000 -1.00000000 0.00000000
vn 0.00000000 1.00000000 0.00000000
f 1/1/1 4/2/1 3/3/1
f 1/1/1 3/3/1 2/4/1
f 5/5/2 6/6/2 7/7/2
f 5/5/2 7/7/2 8/8/2
f 1/9/3 5/10/3 8/11/3
f 1/9/3 8/11/3 4/12/3
f 2/13/4 3/14/4 7/15/4
f 2/13/4 7/15/4 6/16/4
f 1/17/5 2/18/5 6/19/5
f 1/17/5 6/19/5 5/20/5
f 4/21/6 8/22/6 7/23/6
f 4/21/6 7/23/6 3/24/6
f 9/25/7 12/26/7 11/27/7
f 9/25/7 11/27/7 10/28/7
f 13/29/8 14/30/8 15/31/8
f 13/29/8 15/31/8 16/32/8
f 9/33/9 13/34/9 16/35/9
f 9/33/9 16/35/9 12/36/9
f 10/37/10 11/38/10 15/39/10
f 10/37/10 15/39/10 14/40/10
f 9/41/11 10/42/11 14/43/11
f 9/41/11 14/43/11 13/44/11
f 12/45/12 16/46/12 15/47/12
f 12/45/12 15/47/12 11/48/12
f 17/49/13 20/50/13 19/51/13
f 17/49/13 19/51/13 18/52/13
f 21/53/14 22/54/14 23/55/14
f 21/53/14 23/55/14 24/56/14
f 17/57/15 21/58/15 24/59/15
f 17/57/15 24/59/15 20/60/15
f 18/61/16 19/62/16 23/63/16
f 18/61/16 23/63/16 22/64/16
f 17/65/17 18/66/17 22/67/17
f 17/65/17 22/67/17 21/68/17
f 20/69/18 24/70/18 23/71/18
f 20/69/18 23/71/18 19/72/18
f 25/73/19 28/74/19 27/75/19
f 25/73/19 27/75/19 26/76/19
f 29/77/20 30/78/20 31/79/20
f 29/77/20 31/79/20 32/80/20
f 25/81/21 29/82/21 32/83/21
f 25/81/21 32/83/21 28/84/21
f 26/85/22 27/86/22 31/87/22
f 26/85/22 31/87/22 30/88/22
f 25/89/23 26/90/23 30/91/23
f 25/89/23 30/91/23 29/92/23
f 28/93/24 32/94/24 31/95/24
f 28/93/24 31/95/24 27/96/24
f 33/97/25 36/98/25 35/99/25
f 33/97/25 35/99/25 34/100/25
f 37/101/26 38/102/26 39/103/26
f 37/101/26 39/103/26 40/104/26
f 33/105/27 37/106/27 40/107/27
f 33/105/27 40/107/27 36/108/27
f 34/109/28 35/110/28 39/111/28
f 34/109/28 39/111/28 38/112/28
f 33/113/29 34/114/29 38/115/29
f 33/113/29 38/115/29 37/116/29
f 36/117/30 40/118/30 39/119/30
f 36/117/30 39/119/30 35/120/30
f 41/121/31 44/122/31 43/123/31
f 41/121/31 43/123/31 42/124/31
f 45/125/32 46/126/32 47/127/32
f 45/125/32 47/127/32 48/128/32
f 41/129/33 45/130/33 48/131/33
f 41/129/33 48/131/33 44/132/33
f 42/133/34 43/134/34 47/135/34
f 42/133/34 47/135/34 46/136/34
f 44/137/35 48/138/35 47/139/35
f 44/137/35 47/139/35 43/140/35
f 49/141/36 52/142/36 51/143/36
f 49/141/36 51/143/36 50/144/36
f 53/145/37 54/146/37 55/147/37
f 53/145/37 55/147/37 56/148/37
f 49/149/38 53/150/38 56/151/38
f 49/149/38 56/151/38 52/152/38
f 50/153/39 51/154/39 55/155/39
f 50/153/39 55/155/39 54/156/39
f 49/157/40 50/158/40 54/159/40
f 49/157/40 54/159/40 53/160/40
f 52/161/41 56/162/41 55/163/41
f 52/161/41 55/163/41 51/164/41
f 57/165/42 60/166/42 59/167/42
f 57/165/42 59/167/42 58/168/42
f 61/169/43 62/170/43 63/171/43
f 61/169/43 63/171/43 64/172/43
f 57/173/44 61/174/44 64/175/44
f 57/173/44 64/175/44 60/176/44
f 58/177/45 59/178/45 63/179/45
f 58/177/45 63/179/45 62/180/45
f 57/181/46 58/182/46 62/183/46
f 57/181/46 62/183/46 61/184/46
f 60/185/47 64/186/47 63/187/47
f 60/185/47 63/187/47 59/188/47
f 65/189/48 68/190/48 67/191/48
f 65/189/48 67/191/48 66/192/48
f 69/193/49 70/194/49 71/195/49
f 69/193/49 71/195/49 72/196/49
f 65/197/50 69/198/50 72/199/50
f 65/197/50 72/199/50 68/200/50
f 66/201/51 67/202/51 71/203/51
f 66/201/51 71/203/51 70/204/51
f 65/205/52 66/206/52 70/207/52
f 65/205/52 70/207/52 69/208/52
f 68/209/53 72/210/53 71/211/53
f 68/209/53 71/211/53 67/212/53
f 73/213/54 76/214/54 75/215/54
f 73/213/54 75/215/54 74/216/54
f 77/217/55 78/218/55 79/219/55
f 77/217/55 79/219/55 80/220/55
f 73/221/56 77/222/56 80/223/56
f 73/221/56 80/223/56 76/224/56
f 74/225/57 75/226/57 79/227/57
f 74/225/57 79/227/57 78/228/57
f 73/229/58 74/230/58 78/231/58
f 73/229/58 78/231/58 77/232/58
f 76/233/59 80/234/59 79/235/59
f 76/233/59 79/235/59 75/236/59
f 81/237/60 84/238/60 83/239/60
f 81/237/60 83/239/60 82/240/60
f 85/241/61 86/242/61 87/243/61
f 85/241/61 87/243/61 88/244/61
f 81/245/62 85/246/62 88/247/62
f 81/245/62 88/247/62 84/248/62
f 82/249/63 83/250/63 87/251/63
f 82/249/63 87/251/63 86/252/63
f 84/253/64 88/254/64 87/255/64
f 84/253/64 87/255/64 83/256/64
f 93/257/65 94/258/65 95/259/65
f 93/257/65 95/259/65 96/260/65
f 89/261/66 93/262/66 96/263/66
f 89/261/66 96/263/66 92/264/66
f 90/265/67 91/266/67 95/267/67
f 90/265/67 95/267/67 94/268/67
f 89/269/68 90/270/68 94/271/68
f 89/269/68 94/271/68 93/272/68
f 92/273/69 96/274/69 95/275/69
f 92/273/69 95/275/69 91/276/69
