mtllib TorusSettlementFarm_A77.mtl
v -8.7477499 0.1718354 4.7500000
v -6.5615507 0.0966628 4.7500000
v -6.5615507 0.0966628 -4.7500000
v -8.7477499 0.1718354 -4.7500000
v -6.5615507 0.0966628 4.7500000
v -4.3747187 0.0429630 4.7500000
v -4.3747187 0.0429630 -4.7500000
v -6.5615507 0.0966628 -4.7500000
v -4.3747187 0.0429630 4.7500000
v -2.1874648 0.0107410 4.7500000
v -2.1874648 0.0107410 -4.7500000
v -4.3747187 0.0429630 -4.7500000
v -2.1874648 0.0107410 4.7500000
v 0.0000000 0.0000000 4.7500000
v 0.0000000 0.0000000 -4.7500000
v -2.1874648 0.0107410 -4.7500000
v 0.0000000 0.0000000 4.7500000
v 2.1874648 0.0107410 4.7500000
v 2.1874648 0.0107410 -4.7500000
v 0.0000000 0.0000000 -4.7500000
v 2.1874648 0.0107410 4.7500000
v 4.3747187 0.0429630 4.7500000
v 4.3747187 0.0429630 -4.7500000
v 2.1874648 0.0107410 -4.7500000
v 4.3747187 0.0429630 4.7500000
v 6.5615507 0.0966628 4.7500000
v 6.5615507 0.0966628 -4.7500000
v 4.3747187 0.0429630 -4.7500000
v 6.5615507 0.0966628 4.7500000
v 8.7477499 0.1718354 4.7500000
v 8.7477499 0.1718354 -4.7500000
v 6.5615507 0.0966628 -4.7500000
v -8.7472590 0.1843257 -4.4000000
v -6.5611825 0.1091574 -4.4000000
v -6.5611825 0.1091574 -4.7500000
v -8.7472590 0.1843257 -4.7500000
v -6.5611825 0.1091574 -4.4000000
v -4.3744732 0.0554606 -4.4000000
v -4.3744732 0.0554606 -4.7500000
v -6.5611825 0.1091574 -4.7500000
v -4.3744732 0.0554606 -4.4000000
v -2.1873421 0.0232404 -4.4000000
v -2.1873421 0.0232404 -4.7500000
v -4.3744732 0.0554606 -4.7500000
v -2.1873421 0.0232404 -4.4000000
v 0.0000000 0.0125000 -4.4000000
v 0.0000000 0.0125000 -4.7500000
v -2.1873421 0.0232404 -4.7500000
v 0.0000000 0.0125000 -4.4000000
v 2.1873421 0.0232404 -4.4000000
v 2.1873421 0.0232404 -4.7500000
v 0.0000000 0.0125000 -4.7500000
v 2.1873421 0.0232404 -4.4000000
v 4.3744732 0.0554606 -4.4000000
v 4.3744732 0.0554606 -4.7500000
v 2.1873421 0.0232404 -4.7500000
v 4.3744732 0.0554606 -4.4000000
v 6.5611825 0.1091574 -4.4000000
v 6.5611825 0.1091574 -4.7500000
v 4.3744732 0.0554606 -4.7500000
v 6.5611825 0.1091574 -4.4000000
v 8.7472590 0.1843257 -4.4000000
v 8.7472590 0.1843257 -4.7500000
v 6.5611825 0.1091574 -4.7500000
v -8.7472590 0.1843257 4.7500000
v -6.5611825 0.1091574 4.7500000
v -6.5611825 0.1091574 4.4000000
v -8.7472590 0.1843257 4.4000000
v -6.5611825 0.1091574 4.7500000
v -4.3744732 0.0554606 4.7500000
v -4.3744732 0.0554606 4.4000000
v -6.5611825 0.1091574 4.4000000
v -4.3744732 0.0554606 4.7500000
v -2.1873421 0.0232404 4.7500000
v -2.1873421 0.0232404 4.4000000
v -4.3744732 0.0554606 4.4000000
v -2.1873421 0.0232404 4.7500000
v 0.0000000 0.0125000 4.7500000
v 0.0000000 0.0125000 4.4000000
v -2.1873421 0.0232404 4.4000000
v 0.0000000 0.0125000 4.7500000
v 2.1873421 0.0232404 4.7500000
v 2.1873421 0.0232404 4.4000000
v 0.0000000 0.0125000 4.4000000
v 2.1873421 0.0232404 4.7500000
v 4.3744732 0.0554606 4.7500000
v 4.3744732 0.0554606 4.4000000
v 2.1873421 0.0232404 4.4000000
v 4.3744732 0.0554606 4.7500000
v 6.5611825 0.1091574 4.7500000
v 6.5611825 0.1091574 4.4000000
v 4.3744732 0.0554606 4.4000000
v 6.5611825 0.1091574 4.7500000
v 8.7472590 0.1843257 4.7500000
v 8.7472590 0.1843257 4.4000000
v 6.5611825 0.1091574 4.4000000
v -0.2999831 0.0127020 4.7500000
v 0.2999831 0.0127020 4.7500000
v 0.2999831 0.0127020 -4.7500000
v -0.2999831 0.0127020 -4.7500000
v -8.3967839 0.1908420 -1.6291667
v -6.3856928 0.1240632 -1.6291667
v -6.3856928 0.1240632 -4.4000000
v -8.3967839 0.1908420 -4.4000000
v -6.3856928 0.1240632 -1.6291667
v -4.3740804 0.0754567 -1.6291667
v -4.3740804 0.0754567 -4.4000000
v -6.3856928 0.1240632 -4.4000000
v -4.3740804 0.0754567 -1.6291667
v -2.3621110 0.0450265 -1.6291667
v -2.3621110 0.0450265 -4.4000000
v -4.3740804 0.0754567 -4.4000000
v -2.3621110 0.0450265 -1.6291667
v -0.3499488 0.0327749 -1.6291667
v -0.3499488 0.0327749 -4.4000000
v -2.3621110 0.0450265 -4.4000000
v -8.3956529 0.2208206 -1.5791667
v -6.3848327 0.1540509 -1.5791667
v -6.3848327 0.1540509 -1.6291667
v -8.3956529 0.2208206 -1.6291667
v -6.3848327 0.1540509 -1.5791667
v -4.3734912 0.1054509 -1.5791667
v -4.3734912 0.1054509 -1.6291667
v -6.3848327 0.1540509 -1.6291667
v -4.3734912 0.1054509 -1.5791667
v -2.3617928 0.0750248 -1.5791667
v -2.3617928 0.0750248 -1.6291667
v -4.3734912 0.1054509 -1.6291667
v -2.3617928 0.0750248 -1.5791667
v -0.3499017 0.0627749 -1.5791667
v -0.3499017 0.0627749 -1.6291667
v -2.3617928 0.0750248 -1.6291667
v 0.3499488 0.0327749 -1.6291667
v 2.3621110 0.0450265 -1.6291667
v 2.3621110 0.0450265 -4.4000000
v 0.3499488 0.0327749 -4.4000000
v 2.3621110 0.0450265 -1.6291667
v 4.3740804 0.0754567 -1.6291667
v 4.3740804 0.0754567 -4.4000000
v 2.3621110 0.0450265 -4.4000000
v 4.3740804 0.0754567 -1.6291667
v 6.3856928 0.1240632 -1.6291667
v 6.3856928 0.1240632 -4.4000000
v 4.3740804 0.0754567 -4.4000000
v 6.3856928 0.1240632 -1.6291667
v 8.3967839 0.1908420 -1.6291667
v 8.3967839 0.1908420 -4.4000000
v 6.3856928 0.1240632 -4.4000000
v 0.3499017 0.0627749 -1.5791667
v 2.3617928 0.0750248 -1.5791667
v 2.3617928 0.0750248 -1.6291667
v 0.3499017 0.0627749 -1.6291667
v 2.3617928 0.0750248 -1.5791667
v 4.3734912 0.1054509 -1.5791667
v 4.3734912 0.1054509 -1.6291667
v 2.3617928 0.0750248 -1.6291667
v 4.3734912 0.1054509 -1.5791667
v 6.3848327 0.1540509 -1.5791667
v 6.3848327 0.1540509 -1.6291667
v 4.3734912 0.1054509 -1.6291667
v 6.3848327 0.1540509 -1.5791667
v 8.3956529 0.2208206 -1.5791667
v 8.3956529 0.2208206 -1.6291667
v 6.3848327 0.1540509 -1.6291667
v -8.3967839 0.1908420 1.3041667
v -6.3856928 0.1240632 1.3041667
v -6.3856928 0.1240632 -1.4666667
v -8.3967839 0.1908420 -1.4666667
v -6.3856928 0.1240632 1.3041667
v -4.3740804 0.0754567 1.3041667
v -4.3740804 0.0754567 -1.4666667
v -6.3856928 0.1240632 -1.4666667
v -4.3740804 0.0754567 1.3041667
v -2.3621110 0.0450265 1.3041667
v -2.3621110 0.0450265 -1.4666667
v -4.3740804 0.0754567 -1.4666667
v -2.3621110 0.0450265 1.3041667
v -0.3499488 0.0327749 1.3041667
v -0.3499488 0.0327749 -1.4666667
v -2.3621110 0.0450265 -1.4666667
v -8.3956529 0.2208206 1.3541667
v -6.3848327 0.1540509 1.3541667
v -6.3848327 0.1540509 1.3041667
v -8.3956529 0.2208206 1.3041667
v -6.3848327 0.1540509 1.3541667
v -4.3734912 0.1054509 1.3541667
v -4.3734912 0.1054509 1.3041667
v -6.3848327 0.1540509 1.3041667
v -4.3734912 0.1054509 1.3541667
v -2.3617928 0.0750248 1.3541667
v -2.3617928 0.0750248 1.3041667
v -4.3734912 0.1054509 1.3041667
v -2.3617928 0.0750248 1.3541667
v -0.3499017 0.0627749 1.3541667
v -0.3499017 0.0627749 1.3041667
v -2.3617928 0.0750248 1.3041667
v 0.3499488 0.0327749 1.3041667
v 2.3621110 0.0450265 1.3041667
v 2.3621110 0.0450265 -1.4666667
v 0.3499488 0.0327749 -1.4666667
v 2.3621110 0.0450265 1.3041667
v 4.3740804 0.0754567 1.3041667
v 4.3740804 0.0754567 -1.4666667
v 2.3621110 0.0450265 -1.4666667
v 4.3740804 0.0754567 1.3041667
v 6.3856928 0.1240632 1.3041667
v 6.3856928 0.1240632 -1.4666667
v 4.3740804 0.0754567 -1.4666667
v 6.3856928 0.1240632 1.3041667
v 8.3967839 0.1908420 1.3041667
v 8.3967839 0.1908420 -1.4666667
v 6.3856928 0.1240632 -1.4666667
v 0.3499017 0.0627749 1.3541667
v 2.3617928 0.0750248 1.3541667
v 2.3617928 0.0750248 1.3041667
v 0.3499017 0.0627749 1.3041667
v 2.3617928 0.0750248 1.3541667
v 4.3734912 0.1054509 1.3541667
v 4.3734912 0.1054509 1.3041667
v 2.3617928 0.0750248 1.3041667
v 4.3734912 0.1054509 1.3541667
v 6.3848327 0.1540509 1.3541667
v 6.3848327 0.1540509 1.3041667
v 4.3734912 0.1054509 1.3041667
v 6.3848327 0.1540509 1.3541667
v 8.3956529 0.2208206 1.3541667
v 8.3956529 0.2208206 1.3041667
v 6.3848327 0.1540509 1.3041667
v -8.3967839 0.1908420 4.2375000
v -6.3856928 0.1240632 4.2375000
v -6.3856928 0.1240632 1.4666667
v -8.3967839 0.1908420 1.4666667
v -6.3856928 0.1240632 4.2375000
v -4.3740804 0.0754567 4.2375000
v -4.3740804 0.0754567 1.4666667
v -6.3856928 0.1240632 1.4666667
v -4.3740804 0.0754567 4.2375000
v -2.3621110 0.0450265 4.2375000
v -2.3621110 0.0450265 1.4666667
v -4.3740804 0.0754567 1.4666667
v -2.3621110 0.0450265 4.2375000
v -0.3499488 0.0327749 4.2375000
v -0.3499488 0.0327749 1.4666667
v -2.3621110 0.0450265 1.4666667
v -8.3956529 0.2208206 4.2875000
v -6.3848327 0.1540509 4.2875000
v -6.3848327 0.1540509 4.2375000
v -8.3956529 0.2208206 4.2375000
v -6.3848327 0.1540509 4.2875000
v -4.3734912 0.1054509 4.2875000
v -4.3734912 0.1054509 4.2375000
v -6.3848327 0.1540509 4.2375000
v -4.3734912 0.1054509 4.2875000
v -2.3617928 0.0750248 4.2875000
v -2.3617928 0.0750248 4.2375000
v -4.3734912 0.1054509 4.2375000
v -2.3617928 0.0750248 4.2875000
v -0.3499017 0.0627749 4.2875000
v -0.3499017 0.0627749 4.2375000
v -2.3617928 0.0750248 4.2375000
v 0.3499488 0.0327749 4.2375000
v 2.3621110 0.0450265 4.2375000
v 2.3621110 0.0450265 1.4666667
v 0.3499488 0.0327749 1.4666667
v 2.3621110 0.0450265 4.2375000
v 4.3740804 0.0754567 4.2375000
v 4.3740804 0.0754567 1.4666667
v 2.3621110 0.0450265 1.4666667
v 4.3740804 0.0754567 4.2375000
v 6.3856928 0.1240632 4.2375000
v 6.3856928 0.1240632 1.4666667
v 4.3740804 0.0754567 1.4666667
v 6.3856928 0.1240632 4.2375000
v 8.3967839 0.1908420 4.2375000
v 8.3967839 0.1908420 1.4666667
v 6.3856928 0.1240632 1.4666667
v 0.3499017 0.0627749 4.2875000
v 2.3617928 0.0750248 4.2875000
v 2.3617928 0.0750248 4.2375000
v 0.3499017 0.0627749 4.2375000
v 2.3617928 0.0750248 4.2875000
v 4.3734912 0.1054509 4.2875000
v 4.3734912 0.1054509 4.2375000
v 2.3617928 0.0750248 4.2375000
v 4.3734912 0.1054509 4.2875000
v 6.3848327 0.1540509 4.2875000
v 6.3848327 0.1540509 4.2375000
v 4.3734912 0.1054509 4.2375000
v 6.3848327 0.1540509 4.2875000
v 8.3956529 0.2208206 4.2875000
v 8.3956529 0.2208206 4.2375000
v 6.3848327 0.1540509 4.2375000
v -5.7604194 0.6121763 1.0000000
v -4.0150691 0.5737763 1.0000000
v -4.0150691 0.5737763 -1.0000000
v -5.7604194 0.6121763 -1.0000000
v -5.7604194 0.6121763 -1.0000000
v -4.0150691 0.5737763 -1.0000000
v -4.0245551 0.0488620 -1.0000000
v -5.7740290 0.0873527 -1.0000000
v -4.0150691 0.5737763 -1.0000000
v -4.0150691 0.5737763 1.0000000
v -4.0245551 0.0488620 1.0000000
v -4.0245551 0.0488620 -1.0000000
v -4.0150691 0.5737763 1.0000000
v -5.7604194 0.6121763 1.0000000
v -5.7740290 0.0873527 1.0000000
v -4.0245551 0.0488620 1.0000000
v -5.7604194 0.6121763 1.0000000
v -5.7604194 0.6121763 -1.0000000
v -5.7740290 0.0873527 -1.0000000
v -5.7740290 0.0873527 1.0000000
v 4.0150691 0.5737763 1.0000000
v 5.7604194 0.6121763 1.0000000
v 5.7604194 0.6121763 -1.0000000
v 4.0150691 0.5737763 -1.0000000
v 4.0150691 0.5737763 -1.0000000
v 5.7604194 0.6121763 -1.0000000
v 5.7740290 0.0873527 -1.0000000
v 4.0245551 0.0488620 -1.0000000
v 5.7604194 0.6121763 -1.0000000
v 5.7604194 0.6121763 1.0000000
v 5.7740290 0.0873527 1.0000000
v 5.7740290 0.0873527 -1.0000000
v 5.7604194 0.6121763 1.0000000
v 4.0150691 0.5737763 1.0000000
v 4.0245551 0.0488620 1.0000000
v 5.7740290 0.0873527 1.0000000
v 4.0150691 0.5737763 1.0000000
v 4.0150691 0.5737763 -1.0000000
v 4.0245551 0.0488620 -1.0000000
v 4.0245551 0.0488620 1.0000000
vt 0.005000 0.995000
vt 0.245000 0.995000
vt 0.245000 0.755000
vt 0.255000 0.995000
vt 0.495000 0.995000
vt 0.495000 0.755000
vt 0.505000 0.995000
vt 0.745000 0.995000
vt 0.745000 0.755000
vt 0.755000 0.995000
vt 0.995000 0.995000
vt 0.995000 0.755000
vt 0.005000 0.745000
vt 0.245000 0.745000
vt 0.245000 0.505000
vt 0.255000 0.745000
vt 0.495000 0.745000
vt 0.495000 0.505000
vt 0.505000 0.745000
vt 0.745000 0.745000
vt 0.745000 0.505000
vt 0.755000 0.745000
vt 0.995000 0.745000
vt 0.995000 0.505000
vt 0.005000 0.495000
vt 0.245000 0.495000
vt 0.245000 0.255000
vt 0.255000 0.495000
vt 0.495000 0.495000
vt 0.495000 0.255000
vt 0.505000 0.495000
vt 0.745000 0.495000
vt 0.745000 0.255000
vt 0.755000 0.495000
vt 0.995000 0.495000
vt 0.995000 0.255000
vt 0.005000 0.245000
vt 0.245000 0.245000
vt 0.245000 0.005000
vt 0.255000 0.245000
vt 0.495000 0.245000
vt 0.495000 0.005000
vt 0.505000 0.245000
vt 0.745000 0.245000
vt 0.745000 0.005000
vt 0.755000 0.245000
vt 0.995000 0.245000
vt 0.995000 0.005000
g solid
usemtl farm-kit
f 117/28 118/29 119/30
f 117/28 119/29 120/30
f 121/28 122/29 123/30
f 121/28 123/29 124/30
f 125/28 126/29 127/30
f 125/28 127/29 128/30
f 129/28 130/29 131/30
f 129/28 131/29 132/30
f 149/28 150/29 151/30
f 149/28 151/29 152/30
f 153/28 154/29 155/30
f 153/28 155/29 156/30
f 157/28 158/29 159/30
f 157/28 159/29 160/30
f 161/28 162/29 163/30
f 161/28 163/29 164/30
f 181/28 182/29 183/30
f 181/28 183/29 184/30
f 185/28 186/29 187/30
f 185/28 187/29 188/30
f 189/28 190/29 191/30
f 189/28 191/29 192/30
f 193/28 194/29 195/30
f 193/28 195/29 196/30
f 213/28 214/29 215/30
f 213/28 215/29 216/30
f 217/28 218/29 219/30
f 217/28 219/29 220/30
f 221/28 222/29 223/30
f 221/28 223/29 224/30
f 225/28 226/29 227/30
f 225/28 227/29 228/30
f 245/28 246/29 247/30
f 245/28 247/29 248/30
f 249/28 250/29 251/30
f 249/28 251/29 252/30
f 253/28 254/29 255/30
f 253/28 255/29 256/30
f 257/28 258/29 259/30
f 257/28 259/29 260/30
f 277/28 278/29 279/30
f 277/28 279/29 280/30
f 281/28 282/29 283/30
f 281/28 283/29 284/30
f 285/28 286/29 287/30
f 285/28 287/29 288/30
f 289/28 290/29 291/30
f 289/28 291/29 292/30
f 293/31 294/32 295/33
f 293/31 295/32 296/33
f 297/31 298/32 299/33
f 297/31 299/32 300/33
f 301/31 302/32 303/33
f 301/31 303/32 304/33
f 305/31 306/32 307/33
f 305/31 307/32 308/33
f 309/31 310/32 311/33
f 309/31 311/32 312/33
f 313/31 314/32 315/33
f 313/31 315/32 316/33
f 317/31 318/32 319/33
f 317/31 319/32 320/33
f 321/31 322/32 323/33
f 321/31 323/32 324/33
f 325/31 326/32 327/33
f 325/31 327/32 328/33
f 329/31 330/32 331/33
f 329/31 331/32 332/33
g support
usemtl farm-kit
f 1/1 2/2 3/3
f 1/1 3/2 4/3
f 5/1 6/2 7/3
f 5/1 7/2 8/3
f 9/1 10/2 11/3
f 9/1 11/2 12/3
f 13/1 14/2 15/3
f 13/1 15/2 16/3
f 17/1 18/2 19/3
f 17/1 19/2 20/3
f 21/1 22/2 23/3
f 21/1 23/2 24/3
f 25/1 26/2 27/3
f 25/1 27/2 28/3
f 29/1 30/2 31/3
f 29/1 31/2 32/3
f 33/4 34/5 35/6
f 33/4 35/5 36/6
f 37/4 38/5 39/6
f 37/4 39/5 40/6
f 41/4 42/5 43/6
f 41/4 43/5 44/6
f 45/4 46/5 47/6
f 45/4 47/5 48/6
f 49/4 50/5 51/6
f 49/4 51/5 52/6
f 53/4 54/5 55/6
f 53/4 55/5 56/6
f 57/4 58/5 59/6
f 57/4 59/5 60/6
f 61/4 62/5 63/6
f 61/4 63/5 64/6
f 65/4 66/5 67/6
f 65/4 67/5 68/6
f 69/4 70/5 71/6
f 69/4 71/5 72/6
f 73/4 74/5 75/6
f 73/4 75/5 76/6
f 77/4 78/5 79/6
f 77/4 79/5 80/6
f 81/4 82/5 83/6
f 81/4 83/5 84/6
f 85/4 86/5 87/6
f 85/4 87/5 88/6
f 89/4 90/5 91/6
f 89/4 91/5 92/6
f 93/4 94/5 95/6
f 93/4 95/5 96/6
f 97/4 98/5 99/6
f 97/4 99/5 100/6
g water
usemtl farm-water
f 101/25 102/26 103/27
f 101/25 103/26 104/27
f 105/25 106/26 107/27
f 105/25 107/26 108/27
f 109/25 110/26 111/27
f 109/25 111/26 112/27
f 113/25 114/26 115/27
f 113/25 115/26 116/27
f 133/25 134/26 135/27
f 133/25 135/26 136/27
f 137/25 138/26 139/27
f 137/25 139/26 140/27
f 141/25 142/26 143/27
f 141/25 143/26 144/27
f 145/25 146/26 147/27
f 145/25 147/26 148/27
f 165/25 166/26 167/27
f 165/25 167/26 168/27
f 169/25 170/26 171/27
f 169/25 171/26 172/27
f 173/25 174/26 175/27
f 173/25 175/26 176/27
f 177/25 178/26 179/27
f 177/25 179/26 180/27
f 197/25 198/26 199/27
f 197/25 199/26 200/27
f 201/25 202/26 203/27
f 201/25 203/26 204/27
f 205/25 206/26 207/27
f 205/25 207/26 208/27
f 209/25 210/26 211/27
f 209/25 211/26 212/27
f 229/25 230/26 231/27
f 229/25 231/26 232/27
f 233/25 234/26 235/27
f 233/25 235/26 236/27
f 237/25 238/26 239/27
f 237/25 239/26 240/27
f 241/25 242/26 243/27
f 241/25 243/26 244/27
f 261/25 262/26 263/27
f 261/25 263/26 264/27
f 265/25 266/26 267/27
f 265/25 267/26 268/27
f 269/25 270/26 271/27
f 269/25 271/26 272/27
f 273/25 274/26 275/27
f 273/25 275/26 276/27
