mtllib TorusTransport_RoadA.mtl
o TorusTransport_RoadA
usemtl TorusTransportKit
s off
v -0.750000 0.000000 -1.250000
v 0.750000 0.000000 -1.250000
v 0.750000 0.020000 -1.250000
v -0.750000 0.020000 -1.250000
v -0.750000 0.000000 1.250000
v 0.750000 0.000000 1.250000
v 0.750000 0.020000 1.250000
v -0.750000 0.020000 1.250000
v -0.743750 0.020000 -1.250000
v -0.406250 0.020000 -1.250000
v -0.406250 0.027500 -1.250000
v -0.743750 0.027500 -1.250000
v -0.743750 0.020000 1.250000
v -0.406250 0.020000 1.250000
v -0.406250 0.027500 1.250000
v -0.743750 0.027500 1.250000
v 0.406250 0.020000 -1.250000
v 0.743750 0.020000 -1.250000
v 0.743750 0.027500 -1.250000
v 0.406250 0.027500 -1.250000
v 0.406250 0.020000 1.250000
v 0.743750 0.020000 1.250000
v 0.743750 0.027500 1.250000
v 0.406250 0.027500 1.250000
v -0.010000 0.020000 -0.875000
v 0.010000 0.020000 -0.875000
v 0.010000 0.021000 -0.875000
v -0.010000 0.021000 -0.875000
v -0.010000 0.020000 -0.625000
v 0.010000 0.020000 -0.625000
v 0.010000 0.021000 -0.625000
v -0.010000 0.021000 -0.625000
v -0.010000 0.020000 -0.375000
v 0.010000 0.020000 -0.375000
v 0.010000 0.021000 -0.375000
v -0.010000 0.021000 -0.375000
v -0.010000 0.020000 -0.125000
v 0.010000 0.020000 -0.125000
v 0.010000 0.021000 -0.125000
v -0.010000 0.021000 -0.125000
v -0.010000 0.020000 0.125000
v 0.010000 0.020000 0.125000
v 0.010000 0.021000 0.125000
v -0.010000 0.021000 0.125000
v -0.010000 0.020000 0.375000
v 0.010000 0.020000 0.375000
v 0.010000 0.021000 0.375000
v -0.010000 0.021000 0.375000
v -0.010000 0.020000 0.625000
v 0.010000 0.020000 0.625000
v 0.010000 0.021000 0.625000
v -0.010000 0.021000 0.625000
v -0.010000 0.020000 0.875000
v 0.010000 0.020000 0.875000
v 0.010000 0.021000 0.875000
v -0.010000 0.021000 0.875000
vt 0.265625 0.515625
vt 0.484375 0.515625
vt 0.484375 0.734375
vt 0.265625 0.734375
vt 0.265625 0.515625
vt 0.484375 0.515625
vt 0.484375 0.734375
vt 0.265625 0.734375
vt 0.265625 0.515625
vt 0.484375 0.515625
vt 0.484375 0.734375
vt 0.265625 0.734375
vt 0.265625 0.515625
vt 0.484375 0.515625
vt 0.484375 0.734375
vt 0.265625 0.734375
vt 0.265625 0.515625
vt 0.484375 0.515625
vt 0.484375 0.734375
vt 0.265625 0.734375
vt 0.265625 0.515625
vt 0.484375 0.515625
vt 0.484375 0.734375
vt 0.265625 0.734375
vt 0.015625 0.765625
vt 0.234375 0.765625
vt 0.234375 0.984375
vt 0.015625 0.984375
vt 0.015625 0.765625
vt 0.234375 0.765625
vt 0.234375 0.984375
vt 0.015625 0.984375
vt 0.015625 0.765625
vt 0.234375 0.765625
vt 0.234375 0.984375
vt 0.015625 0.984375
vt 0.015625 0.765625
vt 0.234375 0.765625
vt 0.234375 0.984375
vt 0.015625 0.984375
vt 0.015625 0.765625
vt 0.234375 0.765625
vt 0.234375 0.984375
vt 0.015625 0.984375
vt 0.015625 0.765625
vt 0.234375 0.765625
vt 0.234375 0.984375
vt 0.015625 0.984375
vt 0.015625 0.765625
vt 0.234375 0.765625
vt 0.234375 0.984375
vt 0.015625 0.984375
vt 0.015625 0.765625
vt 0.234375 0.765625
vt 0.234375 0.984375
vt 0.015625 0.984375
vt 0.015625 0.765625
vt 0.234375 0.765625
vt 0.234375 0.984375
vt 0.015625 0.984375
vt 0.015625 0.765625
vt 0.234375 0.765625
vt 0.234375 0.984375
vt 0.015625 0.984375
vt 0.015625 0.765625
vt 0.234375 0.765625
vt 0.234375 0.984375
vt 0.015625 0.984375
vt 0.015625 0.765625
vt 0.234375 0.765625
vt 0.234375 0.984375
vt 0.015625 0.984375
vt 0.515625 0.515625
vt 0.734375 0.515625
vt 0.734375 0.734375
vt 0.515625 0.734375
vt 0.515625 0.515625
vt 0.734375 0.515625
vt 0.734375 0.734375
vt 0.515625 0.734375
vt 0.515625 0.515625
vt 0.734375 0.515625
vt 0.734375 0.734375
vt 0.515625 0.734375
vt 0.515625 0.515625
vt 0.734375 0.515625
vt 0.734375 0.734375
vt 0.515625 0.734375
vt 0.515625 0.515625
vt 0.734375 0.515625
vt 0.734375 0.734375
vt 0.515625 0.734375
vt 0.515625 0.515625
vt 0.734375 0.515625
vt 0.734375 0.734375
vt 0.515625 0.734375
vt 0.515625 0.515625
vt 0.734375 0.515625
vt 0.734375 0.734375
vt 0.515625 0.734375
vt 0.515625 0.515625
vt 0.734375 0.515625
vt 0.734375 0.734375
vt 0.515625 0.734375
vt 0.515625 0.515625
vt 0.734375 0.515625
vt 0.734375 0.734375
vt 0.515625 0.734375
vt 0.515625 0.515625
vt 0.734375 0.515625
vt 0.734375 0.734375
vt 0.515625 0.734375
vt 0.515625 0.515625
vt 0.734375 0.515625
vt 0.734375 0.734375
vt 0.515625 0.734375
vt 0.515625 0.515625
vt 0.734375 0.515625
vt 0.734375 0.734375
vt 0.515625 0.734375
vt 0.515625 0.515625
vt 0.734375 0.515625
vt 0.734375 0.734375
vt 0.515625 0.734375
vt 0.515625 0.515625
vt 0.734375 0.515625
vt 0.734375 0.734375
vt 0.515625 0.734375
vt 0.515625 0.515625
vt 0.734375 0.515625
vt 0.734375 0.734375
vt 0.515625 0.734375
vt 0.515625 0.515625
vt 0.734375 0.515625
vt 0.734375 0.734375
vt 0.515625 0.734375
vt 0.515625 0.515625
vt 0.734375 0.515625
vt 0.734375 0.734375
vt 0.515625 0.734375
vt 0.515625 0.515625
vt 0.734375 0.515625
vt 0.734375 0.734375
vt 0.515625 0.734375
vt 0.515625 0.515625
vt 0.734375 0.515625
vt 0.734375 0.734375
vt 0.515625 0.734375
vt 0.515625 0.515625
vt 0.734375 0.515625
vt 0.734375 0.734375
vt 0.515625 0.734375
vt 0.515625 0.515625
vt 0.734375 0.515625
vt 0.734375 0.734375
vt 0.515625 0.734375
vt 0.515625 0.515625
vt 0.734375 0.515625
vt 0.734375 0.734375
vt 0.515625 0.734375
vt 0.515625 0.515625
vt 0.734375 0.515625
vt 0.734375 0.734375
vt 0.515625 0.734375
vt 0.515625 0.515625
vt 0.734375 0.515625
vt 0.734375 0.734375
vt 0.515625 0.734375
vn 0.00000000 0.00000000 -1.00000000
vn 0.00000000 0.00000000 1.00000000
vn -1.00000000 0.00000000 0.00000000
vn 1.00000000 0.00000000 0.00000000
vn 0.00000000 -1.00000000 0.00000000
vn 0.00000000 1.00000000 0.00000000
vn 0.00000000 0.00000000 -1.00000000
vn 0.00000000 0.00000000 1.00000000
vn -1.00000000 0.00000000 0.00000000
vn 1.00000000 0.00000000 0.00000000
vn 0.00000000 -1.00000000 0.00000000
vn 0.00000000 1.00000000 0.00000000
vn 0.00000000 0.00000000 -1.00000000
vn 0.00000000 0.00000000 1.00000000
vn -1.00000000 0.00000000 0.00000000
vn 1.00000000 0.00000000 0.00000000
vn 0.00000000 -1.00000000 0.00000000
vn 0.00000000 1.00000000 0.00000000
vn 0.00000000 0.00000000 -1.00000000
vn 0.00000000 0.00000000 1.00000000
vn -1.00000000 0.00000000 0.00000000
vn 1.00000000 0.00000000 0.00000000
vn 0.00000000 -1.00000000 0.00000000
vn 0.00000000 1.00000000 0.00000000
vn 0.00000000 0.00000000 -1.00000000
vn 0.00000000 0.00000000 1.00000000
vn -1.00000000 0.00000000 0.00000000
vn 1.00000000 0.00000000 0.00000000
vn 0.00000000 -1.00000000 0.00000000
vn 0.00000000 1.00000000 0.00000000
vn 0.00000000 0.00000000 -1.00000000
vn 0.00000000 0.00000000 1.00000000
vn -1.00000000 0.00000000 0.00000000
vn 1.00000000 0.00000000 0.00000000
vn 0.00000000 -1.00000000 0.00000000
vn 0.00000000 1.00000000 0.00000000
vn 0.00000000 0.00000000 -1.00000000
vn 0.00000000 0.00000000 1.00000000
vn -1.00000000 0.00000000 0.00000000
vn 1.00000000 0.00000000 0.00000000
vn 0.00000000 -1.00000000 0.00000000
vn 0.00000000 1.00000000 0.00000000
f 1/1/1 4/2/1 3/3/1
f 1/1/1 3/3/1 2/4/1
f 5/5/2 6/6/2 7/7/2
f 5/5/2 7/7/2 8/8/2
f 1/9/3 5/10/3 8/11/3
f 1/9/3 8/11/3 4/12/3
f 2/13/4 3/14/4 7/15/4
f 2/13/4 7/15/4 6/16/4
f 1/17/5 2/18/5 6/19/5
f 1/17/5 6/19/5 5/20/5
f 4/21/6 8/22/6 7/23/6
f 4/21/6 7/23/6 3/24/6
f 9/25/7 12/26/7 11/27/7
f 9/25/7 11/27/7 10/28/7
f 13/29/8 14/30/8 15/31/8
f 13/29/8 15/31/8 16/32/8
f 9/33/9 13/34/9 16/35/9
f 9/33/9 16/35/9 12/36/9
f 10/37/10 11/38/10 15/39/10
f 10/37/10 15/39/10 14/40/10
f 9/41/11 10/42/11 14/43/11
f 9/41/11 14/43/11 13/44/11
f 12/45/12 16/46/12 15/47/12
f 12/45/12 15/47/12 11/48/12
f 17/49/13 20/50/13 19/51/13
f 17/49/13 19/51/13 18/52/13
f 21/53/14 22/54/14 23/55/14
f 21/53/14 23/55/14 24/56/14
f 17/57/15 21/58/15 24/59/15
f 17/57/15 24/59/15 20/60/15
f 18/61/16 19/62/16 23/63/16
f 18/61/16 23/63/16 22/64/16
f 17/65/17 18/66/17 22/67/17
f 17/65/17 22/67/17 21/68/17
f 20/69/18 24/70/18 23/71/18
f 20/69/18 23/71/18 19/72/18
f 25/73/19 28/74/19 27/75/19
f 25/73/19 27/75/19 26/76/19
f 29/77/20 30/78/20 31/79/20
f 29/77/20 31/79/20 32/80/20
f 25/81/21 29/82/21 32/83/21
f 25/81/21 32/83/21 28/84/21
f 26/85/22 27/86/22 31/87/22
f 26/85/22 31/87/22 30/88/22
f 25/89/23 26/90/23 30/91/23
f 25/89/23 30/91/23 29/92/23
f 28/93/24 32/94/24 31/95/24
f 28/93/24 31/95/24 27/96/24
f 33/97/25 36/98/25 35/99/25
f 33/97/25 35/99/25 34/100/25
f 37/101/26 38/102/26 39/103/26
f 37/101/26 39/103/26 40/104/26
f 33/105/27 37/106/27 40/107/27
f 33/105/27 40/107/27 36/108/27
f 34/109/28 35/110/28 39/111/28
f 34/109/28 39/111/28 38/112/28
f 33/113/29 34/114/29 38/115/29
f 33/113/29 38/115/29 37/116/29
f 36/117/30 40/118/30 39/119/30
f 36/117/30 39/119/30 35/120/30
f 41/121/31 44/122/31 43/123/31
f 41/121/31 43/123/31 42/124/31
f 45/125/32 46/126/32 47/127/32
f 45/125/32 47/127/32 48/128/32
f 41/129/33 45/130/33 48/131/33
f 41/129/33 48/131/33 44/132/33
f 42/133/34 43/134/34 47/135/34
f 42/133/34 47/135/34 46/136/34
f 41/137/35 42/138/35 46/139/35
f 41/137/35 46/139/35 45/140/35
f 44/141/36 48/142/36 47/143/36
f 44/141/36 47/143/36 43/144/36
f 49/145/37 52/146/37 51/147/37
f 49/145/37 51/147/37 50/148/37
f 53/149/38 54/150/38 55/151/38
f 53/149/38 55/151/38 56/152/38
f 49/153/39 53/154/39 56/155/39
f 49/153/39 56/155/39 52/156/39
f 50/157/40 51/158/40 55/159/40
f 50/157/40 55/159/40 54/160/40
f 49/161/41 50/162/41 54/163/41
f 49/161/41 54/163/41 53/164/41
f 52/165/42 56/166/42 55/167/42
f 52/165/42 55/167/42 51/168/42
