mtllib TorusTransport_StairsRampA.mtl
o TorusTransport_StairsRampA
usemtl TorusTransportKit
s off
v -0.500000 0.000000 1.160000
v -0.100000 0.000000 1.160000
v -0.100000 0.045000 1.160000
v -0.500000 0.045000 1.160000
v -0.500000 0.000000 1.250000
v -0.100000 0.000000 1.250000
v -0.100000 0.045000 1.250000
v -0.500000 0.045000 1.250000
v -0.500000 0.000000 1.070000
v -0.100000 0.000000 1.070000
v -0.100000 0.090000 1.070000
v -0.500000 0.090000 1.070000
v -0.100000 0.090000 1.160000
v -0.500000 0.090000 1.160000
v -0.500000 0.000000 0.980000
v -0.100000 0.000000 0.980000
v -0.100000 0.135000 0.980000
v -0.500000 0.135000 0.980000
v -0.100000 0.135000 1.070000
v -0.500000 0.135000 1.070000
v -0.500000 0.000000 0.890000
v -0.100000 0.000000 0.890000
v -0.100000 0.180000 0.890000
v -0.500000 0.180000 0.890000
v -0.100000 0.180000 0.980000
v -0.500000 0.180000 0.980000
v -0.500000 0.000000 0.800000
v -0.100000 0.000000 0.800000
v -0.100000 0.225000 0.800000
v -0.500000 0.225000 0.800000
v -0.100000 0.225000 0.890000
v -0.500000 0.225000 0.890000
v -0.500000 0.000000 0.710000
v -0.100000 0.000000 0.710000
v -0.100000 0.270000 0.710000
v -0.500000 0.270000 0.710000
v -0.100000 0.270000 0.800000
v -0.500000 0.270000 0.800000
v -0.500000 0.000000 0.620000
v -0.100000 0.000000 0.620000
v -0.100000 0.315000 0.620000
v -0.500000 0.315000 0.620000
v -0.100000 0.315000 0.710000
v -0.500000 0.315000 0.710000
v -0.500000 0.000000 0.530000
v -0.100000 0.000000 0.530000
v -0.100000 0.360000 0.530000
v -0.500000 0.360000 0.530000
v -0.100000 0.360000 0.620000
v -0.500000 0.360000 0.620000
v -0.500000 0.000000 0.440000
v -0.100000 0.000000 0.440000
v -0.100000 0.405000 0.440000
v -0.500000 0.405000 0.440000
v -0.100000 0.405000 0.530000
v -0.500000 0.405000 0.530000
v -0.500000 0.000000 0.350000
v -0.100000 0.000000 0.350000
v -0.100000 0.450000 0.350000
v -0.500000 0.450000 0.350000
v -0.100000 0.450000 0.440000
v -0.500000 0.450000 0.440000
v -0.100000 0.015000 1.250000
v -0.500000 0.015000 1.250000
v -0.500000 0.000000 1.600000
v -0.100000 0.000000 1.600000
v -0.100000 0.015000 1.600000
v -0.500000 0.015000 1.600000
v -0.500000 0.000000 -1.800000
v -0.100000 0.000000 -1.800000
v -0.100000 0.450000 -1.800000
v -0.500000 0.450000 -1.800000
v 0.100000 0.000000 1.800000
v 0.100000 0.005000 1.800000
v 0.500000 0.005000 1.800000
v 0.500000 0.000000 1.800000
v 0.100000 0.000000 -1.800000
v 0.500000 0.000000 -1.800000
v 0.500000 0.450000 -1.800000
v 0.100000 0.450000 -1.800000
v 0.500000 0.015000 1.800000
v 0.100000 0.015000 1.800000
v 0.100000 0.000000 2.100000
v 0.500000 0.000000 2.100000
v 0.500000 0.015000 2.100000
v 0.100000 0.015000 2.100000
v -0.500000 0.000000 -2.150000
v 0.500000 0.000000 -2.150000
v 0.500000 0.450000 -2.150000
v -0.500000 0.450000 -2.150000
v -0.550000 0.045000 1.241250
v -0.557578 0.045000 1.254375
v -0.557578 0.315000 1.254375
v -0.550000 0.315000 1.241250
v -0.550000 0.045000 1.250000
v -0.550000 0.315000 1.250000
v -0.542422 0.045000 1.254375
v -0.542422 0.315000 1.254375
v -0.550000 0.146250 1.016250
v -0.557578 0.146250 1.029375
v -0.557578 0.416250 1.029375
v -0.550000 0.416250 1.016250
v -0.550000 0.146250 1.025000
v -0.550000 0.416250 1.025000
v -0.542422 0.146250 1.029375
v -0.542422 0.416250 1.029375
v -0.550000 0.247500 0.791250
v -0.557578 0.247500 0.804375
v -0.557578 0.517500 0.804375
v -0.550000 0.517500 0.791250
v -0.550000 0.247500 0.800000
v -0.550000 0.517500 0.800000
v -0.542422 0.247500 0.804375
v -0.542422 0.517500 0.804375
v -0.550000 0.348750 0.566250
v -0.557578 0.348750 0.579375
v -0.557578 0.618750 0.579375
v -0.550000 0.618750 0.566250
v -0.550000 0.348750 0.575000
v -0.550000 0.618750 0.575000
v -0.542422 0.348750 0.579375
v -0.542422 0.618750 0.579375
v -0.550000 0.450000 0.341250
v -0.557578 0.450000 0.354375
v -0.557578 0.720000 0.354375
v -0.550000 0.720000 0.341250
v -0.550000 0.450000 0.350000
v -0.550000 0.720000 0.350000
v -0.542422 0.450000 0.354375
v -0.542422 0.720000 0.354375
v -0.541250 0.165000 1.250000
v -0.554375 0.158090 1.246890
v -0.554375 0.563090 0.346890
v -0.541250 0.570000 0.350000
v -0.550000 0.165000 1.250000
v -0.550000 0.570000 0.350000
v -0.554375 0.171910 1.253110
v -0.554375 0.576910 0.353110
v -0.541250 0.315000 1.250000
v -0.554375 0.308090 1.246890
v -0.554375 0.713090 0.346890
v -0.541250 0.720000 0.350000
v -0.554375 0.321910 1.253110
v -0.554375 0.726910 0.353110
v -0.050000 0.045000 1.241250
v -0.057578 0.045000 1.254375
v -0.057578 0.315000 1.254375
v -0.050000 0.315000 1.241250
v -0.050000 0.045000 1.250000
v -0.050000 0.315000 1.250000
v -0.042422 0.045000 1.254375
v -0.042422 0.315000 1.254375
v -0.050000 0.146250 1.016250
v -0.057578 0.146250 1.029375
v -0.057578 0.416250 1.029375
v -0.050000 0.416250 1.016250
v -0.050000 0.146250 1.025000
v -0.050000 0.416250 1.025000
v -0.042422 0.146250 1.029375
v -0.042422 0.416250 1.029375
v -0.050000 0.247500 0.791250
v -0.057578 0.247500 0.804375
v -0.057578 0.517500 0.804375
v -0.050000 0.517500 0.791250
v -0.050000 0.247500 0.800000
v -0.050000 0.517500 0.800000
v -0.042422 0.247500 0.804375
v -0.042422 0.517500 0.804375
v -0.050000 0.348750 0.566250
v -0.057578 0.348750 0.579375
v -0.057578 0.618750 0.579375
v -0.050000 0.618750 0.566250
v -0.050000 0.348750 0.575000
v -0.050000 0.618750 0.575000
v -0.042422 0.348750 0.579375
v -0.042422 0.618750 0.579375
v -0.050000 0.450000 0.341250
v -0.057578 0.450000 0.354375
v -0.057578 0.720000 0.354375
v -0.050000 0.720000 0.341250
v -0.050000 0.450000 0.350000
v -0.050000 0.720000 0.350000
v -0.042422 0.450000 0.354375
v -0.042422 0.720000 0.354375
v -0.041250 0.165000 1.250000
v -0.054375 0.158090 1.246890
v -0.054375 0.563090 0.346890
v -0.041250 0.570000 0.350000
v -0.050000 0.165000 1.250000
v -0.050000 0.570000 0.350000
v -0.054375 0.171910 1.253110
v -0.054375 0.576910 0.353110
v -0.041250 0.315000 1.250000
v -0.054375 0.308090 1.246890
v -0.054375 0.713090 0.346890
v -0.041250 0.720000 0.350000
v -0.054375 0.321910 1.253110
v -0.054375 0.726910 0.353110
v -0.550000 0.450000 -0.196250
v -0.557578 0.450000 -0.183125
v -0.557578 0.720000 -0.183125
v -0.550000 0.720000 -0.196250
v -0.550000 0.450000 -0.187500
v -0.550000 0.720000 -0.187500
v -0.542422 0.450000 -0.183125
v -0.542422 0.720000 -0.183125
v -0.550000 0.450000 -0.733750
v -0.557578 0.450000 -0.720625
v -0.557578 0.720000 -0.720625
v -0.550000 0.720000 -0.733750
v -0.550000 0.450000 -0.725000
v -0.550000 0.720000 -0.725000
v -0.542422 0.450000 -0.720625
v -0.542422 0.720000 -0.720625
v -0.550000 0.450000 -1.271250
v -0.557578 0.450000 -1.258125
v -0.557578 0.720000 -1.258125
v -0.550000 0.720000 -1.271250
v -0.550000 0.450000 -1.262500
v -0.550000 0.720000 -1.262500
v -0.542422 0.450000 -1.258125
v -0.542422 0.720000 -1.258125
v -0.550000 0.450000 -1.808750
v -0.557578 0.450000 -1.795625
v -0.557578 0.720000 -1.795625
v -0.550000 0.720000 -1.808750
v -0.550000 0.450000 -1.800000
v -0.550000 0.720000 -1.800000
v -0.542422 0.450000 -1.795625
v -0.542422 0.720000 -1.795625
v -0.554375 0.562422 0.350000
v -0.554375 0.562422 -1.800000
v -0.541250 0.570000 -1.800000
v -0.550000 0.570000 -1.800000
v -0.554375 0.577578 0.350000
v -0.554375 0.577578 -1.800000
v -0.554375 0.712422 0.350000
v -0.554375 0.712422 -1.800000
v -0.541250 0.720000 -1.800000
v -0.554375 0.727578 0.350000
v -0.554375 0.727578 -1.800000
v -0.050000 0.450000 -0.196250
v -0.057578 0.450000 -0.183125
v -0.057578 0.720000 -0.183125
v -0.050000 0.720000 -0.196250
v -0.050000 0.450000 -0.187500
v -0.050000 0.720000 -0.187500
v -0.042422 0.450000 -0.183125
v -0.042422 0.720000 -0.183125
v -0.050000 0.450000 -0.733750
v -0.057578 0.450000 -0.720625
v -0.057578 0.720000 -0.720625
v -0.050000 0.720000 -0.733750
v -0.050000 0.450000 -0.725000
v -0.050000 0.720000 -0.725000
v -0.042422 0.450000 -0.720625
v -0.042422 0.720000 -0.720625
v -0.050000 0.450000 -1.271250
v -0.057578 0.450000 -1.258125
v -0.057578 0.720000 -1.258125
v -0.050000 0.720000 -1.271250
v -0.050000 0.450000 -1.262500
v -0.050000 0.720000 -1.262500
v -0.042422 0.450000 -1.258125
v -0.042422 0.720000 -1.258125
v -0.050000 0.450000 -1.808750
v -0.057578 0.450000 -1.795625
v -0.057578 0.720000 -1.795625
v -0.050000 0.720000 -1.808750
v -0.050000 0.450000 -1.800000
v -0.050000 0.720000 -1.800000
v -0.042422 0.450000 -1.795625
v -0.042422 0.720000 -1.795625
v -0.054375 0.562422 0.350000
v -0.054375 0.562422 -1.800000
v -0.041250 0.570000 -1.800000
v -0.050000 0.570000 -1.800000
v -0.054375 0.577578 0.350000
v -0.054375 0.577578 -1.800000
v -0.054375 0.712422 0.350000
v -0.054375 0.712422 -1.800000
v -0.041250 0.720000 -1.800000
v -0.054375 0.727578 0.350000
v -0.054375 0.727578 -1.800000
v 0.050000 0.005000 1.791250
v 0.042422 0.005000 1.804375
v 0.042422 0.275000 1.804375
v 0.050000 0.275000 1.791250
v 0.050000 0.005000 1.800000
v 0.050000 0.275000 1.800000
v 0.057578 0.005000 1.804375
v 0.057578 0.275000 1.804375
v 0.050000 0.116250 0.891250
v 0.042422 0.116250 0.904375
v 0.042422 0.386250 0.904375
v 0.050000 0.386250 0.891250
v 0.050000 0.116250 0.900000
v 0.050000 0.386250 0.900000
v 0.057578 0.116250 0.904375
v 0.057578 0.386250 0.904375
v 0.050000 0.227500 -0.008750
v 0.042422 0.227500 0.004375
v 0.042422 0.497500 0.004375
v 0.050000 0.497500 -0.008750
v 0.050000 0.227500 0.000000
v 0.050000 0.497500 0.000000
v 0.057578 0.227500 0.004375
v 0.057578 0.497500 0.004375
v 0.050000 0.338750 -0.908750
v 0.042422 0.338750 -0.895625
v 0.042422 0.608750 -0.895625
v 0.050000 0.608750 -0.908750
v 0.050000 0.338750 -0.900000
v 0.050000 0.608750 -0.900000
v 0.057578 0.338750 -0.895625
v 0.057578 0.608750 -0.895625
v 0.050000 0.450000 -1.808750
v 0.042422 0.450000 -1.795625
v 0.042422 0.720000 -1.795625
v 0.050000 0.720000 -1.808750
v 0.050000 0.450000 -1.800000
v 0.050000 0.720000 -1.800000
v 0.057578 0.450000 -1.795625
v 0.057578 0.720000 -1.795625
v 0.058750 0.125000 1.800000
v 0.045625 0.117480 1.799070
v 0.045625 0.562480 -1.800930
v 0.058750 0.570000 -1.800000
v 0.050000 0.125000 1.800000
v 0.050000 0.570000 -1.800000
v 0.045625 0.132520 1.800930
v 0.045625 0.577520 -1.799070
v 0.058750 0.275000 1.800000
v 0.045625 0.267480 1.799070
v 0.045625 0.712480 -1.800930
v 0.058750 0.720000 -1.800000
v 0.045625 0.282520 1.800930
v 0.045625 0.727520 -1.799070
v 0.550000 0.005000 1.791250
v 0.542422 0.005000 1.804375
v 0.542422 0.275000 1.804375
v 0.550000 0.275000 1.791250
v 0.550000 0.005000 1.800000
v 0.550000 0.275000 1.800000
v 0.557578 0.005000 1.804375
v 0.557578 0.275000 1.804375
v 0.550000 0.116250 0.891250
v 0.542422 0.116250 0.904375
v 0.542422 0.386250 0.904375
v 0.550000 0.386250 0.891250
v 0.550000 0.116250 0.900000
v 0.550000 0.386250 0.900000
v 0.557578 0.116250 0.904375
v 0.557578 0.386250 0.904375
v 0.550000 0.227500 -0.008750
v 0.542422 0.227500 0.004375
v 0.542422 0.497500 0.004375
v 0.550000 0.497500 -0.008750
v 0.550000 0.227500 0.000000
v 0.550000 0.497500 0.000000
v 0.557578 0.227500 0.004375
v 0.557578 0.497500 0.004375
v 0.550000 0.338750 -0.908750
v 0.542422 0.338750 -0.895625
v 0.542422 0.608750 -0.895625
v 0.550000 0.608750 -0.908750
v 0.550000 0.338750 -0.900000
v 0.550000 0.608750 -0.900000
v 0.557578 0.338750 -0.895625
v 0.557578 0.608750 -0.895625
v 0.550000 0.450000 -1.808750
v 0.542422 0.450000 -1.795625
v 0.542422 0.720000 -1.795625
v 0.550000 0.720000 -1.808750
v 0.550000 0.450000 -1.800000
v 0.550000 0.720000 -1.800000
v 0.557578 0.450000 -1.795625
v 0.557578 0.720000 -1.795625
v 0.558750 0.125000 1.800000
v 0.545625 0.117480 1.799070
v 0.545625 0.562480 -1.800930
v 0.558750 0.570000 -1.800000
v 0.550000 0.125000 1.800000
v 0.550000 0.570000 -1.800000
v 0.545625 0.132520 1.800930
v 0.545625 0.577520 -1.799070
v 0.558750 0.275000 1.800000
v 0.545625 0.267480 1.799070
v 0.545625 0.712480 -1.800930
v 0.558750 0.720000 -1.800000
v 0.545625 0.282520 1.800930
v 0.545625 0.727520 -1.799070
vt 0.015625 0.765625
vt 0.234375 0.765625
vt 0.234375 0.984375
vt 0.015625 0.984375
vt 0.015625 0.765625
vt 0.234375 0.765625
vt 0.234375 0.984375
vt 0.015625 0.984375
vt 0.015625 0.765625
vt 0.234375 0.765625
vt 0.234375 0.984375
vt 0.015625 0.984375
vt 0.015625 0.765625
vt 0.234375 0.765625
vt 0.234375 0.984375
vt 0.015625 0.984375
vt 0.015625 0.765625
vt 0.234375 0.765625
vt 0.234375 0.984375
vt 0.015625 0.984375
vt 0.015625 0.765625
vt 0.234375 0.765625
vt 0.234375 0.984375
vt 0.015625 0.984375
vt 0.015625 0.765625
vt 0.234375 0.765625
vt 0.234375 0.984375
vt 0.015625 0.984375
vt 0.015625 0.765625
vt 0.234375 0.765625
vt 0.234375 0.984375
vt 0.015625 0.984375
vt 0.015625 0.765625
vt 0.234375 0.765625
vt 0.234375 0.984375
vt 0.015625 0.984375
vt 0.015625 0.765625
vt 0.234375 0.765625
vt 0.234375 0.984375
vt 0.015625 0.984375
vt 0.015625 0.765625
vt 0.234375 0.765625
vt 0.234375 0.984375
vt 0.015625 0.984375
vt 0.015625 0.765625
vt 0.234375 0.765625
vt 0.234375 0.984375
vt 0.015625 0.984375
vt 0.015625 0.765625
vt 0.234375 0.765625
vt 0.234375 0.984375
vt 0.015625 0.984375
vt 0.015625 0.765625
vt 0.234375 0.765625
vt 0.234375 0.984375
vt 0.015625 0.984375
vt 0.015625 0.765625
vt 0.234375 0.765625
vt 0.234375 0.984375
vt 0.015625 0.984375
vt 0.015625 0.765625
vt 0.234375 0.765625
vt 0.234375 0.984375
vt 0.015625 0.984375
vt 0.015625 0.765625
vt 0.234375 0.765625
vt 0.234375 0.984375
vt 0.015625 0.984375
vt 0.015625 0.765625
vt 0.234375 0.765625
vt 0.234375 0.984375
vt 0.015625 0.984375
vt 0.015625 0.765625
vt 0.234375 0.765625
vt 0.234375 0.984375
vt 0.015625 0.984375
vt 0.015625 0.765625
vt 0.234375 0.765625
vt 0.234375 0.984375
vt 0.015625 0.984375
vt 0.015625 0.765625
vt 0.234375 0.765625
vt 0.234375 0.984375
vt 0.015625 0.984375
vt 0.015625 0.765625
vt 0.234375 0.765625
vt 0.234375 0.984375
vt 0.015625 0.984375
vt 0.015625 0.765625
vt 0.234375 0.765625
vt 0.234375 0.984375
vt 0.015625 0.984375
vt 0.015625 0.765625
vt 0.234375 0.765625
vt 0.234375 0.984375
vt 0.015625 0.984375
vt 0.015625 0.765625
vt 0.234375 0.765625
vt 0.234375 0.984375
vt 0.015625 0.984375
vt 0.015625 0.765625
vt 0.234375 0.765625
vt 0.234375 0.984375
vt 0.015625 0.984375
vt 0.015625 0.765625
vt 0.234375 0.765625
vt 0.234375 0.984375
vt 0.015625 0.984375
vt 0.015625 0.765625
vt 0.234375 0.765625
vt 0.234375 0.984375
vt 0.015625 0.984375
vt 0.015625 0.765625
vt 0.234375 0.765625
vt 0.234375 0.984375
vt 0.015625 0.984375
vt 0.015625 0.765625
vt 0.234375 0.765625
vt 0.234375 0.984375
vt 0.015625 0.984375
vt 0.015625 0.765625
vt 0.234375 0.765625
vt 0.234375 0.984375
vt 0.015625 0.984375
vt 0.015625 0.765625
vt 0.234375 0.765625
vt 0.234375 0.984375
vt 0.015625 0.984375
vt 0.015625 0.765625
vt 0.234375 0.765625
vt 0.234375 0.984375
vt 0.015625 0.984375
vt 0.015625 0.765625
vt 0.234375 0.765625
vt 0.234375 0.984375
vt 0.015625 0.984375
vt 0.015625 0.765625
vt 0.234375 0.765625
vt 0.234375 0.984375
vt 0.015625 0.984375
vt 0.015625 0.765625
vt 0.234375 0.765625
vt 0.234375 0.984375
vt 0.015625 0.984375
vt 0.015625 0.765625
vt 0.234375 0.765625
vt 0.234375 0.984375
vt 0.015625 0.984375
vt 0.015625 0.765625
vt 0.234375 0.765625
vt 0.234375 0.984375
vt 0.015625 0.984375
vt 0.015625 0.765625
vt 0.234375 0.765625
vt 0.234375 0.984375
vt 0.015625 0.984375
vt 0.015625 0.765625
vt 0.234375 0.765625
vt 0.234375 0.984375
vt 0.015625 0.984375
vt 0.015625 0.765625
vt 0.234375 0.765625
vt 0.234375 0.984375
vt 0.015625 0.984375
vt 0.015625 0.765625
vt 0.234375 0.765625
vt 0.234375 0.984375
vt 0.015625 0.984375
vt 0.015625 0.765625
vt 0.234375 0.765625
vt 0.234375 0.984375
vt 0.015625 0.984375
vt 0.015625 0.765625
vt 0.234375 0.765625
vt 0.234375 0.984375
vt 0.015625 0.984375
vt 0.015625 0.765625
vt 0.234375 0.765625
vt 0.234375 0.984375
vt 0.015625 0.984375
vt 0.015625 0.765625
vt 0.234375 0.765625
vt 0.234375 0.984375
vt 0.015625 0.984375
vt 0.015625 0.765625
vt 0.234375 0.765625
vt 0.234375 0.984375
vt 0.015625 0.984375
vt 0.015625 0.765625
vt 0.234375 0.765625
vt 0.234375 0.984375
vt 0.015625 0.984375
vt 0.015625 0.765625
vt 0.234375 0.765625
vt 0.234375 0.984375
vt 0.015625 0.984375
vt 0.015625 0.765625
vt 0.234375 0.765625
vt 0.234375 0.984375
vt 0.015625 0.984375
vt 0.015625 0.765625
vt 0.234375 0.765625
vt 0.234375 0.984375
vt 0.015625 0.984375
vt 0.015625 0.765625
vt 0.234375 0.765625
vt 0.234375 0.984375
vt 0.015625 0.984375
vt 0.015625 0.765625
vt 0.234375 0.765625
vt 0.234375 0.984375
vt 0.015625 0.984375
vt 0.015625 0.765625
vt 0.234375 0.765625
vt 0.234375 0.984375
vt 0.015625 0.984375
vt 0.015625 0.765625
vt 0.234375 0.765625
vt 0.234375 0.984375
vt 0.015625 0.984375
vt 0.015625 0.765625
vt 0.234375 0.765625
vt 0.234375 0.984375
vt 0.015625 0.984375
vt 0.015625 0.765625
vt 0.234375 0.765625
vt 0.234375 0.984375
vt 0.015625 0.984375
vt 0.015625 0.765625
vt 0.234375 0.765625
vt 0.234375 0.984375
vt 0.015625 0.984375
vt 0.015625 0.765625
vt 0.234375 0.765625
vt 0.234375 0.984375
vt 0.015625 0.984375
vt 0.015625 0.765625
vt 0.234375 0.765625
vt 0.234375 0.984375
vt 0.015625 0.984375
vt 0.015625 0.765625
vt 0.234375 0.765625
vt 0.234375 0.984375
vt 0.015625 0.984375
vt 0.015625 0.765625
vt 0.234375 0.765625
vt 0.234375 0.984375
vt 0.015625 0.984375
vt 0.015625 0.765625
vt 0.234375 0.765625
vt 0.234375 0.984375
vt 0.015625 0.984375
vt 0.015625 0.765625
vt 0.234375 0.765625
vt 0.234375 0.984375
vt 0.015625 0.984375
vt 0.015625 0.765625
vt 0.234375 0.765625
vt 0.234375 0.984375
vt 0.015625 0.984375
vt 0.015625 0.765625
vt 0.234375 0.765625
vt 0.234375 0.984375
vt 0.015625 0.984375
vt 0.015625 0.765625
vt 0.234375 0.765625
vt 0.234375 0.984375
vt 0.015625 0.984375
vt 0.015625 0.765625
vt 0.234375 0.765625
vt 0.234375 0.984375
vt 0.015625 0.984375
vt 0.015625 0.765625
vt 0.234375 0.765625
vt 0.234375 0.984375
vt 0.015625 0.984375
vt 0.015625 0.765625
vt 0.234375 0.765625
vt 0.234375 0.984375
vt 0.015625 0.984375
vt 0.015625 0.765625
vt 0.234375 0.765625
vt 0.234375 0.984375
vt 0.015625 0.984375
vt 0.015625 0.765625
vt 0.234375 0.765625
vt 0.234375 0.984375
vt 0.015625 0.984375
vt 0.765625 0.765625
vt 0.984375 0.765625
vt 0.984375 0.984375
vt 0.765625 0.984375
vt 0.765625 0.765625
vt 0.984375 0.765625
vt 0.984375 0.984375
vt 0.765625 0.984375
vt 0.765625 0.765625
vt 0.984375 0.765625
vt 0.984375 0.984375
vt 0.765625 0.984375
vt 0.765625 0.765625
vt 0.984375 0.765625
vt 0.984375 0.984375
vt 0.765625 0.984375
vt 0.765625 0.765625
vt 0.984375 0.765625
vt 0.984375 0.984375
vt 0.765625 0.984375
vt 0.765625 0.765625
vt 0.984375 0.765625
vt 0.984375 0.984375
vt 0.765625 0.984375
vt 0.015625 0.765625
vt 0.234375 0.765625
vt 0.234375 0.984375
vt 0.015625 0.984375
vt 0.015625 0.765625
vt 0.234375 0.765625
vt 0.234375 0.984375
vt 0.015625 0.984375
vt 0.015625 0.765625
vt 0.234375 0.765625
vt 0.234375 0.984375
vt 0.015625 0.984375
vt 0.015625 0.765625
vt 0.234375 0.765625
vt 0.234375 0.984375
vt 0.015625 0.984375
vt 0.015625 0.765625
vt 0.234375 0.765625
vt 0.234375 0.984375
vt 0.015625 0.984375
vt 0.015625 0.765625
vt 0.234375 0.765625
vt 0.234375 0.984375
vt 0.015625 0.984375
vt 0.015625 0.765625
vt 0.234375 0.765625
vt 0.234375 0.984375
vt 0.015625 0.984375
vt 0.015625 0.765625
vt 0.234375 0.765625
vt 0.234375 0.984375
vt 0.015625 0.984375
vt 0.015625 0.765625
vt 0.234375 0.765625
vt 0.234375 0.984375
vt 0.015625 0.984375
vt 0.015625 0.765625
vt 0.234375 0.765625
vt 0.234375 0.984375
vt 0.015625 0.984375
vt 0.015625 0.765625
vt 0.234375 0.765625
vt 0.234375 0.984375
vt 0.015625 0.984375
vt 0.015625 0.765625
vt 0.234375 0.765625
vt 0.234375 0.984375
vt 0.015625 0.984375
vt 0.265625 0.765625
vt 0.484375 0.765625
vt 0.484375 0.984375
vt 0.265625 0.984375
vt 0.265625 0.765625
vt 0.484375 0.765625
vt 0.484375 0.984375
vt 0.265625 0.765625
vt 0.484375 0.765625
vt 0.484375 0.984375
vt 0.265625 0.765625
vt 0.484375 0.765625
vt 0.484375 0.984375
vt 0.265625 0.984375
vt 0.265625 0.765625
vt 0.484375 0.765625
vt 0.484375 0.984375
vt 0.265625 0.765625
vt 0.484375 0.765625
vt 0.484375 0.984375
vt 0.265625 0.765625
vt 0.484375 0.765625
vt 0.484375 0.984375
vt 0.265625 0.984375
vt 0.265625 0.765625
vt 0.484375 0.765625
vt 0.484375 0.984375
vt 0.265625 0.765625
vt 0.484375 0.765625
vt 0.484375 0.984375
vt 0.265625 0.765625
vt 0.484375 0.765625
vt 0.484375 0.984375
vt 0.265625 0.984375
vt 0.265625 0.765625
vt 0.484375 0.765625
vt 0.484375 0.984375
vt 0.265625 0.765625
vt 0.484375 0.765625
vt 0.484375 0.984375
vt 0.265625 0.765625
vt 0.484375 0.765625
vt 0.484375 0.984375
vt 0.265625 0.984375
vt 0.265625 0.765625
vt 0.484375 0.765625
vt 0.484375 0.984375
vt 0.265625 0.765625
vt 0.484375 0.765625
vt 0.484375 0.984375
vt 0.265625 0.765625
vt 0.484375 0.765625
vt 0.484375 0.984375
vt 0.265625 0.984375
vt 0.265625 0.765625
vt 0.484375 0.765625
vt 0.484375 0.984375
vt 0.265625 0.765625
vt 0.484375 0.765625
vt 0.484375 0.984375
vt 0.265625 0.765625
vt 0.484375 0.765625
vt 0.484375 0.984375
vt 0.265625 0.984375
vt 0.265625 0.765625
vt 0.484375 0.765625
vt 0.484375 0.984375
vt 0.265625 0.765625
vt 0.484375 0.765625
vt 0.484375 0.984375
vt 0.265625 0.765625
vt 0.484375 0.765625
vt 0.484375 0.984375
vt 0.265625 0.984375
vt 0.265625 0.765625
vt 0.484375 0.765625
vt 0.484375 0.984375
vt 0.265625 0.765625
vt 0.484375 0.765625
vt 0.484375 0.984375
vt 0.265625 0.765625
vt 0.484375 0.765625
vt 0.484375 0.984375
vt 0.265625 0.984375
vt 0.265625 0.765625
vt 0.484375 0.765625
vt 0.484375 0.984375
vt 0.265625 0.765625
vt 0.484375 0.765625
vt 0.484375 0.984375
vt 0.265625 0.765625
vt 0.484375 0.765625
vt 0.484375 0.984375
vt 0.265625 0.984375
vt 0.265625 0.765625
vt 0.484375 0.765625
vt 0.484375 0.984375
vt 0.265625 0.765625
vt 0.484375 0.765625
vt 0.484375 0.984375
vt 0.265625 0.765625
vt 0.484375 0.765625
vt 0.484375 0.984375
vt 0.265625 0.984375
vt 0.265625 0.765625
vt 0.484375 0.765625
vt 0.484375 0.984375
vt 0.265625 0.765625
vt 0.484375 0.765625
vt 0.484375 0.984375
vt 0.265625 0.765625
vt 0.484375 0.765625
vt 0.484375 0.984375
vt 0.265625 0.984375
vt 0.265625 0.765625
vt 0.484375 0.765625
vt 0.484375 0.984375
vt 0.265625 0.765625
vt 0.484375 0.765625
vt 0.484375 0.984375
vt 0.265625 0.765625
vt 0.484375 0.765625
vt 0.484375 0.984375
vt 0.265625 0.984375
vt 0.265625 0.765625
vt 0.484375 0.765625
vt 0.484375 0.984375
vt 0.265625 0.765625
vt 0.484375 0.765625
vt 0.484375 0.984375
vt 0.265625 0.765625
vt 0.484375 0.765625
vt 0.484375 0.984375
vt 0.265625 0.984375
vt 0.265625 0.765625
vt 0.484375 0.765625
vt 0.484375 0.984375
vt 0.265625 0.765625
vt 0.484375 0.765625
vt 0.484375 0.984375
vt 0.265625 0.765625
vt 0.484375 0.765625
vt 0.484375 0.984375
vt 0.265625 0.984375
vt 0.265625 0.765625
vt 0.484375 0.765625
vt 0.484375 0.984375
vt 0.265625 0.765625
vt 0.484375 0.765625
vt 0.484375 0.984375
vt 0.265625 0.765625
vt 0.484375 0.765625
vt 0.484375 0.984375
vt 0.265625 0.984375
vt 0.265625 0.765625
vt 0.484375 0.765625
vt 0.484375 0.984375
vt 0.265625 0.765625
vt 0.484375 0.765625
vt 0.484375 0.984375
vt 0.265625 0.765625
vt 0.484375 0.765625
vt 0.484375 0.984375
vt 0.265625 0.984375
vt 0.265625 0.765625
vt 0.484375 0.765625
vt 0.484375 0.984375
vt 0.265625 0.765625
vt 0.484375 0.765625
vt 0.484375 0.984375
vt 0.265625 0.765625
vt 0.484375 0.765625
vt 0.484375 0.984375
vt 0.265625 0.984375
vt 0.265625 0.765625
vt 0.484375 0.765625
vt 0.484375 0.984375
vt 0.265625 0.765625
vt 0.484375 0.765625
vt 0.484375 0.984375
vt 0.265625 0.765625
vt 0.484375 0.765625
vt 0.484375 0.984375
vt 0.265625 0.984375
vt 0.265625 0.765625
vt 0.484375 0.765625
vt 0.484375 0.984375
vt 0.265625 0.765625
vt 0.484375 0.765625
vt 0.484375 0.984375
vt 0.265625 0.765625
vt 0.484375 0.765625
vt 0.484375 0.984375
vt 0.265625 0.984375
vt 0.265625 0.765625
vt 0.484375 0.765625
vt 0.484375 0.984375
vt 0.265625 0.765625
vt 0.484375 0.765625
vt 0.484375 0.984375
vt 0.265625 0.765625
vt 0.484375 0.765625
vt 0.484375 0.984375
vt 0.265625 0.984375
vt 0.265625 0.765625
vt 0.484375 0.765625
vt 0.484375 0.984375
vt 0.265625 0.765625
vt 0.484375 0.765625
vt 0.484375 0.984375
vt 0.265625 0.765625
vt 0.484375 0.765625
vt 0.484375 0.984375
vt 0.265625 0.984375
vt 0.265625 0.765625
vt 0.484375 0.765625
vt 0.484375 0.984375
vt 0.265625 0.765625
vt 0.484375 0.765625
vt 0.484375 0.984375
vt 0.265625 0.765625
vt 0.484375 0.765625
vt 0.484375 0.984375
vt 0.265625 0.984375
vt 0.265625 0.765625
vt 0.484375 0.765625
vt 0.484375 0.984375
vt 0.265625 0.765625
vt 0.484375 0.765625
vt 0.484375 0.984375
vt 0.265625 0.765625
vt 0.484375 0.765625
vt 0.484375 0.984375
vt 0.265625 0.984375
vt 0.265625 0.765625
vt 0.484375 0.765625
vt 0.484375 0.984375
vt 0.265625 0.765625
vt 0.484375 0.765625
vt 0.484375 0.984375
vt 0.265625 0.765625
vt 0.484375 0.765625
vt 0.484375 0.984375
vt 0.265625 0.984375
vt 0.265625 0.765625
vt 0.484375 0.765625
vt 0.484375 0.984375
vt 0.265625 0.765625
vt 0.484375 0.765625
vt 0.484375 0.984375
vt 0.265625 0.765625
vt 0.484375 0.765625
vt 0.484375 0.984375
vt 0.265625 0.984375
vt 0.265625 0.765625
vt 0.484375 0.765625
vt 0.484375 0.984375
vt 0.265625 0.765625
vt 0.484375 0.765625
vt 0.484375 0.984375
vt 0.265625 0.765625
vt 0.484375 0.765625
vt 0.484375 0.984375
vt 0.265625 0.984375
vt 0.265625 0.765625
vt 0.484375 0.765625
vt 0.484375 0.984375
vt 0.265625 0.765625
vt 0.484375 0.765625
vt 0.484375 0.984375
vt 0.265625 0.765625
vt 0.484375 0.765625
vt 0.484375 0.984375
vt 0.265625 0.984375
vt 0.265625 0.765625
vt 0.484375 0.765625
vt 0.484375 0.984375
vt 0.265625 0.765625
vt 0.484375 0.765625
vt 0.484375 0.984375
vt 0.265625 0.765625
vt 0.484375 0.765625
vt 0.484375 0.984375
vt 0.265625 0.984375
vt 0.265625 0.765625
vt 0.484375 0.765625
vt 0.484375 0.984375
vt 0.265625 0.765625
vt 0.484375 0.765625
vt 0.484375 0.984375
vt 0.265625 0.765625
vt 0.484375 0.765625
vt 0.484375 0.984375
vt 0.265625 0.984375
vt 0.265625 0.765625
vt 0.484375 0.765625
vt 0.484375 0.984375
vt 0.265625 0.765625
vt 0.484375 0.765625
vt 0.484375 0.984375
vt 0.265625 0.765625
vt 0.484375 0.765625
vt 0.484375 0.984375
vt 0.265625 0.984375
vt 0.265625 0.765625
vt 0.484375 0.765625
vt 0.484375 0.984375
vt 0.265625 0.765625
vt 0.484375 0.765625
vt 0.484375 0.984375
vt 0.265625 0.765625
vt 0.484375 0.765625
vt 0.484375 0.984375
vt 0.265625 0.984375
vt 0.265625 0.765625
vt 0.484375 0.765625
vt 0.484375 0.984375
vt 0.265625 0.765625
vt 0.484375 0.765625
vt 0.484375 0.984375
vt 0.265625 0.765625
vt 0.484375 0.765625
vt 0.484375 0.984375
vt 0.265625 0.984375
vt 0.265625 0.765625
vt 0.484375 0.765625
vt 0.484375 0.984375
vt 0.265625 0.765625
vt 0.484375 0.765625
vt 0.484375 0.984375
vt 0.265625 0.765625
vt 0.484375 0.765625
vt 0.484375 0.984375
vt 0.265625 0.984375
vt 0.265625 0.765625
vt 0.484375 0.765625
vt 0.484375 0.984375
vt 0.265625 0.765625
vt 0.484375 0.765625
vt 0.484375 0.984375
vt 0.265625 0.765625
vt 0.484375 0.765625
vt 0.484375 0.984375
vt 0.265625 0.984375
vt 0.265625 0.765625
vt 0.484375 0.765625
vt 0.484375 0.984375
vt 0.265625 0.765625
vt 0.484375 0.765625
vt 0.484375 0.984375
vt 0.265625 0.765625
vt 0.484375 0.765625
vt 0.484375 0.984375
vt 0.265625 0.984375
vt 0.265625 0.765625
vt 0.484375 0.765625
vt 0.484375 0.984375
vt 0.265625 0.765625
vt 0.484375 0.765625
vt 0.484375 0.984375
vt 0.265625 0.765625
vt 0.484375 0.765625
vt 0.484375 0.984375
vt 0.265625 0.984375
vt 0.265625 0.765625
vt 0.484375 0.765625
vt 0.484375 0.984375
vt 0.265625 0.765625
vt 0.484375 0.765625
vt 0.484375 0.984375
vt 0.265625 0.765625
vt 0.484375 0.765625
vt 0.484375 0.984375
vt 0.265625 0.984375
vt 0.265625 0.765625
vt 0.484375 0.765625
vt 0.484375 0.984375
vt 0.265625 0.765625
vt 0.484375 0.765625
vt 0.484375 0.984375
vt 0.265625 0.765625
vt 0.484375 0.765625
vt 0.484375 0.984375
vt 0.265625 0.984375
vt 0.265625 0.765625
vt 0.484375 0.765625
vt 0.484375 0.984375
vt 0.265625 0.765625
vt 0.484375 0.765625
vt 0.484375 0.984375
vt 0.265625 0.765625
vt 0.484375 0.765625
vt 0.484375 0.984375
vt 0.265625 0.984375
vt 0.265625 0.765625
vt 0.484375 0.765625
vt 0.484375 0.984375
vt 0.265625 0.765625
vt 0.484375 0.765625
vt 0.484375 0.984375
vt 0.265625 0.765625
vt 0.484375 0.765625
vt 0.484375 0.984375
vt 0.265625 0.984375
vt 0.265625 0.765625
vt 0.484375 0.765625
vt 0.484375 0.984375
vt 0.265625 0.765625
vt 0.484375 0.765625
vt 0.484375 0.984375
vt 0.265625 0.765625
vt 0.484375 0.765625
vt 0.484375 0.984375
vt 0.265625 0.984375
vt 0.265625 0.765625
vt 0.484375 0.765625
vt 0.484375 0.984375
vt 0.265625 0.765625
vt 0.484375 0.765625
vt 0.484375 0.984375
vt 0.265625 0.765625
vt 0.484375 0.765625
vt 0.484375 0.984375
vt 0.265625 0.984375
vt 0.265625 0.765625
vt 0.484375 0.765625
vt 0.484375 0.984375
vt 0.265625 0.765625
vt 0.484375 0.765625
vt 0.484375 0.984375
vt 0.265625 0.765625
vt 0.484375 0.765625
vt 0.484375 0.984375
vt 0.265625 0.984375
vt 0.265625 0.765625
vt 0.484375 0.765625
vt 0.484375 0.984375
vt 0.265625 0.765625
vt 0.484375 0.765625
vt 0.484375 0.984375
vt 0.265625 0.765625
vt 0.484375 0.765625
vt 0.484375 0.984375
vt 0.265625 0.984375
vt 0.265625 0.765625
vt 0.484375 0.765625
vt 0.484375 0.984375
vt 0.265625 0.765625
vt 0.484375 0.765625
vt 0.484375 0.984375
vt 0.265625 0.765625
vt 0.484375 0.765625
vt 0.484375 0.984375
vt 0.265625 0.984375
vt 0.265625 0.765625
vt 0.484375 0.765625
vt 0.484375 0.984375
vt 0.265625 0.765625
vt 0.484375 0.765625
vt 0.484375 0.984375
vt 0.265625 0.765625
vt 0.484375 0.765625
vt 0.484375 0.984375
vt 0.265625 0.984375
vt 0.265625 0.765625
vt 0.484375 0.765625
vt 0.484375 0.984375
vt 0.265625 0.765625
vt 0.484375 0.765625
vt 0.484375 0.984375
vt 0.265625 0.765625
vt 0.484375 0.765625
vt 0.484375 0.984375
vt 0.265625 0.984375
vt 0.265625 0.765625
vt 0.484375 0.765625
vt 0.484375 0.984375
vt 0.265625 0.765625
vt 0.484375 0.765625
vt 0.484375 0.984375
vt 0.265625 0.765625
vt 0.484375 0.765625
vt 0.484375 0.984375
vt 0.265625 0.984375
vt 0.265625 0.765625
vt 0.484375 0.765625
vt 0.484375 0.984375
vt 0.265625 0.765625
vt 0.484375 0.765625
vt 0.484375 0.984375
vt 0.265625 0.765625
vt 0.484375 0.765625
vt 0.484375 0.984375
vt 0.265625 0.984375
vt 0.265625 0.765625
vt 0.484375 0.765625
vt 0.484375 0.984375
vt 0.265625 0.765625
vt 0.484375 0.765625
vt 0.484375 0.984375
vt 0.265625 0.765625
vt 0.484375 0.765625
vt 0.484375 0.984375
vt 0.265625 0.984375
vt 0.265625 0.765625
vt 0.484375 0.765625
vt 0.484375 0.984375
vt 0.265625 0.765625
vt 0.484375 0.765625
vt 0.484375 0.984375
vt 0.265625 0.765625
vt 0.484375 0.765625
vt 0.484375 0.984375
vt 0.265625 0.984375
vt 0.265625 0.765625
vt 0.484375 0.765625
vt 0.484375 0.984375
vt 0.265625 0.765625
vt 0.484375 0.765625
vt 0.484375 0.984375
vt 0.265625 0.765625
vt 0.484375 0.765625
vt 0.484375 0.984375
vt 0.265625 0.984375
vt 0.265625 0.765625
vt 0.484375 0.765625
vt 0.484375 0.984375
vt 0.265625 0.765625
vt 0.484375 0.765625
vt 0.484375 0.984375
vt 0.265625 0.765625
vt 0.484375 0.765625
vt 0.484375 0.984375
vt 0.265625 0.984375
vt 0.265625 0.765625
vt 0.484375 0.765625
vt 0.484375 0.984375
vt 0.265625 0.765625
vt 0.484375 0.765625
vt 0.484375 0.984375
vt 0.265625 0.765625
vt 0.484375 0.765625
vt 0.484375 0.984375
vt 0.265625 0.984375
vt 0.265625 0.765625
vt 0.484375 0.765625
vt 0.484375 0.984375
vt 0.265625 0.765625
vt 0.484375 0.765625
vt 0.484375 0.984375
vt 0.265625 0.765625
vt 0.484375 0.765625
vt 0.484375 0.984375
vt 0.265625 0.984375
vt 0.265625 0.765625
vt 0.484375 0.765625
vt 0.484375 0.984375
vt 0.265625 0.765625
vt 0.484375 0.765625
vt 0.484375 0.984375
vt 0.265625 0.765625
vt 0.484375 0.765625
vt 0.484375 0.984375
vt 0.265625 0.984375
vt 0.265625 0.765625
vt 0.484375 0.765625
vt 0.484375 0.984375
vt 0.265625 0.765625
vt 0.484375 0.765625
vt 0.484375 0.984375
vt 0.265625 0.765625
vt 0.484375 0.765625
vt 0.484375 0.984375
vt 0.265625 0.984375
vt 0.265625 0.765625
vt 0.484375 0.765625
vt 0.484375 0.984375
vt 0.265625 0.765625
vt 0.484375 0.765625
vt 0.484375 0.984375
vt 0.265625 0.765625
vt 0.484375 0.765625
vt 0.484375 0.984375
vt 0.265625 0.984375
vt 0.265625 0.765625
vt 0.484375 0.765625
vt 0.484375 0.984375
vt 0.265625 0.765625
vt 0.484375 0.765625
vt 0.484375 0.984375
vt 0.265625 0.765625
vt 0.484375 0.765625
vt 0.484375 0.984375
vt 0.265625 0.984375
vt 0.265625 0.765625
vt 0.484375 0.765625
vt 0.484375 0.984375
vt 0.265625 0.765625
vt 0.484375 0.765625
vt 0.484375 0.984375
vt 0.265625 0.765625
vt 0.484375 0.765625
vt 0.484375 0.984375
vt 0.265625 0.984375
vt 0.265625 0.765625
vt 0.484375 0.765625
vt 0.484375 0.984375
vt 0.265625 0.765625
vt 0.484375 0.765625
vt 0.484375 0.984375
vt 0.265625 0.765625
vt 0.484375 0.765625
vt 0.484375 0.984375
vt 0.265625 0.984375
vt 0.265625 0.765625
vt 0.484375 0.765625
vt 0.484375 0.984375
vt 0.265625 0.765625
vt 0.484375 0.765625
vt 0.484375 0.984375
vt 0.265625 0.765625
vt 0.484375 0.765625
vt 0.484375 0.984375
vt 0.265625 0.984375
vt 0.265625 0.765625
vt 0.484375 0.765625
vt 0.484375 0.984375
vt 0.265625 0.765625
vt 0.484375 0.765625
vt 0.484375 0.984375
vt 0.265625 0.765625
vt 0.484375 0.765625
vt 0.484375 0.984375
vt 0.265625 0.984375
vt 0.265625 0.765625
vt 0.484375 0.765625
vt 0.484375 0.984375
vt 0.265625 0.765625
vt 0.484375 0.765625
vt 0.484375 0.984375
vt 0.265625 0.765625
vt 0.484375 0.765625
vt 0.484375 0.984375
vt 0.265625 0.984375
vt 0.265625 0.765625
vt 0.484375 0.765625
vt 0.484375 0.984375
vt 0.265625 0.765625
vt 0.484375 0.765625
vt 0.484375 0.984375
vt 0.265625 0.765625
vt 0.484375 0.765625
vt 0.484375 0.984375
vt 0.265625 0.984375
vt 0.265625 0.765625
vt 0.484375 0.765625
vt 0.484375 0.984375
vt 0.265625 0.765625
vt 0.484375 0.765625
vt 0.484375 0.984375
vt 0.265625 0.765625
vt 0.484375 0.765625
vt 0.484375 0.984375
vt 0.265625 0.984375
vt 0.265625 0.765625
vt 0.484375 0.765625
vt 0.484375 0.984375
vt 0.265625 0.765625
vt 0.484375 0.765625
vt 0.484375 0.984375
vt 0.265625 0.765625
vt 0.484375 0.765625
vt 0.484375 0.984375
vt 0.265625 0.984375
vt 0.265625 0.765625
vt 0.484375 0.765625
vt 0.484375 0.984375
vt 0.265625 0.765625
vt 0.484375 0.765625
vt 0.484375 0.984375
vt 0.265625 0.765625
vt 0.484375 0.765625
vt 0.484375 0.984375
vt 0.265625 0.984375
vt 0.265625 0.765625
vt 0.484375 0.765625
vt 0.484375 0.984375
vt 0.265625 0.765625
vt 0.484375 0.765625
vt 0.484375 0.984375
vt 0.265625 0.765625
vt 0.484375 0.765625
vt 0.484375 0.984375
vt 0.265625 0.984375
vt 0.265625 0.765625
vt 0.484375 0.765625
vt 0.484375 0.984375
vt 0.265625 0.765625
vt 0.484375 0.765625
vt 0.484375 0.984375
vt 0.265625 0.765625
vt 0.484375 0.765625
vt 0.484375 0.984375
vt 0.265625 0.984375
vt 0.265625 0.765625
vt 0.484375 0.765625
vt 0.484375 0.984375
vt 0.265625 0.765625
vt 0.484375 0.765625
vt 0.484375 0.984375
vt 0.265625 0.765625
vt 0.484375 0.765625
vt 0.484375 0.984375
vt 0.265625 0.984375
vt 0.265625 0.765625
vt 0.484375 0.765625
vt 0.484375 0.984375
vt 0.265625 0.765625
vt 0.484375 0.765625
vt 0.484375 0.984375
vt 0.265625 0.765625
vt 0.484375 0.765625
vt 0.484375 0.984375
vt 0.265625 0.984375
vt 0.265625 0.765625
vt 0.484375 0.765625
vt 0.484375 0.984375
vt 0.265625 0.765625
vt 0.484375 0.765625
vt 0.484375 0.984375
vt 0.265625 0.765625
vt 0.484375 0.765625
vt 0.484375 0.984375
vt 0.265625 0.984375
vt 0.265625 0.765625
vt 0.484375 0.765625
vt 0.484375 0.984375
vt 0.265625 0.765625
vt 0.484375 0.765625
vt 0.484375 0.984375
vt 0.265625 0.765625
vt 0.484375 0.765625
vt 0.484375 0.984375
vt 0.265625 0.984375
vt 0.265625 0.765625
vt 0.484375 0.765625
vt 0.484375 0.984375
vt 0.265625 0.765625
vt 0.484375 0.765625
vt 0.484375 0.984375
vt 0.265625 0.765625
vt 0.484375 0.765625
vt 0.484375 0.984375
vt 0.265625 0.984375
vt 0.265625 0.765625
vt 0.484375 0.765625
vt 0.484375 0.984375
vt 0.265625 0.765625
vt 0.484375 0.765625
vt 0.484375 0.984375
vt 0.265625 0.765625
vt 0.484375 0.765625
vt 0.484375 0.984375
vt 0.265625 0.984375
vt 0.265625 0.765625
vt 0.484375 0.765625
vt 0.484375 0.984375
vt 0.265625 0.765625
vt 0.484375 0.765625
vt 0.484375 0.984375
vt 0.265625 0.765625
vt 0.484375 0.765625
vt 0.484375 0.984375
vt 0.265625 0.984375
vt 0.265625 0.765625
vt 0.484375 0.765625
vt 0.484375 0.984375
vt 0.265625 0.765625
vt 0.484375 0.765625
vt 0.484375 0.984375
vt 0.265625 0.765625
vt 0.484375 0.765625
vt 0.484375 0.984375
vt 0.265625 0.984375
vt 0.265625 0.765625
vt 0.484375 0.765625
vt 0.484375 0.984375
vt 0.265625 0.765625
vt 0.484375 0.765625
vt 0.484375 0.984375
vt 0.265625 0.765625
vt 0.484375 0.765625
vt 0.484375 0.984375
vt 0.265625 0.984375
vt 0.265625 0.765625
vt 0.484375 0.765625
vt 0.484375 0.984375
vt 0.265625 0.765625
vt 0.484375 0.765625
vt 0.484375 0.984375
vt 0.265625 0.765625
vt 0.484375 0.765625
vt 0.484375 0.984375
vt 0.265625 0.984375
vt 0.265625 0.765625
vt 0.484375 0.765625
vt 0.484375 0.984375
vt 0.265625 0.765625
vt 0.484375 0.765625
vt 0.484375 0.984375
vt 0.265625 0.765625
vt 0.484375 0.765625
vt 0.484375 0.984375
vt 0.265625 0.984375
vt 0.265625 0.765625
vt 0.484375 0.765625
vt 0.484375 0.984375
vt 0.265625 0.765625
vt 0.484375 0.765625
vt 0.484375 0.984375
vt 0.265625 0.765625
vt 0.484375 0.765625
vt 0.484375 0.984375
vt 0.265625 0.984375
vt 0.265625 0.765625
vt 0.484375 0.765625
vt 0.484375 0.984375
vt 0.265625 0.765625
vt 0.484375 0.765625
vt 0.484375 0.984375
vt 0.265625 0.765625
vt 0.484375 0.765625
vt 0.484375 0.984375
vt 0.265625 0.984375
vt 0.265625 0.765625
vt 0.484375 0.765625
vt 0.484375 0.984375
vt 0.265625 0.765625
vt 0.484375 0.765625
vt 0.484375 0.984375
vt 0.265625 0.765625
vt 0.484375 0.765625
vt 0.484375 0.984375
vt 0.265625 0.984375
vt 0.265625 0.765625
vt 0.484375 0.765625
vt 0.484375 0.984375
vt 0.265625 0.765625
vt 0.484375 0.765625
vt 0.484375 0.984375
vt 0.265625 0.765625
vt 0.484375 0.765625
vt 0.484375 0.984375
vt 0.265625 0.984375
vt 0.265625 0.765625
vt 0.484375 0.765625
vt 0.484375 0.984375
vt 0.265625 0.765625
vt 0.484375 0.765625
vt 0.484375 0.984375
vt 0.265625 0.765625
vt 0.484375 0.765625
vt 0.484375 0.984375
vt 0.265625 0.984375
vt 0.265625 0.765625
vt 0.484375 0.765625
vt 0.484375 0.984375
vt 0.265625 0.765625
vt 0.484375 0.765625
vt 0.484375 0.984375
vt 0.265625 0.765625
vt 0.484375 0.765625
vt 0.484375 0.984375
vt 0.265625 0.984375
vt 0.265625 0.765625
vt 0.484375 0.765625
vt 0.484375 0.984375
vt 0.265625 0.765625
vt 0.484375 0.765625
vt 0.484375 0.984375
vt 0.265625 0.765625
vt 0.484375 0.765625
vt 0.484375 0.984375
vt 0.265625 0.984375
vt 0.265625 0.765625
vt 0.484375 0.765625
vt 0.484375 0.984375
vt 0.265625 0.765625
vt 0.484375 0.765625
vt 0.484375 0.984375
vt 0.265625 0.765625
vt 0.484375 0.765625
vt 0.484375 0.984375
vt 0.265625 0.984375
vt 0.265625 0.765625
vt 0.484375 0.765625
vt 0.484375 0.984375
vt 0.265625 0.765625
vt 0.484375 0.765625
vt 0.484375 0.984375
vt 0.265625 0.765625
vt 0.484375 0.765625
vt 0.484375 0.984375
vt 0.265625 0.984375
vt 0.265625 0.765625
vt 0.484375 0.765625
vt 0.484375 0.984375
vt 0.265625 0.765625
vt 0.484375 0.765625
vt 0.484375 0.984375
vt 0.265625 0.765625
vt 0.484375 0.765625
vt 0.484375 0.984375
vt 0.265625 0.984375
vt 0.265625 0.765625
vt 0.484375 0.765625
vt 0.484375 0.984375
vt 0.265625 0.765625
vt 0.484375 0.765625
vt 0.484375 0.984375
vt 0.265625 0.765625
vt 0.484375 0.765625
vt 0.484375 0.984375
vt 0.265625 0.984375
vt 0.265625 0.765625
vt 0.484375 0.765625
vt 0.484375 0.984375
vt 0.265625 0.765625
vt 0.484375 0.765625
vt 0.484375 0.984375
vt 0.265625 0.765625
vt 0.484375 0.765625
vt 0.484375 0.984375
vt 0.265625 0.984375
vt 0.265625 0.765625
vt 0.484375 0.765625
vt 0.484375 0.984375
vt 0.265625 0.765625
vt 0.484375 0.765625
vt 0.484375 0.984375
vt 0.265625 0.765625
vt 0.484375 0.765625
vt 0.484375 0.984375
vt 0.265625 0.984375
vt 0.265625 0.765625
vt 0.484375 0.765625
vt 0.484375 0.984375
vt 0.265625 0.765625
vt 0.484375 0.765625
vt 0.484375 0.984375
vt 0.265625 0.765625
vt 0.484375 0.765625
vt 0.484375 0.984375
vt 0.265625 0.984375
vt 0.265625 0.765625
vt 0.484375 0.765625
vt 0.484375 0.984375
vt 0.265625 0.765625
vt 0.484375 0.765625
vt 0.484375 0.984375
vt 0.265625 0.765625
vt 0.484375 0.765625
vt 0.484375 0.984375
vt 0.265625 0.984375
vt 0.265625 0.765625
vt 0.484375 0.765625
vt 0.484375 0.984375
vt 0.265625 0.765625
vt 0.484375 0.765625
vt 0.484375 0.984375
vt 0.265625 0.765625
vt 0.484375 0.765625
vt 0.484375 0.984375
vt 0.265625 0.984375
vt 0.265625 0.765625
vt 0.484375 0.765625
vt 0.484375 0.984375
vt 0.265625 0.765625
vt 0.484375 0.765625
vt 0.484375 0.984375
vt 0.265625 0.765625
vt 0.484375 0.765625
vt 0.484375 0.984375
vt 0.265625 0.984375
vt 0.265625 0.765625
vt 0.484375 0.765625
vt 0.484375 0.984375
vt 0.265625 0.765625
vt 0.484375 0.765625
vt 0.484375 0.984375
vt 0.265625 0.765625
vt 0.484375 0.765625
vt 0.484375 0.984375
vt 0.265625 0.984375
vt 0.265625 0.765625
vt 0.484375 0.765625
vt 0.484375 0.984375
vt 0.265625 0.765625
vt 0.484375 0.765625
vt 0.484375 0.984375
vt 0.265625 0.765625
vt 0.484375 0.765625
vt 0.484375 0.984375
vt 0.265625 0.984375
vt 0.265625 0.765625
vt 0.484375 0.765625
vt 0.484375 0.984375
vt 0.265625 0.765625
vt 0.484375 0.765625
vt 0.484375 0.984375
vt 0.265625 0.765625
vt 0.484375 0.765625
vt 0.484375 0.984375
vt 0.265625 0.984375
vt 0.265625 0.765625
vt 0.484375 0.765625
vt 0.484375 0.984375
vt 0.265625 0.765625
vt 0.484375 0.765625
vt 0.484375 0.984375
vt 0.265625 0.765625
vt 0.484375 0.765625
vt 0.484375 0.984375
vt 0.265625 0.984375
vt 0.265625 0.765625
vt 0.484375 0.765625
vt 0.484375 0.984375
vt 0.265625 0.765625
vt 0.484375 0.765625
vt 0.484375 0.984375
vt 0.265625 0.765625
vt 0.484375 0.765625
vt 0.484375 0.984375
vt 0.265625 0.984375
vt 0.265625 0.765625
vt 0.484375 0.765625
vt 0.484375 0.984375
vt 0.265625 0.765625
vt 0.484375 0.765625
vt 0.484375 0.984375
vt 0.265625 0.765625
vt 0.484375 0.765625
vt 0.484375 0.984375
vt 0.265625 0.984375
vt 0.265625 0.765625
vt 0.484375 0.765625
vt 0.484375 0.984375
vt 0.265625 0.765625
vt 0.484375 0.765625
vt 0.484375 0.984375
vt 0.265625 0.765625
vt 0.484375 0.765625
vt 0.484375 0.984375
vt 0.265625 0.984375
vt 0.265625 0.765625
vt 0.484375 0.765625
vt 0.484375 0.984375
vt 0.265625 0.765625
vt 0.484375 0.765625
vt 0.484375 0.984375
vt 0.265625 0.765625
vt 0.484375 0.765625
vt 0.484375 0.984375
vt 0.265625 0.984375
vt 0.265625 0.765625
vt 0.484375 0.765625
vt 0.484375 0.984375
vt 0.265625 0.765625
vt 0.484375 0.765625
vt 0.484375 0.984375
vt 0.265625 0.765625
vt 0.484375 0.765625
vt 0.484375 0.984375
vt 0.265625 0.984375
vt 0.265625 0.765625
vt 0.484375 0.765625
vt 0.484375 0.984375
vt 0.265625 0.765625
vt 0.484375 0.765625
vt 0.484375 0.984375
vt 0.265625 0.765625
vt 0.484375 0.765625
vt 0.484375 0.984375
vt 0.265625 0.984375
vt 0.265625 0.765625
vt 0.484375 0.765625
vt 0.484375 0.984375
vt 0.265625 0.765625
vt 0.484375 0.765625
vt 0.484375 0.984375
vt 0.265625 0.765625
vt 0.484375 0.765625
vt 0.484375 0.984375
vt 0.265625 0.984375
vt 0.265625 0.765625
vt 0.484375 0.765625
vt 0.484375 0.984375
vt 0.265625 0.765625
vt 0.484375 0.765625
vt 0.484375 0.984375
vt 0.265625 0.765625
vt 0.484375 0.765625
vt 0.484375 0.984375
vt 0.265625 0.984375
vt 0.265625 0.765625
vt 0.484375 0.765625
vt 0.484375 0.984375
vt 0.265625 0.765625
vt 0.484375 0.765625
vt 0.484375 0.984375
vt 0.265625 0.765625
vt 0.484375 0.765625
vt 0.484375 0.984375
vt 0.265625 0.984375
vt 0.265625 0.765625
vt 0.484375 0.765625
vt 0.484375 0.984375
vt 0.265625 0.765625
vt 0.484375 0.765625
vt 0.484375 0.984375
vt 0.265625 0.765625
vt 0.484375 0.765625
vt 0.484375 0.984375
vt 0.265625 0.984375
vt 0.265625 0.765625
vt 0.484375 0.765625
vt 0.484375 0.984375
vt 0.265625 0.765625
vt 0.484375 0.765625
vt 0.484375 0.984375
vt 0.265625 0.765625
vt 0.484375 0.765625
vt 0.484375 0.984375
vt 0.265625 0.984375
vt 0.265625 0.765625
vt 0.484375 0.765625
vt 0.484375 0.984375
vt 0.265625 0.765625
vt 0.484375 0.765625
vt 0.484375 0.984375
vt 0.265625 0.765625
vt 0.484375 0.765625
vt 0.484375 0.984375
vt 0.265625 0.984375
vt 0.265625 0.765625
vt 0.484375 0.765625
vt 0.484375 0.984375
vt 0.265625 0.765625
vt 0.484375 0.765625
vt 0.484375 0.984375
vt 0.265625 0.765625
vt 0.484375 0.765625
vt 0.484375 0.984375
vt 0.265625 0.984375
vt 0.265625 0.765625
vt 0.484375 0.765625
vt 0.484375 0.984375
vt 0.265625 0.765625
vt 0.484375 0.765625
vt 0.484375 0.984375
vt 0.265625 0.765625
vt 0.484375 0.765625
vt 0.484375 0.984375
vt 0.265625 0.984375
vt 0.265625 0.765625
vt 0.484375 0.765625
vt 0.484375 0.984375
vt 0.265625 0.765625
vt 0.484375 0.765625
vt 0.484375 0.984375
vt 0.265625 0.765625
vt 0.484375 0.765625
vt 0.484375 0.984375
vt 0.265625 0.984375
vt 0.265625 0.765625
vt 0.484375 0.765625
vt 0.484375 0.984375
vt 0.265625 0.765625
vt 0.484375 0.765625
vt 0.484375 0.984375
vt 0.265625 0.765625
vt 0.484375 0.765625
vt 0.484375 0.984375
vt 0.265625 0.984375
vt 0.265625 0.765625
vt 0.484375 0.765625
vt 0.484375 0.984375
vt 0.265625 0.765625
vt 0.484375 0.765625
vt 0.484375 0.984375
vt 0.265625 0.765625
vt 0.484375 0.765625
vt 0.484375 0.984375
vt 0.265625 0.984375
vt 0.265625 0.765625
vt 0.484375 0.765625
vt 0.484375 0.984375
vt 0.265625 0.765625
vt 0.484375 0.765625
vt 0.484375 0.984375
vt 0.265625 0.765625
vt 0.484375 0.765625
vt 0.484375 0.984375
vt 0.265625 0.984375
vt 0.265625 0.765625
vt 0.484375 0.765625
vt 0.484375 0.984375
vt 0.265625 0.765625
vt 0.484375 0.765625
vt 0.484375 0.984375
vt 0.265625 0.765625
vt 0.484375 0.765625
vt 0.484375 0.984375
vt 0.265625 0.984375
vt 0.265625 0.765625
vt 0.484375 0.765625
vt 0.484375 0.984375
vt 0.265625 0.765625
vt 0.484375 0.765625
vt 0.484375 0.984375
vt 0.265625 0.765625
vt 0.484375 0.765625
vt 0.484375 0.984375
vt 0.265625 0.984375
vt 0.265625 0.765625
vt 0.484375 0.765625
vt 0.484375 0.984375
vt 0.265625 0.765625
vt 0.484375 0.765625
vt 0.484375 0.984375
vt 0.265625 0.765625
vt 0.484375 0.765625
vt 0.484375 0.984375
vt 0.265625 0.984375
vt 0.265625 0.765625
vt 0.484375 0.765625
vt 0.484375 0.984375
vt 0.265625 0.765625
vt 0.484375 0.765625
vt 0.484375 0.984375
vt 0.265625 0.765625
vt 0.484375 0.765625
vt 0.484375 0.984375
vt 0.265625 0.984375
vt 0.265625 0.765625
vt 0.484375 0.765625
vt 0.484375 0.984375
vt 0.265625 0.765625
vt 0.484375 0.765625
vt 0.484375 0.984375
vt 0.265625 0.765625
vt 0.484375 0.765625
vt 0.484375 0.984375
vt 0.265625 0.984375
vt 0.265625 0.765625
vt 0.484375 0.765625
vt 0.484375 0.984375
vt 0.265625 0.765625
vt 0.484375 0.765625
vt 0.484375 0.984375
vn 0.00000000 0.00000000 -1.00000000
vn 0.00000000 0.00000000 1.00000000
vn -1.00000000 0.00000000 0.00000000
vn 1.00000000 0.00000000 0.00000000
vn 0.00000000 -1.00000000 0.00000000
vn 0.00000000 1.00000000 0.00000000
vn 0.00000000 0.00000000 -1.00000000
vn 0.00000000 0.00000000 1.00000000
vn -1.00000000 0.00000000 0.00000000
vn 1.00000000 0.00000000 0.00000000
vn 0.00000000 -1.00000000 0.00000000
vn 0.00000000 1.00000000 0.00000000
vn 0.00000000 0.00000000 -1.00000000
vn 0.00000000 0.00000000 1.00000000
vn -1.00000000 0.00000000 0.00000000
vn 1.00000000 0.00000000 0.00000000
vn 0.00000000 -1.00000000 0.00000000
vn 0.00000000 1.00000000 0.00000000
vn 0.00000000 0.00000000 -1.00000000
vn 0.00000000 0.00000000 1.00000000
vn -1.00000000 0.00000000 0.00000000
vn 1.00000000 0.00000000 0.00000000
vn 0.00000000 -1.00000000 0.00000000
vn 0.00000000 1.00000000 0.00000000
vn 0.00000000 0.00000000 -1.00000000
vn 0.00000000 0.00000000 1.00000000
vn -1.00000000 0.00000000 0.00000000
vn 1.00000000 0.00000000 0.00000000
vn 0.00000000 -1.00000000 0.00000000
vn 0.00000000 1.00000000 0.00000000
vn 0.00000000 0.00000000 -1.00000000
vn 0.00000000 0.00000000 1.00000000
vn -1.00000000 0.00000000 0.00000000
vn 1.00000000 0.00000000 0.00000000
vn 0.00000000 -1.00000000 0.00000000
vn 0.00000000 1.00000000 0.00000000
vn 0.00000000 0.00000000 -1.00000000
vn 0.00000000 0.00000000 1.00000000
vn -1.00000000 0.00000000 0.00000000
vn 1.00000000 0.00000000 0.00000000
vn 0.00000000 -1.00000000 0.00000000
vn 0.00000000 1.00000000 0.00000000
vn 0.00000000 0.00000000 -1.00000000
vn 0.00000000 0.00000000 1.00000000
vn -1.00000000 0.00000000 0.00000000
vn 1.00000000 0.00000000 0.00000000
vn 0.00000000 -1.00000000 0.00000000
vn 0.00000000 1.00000000 0.00000000
vn 0.00000000 0.00000000 -1.00000000
vn 0.00000000 0.00000000 1.00000000
vn -1.00000000 0.00000000 0.00000000
vn 1.00000000 0.00000000 0.00000000
vn 0.00000000 -1.00000000 0.00000000
vn 0.00000000 1.00000000 0.00000000
vn 0.00000000 0.00000000 -1.00000000
vn 0.00000000 0.00000000 1.00000000
vn -1.00000000 0.00000000 0.00000000
vn 1.00000000 0.00000000 0.00000000
vn 0.00000000 -1.00000000 0.00000000
vn 0.00000000 1.00000000 0.00000000
vn 0.00000000 0.00000000 -1.00000000
vn 0.00000000 0.00000000 1.00000000
vn -1.00000000 0.00000000 0.00000000
vn 1.00000000 0.00000000 0.00000000
vn 0.00000000 -1.00000000 0.00000000
vn 0.00000000 1.00000000 0.00000000
vn 0.00000000 0.00000000 -1.00000000
vn 0.00000000 0.00000000 1.00000000
vn -1.00000000 0.00000000 0.00000000
vn 1.00000000 0.00000000 0.00000000
vn 0.00000000 -1.00000000 0.00000000
vn 0.00000000 1.00000000 0.00000000
vn 0.00000000 0.00000000 -1.00000000
vn 0.00000000 0.00000000 1.00000000
vn 1.00000000 0.00000000 0.00000000
vn -1.00000000 0.00000000 0.00000000
vn -0.00000000 1.00000000 0.00000000
vn 0.00000000 -0.99244660 -0.12267743
vn 0.00000000 0.00000000 -1.00000000
vn 0.00000000 0.00000000 1.00000000
vn -1.00000000 0.00000000 0.00000000
vn 1.00000000 0.00000000 0.00000000
vn 0.00000000 -1.00000000 0.00000000
vn 0.00000000 1.00000000 0.00000000
vn 0.00000000 0.00000000 -1.00000000
vn 0.00000000 0.00000000 1.00000000
vn -1.00000000 0.00000000 0.00000000
vn 1.00000000 0.00000000 0.00000000
vn 0.00000000 -1.00000000 0.00000000
vn 0.00000000 1.00000000 0.00000000
vn -0.86601747 0.00000000 -0.50001374
vn -0.00000000 -1.00000000 -0.00000000
vn 0.00000000 1.00000000 0.00000000
vn 0.00000000 0.00000000 1.00000000
vn 0.00000000 -1.00000000 0.00000000
vn 0.00000000 1.00000000 -0.00000000
vn 0.86601747 0.00000000 -0.50001374
vn 0.00000000 -1.00000000 0.00000000
vn -0.00000000 1.00000000 0.00000000
vn -0.86601747 0.00000000 -0.50001374
vn -0.00000000 -1.00000000 -0.00000000
vn 0.00000000 1.00000000 0.00000000
vn 0.00000000 0.00000000 1.00000000
vn 0.00000000 -1.00000000 0.00000000
vn 0.00000000 1.00000000 -0.00000000
vn 0.86601747 0.00000000 -0.50001374
vn 0.00000000 -1.00000000 0.00000000
vn -0.00000000 1.00000000 0.00000000
vn -0.86601747 0.00000000 -0.50001374
vn -0.00000000 -1.00000000 -0.00000000
vn 0.00000000 1.00000000 0.00000000
vn 0.00000000 0.00000000 1.00000000
vn 0.00000000 -1.00000000 0.00000000
vn 0.00000000 1.00000000 -0.00000000
vn 0.86601747 0.00000000 -0.50001374
vn 0.00000000 -1.00000000 0.00000000
vn -0.00000000 1.00000000 0.00000000
vn -0.86601747 0.00000000 -0.50001374
vn -0.00000000 -1.00000000 -0.00000000
vn 0.00000000 1.00000000 0.00000000
vn 0.00000000 0.00000000 1.00000000
vn 0.00000000 -1.00000000 0.00000000
vn 0.00000000 1.00000000 -0.00000000
vn 0.86601747 0.00000000 -0.50001374
vn 0.00000000 -1.00000000 0.00000000
vn -0.00000000 1.00000000 0.00000000
vn -0.86601747 0.00000000 -0.50001374
vn -0.00000000 -1.00000000 -0.00000000
vn 0.00000000 1.00000000 0.00000000
vn 0.00000000 0.00000000 1.00000000
vn 0.00000000 -1.00000000 0.00000000
vn 0.00000000 1.00000000 -0.00000000
vn 0.86601747 0.00000000 -0.50001374
vn 0.00000000 -1.00000000 0.00000000
vn -0.00000000 1.00000000 0.00000000
vn 0.49999453 -0.78975007 -0.35538753
vn 0.00000000 -0.41041955 0.91189681
vn 0.00000000 0.41041955 -0.91189681
vn -1.00000000 0.00000000 0.00000000
vn 0.00000000 -0.41041955 0.91189681
vn 0.00000000 0.41041955 -0.91189681
vn 0.49999453 0.78975007 0.35538753
vn 0.00000000 -0.41041955 0.91189681
vn 0.00000000 0.41041955 -0.91189681
vn 0.49999453 -0.78975007 -0.35538753
vn 0.00000000 -0.41041955 0.91189681
vn 0.00000000 0.41041955 -0.91189681
vn -1.00000000 0.00000000 0.00000000
vn 0.00000000 -0.41041955 0.91189681
vn 0.00000000 0.41041955 -0.91189681
vn 0.49999453 0.78975007 0.35538753
vn 0.00000000 -0.41041955 0.91189681
vn 0.00000000 0.41041955 -0.91189681
vn -0.86601747 0.00000000 -0.50001374
vn -0.00000000 -1.00000000 -0.00000000
vn 0.00000000 1.00000000 0.00000000
vn 0.00000000 0.00000000 1.00000000
vn 0.00000000 -1.00000000 0.00000000
vn 0.00000000 1.00000000 -0.00000000
vn 0.86601747 0.00000000 -0.50001374
vn 0.00000000 -1.00000000 0.00000000
vn -0.00000000 1.00000000 0.00000000
vn -0.86601747 0.00000000 -0.50001374
vn -0.00000000 -1.00000000 -0.00000000
vn 0.00000000 1.00000000 0.00000000
vn 0.00000000 0.00000000 1.00000000
vn 0.00000000 -1.00000000 0.00000000
vn 0.00000000 1.00000000 -0.00000000
vn 0.86601747 0.00000000 -0.50001374
vn 0.00000000 -1.00000000 0.00000000
vn -0.00000000 1.00000000 0.00000000
vn -0.86601747 0.00000000 -0.50001374
vn -0.00000000 -1.00000000 -0.00000000
vn 0.00000000 1.00000000 0.00000000
vn 0.00000000 0.00000000 1.00000000
vn 0.00000000 -1.00000000 0.00000000
vn 0.00000000 1.00000000 -0.00000000
vn 0.86601747 0.00000000 -0.50001374
vn 0.00000000 -1.00000000 0.00000000
vn -0.00000000 1.00000000 0.00000000
vn -0.86601747 0.00000000 -0.50001374
vn -0.00000000 -1.00000000 -0.00000000
vn 0.00000000 1.00000000 0.00000000
vn 0.00000000 0.00000000 1.00000000
vn 0.00000000 -1.00000000 0.00000000
vn 0.00000000 1.00000000 -0.00000000
vn 0.86601747 0.00000000 -0.50001374
vn 0.00000000 -1.00000000 0.00000000
vn -0.00000000 1.00000000 0.00000000
vn -0.86601747 0.00000000 -0.50001374
vn -0.00000000 -1.00000000 -0.00000000
vn 0.00000000 1.00000000 0.00000000
vn 0.00000000 0.00000000 1.00000000
vn 0.00000000 -1.00000000 0.00000000
vn 0.00000000 1.00000000 -0.00000000
vn 0.86601747 0.00000000 -0.50001374
vn 0.00000000 -1.00000000 0.00000000
vn -0.00000000 1.00000000 0.00000000
vn 0.49999453 -0.78975007 -0.35538753
vn 0.00000000 -0.41041955 0.91189681
vn 0.00000000 0.41041955 -0.91189681
vn -1.00000000 0.00000000 0.00000000
vn 0.00000000 -0.41041955 0.91189681
vn 0.00000000 0.41041955 -0.91189681
vn 0.49999453 0.78975007 0.35538753
vn 0.00000000 -0.41041955 0.91189681
vn 0.00000000 0.41041955 -0.91189681
vn 0.49999453 -0.78975007 -0.35538753
vn 0.00000000 -0.41041955 0.91189681
vn 0.00000000 0.41041955 -0.91189681
vn -1.00000000 0.00000000 0.00000000
vn 0.00000000 -0.41041955 0.91189681
vn 0.00000000 0.41041955 -0.91189681
vn 0.49999453 0.78975007 0.35538753
vn 0.00000000 -0.41041955 0.91189681
vn 0.00000000 0.41041955 -0.91189681
vn -0.86601747 0.00000000 -0.50001374
vn -0.00000000 -1.00000000 -0.00000000
vn 0.00000000 1.00000000 0.00000000
vn 0.00000000 0.00000000 1.00000000
vn 0.00000000 -1.00000000 0.00000000
vn 0.00000000 1.00000000 -0.00000000
vn 0.86601747 0.00000000 -0.50001374
vn 0.00000000 -1.00000000 0.00000000
vn -0.00000000 1.00000000 0.00000000
vn -0.86601747 0.00000000 -0.50001374
vn -0.00000000 -1.00000000 -0.00000000
vn 0.00000000 1.00000000 0.00000000
vn 0.00000000 0.00000000 1.00000000
vn 0.00000000 -1.00000000 0.00000000
vn 0.00000000 1.00000000 -0.00000000
vn 0.86601747 0.00000000 -0.50001374
vn 0.00000000 -1.00000000 0.00000000
vn -0.00000000 1.00000000 0.00000000
vn -0.86601747 0.00000000 -0.50001374
vn -0.00000000 -1.00000000 -0.00000000
vn 0.00000000 1.00000000 0.00000000
vn 0.00000000 0.00000000 1.00000000
vn 0.00000000 -1.00000000 0.00000000
vn 0.00000000 1.00000000 -0.00000000
vn 0.86601747 0.00000000 -0.50001374
vn 0.00000000 -1.00000000 0.00000000
vn -0.00000000 1.00000000 0.00000000
vn -0.86601747 0.00000000 -0.50001374
vn -0.00000000 -1.00000000 -0.00000000
vn 0.00000000 1.00000000 0.00000000
vn 0.00000000 0.00000000 1.00000000
vn 0.00000000 -1.00000000 0.00000000
vn 0.00000000 1.00000000 -0.00000000
vn 0.86601747 0.00000000 -0.50001374
vn 0.00000000 -1.00000000 0.00000000
vn -0.00000000 1.00000000 0.00000000
vn -0.86601747 0.00000000 -0.50001374
vn -0.00000000 -1.00000000 -0.00000000
vn 0.00000000 1.00000000 0.00000000
vn 0.00000000 0.00000000 1.00000000
vn 0.00000000 -1.00000000 0.00000000
vn 0.00000000 1.00000000 -0.00000000
vn 0.86601747 0.00000000 -0.50001374
vn 0.00000000 -1.00000000 0.00000000
vn -0.00000000 1.00000000 0.00000000
vn 0.50001374 -0.86601747 0.00000000
vn -0.00000000 0.00000000 1.00000000
vn 0.00000000 -0.00000000 -1.00000000
vn -1.00000000 0.00000000 0.00000000
vn 0.00000000 0.00000000 1.00000000
vn -0.00000000 0.00000000 -1.00000000
vn 0.50001374 0.86601747 0.00000000
vn 0.00000000 -0.00000000 1.00000000
vn 0.00000000 0.00000000 -1.00000000
vn 0.50001374 -0.86601747 0.00000000
vn -0.00000000 0.00000000 1.00000000
vn 0.00000000 -0.00000000 -1.00000000
vn -1.00000000 0.00000000 0.00000000
vn 0.00000000 0.00000000 1.00000000
vn -0.00000000 0.00000000 -1.00000000
vn 0.50001374 0.86601747 0.00000000
vn 0.00000000 -0.00000000 1.00000000
vn 0.00000000 0.00000000 -1.00000000
vn -0.86601747 0.00000000 -0.50001374
vn -0.00000000 -1.00000000 -0.00000000
vn 0.00000000 1.00000000 0.00000000
vn 0.00000000 0.00000000 1.00000000
vn 0.00000000 -1.00000000 0.00000000
vn 0.00000000 1.00000000 -0.00000000
vn 0.86601747 0.00000000 -0.50001374
vn 0.00000000 -1.00000000 0.00000000
vn -0.00000000 1.00000000 0.00000000
vn -0.86601747 0.00000000 -0.50001374
vn -0.00000000 -1.00000000 -0.00000000
vn 0.00000000 1.00000000 0.00000000
vn 0.00000000 0.00000000 1.00000000
vn 0.00000000 -1.00000000 0.00000000
vn 0.00000000 1.00000000 -0.00000000
vn 0.86601747 0.00000000 -0.50001374
vn 0.00000000 -1.00000000 0.00000000
vn -0.00000000 1.00000000 0.00000000
vn -0.86601747 0.00000000 -0.50001374
vn -0.00000000 -1.00000000 -0.00000000
vn 0.00000000 1.00000000 0.00000000
vn 0.00000000 0.00000000 1.00000000
vn 0.00000000 -1.00000000 0.00000000
vn 0.00000000 1.00000000 -0.00000000
vn 0.86601747 0.00000000 -0.50001374
vn 0.00000000 -1.00000000 0.00000000
vn -0.00000000 1.00000000 0.00000000
vn -0.86601747 0.00000000 -0.50001374
vn -0.00000000 -1.00000000 -0.00000000
vn 0.00000000 1.00000000 0.00000000
vn 0.00000000 0.00000000 1.00000000
vn 0.00000000 -1.00000000 0.00000000
vn 0.00000000 1.00000000 -0.00000000
vn 0.86601747 0.00000000 -0.50001374
vn 0.00000000 -1.00000000 0.00000000
vn -0.00000000 1.00000000 0.00000000
vn -0.86601747 0.00000000 -0.50001374
vn -0.00000000 -1.00000000 -0.00000000
vn 0.00000000 1.00000000 0.00000000
vn 0.00000000 0.00000000 1.00000000
vn 0.00000000 -1.00000000 0.00000000
vn 0.00000000 1.00000000 -0.00000000
vn 0.86601747 0.00000000 -0.50001374
vn 0.00000000 -1.00000000 0.00000000
vn -0.00000000 1.00000000 0.00000000
vn 0.50001374 -0.86601747 0.00000000
vn -0.00000000 0.00000000 1.00000000
vn 0.00000000 -0.00000000 -1.00000000
vn -1.00000000 0.00000000 0.00000000
vn 0.00000000 0.00000000 1.00000000
vn -0.00000000 0.00000000 -1.00000000
vn 0.50001374 0.86601747 0.00000000
vn 0.00000000 -0.00000000 1.00000000
vn 0.00000000 0.00000000 -1.00000000
vn 0.50001374 -0.86601747 0.00000000
vn -0.00000000 0.00000000 1.00000000
vn 0.00000000 -0.00000000 -1.00000000
vn -1.00000000 0.00000000 0.00000000
vn 0.00000000 0.00000000 1.00000000
vn -0.00000000 0.00000000 -1.00000000
vn 0.50001374 0.86601747 0.00000000
vn 0.00000000 -0.00000000 1.00000000
vn 0.00000000 0.00000000 -1.00000000
vn -0.86601747 0.00000000 -0.50001374
vn -0.00000000 -1.00000000 -0.00000000
vn 0.00000000 1.00000000 0.00000000
vn 0.00000000 0.00000000 1.00000000
vn 0.00000000 -1.00000000 0.00000000
vn 0.00000000 1.00000000 -0.00000000
vn 0.86601747 0.00000000 -0.50001374
vn 0.00000000 -1.00000000 0.00000000
vn -0.00000000 1.00000000 0.00000000
vn -0.86601747 0.00000000 -0.50001374
vn -0.00000000 -1.00000000 -0.00000000
vn 0.00000000 1.00000000 0.00000000
vn 0.00000000 0.00000000 1.00000000
vn 0.00000000 -1.00000000 0.00000000
vn 0.00000000 1.00000000 -0.00000000
vn 0.86601747 0.00000000 -0.50001374
vn 0.00000000 -1.00000000 0.00000000
vn -0.00000000 1.00000000 0.00000000
vn -0.86601747 0.00000000 -0.50001374
vn -0.00000000 -1.00000000 -0.00000000
vn 0.00000000 1.00000000 0.00000000
vn 0.00000000 0.00000000 1.00000000
vn 0.00000000 -1.00000000 0.00000000
vn 0.00000000 1.00000000 -0.00000000
vn 0.86601747 0.00000000 -0.50001374
vn 0.00000000 -1.00000000 0.00000000
vn -0.00000000 1.00000000 0.00000000
vn -0.86601747 0.00000000 -0.50001374
vn -0.00000000 -1.00000000 -0.00000000
vn 0.00000000 1.00000000 0.00000000
vn 0.00000000 0.00000000 1.00000000
vn 0.00000000 -1.00000000 0.00000000
vn 0.00000000 1.00000000 -0.00000000
vn 0.86601747 0.00000000 -0.50001374
vn 0.00000000 -1.00000000 0.00000000
vn -0.00000000 1.00000000 0.00000000
vn -0.86601747 0.00000000 -0.50001374
vn -0.00000000 -1.00000000 -0.00000000
vn 0.00000000 1.00000000 0.00000000
vn 0.00000000 0.00000000 1.00000000
vn 0.00000000 -1.00000000 0.00000000
vn 0.00000000 1.00000000 -0.00000000
vn 0.86601747 0.00000000 -0.50001374
vn 0.00000000 -1.00000000 0.00000000
vn -0.00000000 1.00000000 0.00000000
vn 0.49997853 -0.85949627 -0.10624329
vn 0.00000000 -0.12273520 0.99243945
vn 0.00000000 0.12273520 -0.99243945
vn -1.00000000 0.00000000 0.00000000
vn -0.00000000 -0.12273520 0.99243945
vn -0.00000000 0.12273520 -0.99243945
vn 0.49997853 0.85949627 0.10624329
vn 0.00000000 -0.12273520 0.99243945
vn 0.00000000 0.12273520 -0.99243945
vn 0.49997853 -0.85949627 -0.10624329
vn 0.00000000 -0.12273520 0.99243945
vn 0.00000000 0.12273520 -0.99243945
vn -1.00000000 0.00000000 0.00000000
vn -0.00000000 -0.12273520 0.99243945
vn -0.00000000 0.12273520 -0.99243945
vn 0.49997853 0.85949627 0.10624329
vn 0.00000000 -0.12273520 0.99243945
vn 0.00000000 0.12273520 -0.99243945
vn -0.86601747 0.00000000 -0.50001374
vn -0.00000000 -1.00000000 -0.00000000
vn 0.00000000 1.00000000 0.00000000
vn 0.00000000 0.00000000 1.00000000
vn 0.00000000 -1.00000000 0.00000000
vn 0.00000000 1.00000000 -0.00000000
vn 0.86601747 0.00000000 -0.50001374
vn 0.00000000 -1.00000000 0.00000000
vn -0.00000000 1.00000000 0.00000000
vn -0.86601747 0.00000000 -0.50001374
vn -0.00000000 -1.00000000 -0.00000000
vn 0.00000000 1.00000000 0.00000000
vn 0.00000000 0.00000000 1.00000000
vn 0.00000000 -1.00000000 0.00000000
vn 0.00000000 1.00000000 -0.00000000
vn 0.86601747 0.00000000 -0.50001374
vn 0.00000000 -1.00000000 0.00000000
vn -0.00000000 1.00000000 0.00000000
vn -0.86601747 0.00000000 -0.50001374
vn -0.00000000 -1.00000000 -0.00000000
vn 0.00000000 1.00000000 0.00000000
vn 0.00000000 0.00000000 1.00000000
vn 0.00000000 -1.00000000 0.00000000
vn 0.00000000 1.00000000 -0.00000000
vn 0.86601747 0.00000000 -0.50001374
vn 0.00000000 -1.00000000 0.00000000
vn -0.00000000 1.00000000 0.00000000
vn -0.86601747 0.00000000 -0.50001374
vn -0.00000000 -1.00000000 -0.00000000
vn 0.00000000 1.00000000 0.00000000
vn 0.00000000 0.00000000 1.00000000
vn 0.00000000 -1.00000000 0.00000000
vn 0.00000000 1.00000000 -0.00000000
vn 0.86601747 0.00000000 -0.50001374
vn 0.00000000 -1.00000000 0.00000000
vn -0.00000000 1.00000000 0.00000000
vn -0.86601747 0.00000000 -0.50001374
vn -0.00000000 -1.00000000 -0.00000000
vn 0.00000000 1.00000000 0.00000000
vn 0.00000000 0.00000000 1.00000000
vn 0.00000000 -1.00000000 0.00000000
vn 0.00000000 1.00000000 -0.00000000
vn 0.86601747 0.00000000 -0.50001374
vn 0.00000000 -1.00000000 0.00000000
vn -0.00000000 1.00000000 0.00000000
vn 0.49997853 -0.85949627 -0.10624329
vn 0.00000000 -0.12273520 0.99243945
vn 0.00000000 0.12273520 -0.99243945
vn -1.00000000 0.00000000 0.00000000
vn -0.00000000 -0.12273520 0.99243945
vn -0.00000000 0.12273520 -0.99243945
vn 0.49997853 0.85949627 0.10624329
vn 0.00000000 -0.12273520 0.99243945
vn 0.00000000 0.12273520 -0.99243945
vn 0.49997853 -0.85949627 -0.10624329
vn 0.00000000 -0.12273520 0.99243945
vn 0.00000000 0.12273520 -0.99243945
vn -1.00000000 0.00000000 0.00000000
vn -0.00000000 -0.12273520 0.99243945
vn -0.00000000 0.12273520 -0.99243945
vn 0.49997853 0.85949627 0.10624329
vn 0.00000000 -0.12273520 0.99243945
vn 0.00000000 0.12273520 -0.99243945
f 1/1/1 4/2/1 3/3/1
f 1/1/1 3/3/1 2/4/1
f 5/5/2 6/6/2 7/7/2
f 5/5/2 7/7/2 8/8/2
f 1/9/3 5/10/3 8/11/3
f 1/9/3 8/11/3 4/12/3
f 2/13/4 3/14/4 7/15/4
f 2/13/4 7/15/4 6/16/4
f 1/17/5 2/18/5 6/19/5
f 1/17/5 6/19/5 5/20/5
f 4/21/6 8/22/6 7/23/6
f 4/21/6 7/23/6 3/24/6
f 9/25/7 12/26/7 11/27/7
f 9/25/7 11/27/7 10/28/7
f 1/29/8 2/30/8 13/31/8
f 1/29/8 13/31/8 14/32/8
f 9/33/9 1/34/9 14/35/9
f 9/33/9 14/35/9 12/36/9
f 10/37/10 11/38/10 13/39/10
f 10/37/10 13/39/10 2/40/10
f 9/41/11 10/42/11 2/43/11
f 9/41/11 2/43/11 1/44/11
f 12/45/12 14/46/12 13/47/12
f 12/45/12 13/47/12 11/48/12
f 15/49/13 18/50/13 17/51/13
f 15/49/13 17/51/13 16/52/13
f 9/53/14 10/54/14 19/55/14
f 9/53/14 19/55/14 20/56/14
f 15/57/15 9/58/15 20/59/15
f 15/57/15 20/59/15 18/60/15
f 16/61/16 17/62/16 19/63/16
f 16/61/16 19/63/16 10/64/16
f 15/65/17 16/66/17 10/67/17
f 15/65/17 10/67/17 9/68/17
f 18/69/18 20/70/18 19/71/18
f 18/69/18 19/71/18 17/72/18
f 21/73/19 24/74/19 23/75/19
f 21/73/19 23/75/19 22/76/19
f 15/77/20 16/78/20 25/79/20
f 15/77/20 25/79/20 26/80/20
f 21/81/21 15/82/21 26/83/21
f 21/81/21 26/83/21 24/84/21
f 22/85/22 23/86/22 25/87/22
f 22/85/22 25/87/22 16/88/22
f 21/89/23 22/90/23 16/91/23
f 21/89/23 16/91/23 15/92/23
f 24/93/24 26/94/24 25/95/24
f 24/93/24 25/95/24 23/96/24
f 27/97/25 30/98/25 29/99/25
f 27/97/25 29/99/25 28/100/25
f 21/101/26 22/102/26 31/103/26
f 21/101/26 31/103/26 32/104/26
f 27/105/27 21/106/27 32/107/27
f 27/105/27 32/107/27 30/108/27
f 28/109/28 29/110/28 31/111/28
f 28/109/28 31/111/28 22/112/28
f 27/113/29 28/114/29 22/115/29
f 27/113/29 22/115/29 21/116/29
f 30/117/30 32/118/30 31/119/30
f 30/117/30 31/119/30 29/120/30
f 33/121/31 36/122/31 35/123/31
f 33/121/31 35/123/31 34/124/31
f 27/125/32 28/126/32 37/127/32
f 27/125/32 37/127/32 38/128/32
f 33/129/33 27/130/33 38/131/33
f 33/129/33 38/131/33 36/132/33
f 34/133/34 35/134/34 37/135/34
f 34/133/34 37/135/34 28/136/34
f 33/137/35 34/138/35 28/139/35
f 33/137/35 28/139/35 27/140/35
f 36/141/36 38/142/36 37/143/36
f 36/141/36 37/143/36 35/144/36
f 39/145/37 42/146/37 41/147/37
f 39/145/37 41/147/37 40/148/37
f 33/149/38 34/150/38 43/151/38
f 33/149/38 43/151/38 44/152/38
f 39/153/39 33/154/39 44/155/39
f 39/153/39 44/155/39 42/156/39
f 40/157/40 41/158/40 43/159/40
f 40/157/40 43/159/40 34/160/40
f 39/161/41 40/162/41 34/163/41
f 39/161/41 34/163/41 33/164/41
f 42/165/42 44/166/42 43/167/42
f 42/165/42 43/167/42 41/168/42
f 45/169/43 48/170/43 47/171/43
f 45/169/43 47/171/43 46/172/43
f 39/173/44 40/174/44 49/175/44
f 39/173/44 49/175/44 50/176/44
f 45/177/45 39/178/45 50/179/45
f 45/177/45 50/179/45 48/180/45
f 46/181/46 47/182/46 49/183/46
f 46/181/46 49/183/46 40/184/46
f 45/185/47 46/186/47 40/187/47
f 45/185/47 40/187/47 39/188/47
f 48/189/48 50/190/48 49/191/48
f 48/189/48 49/191/48 47/192/48
f 51/193/49 54/194/49 53/195/49
f 51/193/49 53/195/49 52/196/49
f 45/197/50 46/198/50 55/199/50
f 45/197/50 55/199/50 56/200/50
f 51/201/51 45/202/51 56/203/51
f 51/201/51 56/203/51 54/204/51
f 52/205/52 53/206/52 55/207/52
f 52/205/52 55/207/52 46/208/52
f 51/209/53 52/210/53 46/211/53
f 51/209/53 46/211/53 45/212/53
f 54/213/54 56/214/54 55/215/54
f 54/213/54 55/215/54 53/216/54
f 57/217/55 60/218/55 59/219/55
f 57/217/55 59/219/55 58/220/55
f 51/221/56 52/222/56 61/223/56
f 51/221/56 61/223/56 62/224/56
f 57/225/57 51/226/57 62/227/57
f 57/225/57 62/227/57 60/228/57
f 58/229/58 59/230/58 61/231/58
f 58/229/58 61/231/58 52/232/58
f 57/233/59 58/234/59 52/235/59
f 57/233/59 52/235/59 51/236/59
f 60/237/60 62/238/60 61/239/60
f 60/237/60 61/239/60 59/240/60
f 5/241/61 64/242/61 63/243/61
f 5/241/61 63/243/61 6/244/61
f 65/245/62 66/246/62 67/247/62
f 65/245/62 67/247/62 68/248/62
f 5/249/63 65/250/63 68/251/63
f 5/249/63 68/251/63 64/252/63
f 6/253/64 63/254/64 67/255/64
f 6/253/64 67/255/64 66/256/64
f 5/257/65 6/258/65 66/259/65
f 5/257/65 66/259/65 65/260/65
f 64/261/66 68/262/66 67/263/66
f 64/261/66 67/263/66 63/264/66
f 69/265/67 72/266/67 71/267/67
f 69/265/67 71/267/67 70/268/67
f 57/269/68 58/270/68 59/271/68
f 57/269/68 59/271/68 60/272/68
f 69/273/69 57/274/69 60/275/69
f 69/273/69 60/275/69 72/276/69
f 70/277/70 71/278/70 59/279/70
f 70/277/70 59/279/70 58/280/70
f 69/281/71 70/282/71 58/283/71
f 69/281/71 58/283/71 57/284/71
f 72/285/72 60/286/72 59/287/72
f 72/285/72 59/287/72 71/288/72
f 73/289/73 74/290/73 75/291/73
f 73/289/73 75/291/73 76/292/73
f 77/293/74 78/294/74 79/295/74
f 77/293/74 79/295/74 80/296/74
f 73/297/75 77/298/75 80/299/75
f 73/297/75 80/299/75 74/300/75
f 76/301/76 75/302/76 79/303/76
f 76/301/76 79/303/76 78/304/76
f 73/305/77 76/306/77 78/307/77
f 73/305/77 78/307/77 77/308/77
f 74/309/78 80/310/78 79/311/78
f 74/309/78 79/311/78 75/312/78
f 73/313/79 82/314/79 81/315/79
f 73/313/79 81/315/79 76/316/79
f 83/317/80 84/318/80 85/319/80
f 83/317/80 85/319/80 86/320/80
f 73/321/81 83/322/81 86/323/81
f 73/321/81 86/323/81 82/324/81
f 76/325/82 81/326/82 85/327/82
f 76/325/82 85/327/82 84/328/82
f 73/329/83 76/330/83 84/331/83
f 73/329/83 84/331/83 83/332/83
f 82/333/84 86/334/84 85/335/84
f 82/333/84 85/335/84 81/336/84
f 87/337/85 90/338/85 89/339/85
f 87/337/85 89/339/85 88/340/85
f 69/341/86 78/342/86 79/343/86
f 69/341/86 79/343/86 72/344/86
f 87/345/87 69/346/87 72/347/87
f 87/345/87 72/347/87 90/348/87
f 88/349/88 89/350/88 79/351/88
f 88/349/88 79/351/88 78/352/88
f 87/353/89 88/354/89 78/355/89
f 87/353/89 78/355/89 69/356/89
f 90/357/90 72/358/90 79/359/90
f 90/357/90 79/359/90 89/360/90
f 91/361/91 92/362/91 93/363/91
f 91/361/91 93/363/91 94/364/91
f 95/365/92 92/366/92 91/367/92
f 96/368/93 94/369/93 93/370/93
f 92/371/94 97/372/94 98/373/94
f 92/371/94 98/373/94 93/374/94
f 95/375/95 97/376/95 92/377/95
f 96/378/96 93/379/96 98/380/96
f 97/381/97 91/382/97 94/383/97
f 97/381/97 94/383/97 98/384/97
f 95/385/98 91/386/98 97/387/98
f 96/388/99 98/389/99 94/390/99
f 99/391/100 100/392/100 101/393/100
f 99/391/100 101/393/100 102/394/100
f 103/395/101 100/396/101 99/397/101
f 104/398/102 102/399/102 101/400/102
f 100/401/103 105/402/103 106/403/103
f 100/401/103 106/403/103 101/404/103
f 103/405/104 105/406/104 100/407/104
f 104/408/105 101/409/105 106/410/105
f 105/411/106 99/412/106 102/413/106
f 105/411/106 102/413/106 106/414/106
f 103/415/107 99/416/107 105/417/107
f 104/418/108 106/419/108 102/420/108
f 107/421/109 108/422/109 109/423/109
f 107/421/109 109/423/109 110/424/109
f 111/425/110 108/426/110 107/427/110
f 112/428/111 110/429/111 109/430/111
f 108/431/112 113/432/112 114/433/112
f 108/431/112 114/433/112 109/434/112
f 111/435/113 113/436/113 108/437/113
f 112/438/114 109/439/114 114/440/114
f 113/441/115 107/442/115 110/443/115
f 113/441/115 110/443/115 114/444/115
f 111/445/116 107/446/116 113/447/116
f 112/448/117 114/449/117 110/450/117
f 115/451/118 116/452/118 117/453/118
f 115/451/118 117/453/118 118/454/118
f 119/455/119 116/456/119 115/457/119
f 120/458/120 118/459/120 117/460/120
f 116/461/121 121/462/121 122/463/121
f 116/461/121 122/463/121 117/464/121
f 119/465/122 121/466/122 116/467/122
f 120/468/123 117/469/123 122/470/123
f 121/471/124 115/472/124 118/473/124
f 121/471/124 118/473/124 122/474/124
f 119/475/125 115/476/125 121/477/125
f 120/478/126 122/479/126 118/480/126
f 123/481/127 124/482/127 125/483/127
f 123/481/127 125/483/127 126/484/127
f 127/485/128 124/486/128 123/487/128
f 128/488/129 126/489/129 125/490/129
f 124/491/130 129/492/130 130/493/130
f 124/491/130 130/493/130 125/494/130
f 127/495/131 129/496/131 124/497/131
f 128/498/132 125/499/132 130/500/132
f 129/501/133 123/502/133 126/503/133
f 129/501/133 126/503/133 130/504/133
f 127/505/134 123/506/134 129/507/134
f 128/508/135 130/509/135 126/510/135
f 131/511/136 132/512/136 133/513/136
f 131/511/136 133/513/136 134/514/136
f 135/515/137 132/516/137 131/517/137
f 136/518/138 134/519/138 133/520/138
f 132/521/139 137/522/139 138/523/139
f 132/521/139 138/523/139 133/524/139
f 135/525/140 137/526/140 132/527/140
f 136/528/141 133/529/141 138/530/141
f 137/531/142 131/532/142 134/533/142
f 137/531/142 134/533/142 138/534/142
f 135/535/143 131/536/143 137/537/143
f 136/538/144 138/539/144 134/540/144
f 139/541/145 140/542/145 141/543/145
f 139/541/145 141/543/145 142/544/145
f 96/545/146 140/546/146 139/547/146
f 128/548/147 142/549/147 141/550/147
f 140/551/148 143/552/148 144/553/148
f 140/551/148 144/553/148 141/554/148
f 96/555/149 143/556/149 140/557/149
f 128/558/150 141/559/150 144/560/150
f 143/561/151 139/562/151 142/563/151
f 143/561/151 142/563/151 144/564/151
f 96/565/152 139/566/152 143/567/152
f 128/568/153 144/569/153 142/570/153
f 145/571/154 146/572/154 147/573/154
f 145/571/154 147/573/154 148/574/154
f 149/575/155 146/576/155 145/577/155
f 150/578/156 148/579/156 147/580/156
f 146/581/157 151/582/157 152/583/157
f 146/581/157 152/583/157 147/584/157
f 149/585/158 151/586/158 146/587/158
f 150/588/159 147/589/159 152/590/159
f 151/591/160 145/592/160 148/593/160
f 151/591/160 148/593/160 152/594/160
f 149/595/161 145/596/161 151/597/161
f 150/598/162 152/599/162 148/600/162
f 153/601/163 154/602/163 155/603/163
f 153/601/163 155/603/163 156/604/163
f 157/605/164 154/606/164 153/607/164
f 158/608/165 156/609/165 155/610/165
f 154/611/166 159/612/166 160/613/166
f 154/611/166 160/613/166 155/614/166
f 157/615/167 159/616/167 154/617/167
f 158/618/168 155/619/168 160/620/168
f 159/621/169 153/622/169 156/623/169
f 159/621/169 156/623/169 160/624/169
f 157/625/170 153/626/170 159/627/170
f 158/628/171 160/629/171 156/630/171
f 161/631/172 162/632/172 163/633/172
f 161/631/172 163/633/172 164/634/172
f 165/635/173 162/636/173 161/637/173
f 166/638/174 164/639/174 163/640/174
f 162/641/175 167/642/175 168/643/175
f 162/641/175 168/643/175 163/644/175
f 165/645/176 167/646/176 162/647/176
f 166/648/177 163/649/177 168/650/177
f 167/651/178 161/652/178 164/653/178
f 167/651/178 164/653/178 168/654/178
f 165/655/179 161/656/179 167/657/179
f 166/658/180 168/659/180 164/660/180
f 169/661/181 170/662/181 171/663/181
f 169/661/181 171/663/181 172/664/181
f 173/665/182 170/666/182 169/667/182
f 174/668/183 172/669/183 171/670/183
f 170/671/184 175/672/184 176/673/184
f 170/671/184 176/673/184 171/674/184
f 173/675/185 175/676/185 170/677/185
f 174/678/186 171/679/186 176/680/186
f 175/681/187 169/682/187 172/683/187
f 175/681/187 172/683/187 176/684/187
f 173/685/188 169/686/188 175/687/188
f 174/688/189 176/689/189 172/690/189
f 177/691/190 178/692/190 179/693/190
f 177/691/190 179/693/190 180/694/190
f 181/695/191 178/696/191 177/697/191
f 182/698/192 180/699/192 179/700/192
f 178/701/193 183/702/193 184/703/193
f 178/701/193 184/703/193 179/704/193
f 181/705/194 183/706/194 178/707/194
f 182/708/195 179/709/195 184/710/195
f 183/711/196 177/712/196 180/713/196
f 183/711/196 180/713/196 184/714/196
f 181/715/197 177/716/197 183/717/197
f 182/718/198 184/719/198 180/720/198
f 185/721/199 186/722/199 187/723/199
f 185/721/199 187/723/199 188/724/199
f 189/725/200 186/726/200 185/727/200
f 190/728/201 188/729/201 187/730/201
f 186/731/202 191/732/202 192/733/202
f 186/731/202 192/733/202 187/734/202
f 189/735/203 191/736/203 186/737/203
f 190/738/204 187/739/204 192/740/204
f 191/741/205 185/742/205 188/743/205
f 191/741/205 188/743/205 192/744/205
f 189/745/206 185/746/206 191/747/206
f 190/748/207 192/749/207 188/750/207
f 193/751/208 194/752/208 195/753/208
f 193/751/208 195/753/208 196/754/208
f 150/755/209 194/756/209 193/757/209
f 182/758/210 196/759/210 195/760/210
f 194/761/211 197/762/211 198/763/211
f 194/761/211 198/763/211 195/764/211
f 150/765/212 197/766/212 194/767/212
f 182/768/213 195/769/213 198/770/213
f 197/771/214 193/772/214 196/773/214
f 197/771/214 196/773/214 198/774/214
f 150/775/215 193/776/215 197/777/215
f 182/778/216 198/779/216 196/780/216
f 123/781/217 124/782/217 125/783/217
f 123/781/217 125/783/217 126/784/217
f 127/785/218 124/786/218 123/787/218
f 128/788/219 126/789/219 125/790/219
f 124/791/220 129/792/220 130/793/220
f 124/791/220 130/793/220 125/794/220
f 127/795/221 129/796/221 124/797/221
f 128/798/222 125/799/222 130/800/222
f 129/801/223 123/802/223 126/803/223
f 129/801/223 126/803/223 130/804/223
f 127/805/224 123/806/224 129/807/224
f 128/808/225 130/809/225 126/810/225
f 199/811/226 200/812/226 201/813/226
f 199/811/226 201/813/226 202/814/226
f 203/815/227 200/816/227 199/817/227
f 204/818/228 202/819/228 201/820/228
f 200/821/229 205/822/229 206/823/229
f 200/821/229 206/823/229 201/824/229
f 203/825/230 205/826/230 200/827/230
f 204/828/231 201/829/231 206/830/231
f 205/831/232 199/832/232 202/833/232
f 205/831/232 202/833/232 206/834/232
f 203/835/233 199/836/233 205/837/233
f 204/838/234 206/839/234 202/840/234
f 207/841/235 208/842/235 209/843/235
f 207/841/235 209/843/235 210/844/235
f 211/845/236 208/846/236 207/847/236
f 212/848/237 210/849/237 209/850/237
f 208/851/238 213/852/238 214/853/238
f 208/851/238 214/853/238 209/854/238
f 211/855/239 213/856/239 208/857/239
f 212/858/240 209/859/240 214/860/240
f 213/861/241 207/862/241 210/863/241
f 213/861/241 210/863/241 214/864/241
f 211/865/242 207/866/242 213/867/242
f 212/868/243 214/869/243 210/870/243
f 215/871/244 216/872/244 217/873/244
f 215/871/244 217/873/244 218/874/244
f 219/875/245 216/876/245 215/877/245
f 220/878/246 218/879/246 217/880/246
f 216/881/247 221/882/247 222/883/247
f 216/881/247 222/883/247 217/884/247
f 219/885/248 221/886/248 216/887/248
f 220/888/249 217/889/249 222/890/249
f 221/891/250 215/892/250 218/893/250
f 221/891/250 218/893/250 222/894/250
f 219/895/251 215/896/251 221/897/251
f 220/898/252 222/899/252 218/900/252
f 223/901/253 224/902/253 225/903/253
f 223/901/253 225/903/253 226/904/253
f 227/905/254 224/906/254 223/907/254
f 228/908/255 226/909/255 225/910/255
f 224/911/256 229/912/256 230/913/256
f 224/911/256 230/913/256 225/914/256
f 227/915/257 229/916/257 224/917/257
f 228/918/258 225/919/258 230/920/258
f 229/921/259 223/922/259 226/923/259
f 229/921/259 226/923/259 230/924/259
f 227/925/260 223/926/260 229/927/260
f 228/928/261 230/929/261 226/930/261
f 134/931/262 231/932/262 232/933/262
f 134/931/262 232/933/262 233/934/262
f 136/935/263 231/936/263 134/937/263
f 234/938/264 233/939/264 232/940/264
f 231/941/265 235/942/265 236/943/265
f 231/941/265 236/943/265 232/944/265
f 136/945/266 235/946/266 231/947/266
f 234/948/267 232/949/267 236/950/267
f 235/951/268 134/952/268 233/953/268
f 235/951/268 233/953/268 236/954/268
f 136/955/269 134/956/269 235/957/269
f 234/958/270 236/959/270 233/960/270
f 142/961/271 237/962/271 238/963/271
f 142/961/271 238/963/271 239/964/271
f 128/965/272 237/966/272 142/967/272
f 228/968/273 239/969/273 238/970/273
f 237/971/274 240/972/274 241/973/274
f 237/971/274 241/973/274 238/974/274
f 128/975/275 240/976/275 237/977/275
f 228/978/276 238/979/276 241/980/276
f 240/981/277 142/982/277 239/983/277
f 240/981/277 239/983/277 241/984/277
f 128/985/278 142/986/278 240/987/278
f 228/988/279 241/989/279 239/990/279
f 177/991/280 178/992/280 179/993/280
f 177/991/280 179/993/280 180/994/280
f 181/995/281 178/996/281 177/997/281
f 182/998/282 180/999/282 179/1000/282
f 178/1001/283 183/1002/283 184/1003/283
f 178/1001/283 184/1003/283 179/1004/283
f 181/1005/284 183/1006/284 178/1007/284
f 182/1008/285 179/1009/285 184/1010/285
f 183/1011/286 177/1012/286 180/1013/286
f 183/1011/286 180/1013/286 184/1014/286
f 181/1015/287 177/1016/287 183/1017/287
f 182/1018/288 184/1019/288 180/1020/288
f 242/1021/289 243/1022/289 244/1023/289
f 242/1021/289 244/1023/289 245/1024/289
f 246/1025/290 243/1026/290 242/1027/290
f 247/1028/291 245/1029/291 244/1030/291
f 243/1031/292 248/1032/292 249/1033/292
f 243/1031/292 249/1033/292 244/1034/292
f 246/1035/293 248/1036/293 243/1037/293
f 247/1038/294 244/1039/294 249/1040/294
f 248/1041/295 242/1042/295 245/1043/295
f 248/1041/295 245/1043/295 249/1044/295
f 246/1045/296 242/1046/296 248/1047/296
f 247/1048/297 249/1049/297 245/1050/297
f 250/1051/298 251/1052/298 252/1053/298
f 250/1051/298 252/1053/298 253/1054/298
f 254/1055/299 251/1056/299 250/1057/299
f 255/1058/300 253/1059/300 252/1060/300
f 251/1061/301 256/1062/301 257/1063/301
f 251/1061/301 257/1063/301 252/1064/301
f 254/1065/302 256/1066/302 251/1067/302
f 255/1068/303 252/1069/303 257/1070/303
f 256/1071/304 250/1072/304 253/1073/304
f 256/1071/304 253/1073/304 257/1074/304
f 254/1075/305 250/1076/305 256/1077/305
f 255/1078/306 257/1079/306 253/1080/306
f 258/1081/307 259/1082/307 260/1083/307
f 258/1081/307 260/1083/307 261/1084/307
f 262/1085/308 259/1086/308 258/1087/308
f 263/1088/309 261/1089/309 260/1090/309
f 259/1091/310 264/1092/310 265/1093/310
f 259/1091/310 265/1093/310 260/1094/310
f 262/1095/311 264/1096/311 259/1097/311
f 263/1098/312 260/1099/312 265/1100/312
f 264/1101/313 258/1102/313 261/1103/313
f 264/1101/313 261/1103/313 265/1104/313
f 262/1105/314 258/1106/314 264/1107/314
f 263/1108/315 265/1109/315 261/1110/315
f 266/1111/316 267/1112/316 268/1113/316
f 266/1111/316 268/1113/316 269/1114/316
f 270/1115/317 267/1116/317 266/1117/317
f 271/1118/318 269/1119/318 268/1120/318
f 267/1121/319 272/1122/319 273/1123/319
f 267/1121/319 273/1123/319 268/1124/319
f 270/1125/320 272/1126/320 267/1127/320
f 271/1128/321 268/1129/321 273/1130/321
f 272/1131/322 266/1132/322 269/1133/322
f 272/1131/322 269/1133/322 273/1134/322
f 270/1135/323 266/1136/323 272/1137/323
f 271/1138/324 273/1139/324 269/1140/324
f 188/1141/325 274/1142/325 275/1143/325
f 188/1141/325 275/1143/325 276/1144/325
f 190/1145/326 274/1146/326 188/1147/326
f 277/1148/327 276/1149/327 275/1150/327
f 274/1151/328 278/1152/328 279/1153/328
f 274/1151/328 279/1153/328 275/1154/328
f 190/1155/329 278/1156/329 274/1157/329
f 277/1158/330 275/1159/330 279/1160/330
f 278/1161/331 188/1162/331 276/1163/331
f 278/1161/331 276/1163/331 279/1164/331
f 190/1165/332 188/1166/332 278/1167/332
f 277/1168/333 279/1169/333 276/1170/333
f 196/1171/334 280/1172/334 281/1173/334
f 196/1171/334 281/1173/334 282/1174/334
f 182/1175/335 280/1176/335 196/1177/335
f 271/1178/336 282/1179/336 281/1180/336
f 280/1181/337 283/1182/337 284/1183/337
f 280/1181/337 284/1183/337 281/1184/337
f 182/1185/338 283/1186/338 280/1187/338
f 271/1188/339 281/1189/339 284/1190/339
f 283/1191/340 196/1192/340 282/1193/340
f 283/1191/340 282/1193/340 284/1194/340
f 182/1195/341 196/1196/341 283/1197/341
f 271/1198/342 284/1199/342 282/1200/342
f 285/1201/343 286/1202/343 287/1203/343
f 285/1201/343 287/1203/343 288/1204/343
f 289/1205/344 286/1206/344 285/1207/344
f 290/1208/345 288/1209/345 287/1210/345
f 286/1211/346 291/1212/346 292/1213/346
f 286/1211/346 292/1213/346 287/1214/346
f 289/1215/347 291/1216/347 286/1217/347
f 290/1218/348 287/1219/348 292/1220/348
f 291/1221/349 285/1222/349 288/1223/349
f 291/1221/349 288/1223/349 292/1224/349
f 289/1225/350 285/1226/350 291/1227/350
f 290/1228/351 292/1229/351 288/1230/351
f 293/1231/352 294/1232/352 295/1233/352
f 293/1231/352 295/1233/352 296/1234/352
f 297/1235/353 294/1236/353 293/1237/353
f 298/1238/354 296/1239/354 295/1240/354
f 294/1241/355 299/1242/355 300/1243/355
f 294/1241/355 300/1243/355 295/1244/355
f 297/1245/356 299/1246/356 294/1247/356
f 298/1248/357 295/1249/357 300/1250/357
f 299/1251/358 293/1252/358 296/1253/358
f 299/1251/358 296/1253/358 300/1254/358
f 297/1255/359 293/1256/359 299/1257/359
f 298/1258/360 300/1259/360 296/1260/360
f 301/1261/361 302/1262/361 303/1263/361
f 301/1261/361 303/1263/361 304/1264/361
f 305/1265/362 302/1266/362 301/1267/362
f 306/1268/363 304/1269/363 303/1270/363
f 302/1271/364 307/1272/364 308/1273/364
f 302/1271/364 308/1273/364 303/1274/364
f 305/1275/365 307/1276/365 302/1277/365
f 306/1278/366 303/1279/366 308/1280/366
f 307/1281/367 301/1282/367 304/1283/367
f 307/1281/367 304/1283/367 308/1284/367
f 305/1285/368 301/1286/368 307/1287/368
f 306/1288/369 308/1289/369 304/1290/369
f 309/1291/370 310/1292/370 311/1293/370
f 309/1291/370 311/1293/370 312/1294/370
f 313/1295/371 310/1296/371 309/1297/371
f 314/1298/372 312/1299/372 311/1300/372
f 310/1301/373 315/1302/373 316/1303/373
f 310/1301/373 316/1303/373 311/1304/373
f 313/1305/374 315/1306/374 310/1307/374
f 314/1308/375 311/1309/375 316/1310/375
f 315/1311/376 309/1312/376 312/1313/376
f 315/1311/376 312/1313/376 316/1314/376
f 313/1315/377 309/1316/377 315/1317/377
f 314/1318/378 316/1319/378 312/1320/378
f 317/1321/379 318/1322/379 319/1323/379
f 317/1321/379 319/1323/379 320/1324/379
f 321/1325/380 318/1326/380 317/1327/380
f 322/1328/381 320/1329/381 319/1330/381
f 318/1331/382 323/1332/382 324/1333/382
f 318/1331/382 324/1333/382 319/1334/382
f 321/1335/383 323/1336/383 318/1337/383
f 322/1338/384 319/1339/384 324/1340/384
f 323/1341/385 317/1342/385 320/1343/385
f 323/1341/385 320/1343/385 324/1344/385
f 321/1345/386 317/1346/386 323/1347/386
f 322/1348/387 324/1349/387 320/1350/387
f 325/1351/388 326/1352/388 327/1353/388
f 325/1351/388 327/1353/388 328/1354/388
f 329/1355/389 326/1356/389 325/1357/389
f 330/1358/390 328/1359/390 327/1360/390
f 326/1361/391 331/1362/391 332/1363/391
f 326/1361/391 332/1363/391 327/1364/391
f 329/1365/392 331/1366/392 326/1367/392
f 330/1368/393 327/1369/393 332/1370/393
f 331/1371/394 325/1372/394 328/1373/394
f 331/1371/394 328/1373/394 332/1374/394
f 329/1375/395 325/1376/395 331/1377/395
f 330/1378/396 332/1379/396 328/1380/396
f 333/1381/397 334/1382/397 335/1383/397
f 333/1381/397 335/1383/397 336/1384/397
f 290/1385/398 334/1386/398 333/1387/398
f 322/1388/399 336/1389/399 335/1390/399
f 334/1391/400 337/1392/400 338/1393/400
f 334/1391/400 338/1393/400 335/1394/400
f 290/1395/401 337/1396/401 334/1397/401
f 322/1398/402 335/1399/402 338/1400/402
f 337/1401/403 333/1402/403 336/1403/403
f 337/1401/403 336/1403/403 338/1404/403
f 290/1405/404 333/1406/404 337/1407/404
f 322/1408/405 338/1409/405 336/1410/405
f 339/1411/406 340/1412/406 341/1413/406
f 339/1411/406 341/1413/406 342/1414/406
f 343/1415/407 340/1416/407 339/1417/407
f 344/1418/408 342/1419/408 341/1420/408
f 340/1421/409 345/1422/409 346/1423/409
f 340/1421/409 346/1423/409 341/1424/409
f 343/1425/410 345/1426/410 340/1427/410
f 344/1428/411 341/1429/411 346/1430/411
f 345/1431/412 339/1432/412 342/1433/412
f 345/1431/412 342/1433/412 346/1434/412
f 343/1435/413 339/1436/413 345/1437/413
f 344/1438/414 346/1439/414 342/1440/414
f 347/1441/415 348/1442/415 349/1443/415
f 347/1441/415 349/1443/415 350/1444/415
f 351/1445/416 348/1446/416 347/1447/416
f 352/1448/417 350/1449/417 349/1450/417
f 348/1451/418 353/1452/418 354/1453/418
f 348/1451/418 354/1453/418 349/1454/418
f 351/1455/419 353/1456/419 348/1457/419
f 352/1458/420 349/1459/420 354/1460/420
f 353/1461/421 347/1462/421 350/1463/421
f 353/1461/421 350/1463/421 354/1464/421
f 351/1465/422 347/1466/422 353/1467/422
f 352/1468/423 354/1469/423 350/1470/423
f 355/1471/424 356/1472/424 357/1473/424
f 355/1471/424 357/1473/424 358/1474/424
f 359/1475/425 356/1476/425 355/1477/425
f 360/1478/426 358/1479/426 357/1480/426
f 356/1481/427 361/1482/427 362/1483/427
f 356/1481/427 362/1483/427 357/1484/427
f 359/1485/428 361/1486/428 356/1487/428
f 360/1488/429 357/1489/429 362/1490/429
f 361/1491/430 355/1492/430 358/1493/430
f 361/1491/430 358/1493/430 362/1494/430
f 359/1495/431 355/1496/431 361/1497/431
f 360/1498/432 362/1499/432 358/1500/432
f 363/1501/433 364/1502/433 365/1503/433
f 363/1501/433 365/1503/433 366/1504/433
f 367/1505/434 364/1506/434 363/1507/434
f 368/1508/435 366/1509/435 365/1510/435
f 364/1511/436 369/1512/436 370/1513/436
f 364/1511/436 370/1513/436 365/1514/436
f 367/1515/437 369/1516/437 364/1517/437
f 368/1518/438 365/1519/438 370/1520/438
f 369/1521/439 363/1522/439 366/1523/439
f 369/1521/439 366/1523/439 370/1524/439
f 367/1525/440 363/1526/440 369/1527/440
f 368/1528/441 370/1529/441 366/1530/441
f 371/1531/442 372/1532/442 373/1533/442
f 371/1531/442 373/1533/442 374/1534/442
f 375/1535/443 372/1536/443 371/1537/443
f 376/1538/444 374/1539/444 373/1540/444
f 372/1541/445 377/1542/445 378/1543/445
f 372/1541/445 378/1543/445 373/1544/445
f 375/1545/446 377/1546/446 372/1547/446
f 376/1548/447 373/1549/447 378/1550/447
f 377/1551/448 371/1552/448 374/1553/448
f 377/1551/448 374/1553/448 378/1554/448
f 375/1555/449 371/1556/449 377/1557/449
f 376/1558/450 378/1559/450 374/1560/450
f 379/1561/451 380/1562/451 381/1563/451
f 379/1561/451 381/1563/451 382/1564/451
f 383/1565/452 380/1566/452 379/1567/452
f 384/1568/453 382/1569/453 381/1570/453
f 380/1571/454 385/1572/454 386/1573/454
f 380/1571/454 386/1573/454 381/1574/454
f 383/1575/455 385/1576/455 380/1577/455
f 384/1578/456 381/1579/456 386/1580/456
f 385/1581/457 379/1582/457 382/1583/457
f 385/1581/457 382/1583/457 386/1584/457
f 383/1585/458 379/1586/458 385/1587/458
f 384/1588/459 386/1589/459 382/1590/459
f 387/1591/460 388/1592/460 389/1593/460
f 387/1591/460 389/1593/460 390/1594/460
f 344/1595/461 388/1596/461 387/1597/461
f 376/1598/462 390/1599/462 389/1600/462
f 388/1601/463 391/1602/463 392/1603/463
f 388/1601/463 392/1603/463 389/1604/463
f 344/1605/464 391/1606/464 388/1607/464
f 376/1608/465 389/1609/465 392/1610/465
f 391/1611/466 387/1612/466 390/1613/466
f 391/1611/466 390/1613/466 392/1614/466
f 344/1615/467 387/1616/467 391/1617/467
f 376/1618/468 392/1619/468 390/1620/468
