mtllib TorusSettlementFarm_A60.mtl
v -3.4720747 0.0277151 12.0000000
v -1.7360927 0.0069289 12.0000000
v -1.7360927 0.0069289 -12.0000000
v -3.4720747 0.0277151 -12.0000000
v -1.7360927 0.0069289 12.0000000
v 0.0000000 0.0000000 12.0000000
v 0.0000000 0.0000000 -12.0000000
v -1.7360927 0.0069289 -12.0000000
v 0.0000000 0.0000000 12.0000000
v 1.7360927 0.0069289 12.0000000
v 1.7360927 0.0069289 -12.0000000
v 0.0000000 0.0000000 -12.0000000
v 1.7360927 0.0069289 12.0000000
v 3.4720747 0.0277151 12.0000000
v 3.4720747 0.0277151 -12.0000000
v 1.7360927 0.0069289 -12.0000000
v -3.4718752 0.0402135 -11.6500000
v -1.7359929 0.0194285 -11.6500000
v -1.7359929 0.0194285 -12.0000000
v -3.4718752 0.0402135 -12.0000000
v -1.7359929 0.0194285 -11.6500000
v 0.0000000 0.0125000 -11.6500000
v 0.0000000 0.0125000 -12.0000000
v -1.7359929 0.0194285 -12.0000000
v 0.0000000 0.0125000 -11.6500000
v 1.7359929 0.0194285 -11.6500000
v 1.7359929 0.0194285 -12.0000000
v 0.0000000 0.0125000 -12.0000000
v 1.7359929 0.0194285 -11.6500000
v 3.4718752 0.0402135 -11.6500000
v 3.4718752 0.0402135 -12.0000000
v 1.7359929 0.0194285 -12.0000000
v -3.4718752 0.0402135 12.0000000
v -1.7359929 0.0194285 12.0000000
v -1.7359929 0.0194285 11.6500000
v -3.4718752 0.0402135 11.6500000
v -1.7359929 0.0194285 12.0000000
v 0.0000000 0.0125000 12.0000000
v 0.0000000 0.0125000 11.6500000
v -1.7359929 0.0194285 11.6500000
v 0.0000000 0.0125000 12.0000000
v 1.7359929 0.0194285 12.0000000
v 1.7359929 0.0194285 11.6500000
v 0.0000000 0.0125000 11.6500000
v 1.7359929 0.0194285 12.0000000
v 3.4718752 0.0402135 12.0000000
v 3.4718752 0.0402135 11.6500000
v 1.7359929 0.0194285 11.6500000
v -0.2999827 0.0127069 12.0000000
v 0.2999827 0.0127069 12.0000000
v 0.2999827 0.0127069 -12.0000000
v -0.2999827 0.0127069 -12.0000000
v -3.1503502 0.6603837 -1.8000000
v -0.7270281 0.6387187 -1.8000000
v -0.7270281 0.6387187 -9.2400000
v -3.1503502 0.6603837 -9.2400000
v -3.1503502 0.6603837 -9.2400000
v -0.7270281 0.6387187 -9.2400000
v -0.7291234 0.0137222 -9.2400000
v -3.1594295 0.0354496 -9.2400000
v -0.7270281 0.6387187 -9.2400000
v -0.7270281 0.6387187 -1.8000000
v -0.7291234 0.0137222 -1.8000000
v -0.7291234 0.0137222 -9.2400000
v -0.7270281 0.6387187 -1.8000000
v -3.1503502 0.6603837 -1.8000000
v -3.1594295 0.0354496 -1.8000000
v -0.7291234 0.0137222 -1.8000000
v -3.1503502 0.6603837 -1.8000000
v -3.1503502 0.6603837 -9.2400000
v -3.1594295 0.0354496 -9.2400000
v -3.1594295 0.0354496 -1.8000000
v -3.1730779 0.8107312 -5.5200000
v -1.9373784 0.7961601 -5.5200000
v -1.9387194 0.6461661 -9.2650000
v -3.1752742 0.6607472 -9.2650000
v -3.1752742 0.6607472 -1.7750000
v -1.9387194 0.6461661 -1.7750000
v -1.9373784 0.7961601 -5.5200000
v -3.1730779 0.8107312 -5.5200000
v -1.9373784 0.7961601 -5.5200000
v -0.7016159 0.7886358 -5.5200000
v -0.7021015 0.6386365 -9.2650000
v -1.9387194 0.6461661 -9.2650000
v -1.9387194 0.6461661 -1.7750000
v -0.7021015 0.6386365 -1.7750000
v -0.7016159 0.7886358 -5.5200000
v -1.9373784 0.7961601 -5.5200000
v -3.1593569 0.0404491 -1.5500000
v -1.9442621 0.0261909 -1.5500000
v -1.9442621 0.0261909 -1.7750000
v -3.1593569 0.0404491 -1.7750000
v -1.9442621 0.0261909 -1.5500000
v -0.7291066 0.0187222 -1.5500000
v -0.7291066 0.0187222 -1.7750000
v -1.9442621 0.0261909 -1.7750000
v 0.7270281 0.6387187 -1.8000000
v 3.1503502 0.6603837 -1.8000000
v 3.1503502 0.6603837 -9.2400000
v 0.7270281 0.6387187 -9.2400000
v 0.7270281 0.6387187 -9.2400000
v 3.1503502 0.6603837 -9.2400000
v 3.1594295 0.0354496 -9.2400000
v 0.7291234 0.0137222 -9.2400000
v 3.1503502 0.6603837 -9.2400000
v 3.1503502 0.6603837 -1.8000000
v 3.1594295 0.0354496 -1.8000000
v 3.1594295 0.0354496 -9.2400000
v 3.1503502 0.6603837 -1.8000000
v 0.7270281 0.6387187 -1.8000000
v 0.7291234 0.0137222 -1.8000000
v 3.1594295 0.0354496 -1.8000000
v 0.7270281 0.6387187 -1.8000000
v 0.7270281 0.6387187 -9.2400000
v 0.7291234 0.0137222 -9.2400000
v 0.7291234 0.0137222 -1.8000000
v 0.7016159 0.7886358 -5.5200000
v 1.9373784 0.7961601 -5.5200000
v 1.9387194 0.6461661 -9.2650000
v 0.7021015 0.6386365 -9.2650000
v 0.7021015 0.6386365 -1.7750000
v 1.9387194 0.6461661 -1.7750000
v 1.9373784 0.7961601 -5.5200000
v 0.7016159 0.7886358 -5.5200000
v 1.9373784 0.7961601 -5.5200000
v 3.1730779 0.8107312 -5.5200000
v 3.1752742 0.6607472 -9.2650000
v 1.9387194 0.6461661 -9.2650000
v 1.9387194 0.6461661 -1.7750000
v 3.1752742 0.6607472 -1.7750000
v 3.1730779 0.8107312 -5.5200000
v 1.9373784 0.7961601 -5.5200000
v 0.7291066 0.0187222 -1.5500000
v 1.9442621 0.0261909 -1.5500000
v 1.9442621 0.0261909 -1.7750000
v 0.7291066 0.0187222 -1.7750000
v 1.9442621 0.0261909 -1.5500000
v 3.1593569 0.0404491 -1.5500000
v 3.1593569 0.0404491 -1.7750000
v 1.9442621 0.0261909 -1.7750000
v -2.7044215 0.1693260 3.1462500
v -2.5695261 0.1676893 3.1462500
v -2.5695261 0.1676893 3.0937500
v -2.7044215 0.1693260 3.0937500
v -2.7044215 0.1693260 3.0937500
v -2.5695261 0.1676893 3.0937500
v -2.5701468 0.1151929 3.0937500
v -2.7050748 0.1168301 3.0937500
v -2.5695261 0.1676893 3.0937500
v -2.5695261 0.1676893 3.1462500
v -2.5701468 0.1151929 3.1462500
v -2.5701468 0.1151929 3.0937500
v -2.5695261 0.1676893 3.1462500
v -2.7044215 0.1693260 3.1462500
v -2.7050748 0.1168301 3.1462500
v -2.5701468 0.1151929 3.1462500
v -2.7044215 0.1693260 3.1462500
v -2.7044215 0.1693260 3.0937500
v -2.7050748 0.1168301 3.0937500
v -2.7050748 0.1168301 3.1462500
v -2.5939718 0.1604791 3.1425000
v -2.5527522 0.1599911 3.1425000
v -2.5527522 0.1599911 3.0975000
v -2.5939718 0.1604791 3.0975000
v -2.5939718 0.1604791 3.0975000
v -2.5527522 0.1599911 3.0975000
v -2.5532807 0.1149942 3.0975000
v -2.5945088 0.1154823 3.0975000
v -2.5527522 0.1599911 3.0975000
v -2.5527522 0.1599911 3.1425000
v -2.5532807 0.1149942 3.1425000
v -2.5532807 0.1149942 3.0975000
v -2.5527522 0.1599911 3.1425000
v -2.5939718 0.1604791 3.1425000
v -2.5945088 0.1154823 3.1425000
v -2.5532807 0.1149942 3.1425000
v -2.5939718 0.1604791 3.1425000
v -2.5939718 0.1604791 3.0975000
v -2.5945088 0.1154823 3.0975000
v -2.5945088 0.1154823 3.1425000
v -0.9695943 0.1546627 3.1462500
v -0.8346901 0.1541028 3.1462500
v -0.8346901 0.1541028 3.0937500
v -0.9695943 0.1546627 3.0937500
v -0.9695943 0.1546627 3.0937500
v -0.8346901 0.1541028 3.0937500
v -0.8348917 0.1016031 3.0937500
v -0.9698285 0.1021632 3.0937500
v -0.8346901 0.1541028 3.0937500
v -0.8346901 0.1541028 3.1462500
v -0.8348917 0.1016031 3.1462500
v -0.8348917 0.1016031 3.0937500
v -0.8346901 0.1541028 3.1462500
v -0.9695943 0.1546627 3.1462500
v -0.9698285 0.1021632 3.1462500
v -0.8348917 0.1016031 3.1462500
v -0.9695943 0.1546627 3.1462500
v -0.9695943 0.1546627 3.0937500
v -0.9698285 0.1021632 3.0937500
v -0.9698285 0.1021632 3.1462500
v -0.8590774 0.1466977 3.1425000
v -0.8178552 0.1465387 3.1425000
v -0.8178552 0.1465387 3.0975000
v -0.8590774 0.1466977 3.0975000
v -0.8590774 0.1466977 3.0975000
v -0.8178552 0.1465387 3.0975000
v -0.8180246 0.1015390 3.0975000
v -0.8592553 0.1016981 3.0975000
v -0.8178552 0.1465387 3.0975000
v -0.8178552 0.1465387 3.1425000
v -0.8180246 0.1015390 3.1425000
v -0.8180246 0.1015390 3.0975000
v -0.8178552 0.1465387 3.1425000
v -0.8590774 0.1466977 3.1425000
v -0.8592553 0.1016981 3.1425000
v -0.8180246 0.1015390 3.1425000
v -0.8590774 0.1466977 3.1425000
v -0.8590774 0.1466977 3.0975000
v -0.8592553 0.1016981 3.0975000
v -0.8592553 0.1016981 3.1425000
v 0.7652948 0.1538473 3.1462500
v 0.9001991 0.1543642 3.1462500
v 0.9001991 0.1543642 3.0937500
v 0.7652948 0.1538473 3.0937500
v 0.7652948 0.1538473 3.0937500
v 0.9001991 0.1543642 3.0937500
v 0.9004166 0.1018647 3.0937500
v 0.7654796 0.1013477 3.0937500
v 0.9001991 0.1543642 3.0937500
v 0.9001991 0.1543642 3.1462500
v 0.9004166 0.1018647 3.1462500
v 0.9004166 0.1018647 3.0937500
v 0.9001991 0.1543642 3.1462500
v 0.7652948 0.1538473 3.1462500
v 0.7654796 0.1013477 3.1462500
v 0.9004166 0.1018647 3.1462500
v 0.7652948 0.1538473 3.1462500
v 0.7652948 0.1538473 3.0937500
v 0.7654796 0.1013477 3.0937500
v 0.7654796 0.1013477 3.1462500
v 0.8758717 0.1467647 3.1425000
v 0.9170938 0.1469348 3.1425000
v 0.9170938 0.1469348 3.0975000
v 0.8758717 0.1467647 3.0975000
v 0.8758717 0.1467647 3.0975000
v 0.9170938 0.1469348 3.0975000
v 0.9172837 0.1019352 3.0975000
v 0.8760530 0.1017651 3.0975000
v 0.9170938 0.1469348 3.0975000
v 0.9170938 0.1469348 3.1425000
v 0.9172837 0.1019352 3.1425000
v 0.9172837 0.1019352 3.0975000
v 0.9170938 0.1469348 3.1425000
v 0.8758717 0.1467647 3.1425000
v 0.8760530 0.1017651 3.1425000
v 0.9172837 0.1019352 3.1425000
v 0.8758717 0.1467647 3.1425000
v 0.8758717 0.1467647 3.0975000
v 0.8760530 0.1017651 3.0975000
v 0.8760530 0.1017651 3.1425000
v 2.5001351 0.1668799 3.1462500
v 2.6350310 0.1684736 3.1462500
v 2.6350310 0.1684736 3.0937500
v 2.5001351 0.1668799 3.0937500
v 2.5001351 0.1668799 3.0937500
v 2.6350310 0.1684736 3.0937500
v 2.6356675 0.1159775 3.0937500
v 2.5007390 0.1143834 3.0937500
v 2.6350310 0.1684736 3.0937500
v 2.6350310 0.1684736 3.1462500
v 2.6356675 0.1159775 3.1462500
v 2.6356675 0.1159775 3.0937500
v 2.6350310 0.1684736 3.1462500
v 2.5001351 0.1668799 3.1462500
v 2.5007390 0.1143834 3.1462500
v 2.6356675 0.1159775 3.1462500
v 2.5001351 0.1668799 3.1462500
v 2.5001351 0.1668799 3.0937500
v 2.5007390 0.1143834 3.0937500
v 2.5007390 0.1143834 3.1462500
v 2.6107649 0.1606802 3.1425000
v 2.6519844 0.1611793 3.1425000
v 2.6519844 0.1611793 3.0975000
v 2.6107649 0.1606802 3.0975000
v 2.6107649 0.1606802 3.0975000
v 2.6519844 0.1611793 3.0975000
v 2.6525335 0.1161826 3.0975000
v 2.6113055 0.1156834 3.0975000
v 2.6519844 0.1611793 3.0975000
v 2.6519844 0.1611793 3.1425000
v 2.6525335 0.1161826 3.1425000
v 2.6525335 0.1161826 3.0975000
v 2.6519844 0.1611793 3.1425000
v 2.6107649 0.1606802 3.1425000
v 2.6113055 0.1156834 3.1425000
v 2.6525335 0.1161826 3.1425000
v 2.6107649 0.1606802 3.1425000
v 2.6107649 0.1606802 3.0975000
v 2.6113055 0.1156834 3.0975000
v 2.6113055 0.1156834 3.1425000
v -2.7044215 0.1693260 7.4662500
v -2.5695261 0.1676893 7.4662500
v -2.5695261 0.1676893 7.4137500
v -2.7044215 0.1693260 7.4137500
v -2.7044215 0.1693260 7.4137500
v -2.5695261 0.1676893 7.4137500
v -2.5701468 0.1151929 7.4137500
v -2.7050748 0.1168301 7.4137500
v -2.5695261 0.1676893 7.4137500
v -2.5695261 0.1676893 7.4662500
v -2.5701468 0.1151929 7.4662500
v -2.5701468 0.1151929 7.4137500
v -2.5695261 0.1676893 7.4662500
v -2.7044215 0.1693260 7.4662500
v -2.7050748 0.1168301 7.4662500
v -2.5701468 0.1151929 7.4662500
v -2.7044215 0.1693260 7.4662500
v -2.7044215 0.1693260 7.4137500
v -2.7050748 0.1168301 7.4137500
v -2.7050748 0.1168301 7.4662500
v -2.5939718 0.1604791 7.4625000
v -2.5527522 0.1599911 7.4625000
v -2.5527522 0.1599911 7.4175000
v -2.5939718 0.1604791 7.4175000
v -2.5939718 0.1604791 7.4175000
v -2.5527522 0.1599911 7.4175000
v -2.5532807 0.1149942 7.4175000
v -2.5945088 0.1154823 7.4175000
v -2.5527522 0.1599911 7.4175000
v -2.5527522 0.1599911 7.4625000
v -2.5532807 0.1149942 7.4625000
v -2.5532807 0.1149942 7.4175000
v -2.5527522 0.1599911 7.4625000
v -2.5939718 0.1604791 7.4625000
v -2.5945088 0.1154823 7.4625000
v -2.5532807 0.1149942 7.4625000
v -2.5939718 0.1604791 7.4625000
v -2.5939718 0.1604791 7.4175000
v -2.5945088 0.1154823 7.4175000
v -2.5945088 0.1154823 7.4625000
v -0.9695943 0.1546627 7.4662500
v -0.8346901 0.1541028 7.4662500
v -0.8346901 0.1541028 7.4137500
v -0.9695943 0.1546627 7.4137500
v -0.9695943 0.1546627 7.4137500
v -0.8346901 0.1541028 7.4137500
v -0.8348917 0.1016031 7.4137500
v -0.9698285 0.1021632 7.4137500
v -0.8346901 0.1541028 7.4137500
v -0.8346901 0.1541028 7.4662500
v -0.8348917 0.1016031 7.4662500
v -0.8348917 0.1016031 7.4137500
v -0.8346901 0.1541028 7.4662500
v -0.9695943 0.1546627 7.4662500
v -0.9698285 0.1021632 7.4662500
v -0.8348917 0.1016031 7.4662500
v -0.9695943 0.1546627 7.4662500
v -0.9695943 0.1546627 7.4137500
v -0.9698285 0.1021632 7.4137500
v -0.9698285 0.1021632 7.4662500
v -0.8590774 0.1466977 7.4625000
v -0.8178552 0.1465387 7.4625000
v -0.8178552 0.1465387 7.4175000
v -0.8590774 0.1466977 7.4175000
v -0.8590774 0.1466977 7.4175000
v -0.8178552 0.1465387 7.4175000
v -0.8180246 0.1015390 7.4175000
v -0.8592553 0.1016981 7.4175000
v -0.8178552 0.1465387 7.4175000
v -0.8178552 0.1465387 7.4625000
v -0.8180246 0.1015390 7.4625000
v -0.8180246 0.1015390 7.4175000
v -0.8178552 0.1465387 7.4625000
v -0.8590774 0.1466977 7.4625000
v -0.8592553 0.1016981 7.4625000
v -0.8180246 0.1015390 7.4625000
v -0.8590774 0.1466977 7.4625000
v -0.8590774 0.1466977 7.4175000
v -0.8592553 0.1016981 7.4175000
v -0.8592553 0.1016981 7.4625000
v 0.7652948 0.1538473 7.4662500
v 0.9001991 0.1543642 7.4662500
v 0.9001991 0.1543642 7.4137500
v 0.7652948 0.1538473 7.4137500
v 0.7652948 0.1538473 7.4137500
v 0.9001991 0.1543642 7.4137500
v 0.9004166 0.1018647 7.4137500
v 0.7654796 0.1013477 7.4137500
v 0.9001991 0.1543642 7.4137500
v 0.9001991 0.1543642 7.4662500
v 0.9004166 0.1018647 7.4662500
v 0.9004166 0.1018647 7.4137500
v 0.9001991 0.1543642 7.4662500
v 0.7652948 0.1538473 7.4662500
v 0.7654796 0.1013477 7.4662500
v 0.9004166 0.1018647 7.4662500
v 0.7652948 0.1538473 7.4662500
v 0.7652948 0.1538473 7.4137500
v 0.7654796 0.1013477 7.4137500
v 0.7654796 0.1013477 7.4662500
v 0.8758717 0.1467647 7.4625000
v 0.9170938 0.1469348 7.4625000
v 0.9170938 0.1469348 7.4175000
v 0.8758717 0.1467647 7.4175000
v 0.8758717 0.1467647 7.4175000
v 0.9170938 0.1469348 7.4175000
v 0.9172837 0.1019352 7.4175000
v 0.8760530 0.1017651 7.4175000
v 0.9170938 0.1469348 7.4175000
v 0.9170938 0.1469348 7.4625000
v 0.9172837 0.1019352 7.4625000
v 0.9172837 0.1019352 7.4175000
v 0.9170938 0.1469348 7.4625000
v 0.8758717 0.1467647 7.4625000
v 0.8760530 0.1017651 7.4625000
v 0.9172837 0.1019352 7.4625000
v 0.8758717 0.1467647 7.4625000
v 0.8758717 0.1467647 7.4175000
v 0.8760530 0.1017651 7.4175000
v 0.8760530 0.1017651 7.4625000
v 2.5001351 0.1668799 7.4662500
v 2.6350310 0.1684736 7.4662500
v 2.6350310 0.1684736 7.4137500
v 2.5001351 0.1668799 7.4137500
v 2.5001351 0.1668799 7.4137500
v 2.6350310 0.1684736 7.4137500
v 2.6356675 0.1159775 7.4137500
v 2.5007390 0.1143834 7.4137500
v 2.6350310 0.1684736 7.4137500
v 2.6350310 0.1684736 7.4662500
v 2.6356675 0.1159775 7.4662500
v 2.6356675 0.1159775 7.4137500
v 2.6350310 0.1684736 7.4662500
v 2.5001351 0.1668799 7.4662500
v 2.5007390 0.1143834 7.4662500
v 2.6356675 0.1159775 7.4662500
v 2.5001351 0.1668799 7.4662500
v 2.5001351 0.1668799 7.4137500
v 2.5007390 0.1143834 7.4137500
v 2.5007390 0.1143834 7.4662500
v 2.6107649 0.1606802 7.4625000
v 2.6519844 0.1611793 7.4625000
v 2.6519844 0.1611793 7.4175000
v 2.6107649 0.1606802 7.4175000
v 2.6107649 0.1606802 7.4175000
v 2.6519844 0.1611793 7.4175000
v 2.6525335 0.1161826 7.4175000
v 2.6113055 0.1156834 7.4175000
v 2.6519844 0.1611793 7.4175000
v 2.6519844 0.1611793 7.4625000
v 2.6525335 0.1161826 7.4625000
v 2.6525335 0.1161826 7.4175000
v 2.6519844 0.1611793 7.4625000
v 2.6107649 0.1606802 7.4625000
v 2.6113055 0.1156834 7.4625000
v 2.6525335 0.1161826 7.4625000
v 2.6107649 0.1606802 7.4625000
v 2.6107649 0.1606802 7.4175000
v 2.6113055 0.1156834 7.4175000
v 2.6113055 0.1156834 7.4625000
v -3.1214332 0.0699045 6.4250000
v -1.7232167 0.0543280 6.4250000
v -1.7234742 0.0218290 1.2000000
v -3.1218997 0.0374079 1.2000000
v -3.1218997 0.0374079 11.6500000
v -1.7234742 0.0218290 11.6500000
v -1.7232167 0.0543280 6.4250000
v -3.1214332 0.0699045 6.4250000
v -1.7232167 0.0543280 6.4250000
v -0.3249289 0.0477428 6.4250000
v -0.3249775 0.0152428 1.2000000
v -1.7234742 0.0218290 1.2000000
v -1.7234742 0.0218290 11.6500000
v -0.3249775 0.0152428 11.6500000
v -0.3249289 0.0477428 6.4250000
v -1.7232167 0.0543280 6.4250000
v 0.3249289 0.0477428 6.4250000
v 1.7232167 0.0543280 6.4250000
v 1.7234742 0.0218290 1.2000000
v 0.3249775 0.0152428 1.2000000
v 0.3249775 0.0152428 11.6500000
v 1.7234742 0.0218290 11.6500000
v 1.7232167 0.0543280 6.4250000
v 0.3249289 0.0477428 6.4250000
v 1.7232167 0.0543280 6.4250000
v 3.1214332 0.0699045 6.4250000
v 3.1218997 0.0374079 1.2000000
v 1.7234742 0.0218290 1.2000000
v 1.7234742 0.0218290 11.6500000
v 3.1218997 0.0374079 11.6500000
v 3.1214332 0.0699045 6.4250000
v 1.7232167 0.0543280 6.4250000
v -3.1095548 0.8973193 -7.1750000
v -1.0365499 0.8774800 -7.1750000
v -1.0365499 0.8774800 -7.2250000
v -3.1095548 0.8973193 -7.2250000
v -1.0365499 0.8774800 -7.1750000
v 1.0365499 0.8774800 -7.1750000
v 1.0365499 0.8774800 -7.2250000
v -1.0365499 0.8774800 -7.2250000
v 1.0365499 0.8774800 -7.1750000
v 3.1095548 0.8973193 -7.1750000
v 3.1095548 0.8973193 -7.2250000
v 1.0365499 0.8774800 -7.2250000
v -3.1095548 0.8973193 7.2250000
v -1.0365499 0.8774800 7.2250000
v -1.0365499 0.8774800 7.1750000
v -3.1095548 0.8973193 7.1750000
v -1.0365499 0.8774800 7.2250000
v 1.0365499 0.8774800 7.2250000
v 1.0365499 0.8774800 7.1750000
v -1.0365499 0.8774800 7.1750000
v 1.0365499 0.8774800 7.2250000
v 3.1095548 0.8973193 7.2250000
v 3.1095548 0.8973193 7.1750000
v 1.0365499 0.8774800 7.1750000
vt 0.005000 0.995000
vt 0.245000 0.995000
vt 0.245000 0.755000
vt 0.255000 0.995000
vt 0.495000 0.995000
vt 0.495000 0.755000
vt 0.505000 0.995000
vt 0.745000 0.995000
vt 0.745000 0.755000
vt 0.755000 0.995000
vt 0.995000 0.995000
vt 0.995000 0.755000
vt 0.005000 0.745000
vt 0.245000 0.745000
vt 0.245000 0.505000
vt 0.255000 0.745000
vt 0.495000 0.745000
vt 0.495000 0.505000
vt 0.505000 0.745000
vt 0.745000 0.745000
vt 0.745000 0.505000
vt 0.755000 0.745000
vt 0.995000 0.745000
vt 0.995000 0.505000
vt 0.005000 0.495000
vt 0.245000 0.495000
vt 0.245000 0.255000
vt 0.255000 0.495000
vt 0.495000 0.495000
vt 0.495000 0.255000
vt 0.505000 0.495000
vt 0.745000 0.495000
vt 0.745000 0.255000
vt 0.755000 0.495000
vt 0.995000 0.495000
vt 0.995000 0.255000
vt 0.005000 0.245000
vt 0.245000 0.245000
vt 0.245000 0.005000
vt 0.255000 0.245000
vt 0.495000 0.245000
vt 0.495000 0.005000
vt 0.505000 0.245000
vt 0.745000 0.245000
vt 0.745000 0.005000
vt 0.755000 0.245000
vt 0.995000 0.245000
vt 0.995000 0.005000
g lighting
usemtl farm-kit
f 493/43 494/44 495/45
f 493/43 495/44 496/45
f 497/43 498/44 499/45
f 497/43 499/44 500/45
f 501/43 502/44 503/45
f 501/43 503/44 504/45
f 505/43 506/44 507/45
f 505/43 507/44 508/45
f 509/43 510/44 511/45
f 509/43 511/44 512/45
f 513/43 514/44 515/45
f 513/43 515/44 516/45
g ornament
usemtl farm-kit
f 73/31 74/32 75/33
f 73/31 75/32 76/33
f 77/31 78/32 79/33
f 77/31 79/32 80/33
f 81/31 82/32 83/33
f 81/31 83/32 84/33
f 85/31 86/32 87/33
f 85/31 87/32 88/33
f 117/31 118/32 119/33
f 117/31 119/32 120/33
f 121/31 122/32 123/33
f 121/31 123/32 124/33
f 125/31 126/32 127/33
f 125/31 127/32 128/33
f 129/31 130/32 131/33
f 129/31 131/32 132/33
f 141/28 142/29 143/30
f 141/28 143/29 144/30
f 145/28 146/29 147/30
f 145/28 147/29 148/30
f 149/28 150/29 151/30
f 149/28 151/29 152/30
f 153/28 154/29 155/30
f 153/28 155/29 156/30
f 157/28 158/29 159/30
f 157/28 159/29 160/30
f 161/34 162/35 163/36
f 161/34 163/35 164/36
f 165/34 166/35 167/36
f 165/34 167/35 168/36
f 169/34 170/35 171/36
f 169/34 171/35 172/36
f 173/34 174/35 175/36
f 173/34 175/35 176/36
f 177/34 178/35 179/36
f 177/34 179/35 180/36
f 181/28 182/29 183/30
f 181/28 183/29 184/30
f 185/28 186/29 187/30
f 185/28 187/29 188/30
f 189/28 190/29 191/30
f 189/28 191/29 192/30
f 193/28 194/29 195/30
f 193/28 195/29 196/30
f 197/28 198/29 199/30
f 197/28 199/29 200/30
f 201/34 202/35 203/36
f 201/34 203/35 204/36
f 205/34 206/35 207/36
f 205/34 207/35 208/36
f 209/34 210/35 211/36
f 209/34 211/35 212/36
f 213/34 214/35 215/36
f 213/34 215/35 216/36
f 217/34 218/35 219/36
f 217/34 219/35 220/36
f 221/28 222/29 223/30
f 221/28 223/29 224/30
f 225/28 226/29 227/30
f 225/28 227/29 228/30
f 229/28 230/29 231/30
f 229/28 231/29 232/30
f 233/28 234/29 235/30
f 233/28 235/29 236/30
f 237/28 238/29 239/30
f 237/28 239/29 240/30
f 241/34 242/35 243/36
f 241/34 243/35 244/36
f 245/34 246/35 247/36
f 245/34 247/35 248/36
f 249/34 250/35 251/36
f 249/34 251/35 252/36
f 253/34 254/35 255/36
f 253/34 255/35 256/36
f 257/34 258/35 259/36
f 257/34 259/35 260/36
f 261/28 262/29 263/30
f 261/28 263/29 264/30
f 265/28 266/29 267/30
f 265/28 267/29 268/30
f 269/28 270/29 271/30
f 269/28 271/29 272/30
f 273/28 274/29 275/30
f 273/28 275/29 276/30
f 277/28 278/29 279/30
f 277/28 279/29 280/30
f 281/34 282/35 283/36
f 281/34 283/35 284/36
f 285/34 286/35 287/36
f 285/34 287/35 288/36
f 289/34 290/35 291/36
f 289/34 291/35 292/36
f 293/34 294/35 295/36
f 293/34 295/35 296/36
f 297/34 298/35 299/36
f 297/34 299/35 300/36
f 301/28 302/29 303/30
f 301/28 303/29 304/30
f 305/28 306/29 307/30
f 305/28 307/29 308/30
f 309/28 310/29 311/30
f 309/28 311/29 312/30
f 313/28 314/29 315/30
f 313/28 315/29 316/30
f 317/28 318/29 319/30
f 317/28 319/29 320/30
f 321/34 322/35 323/36
f 321/34 323/35 324/36
f 325/34 326/35 327/36
f 325/34 327/35 328/36
f 329/34 330/35 331/36
f 329/34 331/35 332/36
f 333/34 334/35 335/36
f 333/34 335/35 336/36
f 337/34 338/35 339/36
f 337/34 339/35 340/36
f 341/28 342/29 343/30
f 341/28 343/29 344/30
f 345/28 346/29 347/30
f 345/28 347/29 348/30
f 349/28 350/29 351/30
f 349/28 351/29 352/30
f 353/28 354/29 355/30
f 353/28 355/29 356/30
f 357/28 358/29 359/30
f 357/28 359/29 360/30
f 361/34 362/35 363/36
f 361/34 363/35 364/36
f 365/34 366/35 367/36
f 365/34 367/35 368/36
f 369/34 370/35 371/36
f 369/34 371/35 372/36
f 373/34 374/35 375/36
f 373/34 375/35 376/36
f 377/34 378/35 379/36
f 377/34 379/35 380/36
f 381/28 382/29 383/30
f 381/28 383/29 384/30
f 385/28 386/29 387/30
f 385/28 387/29 388/30
f 389/28 390/29 391/30
f 389/28 391/29 392/30
f 393/28 394/29 395/30
f 393/28 395/29 396/30
f 397/28 398/29 399/30
f 397/28 399/29 400/30
f 401/34 402/35 403/36
f 401/34 403/35 404/36
f 405/34 406/35 407/36
f 405/34 407/35 408/36
f 409/34 410/35 411/36
f 409/34 411/35 412/36
f 413/34 414/35 415/36
f 413/34 415/35 416/36
f 417/34 418/35 419/36
f 417/34 419/35 420/36
f 421/28 422/29 423/30
f 421/28 423/29 424/30
f 425/28 426/29 427/30
f 425/28 427/29 428/30
f 429/28 430/29 431/30
f 429/28 431/29 432/30
f 433/28 434/29 435/30
f 433/28 435/29 436/30
f 437/28 438/29 439/30
f 437/28 439/29 440/30
f 441/34 442/35 443/36
f 441/34 443/35 444/36
f 445/34 446/35 447/36
f 445/34 447/35 448/36
f 449/34 450/35 451/36
f 449/34 451/35 452/36
f 453/34 454/35 455/36
f 453/34 455/35 456/36
f 457/34 458/35 459/36
f 457/34 459/35 460/36
f 461/13 462/14 463/15
f 461/13 463/14 464/15
f 465/13 466/14 467/15
f 465/13 467/14 468/15
f 469/13 470/14 471/15
f 469/13 471/14 472/15
f 473/13 474/14 475/15
f 473/13 475/14 476/15
f 477/13 478/14 479/15
f 477/13 479/14 480/15
f 481/13 482/14 483/15
f 481/13 483/14 484/15
f 485/13 486/14 487/15
f 485/13 487/14 488/15
f 489/13 490/14 491/15
f 489/13 491/14 492/15
g solid
usemtl farm-kit
f 53/28 54/29 55/30
f 53/28 55/29 56/30
f 57/28 58/29 59/30
f 57/28 59/29 60/30
f 61/28 62/29 63/30
f 61/28 63/29 64/30
f 65/28 66/29 67/30
f 65/28 67/29 68/30
f 69/28 70/29 71/30
f 69/28 71/29 72/30
f 97/28 98/29 99/30
f 97/28 99/29 100/30
f 101/28 102/29 103/30
f 101/28 103/29 104/30
f 105/28 106/29 107/30
f 105/28 107/29 108/30
f 109/28 110/29 111/30
f 109/28 111/29 112/30
f 113/28 114/29 115/30
f 113/28 115/29 116/30
g support
usemtl farm-kit
f 1/1 2/2 3/3
f 1/1 3/2 4/3
f 5/1 6/2 7/3
f 5/1 7/2 8/3
f 9/1 10/2 11/3
f 9/1 11/2 12/3
f 13/1 14/2 15/3
f 13/1 15/2 16/3
f 17/4 18/5 19/6
f 17/4 19/5 20/6
f 21/4 22/5 23/6
f 21/4 23/5 24/6
f 25/4 26/5 27/6
f 25/4 27/5 28/6
f 29/4 30/5 31/6
f 29/4 31/5 32/6
f 33/4 34/5 35/6
f 33/4 35/5 36/6
f 37/4 38/5 39/6
f 37/4 39/5 40/6
f 41/4 42/5 43/6
f 41/4 43/5 44/6
f 45/4 46/5 47/6
f 45/4 47/5 48/6
f 49/4 50/5 51/6
f 49/4 51/5 52/6
f 89/4 90/5 91/6
f 89/4 91/5 92/6
f 93/4 94/5 95/6
f 93/4 95/5 96/6
f 133/4 134/5 135/6
f 133/4 135/5 136/6
f 137/4 138/5 139/6
f 137/4 139/5 140/6
