mtllib TorusAgri_AquacultureA.mtl
o TorusAgri_AquacultureA
usemtl TorusAgricultureKit
s off
v -0.138191 0.032500 0.129156
v -0.112500 0.032500 0.000000
v -0.112500 0.337500 0.000000
v -0.138191 0.337500 0.129156
v -0.145000 0.032500 0.000000
v -0.168217 0.032500 0.116718
v -0.168217 0.337500 0.116718
v -0.145000 0.337500 0.000000
v -0.450000 0.280000 0.000000
v -0.168217 0.280000 0.116718
v -0.145000 0.280000 0.000000
v -0.211351 0.032500 0.238649
v -0.211351 0.337500 0.238649
v -0.234332 0.032500 0.215668
v -0.234332 0.337500 0.215668
v -0.234332 0.280000 0.215668
v -0.320844 0.032500 0.311809
v -0.320844 0.337500 0.311809
v -0.333282 0.032500 0.281783
v -0.333282 0.337500 0.281783
v -0.333282 0.280000 0.281783
v -0.450000 0.032500 0.337500
v -0.450000 0.337500 0.337500
v -0.450000 0.032500 0.305000
v -0.450000 0.337500 0.305000
v -0.450000 0.280000 0.305000
v -0.579156 0.032500 0.311809
v -0.579156 0.337500 0.311809
v -0.566718 0.032500 0.281783
v -0.566718 0.337500 0.281783
v -0.566718 0.280000 0.281783
v -0.688649 0.032500 0.238649
v -0.688649 0.337500 0.238649
v -0.665668 0.032500 0.215668
v -0.665668 0.337500 0.215668
v -0.665668 0.280000 0.215668
v -0.761809 0.032500 0.129156
v -0.761809 0.337500 0.129156
v -0.731783 0.032500 0.116718
v -0.731783 0.337500 0.116718
v -0.731783 0.280000 0.116718
v -0.787500 0.032500 0.000000
v -0.787500 0.337500 0.000000
v -0.755000 0.032500 0.000000
v -0.755000 0.337500 0.000000
v -0.755000 0.280000 0.000000
v -0.761809 0.032500 -0.129156
v -0.761809 0.337500 -0.129156
v -0.731783 0.032500 -0.116718
v -0.731783 0.337500 -0.116718
v -0.731783 0.280000 -0.116718
v -0.688649 0.032500 -0.238649
v -0.688649 0.337500 -0.238649
v -0.665668 0.032500 -0.215668
v -0.665668 0.337500 -0.215668
v -0.665668 0.280000 -0.215668
v -0.579156 0.032500 -0.311809
v -0.579156 0.337500 -0.311809
v -0.566718 0.032500 -0.281783
v -0.566718 0.337500 -0.281783
v -0.566718 0.280000 -0.281783
v -0.450000 0.032500 -0.337500
v -0.450000 0.337500 -0.337500
v -0.450000 0.032500 -0.305000
v -0.450000 0.337500 -0.305000
v -0.450000 0.280000 -0.305000
v -0.320844 0.032500 -0.311809
v -0.320844 0.337500 -0.311809
v -0.333282 0.032500 -0.281783
v -0.333282 0.337500 -0.281783
v -0.333282 0.280000 -0.281783
v -0.211351 0.032500 -0.238649
v -0.211351 0.337500 -0.238649
v -0.234332 0.032500 -0.215668
v -0.234332 0.337500 -0.215668
v -0.234332 0.280000 -0.215668
v -0.138191 0.032500 -0.129156
v -0.138191 0.337500 -0.129156
v -0.168217 0.032500 -0.116718
v -0.168217 0.337500 -0.116718
v -0.168217 0.280000 -0.116718
v -0.807500 0.000000 -0.357500
v -0.092500 0.000000 -0.357500
v -0.092500 0.032500 -0.357500
v -0.807500 0.032500 -0.357500
v -0.807500 0.000000 0.357500
v -0.092500 0.000000 0.357500
v -0.092500 0.032500 0.357500
v -0.807500 0.032500 0.357500
v -0.467500 0.387500 -0.250000
v -0.462374 0.375126 -0.250000
v -0.462374 0.375126 0.000000
v -0.467500 0.387500 0.000000
v -0.450000 0.387500 -0.250000
v -0.450000 0.387500 0.000000
v -0.450000 0.370000 -0.250000
v -0.450000 0.370000 0.000000
v -0.437626 0.375126 -0.250000
v -0.437626 0.375126 0.000000
v -0.432500 0.387500 -0.250000
v -0.432500 0.387500 0.000000
v -0.437626 0.399874 -0.250000
v -0.437626 0.399874 0.000000
v -0.450000 0.405000 -0.250000
v -0.450000 0.405000 0.000000
v -0.462374 0.399874 -0.250000
v -0.462374 0.399874 0.000000
v -0.462374 0.387500 -0.012374
v -0.462374 0.262500 -0.012374
v -0.467500 0.262500 0.000000
v -0.450000 0.262500 0.000000
v -0.450000 0.387500 -0.017500
v -0.450000 0.262500 -0.017500
v -0.437626 0.387500 -0.012374
v -0.437626 0.262500 -0.012374
v -0.432500 0.262500 -0.000000
v -0.437626 0.387500 0.012374
v -0.437626 0.262500 0.012374
v -0.450000 0.387500 0.017500
v -0.450000 0.262500 0.017500
v -0.462374 0.387500 0.012374
v -0.462374 0.262500 0.012374
v 0.761809 0.032500 0.129156
v 0.787500 0.032500 0.000000
v 0.787500 0.337500 0.000000
v 0.761809 0.337500 0.129156
v 0.755000 0.032500 0.000000
v 0.731783 0.032500 0.116718
v 0.731783 0.337500 0.116718
v 0.755000 0.337500 0.000000
v 0.450000 0.280000 0.000000
v 0.731783 0.280000 0.116718
v 0.755000 0.280000 0.000000
v 0.688649 0.032500 0.238649
v 0.688649 0.337500 0.238649
v 0.665668 0.032500 0.215668
v 0.665668 0.337500 0.215668
v 0.665668 0.280000 0.215668
v 0.579156 0.032500 0.311809
v 0.579156 0.337500 0.311809
v 0.566718 0.032500 0.281783
v 0.566718 0.337500 0.281783
v 0.566718 0.280000 0.281783
v 0.450000 0.032500 0.337500
v 0.450000 0.337500 0.337500
v 0.450000 0.032500 0.305000
v 0.450000 0.337500 0.305000
v 0.450000 0.280000 0.305000
v 0.320844 0.032500 0.311809
v 0.320844 0.337500 0.311809
v 0.333282 0.032500 0.281783
v 0.333282 0.337500 0.281783
v 0.333282 0.280000 0.281783
v 0.211351 0.032500 0.238649
v 0.211351 0.337500 0.238649
v 0.234332 0.032500 0.215668
v 0.234332 0.337500 0.215668
v 0.234332 0.280000 0.215668
v 0.138191 0.032500 0.129156
v 0.138191 0.337500 0.129156
v 0.168217 0.032500 0.116718
v 0.168217 0.337500 0.116718
v 0.168217 0.280000 0.116718
v 0.112500 0.032500 0.000000
v 0.112500 0.337500 0.000000
v 0.145000 0.032500 0.000000
v 0.145000 0.337500 0.000000
v 0.145000 0.280000 0.000000
v 0.138191 0.032500 -0.129156
v 0.138191 0.337500 -0.129156
v 0.168217 0.032500 -0.116718
v 0.168217 0.337500 -0.116718
v 0.168217 0.280000 -0.116718
v 0.211351 0.032500 -0.238649
v 0.211351 0.337500 -0.238649
v 0.234332 0.032500 -0.215668
v 0.234332 0.337500 -0.215668
v 0.234332 0.280000 -0.215668
v 0.320844 0.032500 -0.311809
v 0.320844 0.337500 -0.311809
v 0.333282 0.032500 -0.281783
v 0.333282 0.337500 -0.281783
v 0.333282 0.280000 -0.281783
v 0.450000 0.032500 -0.337500
v 0.450000 0.337500 -0.337500
v 0.450000 0.032500 -0.305000
v 0.450000 0.337500 -0.305000
v 0.450000 0.280000 -0.305000
v 0.579156 0.032500 -0.311809
v 0.579156 0.337500 -0.311809
v 0.566718 0.032500 -0.281783
v 0.566718 0.337500 -0.281783
v 0.566718 0.280000 -0.281783
v 0.688649 0.032500 -0.238649
v 0.688649 0.337500 -0.238649
v 0.665668 0.032500 -0.215668
v 0.665668 0.337500 -0.215668
v 0.665668 0.280000 -0.215668
v 0.761809 0.032500 -0.129156
v 0.761809 0.337500 -0.129156
v 0.731783 0.032500 -0.116718
v 0.731783 0.337500 -0.116718
v 0.731783 0.280000 -0.116718
v 0.092500 0.000000 -0.357500
v 0.807500 0.000000 -0.357500
v 0.807500 0.032500 -0.357500
v 0.092500 0.032500 -0.357500
v 0.092500 0.000000 0.357500
v 0.807500 0.000000 0.357500
v 0.807500 0.032500 0.357500
v 0.092500 0.032500 0.357500
v 0.432500 0.387500 -0.250000
v 0.437626 0.375126 -0.250000
v 0.437626 0.375126 0.000000
v 0.432500 0.387500 0.000000
v 0.450000 0.387500 -0.250000
v 0.450000 0.387500 0.000000
v 0.450000 0.370000 -0.250000
v 0.450000 0.370000 0.000000
v 0.462374 0.375126 -0.250000
v 0.462374 0.375126 0.000000
v 0.467500 0.387500 -0.250000
v 0.467500 0.387500 0.000000
v 0.462374 0.399874 -0.250000
v 0.462374 0.399874 0.000000
v 0.450000 0.405000 -0.250000
v 0.450000 0.405000 0.000000
v 0.437626 0.399874 -0.250000
v 0.437626 0.399874 0.000000
v 0.437626 0.387500 -0.012374
v 0.437626 0.262500 -0.012374
v 0.432500 0.262500 0.000000
v 0.450000 0.262500 0.000000
v 0.450000 0.387500 -0.017500
v 0.450000 0.262500 -0.017500
v 0.462374 0.387500 -0.012374
v 0.462374 0.262500 -0.012374
v 0.467500 0.262500 -0.000000
v 0.462374 0.387500 0.012374
v 0.462374 0.262500 0.012374
v 0.450000 0.387500 0.017500
v 0.450000 0.262500 0.017500
v 0.437626 0.387500 0.012374
v 0.437626 0.262500 0.012374
v -0.450000 0.387500 -0.227500
v -0.450000 0.371590 -0.234090
v 0.450000 0.371590 -0.234090
v 0.450000 0.387500 -0.227500
v -0.450000 0.365000 -0.250000
v 0.450000 0.365000 -0.250000
v -0.450000 0.371590 -0.265910
v 0.450000 0.371590 -0.265910
v -0.450000 0.387500 -0.272500
v 0.450000 0.387500 -0.272500
v -0.450000 0.403410 -0.265910
v 0.450000 0.403410 -0.265910
v -0.450000 0.410000 -0.250000
v 0.450000 0.410000 -0.250000
v -0.450000 0.403410 -0.234090
v 0.450000 0.403410 -0.234090
v -0.143750 0.000000 -0.575000
v 0.143750 0.000000 -0.575000
v 0.143750 0.030000 -0.575000
v -0.143750 0.030000 -0.575000
v -0.143750 0.000000 -0.400000
v 0.143750 0.000000 -0.400000
v 0.143750 0.030000 -0.400000
v -0.143750 0.030000 -0.400000
v 0.080000 0.030000 -0.487500
v 0.064721 0.030000 -0.534523
v 0.064721 0.337500 -0.534523
v 0.080000 0.337500 -0.487500
v 0.000000 0.030000 -0.487500
v 0.000000 0.337500 -0.487500
v 0.024721 0.030000 -0.563585
v 0.024721 0.337500 -0.563585
v -0.024721 0.030000 -0.563585
v -0.024721 0.337500 -0.563585
v -0.064721 0.030000 -0.534523
v -0.064721 0.337500 -0.534523
v -0.080000 0.030000 -0.487500
v -0.080000 0.337500 -0.487500
v -0.064721 0.030000 -0.440477
v -0.064721 0.337500 -0.440477
v -0.024721 0.030000 -0.411415
v -0.024721 0.337500 -0.411415
v 0.024721 0.030000 -0.411415
v 0.024721 0.337500 -0.411415
v 0.064721 0.030000 -0.440477
v 0.064721 0.337500 -0.440477
v -0.017500 0.337500 -0.487500
v -0.012374 0.325391 -0.484951
v -0.012374 0.375391 -0.247451
v -0.017500 0.387500 -0.250000
v 0.000000 0.387500 -0.250000
v -0.000000 0.320375 -0.483895
v -0.000000 0.370375 -0.246395
v 0.012374 0.325391 -0.484951
v 0.012374 0.375391 -0.247451
v 0.017500 0.337500 -0.487500
v 0.017500 0.387500 -0.250000
v 0.012374 0.349609 -0.490049
v 0.012374 0.399609 -0.252549
v 0.000000 0.354625 -0.491105
v 0.000000 0.404625 -0.253605
v -0.012374 0.349609 -0.490049
v -0.012374 0.399609 -0.252549
vt 0.015625 0.765625
vt 0.234375 0.765625
vt 0.234375 0.984375
vt 0.015625 0.984375
vt 0.765625 0.765625
vt 0.984375 0.765625
vt 0.984375 0.984375
vt 0.765625 0.984375
vt 0.265625 0.765625
vt 0.484375 0.765625
vt 0.484375 0.984375
vt 0.265625 0.984375
vt 0.515625 0.265625
vt 0.734375 0.265625
vt 0.734375 0.484375
vt 0.015625 0.765625
vt 0.234375 0.765625
vt 0.234375 0.984375
vt 0.015625 0.984375
vt 0.765625 0.765625
vt 0.984375 0.765625
vt 0.984375 0.984375
vt 0.765625 0.984375
vt 0.265625 0.765625
vt 0.484375 0.765625
vt 0.484375 0.984375
vt 0.265625 0.984375
vt 0.515625 0.265625
vt 0.734375 0.265625
vt 0.734375 0.484375
vt 0.015625 0.765625
vt 0.234375 0.765625
vt 0.234375 0.984375
vt 0.015625 0.984375
vt 0.765625 0.765625
vt 0.984375 0.765625
vt 0.984375 0.984375
vt 0.765625 0.984375
vt 0.265625 0.765625
vt 0.484375 0.765625
vt 0.484375 0.984375
vt 0.265625 0.984375
vt 0.515625 0.265625
vt 0.734375 0.265625
vt 0.734375 0.484375
vt 0.015625 0.765625
vt 0.234375 0.765625
vt 0.234375 0.984375
vt 0.015625 0.984375
vt 0.765625 0.765625
vt 0.984375 0.765625
vt 0.984375 0.984375
vt 0.765625 0.984375
vt 0.265625 0.765625
vt 0.484375 0.765625
vt 0.484375 0.984375
vt 0.265625 0.984375
vt 0.515625 0.265625
vt 0.734375 0.265625
vt 0.734375 0.484375
vt 0.015625 0.765625
vt 0.234375 0.765625
vt 0.234375 0.984375
vt 0.015625 0.984375
vt 0.765625 0.765625
vt 0.984375 0.765625
vt 0.984375 0.984375
vt 0.765625 0.984375
vt 0.265625 0.765625
vt 0.484375 0.765625
vt 0.484375 0.984375
vt 0.265625 0.984375
vt 0.515625 0.265625
vt 0.734375 0.265625
vt 0.734375 0.484375
vt 0.015625 0.765625
vt 0.234375 0.765625
vt 0.234375 0.984375
vt 0.015625 0.984375
vt 0.765625 0.765625
vt 0.984375 0.765625
vt 0.984375 0.984375
vt 0.765625 0.984375
vt 0.265625 0.765625
vt 0.484375 0.765625
vt 0.484375 0.984375
vt 0.265625 0.984375
vt 0.515625 0.265625
vt 0.734375 0.265625
vt 0.734375 0.484375
vt 0.015625 0.765625
vt 0.234375 0.765625
vt 0.234375 0.984375
vt 0.015625 0.984375
vt 0.765625 0.765625
vt 0.984375 0.765625
vt 0.984375 0.984375
vt 0.765625 0.984375
vt 0.265625 0.765625
vt 0.484375 0.765625
vt 0.484375 0.984375
vt 0.265625 0.984375
vt 0.515625 0.265625
vt 0.734375 0.265625
vt 0.734375 0.484375
vt 0.015625 0.765625
vt 0.234375 0.765625
vt 0.234375 0.984375
vt 0.015625 0.984375
vt 0.765625 0.765625
vt 0.984375 0.765625
vt 0.984375 0.984375
vt 0.765625 0.984375
vt 0.265625 0.765625
vt 0.484375 0.765625
vt 0.484375 0.984375
vt 0.265625 0.984375
vt 0.515625 0.265625
vt 0.734375 0.265625
vt 0.734375 0.484375
vt 0.015625 0.765625
vt 0.234375 0.765625
vt 0.234375 0.984375
vt 0.015625 0.984375
vt 0.765625 0.765625
vt 0.984375 0.765625
vt 0.984375 0.984375
vt 0.765625 0.984375
vt 0.265625 0.765625
vt 0.484375 0.765625
vt 0.484375 0.984375
vt 0.265625 0.984375
vt 0.515625 0.265625
vt 0.734375 0.265625
vt 0.734375 0.484375
vt 0.015625 0.765625
vt 0.234375 0.765625
vt 0.234375 0.984375
vt 0.015625 0.984375
vt 0.765625 0.765625
vt 0.984375 0.765625
vt 0.984375 0.984375
vt 0.765625 0.984375
vt 0.265625 0.765625
vt 0.484375 0.765625
vt 0.484375 0.984375
vt 0.265625 0.984375
vt 0.515625 0.265625
vt 0.734375 0.265625
vt 0.734375 0.484375
vt 0.015625 0.765625
vt 0.234375 0.765625
vt 0.234375 0.984375
vt 0.015625 0.984375
vt 0.765625 0.765625
vt 0.984375 0.765625
vt 0.984375 0.984375
vt 0.765625 0.984375
vt 0.265625 0.765625
vt 0.484375 0.765625
vt 0.484375 0.984375
vt 0.265625 0.984375
vt 0.515625 0.265625
vt 0.734375 0.265625
vt 0.734375 0.484375
vt 0.015625 0.765625
vt 0.234375 0.765625
vt 0.234375 0.984375
vt 0.015625 0.984375
vt 0.765625 0.765625
vt 0.984375 0.765625
vt 0.984375 0.984375
vt 0.765625 0.984375
vt 0.265625 0.765625
vt 0.484375 0.765625
vt 0.484375 0.984375
vt 0.265625 0.984375
vt 0.515625 0.265625
vt 0.734375 0.265625
vt 0.734375 0.484375
vt 0.015625 0.765625
vt 0.234375 0.765625
vt 0.234375 0.984375
vt 0.015625 0.984375
vt 0.765625 0.765625
vt 0.984375 0.765625
vt 0.984375 0.984375
vt 0.765625 0.984375
vt 0.265625 0.765625
vt 0.484375 0.765625
vt 0.484375 0.984375
vt 0.265625 0.984375
vt 0.515625 0.265625
vt 0.734375 0.265625
vt 0.734375 0.484375
vt 0.015625 0.765625
vt 0.234375 0.765625
vt 0.234375 0.984375
vt 0.015625 0.984375
vt 0.765625 0.765625
vt 0.984375 0.765625
vt 0.984375 0.984375
vt 0.765625 0.984375
vt 0.265625 0.765625
vt 0.484375 0.765625
vt 0.484375 0.984375
vt 0.265625 0.984375
vt 0.515625 0.265625
vt 0.734375 0.265625
vt 0.734375 0.484375
vt 0.015625 0.765625
vt 0.234375 0.765625
vt 0.234375 0.984375
vt 0.015625 0.984375
vt 0.765625 0.765625
vt 0.984375 0.765625
vt 0.984375 0.984375
vt 0.765625 0.984375
vt 0.265625 0.765625
vt 0.484375 0.765625
vt 0.484375 0.984375
vt 0.265625 0.984375
vt 0.515625 0.265625
vt 0.734375 0.265625
vt 0.734375 0.484375
vt 0.015625 0.765625
vt 0.234375 0.765625
vt 0.234375 0.984375
vt 0.015625 0.984375
vt 0.765625 0.765625
vt 0.984375 0.765625
vt 0.984375 0.984375
vt 0.765625 0.984375
vt 0.265625 0.765625
vt 0.484375 0.765625
vt 0.484375 0.984375
vt 0.265625 0.984375
vt 0.515625 0.265625
vt 0.734375 0.265625
vt 0.734375 0.484375
vt 0.765625 0.015625
vt 0.984375 0.015625
vt 0.984375 0.234375
vt 0.765625 0.234375
vt 0.765625 0.015625
vt 0.984375 0.015625
vt 0.984375 0.234375
vt 0.765625 0.234375
vt 0.765625 0.015625
vt 0.984375 0.015625
vt 0.984375 0.234375
vt 0.765625 0.234375
vt 0.765625 0.015625
vt 0.984375 0.015625
vt 0.984375 0.234375
vt 0.765625 0.234375
vt 0.765625 0.015625
vt 0.984375 0.015625
vt 0.984375 0.234375
vt 0.765625 0.234375
vt 0.765625 0.015625
vt 0.984375 0.015625
vt 0.984375 0.234375
vt 0.765625 0.234375
vt 0.765625 0.765625
vt 0.984375 0.765625
vt 0.984375 0.984375
vt 0.765625 0.984375
vt 0.765625 0.765625
vt 0.984375 0.765625
vt 0.984375 0.984375
vt 0.765625 0.765625
vt 0.984375 0.765625
vt 0.984375 0.984375
vt 0.765625 0.765625
vt 0.984375 0.765625
vt 0.984375 0.984375
vt 0.765625 0.984375
vt 0.765625 0.765625
vt 0.984375 0.765625
vt 0.984375 0.984375
vt 0.765625 0.765625
vt 0.984375 0.765625
vt 0.984375 0.984375
vt 0.765625 0.765625
vt 0.984375 0.765625
vt 0.984375 0.984375
vt 0.765625 0.984375
vt 0.765625 0.765625
vt 0.984375 0.765625
vt 0.984375 0.984375
vt 0.765625 0.765625
vt 0.984375 0.765625
vt 0.984375 0.984375
vt 0.765625 0.765625
vt 0.984375 0.765625
vt 0.984375 0.984375
vt 0.765625 0.984375
vt 0.765625 0.765625
vt 0.984375 0.765625
vt 0.984375 0.984375
vt 0.765625 0.765625
vt 0.984375 0.765625
vt 0.984375 0.984375
vt 0.765625 0.765625
vt 0.984375 0.765625
vt 0.984375 0.984375
vt 0.765625 0.984375
vt 0.765625 0.765625
vt 0.984375 0.765625
vt 0.984375 0.984375
vt 0.765625 0.765625
vt 0.984375 0.765625
vt 0.984375 0.984375
vt 0.765625 0.765625
vt 0.984375 0.765625
vt 0.984375 0.984375
vt 0.765625 0.984375
vt 0.765625 0.765625
vt 0.984375 0.765625
vt 0.984375 0.984375
vt 0.765625 0.765625
vt 0.984375 0.765625
vt 0.984375 0.984375
vt 0.765625 0.765625
vt 0.984375 0.765625
vt 0.984375 0.984375
vt 0.765625 0.984375
vt 0.765625 0.765625
vt 0.984375 0.765625
vt 0.984375 0.984375
vt 0.765625 0.765625
vt 0.984375 0.765625
vt 0.984375 0.984375
vt 0.765625 0.765625
vt 0.984375 0.765625
vt 0.984375 0.984375
vt 0.765625 0.984375
vt 0.765625 0.765625
vt 0.984375 0.765625
vt 0.984375 0.984375
vt 0.765625 0.765625
vt 0.984375 0.765625
vt 0.984375 0.984375
vt 0.765625 0.765625
vt 0.984375 0.765625
vt 0.984375 0.984375
vt 0.765625 0.984375
vt 0.765625 0.765625
vt 0.984375 0.765625
vt 0.984375 0.984375
vt 0.765625 0.765625
vt 0.984375 0.765625
vt 0.984375 0.984375
vt 0.765625 0.765625
vt 0.984375 0.765625
vt 0.984375 0.984375
vt 0.765625 0.984375
vt 0.765625 0.765625
vt 0.984375 0.765625
vt 0.984375 0.984375
vt 0.765625 0.765625
vt 0.984375 0.765625
vt 0.984375 0.984375
vt 0.765625 0.765625
vt 0.984375 0.765625
vt 0.984375 0.984375
vt 0.765625 0.984375
vt 0.765625 0.765625
vt 0.984375 0.765625
vt 0.984375 0.984375
vt 0.765625 0.765625
vt 0.984375 0.765625
vt 0.984375 0.984375
vt 0.765625 0.765625
vt 0.984375 0.765625
vt 0.984375 0.984375
vt 0.765625 0.984375
vt 0.765625 0.765625
vt 0.984375 0.765625
vt 0.984375 0.984375
vt 0.765625 0.765625
vt 0.984375 0.765625
vt 0.984375 0.984375
vt 0.765625 0.765625
vt 0.984375 0.765625
vt 0.984375 0.984375
vt 0.765625 0.984375
vt 0.765625 0.765625
vt 0.984375 0.765625
vt 0.984375 0.984375
vt 0.765625 0.765625
vt 0.984375 0.765625
vt 0.984375 0.984375
vt 0.765625 0.765625
vt 0.984375 0.765625
vt 0.984375 0.984375
vt 0.765625 0.984375
vt 0.765625 0.765625
vt 0.984375 0.765625
vt 0.984375 0.984375
vt 0.765625 0.765625
vt 0.984375 0.765625
vt 0.984375 0.984375
vt 0.765625 0.765625
vt 0.984375 0.765625
vt 0.984375 0.984375
vt 0.765625 0.984375
vt 0.765625 0.765625
vt 0.984375 0.765625
vt 0.984375 0.984375
vt 0.765625 0.765625
vt 0.984375 0.765625
vt 0.984375 0.984375
vt 0.765625 0.765625
vt 0.984375 0.765625
vt 0.984375 0.984375
vt 0.765625 0.984375
vt 0.765625 0.765625
vt 0.984375 0.765625
vt 0.984375 0.984375
vt 0.765625 0.765625
vt 0.984375 0.765625
vt 0.984375 0.984375
vt 0.015625 0.765625
vt 0.234375 0.765625
vt 0.234375 0.984375
vt 0.015625 0.984375
vt 0.765625 0.765625
vt 0.984375 0.765625
vt 0.984375 0.984375
vt 0.765625 0.984375
vt 0.265625 0.765625
vt 0.484375 0.765625
vt 0.484375 0.984375
vt 0.265625 0.984375
vt 0.515625 0.265625
vt 0.734375 0.265625
vt 0.734375 0.484375
vt 0.015625 0.765625
vt 0.234375 0.765625
vt 0.234375 0.984375
vt 0.015625 0.984375
vt 0.765625 0.765625
vt 0.984375 0.765625
vt 0.984375 0.984375
vt 0.765625 0.984375
vt 0.265625 0.765625
vt 0.484375 0.765625
vt 0.484375 0.984375
vt 0.265625 0.984375
vt 0.515625 0.265625
vt 0.734375 0.265625
vt 0.734375 0.484375
vt 0.015625 0.765625
vt 0.234375 0.765625
vt 0.234375 0.984375
vt 0.015625 0.984375
vt 0.765625 0.765625
vt 0.984375 0.765625
vt 0.984375 0.984375
vt 0.765625 0.984375
vt 0.265625 0.765625
vt 0.484375 0.765625
vt 0.484375 0.984375
vt 0.265625 0.984375
vt 0.515625 0.265625
vt 0.734375 0.265625
vt 0.734375 0.484375
vt 0.015625 0.765625
vt 0.234375 0.765625
vt 0.234375 0.984375
vt 0.015625 0.984375
vt 0.765625 0.765625
vt 0.984375 0.765625
vt 0.984375 0.984375
vt 0.765625 0.984375
vt 0.265625 0.765625
vt 0.484375 0.765625
vt 0.484375 0.984375
vt 0.265625 0.984375
vt 0.515625 0.265625
vt 0.734375 0.265625
vt 0.734375 0.484375
vt 0.015625 0.765625
vt 0.234375 0.765625
vt 0.234375 0.984375
vt 0.015625 0.984375
vt 0.765625 0.765625
vt 0.984375 0.765625
vt 0.984375 0.984375
vt 0.765625 0.984375
vt 0.265625 0.765625
vt 0.484375 0.765625
vt 0.484375 0.984375
vt 0.265625 0.984375
vt 0.515625 0.265625
vt 0.734375 0.265625
vt 0.734375 0.484375
vt 0.015625 0.765625
vt 0.234375 0.765625
vt 0.234375 0.984375
vt 0.015625 0.984375
vt 0.765625 0.765625
vt 0.984375 0.765625
vt 0.984375 0.984375
vt 0.765625 0.984375
vt 0.265625 0.765625
vt 0.484375 0.765625
vt 0.484375 0.984375
vt 0.265625 0.984375
vt 0.515625 0.265625
vt 0.734375 0.265625
vt 0.734375 0.484375
vt 0.015625 0.765625
vt 0.234375 0.765625
vt 0.234375 0.984375
vt 0.015625 0.984375
vt 0.765625 0.765625
vt 0.984375 0.765625
vt 0.984375 0.984375
vt 0.765625 0.984375
vt 0.265625 0.765625
vt 0.484375 0.765625
vt 0.484375 0.984375
vt 0.265625 0.984375
vt 0.515625 0.265625
vt 0.734375 0.265625
vt 0.734375 0.484375
vt 0.015625 0.765625
vt 0.234375 0.765625
vt 0.234375 0.984375
vt 0.015625 0.984375
vt 0.765625 0.765625
vt 0.984375 0.765625
vt 0.984375 0.984375
vt 0.765625 0.984375
vt 0.265625 0.765625
vt 0.484375 0.765625
vt 0.484375 0.984375
vt 0.265625 0.984375
vt 0.515625 0.265625
vt 0.734375 0.265625
vt 0.734375 0.484375
vt 0.015625 0.765625
vt 0.234375 0.765625
vt 0.234375 0.984375
vt 0.015625 0.984375
vt 0.765625 0.765625
vt 0.984375 0.765625
vt 0.984375 0.984375
vt 0.765625 0.984375
vt 0.265625 0.765625
vt 0.484375 0.765625
vt 0.484375 0.984375
vt 0.265625 0.984375
vt 0.515625 0.265625
vt 0.734375 0.265625
vt 0.734375 0.484375
vt 0.015625 0.765625
vt 0.234375 0.765625
vt 0.234375 0.984375
vt 0.015625 0.984375
vt 0.765625 0.765625
vt 0.984375 0.765625
vt 0.984375 0.984375
vt 0.765625 0.984375
vt 0.265625 0.765625
vt 0.484375 0.765625
vt 0.484375 0.984375
vt 0.265625 0.984375
vt 0.515625 0.265625
vt 0.734375 0.265625
vt 0.734375 0.484375
vt 0.015625 0.765625
vt 0.234375 0.765625
vt 0.234375 0.984375
vt 0.015625 0.984375
vt 0.765625 0.765625
vt 0.984375 0.765625
vt 0.984375 0.984375
vt 0.765625 0.984375
vt 0.265625 0.765625
vt 0.484375 0.765625
vt 0.484375 0.984375
vt 0.265625 0.984375
vt 0.515625 0.265625
vt 0.734375 0.265625
vt 0.734375 0.484375
vt 0.015625 0.765625
vt 0.234375 0.765625
vt 0.234375 0.984375
vt 0.015625 0.984375
vt 0.765625 0.765625
vt 0.984375 0.765625
vt 0.984375 0.984375
vt 0.765625 0.984375
vt 0.265625 0.765625
vt 0.484375 0.765625
vt 0.484375 0.984375
vt 0.265625 0.984375
vt 0.515625 0.265625
vt 0.734375 0.265625
vt 0.734375 0.484375
vt 0.015625 0.765625
vt 0.234375 0.765625
vt 0.234375 0.984375
vt 0.015625 0.984375
vt 0.765625 0.765625
vt 0.984375 0.765625
vt 0.984375 0.984375
vt 0.765625 0.984375
vt 0.265625 0.765625
vt 0.484375 0.765625
vt 0.484375 0.984375
vt 0.265625 0.984375
vt 0.515625 0.265625
vt 0.734375 0.265625
vt 0.734375 0.484375
vt 0.015625 0.765625
vt 0.234375 0.765625
vt 0.234375 0.984375
vt 0.015625 0.984375
vt 0.765625 0.765625
vt 0.984375 0.765625
vt 0.984375 0.984375
vt 0.765625 0.984375
vt 0.265625 0.765625
vt 0.484375 0.765625
vt 0.484375 0.984375
vt 0.265625 0.984375
vt 0.515625 0.265625
vt 0.734375 0.265625
vt 0.734375 0.484375
vt 0.015625 0.765625
vt 0.234375 0.765625
vt 0.234375 0.984375
vt 0.015625 0.984375
vt 0.765625 0.765625
vt 0.984375 0.765625
vt 0.984375 0.984375
vt 0.765625 0.984375
vt 0.265625 0.765625
vt 0.484375 0.765625
vt 0.484375 0.984375
vt 0.265625 0.984375
vt 0.515625 0.265625
vt 0.734375 0.265625
vt 0.734375 0.484375
vt 0.015625 0.765625
vt 0.234375 0.765625
vt 0.234375 0.984375
vt 0.015625 0.984375
vt 0.765625 0.765625
vt 0.984375 0.765625
vt 0.984375 0.984375
vt 0.765625 0.984375
vt 0.265625 0.765625
vt 0.484375 0.765625
vt 0.484375 0.984375
vt 0.265625 0.984375
vt 0.515625 0.265625
vt 0.734375 0.265625
vt 0.734375 0.484375
vt 0.765625 0.015625
vt 0.984375 0.015625
vt 0.984375 0.234375
vt 0.765625 0.234375
vt 0.765625 0.015625
vt 0.984375 0.015625
vt 0.984375 0.234375
vt 0.765625 0.234375
vt 0.765625 0.015625
vt 0.984375 0.015625
vt 0.984375 0.234375
vt 0.765625 0.234375
vt 0.765625 0.015625
vt 0.984375 0.015625
vt 0.984375 0.234375
vt 0.765625 0.234375
vt 0.765625 0.015625
vt 0.984375 0.015625
vt 0.984375 0.234375
vt 0.765625 0.234375
vt 0.765625 0.015625
vt 0.984375 0.015625
vt 0.984375 0.234375
vt 0.765625 0.234375
vt 0.765625 0.765625
vt 0.984375 0.765625
vt 0.984375 0.984375
vt 0.765625 0.984375
vt 0.765625 0.765625
vt 0.984375 0.765625
vt 0.984375 0.984375
vt 0.765625 0.765625
vt 0.984375 0.765625
vt 0.984375 0.984375
vt 0.765625 0.765625
vt 0.984375 0.765625
vt 0.984375 0.984375
vt 0.765625 0.984375
vt 0.765625 0.765625
vt 0.984375 0.765625
vt 0.984375 0.984375
vt 0.765625 0.765625
vt 0.984375 0.765625
vt 0.984375 0.984375
vt 0.765625 0.765625
vt 0.984375 0.765625
vt 0.984375 0.984375
vt 0.765625 0.984375
vt 0.765625 0.765625
vt 0.984375 0.765625
vt 0.984375 0.984375
vt 0.765625 0.765625
vt 0.984375 0.765625
vt 0.984375 0.984375
vt 0.765625 0.765625
vt 0.984375 0.765625
vt 0.984375 0.984375
vt 0.765625 0.984375
vt 0.765625 0.765625
vt 0.984375 0.765625
vt 0.984375 0.984375
vt 0.765625 0.765625
vt 0.984375 0.765625
vt 0.984375 0.984375
vt 0.765625 0.765625
vt 0.984375 0.765625
vt 0.984375 0.984375
vt 0.765625 0.984375
vt 0.765625 0.765625
vt 0.984375 0.765625
vt 0.984375 0.984375
vt 0.765625 0.765625
vt 0.984375 0.765625
vt 0.984375 0.984375
vt 0.765625 0.765625
vt 0.984375 0.765625
vt 0.984375 0.984375
vt 0.765625 0.984375
vt 0.765625 0.765625
vt 0.984375 0.765625
vt 0.984375 0.984375
vt 0.765625 0.765625
vt 0.984375 0.765625
vt 0.984375 0.984375
vt 0.765625 0.765625
vt 0.984375 0.765625
vt 0.984375 0.984375
vt 0.765625 0.984375
vt 0.765625 0.765625
vt 0.984375 0.765625
vt 0.984375 0.984375
vt 0.765625 0.765625
vt 0.984375 0.765625
vt 0.984375 0.984375
vt 0.765625 0.765625
vt 0.984375 0.765625
vt 0.984375 0.984375
vt 0.765625 0.984375
vt 0.765625 0.765625
vt 0.984375 0.765625
vt 0.984375 0.984375
vt 0.765625 0.765625
vt 0.984375 0.765625
vt 0.984375 0.984375
vt 0.765625 0.765625
vt 0.984375 0.765625
vt 0.984375 0.984375
vt 0.765625 0.984375
vt 0.765625 0.765625
vt 0.984375 0.765625
vt 0.984375 0.984375
vt 0.765625 0.765625
vt 0.984375 0.765625
vt 0.984375 0.984375
vt 0.765625 0.765625
vt 0.984375 0.765625
vt 0.984375 0.984375
vt 0.765625 0.984375
vt 0.765625 0.765625
vt 0.984375 0.765625
vt 0.984375 0.984375
vt 0.765625 0.765625
vt 0.984375 0.765625
vt 0.984375 0.984375
vt 0.765625 0.765625
vt 0.984375 0.765625
vt 0.984375 0.984375
vt 0.765625 0.984375
vt 0.765625 0.765625
vt 0.984375 0.765625
vt 0.984375 0.984375
vt 0.765625 0.765625
vt 0.984375 0.765625
vt 0.984375 0.984375
vt 0.765625 0.765625
vt 0.984375 0.765625
vt 0.984375 0.984375
vt 0.765625 0.984375
vt 0.765625 0.765625
vt 0.984375 0.765625
vt 0.984375 0.984375
vt 0.765625 0.765625
vt 0.984375 0.765625
vt 0.984375 0.984375
vt 0.765625 0.765625
vt 0.984375 0.765625
vt 0.984375 0.984375
vt 0.765625 0.984375
vt 0.765625 0.765625
vt 0.984375 0.765625
vt 0.984375 0.984375
vt 0.765625 0.765625
vt 0.984375 0.765625
vt 0.984375 0.984375
vt 0.765625 0.765625
vt 0.984375 0.765625
vt 0.984375 0.984375
vt 0.765625 0.984375
vt 0.765625 0.765625
vt 0.984375 0.765625
vt 0.984375 0.984375
vt 0.765625 0.765625
vt 0.984375 0.765625
vt 0.984375 0.984375
vt 0.765625 0.765625
vt 0.984375 0.765625
vt 0.984375 0.984375
vt 0.765625 0.984375
vt 0.765625 0.765625
vt 0.984375 0.765625
vt 0.984375 0.984375
vt 0.765625 0.765625
vt 0.984375 0.765625
vt 0.984375 0.984375
vt 0.765625 0.765625
vt 0.984375 0.765625
vt 0.984375 0.984375
vt 0.765625 0.984375
vt 0.765625 0.765625
vt 0.984375 0.765625
vt 0.984375 0.984375
vt 0.765625 0.765625
vt 0.984375 0.765625
vt 0.984375 0.984375
vt 0.765625 0.765625
vt 0.984375 0.765625
vt 0.984375 0.984375
vt 0.765625 0.984375
vt 0.765625 0.765625
vt 0.984375 0.765625
vt 0.984375 0.984375
vt 0.765625 0.765625
vt 0.984375 0.765625
vt 0.984375 0.984375
vt 0.765625 0.765625
vt 0.984375 0.765625
vt 0.984375 0.984375
vt 0.765625 0.984375
vt 0.765625 0.765625
vt 0.984375 0.765625
vt 0.984375 0.984375
vt 0.765625 0.765625
vt 0.984375 0.765625
vt 0.984375 0.984375
vt 0.765625 0.765625
vt 0.984375 0.765625
vt 0.984375 0.984375
vt 0.765625 0.984375
vt 0.765625 0.765625
vt 0.984375 0.765625
vt 0.984375 0.984375
vt 0.765625 0.765625
vt 0.984375 0.765625
vt 0.984375 0.984375
vt 0.765625 0.765625
vt 0.984375 0.765625
vt 0.984375 0.984375
vt 0.765625 0.984375
vt 0.765625 0.765625
vt 0.984375 0.765625
vt 0.984375 0.984375
vt 0.765625 0.765625
vt 0.984375 0.765625
vt 0.984375 0.984375
vt 0.765625 0.765625
vt 0.984375 0.765625
vt 0.984375 0.984375
vt 0.765625 0.984375
vt 0.765625 0.765625
vt 0.984375 0.765625
vt 0.984375 0.984375
vt 0.765625 0.765625
vt 0.984375 0.765625
vt 0.984375 0.984375
vt 0.765625 0.765625
vt 0.984375 0.765625
vt 0.984375 0.984375
vt 0.765625 0.984375
vt 0.765625 0.765625
vt 0.984375 0.765625
vt 0.984375 0.984375
vt 0.765625 0.765625
vt 0.984375 0.765625
vt 0.984375 0.984375
vt 0.765625 0.765625
vt 0.984375 0.765625
vt 0.984375 0.984375
vt 0.765625 0.984375
vt 0.765625 0.765625
vt 0.984375 0.765625
vt 0.984375 0.984375
vt 0.765625 0.765625
vt 0.984375 0.765625
vt 0.984375 0.984375
vt 0.765625 0.765625
vt 0.984375 0.765625
vt 0.984375 0.984375
vt 0.765625 0.984375
vt 0.765625 0.765625
vt 0.984375 0.765625
vt 0.984375 0.984375
vt 0.765625 0.765625
vt 0.984375 0.765625
vt 0.984375 0.984375
vt 0.765625 0.015625
vt 0.984375 0.015625
vt 0.984375 0.234375
vt 0.765625 0.234375
vt 0.765625 0.015625
vt 0.984375 0.015625
vt 0.984375 0.234375
vt 0.765625 0.234375
vt 0.765625 0.015625
vt 0.984375 0.015625
vt 0.984375 0.234375
vt 0.765625 0.234375
vt 0.765625 0.015625
vt 0.984375 0.015625
vt 0.984375 0.234375
vt 0.765625 0.234375
vt 0.765625 0.015625
vt 0.984375 0.015625
vt 0.984375 0.234375
vt 0.765625 0.234375
vt 0.765625 0.015625
vt 0.984375 0.015625
vt 0.984375 0.234375
vt 0.765625 0.234375
vt 0.765625 0.765625
vt 0.984375 0.765625
vt 0.984375 0.984375
vt 0.765625 0.984375
vt 0.765625 0.765625
vt 0.984375 0.765625
vt 0.984375 0.984375
vt 0.765625 0.765625
vt 0.984375 0.765625
vt 0.984375 0.984375
vt 0.765625 0.765625
vt 0.984375 0.765625
vt 0.984375 0.984375
vt 0.765625 0.984375
vt 0.765625 0.765625
vt 0.984375 0.765625
vt 0.984375 0.984375
vt 0.765625 0.765625
vt 0.984375 0.765625
vt 0.984375 0.984375
vt 0.765625 0.765625
vt 0.984375 0.765625
vt 0.984375 0.984375
vt 0.765625 0.984375
vt 0.765625 0.765625
vt 0.984375 0.765625
vt 0.984375 0.984375
vt 0.765625 0.765625
vt 0.984375 0.765625
vt 0.984375 0.984375
vt 0.765625 0.765625
vt 0.984375 0.765625
vt 0.984375 0.984375
vt 0.765625 0.984375
vt 0.765625 0.765625
vt 0.984375 0.765625
vt 0.984375 0.984375
vt 0.765625 0.765625
vt 0.984375 0.765625
vt 0.984375 0.984375
vt 0.765625 0.765625
vt 0.984375 0.765625
vt 0.984375 0.984375
vt 0.765625 0.984375
vt 0.765625 0.765625
vt 0.984375 0.765625
vt 0.984375 0.984375
vt 0.765625 0.765625
vt 0.984375 0.765625
vt 0.984375 0.984375
vt 0.765625 0.765625
vt 0.984375 0.765625
vt 0.984375 0.984375
vt 0.765625 0.984375
vt 0.765625 0.765625
vt 0.984375 0.765625
vt 0.984375 0.984375
vt 0.765625 0.765625
vt 0.984375 0.765625
vt 0.984375 0.984375
vt 0.765625 0.765625
vt 0.984375 0.765625
vt 0.984375 0.984375
vt 0.765625 0.984375
vt 0.765625 0.765625
vt 0.984375 0.765625
vt 0.984375 0.984375
vt 0.765625 0.765625
vt 0.984375 0.765625
vt 0.984375 0.984375
vt 0.765625 0.765625
vt 0.984375 0.765625
vt 0.984375 0.984375
vt 0.765625 0.984375
vt 0.765625 0.765625
vt 0.984375 0.765625
vt 0.984375 0.984375
vt 0.765625 0.765625
vt 0.984375 0.765625
vt 0.984375 0.984375
vt 0.765625 0.765625
vt 0.984375 0.765625
vt 0.984375 0.984375
vt 0.765625 0.984375
vt 0.765625 0.765625
vt 0.984375 0.765625
vt 0.984375 0.984375
vt 0.765625 0.765625
vt 0.984375 0.765625
vt 0.984375 0.984375
vt 0.765625 0.765625
vt 0.984375 0.765625
vt 0.984375 0.984375
vt 0.765625 0.984375
vt 0.765625 0.765625
vt 0.984375 0.765625
vt 0.984375 0.984375
vt 0.765625 0.765625
vt 0.984375 0.765625
vt 0.984375 0.984375
vt 0.765625 0.765625
vt 0.984375 0.765625
vt 0.984375 0.984375
vt 0.765625 0.984375
vt 0.765625 0.765625
vt 0.984375 0.765625
vt 0.984375 0.984375
vt 0.765625 0.765625
vt 0.984375 0.765625
vt 0.984375 0.984375
vt 0.765625 0.765625
vt 0.984375 0.765625
vt 0.984375 0.984375
vt 0.765625 0.984375
vt 0.765625 0.765625
vt 0.984375 0.765625
vt 0.984375 0.984375
vt 0.765625 0.765625
vt 0.984375 0.765625
vt 0.984375 0.984375
vt 0.765625 0.765625
vt 0.984375 0.765625
vt 0.984375 0.984375
vt 0.765625 0.984375
vt 0.765625 0.765625
vt 0.984375 0.765625
vt 0.984375 0.984375
vt 0.765625 0.765625
vt 0.984375 0.765625
vt 0.984375 0.984375
vt 0.765625 0.765625
vt 0.984375 0.765625
vt 0.984375 0.984375
vt 0.765625 0.984375
vt 0.765625 0.765625
vt 0.984375 0.765625
vt 0.984375 0.984375
vt 0.765625 0.765625
vt 0.984375 0.765625
vt 0.984375 0.984375
vt 0.765625 0.765625
vt 0.984375 0.765625
vt 0.984375 0.984375
vt 0.765625 0.984375
vt 0.765625 0.765625
vt 0.984375 0.765625
vt 0.984375 0.984375
vt 0.765625 0.765625
vt 0.984375 0.765625
vt 0.984375 0.984375
vt 0.765625 0.765625
vt 0.984375 0.765625
vt 0.984375 0.984375
vt 0.765625 0.984375
vt 0.765625 0.765625
vt 0.984375 0.765625
vt 0.984375 0.984375
vt 0.765625 0.765625
vt 0.984375 0.765625
vt 0.984375 0.984375
vt 0.765625 0.765625
vt 0.984375 0.765625
vt 0.984375 0.984375
vt 0.765625 0.984375
vt 0.765625 0.765625
vt 0.984375 0.765625
vt 0.984375 0.984375
vt 0.765625 0.765625
vt 0.984375 0.765625
vt 0.984375 0.984375
vt 0.765625 0.765625
vt 0.984375 0.765625
vt 0.984375 0.984375
vt 0.765625 0.984375
vt 0.765625 0.765625
vt 0.984375 0.765625
vt 0.984375 0.984375
vt 0.765625 0.765625
vt 0.984375 0.765625
vt 0.984375 0.984375
vn 0.98078488 0.00000000 0.19509233
vn -0.98078472 0.00000000 -0.19509312
vn 0.00000000 1.00000000 0.00000000
vn 0.00000000 1.00000000 0.00000000
vn 0.83147271 0.00000000 0.55556559
vn -0.83147457 0.00000000 -0.55556282
vn 0.00000000 1.00000000 0.00000000
vn 0.00000000 1.00000000 0.00000000
vn 0.55556559 0.00000000 0.83147271
vn -0.55556282 0.00000000 -0.83147457
vn 0.00000000 1.00000000 0.00000000
vn 0.00000000 1.00000000 0.00000000
vn 0.19509233 0.00000000 0.98078488
vn -0.19509312 0.00000000 -0.98078472
vn 0.00000000 1.00000000 0.00000000
vn 0.00000000 1.00000000 0.00000000
vn -0.19509233 0.00000000 0.98078488
vn 0.19509312 0.00000000 -0.98078472
vn -0.00000000 1.00000000 0.00000000
vn 0.00000000 1.00000000 -0.00000000
vn -0.55556559 0.00000000 0.83147271
vn 0.55556282 0.00000000 -0.83147457
vn 0.00000000 1.00000000 0.00000000
vn 0.00000000 1.00000000 0.00000000
vn -0.83147271 0.00000000 0.55556559
vn 0.83147457 0.00000000 -0.55556282
vn 0.00000000 1.00000000 0.00000000
vn 0.00000000 1.00000000 0.00000000
vn -0.98078488 0.00000000 0.19509233
vn 0.98078472 0.00000000 -0.19509312
vn 0.00000000 1.00000000 0.00000000
vn 0.00000000 1.00000000 0.00000000
vn -0.98078488 0.00000000 -0.19509233
vn 0.98078472 0.00000000 0.19509312
vn 0.00000000 1.00000000 -0.00000000
vn 0.00000000 1.00000000 0.00000000
vn -0.83147271 0.00000000 -0.55556559
vn 0.83147457 0.00000000 0.55556282
vn 0.00000000 1.00000000 0.00000000
vn 0.00000000 1.00000000 0.00000000
vn -0.55556559 0.00000000 -0.83147271
vn 0.55556282 0.00000000 0.83147457
vn 0.00000000 1.00000000 0.00000000
vn 0.00000000 1.00000000 0.00000000
vn -0.19509233 0.00000000 -0.98078488
vn 0.19509312 0.00000000 0.98078472
vn 0.00000000 1.00000000 0.00000000
vn 0.00000000 1.00000000 0.00000000
vn 0.19509233 0.00000000 -0.98078488
vn -0.19509312 0.00000000 0.98078472
vn 0.00000000 1.00000000 0.00000000
vn 0.00000000 1.00000000 0.00000000
vn 0.55556559 0.00000000 -0.83147271
vn -0.55556282 0.00000000 0.83147457
vn 0.00000000 1.00000000 0.00000000
vn 0.00000000 1.00000000 0.00000000
vn 0.83147271 0.00000000 -0.55556559
vn -0.83147457 0.00000000 0.55556282
vn 0.00000000 1.00000000 0.00000000
vn 0.00000000 1.00000000 0.00000000
vn 0.98078488 0.00000000 -0.19509233
vn -0.98078472 0.00000000 0.19509312
vn 0.00000000 1.00000000 0.00000000
vn -0.00000000 1.00000000 0.00000000
vn 0.00000000 0.00000000 -1.00000000
vn 0.00000000 0.00000000 1.00000000
vn -1.00000000 0.00000000 0.00000000
vn 1.00000000 0.00000000 0.00000000
vn 0.00000000 -1.00000000 0.00000000
vn 0.00000000 1.00000000 0.00000000
vn -0.92386577 -0.38271666 0.00000000
vn -0.00000000 0.00000000 -1.00000000
vn 0.00000000 0.00000000 1.00000000
vn -0.38271666 -0.92386577 0.00000000
vn 0.00000000 -0.00000000 -1.00000000
vn 0.00000000 0.00000000 1.00000000
vn 0.38271666 -0.92386577 0.00000000
vn 0.00000000 0.00000000 -1.00000000
vn 0.00000000 0.00000000 1.00000000
vn 0.92386577 -0.38271666 0.00000000
vn 0.00000000 0.00000000 -1.00000000
vn -0.00000000 0.00000000 1.00000000
vn 0.92386577 0.38271666 0.00000000
vn 0.00000000 0.00000000 -1.00000000
vn 0.00000000 0.00000000 1.00000000
vn 0.38271666 0.92386577 0.00000000
vn 0.00000000 0.00000000 -1.00000000
vn 0.00000000 0.00000000 1.00000000
vn -0.38271666 0.92386577 0.00000000
vn 0.00000000 0.00000000 -1.00000000
vn 0.00000000 -0.00000000 1.00000000
vn -0.92386577 0.38271666 0.00000000
vn 0.00000000 0.00000000 -1.00000000
vn 0.00000000 0.00000000 1.00000000
vn -0.92386577 0.00000000 -0.38271666
vn 0.00000000 1.00000000 0.00000000
vn -0.00000000 -1.00000000 0.00000000
vn -0.38271666 0.00000000 -0.92386577
vn 0.00000000 1.00000000 0.00000000
vn 0.00000000 -1.00000000 -0.00000000
vn 0.38271666 0.00000000 -0.92386577
vn 0.00000000 1.00000000 0.00000000
vn 0.00000000 -1.00000000 0.00000000
vn 0.92386577 0.00000000 -0.38271666
vn -0.00000000 1.00000000 0.00000000
vn 0.00000000 -1.00000000 0.00000000
vn 0.92386577 0.00000000 0.38271666
vn 0.00000000 1.00000000 0.00000000
vn 0.00000000 -1.00000000 0.00000000
vn 0.38271666 0.00000000 0.92386577
vn 0.00000000 1.00000000 0.00000000
vn 0.00000000 -1.00000000 0.00000000
vn -0.38271666 0.00000000 0.92386577
vn 0.00000000 1.00000000 -0.00000000
vn 0.00000000 -1.00000000 0.00000000
vn -0.92386577 0.00000000 0.38271666
vn 0.00000000 1.00000000 0.00000000
vn 0.00000000 -1.00000000 0.00000000
vn 0.98078488 0.00000000 0.19509233
vn -0.98078472 0.00000000 -0.19509312
vn 0.00000000 1.00000000 0.00000000
vn 0.00000000 1.00000000 0.00000000
vn 0.83147271 0.00000000 0.55556559
vn -0.83147457 0.00000000 -0.55556282
vn 0.00000000 1.00000000 0.00000000
vn 0.00000000 1.00000000 0.00000000
vn 0.55556559 0.00000000 0.83147271
vn -0.55556282 0.00000000 -0.83147457
vn 0.00000000 1.00000000 0.00000000
vn 0.00000000 1.00000000 0.00000000
vn 0.19509233 0.00000000 0.98078488
vn -0.19509312 0.00000000 -0.98078472
vn 0.00000000 1.00000000 0.00000000
vn 0.00000000 1.00000000 0.00000000
vn -0.19509233 0.00000000 0.98078488
vn 0.19509312 0.00000000 -0.98078472
vn -0.00000000 1.00000000 0.00000000
vn 0.00000000 1.00000000 -0.00000000
vn -0.55556559 0.00000000 0.83147271
vn 0.55556282 0.00000000 -0.83147457
vn 0.00000000 1.00000000 0.00000000
vn 0.00000000 1.00000000 0.00000000
vn -0.83147271 0.00000000 0.55556559
vn 0.83147457 0.00000000 -0.55556282
vn 0.00000000 1.00000000 0.00000000
vn 0.00000000 1.00000000 0.00000000
vn -0.98078488 0.00000000 0.19509233
vn 0.98078472 0.00000000 -0.19509312
vn 0.00000000 1.00000000 0.00000000
vn 0.00000000 1.00000000 0.00000000
vn -0.98078488 0.00000000 -0.19509233
vn 0.98078472 0.00000000 0.19509312
vn 0.00000000 1.00000000 -0.00000000
vn 0.00000000 1.00000000 0.00000000
vn -0.83147271 0.00000000 -0.55556559
vn 0.83147457 0.00000000 0.55556282
vn 0.00000000 1.00000000 0.00000000
vn 0.00000000 1.00000000 0.00000000
vn -0.55556559 0.00000000 -0.83147271
vn 0.55556282 0.00000000 0.83147457
vn 0.00000000 1.00000000 0.00000000
vn 0.00000000 1.00000000 0.00000000
vn -0.19509233 0.00000000 -0.98078488
vn 0.19509312 0.00000000 0.98078472
vn 0.00000000 1.00000000 0.00000000
vn 0.00000000 1.00000000 0.00000000
vn 0.19509233 0.00000000 -0.98078488
vn -0.19509312 0.00000000 0.98078472
vn 0.00000000 1.00000000 0.00000000
vn 0.00000000 1.00000000 0.00000000
vn 0.55556559 0.00000000 -0.83147271
vn -0.55556282 0.00000000 0.83147457
vn 0.00000000 1.00000000 0.00000000
vn 0.00000000 1.00000000 0.00000000
vn 0.83147271 0.00000000 -0.55556559
vn -0.83147457 0.00000000 0.55556282
vn 0.00000000 1.00000000 0.00000000
vn 0.00000000 1.00000000 0.00000000
vn 0.98078488 0.00000000 -0.19509233
vn -0.98078472 0.00000000 0.19509312
vn 0.00000000 1.00000000 0.00000000
vn -0.00000000 1.00000000 0.00000000
vn 0.00000000 0.00000000 -1.00000000
vn 0.00000000 0.00000000 1.00000000
vn -1.00000000 0.00000000 0.00000000
vn 1.00000000 0.00000000 0.00000000
vn 0.00000000 -1.00000000 0.00000000
vn 0.00000000 1.00000000 0.00000000
vn -0.92386577 -0.38271666 0.00000000
vn -0.00000000 0.00000000 -1.00000000
vn 0.00000000 0.00000000 1.00000000
vn -0.38271666 -0.92386577 0.00000000
vn 0.00000000 -0.00000000 -1.00000000
vn 0.00000000 0.00000000 1.00000000
vn 0.38271666 -0.92386577 0.00000000
vn 0.00000000 0.00000000 -1.00000000
vn 0.00000000 0.00000000 1.00000000
vn 0.92386577 -0.38271666 0.00000000
vn 0.00000000 0.00000000 -1.00000000
vn -0.00000000 0.00000000 1.00000000
vn 0.92386577 0.38271666 0.00000000
vn 0.00000000 0.00000000 -1.00000000
vn 0.00000000 0.00000000 1.00000000
vn 0.38271666 0.92386577 0.00000000
vn 0.00000000 0.00000000 -1.00000000
vn 0.00000000 0.00000000 1.00000000
vn -0.38271666 0.92386577 0.00000000
vn 0.00000000 0.00000000 -1.00000000
vn 0.00000000 -0.00000000 1.00000000
vn -0.92386577 0.38271666 0.00000000
vn 0.00000000 0.00000000 -1.00000000
vn 0.00000000 0.00000000 1.00000000
vn -0.92386577 0.00000000 -0.38271666
vn 0.00000000 1.00000000 0.00000000
vn -0.00000000 -1.00000000 0.00000000
vn -0.38271666 0.00000000 -0.92386577
vn 0.00000000 1.00000000 0.00000000
vn 0.00000000 -1.00000000 -0.00000000
vn 0.38271666 0.00000000 -0.92386577
vn 0.00000000 1.00000000 0.00000000
vn 0.00000000 -1.00000000 0.00000000
vn 0.92386577 0.00000000 -0.38271666
vn -0.00000000 1.00000000 0.00000000
vn 0.00000000 -1.00000000 0.00000000
vn 0.92386577 0.00000000 0.38271666
vn 0.00000000 1.00000000 0.00000000
vn 0.00000000 -1.00000000 0.00000000
vn 0.38271666 0.00000000 0.92386577
vn 0.00000000 1.00000000 0.00000000
vn 0.00000000 -1.00000000 0.00000000
vn -0.38271666 0.00000000 0.92386577
vn 0.00000000 1.00000000 -0.00000000
vn 0.00000000 -1.00000000 0.00000000
vn -0.92386577 0.00000000 0.38271666
vn 0.00000000 1.00000000 0.00000000
vn 0.00000000 -1.00000000 0.00000000
vn 0.00000000 -0.38267660 0.92388236
vn -1.00000000 0.00000000 0.00000000
vn 1.00000000 0.00000000 -0.00000000
vn 0.00000000 -0.92388236 0.38267660
vn -1.00000000 0.00000000 0.00000000
vn 1.00000000 0.00000000 0.00000000
vn 0.00000000 -0.92388236 -0.38267660
vn -1.00000000 -0.00000000 0.00000000
vn 1.00000000 0.00000000 0.00000000
vn 0.00000000 -0.38267660 -0.92388236
vn -1.00000000 0.00000000 -0.00000000
vn 1.00000000 0.00000000 0.00000000
vn 0.00000000 0.38267660 -0.92388236
vn -1.00000000 0.00000000 0.00000000
vn 1.00000000 0.00000000 0.00000000
vn 0.00000000 0.92388236 -0.38267660
vn -1.00000000 0.00000000 0.00000000
vn 1.00000000 -0.00000000 0.00000000
vn 0.00000000 0.92388236 0.38267660
vn -1.00000000 0.00000000 0.00000000
vn 1.00000000 0.00000000 0.00000000
vn 0.00000000 0.38267660 0.92388236
vn -1.00000000 0.00000000 0.00000000
vn 1.00000000 0.00000000 0.00000000
vn 0.00000000 0.00000000 -1.00000000
vn 0.00000000 0.00000000 1.00000000
vn -1.00000000 0.00000000 0.00000000
vn 1.00000000 0.00000000 0.00000000
vn 0.00000000 -1.00000000 0.00000000
vn 0.00000000 1.00000000 0.00000000
vn 0.95105473 0.00000000 -0.30902250
vn 0.00000000 -1.00000000 0.00000000
vn -0.00000000 1.00000000 0.00000000
vn 0.58778921 0.00000000 -0.80901412
vn 0.00000000 -1.00000000 0.00000000
vn 0.00000000 1.00000000 0.00000000
vn 0.00000000 0.00000000 -1.00000000
vn 0.00000000 -1.00000000 -0.00000000
vn 0.00000000 1.00000000 0.00000000
vn -0.58778921 0.00000000 -0.80901412
vn 0.00000000 -1.00000000 0.00000000
vn 0.00000000 1.00000000 0.00000000
vn -0.95105473 0.00000000 -0.30902250
vn -0.00000000 -1.00000000 0.00000000
vn 0.00000000 1.00000000 0.00000000
vn -0.95105473 0.00000000 0.30902250
vn 0.00000000 -1.00000000 0.00000000
vn 0.00000000 1.00000000 0.00000000
vn -0.58778921 0.00000000 0.80901412
vn 0.00000000 -1.00000000 0.00000000
vn 0.00000000 1.00000000 0.00000000
vn 0.00000000 0.00000000 1.00000000
vn 0.00000000 -1.00000000 0.00000000
vn 0.00000000 1.00000000 -0.00000000
vn 0.58778921 0.00000000 0.80901412
vn 0.00000000 -1.00000000 0.00000000
vn 0.00000000 1.00000000 0.00000000
vn 0.95105473 0.00000000 0.30902250
vn 0.00000000 -1.00000000 0.00000000
vn 0.00000000 1.00000000 0.00000000
vn -0.92386993 -0.37449749 0.07884158
vn -0.00000000 -0.20599012 -0.97855407
vn 0.00000000 0.20599012 0.97855407
vn -0.38271365 -0.90404987 0.19032629
vn 0.00000610 -0.20599608 -0.97855282
vn -0.00000610 0.20599608 0.97855282
vn 0.38271365 -0.90404987 0.19032629
vn -0.00000610 -0.20599608 -0.97855282
vn 0.00000610 0.20599608 0.97855282
vn 0.92386993 -0.37449749 0.07884158
vn 0.00000000 -0.20599012 -0.97855407
vn -0.00000000 0.20599012 0.97855407
vn 0.92386993 0.37449749 -0.07884158
vn 0.00000000 -0.20599012 -0.97855407
vn -0.00000000 0.20599012 0.97855407
vn 0.38271365 0.90404987 -0.19032629
vn 0.00000610 -0.20599608 -0.97855282
vn -0.00000610 0.20599608 0.97855282
vn -0.38271365 0.90404987 -0.19032629
vn -0.00000610 -0.20599608 -0.97855282
vn 0.00000610 0.20599608 0.97855282
vn -0.92386993 0.37449749 -0.07884158
vn -0.00000000 -0.20599012 -0.97855407
vn 0.00000000 0.20599012 0.97855407
f 1/1/1 2/2/1 3/3/1
f 1/1/1 3/3/1 4/4/1
f 5/5/2 6/6/2 7/7/2
f 5/5/2 7/7/2 8/8/2
f 4/9/3 3/10/3 8/11/3
f 4/9/3 8/11/3 7/12/3
f 9/13/4 10/14/4 11/15/4
f 12/16/5 1/17/5 4/18/5
f 12/16/5 4/18/5 13/19/5
f 6/20/6 14/21/6 15/22/6
f 6/20/6 15/22/6 7/23/6
f 13/24/7 4/25/7 7/26/7
f 13/24/7 7/26/7 15/27/7
f 9/28/8 16/29/8 10/30/8
f 17/31/9 12/32/9 13/33/9
f 17/31/9 13/33/9 18/34/9
f 14/35/10 19/36/10 20/37/10
f 14/35/10 20/37/10 15/38/10
f 18/39/11 13/40/11 15/41/11
f 18/39/11 15/41/11 20/42/11
f 9/43/12 21/44/12 16/45/12
f 22/46/13 17/47/13 18/48/13
f 22/46/13 18/48/13 23/49/13
f 19/50/14 24/51/14 25/52/14
f 19/50/14 25/52/14 20/53/14
f 23/54/15 18/55/15 20/56/15
f 23/54/15 20/56/15 25/57/15
f 9/58/16 26/59/16 21/60/16
f 27/61/17 22/62/17 23/63/17
f 27/61/17 23/63/17 28/64/17
f 24/65/18 29/66/18 30/67/18
f 24/65/18 30/67/18 25/68/18
f 28/69/19 23/70/19 25/71/19
f 28/69/19 25/71/19 30/72/19
f 9/73/20 31/74/20 26/75/20
f 32/76/21 27/77/21 28/78/21
f 32/76/21 28/78/21 33/79/21
f 29/80/22 34/81/22 35/82/22
f 29/80/22 35/82/22 30/83/22
f 33/84/23 28/85/23 30/86/23
f 33/84/23 30/86/23 35/87/23
f 9/88/24 36/89/24 31/90/24
f 37/91/25 32/92/25 33/93/25
f 37/91/25 33/93/25 38/94/25
f 34/95/26 39/96/26 40/97/26
f 34/95/26 40/97/26 35/98/26
f 38/99/27 33/100/27 35/101/27
f 38/99/27 35/101/27 40/102/27
f 9/103/28 41/104/28 36/105/28
f 42/106/29 37/107/29 38/108/29
f 42/106/29 38/108/29 43/109/29
f 39/110/30 44/111/30 45/112/30
f 39/110/30 45/112/30 40/113/30
f 43/114/31 38/115/31 40/116/31
f 43/114/31 40/116/31 45/117/31
f 9/118/32 46/119/32 41/120/32
f 47/121/33 42/122/33 43/123/33
f 47/121/33 43/123/33 48/124/33
f 44/125/34 49/126/34 50/127/34
f 44/125/34 50/127/34 45/128/34
f 48/129/35 43/130/35 45/131/35
f 48/129/35 45/131/35 50/132/35
f 9/133/36 51/134/36 46/135/36
f 52/136/37 47/137/37 48/138/37
f 52/136/37 48/138/37 53/139/37
f 49/140/38 54/141/38 55/142/38
f 49/140/38 55/142/38 50/143/38
f 53/144/39 48/145/39 50/146/39
f 53/144/39 50/146/39 55/147/39
f 9/148/40 56/149/40 51/150/40
f 57/151/41 52/152/41 53/153/41
f 57/151/41 53/153/41 58/154/41
f 54/155/42 59/156/42 60/157/42
f 54/155/42 60/157/42 55/158/42
f 58/159/43 53/160/43 55/161/43
f 58/159/43 55/161/43 60/162/43
f 9/163/44 61/164/44 56/165/44
f 62/166/45 57/167/45 58/168/45
f 62/166/45 58/168/45 63/169/45
f 59/170/46 64/171/46 65/172/46
f 59/170/46 65/172/46 60/173/46
f 63/174/47 58/175/47 60/176/47
f 63/174/47 60/176/47 65/177/47
f 9/178/48 66/179/48 61/180/48
f 67/181/49 62/182/49 63/183/49
f 67/181/49 63/183/49 68/184/49
f 64/185/50 69/186/50 70/187/50
f 64/185/50 70/187/50 65/188/50
f 68/189/51 63/190/51 65/191/51
f 68/189/51 65/191/51 70/192/51
f 9/193/52 71/194/52 66/195/52
f 72/196/53 67/197/53 68/198/53
f 72/196/53 68/198/53 73/199/53
f 69/200/54 74/201/54 75/202/54
f 69/200/54 75/202/54 70/203/54
f 73/204/55 68/205/55 70/206/55
f 73/204/55 70/206/55 75/207/55
f 9/208/56 76/209/56 71/210/56
f 77/211/57 72/212/57 73/213/57
f 77/211/57 73/213/57 78/214/57
f 74/215/58 79/216/58 80/217/58
f 74/215/58 80/217/58 75/218/58
f 78/219/59 73/220/59 75/221/59
f 78/219/59 75/221/59 80/222/59
f 9/223/60 81/224/60 76/225/60
f 2/226/61 77/227/61 78/228/61
f 2/226/61 78/228/61 3/229/61
f 79/230/62 5/231/62 8/232/62
f 79/230/62 8/232/62 80/233/62
f 3/234/63 78/235/63 80/236/63
f 3/234/63 80/236/63 8/237/63
f 9/238/64 11/239/64 81/240/64
f 82/241/65 85/242/65 84/243/65
f 82/241/65 84/243/65 83/244/65
f 86/245/66 87/246/66 88/247/66
f 86/245/66 88/247/66 89/248/66
f 82/249/67 86/250/67 89/251/67
f 82/249/67 89/251/67 85/252/67
f 83/253/68 84/254/68 88/255/68
f 83/253/68 88/255/68 87/256/68
f 82/257/69 83/258/69 87/259/69
f 82/257/69 87/259/69 86/260/69
f 85/261/70 89/262/70 88/263/70
f 85/261/70 88/263/70 84/264/70
f 90/265/71 91/266/71 92/267/71
f 90/265/71 92/267/71 93/268/71
f 94/269/72 91/270/72 90/271/72
f 95/272/73 93/273/73 92/274/73
f 91/275/74 96/276/74 97/277/74
f 91/275/74 97/277/74 92/278/74
f 94/279/75 96/280/75 91/281/75
f 95/282/76 92/283/76 97/284/76
f 96/285/77 98/286/77 99/287/77
f 96/285/77 99/287/77 97/288/77
f 94/289/78 98/290/78 96/291/78
f 95/292/79 97/293/79 99/294/79
f 98/295/80 100/296/80 101/297/80
f 98/295/80 101/297/80 99/298/80
f 94/299/81 100/300/81 98/301/81
f 95/302/82 99/303/82 101/304/82
f 100/305/83 102/306/83 103/307/83
f 100/305/83 103/307/83 101/308/83
f 94/309/84 102/310/84 100/311/84
f 95/312/85 101/313/85 103/314/85
f 102/315/86 104/316/86 105/317/86
f 102/315/86 105/317/86 103/318/86
f 94/319/87 104/320/87 102/321/87
f 95/322/88 103/323/88 105/324/88
f 104/325/89 106/326/89 107/327/89
f 104/325/89 107/327/89 105/328/89
f 94/329/90 106/330/90 104/331/90
f 95/332/91 105/333/91 107/334/91
f 106/335/92 90/336/92 93/337/92
f 106/335/92 93/337/92 107/338/92
f 94/339/93 90/340/93 106/341/93
f 95/342/94 107/343/94 93/344/94
f 93/345/95 108/346/95 109/347/95
f 93/345/95 109/347/95 110/348/95
f 95/349/96 108/350/96 93/351/96
f 111/352/97 110/353/97 109/354/97
f 108/355/98 112/356/98 113/357/98
f 108/355/98 113/357/98 109/358/98
f 95/359/99 112/360/99 108/361/99
f 111/362/100 109/363/100 113/364/100
f 112/365/101 114/366/101 115/367/101
f 112/365/101 115/367/101 113/368/101
f 95/369/102 114/370/102 112/371/102
f 111/372/103 113/373/103 115/374/103
f 114/375/104 101/376/104 116/377/104
f 114/375/104 116/377/104 115/378/104
f 95/379/105 101/380/105 114/381/105
f 111/382/106 115/383/106 116/384/106
f 101/385/107 117/386/107 118/387/107
f 101/385/107 118/387/107 116/388/107
f 95/389/108 117/390/108 101/391/108
f 111/392/109 116/393/109 118/394/109
f 117/395/110 119/396/110 120/397/110
f 117/395/110 120/397/110 118/398/110
f 95/399/111 119/400/111 117/401/111
f 111/402/112 118/403/112 120/404/112
f 119/405/113 121/406/113 122/407/113
f 119/405/113 122/407/113 120/408/113
f 95/409/114 121/410/114 119/411/114
f 111/412/115 120/413/115 122/414/115
f 121/415/116 93/416/116 110/417/116
f 121/415/116 110/417/116 122/418/116
f 95/419/117 93/420/117 121/421/117
f 111/422/118 122/423/118 110/424/118
f 123/425/119 124/426/119 125/427/119
f 123/425/119 125/427/119 126/428/119
f 127/429/120 128/430/120 129/431/120
f 127/429/120 129/431/120 130/432/120
f 126/433/121 125/434/121 130/435/121
f 126/433/121 130/435/121 129/436/121
f 131/437/122 132/438/122 133/439/122
f 134/440/123 123/441/123 126/442/123
f 134/440/123 126/442/123 135/443/123
f 128/444/124 136/445/124 137/446/124
f 128/444/124 137/446/124 129/447/124
f 135/448/125 126/449/125 129/450/125
f 135/448/125 129/450/125 137/451/125
f 131/452/126 138/453/126 132/454/126
f 139/455/127 134/456/127 135/457/127
f 139/455/127 135/457/127 140/458/127
f 136/459/128 141/460/128 142/461/128
f 136/459/128 142/461/128 137/462/128
f 140/463/129 135/464/129 137/465/129
f 140/463/129 137/465/129 142/466/129
f 131/467/130 143/468/130 138/469/130
f 144/470/131 139/471/131 140/472/131
f 144/470/131 140/472/131 145/473/131
f 141/474/132 146/475/132 147/476/132
f 141/474/132 147/476/132 142/477/132
f 145/478/133 140/479/133 142/480/133
f 145/478/133 142/480/133 147/481/133
f 131/482/134 148/483/134 143/484/134
f 149/485/135 144/486/135 145/487/135
f 149/485/135 145/487/135 150/488/135
f 146/489/136 151/490/136 152/491/136
f 146/489/136 152/491/136 147/492/136
f 150/493/137 145/494/137 147/495/137
f 150/493/137 147/495/137 152/496/137
f 131/497/138 153/498/138 148/499/138
f 154/500/139 149/501/139 150/502/139
f 154/500/139 150/502/139 155/503/139
f 151/504/140 156/505/140 157/506/140
f 151/504/140 157/506/140 152/507/140
f 155/508/141 150/509/141 152/510/141
f 155/508/141 152/510/141 157/511/141
f 131/512/142 158/513/142 153/514/142
f 159/515/143 154/516/143 155/517/143
f 159/515/143 155/517/143 160/518/143
f 156/519/144 161/520/144 162/521/144
f 156/519/144 162/521/144 157/522/144
f 160/523/145 155/524/145 157/525/145
f 160/523/145 157/525/145 162/526/145
f 131/527/146 163/528/146 158/529/146
f 164/530/147 159/531/147 160/532/147
f 164/530/147 160/532/147 165/533/147
f 161/534/148 166/535/148 167/536/148
f 161/534/148 167/536/148 162/537/148
f 165/538/149 160/539/149 162/540/149
f 165/538/149 162/540/149 167/541/149
f 131/542/150 168/543/150 163/544/150
f 169/545/151 164/546/151 165/547/151
f 169/545/151 165/547/151 170/548/151
f 166/549/152 171/550/152 172/551/152
f 166/549/152 172/551/152 167/552/152
f 170/553/153 165/554/153 167/555/153
f 170/553/153 167/555/153 172/556/153
f 131/557/154 173/558/154 168/559/154
f 174/560/155 169/561/155 170/562/155
f 174/560/155 170/562/155 175/563/155
f 171/564/156 176/565/156 177/566/156
f 171/564/156 177/566/156 172/567/156
f 175/568/157 170/569/157 172/570/157
f 175/568/157 172/570/157 177/571/157
f 131/572/158 178/573/158 173/574/158
f 179/575/159 174/576/159 175/577/159
f 179/575/159 175/577/159 180/578/159
f 176/579/160 181/580/160 182/581/160
f 176/579/160 182/581/160 177/582/160
f 180/583/161 175/584/161 177/585/161
f 180/583/161 177/585/161 182/586/161
f 131/587/162 183/588/162 178/589/162
f 184/590/163 179/591/163 180/592/163
f 184/590/163 180/592/163 185/593/163
f 181/594/164 186/595/164 187/596/164
f 181/594/164 187/596/164 182/597/164
f 185/598/165 180/599/165 182/600/165
f 185/598/165 182/600/165 187/601/165
f 131/602/166 188/603/166 183/604/166
f 189/605/167 184/606/167 185/607/167
f 189/605/167 185/607/167 190/608/167
f 186/609/168 191/610/168 192/611/168
f 186/609/168 192/611/168 187/612/168
f 190/613/169 185/614/169 187/615/169
f 190/613/169 187/615/169 192/616/169
f 131/617/170 193/618/170 188/619/170
f 194/620/171 189/621/171 190/622/171
f 194/620/171 190/622/171 195/623/171
f 191/624/172 196/625/172 197/626/172
f 191/624/172 197/626/172 192/627/172
f 195/628/173 190/629/173 192/630/173
f 195/628/173 192/630/173 197/631/173
f 131/632/174 198/633/174 193/634/174
f 199/635/175 194/636/175 195/637/175
f 199/635/175 195/637/175 200/638/175
f 196/639/176 201/640/176 202/641/176
f 196/639/176 202/641/176 197/642/176
f 200/643/177 195/644/177 197/645/177
f 200/643/177 197/645/177 202/646/177
f 131/647/178 203/648/178 198/649/178
f 124/650/179 199/651/179 200/652/179
f 124/650/179 200/652/179 125/653/179
f 201/654/180 127/655/180 130/656/180
f 201/654/180 130/656/180 202/657/180
f 125/658/181 200/659/181 202/660/181
f 125/658/181 202/660/181 130/661/181
f 131/662/182 133/663/182 203/664/182
f 204/665/183 207/666/183 206/667/183
f 204/665/183 206/667/183 205/668/183
f 208/669/184 209/670/184 210/671/184
f 208/669/184 210/671/184 211/672/184
f 204/673/185 208/674/185 211/675/185
f 204/673/185 211/675/185 207/676/185
f 205/677/186 206/678/186 210/679/186
f 205/677/186 210/679/186 209/680/186
f 204/681/187 205/682/187 209/683/187
f 204/681/187 209/683/187 208/684/187
f 207/685/188 211/686/188 210/687/188
f 207/685/188 210/687/188 206/688/188
f 212/689/189 213/690/189 214/691/189
f 212/689/189 214/691/189 215/692/189
f 216/693/190 213/694/190 212/695/190
f 217/696/191 215/697/191 214/698/191
f 213/699/192 218/700/192 219/701/192
f 213/699/192 219/701/192 214/702/192
f 216/703/193 218/704/193 213/705/193
f 217/706/194 214/707/194 219/708/194
f 218/709/195 220/710/195 221/711/195
f 218/709/195 221/711/195 219/712/195
f 216/713/196 220/714/196 218/715/196
f 217/716/197 219/717/197 221/718/197
f 220/719/198 222/720/198 223/721/198
f 220/719/198 223/721/198 221/722/198
f 216/723/199 222/724/199 220/725/199
f 217/726/200 221/727/200 223/728/200
f 222/729/201 224/730/201 225/731/201
f 222/729/201 225/731/201 223/732/201
f 216/733/202 224/734/202 222/735/202
f 217/736/203 223/737/203 225/738/203
f 224/739/204 226/740/204 227/741/204
f 224/739/204 227/741/204 225/742/204
f 216/743/205 226/744/205 224/745/205
f 217/746/206 225/747/206 227/748/206
f 226/749/207 228/750/207 229/751/207
f 226/749/207 229/751/207 227/752/207
f 216/753/208 228/754/208 226/755/208
f 217/756/209 227/757/209 229/758/209
f 228/759/210 212/760/210 215/761/210
f 228/759/210 215/761/210 229/762/210
f 216/763/211 212/764/211 228/765/211
f 217/766/212 229/767/212 215/768/212
f 215/769/213 230/770/213 231/771/213
f 215/769/213 231/771/213 232/772/213
f 217/773/214 230/774/214 215/775/214
f 233/776/215 232/777/215 231/778/215
f 230/779/216 234/780/216 235/781/216
f 230/779/216 235/781/216 231/782/216
f 217/783/217 234/784/217 230/785/217
f 233/786/218 231/787/218 235/788/218
f 234/789/219 236/790/219 237/791/219
f 234/789/219 237/791/219 235/792/219
f 217/793/220 236/794/220 234/795/220
f 233/796/221 235/797/221 237/798/221
f 236/799/222 223/800/222 238/801/222
f 236/799/222 238/801/222 237/802/222
f 217/803/223 223/804/223 236/805/223
f 233/806/224 237/807/224 238/808/224
f 223/809/225 239/810/225 240/811/225
f 223/809/225 240/811/225 238/812/225
f 217/813/226 239/814/226 223/815/226
f 233/816/227 238/817/227 240/818/227
f 239/819/228 241/820/228 242/821/228
f 239/819/228 242/821/228 240/822/228
f 217/823/229 241/824/229 239/825/229
f 233/826/230 240/827/230 242/828/230
f 241/829/231 243/830/231 244/831/231
f 241/829/231 244/831/231 242/832/231
f 217/833/232 243/834/232 241/835/232
f 233/836/233 242/837/233 244/838/233
f 243/839/234 215/840/234 232/841/234
f 243/839/234 232/841/234 244/842/234
f 217/843/235 215/844/235 243/845/235
f 233/846/236 244/847/236 232/848/236
f 245/849/237 246/850/237 247/851/237
f 245/849/237 247/851/237 248/852/237
f 94/853/238 246/854/238 245/855/238
f 216/856/239 248/857/239 247/858/239
f 246/859/240 249/860/240 250/861/240
f 246/859/240 250/861/240 247/862/240
f 94/863/241 249/864/241 246/865/241
f 216/866/242 247/867/242 250/868/242
f 249/869/243 251/870/243 252/871/243
f 249/869/243 252/871/243 250/872/243
f 94/873/244 251/874/244 249/875/244
f 216/876/245 250/877/245 252/878/245
f 251/879/246 253/880/246 254/881/246
f 251/879/246 254/881/246 252/882/246
f 94/883/247 253/884/247 251/885/247
f 216/886/248 252/887/248 254/888/248
f 253/889/249 255/890/249 256/891/249
f 253/889/249 256/891/249 254/892/249
f 94/893/250 255/894/250 253/895/250
f 216/896/251 254/897/251 256/898/251
f 255/899/252 257/900/252 258/901/252
f 255/899/252 258/901/252 256/902/252
f 94/903/253 257/904/253 255/905/253
f 216/906/254 256/907/254 258/908/254
f 257/909/255 259/910/255 260/911/255
f 257/909/255 260/911/255 258/912/255
f 94/913/256 259/914/256 257/915/256
f 216/916/257 258/917/257 260/918/257
f 259/919/258 245/920/258 248/921/258
f 259/919/258 248/921/258 260/922/258
f 94/923/259 245/924/259 259/925/259
f 216/926/260 260/927/260 248/928/260
f 261/929/261 264/930/261 263/931/261
f 261/929/261 263/931/261 262/932/261
f 265/933/262 266/934/262 267/935/262
f 265/933/262 267/935/262 268/936/262
f 261/937/263 265/938/263 268/939/263
f 261/937/263 268/939/263 264/940/263
f 262/941/264 263/942/264 267/943/264
f 262/941/264 267/943/264 266/944/264
f 261/945/265 262/946/265 266/947/265
f 261/945/265 266/947/265 265/948/265
f 264/949/266 268/950/266 267/951/266
f 264/949/266 267/951/266 263/952/266
f 269/953/267 270/954/267 271/955/267
f 269/953/267 271/955/267 272/956/267
f 273/957/268 270/958/268 269/959/268
f 274/960/269 272/961/269 271/962/269
f 270/963/270 275/964/270 276/965/270
f 270/963/270 276/965/270 271/966/270
f 273/967/271 275/968/271 270/969/271
f 274/970/272 271/971/272 276/972/272
f 275/973/273 277/974/273 278/975/273
f 275/973/273 278/975/273 276/976/273
f 273/977/274 277/978/274 275/979/274
f 274/980/275 276/981/275 278/982/275
f 277/983/276 279/984/276 280/985/276
f 277/983/276 280/985/276 278/986/276
f 273/987/277 279/988/277 277/989/277
f 274/990/278 278/991/278 280/992/278
f 279/993/279 281/994/279 282/995/279
f 279/993/279 282/995/279 280/996/279
f 273/997/280 281/998/280 279/999/280
f 274/1000/281 280/1001/281 282/1002/281
f 281/1003/282 283/1004/282 284/1005/282
f 281/1003/282 284/1005/282 282/1006/282
f 273/1007/283 283/1008/283 281/1009/283
f 274/1010/284 282/1011/284 284/1012/284
f 283/1013/285 285/1014/285 286/1015/285
f 283/1013/285 286/1015/285 284/1016/285
f 273/1017/286 285/1018/286 283/1019/286
f 274/1020/287 284/1021/287 286/1022/287
f 285/1023/288 287/1024/288 288/1025/288
f 285/1023/288 288/1025/288 286/1026/288
f 273/1027/289 287/1028/289 285/1029/289
f 274/1030/290 286/1031/290 288/1032/290
f 287/1033/291 289/1034/291 290/1035/291
f 287/1033/291 290/1035/291 288/1036/291
f 273/1037/292 289/1038/292 287/1039/292
f 274/1040/293 288/1041/293 290/1042/293
f 289/1043/294 269/1044/294 272/1045/294
f 289/1043/294 272/1045/294 290/1046/294
f 273/1047/295 269/1048/295 289/1049/295
f 274/1050/296 290/1051/296 272/1052/296
f 291/1053/297 292/1054/297 293/1055/297
f 291/1053/297 293/1055/297 294/1056/297
f 274/1057/298 292/1058/298 291/1059/298
f 295/1060/299 294/1061/299 293/1062/299
f 292/1063/300 296/1064/300 297/1065/300
f 292/1063/300 297/1065/300 293/1066/300
f 274/1067/301 296/1068/301 292/1069/301
f 295/1070/302 293/1071/302 297/1072/302
f 296/1073/303 298/1074/303 299/1075/303
f 296/1073/303 299/1075/303 297/1076/303
f 274/1077/304 298/1078/304 296/1079/304
f 295/1080/305 297/1081/305 299/1082/305
f 298/1083/306 300/1084/306 301/1085/306
f 298/1083/306 301/1085/306 299/1086/306
f 274/1087/307 300/1088/307 298/1089/307
f 295/1090/308 299/1091/308 301/1092/308
f 300/1093/309 302/1094/309 303/1095/309
f 300/1093/309 303/1095/309 301/1096/309
f 274/1097/310 302/1098/310 300/1099/310
f 295/1100/311 301/1101/311 303/1102/311
f 302/1103/312 304/1104/312 305/1105/312
f 302/1103/312 305/1105/312 303/1106/312
f 274/1107/313 304/1108/313 302/1109/313
f 295/1110/314 303/1111/314 305/1112/314
f 304/1113/315 306/1114/315 307/1115/315
f 304/1113/315 307/1115/315 305/1116/315
f 274/1117/316 306/1118/316 304/1119/316
f 295/1120/317 305/1121/317 307/1122/317
f 306/1123/318 291/1124/318 294/1125/318
f 306/1123/318 294/1125/318 307/1126/318
f 274/1127/319 291/1128/319 306/1129/319
f 295/1130/320 307/1131/320 294/1132/320
