mtllib TorusSettlementFarm_Water.mtl
v -7.2485250 0.1266437 3.7500000
v -5.1780339 0.0646174 3.7500000
v -5.1780339 0.0646174 -3.7500000
v -7.2485250 0.1266437 -3.7500000
v -5.1780339 0.0646174 3.7500000
v -3.1070267 0.0232630 3.7500000
v -3.1070267 0.0232630 -3.7500000
v -5.1780339 0.0646174 -3.7500000
v -3.1070267 0.0232630 3.7500000
v -1.0357100 0.0025848 3.7500000
v -1.0357100 0.0025848 -3.7500000
v -3.1070267 0.0232630 -3.7500000
v -1.0357100 0.0025848 3.7500000
v 1.0357100 0.0025848 3.7500000
v 1.0357100 0.0025848 -3.7500000
v -1.0357100 0.0025848 -3.7500000
v 1.0357100 0.0025848 3.7500000
v 3.1070267 0.0232630 3.7500000
v 3.1070267 0.0232630 -3.7500000
v 1.0357100 0.0025848 -3.7500000
v 3.1070267 0.0232630 3.7500000
v 5.1780339 0.0646174 3.7500000
v 5.1780339 0.0646174 -3.7500000
v 3.1070267 0.0232630 -3.7500000
v 5.1780339 0.0646174 3.7500000
v 7.2485250 0.1266437 3.7500000
v 7.2485250 0.1266437 -3.7500000
v 5.1780339 0.0646174 -3.7500000
v -7.2480883 0.1391361 -3.4000000
v -5.1777219 0.0771135 -3.4000000
v -5.1777219 0.0771135 -3.7500000
v -7.2480883 0.1391361 -3.7500000
v -5.1777219 0.0771135 -3.4000000
v -3.1068396 0.0357616 -3.4000000
v -3.1068396 0.0357616 -3.7500000
v -5.1777219 0.0771135 -3.7500000
v -3.1068396 0.0357616 -3.4000000
v -1.0356476 0.0150847 -3.4000000
v -1.0356476 0.0150847 -3.7500000
v -3.1068396 0.0357616 -3.7500000
v -1.0356476 0.0150847 -3.4000000
v 1.0356476 0.0150847 -3.4000000
v 1.0356476 0.0150847 -3.7500000
v -1.0356476 0.0150847 -3.7500000
v 1.0356476 0.0150847 -3.4000000
v 3.1068396 0.0357616 -3.4000000
v 3.1068396 0.0357616 -3.7500000
v 1.0356476 0.0150847 -3.7500000
v 3.1068396 0.0357616 -3.4000000
v 5.1777219 0.0771135 -3.4000000
v 5.1777219 0.0771135 -3.7500000
v 3.1068396 0.0357616 -3.7500000
v 5.1777219 0.0771135 -3.4000000
v 7.2480883 0.1391361 -3.4000000
v 7.2480883 0.1391361 -3.7500000
v 5.1777219 0.0771135 -3.7500000
v -7.2480883 0.1391361 3.7500000
v -5.1777219 0.0771135 3.7500000
v -5.1777219 0.0771135 3.4000000
v -7.2480883 0.1391361 3.4000000
v -5.1777219 0.0771135 3.7500000
v -3.1068396 0.0357616 3.7500000
v -3.1068396 0.0357616 3.4000000
v -5.1777219 0.0771135 3.4000000
v -3.1068396 0.0357616 3.7500000
v -1.0356476 0.0150847 3.7500000
v -1.0356476 0.0150847 3.4000000
v -3.1068396 0.0357616 3.4000000
v -1.0356476 0.0150847 3.7500000
v 1.0356476 0.0150847 3.7500000
v 1.0356476 0.0150847 3.4000000
v -1.0356476 0.0150847 3.4000000
v 1.0356476 0.0150847 3.7500000
v 3.1068396 0.0357616 3.7500000
v 3.1068396 0.0357616 3.4000000
v 1.0356476 0.0150847 3.4000000
v 3.1068396 0.0357616 3.7500000
v 5.1777219 0.0771135 3.7500000
v 5.1777219 0.0771135 3.4000000
v 3.1068396 0.0357616 3.4000000
v 5.1777219 0.0771135 3.7500000
v 7.2480883 0.1391361 3.7500000
v 7.2480883 0.1391361 3.4000000
v 5.1777219 0.0771135 3.4000000
v -0.2999818 0.0127169 3.7500000
v 0.2999818 0.0127169 3.7500000
v 0.2999818 0.0127169 -3.7500000
v -0.2999818 0.0127169 -3.7500000
v -6.8976479 0.1471944 -1.2958333
v -4.7155218 0.0860964 -1.2958333
v -4.7155218 0.0860964 -3.4000000
v -6.8976479 0.1471944 -3.4000000
v -4.7155218 0.0860964 -1.2958333
v -2.5328736 0.0479619 -1.2958333
v -2.5328736 0.0479619 -3.4000000
v -4.7155218 0.0860964 -3.4000000
v -2.5328736 0.0479619 -1.2958333
v -0.3499450 0.0327951 -1.2958333
v -0.3499450 0.0327951 -3.4000000
v -2.5328736 0.0479619 -3.4000000
v -6.8966505 0.1771778 -1.2458333
v -4.7148399 0.1160886 -1.2458333
v -4.7148399 0.1160886 -1.2958333
v -6.8966505 0.1771778 -1.2958333
v -4.7148399 0.1160886 -1.2458333
v -2.5325074 0.0779597 -1.2458333
v -2.5325074 0.0779597 -1.2958333
v -4.7148399 0.1160886 -1.2958333
v -2.5325074 0.0779597 -1.2458333
v -0.3498944 0.0627951 -1.2458333
v -0.3498944 0.0627951 -1.2958333
v -2.5325074 0.0779597 -1.2958333
v 0.3499450 0.0327951 -1.2958333
v 2.5328736 0.0479619 -1.2958333
v 2.5328736 0.0479619 -3.4000000
v 0.3499450 0.0327951 -3.4000000
v 2.5328736 0.0479619 -1.2958333
v 4.7155218 0.0860964 -1.2958333
v 4.7155218 0.0860964 -3.4000000
v 2.5328736 0.0479619 -3.4000000
v 4.7155218 0.0860964 -1.2958333
v 6.8976479 0.1471944 -1.2958333
v 6.8976479 0.1471944 -3.4000000
v 4.7155218 0.0860964 -3.4000000
v 0.3498944 0.0627951 -1.2458333
v 2.5325074 0.0779597 -1.2458333
v 2.5325074 0.0779597 -1.2958333
v 0.3498944 0.0627951 -1.2958333
v 2.5325074 0.0779597 -1.2458333
v 4.7148399 0.1160886 -1.2458333
v 4.7148399 0.1160886 -1.2958333
v 2.5325074 0.0779597 -1.2958333
v 4.7148399 0.1160886 -1.2458333
v 6.8966505 0.1771778 -1.2458333
v 6.8966505 0.1771778 -1.2958333
v 4.7148399 0.1160886 -1.2958333
v -6.8976479 0.1471944 0.9708333
v -4.7155218 0.0860964 0.9708333
v -4.7155218 0.0860964 -1.1333333
v -6.8976479 0.1471944 -1.1333333
v -4.7155218 0.0860964 0.9708333
v -2.5328736 0.0479619 0.9708333
v -2.5328736 0.0479619 -1.1333333
v -4.7155218 0.0860964 -1.1333333
v -2.5328736 0.0479619 0.9708333
v -0.3499450 0.0327951 0.9708333
v -0.3499450 0.0327951 -1.1333333
v -2.5328736 0.0479619 -1.1333333
v -6.8966505 0.1771778 1.0208333
v -4.7148399 0.1160886 1.0208333
v -4.7148399 0.1160886 0.9708333
v -6.8966505 0.1771778 0.9708333
v -4.7148399 0.1160886 1.0208333
v -2.5325074 0.0779597 1.0208333
v -2.5325074 0.0779597 0.9708333
v -4.7148399 0.1160886 0.9708333
v -2.5325074 0.0779597 1.0208333
v -0.3498944 0.0627951 1.0208333
v -0.3498944 0.0627951 0.9708333
v -2.5325074 0.0779597 0.9708333
v 0.3499450 0.0327951 0.9708333
v 2.5328736 0.0479619 0.9708333
v 2.5328736 0.0479619 -1.1333333
v 0.3499450 0.0327951 -1.1333333
v 2.5328736 0.0479619 0.9708333
v 4.7155218 0.0860964 0.9708333
v 4.7155218 0.0860964 -1.1333333
v 2.5328736 0.0479619 -1.1333333
v 4.7155218 0.0860964 0.9708333
v 6.8976479 0.1471944 0.9708333
v 6.8976479 0.1471944 -1.1333333
v 4.7155218 0.0860964 -1.1333333
v 0.3498944 0.0627951 1.0208333
v 2.5325074 0.0779597 1.0208333
v 2.5325074 0.0779597 0.9708333
v 0.3498944 0.0627951 0.9708333
v 2.5325074 0.0779597 1.0208333
v 4.7148399 0.1160886 1.0208333
v 4.7148399 0.1160886 0.9708333
v 2.5325074 0.0779597 0.9708333
v 4.7148399 0.1160886 1.0208333
v 6.8966505 0.1771778 1.0208333
v 6.8966505 0.1771778 0.9708333
v 4.7148399 0.1160886 0.9708333
v -6.8976479 0.1471944 3.2375000
v -4.7155218 0.0860964 3.2375000
v -4.7155218 0.0860964 1.1333333
v -6.8976479 0.1471944 1.1333333
v -4.7155218 0.0860964 3.2375000
v -2.5328736 0.0479619 3.2375000
v -2.5328736 0.0479619 1.1333333
v -4.7155218 0.0860964 1.1333333
v -2.5328736 0.0479619 3.2375000
v -0.3499450 0.0327951 3.2375000
v -0.3499450 0.0327951 1.1333333
v -2.5328736 0.0479619 1.1333333
v -6.8966505 0.1771778 3.2875000
v -4.7148399 0.1160886 3.2875000
v -4.7148399 0.1160886 3.2375000
v -6.8966505 0.1771778 3.2375000
v -4.7148399 0.1160886 3.2875000
v -2.5325074 0.0779597 3.2875000
v -2.5325074 0.0779597 3.2375000
v -4.7148399 0.1160886 3.2375000
v -2.5325074 0.0779597 3.2875000
v -0.3498944 0.0627951 3.2875000
v -0.3498944 0.0627951 3.2375000
v -2.5325074 0.0779597 3.2375000
v 0.3499450 0.0327951 3.2375000
v 2.5328736 0.0479619 3.2375000
v 2.5328736 0.0479619 1.1333333
v 0.3499450 0.0327951 1.1333333
v 2.5328736 0.0479619 3.2375000
v 4.7155218 0.0860964 3.2375000
v 4.7155218 0.0860964 1.1333333
v 2.5328736 0.0479619 1.1333333
v 4.7155218 0.0860964 3.2375000
v 6.8976479 0.1471944 3.2375000
v 6.8976479 0.1471944 1.1333333
v 4.7155218 0.0860964 1.1333333
v 0.3498944 0.0627951 3.2875000
v 2.5325074 0.0779597 3.2875000
v 2.5325074 0.0779597 3.2375000
v 0.3498944 0.0627951 3.2375000
v 2.5325074 0.0779597 3.2875000
v 4.7148399 0.1160886 3.2875000
v 4.7148399 0.1160886 3.2375000
v 2.5325074 0.0779597 3.2375000
v 4.7148399 0.1160886 3.2875000
v 6.8966505 0.1771778 3.2875000
v 6.8966505 0.1771778 3.2375000
v 4.7148399 0.1160886 3.2375000
v -4.9217525 0.5960301 1.0000000
v -3.1766250 0.5618801 1.0000000
v -3.1766250 0.5618801 -1.0000000
v -4.9217525 0.5960301 -1.0000000
v -4.9217525 0.5960301 -1.0000000
v -3.1766250 0.5618801 -1.0000000
v -3.1846831 0.0369420 -1.0000000
v -4.9342375 0.0711786 -1.0000000
v -3.1766250 0.5618801 -1.0000000
v -3.1766250 0.5618801 1.0000000
v -3.1846831 0.0369420 1.0000000
v -3.1846831 0.0369420 -1.0000000
v -3.1766250 0.5618801 1.0000000
v -4.9217525 0.5960301 1.0000000
v -4.9342375 0.0711786 1.0000000
v -3.1846831 0.0369420 1.0000000
v -4.9217525 0.5960301 1.0000000
v -4.9217525 0.5960301 -1.0000000
v -4.9342375 0.0711786 -1.0000000
v -4.9342375 0.0711786 1.0000000
v 3.1766250 0.5618801 1.0000000
v 4.9217525 0.5960301 1.0000000
v 4.9217525 0.5960301 -1.0000000
v 3.1766250 0.5618801 -1.0000000
v 3.1766250 0.5618801 -1.0000000
v 4.9217525 0.5960301 -1.0000000
v 4.9342375 0.0711786 -1.0000000
v 3.1846831 0.0369420 -1.0000000
v 4.9217525 0.5960301 -1.0000000
v 4.9217525 0.5960301 1.0000000
v 4.9342375 0.0711786 1.0000000
v 4.9342375 0.0711786 -1.0000000
v 4.9217525 0.5960301 1.0000000
v 3.1766250 0.5618801 1.0000000
v 3.1846831 0.0369420 1.0000000
v 4.9342375 0.0711786 1.0000000
v 3.1766250 0.5618801 1.0000000
v 3.1766250 0.5618801 -1.0000000
v 3.1846831 0.0369420 -1.0000000
v 3.1846831 0.0369420 1.0000000
vt 0.005000 0.995000
vt 0.245000 0.995000
vt 0.245000 0.755000
vt 0.255000 0.995000
vt 0.495000 0.995000
vt 0.495000 0.755000
vt 0.505000 0.995000
vt 0.745000 0.995000
vt 0.745000 0.755000
vt 0.755000 0.995000
vt 0.995000 0.995000
vt 0.995000 0.755000
vt 0.005000 0.745000
vt 0.245000 0.745000
vt 0.245000 0.505000
vt 0.255000 0.745000
vt 0.495000 0.745000
vt 0.495000 0.505000
vt 0.505000 0.745000
vt 0.745000 0.745000
vt 0.745000 0.505000
vt 0.755000 0.745000
vt 0.995000 0.745000
vt 0.995000 0.505000
vt 0.005000 0.495000
vt 0.245000 0.495000
vt 0.245000 0.255000
vt 0.255000 0.495000
vt 0.495000 0.495000
vt 0.495000 0.255000
vt 0.505000 0.495000
vt 0.745000 0.495000
vt 0.745000 0.255000
vt 0.755000 0.495000
vt 0.995000 0.495000
vt 0.995000 0.255000
vt 0.005000 0.245000
vt 0.245000 0.245000
vt 0.245000 0.005000
vt 0.255000 0.245000
vt 0.495000 0.245000
vt 0.495000 0.005000
vt 0.505000 0.245000
vt 0.745000 0.245000
vt 0.745000 0.005000
vt 0.755000 0.245000
vt 0.995000 0.245000
vt 0.995000 0.005000
g solid
usemtl farm-kit
f 101/28 102/29 103/30
f 101/28 103/29 104/30
f 105/28 106/29 107/30
f 105/28 107/29 108/30
f 109/28 110/29 111/30
f 109/28 111/29 112/30
f 125/28 126/29 127/30
f 125/28 127/29 128/30
f 129/28 130/29 131/30
f 129/28 131/29 132/30
f 133/28 134/29 135/30
f 133/28 135/29 136/30
f 149/28 150/29 151/30
f 149/28 151/29 152/30
f 153/28 154/29 155/30
f 153/28 155/29 156/30
f 157/28 158/29 159/30
f 157/28 159/29 160/30
f 173/28 174/29 175/30
f 173/28 175/29 176/30
f 177/28 178/29 179/30
f 177/28 179/29 180/30
f 181/28 182/29 183/30
f 181/28 183/29 184/30
f 197/28 198/29 199/30
f 197/28 199/29 200/30
f 201/28 202/29 203/30
f 201/28 203/29 204/30
f 205/28 206/29 207/30
f 205/28 207/29 208/30
f 221/28 222/29 223/30
f 221/28 223/29 224/30
f 225/28 226/29 227/30
f 225/28 227/29 228/30
f 229/28 230/29 231/30
f 229/28 231/29 232/30
f 233/31 234/32 235/33
f 233/31 235/32 236/33
f 237/31 238/32 239/33
f 237/31 239/32 240/33
f 241/31 242/32 243/33
f 241/31 243/32 244/33
f 245/31 246/32 247/33
f 245/31 247/32 248/33
f 249/31 250/32 251/33
f 249/31 251/32 252/33
f 253/31 254/32 255/33
f 253/31 255/32 256/33
f 257/31 258/32 259/33
f 257/31 259/32 260/33
f 261/31 262/32 263/33
f 261/31 263/32 264/33
f 265/31 266/32 267/33
f 265/31 267/32 268/33
f 269/31 270/32 271/33
f 269/31 271/32 272/33
g support
usemtl farm-kit
f 1/1 2/2 3/3
f 1/1 3/2 4/3
f 5/1 6/2 7/3
f 5/1 7/2 8/3
f 9/1 10/2 11/3
f 9/1 11/2 12/3
f 13/1 14/2 15/3
f 13/1 15/2 16/3
f 17/1 18/2 19/3
f 17/1 19/2 20/3
f 21/1 22/2 23/3
f 21/1 23/2 24/3
f 25/1 26/2 27/3
f 25/1 27/2 28/3
f 29/4 30/5 31/6
f 29/4 31/5 32/6
f 33/4 34/5 35/6
f 33/4 35/5 36/6
f 37/4 38/5 39/6
f 37/4 39/5 40/6
f 41/4 42/5 43/6
f 41/4 43/5 44/6
f 45/4 46/5 47/6
f 45/4 47/5 48/6
f 49/4 50/5 51/6
f 49/4 51/5 52/6
f 53/4 54/5 55/6
f 53/4 55/5 56/6
f 57/4 58/5 59/6
f 57/4 59/5 60/6
f 61/4 62/5 63/6
f 61/4 63/5 64/6
f 65/4 66/5 67/6
f 65/4 67/5 68/6
f 69/4 70/5 71/6
f 69/4 71/5 72/6
f 73/4 74/5 75/6
f 73/4 75/5 76/6
f 77/4 78/5 79/6
f 77/4 79/5 80/6
f 81/4 82/5 83/6
f 81/4 83/5 84/6
f 85/4 86/5 87/6
f 85/4 87/5 88/6
g water
usemtl farm-water
f 89/25 90/26 91/27
f 89/25 91/26 92/27
f 93/25 94/26 95/27
f 93/25 95/26 96/27
f 97/25 98/26 99/27
f 97/25 99/26 100/27
f 113/25 114/26 115/27
f 113/25 115/26 116/27
f 117/25 118/26 119/27
f 117/25 119/26 120/27
f 121/25 122/26 123/27
f 121/25 123/26 124/27
f 137/25 138/26 139/27
f 137/25 139/26 140/27
f 141/25 142/26 143/27
f 141/25 143/26 144/27
f 145/25 146/26 147/27
f 145/25 147/26 148/27
f 161/25 162/26 163/27
f 161/25 163/26 164/27
f 165/25 166/26 167/27
f 165/25 167/26 168/27
f 169/25 170/26 171/27
f 169/25 171/26 172/27
f 185/25 186/26 187/27
f 185/25 187/26 188/27
f 189/25 190/26 191/27
f 189/25 191/26 192/27
f 193/25 194/26 195/27
f 193/25 195/26 196/27
f 209/25 210/26 211/27
f 209/25 211/26 212/27
f 213/25 214/26 215/27
f 213/25 215/26 216/27
f 217/25 218/26 219/27
f 217/25 219/26 220/27
