mtllib TorusSettlementFarm_A59.mtl
v -1.6840110 0.0065194 12.0000000
v 0.0000000 0.0000000 12.0000000
v 0.0000000 0.0000000 -12.0000000
v -1.6840110 0.0065194 -12.0000000
v 0.0000000 0.0000000 12.0000000
v 1.6840110 0.0065194 12.0000000
v 1.6840110 0.0065194 -12.0000000
v 0.0000000 0.0000000 -12.0000000
v -1.6839142 0.0190190 -11.6500000
v 0.0000000 0.0125000 -11.6500000
v 0.0000000 0.0125000 -12.0000000
v -1.6839142 0.0190190 -12.0000000
v 0.0000000 0.0125000 -11.6500000
v 1.6839142 0.0190190 -11.6500000
v 1.6839142 0.0190190 -12.0000000
v 0.0000000 0.0125000 -12.0000000
v -1.6839142 0.0190190 12.0000000
v 0.0000000 0.0125000 12.0000000
v 0.0000000 0.0125000 11.6500000
v -1.6839142 0.0190190 11.6500000
v 0.0000000 0.0125000 12.0000000
v 1.6839142 0.0190190 12.0000000
v 1.6839142 0.0190190 11.6500000
v 0.0000000 0.0125000 11.6500000
v -0.2999827 0.0127069 12.0000000
v 0.2999827 0.0127069 12.0000000
v 0.2999827 0.0127069 -12.0000000
v -0.2999827 0.0127069 -12.0000000
v -1.3331454 0.1465884 -11.0841429
v -0.3247869 0.1427427 -11.0841429
v -0.3249065 0.0627427 -11.6500000
v -1.3336361 0.0665899 -11.6500000
v -1.3336361 0.0665899 -10.5182857
v -0.3249065 0.0627427 -10.5182857
v -0.3247869 0.1427427 -11.0841429
v -1.3331454 0.1465884 -11.0841429
v 0.3247869 0.1427427 -11.0841429
v 1.3331454 0.1465884 -11.0841429
v 1.3336361 0.0665899 -11.6500000
v 0.3249065 0.0627427 -11.6500000
v 0.3249065 0.0627427 -10.5182857
v 1.3336361 0.0665899 -10.5182857
v 1.3331454 0.1465884 -11.0841429
v 0.3247869 0.1427427 -11.0841429
v -1.3331454 0.1465884 -9.4198571
v -0.3247869 0.1427427 -9.4198571
v -0.3249065 0.0627427 -9.9857143
v -1.3336361 0.0665899 -9.9857143
v -1.3336361 0.0665899 -8.8540000
v -0.3249065 0.0627427 -8.8540000
v -0.3247869 0.1427427 -9.4198571
v -1.3331454 0.1465884 -9.4198571
v 0.3247869 0.1427427 -9.4198571
v 1.3331454 0.1465884 -9.4198571
v 1.3336361 0.0665899 -9.9857143
v 0.3249065 0.0627427 -9.9857143
v 0.3249065 0.0627427 -8.8540000
v 1.3336361 0.0665899 -8.8540000
v 1.3331454 0.1465884 -9.4198571
v 0.3247869 0.1427427 -9.4198571
v -1.3331454 0.1465884 -7.7555714
v -0.3247869 0.1427427 -7.7555714
v -0.3249065 0.0627427 -8.3214286
v -1.3336361 0.0665899 -8.3214286
v -1.3336361 0.0665899 -7.1897143
v -0.3249065 0.0627427 -7.1897143
v -0.3247869 0.1427427 -7.7555714
v -1.3331454 0.1465884 -7.7555714
v 0.3247869 0.1427427 -7.7555714
v 1.3331454 0.1465884 -7.7555714
v 1.3336361 0.0665899 -8.3214286
v 0.3249065 0.0627427 -8.3214286
v 0.3249065 0.0627427 -7.1897143
v 1.3336361 0.0665899 -7.1897143
v 1.3331454 0.1465884 -7.7555714
v 0.3247869 0.1427427 -7.7555714
v -1.3331454 0.1465884 -6.0912857
v -0.3247869 0.1427427 -6.0912857
v -0.3249065 0.0627427 -6.6571429
v -1.3336361 0.0665899 -6.6571429
v -1.3336361 0.0665899 -5.5254286
v -0.3249065 0.0627427 -5.5254286
v -0.3247869 0.1427427 -6.0912857
v -1.3331454 0.1465884 -6.0912857
v 0.3247869 0.1427427 -6.0912857
v 1.3331454 0.1465884 -6.0912857
v 1.3336361 0.0665899 -6.6571429
v 0.3249065 0.0627427 -6.6571429
v 0.3249065 0.0627427 -5.5254286
v 1.3336361 0.0665899 -5.5254286
v 1.3331454 0.1465884 -6.0912857
v 0.3247869 0.1427427 -6.0912857
v -1.3331454 0.1465884 -4.4270000
v -0.3247869 0.1427427 -4.4270000
v -0.3249065 0.0627427 -4.9928571
v -1.3336361 0.0665899 -4.9928571
v -1.3336361 0.0665899 -3.8611429
v -0.3249065 0.0627427 -3.8611429
v -0.3247869 0.1427427 -4.4270000
v -1.3331454 0.1465884 -4.4270000
v 0.3247869 0.1427427 -4.4270000
v 1.3331454 0.1465884 -4.4270000
v 1.3336361 0.0665899 -4.9928571
v 0.3249065 0.0627427 -4.9928571
v 0.3249065 0.0627427 -3.8611429
v 1.3336361 0.0665899 -3.8611429
v 1.3331454 0.1465884 -4.4270000
v 0.3247869 0.1427427 -4.4270000
v -1.3331454 0.1465884 -2.7627143
v -0.3247869 0.1427427 -2.7627143
v -0.3249065 0.0627427 -3.3285714
v -1.3336361 0.0665899 -3.3285714
v -1.3336361 0.0665899 -2.1968571
v -0.3249065 0.0627427 -2.1968571
v -0.3247869 0.1427427 -2.7627143
v -1.3331454 0.1465884 -2.7627143
v 0.3247869 0.1427427 -2.7627143
v 1.3331454 0.1465884 -2.7627143
v 1.3336361 0.0665899 -3.3285714
v 0.3249065 0.0627427 -3.3285714
v 0.3249065 0.0627427 -2.1968571
v 1.3336361 0.0665899 -2.1968571
v 1.3331454 0.1465884 -2.7627143
v 0.3247869 0.1427427 -2.7627143
v -1.3331454 0.1465884 -1.0984286
v -0.3247869 0.1427427 -1.0984286
v -0.3249065 0.0627427 -1.6642857
v -1.3336361 0.0665899 -1.6642857
v -1.3336361 0.0665899 -0.5325714
v -0.3249065 0.0627427 -0.5325714
v -0.3247869 0.1427427 -1.0984286
v -1.3331454 0.1465884 -1.0984286
v 0.3247869 0.1427427 -1.0984286
v 1.3331454 0.1465884 -1.0984286
v 1.3336361 0.0665899 -1.6642857
v 0.3249065 0.0627427 -1.6642857
v 0.3249065 0.0627427 -0.5325714
v 1.3336361 0.0665899 -0.5325714
v 1.3331454 0.1465884 -1.0984286
v 0.3247869 0.1427427 -1.0984286
v -1.3331454 0.1465884 0.5658571
v -0.3247869 0.1427427 0.5658571
v -0.3249065 0.0627427 0.0000000
v -1.3336361 0.0665899 0.0000000
v -1.3336361 0.0665899 1.1317143
v -0.3249065 0.0627427 1.1317143
v -0.3247869 0.1427427 0.5658571
v -1.3331454 0.1465884 0.5658571
v 0.3247869 0.1427427 0.5658571
v 1.3331454 0.1465884 0.5658571
v 1.3336361 0.0665899 0.0000000
v 0.3249065 0.0627427 0.0000000
v 0.3249065 0.0627427 1.1317143
v 1.3336361 0.0665899 1.1317143
v 1.3331454 0.1465884 0.5658571
v 0.3247869 0.1427427 0.5658571
v -1.3331454 0.1465884 2.2301429
v -0.3247869 0.1427427 2.2301429
v -0.3249065 0.0627427 1.6642857
v -1.3336361 0.0665899 1.6642857
v -1.3336361 0.0665899 2.7960000
v -0.3249065 0.0627427 2.7960000
v -0.3247869 0.1427427 2.2301429
v -1.3331454 0.1465884 2.2301429
v 0.3247869 0.1427427 2.2301429
v 1.3331454 0.1465884 2.2301429
v 1.3336361 0.0665899 1.6642857
v 0.3249065 0.0627427 1.6642857
v 0.3249065 0.0627427 2.7960000
v 1.3336361 0.0665899 2.7960000
v 1.3331454 0.1465884 2.2301429
v 0.3247869 0.1427427 2.2301429
v -1.3331454 0.1465884 3.8944286
v -0.3247869 0.1427427 3.8944286
v -0.3249065 0.0627427 3.3285714
v -1.3336361 0.0665899 3.3285714
v -1.3336361 0.0665899 4.4602857
v -0.3249065 0.0627427 4.4602857
v -0.3247869 0.1427427 3.8944286
v -1.3331454 0.1465884 3.8944286
v 0.3247869 0.1427427 3.8944286
v 1.3331454 0.1465884 3.8944286
v 1.3336361 0.0665899 3.3285714
v 0.3249065 0.0627427 3.3285714
v 0.3249065 0.0627427 4.4602857
v 1.3336361 0.0665899 4.4602857
v 1.3331454 0.1465884 3.8944286
v 0.3247869 0.1427427 3.8944286
v -1.3331454 0.1465884 5.5587143
v -0.3247869 0.1427427 5.5587143
v -0.3249065 0.0627427 4.9928571
v -1.3336361 0.0665899 4.9928571
v -1.3336361 0.0665899 6.1245714
v -0.3249065 0.0627427 6.1245714
v -0.3247869 0.1427427 5.5587143
v -1.3331454 0.1465884 5.5587143
v 0.3247869 0.1427427 5.5587143
v 1.3331454 0.1465884 5.5587143
v 1.3336361 0.0665899 4.9928571
v 0.3249065 0.0627427 4.9928571
v 0.3249065 0.0627427 6.1245714
v 1.3336361 0.0665899 6.1245714
v 1.3331454 0.1465884 5.5587143
v 0.3247869 0.1427427 5.5587143
v -1.3331454 0.1465884 7.2230000
v -0.3247869 0.1427427 7.2230000
v -0.3249065 0.0627427 6.6571429
v -1.3336361 0.0665899 6.6571429
v -1.3336361 0.0665899 7.7888571
v -0.3249065 0.0627427 7.7888571
v -0.3247869 0.1427427 7.2230000
v -1.3331454 0.1465884 7.2230000
v 0.3247869 0.1427427 7.2230000
v 1.3331454 0.1465884 7.2230000
v 1.3336361 0.0665899 6.6571429
v 0.3249065 0.0627427 6.6571429
v 0.3249065 0.0627427 7.7888571
v 1.3336361 0.0665899 7.7888571
v 1.3331454 0.1465884 7.2230000
v 0.3247869 0.1427427 7.2230000
v -1.3331454 0.1465884 8.8872857
v -0.3247869 0.1427427 8.8872857
v -0.3249065 0.0627427 8.3214286
v -1.3336361 0.0665899 8.3214286
v -1.3336361 0.0665899 9.4531429
v -0.3249065 0.0627427 9.4531429
v -0.3247869 0.1427427 8.8872857
v -1.3331454 0.1465884 8.8872857
v 0.3247869 0.1427427 8.8872857
v 1.3331454 0.1465884 8.8872857
v 1.3336361 0.0665899 8.3214286
v 0.3249065 0.0627427 8.3214286
v 0.3249065 0.0627427 9.4531429
v 1.3336361 0.0665899 9.4531429
v 1.3331454 0.1465884 8.8872857
v 0.3247869 0.1427427 8.8872857
v -1.3331454 0.1465884 10.5515714
v -0.3247869 0.1427427 10.5515714
v -0.3249065 0.0627427 9.9857143
v -1.3336361 0.0665899 9.9857143
v -1.3336361 0.0665899 11.1174286
v -0.3249065 0.0627427 11.1174286
v -0.3247869 0.1427427 10.5515714
v -1.3331454 0.1465884 10.5515714
v 0.3247869 0.1427427 10.5515714
v 1.3331454 0.1465884 10.5515714
v 1.3336361 0.0665899 9.9857143
v 0.3249065 0.0627427 9.9857143
v 0.3249065 0.0627427 11.1174286
v 1.3336361 0.0665899 11.1174286
v 1.3331454 0.1465884 10.5515714
v 0.3247869 0.1427427 10.5515714
v -1.3286527 0.8790746 -7.1750000
v 0.0000000 0.8750000 -7.1750000
v 0.0000000 0.8750000 -7.2250000
v -1.3286527 0.8790746 -7.2250000
v 0.0000000 0.8750000 -7.1750000
v 1.3286527 0.8790746 -7.1750000
v 1.3286527 0.8790746 -7.2250000
v 0.0000000 0.8750000 -7.2250000
v -1.3286527 0.8790746 7.2250000
v 0.0000000 0.8750000 7.2250000
v 0.0000000 0.8750000 7.1750000
v -1.3286527 0.8790746 7.1750000
v 0.0000000 0.8750000 7.2250000
v 1.3286527 0.8790746 7.2250000
v 1.3286527 0.8790746 7.1750000
v 0.0000000 0.8750000 7.1750000
vt 0.005000 0.995000
vt 0.245000 0.995000
vt 0.245000 0.755000
vt 0.255000 0.995000
vt 0.495000 0.995000
vt 0.495000 0.755000
vt 0.505000 0.995000
vt 0.745000 0.995000
vt 0.745000 0.755000
vt 0.755000 0.995000
vt 0.995000 0.995000
vt 0.995000 0.755000
vt 0.005000 0.745000
vt 0.245000 0.745000
vt 0.245000 0.505000
vt 0.255000 0.745000
vt 0.495000 0.745000
vt 0.495000 0.505000
vt 0.505000 0.745000
vt 0.745000 0.745000
vt 0.745000 0.505000
vt 0.755000 0.745000
vt 0.995000 0.745000
vt 0.995000 0.505000
vt 0.005000 0.495000
vt 0.245000 0.495000
vt 0.245000 0.255000
vt 0.255000 0.495000
vt 0.495000 0.495000
vt 0.495000 0.255000
vt 0.505000 0.495000
vt 0.745000 0.495000
vt 0.745000 0.255000
vt 0.755000 0.495000
vt 0.995000 0.495000
vt 0.995000 0.255000
vt 0.005000 0.245000
vt 0.245000 0.245000
vt 0.245000 0.005000
vt 0.255000 0.245000
vt 0.495000 0.245000
vt 0.495000 0.005000
vt 0.505000 0.245000
vt 0.745000 0.245000
vt 0.745000 0.005000
vt 0.755000 0.245000
vt 0.995000 0.245000
vt 0.995000 0.005000
g lighting
usemtl farm-kit
f 253/43 254/44 255/45
f 253/43 255/44 256/45
f 257/43 258/44 259/45
f 257/43 259/44 260/45
f 261/43 262/44 263/45
f 261/43 263/44 264/45
f 265/43 266/44 267/45
f 265/43 267/44 268/45
g ornament
usemtl farm-kit
f 29/13 30/14 31/15
f 29/13 31/14 32/15
f 33/13 34/14 35/15
f 33/13 35/14 36/15
f 37/13 38/14 39/15
f 37/13 39/14 40/15
f 41/13 42/14 43/15
f 41/13 43/14 44/15
f 45/13 46/14 47/15
f 45/13 47/14 48/15
f 49/13 50/14 51/15
f 49/13 51/14 52/15
f 53/13 54/14 55/15
f 53/13 55/14 56/15
f 57/13 58/14 59/15
f 57/13 59/14 60/15
f 61/13 62/14 63/15
f 61/13 63/14 64/15
f 65/13 66/14 67/15
f 65/13 67/14 68/15
f 69/13 70/14 71/15
f 69/13 71/14 72/15
f 73/13 74/14 75/15
f 73/13 75/14 76/15
f 77/13 78/14 79/15
f 77/13 79/14 80/15
f 81/13 82/14 83/15
f 81/13 83/14 84/15
f 85/13 86/14 87/15
f 85/13 87/14 88/15
f 89/13 90/14 91/15
f 89/13 91/14 92/15
f 93/13 94/14 95/15
f 93/13 95/14 96/15
f 97/13 98/14 99/15
f 97/13 99/14 100/15
f 101/13 102/14 103/15
f 101/13 103/14 104/15
f 105/13 106/14 107/15
f 105/13 107/14 108/15
f 109/13 110/14 111/15
f 109/13 111/14 112/15
f 113/13 114/14 115/15
f 113/13 115/14 116/15
f 117/13 118/14 119/15
f 117/13 119/14 120/15
f 121/13 122/14 123/15
f 121/13 123/14 124/15
f 125/13 126/14 127/15
f 125/13 127/14 128/15
f 129/13 130/14 131/15
f 129/13 131/14 132/15
f 133/13 134/14 135/15
f 133/13 135/14 136/15
f 137/13 138/14 139/15
f 137/13 139/14 140/15
f 141/13 142/14 143/15
f 141/13 143/14 144/15
f 145/13 146/14 147/15
f 145/13 147/14 148/15
f 149/13 150/14 151/15
f 149/13 151/14 152/15
f 153/13 154/14 155/15
f 153/13 155/14 156/15
f 157/13 158/14 159/15
f 157/13 159/14 160/15
f 161/13 162/14 163/15
f 161/13 163/14 164/15
f 165/13 166/14 167/15
f 165/13 167/14 168/15
f 169/13 170/14 171/15
f 169/13 171/14 172/15
f 173/13 174/14 175/15
f 173/13 175/14 176/15
f 177/13 178/14 179/15
f 177/13 179/14 180/15
f 181/13 182/14 183/15
f 181/13 183/14 184/15
f 185/13 186/14 187/15
f 185/13 187/14 188/15
f 189/13 190/14 191/15
f 189/13 191/14 192/15
f 193/13 194/14 195/15
f 193/13 195/14 196/15
f 197/13 198/14 199/15
f 197/13 199/14 200/15
f 201/13 202/14 203/15
f 201/13 203/14 204/15
f 205/13 206/14 207/15
f 205/13 207/14 208/15
f 209/13 210/14 211/15
f 209/13 211/14 212/15
f 213/13 214/14 215/15
f 213/13 215/14 216/15
f 217/13 218/14 219/15
f 217/13 219/14 220/15
f 221/13 222/14 223/15
f 221/13 223/14 224/15
f 225/13 226/14 227/15
f 225/13 227/14 228/15
f 229/13 230/14 231/15
f 229/13 231/14 232/15
f 233/13 234/14 235/15
f 233/13 235/14 236/15
f 237/13 238/14 239/15
f 237/13 239/14 240/15
f 241/13 242/14 243/15
f 241/13 243/14 244/15
f 245/13 246/14 247/15
f 245/13 247/14 248/15
f 249/13 250/14 251/15
f 249/13 251/14 252/15
g support
usemtl farm-kit
f 1/1 2/2 3/3
f 1/1 3/2 4/3
f 5/1 6/2 7/3
f 5/1 7/2 8/3
f 9/4 10/5 11/6
f 9/4 11/5 12/6
f 13/4 14/5 15/6
f 13/4 15/5 16/6
f 17/4 18/5 19/6
f 17/4 19/5 20/6
f 21/4 22/5 23/6
f 21/4 23/5 24/6
f 25/4 26/5 27/6
f 25/4 27/5 28/6
