mtllib TorusUtility_PowerDistributionA.mtl
o TorusUtility_PowerDistributionA
usemtl TorusUtilityKit
v -0.97500000 0.00000000 -0.75000000
v -0.97500000 0.04000000 -0.75000000
v 0.97500000 0.04000000 -0.75000000
v 0.97500000 0.00000000 -0.75000000
v -0.97500000 0.00000000 0.70000000
v 0.97500000 0.00000000 0.70000000
v 0.97500000 0.04000000 0.70000000
v -0.97500000 0.04000000 0.70000000
v -0.85000000 0.04000000 0.62500000
v -0.85000000 0.04100000 0.62500000
v 0.85000000 0.04100000 0.62500000
v 0.85000000 0.04000000 0.62500000
v -0.85000000 0.04000000 0.65000000
v 0.85000000 0.04000000 0.65000000
v 0.85000000 0.04100000 0.65000000
v -0.85000000 0.04100000 0.65000000
v -0.77750000 0.04000000 -0.29375000
v -0.77750000 0.76000000 -0.29375000
v -0.42250000 0.76000000 -0.29375000
v -0.42250000 0.04000000 -0.29375000
v -0.77750000 0.04000000 -0.03125000
v -0.42250000 0.04000000 -0.03125000
v -0.42250000 0.76000000 -0.03125000
v -0.77750000 0.76000000 -0.03125000
v -0.75500000 0.07750000 -0.03062500
v -0.75500000 0.73250000 -0.03062500
v -0.44500000 0.73250000 -0.03062500
v -0.44500000 0.07750000 -0.03062500
v -0.75500000 0.07750000 -0.01937500
v -0.44500000 0.07750000 -0.01937500
v -0.44500000 0.73250000 -0.01937500
v -0.75500000 0.73250000 -0.01937500
v -0.71250000 0.56000000 -0.02125000
v -0.71250000 0.65500000 -0.02125000
v -0.48750000 0.65500000 -0.02125000
v -0.48750000 0.56000000 -0.02125000
v -0.71250000 0.56000000 -0.01375000
v -0.48750000 0.56000000 -0.01375000
v -0.48750000 0.65500000 -0.01375000
v -0.71250000 0.65500000 -0.01375000
v -0.68125000 0.42000000 -0.01875000
v -0.68125000 0.49500000 -0.01875000
v -0.51875000 0.49500000 -0.01875000
v -0.51875000 0.42000000 -0.01875000
v -0.68125000 0.42000000 -0.00875000
v -0.51875000 0.42000000 -0.00875000
v -0.51875000 0.49500000 -0.00875000
v -0.68125000 0.49500000 -0.00875000
v -0.50375000 0.26000000 -0.01250000
v -0.50375000 0.36000000 -0.01250000
v -0.48625000 0.36000000 -0.01250000
v -0.48625000 0.26000000 -0.01250000
v -0.50375000 0.26000000 0.00500000
v -0.48625000 0.26000000 0.00500000
v -0.48625000 0.36000000 0.00500000
v -0.50375000 0.36000000 0.00500000
v -0.72250000 0.09750000 -0.02125000
v -0.72250000 0.21250000 -0.02125000
v -0.47750000 0.21250000 -0.02125000
v -0.47750000 0.09750000 -0.02125000
v -0.72250000 0.09750000 -0.01375000
v -0.47750000 0.09750000 -0.01375000
v -0.47750000 0.21250000 -0.01375000
v -0.72250000 0.21250000 -0.01375000
v -0.60000000 0.76250000 -0.14250000
v -0.58585787 0.76250000 -0.14835788
v -0.58585787 0.87500000 -0.14835788
v -0.60000000 0.87500000 -0.14250000
v -0.58000000 0.76250000 -0.16250000
v -0.58000000 0.87500000 -0.16250000
v -0.58585787 0.76250000 -0.17664213
v -0.58585787 0.87500000 -0.17664213
v -0.60000000 0.76250000 -0.18250000
v -0.60000000 0.87500000 -0.18250000
v -0.61414212 0.76250000 -0.17664213
v -0.61414212 0.87500000 -0.17664213
v -0.62000000 0.76250000 -0.16250000
v -0.62000000 0.87500000 -0.16250000
v -0.61414212 0.76250000 -0.14835788
v -0.61414212 0.87500000 -0.14835788
v -0.60000000 0.76250000 -0.16250000
v -0.60000000 0.87500000 -0.16250000
v -0.37750000 0.04000000 -0.29375000
v -0.37750000 0.76000000 -0.29375000
v -0.02250000 0.76000000 -0.29375000
v -0.02250000 0.04000000 -0.29375000
v -0.37750000 0.04000000 -0.03125000
v -0.02250000 0.04000000 -0.03125000
v -0.02250000 0.76000000 -0.03125000
v -0.37750000 0.76000000 -0.03125000
v -0.35500000 0.07750000 -0.03062500
v -0.35500000 0.73250000 -0.03062500
v -0.04500000 0.73250000 -0.03062500
v -0.04500000 0.07750000 -0.03062500
v -0.35500000 0.07750000 -0.01937500
v -0.04500000 0.07750000 -0.01937500
v -0.04500000 0.73250000 -0.01937500
v -0.35500000 0.73250000 -0.01937500
v -0.31250000 0.56000000 -0.02125000
v -0.31250000 0.65500000 -0.02125000
v -0.08750000 0.65500000 -0.02125000
v -0.08750000 0.56000000 -0.02125000
v -0.31250000 0.56000000 -0.01375000
v -0.08750000 0.56000000 -0.01375000
v -0.08750000 0.65500000 -0.01375000
v -0.31250000 0.65500000 -0.01375000
v -0.28125000 0.42000000 -0.01875000
v -0.28125000 0.49500000 -0.01875000
v -0.11875000 0.49500000 -0.01875000
v -0.11875000 0.42000000 -0.01875000
v -0.28125000 0.42000000 -0.00875000
v -0.11875000 0.42000000 -0.00875000
v -0.11875000 0.49500000 -0.00875000
v -0.28125000 0.49500000 -0.00875000
v -0.10375000 0.26000000 -0.01250000
v -0.10375000 0.36000000 -0.01250000
v -0.08625000 0.36000000 -0.01250000
v -0.08625000 0.26000000 -0.01250000
v -0.10375000 0.26000000 0.00500000
v -0.08625000 0.26000000 0.00500000
v -0.08625000 0.36000000 0.00500000
v -0.10375000 0.36000000 0.00500000
v -0.32250000 0.09750000 -0.02125000
v -0.32250000 0.21250000 -0.02125000
v -0.07750000 0.21250000 -0.02125000
v -0.07750000 0.09750000 -0.02125000
v -0.32250000 0.09750000 -0.01375000
v -0.07750000 0.09750000 -0.01375000
v -0.07750000 0.21250000 -0.01375000
v -0.32250000 0.21250000 -0.01375000
v -0.20000000 0.76250000 -0.14250000
v -0.18585788 0.76250000 -0.14835788
v -0.18585788 0.87500000 -0.14835788
v -0.20000000 0.87500000 -0.14250000
v -0.18000000 0.76250000 -0.16250000
v -0.18000000 0.87500000 -0.16250000
v -0.18585788 0.76250000 -0.17664213
v -0.18585788 0.87500000 -0.17664213
v -0.20000000 0.76250000 -0.18250000
v -0.20000000 0.87500000 -0.18250000
v -0.21414212 0.76250000 -0.17664213
v -0.21414212 0.87500000 -0.17664213
v -0.22000000 0.76250000 -0.16250000
v -0.22000000 0.87500000 -0.16250000
v -0.21414212 0.76250000 -0.14835788
v -0.21414212 0.87500000 -0.14835788
v -0.20000000 0.76250000 -0.16250000
v -0.20000000 0.87500000 -0.16250000
v 0.02250000 0.04000000 -0.29375000
v 0.02250000 0.76000000 -0.29375000
v 0.37750000 0.76000000 -0.29375000
v 0.37750000 0.04000000 -0.29375000
v 0.02250000 0.04000000 -0.03125000
v 0.37750000 0.04000000 -0.03125000
v 0.37750000 0.76000000 -0.03125000
v 0.02250000 0.76000000 -0.03125000
v 0.04500000 0.07750000 -0.03062500
v 0.04500000 0.73250000 -0.03062500
v 0.35500000 0.73250000 -0.03062500
v 0.35500000 0.07750000 -0.03062500
v 0.04500000 0.07750000 -0.01937500
v 0.35500000 0.07750000 -0.01937500
v 0.35500000 0.73250000 -0.01937500
v 0.04500000 0.73250000 -0.01937500
v 0.08750000 0.56000000 -0.02125000
v 0.08750000 0.65500000 -0.02125000
v 0.31250000 0.65500000 -0.02125000
v 0.31250000 0.56000000 -0.02125000
v 0.08750000 0.56000000 -0.01375000
v 0.31250000 0.56000000 -0.01375000
v 0.31250000 0.65500000 -0.01375000
v 0.08750000 0.65500000 -0.01375000
v 0.11875000 0.42000000 -0.01875000
v 0.11875000 0.49500000 -0.01875000
v 0.28125000 0.49500000 -0.01875000
v 0.28125000 0.42000000 -0.01875000
v 0.11875000 0.42000000 -0.00875000
v 0.28125000 0.42000000 -0.00875000
v 0.28125000 0.49500000 -0.00875000
v 0.11875000 0.49500000 -0.00875000
v 0.29625000 0.26000000 -0.01250000
v 0.29625000 0.36000000 -0.01250000
v 0.31375000 0.36000000 -0.01250000
v 0.31375000 0.26000000 -0.01250000
v 0.29625000 0.26000000 0.00500000
v 0.31375000 0.26000000 0.00500000
v 0.31375000 0.36000000 0.00500000
v 0.29625000 0.36000000 0.00500000
v 0.07750000 0.09750000 -0.02125000
v 0.07750000 0.21250000 -0.02125000
v 0.32250000 0.21250000 -0.02125000
v 0.32250000 0.09750000 -0.02125000
v 0.07750000 0.09750000 -0.01375000
v 0.32250000 0.09750000 -0.01375000
v 0.32250000 0.21250000 -0.01375000
v 0.07750000 0.21250000 -0.01375000
v 0.20000000 0.76250000 -0.14250000
v 0.21414212 0.76250000 -0.14835788
v 0.21414212 0.87500000 -0.14835788
v 0.20000000 0.87500000 -0.14250000
v 0.22000000 0.76250000 -0.16250000
v 0.22000000 0.87500000 -0.16250000
v 0.21414212 0.76250000 -0.17664213
v 0.21414212 0.87500000 -0.17664213
v 0.20000000 0.76250000 -0.18250000
v 0.20000000 0.87500000 -0.18250000
v 0.18585788 0.76250000 -0.17664213
v 0.18585788 0.87500000 -0.17664213
v 0.18000000 0.76250000 -0.16250000
v 0.18000000 0.87500000 -0.16250000
v 0.18585788 0.76250000 -0.14835788
v 0.18585788 0.87500000 -0.14835788
v 0.20000000 0.76250000 -0.16250000
v 0.20000000 0.87500000 -0.16250000
v 0.42250000 0.04000000 -0.29375000
v 0.42250000 0.76000000 -0.29375000
v 0.77750000 0.76000000 -0.29375000
v 0.77750000 0.04000000 -0.29375000
v 0.42250000 0.04000000 -0.03125000
v 0.77750000 0.04000000 -0.03125000
v 0.77750000 0.76000000 -0.03125000
v 0.42250000 0.76000000 -0.03125000
v 0.44500000 0.07750000 -0.03062500
v 0.44500000 0.73250000 -0.03062500
v 0.75500000 0.73250000 -0.03062500
v 0.75500000 0.07750000 -0.03062500
v 0.44500000 0.07750000 -0.01937500
v 0.75500000 0.07750000 -0.01937500
v 0.75500000 0.73250000 -0.01937500
v 0.44500000 0.73250000 -0.01937500
v 0.48750000 0.56000000 -0.02125000
v 0.48750000 0.65500000 -0.02125000
v 0.71250000 0.65500000 -0.02125000
v 0.71250000 0.56000000 -0.02125000
v 0.48750000 0.56000000 -0.01375000
v 0.71250000 0.56000000 -0.01375000
v 0.71250000 0.65500000 -0.01375000
v 0.48750000 0.65500000 -0.01375000
v 0.51875000 0.42000000 -0.01875000
v 0.51875000 0.49500000 -0.01875000
v 0.68125000 0.49500000 -0.01875000
v 0.68125000 0.42000000 -0.01875000
v 0.51875000 0.42000000 -0.00875000
v 0.68125000 0.42000000 -0.00875000
v 0.68125000 0.49500000 -0.00875000
v 0.51875000 0.49500000 -0.00875000
v 0.69625000 0.26000000 -0.01250000
v 0.69625000 0.36000000 -0.01250000
v 0.71375000 0.36000000 -0.01250000
v 0.71375000 0.26000000 -0.01250000
v 0.69625000 0.26000000 0.00500000
v 0.71375000 0.26000000 0.00500000
v 0.71375000 0.36000000 0.00500000
v 0.69625000 0.36000000 0.00500000
v 0.47750000 0.09750000 -0.02125000
v 0.47750000 0.21250000 -0.02125000
v 0.72250000 0.21250000 -0.02125000
v 0.72250000 0.09750000 -0.02125000
v 0.47750000 0.09750000 -0.01375000
v 0.72250000 0.09750000 -0.01375000
v 0.72250000 0.21250000 -0.01375000
v 0.47750000 0.21250000 -0.01375000
v 0.60000000 0.76250000 -0.14250000
v 0.61414212 0.76250000 -0.14835788
v 0.61414212 0.87500000 -0.14835788
v 0.60000000 0.87500000 -0.14250000
v 0.62000000 0.76250000 -0.16250000
v 0.62000000 0.87500000 -0.16250000
v 0.61414212 0.76250000 -0.17664213
v 0.61414212 0.87500000 -0.17664213
v 0.60000000 0.76250000 -0.18250000
v 0.60000000 0.87500000 -0.18250000
v 0.58585787 0.76250000 -0.17664213
v 0.58585787 0.87500000 -0.17664213
v 0.58000000 0.76250000 -0.16250000
v 0.58000000 0.87500000 -0.16250000
v 0.58585787 0.76250000 -0.14835788
v 0.58585787 0.87500000 -0.14835788
v 0.60000000 0.76250000 -0.16250000
v 0.60000000 0.87500000 -0.16250000
v -0.81250000 0.87000000 -0.23750000
v -0.81250000 0.93000000 -0.23750000
v 0.81250000 0.93000000 -0.23750000
v 0.81250000 0.87000000 -0.23750000
v -0.81250000 0.87000000 -0.08750000
v 0.81250000 0.87000000 -0.08750000
v 0.81250000 0.93000000 -0.08750000
v -0.81250000 0.93000000 -0.08750000
v -0.82500000 0.94500000 -0.21125000
v -0.82500000 0.95295495 -0.20795495
v 0.82500000 0.95295495 -0.20795495
v 0.82500000 0.94500000 -0.21125000
v -0.82500000 0.95625000 -0.20000000
v 0.82500000 0.95625000 -0.20000000
v -0.82500000 0.95295495 -0.19204505
v 0.82500000 0.95295495 -0.19204505
v -0.82500000 0.94500000 -0.18875000
v 0.82500000 0.94500000 -0.18875000
v -0.82500000 0.93704505 -0.19204505
v 0.82500000 0.93704505 -0.19204505
v -0.82500000 0.93375000 -0.20000000
v 0.82500000 0.93375000 -0.20000000
v -0.82500000 0.93704505 -0.20795495
v 0.82500000 0.93704505 -0.20795495
v -0.82500000 0.94500000 -0.20000000
v 0.82500000 0.94500000 -0.20000000
v -0.82500000 0.94500000 -0.16125000
v -0.82500000 0.95295495 -0.15795495
v 0.82500000 0.95295495 -0.15795495
v 0.82500000 0.94500000 -0.16125000
v -0.82500000 0.95625000 -0.15000000
v 0.82500000 0.95625000 -0.15000000
v -0.82500000 0.95295495 -0.14204505
v 0.82500000 0.95295495 -0.14204505
v -0.82500000 0.94500000 -0.13875000
v 0.82500000 0.94500000 -0.13875000
v -0.82500000 0.93704505 -0.14204505
v 0.82500000 0.93704505 -0.14204505
v -0.82500000 0.93375000 -0.15000000
v 0.82500000 0.93375000 -0.15000000
v -0.82500000 0.93704505 -0.15795495
v 0.82500000 0.93704505 -0.15795495
v -0.82500000 0.94500000 -0.15000000
v 0.82500000 0.94500000 -0.15000000
v -0.82500000 0.94500000 -0.11125000
v -0.82500000 0.95295495 -0.10795495
v 0.82500000 0.95295495 -0.10795495
v 0.82500000 0.94500000 -0.11125000
v -0.82500000 0.95625000 -0.10000000
v 0.82500000 0.95625000 -0.10000000
v -0.82500000 0.95295495 -0.09204505
v 0.82500000 0.95295495 -0.09204505
v -0.82500000 0.94500000 -0.08875000
v 0.82500000 0.94500000 -0.08875000
v -0.82500000 0.93704505 -0.09204505
v 0.82500000 0.93704505 -0.09204505
v -0.82500000 0.93375000 -0.10000000
v 0.82500000 0.93375000 -0.10000000
v -0.82500000 0.93704505 -0.10795495
v 0.82500000 0.93704505 -0.10795495
v -0.82500000 0.94500000 -0.10000000
v 0.82500000 0.94500000 -0.10000000
vt 0.01562500 0.26562500
vt 0.23437500 0.26562500
vt 0.23437500 0.48437500
vt 0.01562500 0.48437500
vt 0.01562500 0.26562500
vt 0.23437500 0.26562500
vt 0.23437500 0.48437500
vt 0.01562500 0.48437500
vt 0.01562500 0.26562500
vt 0.23437500 0.26562500
vt 0.23437500 0.48437500
vt 0.01562500 0.48437500
vt 0.01562500 0.26562500
vt 0.23437500 0.26562500
vt 0.23437500 0.48437500
vt 0.01562500 0.48437500
vt 0.01562500 0.26562500
vt 0.23437500 0.26562500
vt 0.23437500 0.48437500
vt 0.01562500 0.48437500
vt 0.01562500 0.26562500
vt 0.23437500 0.26562500
vt 0.23437500 0.48437500
vt 0.01562500 0.48437500
vt 0.01562500 0.01562500
vt 0.23437500 0.01562500
vt 0.23437500 0.23437500
vt 0.01562500 0.23437500
vt 0.01562500 0.01562500
vt 0.23437500 0.01562500
vt 0.23437500 0.23437500
vt 0.01562500 0.23437500
vt 0.01562500 0.01562500
vt 0.23437500 0.01562500
vt 0.23437500 0.23437500
vt 0.01562500 0.23437500
vt 0.01562500 0.01562500
vt 0.23437500 0.01562500
vt 0.23437500 0.23437500
vt 0.01562500 0.23437500
vt 0.01562500 0.01562500
vt 0.23437500 0.01562500
vt 0.23437500 0.23437500
vt 0.01562500 0.23437500
vt 0.01562500 0.01562500
vt 0.23437500 0.01562500
vt 0.23437500 0.23437500
vt 0.01562500 0.23437500
vt 0.01562500 0.76562500
vt 0.23437500 0.76562500
vt 0.23437500 0.98437500
vt 0.01562500 0.98437500
vt 0.01562500 0.76562500
vt 0.23437500 0.76562500
vt 0.23437500 0.98437500
vt 0.01562500 0.98437500
vt 0.01562500 0.76562500
vt 0.23437500 0.76562500
vt 0.23437500 0.98437500
vt 0.01562500 0.98437500
vt 0.01562500 0.76562500
vt 0.23437500 0.76562500
vt 0.23437500 0.98437500
vt 0.01562500 0.98437500
vt 0.01562500 0.76562500
vt 0.23437500 0.76562500
vt 0.23437500 0.98437500
vt 0.01562500 0.98437500
vt 0.01562500 0.76562500
vt 0.23437500 0.76562500
vt 0.23437500 0.98437500
vt 0.01562500 0.98437500
vt 0.26562500 0.76562500
vt 0.48437500 0.76562500
vt 0.48437500 0.98437500
vt 0.26562500 0.98437500
vt 0.26562500 0.76562500
vt 0.48437500 0.76562500
vt 0.48437500 0.98437500
vt 0.26562500 0.98437500
vt 0.26562500 0.76562500
vt 0.48437500 0.76562500
vt 0.48437500 0.98437500
vt 0.26562500 0.98437500
vt 0.26562500 0.76562500
vt 0.48437500 0.76562500
vt 0.48437500 0.98437500
vt 0.26562500 0.98437500
vt 0.26562500 0.76562500
vt 0.48437500 0.76562500
vt 0.48437500 0.98437500
vt 0.26562500 0.98437500
vt 0.26562500 0.76562500
vt 0.48437500 0.76562500
vt 0.48437500 0.98437500
vt 0.26562500 0.98437500
vt 0.76562500 0.01562500
vt 0.98437500 0.01562500
vt 0.98437500 0.23437500
vt 0.76562500 0.23437500
vt 0.76562500 0.01562500
vt 0.98437500 0.01562500
vt 0.98437500 0.23437500
vt 0.76562500 0.23437500
vt 0.76562500 0.01562500
vt 0.98437500 0.01562500
vt 0.98437500 0.23437500
vt 0.76562500 0.23437500
vt 0.76562500 0.01562500
vt 0.98437500 0.01562500
vt 0.98437500 0.23437500
vt 0.76562500 0.23437500
vt 0.76562500 0.01562500
vt 0.98437500 0.01562500
vt 0.98437500 0.23437500
vt 0.76562500 0.23437500
vt 0.76562500 0.01562500
vt 0.98437500 0.01562500
vt 0.98437500 0.23437500
vt 0.76562500 0.23437500
vt 0.76562500 0.76562500
vt 0.98437500 0.76562500
vt 0.98437500 0.98437500
vt 0.76562500 0.98437500
vt 0.76562500 0.76562500
vt 0.98437500 0.76562500
vt 0.98437500 0.98437500
vt 0.76562500 0.98437500
vt 0.76562500 0.76562500
vt 0.98437500 0.76562500
vt 0.98437500 0.98437500
vt 0.76562500 0.98437500
vt 0.76562500 0.76562500
vt 0.98437500 0.76562500
vt 0.98437500 0.98437500
vt 0.76562500 0.98437500
vt 0.76562500 0.76562500
vt 0.98437500 0.76562500
vt 0.98437500 0.98437500
vt 0.76562500 0.98437500
vt 0.76562500 0.76562500
vt 0.98437500 0.76562500
vt 0.98437500 0.98437500
vt 0.76562500 0.98437500
vt 0.01562500 0.51562500
vt 0.23437500 0.51562500
vt 0.23437500 0.73437500
vt 0.01562500 0.73437500
vt 0.01562500 0.51562500
vt 0.23437500 0.51562500
vt 0.23437500 0.73437500
vt 0.01562500 0.73437500
vt 0.01562500 0.51562500
vt 0.23437500 0.51562500
vt 0.23437500 0.73437500
vt 0.01562500 0.73437500
vt 0.01562500 0.51562500
vt 0.23437500 0.51562500
vt 0.23437500 0.73437500
vt 0.01562500 0.73437500
vt 0.01562500 0.51562500
vt 0.23437500 0.51562500
vt 0.23437500 0.73437500
vt 0.01562500 0.73437500
vt 0.01562500 0.51562500
vt 0.23437500 0.51562500
vt 0.23437500 0.73437500
vt 0.01562500 0.73437500
vt 0.26562500 0.26562500
vt 0.48437500 0.26562500
vt 0.48437500 0.48437500
vt 0.26562500 0.48437500
vt 0.26562500 0.26562500
vt 0.48437500 0.26562500
vt 0.48437500 0.48437500
vt 0.26562500 0.48437500
vt 0.26562500 0.26562500
vt 0.48437500 0.26562500
vt 0.48437500 0.48437500
vt 0.26562500 0.48437500
vt 0.26562500 0.26562500
vt 0.48437500 0.26562500
vt 0.48437500 0.48437500
vt 0.26562500 0.48437500
vt 0.26562500 0.26562500
vt 0.48437500 0.26562500
vt 0.48437500 0.48437500
vt 0.26562500 0.48437500
vt 0.26562500 0.26562500
vt 0.48437500 0.26562500
vt 0.48437500 0.48437500
vt 0.26562500 0.48437500
vt 0.01562500 0.51562500
vt 0.23437500 0.51562500
vt 0.23437500 0.73437500
vt 0.01562500 0.73437500
vt 0.01562500 0.51562500
vt 0.23437500 0.51562500
vt 0.23437500 0.73437500
vt 0.01562500 0.73437500
vt 0.01562500 0.51562500
vt 0.23437500 0.51562500
vt 0.23437500 0.73437500
vt 0.01562500 0.73437500
vt 0.01562500 0.51562500
vt 0.23437500 0.51562500
vt 0.23437500 0.73437500
vt 0.01562500 0.73437500
vt 0.01562500 0.51562500
vt 0.23437500 0.51562500
vt 0.23437500 0.73437500
vt 0.01562500 0.73437500
vt 0.01562500 0.51562500
vt 0.23437500 0.51562500
vt 0.23437500 0.73437500
vt 0.01562500 0.73437500
vt 0.01562500 0.51562500
vt 0.23437500 0.51562500
vt 0.23437500 0.73437500
vt 0.01562500 0.73437500
vt 0.01562500 0.51562500
vt 0.23437500 0.51562500
vt 0.23437500 0.73437500
vt 0.01562500 0.73437500
vt 0.01562500 0.51562500
vt 0.23437500 0.51562500
vt 0.23437500 0.73437500
vt 0.01562500 0.51562500
vt 0.23437500 0.51562500
vt 0.23437500 0.73437500
vt 0.01562500 0.51562500
vt 0.23437500 0.51562500
vt 0.23437500 0.73437500
vt 0.01562500 0.51562500
vt 0.23437500 0.51562500
vt 0.23437500 0.73437500
vt 0.01562500 0.51562500
vt 0.23437500 0.51562500
vt 0.23437500 0.73437500
vt 0.01562500 0.51562500
vt 0.23437500 0.51562500
vt 0.23437500 0.73437500
vt 0.01562500 0.51562500
vt 0.23437500 0.51562500
vt 0.23437500 0.73437500
vt 0.01562500 0.51562500
vt 0.23437500 0.51562500
vt 0.23437500 0.73437500
vt 0.01562500 0.51562500
vt 0.23437500 0.51562500
vt 0.23437500 0.73437500
vt 0.01562500 0.51562500
vt 0.23437500 0.51562500
vt 0.23437500 0.73437500
vt 0.01562500 0.51562500
vt 0.23437500 0.51562500
vt 0.23437500 0.73437500
vt 0.01562500 0.51562500
vt 0.23437500 0.51562500
vt 0.23437500 0.73437500
vt 0.01562500 0.51562500
vt 0.23437500 0.51562500
vt 0.23437500 0.73437500
vt 0.01562500 0.51562500
vt 0.23437500 0.51562500
vt 0.23437500 0.73437500
vt 0.01562500 0.51562500
vt 0.23437500 0.51562500
vt 0.23437500 0.73437500
vt 0.01562500 0.51562500
vt 0.23437500 0.51562500
vt 0.23437500 0.73437500
vt 0.01562500 0.76562500
vt 0.23437500 0.76562500
vt 0.23437500 0.98437500
vt 0.01562500 0.98437500
vt 0.01562500 0.76562500
vt 0.23437500 0.76562500
vt 0.23437500 0.98437500
vt 0.01562500 0.98437500
vt 0.01562500 0.76562500
vt 0.23437500 0.76562500
vt 0.23437500 0.98437500
vt 0.01562500 0.98437500
vt 0.01562500 0.76562500
vt 0.23437500 0.76562500
vt 0.23437500 0.98437500
vt 0.01562500 0.98437500
vt 0.01562500 0.76562500
vt 0.23437500 0.76562500
vt 0.23437500 0.98437500
vt 0.01562500 0.98437500
vt 0.01562500 0.76562500
vt 0.23437500 0.76562500
vt 0.23437500 0.98437500
vt 0.01562500 0.98437500
vt 0.26562500 0.76562500
vt 0.48437500 0.76562500
vt 0.48437500 0.98437500
vt 0.26562500 0.98437500
vt 0.26562500 0.76562500
vt 0.48437500 0.76562500
vt 0.48437500 0.98437500
vt 0.26562500 0.98437500
vt 0.26562500 0.76562500
vt 0.48437500 0.76562500
vt 0.48437500 0.98437500
vt 0.26562500 0.98437500
vt 0.26562500 0.76562500
vt 0.48437500 0.76562500
vt 0.48437500 0.98437500
vt 0.26562500 0.98437500
vt 0.26562500 0.76562500
vt 0.48437500 0.76562500
vt 0.48437500 0.98437500
vt 0.26562500 0.98437500
vt 0.26562500 0.76562500
vt 0.48437500 0.76562500
vt 0.48437500 0.98437500
vt 0.26562500 0.98437500
vt 0.76562500 0.01562500
vt 0.98437500 0.01562500
vt 0.98437500 0.23437500
vt 0.76562500 0.23437500
vt 0.76562500 0.01562500
vt 0.98437500 0.01562500
vt 0.98437500 0.23437500
vt 0.76562500 0.23437500
vt 0.76562500 0.01562500
vt 0.98437500 0.01562500
vt 0.98437500 0.23437500
vt 0.76562500 0.23437500
vt 0.76562500 0.01562500
vt 0.98437500 0.01562500
vt 0.98437500 0.23437500
vt 0.76562500 0.23437500
vt 0.76562500 0.01562500
vt 0.98437500 0.01562500
vt 0.98437500 0.23437500
vt 0.76562500 0.23437500
vt 0.76562500 0.01562500
vt 0.98437500 0.01562500
vt 0.98437500 0.23437500
vt 0.76562500 0.23437500
vt 0.76562500 0.76562500
vt 0.98437500 0.76562500
vt 0.98437500 0.98437500
vt 0.76562500 0.98437500
vt 0.76562500 0.76562500
vt 0.98437500 0.76562500
vt 0.98437500 0.98437500
vt 0.76562500 0.98437500
vt 0.76562500 0.76562500
vt 0.98437500 0.76562500
vt 0.98437500 0.98437500
vt 0.76562500 0.98437500
vt 0.76562500 0.76562500
vt 0.98437500 0.76562500
vt 0.98437500 0.98437500
vt 0.76562500 0.98437500
vt 0.76562500 0.76562500
vt 0.98437500 0.76562500
vt 0.98437500 0.98437500
vt 0.76562500 0.98437500
vt 0.76562500 0.76562500
vt 0.98437500 0.76562500
vt 0.98437500 0.98437500
vt 0.76562500 0.98437500
vt 0.01562500 0.51562500
vt 0.23437500 0.51562500
vt 0.23437500 0.73437500
vt 0.01562500 0.73437500
vt 0.01562500 0.51562500
vt 0.23437500 0.51562500
vt 0.23437500 0.73437500
vt 0.01562500 0.73437500
vt 0.01562500 0.51562500
vt 0.23437500 0.51562500
vt 0.23437500 0.73437500
vt 0.01562500 0.73437500
vt 0.01562500 0.51562500
vt 0.23437500 0.51562500
vt 0.23437500 0.73437500
vt 0.01562500 0.73437500
vt 0.01562500 0.51562500
vt 0.23437500 0.51562500
vt 0.23437500 0.73437500
vt 0.01562500 0.73437500
vt 0.01562500 0.51562500
vt 0.23437500 0.51562500
vt 0.23437500 0.73437500
vt 0.01562500 0.73437500
vt 0.26562500 0.26562500
vt 0.48437500 0.26562500
vt 0.48437500 0.48437500
vt 0.26562500 0.48437500
vt 0.26562500 0.26562500
vt 0.48437500 0.26562500
vt 0.48437500 0.48437500
vt 0.26562500 0.48437500
vt 0.26562500 0.26562500
vt 0.48437500 0.26562500
vt 0.48437500 0.48437500
vt 0.26562500 0.48437500
vt 0.26562500 0.26562500
vt 0.48437500 0.26562500
vt 0.48437500 0.48437500
vt 0.26562500 0.48437500
vt 0.26562500 0.26562500
vt 0.48437500 0.26562500
vt 0.48437500 0.48437500
vt 0.26562500 0.48437500
vt 0.26562500 0.26562500
vt 0.48437500 0.26562500
vt 0.48437500 0.48437500
vt 0.26562500 0.48437500
vt 0.01562500 0.51562500
vt 0.23437500 0.51562500
vt 0.23437500 0.73437500
vt 0.01562500 0.73437500
vt 0.01562500 0.51562500
vt 0.23437500 0.51562500
vt 0.23437500 0.73437500
vt 0.01562500 0.73437500
vt 0.01562500 0.51562500
vt 0.23437500 0.51562500
vt 0.23437500 0.73437500
vt 0.01562500 0.73437500
vt 0.01562500 0.51562500
vt 0.23437500 0.51562500
vt 0.23437500 0.73437500
vt 0.01562500 0.73437500
vt 0.01562500 0.51562500
vt 0.23437500 0.51562500
vt 0.23437500 0.73437500
vt 0.01562500 0.73437500
vt 0.01562500 0.51562500
vt 0.23437500 0.51562500
vt 0.23437500 0.73437500
vt 0.01562500 0.73437500
vt 0.01562500 0.51562500
vt 0.23437500 0.51562500
vt 0.23437500 0.73437500
vt 0.01562500 0.73437500
vt 0.01562500 0.51562500
vt 0.23437500 0.51562500
vt 0.23437500 0.73437500
vt 0.01562500 0.73437500
vt 0.01562500 0.51562500
vt 0.23437500 0.51562500
vt 0.23437500 0.73437500
vt 0.01562500 0.51562500
vt 0.23437500 0.51562500
vt 0.23437500 0.73437500
vt 0.01562500 0.51562500
vt 0.23437500 0.51562500
vt 0.23437500 0.73437500
vt 0.01562500 0.51562500
vt 0.23437500 0.51562500
vt 0.23437500 0.73437500
vt 0.01562500 0.51562500
vt 0.23437500 0.51562500
vt 0.23437500 0.73437500
vt 0.01562500 0.51562500
vt 0.23437500 0.51562500
vt 0.23437500 0.73437500
vt 0.01562500 0.51562500
vt 0.23437500 0.51562500
vt 0.23437500 0.73437500
vt 0.01562500 0.51562500
vt 0.23437500 0.51562500
vt 0.23437500 0.73437500
vt 0.01562500 0.51562500
vt 0.23437500 0.51562500
vt 0.23437500 0.73437500
vt 0.01562500 0.51562500
vt 0.23437500 0.51562500
vt 0.23437500 0.73437500
vt 0.01562500 0.51562500
vt 0.23437500 0.51562500
vt 0.23437500 0.73437500
vt 0.01562500 0.51562500
vt 0.23437500 0.51562500
vt 0.23437500 0.73437500
vt 0.01562500 0.51562500
vt 0.23437500 0.51562500
vt 0.23437500 0.73437500
vt 0.01562500 0.51562500
vt 0.23437500 0.51562500
vt 0.23437500 0.73437500
vt 0.01562500 0.51562500
vt 0.23437500 0.51562500
vt 0.23437500 0.73437500
vt 0.01562500 0.51562500
vt 0.23437500 0.51562500
vt 0.23437500 0.73437500
vt 0.01562500 0.76562500
vt 0.23437500 0.76562500
vt 0.23437500 0.98437500
vt 0.01562500 0.98437500
vt 0.01562500 0.76562500
vt 0.23437500 0.76562500
vt 0.23437500 0.98437500
vt 0.01562500 0.98437500
vt 0.01562500 0.76562500
vt 0.23437500 0.76562500
vt 0.23437500 0.98437500
vt 0.01562500 0.98437500
vt 0.01562500 0.76562500
vt 0.23437500 0.76562500
vt 0.23437500 0.98437500
vt 0.01562500 0.98437500
vt 0.01562500 0.76562500
vt 0.23437500 0.76562500
vt 0.23437500 0.98437500
vt 0.01562500 0.98437500
vt 0.01562500 0.76562500
vt 0.23437500 0.76562500
vt 0.23437500 0.98437500
vt 0.01562500 0.98437500
vt 0.26562500 0.76562500
vt 0.48437500 0.76562500
vt 0.48437500 0.98437500
vt 0.26562500 0.98437500
vt 0.26562500 0.76562500
vt 0.48437500 0.76562500
vt 0.48437500 0.98437500
vt 0.26562500 0.98437500
vt 0.26562500 0.76562500
vt 0.48437500 0.76562500
vt 0.48437500 0.98437500
vt 0.26562500 0.98437500
vt 0.26562500 0.76562500
vt 0.48437500 0.76562500
vt 0.48437500 0.98437500
vt 0.26562500 0.98437500
vt 0.26562500 0.76562500
vt 0.48437500 0.76562500
vt 0.48437500 0.98437500
vt 0.26562500 0.98437500
vt 0.26562500 0.76562500
vt 0.48437500 0.76562500
vt 0.48437500 0.98437500
vt 0.26562500 0.98437500
vt 0.76562500 0.01562500
vt 0.98437500 0.01562500
vt 0.98437500 0.23437500
vt 0.76562500 0.23437500
vt 0.76562500 0.01562500
vt 0.98437500 0.01562500
vt 0.98437500 0.23437500
vt 0.76562500 0.23437500
vt 0.76562500 0.01562500
vt 0.98437500 0.01562500
vt 0.98437500 0.23437500
vt 0.76562500 0.23437500
vt 0.76562500 0.01562500
vt 0.98437500 0.01562500
vt 0.98437500 0.23437500
vt 0.76562500 0.23437500
vt 0.76562500 0.01562500
vt 0.98437500 0.01562500
vt 0.98437500 0.23437500
vt 0.76562500 0.23437500
vt 0.76562500 0.01562500
vt 0.98437500 0.01562500
vt 0.98437500 0.23437500
vt 0.76562500 0.23437500
vt 0.76562500 0.76562500
vt 0.98437500 0.76562500
vt 0.98437500 0.98437500
vt 0.76562500 0.98437500
vt 0.76562500 0.76562500
vt 0.98437500 0.76562500
vt 0.98437500 0.98437500
vt 0.76562500 0.98437500
vt 0.76562500 0.76562500
vt 0.98437500 0.76562500
vt 0.98437500 0.98437500
vt 0.76562500 0.98437500
vt 0.76562500 0.76562500
vt 0.98437500 0.76562500
vt 0.98437500 0.98437500
vt 0.76562500 0.98437500
vt 0.76562500 0.76562500
vt 0.98437500 0.76562500
vt 0.98437500 0.98437500
vt 0.76562500 0.98437500
vt 0.76562500 0.76562500
vt 0.98437500 0.76562500
vt 0.98437500 0.98437500
vt 0.76562500 0.98437500
vt 0.01562500 0.51562500
vt 0.23437500 0.51562500
vt 0.23437500 0.73437500
vt 0.01562500 0.73437500
vt 0.01562500 0.51562500
vt 0.23437500 0.51562500
vt 0.23437500 0.73437500
vt 0.01562500 0.73437500
vt 0.01562500 0.51562500
vt 0.23437500 0.51562500
vt 0.23437500 0.73437500
vt 0.01562500 0.73437500
vt 0.01562500 0.51562500
vt 0.23437500 0.51562500
vt 0.23437500 0.73437500
vt 0.01562500 0.73437500
vt 0.01562500 0.51562500
vt 0.23437500 0.51562500
vt 0.23437500 0.73437500
vt 0.01562500 0.73437500
vt 0.01562500 0.51562500
vt 0.23437500 0.51562500
vt 0.23437500 0.73437500
vt 0.01562500 0.73437500
vt 0.26562500 0.26562500
vt 0.48437500 0.26562500
vt 0.48437500 0.48437500
vt 0.26562500 0.48437500
vt 0.26562500 0.26562500
vt 0.48437500 0.26562500
vt 0.48437500 0.48437500
vt 0.26562500 0.48437500
vt 0.26562500 0.26562500
vt 0.48437500 0.26562500
vt 0.48437500 0.48437500
vt 0.26562500 0.48437500
vt 0.26562500 0.26562500
vt 0.48437500 0.26562500
vt 0.48437500 0.48437500
vt 0.26562500 0.48437500
vt 0.26562500 0.26562500
vt 0.48437500 0.26562500
vt 0.48437500 0.48437500
vt 0.26562500 0.48437500
vt 0.26562500 0.26562500
vt 0.48437500 0.26562500
vt 0.48437500 0.48437500
vt 0.26562500 0.48437500
vt 0.01562500 0.51562500
vt 0.23437500 0.51562500
vt 0.23437500 0.73437500
vt 0.01562500 0.73437500
vt 0.01562500 0.51562500
vt 0.23437500 0.51562500
vt 0.23437500 0.73437500
vt 0.01562500 0.73437500
vt 0.01562500 0.51562500
vt 0.23437500 0.51562500
vt 0.23437500 0.73437500
vt 0.01562500 0.73437500
vt 0.01562500 0.51562500
vt 0.23437500 0.51562500
vt 0.23437500 0.73437500
vt 0.01562500 0.73437500
vt 0.01562500 0.51562500
vt 0.23437500 0.51562500
vt 0.23437500 0.73437500
vt 0.01562500 0.73437500
vt 0.01562500 0.51562500
vt 0.23437500 0.51562500
vt 0.23437500 0.73437500
vt 0.01562500 0.73437500
vt 0.01562500 0.51562500
vt 0.23437500 0.51562500
vt 0.23437500 0.73437500
vt 0.01562500 0.73437500
vt 0.01562500 0.51562500
vt 0.23437500 0.51562500
vt 0.23437500 0.73437500
vt 0.01562500 0.73437500
vt 0.01562500 0.51562500
vt 0.23437500 0.51562500
vt 0.23437500 0.73437500
vt 0.01562500 0.51562500
vt 0.23437500 0.51562500
vt 0.23437500 0.73437500
vt 0.01562500 0.51562500
vt 0.23437500 0.51562500
vt 0.23437500 0.73437500
vt 0.01562500 0.51562500
vt 0.23437500 0.51562500
vt 0.23437500 0.73437500
vt 0.01562500 0.51562500
vt 0.23437500 0.51562500
vt 0.23437500 0.73437500
vt 0.01562500 0.51562500
vt 0.23437500 0.51562500
vt 0.23437500 0.73437500
vt 0.01562500 0.51562500
vt 0.23437500 0.51562500
vt 0.23437500 0.73437500
vt 0.01562500 0.51562500
vt 0.23437500 0.51562500
vt 0.23437500 0.73437500
vt 0.01562500 0.51562500
vt 0.23437500 0.51562500
vt 0.23437500 0.73437500
vt 0.01562500 0.51562500
vt 0.23437500 0.51562500
vt 0.23437500 0.73437500
vt 0.01562500 0.51562500
vt 0.23437500 0.51562500
vt 0.23437500 0.73437500
vt 0.01562500 0.51562500
vt 0.23437500 0.51562500
vt 0.23437500 0.73437500
vt 0.01562500 0.51562500
vt 0.23437500 0.51562500
vt 0.23437500 0.73437500
vt 0.01562500 0.51562500
vt 0.23437500 0.51562500
vt 0.23437500 0.73437500
vt 0.01562500 0.51562500
vt 0.23437500 0.51562500
vt 0.23437500 0.73437500
vt 0.01562500 0.51562500
vt 0.23437500 0.51562500
vt 0.23437500 0.73437500
vt 0.01562500 0.76562500
vt 0.23437500 0.76562500
vt 0.23437500 0.98437500
vt 0.01562500 0.98437500
vt 0.01562500 0.76562500
vt 0.23437500 0.76562500
vt 0.23437500 0.98437500
vt 0.01562500 0.98437500
vt 0.01562500 0.76562500
vt 0.23437500 0.76562500
vt 0.23437500 0.98437500
vt 0.01562500 0.98437500
vt 0.01562500 0.76562500
vt 0.23437500 0.76562500
vt 0.23437500 0.98437500
vt 0.01562500 0.98437500
vt 0.01562500 0.76562500
vt 0.23437500 0.76562500
vt 0.23437500 0.98437500
vt 0.01562500 0.98437500
vt 0.01562500 0.76562500
vt 0.23437500 0.76562500
vt 0.23437500 0.98437500
vt 0.01562500 0.98437500
vt 0.26562500 0.76562500
vt 0.48437500 0.76562500
vt 0.48437500 0.98437500
vt 0.26562500 0.98437500
vt 0.26562500 0.76562500
vt 0.48437500 0.76562500
vt 0.48437500 0.98437500
vt 0.26562500 0.98437500
vt 0.26562500 0.76562500
vt 0.48437500 0.76562500
vt 0.48437500 0.98437500
vt 0.26562500 0.98437500
vt 0.26562500 0.76562500
vt 0.48437500 0.76562500
vt 0.48437500 0.98437500
vt 0.26562500 0.98437500
vt 0.26562500 0.76562500
vt 0.48437500 0.76562500
vt 0.48437500 0.98437500
vt 0.26562500 0.98437500
vt 0.26562500 0.76562500
vt 0.48437500 0.76562500
vt 0.48437500 0.98437500
vt 0.26562500 0.98437500
vt 0.76562500 0.01562500
vt 0.98437500 0.01562500
vt 0.98437500 0.23437500
vt 0.76562500 0.23437500
vt 0.76562500 0.01562500
vt 0.98437500 0.01562500
vt 0.98437500 0.23437500
vt 0.76562500 0.23437500
vt 0.76562500 0.01562500
vt 0.98437500 0.01562500
vt 0.98437500 0.23437500
vt 0.76562500 0.23437500
vt 0.76562500 0.01562500
vt 0.98437500 0.01562500
vt 0.98437500 0.23437500
vt 0.76562500 0.23437500
vt 0.76562500 0.01562500
vt 0.98437500 0.01562500
vt 0.98437500 0.23437500
vt 0.76562500 0.23437500
vt 0.76562500 0.01562500
vt 0.98437500 0.01562500
vt 0.98437500 0.23437500
vt 0.76562500 0.23437500
vt 0.76562500 0.76562500
vt 0.98437500 0.76562500
vt 0.98437500 0.98437500
vt 0.76562500 0.98437500
vt 0.76562500 0.76562500
vt 0.98437500 0.76562500
vt 0.98437500 0.98437500
vt 0.76562500 0.98437500
vt 0.76562500 0.76562500
vt 0.98437500 0.76562500
vt 0.98437500 0.98437500
vt 0.76562500 0.98437500
vt 0.76562500 0.76562500
vt 0.98437500 0.76562500
vt 0.98437500 0.98437500
vt 0.76562500 0.98437500
vt 0.76562500 0.76562500
vt 0.98437500 0.76562500
vt 0.98437500 0.98437500
vt 0.76562500 0.98437500
vt 0.76562500 0.76562500
vt 0.98437500 0.76562500
vt 0.98437500 0.98437500
vt 0.76562500 0.98437500
vt 0.01562500 0.51562500
vt 0.23437500 0.51562500
vt 0.23437500 0.73437500
vt 0.01562500 0.73437500
vt 0.01562500 0.51562500
vt 0.23437500 0.51562500
vt 0.23437500 0.73437500
vt 0.01562500 0.73437500
vt 0.01562500 0.51562500
vt 0.23437500 0.51562500
vt 0.23437500 0.73437500
vt 0.01562500 0.73437500
vt 0.01562500 0.51562500
vt 0.23437500 0.51562500
vt 0.23437500 0.73437500
vt 0.01562500 0.73437500
vt 0.01562500 0.51562500
vt 0.23437500 0.51562500
vt 0.23437500 0.73437500
vt 0.01562500 0.73437500
vt 0.01562500 0.51562500
vt 0.23437500 0.51562500
vt 0.23437500 0.73437500
vt 0.01562500 0.73437500
vt 0.26562500 0.26562500
vt 0.48437500 0.26562500
vt 0.48437500 0.48437500
vt 0.26562500 0.48437500
vt 0.26562500 0.26562500
vt 0.48437500 0.26562500
vt 0.48437500 0.48437500
vt 0.26562500 0.48437500
vt 0.26562500 0.26562500
vt 0.48437500 0.26562500
vt 0.48437500 0.48437500
vt 0.26562500 0.48437500
vt 0.26562500 0.26562500
vt 0.48437500 0.26562500
vt 0.48437500 0.48437500
vt 0.26562500 0.48437500
vt 0.26562500 0.26562500
vt 0.48437500 0.26562500
vt 0.48437500 0.48437500
vt 0.26562500 0.48437500
vt 0.26562500 0.26562500
vt 0.48437500 0.26562500
vt 0.48437500 0.48437500
vt 0.26562500 0.48437500
vt 0.01562500 0.51562500
vt 0.23437500 0.51562500
vt 0.23437500 0.73437500
vt 0.01562500 0.73437500
vt 0.01562500 0.51562500
vt 0.23437500 0.51562500
vt 0.23437500 0.73437500
vt 0.01562500 0.73437500
vt 0.01562500 0.51562500
vt 0.23437500 0.51562500
vt 0.23437500 0.73437500
vt 0.01562500 0.73437500
vt 0.01562500 0.51562500
vt 0.23437500 0.51562500
vt 0.23437500 0.73437500
vt 0.01562500 0.73437500
vt 0.01562500 0.51562500
vt 0.23437500 0.51562500
vt 0.23437500 0.73437500
vt 0.01562500 0.73437500
vt 0.01562500 0.51562500
vt 0.23437500 0.51562500
vt 0.23437500 0.73437500
vt 0.01562500 0.73437500
vt 0.01562500 0.51562500
vt 0.23437500 0.51562500
vt 0.23437500 0.73437500
vt 0.01562500 0.73437500
vt 0.01562500 0.51562500
vt 0.23437500 0.51562500
vt 0.23437500 0.73437500
vt 0.01562500 0.73437500
vt 0.01562500 0.51562500
vt 0.23437500 0.51562500
vt 0.23437500 0.73437500
vt 0.01562500 0.51562500
vt 0.23437500 0.51562500
vt 0.23437500 0.73437500
vt 0.01562500 0.51562500
vt 0.23437500 0.51562500
vt 0.23437500 0.73437500
vt 0.01562500 0.51562500
vt 0.23437500 0.51562500
vt 0.23437500 0.73437500
vt 0.01562500 0.51562500
vt 0.23437500 0.51562500
vt 0.23437500 0.73437500
vt 0.01562500 0.51562500
vt 0.23437500 0.51562500
vt 0.23437500 0.73437500
vt 0.01562500 0.51562500
vt 0.23437500 0.51562500
vt 0.23437500 0.73437500
vt 0.01562500 0.51562500
vt 0.23437500 0.51562500
vt 0.23437500 0.73437500
vt 0.01562500 0.51562500
vt 0.23437500 0.51562500
vt 0.23437500 0.73437500
vt 0.01562500 0.51562500
vt 0.23437500 0.51562500
vt 0.23437500 0.73437500
vt 0.01562500 0.51562500
vt 0.23437500 0.51562500
vt 0.23437500 0.73437500
vt 0.01562500 0.51562500
vt 0.23437500 0.51562500
vt 0.23437500 0.73437500
vt 0.01562500 0.51562500
vt 0.23437500 0.51562500
vt 0.23437500 0.73437500
vt 0.01562500 0.51562500
vt 0.23437500 0.51562500
vt 0.23437500 0.73437500
vt 0.01562500 0.51562500
vt 0.23437500 0.51562500
vt 0.23437500 0.73437500
vt 0.01562500 0.51562500
vt 0.23437500 0.51562500
vt 0.23437500 0.73437500
vt 0.51562500 0.76562500
vt 0.73437500 0.76562500
vt 0.73437500 0.98437500
vt 0.51562500 0.98437500
vt 0.51562500 0.76562500
vt 0.73437500 0.76562500
vt 0.73437500 0.98437500
vt 0.51562500 0.98437500
vt 0.51562500 0.76562500
vt 0.73437500 0.76562500
vt 0.73437500 0.98437500
vt 0.51562500 0.98437500
vt 0.51562500 0.76562500
vt 0.73437500 0.76562500
vt 0.73437500 0.98437500
vt 0.51562500 0.98437500
vt 0.51562500 0.76562500
vt 0.73437500 0.76562500
vt 0.73437500 0.98437500
vt 0.51562500 0.98437500
vt 0.51562500 0.76562500
vt 0.73437500 0.76562500
vt 0.73437500 0.98437500
vt 0.51562500 0.98437500
vt 0.01562500 0.51562500
vt 0.23437500 0.51562500
vt 0.23437500 0.73437500
vt 0.01562500 0.73437500
vt 0.01562500 0.51562500
vt 0.23437500 0.51562500
vt 0.23437500 0.73437500
vt 0.01562500 0.73437500
vt 0.01562500 0.51562500
vt 0.23437500 0.51562500
vt 0.23437500 0.73437500
vt 0.01562500 0.73437500
vt 0.01562500 0.51562500
vt 0.23437500 0.51562500
vt 0.23437500 0.73437500
vt 0.01562500 0.73437500
vt 0.01562500 0.51562500
vt 0.23437500 0.51562500
vt 0.23437500 0.73437500
vt 0.01562500 0.73437500
vt 0.01562500 0.51562500
vt 0.23437500 0.51562500
vt 0.23437500 0.73437500
vt 0.01562500 0.73437500
vt 0.01562500 0.51562500
vt 0.23437500 0.51562500
vt 0.23437500 0.73437500
vt 0.01562500 0.73437500
vt 0.01562500 0.51562500
vt 0.23437500 0.51562500
vt 0.23437500 0.73437500
vt 0.01562500 0.73437500
vt 0.01562500 0.51562500
vt 0.23437500 0.51562500
vt 0.23437500 0.73437500
vt 0.01562500 0.51562500
vt 0.23437500 0.51562500
vt 0.23437500 0.73437500
vt 0.01562500 0.51562500
vt 0.23437500 0.51562500
vt 0.23437500 0.73437500
vt 0.01562500 0.51562500
vt 0.23437500 0.51562500
vt 0.23437500 0.73437500
vt 0.01562500 0.51562500
vt 0.23437500 0.51562500
vt 0.23437500 0.73437500
vt 0.01562500 0.51562500
vt 0.23437500 0.51562500
vt 0.23437500 0.73437500
vt 0.01562500 0.51562500
vt 0.23437500 0.51562500
vt 0.23437500 0.73437500
vt 0.01562500 0.51562500
vt 0.23437500 0.51562500
vt 0.23437500 0.73437500
vt 0.01562500 0.51562500
vt 0.23437500 0.51562500
vt 0.23437500 0.73437500
vt 0.01562500 0.51562500
vt 0.23437500 0.51562500
vt 0.23437500 0.73437500
vt 0.01562500 0.51562500
vt 0.23437500 0.51562500
vt 0.23437500 0.73437500
vt 0.01562500 0.51562500
vt 0.23437500 0.51562500
vt 0.23437500 0.73437500
vt 0.01562500 0.51562500
vt 0.23437500 0.51562500
vt 0.23437500 0.73437500
vt 0.01562500 0.51562500
vt 0.23437500 0.51562500
vt 0.23437500 0.73437500
vt 0.01562500 0.51562500
vt 0.23437500 0.51562500
vt 0.23437500 0.73437500
vt 0.01562500 0.51562500
vt 0.23437500 0.51562500
vt 0.23437500 0.73437500
vt 0.01562500 0.51562500
vt 0.23437500 0.51562500
vt 0.23437500 0.73437500
vt 0.01562500 0.73437500
vt 0.01562500 0.51562500
vt 0.23437500 0.51562500
vt 0.23437500 0.73437500
vt 0.01562500 0.73437500
vt 0.01562500 0.51562500
vt 0.23437500 0.51562500
vt 0.23437500 0.73437500
vt 0.01562500 0.73437500
vt 0.01562500 0.51562500
vt 0.23437500 0.51562500
vt 0.23437500 0.73437500
vt 0.01562500 0.73437500
vt 0.01562500 0.51562500
vt 0.23437500 0.51562500
vt 0.23437500 0.73437500
vt 0.01562500 0.73437500
vt 0.01562500 0.51562500
vt 0.23437500 0.51562500
vt 0.23437500 0.73437500
vt 0.01562500 0.73437500
vt 0.01562500 0.51562500
vt 0.23437500 0.51562500
vt 0.23437500 0.73437500
vt 0.01562500 0.73437500
vt 0.01562500 0.51562500
vt 0.23437500 0.51562500
vt 0.23437500 0.73437500
vt 0.01562500 0.73437500
vt 0.01562500 0.51562500
vt 0.23437500 0.51562500
vt 0.23437500 0.73437500
vt 0.01562500 0.51562500
vt 0.23437500 0.51562500
vt 0.23437500 0.73437500
vt 0.01562500 0.51562500
vt 0.23437500 0.51562500
vt 0.23437500 0.73437500
vt 0.01562500 0.51562500
vt 0.23437500 0.51562500
vt 0.23437500 0.73437500
vt 0.01562500 0.51562500
vt 0.23437500 0.51562500
vt 0.23437500 0.73437500
vt 0.01562500 0.51562500
vt 0.23437500 0.51562500
vt 0.23437500 0.73437500
vt 0.01562500 0.51562500
vt 0.23437500 0.51562500
vt 0.23437500 0.73437500
vt 0.01562500 0.51562500
vt 0.23437500 0.51562500
vt 0.23437500 0.73437500
vt 0.01562500 0.51562500
vt 0.23437500 0.51562500
vt 0.23437500 0.73437500
vt 0.01562500 0.51562500
vt 0.23437500 0.51562500
vt 0.23437500 0.73437500
vt 0.01562500 0.51562500
vt 0.23437500 0.51562500
vt 0.23437500 0.73437500
vt 0.01562500 0.51562500
vt 0.23437500 0.51562500
vt 0.23437500 0.73437500
vt 0.01562500 0.51562500
vt 0.23437500 0.51562500
vt 0.23437500 0.73437500
vt 0.01562500 0.51562500
vt 0.23437500 0.51562500
vt 0.23437500 0.73437500
vt 0.01562500 0.51562500
vt 0.23437500 0.51562500
vt 0.23437500 0.73437500
vt 0.01562500 0.51562500
vt 0.23437500 0.51562500
vt 0.23437500 0.73437500
vt 0.01562500 0.51562500
vt 0.23437500 0.51562500
vt 0.23437500 0.73437500
vt 0.01562500 0.73437500
vt 0.01562500 0.51562500
vt 0.23437500 0.51562500
vt 0.23437500 0.73437500
vt 0.01562500 0.73437500
vt 0.01562500 0.51562500
vt 0.23437500 0.51562500
vt 0.23437500 0.73437500
vt 0.01562500 0.73437500
vt 0.01562500 0.51562500
vt 0.23437500 0.51562500
vt 0.23437500 0.73437500
vt 0.01562500 0.73437500
vt 0.01562500 0.51562500
vt 0.23437500 0.51562500
vt 0.23437500 0.73437500
vt 0.01562500 0.73437500
vt 0.01562500 0.51562500
vt 0.23437500 0.51562500
vt 0.23437500 0.73437500
vt 0.01562500 0.73437500
vt 0.01562500 0.51562500
vt 0.23437500 0.51562500
vt 0.23437500 0.73437500
vt 0.01562500 0.73437500
vt 0.01562500 0.51562500
vt 0.23437500 0.51562500
vt 0.23437500 0.73437500
vt 0.01562500 0.73437500
vt 0.01562500 0.51562500
vt 0.23437500 0.51562500
vt 0.23437500 0.73437500
vt 0.01562500 0.51562500
vt 0.23437500 0.51562500
vt 0.23437500 0.73437500
vt 0.01562500 0.51562500
vt 0.23437500 0.51562500
vt 0.23437500 0.73437500
vt 0.01562500 0.51562500
vt 0.23437500 0.51562500
vt 0.23437500 0.73437500
vt 0.01562500 0.51562500
vt 0.23437500 0.51562500
vt 0.23437500 0.73437500
vt 0.01562500 0.51562500
vt 0.23437500 0.51562500
vt 0.23437500 0.73437500
vt 0.01562500 0.51562500
vt 0.23437500 0.51562500
vt 0.23437500 0.73437500
vt 0.01562500 0.51562500
vt 0.23437500 0.51562500
vt 0.23437500 0.73437500
vt 0.01562500 0.51562500
vt 0.23437500 0.51562500
vt 0.23437500 0.73437500
vt 0.01562500 0.51562500
vt 0.23437500 0.51562500
vt 0.23437500 0.73437500
vt 0.01562500 0.51562500
vt 0.23437500 0.51562500
vt 0.23437500 0.73437500
vt 0.01562500 0.51562500
vt 0.23437500 0.51562500
vt 0.23437500 0.73437500
vt 0.01562500 0.51562500
vt 0.23437500 0.51562500
vt 0.23437500 0.73437500
vt 0.01562500 0.51562500
vt 0.23437500 0.51562500
vt 0.23437500 0.73437500
vt 0.01562500 0.51562500
vt 0.23437500 0.51562500
vt 0.23437500 0.73437500
vt 0.01562500 0.51562500
vt 0.23437500 0.51562500
vt 0.23437500 0.73437500
vn 0.00000000 0.00000000 -1.00000000
vn 0.00000000 0.00000000 1.00000000
vn -1.00000000 0.00000000 0.00000000
vn 1.00000000 0.00000000 0.00000000
vn 0.00000000 -1.00000000 0.00000000
vn 0.00000000 1.00000000 0.00000000
vn 0.00000000 0.00000000 -1.00000000
vn 0.00000000 0.00000000 1.00000000
vn -1.00000000 0.00000000 0.00000000
vn 1.00000000 0.00000000 0.00000000
vn 0.00000000 -1.00000000 0.00000000
vn 0.00000000 1.00000000 0.00000000
vn 0.00000000 0.00000000 -1.00000000
vn 0.00000000 0.00000000 1.00000000
vn -1.00000000 0.00000000 0.00000000
vn 1.00000000 0.00000000 0.00000000
vn 0.00000000 -1.00000000 0.00000000
vn 0.00000000 1.00000000 0.00000000
vn 0.00000000 0.00000000 -1.00000000
vn 0.00000000 0.00000000 1.00000000
vn -1.00000000 0.00000000 0.00000000
vn 1.00000000 0.00000000 0.00000000
vn 0.00000000 -1.00000000 0.00000000
vn 0.00000000 1.00000000 0.00000000
vn 0.00000000 0.00000000 -1.00000000
vn 0.00000000 0.00000000 1.00000000
vn -1.00000000 0.00000000 0.00000000
vn 1.00000000 0.00000000 0.00000000
vn 0.00000000 -1.00000000 0.00000000
vn 0.00000000 1.00000000 0.00000000
vn 0.00000000 0.00000000 -1.00000000
vn 0.00000000 0.00000000 1.00000000
vn -1.00000000 0.00000000 0.00000000
vn 1.00000000 0.00000000 0.00000000
vn 0.00000000 -1.00000000 0.00000000
vn 0.00000000 1.00000000 0.00000000
vn 0.00000000 0.00000000 -1.00000000
vn 0.00000000 0.00000000 1.00000000
vn -1.00000000 0.00000000 0.00000000
vn 1.00000000 0.00000000 0.00000000
vn 0.00000000 -1.00000000 0.00000000
vn 0.00000000 1.00000000 0.00000000
vn 0.00000000 0.00000000 -1.00000000
vn 0.00000000 0.00000000 1.00000000
vn -1.00000000 0.00000000 0.00000000
vn 1.00000000 0.00000000 0.00000000
vn 0.00000000 -1.00000000 0.00000000
vn 0.00000000 1.00000000 0.00000000
vn 0.38268343 0.00000000 0.92387953
vn 0.92387953 0.00000000 0.38268343
vn 0.92387953 0.00000000 -0.38268343
vn 0.38268343 0.00000000 -0.92387953
vn -0.38268343 0.00000000 -0.92387953
vn -0.92387953 0.00000000 -0.38268343
vn -0.92387953 0.00000000 0.38268343
vn -0.38268343 0.00000000 0.92387953
vn 0.00000000 -1.00000000 0.00000000
vn 0.00000000 -1.00000000 0.00000000
vn 0.00000000 -1.00000000 0.00000000
vn 0.00000000 -1.00000000 0.00000000
vn 0.00000000 -1.00000000 -0.00000000
vn -0.00000000 -1.00000000 0.00000000
vn 0.00000000 -1.00000000 0.00000000
vn 0.00000000 -1.00000000 0.00000000
vn 0.00000000 1.00000000 0.00000000
vn 0.00000000 1.00000000 0.00000000
vn -0.00000000 1.00000000 0.00000000
vn 0.00000000 1.00000000 0.00000000
vn 0.00000000 1.00000000 0.00000000
vn 0.00000000 1.00000000 0.00000000
vn 0.00000000 1.00000000 0.00000000
vn 0.00000000 1.00000000 -0.00000000
vn 0.00000000 0.00000000 -1.00000000
vn 0.00000000 0.00000000 1.00000000
vn -1.00000000 0.00000000 0.00000000
vn 1.00000000 0.00000000 0.00000000
vn 0.00000000 -1.00000000 0.00000000
vn 0.00000000 1.00000000 0.00000000
vn 0.00000000 0.00000000 -1.00000000
vn 0.00000000 0.00000000 1.00000000
vn -1.00000000 0.00000000 0.00000000
vn 1.00000000 0.00000000 0.00000000
vn 0.00000000 -1.00000000 0.00000000
vn 0.00000000 1.00000000 0.00000000
vn 0.00000000 0.00000000 -1.00000000
vn 0.00000000 0.00000000 1.00000000
vn -1.00000000 0.00000000 0.00000000
vn 1.00000000 0.00000000 0.00000000
vn 0.00000000 -1.00000000 0.00000000
vn 0.00000000 1.00000000 0.00000000
vn 0.00000000 0.00000000 -1.00000000
vn 0.00000000 0.00000000 1.00000000
vn -1.00000000 0.00000000 0.00000000
vn 1.00000000 0.00000000 0.00000000
vn 0.00000000 -1.00000000 0.00000000
vn 0.00000000 1.00000000 0.00000000
vn 0.00000000 0.00000000 -1.00000000
vn 0.00000000 0.00000000 1.00000000
vn -1.00000000 0.00000000 0.00000000
vn 1.00000000 0.00000000 0.00000000
vn 0.00000000 -1.00000000 0.00000000
vn 0.00000000 1.00000000 0.00000000
vn 0.00000000 0.00000000 -1.00000000
vn 0.00000000 0.00000000 1.00000000
vn -1.00000000 0.00000000 0.00000000
vn 1.00000000 0.00000000 0.00000000
vn 0.00000000 -1.00000000 0.00000000
vn 0.00000000 1.00000000 0.00000000
vn 0.38268343 0.00000000 0.92387953
vn 0.92387953 0.00000000 0.38268343
vn 0.92387953 0.00000000 -0.38268343
vn 0.38268343 0.00000000 -0.92387953
vn -0.38268343 0.00000000 -0.92387953
vn -0.92387953 0.00000000 -0.38268343
vn -0.92387953 0.00000000 0.38268343
vn -0.38268343 0.00000000 0.92387953
vn 0.00000000 -1.00000000 0.00000000
vn 0.00000000 -1.00000000 0.00000000
vn 0.00000000 -1.00000000 0.00000000
vn 0.00000000 -1.00000000 0.00000000
vn 0.00000000 -1.00000000 -0.00000000
vn -0.00000000 -1.00000000 0.00000000
vn 0.00000000 -1.00000000 0.00000000
vn 0.00000000 -1.00000000 0.00000000
vn 0.00000000 1.00000000 0.00000000
vn 0.00000000 1.00000000 0.00000000
vn -0.00000000 1.00000000 0.00000000
vn 0.00000000 1.00000000 0.00000000
vn 0.00000000 1.00000000 0.00000000
vn 0.00000000 1.00000000 0.00000000
vn 0.00000000 1.00000000 0.00000000
vn 0.00000000 1.00000000 -0.00000000
vn 0.00000000 0.00000000 -1.00000000
vn 0.00000000 0.00000000 1.00000000
vn -1.00000000 0.00000000 0.00000000
vn 1.00000000 0.00000000 0.00000000
vn 0.00000000 -1.00000000 0.00000000
vn 0.00000000 1.00000000 0.00000000
vn 0.00000000 0.00000000 -1.00000000
vn 0.00000000 0.00000000 1.00000000
vn -1.00000000 0.00000000 0.00000000
vn 1.00000000 0.00000000 0.00000000
vn 0.00000000 -1.00000000 0.00000000
vn 0.00000000 1.00000000 0.00000000
vn 0.00000000 0.00000000 -1.00000000
vn 0.00000000 0.00000000 1.00000000
vn -1.00000000 0.00000000 0.00000000
vn 1.00000000 0.00000000 0.00000000
vn 0.00000000 -1.00000000 0.00000000
vn 0.00000000 1.00000000 0.00000000
vn 0.00000000 0.00000000 -1.00000000
vn 0.00000000 0.00000000 1.00000000
vn -1.00000000 0.00000000 0.00000000
vn 1.00000000 0.00000000 0.00000000
vn 0.00000000 -1.00000000 0.00000000
vn 0.00000000 1.00000000 0.00000000
vn 0.00000000 0.00000000 -1.00000000
vn 0.00000000 0.00000000 1.00000000
vn -1.00000000 0.00000000 0.00000000
vn 1.00000000 0.00000000 0.00000000
vn 0.00000000 -1.00000000 0.00000000
vn 0.00000000 1.00000000 0.00000000
vn 0.00000000 0.00000000 -1.00000000
vn 0.00000000 0.00000000 1.00000000
vn -1.00000000 0.00000000 0.00000000
vn 1.00000000 0.00000000 0.00000000
vn 0.00000000 -1.00000000 0.00000000
vn 0.00000000 1.00000000 0.00000000
vn 0.38268343 0.00000000 0.92387953
vn 0.92387953 0.00000000 0.38268343
vn 0.92387953 0.00000000 -0.38268343
vn 0.38268343 0.00000000 -0.92387953
vn -0.38268343 0.00000000 -0.92387953
vn -0.92387953 0.00000000 -0.38268343
vn -0.92387953 0.00000000 0.38268343
vn -0.38268343 0.00000000 0.92387953
vn 0.00000000 -1.00000000 0.00000000
vn 0.00000000 -1.00000000 0.00000000
vn 0.00000000 -1.00000000 0.00000000
vn 0.00000000 -1.00000000 0.00000000
vn 0.00000000 -1.00000000 -0.00000000
vn -0.00000000 -1.00000000 0.00000000
vn 0.00000000 -1.00000000 0.00000000
vn 0.00000000 -1.00000000 0.00000000
vn 0.00000000 1.00000000 0.00000000
vn 0.00000000 1.00000000 0.00000000
vn -0.00000000 1.00000000 0.00000000
vn 0.00000000 1.00000000 0.00000000
vn 0.00000000 1.00000000 0.00000000
vn 0.00000000 1.00000000 0.00000000
vn 0.00000000 1.00000000 0.00000000
vn 0.00000000 1.00000000 -0.00000000
vn 0.00000000 0.00000000 -1.00000000
vn 0.00000000 0.00000000 1.00000000
vn -1.00000000 0.00000000 0.00000000
vn 1.00000000 0.00000000 0.00000000
vn 0.00000000 -1.00000000 0.00000000
vn 0.00000000 1.00000000 0.00000000
vn 0.00000000 0.00000000 -1.00000000
vn 0.00000000 0.00000000 1.00000000
vn -1.00000000 0.00000000 0.00000000
vn 1.00000000 0.00000000 0.00000000
vn 0.00000000 -1.00000000 0.00000000
vn 0.00000000 1.00000000 0.00000000
vn 0.00000000 0.00000000 -1.00000000
vn 0.00000000 0.00000000 1.00000000
vn -1.00000000 0.00000000 0.00000000
vn 1.00000000 0.00000000 0.00000000
vn 0.00000000 -1.00000000 0.00000000
vn 0.00000000 1.00000000 0.00000000
vn 0.00000000 0.00000000 -1.00000000
vn 0.00000000 0.00000000 1.00000000
vn -1.00000000 0.00000000 0.00000000
vn 1.00000000 0.00000000 0.00000000
vn 0.00000000 -1.00000000 0.00000000
vn 0.00000000 1.00000000 0.00000000
vn 0.00000000 0.00000000 -1.00000000
vn 0.00000000 0.00000000 1.00000000
vn -1.00000000 0.00000000 0.00000000
vn 1.00000000 0.00000000 0.00000000
vn 0.00000000 -1.00000000 0.00000000
vn 0.00000000 1.00000000 0.00000000
vn 0.00000000 0.00000000 -1.00000000
vn 0.00000000 0.00000000 1.00000000
vn -1.00000000 0.00000000 0.00000000
vn 1.00000000 0.00000000 0.00000000
vn 0.00000000 -1.00000000 0.00000000
vn 0.00000000 1.00000000 0.00000000
vn 0.38268343 0.00000000 0.92387953
vn 0.92387953 0.00000000 0.38268343
vn 0.92387953 0.00000000 -0.38268343
vn 0.38268343 0.00000000 -0.92387953
vn -0.38268343 0.00000000 -0.92387953
vn -0.92387953 0.00000000 -0.38268343
vn -0.92387953 0.00000000 0.38268343
vn -0.38268343 0.00000000 0.92387953
vn 0.00000000 -1.00000000 0.00000000
vn 0.00000000 -1.00000000 0.00000000
vn 0.00000000 -1.00000000 0.00000000
vn 0.00000000 -1.00000000 0.00000000
vn 0.00000000 -1.00000000 -0.00000000
vn -0.00000000 -1.00000000 0.00000000
vn 0.00000000 -1.00000000 0.00000000
vn 0.00000000 -1.00000000 0.00000000
vn 0.00000000 1.00000000 0.00000000
vn 0.00000000 1.00000000 0.00000000
vn -0.00000000 1.00000000 0.00000000
vn 0.00000000 1.00000000 0.00000000
vn 0.00000000 1.00000000 0.00000000
vn 0.00000000 1.00000000 0.00000000
vn 0.00000000 1.00000000 0.00000000
vn 0.00000000 1.00000000 -0.00000000
vn 0.00000000 0.00000000 -1.00000000
vn 0.00000000 0.00000000 1.00000000
vn -1.00000000 0.00000000 0.00000000
vn 1.00000000 0.00000000 0.00000000
vn 0.00000000 -1.00000000 0.00000000
vn 0.00000000 1.00000000 0.00000000
vn 0.00000000 0.38268343 -0.92387953
vn 0.00000000 0.92387953 -0.38268343
vn 0.00000000 0.92387953 0.38268343
vn 0.00000000 0.38268343 0.92387953
vn 0.00000000 -0.38268343 0.92387953
vn 0.00000000 -0.92387953 0.38268343
vn 0.00000000 -0.92387953 -0.38268343
vn 0.00000000 -0.38268343 -0.92387953
vn -1.00000000 0.00000000 0.00000000
vn -1.00000000 0.00000000 0.00000000
vn -1.00000000 0.00000000 0.00000000
vn -1.00000000 0.00000000 0.00000000
vn -1.00000000 0.00000000 0.00000000
vn -1.00000000 0.00000000 0.00000000
vn -1.00000000 -0.00000000 0.00000000
vn -1.00000000 0.00000000 -0.00000000
vn 1.00000000 0.00000000 0.00000000
vn 1.00000000 -0.00000000 0.00000000
vn 1.00000000 0.00000000 0.00000000
vn 1.00000000 0.00000000 0.00000000
vn 1.00000000 0.00000000 -0.00000000
vn 1.00000000 0.00000000 0.00000000
vn 1.00000000 0.00000000 0.00000000
vn 1.00000000 0.00000000 0.00000000
vn 0.00000000 0.38268343 -0.92387953
vn 0.00000000 0.92387953 -0.38268343
vn 0.00000000 0.92387953 0.38268343
vn 0.00000000 0.38268343 0.92387953
vn 0.00000000 -0.38268343 0.92387953
vn 0.00000000 -0.92387953 0.38268343
vn 0.00000000 -0.92387953 -0.38268343
vn 0.00000000 -0.38268343 -0.92387953
vn -1.00000000 0.00000000 0.00000000
vn -1.00000000 0.00000000 0.00000000
vn -1.00000000 0.00000000 0.00000000
vn -1.00000000 0.00000000 0.00000000
vn -1.00000000 0.00000000 0.00000000
vn -1.00000000 0.00000000 0.00000000
vn -1.00000000 -0.00000000 0.00000000
vn -1.00000000 0.00000000 -0.00000000
vn 1.00000000 0.00000000 0.00000000
vn 1.00000000 -0.00000000 0.00000000
vn 1.00000000 0.00000000 0.00000000
vn 1.00000000 0.00000000 0.00000000
vn 1.00000000 0.00000000 -0.00000000
vn 1.00000000 0.00000000 0.00000000
vn 1.00000000 0.00000000 0.00000000
vn 1.00000000 0.00000000 0.00000000
vn 0.00000000 0.38268343 -0.92387953
vn 0.00000000 0.92387953 -0.38268343
vn 0.00000000 0.92387953 0.38268343
vn 0.00000000 0.38268343 0.92387953
vn 0.00000000 -0.38268343 0.92387953
vn 0.00000000 -0.92387953 0.38268343
vn 0.00000000 -0.92387953 -0.38268343
vn 0.00000000 -0.38268343 -0.92387953
vn -1.00000000 0.00000000 0.00000000
vn -1.00000000 0.00000000 0.00000000
vn -1.00000000 0.00000000 0.00000000
vn -1.00000000 0.00000000 0.00000000
vn -1.00000000 0.00000000 0.00000000
vn -1.00000000 0.00000000 0.00000000
vn -1.00000000 -0.00000000 0.00000000
vn -1.00000000 0.00000000 -0.00000000
vn 1.00000000 0.00000000 0.00000000
vn 1.00000000 -0.00000000 0.00000000
vn 1.00000000 0.00000000 0.00000000
vn 1.00000000 0.00000000 0.00000000
vn 1.00000000 0.00000000 -0.00000000
vn 1.00000000 0.00000000 0.00000000
vn 1.00000000 0.00000000 0.00000000
vn 1.00000000 0.00000000 0.00000000
f 1/1/1 2/2/1 3/3/1
f 1/1/1 3/3/1 4/4/1
f 5/5/2 6/6/2 7/7/2
f 5/5/2 7/7/2 8/8/2
f 1/9/3 5/10/3 8/11/3
f 1/9/3 8/11/3 2/12/3
f 4/13/4 3/14/4 7/15/4
f 4/13/4 7/15/4 6/16/4
f 1/17/5 4/18/5 6/19/5
f 1/17/5 6/19/5 5/20/5
f 2/21/6 8/22/6 7/23/6
f 2/21/6 7/23/6 3/24/6
f 9/25/7 10/26/7 11/27/7
f 9/25/7 11/27/7 12/28/7
f 13/29/8 14/30/8 15/31/8
f 13/29/8 15/31/8 16/32/8
f 9/33/9 13/34/9 16/35/9
f 9/33/9 16/35/9 10/36/9
f 12/37/10 11/38/10 15/39/10
f 12/37/10 15/39/10 14/40/10
f 9/41/11 12/42/11 14/43/11
f 9/41/11 14/43/11 13/44/11
f 10/45/12 16/46/12 15/47/12
f 10/45/12 15/47/12 11/48/12
f 17/49/13 18/50/13 19/51/13
f 17/49/13 19/51/13 20/52/13
f 21/53/14 22/54/14 23/55/14
f 21/53/14 23/55/14 24/56/14
f 17/57/15 21/58/15 24/59/15
f 17/57/15 24/59/15 18/60/15
f 20/61/16 19/62/16 23/63/16
f 20/61/16 23/63/16 22/64/16
f 17/65/17 20/66/17 22/67/17
f 17/65/17 22/67/17 21/68/17
f 18/69/18 24/70/18 23/71/18
f 18/69/18 23/71/18 19/72/18
f 25/73/19 26/74/19 27/75/19
f 25/73/19 27/75/19 28/76/19
f 29/77/20 30/78/20 31/79/20
f 29/77/20 31/79/20 32/80/20
f 25/81/21 29/82/21 32/83/21
f 25/81/21 32/83/21 26/84/21
f 28/85/22 27/86/22 31/87/22
f 28/85/22 31/87/22 30/88/22
f 25/89/23 28/90/23 30/91/23
f 25/89/23 30/91/23 29/92/23
f 26/93/24 32/94/24 31/95/24
f 26/93/24 31/95/24 27/96/24
f 33/97/25 34/98/25 35/99/25
f 33/97/25 35/99/25 36/100/25
f 37/101/26 38/102/26 39/103/26
f 37/101/26 39/103/26 40/104/26
f 33/105/27 37/106/27 40/107/27
f 33/105/27 40/107/27 34/108/27
f 36/109/28 35/110/28 39/111/28
f 36/109/28 39/111/28 38/112/28
f 33/113/29 36/114/29 38/115/29
f 33/113/29 38/115/29 37/116/29
f 34/117/30 40/118/30 39/119/30
f 34/117/30 39/119/30 35/120/30
f 41/121/31 42/122/31 43/123/31
f 41/121/31 43/123/31 44/124/31
f 45/125/32 46/126/32 47/127/32
f 45/125/32 47/127/32 48/128/32
f 41/129/33 45/130/33 48/131/33
f 41/129/33 48/131/33 42/132/33
f 44/133/34 43/134/34 47/135/34
f 44/133/34 47/135/34 46/136/34
f 41/137/35 44/138/35 46/139/35
f 41/137/35 46/139/35 45/140/35
f 42/141/36 48/142/36 47/143/36
f 42/141/36 47/143/36 43/144/36
f 49/145/37 50/146/37 51/147/37
f 49/145/37 51/147/37 52/148/37
f 53/149/38 54/150/38 55/151/38
f 53/149/38 55/151/38 56/152/38
f 49/153/39 53/154/39 56/155/39
f 49/153/39 56/155/39 50/156/39
f 52/157/40 51/158/40 55/159/40
f 52/157/40 55/159/40 54/160/40
f 49/161/41 52/162/41 54/163/41
f 49/161/41 54/163/41 53/164/41
f 50/165/42 56/166/42 55/167/42
f 50/165/42 55/167/42 51/168/42
f 57/169/43 58/170/43 59/171/43
f 57/169/43 59/171/43 60/172/43
f 61/173/44 62/174/44 63/175/44
f 61/173/44 63/175/44 64/176/44
f 57/177/45 61/178/45 64/179/45
f 57/177/45 64/179/45 58/180/45
f 60/181/46 59/182/46 63/183/46
f 60/181/46 63/183/46 62/184/46
f 57/185/47 60/186/47 62/187/47
f 57/185/47 62/187/47 61/188/47
f 58/189/48 64/190/48 63/191/48
f 58/189/48 63/191/48 59/192/48
f 65/193/49 66/194/49 67/195/49
f 65/193/49 67/195/49 68/196/49
f 66/197/50 69/198/50 70/199/50
f 66/197/50 70/199/50 67/200/50
f 69/201/51 71/202/51 72/203/51
f 69/201/51 72/203/51 70/204/51
f 71/205/52 73/206/52 74/207/52
f 71/205/52 74/207/52 72/208/52
f 73/209/53 75/210/53 76/211/53
f 73/209/53 76/211/53 74/212/53
f 75/213/54 77/214/54 78/215/54
f 75/213/54 78/215/54 76/216/54
f 77/217/55 79/218/55 80/219/55
f 77/217/55 80/219/55 78/220/55
f 79/221/56 65/222/56 68/223/56
f 79/221/56 68/223/56 80/224/56
f 81/225/57 66/226/57 65/227/57
f 81/228/58 69/229/58 66/230/58
f 81/231/59 71/232/59 69/233/59
f 81/234/60 73/235/60 71/236/60
f 81/237/61 75/238/61 73/239/61
f 81/240/62 77/241/62 75/242/62
f 81/243/63 79/244/63 77/245/63
f 81/246/64 65/247/64 79/248/64
f 82/249/65 68/250/65 67/251/65
f 82/252/66 67/253/66 70/254/66
f 82/255/67 70/256/67 72/257/67
f 82/258/68 72/259/68 74/260/68
f 82/261/69 74/262/69 76/263/69
f 82/264/70 76/265/70 78/266/70
f 82/267/71 78/268/71 80/269/71
f 82/270/72 80/271/72 68/272/72
f 83/273/73 84/274/73 85/275/73
f 83/273/73 85/275/73 86/276/73
f 87/277/74 88/278/74 89/279/74
f 87/277/74 89/279/74 90/280/74
f 83/281/75 87/282/75 90/283/75
f 83/281/75 90/283/75 84/284/75
f 86/285/76 85/286/76 89/287/76
f 86/285/76 89/287/76 88/288/76
f 83/289/77 86/290/77 88/291/77
f 83/289/77 88/291/77 87/292/77
f 84/293/78 90/294/78 89/295/78
f 84/293/78 89/295/78 85/296/78
f 91/297/79 92/298/79 93/299/79
f 91/297/79 93/299/79 94/300/79
f 95/301/80 96/302/80 97/303/80
f 95/301/80 97/303/80 98/304/80
f 91/305/81 95/306/81 98/307/81
f 91/305/81 98/307/81 92/308/81
f 94/309/82 93/310/82 97/311/82
f 94/309/82 97/311/82 96/312/82
f 91/313/83 94/314/83 96/315/83
f 91/313/83 96/315/83 95/316/83
f 92/317/84 98/318/84 97/319/84
f 92/317/84 97/319/84 93/320/84
f 99/321/85 100/322/85 101/323/85
f 99/321/85 101/323/85 102/324/85
f 103/325/86 104/326/86 105/327/86
f 103/325/86 105/327/86 106/328/86
f 99/329/87 103/330/87 106/331/87
f 99/329/87 106/331/87 100/332/87
f 102/333/88 101/334/88 105/335/88
f 102/333/88 105/335/88 104/336/88
f 99/337/89 102/338/89 104/339/89
f 99/337/89 104/339/89 103/340/89
f 100/341/90 106/342/90 105/343/90
f 100/341/90 105/343/90 101/344/90
f 107/345/91 108/346/91 109/347/91
f 107/345/91 109/347/91 110/348/91
f 111/349/92 112/350/92 113/351/92
f 111/349/92 113/351/92 114/352/92
f 107/353/93 111/354/93 114/355/93
f 107/353/93 114/355/93 108/356/93
f 110/357/94 109/358/94 113/359/94
f 110/357/94 113/359/94 112/360/94
f 107/361/95 110/362/95 112/363/95
f 107/361/95 112/363/95 111/364/95
f 108/365/96 114/366/96 113/367/96
f 108/365/96 113/367/96 109/368/96
f 115/369/97 116/370/97 117/371/97
f 115/369/97 117/371/97 118/372/97
f 119/373/98 120/374/98 121/375/98
f 119/373/98 121/375/98 122/376/98
f 115/377/99 119/378/99 122/379/99
f 115/377/99 122/379/99 116/380/99
f 118/381/100 117/382/100 121/383/100
f 118/381/100 121/383/100 120/384/100
f 115/385/101 118/386/101 120/387/101
f 115/385/101 120/387/101 119/388/101
f 116/389/102 122/390/102 121/391/102
f 116/389/102 121/391/102 117/392/102
f 123/393/103 124/394/103 125/395/103
f 123/393/103 125/395/103 126/396/103
f 127/397/104 128/398/104 129/399/104
f 127/397/104 129/399/104 130/400/104
f 123/401/105 127/402/105 130/403/105
f 123/401/105 130/403/105 124/404/105
f 126/405/106 125/406/106 129/407/106
f 126/405/106 129/407/106 128/408/106
f 123/409/107 126/410/107 128/411/107
f 123/409/107 128/411/107 127/412/107
f 124/413/108 130/414/108 129/415/108
f 124/413/108 129/415/108 125/416/108
f 131/417/109 132/418/109 133/419/109
f 131/417/109 133/419/109 134/420/109
f 132/421/110 135/422/110 136/423/110
f 132/421/110 136/423/110 133/424/110
f 135/425/111 137/426/111 138/427/111
f 135/425/111 138/427/111 136/428/111
f 137/429/112 139/430/112 140/431/112
f 137/429/112 140/431/112 138/432/112
f 139/433/113 141/434/113 142/435/113
f 139/433/113 142/435/113 140/436/113
f 141/437/114 143/438/114 144/439/114
f 141/437/114 144/439/114 142/440/114
f 143/441/115 145/442/115 146/443/115
f 143/441/115 146/443/115 144/444/115
f 145/445/116 131/446/116 134/447/116
f 145/445/116 134/447/116 146/448/116
f 147/449/117 132/450/117 131/451/117
f 147/452/118 135/453/118 132/454/118
f 147/455/119 137/456/119 135/457/119
f 147/458/120 139/459/120 137/460/120
f 147/461/121 141/462/121 139/463/121
f 147/464/122 143/465/122 141/466/122
f 147/467/123 145/468/123 143/469/123
f 147/470/124 131/471/124 145/472/124
f 148/473/125 134/474/125 133/475/125
f 148/476/126 133/477/126 136/478/126
f 148/479/127 136/480/127 138/481/127
f 148/482/128 138/483/128 140/484/128
f 148/485/129 140/486/129 142/487/129
f 148/488/130 142/489/130 144/490/130
f 148/491/131 144/492/131 146/493/131
f 148/494/132 146/495/132 134/496/132
f 149/497/133 150/498/133 151/499/133
f 149/497/133 151/499/133 152/500/133
f 153/501/134 154/502/134 155/503/134
f 153/501/134 155/503/134 156/504/134
f 149/505/135 153/506/135 156/507/135
f 149/505/135 156/507/135 150/508/135
f 152/509/136 151/510/136 155/511/136
f 152/509/136 155/511/136 154/512/136
f 149/513/137 152/514/137 154/515/137
f 149/513/137 154/515/137 153/516/137
f 150/517/138 156/518/138 155/519/138
f 150/517/138 155/519/138 151/520/138
f 157/521/139 158/522/139 159/523/139
f 157/521/139 159/523/139 160/524/139
f 161/525/140 162/526/140 163/527/140
f 161/525/140 163/527/140 164/528/140
f 157/529/141 161/530/141 164/531/141
f 157/529/141 164/531/141 158/532/141
f 160/533/142 159/534/142 163/535/142
f 160/533/142 163/535/142 162/536/142
f 157/537/143 160/538/143 162/539/143
f 157/537/143 162/539/143 161/540/143
f 158/541/144 164/542/144 163/543/144
f 158/541/144 163/543/144 159/544/144
f 165/545/145 166/546/145 167/547/145
f 165/545/145 167/547/145 168/548/145
f 169/549/146 170/550/146 171/551/146
f 169/549/146 171/551/146 172/552/146
f 165/553/147 169/554/147 172/555/147
f 165/553/147 172/555/147 166/556/147
f 168/557/148 167/558/148 171/559/148
f 168/557/148 171/559/148 170/560/148
f 165/561/149 168/562/149 170/563/149
f 165/561/149 170/563/149 169/564/149
f 166/565/150 172/566/150 171/567/150
f 166/565/150 171/567/150 167/568/150
f 173/569/151 174/570/151 175/571/151
f 173/569/151 175/571/151 176/572/151
f 177/573/152 178/574/152 179/575/152
f 177/573/152 179/575/152 180/576/152
f 173/577/153 177/578/153 180/579/153
f 173/577/153 180/579/153 174/580/153
f 176/581/154 175/582/154 179/583/154
f 176/581/154 179/583/154 178/584/154
f 173/585/155 176/586/155 178/587/155
f 173/585/155 178/587/155 177/588/155
f 174/589/156 180/590/156 179/591/156
f 174/589/156 179/591/156 175/592/156
f 181/593/157 182/594/157 183/595/157
f 181/593/157 183/595/157 184/596/157
f 185/597/158 186/598/158 187/599/158
f 185/597/158 187/599/158 188/600/158
f 181/601/159 185/602/159 188/603/159
f 181/601/159 188/603/159 182/604/159
f 184/605/160 183/606/160 187/607/160
f 184/605/160 187/607/160 186/608/160
f 181/609/161 184/610/161 186/611/161
f 181/609/161 186/611/161 185/612/161
f 182/613/162 188/614/162 187/615/162
f 182/613/162 187/615/162 183/616/162
f 189/617/163 190/618/163 191/619/163
f 189/617/163 191/619/163 192/620/163
f 193/621/164 194/622/164 195/623/164
f 193/621/164 195/623/164 196/624/164
f 189/625/165 193/626/165 196/627/165
f 189/625/165 196/627/165 190/628/165
f 192/629/166 191/630/166 195/631/166
f 192/629/166 195/631/166 194/632/166
f 189/633/167 192/634/167 194/635/167
f 189/633/167 194/635/167 193/636/167
f 190/637/168 196/638/168 195/639/168
f 190/637/168 195/639/168 191/640/168
f 197/641/169 198/642/169 199/643/169
f 197/641/169 199/643/169 200/644/169
f 198/645/170 201/646/170 202/647/170
f 198/645/170 202/647/170 199/648/170
f 201/649/171 203/650/171 204/651/171
f 201/649/171 204/651/171 202/652/171
f 203/653/172 205/654/172 206/655/172
f 203/653/172 206/655/172 204/656/172
f 205/657/173 207/658/173 208/659/173
f 205/657/173 208/659/173 206/660/173
f 207/661/174 209/662/174 210/663/174
f 207/661/174 210/663/174 208/664/174
f 209/665/175 211/666/175 212/667/175
f 209/665/175 212/667/175 210/668/175
f 211/669/176 197/670/176 200/671/176
f 211/669/176 200/671/176 212/672/176
f 213/673/177 198/674/177 197/675/177
f 213/676/178 201/677/178 198/678/178
f 213/679/179 203/680/179 201/681/179
f 213/682/180 205/683/180 203/684/180
f 213/685/181 207/686/181 205/687/181
f 213/688/182 209/689/182 207/690/182
f 213/691/183 211/692/183 209/693/183
f 213/694/184 197/695/184 211/696/184
f 214/697/185 200/698/185 199/699/185
f 214/700/186 199/701/186 202/702/186
f 214/703/187 202/704/187 204/705/187
f 214/706/188 204/707/188 206/708/188
f 214/709/189 206/710/189 208/711/189
f 214/712/190 208/713/190 210/714/190
f 214/715/191 210/716/191 212/717/191
f 214/718/192 212/719/192 200/720/192
f 215/721/193 216/722/193 217/723/193
f 215/721/193 217/723/193 218/724/193
f 219/725/194 220/726/194 221/727/194
f 219/725/194 221/727/194 222/728/194
f 215/729/195 219/730/195 222/731/195
f 215/729/195 222/731/195 216/732/195
f 218/733/196 217/734/196 221/735/196
f 218/733/196 221/735/196 220/736/196
f 215/737/197 218/738/197 220/739/197
f 215/737/197 220/739/197 219/740/197
f 216/741/198 222/742/198 221/743/198
f 216/741/198 221/743/198 217/744/198
f 223/745/199 224/746/199 225/747/199
f 223/745/199 225/747/199 226/748/199
f 227/749/200 228/750/200 229/751/200
f 227/749/200 229/751/200 230/752/200
f 223/753/201 227/754/201 230/755/201
f 223/753/201 230/755/201 224/756/201
f 226/757/202 225/758/202 229/759/202
f 226/757/202 229/759/202 228/760/202
f 223/761/203 226/762/203 228/763/203
f 223/761/203 228/763/203 227/764/203
f 224/765/204 230/766/204 229/767/204
f 224/765/204 229/767/204 225/768/204
f 231/769/205 232/770/205 233/771/205
f 231/769/205 233/771/205 234/772/205
f 235/773/206 236/774/206 237/775/206
f 235/773/206 237/775/206 238/776/206
f 231/777/207 235/778/207 238/779/207
f 231/777/207 238/779/207 232/780/207
f 234/781/208 233/782/208 237/783/208
f 234/781/208 237/783/208 236/784/208
f 231/785/209 234/786/209 236/787/209
f 231/785/209 236/787/209 235/788/209
f 232/789/210 238/790/210 237/791/210
f 232/789/210 237/791/210 233/792/210
f 239/793/211 240/794/211 241/795/211
f 239/793/211 241/795/211 242/796/211
f 243/797/212 244/798/212 245/799/212
f 243/797/212 245/799/212 246/800/212
f 239/801/213 243/802/213 246/803/213
f 239/801/213 246/803/213 240/804/213
f 242/805/214 241/806/214 245/807/214
f 242/805/214 245/807/214 244/808/214
f 239/809/215 242/810/215 244/811/215
f 239/809/215 244/811/215 243/812/215
f 240/813/216 246/814/216 245/815/216
f 240/813/216 245/815/216 241/816/216
f 247/817/217 248/818/217 249/819/217
f 247/817/217 249/819/217 250/820/217
f 251/821/218 252/822/218 253/823/218
f 251/821/218 253/823/218 254/824/218
f 247/825/219 251/826/219 254/827/219
f 247/825/219 254/827/219 248/828/219
f 250/829/220 249/830/220 253/831/220
f 250/829/220 253/831/220 252/832/220
f 247/833/221 250/834/221 252/835/221
f 247/833/221 252/835/221 251/836/221
f 248/837/222 254/838/222 253/839/222
f 248/837/222 253/839/222 249/840/222
f 255/841/223 256/842/223 257/843/223
f 255/841/223 257/843/223 258/844/223
f 259/845/224 260/846/224 261/847/224
f 259/845/224 261/847/224 262/848/224
f 255/849/225 259/850/225 262/851/225
f 255/849/225 262/851/225 256/852/225
f 258/853/226 257/854/226 261/855/226
f 258/853/226 261/855/226 260/856/226
f 255/857/227 258/858/227 260/859/227
f 255/857/227 260/859/227 259/860/227
f 256/861/228 262/862/228 261/863/228
f 256/861/228 261/863/228 257/864/228
f 263/865/229 264/866/229 265/867/229
f 263/865/229 265/867/229 266/868/229
f 264/869/230 267/870/230 268/871/230
f 264/869/230 268/871/230 265/872/230
f 267/873/231 269/874/231 270/875/231
f 267/873/231 270/875/231 268/876/231
f 269/877/232 271/878/232 272/879/232
f 269/877/232 272/879/232 270/880/232
f 271/881/233 273/882/233 274/883/233
f 271/881/233 274/883/233 272/884/233
f 273/885/234 275/886/234 276/887/234
f 273/885/234 276/887/234 274/888/234
f 275/889/235 277/890/235 278/891/235
f 275/889/235 278/891/235 276/892/235
f 277/893/236 263/894/236 266/895/236
f 277/893/236 266/895/236 278/896/236
f 279/897/237 264/898/237 263/899/237
f 279/900/238 267/901/238 264/902/238
f 279/903/239 269/904/239 267/905/239
f 279/906/240 271/907/240 269/908/240
f 279/909/241 273/910/241 271/911/241
f 279/912/242 275/913/242 273/914/242
f 279/915/243 277/916/243 275/917/243
f 279/918/244 263/919/244 277/920/244
f 280/921/245 266/922/245 265/923/245
f 280/924/246 265/925/246 268/926/246
f 280/927/247 268/928/247 270/929/247
f 280/930/248 270/931/248 272/932/248
f 280/933/249 272/934/249 274/935/249
f 280/936/250 274/937/250 276/938/250
f 280/939/251 276/940/251 278/941/251
f 280/942/252 278/943/252 266/944/252
f 281/945/253 282/946/253 283/947/253
f 281/945/253 283/947/253 284/948/253
f 285/949/254 286/950/254 287/951/254
f 285/949/254 287/951/254 288/952/254
f 281/953/255 285/954/255 288/955/255
f 281/953/255 288/955/255 282/956/255
f 284/957/256 283/958/256 287/959/256
f 284/957/256 287/959/256 286/960/256
f 281/961/257 284/962/257 286/963/257
f 281/961/257 286/963/257 285/964/257
f 282/965/258 288/966/258 287/967/258
f 282/965/258 287/967/258 283/968/258
f 289/969/259 290/970/259 291/971/259
f 289/969/259 291/971/259 292/972/259
f 290/973/260 293/974/260 294/975/260
f 290/973/260 294/975/260 291/976/260
f 293/977/261 295/978/261 296/979/261
f 293/977/261 296/979/261 294/980/261
f 295/981/262 297/982/262 298/983/262
f 295/981/262 298/983/262 296/984/262
f 297/985/263 299/986/263 300/987/263
f 297/985/263 300/987/263 298/988/263
f 299/989/264 301/990/264 302/991/264
f 299/989/264 302/991/264 300/992/264
f 301/993/265 303/994/265 304/995/265
f 301/993/265 304/995/265 302/996/265
f 303/997/266 289/998/266 292/999/266
f 303/997/266 292/999/266 304/1000/266
f 305/1001/267 290/1002/267 289/1003/267
f 305/1004/268 293/1005/268 290/1006/268
f 305/1007/269 295/1008/269 293/1009/269
f 305/1010/270 297/1011/270 295/1012/270
f 305/1013/271 299/1014/271 297/1015/271
f 305/1016/272 301/1017/272 299/1018/272
f 305/1019/273 303/1020/273 301/1021/273
f 305/1022/274 289/1023/274 303/1024/274
f 306/1025/275 292/1026/275 291/1027/275
f 306/1028/276 291/1029/276 294/1030/276
f 306/1031/277 294/1032/277 296/1033/277
f 306/1034/278 296/1035/278 298/1036/278
f 306/1037/279 298/1038/279 300/1039/279
f 306/1040/280 300/1041/280 302/1042/280
f 306/1043/281 302/1044/281 304/1045/281
f 306/1046/282 304/1047/282 292/1048/282
f 307/1049/283 308/1050/283 309/1051/283
f 307/1049/283 309/1051/283 310/1052/283
f 308/1053/284 311/1054/284 312/1055/284
f 308/1053/284 312/1055/284 309/1056/284
f 311/1057/285 313/1058/285 314/1059/285
f 311/1057/285 314/1059/285 312/1060/285
f 313/1061/286 315/1062/286 316/1063/286
f 313/1061/286 316/1063/286 314/1064/286
f 315/1065/287 317/1066/287 318/1067/287
f 315/1065/287 318/1067/287 316/1068/287
f 317/1069/288 319/1070/288 320/1071/288
f 317/1069/288 320/1071/288 318/1072/288
f 319/1073/289 321/1074/289 322/1075/289
f 319/1073/289 322/1075/289 320/1076/289
f 321/1077/290 307/1078/290 310/1079/290
f 321/1077/290 310/1079/290 322/1080/290
f 323/1081/291 308/1082/291 307/1083/291
f 323/1084/292 311/1085/292 308/1086/292
f 323/1087/293 313/1088/293 311/1089/293
f 323/1090/294 315/1091/294 313/1092/294
f 323/1093/295 317/1094/295 315/1095/295
f 323/1096/296 319/1097/296 317/1098/296
f 323/1099/297 321/1100/297 319/1101/297
f 323/1102/298 307/1103/298 321/1104/298
f 324/1105/299 310/1106/299 309/1107/299
f 324/1108/300 309/1109/300 312/1110/300
f 324/1111/301 312/1112/301 314/1113/301
f 324/1114/302 314/1115/302 316/1116/302
f 324/1117/303 316/1118/303 318/1119/303
f 324/1120/304 318/1121/304 320/1122/304
f 324/1123/305 320/1124/305 322/1125/305
f 324/1126/306 322/1127/306 310/1128/306
f 325/1129/307 326/1130/307 327/1131/307
f 325/1129/307 327/1131/307 328/1132/307
f 326/1133/308 329/1134/308 330/1135/308
f 326/1133/308 330/1135/308 327/1136/308
f 329/1137/309 331/1138/309 332/1139/309
f 329/1137/309 332/1139/309 330/1140/309
f 331/1141/310 333/1142/310 334/1143/310
f 331/1141/310 334/1143/310 332/1144/310
f 333/1145/311 335/1146/311 336/1147/311
f 333/1145/311 336/1147/311 334/1148/311
f 335/1149/312 337/1150/312 338/1151/312
f 335/1149/312 338/1151/312 336/1152/312
f 337/1153/313 339/1154/313 340/1155/313
f 337/1153/313 340/1155/313 338/1156/313
f 339/1157/314 325/1158/314 328/1159/314
f 339/1157/314 328/1159/314 340/1160/314
f 341/1161/315 326/1162/315 325/1163/315
f 341/1164/316 329/1165/316 326/1166/316
f 341/1167/317 331/1168/317 329/1169/317
f 341/1170/318 333/1171/318 331/1172/318
f 341/1173/319 335/1174/319 333/1175/319
f 341/1176/320 337/1177/320 335/1178/320
f 341/1179/321 339/1180/321 337/1181/321
f 341/1182/322 325/1183/322 339/1184/322
f 342/1185/323 328/1186/323 327/1187/323
f 342/1188/324 327/1189/324 330/1190/324
f 342/1191/325 330/1192/325 332/1193/325
f 342/1194/326 332/1195/326 334/1196/326
f 342/1197/327 334/1198/327 336/1199/327
f 342/1200/328 336/1201/328 338/1202/328
f 342/1203/329 338/1204/329 340/1205/329
f 342/1206/330 340/1207/330 328/1208/330
