mtllib TorusSettlementFarm_A07.mtl
v -4.5171827 0.0494725 2.3750000
v -2.7104483 0.0178105 2.3750000
v -2.7104483 0.0178105 -2.3750000
v -4.5171827 0.0494725 -2.3750000
v -2.7104483 0.0178105 2.3750000
v -0.9035059 0.0019790 2.3750000
v -0.9035059 0.0019790 -2.3750000
v -2.7104483 0.0178105 -2.3750000
v -0.9035059 0.0019790 2.3750000
v 0.9035059 0.0019790 2.3750000
v 0.9035059 0.0019790 -2.3750000
v -0.9035059 0.0019790 -2.3750000
v 0.9035059 0.0019790 2.3750000
v 2.7104483 0.0178105 2.3750000
v 2.7104483 0.0178105 -2.3750000
v 0.9035059 0.0019790 -2.3750000
v 2.7104483 0.0178105 2.3750000
v 4.5171827 0.0494725 2.3750000
v 4.5171827 0.0494725 -2.3750000
v 2.7104483 0.0178105 -2.3750000
v -4.5169089 0.0619695 -2.0250000
v -2.7102840 0.0303095 -2.0250000
v -2.7102840 0.0303095 -2.3750000
v -4.5169089 0.0619695 -2.3750000
v -2.7102840 0.0303095 -2.0250000
v -0.9034511 0.0144789 -2.0250000
v -0.9034511 0.0144789 -2.3750000
v -2.7102840 0.0303095 -2.3750000
v -0.9034511 0.0144789 -2.0250000
v 0.9034511 0.0144789 -2.0250000
v 0.9034511 0.0144789 -2.3750000
v -0.9034511 0.0144789 -2.3750000
v 0.9034511 0.0144789 -2.0250000
v 2.7102840 0.0303095 -2.0250000
v 2.7102840 0.0303095 -2.3750000
v 0.9034511 0.0144789 -2.3750000
v 2.7102840 0.0303095 -2.0250000
v 4.5169089 0.0619695 -2.0250000
v 4.5169089 0.0619695 -2.3750000
v 2.7102840 0.0303095 -2.3750000
v -4.5169089 0.0619695 2.3750000
v -2.7102840 0.0303095 2.3750000
v -2.7102840 0.0303095 2.0250000
v -4.5169089 0.0619695 2.0250000
v -2.7102840 0.0303095 2.3750000
v -0.9034511 0.0144789 2.3750000
v -0.9034511 0.0144789 2.0250000
v -2.7102840 0.0303095 2.0250000
v -0.9034511 0.0144789 2.3750000
v 0.9034511 0.0144789 2.3750000
v 0.9034511 0.0144789 2.0250000
v -0.9034511 0.0144789 2.0250000
v 0.9034511 0.0144789 2.3750000
v 2.7102840 0.0303095 2.3750000
v 2.7102840 0.0303095 2.0250000
v 0.9034511 0.0144789 2.0250000
v 2.7102840 0.0303095 2.3750000
v 4.5169089 0.0619695 2.3750000
v 4.5169089 0.0619695 2.0250000
v 2.7102840 0.0303095 2.0250000
v -0.2999817 0.0127182 2.3750000
v 0.2999817 0.0127182 2.3750000
v 0.2999817 0.0127182 -2.3750000
v -0.2999817 0.0127182 -2.3750000
v -4.1666036 0.0745972 -0.8375000
v -2.2583709 0.0448665 -0.8375000
v -2.2583709 0.0448665 -2.0250000
v -4.1666036 0.0745972 -2.0250000
v -2.2583709 0.0448665 -0.8375000
v -0.3499447 0.0327969 -0.8375000
v -0.3499447 0.0327969 -2.0250000
v -2.2583709 0.0448665 -2.0250000
v -4.1659975 0.1045911 -0.7875000
v -2.2580423 0.0748647 -0.7875000
v -2.2580423 0.0748647 -0.8375000
v -4.1659975 0.1045911 -0.8375000
v -2.2580423 0.0748647 -0.7875000
v -0.3498938 0.0627969 -0.7875000
v -0.3498938 0.0627969 -0.8375000
v -2.2580423 0.0748647 -0.8375000
v 0.3499447 0.0327969 -0.8375000
v 2.2583709 0.0448665 -0.8375000
v 2.2583709 0.0448665 -2.0250000
v 0.3499447 0.0327969 -2.0250000
v 2.2583709 0.0448665 -0.8375000
v 4.1666036 0.0745972 -0.8375000
v 4.1666036 0.0745972 -2.0250000
v 2.2583709 0.0448665 -2.0250000
v 0.3498938 0.0627969 -0.7875000
v 2.2580423 0.0748647 -0.7875000
v 2.2580423 0.0748647 -0.8375000
v 0.3498938 0.0627969 -0.8375000
v 2.2580423 0.0748647 -0.7875000
v 4.1659975 0.1045911 -0.7875000
v 4.1659975 0.1045911 -0.8375000
v 2.2580423 0.0748647 -0.8375000
v -4.1666036 0.0745972 0.5125000
v -2.2583709 0.0448665 0.5125000
v -2.2583709 0.0448665 -0.6750000
v -4.1666036 0.0745972 -0.6750000
v -2.2583709 0.0448665 0.5125000
v -0.3499447 0.0327969 0.5125000
v -0.3499447 0.0327969 -0.6750000
v -2.2583709 0.0448665 -0.6750000
v -4.1659975 0.1045911 0.5625000
v -2.2580423 0.0748647 0.5625000
v -2.2580423 0.0748647 0.5125000
v -4.1659975 0.1045911 0.5125000
v -2.2580423 0.0748647 0.5625000
v -0.3498938 0.0627969 0.5625000
v -0.3498938 0.0627969 0.5125000
v -2.2580423 0.0748647 0.5125000
v 0.3499447 0.0327969 0.5125000
v 2.2583709 0.0448665 0.5125000
v 2.2583709 0.0448665 -0.6750000
v 0.3499447 0.0327969 -0.6750000
v 2.2583709 0.0448665 0.5125000
v 4.1666036 0.0745972 0.5125000
v 4.1666036 0.0745972 -0.6750000
v 2.2583709 0.0448665 -0.6750000
v 0.3498938 0.0627969 0.5625000
v 2.2580423 0.0748647 0.5625000
v 2.2580423 0.0748647 0.5125000
v 0.3498938 0.0627969 0.5125000
v 2.2580423 0.0748647 0.5625000
v 4.1659975 0.1045911 0.5625000
v 4.1659975 0.1045911 0.5125000
v 2.2580423 0.0748647 0.5125000
v -4.1666036 0.0745972 1.8625000
v -2.2583709 0.0448665 1.8625000
v -2.2583709 0.0448665 0.6750000
v -4.1666036 0.0745972 0.6750000
v -2.2583709 0.0448665 1.8625000
v -0.3499447 0.0327969 1.8625000
v -0.3499447 0.0327969 0.6750000
v -2.2583709 0.0448665 0.6750000
v -4.1659975 0.1045911 1.9125000
v -2.2580423 0.0748647 1.9125000
v -2.2580423 0.0748647 1.8625000
v -4.1659975 0.1045911 1.8625000
v -2.2580423 0.0748647 1.9125000
v -0.3498938 0.0627969 1.9125000
v -0.3498938 0.0627969 1.8625000
v -2.2580423 0.0748647 1.8625000
v 0.3499447 0.0327969 1.8625000
v 2.2583709 0.0448665 1.8625000
v 2.2583709 0.0448665 0.6750000
v 0.3499447 0.0327969 0.6750000
v 2.2583709 0.0448665 1.8625000
v 4.1666036 0.0745972 1.8625000
v 4.1666036 0.0745972 0.6750000
v 2.2583709 0.0448665 0.6750000
v 0.3498938 0.0627969 1.9125000
v 2.2580423 0.0748647 1.9125000
v 2.2580423 0.0748647 1.8625000
v 0.3498938 0.0627969 1.8625000
v 2.2580423 0.0748647 1.9125000
v 4.1659975 0.1045911 1.9125000
v 4.1659975 0.1045911 1.8625000
v 2.2580423 0.0748647 1.8625000
vt 0.005000 0.995000
vt 0.245000 0.995000
vt 0.245000 0.755000
vt 0.255000 0.995000
vt 0.495000 0.995000
vt 0.495000 0.755000
vt 0.505000 0.995000
vt 0.745000 0.995000
vt 0.745000 0.755000
vt 0.755000 0.995000
vt 0.995000 0.995000
vt 0.995000 0.755000
vt 0.005000 0.745000
vt 0.245000 0.745000
vt 0.245000 0.505000
vt 0.255000 0.745000
vt 0.495000 0.745000
vt 0.495000 0.505000
vt 0.505000 0.745000
vt 0.745000 0.745000
vt 0.745000 0.505000
vt 0.755000 0.745000
vt 0.995000 0.745000
vt 0.995000 0.505000
vt 0.005000 0.495000
vt 0.245000 0.495000
vt 0.245000 0.255000
vt 0.255000 0.495000
vt 0.495000 0.495000
vt 0.495000 0.255000
vt 0.505000 0.495000
vt 0.745000 0.495000
vt 0.745000 0.255000
vt 0.755000 0.495000
vt 0.995000 0.495000
vt 0.995000 0.255000
vt 0.005000 0.245000
vt 0.245000 0.245000
vt 0.245000 0.005000
vt 0.255000 0.245000
vt 0.495000 0.245000
vt 0.495000 0.005000
vt 0.505000 0.245000
vt 0.745000 0.245000
vt 0.745000 0.005000
vt 0.755000 0.245000
vt 0.995000 0.245000
vt 0.995000 0.005000
g solid
usemtl farm-kit
f 73/28 74/29 75/30
f 73/28 75/29 76/30
f 77/28 78/29 79/30
f 77/28 79/29 80/30
f 89/28 90/29 91/30
f 89/28 91/29 92/30
f 93/28 94/29 95/30
f 93/28 95/29 96/30
f 105/28 106/29 107/30
f 105/28 107/29 108/30
f 109/28 110/29 111/30
f 109/28 111/29 112/30
f 121/28 122/29 123/30
f 121/28 123/29 124/30
f 125/28 126/29 127/30
f 125/28 127/29 128/30
f 137/28 138/29 139/30
f 137/28 139/29 140/30
f 141/28 142/29 143/30
f 141/28 143/29 144/30
f 153/28 154/29 155/30
f 153/28 155/29 156/30
f 157/28 158/29 159/30
f 157/28 159/29 160/30
g support
usemtl farm-kit
f 1/1 2/2 3/3
f 1/1 3/2 4/3
f 5/1 6/2 7/3
f 5/1 7/2 8/3
f 9/1 10/2 11/3
f 9/1 11/2 12/3
f 13/1 14/2 15/3
f 13/1 15/2 16/3
f 17/1 18/2 19/3
f 17/1 19/2 20/3
f 21/4 22/5 23/6
f 21/4 23/5 24/6
f 25/4 26/5 27/6
f 25/4 27/5 28/6
f 29/4 30/5 31/6
f 29/4 31/5 32/6
f 33/4 34/5 35/6
f 33/4 35/5 36/6
f 37/4 38/5 39/6
f 37/4 39/5 40/6
f 41/4 42/5 43/6
f 41/4 43/5 44/6
f 45/4 46/5 47/6
f 45/4 47/5 48/6
f 49/4 50/5 51/6
f 49/4 51/5 52/6
f 53/4 54/5 55/6
f 53/4 55/5 56/6
f 57/4 58/5 59/6
f 57/4 59/5 60/6
f 61/4 62/5 63/6
f 61/4 63/5 64/6
g water
usemtl farm-water
f 65/25 66/26 67/27
f 65/25 67/26 68/27
f 69/25 70/26 71/27
f 69/25 71/26 72/27
f 81/25 82/26 83/27
f 81/25 83/26 84/27
f 85/25 86/26 87/27
f 85/25 87/26 88/27
f 97/25 98/26 99/27
f 97/25 99/26 100/27
f 101/25 102/26 103/27
f 101/25 103/26 104/27
f 113/25 114/26 115/27
f 113/25 115/26 116/27
f 117/25 118/26 119/27
f 117/25 119/26 120/27
f 129/25 130/26 131/27
f 129/25 131/26 132/27
f 133/25 134/26 135/27
f 133/25 135/26 136/27
f 145/25 146/26 147/27
f 145/25 147/26 148/27
f 149/25 150/26 151/27
f 149/25 151/26 152/27
