mtllib TorusSettlementFarm_A57.mtl
v -8.7476400 0.1759820 12.0000000
v -6.5615043 0.0989957 12.0000000
v -6.5615043 0.0989957 -12.0000000
v -8.7476400 0.1759820 -12.0000000
v -6.5615043 0.0989957 12.0000000
v -4.3747050 0.0440000 12.0000000
v -4.3747050 0.0440000 -12.0000000
v -6.5615043 0.0989957 -12.0000000
v -4.3747050 0.0440000 12.0000000
v -2.1874631 0.0110003 12.0000000
v -2.1874631 0.0110003 -12.0000000
v -4.3747050 0.0440000 -12.0000000
v -2.1874631 0.0110003 12.0000000
v 0.0000000 0.0000000 12.0000000
v 0.0000000 0.0000000 -12.0000000
v -2.1874631 0.0110003 -12.0000000
v 0.0000000 0.0000000 12.0000000
v 2.1874631 0.0110003 12.0000000
v 2.1874631 0.0110003 -12.0000000
v 0.0000000 0.0000000 -12.0000000
v 2.1874631 0.0110003 12.0000000
v 4.3747050 0.0440000 12.0000000
v 4.3747050 0.0440000 -12.0000000
v 2.1874631 0.0110003 -12.0000000
v 4.3747050 0.0440000 12.0000000
v 6.5615043 0.0989957 12.0000000
v 6.5615043 0.0989957 -12.0000000
v 4.3747050 0.0440000 -12.0000000
v 6.5615043 0.0989957 12.0000000
v 8.7476400 0.1759820 12.0000000
v 8.7476400 0.1759820 -12.0000000
v 6.5615043 0.0989957 -12.0000000
v -8.7471372 0.1884719 -11.6500000
v -6.5611272 0.1114900 -11.6500000
v -6.5611272 0.1114900 -12.0000000
v -8.7471372 0.1884719 -12.0000000
v -6.5611272 0.1114900 -11.6500000
v -4.3744536 0.0564974 -11.6500000
v -4.3744536 0.0564974 -12.0000000
v -6.5611272 0.1114900 -12.0000000
v -4.3744536 0.0564974 -11.6500000
v -2.1873374 0.0234996 -11.6500000
v -2.1873374 0.0234996 -12.0000000
v -4.3744536 0.0564974 -12.0000000
v -2.1873374 0.0234996 -11.6500000
v 0.0000000 0.0125000 -11.6500000
v 0.0000000 0.0125000 -12.0000000
v -2.1873374 0.0234996 -12.0000000
v 0.0000000 0.0125000 -11.6500000
v 2.1873374 0.0234996 -11.6500000
v 2.1873374 0.0234996 -12.0000000
v 0.0000000 0.0125000 -12.0000000
v 2.1873374 0.0234996 -11.6500000
v 4.3744536 0.0564974 -11.6500000
v 4.3744536 0.0564974 -12.0000000
v 2.1873374 0.0234996 -12.0000000
v 4.3744536 0.0564974 -11.6500000
v 6.5611272 0.1114900 -11.6500000
v 6.5611272 0.1114900 -12.0000000
v 4.3744536 0.0564974 -12.0000000
v 6.5611272 0.1114900 -11.6500000
v 8.7471372 0.1884719 -11.6500000
v 8.7471372 0.1884719 -12.0000000
v 6.5611272 0.1114900 -12.0000000
v -8.7471372 0.1884719 12.0000000
v -6.5611272 0.1114900 12.0000000
v -6.5611272 0.1114900 11.6500000
v -8.7471372 0.1884719 11.6500000
v -6.5611272 0.1114900 12.0000000
v -4.3744536 0.0564974 12.0000000
v -4.3744536 0.0564974 11.6500000
v -6.5611272 0.1114900 11.6500000
v -4.3744536 0.0564974 12.0000000
v -2.1873374 0.0234996 12.0000000
v -2.1873374 0.0234996 11.6500000
v -4.3744536 0.0564974 11.6500000
v -2.1873374 0.0234996 12.0000000
v 0.0000000 0.0125000 12.0000000
v 0.0000000 0.0125000 11.6500000
v -2.1873374 0.0234996 11.6500000
v 0.0000000 0.0125000 12.0000000
v 2.1873374 0.0234996 12.0000000
v 2.1873374 0.0234996 11.6500000
v 0.0000000 0.0125000 11.6500000
v 2.1873374 0.0234996 12.0000000
v 4.3744536 0.0564974 12.0000000
v 4.3744536 0.0564974 11.6500000
v 2.1873374 0.0234996 11.6500000
v 4.3744536 0.0564974 12.0000000
v 6.5611272 0.1114900 12.0000000
v 6.5611272 0.1114900 11.6500000
v 4.3744536 0.0564974 11.6500000
v 6.5611272 0.1114900 12.0000000
v 8.7471372 0.1884719 12.0000000
v 8.7471372 0.1884719 11.6500000
v 6.5611272 0.1114900 11.6500000
v -0.2999827 0.0127069 12.0000000
v 0.2999827 0.0127069 12.0000000
v 0.2999827 0.0127069 -12.0000000
v -0.2999827 0.0127069 -12.0000000
v -8.3924099 0.3045805 -11.0841429
v -6.3761543 0.2360420 -11.0841429
v -6.3785011 0.1560764 -11.6500000
v -8.3954988 0.2246401 -11.6500000
v -8.3954988 0.2246401 -10.5182857
v -6.3785011 0.1560764 -10.5182857
v -6.3761543 0.2360420 -11.0841429
v -8.3924099 0.3045805 -11.0841429
v -6.3761543 0.2360420 -11.0841429
v -4.3593495 0.1862202 -11.0841429
v -4.3609540 0.1062363 -11.6500000
v -6.3785011 0.1560764 -11.6500000
v -6.3785011 0.1560764 -10.5182857
v -4.3609540 0.1062363 -10.5182857
v -4.3593495 0.1862202 -11.0841429
v -6.3761543 0.2360420 -11.0841429
v -4.3593495 0.1862202 -11.0841429
v -2.3421691 0.1551196 -11.0841429
v -2.3430312 0.0751242 -11.6500000
v -4.3609540 0.1062363 -11.6500000
v -4.3609540 0.1062363 -10.5182857
v -2.3430312 0.0751242 -10.5182857
v -2.3421691 0.1551196 -11.0841429
v -4.3593495 0.1862202 -11.0841429
v -2.3421691 0.1551196 -11.0841429
v -0.3247869 0.1427427 -11.0841429
v -0.3249065 0.0627427 -11.6500000
v -2.3430312 0.0751242 -11.6500000
v -2.3430312 0.0751242 -10.5182857
v -0.3249065 0.0627427 -10.5182857
v -0.3247869 0.1427427 -11.0841429
v -2.3421691 0.1551196 -11.0841429
v 0.3247869 0.1427427 -11.0841429
v 2.3421691 0.1551196 -11.0841429
v 2.3430312 0.0751242 -11.6500000
v 0.3249065 0.0627427 -11.6500000
v 0.3249065 0.0627427 -10.5182857
v 2.3430312 0.0751242 -10.5182857
v 2.3421691 0.1551196 -11.0841429
v 0.3247869 0.1427427 -11.0841429
v 2.3421691 0.1551196 -11.0841429
v 4.3593495 0.1862202 -11.0841429
v 4.3609540 0.1062363 -11.6500000
v 2.3430312 0.0751242 -11.6500000
v 2.3430312 0.0751242 -10.5182857
v 4.3609540 0.1062363 -10.5182857
v 4.3593495 0.1862202 -11.0841429
v 2.3421691 0.1551196 -11.0841429
v 4.3593495 0.1862202 -11.0841429
v 6.3761543 0.2360420 -11.0841429
v 6.3785011 0.1560764 -11.6500000
v 4.3609540 0.1062363 -11.6500000
v 4.3609540 0.1062363 -10.5182857
v 6.3785011 0.1560764 -10.5182857
v 6.3761543 0.2360420 -11.0841429
v 4.3593495 0.1862202 -11.0841429
v 6.3761543 0.2360420 -11.0841429
v 8.3924099 0.3045805 -11.0841429
v 8.3954988 0.2246401 -11.6500000
v 6.3785011 0.1560764 -11.6500000
v 6.3785011 0.1560764 -10.5182857
v 8.3954988 0.2246401 -10.5182857
v 8.3924099 0.3045805 -11.0841429
v 6.3761543 0.2360420 -11.0841429
v -8.3924099 0.3045805 -9.4198571
v -6.3761543 0.2360420 -9.4198571
v -6.3785011 0.1560764 -9.9857143
v -8.3954988 0.2246401 -9.9857143
v -8.3954988 0.2246401 -8.8540000
v -6.3785011 0.1560764 -8.8540000
v -6.3761543 0.2360420 -9.4198571
v -8.3924099 0.3045805 -9.4198571
v -6.3761543 0.2360420 -9.4198571
v -4.3593495 0.1862202 -9.4198571
v -4.3609540 0.1062363 -9.9857143
v -6.3785011 0.1560764 -9.9857143
v -6.3785011 0.1560764 -8.8540000
v -4.3609540 0.1062363 -8.8540000
v -4.3593495 0.1862202 -9.4198571
v -6.3761543 0.2360420 -9.4198571
v -4.3593495 0.1862202 -9.4198571
v -2.3421691 0.1551196 -9.4198571
v -2.3430312 0.0751242 -9.9857143
v -4.3609540 0.1062363 -9.9857143
v -4.3609540 0.1062363 -8.8540000
v -2.3430312 0.0751242 -8.8540000
v -2.3421691 0.1551196 -9.4198571
v -4.3593495 0.1862202 -9.4198571
v -2.3421691 0.1551196 -9.4198571
v -0.3247869 0.1427427 -9.4198571
v -0.3249065 0.0627427 -9.9857143
v -2.3430312 0.0751242 -9.9857143
v -2.3430312 0.0751242 -8.8540000
v -0.3249065 0.0627427 -8.8540000
v -0.3247869 0.1427427 -9.4198571
v -2.3421691 0.1551196 -9.4198571
v 0.3247869 0.1427427 -9.4198571
v 2.3421691 0.1551196 -9.4198571
v 2.3430312 0.0751242 -9.9857143
v 0.3249065 0.0627427 -9.9857143
v 0.3249065 0.0627427 -8.8540000
v 2.3430312 0.0751242 -8.8540000
v 2.3421691 0.1551196 -9.4198571
v 0.3247869 0.1427427 -9.4198571
v 2.3421691 0.1551196 -9.4198571
v 4.3593495 0.1862202 -9.4198571
v 4.3609540 0.1062363 -9.9857143
v 2.3430312 0.0751242 -9.9857143
v 2.3430312 0.0751242 -8.8540000
v 4.3609540 0.1062363 -8.8540000
v 4.3593495 0.1862202 -9.4198571
v 2.3421691 0.1551196 -9.4198571
v 4.3593495 0.1862202 -9.4198571
v 6.3761543 0.2360420 -9.4198571
v 6.3785011 0.1560764 -9.9857143
v 4.3609540 0.1062363 -9.9857143
v 4.3609540 0.1062363 -8.8540000
v 6.3785011 0.1560764 -8.8540000
v 6.3761543 0.2360420 -9.4198571
v 4.3593495 0.1862202 -9.4198571
v 6.3761543 0.2360420 -9.4198571
v 8.3924099 0.3045805 -9.4198571
v 8.3954988 0.2246401 -9.9857143
v 6.3785011 0.1560764 -9.9857143
v 6.3785011 0.1560764 -8.8540000
v 8.3954988 0.2246401 -8.8540000
v 8.3924099 0.3045805 -9.4198571
v 6.3761543 0.2360420 -9.4198571
v -8.3924099 0.3045805 -7.7555714
v -6.3761543 0.2360420 -7.7555714
v -6.3785011 0.1560764 -8.3214286
v -8.3954988 0.2246401 -8.3214286
v -8.3954988 0.2246401 -7.1897143
v -6.3785011 0.1560764 -7.1897143
v -6.3761543 0.2360420 -7.7555714
v -8.3924099 0.3045805 -7.7555714
v -6.3761543 0.2360420 -7.7555714
v -4.3593495 0.1862202 -7.7555714
v -4.3609540 0.1062363 -8.3214286
v -6.3785011 0.1560764 -8.3214286
v -6.3785011 0.1560764 -7.1897143
v -4.3609540 0.1062363 -7.1897143
v -4.3593495 0.1862202 -7.7555714
v -6.3761543 0.2360420 -7.7555714
v -4.3593495 0.1862202 -7.7555714
v -2.3421691 0.1551196 -7.7555714
v -2.3430312 0.0751242 -8.3214286
v -4.3609540 0.1062363 -8.3214286
v -4.3609540 0.1062363 -7.1897143
v -2.3430312 0.0751242 -7.1897143
v -2.3421691 0.1551196 -7.7555714
v -4.3593495 0.1862202 -7.7555714
v -2.3421691 0.1551196 -7.7555714
v -0.3247869 0.1427427 -7.7555714
v -0.3249065 0.0627427 -8.3214286
v -2.3430312 0.0751242 -8.3214286
v -2.3430312 0.0751242 -7.1897143
v -0.3249065 0.0627427 -7.1897143
v -0.3247869 0.1427427 -7.7555714
v -2.3421691 0.1551196 -7.7555714
v 0.3247869 0.1427427 -7.7555714
v 2.3421691 0.1551196 -7.7555714
v 2.3430312 0.0751242 -8.3214286
v 0.3249065 0.0627427 -8.3214286
v 0.3249065 0.0627427 -7.1897143
v 2.3430312 0.0751242 -7.1897143
v 2.3421691 0.1551196 -7.7555714
v 0.3247869 0.1427427 -7.7555714
v 2.3421691 0.1551196 -7.7555714
v 4.3593495 0.1862202 -7.7555714
v 4.3609540 0.1062363 -8.3214286
v 2.3430312 0.0751242 -8.3214286
v 2.3430312 0.0751242 -7.1897143
v 4.3609540 0.1062363 -7.1897143
v 4.3593495 0.1862202 -7.7555714
v 2.3421691 0.1551196 -7.7555714
v 4.3593495 0.1862202 -7.7555714
v 6.3761543 0.2360420 -7.7555714
v 6.3785011 0.1560764 -8.3214286
v 4.3609540 0.1062363 -8.3214286
v 4.3609540 0.1062363 -7.1897143
v 6.3785011 0.1560764 -7.1897143
v 6.3761543 0.2360420 -7.7555714
v 4.3593495 0.1862202 -7.7555714
v 6.3761543 0.2360420 -7.7555714
v 8.3924099 0.3045805 -7.7555714
v 8.3954988 0.2246401 -8.3214286
v 6.3785011 0.1560764 -8.3214286
v 6.3785011 0.1560764 -7.1897143
v 8.3954988 0.2246401 -7.1897143
v 8.3924099 0.3045805 -7.7555714
v 6.3761543 0.2360420 -7.7555714
v -8.3924099 0.3045805 -6.0912857
v -6.3761543 0.2360420 -6.0912857
v -6.3785011 0.1560764 -6.6571429
v -8.3954988 0.2246401 -6.6571429
v -8.3954988 0.2246401 -5.5254286
v -6.3785011 0.1560764 -5.5254286
v -6.3761543 0.2360420 -6.0912857
v -8.3924099 0.3045805 -6.0912857
v -6.3761543 0.2360420 -6.0912857
v -4.3593495 0.1862202 -6.0912857
v -4.3609540 0.1062363 -6.6571429
v -6.3785011 0.1560764 -6.6571429
v -6.3785011 0.1560764 -5.5254286
v -4.3609540 0.1062363 -5.5254286
v -4.3593495 0.1862202 -6.0912857
v -6.3761543 0.2360420 -6.0912857
v -4.3593495 0.1862202 -6.0912857
v -2.3421691 0.1551196 -6.0912857
v -2.3430312 0.0751242 -6.6571429
v -4.3609540 0.1062363 -6.6571429
v -4.3609540 0.1062363 -5.5254286
v -2.3430312 0.0751242 -5.5254286
v -2.3421691 0.1551196 -6.0912857
v -4.3593495 0.1862202 -6.0912857
v -2.3421691 0.1551196 -6.0912857
v -0.3247869 0.1427427 -6.0912857
v -0.3249065 0.0627427 -6.6571429
v -2.3430312 0.0751242 -6.6571429
v -2.3430312 0.0751242 -5.5254286
v -0.3249065 0.0627427 -5.5254286
v -0.3247869 0.1427427 -6.0912857
v -2.3421691 0.1551196 -6.0912857
v 0.3247869 0.1427427 -6.0912857
v 2.3421691 0.1551196 -6.0912857
v 2.3430312 0.0751242 -6.6571429
v 0.3249065 0.0627427 -6.6571429
v 0.3249065 0.0627427 -5.5254286
v 2.3430312 0.0751242 -5.5254286
v 2.3421691 0.1551196 -6.0912857
v 0.3247869 0.1427427 -6.0912857
v 2.3421691 0.1551196 -6.0912857
v 4.3593495 0.1862202 -6.0912857
v 4.3609540 0.1062363 -6.6571429
v 2.3430312 0.0751242 -6.6571429
v 2.3430312 0.0751242 -5.5254286
v 4.3609540 0.1062363 -5.5254286
v 4.3593495 0.1862202 -6.0912857
v 2.3421691 0.1551196 -6.0912857
v 4.3593495 0.1862202 -6.0912857
v 6.3761543 0.2360420 -6.0912857
v 6.3785011 0.1560764 -6.6571429
v 4.3609540 0.1062363 -6.6571429
v 4.3609540 0.1062363 -5.5254286
v 6.3785011 0.1560764 -5.5254286
v 6.3761543 0.2360420 -6.0912857
v 4.3593495 0.1862202 -6.0912857
v 6.3761543 0.2360420 -6.0912857
v 8.3924099 0.3045805 -6.0912857
v 8.3954988 0.2246401 -6.6571429
v 6.3785011 0.1560764 -6.6571429
v 6.3785011 0.1560764 -5.5254286
v 8.3954988 0.2246401 -5.5254286
v 8.3924099 0.3045805 -6.0912857
v 6.3761543 0.2360420 -6.0912857
v -8.3924099 0.3045805 -4.4270000
v -6.3761543 0.2360420 -4.4270000
v -6.3785011 0.1560764 -4.9928571
v -8.3954988 0.2246401 -4.9928571
v -8.3954988 0.2246401 -3.8611429
v -6.3785011 0.1560764 -3.8611429
v -6.3761543 0.2360420 -4.4270000
v -8.3924099 0.3045805 -4.4270000
v -6.3761543 0.2360420 -4.4270000
v -4.3593495 0.1862202 -4.4270000
v -4.3609540 0.1062363 -4.9928571
v -6.3785011 0.1560764 -4.9928571
v -6.3785011 0.1560764 -3.8611429
v -4.3609540 0.1062363 -3.8611429
v -4.3593495 0.1862202 -4.4270000
v -6.3761543 0.2360420 -4.4270000
v -4.3593495 0.1862202 -4.4270000
v -2.3421691 0.1551196 -4.4270000
v -2.3430312 0.0751242 -4.9928571
v -4.3609540 0.1062363 -4.9928571
v -4.3609540 0.1062363 -3.8611429
v -2.3430312 0.0751242 -3.8611429
v -2.3421691 0.1551196 -4.4270000
v -4.3593495 0.1862202 -4.4270000
v -2.3421691 0.1551196 -4.4270000
v -0.3247869 0.1427427 -4.4270000
v -0.3249065 0.0627427 -4.9928571
v -2.3430312 0.0751242 -4.9928571
v -2.3430312 0.0751242 -3.8611429
v -0.3249065 0.0627427 -3.8611429
v -0.3247869 0.1427427 -4.4270000
v -2.3421691 0.1551196 -4.4270000
v 0.3247869 0.1427427 -4.4270000
v 2.3421691 0.1551196 -4.4270000
v 2.3430312 0.0751242 -4.9928571
v 0.3249065 0.0627427 -4.9928571
v 0.3249065 0.0627427 -3.8611429
v 2.3430312 0.0751242 -3.8611429
v 2.3421691 0.1551196 -4.4270000
v 0.3247869 0.1427427 -4.4270000
v 2.3421691 0.1551196 -4.4270000
v 4.3593495 0.1862202 -4.4270000
v 4.3609540 0.1062363 -4.9928571
v 2.3430312 0.0751242 -4.9928571
v 2.3430312 0.0751242 -3.8611429
v 4.3609540 0.1062363 -3.8611429
v 4.3593495 0.1862202 -4.4270000
v 2.3421691 0.1551196 -4.4270000
v 4.3593495 0.1862202 -4.4270000
v 6.3761543 0.2360420 -4.4270000
v 6.3785011 0.1560764 -4.9928571
v 4.3609540 0.1062363 -4.9928571
v 4.3609540 0.1062363 -3.8611429
v 6.3785011 0.1560764 -3.8611429
v 6.3761543 0.2360420 -4.4270000
v 4.3593495 0.1862202 -4.4270000
v 6.3761543 0.2360420 -4.4270000
v 8.3924099 0.3045805 -4.4270000
v 8.3954988 0.2246401 -4.9928571
v 6.3785011 0.1560764 -4.9928571
v 6.3785011 0.1560764 -3.8611429
v 8.3954988 0.2246401 -3.8611429
v 8.3924099 0.3045805 -4.4270000
v 6.3761543 0.2360420 -4.4270000
v -8.3924099 0.3045805 -2.7627143
v -6.3761543 0.2360420 -2.7627143
v -6.3785011 0.1560764 -3.3285714
v -8.3954988 0.2246401 -3.3285714
v -8.3954988 0.2246401 -2.1968571
v -6.3785011 0.1560764 -2.1968571
v -6.3761543 0.2360420 -2.7627143
v -8.3924099 0.3045805 -2.7627143
v -6.3761543 0.2360420 -2.7627143
v -4.3593495 0.1862202 -2.7627143
v -4.3609540 0.1062363 -3.3285714
v -6.3785011 0.1560764 -3.3285714
v -6.3785011 0.1560764 -2.1968571
v -4.3609540 0.1062363 -2.1968571
v -4.3593495 0.1862202 -2.7627143
v -6.3761543 0.2360420 -2.7627143
v -4.3593495 0.1862202 -2.7627143
v -2.3421691 0.1551196 -2.7627143
v -2.3430312 0.0751242 -3.3285714
v -4.3609540 0.1062363 -3.3285714
v -4.3609540 0.1062363 -2.1968571
v -2.3430312 0.0751242 -2.1968571
v -2.3421691 0.1551196 -2.7627143
v -4.3593495 0.1862202 -2.7627143
v -2.3421691 0.1551196 -2.7627143
v -0.3247869 0.1427427 -2.7627143
v -0.3249065 0.0627427 -3.3285714
v -2.3430312 0.0751242 -3.3285714
v -2.3430312 0.0751242 -2.1968571
v -0.3249065 0.0627427 -2.1968571
v -0.3247869 0.1427427 -2.7627143
v -2.3421691 0.1551196 -2.7627143
v 0.3247869 0.1427427 -2.7627143
v 2.3421691 0.1551196 -2.7627143
v 2.3430312 0.0751242 -3.3285714
v 0.3249065 0.0627427 -3.3285714
v 0.3249065 0.0627427 -2.1968571
v 2.3430312 0.0751242 -2.1968571
v 2.3421691 0.1551196 -2.7627143
v 0.3247869 0.1427427 -2.7627143
v 2.3421691 0.1551196 -2.7627143
v 4.3593495 0.1862202 -2.7627143
v 4.3609540 0.1062363 -3.3285714
v 2.3430312 0.0751242 -3.3285714
v 2.3430312 0.0751242 -2.1968571
v 4.3609540 0.1062363 -2.1968571
v 4.3593495 0.1862202 -2.7627143
v 2.3421691 0.1551196 -2.7627143
v 4.3593495 0.1862202 -2.7627143
v 6.3761543 0.2360420 -2.7627143
v 6.3785011 0.1560764 -3.3285714
v 4.3609540 0.1062363 -3.3285714
v 4.3609540 0.1062363 -2.1968571
v 6.3785011 0.1560764 -2.1968571
v 6.3761543 0.2360420 -2.7627143
v 4.3593495 0.1862202 -2.7627143
v 6.3761543 0.2360420 -2.7627143
v 8.3924099 0.3045805 -2.7627143
v 8.3954988 0.2246401 -3.3285714
v 6.3785011 0.1560764 -3.3285714
v 6.3785011 0.1560764 -2.1968571
v 8.3954988 0.2246401 -2.1968571
v 8.3924099 0.3045805 -2.7627143
v 6.3761543 0.2360420 -2.7627143
v -8.3924099 0.3045805 -1.0984286
v -6.3761543 0.2360420 -1.0984286
v -6.3785011 0.1560764 -1.6642857
v -8.3954988 0.2246401 -1.6642857
v -8.3954988 0.2246401 -0.5325714
v -6.3785011 0.1560764 -0.5325714
v -6.3761543 0.2360420 -1.0984286
v -8.3924099 0.3045805 -1.0984286
v -6.3761543 0.2360420 -1.0984286
v -4.3593495 0.1862202 -1.0984286
v -4.3609540 0.1062363 -1.6642857
v -6.3785011 0.1560764 -1.6642857
v -6.3785011 0.1560764 -0.5325714
v -4.3609540 0.1062363 -0.5325714
v -4.3593495 0.1862202 -1.0984286
v -6.3761543 0.2360420 -1.0984286
v -4.3593495 0.1862202 -1.0984286
v -2.3421691 0.1551196 -1.0984286
v -2.3430312 0.0751242 -1.6642857
v -4.3609540 0.1062363 -1.6642857
v -4.3609540 0.1062363 -0.5325714
v -2.3430312 0.0751242 -0.5325714
v -2.3421691 0.1551196 -1.0984286
v -4.3593495 0.1862202 -1.0984286
v -2.3421691 0.1551196 -1.0984286
v -0.3247869 0.1427427 -1.0984286
v -0.3249065 0.0627427 -1.6642857
v -2.3430312 0.0751242 -1.6642857
v -2.3430312 0.0751242 -0.5325714
v -0.3249065 0.0627427 -0.5325714
v -0.3247869 0.1427427 -1.0984286
v -2.3421691 0.1551196 -1.0984286
v 0.3247869 0.1427427 -1.0984286
v 2.3421691 0.1551196 -1.0984286
v 2.3430312 0.0751242 -1.6642857
v 0.3249065 0.0627427 -1.6642857
v 0.3249065 0.0627427 -0.5325714
v 2.3430312 0.0751242 -0.5325714
v 2.3421691 0.1551196 -1.0984286
v 0.3247869 0.1427427 -1.0984286
v 2.3421691 0.1551196 -1.0984286
v 4.3593495 0.1862202 -1.0984286
v 4.3609540 0.1062363 -1.6642857
v 2.3430312 0.0751242 -1.6642857
v 2.3430312 0.0751242 -0.5325714
v 4.3609540 0.1062363 -0.5325714
v 4.3593495 0.1862202 -1.0984286
v 2.3421691 0.1551196 -1.0984286
v 4.3593495 0.1862202 -1.0984286
v 6.3761543 0.2360420 -1.0984286
v 6.3785011 0.1560764 -1.6642857
v 4.3609540 0.1062363 -1.6642857
v 4.3609540 0.1062363 -0.5325714
v 6.3785011 0.1560764 -0.5325714
v 6.3761543 0.2360420 -1.0984286
v 4.3593495 0.1862202 -1.0984286
v 6.3761543 0.2360420 -1.0984286
v 8.3924099 0.3045805 -1.0984286
v 8.3954988 0.2246401 -1.6642857
v 6.3785011 0.1560764 -1.6642857
v 6.3785011 0.1560764 -0.5325714
v 8.3954988 0.2246401 -0.5325714
v 8.3924099 0.3045805 -1.0984286
v 6.3761543 0.2360420 -1.0984286
v -8.3924099 0.3045805 0.5658571
v -6.3761543 0.2360420 0.5658571
v -6.3785011 0.1560764 0.0000000
v -8.3954988 0.2246401 0.0000000
v -8.3954988 0.2246401 1.1317143
v -6.3785011 0.1560764 1.1317143
v -6.3761543 0.2360420 0.5658571
v -8.3924099 0.3045805 0.5658571
v -6.3761543 0.2360420 0.5658571
v -4.3593495 0.1862202 0.5658571
v -4.3609540 0.1062363 0.0000000
v -6.3785011 0.1560764 0.0000000
v -6.3785011 0.1560764 1.1317143
v -4.3609540 0.1062363 1.1317143
v -4.3593495 0.1862202 0.5658571
v -6.3761543 0.2360420 0.5658571
v -4.3593495 0.1862202 0.5658571
v -2.3421691 0.1551196 0.5658571
v -2.3430312 0.0751242 0.0000000
v -4.3609540 0.1062363 0.0000000
v -4.3609540 0.1062363 1.1317143
v -2.3430312 0.0751242 1.1317143
v -2.3421691 0.1551196 0.5658571
v -4.3593495 0.1862202 0.5658571
v -2.3421691 0.1551196 0.5658571
v -0.3247869 0.1427427 0.5658571
v -0.3249065 0.0627427 0.0000000
v -2.3430312 0.0751242 0.0000000
v -2.3430312 0.0751242 1.1317143
v -0.3249065 0.0627427 1.1317143
v -0.3247869 0.1427427 0.5658571
v -2.3421691 0.1551196 0.5658571
v 0.3247869 0.1427427 0.5658571
v 2.3421691 0.1551196 0.5658571
v 2.3430312 0.0751242 0.0000000
v 0.3249065 0.0627427 0.0000000
v 0.3249065 0.0627427 1.1317143
v 2.3430312 0.0751242 1.1317143
v 2.3421691 0.1551196 0.5658571
v 0.3247869 0.1427427 0.5658571
v 2.3421691 0.1551196 0.5658571
v 4.3593495 0.1862202 0.5658571
v 4.3609540 0.1062363 0.0000000
v 2.3430312 0.0751242 0.0000000
v 2.3430312 0.0751242 1.1317143
v 4.3609540 0.1062363 1.1317143
v 4.3593495 0.1862202 0.5658571
v 2.3421691 0.1551196 0.5658571
v 4.3593495 0.1862202 0.5658571
v 6.3761543 0.2360420 0.5658571
v 6.3785011 0.1560764 0.0000000
v 4.3609540 0.1062363 0.0000000
v 4.3609540 0.1062363 1.1317143
v 6.3785011 0.1560764 1.1317143
v 6.3761543 0.2360420 0.5658571
v 4.3593495 0.1862202 0.5658571
v 6.3761543 0.2360420 0.5658571
v 8.3924099 0.3045805 0.5658571
v 8.3954988 0.2246401 0.0000000
v 6.3785011 0.1560764 0.0000000
v 6.3785011 0.1560764 1.1317143
v 8.3954988 0.2246401 1.1317143
v 8.3924099 0.3045805 0.5658571
v 6.3761543 0.2360420 0.5658571
v -8.3924099 0.3045805 2.2301429
v -6.3761543 0.2360420 2.2301429
v -6.3785011 0.1560764 1.6642857
v -8.3954988 0.2246401 1.6642857
v -8.3954988 0.2246401 2.7960000
v -6.3785011 0.1560764 2.7960000
v -6.3761543 0.2360420 2.2301429
v -8.3924099 0.3045805 2.2301429
v -6.3761543 0.2360420 2.2301429
v -4.3593495 0.1862202 2.2301429
v -4.3609540 0.1062363 1.6642857
v -6.3785011 0.1560764 1.6642857
v -6.3785011 0.1560764 2.7960000
v -4.3609540 0.1062363 2.7960000
v -4.3593495 0.1862202 2.2301429
v -6.3761543 0.2360420 2.2301429
v -4.3593495 0.1862202 2.2301429
v -2.3421691 0.1551196 2.2301429
v -2.3430312 0.0751242 1.6642857
v -4.3609540 0.1062363 1.6642857
v -4.3609540 0.1062363 2.7960000
v -2.3430312 0.0751242 2.7960000
v -2.3421691 0.1551196 2.2301429
v -4.3593495 0.1862202 2.2301429
v -2.3421691 0.1551196 2.2301429
v -0.3247869 0.1427427 2.2301429
v -0.3249065 0.0627427 1.6642857
v -2.3430312 0.0751242 1.6642857
v -2.3430312 0.0751242 2.7960000
v -0.3249065 0.0627427 2.7960000
v -0.3247869 0.1427427 2.2301429
v -2.3421691 0.1551196 2.2301429
v 0.3247869 0.1427427 2.2301429
v 2.3421691 0.1551196 2.2301429
v 2.3430312 0.0751242 1.6642857
v 0.3249065 0.0627427 1.6642857
v 0.3249065 0.0627427 2.7960000
v 2.3430312 0.0751242 2.7960000
v 2.3421691 0.1551196 2.2301429
v 0.3247869 0.1427427 2.2301429
v 2.3421691 0.1551196 2.2301429
v 4.3593495 0.1862202 2.2301429
v 4.3609540 0.1062363 1.6642857
v 2.3430312 0.0751242 1.6642857
v 2.3430312 0.0751242 2.7960000
v 4.3609540 0.1062363 2.7960000
v 4.3593495 0.1862202 2.2301429
v 2.3421691 0.1551196 2.2301429
v 4.3593495 0.1862202 2.2301429
v 6.3761543 0.2360420 2.2301429
v 6.3785011 0.1560764 1.6642857
v 4.3609540 0.1062363 1.6642857
v 4.3609540 0.1062363 2.7960000
v 6.3785011 0.1560764 2.7960000
v 6.3761543 0.2360420 2.2301429
v 4.3593495 0.1862202 2.2301429
v 6.3761543 0.2360420 2.2301429
v 8.3924099 0.3045805 2.2301429
v 8.3954988 0.2246401 1.6642857
v 6.3785011 0.1560764 1.6642857
v 6.3785011 0.1560764 2.7960000
v 8.3954988 0.2246401 2.7960000
v 8.3924099 0.3045805 2.2301429
v 6.3761543 0.2360420 2.2301429
v -8.3924099 0.3045805 3.8944286
v -6.3761543 0.2360420 3.8944286
v -6.3785011 0.1560764 3.3285714
v -8.3954988 0.2246401 3.3285714
v -8.3954988 0.2246401 4.4602857
v -6.3785011 0.1560764 4.4602857
v -6.3761543 0.2360420 3.8944286
v -8.3924099 0.3045805 3.8944286
v -6.3761543 0.2360420 3.8944286
v -4.3593495 0.1862202 3.8944286
v -4.3609540 0.1062363 3.3285714
v -6.3785011 0.1560764 3.3285714
v -6.3785011 0.1560764 4.4602857
v -4.3609540 0.1062363 4.4602857
v -4.3593495 0.1862202 3.8944286
v -6.3761543 0.2360420 3.8944286
v -4.3593495 0.1862202 3.8944286
v -2.3421691 0.1551196 3.8944286
v -2.3430312 0.0751242 3.3285714
v -4.3609540 0.1062363 3.3285714
v -4.3609540 0.1062363 4.4602857
v -2.3430312 0.0751242 4.4602857
v -2.3421691 0.1551196 3.8944286
v -4.3593495 0.1862202 3.8944286
v -2.3421691 0.1551196 3.8944286
v -0.3247869 0.1427427 3.8944286
v -0.3249065 0.0627427 3.3285714
v -2.3430312 0.0751242 3.3285714
v -2.3430312 0.0751242 4.4602857
v -0.3249065 0.0627427 4.4602857
v -0.3247869 0.1427427 3.8944286
v -2.3421691 0.1551196 3.8944286
v 0.3247869 0.1427427 3.8944286
v 2.3421691 0.1551196 3.8944286
v 2.3430312 0.0751242 3.3285714
v 0.3249065 0.0627427 3.3285714
v 0.3249065 0.0627427 4.4602857
v 2.3430312 0.0751242 4.4602857
v 2.3421691 0.1551196 3.8944286
v 0.3247869 0.1427427 3.8944286
v 2.3421691 0.1551196 3.8944286
v 4.3593495 0.1862202 3.8944286
v 4.3609540 0.1062363 3.3285714
v 2.3430312 0.0751242 3.3285714
v 2.3430312 0.0751242 4.4602857
v 4.3609540 0.1062363 4.4602857
v 4.3593495 0.1862202 3.8944286
v 2.3421691 0.1551196 3.8944286
v 4.3593495 0.1862202 3.8944286
v 6.3761543 0.2360420 3.8944286
v 6.3785011 0.1560764 3.3285714
v 4.3609540 0.1062363 3.3285714
v 4.3609540 0.1062363 4.4602857
v 6.3785011 0.1560764 4.4602857
v 6.3761543 0.2360420 3.8944286
v 4.3593495 0.1862202 3.8944286
v 6.3761543 0.2360420 3.8944286
v 8.3924099 0.3045805 3.8944286
v 8.3954988 0.2246401 3.3285714
v 6.3785011 0.1560764 3.3285714
v 6.3785011 0.1560764 4.4602857
v 8.3954988 0.2246401 4.4602857
v 8.3924099 0.3045805 3.8944286
v 6.3761543 0.2360420 3.8944286
v -8.3924099 0.3045805 5.5587143
v -6.3761543 0.2360420 5.5587143
v -6.3785011 0.1560764 4.9928571
v -8.3954988 0.2246401 4.9928571
v -8.3954988 0.2246401 6.1245714
v -6.3785011 0.1560764 6.1245714
v -6.3761543 0.2360420 5.5587143
v -8.3924099 0.3045805 5.5587143
v -6.3761543 0.2360420 5.5587143
v -4.3593495 0.1862202 5.5587143
v -4.3609540 0.1062363 4.9928571
v -6.3785011 0.1560764 4.9928571
v -6.3785011 0.1560764 6.1245714
v -4.3609540 0.1062363 6.1245714
v -4.3593495 0.1862202 5.5587143
v -6.3761543 0.2360420 5.5587143
v -4.3593495 0.1862202 5.5587143
v -2.3421691 0.1551196 5.5587143
v -2.3430312 0.0751242 4.9928571
v -4.3609540 0.1062363 4.9928571
v -4.3609540 0.1062363 6.1245714
v -2.3430312 0.0751242 6.1245714
v -2.3421691 0.1551196 5.5587143
v -4.3593495 0.1862202 5.5587143
v -2.3421691 0.1551196 5.5587143
v -0.3247869 0.1427427 5.5587143
v -0.3249065 0.0627427 4.9928571
v -2.3430312 0.0751242 4.9928571
v -2.3430312 0.0751242 6.1245714
v -0.3249065 0.0627427 6.1245714
v -0.3247869 0.1427427 5.5587143
v -2.3421691 0.1551196 5.5587143
v 0.3247869 0.1427427 5.5587143
v 2.3421691 0.1551196 5.5587143
v 2.3430312 0.0751242 4.9928571
v 0.3249065 0.0627427 4.9928571
v 0.3249065 0.0627427 6.1245714
v 2.3430312 0.0751242 6.1245714
v 2.3421691 0.1551196 5.5587143
v 0.3247869 0.1427427 5.5587143
v 2.3421691 0.1551196 5.5587143
v 4.3593495 0.1862202 5.5587143
v 4.3609540 0.1062363 4.9928571
v 2.3430312 0.0751242 4.9928571
v 2.3430312 0.0751242 6.1245714
v 4.3609540 0.1062363 6.1245714
v 4.3593495 0.1862202 5.5587143
v 2.3421691 0.1551196 5.5587143
v 4.3593495 0.1862202 5.5587143
v 6.3761543 0.2360420 5.5587143
v 6.3785011 0.1560764 4.9928571
v 4.3609540 0.1062363 4.9928571
v 4.3609540 0.1062363 6.1245714
v 6.3785011 0.1560764 6.1245714
v 6.3761543 0.2360420 5.5587143
v 4.3593495 0.1862202 5.5587143
v 6.3761543 0.2360420 5.5587143
v 8.3924099 0.3045805 5.5587143
v 8.3954988 0.2246401 4.9928571
v 6.3785011 0.1560764 4.9928571
v 6.3785011 0.1560764 6.1245714
v 8.3954988 0.2246401 6.1245714
v 8.3924099 0.3045805 5.5587143
v 6.3761543 0.2360420 5.5587143
v -8.3924099 0.3045805 7.2230000
v -6.3761543 0.2360420 7.2230000
v -6.3785011 0.1560764 6.6571429
v -8.3954988 0.2246401 6.6571429
v -8.3954988 0.2246401 7.7888571
v -6.3785011 0.1560764 7.7888571
v -6.3761543 0.2360420 7.2230000
v -8.3924099 0.3045805 7.2230000
v -6.3761543 0.2360420 7.2230000
v -4.3593495 0.1862202 7.2230000
v -4.3609540 0.1062363 6.6571429
v -6.3785011 0.1560764 6.6571429
v -6.3785011 0.1560764 7.7888571
v -4.3609540 0.1062363 7.7888571
v -4.3593495 0.1862202 7.2230000
v -6.3761543 0.2360420 7.2230000
v -4.3593495 0.1862202 7.2230000
v -2.3421691 0.1551196 7.2230000
v -2.3430312 0.0751242 6.6571429
v -4.3609540 0.1062363 6.6571429
v -4.3609540 0.1062363 7.7888571
v -2.3430312 0.0751242 7.7888571
v -2.3421691 0.1551196 7.2230000
v -4.3593495 0.1862202 7.2230000
v -2.3421691 0.1551196 7.2230000
v -0.3247869 0.1427427 7.2230000
v -0.3249065 0.0627427 6.6571429
v -2.3430312 0.0751242 6.6571429
v -2.3430312 0.0751242 7.7888571
v -0.3249065 0.0627427 7.7888571
v -0.3247869 0.1427427 7.2230000
v -2.3421691 0.1551196 7.2230000
v 0.3247869 0.1427427 7.2230000
v 2.3421691 0.1551196 7.2230000
v 2.3430312 0.0751242 6.6571429
v 0.3249065 0.0627427 6.6571429
v 0.3249065 0.0627427 7.7888571
v 2.3430312 0.0751242 7.7888571
v 2.3421691 0.1551196 7.2230000
v 0.3247869 0.1427427 7.2230000
v 2.3421691 0.1551196 7.2230000
v 4.3593495 0.1862202 7.2230000
v 4.3609540 0.1062363 6.6571429
v 2.3430312 0.0751242 6.6571429
v 2.3430312 0.0751242 7.7888571
v 4.3609540 0.1062363 7.7888571
v 4.3593495 0.1862202 7.2230000
v 2.3421691 0.1551196 7.2230000
v 4.3593495 0.1862202 7.2230000
v 6.3761543 0.2360420 7.2230000
v 6.3785011 0.1560764 6.6571429
v 4.3609540 0.1062363 6.6571429
v 4.3609540 0.1062363 7.7888571
v 6.3785011 0.1560764 7.7888571
v 6.3761543 0.2360420 7.2230000
v 4.3593495 0.1862202 7.2230000
v 6.3761543 0.2360420 7.2230000
v 8.3924099 0.3045805 7.2230000
v 8.3954988 0.2246401 6.6571429
v 6.3785011 0.1560764 6.6571429
v 6.3785011 0.1560764 7.7888571
v 8.3954988 0.2246401 7.7888571
v 8.3924099 0.3045805 7.2230000
v 6.3761543 0.2360420 7.2230000
v -8.3924099 0.3045805 8.8872857
v -6.3761543 0.2360420 8.8872857
v -6.3785011 0.1560764 8.3214286
v -8.3954988 0.2246401 8.3214286
v -8.3954988 0.2246401 9.4531429
v -6.3785011 0.1560764 9.4531429
v -6.3761543 0.2360420 8.8872857
v -8.3924099 0.3045805 8.8872857
v -6.3761543 0.2360420 8.8872857
v -4.3593495 0.1862202 8.8872857
v -4.3609540 0.1062363 8.3214286
v -6.3785011 0.1560764 8.3214286
v -6.3785011 0.1560764 9.4531429
v -4.3609540 0.1062363 9.4531429
v -4.3593495 0.1862202 8.8872857
v -6.3761543 0.2360420 8.8872857
v -4.3593495 0.1862202 8.8872857
v -2.3421691 0.1551196 8.8872857
v -2.3430312 0.0751242 8.3214286
v -4.3609540 0.1062363 8.3214286
v -4.3609540 0.1062363 9.4531429
v -2.3430312 0.0751242 9.4531429
v -2.3421691 0.1551196 8.8872857
v -4.3593495 0.1862202 8.8872857
v -2.3421691 0.1551196 8.8872857
v -0.3247869 0.1427427 8.8872857
v -0.3249065 0.0627427 8.3214286
v -2.3430312 0.0751242 8.3214286
v -2.3430312 0.0751242 9.4531429
v -0.3249065 0.0627427 9.4531429
v -0.3247869 0.1427427 8.8872857
v -2.3421691 0.1551196 8.8872857
v 0.3247869 0.1427427 8.8872857
v 2.3421691 0.1551196 8.8872857
v 2.3430312 0.0751242 8.3214286
v 0.3249065 0.0627427 8.3214286
v 0.3249065 0.0627427 9.4531429
v 2.3430312 0.0751242 9.4531429
v 2.3421691 0.1551196 8.8872857
v 0.3247869 0.1427427 8.8872857
v 2.3421691 0.1551196 8.8872857
v 4.3593495 0.1862202 8.8872857
v 4.3609540 0.1062363 8.3214286
v 2.3430312 0.0751242 8.3214286
v 2.3430312 0.0751242 9.4531429
v 4.3609540 0.1062363 9.4531429
v 4.3593495 0.1862202 8.8872857
v 2.3421691 0.1551196 8.8872857
v 4.3593495 0.1862202 8.8872857
v 6.3761543 0.2360420 8.8872857
v 6.3785011 0.1560764 8.3214286
v 4.3609540 0.1062363 8.3214286
v 4.3609540 0.1062363 9.4531429
v 6.3785011 0.1560764 9.4531429
v 6.3761543 0.2360420 8.8872857
v 4.3593495 0.1862202 8.8872857
v 6.3761543 0.2360420 8.8872857
v 8.3924099 0.3045805 8.8872857
v 8.3954988 0.2246401 8.3214286
v 6.3785011 0.1560764 8.3214286
v 6.3785011 0.1560764 9.4531429
v 8.3954988 0.2246401 9.4531429
v 8.3924099 0.3045805 8.8872857
v 6.3761543 0.2360420 8.8872857
v -8.3924099 0.3045805 10.5515714
v -6.3761543 0.2360420 10.5515714
v -6.3785011 0.1560764 9.9857143
v -8.3954988 0.2246401 9.9857143
v -8.3954988 0.2246401 11.1174286
v -6.3785011 0.1560764 11.1174286
v -6.3761543 0.2360420 10.5515714
v -8.3924099 0.3045805 10.5515714
v -6.3761543 0.2360420 10.5515714
v -4.3593495 0.1862202 10.5515714
v -4.3609540 0.1062363 9.9857143
v -6.3785011 0.1560764 9.9857143
v -6.3785011 0.1560764 11.1174286
v -4.3609540 0.1062363 11.1174286
v -4.3593495 0.1862202 10.5515714
v -6.3761543 0.2360420 10.5515714
v -4.3593495 0.1862202 10.5515714
v -2.3421691 0.1551196 10.5515714
v -2.3430312 0.0751242 9.9857143
v -4.3609540 0.1062363 9.9857143
v -4.3609540 0.1062363 11.1174286
v -2.3430312 0.0751242 11.1174286
v -2.3421691 0.1551196 10.5515714
v -4.3593495 0.1862202 10.5515714
v -2.3421691 0.1551196 10.5515714
v -0.3247869 0.1427427 10.5515714
v -0.3249065 0.0627427 9.9857143
v -2.3430312 0.0751242 9.9857143
v -2.3430312 0.0751242 11.1174286
v -0.3249065 0.0627427 11.1174286
v -0.3247869 0.1427427 10.5515714
v -2.3421691 0.1551196 10.5515714
v 0.3247869 0.1427427 10.5515714
v 2.3421691 0.1551196 10.5515714
v 2.3430312 0.0751242 9.9857143
v 0.3249065 0.0627427 9.9857143
v 0.3249065 0.0627427 11.1174286
v 2.3430312 0.0751242 11.1174286
v 2.3421691 0.1551196 10.5515714
v 0.3247869 0.1427427 10.5515714
v 2.3421691 0.1551196 10.5515714
v 4.3593495 0.1862202 10.5515714
v 4.3609540 0.1062363 9.9857143
v 2.3430312 0.0751242 9.9857143
v 2.3430312 0.0751242 11.1174286
v 4.3609540 0.1062363 11.1174286
v 4.3593495 0.1862202 10.5515714
v 2.3421691 0.1551196 10.5515714
v 4.3593495 0.1862202 10.5515714
v 6.3761543 0.2360420 10.5515714
v 6.3785011 0.1560764 9.9857143
v 4.3609540 0.1062363 9.9857143
v 4.3609540 0.1062363 11.1174286
v 6.3785011 0.1560764 11.1174286
v 6.3761543 0.2360420 10.5515714
v 4.3593495 0.1862202 10.5515714
v 6.3761543 0.2360420 10.5515714
v 8.3924099 0.3045805 10.5515714
v 8.3954988 0.2246401 9.9857143
v 6.3785011 0.1560764 9.9857143
v 6.3785011 0.1560764 11.1174286
v 8.3954988 0.2246401 11.1174286
v 8.3924099 0.3045805 10.5515714
v 6.3761543 0.2360420 10.5515714
v -8.3641273 1.0365343 -7.1750000
v -6.2737778 0.9658680 -7.1750000
v -6.2737778 0.9658680 -7.2250000
v -8.3641273 1.0365343 -7.2250000
v -6.2737778 0.9658680 -7.1750000
v -4.1828435 0.9153873 -7.1750000
v -4.1828435 0.9153873 -7.2250000
v -6.2737778 0.9658680 -7.2250000
v -4.1828435 0.9153873 -7.1750000
v -2.0915192 0.8850971 -7.1750000
v -2.0915192 0.8850971 -7.2250000
v -4.1828435 0.9153873 -7.2250000
v -2.0915192 0.8850971 -7.1750000
v 0.0000000 0.8750000 -7.1750000
v 0.0000000 0.8750000 -7.2250000
v -2.0915192 0.8850971 -7.2250000
v 0.0000000 0.8750000 -7.1750000
v 2.0915192 0.8850971 -7.1750000
v 2.0915192 0.8850971 -7.2250000
v 0.0000000 0.8750000 -7.2250000
v 2.0915192 0.8850971 -7.1750000
v 4.1828435 0.9153873 -7.1750000
v 4.1828435 0.9153873 -7.2250000
v 2.0915192 0.8850971 -7.2250000
v 4.1828435 0.9153873 -7.1750000
v 6.2737778 0.9658680 -7.1750000
v 6.2737778 0.9658680 -7.2250000
v 4.1828435 0.9153873 -7.2250000
v 6.2737778 0.9658680 -7.1750000
v 8.3641273 1.0365343 -7.1750000
v 8.3641273 1.0365343 -7.2250000
v 6.2737778 0.9658680 -7.2250000
v -8.3641273 1.0365343 7.2250000
v -6.2737778 0.9658680 7.2250000
v -6.2737778 0.9658680 7.1750000
v -8.3641273 1.0365343 7.1750000
v -6.2737778 0.9658680 7.2250000
v -4.1828435 0.9153873 7.2250000
v -4.1828435 0.9153873 7.1750000
v -6.2737778 0.9658680 7.1750000
v -4.1828435 0.9153873 7.2250000
v -2.0915192 0.8850971 7.2250000
v -2.0915192 0.8850971 7.1750000
v -4.1828435 0.9153873 7.1750000
v -2.0915192 0.8850971 7.2250000
v 0.0000000 0.8750000 7.2250000
v 0.0000000 0.8750000 7.1750000
v -2.0915192 0.8850971 7.1750000
v 0.0000000 0.8750000 7.2250000
v 2.0915192 0.8850971 7.2250000
v 2.0915192 0.8850971 7.1750000
v 0.0000000 0.8750000 7.1750000
v 2.0915192 0.8850971 7.2250000
v 4.1828435 0.9153873 7.2250000
v 4.1828435 0.9153873 7.1750000
v 2.0915192 0.8850971 7.1750000
v 4.1828435 0.9153873 7.2250000
v 6.2737778 0.9658680 7.2250000
v 6.2737778 0.9658680 7.1750000
v 4.1828435 0.9153873 7.1750000
v 6.2737778 0.9658680 7.2250000
v 8.3641273 1.0365343 7.2250000
v 8.3641273 1.0365343 7.1750000
v 6.2737778 0.9658680 7.1750000
vt 0.005000 0.995000
vt 0.245000 0.995000
vt 0.245000 0.755000
vt 0.255000 0.995000
vt 0.495000 0.995000
vt 0.495000 0.755000
vt 0.505000 0.995000
vt 0.745000 0.995000
vt 0.745000 0.755000
vt 0.755000 0.995000
vt 0.995000 0.995000
vt 0.995000 0.755000
vt 0.005000 0.745000
vt 0.245000 0.745000
vt 0.245000 0.505000
vt 0.255000 0.745000
vt 0.495000 0.745000
vt 0.495000 0.505000
vt 0.505000 0.745000
vt 0.745000 0.745000
vt 0.745000 0.505000
vt 0.755000 0.745000
vt 0.995000 0.745000
vt 0.995000 0.505000
vt 0.005000 0.495000
vt 0.245000 0.495000
vt 0.245000 0.255000
vt 0.255000 0.495000
vt 0.495000 0.495000
vt 0.495000 0.255000
vt 0.505000 0.495000
vt 0.745000 0.495000
vt 0.745000 0.255000
vt 0.755000 0.495000
vt 0.995000 0.495000
vt 0.995000 0.255000
vt 0.005000 0.245000
vt 0.245000 0.245000
vt 0.245000 0.005000
vt 0.255000 0.245000
vt 0.495000 0.245000
vt 0.495000 0.005000
vt 0.505000 0.245000
vt 0.745000 0.245000
vt 0.745000 0.005000
vt 0.755000 0.245000
vt 0.995000 0.245000
vt 0.995000 0.005000
g lighting
usemtl farm-kit
f 997/43 998/44 999/45
f 997/43 999/44 1000/45
f 1001/43 1002/44 1003/45
f 1001/43 1003/44 1004/45
f 1005/43 1006/44 1007/45
f 1005/43 1007/44 1008/45
f 1009/43 1010/44 1011/45
f 1009/43 1011/44 1012/45
f 1013/43 1014/44 1015/45
f 1013/43 1015/44 1016/45
f 1017/43 1018/44 1019/45
f 1017/43 1019/44 1020/45
f 1021/43 1022/44 1023/45
f 1021/43 1023/44 1024/45
f 1025/43 1026/44 1027/45
f 1025/43 1027/44 1028/45
f 1029/43 1030/44 1031/45
f 1029/43 1031/44 1032/45
f 1033/43 1034/44 1035/45
f 1033/43 1035/44 1036/45
f 1037/43 1038/44 1039/45
f 1037/43 1039/44 1040/45
f 1041/43 1042/44 1043/45
f 1041/43 1043/44 1044/45
f 1045/43 1046/44 1047/45
f 1045/43 1047/44 1048/45
f 1049/43 1050/44 1051/45
f 1049/43 1051/44 1052/45
f 1053/43 1054/44 1055/45
f 1053/43 1055/44 1056/45
f 1057/43 1058/44 1059/45
f 1057/43 1059/44 1060/45
g ornament
usemtl farm-kit
f 101/13 102/14 103/15
f 101/13 103/14 104/15
f 105/13 106/14 107/15
f 105/13 107/14 108/15
f 109/13 110/14 111/15
f 109/13 111/14 112/15
f 113/13 114/14 115/15
f 113/13 115/14 116/15
f 117/13 118/14 119/15
f 117/13 119/14 120/15
f 121/13 122/14 123/15
f 121/13 123/14 124/15
f 125/13 126/14 127/15
f 125/13 127/14 128/15
f 129/13 130/14 131/15
f 129/13 131/14 132/15
f 133/13 134/14 135/15
f 133/13 135/14 136/15
f 137/13 138/14 139/15
f 137/13 139/14 140/15
f 141/13 142/14 143/15
f 141/13 143/14 144/15
f 145/13 146/14 147/15
f 145/13 147/14 148/15
f 149/13 150/14 151/15
f 149/13 151/14 152/15
f 153/13 154/14 155/15
f 153/13 155/14 156/15
f 157/13 158/14 159/15
f 157/13 159/14 160/15
f 161/13 162/14 163/15
f 161/13 163/14 164/15
f 165/13 166/14 167/15
f 165/13 167/14 168/15
f 169/13 170/14 171/15
f 169/13 171/14 172/15
f 173/13 174/14 175/15
f 173/13 175/14 176/15
f 177/13 178/14 179/15
f 177/13 179/14 180/15
f 181/13 182/14 183/15
f 181/13 183/14 184/15
f 185/13 186/14 187/15
f 185/13 187/14 188/15
f 189/13 190/14 191/15
f 189/13 191/14 192/15
f 193/13 194/14 195/15
f 193/13 195/14 196/15
f 197/13 198/14 199/15
f 197/13 199/14 200/15
f 201/13 202/14 203/15
f 201/13 203/14 204/15
f 205/13 206/14 207/15
f 205/13 207/14 208/15
f 209/13 210/14 211/15
f 209/13 211/14 212/15
f 213/13 214/14 215/15
f 213/13 215/14 216/15
f 217/13 218/14 219/15
f 217/13 219/14 220/15
f 221/13 222/14 223/15
f 221/13 223/14 224/15
f 225/13 226/14 227/15
f 225/13 227/14 228/15
f 229/13 230/14 231/15
f 229/13 231/14 232/15
f 233/13 234/14 235/15
f 233/13 235/14 236/15
f 237/13 238/14 239/15
f 237/13 239/14 240/15
f 241/13 242/14 243/15
f 241/13 243/14 244/15
f 245/13 246/14 247/15
f 245/13 247/14 248/15
f 249/13 250/14 251/15
f 249/13 251/14 252/15
f 253/13 254/14 255/15
f 253/13 255/14 256/15
f 257/13 258/14 259/15
f 257/13 259/14 260/15
f 261/13 262/14 263/15
f 261/13 263/14 264/15
f 265/13 266/14 267/15
f 265/13 267/14 268/15
f 269/13 270/14 271/15
f 269/13 271/14 272/15
f 273/13 274/14 275/15
f 273/13 275/14 276/15
f 277/13 278/14 279/15
f 277/13 279/14 280/15
f 281/13 282/14 283/15
f 281/13 283/14 284/15
f 285/13 286/14 287/15
f 285/13 287/14 288/15
f 289/13 290/14 291/15
f 289/13 291/14 292/15
f 293/13 294/14 295/15
f 293/13 295/14 296/15
f 297/13 298/14 299/15
f 297/13 299/14 300/15
f 301/13 302/14 303/15
f 301/13 303/14 304/15
f 305/13 306/14 307/15
f 305/13 307/14 308/15
f 309/13 310/14 311/15
f 309/13 311/14 312/15
f 313/13 314/14 315/15
f 313/13 315/14 316/15
f 317/13 318/14 319/15
f 317/13 319/14 320/15
f 321/13 322/14 323/15
f 321/13 323/14 324/15
f 325/13 326/14 327/15
f 325/13 327/14 328/15
f 329/13 330/14 331/15
f 329/13 331/14 332/15
f 333/13 334/14 335/15
f 333/13 335/14 336/15
f 337/13 338/14 339/15
f 337/13 339/14 340/15
f 341/13 342/14 343/15
f 341/13 343/14 344/15
f 345/13 346/14 347/15
f 345/13 347/14 348/15
f 349/13 350/14 351/15
f 349/13 351/14 352/15
f 353/13 354/14 355/15
f 353/13 355/14 356/15
f 357/13 358/14 359/15
f 357/13 359/14 360/15
f 361/13 362/14 363/15
f 361/13 363/14 364/15
f 365/13 366/14 367/15
f 365/13 367/14 368/15
f 369/13 370/14 371/15
f 369/13 371/14 372/15
f 373/13 374/14 375/15
f 373/13 375/14 376/15
f 377/13 378/14 379/15
f 377/13 379/14 380/15
f 381/13 382/14 383/15
f 381/13 383/14 384/15
f 385/13 386/14 387/15
f 385/13 387/14 388/15
f 389/13 390/14 391/15
f 389/13 391/14 392/15
f 393/13 394/14 395/15
f 393/13 395/14 396/15
f 397/13 398/14 399/15
f 397/13 399/14 400/15
f 401/13 402/14 403/15
f 401/13 403/14 404/15
f 405/13 406/14 407/15
f 405/13 407/14 408/15
f 409/13 410/14 411/15
f 409/13 411/14 412/15
f 413/13 414/14 415/15
f 413/13 415/14 416/15
f 417/13 418/14 419/15
f 417/13 419/14 420/15
f 421/13 422/14 423/15
f 421/13 423/14 424/15
f 425/13 426/14 427/15
f 425/13 427/14 428/15
f 429/13 430/14 431/15
f 429/13 431/14 432/15
f 433/13 434/14 435/15
f 433/13 435/14 436/15
f 437/13 438/14 439/15
f 437/13 439/14 440/15
f 441/13 442/14 443/15
f 441/13 443/14 444/15
f 445/13 446/14 447/15
f 445/13 447/14 448/15
f 449/13 450/14 451/15
f 449/13 451/14 452/15
f 453/13 454/14 455/15
f 453/13 455/14 456/15
f 457/13 458/14 459/15
f 457/13 459/14 460/15
f 461/13 462/14 463/15
f 461/13 463/14 464/15
f 465/13 466/14 467/15
f 465/13 467/14 468/15
f 469/13 470/14 471/15
f 469/13 471/14 472/15
f 473/13 474/14 475/15
f 473/13 475/14 476/15
f 477/13 478/14 479/15
f 477/13 479/14 480/15
f 481/13 482/14 483/15
f 481/13 483/14 484/15
f 485/13 486/14 487/15
f 485/13 487/14 488/15
f 489/13 490/14 491/15
f 489/13 491/14 492/15
f 493/13 494/14 495/15
f 493/13 495/14 496/15
f 497/13 498/14 499/15
f 497/13 499/14 500/15
f 501/13 502/14 503/15
f 501/13 503/14 504/15
f 505/13 506/14 507/15
f 505/13 507/14 508/15
f 509/13 510/14 511/15
f 509/13 511/14 512/15
f 513/13 514/14 515/15
f 513/13 515/14 516/15
f 517/13 518/14 519/15
f 517/13 519/14 520/15
f 521/13 522/14 523/15
f 521/13 523/14 524/15
f 525/13 526/14 527/15
f 525/13 527/14 528/15
f 529/13 530/14 531/15
f 529/13 531/14 532/15
f 533/13 534/14 535/15
f 533/13 535/14 536/15
f 537/13 538/14 539/15
f 537/13 539/14 540/15
f 541/13 542/14 543/15
f 541/13 543/14 544/15
f 545/13 546/14 547/15
f 545/13 547/14 548/15
f 549/13 550/14 551/15
f 549/13 551/14 552/15
f 553/13 554/14 555/15
f 553/13 555/14 556/15
f 557/13 558/14 559/15
f 557/13 559/14 560/15
f 561/13 562/14 563/15
f 561/13 563/14 564/15
f 565/13 566/14 567/15
f 565/13 567/14 568/15
f 569/13 570/14 571/15
f 569/13 571/14 572/15
f 573/13 574/14 575/15
f 573/13 575/14 576/15
f 577/13 578/14 579/15
f 577/13 579/14 580/15
f 581/13 582/14 583/15
f 581/13 583/14 584/15
f 585/13 586/14 587/15
f 585/13 587/14 588/15
f 589/13 590/14 591/15
f 589/13 591/14 592/15
f 593/13 594/14 595/15
f 593/13 595/14 596/15
f 597/13 598/14 599/15
f 597/13 599/14 600/15
f 601/13 602/14 603/15
f 601/13 603/14 604/15
f 605/13 606/14 607/15
f 605/13 607/14 608/15
f 609/13 610/14 611/15
f 609/13 611/14 612/15
f 613/13 614/14 615/15
f 613/13 615/14 616/15
f 617/13 618/14 619/15
f 617/13 619/14 620/15
f 621/13 622/14 623/15
f 621/13 623/14 624/15
f 625/13 626/14 627/15
f 625/13 627/14 628/15
f 629/13 630/14 631/15
f 629/13 631/14 632/15
f 633/13 634/14 635/15
f 633/13 635/14 636/15
f 637/13 638/14 639/15
f 637/13 639/14 640/15
f 641/13 642/14 643/15
f 641/13 643/14 644/15
f 645/13 646/14 647/15
f 645/13 647/14 648/15
f 649/13 650/14 651/15
f 649/13 651/14 652/15
f 653/13 654/14 655/15
f 653/13 655/14 656/15
f 657/13 658/14 659/15
f 657/13 659/14 660/15
f 661/13 662/14 663/15
f 661/13 663/14 664/15
f 665/13 666/14 667/15
f 665/13 667/14 668/15
f 669/13 670/14 671/15
f 669/13 671/14 672/15
f 673/13 674/14 675/15
f 673/13 675/14 676/15
f 677/13 678/14 679/15
f 677/13 679/14 680/15
f 681/13 682/14 683/15
f 681/13 683/14 684/15
f 685/13 686/14 687/15
f 685/13 687/14 688/15
f 689/13 690/14 691/15
f 689/13 691/14 692/15
f 693/13 694/14 695/15
f 693/13 695/14 696/15
f 697/13 698/14 699/15
f 697/13 699/14 700/15
f 701/13 702/14 703/15
f 701/13 703/14 704/15
f 705/13 706/14 707/15
f 705/13 707/14 708/15
f 709/13 710/14 711/15
f 709/13 711/14 712/15
f 713/13 714/14 715/15
f 713/13 715/14 716/15
f 717/13 718/14 719/15
f 717/13 719/14 720/15
f 721/13 722/14 723/15
f 721/13 723/14 724/15
f 725/13 726/14 727/15
f 725/13 727/14 728/15
f 729/13 730/14 731/15
f 729/13 731/14 732/15
f 733/13 734/14 735/15
f 733/13 735/14 736/15
f 737/13 738/14 739/15
f 737/13 739/14 740/15
f 741/13 742/14 743/15
f 741/13 743/14 744/15
f 745/13 746/14 747/15
f 745/13 747/14 748/15
f 749/13 750/14 751/15
f 749/13 751/14 752/15
f 753/13 754/14 755/15
f 753/13 755/14 756/15
f 757/13 758/14 759/15
f 757/13 759/14 760/15
f 761/13 762/14 763/15
f 761/13 763/14 764/15
f 765/13 766/14 767/15
f 765/13 767/14 768/15
f 769/13 770/14 771/15
f 769/13 771/14 772/15
f 773/13 774/14 775/15
f 773/13 775/14 776/15
f 777/13 778/14 779/15
f 777/13 779/14 780/15
f 781/13 782/14 783/15
f 781/13 783/14 784/15
f 785/13 786/14 787/15
f 785/13 787/14 788/15
f 789/13 790/14 791/15
f 789/13 791/14 792/15
f 793/13 794/14 795/15
f 793/13 795/14 796/15
f 797/13 798/14 799/15
f 797/13 799/14 800/15
f 801/13 802/14 803/15
f 801/13 803/14 804/15
f 805/13 806/14 807/15
f 805/13 807/14 808/15
f 809/13 810/14 811/15
f 809/13 811/14 812/15
f 813/13 814/14 815/15
f 813/13 815/14 816/15
f 817/13 818/14 819/15
f 817/13 819/14 820/15
f 821/13 822/14 823/15
f 821/13 823/14 824/15
f 825/13 826/14 827/15
f 825/13 827/14 828/15
f 829/13 830/14 831/15
f 829/13 831/14 832/15
f 833/13 834/14 835/15
f 833/13 835/14 836/15
f 837/13 838/14 839/15
f 837/13 839/14 840/15
f 841/13 842/14 843/15
f 841/13 843/14 844/15
f 845/13 846/14 847/15
f 845/13 847/14 848/15
f 849/13 850/14 851/15
f 849/13 851/14 852/15
f 853/13 854/14 855/15
f 853/13 855/14 856/15
f 857/13 858/14 859/15
f 857/13 859/14 860/15
f 861/13 862/14 863/15
f 861/13 863/14 864/15
f 865/13 866/14 867/15
f 865/13 867/14 868/15
f 869/13 870/14 871/15
f 869/13 871/14 872/15
f 873/13 874/14 875/15
f 873/13 875/14 876/15
f 877/13 878/14 879/15
f 877/13 879/14 880/15
f 881/13 882/14 883/15
f 881/13 883/14 884/15
f 885/13 886/14 887/15
f 885/13 887/14 888/15
f 889/13 890/14 891/15
f 889/13 891/14 892/15
f 893/13 894/14 895/15
f 893/13 895/14 896/15
f 897/13 898/14 899/15
f 897/13 899/14 900/15
f 901/13 902/14 903/15
f 901/13 903/14 904/15
f 905/13 906/14 907/15
f 905/13 907/14 908/15
f 909/13 910/14 911/15
f 909/13 911/14 912/15
f 913/13 914/14 915/15
f 913/13 915/14 916/15
f 917/13 918/14 919/15
f 917/13 919/14 920/15
f 921/13 922/14 923/15
f 921/13 923/14 924/15
f 925/13 926/14 927/15
f 925/13 927/14 928/15
f 929/13 930/14 931/15
f 929/13 931/14 932/15
f 933/13 934/14 935/15
f 933/13 935/14 936/15
f 937/13 938/14 939/15
f 937/13 939/14 940/15
f 941/13 942/14 943/15
f 941/13 943/14 944/15
f 945/13 946/14 947/15
f 945/13 947/14 948/15
f 949/13 950/14 951/15
f 949/13 951/14 952/15
f 953/13 954/14 955/15
f 953/13 955/14 956/15
f 957/13 958/14 959/15
f 957/13 959/14 960/15
f 961/13 962/14 963/15
f 961/13 963/14 964/15
f 965/13 966/14 967/15
f 965/13 967/14 968/15
f 969/13 970/14 971/15
f 969/13 971/14 972/15
f 973/13 974/14 975/15
f 973/13 975/14 976/15
f 977/13 978/14 979/15
f 977/13 979/14 980/15
f 981/13 982/14 983/15
f 981/13 983/14 984/15
f 985/13 986/14 987/15
f 985/13 987/14 988/15
f 989/13 990/14 991/15
f 989/13 991/14 992/15
f 993/13 994/14 995/15
f 993/13 995/14 996/15
g support
usemtl farm-kit
f 1/1 2/2 3/3
f 1/1 3/2 4/3
f 5/1 6/2 7/3
f 5/1 7/2 8/3
f 9/1 10/2 11/3
f 9/1 11/2 12/3
f 13/1 14/2 15/3
f 13/1 15/2 16/3
f 17/1 18/2 19/3
f 17/1 19/2 20/3
f 21/1 22/2 23/3
f 21/1 23/2 24/3
f 25/1 26/2 27/3
f 25/1 27/2 28/3
f 29/1 30/2 31/3
f 29/1 31/2 32/3
f 33/4 34/5 35/6
f 33/4 35/5 36/6
f 37/4 38/5 39/6
f 37/4 39/5 40/6
f 41/4 42/5 43/6
f 41/4 43/5 44/6
f 45/4 46/5 47/6
f 45/4 47/5 48/6
f 49/4 50/5 51/6
f 49/4 51/5 52/6
f 53/4 54/5 55/6
f 53/4 55/5 56/6
f 57/4 58/5 59/6
f 57/4 59/5 60/6
f 61/4 62/5 63/6
f 61/4 63/5 64/6
f 65/4 66/5 67/6
f 65/4 67/5 68/6
f 69/4 70/5 71/6
f 69/4 71/5 72/6
f 73/4 74/5 75/6
f 73/4 75/5 76/6
f 77/4 78/5 79/6
f 77/4 79/5 80/6
f 81/4 82/5 83/6
f 81/4 83/5 84/6
f 85/4 86/5 87/6
f 85/4 87/5 88/6
f 89/4 90/5 91/6
f 89/4 91/5 92/6
f 93/4 94/5 95/6
f 93/4 95/5 96/6
f 97/4 98/5 99/6
f 97/4 99/5 100/6
