mtllib TorusHome_ModA.mtl
o TorusHome_ModA
usemtl HabitatAtlas
v -0.500000 0.000000 -0.750000
v 0.500000 0.000000 -0.750000
v 0.500000 0.030000 -0.750000
v -0.500000 0.030000 -0.750000
v -0.500000 0.000000 0.750000
v 0.500000 0.000000 0.750000
v 0.500000 0.030000 0.750000
v -0.500000 0.030000 0.750000
v -0.500000 0.030000 -0.750000
v -0.470000 0.030000 -0.750000
v -0.470000 0.685000 -0.750000
v -0.500000 0.685000 -0.750000
v -0.500000 0.030000 -0.720000
v -0.470000 0.030000 -0.720000
v -0.470000 0.685000 -0.720000
v -0.500000 0.685000 -0.720000
v -0.500000 0.030000 -0.015000
v -0.470000 0.030000 -0.015000
v -0.470000 0.685000 -0.015000
v -0.500000 0.685000 -0.015000
v -0.500000 0.030000 0.015000
v -0.470000 0.030000 0.015000
v -0.470000 0.685000 0.015000
v -0.500000 0.685000 0.015000
v -0.500000 0.030000 0.720000
v -0.470000 0.030000 0.720000
v -0.470000 0.685000 0.720000
v -0.500000 0.685000 0.720000
v -0.500000 0.030000 0.750000
v -0.470000 0.030000 0.750000
v -0.470000 0.685000 0.750000
v -0.500000 0.685000 0.750000
v 0.470000 0.030000 -0.750000
v 0.500000 0.030000 -0.750000
v 0.500000 0.685000 -0.750000
v 0.470000 0.685000 -0.750000
v 0.470000 0.030000 -0.720000
v 0.500000 0.030000 -0.720000
v 0.500000 0.685000 -0.720000
v 0.470000 0.685000 -0.720000
v 0.470000 0.030000 -0.015000
v 0.500000 0.030000 -0.015000
v 0.500000 0.685000 -0.015000
v 0.470000 0.685000 -0.015000
v 0.470000 0.030000 0.015000
v 0.500000 0.030000 0.015000
v 0.500000 0.685000 0.015000
v 0.470000 0.685000 0.015000
v 0.470000 0.030000 0.720000
v 0.500000 0.030000 0.720000
v 0.500000 0.685000 0.720000
v 0.470000 0.685000 0.720000
v 0.470000 0.030000 0.750000
v 0.500000 0.030000 0.750000
v 0.500000 0.685000 0.750000
v 0.470000 0.685000 0.750000
v -0.500000 0.665000 -0.752500
v 0.500000 0.665000 -0.752500
v 0.500000 0.700000 -0.752500
v -0.500000 0.700000 -0.752500
v -0.500000 0.665000 -0.717500
v 0.500000 0.665000 -0.717500
v 0.500000 0.700000 -0.717500
v -0.500000 0.700000 -0.717500
v -0.500000 0.665000 0.717500
v 0.500000 0.665000 0.717500
v 0.500000 0.700000 0.717500
v -0.500000 0.700000 0.717500
v -0.500000 0.665000 0.752500
v 0.500000 0.665000 0.752500
v 0.500000 0.700000 0.752500
v -0.500000 0.700000 0.752500
v -0.502500 0.665000 -0.750000
v -0.467500 0.665000 -0.750000
v -0.467500 0.700000 -0.750000
v -0.502500 0.700000 -0.750000
v -0.502500 0.665000 0.750000
v -0.467500 0.665000 0.750000
v -0.467500 0.700000 0.750000
v -0.502500 0.700000 0.750000
v 0.467500 0.665000 -0.750000
v 0.502500 0.665000 -0.750000
v 0.502500 0.700000 -0.750000
v 0.467500 0.700000 -0.750000
v 0.467500 0.665000 0.750000
v 0.502500 0.665000 0.750000
v 0.502500 0.700000 0.750000
v 0.467500 0.700000 0.750000
v -0.465000 0.035000 0.710000
v 0.465000 0.035000 0.710000
v 0.465000 0.155000 0.710000
v -0.465000 0.155000 0.710000
v -0.465000 0.035000 0.735000
v 0.465000 0.035000 0.735000
v 0.465000 0.155000 0.735000
v -0.465000 0.155000 0.735000
v -0.465000 0.587500 0.710000
v 0.465000 0.587500 0.710000
v 0.465000 0.672500 0.710000
v -0.465000 0.672500 0.710000
v -0.465000 0.587500 0.735000
v 0.465000 0.587500 0.735000
v 0.465000 0.672500 0.735000
v -0.465000 0.672500 0.735000
v -0.475000 0.150000 0.710000
v -0.445000 0.150000 0.710000
v -0.445000 0.565000 0.710000
v -0.475000 0.565000 0.710000
v -0.475000 0.150000 0.735000
v -0.445000 0.150000 0.735000
v -0.445000 0.565000 0.735000
v -0.475000 0.565000 0.735000
v 0.445000 0.150000 0.710000
v 0.475000 0.150000 0.710000
v 0.475000 0.565000 0.710000
v 0.445000 0.565000 0.710000
v 0.445000 0.150000 0.735000
v 0.475000 0.150000 0.735000
v 0.475000 0.565000 0.735000
v 0.445000 0.565000 0.735000
v -0.442500 0.157500 0.720625
v 0.132500 0.157500 0.720625
v 0.132500 0.557500 0.720625
v -0.442500 0.557500 0.720625
v -0.442500 0.157500 0.731875
v 0.132500 0.157500 0.731875
v 0.132500 0.557500 0.731875
v -0.442500 0.557500 0.731875
v 0.212500 0.087500 0.720000
v 0.432500 0.087500 0.720000
v 0.432500 0.562500 0.720000
v 0.212500 0.562500 0.720000
v 0.212500 0.087500 0.737500
v 0.432500 0.087500 0.737500
v 0.432500 0.562500 0.737500
v 0.212500 0.562500 0.737500
v 0.260000 0.422500 0.736750
v 0.380000 0.422500 0.736750
v 0.380000 0.527500 0.736750
v 0.260000 0.527500 0.736750
v 0.260000 0.422500 0.741250
v 0.380000 0.422500 0.741250
v 0.380000 0.527500 0.741250
v 0.260000 0.527500 0.741250
v -0.344375 0.155000 0.730625
v -0.335625 0.155000 0.730625
v -0.335625 0.560000 0.730625
v -0.344375 0.560000 0.730625
v -0.344375 0.155000 0.736875
v -0.335625 0.155000 0.736875
v -0.335625 0.560000 0.736875
v -0.344375 0.560000 0.736875
v -0.154375 0.155000 0.730625
v -0.145625 0.155000 0.730625
v -0.145625 0.560000 0.730625
v -0.154375 0.560000 0.730625
v -0.154375 0.155000 0.736875
v -0.145625 0.155000 0.736875
v -0.145625 0.560000 0.736875
v -0.154375 0.560000 0.736875
v 0.035625 0.155000 0.730625
v 0.044375 0.155000 0.730625
v 0.044375 0.560000 0.730625
v 0.035625 0.560000 0.730625
v 0.035625 0.155000 0.736875
v 0.044375 0.155000 0.736875
v 0.044375 0.560000 0.736875
v 0.035625 0.560000 0.736875
v 0.220625 0.155000 0.730625
v 0.229375 0.155000 0.730625
v 0.229375 0.560000 0.730625
v 0.220625 0.560000 0.730625
v 0.220625 0.155000 0.736875
v 0.229375 0.155000 0.736875
v 0.229375 0.560000 0.736875
v 0.220625 0.560000 0.736875
v -0.485000 0.040000 -0.740000
v -0.075000 0.040000 -0.740000
v -0.075000 0.670000 -0.740000
v -0.485000 0.670000 -0.740000
v -0.485000 0.040000 -0.715000
v -0.075000 0.040000 -0.715000
v -0.075000 0.670000 -0.715000
v -0.485000 0.670000 -0.715000
v 0.075000 0.040000 -0.740000
v 0.485000 0.040000 -0.740000
v 0.485000 0.670000 -0.740000
v 0.075000 0.670000 -0.740000
v 0.075000 0.040000 -0.715000
v 0.485000 0.040000 -0.715000
v 0.485000 0.670000 -0.715000
v 0.075000 0.670000 -0.715000
v -0.090000 0.560000 -0.740000
v 0.090000 0.560000 -0.740000
v 0.090000 0.670000 -0.740000
v -0.090000 0.670000 -0.740000
v -0.090000 0.560000 -0.715000
v 0.090000 0.560000 -0.715000
v 0.090000 0.670000 -0.715000
v -0.090000 0.670000 -0.715000
v -0.087500 0.187500 -0.736875
v 0.087500 0.187500 -0.736875
v 0.087500 0.557500 -0.736875
v -0.087500 0.557500 -0.736875
v -0.087500 0.187500 -0.728125
v 0.087500 0.187500 -0.728125
v 0.087500 0.557500 -0.728125
v -0.087500 0.557500 -0.728125
v -0.490000 0.037500 -0.725000
v -0.465000 0.037500 -0.725000
v -0.465000 0.662500 -0.725000
v -0.490000 0.662500 -0.725000
v -0.490000 0.037500 -0.300000
v -0.465000 0.037500 -0.300000
v -0.465000 0.662500 -0.300000
v -0.490000 0.662500 -0.300000
v -0.490000 0.037500 0.317500
v -0.465000 0.037500 0.317500
v -0.465000 0.662500 0.317500
v -0.490000 0.662500 0.317500
v -0.490000 0.037500 0.722500
v -0.465000 0.037500 0.722500
v -0.465000 0.662500 0.722500
v -0.490000 0.662500 0.722500
v -0.483125 0.245000 -0.288750
v -0.471875 0.245000 -0.288750
v -0.471875 0.540000 -0.288750
v -0.483125 0.540000 -0.288750
v -0.483125 0.245000 0.298750
v -0.471875 0.245000 0.298750
v -0.471875 0.540000 0.298750
v -0.483125 0.540000 0.298750
v -0.493750 0.220000 -0.295000
v -0.461250 0.220000 -0.295000
v -0.461250 0.240000 -0.295000
v -0.493750 0.240000 -0.295000
v -0.493750 0.220000 0.305000
v -0.461250 0.220000 0.305000
v -0.461250 0.240000 0.305000
v -0.493750 0.240000 0.305000
v -0.493750 0.545000 -0.295000
v -0.461250 0.545000 -0.295000
v -0.461250 0.565000 -0.295000
v -0.493750 0.565000 -0.295000
v -0.493750 0.545000 0.305000
v -0.461250 0.545000 0.305000
v -0.461250 0.565000 0.305000
v -0.493750 0.565000 0.305000
v 0.465000 0.037500 -0.725000
v 0.490000 0.037500 -0.725000
v 0.490000 0.662500 -0.725000
v 0.465000 0.662500 -0.725000
v 0.465000 0.037500 -0.300000
v 0.490000 0.037500 -0.300000
v 0.490000 0.662500 -0.300000
v 0.465000 0.662500 -0.300000
v 0.465000 0.037500 0.317500
v 0.490000 0.037500 0.317500
v 0.490000 0.662500 0.317500
v 0.465000 0.662500 0.317500
v 0.465000 0.037500 0.722500
v 0.490000 0.037500 0.722500
v 0.490000 0.662500 0.722500
v 0.465000 0.662500 0.722500
v 0.471875 0.245000 -0.288750
v 0.483125 0.245000 -0.288750
v 0.483125 0.540000 -0.288750
v 0.471875 0.540000 -0.288750
v 0.471875 0.245000 0.298750
v 0.483125 0.245000 0.298750
v 0.483125 0.540000 0.298750
v 0.471875 0.540000 0.298750
v 0.461250 0.220000 -0.295000
v 0.493750 0.220000 -0.295000
v 0.493750 0.240000 -0.295000
v 0.461250 0.240000 -0.295000
v 0.461250 0.220000 0.305000
v 0.493750 0.220000 0.305000
v 0.493750 0.240000 0.305000
v 0.461250 0.240000 0.305000
v 0.461250 0.545000 -0.295000
v 0.493750 0.545000 -0.295000
v 0.493750 0.565000 -0.295000
v 0.461250 0.565000 -0.295000
v 0.461250 0.545000 0.305000
v 0.493750 0.545000 0.305000
v 0.493750 0.565000 0.305000
v 0.461250 0.565000 0.305000
v -0.495000 0.692500 -0.742500
v 0.495000 0.692500 -0.742500
v 0.495000 0.717500 -0.742500
v -0.495000 0.717500 -0.742500
v -0.495000 0.692500 0.742500
v 0.495000 0.692500 0.742500
v 0.495000 0.717500 0.742500
v -0.495000 0.717500 0.742500
v -0.450000 0.730000 -0.722500
v -0.420000 0.730000 -0.722500
v -0.420000 1.360000 -0.722500
v -0.450000 1.360000 -0.722500
v -0.450000 0.730000 -0.692500
v -0.420000 0.730000 -0.692500
v -0.420000 1.360000 -0.692500
v -0.450000 1.360000 -0.692500
v -0.450000 0.730000 -0.010000
v -0.420000 0.730000 -0.010000
v -0.420000 1.360000 -0.010000
v -0.450000 1.360000 -0.010000
v -0.450000 0.730000 0.020000
v -0.420000 0.730000 0.020000
v -0.420000 1.360000 0.020000
v -0.450000 1.360000 0.020000
v 0.420000 0.730000 -0.722500
v 0.450000 0.730000 -0.722500
v 0.450000 1.360000 -0.722500
v 0.420000 1.360000 -0.722500
v 0.420000 0.730000 -0.692500
v 0.450000 0.730000 -0.692500
v 0.450000 1.360000 -0.692500
v 0.420000 1.360000 -0.692500
v 0.420000 0.730000 -0.010000
v 0.450000 0.730000 -0.010000
v 0.450000 1.360000 -0.010000
v 0.420000 1.360000 -0.010000
v 0.420000 0.730000 0.020000
v 0.450000 0.730000 0.020000
v 0.450000 1.360000 0.020000
v 0.420000 1.360000 0.020000
v -0.450000 1.332500 -0.722500
v 0.450000 1.332500 -0.722500
v 0.450000 1.362500 -0.722500
v -0.450000 1.362500 -0.722500
v -0.450000 1.332500 -0.692500
v 0.450000 1.332500 -0.692500
v 0.450000 1.362500 -0.692500
v -0.450000 1.362500 -0.692500
v -0.450000 1.332500 -0.010000
v 0.450000 1.332500 -0.010000
v 0.450000 1.362500 -0.010000
v -0.450000 1.362500 -0.010000
v -0.450000 1.332500 0.020000
v 0.450000 1.332500 0.020000
v 0.450000 1.362500 0.020000
v -0.450000 1.362500 0.020000
v -0.450000 1.332500 -0.727500
v -0.420000 1.332500 -0.727500
v -0.420000 1.362500 -0.727500
v -0.450000 1.362500 -0.727500
v -0.450000 1.332500 0.025000
v -0.420000 1.332500 0.025000
v -0.420000 1.362500 0.025000
v -0.450000 1.362500 0.025000
v 0.420000 1.332500 -0.727500
v 0.450000 1.332500 -0.727500
v 0.450000 1.362500 -0.727500
v 0.420000 1.362500 -0.727500
v 0.420000 1.332500 0.025000
v 0.450000 1.332500 0.025000
v 0.450000 1.362500 0.025000
v 0.420000 1.362500 0.025000
v -0.427500 0.745000 -0.715000
v 0.427500 0.745000 -0.715000
v 0.427500 1.345000 -0.715000
v -0.427500 1.345000 -0.715000
v -0.427500 0.745000 -0.690000
v 0.427500 0.745000 -0.690000
v 0.427500 1.345000 -0.690000
v -0.427500 1.345000 -0.690000
v -0.440000 0.745000 -0.711250
v -0.415000 0.745000 -0.711250
v -0.415000 1.345000 -0.711250
v -0.440000 1.345000 -0.711250
v -0.440000 0.745000 -0.348750
v -0.415000 0.745000 -0.348750
v -0.415000 1.345000 -0.348750
v -0.440000 1.345000 -0.348750
v -0.440000 0.745000 -0.092500
v -0.415000 0.745000 -0.092500
v -0.415000 1.345000 -0.092500
v -0.440000 1.345000 -0.092500
v -0.440000 0.745000 0.027500
v -0.415000 0.745000 0.027500
v -0.415000 1.345000 0.027500
v -0.440000 1.345000 0.027500
v -0.432500 0.888750 -0.462500
v -0.422500 0.888750 -0.462500
v -0.422500 1.201250 -0.462500
v -0.432500 1.201250 -0.462500
v -0.432500 0.888750 -0.127500
v -0.422500 0.888750 -0.127500
v -0.422500 1.201250 -0.127500
v -0.432500 1.201250 -0.127500
v 0.415000 0.745000 -0.711250
v 0.440000 0.745000 -0.711250
v 0.440000 1.345000 -0.711250
v 0.415000 1.345000 -0.711250
v 0.415000 0.745000 -0.348750
v 0.440000 0.745000 -0.348750
v 0.440000 1.345000 -0.348750
v 0.415000 1.345000 -0.348750
v 0.415000 0.745000 -0.092500
v 0.440000 0.745000 -0.092500
v 0.440000 1.345000 -0.092500
v 0.415000 1.345000 -0.092500
v 0.415000 0.745000 0.027500
v 0.440000 0.745000 0.027500
v 0.440000 1.345000 0.027500
v 0.415000 1.345000 0.027500
v 0.422500 0.888750 -0.462500
v 0.432500 0.888750 -0.462500
v 0.432500 1.201250 -0.462500
v 0.422500 1.201250 -0.462500
v 0.422500 0.888750 -0.127500
v 0.432500 0.888750 -0.127500
v 0.432500 1.201250 -0.127500
v 0.422500 1.201250 -0.127500
v -0.427500 0.742500 0.012500
v 0.427500 0.742500 0.012500
v 0.427500 0.912500 0.012500
v -0.427500 0.912500 0.012500
v -0.427500 0.742500 0.037500
v 0.427500 0.742500 0.037500
v 0.427500 0.912500 0.037500
v -0.427500 0.912500 0.037500
v -0.427500 1.240000 0.012500
v 0.427500 1.240000 0.012500
v 0.427500 1.350000 0.012500
v -0.427500 1.350000 0.012500
v -0.427500 1.240000 0.037500
v 0.427500 1.240000 0.037500
v 0.427500 1.350000 0.037500
v -0.427500 1.350000 0.037500
v -0.427500 0.912500 0.015000
v -0.352500 0.912500 0.015000
v -0.352500 1.222500 0.015000
v -0.427500 1.222500 0.015000
v -0.427500 0.912500 0.035000
v -0.352500 0.912500 0.035000
v -0.352500 1.222500 0.035000
v -0.427500 1.222500 0.035000
v 0.352500 0.912500 0.015000
v 0.427500 0.912500 0.015000
v 0.427500 1.222500 0.015000
v 0.352500 1.222500 0.015000
v 0.352500 0.912500 0.035000
v 0.427500 0.912500 0.035000
v 0.427500 1.222500 0.035000
v 0.352500 1.222500 0.035000
v -0.345000 0.912500 0.025000
v 0.345000 0.912500 0.025000
v 0.345000 1.222500 0.025000
v -0.345000 1.222500 0.025000
v -0.345000 0.912500 0.035000
v 0.345000 0.912500 0.035000
v 0.345000 1.222500 0.035000
v -0.345000 1.222500 0.035000
v -0.267500 0.912500 0.033750
v -0.257500 0.912500 0.033750
v -0.257500 1.222500 0.033750
v -0.267500 1.222500 0.033750
v -0.267500 0.912500 0.041250
v -0.257500 0.912500 0.041250
v -0.257500 1.222500 0.041250
v -0.267500 1.222500 0.041250
v -0.005000 0.912500 0.033750
v 0.005000 0.912500 0.033750
v 0.005000 1.222500 0.033750
v -0.005000 1.222500 0.033750
v -0.005000 0.912500 0.041250
v 0.005000 0.912500 0.041250
v 0.005000 1.222500 0.041250
v -0.005000 1.222500 0.041250
v 0.257500 0.912500 0.033750
v 0.267500 0.912500 0.033750
v 0.267500 1.222500 0.033750
v 0.257500 1.222500 0.033750
v 0.257500 0.912500 0.041250
v 0.267500 0.912500 0.041250
v 0.267500 1.222500 0.041250
v 0.257500 1.222500 0.041250
v -0.480000 1.350000 -0.742500
v 0.480000 1.350000 -0.742500
v 0.480000 1.380000 -0.742500
v -0.480000 1.380000 -0.742500
v -0.480000 1.350000 0.040000
v 0.480000 1.350000 0.040000
v 0.480000 1.380000 0.040000
v -0.480000 1.380000 0.040000
v -0.477500 1.337500 0.005000
v 0.477500 1.337500 0.005000
v 0.477500 1.372500 0.005000
v -0.477500 1.372500 0.005000
v -0.477500 1.337500 0.035000
v 0.477500 1.337500 0.035000
v 0.477500 1.372500 0.035000
v -0.477500 1.372500 0.035000
v -0.445000 0.717500 0.697500
v -0.430000 0.717500 0.697500
v -0.430000 0.972500 0.697500
v -0.445000 0.972500 0.697500
v -0.445000 0.717500 0.712500
v -0.430000 0.717500 0.712500
v -0.430000 0.972500 0.712500
v -0.445000 0.972500 0.712500
v -0.153333 0.717500 0.697500
v -0.138333 0.717500 0.697500
v -0.138333 0.972500 0.697500
v -0.153333 0.972500 0.697500
v -0.153333 0.717500 0.712500
v -0.138333 0.717500 0.712500
v -0.138333 0.972500 0.712500
v -0.153333 0.972500 0.712500
v 0.138333 0.717500 0.697500
v 0.153333 0.717500 0.697500
v 0.153333 0.972500 0.697500
v 0.138333 0.972500 0.697500
v 0.138333 0.717500 0.712500
v 0.153333 0.717500 0.712500
v 0.153333 0.972500 0.712500
v 0.138333 0.972500 0.712500
v 0.430000 0.717500 0.697500
v 0.445000 0.717500 0.697500
v 0.445000 0.972500 0.697500
v 0.430000 0.972500 0.697500
v 0.430000 0.717500 0.712500
v 0.445000 0.717500 0.712500
v 0.445000 0.972500 0.712500
v 0.430000 0.972500 0.712500
v -0.437500 0.958750 0.696250
v 0.437500 0.958750 0.696250
v 0.437500 0.976250 0.696250
v -0.437500 0.976250 0.696250
v -0.437500 0.958750 0.713750
v 0.437500 0.958750 0.713750
v 0.437500 0.976250 0.713750
v -0.437500 0.976250 0.713750
v -0.437500 0.843750 0.698750
v 0.437500 0.843750 0.698750
v 0.437500 0.856250 0.698750
v -0.437500 0.856250 0.698750
v -0.437500 0.843750 0.711250
v 0.437500 0.843750 0.711250
v 0.437500 0.856250 0.711250
v -0.437500 0.856250 0.711250
v -0.445000 0.717500 0.017500
v -0.430000 0.717500 0.017500
v -0.430000 0.972500 0.017500
v -0.445000 0.972500 0.017500
v -0.445000 0.717500 0.032500
v -0.430000 0.717500 0.032500
v -0.430000 0.972500 0.032500
v -0.445000 0.972500 0.032500
v -0.445000 0.717500 0.357500
v -0.430000 0.717500 0.357500
v -0.430000 0.972500 0.357500
v -0.445000 0.972500 0.357500
v -0.445000 0.717500 0.372500
v -0.430000 0.717500 0.372500
v -0.430000 0.972500 0.372500
v -0.445000 0.972500 0.372500
v -0.445000 0.717500 0.697500
v -0.430000 0.717500 0.697500
v -0.430000 0.972500 0.697500
v -0.445000 0.972500 0.697500
v -0.445000 0.717500 0.712500
v -0.430000 0.717500 0.712500
v -0.430000 0.972500 0.712500
v -0.445000 0.972500 0.712500
v -0.446250 0.958750 0.025000
v -0.428750 0.958750 0.025000
v -0.428750 0.976250 0.025000
v -0.446250 0.976250 0.025000
v -0.446250 0.958750 0.705000
v -0.428750 0.958750 0.705000
v -0.428750 0.976250 0.705000
v -0.446250 0.976250 0.705000
v 0.430000 0.717500 0.017500
v 0.445000 0.717500 0.017500
v 0.445000 0.972500 0.017500
v 0.430000 0.972500 0.017500
v 0.430000 0.717500 0.032500
v 0.445000 0.717500 0.032500
v 0.445000 0.972500 0.032500
v 0.430000 0.972500 0.032500
v 0.430000 0.717500 0.357500
v 0.445000 0.717500 0.357500
v 0.445000 0.972500 0.357500
v 0.430000 0.972500 0.357500
v 0.430000 0.717500 0.372500
v 0.445000 0.717500 0.372500
v 0.445000 0.972500 0.372500
v 0.430000 0.972500 0.372500
v 0.430000 0.717500 0.697500
v 0.445000 0.717500 0.697500
v 0.445000 0.972500 0.697500
v 0.430000 0.972500 0.697500
v 0.430000 0.717500 0.712500
v 0.445000 0.717500 0.712500
v 0.445000 0.972500 0.712500
v 0.430000 0.972500 0.712500
v 0.428750 0.958750 0.025000
v 0.446250 0.958750 0.025000
v 0.446250 0.976250 0.025000
v 0.428750 0.976250 0.025000
v 0.428750 0.958750 0.705000
v 0.446250 0.958750 0.705000
v 0.446250 0.976250 0.705000
v 0.428750 0.976250 0.705000
v 0.127500 0.040000 -0.692500
v 0.432500 0.040000 -0.692500
v 0.432500 0.625000 -0.692500
v 0.127500 0.625000 -0.692500
v 0.127500 0.040000 -0.367500
v 0.432500 0.040000 -0.367500
v 0.432500 0.625000 -0.367500
v 0.127500 0.625000 -0.367500
v 0.190000 0.107500 -0.363125
v 0.370000 0.107500 -0.363125
v 0.370000 0.572500 -0.363125
v 0.190000 0.572500 -0.363125
v 0.190000 0.107500 -0.356875
v 0.370000 0.107500 -0.356875
v 0.370000 0.572500 -0.356875
v 0.190000 0.572500 -0.356875
v 0.193750 0.000000 0.740000
v 0.456250 0.000000 0.740000
v 0.456250 0.040000 0.740000
v 0.193750 0.040000 0.740000
v 0.193750 0.000000 0.820000
v 0.456250 0.000000 0.820000
v 0.456250 0.040000 0.820000
v 0.193750 0.040000 0.820000
v 0.193750 0.000000 0.815000
v 0.456250 0.000000 0.815000
v 0.456250 0.080000 0.815000
v 0.193750 0.080000 0.815000
v 0.193750 0.000000 0.895000
v 0.456250 0.000000 0.895000
v 0.456250 0.080000 0.895000
v 0.193750 0.080000 0.895000
v 0.193750 0.000000 0.890000
v 0.456250 0.000000 0.890000
v 0.456250 0.120000 0.890000
v 0.193750 0.120000 0.890000
v 0.193750 0.000000 0.970000
v 0.456250 0.000000 0.970000
v 0.456250 0.120000 0.970000
v 0.193750 0.120000 0.970000
v 0.156250 0.000000 0.965000
v 0.493750 0.000000 0.965000
v 0.493750 0.040000 0.965000
v 0.156250 0.040000 0.965000
v 0.156250 0.000000 1.110000
v 0.493750 0.000000 1.110000
v 0.493750 0.040000 1.110000
v 0.156250 0.040000 1.110000
vt 0.025000 0.025000
vt 0.475000 0.025000
vt 0.475000 0.475000
vt 0.025000 0.475000
vt 0.025000 0.025000
vt 0.475000 0.025000
vt 0.475000 0.475000
vt 0.025000 0.475000
vt 0.025000 0.025000
vt 0.475000 0.025000
vt 0.475000 0.475000
vt 0.025000 0.475000
vt 0.025000 0.025000
vt 0.475000 0.025000
vt 0.475000 0.475000
vt 0.025000 0.475000
vt 0.025000 0.025000
vt 0.475000 0.025000
vt 0.475000 0.475000
vt 0.025000 0.475000
vt 0.025000 0.025000
vt 0.475000 0.025000
vt 0.475000 0.475000
vt 0.025000 0.475000
vt 0.025000 0.025000
vt 0.475000 0.025000
vt 0.475000 0.475000
vt 0.025000 0.475000
vt 0.025000 0.025000
vt 0.475000 0.025000
vt 0.475000 0.475000
vt 0.025000 0.475000
vt 0.025000 0.025000
vt 0.475000 0.025000
vt 0.475000 0.475000
vt 0.025000 0.475000
vt 0.025000 0.025000
vt 0.475000 0.025000
vt 0.475000 0.475000
vt 0.025000 0.475000
vt 0.025000 0.025000
vt 0.475000 0.025000
vt 0.475000 0.475000
vt 0.025000 0.475000
vt 0.025000 0.025000
vt 0.475000 0.025000
vt 0.475000 0.475000
vt 0.025000 0.475000
vt 0.025000 0.025000
vt 0.475000 0.025000
vt 0.475000 0.475000
vt 0.025000 0.475000
vt 0.025000 0.025000
vt 0.475000 0.025000
vt 0.475000 0.475000
vt 0.025000 0.475000
vt 0.025000 0.025000
vt 0.475000 0.025000
vt 0.475000 0.475000
vt 0.025000 0.475000
vt 0.025000 0.025000
vt 0.475000 0.025000
vt 0.475000 0.475000
vt 0.025000 0.475000
vt 0.025000 0.025000
vt 0.475000 0.025000
vt 0.475000 0.475000
vt 0.025000 0.475000
vt 0.025000 0.025000
vt 0.475000 0.025000
vt 0.475000 0.475000
vt 0.025000 0.475000
vt 0.025000 0.025000
vt 0.475000 0.025000
vt 0.475000 0.475000
vt 0.025000 0.475000
vt 0.025000 0.025000
vt 0.475000 0.025000
vt 0.475000 0.475000
vt 0.025000 0.475000
vt 0.025000 0.025000
vt 0.475000 0.025000
vt 0.475000 0.475000
vt 0.025000 0.475000
vt 0.025000 0.025000
vt 0.475000 0.025000
vt 0.475000 0.475000
vt 0.025000 0.475000
vt 0.025000 0.025000
vt 0.475000 0.025000
vt 0.475000 0.475000
vt 0.025000 0.475000
vt 0.025000 0.025000
vt 0.475000 0.025000
vt 0.475000 0.475000
vt 0.025000 0.475000
vt 0.025000 0.025000
vt 0.475000 0.025000
vt 0.475000 0.475000
vt 0.025000 0.475000
vt 0.025000 0.025000
vt 0.475000 0.025000
vt 0.475000 0.475000
vt 0.025000 0.475000
vt 0.025000 0.025000
vt 0.475000 0.025000
vt 0.475000 0.475000
vt 0.025000 0.475000
vt 0.025000 0.025000
vt 0.475000 0.025000
vt 0.475000 0.475000
vt 0.025000 0.475000
vt 0.025000 0.025000
vt 0.475000 0.025000
vt 0.475000 0.475000
vt 0.025000 0.475000
vt 0.025000 0.025000
vt 0.475000 0.025000
vt 0.475000 0.475000
vt 0.025000 0.475000
vt 0.025000 0.025000
vt 0.475000 0.025000
vt 0.475000 0.475000
vt 0.025000 0.475000
vt 0.025000 0.025000
vt 0.475000 0.025000
vt 0.475000 0.475000
vt 0.025000 0.475000
vt 0.025000 0.025000
vt 0.475000 0.025000
vt 0.475000 0.475000
vt 0.025000 0.475000
vt 0.025000 0.025000
vt 0.475000 0.025000
vt 0.475000 0.475000
vt 0.025000 0.475000
vt 0.025000 0.025000
vt 0.475000 0.025000
vt 0.475000 0.475000
vt 0.025000 0.475000
vt 0.025000 0.025000
vt 0.475000 0.025000
vt 0.475000 0.475000
vt 0.025000 0.475000
vt 0.025000 0.025000
vt 0.475000 0.025000
vt 0.475000 0.475000
vt 0.025000 0.475000
vt 0.025000 0.025000
vt 0.475000 0.025000
vt 0.475000 0.475000
vt 0.025000 0.475000
vt 0.025000 0.025000
vt 0.475000 0.025000
vt 0.475000 0.475000
vt 0.025000 0.475000
vt 0.025000 0.025000
vt 0.475000 0.025000
vt 0.475000 0.475000
vt 0.025000 0.475000
vt 0.025000 0.025000
vt 0.475000 0.025000
vt 0.475000 0.475000
vt 0.025000 0.475000
vt 0.025000 0.025000
vt 0.475000 0.025000
vt 0.475000 0.475000
vt 0.025000 0.475000
vt 0.025000 0.025000
vt 0.475000 0.025000
vt 0.475000 0.475000
vt 0.025000 0.475000
vt 0.025000 0.025000
vt 0.475000 0.025000
vt 0.475000 0.475000
vt 0.025000 0.475000
vt 0.025000 0.025000
vt 0.475000 0.025000
vt 0.475000 0.475000
vt 0.025000 0.475000
vt 0.025000 0.025000
vt 0.475000 0.025000
vt 0.475000 0.475000
vt 0.025000 0.475000
vt 0.025000 0.025000
vt 0.475000 0.025000
vt 0.475000 0.475000
vt 0.025000 0.475000
vt 0.025000 0.025000
vt 0.475000 0.025000
vt 0.475000 0.475000
vt 0.025000 0.475000
vt 0.025000 0.025000
vt 0.475000 0.025000
vt 0.475000 0.475000
vt 0.025000 0.475000
vt 0.025000 0.025000
vt 0.475000 0.025000
vt 0.475000 0.475000
vt 0.025000 0.475000
vt 0.025000 0.025000
vt 0.475000 0.025000
vt 0.475000 0.475000
vt 0.025000 0.475000
vt 0.025000 0.025000
vt 0.475000 0.025000
vt 0.475000 0.475000
vt 0.025000 0.475000
vt 0.025000 0.025000
vt 0.475000 0.025000
vt 0.475000 0.475000
vt 0.025000 0.475000
vt 0.025000 0.025000
vt 0.475000 0.025000
vt 0.475000 0.475000
vt 0.025000 0.475000
vt 0.025000 0.025000
vt 0.475000 0.025000
vt 0.475000 0.475000
vt 0.025000 0.475000
vt 0.025000 0.025000
vt 0.475000 0.025000
vt 0.475000 0.475000
vt 0.025000 0.475000
vt 0.025000 0.025000
vt 0.475000 0.025000
vt 0.475000 0.475000
vt 0.025000 0.475000
vt 0.025000 0.025000
vt 0.475000 0.025000
vt 0.475000 0.475000
vt 0.025000 0.475000
vt 0.025000 0.025000
vt 0.475000 0.025000
vt 0.475000 0.475000
vt 0.025000 0.475000
vt 0.025000 0.025000
vt 0.475000 0.025000
vt 0.475000 0.475000
vt 0.025000 0.475000
vt 0.025000 0.025000
vt 0.475000 0.025000
vt 0.475000 0.475000
vt 0.025000 0.475000
vt 0.025000 0.025000
vt 0.475000 0.025000
vt 0.475000 0.475000
vt 0.025000 0.475000
vt 0.025000 0.025000
vt 0.475000 0.025000
vt 0.475000 0.475000
vt 0.025000 0.475000
vt 0.025000 0.025000
vt 0.475000 0.025000
vt 0.475000 0.475000
vt 0.025000 0.475000
vt 0.025000 0.025000
vt 0.475000 0.025000
vt 0.475000 0.475000
vt 0.025000 0.475000
vt 0.025000 0.025000
vt 0.475000 0.025000
vt 0.475000 0.475000
vt 0.025000 0.475000
vt 0.025000 0.525000
vt 0.475000 0.525000
vt 0.475000 0.975000
vt 0.025000 0.975000
vt 0.025000 0.525000
vt 0.475000 0.525000
vt 0.475000 0.975000
vt 0.025000 0.975000
vt 0.025000 0.525000
vt 0.475000 0.525000
vt 0.475000 0.975000
vt 0.025000 0.975000
vt 0.025000 0.525000
vt 0.475000 0.525000
vt 0.475000 0.975000
vt 0.025000 0.975000
vt 0.025000 0.525000
vt 0.475000 0.525000
vt 0.475000 0.975000
vt 0.025000 0.975000
vt 0.025000 0.525000
vt 0.475000 0.525000
vt 0.475000 0.975000
vt 0.025000 0.975000
vt 0.025000 0.525000
vt 0.475000 0.525000
vt 0.475000 0.975000
vt 0.025000 0.975000
vt 0.025000 0.525000
vt 0.475000 0.525000
vt 0.475000 0.975000
vt 0.025000 0.975000
vt 0.025000 0.525000
vt 0.475000 0.525000
vt 0.475000 0.975000
vt 0.025000 0.975000
vt 0.025000 0.525000
vt 0.475000 0.525000
vt 0.475000 0.975000
vt 0.025000 0.975000
vt 0.025000 0.525000
vt 0.475000 0.525000
vt 0.475000 0.975000
vt 0.025000 0.975000
vt 0.025000 0.525000
vt 0.475000 0.525000
vt 0.475000 0.975000
vt 0.025000 0.975000
vt 0.025000 0.525000
vt 0.475000 0.525000
vt 0.475000 0.975000
vt 0.025000 0.975000
vt 0.025000 0.525000
vt 0.475000 0.525000
vt 0.475000 0.975000
vt 0.025000 0.975000
vt 0.025000 0.525000
vt 0.475000 0.525000
vt 0.475000 0.975000
vt 0.025000 0.975000
vt 0.025000 0.525000
vt 0.475000 0.525000
vt 0.475000 0.975000
vt 0.025000 0.975000
vt 0.025000 0.525000
vt 0.475000 0.525000
vt 0.475000 0.975000
vt 0.025000 0.975000
vt 0.025000 0.525000
vt 0.475000 0.525000
vt 0.475000 0.975000
vt 0.025000 0.975000
vt 0.025000 0.525000
vt 0.475000 0.525000
vt 0.475000 0.975000
vt 0.025000 0.975000
vt 0.025000 0.525000
vt 0.475000 0.525000
vt 0.475000 0.975000
vt 0.025000 0.975000
vt 0.025000 0.525000
vt 0.475000 0.525000
vt 0.475000 0.975000
vt 0.025000 0.975000
vt 0.025000 0.525000
vt 0.475000 0.525000
vt 0.475000 0.975000
vt 0.025000 0.975000
vt 0.025000 0.525000
vt 0.475000 0.525000
vt 0.475000 0.975000
vt 0.025000 0.975000
vt 0.025000 0.525000
vt 0.475000 0.525000
vt 0.475000 0.975000
vt 0.025000 0.975000
vt 0.525000 0.525000
vt 0.975000 0.525000
vt 0.975000 0.975000
vt 0.525000 0.975000
vt 0.525000 0.525000
vt 0.975000 0.525000
vt 0.975000 0.975000
vt 0.525000 0.975000
vt 0.525000 0.525000
vt 0.975000 0.525000
vt 0.975000 0.975000
vt 0.525000 0.975000
vt 0.525000 0.525000
vt 0.975000 0.525000
vt 0.975000 0.975000
vt 0.525000 0.975000
vt 0.525000 0.525000
vt 0.975000 0.525000
vt 0.975000 0.975000
vt 0.525000 0.975000
vt 0.525000 0.525000
vt 0.975000 0.525000
vt 0.975000 0.975000
vt 0.525000 0.975000
vt 0.525000 0.025000
vt 0.975000 0.025000
vt 0.975000 0.475000
vt 0.525000 0.475000
vt 0.525000 0.025000
vt 0.975000 0.025000
vt 0.975000 0.475000
vt 0.525000 0.475000
vt 0.525000 0.025000
vt 0.975000 0.025000
vt 0.975000 0.475000
vt 0.525000 0.475000
vt 0.525000 0.025000
vt 0.975000 0.025000
vt 0.975000 0.475000
vt 0.525000 0.475000
vt 0.525000 0.025000
vt 0.975000 0.025000
vt 0.975000 0.475000
vt 0.525000 0.475000
vt 0.525000 0.025000
vt 0.975000 0.025000
vt 0.975000 0.475000
vt 0.525000 0.475000
vt 0.525000 0.525000
vt 0.975000 0.525000
vt 0.975000 0.975000
vt 0.525000 0.975000
vt 0.525000 0.525000
vt 0.975000 0.525000
vt 0.975000 0.975000
vt 0.525000 0.975000
vt 0.525000 0.525000
vt 0.975000 0.525000
vt 0.975000 0.975000
vt 0.525000 0.975000
vt 0.525000 0.525000
vt 0.975000 0.525000
vt 0.975000 0.975000
vt 0.525000 0.975000
vt 0.525000 0.525000
vt 0.975000 0.525000
vt 0.975000 0.975000
vt 0.525000 0.975000
vt 0.525000 0.525000
vt 0.975000 0.525000
vt 0.975000 0.975000
vt 0.525000 0.975000
vt 0.025000 0.025000
vt 0.475000 0.025000
vt 0.475000 0.475000
vt 0.025000 0.475000
vt 0.025000 0.025000
vt 0.475000 0.025000
vt 0.475000 0.475000
vt 0.025000 0.475000
vt 0.025000 0.025000
vt 0.475000 0.025000
vt 0.475000 0.475000
vt 0.025000 0.475000
vt 0.025000 0.025000
vt 0.475000 0.025000
vt 0.475000 0.475000
vt 0.025000 0.475000
vt 0.025000 0.025000
vt 0.475000 0.025000
vt 0.475000 0.475000
vt 0.025000 0.475000
vt 0.025000 0.025000
vt 0.475000 0.025000
vt 0.475000 0.475000
vt 0.025000 0.475000
vt 0.025000 0.025000
vt 0.475000 0.025000
vt 0.475000 0.475000
vt 0.025000 0.475000
vt 0.025000 0.025000
vt 0.475000 0.025000
vt 0.475000 0.475000
vt 0.025000 0.475000
vt 0.025000 0.025000
vt 0.475000 0.025000
vt 0.475000 0.475000
vt 0.025000 0.475000
vt 0.025000 0.025000
vt 0.475000 0.025000
vt 0.475000 0.475000
vt 0.025000 0.475000
vt 0.025000 0.025000
vt 0.475000 0.025000
vt 0.475000 0.475000
vt 0.025000 0.475000
vt 0.025000 0.025000
vt 0.475000 0.025000
vt 0.475000 0.475000
vt 0.025000 0.475000
vt 0.025000 0.025000
vt 0.475000 0.025000
vt 0.475000 0.475000
vt 0.025000 0.475000
vt 0.025000 0.025000
vt 0.475000 0.025000
vt 0.475000 0.475000
vt 0.025000 0.475000
vt 0.025000 0.025000
vt 0.475000 0.025000
vt 0.475000 0.475000
vt 0.025000 0.475000
vt 0.025000 0.025000
vt 0.475000 0.025000
vt 0.475000 0.475000
vt 0.025000 0.475000
vt 0.025000 0.025000
vt 0.475000 0.025000
vt 0.475000 0.475000
vt 0.025000 0.475000
vt 0.025000 0.025000
vt 0.475000 0.025000
vt 0.475000 0.475000
vt 0.025000 0.475000
vt 0.025000 0.025000
vt 0.475000 0.025000
vt 0.475000 0.475000
vt 0.025000 0.475000
vt 0.025000 0.025000
vt 0.475000 0.025000
vt 0.475000 0.475000
vt 0.025000 0.475000
vt 0.025000 0.025000
vt 0.475000 0.025000
vt 0.475000 0.475000
vt 0.025000 0.475000
vt 0.025000 0.025000
vt 0.475000 0.025000
vt 0.475000 0.475000
vt 0.025000 0.475000
vt 0.025000 0.025000
vt 0.475000 0.025000
vt 0.475000 0.475000
vt 0.025000 0.475000
vt 0.025000 0.025000
vt 0.475000 0.025000
vt 0.475000 0.475000
vt 0.025000 0.475000
vt 0.025000 0.525000
vt 0.475000 0.525000
vt 0.475000 0.975000
vt 0.025000 0.975000
vt 0.025000 0.525000
vt 0.475000 0.525000
vt 0.475000 0.975000
vt 0.025000 0.975000
vt 0.025000 0.525000
vt 0.475000 0.525000
vt 0.475000 0.975000
vt 0.025000 0.975000
vt 0.025000 0.525000
vt 0.475000 0.525000
vt 0.475000 0.975000
vt 0.025000 0.975000
vt 0.025000 0.525000
vt 0.475000 0.525000
vt 0.475000 0.975000
vt 0.025000 0.975000
vt 0.025000 0.525000
vt 0.475000 0.525000
vt 0.475000 0.975000
vt 0.025000 0.975000
vt 0.025000 0.525000
vt 0.475000 0.525000
vt 0.475000 0.975000
vt 0.025000 0.975000
vt 0.025000 0.525000
vt 0.475000 0.525000
vt 0.475000 0.975000
vt 0.025000 0.975000
vt 0.025000 0.525000
vt 0.475000 0.525000
vt 0.475000 0.975000
vt 0.025000 0.975000
vt 0.025000 0.525000
vt 0.475000 0.525000
vt 0.475000 0.975000
vt 0.025000 0.975000
vt 0.025000 0.525000
vt 0.475000 0.525000
vt 0.475000 0.975000
vt 0.025000 0.975000
vt 0.025000 0.525000
vt 0.475000 0.525000
vt 0.475000 0.975000
vt 0.025000 0.975000
vt 0.025000 0.525000
vt 0.475000 0.525000
vt 0.475000 0.975000
vt 0.025000 0.975000
vt 0.025000 0.525000
vt 0.475000 0.525000
vt 0.475000 0.975000
vt 0.025000 0.975000
vt 0.025000 0.525000
vt 0.475000 0.525000
vt 0.475000 0.975000
vt 0.025000 0.975000
vt 0.025000 0.525000
vt 0.475000 0.525000
vt 0.475000 0.975000
vt 0.025000 0.975000
vt 0.025000 0.525000
vt 0.475000 0.525000
vt 0.475000 0.975000
vt 0.025000 0.975000
vt 0.025000 0.525000
vt 0.475000 0.525000
vt 0.475000 0.975000
vt 0.025000 0.975000
vt 0.525000 0.525000
vt 0.975000 0.525000
vt 0.975000 0.975000
vt 0.525000 0.975000
vt 0.525000 0.525000
vt 0.975000 0.525000
vt 0.975000 0.975000
vt 0.525000 0.975000
vt 0.525000 0.525000
vt 0.975000 0.525000
vt 0.975000 0.975000
vt 0.525000 0.975000
vt 0.525000 0.525000
vt 0.975000 0.525000
vt 0.975000 0.975000
vt 0.525000 0.975000
vt 0.525000 0.525000
vt 0.975000 0.525000
vt 0.975000 0.975000
vt 0.525000 0.975000
vt 0.525000 0.525000
vt 0.975000 0.525000
vt 0.975000 0.975000
vt 0.525000 0.975000
vt 0.025000 0.525000
vt 0.475000 0.525000
vt 0.475000 0.975000
vt 0.025000 0.975000
vt 0.025000 0.525000
vt 0.475000 0.525000
vt 0.475000 0.975000
vt 0.025000 0.975000
vt 0.025000 0.525000
vt 0.475000 0.525000
vt 0.475000 0.975000
vt 0.025000 0.975000
vt 0.025000 0.525000
vt 0.475000 0.525000
vt 0.475000 0.975000
vt 0.025000 0.975000
vt 0.025000 0.525000
vt 0.475000 0.525000
vt 0.475000 0.975000
vt 0.025000 0.975000
vt 0.025000 0.525000
vt 0.475000 0.525000
vt 0.475000 0.975000
vt 0.025000 0.975000
vt 0.025000 0.525000
vt 0.475000 0.525000
vt 0.475000 0.975000
vt 0.025000 0.975000
vt 0.025000 0.525000
vt 0.475000 0.525000
vt 0.475000 0.975000
vt 0.025000 0.975000
vt 0.025000 0.525000
vt 0.475000 0.525000
vt 0.475000 0.975000
vt 0.025000 0.975000
vt 0.025000 0.525000
vt 0.475000 0.525000
vt 0.475000 0.975000
vt 0.025000 0.975000
vt 0.025000 0.525000
vt 0.475000 0.525000
vt 0.475000 0.975000
vt 0.025000 0.975000
vt 0.025000 0.525000
vt 0.475000 0.525000
vt 0.475000 0.975000
vt 0.025000 0.975000
vt 0.525000 0.525000
vt 0.975000 0.525000
vt 0.975000 0.975000
vt 0.525000 0.975000
vt 0.525000 0.525000
vt 0.975000 0.525000
vt 0.975000 0.975000
vt 0.525000 0.975000
vt 0.525000 0.525000
vt 0.975000 0.525000
vt 0.975000 0.975000
vt 0.525000 0.975000
vt 0.525000 0.525000
vt 0.975000 0.525000
vt 0.975000 0.975000
vt 0.525000 0.975000
vt 0.525000 0.525000
vt 0.975000 0.525000
vt 0.975000 0.975000
vt 0.525000 0.975000
vt 0.525000 0.525000
vt 0.975000 0.525000
vt 0.975000 0.975000
vt 0.525000 0.975000
vt 0.025000 0.025000
vt 0.475000 0.025000
vt 0.475000 0.475000
vt 0.025000 0.475000
vt 0.025000 0.025000
vt 0.475000 0.025000
vt 0.475000 0.475000
vt 0.025000 0.475000
vt 0.025000 0.025000
vt 0.475000 0.025000
vt 0.475000 0.475000
vt 0.025000 0.475000
vt 0.025000 0.025000
vt 0.475000 0.025000
vt 0.475000 0.475000
vt 0.025000 0.475000
vt 0.025000 0.025000
vt 0.475000 0.025000
vt 0.475000 0.475000
vt 0.025000 0.475000
vt 0.025000 0.025000
vt 0.475000 0.025000
vt 0.475000 0.475000
vt 0.025000 0.475000
vt 0.025000 0.025000
vt 0.475000 0.025000
vt 0.475000 0.475000
vt 0.025000 0.475000
vt 0.025000 0.025000
vt 0.475000 0.025000
vt 0.475000 0.475000
vt 0.025000 0.475000
vt 0.025000 0.025000
vt 0.475000 0.025000
vt 0.475000 0.475000
vt 0.025000 0.475000
vt 0.025000 0.025000
vt 0.475000 0.025000
vt 0.475000 0.475000
vt 0.025000 0.475000
vt 0.025000 0.025000
vt 0.475000 0.025000
vt 0.475000 0.475000
vt 0.025000 0.475000
vt 0.025000 0.025000
vt 0.475000 0.025000
vt 0.475000 0.475000
vt 0.025000 0.475000
vt 0.025000 0.525000
vt 0.475000 0.525000
vt 0.475000 0.975000
vt 0.025000 0.975000
vt 0.025000 0.525000
vt 0.475000 0.525000
vt 0.475000 0.975000
vt 0.025000 0.975000
vt 0.025000 0.525000
vt 0.475000 0.525000
vt 0.475000 0.975000
vt 0.025000 0.975000
vt 0.025000 0.525000
vt 0.475000 0.525000
vt 0.475000 0.975000
vt 0.025000 0.975000
vt 0.025000 0.525000
vt 0.475000 0.525000
vt 0.475000 0.975000
vt 0.025000 0.975000
vt 0.025000 0.525000
vt 0.475000 0.525000
vt 0.475000 0.975000
vt 0.025000 0.975000
vt 0.025000 0.525000
vt 0.475000 0.525000
vt 0.475000 0.975000
vt 0.025000 0.975000
vt 0.025000 0.525000
vt 0.475000 0.525000
vt 0.475000 0.975000
vt 0.025000 0.975000
vt 0.025000 0.525000
vt 0.475000 0.525000
vt 0.475000 0.975000
vt 0.025000 0.975000
vt 0.025000 0.525000
vt 0.475000 0.525000
vt 0.475000 0.975000
vt 0.025000 0.975000
vt 0.025000 0.525000
vt 0.475000 0.525000
vt 0.475000 0.975000
vt 0.025000 0.975000
vt 0.025000 0.525000
vt 0.475000 0.525000
vt 0.475000 0.975000
vt 0.025000 0.975000
vt 0.525000 0.525000
vt 0.975000 0.525000
vt 0.975000 0.975000
vt 0.525000 0.975000
vt 0.525000 0.525000
vt 0.975000 0.525000
vt 0.975000 0.975000
vt 0.525000 0.975000
vt 0.525000 0.525000
vt 0.975000 0.525000
vt 0.975000 0.975000
vt 0.525000 0.975000
vt 0.525000 0.525000
vt 0.975000 0.525000
vt 0.975000 0.975000
vt 0.525000 0.975000
vt 0.525000 0.525000
vt 0.975000 0.525000
vt 0.975000 0.975000
vt 0.525000 0.975000
vt 0.525000 0.525000
vt 0.975000 0.525000
vt 0.975000 0.975000
vt 0.525000 0.975000
vt 0.025000 0.025000
vt 0.475000 0.025000
vt 0.475000 0.475000
vt 0.025000 0.475000
vt 0.025000 0.025000
vt 0.475000 0.025000
vt 0.475000 0.475000
vt 0.025000 0.475000
vt 0.025000 0.025000
vt 0.475000 0.025000
vt 0.475000 0.475000
vt 0.025000 0.475000
vt 0.025000 0.025000
vt 0.475000 0.025000
vt 0.475000 0.475000
vt 0.025000 0.475000
vt 0.025000 0.025000
vt 0.475000 0.025000
vt 0.475000 0.475000
vt 0.025000 0.475000
vt 0.025000 0.025000
vt 0.475000 0.025000
vt 0.475000 0.475000
vt 0.025000 0.475000
vt 0.025000 0.025000
vt 0.475000 0.025000
vt 0.475000 0.475000
vt 0.025000 0.475000
vt 0.025000 0.025000
vt 0.475000 0.025000
vt 0.475000 0.475000
vt 0.025000 0.475000
vt 0.025000 0.025000
vt 0.475000 0.025000
vt 0.475000 0.475000
vt 0.025000 0.475000
vt 0.025000 0.025000
vt 0.475000 0.025000
vt 0.475000 0.475000
vt 0.025000 0.475000
vt 0.025000 0.025000
vt 0.475000 0.025000
vt 0.475000 0.475000
vt 0.025000 0.475000
vt 0.025000 0.025000
vt 0.475000 0.025000
vt 0.475000 0.475000
vt 0.025000 0.475000
vt 0.025000 0.025000
vt 0.475000 0.025000
vt 0.475000 0.475000
vt 0.025000 0.475000
vt 0.025000 0.025000
vt 0.475000 0.025000
vt 0.475000 0.475000
vt 0.025000 0.475000
vt 0.025000 0.025000
vt 0.475000 0.025000
vt 0.475000 0.475000
vt 0.025000 0.475000
vt 0.025000 0.025000
vt 0.475000 0.025000
vt 0.475000 0.475000
vt 0.025000 0.475000
vt 0.025000 0.025000
vt 0.475000 0.025000
vt 0.475000 0.475000
vt 0.025000 0.475000
vt 0.025000 0.025000
vt 0.475000 0.025000
vt 0.475000 0.475000
vt 0.025000 0.475000
vt 0.025000 0.025000
vt 0.475000 0.025000
vt 0.475000 0.475000
vt 0.025000 0.475000
vt 0.025000 0.025000
vt 0.475000 0.025000
vt 0.475000 0.475000
vt 0.025000 0.475000
vt 0.025000 0.025000
vt 0.475000 0.025000
vt 0.475000 0.475000
vt 0.025000 0.475000
vt 0.025000 0.025000
vt 0.475000 0.025000
vt 0.475000 0.475000
vt 0.025000 0.475000
vt 0.025000 0.025000
vt 0.475000 0.025000
vt 0.475000 0.475000
vt 0.025000 0.475000
vt 0.025000 0.025000
vt 0.475000 0.025000
vt 0.475000 0.475000
vt 0.025000 0.475000
vt 0.025000 0.025000
vt 0.475000 0.025000
vt 0.475000 0.475000
vt 0.025000 0.475000
vt 0.025000 0.025000
vt 0.475000 0.025000
vt 0.475000 0.475000
vt 0.025000 0.475000
vt 0.025000 0.025000
vt 0.475000 0.025000
vt 0.475000 0.475000
vt 0.025000 0.475000
vt 0.025000 0.025000
vt 0.475000 0.025000
vt 0.475000 0.475000
vt 0.025000 0.475000
vt 0.025000 0.025000
vt 0.475000 0.025000
vt 0.475000 0.475000
vt 0.025000 0.475000
vt 0.025000 0.025000
vt 0.475000 0.025000
vt 0.475000 0.475000
vt 0.025000 0.475000
vt 0.025000 0.025000
vt 0.475000 0.025000
vt 0.475000 0.475000
vt 0.025000 0.475000
vt 0.025000 0.025000
vt 0.475000 0.025000
vt 0.475000 0.475000
vt 0.025000 0.475000
vt 0.025000 0.025000
vt 0.475000 0.025000
vt 0.475000 0.475000
vt 0.025000 0.475000
vt 0.025000 0.025000
vt 0.475000 0.025000
vt 0.475000 0.475000
vt 0.025000 0.475000
vt 0.025000 0.025000
vt 0.475000 0.025000
vt 0.475000 0.475000
vt 0.025000 0.475000
vt 0.025000 0.025000
vt 0.475000 0.025000
vt 0.475000 0.475000
vt 0.025000 0.475000
vt 0.025000 0.025000
vt 0.475000 0.025000
vt 0.475000 0.475000
vt 0.025000 0.475000
vt 0.025000 0.025000
vt 0.475000 0.025000
vt 0.475000 0.475000
vt 0.025000 0.475000
vt 0.025000 0.025000
vt 0.475000 0.025000
vt 0.475000 0.475000
vt 0.025000 0.475000
vt 0.025000 0.025000
vt 0.475000 0.025000
vt 0.475000 0.475000
vt 0.025000 0.475000
vt 0.025000 0.025000
vt 0.475000 0.025000
vt 0.475000 0.475000
vt 0.025000 0.475000
vt 0.025000 0.025000
vt 0.475000 0.025000
vt 0.475000 0.475000
vt 0.025000 0.475000
vt 0.025000 0.025000
vt 0.475000 0.025000
vt 0.475000 0.475000
vt 0.025000 0.475000
vt 0.025000 0.025000
vt 0.475000 0.025000
vt 0.475000 0.475000
vt 0.025000 0.475000
vt 0.025000 0.025000
vt 0.475000 0.025000
vt 0.475000 0.475000
vt 0.025000 0.475000
vt 0.025000 0.025000
vt 0.475000 0.025000
vt 0.475000 0.475000
vt 0.025000 0.475000
vt 0.025000 0.025000
vt 0.475000 0.025000
vt 0.475000 0.475000
vt 0.025000 0.475000
vt 0.025000 0.025000
vt 0.475000 0.025000
vt 0.475000 0.475000
vt 0.025000 0.475000
vt 0.025000 0.025000
vt 0.475000 0.025000
vt 0.475000 0.475000
vt 0.025000 0.475000
vt 0.025000 0.025000
vt 0.475000 0.025000
vt 0.475000 0.475000
vt 0.025000 0.475000
vt 0.025000 0.025000
vt 0.475000 0.025000
vt 0.475000 0.475000
vt 0.025000 0.475000
vt 0.025000 0.025000
vt 0.475000 0.025000
vt 0.475000 0.475000
vt 0.025000 0.475000
vt 0.025000 0.025000
vt 0.475000 0.025000
vt 0.475000 0.475000
vt 0.025000 0.475000
vt 0.025000 0.025000
vt 0.475000 0.025000
vt 0.475000 0.475000
vt 0.025000 0.475000
vt 0.025000 0.025000
vt 0.475000 0.025000
vt 0.475000 0.475000
vt 0.025000 0.475000
vt 0.025000 0.025000
vt 0.475000 0.025000
vt 0.475000 0.475000
vt 0.025000 0.475000
vt 0.025000 0.025000
vt 0.475000 0.025000
vt 0.475000 0.475000
vt 0.025000 0.475000
vt 0.025000 0.025000
vt 0.475000 0.025000
vt 0.475000 0.475000
vt 0.025000 0.475000
vt 0.025000 0.025000
vt 0.475000 0.025000
vt 0.475000 0.475000
vt 0.025000 0.475000
vt 0.025000 0.025000
vt 0.475000 0.025000
vt 0.475000 0.475000
vt 0.025000 0.475000
vt 0.025000 0.025000
vt 0.475000 0.025000
vt 0.475000 0.475000
vt 0.025000 0.475000
vt 0.025000 0.025000
vt 0.475000 0.025000
vt 0.475000 0.475000
vt 0.025000 0.475000
vt 0.025000 0.025000
vt 0.475000 0.025000
vt 0.475000 0.475000
vt 0.025000 0.475000
vt 0.025000 0.025000
vt 0.475000 0.025000
vt 0.475000 0.475000
vt 0.025000 0.475000
vt 0.025000 0.025000
vt 0.475000 0.025000
vt 0.475000 0.475000
vt 0.025000 0.475000
vt 0.025000 0.025000
vt 0.475000 0.025000
vt 0.475000 0.475000
vt 0.025000 0.475000
vt 0.025000 0.525000
vt 0.475000 0.525000
vt 0.475000 0.975000
vt 0.025000 0.975000
vt 0.025000 0.525000
vt 0.475000 0.525000
vt 0.475000 0.975000
vt 0.025000 0.975000
vt 0.025000 0.525000
vt 0.475000 0.525000
vt 0.475000 0.975000
vt 0.025000 0.975000
vt 0.025000 0.525000
vt 0.475000 0.525000
vt 0.475000 0.975000
vt 0.025000 0.975000
vt 0.025000 0.525000
vt 0.475000 0.525000
vt 0.475000 0.975000
vt 0.025000 0.975000
vt 0.025000 0.525000
vt 0.475000 0.525000
vt 0.475000 0.975000
vt 0.025000 0.975000
vt 0.025000 0.525000
vt 0.475000 0.525000
vt 0.475000 0.975000
vt 0.025000 0.975000
vt 0.025000 0.525000
vt 0.475000 0.525000
vt 0.475000 0.975000
vt 0.025000 0.975000
vt 0.025000 0.525000
vt 0.475000 0.525000
vt 0.475000 0.975000
vt 0.025000 0.975000
vt 0.025000 0.525000
vt 0.475000 0.525000
vt 0.475000 0.975000
vt 0.025000 0.975000
vt 0.025000 0.525000
vt 0.475000 0.525000
vt 0.475000 0.975000
vt 0.025000 0.975000
vt 0.025000 0.525000
vt 0.475000 0.525000
vt 0.475000 0.975000
vt 0.025000 0.975000
vt 0.025000 0.525000
vt 0.475000 0.525000
vt 0.475000 0.975000
vt 0.025000 0.975000
vt 0.025000 0.525000
vt 0.475000 0.525000
vt 0.475000 0.975000
vt 0.025000 0.975000
vt 0.025000 0.525000
vt 0.475000 0.525000
vt 0.475000 0.975000
vt 0.025000 0.975000
vt 0.025000 0.525000
vt 0.475000 0.525000
vt 0.475000 0.975000
vt 0.025000 0.975000
vt 0.025000 0.525000
vt 0.475000 0.525000
vt 0.475000 0.975000
vt 0.025000 0.975000
vt 0.025000 0.525000
vt 0.475000 0.525000
vt 0.475000 0.975000
vt 0.025000 0.975000
vt 0.525000 0.525000
vt 0.975000 0.525000
vt 0.975000 0.975000
vt 0.525000 0.975000
vt 0.525000 0.525000
vt 0.975000 0.525000
vt 0.975000 0.975000
vt 0.525000 0.975000
vt 0.525000 0.525000
vt 0.975000 0.525000
vt 0.975000 0.975000
vt 0.525000 0.975000
vt 0.525000 0.525000
vt 0.975000 0.525000
vt 0.975000 0.975000
vt 0.525000 0.975000
vt 0.525000 0.525000
vt 0.975000 0.525000
vt 0.975000 0.975000
vt 0.525000 0.975000
vt 0.525000 0.525000
vt 0.975000 0.525000
vt 0.975000 0.975000
vt 0.525000 0.975000
vt 0.025000 0.525000
vt 0.475000 0.525000
vt 0.475000 0.975000
vt 0.025000 0.975000
vt 0.025000 0.525000
vt 0.475000 0.525000
vt 0.475000 0.975000
vt 0.025000 0.975000
vt 0.025000 0.525000
vt 0.475000 0.525000
vt 0.475000 0.975000
vt 0.025000 0.975000
vt 0.025000 0.525000
vt 0.475000 0.525000
vt 0.475000 0.975000
vt 0.025000 0.975000
vt 0.025000 0.525000
vt 0.475000 0.525000
vt 0.475000 0.975000
vt 0.025000 0.975000
vt 0.025000 0.525000
vt 0.475000 0.525000
vt 0.475000 0.975000
vt 0.025000 0.975000
vt 0.025000 0.525000
vt 0.475000 0.525000
vt 0.475000 0.975000
vt 0.025000 0.975000
vt 0.025000 0.525000
vt 0.475000 0.525000
vt 0.475000 0.975000
vt 0.025000 0.975000
vt 0.025000 0.525000
vt 0.475000 0.525000
vt 0.475000 0.975000
vt 0.025000 0.975000
vt 0.025000 0.525000
vt 0.475000 0.525000
vt 0.475000 0.975000
vt 0.025000 0.975000
vt 0.025000 0.525000
vt 0.475000 0.525000
vt 0.475000 0.975000
vt 0.025000 0.975000
vt 0.025000 0.525000
vt 0.475000 0.525000
vt 0.475000 0.975000
vt 0.025000 0.975000
vt 0.525000 0.525000
vt 0.975000 0.525000
vt 0.975000 0.975000
vt 0.525000 0.975000
vt 0.525000 0.525000
vt 0.975000 0.525000
vt 0.975000 0.975000
vt 0.525000 0.975000
vt 0.525000 0.525000
vt 0.975000 0.525000
vt 0.975000 0.975000
vt 0.525000 0.975000
vt 0.525000 0.525000
vt 0.975000 0.525000
vt 0.975000 0.975000
vt 0.525000 0.975000
vt 0.525000 0.525000
vt 0.975000 0.525000
vt 0.975000 0.975000
vt 0.525000 0.975000
vt 0.525000 0.525000
vt 0.975000 0.525000
vt 0.975000 0.975000
vt 0.525000 0.975000
vt 0.025000 0.525000
vt 0.475000 0.525000
vt 0.475000 0.975000
vt 0.025000 0.975000
vt 0.025000 0.525000
vt 0.475000 0.525000
vt 0.475000 0.975000
vt 0.025000 0.975000
vt 0.025000 0.525000
vt 0.475000 0.525000
vt 0.475000 0.975000
vt 0.025000 0.975000
vt 0.025000 0.525000
vt 0.475000 0.525000
vt 0.475000 0.975000
vt 0.025000 0.975000
vt 0.025000 0.525000
vt 0.475000 0.525000
vt 0.475000 0.975000
vt 0.025000 0.975000
vt 0.025000 0.525000
vt 0.475000 0.525000
vt 0.475000 0.975000
vt 0.025000 0.975000
vt 0.025000 0.525000
vt 0.475000 0.525000
vt 0.475000 0.975000
vt 0.025000 0.975000
vt 0.025000 0.525000
vt 0.475000 0.525000
vt 0.475000 0.975000
vt 0.025000 0.975000
vt 0.025000 0.525000
vt 0.475000 0.525000
vt 0.475000 0.975000
vt 0.025000 0.975000
vt 0.025000 0.525000
vt 0.475000 0.525000
vt 0.475000 0.975000
vt 0.025000 0.975000
vt 0.025000 0.525000
vt 0.475000 0.525000
vt 0.475000 0.975000
vt 0.025000 0.975000
vt 0.025000 0.525000
vt 0.475000 0.525000
vt 0.475000 0.975000
vt 0.025000 0.975000
vt 0.025000 0.525000
vt 0.475000 0.525000
vt 0.475000 0.975000
vt 0.025000 0.975000
vt 0.025000 0.525000
vt 0.475000 0.525000
vt 0.475000 0.975000
vt 0.025000 0.975000
vt 0.025000 0.525000
vt 0.475000 0.525000
vt 0.475000 0.975000
vt 0.025000 0.975000
vt 0.025000 0.525000
vt 0.475000 0.525000
vt 0.475000 0.975000
vt 0.025000 0.975000
vt 0.025000 0.525000
vt 0.475000 0.525000
vt 0.475000 0.975000
vt 0.025000 0.975000
vt 0.025000 0.525000
vt 0.475000 0.525000
vt 0.475000 0.975000
vt 0.025000 0.975000
vt 0.025000 0.525000
vt 0.475000 0.525000
vt 0.475000 0.975000
vt 0.025000 0.975000
vt 0.025000 0.525000
vt 0.475000 0.525000
vt 0.475000 0.975000
vt 0.025000 0.975000
vt 0.025000 0.525000
vt 0.475000 0.525000
vt 0.475000 0.975000
vt 0.025000 0.975000
vt 0.025000 0.525000
vt 0.475000 0.525000
vt 0.475000 0.975000
vt 0.025000 0.975000
vt 0.025000 0.525000
vt 0.475000 0.525000
vt 0.475000 0.975000
vt 0.025000 0.975000
vt 0.025000 0.525000
vt 0.475000 0.525000
vt 0.475000 0.975000
vt 0.025000 0.975000
vt 0.525000 0.525000
vt 0.975000 0.525000
vt 0.975000 0.975000
vt 0.525000 0.975000
vt 0.525000 0.525000
vt 0.975000 0.525000
vt 0.975000 0.975000
vt 0.525000 0.975000
vt 0.525000 0.525000
vt 0.975000 0.525000
vt 0.975000 0.975000
vt 0.525000 0.975000
vt 0.525000 0.525000
vt 0.975000 0.525000
vt 0.975000 0.975000
vt 0.525000 0.975000
vt 0.525000 0.525000
vt 0.975000 0.525000
vt 0.975000 0.975000
vt 0.525000 0.975000
vt 0.525000 0.525000
vt 0.975000 0.525000
vt 0.975000 0.975000
vt 0.525000 0.975000
vt 0.025000 0.025000
vt 0.475000 0.025000
vt 0.475000 0.475000
vt 0.025000 0.475000
vt 0.025000 0.025000
vt 0.475000 0.025000
vt 0.475000 0.475000
vt 0.025000 0.475000
vt 0.025000 0.025000
vt 0.475000 0.025000
vt 0.475000 0.475000
vt 0.025000 0.475000
vt 0.025000 0.025000
vt 0.475000 0.025000
vt 0.475000 0.475000
vt 0.025000 0.475000
vt 0.025000 0.025000
vt 0.475000 0.025000
vt 0.475000 0.475000
vt 0.025000 0.475000
vt 0.025000 0.025000
vt 0.475000 0.025000
vt 0.475000 0.475000
vt 0.025000 0.475000
vt 0.025000 0.025000
vt 0.475000 0.025000
vt 0.475000 0.475000
vt 0.025000 0.475000
vt 0.025000 0.025000
vt 0.475000 0.025000
vt 0.475000 0.475000
vt 0.025000 0.475000
vt 0.025000 0.025000
vt 0.475000 0.025000
vt 0.475000 0.475000
vt 0.025000 0.475000
vt 0.025000 0.025000
vt 0.475000 0.025000
vt 0.475000 0.475000
vt 0.025000 0.475000
vt 0.025000 0.025000
vt 0.475000 0.025000
vt 0.475000 0.475000
vt 0.025000 0.475000
vt 0.025000 0.025000
vt 0.475000 0.025000
vt 0.475000 0.475000
vt 0.025000 0.475000
vt 0.025000 0.025000
vt 0.475000 0.025000
vt 0.475000 0.475000
vt 0.025000 0.475000
vt 0.025000 0.025000
vt 0.475000 0.025000
vt 0.475000 0.475000
vt 0.025000 0.475000
vt 0.025000 0.025000
vt 0.475000 0.025000
vt 0.475000 0.475000
vt 0.025000 0.475000
vt 0.025000 0.025000
vt 0.475000 0.025000
vt 0.475000 0.475000
vt 0.025000 0.475000
vt 0.025000 0.025000
vt 0.475000 0.025000
vt 0.475000 0.475000
vt 0.025000 0.475000
vt 0.025000 0.025000
vt 0.475000 0.025000
vt 0.475000 0.475000
vt 0.025000 0.475000
vt 0.025000 0.525000
vt 0.475000 0.525000
vt 0.475000 0.975000
vt 0.025000 0.975000
vt 0.025000 0.525000
vt 0.475000 0.525000
vt 0.475000 0.975000
vt 0.025000 0.975000
vt 0.025000 0.525000
vt 0.475000 0.525000
vt 0.475000 0.975000
vt 0.025000 0.975000
vt 0.025000 0.525000
vt 0.475000 0.525000
vt 0.475000 0.975000
vt 0.025000 0.975000
vt 0.025000 0.525000
vt 0.475000 0.525000
vt 0.475000 0.975000
vt 0.025000 0.975000
vt 0.025000 0.525000
vt 0.475000 0.525000
vt 0.475000 0.975000
vt 0.025000 0.975000
vt 0.025000 0.025000
vt 0.475000 0.025000
vt 0.475000 0.475000
vt 0.025000 0.475000
vt 0.025000 0.025000
vt 0.475000 0.025000
vt 0.475000 0.475000
vt 0.025000 0.475000
vt 0.025000 0.025000
vt 0.475000 0.025000
vt 0.475000 0.475000
vt 0.025000 0.475000
vt 0.025000 0.025000
vt 0.475000 0.025000
vt 0.475000 0.475000
vt 0.025000 0.475000
vt 0.025000 0.025000
vt 0.475000 0.025000
vt 0.475000 0.475000
vt 0.025000 0.475000
vt 0.025000 0.025000
vt 0.475000 0.025000
vt 0.475000 0.475000
vt 0.025000 0.475000
vt 0.025000 0.025000
vt 0.475000 0.025000
vt 0.475000 0.475000
vt 0.025000 0.475000
vt 0.025000 0.025000
vt 0.475000 0.025000
vt 0.475000 0.475000
vt 0.025000 0.475000
vt 0.025000 0.025000
vt 0.475000 0.025000
vt 0.475000 0.475000
vt 0.025000 0.475000
vt 0.025000 0.025000
vt 0.475000 0.025000
vt 0.475000 0.475000
vt 0.025000 0.475000
vt 0.025000 0.025000
vt 0.475000 0.025000
vt 0.475000 0.475000
vt 0.025000 0.475000
vt 0.025000 0.025000
vt 0.475000 0.025000
vt 0.475000 0.475000
vt 0.025000 0.475000
vt 0.025000 0.025000
vt 0.475000 0.025000
vt 0.475000 0.475000
vt 0.025000 0.475000
vt 0.025000 0.025000
vt 0.475000 0.025000
vt 0.475000 0.475000
vt 0.025000 0.475000
vt 0.025000 0.025000
vt 0.475000 0.025000
vt 0.475000 0.475000
vt 0.025000 0.475000
vt 0.025000 0.025000
vt 0.475000 0.025000
vt 0.475000 0.475000
vt 0.025000 0.475000
vt 0.025000 0.025000
vt 0.475000 0.025000
vt 0.475000 0.475000
vt 0.025000 0.475000
vt 0.025000 0.025000
vt 0.475000 0.025000
vt 0.475000 0.475000
vt 0.025000 0.475000
vt 0.025000 0.025000
vt 0.475000 0.025000
vt 0.475000 0.475000
vt 0.025000 0.475000
vt 0.025000 0.025000
vt 0.475000 0.025000
vt 0.475000 0.475000
vt 0.025000 0.475000
vt 0.025000 0.025000
vt 0.475000 0.025000
vt 0.475000 0.475000
vt 0.025000 0.475000
vt 0.025000 0.025000
vt 0.475000 0.025000
vt 0.475000 0.475000
vt 0.025000 0.475000
vt 0.025000 0.025000
vt 0.475000 0.025000
vt 0.475000 0.475000
vt 0.025000 0.475000
vt 0.025000 0.025000
vt 0.475000 0.025000
vt 0.475000 0.475000
vt 0.025000 0.475000
vt 0.025000 0.025000
vt 0.475000 0.025000
vt 0.475000 0.475000
vt 0.025000 0.475000
vt 0.025000 0.025000
vt 0.475000 0.025000
vt 0.475000 0.475000
vt 0.025000 0.475000
vt 0.025000 0.025000
vt 0.475000 0.025000
vt 0.475000 0.475000
vt 0.025000 0.475000
vt 0.025000 0.025000
vt 0.475000 0.025000
vt 0.475000 0.475000
vt 0.025000 0.475000
vt 0.025000 0.025000
vt 0.475000 0.025000
vt 0.475000 0.475000
vt 0.025000 0.475000
vt 0.025000 0.025000
vt 0.475000 0.025000
vt 0.475000 0.475000
vt 0.025000 0.475000
vt 0.025000 0.025000
vt 0.475000 0.025000
vt 0.475000 0.475000
vt 0.025000 0.475000
vt 0.025000 0.025000
vt 0.475000 0.025000
vt 0.475000 0.475000
vt 0.025000 0.475000
vt 0.025000 0.025000
vt 0.475000 0.025000
vt 0.475000 0.475000
vt 0.025000 0.475000
vt 0.025000 0.025000
vt 0.475000 0.025000
vt 0.475000 0.475000
vt 0.025000 0.475000
vt 0.025000 0.025000
vt 0.475000 0.025000
vt 0.475000 0.475000
vt 0.025000 0.475000
vt 0.025000 0.025000
vt 0.475000 0.025000
vt 0.475000 0.475000
vt 0.025000 0.475000
vt 0.025000 0.025000
vt 0.475000 0.025000
vt 0.475000 0.475000
vt 0.025000 0.475000
vt 0.025000 0.025000
vt 0.475000 0.025000
vt 0.475000 0.475000
vt 0.025000 0.475000
vt 0.025000 0.025000
vt 0.475000 0.025000
vt 0.475000 0.475000
vt 0.025000 0.475000
vt 0.025000 0.025000
vt 0.475000 0.025000
vt 0.475000 0.475000
vt 0.025000 0.475000
vt 0.025000 0.025000
vt 0.475000 0.025000
vt 0.475000 0.475000
vt 0.025000 0.475000
vt 0.025000 0.025000
vt 0.475000 0.025000
vt 0.475000 0.475000
vt 0.025000 0.475000
vt 0.025000 0.025000
vt 0.475000 0.025000
vt 0.475000 0.475000
vt 0.025000 0.475000
vt 0.025000 0.025000
vt 0.475000 0.025000
vt 0.475000 0.475000
vt 0.025000 0.475000
vt 0.025000 0.025000
vt 0.475000 0.025000
vt 0.475000 0.475000
vt 0.025000 0.475000
vt 0.025000 0.025000
vt 0.475000 0.025000
vt 0.475000 0.475000
vt 0.025000 0.475000
vt 0.025000 0.025000
vt 0.475000 0.025000
vt 0.475000 0.475000
vt 0.025000 0.475000
vt 0.025000 0.025000
vt 0.475000 0.025000
vt 0.475000 0.475000
vt 0.025000 0.475000
vt 0.025000 0.025000
vt 0.475000 0.025000
vt 0.475000 0.475000
vt 0.025000 0.475000
vt 0.025000 0.025000
vt 0.475000 0.025000
vt 0.475000 0.475000
vt 0.025000 0.475000
vt 0.025000 0.025000
vt 0.475000 0.025000
vt 0.475000 0.475000
vt 0.025000 0.475000
vt 0.025000 0.025000
vt 0.475000 0.025000
vt 0.475000 0.475000
vt 0.025000 0.475000
vt 0.025000 0.025000
vt 0.475000 0.025000
vt 0.475000 0.475000
vt 0.025000 0.475000
vt 0.025000 0.025000
vt 0.475000 0.025000
vt 0.475000 0.475000
vt 0.025000 0.475000
vt 0.025000 0.025000
vt 0.475000 0.025000
vt 0.475000 0.475000
vt 0.025000 0.475000
vt 0.025000 0.025000
vt 0.475000 0.025000
vt 0.475000 0.475000
vt 0.025000 0.475000
vt 0.025000 0.025000
vt 0.475000 0.025000
vt 0.475000 0.475000
vt 0.025000 0.475000
vt 0.025000 0.025000
vt 0.475000 0.025000
vt 0.475000 0.475000
vt 0.025000 0.475000
vt 0.025000 0.025000
vt 0.475000 0.025000
vt 0.475000 0.475000
vt 0.025000 0.475000
vt 0.025000 0.025000
vt 0.475000 0.025000
vt 0.475000 0.475000
vt 0.025000 0.475000
vt 0.025000 0.025000
vt 0.475000 0.025000
vt 0.475000 0.475000
vt 0.025000 0.475000
vt 0.025000 0.025000
vt 0.475000 0.025000
vt 0.475000 0.475000
vt 0.025000 0.475000
vt 0.025000 0.025000
vt 0.475000 0.025000
vt 0.475000 0.475000
vt 0.025000 0.475000
vt 0.025000 0.025000
vt 0.475000 0.025000
vt 0.475000 0.475000
vt 0.025000 0.475000
vt 0.025000 0.025000
vt 0.475000 0.025000
vt 0.475000 0.475000
vt 0.025000 0.475000
vt 0.025000 0.025000
vt 0.475000 0.025000
vt 0.475000 0.475000
vt 0.025000 0.475000
vt 0.025000 0.025000
vt 0.475000 0.025000
vt 0.475000 0.475000
vt 0.025000 0.475000
vt 0.025000 0.025000
vt 0.475000 0.025000
vt 0.475000 0.475000
vt 0.025000 0.475000
vt 0.025000 0.025000
vt 0.475000 0.025000
vt 0.475000 0.475000
vt 0.025000 0.475000
vt 0.025000 0.025000
vt 0.475000 0.025000
vt 0.475000 0.475000
vt 0.025000 0.475000
vt 0.025000 0.025000
vt 0.475000 0.025000
vt 0.475000 0.475000
vt 0.025000 0.475000
vt 0.025000 0.025000
vt 0.475000 0.025000
vt 0.475000 0.475000
vt 0.025000 0.475000
vt 0.025000 0.025000
vt 0.475000 0.025000
vt 0.475000 0.475000
vt 0.025000 0.475000
vt 0.025000 0.025000
vt 0.475000 0.025000
vt 0.475000 0.475000
vt 0.025000 0.475000
vt 0.025000 0.025000
vt 0.475000 0.025000
vt 0.475000 0.475000
vt 0.025000 0.475000
vt 0.025000 0.025000
vt 0.475000 0.025000
vt 0.475000 0.475000
vt 0.025000 0.475000
vt 0.025000 0.025000
vt 0.475000 0.025000
vt 0.475000 0.475000
vt 0.025000 0.475000
vt 0.025000 0.025000
vt 0.475000 0.025000
vt 0.475000 0.475000
vt 0.025000 0.475000
vt 0.025000 0.025000
vt 0.475000 0.025000
vt 0.475000 0.475000
vt 0.025000 0.475000
vt 0.025000 0.025000
vt 0.475000 0.025000
vt 0.475000 0.475000
vt 0.025000 0.475000
vt 0.025000 0.025000
vt 0.475000 0.025000
vt 0.475000 0.475000
vt 0.025000 0.475000
vt 0.025000 0.025000
vt 0.475000 0.025000
vt 0.475000 0.475000
vt 0.025000 0.475000
vt 0.025000 0.025000
vt 0.475000 0.025000
vt 0.475000 0.475000
vt 0.025000 0.475000
vt 0.025000 0.025000
vt 0.475000 0.025000
vt 0.475000 0.475000
vt 0.025000 0.475000
vt 0.025000 0.025000
vt 0.475000 0.025000
vt 0.475000 0.475000
vt 0.025000 0.475000
vt 0.025000 0.025000
vt 0.475000 0.025000
vt 0.475000 0.475000
vt 0.025000 0.475000
vt 0.025000 0.025000
vt 0.475000 0.025000
vt 0.475000 0.475000
vt 0.025000 0.475000
vt 0.025000 0.025000
vt 0.475000 0.025000
vt 0.475000 0.475000
vt 0.025000 0.475000
vt 0.025000 0.025000
vt 0.475000 0.025000
vt 0.475000 0.475000
vt 0.025000 0.475000
vt 0.025000 0.025000
vt 0.475000 0.025000
vt 0.475000 0.475000
vt 0.025000 0.475000
vt 0.525000 0.025000
vt 0.975000 0.025000
vt 0.975000 0.475000
vt 0.525000 0.475000
vt 0.525000 0.025000
vt 0.975000 0.025000
vt 0.975000 0.475000
vt 0.525000 0.475000
vt 0.525000 0.025000
vt 0.975000 0.025000
vt 0.975000 0.475000
vt 0.525000 0.475000
vt 0.525000 0.025000
vt 0.975000 0.025000
vt 0.975000 0.475000
vt 0.525000 0.475000
vt 0.525000 0.025000
vt 0.975000 0.025000
vt 0.975000 0.475000
vt 0.525000 0.475000
vt 0.525000 0.025000
vt 0.975000 0.025000
vt 0.975000 0.475000
vt 0.525000 0.475000
vt 0.025000 0.525000
vt 0.475000 0.525000
vt 0.475000 0.975000
vt 0.025000 0.975000
vt 0.025000 0.525000
vt 0.475000 0.525000
vt 0.475000 0.975000
vt 0.025000 0.975000
vt 0.025000 0.525000
vt 0.475000 0.525000
vt 0.475000 0.975000
vt 0.025000 0.975000
vt 0.025000 0.525000
vt 0.475000 0.525000
vt 0.475000 0.975000
vt 0.025000 0.975000
vt 0.025000 0.525000
vt 0.475000 0.525000
vt 0.475000 0.975000
vt 0.025000 0.975000
vt 0.025000 0.525000
vt 0.475000 0.525000
vt 0.475000 0.975000
vt 0.025000 0.975000
vt 0.025000 0.025000
vt 0.475000 0.025000
vt 0.475000 0.475000
vt 0.025000 0.475000
vt 0.025000 0.025000
vt 0.475000 0.025000
vt 0.475000 0.475000
vt 0.025000 0.475000
vt 0.025000 0.025000
vt 0.475000 0.025000
vt 0.475000 0.475000
vt 0.025000 0.475000
vt 0.025000 0.025000
vt 0.475000 0.025000
vt 0.475000 0.475000
vt 0.025000 0.475000
vt 0.025000 0.025000
vt 0.475000 0.025000
vt 0.475000 0.475000
vt 0.025000 0.475000
vt 0.025000 0.025000
vt 0.475000 0.025000
vt 0.475000 0.475000
vt 0.025000 0.475000
vt 0.025000 0.025000
vt 0.475000 0.025000
vt 0.475000 0.475000
vt 0.025000 0.475000
vt 0.025000 0.025000
vt 0.475000 0.025000
vt 0.475000 0.475000
vt 0.025000 0.475000
vt 0.025000 0.025000
vt 0.475000 0.025000
vt 0.475000 0.475000
vt 0.025000 0.475000
vt 0.025000 0.025000
vt 0.475000 0.025000
vt 0.475000 0.475000
vt 0.025000 0.475000
vt 0.025000 0.025000
vt 0.475000 0.025000
vt 0.475000 0.475000
vt 0.025000 0.475000
vt 0.025000 0.025000
vt 0.475000 0.025000
vt 0.475000 0.475000
vt 0.025000 0.475000
vt 0.025000 0.025000
vt 0.475000 0.025000
vt 0.475000 0.475000
vt 0.025000 0.475000
vt 0.025000 0.025000
vt 0.475000 0.025000
vt 0.475000 0.475000
vt 0.025000 0.475000
vt 0.025000 0.025000
vt 0.475000 0.025000
vt 0.475000 0.475000
vt 0.025000 0.475000
vt 0.025000 0.025000
vt 0.475000 0.025000
vt 0.475000 0.475000
vt 0.025000 0.475000
vt 0.025000 0.025000
vt 0.475000 0.025000
vt 0.475000 0.475000
vt 0.025000 0.475000
vt 0.025000 0.025000
vt 0.475000 0.025000
vt 0.475000 0.475000
vt 0.025000 0.475000
vt 0.025000 0.525000
vt 0.475000 0.525000
vt 0.475000 0.975000
vt 0.025000 0.975000
vt 0.025000 0.525000
vt 0.475000 0.525000
vt 0.475000 0.975000
vt 0.025000 0.975000
vt 0.025000 0.525000
vt 0.475000 0.525000
vt 0.475000 0.975000
vt 0.025000 0.975000
vt 0.025000 0.525000
vt 0.475000 0.525000
vt 0.475000 0.975000
vt 0.025000 0.975000
vt 0.025000 0.525000
vt 0.475000 0.525000
vt 0.475000 0.975000
vt 0.025000 0.975000
vt 0.025000 0.525000
vt 0.475000 0.525000
vt 0.475000 0.975000
vt 0.025000 0.975000
f 1/1 4/2 3/3 2/4
f 5/5 6/6 7/7 8/8
f 1/9 5/10 8/11 4/12
f 2/13 3/14 7/15 6/16
f 1/17 2/18 6/19 5/20
f 4/21 8/22 7/23 3/24
f 9/25 12/26 11/27 10/28
f 13/29 14/30 15/31 16/32
f 9/33 13/34 16/35 12/36
f 10/37 11/38 15/39 14/40
f 9/41 10/42 14/43 13/44
f 12/45 16/46 15/47 11/48
f 17/49 20/50 19/51 18/52
f 21/53 22/54 23/55 24/56
f 17/57 21/58 24/59 20/60
f 18/61 19/62 23/63 22/64
f 17/65 18/66 22/67 21/68
f 20/69 24/70 23/71 19/72
f 25/73 28/74 27/75 26/76
f 29/77 30/78 31/79 32/80
f 25/81 29/82 32/83 28/84
f 26/85 27/86 31/87 30/88
f 25/89 26/90 30/91 29/92
f 28/93 32/94 31/95 27/96
f 33/97 36/98 35/99 34/100
f 37/101 38/102 39/103 40/104
f 33/105 37/106 40/107 36/108
f 34/109 35/110 39/111 38/112
f 33/113 34/114 38/115 37/116
f 36/117 40/118 39/119 35/120
f 41/121 44/122 43/123 42/124
f 45/125 46/126 47/127 48/128
f 41/129 45/130 48/131 44/132
f 42/133 43/134 47/135 46/136
f 41/137 42/138 46/139 45/140
f 44/141 48/142 47/143 43/144
f 49/145 52/146 51/147 50/148
f 53/149 54/150 55/151 56/152
f 49/153 53/154 56/155 52/156
f 50/157 51/158 55/159 54/160
f 49/161 50/162 54/163 53/164
f 52/165 56/166 55/167 51/168
f 57/169 60/170 59/171 58/172
f 61/173 62/174 63/175 64/176
f 57/177 61/178 64/179 60/180
f 58/181 59/182 63/183 62/184
f 57/185 58/186 62/187 61/188
f 60/189 64/190 63/191 59/192
f 65/193 68/194 67/195 66/196
f 69/197 70/198 71/199 72/200
f 65/201 69/202 72/203 68/204
f 66/205 67/206 71/207 70/208
f 65/209 66/210 70/211 69/212
f 68/213 72/214 71/215 67/216
f 73/217 76/218 75/219 74/220
f 77/221 78/222 79/223 80/224
f 73/225 77/226 80/227 76/228
f 74/229 75/230 79/231 78/232
f 73/233 74/234 78/235 77/236
f 76/237 80/238 79/239 75/240
f 81/241 84/242 83/243 82/244
f 85/245 86/246 87/247 88/248
f 81/249 85/250 88/251 84/252
f 82/253 83/254 87/255 86/256
f 81/257 82/258 86/259 85/260
f 84/261 88/262 87/263 83/264
f 89/265 92/266 91/267 90/268
f 93/269 94/270 95/271 96/272
f 89/273 93/274 96/275 92/276
f 90/277 91/278 95/279 94/280
f 89/281 90/282 94/283 93/284
f 92/285 96/286 95/287 91/288
f 97/289 100/290 99/291 98/292
f 101/293 102/294 103/295 104/296
f 97/297 101/298 104/299 100/300
f 98/301 99/302 103/303 102/304
f 97/305 98/306 102/307 101/308
f 100/309 104/310 103/311 99/312
f 105/313 108/314 107/315 106/316
f 109/317 110/318 111/319 112/320
f 105/321 109/322 112/323 108/324
f 106/325 107/326 111/327 110/328
f 105/329 106/330 110/331 109/332
f 108/333 112/334 111/335 107/336
f 113/337 116/338 115/339 114/340
f 117/341 118/342 119/343 120/344
f 113/345 117/346 120/347 116/348
f 114/349 115/350 119/351 118/352
f 113/353 114/354 118/355 117/356
f 116/357 120/358 119/359 115/360
f 121/361 124/362 123/363 122/364
f 125/365 126/366 127/367 128/368
f 121/369 125/370 128/371 124/372
f 122/373 123/374 127/375 126/376
f 121/377 122/378 126/379 125/380
f 124/381 128/382 127/383 123/384
f 129/385 132/386 131/387 130/388
f 133/389 134/390 135/391 136/392
f 129/393 133/394 136/395 132/396
f 130/397 131/398 135/399 134/400
f 129/401 130/402 134/403 133/404
f 132/405 136/406 135/407 131/408
f 137/409 140/410 139/411 138/412
f 141/413 142/414 143/415 144/416
f 137/417 141/418 144/419 140/420
f 138/421 139/422 143/423 142/424
f 137/425 138/426 142/427 141/428
f 140/429 144/430 143/431 139/432
f 145/433 148/434 147/435 146/436
f 149/437 150/438 151/439 152/440
f 145/441 149/442 152/443 148/444
f 146/445 147/446 151/447 150/448
f 145/449 146/450 150/451 149/452
f 148/453 152/454 151/455 147/456
f 153/457 156/458 155/459 154/460
f 157/461 158/462 159/463 160/464
f 153/465 157/466 160/467 156/468
f 154/469 155/470 159/471 158/472
f 153/473 154/474 158/475 157/476
f 156/477 160/478 159/479 155/480
f 161/481 164/482 163/483 162/484
f 165/485 166/486 167/487 168/488
f 161/489 165/490 168/491 164/492
f 162/493 163/494 167/495 166/496
f 161/497 162/498 166/499 165/500
f 164/501 168/502 167/503 163/504
f 169/505 172/506 171/507 170/508
f 173/509 174/510 175/511 176/512
f 169/513 173/514 176/515 172/516
f 170/517 171/518 175/519 174/520
f 169/521 170/522 174/523 173/524
f 172/525 176/526 175/527 171/528
f 177/529 180/530 179/531 178/532
f 181/533 182/534 183/535 184/536
f 177/537 181/538 184/539 180/540
f 178/541 179/542 183/543 182/544
f 177/545 178/546 182/547 181/548
f 180/549 184/550 183/551 179/552
f 185/553 188/554 187/555 186/556
f 189/557 190/558 191/559 192/560
f 185/561 189/562 192/563 188/564
f 186/565 187/566 191/567 190/568
f 185/569 186/570 190/571 189/572
f 188/573 192/574 191/575 187/576
f 193/577 196/578 195/579 194/580
f 197/581 198/582 199/583 200/584
f 193/585 197/586 200/587 196/588
f 194/589 195/590 199/591 198/592
f 193/593 194/594 198/595 197/596
f 196/597 200/598 199/599 195/600
f 201/601 204/602 203/603 202/604
f 205/605 206/606 207/607 208/608
f 201/609 205/610 208/611 204/612
f 202/613 203/614 207/615 206/616
f 201/617 202/618 206/619 205/620
f 204/621 208/622 207/623 203/624
f 209/625 212/626 211/627 210/628
f 213/629 214/630 215/631 216/632
f 209/633 213/634 216/635 212/636
f 210/637 211/638 215/639 214/640
f 209/641 210/642 214/643 213/644
f 212/645 216/646 215/647 211/648
f 217/649 220/650 219/651 218/652
f 221/653 222/654 223/655 224/656
f 217/657 221/658 224/659 220/660
f 218/661 219/662 223/663 222/664
f 217/665 218/666 222/667 221/668
f 220/669 224/670 223/671 219/672
f 225/673 228/674 227/675 226/676
f 229/677 230/678 231/679 232/680
f 225/681 229/682 232/683 228/684
f 226/685 227/686 231/687 230/688
f 225/689 226/690 230/691 229/692
f 228/693 232/694 231/695 227/696
f 233/697 236/698 235/699 234/700
f 237/701 238/702 239/703 240/704
f 233/705 237/706 240/707 236/708
f 234/709 235/710 239/711 238/712
f 233/713 234/714 238/715 237/716
f 236/717 240/718 239/719 235/720
f 241/721 244/722 243/723 242/724
f 245/725 246/726 247/727 248/728
f 241/729 245/730 248/731 244/732
f 242/733 243/734 247/735 246/736
f 241/737 242/738 246/739 245/740
f 244/741 248/742 247/743 243/744
f 249/745 252/746 251/747 250/748
f 253/749 254/750 255/751 256/752
f 249/753 253/754 256/755 252/756
f 250/757 251/758 255/759 254/760
f 249/761 250/762 254/763 253/764
f 252/765 256/766 255/767 251/768
f 257/769 260/770 259/771 258/772
f 261/773 262/774 263/775 264/776
f 257/777 261/778 264/779 260/780
f 258/781 259/782 263/783 262/784
f 257/785 258/786 262/787 261/788
f 260/789 264/790 263/791 259/792
f 265/793 268/794 267/795 266/796
f 269/797 270/798 271/799 272/800
f 265/801 269/802 272/803 268/804
f 266/805 267/806 271/807 270/808
f 265/809 266/810 270/811 269/812
f 268/813 272/814 271/815 267/816
f 273/817 276/818 275/819 274/820
f 277/821 278/822 279/823 280/824
f 273/825 277/826 280/827 276/828
f 274/829 275/830 279/831 278/832
f 273/833 274/834 278/835 277/836
f 276/837 280/838 279/839 275/840
f 281/841 284/842 283/843 282/844
f 285/845 286/846 287/847 288/848
f 281/849 285/850 288/851 284/852
f 282/853 283/854 287/855 286/856
f 281/857 282/858 286/859 285/860
f 284/861 288/862 287/863 283/864
f 289/865 292/866 291/867 290/868
f 293/869 294/870 295/871 296/872
f 289/873 293/874 296/875 292/876
f 290/877 291/878 295/879 294/880
f 289/881 290/882 294/883 293/884
f 292/885 296/886 295/887 291/888
f 297/889 300/890 299/891 298/892
f 301/893 302/894 303/895 304/896
f 297/897 301/898 304/899 300/900
f 298/901 299/902 303/903 302/904
f 297/905 298/906 302/907 301/908
f 300/909 304/910 303/911 299/912
f 305/913 308/914 307/915 306/916
f 309/917 310/918 311/919 312/920
f 305/921 309/922 312/923 308/924
f 306/925 307/926 311/927 310/928
f 305/929 306/930 310/931 309/932
f 308/933 312/934 311/935 307/936
f 313/937 316/938 315/939 314/940
f 317/941 318/942 319/943 320/944
f 313/945 317/946 320/947 316/948
f 314/949 315/950 319/951 318/952
f 313/953 314/954 318/955 317/956
f 316/957 320/958 319/959 315/960
f 321/961 324/962 323/963 322/964
f 325/965 326/966 327/967 328/968
f 321/969 325/970 328/971 324/972
f 322/973 323/974 327/975 326/976
f 321/977 322/978 326/979 325/980
f 324/981 328/982 327/983 323/984
f 329/985 332/986 331/987 330/988
f 333/989 334/990 335/991 336/992
f 329/993 333/994 336/995 332/996
f 330/997 331/998 335/999 334/1000
f 329/1001 330/1002 334/1003 333/1004
f 332/1005 336/1006 335/1007 331/1008
f 337/1009 340/1010 339/1011 338/1012
f 341/1013 342/1014 343/1015 344/1016
f 337/1017 341/1018 344/1019 340/1020
f 338/1021 339/1022 343/1023 342/1024
f 337/1025 338/1026 342/1027 341/1028
f 340/1029 344/1030 343/1031 339/1032
f 345/1033 348/1034 347/1035 346/1036
f 349/1037 350/1038 351/1039 352/1040
f 345/1041 349/1042 352/1043 348/1044
f 346/1045 347/1046 351/1047 350/1048
f 345/1049 346/1050 350/1051 349/1052
f 348/1053 352/1054 351/1055 347/1056
f 353/1057 356/1058 355/1059 354/1060
f 357/1061 358/1062 359/1063 360/1064
f 353/1065 357/1066 360/1067 356/1068
f 354/1069 355/1070 359/1071 358/1072
f 353/1073 354/1074 358/1075 357/1076
f 356/1077 360/1078 359/1079 355/1080
f 361/1081 364/1082 363/1083 362/1084
f 365/1085 366/1086 367/1087 368/1088
f 361/1089 365/1090 368/1091 364/1092
f 362/1093 363/1094 367/1095 366/1096
f 361/1097 362/1098 366/1099 365/1100
f 364/1101 368/1102 367/1103 363/1104
f 369/1105 372/1106 371/1107 370/1108
f 373/1109 374/1110 375/1111 376/1112
f 369/1113 373/1114 376/1115 372/1116
f 370/1117 371/1118 375/1119 374/1120
f 369/1121 370/1122 374/1123 373/1124
f 372/1125 376/1126 375/1127 371/1128
f 377/1129 380/1130 379/1131 378/1132
f 381/1133 382/1134 383/1135 384/1136
f 377/1137 381/1138 384/1139 380/1140
f 378/1141 379/1142 383/1143 382/1144
f 377/1145 378/1146 382/1147 381/1148
f 380/1149 384/1150 383/1151 379/1152
f 385/1153 388/1154 387/1155 386/1156
f 389/1157 390/1158 391/1159 392/1160
f 385/1161 389/1162 392/1163 388/1164
f 386/1165 387/1166 391/1167 390/1168
f 385/1169 386/1170 390/1171 389/1172
f 388/1173 392/1174 391/1175 387/1176
f 393/1177 396/1178 395/1179 394/1180
f 397/1181 398/1182 399/1183 400/1184
f 393/1185 397/1186 400/1187 396/1188
f 394/1189 395/1190 399/1191 398/1192
f 393/1193 394/1194 398/1195 397/1196
f 396/1197 400/1198 399/1199 395/1200
f 401/1201 404/1202 403/1203 402/1204
f 405/1205 406/1206 407/1207 408/1208
f 401/1209 405/1210 408/1211 404/1212
f 402/1213 403/1214 407/1215 406/1216
f 401/1217 402/1218 406/1219 405/1220
f 404/1221 408/1222 407/1223 403/1224
f 409/1225 412/1226 411/1227 410/1228
f 413/1229 414/1230 415/1231 416/1232
f 409/1233 413/1234 416/1235 412/1236
f 410/1237 411/1238 415/1239 414/1240
f 409/1241 410/1242 414/1243 413/1244
f 412/1245 416/1246 415/1247 411/1248
f 417/1249 420/1250 419/1251 418/1252
f 421/1253 422/1254 423/1255 424/1256
f 417/1257 421/1258 424/1259 420/1260
f 418/1261 419/1262 423/1263 422/1264
f 417/1265 418/1266 422/1267 421/1268
f 420/1269 424/1270 423/1271 419/1272
f 425/1273 428/1274 427/1275 426/1276
f 429/1277 430/1278 431/1279 432/1280
f 425/1281 429/1282 432/1283 428/1284
f 426/1285 427/1286 431/1287 430/1288
f 425/1289 426/1290 430/1291 429/1292
f 428/1293 432/1294 431/1295 427/1296
f 433/1297 436/1298 435/1299 434/1300
f 437/1301 438/1302 439/1303 440/1304
f 433/1305 437/1306 440/1307 436/1308
f 434/1309 435/1310 439/1311 438/1312
f 433/1313 434/1314 438/1315 437/1316
f 436/1317 440/1318 439/1319 435/1320
f 441/1321 444/1322 443/1323 442/1324
f 445/1325 446/1326 447/1327 448/1328
f 441/1329 445/1330 448/1331 444/1332
f 442/1333 443/1334 447/1335 446/1336
f 441/1337 442/1338 446/1339 445/1340
f 444/1341 448/1342 447/1343 443/1344
f 449/1345 452/1346 451/1347 450/1348
f 453/1349 454/1350 455/1351 456/1352
f 449/1353 453/1354 456/1355 452/1356
f 450/1357 451/1358 455/1359 454/1360
f 449/1361 450/1362 454/1363 453/1364
f 452/1365 456/1366 455/1367 451/1368
f 457/1369 460/1370 459/1371 458/1372
f 461/1373 462/1374 463/1375 464/1376
f 457/1377 461/1378 464/1379 460/1380
f 458/1381 459/1382 463/1383 462/1384
f 457/1385 458/1386 462/1387 461/1388
f 460/1389 464/1390 463/1391 459/1392
f 465/1393 468/1394 467/1395 466/1396
f 469/1397 470/1398 471/1399 472/1400
f 465/1401 469/1402 472/1403 468/1404
f 466/1405 467/1406 471/1407 470/1408
f 465/1409 466/1410 470/1411 469/1412
f 468/1413 472/1414 471/1415 467/1416
f 473/1417 476/1418 475/1419 474/1420
f 477/1421 478/1422 479/1423 480/1424
f 473/1425 477/1426 480/1427 476/1428
f 474/1429 475/1430 479/1431 478/1432
f 473/1433 474/1434 478/1435 477/1436
f 476/1437 480/1438 479/1439 475/1440
f 481/1441 484/1442 483/1443 482/1444
f 485/1445 486/1446 487/1447 488/1448
f 481/1449 485/1450 488/1451 484/1452
f 482/1453 483/1454 487/1455 486/1456
f 481/1457 482/1458 486/1459 485/1460
f 484/1461 488/1462 487/1463 483/1464
f 489/1465 492/1466 491/1467 490/1468
f 493/1469 494/1470 495/1471 496/1472
f 489/1473 493/1474 496/1475 492/1476
f 490/1477 491/1478 495/1479 494/1480
f 489/1481 490/1482 494/1483 493/1484
f 492/1485 496/1486 495/1487 491/1488
f 497/1489 500/1490 499/1491 498/1492
f 501/1493 502/1494 503/1495 504/1496
f 497/1497 501/1498 504/1499 500/1500
f 498/1501 499/1502 503/1503 502/1504
f 497/1505 498/1506 502/1507 501/1508
f 500/1509 504/1510 503/1511 499/1512
f 505/1513 508/1514 507/1515 506/1516
f 509/1517 510/1518 511/1519 512/1520
f 505/1521 509/1522 512/1523 508/1524
f 506/1525 507/1526 511/1527 510/1528
f 505/1529 506/1530 510/1531 509/1532
f 508/1533 512/1534 511/1535 507/1536
f 513/1537 516/1538 515/1539 514/1540
f 517/1541 518/1542 519/1543 520/1544
f 513/1545 517/1546 520/1547 516/1548
f 514/1549 515/1550 519/1551 518/1552
f 513/1553 514/1554 518/1555 517/1556
f 516/1557 520/1558 519/1559 515/1560
f 521/1561 524/1562 523/1563 522/1564
f 525/1565 526/1566 527/1567 528/1568
f 521/1569 525/1570 528/1571 524/1572
f 522/1573 523/1574 527/1575 526/1576
f 521/1577 522/1578 526/1579 525/1580
f 524/1581 528/1582 527/1583 523/1584
f 529/1585 532/1586 531/1587 530/1588
f 533/1589 534/1590 535/1591 536/1592
f 529/1593 533/1594 536/1595 532/1596
f 530/1597 531/1598 535/1599 534/1600
f 529/1601 530/1602 534/1603 533/1604
f 532/1605 536/1606 535/1607 531/1608
f 537/1609 540/1610 539/1611 538/1612
f 541/1613 542/1614 543/1615 544/1616
f 537/1617 541/1618 544/1619 540/1620
f 538/1621 539/1622 543/1623 542/1624
f 537/1625 538/1626 542/1627 541/1628
f 540/1629 544/1630 543/1631 539/1632
f 545/1633 548/1634 547/1635 546/1636
f 549/1637 550/1638 551/1639 552/1640
f 545/1641 549/1642 552/1643 548/1644
f 546/1645 547/1646 551/1647 550/1648
f 545/1649 546/1650 550/1651 549/1652
f 548/1653 552/1654 551/1655 547/1656
f 553/1657 556/1658 555/1659 554/1660
f 557/1661 558/1662 559/1663 560/1664
f 553/1665 557/1666 560/1667 556/1668
f 554/1669 555/1670 559/1671 558/1672
f 553/1673 554/1674 558/1675 557/1676
f 556/1677 560/1678 559/1679 555/1680
f 561/1681 564/1682 563/1683 562/1684
f 565/1685 566/1686 567/1687 568/1688
f 561/1689 565/1690 568/1691 564/1692
f 562/1693 563/1694 567/1695 566/1696
f 561/1697 562/1698 566/1699 565/1700
f 564/1701 568/1702 567/1703 563/1704
f 569/1705 572/1706 571/1707 570/1708
f 573/1709 574/1710 575/1711 576/1712
f 569/1713 573/1714 576/1715 572/1716
f 570/1717 571/1718 575/1719 574/1720
f 569/1721 570/1722 574/1723 573/1724
f 572/1725 576/1726 575/1727 571/1728
f 577/1729 580/1730 579/1731 578/1732
f 581/1733 582/1734 583/1735 584/1736
f 577/1737 581/1738 584/1739 580/1740
f 578/1741 579/1742 583/1743 582/1744
f 577/1745 578/1746 582/1747 581/1748
f 580/1749 584/1750 583/1751 579/1752
f 585/1753 588/1754 587/1755 586/1756
f 589/1757 590/1758 591/1759 592/1760
f 585/1761 589/1762 592/1763 588/1764
f 586/1765 587/1766 591/1767 590/1768
f 585/1769 586/1770 590/1771 589/1772
f 588/1773 592/1774 591/1775 587/1776
f 593/1777 596/1778 595/1779 594/1780
f 597/1781 598/1782 599/1783 600/1784
f 593/1785 597/1786 600/1787 596/1788
f 594/1789 595/1790 599/1791 598/1792
f 593/1793 594/1794 598/1795 597/1796
f 596/1797 600/1798 599/1799 595/1800
f 601/1801 604/1802 603/1803 602/1804
f 605/1805 606/1806 607/1807 608/1808
f 601/1809 605/1810 608/1811 604/1812
f 602/1813 603/1814 607/1815 606/1816
f 601/1817 602/1818 606/1819 605/1820
f 604/1821 608/1822 607/1823 603/1824
f 609/1825 612/1826 611/1827 610/1828
f 613/1829 614/1830 615/1831 616/1832
f 609/1833 613/1834 616/1835 612/1836
f 610/1837 611/1838 615/1839 614/1840
f 609/1841 610/1842 614/1843 613/1844
f 612/1845 616/1846 615/1847 611/1848
f 617/1849 620/1850 619/1851 618/1852
f 621/1853 622/1854 623/1855 624/1856
f 617/1857 621/1858 624/1859 620/1860
f 618/1861 619/1862 623/1863 622/1864
f 617/1865 618/1866 622/1867 621/1868
f 620/1869 624/1870 623/1871 619/1872
f 625/1873 628/1874 627/1875 626/1876
f 629/1877 630/1878 631/1879 632/1880
f 625/1881 629/1882 632/1883 628/1884
f 626/1885 627/1886 631/1887 630/1888
f 625/1889 626/1890 630/1891 629/1892
f 628/1893 632/1894 631/1895 627/1896
f 633/1897 636/1898 635/1899 634/1900
f 637/1901 638/1902 639/1903 640/1904
f 633/1905 637/1906 640/1907 636/1908
f 634/1909 635/1910 639/1911 638/1912
f 633/1913 634/1914 638/1915 637/1916
f 636/1917 640/1918 639/1919 635/1920
f 641/1921 644/1922 643/1923 642/1924
f 645/1925 646/1926 647/1927 648/1928
f 641/1929 645/1930 648/1931 644/1932
f 642/1933 643/1934 647/1935 646/1936
f 641/1937 642/1938 646/1939 645/1940
f 644/1941 648/1942 647/1943 643/1944
f 649/1945 652/1946 651/1947 650/1948
f 653/1949 654/1950 655/1951 656/1952
f 649/1953 653/1954 656/1955 652/1956
f 650/1957 651/1958 655/1959 654/1960
f 649/1961 650/1962 654/1963 653/1964
f 652/1965 656/1966 655/1967 651/1968
