mtllib TorusSettlementFarm_A64.mtl
v -8.7476933 0.1739827 9.5000000
v -6.5615268 0.0978709 9.5000000
v -6.5615268 0.0978709 -9.5000000
v -8.7476933 0.1739827 -9.5000000
v -6.5615268 0.0978709 9.5000000
v -4.3747116 0.0435000 9.5000000
v -4.3747116 0.0435000 -9.5000000
v -6.5615268 0.0978709 -9.5000000
v -4.3747116 0.0435000 9.5000000
v -2.1874640 0.0108753 9.5000000
v -2.1874640 0.0108753 -9.5000000
v -4.3747116 0.0435000 -9.5000000
v -2.1874640 0.0108753 9.5000000
v 0.0000000 0.0000000 9.5000000
v 0.0000000 0.0000000 -9.5000000
v -2.1874640 0.0108753 -9.5000000
v 0.0000000 0.0000000 9.5000000
v 2.1874640 0.0108753 9.5000000
v 2.1874640 0.0108753 -9.5000000
v 0.0000000 0.0000000 -9.5000000
v 2.1874640 0.0108753 9.5000000
v 4.3747116 0.0435000 9.5000000
v 4.3747116 0.0435000 -9.5000000
v 2.1874640 0.0108753 -9.5000000
v 4.3747116 0.0435000 9.5000000
v 6.5615268 0.0978709 9.5000000
v 6.5615268 0.0978709 -9.5000000
v 4.3747116 0.0435000 -9.5000000
v 6.5615268 0.0978709 9.5000000
v 8.7476933 0.1739827 9.5000000
v 8.7476933 0.1739827 -9.5000000
v 6.5615268 0.0978709 -9.5000000
v -8.7471963 0.1864729 -9.1500000
v -6.5611540 0.1103654 -9.1500000
v -6.5611540 0.1103654 -9.5000000
v -8.7471963 0.1864729 -9.5000000
v -6.5611540 0.1103654 -9.1500000
v -4.3744631 0.0559975 -9.1500000
v -4.3744631 0.0559975 -9.5000000
v -6.5611540 0.1103654 -9.5000000
v -4.3744631 0.0559975 -9.1500000
v -2.1873397 0.0233746 -9.1500000
v -2.1873397 0.0233746 -9.5000000
v -4.3744631 0.0559975 -9.5000000
v -2.1873397 0.0233746 -9.1500000
v 0.0000000 0.0125000 -9.1500000
v 0.0000000 0.0125000 -9.5000000
v -2.1873397 0.0233746 -9.5000000
v 0.0000000 0.0125000 -9.1500000
v 2.1873397 0.0233746 -9.1500000
v 2.1873397 0.0233746 -9.5000000
v 0.0000000 0.0125000 -9.5000000
v 2.1873397 0.0233746 -9.1500000
v 4.3744631 0.0559975 -9.1500000
v 4.3744631 0.0559975 -9.5000000
v 2.1873397 0.0233746 -9.5000000
v 4.3744631 0.0559975 -9.1500000
v 6.5611540 0.1103654 -9.1500000
v 6.5611540 0.1103654 -9.5000000
v 4.3744631 0.0559975 -9.5000000
v 6.5611540 0.1103654 -9.1500000
v 8.7471963 0.1864729 -9.1500000
v 8.7471963 0.1864729 -9.5000000
v 6.5611540 0.1103654 -9.5000000
v -8.7471963 0.1864729 9.5000000
v -6.5611540 0.1103654 9.5000000
v -6.5611540 0.1103654 9.1500000
v -8.7471963 0.1864729 9.1500000
v -6.5611540 0.1103654 9.5000000
v -4.3744631 0.0559975 9.5000000
v -4.3744631 0.0559975 9.1500000
v -6.5611540 0.1103654 9.1500000
v -4.3744631 0.0559975 9.5000000
v -2.1873397 0.0233746 9.5000000
v -2.1873397 0.0233746 9.1500000
v -4.3744631 0.0559975 9.1500000
v -2.1873397 0.0233746 9.5000000
v 0.0000000 0.0125000 9.5000000
v 0.0000000 0.0125000 9.1500000
v -2.1873397 0.0233746 9.1500000
v 0.0000000 0.0125000 9.5000000
v 2.1873397 0.0233746 9.5000000
v 2.1873397 0.0233746 9.1500000
v 0.0000000 0.0125000 9.1500000
v 2.1873397 0.0233746 9.5000000
v 4.3744631 0.0559975 9.5000000
v 4.3744631 0.0559975 9.1500000
v 2.1873397 0.0233746 9.1500000
v 4.3744631 0.0559975 9.5000000
v 6.5611540 0.1103654 9.5000000
v 6.5611540 0.1103654 9.1500000
v 4.3744631 0.0559975 9.1500000
v 6.5611540 0.1103654 9.5000000
v 8.7471963 0.1864729 9.5000000
v 8.7471963 0.1864729 9.1500000
v 6.5611540 0.1103654 9.1500000
v -0.2999829 0.0127045 9.5000000
v 0.2999829 0.0127045 9.5000000
v 0.2999829 0.0127045 -9.5000000
v -0.2999829 0.0127045 -9.5000000
v -7.7508565 0.7744754 -1.4250000
v -2.0191036 0.6467925 -1.4250000
v -2.0191036 0.6467925 -7.3150000
v -7.7508565 0.7744754 -7.3150000
v -7.7508565 0.7744754 -7.3150000
v -2.0191036 0.6467925 -7.3150000
v -2.0248564 0.0218190 -7.3150000
v -7.7729400 0.1498657 -7.3150000
v -2.0191036 0.6467925 -7.3150000
v -2.0191036 0.6467925 -1.4250000
v -2.0248564 0.0218190 -1.4250000
v -2.0248564 0.0218190 -7.3150000
v -2.0191036 0.6467925 -1.4250000
v -7.7508565 0.7744754 -1.4250000
v -7.7729400 0.1498657 -1.4250000
v -2.0248564 0.0218190 -1.4250000
v -7.7508565 0.7744754 -1.4250000
v -7.7508565 0.7744754 -7.3150000
v -7.7729400 0.1498657 -7.3150000
v -7.7729400 0.1498657 -1.4250000
v -7.7704514 0.9252633 -4.3700000
v -5.8449739 0.8654376 -4.3700000
v -5.8489734 0.7154909 -7.3400000
v -7.7757684 0.7753576 -7.3400000
v -7.7757684 0.7753576 -1.4000000
v -5.8489734 0.7154909 -1.4000000
v -5.8449739 0.8654376 -4.3700000
v -7.7704514 0.9252633 -4.3700000
v -5.8449739 0.8654376 -4.3700000
v -3.9190450 0.8225348 -4.3700000
v -3.9217267 0.6725588 -7.3400000
v -5.8489734 0.7154909 -7.3400000
v -5.8489734 0.7154909 -1.4000000
v -3.9217267 0.6725588 -1.4000000
v -3.9190450 0.8225348 -4.3700000
v -5.8449739 0.8654376 -4.3700000
v -3.9190450 0.8225348 -4.3700000
v -1.9928135 0.7965583 -4.3700000
v -1.9941771 0.6465645 -7.3400000
v -3.9217267 0.6725588 -7.3400000
v -3.9217267 0.6725588 -1.4000000
v -1.9941771 0.6465645 -1.4000000
v -1.9928135 0.7965583 -4.3700000
v -3.9190450 0.8225348 -4.3700000
v -7.7727633 0.1548626 -1.1750000
v -5.8571751 0.0954893 -1.1750000
v -5.8571751 0.0954893 -1.4000000
v -7.7727633 0.1548626 -1.4000000
v -5.8571751 0.0954893 -1.1750000
v -3.9411423 0.0528070 -1.1750000
v -3.9411423 0.0528070 -1.4000000
v -5.8571751 0.0954893 -1.4000000
v -3.9411423 0.0528070 -1.1750000
v -2.0248103 0.0268188 -1.1750000
v -2.0248103 0.0268188 -1.4000000
v -3.9411423 0.0528070 -1.4000000
v 2.0191036 0.6467925 -1.4250000
v 7.7508565 0.7744754 -1.4250000
v 7.7508565 0.7744754 -7.3150000
v 2.0191036 0.6467925 -7.3150000
v 2.0191036 0.6467925 -7.3150000
v 7.7508565 0.7744754 -7.3150000
v 7.7729400 0.1498657 -7.3150000
v 2.0248564 0.0218190 -7.3150000
v 7.7508565 0.7744754 -7.3150000
v 7.7508565 0.7744754 -1.4250000
v 7.7729400 0.1498657 -1.4250000
v 7.7729400 0.1498657 -7.3150000
v 7.7508565 0.7744754 -1.4250000
v 2.0191036 0.6467925 -1.4250000
v 2.0248564 0.0218190 -1.4250000
v 7.7729400 0.1498657 -1.4250000
v 2.0191036 0.6467925 -1.4250000
v 2.0191036 0.6467925 -7.3150000
v 2.0248564 0.0218190 -7.3150000
v 2.0248564 0.0218190 -1.4250000
v 1.9928135 0.7965583 -4.3700000
v 3.9190450 0.8225348 -4.3700000
v 3.9217267 0.6725588 -7.3400000
v 1.9941771 0.6465645 -7.3400000
v 1.9941771 0.6465645 -1.4000000
v 3.9217267 0.6725588 -1.4000000
v 3.9190450 0.8225348 -4.3700000
v 1.9928135 0.7965583 -4.3700000
v 3.9190450 0.8225348 -4.3700000
v 5.8449739 0.8654376 -4.3700000
v 5.8489734 0.7154909 -7.3400000
v 3.9217267 0.6725588 -7.3400000
v 3.9217267 0.6725588 -1.4000000
v 5.8489734 0.7154909 -1.4000000
v 5.8449739 0.8654376 -4.3700000
v 3.9190450 0.8225348 -4.3700000
v 5.8449739 0.8654376 -4.3700000
v 7.7704514 0.9252633 -4.3700000
v 7.7757684 0.7753576 -7.3400000
v 5.8489734 0.7154909 -7.3400000
v 5.8489734 0.7154909 -1.4000000
v 7.7757684 0.7753576 -1.4000000
v 7.7704514 0.9252633 -4.3700000
v 5.8449739 0.8654376 -4.3700000
v 2.0248103 0.0268188 -1.1750000
v 3.9411423 0.0528070 -1.1750000
v 3.9411423 0.0528070 -1.4000000
v 2.0248103 0.0268188 -1.4000000
v 3.9411423 0.0528070 -1.1750000
v 5.8571751 0.0954893 -1.1750000
v 5.8571751 0.0954893 -1.4000000
v 3.9411423 0.0528070 -1.4000000
v 5.8571751 0.0954893 -1.1750000
v 7.7727633 0.1548626 -1.1750000
v 7.7727633 0.1548626 -1.4000000
v 5.8571751 0.0954893 -1.4000000
v -8.3965277 0.1978168 9.1500000
v -6.3792677 0.1300240 9.1500000
v -6.3792677 0.1300240 2.2800000
v -8.3965277 0.1978168 2.2800000
v -6.3792677 0.1300240 9.1500000
v -4.3614705 0.0807444 9.1500000
v -4.3614705 0.0807444 2.2800000
v -6.3792677 0.1300240 2.2800000
v -4.3614705 0.0807444 9.1500000
v -2.3433062 0.0499822 9.1500000
v -2.3433062 0.0499822 2.2800000
v -4.3614705 0.0807444 2.2800000
v -2.3433062 0.0499822 9.1500000
v -0.3249445 0.0377400 9.1500000
v -0.3249445 0.0377400 2.2800000
v -2.3433062 0.0499822 2.2800000
v 0.3249445 0.0377400 9.1500000
v 2.3433062 0.0499822 9.1500000
v 2.3433062 0.0499822 2.2800000
v 0.3249445 0.0377400 2.2800000
v 2.3433062 0.0499822 9.1500000
v 4.3614705 0.0807444 9.1500000
v 4.3614705 0.0807444 2.2800000
v 2.3433062 0.0499822 2.2800000
v 4.3614705 0.0807444 9.1500000
v 6.3792677 0.1300240 9.1500000
v 6.3792677 0.1300240 2.2800000
v 4.3614705 0.0807444 2.2800000
v 6.3792677 0.1300240 9.1500000
v 8.3965277 0.1978168 9.1500000
v 8.3965277 0.1978168 2.2800000
v 6.3792677 0.1300240 2.2800000
v -7.3952417 0.2243862 3.4675000
v -2.3988615 0.1130848 3.4675000
v -2.3988615 0.1130848 2.9925000
v -7.3952417 0.2243862 2.9925000
v -7.3952417 0.2243862 2.9925000
v -2.3988615 0.1130848 2.9925000
v -2.3998160 0.0255900 2.9925000
v -7.3981843 0.1369357 2.9925000
v -2.3988615 0.1130848 2.9925000
v -2.3988615 0.1130848 3.4675000
v -2.3998160 0.0255900 3.4675000
v -2.3998160 0.0255900 2.9925000
v -2.3988615 0.1130848 3.4675000
v -7.3952417 0.2243862 3.4675000
v -7.3981843 0.1369357 3.4675000
v -2.3998160 0.0255900 3.4675000
v -7.3952417 0.2243862 3.4675000
v -7.3952417 0.2243862 2.9925000
v -7.3981843 0.1369357 2.9925000
v -7.3981843 0.1369357 3.4675000
v 2.3988615 0.1130848 3.4675000
v 7.3952417 0.2243862 3.4675000
v 7.3952417 0.2243862 2.9925000
v 2.3988615 0.1130848 2.9925000
v 2.3988615 0.1130848 2.9925000
v 7.3952417 0.2243862 2.9925000
v 7.3981843 0.1369357 2.9925000
v 2.3998160 0.0255900 2.9925000
v 7.3952417 0.2243862 2.9925000
v 7.3952417 0.2243862 3.4675000
v 7.3981843 0.1369357 3.4675000
v 7.3981843 0.1369357 2.9925000
v 7.3952417 0.2243862 3.4675000
v 2.3988615 0.1130848 3.4675000
v 2.3998160 0.0255900 3.4675000
v 7.3981843 0.1369357 3.4675000
v 2.3988615 0.1130848 3.4675000
v 2.3988615 0.1130848 2.9925000
v 2.3998160 0.0255900 2.9925000
v 2.3998160 0.0255900 3.4675000
v -7.3952417 0.2243862 4.5125000
v -2.3988615 0.1130848 4.5125000
v -2.3988615 0.1130848 4.0375000
v -7.3952417 0.2243862 4.0375000
v -7.3952417 0.2243862 4.0375000
v -2.3988615 0.1130848 4.0375000
v -2.3998160 0.0255900 4.0375000
v -7.3981843 0.1369357 4.0375000
v -2.3988615 0.1130848 4.0375000
v -2.3988615 0.1130848 4.5125000
v -2.3998160 0.0255900 4.5125000
v -2.3998160 0.0255900 4.0375000
v -2.3988615 0.1130848 4.5125000
v -7.3952417 0.2243862 4.5125000
v -7.3981843 0.1369357 4.5125000
v -2.3998160 0.0255900 4.5125000
v -7.3952417 0.2243862 4.5125000
v -7.3952417 0.2243862 4.0375000
v -7.3981843 0.1369357 4.0375000
v -7.3981843 0.1369357 4.5125000
v 2.3988615 0.1130848 4.5125000
v 7.3952417 0.2243862 4.5125000
v 7.3952417 0.2243862 4.0375000
v 2.3988615 0.1130848 4.0375000
v 2.3988615 0.1130848 4.0375000
v 7.3952417 0.2243862 4.0375000
v 7.3981843 0.1369357 4.0375000
v 2.3998160 0.0255900 4.0375000
v 7.3952417 0.2243862 4.0375000
v 7.3952417 0.2243862 4.5125000
v 7.3981843 0.1369357 4.5125000
v 7.3981843 0.1369357 4.0375000
v 7.3952417 0.2243862 4.5125000
v 2.3988615 0.1130848 4.5125000
v 2.3998160 0.0255900 4.5125000
v 7.3981843 0.1369357 4.5125000
v 2.3988615 0.1130848 4.5125000
v 2.3988615 0.1130848 4.0375000
v 2.3998160 0.0255900 4.0375000
v 2.3998160 0.0255900 4.5125000
v -7.3952417 0.2243862 5.5575000
v -2.3988615 0.1130848 5.5575000
v -2.3988615 0.1130848 5.0825000
v -7.3952417 0.2243862 5.0825000
v -7.3952417 0.2243862 5.0825000
v -2.3988615 0.1130848 5.0825000
v -2.3998160 0.0255900 5.0825000
v -7.3981843 0.1369357 5.0825000
v -2.3988615 0.1130848 5.0825000
v -2.3988615 0.1130848 5.5575000
v -2.3998160 0.0255900 5.5575000
v -2.3998160 0.0255900 5.0825000
v -2.3988615 0.1130848 5.5575000
v -7.3952417 0.2243862 5.5575000
v -7.3981843 0.1369357 5.5575000
v -2.3998160 0.0255900 5.5575000
v -7.3952417 0.2243862 5.5575000
v -7.3952417 0.2243862 5.0825000
v -7.3981843 0.1369357 5.0825000
v -7.3981843 0.1369357 5.5575000
v 2.3988615 0.1130848 5.5575000
v 7.3952417 0.2243862 5.5575000
v 7.3952417 0.2243862 5.0825000
v 2.3988615 0.1130848 5.0825000
v 2.3988615 0.1130848 5.0825000
v 7.3952417 0.2243862 5.0825000
v 7.3981843 0.1369357 5.0825000
v 2.3998160 0.0255900 5.0825000
v 7.3952417 0.2243862 5.0825000
v 7.3952417 0.2243862 5.5575000
v 7.3981843 0.1369357 5.5575000
v 7.3981843 0.1369357 5.0825000
v 7.3952417 0.2243862 5.5575000
v 2.3988615 0.1130848 5.5575000
v 2.3998160 0.0255900 5.5575000
v 7.3981843 0.1369357 5.5575000
v 2.3988615 0.1130848 5.5575000
v 2.3988615 0.1130848 5.0825000
v 2.3998160 0.0255900 5.0825000
v 2.3998160 0.0255900 5.5575000
v -7.3952417 0.2243862 6.6025000
v -2.3988615 0.1130848 6.6025000
v -2.3988615 0.1130848 6.1275000
v -7.3952417 0.2243862 6.1275000
v -7.3952417 0.2243862 6.1275000
v -2.3988615 0.1130848 6.1275000
v -2.3998160 0.0255900 6.1275000
v -7.3981843 0.1369357 6.1275000
v -2.3988615 0.1130848 6.1275000
v -2.3988615 0.1130848 6.6025000
v -2.3998160 0.0255900 6.6025000
v -2.3998160 0.0255900 6.1275000
v -2.3988615 0.1130848 6.6025000
v -7.3952417 0.2243862 6.6025000
v -7.3981843 0.1369357 6.6025000
v -2.3998160 0.0255900 6.6025000
v -7.3952417 0.2243862 6.6025000
v -7.3952417 0.2243862 6.1275000
v -7.3981843 0.1369357 6.1275000
v -7.3981843 0.1369357 6.6025000
v 2.3988615 0.1130848 6.6025000
v 7.3952417 0.2243862 6.6025000
v 7.3952417 0.2243862 6.1275000
v 2.3988615 0.1130848 6.1275000
v 2.3988615 0.1130848 6.1275000
v 7.3952417 0.2243862 6.1275000
v 7.3981843 0.1369357 6.1275000
v 2.3998160 0.0255900 6.1275000
v 7.3952417 0.2243862 6.1275000
v 7.3952417 0.2243862 6.6025000
v 7.3981843 0.1369357 6.6025000
v 7.3981843 0.1369357 6.1275000
v 7.3952417 0.2243862 6.6025000
v 2.3988615 0.1130848 6.6025000
v 2.3998160 0.0255900 6.6025000
v 7.3981843 0.1369357 6.6025000
v 2.3988615 0.1130848 6.6025000
v 2.3988615 0.1130848 6.1275000
v 2.3998160 0.0255900 6.1275000
v 2.3998160 0.0255900 6.6025000
v -7.3952417 0.2243862 7.6475000
v -2.3988615 0.1130848 7.6475000
v -2.3988615 0.1130848 7.1725000
v -7.3952417 0.2243862 7.1725000
v -7.3952417 0.2243862 7.1725000
v -2.3988615 0.1130848 7.1725000
v -2.3998160 0.0255900 7.1725000
v -7.3981843 0.1369357 7.1725000
v -2.3988615 0.1130848 7.1725000
v -2.3988615 0.1130848 7.6475000
v -2.3998160 0.0255900 7.6475000
v -2.3998160 0.0255900 7.1725000
v -2.3988615 0.1130848 7.6475000
v -7.3952417 0.2243862 7.6475000
v -7.3981843 0.1369357 7.6475000
v -2.3998160 0.0255900 7.6475000
v -7.3952417 0.2243862 7.6475000
v -7.3952417 0.2243862 7.1725000
v -7.3981843 0.1369357 7.1725000
v -7.3981843 0.1369357 7.6475000
v 2.3988615 0.1130848 7.6475000
v 7.3952417 0.2243862 7.6475000
v 7.3952417 0.2243862 7.1725000
v 2.3988615 0.1130848 7.1725000
v 2.3988615 0.1130848 7.1725000
v 7.3952417 0.2243862 7.1725000
v 7.3981843 0.1369357 7.1725000
v 2.3998160 0.0255900 7.1725000
v 7.3952417 0.2243862 7.1725000
v 7.3952417 0.2243862 7.6475000
v 7.3981843 0.1369357 7.6475000
v 7.3981843 0.1369357 7.1725000
v 7.3952417 0.2243862 7.6475000
v 2.3988615 0.1130848 7.6475000
v 2.3998160 0.0255900 7.6475000
v 7.3981843 0.1369357 7.6475000
v 2.3988615 0.1130848 7.6475000
v 2.3988615 0.1130848 7.1725000
v 2.3998160 0.0255900 7.1725000
v 2.3998160 0.0255900 7.6475000
vt 0.005000 0.995000
vt 0.245000 0.995000
vt 0.245000 0.755000
vt 0.255000 0.995000
vt 0.495000 0.995000
vt 0.495000 0.755000
vt 0.505000 0.995000
vt 0.745000 0.995000
vt 0.745000 0.755000
vt 0.755000 0.995000
vt 0.995000 0.995000
vt 0.995000 0.755000
vt 0.005000 0.745000
vt 0.245000 0.745000
vt 0.245000 0.505000
vt 0.255000 0.745000
vt 0.495000 0.745000
vt 0.495000 0.505000
vt 0.505000 0.745000
vt 0.745000 0.745000
vt 0.745000 0.505000
vt 0.755000 0.745000
vt 0.995000 0.745000
vt 0.995000 0.505000
vt 0.005000 0.495000
vt 0.245000 0.495000
vt 0.245000 0.255000
vt 0.255000 0.495000
vt 0.495000 0.495000
vt 0.495000 0.255000
vt 0.505000 0.495000
vt 0.745000 0.495000
vt 0.745000 0.255000
vt 0.755000 0.495000
vt 0.995000 0.495000
vt 0.995000 0.255000
vt 0.005000 0.245000
vt 0.245000 0.245000
vt 0.245000 0.005000
vt 0.255000 0.245000
vt 0.495000 0.245000
vt 0.495000 0.005000
vt 0.505000 0.245000
vt 0.745000 0.245000
vt 0.745000 0.005000
vt 0.755000 0.245000
vt 0.995000 0.245000
vt 0.995000 0.005000
g ornament
usemtl farm-kit
f 121/31 122/32 123/33
f 121/31 123/32 124/33
f 125/31 126/32 127/33
f 125/31 127/32 128/33
f 129/31 130/32 131/33
f 129/31 131/32 132/33
f 133/31 134/32 135/33
f 133/31 135/32 136/33
f 137/31 138/32 139/33
f 137/31 139/32 140/33
f 141/31 142/32 143/33
f 141/31 143/32 144/33
f 177/31 178/32 179/33
f 177/31 179/32 180/33
f 181/31 182/32 183/33
f 181/31 183/32 184/33
f 185/31 186/32 187/33
f 185/31 187/32 188/33
f 189/31 190/32 191/33
f 189/31 191/32 192/33
f 193/31 194/32 195/33
f 193/31 195/32 196/33
f 197/31 198/32 199/33
f 197/31 199/32 200/33
f 213/4 214/5 215/6
f 213/4 215/5 216/6
f 217/4 218/5 219/6
f 217/4 219/5 220/6
f 221/4 222/5 223/6
f 221/4 223/5 224/6
f 225/4 226/5 227/6
f 225/4 227/5 228/6
f 229/4 230/5 231/6
f 229/4 231/5 232/6
f 233/4 234/5 235/6
f 233/4 235/5 236/6
f 237/4 238/5 239/6
f 237/4 239/5 240/6
f 241/4 242/5 243/6
f 241/4 243/5 244/6
g solid
usemtl farm-kit
f 101/28 102/29 103/30
f 101/28 103/29 104/30
f 105/28 106/29 107/30
f 105/28 107/29 108/30
f 109/28 110/29 111/30
f 109/28 111/29 112/30
f 113/28 114/29 115/30
f 113/28 115/29 116/30
f 117/28 118/29 119/30
f 117/28 119/29 120/30
f 157/28 158/29 159/30
f 157/28 159/29 160/30
f 161/28 162/29 163/30
f 161/28 163/29 164/30
f 165/28 166/29 167/30
f 165/28 167/29 168/30
f 169/28 170/29 171/30
f 169/28 171/29 172/30
f 173/28 174/29 175/30
f 173/28 175/29 176/30
f 245/7 246/8 247/9
f 245/7 247/8 248/9
f 249/7 250/8 251/9
f 249/7 251/8 252/9
f 253/7 254/8 255/9
f 253/7 255/8 256/9
f 257/7 258/8 259/9
f 257/7 259/8 260/9
f 261/7 262/8 263/9
f 261/7 263/8 264/9
f 265/7 266/8 267/9
f 265/7 267/8 268/9
f 269/7 270/8 271/9
f 269/7 271/8 272/9
f 273/7 274/8 275/9
f 273/7 275/8 276/9
f 277/7 278/8 279/9
f 277/7 279/8 280/9
f 281/7 282/8 283/9
f 281/7 283/8 284/9
f 285/7 286/8 287/9
f 285/7 287/8 288/9
f 289/7 290/8 291/9
f 289/7 291/8 292/9
f 293/7 294/8 295/9
f 293/7 295/8 296/9
f 297/7 298/8 299/9
f 297/7 299/8 300/9
f 301/7 302/8 303/9
f 301/7 303/8 304/9
f 305/7 306/8 307/9
f 305/7 307/8 308/9
f 309/7 310/8 311/9
f 309/7 311/8 312/9
f 313/7 314/8 315/9
f 313/7 315/8 316/9
f 317/7 318/8 319/9
f 317/7 319/8 320/9
f 321/7 322/8 323/9
f 321/7 323/8 324/9
f 325/7 326/8 327/9
f 325/7 327/8 328/9
f 329/7 330/8 331/9
f 329/7 331/8 332/9
f 333/7 334/8 335/9
f 333/7 335/8 336/9
f 337/7 338/8 339/9
f 337/7 339/8 340/9
f 341/7 342/8 343/9
f 341/7 343/8 344/9
f 345/7 346/8 347/9
f 345/7 347/8 348/9
f 349/7 350/8 351/9
f 349/7 351/8 352/9
f 353/7 354/8 355/9
f 353/7 355/8 356/9
f 357/7 358/8 359/9
f 357/7 359/8 360/9
f 361/7 362/8 363/9
f 361/7 363/8 364/9
f 365/7 366/8 367/9
f 365/7 367/8 368/9
f 369/7 370/8 371/9
f 369/7 371/8 372/9
f 373/7 374/8 375/9
f 373/7 375/8 376/9
f 377/7 378/8 379/9
f 377/7 379/8 380/9
f 381/7 382/8 383/9
f 381/7 383/8 384/9
f 385/7 386/8 387/9
f 385/7 387/8 388/9
f 389/7 390/8 391/9
f 389/7 391/8 392/9
f 393/7 394/8 395/9
f 393/7 395/8 396/9
f 397/7 398/8 399/9
f 397/7 399/8 400/9
f 401/7 402/8 403/9
f 401/7 403/8 404/9
f 405/7 406/8 407/9
f 405/7 407/8 408/9
f 409/7 410/8 411/9
f 409/7 411/8 412/9
f 413/7 414/8 415/9
f 413/7 415/8 416/9
f 417/7 418/8 419/9
f 417/7 419/8 420/9
f 421/7 422/8 423/9
f 421/7 423/8 424/9
f 425/7 426/8 427/9
f 425/7 427/8 428/9
f 429/7 430/8 431/9
f 429/7 431/8 432/9
f 433/7 434/8 435/9
f 433/7 435/8 436/9
f 437/7 438/8 439/9
f 437/7 439/8 440/9
f 441/7 442/8 443/9
f 441/7 443/8 444/9
g support
usemtl farm-kit
f 1/1 2/2 3/3
f 1/1 3/2 4/3
f 5/1 6/2 7/3
f 5/1 7/2 8/3
f 9/1 10/2 11/3
f 9/1 11/2 12/3
f 13/1 14/2 15/3
f 13/1 15/2 16/3
f 17/1 18/2 19/3
f 17/1 19/2 20/3
f 21/1 22/2 23/3
f 21/1 23/2 24/3
f 25/1 26/2 27/3
f 25/1 27/2 28/3
f 29/1 30/2 31/3
f 29/1 31/2 32/3
f 33/4 34/5 35/6
f 33/4 35/5 36/6
f 37/4 38/5 39/6
f 37/4 39/5 40/6
f 41/4 42/5 43/6
f 41/4 43/5 44/6
f 45/4 46/5 47/6
f 45/4 47/5 48/6
f 49/4 50/5 51/6
f 49/4 51/5 52/6
f 53/4 54/5 55/6
f 53/4 55/5 56/6
f 57/4 58/5 59/6
f 57/4 59/5 60/6
f 61/4 62/5 63/6
f 61/4 63/5 64/6
f 65/4 66/5 67/6
f 65/4 67/5 68/6
f 69/4 70/5 71/6
f 69/4 71/5 72/6
f 73/4 74/5 75/6
f 73/4 75/5 76/6
f 77/4 78/5 79/6
f 77/4 79/5 80/6
f 81/4 82/5 83/6
f 81/4 83/5 84/6
f 85/4 86/5 87/6
f 85/4 87/5 88/6
f 89/4 90/5 91/6
f 89/4 91/5 92/6
f 93/4 94/5 95/6
f 93/4 95/5 96/6
f 97/4 98/5 99/6
f 97/4 99/5 100/6
f 145/4 146/5 147/6
f 145/4 147/5 148/6
f 149/4 150/5 151/6
f 149/4 151/5 152/6
f 153/4 154/5 155/6
f 153/4 155/5 156/6
f 201/4 202/5 203/6
f 201/4 203/5 204/6
f 205/4 206/5 207/6
f 205/4 207/5 208/6
f 209/4 210/5 211/6
f 209/4 211/5 212/6
