mtllib TorusTransport_BridgeA.mtl
o TorusTransport_BridgeA
usemtl TorusTransportKit
s off
v -0.275000 0.037500 -0.650000
v 0.275000 0.037500 -0.650000
v 0.275000 0.100000 -0.650000
v -0.275000 0.100000 -0.650000
v -0.275000 0.037500 0.650000
v 0.275000 0.037500 0.650000
v 0.275000 0.100000 0.650000
v -0.275000 0.100000 0.650000
v -0.275000 0.000000 -1.250000
v -0.275000 0.005000 -1.250000
v 0.275000 0.005000 -1.250000
v 0.275000 0.000000 -1.250000
v -0.275000 0.000000 -0.650000
v 0.275000 0.000000 -0.650000
v -0.275000 0.000000 0.650000
v 0.275000 0.000000 0.650000
v -0.275000 0.000000 1.250000
v 0.275000 0.000000 1.250000
v 0.275000 0.005000 1.250000
v -0.275000 0.005000 1.250000
v -0.240000 0.000000 -0.612500
v -0.185000 0.000000 -0.612500
v -0.185000 0.037500 -0.612500
v -0.240000 0.037500 -0.612500
v -0.240000 0.000000 -0.537500
v -0.185000 0.000000 -0.537500
v -0.185000 0.037500 -0.537500
v -0.240000 0.037500 -0.537500
v 0.185000 0.000000 -0.612500
v 0.240000 0.000000 -0.612500
v 0.240000 0.037500 -0.612500
v 0.185000 0.037500 -0.612500
v 0.185000 0.000000 -0.537500
v 0.240000 0.000000 -0.537500
v 0.240000 0.037500 -0.537500
v 0.185000 0.037500 -0.537500
v -0.240000 0.000000 0.537500
v -0.185000 0.000000 0.537500
v -0.185000 0.037500 0.537500
v -0.240000 0.037500 0.537500
v -0.240000 0.000000 0.612500
v -0.185000 0.000000 0.612500
v -0.185000 0.037500 0.612500
v -0.240000 0.037500 0.612500
v 0.185000 0.000000 0.537500
v 0.240000 0.000000 0.537500
v 0.240000 0.037500 0.537500
v 0.185000 0.037500 0.537500
v 0.185000 0.000000 0.612500
v 0.240000 0.000000 0.612500
v 0.240000 0.037500 0.612500
v 0.185000 0.037500 0.612500
v -0.250000 0.005000 -1.258750
v -0.257578 0.005000 -1.245625
v -0.257578 0.275000 -1.245625
v -0.250000 0.275000 -1.258750
v -0.250000 0.005000 -1.250000
v -0.250000 0.275000 -1.250000
v -0.242422 0.005000 -1.245625
v -0.242422 0.275000 -1.245625
v -0.250000 0.028750 -1.108750
v -0.257578 0.028750 -1.095625
v -0.257578 0.298750 -1.095625
v -0.250000 0.298750 -1.108750
v -0.250000 0.028750 -1.100000
v -0.250000 0.298750 -1.100000
v -0.242422 0.028750 -1.095625
v -0.242422 0.298750 -1.095625
v -0.250000 0.052500 -0.958750
v -0.257578 0.052500 -0.945625
v -0.257578 0.322500 -0.945625
v -0.250000 0.322500 -0.958750
v -0.250000 0.052500 -0.950000
v -0.250000 0.322500 -0.950000
v -0.242422 0.052500 -0.945625
v -0.242422 0.322500 -0.945625
v -0.250000 0.076250 -0.808750
v -0.257578 0.076250 -0.795625
v -0.257578 0.346250 -0.795625
v -0.250000 0.346250 -0.808750
v -0.250000 0.076250 -0.800000
v -0.250000 0.346250 -0.800000
v -0.242422 0.076250 -0.795625
v -0.242422 0.346250 -0.795625
v -0.250000 0.100000 -0.658750
v -0.257578 0.100000 -0.645625
v -0.257578 0.370000 -0.645625
v -0.250000 0.370000 -0.658750
v -0.250000 0.100000 -0.650000
v -0.250000 0.370000 -0.650000
v -0.242422 0.100000 -0.645625
v -0.242422 0.370000 -0.645625
v -0.258750 0.125000 -1.250000
v -0.245625 0.117516 -1.248815
v -0.245625 0.212516 -0.648815
v -0.258750 0.220000 -0.650000
v -0.250000 0.125000 -1.250000
v -0.250000 0.220000 -0.650000
v -0.245625 0.132484 -1.251185
v -0.245625 0.227484 -0.651185
v -0.258750 0.275000 -1.250000
v -0.245625 0.267516 -1.248815
v -0.245625 0.362516 -0.648815
v -0.258750 0.370000 -0.650000
v -0.245625 0.282484 -1.251185
v -0.245625 0.377484 -0.651185
v 0.250000 0.005000 -1.258750
v 0.242422 0.005000 -1.245625
v 0.242422 0.275000 -1.245625
v 0.250000 0.275000 -1.258750
v 0.250000 0.005000 -1.250000
v 0.250000 0.275000 -1.250000
v 0.257578 0.005000 -1.245625
v 0.257578 0.275000 -1.245625
v 0.250000 0.028750 -1.108750
v 0.242422 0.028750 -1.095625
v 0.242422 0.298750 -1.095625
v 0.250000 0.298750 -1.108750
v 0.250000 0.028750 -1.100000
v 0.250000 0.298750 -1.100000
v 0.257578 0.028750 -1.095625
v 0.257578 0.298750 -1.095625
v 0.250000 0.052500 -0.958750
v 0.242422 0.052500 -0.945625
v 0.242422 0.322500 -0.945625
v 0.250000 0.322500 -0.958750
v 0.250000 0.052500 -0.950000
v 0.250000 0.322500 -0.950000
v 0.257578 0.052500 -0.945625
v 0.257578 0.322500 -0.945625
v 0.250000 0.076250 -0.808750
v 0.242422 0.076250 -0.795625
v 0.242422 0.346250 -0.795625
v 0.250000 0.346250 -0.808750
v 0.250000 0.076250 -0.800000
v 0.250000 0.346250 -0.800000
v 0.257578 0.076250 -0.795625
v 0.257578 0.346250 -0.795625
v 0.250000 0.100000 -0.658750
v 0.242422 0.100000 -0.645625
v 0.242422 0.370000 -0.645625
v 0.250000 0.370000 -0.658750
v 0.250000 0.100000 -0.650000
v 0.250000 0.370000 -0.650000
v 0.257578 0.100000 -0.645625
v 0.257578 0.370000 -0.645625
v 0.241250 0.125000 -1.250000
v 0.254375 0.117516 -1.248815
v 0.254375 0.212516 -0.648815
v 0.241250 0.220000 -0.650000
v 0.250000 0.125000 -1.250000
v 0.250000 0.220000 -0.650000
v 0.254375 0.132484 -1.251185
v 0.254375 0.227484 -0.651185
v 0.241250 0.275000 -1.250000
v 0.254375 0.267516 -1.248815
v 0.254375 0.362516 -0.648815
v 0.241250 0.370000 -0.650000
v 0.254375 0.282484 -1.251185
v 0.254375 0.377484 -0.651185
v -0.250000 0.100000 -0.333750
v -0.257578 0.100000 -0.320625
v -0.257578 0.370000 -0.320625
v -0.250000 0.370000 -0.333750
v -0.250000 0.100000 -0.325000
v -0.250000 0.370000 -0.325000
v -0.242422 0.100000 -0.320625
v -0.242422 0.370000 -0.320625
v -0.250000 0.100000 -0.008750
v -0.257578 0.100000 0.004375
v -0.257578 0.370000 0.004375
v -0.250000 0.370000 -0.008750
v -0.250000 0.100000 0.000000
v -0.250000 0.370000 0.000000
v -0.242422 0.100000 0.004375
v -0.242422 0.370000 0.004375
v -0.250000 0.100000 0.316250
v -0.257578 0.100000 0.329375
v -0.257578 0.370000 0.329375
v -0.250000 0.370000 0.316250
v -0.250000 0.100000 0.325000
v -0.250000 0.370000 0.325000
v -0.242422 0.100000 0.329375
v -0.242422 0.370000 0.329375
v -0.250000 0.100000 0.641250
v -0.257578 0.100000 0.654375
v -0.257578 0.370000 0.654375
v -0.250000 0.370000 0.641250
v -0.250000 0.100000 0.650000
v -0.250000 0.370000 0.650000
v -0.242422 0.100000 0.654375
v -0.242422 0.370000 0.654375
v -0.245625 0.212422 -0.650000
v -0.245625 0.212422 0.650000
v -0.258750 0.220000 0.650000
v -0.250000 0.220000 0.650000
v -0.245625 0.227578 -0.650000
v -0.245625 0.227578 0.650000
v -0.245625 0.362422 -0.650000
v -0.245625 0.362422 0.650000
v -0.258750 0.370000 0.650000
v -0.245625 0.377578 -0.650000
v -0.245625 0.377578 0.650000
v 0.250000 0.100000 -0.333750
v 0.242422 0.100000 -0.320625
v 0.242422 0.370000 -0.320625
v 0.250000 0.370000 -0.333750
v 0.250000 0.100000 -0.325000
v 0.250000 0.370000 -0.325000
v 0.257578 0.100000 -0.320625
v 0.257578 0.370000 -0.320625
v 0.250000 0.100000 -0.008750
v 0.242422 0.100000 0.004375
v 0.242422 0.370000 0.004375
v 0.250000 0.370000 -0.008750
v 0.250000 0.100000 0.000000
v 0.250000 0.370000 0.000000
v 0.257578 0.100000 0.004375
v 0.257578 0.370000 0.004375
v 0.250000 0.100000 0.316250
v 0.242422 0.100000 0.329375
v 0.242422 0.370000 0.329375
v 0.250000 0.370000 0.316250
v 0.250000 0.100000 0.325000
v 0.250000 0.370000 0.325000
v 0.257578 0.100000 0.329375
v 0.257578 0.370000 0.329375
v 0.250000 0.100000 0.641250
v 0.242422 0.100000 0.654375
v 0.242422 0.370000 0.654375
v 0.250000 0.370000 0.641250
v 0.250000 0.100000 0.650000
v 0.250000 0.370000 0.650000
v 0.257578 0.100000 0.654375
v 0.257578 0.370000 0.654375
v 0.254375 0.212422 -0.650000
v 0.254375 0.212422 0.650000
v 0.241250 0.220000 0.650000
v 0.250000 0.220000 0.650000
v 0.254375 0.227578 -0.650000
v 0.254375 0.227578 0.650000
v 0.254375 0.362422 -0.650000
v 0.254375 0.362422 0.650000
v 0.241250 0.370000 0.650000
v 0.254375 0.377578 -0.650000
v 0.254375 0.377578 0.650000
v -0.250000 0.076250 0.791250
v -0.257578 0.076250 0.804375
v -0.257578 0.346250 0.804375
v -0.250000 0.346250 0.791250
v -0.250000 0.076250 0.800000
v -0.250000 0.346250 0.800000
v -0.242422 0.076250 0.804375
v -0.242422 0.346250 0.804375
v -0.250000 0.052500 0.941250
v -0.257578 0.052500 0.954375
v -0.257578 0.322500 0.954375
v -0.250000 0.322500 0.941250
v -0.250000 0.052500 0.950000
v -0.250000 0.322500 0.950000
v -0.242422 0.052500 0.954375
v -0.242422 0.322500 0.954375
v -0.250000 0.028750 1.091250
v -0.257578 0.028750 1.104375
v -0.257578 0.298750 1.104375
v -0.250000 0.298750 1.091250
v -0.250000 0.028750 1.100000
v -0.250000 0.298750 1.100000
v -0.242422 0.028750 1.104375
v -0.242422 0.298750 1.104375
v -0.250000 0.005000 1.241250
v -0.257578 0.005000 1.254375
v -0.257578 0.275000 1.254375
v -0.250000 0.275000 1.241250
v -0.250000 0.005000 1.250000
v -0.250000 0.275000 1.250000
v -0.242422 0.005000 1.254375
v -0.242422 0.275000 1.254375
v -0.245625 0.212516 0.648815
v -0.245625 0.117516 1.248815
v -0.258750 0.125000 1.250000
v -0.250000 0.125000 1.250000
v -0.245625 0.227484 0.651185
v -0.245625 0.132484 1.251185
v -0.245625 0.362516 0.648815
v -0.245625 0.267516 1.248815
v -0.258750 0.275000 1.250000
v -0.245625 0.377484 0.651185
v -0.245625 0.282484 1.251185
v 0.250000 0.076250 0.791250
v 0.242422 0.076250 0.804375
v 0.242422 0.346250 0.804375
v 0.250000 0.346250 0.791250
v 0.250000 0.076250 0.800000
v 0.250000 0.346250 0.800000
v 0.257578 0.076250 0.804375
v 0.257578 0.346250 0.804375
v 0.250000 0.052500 0.941250
v 0.242422 0.052500 0.954375
v 0.242422 0.322500 0.954375
v 0.250000 0.322500 0.941250
v 0.250000 0.052500 0.950000
v 0.250000 0.322500 0.950000
v 0.257578 0.052500 0.954375
v 0.257578 0.322500 0.954375
v 0.250000 0.028750 1.091250
v 0.242422 0.028750 1.104375
v 0.242422 0.298750 1.104375
v 0.250000 0.298750 1.091250
v 0.250000 0.028750 1.100000
v 0.250000 0.298750 1.100000
v 0.257578 0.028750 1.104375
v 0.257578 0.298750 1.104375
v 0.250000 0.005000 1.241250
v 0.242422 0.005000 1.254375
v 0.242422 0.275000 1.254375
v 0.250000 0.275000 1.241250
v 0.250000 0.005000 1.250000
v 0.250000 0.275000 1.250000
v 0.257578 0.005000 1.254375
v 0.257578 0.275000 1.254375
v 0.254375 0.212516 0.648815
v 0.254375 0.117516 1.248815
v 0.241250 0.125000 1.250000
v 0.250000 0.125000 1.250000
v 0.254375 0.227484 0.651185
v 0.254375 0.132484 1.251185
v 0.254375 0.362516 0.648815
v 0.254375 0.267516 1.248815
v 0.241250 0.275000 1.250000
v 0.254375 0.377484 0.651185
v 0.254375 0.282484 1.251185
vt 0.015625 0.765625
vt 0.234375 0.765625
vt 0.234375 0.984375
vt 0.015625 0.984375
vt 0.015625 0.765625
vt 0.234375 0.765625
vt 0.234375 0.984375
vt 0.015625 0.984375
vt 0.015625 0.765625
vt 0.234375 0.765625
vt 0.234375 0.984375
vt 0.015625 0.984375
vt 0.015625 0.765625
vt 0.234375 0.765625
vt 0.234375 0.984375
vt 0.015625 0.984375
vt 0.015625 0.765625
vt 0.234375 0.765625
vt 0.234375 0.984375
vt 0.015625 0.984375
vt 0.015625 0.765625
vt 0.234375 0.765625
vt 0.234375 0.984375
vt 0.015625 0.984375
vt 0.015625 0.765625
vt 0.234375 0.765625
vt 0.234375 0.984375
vt 0.015625 0.984375
vt 0.015625 0.765625
vt 0.234375 0.765625
vt 0.234375 0.984375
vt 0.015625 0.984375
vt 0.015625 0.765625
vt 0.234375 0.765625
vt 0.234375 0.984375
vt 0.015625 0.984375
vt 0.015625 0.765625
vt 0.234375 0.765625
vt 0.234375 0.984375
vt 0.015625 0.984375
vt 0.015625 0.765625
vt 0.234375 0.765625
vt 0.234375 0.984375
vt 0.015625 0.984375
vt 0.015625 0.765625
vt 0.234375 0.765625
vt 0.234375 0.984375
vt 0.015625 0.984375
vt 0.015625 0.765625
vt 0.234375 0.765625
vt 0.234375 0.984375
vt 0.015625 0.984375
vt 0.015625 0.765625
vt 0.234375 0.765625
vt 0.234375 0.984375
vt 0.015625 0.984375
vt 0.015625 0.765625
vt 0.234375 0.765625
vt 0.234375 0.984375
vt 0.015625 0.984375
vt 0.015625 0.765625
vt 0.234375 0.765625
vt 0.234375 0.984375
vt 0.015625 0.984375
vt 0.015625 0.765625
vt 0.234375 0.765625
vt 0.234375 0.984375
vt 0.015625 0.984375
vt 0.015625 0.765625
vt 0.234375 0.765625
vt 0.234375 0.984375
vt 0.015625 0.984375
vt 0.265625 0.765625
vt 0.484375 0.765625
vt 0.484375 0.984375
vt 0.265625 0.984375
vt 0.265625 0.765625
vt 0.484375 0.765625
vt 0.484375 0.984375
vt 0.265625 0.984375
vt 0.265625 0.765625
vt 0.484375 0.765625
vt 0.484375 0.984375
vt 0.265625 0.984375
vt 0.265625 0.765625
vt 0.484375 0.765625
vt 0.484375 0.984375
vt 0.265625 0.984375
vt 0.265625 0.765625
vt 0.484375 0.765625
vt 0.484375 0.984375
vt 0.265625 0.984375
vt 0.265625 0.765625
vt 0.484375 0.765625
vt 0.484375 0.984375
vt 0.265625 0.984375
vt 0.265625 0.765625
vt 0.484375 0.765625
vt 0.484375 0.984375
vt 0.265625 0.984375
vt 0.265625 0.765625
vt 0.484375 0.765625
vt 0.484375 0.984375
vt 0.265625 0.984375
vt 0.265625 0.765625
vt 0.484375 0.765625
vt 0.484375 0.984375
vt 0.265625 0.984375
vt 0.265625 0.765625
vt 0.484375 0.765625
vt 0.484375 0.984375
vt 0.265625 0.984375
vt 0.265625 0.765625
vt 0.484375 0.765625
vt 0.484375 0.984375
vt 0.265625 0.984375
vt 0.265625 0.765625
vt 0.484375 0.765625
vt 0.484375 0.984375
vt 0.265625 0.984375
vt 0.265625 0.765625
vt 0.484375 0.765625
vt 0.484375 0.984375
vt 0.265625 0.984375
vt 0.265625 0.765625
vt 0.484375 0.765625
vt 0.484375 0.984375
vt 0.265625 0.984375
vt 0.265625 0.765625
vt 0.484375 0.765625
vt 0.484375 0.984375
vt 0.265625 0.984375
vt 0.265625 0.765625
vt 0.484375 0.765625
vt 0.484375 0.984375
vt 0.265625 0.984375
vt 0.265625 0.765625
vt 0.484375 0.765625
vt 0.484375 0.984375
vt 0.265625 0.984375
vt 0.265625 0.765625
vt 0.484375 0.765625
vt 0.484375 0.984375
vt 0.265625 0.984375
vt 0.265625 0.765625
vt 0.484375 0.765625
vt 0.484375 0.984375
vt 0.265625 0.984375
vt 0.265625 0.765625
vt 0.484375 0.765625
vt 0.484375 0.984375
vt 0.265625 0.984375
vt 0.265625 0.765625
vt 0.484375 0.765625
vt 0.484375 0.984375
vt 0.265625 0.984375
vt 0.265625 0.765625
vt 0.484375 0.765625
vt 0.484375 0.984375
vt 0.265625 0.984375
vt 0.265625 0.765625
vt 0.484375 0.765625
vt 0.484375 0.984375
vt 0.265625 0.984375
vt 0.265625 0.765625
vt 0.484375 0.765625
vt 0.484375 0.984375
vt 0.265625 0.984375
vt 0.265625 0.765625
vt 0.484375 0.765625
vt 0.484375 0.984375
vt 0.265625 0.984375
vt 0.265625 0.765625
vt 0.484375 0.765625
vt 0.484375 0.984375
vt 0.265625 0.765625
vt 0.484375 0.765625
vt 0.484375 0.984375
vt 0.265625 0.765625
vt 0.484375 0.765625
vt 0.484375 0.984375
vt 0.265625 0.984375
vt 0.265625 0.765625
vt 0.484375 0.765625
vt 0.484375 0.984375
vt 0.265625 0.765625
vt 0.484375 0.765625
vt 0.484375 0.984375
vt 0.265625 0.765625
vt 0.484375 0.765625
vt 0.484375 0.984375
vt 0.265625 0.984375
vt 0.265625 0.765625
vt 0.484375 0.765625
vt 0.484375 0.984375
vt 0.265625 0.765625
vt 0.484375 0.765625
vt 0.484375 0.984375
vt 0.265625 0.765625
vt 0.484375 0.765625
vt 0.484375 0.984375
vt 0.265625 0.984375
vt 0.265625 0.765625
vt 0.484375 0.765625
vt 0.484375 0.984375
vt 0.265625 0.765625
vt 0.484375 0.765625
vt 0.484375 0.984375
vt 0.265625 0.765625
vt 0.484375 0.765625
vt 0.484375 0.984375
vt 0.265625 0.984375
vt 0.265625 0.765625
vt 0.484375 0.765625
vt 0.484375 0.984375
vt 0.265625 0.765625
vt 0.484375 0.765625
vt 0.484375 0.984375
vt 0.265625 0.765625
vt 0.484375 0.765625
vt 0.484375 0.984375
vt 0.265625 0.984375
vt 0.265625 0.765625
vt 0.484375 0.765625
vt 0.484375 0.984375
vt 0.265625 0.765625
vt 0.484375 0.765625
vt 0.484375 0.984375
vt 0.265625 0.765625
vt 0.484375 0.765625
vt 0.484375 0.984375
vt 0.265625 0.984375
vt 0.265625 0.765625
vt 0.484375 0.765625
vt 0.484375 0.984375
vt 0.265625 0.765625
vt 0.484375 0.765625
vt 0.484375 0.984375
vt 0.265625 0.765625
vt 0.484375 0.765625
vt 0.484375 0.984375
vt 0.265625 0.984375
vt 0.265625 0.765625
vt 0.484375 0.765625
vt 0.484375 0.984375
vt 0.265625 0.765625
vt 0.484375 0.765625
vt 0.484375 0.984375
vt 0.265625 0.765625
vt 0.484375 0.765625
vt 0.484375 0.984375
vt 0.265625 0.984375
vt 0.265625 0.765625
vt 0.484375 0.765625
vt 0.484375 0.984375
vt 0.265625 0.765625
vt 0.484375 0.765625
vt 0.484375 0.984375
vt 0.265625 0.765625
vt 0.484375 0.765625
vt 0.484375 0.984375
vt 0.265625 0.984375
vt 0.265625 0.765625
vt 0.484375 0.765625
vt 0.484375 0.984375
vt 0.265625 0.765625
vt 0.484375 0.765625
vt 0.484375 0.984375
vt 0.265625 0.765625
vt 0.484375 0.765625
vt 0.484375 0.984375
vt 0.265625 0.984375
vt 0.265625 0.765625
vt 0.484375 0.765625
vt 0.484375 0.984375
vt 0.265625 0.765625
vt 0.484375 0.765625
vt 0.484375 0.984375
vt 0.265625 0.765625
vt 0.484375 0.765625
vt 0.484375 0.984375
vt 0.265625 0.984375
vt 0.265625 0.765625
vt 0.484375 0.765625
vt 0.484375 0.984375
vt 0.265625 0.765625
vt 0.484375 0.765625
vt 0.484375 0.984375
vt 0.265625 0.765625
vt 0.484375 0.765625
vt 0.484375 0.984375
vt 0.265625 0.984375
vt 0.265625 0.765625
vt 0.484375 0.765625
vt 0.484375 0.984375
vt 0.265625 0.765625
vt 0.484375 0.765625
vt 0.484375 0.984375
vt 0.265625 0.765625
vt 0.484375 0.765625
vt 0.484375 0.984375
vt 0.265625 0.984375
vt 0.265625 0.765625
vt 0.484375 0.765625
vt 0.484375 0.984375
vt 0.265625 0.765625
vt 0.484375 0.765625
vt 0.484375 0.984375
vt 0.265625 0.765625
vt 0.484375 0.765625
vt 0.484375 0.984375
vt 0.265625 0.984375
vt 0.265625 0.765625
vt 0.484375 0.765625
vt 0.484375 0.984375
vt 0.265625 0.765625
vt 0.484375 0.765625
vt 0.484375 0.984375
vt 0.265625 0.765625
vt 0.484375 0.765625
vt 0.484375 0.984375
vt 0.265625 0.984375
vt 0.265625 0.765625
vt 0.484375 0.765625
vt 0.484375 0.984375
vt 0.265625 0.765625
vt 0.484375 0.765625
vt 0.484375 0.984375
vt 0.265625 0.765625
vt 0.484375 0.765625
vt 0.484375 0.984375
vt 0.265625 0.984375
vt 0.265625 0.765625
vt 0.484375 0.765625
vt 0.484375 0.984375
vt 0.265625 0.765625
vt 0.484375 0.765625
vt 0.484375 0.984375
vt 0.265625 0.765625
vt 0.484375 0.765625
vt 0.484375 0.984375
vt 0.265625 0.984375
vt 0.265625 0.765625
vt 0.484375 0.765625
vt 0.484375 0.984375
vt 0.265625 0.765625
vt 0.484375 0.765625
vt 0.484375 0.984375
vt 0.265625 0.765625
vt 0.484375 0.765625
vt 0.484375 0.984375
vt 0.265625 0.984375
vt 0.265625 0.765625
vt 0.484375 0.765625
vt 0.484375 0.984375
vt 0.265625 0.765625
vt 0.484375 0.765625
vt 0.484375 0.984375
vt 0.265625 0.765625
vt 0.484375 0.765625
vt 0.484375 0.984375
vt 0.265625 0.984375
vt 0.265625 0.765625
vt 0.484375 0.765625
vt 0.484375 0.984375
vt 0.265625 0.765625
vt 0.484375 0.765625
vt 0.484375 0.984375
vt 0.265625 0.765625
vt 0.484375 0.765625
vt 0.484375 0.984375
vt 0.265625 0.984375
vt 0.265625 0.765625
vt 0.484375 0.765625
vt 0.484375 0.984375
vt 0.265625 0.765625
vt 0.484375 0.765625
vt 0.484375 0.984375
vt 0.265625 0.765625
vt 0.484375 0.765625
vt 0.484375 0.984375
vt 0.265625 0.984375
vt 0.265625 0.765625
vt 0.484375 0.765625
vt 0.484375 0.984375
vt 0.265625 0.765625
vt 0.484375 0.765625
vt 0.484375 0.984375
vt 0.265625 0.765625
vt 0.484375 0.765625
vt 0.484375 0.984375
vt 0.265625 0.984375
vt 0.265625 0.765625
vt 0.484375 0.765625
vt 0.484375 0.984375
vt 0.265625 0.765625
vt 0.484375 0.765625
vt 0.484375 0.984375
vt 0.265625 0.765625
vt 0.484375 0.765625
vt 0.484375 0.984375
vt 0.265625 0.984375
vt 0.265625 0.765625
vt 0.484375 0.765625
vt 0.484375 0.984375
vt 0.265625 0.765625
vt 0.484375 0.765625
vt 0.484375 0.984375
vt 0.265625 0.765625
vt 0.484375 0.765625
vt 0.484375 0.984375
vt 0.265625 0.984375
vt 0.265625 0.765625
vt 0.484375 0.765625
vt 0.484375 0.984375
vt 0.265625 0.765625
vt 0.484375 0.765625
vt 0.484375 0.984375
vt 0.265625 0.765625
vt 0.484375 0.765625
vt 0.484375 0.984375
vt 0.265625 0.984375
vt 0.265625 0.765625
vt 0.484375 0.765625
vt 0.484375 0.984375
vt 0.265625 0.765625
vt 0.484375 0.765625
vt 0.484375 0.984375
vt 0.265625 0.765625
vt 0.484375 0.765625
vt 0.484375 0.984375
vt 0.265625 0.984375
vt 0.265625 0.765625
vt 0.484375 0.765625
vt 0.484375 0.984375
vt 0.265625 0.765625
vt 0.484375 0.765625
vt 0.484375 0.984375
vt 0.265625 0.765625
vt 0.484375 0.765625
vt 0.484375 0.984375
vt 0.265625 0.984375
vt 0.265625 0.765625
vt 0.484375 0.765625
vt 0.484375 0.984375
vt 0.265625 0.765625
vt 0.484375 0.765625
vt 0.484375 0.984375
vt 0.265625 0.765625
vt 0.484375 0.765625
vt 0.484375 0.984375
vt 0.265625 0.984375
vt 0.265625 0.765625
vt 0.484375 0.765625
vt 0.484375 0.984375
vt 0.265625 0.765625
vt 0.484375 0.765625
vt 0.484375 0.984375
vt 0.265625 0.765625
vt 0.484375 0.765625
vt 0.484375 0.984375
vt 0.265625 0.984375
vt 0.265625 0.765625
vt 0.484375 0.765625
vt 0.484375 0.984375
vt 0.265625 0.765625
vt 0.484375 0.765625
vt 0.484375 0.984375
vt 0.265625 0.765625
vt 0.484375 0.765625
vt 0.484375 0.984375
vt 0.265625 0.984375
vt 0.265625 0.765625
vt 0.484375 0.765625
vt 0.484375 0.984375
vt 0.265625 0.765625
vt 0.484375 0.765625
vt 0.484375 0.984375
vt 0.265625 0.765625
vt 0.484375 0.765625
vt 0.484375 0.984375
vt 0.265625 0.984375
vt 0.265625 0.765625
vt 0.484375 0.765625
vt 0.484375 0.984375
vt 0.265625 0.765625
vt 0.484375 0.765625
vt 0.484375 0.984375
vt 0.265625 0.765625
vt 0.484375 0.765625
vt 0.484375 0.984375
vt 0.265625 0.984375
vt 0.265625 0.765625
vt 0.484375 0.765625
vt 0.484375 0.984375
vt 0.265625 0.765625
vt 0.484375 0.765625
vt 0.484375 0.984375
vt 0.265625 0.765625
vt 0.484375 0.765625
vt 0.484375 0.984375
vt 0.265625 0.984375
vt 0.265625 0.765625
vt 0.484375 0.765625
vt 0.484375 0.984375
vt 0.265625 0.765625
vt 0.484375 0.765625
vt 0.484375 0.984375
vt 0.265625 0.765625
vt 0.484375 0.765625
vt 0.484375 0.984375
vt 0.265625 0.984375
vt 0.265625 0.765625
vt 0.484375 0.765625
vt 0.484375 0.984375
vt 0.265625 0.765625
vt 0.484375 0.765625
vt 0.484375 0.984375
vt 0.265625 0.765625
vt 0.484375 0.765625
vt 0.484375 0.984375
vt 0.265625 0.984375
vt 0.265625 0.765625
vt 0.484375 0.765625
vt 0.484375 0.984375
vt 0.265625 0.765625
vt 0.484375 0.765625
vt 0.484375 0.984375
vt 0.265625 0.765625
vt 0.484375 0.765625
vt 0.484375 0.984375
vt 0.265625 0.984375
vt 0.265625 0.765625
vt 0.484375 0.765625
vt 0.484375 0.984375
vt 0.265625 0.765625
vt 0.484375 0.765625
vt 0.484375 0.984375
vt 0.265625 0.765625
vt 0.484375 0.765625
vt 0.484375 0.984375
vt 0.265625 0.984375
vt 0.265625 0.765625
vt 0.484375 0.765625
vt 0.484375 0.984375
vt 0.265625 0.765625
vt 0.484375 0.765625
vt 0.484375 0.984375
vt 0.265625 0.765625
vt 0.484375 0.765625
vt 0.484375 0.984375
vt 0.265625 0.984375
vt 0.265625 0.765625
vt 0.484375 0.765625
vt 0.484375 0.984375
vt 0.265625 0.765625
vt 0.484375 0.765625
vt 0.484375 0.984375
vt 0.265625 0.765625
vt 0.484375 0.765625
vt 0.484375 0.984375
vt 0.265625 0.984375
vt 0.265625 0.765625
vt 0.484375 0.765625
vt 0.484375 0.984375
vt 0.265625 0.765625
vt 0.484375 0.765625
vt 0.484375 0.984375
vt 0.265625 0.765625
vt 0.484375 0.765625
vt 0.484375 0.984375
vt 0.265625 0.984375
vt 0.265625 0.765625
vt 0.484375 0.765625
vt 0.484375 0.984375
vt 0.265625 0.765625
vt 0.484375 0.765625
vt 0.484375 0.984375
vt 0.265625 0.765625
vt 0.484375 0.765625
vt 0.484375 0.984375
vt 0.265625 0.984375
vt 0.265625 0.765625
vt 0.484375 0.765625
vt 0.484375 0.984375
vt 0.265625 0.765625
vt 0.484375 0.765625
vt 0.484375 0.984375
vt 0.265625 0.765625
vt 0.484375 0.765625
vt 0.484375 0.984375
vt 0.265625 0.984375
vt 0.265625 0.765625
vt 0.484375 0.765625
vt 0.484375 0.984375
vt 0.265625 0.765625
vt 0.484375 0.765625
vt 0.484375 0.984375
vt 0.265625 0.765625
vt 0.484375 0.765625
vt 0.484375 0.984375
vt 0.265625 0.984375
vt 0.265625 0.765625
vt 0.484375 0.765625
vt 0.484375 0.984375
vt 0.265625 0.765625
vt 0.484375 0.765625
vt 0.484375 0.984375
vt 0.265625 0.765625
vt 0.484375 0.765625
vt 0.484375 0.984375
vt 0.265625 0.984375
vt 0.265625 0.765625
vt 0.484375 0.765625
vt 0.484375 0.984375
vt 0.265625 0.765625
vt 0.484375 0.765625
vt 0.484375 0.984375
vt 0.265625 0.765625
vt 0.484375 0.765625
vt 0.484375 0.984375
vt 0.265625 0.984375
vt 0.265625 0.765625
vt 0.484375 0.765625
vt 0.484375 0.984375
vt 0.265625 0.765625
vt 0.484375 0.765625
vt 0.484375 0.984375
vt 0.265625 0.765625
vt 0.484375 0.765625
vt 0.484375 0.984375
vt 0.265625 0.984375
vt 0.265625 0.765625
vt 0.484375 0.765625
vt 0.484375 0.984375
vt 0.265625 0.765625
vt 0.484375 0.765625
vt 0.484375 0.984375
vt 0.265625 0.765625
vt 0.484375 0.765625
vt 0.484375 0.984375
vt 0.265625 0.984375
vt 0.265625 0.765625
vt 0.484375 0.765625
vt 0.484375 0.984375
vt 0.265625 0.765625
vt 0.484375 0.765625
vt 0.484375 0.984375
vt 0.265625 0.765625
vt 0.484375 0.765625
vt 0.484375 0.984375
vt 0.265625 0.984375
vt 0.265625 0.765625
vt 0.484375 0.765625
vt 0.484375 0.984375
vt 0.265625 0.765625
vt 0.484375 0.765625
vt 0.484375 0.984375
vt 0.265625 0.765625
vt 0.484375 0.765625
vt 0.484375 0.984375
vt 0.265625 0.984375
vt 0.265625 0.765625
vt 0.484375 0.765625
vt 0.484375 0.984375
vt 0.265625 0.765625
vt 0.484375 0.765625
vt 0.484375 0.984375
vt 0.265625 0.765625
vt 0.484375 0.765625
vt 0.484375 0.984375
vt 0.265625 0.984375
vt 0.265625 0.765625
vt 0.484375 0.765625
vt 0.484375 0.984375
vt 0.265625 0.765625
vt 0.484375 0.765625
vt 0.484375 0.984375
vt 0.265625 0.765625
vt 0.484375 0.765625
vt 0.484375 0.984375
vt 0.265625 0.984375
vt 0.265625 0.765625
vt 0.484375 0.765625
vt 0.484375 0.984375
vt 0.265625 0.765625
vt 0.484375 0.765625
vt 0.484375 0.984375
vt 0.265625 0.765625
vt 0.484375 0.765625
vt 0.484375 0.984375
vt 0.265625 0.984375
vt 0.265625 0.765625
vt 0.484375 0.765625
vt 0.484375 0.984375
vt 0.265625 0.765625
vt 0.484375 0.765625
vt 0.484375 0.984375
vt 0.265625 0.765625
vt 0.484375 0.765625
vt 0.484375 0.984375
vt 0.265625 0.984375
vt 0.265625 0.765625
vt 0.484375 0.765625
vt 0.484375 0.984375
vt 0.265625 0.765625
vt 0.484375 0.765625
vt 0.484375 0.984375
vt 0.265625 0.765625
vt 0.484375 0.765625
vt 0.484375 0.984375
vt 0.265625 0.984375
vt 0.265625 0.765625
vt 0.484375 0.765625
vt 0.484375 0.984375
vt 0.265625 0.765625
vt 0.484375 0.765625
vt 0.484375 0.984375
vt 0.265625 0.765625
vt 0.484375 0.765625
vt 0.484375 0.984375
vt 0.265625 0.984375
vt 0.265625 0.765625
vt 0.484375 0.765625
vt 0.484375 0.984375
vt 0.265625 0.765625
vt 0.484375 0.765625
vt 0.484375 0.984375
vt 0.265625 0.765625
vt 0.484375 0.765625
vt 0.484375 0.984375
vt 0.265625 0.984375
vt 0.265625 0.765625
vt 0.484375 0.765625
vt 0.484375 0.984375
vt 0.265625 0.765625
vt 0.484375 0.765625
vt 0.484375 0.984375
vt 0.265625 0.765625
vt 0.484375 0.765625
vt 0.484375 0.984375
vt 0.265625 0.984375
vt 0.265625 0.765625
vt 0.484375 0.765625
vt 0.484375 0.984375
vt 0.265625 0.765625
vt 0.484375 0.765625
vt 0.484375 0.984375
vt 0.265625 0.765625
vt 0.484375 0.765625
vt 0.484375 0.984375
vt 0.265625 0.984375
vt 0.265625 0.765625
vt 0.484375 0.765625
vt 0.484375 0.984375
vt 0.265625 0.765625
vt 0.484375 0.765625
vt 0.484375 0.984375
vt 0.265625 0.765625
vt 0.484375 0.765625
vt 0.484375 0.984375
vt 0.265625 0.984375
vt 0.265625 0.765625
vt 0.484375 0.765625
vt 0.484375 0.984375
vt 0.265625 0.765625
vt 0.484375 0.765625
vt 0.484375 0.984375
vt 0.265625 0.765625
vt 0.484375 0.765625
vt 0.484375 0.984375
vt 0.265625 0.984375
vt 0.265625 0.765625
vt 0.484375 0.765625
vt 0.484375 0.984375
vt 0.265625 0.765625
vt 0.484375 0.765625
vt 0.484375 0.984375
vt 0.265625 0.765625
vt 0.484375 0.765625
vt 0.484375 0.984375
vt 0.265625 0.984375
vt 0.265625 0.765625
vt 0.484375 0.765625
vt 0.484375 0.984375
vt 0.265625 0.765625
vt 0.484375 0.765625
vt 0.484375 0.984375
vt 0.265625 0.765625
vt 0.484375 0.765625
vt 0.484375 0.984375
vt 0.265625 0.984375
vt 0.265625 0.765625
vt 0.484375 0.765625
vt 0.484375 0.984375
vt 0.265625 0.765625
vt 0.484375 0.765625
vt 0.484375 0.984375
vt 0.265625 0.765625
vt 0.484375 0.765625
vt 0.484375 0.984375
vt 0.265625 0.984375
vt 0.265625 0.765625
vt 0.484375 0.765625
vt 0.484375 0.984375
vt 0.265625 0.765625
vt 0.484375 0.765625
vt 0.484375 0.984375
vt 0.265625 0.765625
vt 0.484375 0.765625
vt 0.484375 0.984375
vt 0.265625 0.984375
vt 0.265625 0.765625
vt 0.484375 0.765625
vt 0.484375 0.984375
vt 0.265625 0.765625
vt 0.484375 0.765625
vt 0.484375 0.984375
vt 0.265625 0.765625
vt 0.484375 0.765625
vt 0.484375 0.984375
vt 0.265625 0.984375
vt 0.265625 0.765625
vt 0.484375 0.765625
vt 0.484375 0.984375
vt 0.265625 0.765625
vt 0.484375 0.765625
vt 0.484375 0.984375
vt 0.265625 0.765625
vt 0.484375 0.765625
vt 0.484375 0.984375
vt 0.265625 0.984375
vt 0.265625 0.765625
vt 0.484375 0.765625
vt 0.484375 0.984375
vt 0.265625 0.765625
vt 0.484375 0.765625
vt 0.484375 0.984375
vt 0.265625 0.765625
vt 0.484375 0.765625
vt 0.484375 0.984375
vt 0.265625 0.984375
vt 0.265625 0.765625
vt 0.484375 0.765625
vt 0.484375 0.984375
vt 0.265625 0.765625
vt 0.484375 0.765625
vt 0.484375 0.984375
vt 0.265625 0.765625
vt 0.484375 0.765625
vt 0.484375 0.984375
vt 0.265625 0.984375
vt 0.265625 0.765625
vt 0.484375 0.765625
vt 0.484375 0.984375
vt 0.265625 0.765625
vt 0.484375 0.765625
vt 0.484375 0.984375
vt 0.265625 0.765625
vt 0.484375 0.765625
vt 0.484375 0.984375
vt 0.265625 0.984375
vt 0.265625 0.765625
vt 0.484375 0.765625
vt 0.484375 0.984375
vt 0.265625 0.765625
vt 0.484375 0.765625
vt 0.484375 0.984375
vt 0.265625 0.765625
vt 0.484375 0.765625
vt 0.484375 0.984375
vt 0.265625 0.984375
vt 0.265625 0.765625
vt 0.484375 0.765625
vt 0.484375 0.984375
vt 0.265625 0.765625
vt 0.484375 0.765625
vt 0.484375 0.984375
vt 0.265625 0.765625
vt 0.484375 0.765625
vt 0.484375 0.984375
vt 0.265625 0.984375
vt 0.265625 0.765625
vt 0.484375 0.765625
vt 0.484375 0.984375
vt 0.265625 0.765625
vt 0.484375 0.765625
vt 0.484375 0.984375
vt 0.265625 0.765625
vt 0.484375 0.765625
vt 0.484375 0.984375
vt 0.265625 0.984375
vt 0.265625 0.765625
vt 0.484375 0.765625
vt 0.484375 0.984375
vt 0.265625 0.765625
vt 0.484375 0.765625
vt 0.484375 0.984375
vt 0.265625 0.765625
vt 0.484375 0.765625
vt 0.484375 0.984375
vt 0.265625 0.984375
vt 0.265625 0.765625
vt 0.484375 0.765625
vt 0.484375 0.984375
vt 0.265625 0.765625
vt 0.484375 0.765625
vt 0.484375 0.984375
vt 0.265625 0.765625
vt 0.484375 0.765625
vt 0.484375 0.984375
vt 0.265625 0.984375
vt 0.265625 0.765625
vt 0.484375 0.765625
vt 0.484375 0.984375
vt 0.265625 0.765625
vt 0.484375 0.765625
vt 0.484375 0.984375
vt 0.265625 0.765625
vt 0.484375 0.765625
vt 0.484375 0.984375
vt 0.265625 0.984375
vt 0.265625 0.765625
vt 0.484375 0.765625
vt 0.484375 0.984375
vt 0.265625 0.765625
vt 0.484375 0.765625
vt 0.484375 0.984375
vt 0.265625 0.765625
vt 0.484375 0.765625
vt 0.484375 0.984375
vt 0.265625 0.984375
vt 0.265625 0.765625
vt 0.484375 0.765625
vt 0.484375 0.984375
vt 0.265625 0.765625
vt 0.484375 0.765625
vt 0.484375 0.984375
vt 0.265625 0.765625
vt 0.484375 0.765625
vt 0.484375 0.984375
vt 0.265625 0.984375
vt 0.265625 0.765625
vt 0.484375 0.765625
vt 0.484375 0.984375
vt 0.265625 0.765625
vt 0.484375 0.765625
vt 0.484375 0.984375
vt 0.265625 0.765625
vt 0.484375 0.765625
vt 0.484375 0.984375
vt 0.265625 0.984375
vt 0.265625 0.765625
vt 0.484375 0.765625
vt 0.484375 0.984375
vt 0.265625 0.765625
vt 0.484375 0.765625
vt 0.484375 0.984375
vt 0.265625 0.765625
vt 0.484375 0.765625
vt 0.484375 0.984375
vt 0.265625 0.984375
vt 0.265625 0.765625
vt 0.484375 0.765625
vt 0.484375 0.984375
vt 0.265625 0.765625
vt 0.484375 0.765625
vt 0.484375 0.984375
vt 0.265625 0.765625
vt 0.484375 0.765625
vt 0.484375 0.984375
vt 0.265625 0.984375
vt 0.265625 0.765625
vt 0.484375 0.765625
vt 0.484375 0.984375
vt 0.265625 0.765625
vt 0.484375 0.765625
vt 0.484375 0.984375
vt 0.265625 0.765625
vt 0.484375 0.765625
vt 0.484375 0.984375
vt 0.265625 0.984375
vt 0.265625 0.765625
vt 0.484375 0.765625
vt 0.484375 0.984375
vt 0.265625 0.765625
vt 0.484375 0.765625
vt 0.484375 0.984375
vt 0.265625 0.765625
vt 0.484375 0.765625
vt 0.484375 0.984375
vt 0.265625 0.984375
vt 0.265625 0.765625
vt 0.484375 0.765625
vt 0.484375 0.984375
vt 0.265625 0.765625
vt 0.484375 0.765625
vt 0.484375 0.984375
vt 0.265625 0.765625
vt 0.484375 0.765625
vt 0.484375 0.984375
vt 0.265625 0.984375
vt 0.265625 0.765625
vt 0.484375 0.765625
vt 0.484375 0.984375
vt 0.265625 0.765625
vt 0.484375 0.765625
vt 0.484375 0.984375
vt 0.265625 0.765625
vt 0.484375 0.765625
vt 0.484375 0.984375
vt 0.265625 0.984375
vt 0.265625 0.765625
vt 0.484375 0.765625
vt 0.484375 0.984375
vt 0.265625 0.765625
vt 0.484375 0.765625
vt 0.484375 0.984375
vt 0.265625 0.765625
vt 0.484375 0.765625
vt 0.484375 0.984375
vt 0.265625 0.984375
vt 0.265625 0.765625
vt 0.484375 0.765625
vt 0.484375 0.984375
vt 0.265625 0.765625
vt 0.484375 0.765625
vt 0.484375 0.984375
vt 0.265625 0.765625
vt 0.484375 0.765625
vt 0.484375 0.984375
vt 0.265625 0.984375
vt 0.265625 0.765625
vt 0.484375 0.765625
vt 0.484375 0.984375
vt 0.265625 0.765625
vt 0.484375 0.765625
vt 0.484375 0.984375
vt 0.265625 0.765625
vt 0.484375 0.765625
vt 0.484375 0.984375
vt 0.265625 0.984375
vt 0.265625 0.765625
vt 0.484375 0.765625
vt 0.484375 0.984375
vt 0.265625 0.765625
vt 0.484375 0.765625
vt 0.484375 0.984375
vt 0.265625 0.765625
vt 0.484375 0.765625
vt 0.484375 0.984375
vt 0.265625 0.984375
vt 0.265625 0.765625
vt 0.484375 0.765625
vt 0.484375 0.984375
vt 0.265625 0.765625
vt 0.484375 0.765625
vt 0.484375 0.984375
vt 0.265625 0.765625
vt 0.484375 0.765625
vt 0.484375 0.984375
vt 0.265625 0.984375
vt 0.265625 0.765625
vt 0.484375 0.765625
vt 0.484375 0.984375
vt 0.265625 0.765625
vt 0.484375 0.765625
vt 0.484375 0.984375
vt 0.265625 0.765625
vt 0.484375 0.765625
vt 0.484375 0.984375
vt 0.265625 0.984375
vt 0.265625 0.765625
vt 0.484375 0.765625
vt 0.484375 0.984375
vt 0.265625 0.765625
vt 0.484375 0.765625
vt 0.484375 0.984375
vt 0.265625 0.765625
vt 0.484375 0.765625
vt 0.484375 0.984375
vt 0.265625 0.984375
vt 0.265625 0.765625
vt 0.484375 0.765625
vt 0.484375 0.984375
vt 0.265625 0.765625
vt 0.484375 0.765625
vt 0.484375 0.984375
vt 0.265625 0.765625
vt 0.484375 0.765625
vt 0.484375 0.984375
vt 0.265625 0.984375
vt 0.265625 0.765625
vt 0.484375 0.765625
vt 0.484375 0.984375
vt 0.265625 0.765625
vt 0.484375 0.765625
vt 0.484375 0.984375
vt 0.265625 0.765625
vt 0.484375 0.765625
vt 0.484375 0.984375
vt 0.265625 0.984375
vt 0.265625 0.765625
vt 0.484375 0.765625
vt 0.484375 0.984375
vt 0.265625 0.765625
vt 0.484375 0.765625
vt 0.484375 0.984375
vt 0.265625 0.765625
vt 0.484375 0.765625
vt 0.484375 0.984375
vt 0.265625 0.984375
vt 0.265625 0.765625
vt 0.484375 0.765625
vt 0.484375 0.984375
vt 0.265625 0.765625
vt 0.484375 0.765625
vt 0.484375 0.984375
vt 0.265625 0.765625
vt 0.484375 0.765625
vt 0.484375 0.984375
vt 0.265625 0.984375
vt 0.265625 0.765625
vt 0.484375 0.765625
vt 0.484375 0.984375
vt 0.265625 0.765625
vt 0.484375 0.765625
vt 0.484375 0.984375
vt 0.265625 0.765625
vt 0.484375 0.765625
vt 0.484375 0.984375
vt 0.265625 0.984375
vt 0.265625 0.765625
vt 0.484375 0.765625
vt 0.484375 0.984375
vt 0.265625 0.765625
vt 0.484375 0.765625
vt 0.484375 0.984375
vt 0.265625 0.765625
vt 0.484375 0.765625
vt 0.484375 0.984375
vt 0.265625 0.984375
vt 0.265625 0.765625
vt 0.484375 0.765625
vt 0.484375 0.984375
vt 0.265625 0.765625
vt 0.484375 0.765625
vt 0.484375 0.984375
vt 0.265625 0.765625
vt 0.484375 0.765625
vt 0.484375 0.984375
vt 0.265625 0.984375
vt 0.265625 0.765625
vt 0.484375 0.765625
vt 0.484375 0.984375
vt 0.265625 0.765625
vt 0.484375 0.765625
vt 0.484375 0.984375
vt 0.265625 0.765625
vt 0.484375 0.765625
vt 0.484375 0.984375
vt 0.265625 0.984375
vt 0.265625 0.765625
vt 0.484375 0.765625
vt 0.484375 0.984375
vt 0.265625 0.765625
vt 0.484375 0.765625
vt 0.484375 0.984375
vt 0.265625 0.765625
vt 0.484375 0.765625
vt 0.484375 0.984375
vt 0.265625 0.984375
vt 0.265625 0.765625
vt 0.484375 0.765625
vt 0.484375 0.984375
vt 0.265625 0.765625
vt 0.484375 0.765625
vt 0.484375 0.984375
vt 0.265625 0.765625
vt 0.484375 0.765625
vt 0.484375 0.984375
vt 0.265625 0.984375
vt 0.265625 0.765625
vt 0.484375 0.765625
vt 0.484375 0.984375
vt 0.265625 0.765625
vt 0.484375 0.765625
vt 0.484375 0.984375
vt 0.265625 0.765625
vt 0.484375 0.765625
vt 0.484375 0.984375
vt 0.265625 0.984375
vt 0.265625 0.765625
vt 0.484375 0.765625
vt 0.484375 0.984375
vt 0.265625 0.765625
vt 0.484375 0.765625
vt 0.484375 0.984375
vt 0.265625 0.765625
vt 0.484375 0.765625
vt 0.484375 0.984375
vt 0.265625 0.984375
vt 0.265625 0.765625
vt 0.484375 0.765625
vt 0.484375 0.984375
vt 0.265625 0.765625
vt 0.484375 0.765625
vt 0.484375 0.984375
vt 0.265625 0.765625
vt 0.484375 0.765625
vt 0.484375 0.984375
vt 0.265625 0.984375
vt 0.265625 0.765625
vt 0.484375 0.765625
vt 0.484375 0.984375
vt 0.265625 0.765625
vt 0.484375 0.765625
vt 0.484375 0.984375
vt 0.265625 0.765625
vt 0.484375 0.765625
vt 0.484375 0.984375
vt 0.265625 0.984375
vt 0.265625 0.765625
vt 0.484375 0.765625
vt 0.484375 0.984375
vt 0.265625 0.765625
vt 0.484375 0.765625
vt 0.484375 0.984375
vt 0.265625 0.765625
vt 0.484375 0.765625
vt 0.484375 0.984375
vt 0.265625 0.984375
vt 0.265625 0.765625
vt 0.484375 0.765625
vt 0.484375 0.984375
vt 0.265625 0.765625
vt 0.484375 0.765625
vt 0.484375 0.984375
vt 0.265625 0.765625
vt 0.484375 0.765625
vt 0.484375 0.984375
vt 0.265625 0.984375
vt 0.265625 0.765625
vt 0.484375 0.765625
vt 0.484375 0.984375
vt 0.265625 0.765625
vt 0.484375 0.765625
vt 0.484375 0.984375
vt 0.265625 0.765625
vt 0.484375 0.765625
vt 0.484375 0.984375
vt 0.265625 0.984375
vt 0.265625 0.765625
vt 0.484375 0.765625
vt 0.484375 0.984375
vt 0.265625 0.765625
vt 0.484375 0.765625
vt 0.484375 0.984375
vt 0.265625 0.765625
vt 0.484375 0.765625
vt 0.484375 0.984375
vt 0.265625 0.984375
vt 0.265625 0.765625
vt 0.484375 0.765625
vt 0.484375 0.984375
vt 0.265625 0.765625
vt 0.484375 0.765625
vt 0.484375 0.984375
vt 0.265625 0.765625
vt 0.484375 0.765625
vt 0.484375 0.984375
vt 0.265625 0.984375
vt 0.265625 0.765625
vt 0.484375 0.765625
vt 0.484375 0.984375
vt 0.265625 0.765625
vt 0.484375 0.765625
vt 0.484375 0.984375
vt 0.265625 0.765625
vt 0.484375 0.765625
vt 0.484375 0.984375
vt 0.265625 0.984375
vt 0.265625 0.765625
vt 0.484375 0.765625
vt 0.484375 0.984375
vt 0.265625 0.765625
vt 0.484375 0.765625
vt 0.484375 0.984375
vt 0.265625 0.765625
vt 0.484375 0.765625
vt 0.484375 0.984375
vt 0.265625 0.984375
vt 0.265625 0.765625
vt 0.484375 0.765625
vt 0.484375 0.984375
vt 0.265625 0.765625
vt 0.484375 0.765625
vt 0.484375 0.984375
vt 0.265625 0.765625
vt 0.484375 0.765625
vt 0.484375 0.984375
vt 0.265625 0.984375
vt 0.265625 0.765625
vt 0.484375 0.765625
vt 0.484375 0.984375
vt 0.265625 0.765625
vt 0.484375 0.765625
vt 0.484375 0.984375
vt 0.265625 0.765625
vt 0.484375 0.765625
vt 0.484375 0.984375
vt 0.265625 0.984375
vt 0.265625 0.765625
vt 0.484375 0.765625
vt 0.484375 0.984375
vt 0.265625 0.765625
vt 0.484375 0.765625
vt 0.484375 0.984375
vt 0.265625 0.765625
vt 0.484375 0.765625
vt 0.484375 0.984375
vt 0.265625 0.984375
vt 0.265625 0.765625
vt 0.484375 0.765625
vt 0.484375 0.984375
vt 0.265625 0.765625
vt 0.484375 0.765625
vt 0.484375 0.984375
vt 0.265625 0.765625
vt 0.484375 0.765625
vt 0.484375 0.984375
vt 0.265625 0.984375
vt 0.265625 0.765625
vt 0.484375 0.765625
vt 0.484375 0.984375
vt 0.265625 0.765625
vt 0.484375 0.765625
vt 0.484375 0.984375
vt 0.265625 0.765625
vt 0.484375 0.765625
vt 0.484375 0.984375
vt 0.265625 0.984375
vt 0.265625 0.765625
vt 0.484375 0.765625
vt 0.484375 0.984375
vt 0.265625 0.765625
vt 0.484375 0.765625
vt 0.484375 0.984375
vt 0.265625 0.765625
vt 0.484375 0.765625
vt 0.484375 0.984375
vt 0.265625 0.984375
vt 0.265625 0.765625
vt 0.484375 0.765625
vt 0.484375 0.984375
vt 0.265625 0.765625
vt 0.484375 0.765625
vt 0.484375 0.984375
vt 0.265625 0.765625
vt 0.484375 0.765625
vt 0.484375 0.984375
vt 0.265625 0.984375
vt 0.265625 0.765625
vt 0.484375 0.765625
vt 0.484375 0.984375
vt 0.265625 0.765625
vt 0.484375 0.765625
vt 0.484375 0.984375
vt 0.265625 0.765625
vt 0.484375 0.765625
vt 0.484375 0.984375
vt 0.265625 0.984375
vt 0.265625 0.765625
vt 0.484375 0.765625
vt 0.484375 0.984375
vt 0.265625 0.765625
vt 0.484375 0.765625
vt 0.484375 0.984375
vt 0.265625 0.765625
vt 0.484375 0.765625
vt 0.484375 0.984375
vt 0.265625 0.984375
vt 0.265625 0.765625
vt 0.484375 0.765625
vt 0.484375 0.984375
vt 0.265625 0.765625
vt 0.484375 0.765625
vt 0.484375 0.984375
vt 0.265625 0.765625
vt 0.484375 0.765625
vt 0.484375 0.984375
vt 0.265625 0.984375
vt 0.265625 0.765625
vt 0.484375 0.765625
vt 0.484375 0.984375
vt 0.265625 0.765625
vt 0.484375 0.765625
vt 0.484375 0.984375
vt 0.265625 0.765625
vt 0.484375 0.765625
vt 0.484375 0.984375
vt 0.265625 0.984375
vt 0.265625 0.765625
vt 0.484375 0.765625
vt 0.484375 0.984375
vt 0.265625 0.765625
vt 0.484375 0.765625
vt 0.484375 0.984375
vt 0.265625 0.765625
vt 0.484375 0.765625
vt 0.484375 0.984375
vt 0.265625 0.984375
vt 0.265625 0.765625
vt 0.484375 0.765625
vt 0.484375 0.984375
vt 0.265625 0.765625
vt 0.484375 0.765625
vt 0.484375 0.984375
vt 0.265625 0.765625
vt 0.484375 0.765625
vt 0.484375 0.984375
vt 0.265625 0.984375
vt 0.265625 0.765625
vt 0.484375 0.765625
vt 0.484375 0.984375
vt 0.265625 0.765625
vt 0.484375 0.765625
vt 0.484375 0.984375
vn 0.00000000 0.00000000 -1.00000000
vn 0.00000000 0.00000000 1.00000000
vn -1.00000000 0.00000000 0.00000000
vn 1.00000000 0.00000000 0.00000000
vn 0.00000000 -1.00000000 0.00000000
vn 0.00000000 1.00000000 0.00000000
vn 0.00000000 0.00000000 -1.00000000
vn 0.00000000 0.00000000 1.00000000
vn -1.00000000 0.00000000 0.00000000
vn 1.00000000 0.00000000 0.00000000
vn 0.00000000 -1.00000000 0.00000000
vn 0.00000000 0.98769614 -0.15638522
vn 0.00000000 0.00000000 -1.00000000
vn 0.00000000 0.00000000 1.00000000
vn -1.00000000 0.00000000 0.00000000
vn 1.00000000 0.00000000 0.00000000
vn 0.00000000 -1.00000000 0.00000000
vn 0.00000000 0.98769614 0.15638522
vn 0.00000000 0.00000000 -1.00000000
vn 0.00000000 0.00000000 1.00000000
vn -1.00000000 0.00000000 0.00000000
vn 1.00000000 0.00000000 0.00000000
vn 0.00000000 -1.00000000 0.00000000
vn 0.00000000 1.00000000 0.00000000
vn 0.00000000 0.00000000 -1.00000000
vn 0.00000000 0.00000000 1.00000000
vn -1.00000000 0.00000000 0.00000000
vn 1.00000000 0.00000000 0.00000000
vn 0.00000000 -1.00000000 0.00000000
vn 0.00000000 1.00000000 0.00000000
vn 0.00000000 0.00000000 -1.00000000
vn 0.00000000 0.00000000 1.00000000
vn -1.00000000 0.00000000 0.00000000
vn 1.00000000 0.00000000 0.00000000
vn 0.00000000 -1.00000000 0.00000000
vn 0.00000000 1.00000000 0.00000000
vn 0.00000000 0.00000000 -1.00000000
vn 0.00000000 0.00000000 1.00000000
vn -1.00000000 0.00000000 0.00000000
vn 1.00000000 0.00000000 0.00000000
vn 0.00000000 -1.00000000 0.00000000
vn 0.00000000 1.00000000 0.00000000
vn -0.86601747 0.00000000 -0.50001374
vn -0.00000000 -1.00000000 -0.00000000
vn 0.00000000 1.00000000 0.00000000
vn 0.00000000 0.00000000 1.00000000
vn 0.00000000 -1.00000000 0.00000000
vn 0.00000000 1.00000000 -0.00000000
vn 0.86601747 0.00000000 -0.50001374
vn 0.00000000 -1.00000000 0.00000000
vn -0.00000000 1.00000000 0.00000000
vn -0.86601747 0.00000000 -0.50001374
vn -0.00000000 -1.00000000 -0.00000000
vn 0.00000000 1.00000000 0.00000000
vn 0.00000000 0.00000000 1.00000000
vn 0.00000000 -1.00000000 0.00000000
vn 0.00000000 1.00000000 -0.00000000
vn 0.86601747 0.00000000 -0.50001374
vn 0.00000000 -1.00000000 0.00000000
vn -0.00000000 1.00000000 0.00000000
vn -0.86601747 0.00000000 -0.50001374
vn -0.00000000 -1.00000000 -0.00000000
vn 0.00000000 1.00000000 0.00000000
vn 0.00000000 0.00000000 1.00000000
vn 0.00000000 -1.00000000 0.00000000
vn 0.00000000 1.00000000 -0.00000000
vn 0.86601747 0.00000000 -0.50001374
vn 0.00000000 -1.00000000 0.00000000
vn -0.00000000 1.00000000 0.00000000
vn -0.86601747 0.00000000 -0.50001374
vn -0.00000000 -1.00000000 -0.00000000
vn 0.00000000 1.00000000 0.00000000
vn 0.00000000 0.00000000 1.00000000
vn 0.00000000 -1.00000000 0.00000000
vn 0.00000000 1.00000000 -0.00000000
vn 0.86601747 0.00000000 -0.50001374
vn 0.00000000 -1.00000000 0.00000000
vn -0.00000000 1.00000000 0.00000000
vn -0.86601747 0.00000000 -0.50001374
vn -0.00000000 -1.00000000 -0.00000000
vn 0.00000000 1.00000000 0.00000000
vn 0.00000000 0.00000000 1.00000000
vn 0.00000000 -1.00000000 0.00000000
vn 0.00000000 1.00000000 -0.00000000
vn 0.86601747 0.00000000 -0.50001374
vn 0.00000000 -1.00000000 0.00000000
vn -0.00000000 1.00000000 0.00000000
vn -0.49997585 -0.85538372 0.13543575
vn -0.00000000 -0.15638951 -0.98769546
vn 0.00000000 0.15638951 0.98769546
vn 1.00000000 -0.00000000 0.00000000
vn -0.00000000 -0.15638951 -0.98769546
vn 0.00000000 0.15638951 0.98769546
vn -0.49997585 0.85538372 -0.13543575
vn -0.00000000 -0.15638951 -0.98769546
vn 0.00000000 0.15638951 0.98769546
vn -0.49997585 -0.85538372 0.13543575
vn -0.00000000 -0.15638951 -0.98769546
vn 0.00000000 0.15638951 0.98769546
vn 1.00000000 -0.00000000 0.00000000
vn -0.00000000 -0.15638951 -0.98769546
vn 0.00000000 0.15638951 0.98769546
vn -0.49997585 0.85538372 -0.13543575
vn -0.00000000 -0.15638951 -0.98769546
vn 0.00000000 0.15638951 0.98769546
vn -0.86601747 0.00000000 -0.50001374
vn -0.00000000 -1.00000000 -0.00000000
vn 0.00000000 1.00000000 0.00000000
vn 0.00000000 0.00000000 1.00000000
vn 0.00000000 -1.00000000 0.00000000
vn 0.00000000 1.00000000 -0.00000000
vn 0.86601747 0.00000000 -0.50001374
vn 0.00000000 -1.00000000 0.00000000
vn -0.00000000 1.00000000 0.00000000
vn -0.86601747 0.00000000 -0.50001374
vn -0.00000000 -1.00000000 -0.00000000
vn 0.00000000 1.00000000 0.00000000
vn 0.00000000 0.00000000 1.00000000
vn 0.00000000 -1.00000000 0.00000000
vn 0.00000000 1.00000000 -0.00000000
vn 0.86601747 0.00000000 -0.50001374
vn 0.00000000 -1.00000000 0.00000000
vn -0.00000000 1.00000000 0.00000000
vn -0.86601747 0.00000000 -0.50001374
vn -0.00000000 -1.00000000 -0.00000000
vn 0.00000000 1.00000000 0.00000000
vn 0.00000000 0.00000000 1.00000000
vn 0.00000000 -1.00000000 0.00000000
vn 0.00000000 1.00000000 -0.00000000
vn 0.86601747 0.00000000 -0.50001374
vn 0.00000000 -1.00000000 0.00000000
vn -0.00000000 1.00000000 0.00000000
vn -0.86601747 0.00000000 -0.50001374
vn -0.00000000 -1.00000000 -0.00000000
vn 0.00000000 1.00000000 0.00000000
vn 0.00000000 0.00000000 1.00000000
vn 0.00000000 -1.00000000 0.00000000
vn 0.00000000 1.00000000 -0.00000000
vn 0.86601747 0.00000000 -0.50001374
vn 0.00000000 -1.00000000 0.00000000
vn -0.00000000 1.00000000 0.00000000
vn -0.86601747 0.00000000 -0.50001374
vn -0.00000000 -1.00000000 -0.00000000
vn 0.00000000 1.00000000 0.00000000
vn 0.00000000 0.00000000 1.00000000
vn 0.00000000 -1.00000000 0.00000000
vn 0.00000000 1.00000000 -0.00000000
vn 0.86601747 0.00000000 -0.50001374
vn 0.00000000 -1.00000000 0.00000000
vn -0.00000000 1.00000000 0.00000000
vn -0.49997585 -0.85538372 0.13543575
vn -0.00000000 -0.15638951 -0.98769546
vn 0.00000000 0.15638951 0.98769546
vn 1.00000000 -0.00000000 0.00000000
vn -0.00000000 -0.15638951 -0.98769546
vn 0.00000000 0.15638951 0.98769546
vn -0.49997585 0.85538372 -0.13543575
vn -0.00000000 -0.15638951 -0.98769546
vn 0.00000000 0.15638951 0.98769546
vn -0.49997585 -0.85538372 0.13543575
vn -0.00000000 -0.15638951 -0.98769546
vn 0.00000000 0.15638951 0.98769546
vn 1.00000000 -0.00000000 0.00000000
vn -0.00000000 -0.15638951 -0.98769546
vn 0.00000000 0.15638951 0.98769546
vn -0.49997585 0.85538372 -0.13543575
vn -0.00000000 -0.15638951 -0.98769546
vn 0.00000000 0.15638951 0.98769546
vn -0.86601747 0.00000000 -0.50001374
vn -0.00000000 -1.00000000 -0.00000000
vn 0.00000000 1.00000000 0.00000000
vn 0.00000000 0.00000000 1.00000000
vn 0.00000000 -1.00000000 0.00000000
vn 0.00000000 1.00000000 -0.00000000
vn 0.86601747 0.00000000 -0.50001374
vn 0.00000000 -1.00000000 0.00000000
vn -0.00000000 1.00000000 0.00000000
vn -0.86601747 0.00000000 -0.50001374
vn -0.00000000 -1.00000000 -0.00000000
vn 0.00000000 1.00000000 0.00000000
vn 0.00000000 0.00000000 1.00000000
vn 0.00000000 -1.00000000 0.00000000
vn 0.00000000 1.00000000 -0.00000000
vn 0.86601747 0.00000000 -0.50001374
vn 0.00000000 -1.00000000 0.00000000
vn -0.00000000 1.00000000 0.00000000
vn -0.86601747 0.00000000 -0.50001374
vn -0.00000000 -1.00000000 -0.00000000
vn 0.00000000 1.00000000 0.00000000
vn 0.00000000 0.00000000 1.00000000
vn 0.00000000 -1.00000000 0.00000000
vn 0.00000000 1.00000000 -0.00000000
vn 0.86601747 0.00000000 -0.50001374
vn 0.00000000 -1.00000000 0.00000000
vn -0.00000000 1.00000000 0.00000000
vn -0.86601747 0.00000000 -0.50001374
vn -0.00000000 -1.00000000 -0.00000000
vn 0.00000000 1.00000000 0.00000000
vn 0.00000000 0.00000000 1.00000000
vn 0.00000000 -1.00000000 0.00000000
vn 0.00000000 1.00000000 -0.00000000
vn 0.86601747 0.00000000 -0.50001374
vn 0.00000000 -1.00000000 0.00000000
vn -0.00000000 1.00000000 0.00000000
vn -0.86601747 0.00000000 -0.50001374
vn -0.00000000 -1.00000000 -0.00000000
vn 0.00000000 1.00000000 0.00000000
vn 0.00000000 0.00000000 1.00000000
vn 0.00000000 -1.00000000 0.00000000
vn 0.00000000 1.00000000 -0.00000000
vn 0.86601747 0.00000000 -0.50001374
vn 0.00000000 -1.00000000 0.00000000
vn -0.00000000 1.00000000 0.00000000
vn -0.50001374 -0.86601747 0.00000000
vn -0.00000000 -0.00000000 -1.00000000
vn 0.00000000 0.00000000 1.00000000
vn 1.00000000 0.00000000 0.00000000
vn 0.00000000 0.00000000 -1.00000000
vn -0.00000000 0.00000000 1.00000000
vn -0.50001374 0.86601747 0.00000000
vn 0.00000000 0.00000000 -1.00000000
vn 0.00000000 -0.00000000 1.00000000
vn -0.50001374 -0.86601747 0.00000000
vn -0.00000000 -0.00000000 -1.00000000
vn 0.00000000 0.00000000 1.00000000
vn 1.00000000 0.00000000 0.00000000
vn 0.00000000 0.00000000 -1.00000000
vn -0.00000000 0.00000000 1.00000000
vn -0.50001374 0.86601747 0.00000000
vn 0.00000000 0.00000000 -1.00000000
vn 0.00000000 -0.00000000 1.00000000
vn -0.86601747 0.00000000 -0.50001374
vn -0.00000000 -1.00000000 -0.00000000
vn 0.00000000 1.00000000 0.00000000
vn 0.00000000 0.00000000 1.00000000
vn 0.00000000 -1.00000000 0.00000000
vn 0.00000000 1.00000000 -0.00000000
vn 0.86601747 0.00000000 -0.50001374
vn 0.00000000 -1.00000000 0.00000000
vn -0.00000000 1.00000000 0.00000000
vn -0.86601747 0.00000000 -0.50001374
vn -0.00000000 -1.00000000 -0.00000000
vn 0.00000000 1.00000000 0.00000000
vn 0.00000000 0.00000000 1.00000000
vn 0.00000000 -1.00000000 0.00000000
vn 0.00000000 1.00000000 -0.00000000
vn 0.86601747 0.00000000 -0.50001374
vn 0.00000000 -1.00000000 0.00000000
vn -0.00000000 1.00000000 0.00000000
vn -0.86601747 0.00000000 -0.50001374
vn -0.00000000 -1.00000000 -0.00000000
vn 0.00000000 1.00000000 0.00000000
vn 0.00000000 0.00000000 1.00000000
vn 0.00000000 -1.00000000 0.00000000
vn 0.00000000 1.00000000 -0.00000000
vn 0.86601747 0.00000000 -0.50001374
vn 0.00000000 -1.00000000 0.00000000
vn -0.00000000 1.00000000 0.00000000
vn -0.86601747 0.00000000 -0.50001374
vn -0.00000000 -1.00000000 -0.00000000
vn 0.00000000 1.00000000 0.00000000
vn 0.00000000 0.00000000 1.00000000
vn 0.00000000 -1.00000000 0.00000000
vn 0.00000000 1.00000000 -0.00000000
vn 0.86601747 0.00000000 -0.50001374
vn 0.00000000 -1.00000000 0.00000000
vn -0.00000000 1.00000000 0.00000000
vn -0.86601747 0.00000000 -0.50001374
vn -0.00000000 -1.00000000 -0.00000000
vn 0.00000000 1.00000000 0.00000000
vn 0.00000000 0.00000000 1.00000000
vn 0.00000000 -1.00000000 0.00000000
vn 0.00000000 1.00000000 -0.00000000
vn 0.86601747 0.00000000 -0.50001374
vn 0.00000000 -1.00000000 0.00000000
vn -0.00000000 1.00000000 0.00000000
vn -0.50001374 -0.86601747 0.00000000
vn -0.00000000 -0.00000000 -1.00000000
vn 0.00000000 0.00000000 1.00000000
vn 1.00000000 0.00000000 0.00000000
vn 0.00000000 0.00000000 -1.00000000
vn -0.00000000 0.00000000 1.00000000
vn -0.50001374 0.86601747 0.00000000
vn 0.00000000 0.00000000 -1.00000000
vn 0.00000000 -0.00000000 1.00000000
vn -0.50001374 -0.86601747 0.00000000
vn -0.00000000 -0.00000000 -1.00000000
vn 0.00000000 0.00000000 1.00000000
vn 1.00000000 0.00000000 0.00000000
vn 0.00000000 0.00000000 -1.00000000
vn -0.00000000 0.00000000 1.00000000
vn -0.50001374 0.86601747 0.00000000
vn 0.00000000 0.00000000 -1.00000000
vn 0.00000000 -0.00000000 1.00000000
vn -0.86601747 0.00000000 -0.50001374
vn -0.00000000 -1.00000000 -0.00000000
vn 0.00000000 1.00000000 0.00000000
vn 0.00000000 0.00000000 1.00000000
vn 0.00000000 -1.00000000 0.00000000
vn 0.00000000 1.00000000 -0.00000000
vn 0.86601747 0.00000000 -0.50001374
vn 0.00000000 -1.00000000 0.00000000
vn -0.00000000 1.00000000 0.00000000
vn -0.86601747 0.00000000 -0.50001374
vn -0.00000000 -1.00000000 -0.00000000
vn 0.00000000 1.00000000 0.00000000
vn 0.00000000 0.00000000 1.00000000
vn 0.00000000 -1.00000000 0.00000000
vn 0.00000000 1.00000000 -0.00000000
vn 0.86601747 0.00000000 -0.50001374
vn 0.00000000 -1.00000000 0.00000000
vn -0.00000000 1.00000000 0.00000000
vn -0.86601747 0.00000000 -0.50001374
vn -0.00000000 -1.00000000 -0.00000000
vn 0.00000000 1.00000000 0.00000000
vn 0.00000000 0.00000000 1.00000000
vn 0.00000000 -1.00000000 0.00000000
vn 0.00000000 1.00000000 -0.00000000
vn 0.86601747 0.00000000 -0.50001374
vn 0.00000000 -1.00000000 0.00000000
vn -0.00000000 1.00000000 0.00000000
vn -0.86601747 0.00000000 -0.50001374
vn -0.00000000 -1.00000000 -0.00000000
vn 0.00000000 1.00000000 0.00000000
vn 0.00000000 0.00000000 1.00000000
vn 0.00000000 -1.00000000 0.00000000
vn 0.00000000 1.00000000 -0.00000000
vn 0.86601747 0.00000000 -0.50001374
vn 0.00000000 -1.00000000 0.00000000
vn -0.00000000 1.00000000 0.00000000
vn -0.86601747 0.00000000 -0.50001374
vn -0.00000000 -1.00000000 -0.00000000
vn 0.00000000 1.00000000 0.00000000
vn 0.00000000 0.00000000 1.00000000
vn 0.00000000 -1.00000000 0.00000000
vn 0.00000000 1.00000000 -0.00000000
vn 0.86601747 0.00000000 -0.50001374
vn 0.00000000 -1.00000000 0.00000000
vn -0.00000000 1.00000000 0.00000000
vn -0.49997585 -0.85538372 -0.13543575
vn 0.00000000 0.15638951 -0.98769546
vn 0.00000000 -0.15638951 0.98769546
vn 1.00000000 0.00000000 -0.00000000
vn 0.00000000 0.15638951 -0.98769546
vn -0.00000000 -0.15638951 0.98769546
vn -0.49997585 0.85538372 0.13543575
vn 0.00000000 0.15638951 -0.98769546
vn 0.00000000 -0.15638951 0.98769546
vn -0.49997585 -0.85538372 -0.13543575
vn 0.00000000 0.15638951 -0.98769546
vn 0.00000000 -0.15638951 0.98769546
vn 1.00000000 0.00000000 -0.00000000
vn 0.00000000 0.15638951 -0.98769546
vn -0.00000000 -0.15638951 0.98769546
vn -0.49997585 0.85538372 0.13543575
vn 0.00000000 0.15638951 -0.98769546
vn 0.00000000 -0.15638951 0.98769546
vn -0.86601747 0.00000000 -0.50001374
vn -0.00000000 -1.00000000 -0.00000000
vn 0.00000000 1.00000000 0.00000000
vn 0.00000000 0.00000000 1.00000000
vn 0.00000000 -1.00000000 0.00000000
vn 0.00000000 1.00000000 -0.00000000
vn 0.86601747 0.00000000 -0.50001374
vn 0.00000000 -1.00000000 0.00000000
vn -0.00000000 1.00000000 0.00000000
vn -0.86601747 0.00000000 -0.50001374
vn -0.00000000 -1.00000000 -0.00000000
vn 0.00000000 1.00000000 0.00000000
vn 0.00000000 0.00000000 1.00000000
vn 0.00000000 -1.00000000 0.00000000
vn 0.00000000 1.00000000 -0.00000000
vn 0.86601747 0.00000000 -0.50001374
vn 0.00000000 -1.00000000 0.00000000
vn -0.00000000 1.00000000 0.00000000
vn -0.86601747 0.00000000 -0.50001374
vn -0.00000000 -1.00000000 -0.00000000
vn 0.00000000 1.00000000 0.00000000
vn 0.00000000 0.00000000 1.00000000
vn 0.00000000 -1.00000000 0.00000000
vn 0.00000000 1.00000000 -0.00000000
vn 0.86601747 0.00000000 -0.50001374
vn 0.00000000 -1.00000000 0.00000000
vn -0.00000000 1.00000000 0.00000000
vn -0.86601747 0.00000000 -0.50001374
vn -0.00000000 -1.00000000 -0.00000000
vn 0.00000000 1.00000000 0.00000000
vn 0.00000000 0.00000000 1.00000000
vn 0.00000000 -1.00000000 0.00000000
vn 0.00000000 1.00000000 -0.00000000
vn 0.86601747 0.00000000 -0.50001374
vn 0.00000000 -1.00000000 0.00000000
vn -0.00000000 1.00000000 0.00000000
vn -0.86601747 0.00000000 -0.50001374
vn -0.00000000 -1.00000000 -0.00000000
vn 0.00000000 1.00000000 0.00000000
vn 0.00000000 0.00000000 1.00000000
vn 0.00000000 -1.00000000 0.00000000
vn 0.00000000 1.00000000 -0.00000000
vn 0.86601747 0.00000000 -0.50001374
vn 0.00000000 -1.00000000 0.00000000
vn -0.00000000 1.00000000 0.00000000
vn -0.49997585 -0.85538372 -0.13543575
vn 0.00000000 0.15638951 -0.98769546
vn 0.00000000 -0.15638951 0.98769546
vn 1.00000000 0.00000000 -0.00000000
vn 0.00000000 0.15638951 -0.98769546
vn -0.00000000 -0.15638951 0.98769546
vn -0.49997585 0.85538372 0.13543575
vn 0.00000000 0.15638951 -0.98769546
vn 0.00000000 -0.15638951 0.98769546
vn -0.49997585 -0.85538372 -0.13543575
vn 0.00000000 0.15638951 -0.98769546
vn 0.00000000 -0.15638951 0.98769546
vn 1.00000000 0.00000000 -0.00000000
vn 0.00000000 0.15638951 -0.98769546
vn -0.00000000 -0.15638951 0.98769546
vn -0.49997585 0.85538372 0.13543575
vn 0.00000000 0.15638951 -0.98769546
vn 0.00000000 -0.15638951 0.98769546
f 1/1/1 4/2/1 3/3/1
f 1/1/1 3/3/1 2/4/1
f 5/5/2 6/6/2 7/7/2
f 5/5/2 7/7/2 8/8/2
f 1/9/3 5/10/3 8/11/3
f 1/9/3 8/11/3 4/12/3
f 2/13/4 3/14/4 7/15/4
f 2/13/4 7/15/4 6/16/4
f 1/17/5 2/18/5 6/19/5
f 1/17/5 6/19/5 5/20/5
f 4/21/6 8/22/6 7/23/6
f 4/21/6 7/23/6 3/24/6
f 9/25/7 10/26/7 11/27/7
f 9/25/7 11/27/7 12/28/7
f 13/29/8 14/30/8 3/31/8
f 13/29/8 3/31/8 4/32/8
f 9/33/9 13/34/9 4/35/9
f 9/33/9 4/35/9 10/36/9
f 12/37/10 11/38/10 3/39/10
f 12/37/10 3/39/10 14/40/10
f 9/41/11 12/42/11 14/43/11
f 9/41/11 14/43/11 13/44/11
f 10/45/12 4/46/12 3/47/12
f 10/45/12 3/47/12 11/48/12
f 15/49/13 8/50/13 7/51/13
f 15/49/13 7/51/13 16/52/13
f 17/53/14 18/54/14 19/55/14
f 17/53/14 19/55/14 20/56/14
f 15/57/15 17/58/15 20/59/15
f 15/57/15 20/59/15 8/60/15
f 16/61/16 7/62/16 19/63/16
f 16/61/16 19/63/16 18/64/16
f 15/65/17 16/66/17 18/67/17
f 15/65/17 18/67/17 17/68/17
f 8/69/18 20/70/18 19/71/18
f 8/69/18 19/71/18 7/72/18
f 21/73/19 24/74/19 23/75/19
f 21/73/19 23/75/19 22/76/19
f 25/77/20 26/78/20 27/79/20
f 25/77/20 27/79/20 28/80/20
f 21/81/21 25/82/21 28/83/21
f 21/81/21 28/83/21 24/84/21
f 22/85/22 23/86/22 27/87/22
f 22/85/22 27/87/22 26/88/22
f 21/89/23 22/90/23 26/91/23
f 21/89/23 26/91/23 25/92/23
f 24/93/24 28/94/24 27/95/24
f 24/93/24 27/95/24 23/96/24
f 29/97/25 32/98/25 31/99/25
f 29/97/25 31/99/25 30/100/25
f 33/101/26 34/102/26 35/103/26
f 33/101/26 35/103/26 36/104/26
f 29/105/27 33/106/27 36/107/27
f 29/105/27 36/107/27 32/108/27
f 30/109/28 31/110/28 35/111/28
f 30/109/28 35/111/28 34/112/28
f 29/113/29 30/114/29 34/115/29
f 29/113/29 34/115/29 33/116/29
f 32/117/30 36/118/30 35/119/30
f 32/117/30 35/119/30 31/120/30
f 37/121/31 40/122/31 39/123/31
f 37/121/31 39/123/31 38/124/31
f 41/125/32 42/126/32 43/127/32
f 41/125/32 43/127/32 44/128/32
f 37/129/33 41/130/33 44/131/33
f 37/129/33 44/131/33 40/132/33
f 38/133/34 39/134/34 43/135/34
f 38/133/34 43/135/34 42/136/34
f 37/137/35 38/138/35 42/139/35
f 37/137/35 42/139/35 41/140/35
f 40/141/36 44/142/36 43/143/36
f 40/141/36 43/143/36 39/144/36
f 45/145/37 48/146/37 47/147/37
f 45/145/37 47/147/37 46/148/37
f 49/149/38 50/150/38 51/151/38
f 49/149/38 51/151/38 52/152/38
f 45/153/39 49/154/39 52/155/39
f 45/153/39 52/155/39 48/156/39
f 46/157/40 47/158/40 51/159/40
f 46/157/40 51/159/40 50/160/40
f 45/161/41 46/162/41 50/163/41
f 45/161/41 50/163/41 49/164/41
f 48/165/42 52/166/42 51/167/42
f 48/165/42 51/167/42 47/168/42
f 53/169/43 54/170/43 55/171/43
f 53/169/43 55/171/43 56/172/43
f 57/173/44 54/174/44 53/175/44
f 58/176/45 56/177/45 55/178/45
f 54/179/46 59/180/46 60/181/46
f 54/179/46 60/181/46 55/182/46
f 57/183/47 59/184/47 54/185/47
f 58/186/48 55/187/48 60/188/48
f 59/189/49 53/190/49 56/191/49
f 59/189/49 56/191/49 60/192/49
f 57/193/50 53/194/50 59/195/50
f 58/196/51 60/197/51 56/198/51
f 61/199/52 62/200/52 63/201/52
f 61/199/52 63/201/52 64/202/52
f 65/203/53 62/204/53 61/205/53
f 66/206/54 64/207/54 63/208/54
f 62/209/55 67/210/55 68/211/55
f 62/209/55 68/211/55 63/212/55
f 65/213/56 67/214/56 62/215/56
f 66/216/57 63/217/57 68/218/57
f 67/219/58 61/220/58 64/221/58
f 67/219/58 64/221/58 68/222/58
f 65/223/59 61/224/59 67/225/59
f 66/226/60 68/227/60 64/228/60
f 69/229/61 70/230/61 71/231/61
f 69/229/61 71/231/61 72/232/61
f 73/233/62 70/234/62 69/235/62
f 74/236/63 72/237/63 71/238/63
f 70/239/64 75/240/64 76/241/64
f 70/239/64 76/241/64 71/242/64
f 73/243/65 75/244/65 70/245/65
f 74/246/66 71/247/66 76/248/66
f 75/249/67 69/250/67 72/251/67
f 75/249/67 72/251/67 76/252/67
f 73/253/68 69/254/68 75/255/68
f 74/256/69 76/257/69 72/258/69
f 77/259/70 78/260/70 79/261/70
f 77/259/70 79/261/70 80/262/70
f 81/263/71 78/264/71 77/265/71
f 82/266/72 80/267/72 79/268/72
f 78/269/73 83/270/73 84/271/73
f 78/269/73 84/271/73 79/272/73
f 81/273/74 83/274/74 78/275/74
f 82/276/75 79/277/75 84/278/75
f 83/279/76 77/280/76 80/281/76
f 83/279/76 80/281/76 84/282/76
f 81/283/77 77/284/77 83/285/77
f 82/286/78 84/287/78 80/288/78
f 85/289/79 86/290/79 87/291/79
f 85/289/79 87/291/79 88/292/79
f 89/293/80 86/294/80 85/295/80
f 90/296/81 88/297/81 87/298/81
f 86/299/82 91/300/82 92/301/82
f 86/299/82 92/301/82 87/302/82
f 89/303/83 91/304/83 86/305/83
f 90/306/84 87/307/84 92/308/84
f 91/309/85 85/310/85 88/311/85
f 91/309/85 88/311/85 92/312/85
f 89/313/86 85/314/86 91/315/86
f 90/316/87 92/317/87 88/318/87
f 93/319/88 94/320/88 95/321/88
f 93/319/88 95/321/88 96/322/88
f 97/323/89 94/324/89 93/325/89
f 98/326/90 96/327/90 95/328/90
f 94/329/91 99/330/91 100/331/91
f 94/329/91 100/331/91 95/332/91
f 97/333/92 99/334/92 94/335/92
f 98/336/93 95/337/93 100/338/93
f 99/339/94 93/340/94 96/341/94
f 99/339/94 96/341/94 100/342/94
f 97/343/95 93/344/95 99/345/95
f 98/346/96 100/347/96 96/348/96
f 101/349/97 102/350/97 103/351/97
f 101/349/97 103/351/97 104/352/97
f 58/353/98 102/354/98 101/355/98
f 90/356/99 104/357/99 103/358/99
f 102/359/100 105/360/100 106/361/100
f 102/359/100 106/361/100 103/362/100
f 58/363/101 105/364/101 102/365/101
f 90/366/102 103/367/102 106/368/102
f 105/369/103 101/370/103 104/371/103
f 105/369/103 104/371/103 106/372/103
f 58/373/104 101/374/104 105/375/104
f 90/376/105 106/377/105 104/378/105
f 107/379/106 108/380/106 109/381/106
f 107/379/106 109/381/106 110/382/106
f 111/383/107 108/384/107 107/385/107
f 112/386/108 110/387/108 109/388/108
f 108/389/109 113/390/109 114/391/109
f 108/389/109 114/391/109 109/392/109
f 111/393/110 113/394/110 108/395/110
f 112/396/111 109/397/111 114/398/111
f 113/399/112 107/400/112 110/401/112
f 113/399/112 110/401/112 114/402/112
f 111/403/113 107/404/113 113/405/113
f 112/406/114 114/407/114 110/408/114
f 115/409/115 116/410/115 117/411/115
f 115/409/115 117/411/115 118/412/115
f 119/413/116 116/414/116 115/415/116
f 120/416/117 118/417/117 117/418/117
f 116/419/118 121/420/118 122/421/118
f 116/419/118 122/421/118 117/422/118
f 119/423/119 121/424/119 116/425/119
f 120/426/120 117/427/120 122/428/120
f 121/429/121 115/430/121 118/431/121
f 121/429/121 118/431/121 122/432/121
f 119/433/122 115/434/122 121/435/122
f 120/436/123 122/437/123 118/438/123
f 123/439/124 124/440/124 125/441/124
f 123/439/124 125/441/124 126/442/124
f 127/443/125 124/444/125 123/445/125
f 128/446/126 126/447/126 125/448/126
f 124/449/127 129/450/127 130/451/127
f 124/449/127 130/451/127 125/452/127
f 127/453/128 129/454/128 124/455/128
f 128/456/129 125/457/129 130/458/129
f 129/459/130 123/460/130 126/461/130
f 129/459/130 126/461/130 130/462/130
f 127/463/131 123/464/131 129/465/131
f 128/466/132 130/467/132 126/468/132
f 131/469/133 132/470/133 133/471/133
f 131/469/133 133/471/133 134/472/133
f 135/473/134 132/474/134 131/475/134
f 136/476/135 134/477/135 133/478/135
f 132/479/136 137/480/136 138/481/136
f 132/479/136 138/481/136 133/482/136
f 135/483/137 137/484/137 132/485/137
f 136/486/138 133/487/138 138/488/138
f 137/489/139 131/490/139 134/491/139
f 137/489/139 134/491/139 138/492/139
f 135/493/140 131/494/140 137/495/140
f 136/496/141 138/497/141 134/498/141
f 139/499/142 140/500/142 141/501/142
f 139/499/142 141/501/142 142/502/142
f 143/503/143 140/504/143 139/505/143
f 144/506/144 142/507/144 141/508/144
f 140/509/145 145/510/145 146/511/145
f 140/509/145 146/511/145 141/512/145
f 143/513/146 145/514/146 140/515/146
f 144/516/147 141/517/147 146/518/147
f 145/519/148 139/520/148 142/521/148
f 145/519/148 142/521/148 146/522/148
f 143/523/149 139/524/149 145/525/149
f 144/526/150 146/527/150 142/528/150
f 147/529/151 148/530/151 149/531/151
f 147/529/151 149/531/151 150/532/151
f 151/533/152 148/534/152 147/535/152
f 152/536/153 150/537/153 149/538/153
f 148/539/154 153/540/154 154/541/154
f 148/539/154 154/541/154 149/542/154
f 151/543/155 153/544/155 148/545/155
f 152/546/156 149/547/156 154/548/156
f 153/549/157 147/550/157 150/551/157
f 153/549/157 150/551/157 154/552/157
f 151/553/158 147/554/158 153/555/158
f 152/556/159 154/557/159 150/558/159
f 155/559/160 156/560/160 157/561/160
f 155/559/160 157/561/160 158/562/160
f 112/563/161 156/564/161 155/565/161
f 144/566/162 158/567/162 157/568/162
f 156/569/163 159/570/163 160/571/163
f 156/569/163 160/571/163 157/572/163
f 112/573/164 159/574/164 156/575/164
f 144/576/165 157/577/165 160/578/165
f 159/579/166 155/580/166 158/581/166
f 159/579/166 158/581/166 160/582/166
f 112/583/167 155/584/167 159/585/167
f 144/586/168 160/587/168 158/588/168
f 85/589/169 86/590/169 87/591/169
f 85/589/169 87/591/169 88/592/169
f 89/593/170 86/594/170 85/595/170
f 90/596/171 88/597/171 87/598/171
f 86/599/172 91/600/172 92/601/172
f 86/599/172 92/601/172 87/602/172
f 89/603/173 91/604/173 86/605/173
f 90/606/174 87/607/174 92/608/174
f 91/609/175 85/610/175 88/611/175
f 91/609/175 88/611/175 92/612/175
f 89/613/176 85/614/176 91/615/176
f 90/616/177 92/617/177 88/618/177
f 161/619/178 162/620/178 163/621/178
f 161/619/178 163/621/178 164/622/178
f 165/623/179 162/624/179 161/625/179
f 166/626/180 164/627/180 163/628/180
f 162/629/181 167/630/181 168/631/181
f 162/629/181 168/631/181 163/632/181
f 165/633/182 167/634/182 162/635/182
f 166/636/183 163/637/183 168/638/183
f 167/639/184 161/640/184 164/641/184
f 167/639/184 164/641/184 168/642/184
f 165/643/185 161/644/185 167/645/185
f 166/646/186 168/647/186 164/648/186
f 169/649/187 170/650/187 171/651/187
f 169/649/187 171/651/187 172/652/187
f 173/653/188 170/654/188 169/655/188
f 174/656/189 172/657/189 171/658/189
f 170/659/190 175/660/190 176/661/190
f 170/659/190 176/661/190 171/662/190
f 173/663/191 175/664/191 170/665/191
f 174/666/192 171/667/192 176/668/192
f 175/669/193 169/670/193 172/671/193
f 175/669/193 172/671/193 176/672/193
f 173/673/194 169/674/194 175/675/194
f 174/676/195 176/677/195 172/678/195
f 177/679/196 178/680/196 179/681/196
f 177/679/196 179/681/196 180/682/196
f 181/683/197 178/684/197 177/685/197
f 182/686/198 180/687/198 179/688/198
f 178/689/199 183/690/199 184/691/199
f 178/689/199 184/691/199 179/692/199
f 181/693/200 183/694/200 178/695/200
f 182/696/201 179/697/201 184/698/201
f 183/699/202 177/700/202 180/701/202
f 183/699/202 180/701/202 184/702/202
f 181/703/203 177/704/203 183/705/203
f 182/706/204 184/707/204 180/708/204
f 185/709/205 186/710/205 187/711/205
f 185/709/205 187/711/205 188/712/205
f 189/713/206 186/714/206 185/715/206
f 190/716/207 188/717/207 187/718/207
f 186/719/208 191/720/208 192/721/208
f 186/719/208 192/721/208 187/722/208
f 189/723/209 191/724/209 186/725/209
f 190/726/210 187/727/210 192/728/210
f 191/729/211 185/730/211 188/731/211
f 191/729/211 188/731/211 192/732/211
f 189/733/212 185/734/212 191/735/212
f 190/736/213 192/737/213 188/738/213
f 96/739/214 193/740/214 194/741/214
f 96/739/214 194/741/214 195/742/214
f 98/743/215 193/744/215 96/745/215
f 196/746/216 195/747/216 194/748/216
f 193/749/217 197/750/217 198/751/217
f 193/749/217 198/751/217 194/752/217
f 98/753/218 197/754/218 193/755/218
f 196/756/219 194/757/219 198/758/219
f 197/759/220 96/760/220 195/761/220
f 197/759/220 195/761/220 198/762/220
f 98/763/221 96/764/221 197/765/221
f 196/766/222 198/767/222 195/768/222
f 104/769/223 199/770/223 200/771/223
f 104/769/223 200/771/223 201/772/223
f 90/773/224 199/774/224 104/775/224
f 190/776/225 201/777/225 200/778/225
f 199/779/226 202/780/226 203/781/226
f 199/779/226 203/781/226 200/782/226
f 90/783/227 202/784/227 199/785/227
f 190/786/228 200/787/228 203/788/228
f 202/789/229 104/790/229 201/791/229
f 202/789/229 201/791/229 203/792/229
f 90/793/230 104/794/230 202/795/230
f 190/796/231 203/797/231 201/798/231
f 139/799/232 140/800/232 141/801/232
f 139/799/232 141/801/232 142/802/232
f 143/803/233 140/804/233 139/805/233
f 144/806/234 142/807/234 141/808/234
f 140/809/235 145/810/235 146/811/235
f 140/809/235 146/811/235 141/812/235
f 143/813/236 145/814/236 140/815/236
f 144/816/237 141/817/237 146/818/237
f 145/819/238 139/820/238 142/821/238
f 145/819/238 142/821/238 146/822/238
f 143/823/239 139/824/239 145/825/239
f 144/826/240 146/827/240 142/828/240
f 204/829/241 205/830/241 206/831/241
f 204/829/241 206/831/241 207/832/241
f 208/833/242 205/834/242 204/835/242
f 209/836/243 207/837/243 206/838/243
f 205/839/244 210/840/244 211/841/244
f 205/839/244 211/841/244 206/842/244
f 208/843/245 210/844/245 205/845/245
f 209/846/246 206/847/246 211/848/246
f 210/849/247 204/850/247 207/851/247
f 210/849/247 207/851/247 211/852/247
f 208/853/248 204/854/248 210/855/248
f 209/856/249 211/857/249 207/858/249
f 212/859/250 213/860/250 214/861/250
f 212/859/250 214/861/250 215/862/250
f 216/863/251 213/864/251 212/865/251
f 217/866/252 215/867/252 214/868/252
f 213/869/253 218/870/253 219/871/253
f 213/869/253 219/871/253 214/872/253
f 216/873/254 218/874/254 213/875/254
f 217/876/255 214/877/255 219/878/255
f 218/879/256 212/880/256 215/881/256
f 218/879/256 215/881/256 219/882/256
f 216/883/257 212/884/257 218/885/257
f 217/886/258 219/887/258 215/888/258
f 220/889/259 221/890/259 222/891/259
f 220/889/259 222/891/259 223/892/259
f 224/893/260 221/894/260 220/895/260
f 225/896/261 223/897/261 222/898/261
f 221/899/262 226/900/262 227/901/262
f 221/899/262 227/901/262 222/902/262
f 224/903/263 226/904/263 221/905/263
f 225/906/264 222/907/264 227/908/264
f 226/909/265 220/910/265 223/911/265
f 226/909/265 223/911/265 227/912/265
f 224/913/266 220/914/266 226/915/266
f 225/916/267 227/917/267 223/918/267
f 228/919/268 229/920/268 230/921/268
f 228/919/268 230/921/268 231/922/268
f 232/923/269 229/924/269 228/925/269
f 233/926/270 231/927/270 230/928/270
f 229/929/271 234/930/271 235/931/271
f 229/929/271 235/931/271 230/932/271
f 232/933/272 234/934/272 229/935/272
f 233/936/273 230/937/273 235/938/273
f 234/939/274 228/940/274 231/941/274
f 234/939/274 231/941/274 235/942/274
f 232/943/275 228/944/275 234/945/275
f 233/946/276 235/947/276 231/948/276
f 150/949/277 236/950/277 237/951/277
f 150/949/277 237/951/277 238/952/277
f 152/953/278 236/954/278 150/955/278
f 239/956/279 238/957/279 237/958/279
f 236/959/280 240/960/280 241/961/280
f 236/959/280 241/961/280 237/962/280
f 152/963/281 240/964/281 236/965/281
f 239/966/282 237/967/282 241/968/282
f 240/969/283 150/970/283 238/971/283
f 240/969/283 238/971/283 241/972/283
f 152/973/284 150/974/284 240/975/284
f 239/976/285 241/977/285 238/978/285
f 158/979/286 242/980/286 243/981/286
f 158/979/286 243/981/286 244/982/286
f 144/983/287 242/984/287 158/985/287
f 233/986/288 244/987/288 243/988/288
f 242/989/289 245/990/289 246/991/289
f 242/989/289 246/991/289 243/992/289
f 144/993/290 245/994/290 242/995/290
f 233/996/291 243/997/291 246/998/291
f 245/999/292 158/1000/292 244/1001/292
f 245/999/292 244/1001/292 246/1002/292
f 144/1003/293 158/1004/293 245/1005/293
f 233/1006/294 246/1007/294 244/1008/294
f 185/1009/295 186/1010/295 187/1011/295
f 185/1009/295 187/1011/295 188/1012/295
f 189/1013/296 186/1014/296 185/1015/296
f 190/1016/297 188/1017/297 187/1018/297
f 186/1019/298 191/1020/298 192/1021/298
f 186/1019/298 192/1021/298 187/1022/298
f 189/1023/299 191/1024/299 186/1025/299
f 190/1026/300 187/1027/300 192/1028/300
f 191/1029/301 185/1030/301 188/1031/301
f 191/1029/301 188/1031/301 192/1032/301
f 189/1033/302 185/1034/302 191/1035/302
f 190/1036/303 192/1037/303 188/1038/303
f 247/1039/304 248/1040/304 249/1041/304
f 247/1039/304 249/1041/304 250/1042/304
f 251/1043/305 248/1044/305 247/1045/305
f 252/1046/306 250/1047/306 249/1048/306
f 248/1049/307 253/1050/307 254/1051/307
f 248/1049/307 254/1051/307 249/1052/307
f 251/1053/308 253/1054/308 248/1055/308
f 252/1056/309 249/1057/309 254/1058/309
f 253/1059/310 247/1060/310 250/1061/310
f 253/1059/310 250/1061/310 254/1062/310
f 251/1063/311 247/1064/311 253/1065/311
f 252/1066/312 254/1067/312 250/1068/312
f 255/1069/313 256/1070/313 257/1071/313
f 255/1069/313 257/1071/313 258/1072/313
f 259/1073/314 256/1074/314 255/1075/314
f 260/1076/315 258/1077/315 257/1078/315
f 256/1079/316 261/1080/316 262/1081/316
f 256/1079/316 262/1081/316 257/1082/316
f 259/1083/317 261/1084/317 256/1085/317
f 260/1086/318 257/1087/318 262/1088/318
f 261/1089/319 255/1090/319 258/1091/319
f 261/1089/319 258/1091/319 262/1092/319
f 259/1093/320 255/1094/320 261/1095/320
f 260/1096/321 262/1097/321 258/1098/321
f 263/1099/322 264/1100/322 265/1101/322
f 263/1099/322 265/1101/322 266/1102/322
f 267/1103/323 264/1104/323 263/1105/323
f 268/1106/324 266/1107/324 265/1108/324
f 264/1109/325 269/1110/325 270/1111/325
f 264/1109/325 270/1111/325 265/1112/325
f 267/1113/326 269/1114/326 264/1115/326
f 268/1116/327 265/1117/327 270/1118/327
f 269/1119/328 263/1120/328 266/1121/328
f 269/1119/328 266/1121/328 270/1122/328
f 267/1123/329 263/1124/329 269/1125/329
f 268/1126/330 270/1127/330 266/1128/330
f 271/1129/331 272/1130/331 273/1131/331
f 271/1129/331 273/1131/331 274/1132/331
f 275/1133/332 272/1134/332 271/1135/332
f 276/1136/333 274/1137/333 273/1138/333
f 272/1139/334 277/1140/334 278/1141/334
f 272/1139/334 278/1141/334 273/1142/334
f 275/1143/335 277/1144/335 272/1145/335
f 276/1146/336 273/1147/336 278/1148/336
f 277/1149/337 271/1150/337 274/1151/337
f 277/1149/337 274/1151/337 278/1152/337
f 275/1153/338 271/1154/338 277/1155/338
f 276/1156/339 278/1157/339 274/1158/339
f 195/1159/340 279/1160/340 280/1161/340
f 195/1159/340 280/1161/340 281/1162/340
f 196/1163/341 279/1164/341 195/1165/341
f 282/1166/342 281/1167/342 280/1168/342
f 279/1169/343 283/1170/343 284/1171/343
f 279/1169/343 284/1171/343 280/1172/343
f 196/1173/344 283/1174/344 279/1175/344
f 282/1176/345 280/1177/345 284/1178/345
f 283/1179/346 195/1180/346 281/1181/346
f 283/1179/346 281/1181/346 284/1182/346
f 196/1183/347 195/1184/347 283/1185/347
f 282/1186/348 284/1187/348 281/1188/348
f 201/1189/349 285/1190/349 286/1191/349
f 201/1189/349 286/1191/349 287/1192/349
f 190/1193/350 285/1194/350 201/1195/350
f 276/1196/351 287/1197/351 286/1198/351
f 285/1199/352 288/1200/352 289/1201/352
f 285/1199/352 289/1201/352 286/1202/352
f 190/1203/353 288/1204/353 285/1205/353
f 276/1206/354 286/1207/354 289/1208/354
f 288/1209/355 201/1210/355 287/1211/355
f 288/1209/355 287/1211/355 289/1212/355
f 190/1213/356 201/1214/356 288/1215/356
f 276/1216/357 289/1217/357 287/1218/357
f 228/1219/358 229/1220/358 230/1221/358
f 228/1219/358 230/1221/358 231/1222/358
f 232/1223/359 229/1224/359 228/1225/359
f 233/1226/360 231/1227/360 230/1228/360
f 229/1229/361 234/1230/361 235/1231/361
f 229/1229/361 235/1231/361 230/1232/361
f 232/1233/362 234/1234/362 229/1235/362
f 233/1236/363 230/1237/363 235/1238/363
f 234/1239/364 228/1240/364 231/1241/364
f 234/1239/364 231/1241/364 235/1242/364
f 232/1243/365 228/1244/365 234/1245/365
f 233/1246/366 235/1247/366 231/1248/366
f 290/1249/367 291/1250/367 292/1251/367
f 290/1249/367 292/1251/367 293/1252/367
f 294/1253/368 291/1254/368 290/1255/368
f 295/1256/369 293/1257/369 292/1258/369
f 291/1259/370 296/1260/370 297/1261/370
f 291/1259/370 297/1261/370 292/1262/370
f 294/1263/371 296/1264/371 291/1265/371
f 295/1266/372 292/1267/372 297/1268/372
f 296/1269/373 290/1270/373 293/1271/373
f 296/1269/373 293/1271/373 297/1272/373
f 294/1273/374 290/1274/374 296/1275/374
f 295/1276/375 297/1277/375 293/1278/375
f 298/1279/376 299/1280/376 300/1281/376
f 298/1279/376 300/1281/376 301/1282/376
f 302/1283/377 299/1284/377 298/1285/377
f 303/1286/378 301/1287/378 300/1288/378
f 299/1289/379 304/1290/379 305/1291/379
f 299/1289/379 305/1291/379 300/1292/379
f 302/1293/380 304/1294/380 299/1295/380
f 303/1296/381 300/1297/381 305/1298/381
f 304/1299/382 298/1300/382 301/1301/382
f 304/1299/382 301/1301/382 305/1302/382
f 302/1303/383 298/1304/383 304/1305/383
f 303/1306/384 305/1307/384 301/1308/384
f 306/1309/385 307/1310/385 308/1311/385
f 306/1309/385 308/1311/385 309/1312/385
f 310/1313/386 307/1314/386 306/1315/386
f 311/1316/387 309/1317/387 308/1318/387
f 307/1319/388 312/1320/388 313/1321/388
f 307/1319/388 313/1321/388 308/1322/388
f 310/1323/389 312/1324/389 307/1325/389
f 311/1326/390 308/1327/390 313/1328/390
f 312/1329/391 306/1330/391 309/1331/391
f 312/1329/391 309/1331/391 313/1332/391
f 310/1333/392 306/1334/392 312/1335/392
f 311/1336/393 313/1337/393 309/1338/393
f 314/1339/394 315/1340/394 316/1341/394
f 314/1339/394 316/1341/394 317/1342/394
f 318/1343/395 315/1344/395 314/1345/395
f 319/1346/396 317/1347/396 316/1348/396
f 315/1349/397 320/1350/397 321/1351/397
f 315/1349/397 321/1351/397 316/1352/397
f 318/1353/398 320/1354/398 315/1355/398
f 319/1356/399 316/1357/399 321/1358/399
f 320/1359/400 314/1360/400 317/1361/400
f 320/1359/400 317/1361/400 321/1362/400
f 318/1363/401 314/1364/401 320/1365/401
f 319/1366/402 321/1367/402 317/1368/402
f 238/1369/403 322/1370/403 323/1371/403
f 238/1369/403 323/1371/403 324/1372/403
f 239/1373/404 322/1374/404 238/1375/404
f 325/1376/405 324/1377/405 323/1378/405
f 322/1379/406 326/1380/406 327/1381/406
f 322/1379/406 327/1381/406 323/1382/406
f 239/1383/407 326/1384/407 322/1385/407
f 325/1386/408 323/1387/408 327/1388/408
f 326/1389/409 238/1390/409 324/1391/409
f 326/1389/409 324/1391/409 327/1392/409
f 239/1393/410 238/1394/410 326/1395/410
f 325/1396/411 327/1397/411 324/1398/411
f 244/1399/412 328/1400/412 329/1401/412
f 244/1399/412 329/1401/412 330/1402/412
f 233/1403/413 328/1404/413 244/1405/413
f 319/1406/414 330/1407/414 329/1408/414
f 328/1409/415 331/1410/415 332/1411/415
f 328/1409/415 332/1411/415 329/1412/415
f 233/1413/416 331/1414/416 328/1415/416
f 319/1416/417 329/1417/417 332/1418/417
f 331/1419/418 244/1420/418 330/1421/418
f 331/1419/418 330/1421/418 332/1422/418
f 233/1423/419 244/1424/419 331/1425/419
f 319/1426/420 332/1427/420 330/1428/420
