mtllib TorusSettlementFarm_Rice.mtl
v -7.2485250 0.1266437 3.7500000
v -5.1780339 0.0646174 3.7500000
v -5.1780339 0.0646174 -3.7500000
v -7.2485250 0.1266437 -3.7500000
v -5.1780339 0.0646174 3.7500000
v -3.1070267 0.0232630 3.7500000
v -3.1070267 0.0232630 -3.7500000
v -5.1780339 0.0646174 -3.7500000
v -3.1070267 0.0232630 3.7500000
v -1.0357100 0.0025848 3.7500000
v -1.0357100 0.0025848 -3.7500000
v -3.1070267 0.0232630 -3.7500000
v -1.0357100 0.0025848 3.7500000
v 1.0357100 0.0025848 3.7500000
v 1.0357100 0.0025848 -3.7500000
v -1.0357100 0.0025848 -3.7500000
v 1.0357100 0.0025848 3.7500000
v 3.1070267 0.0232630 3.7500000
v 3.1070267 0.0232630 -3.7500000
v 1.0357100 0.0025848 -3.7500000
v 3.1070267 0.0232630 3.7500000
v 5.1780339 0.0646174 3.7500000
v 5.1780339 0.0646174 -3.7500000
v 3.1070267 0.0232630 -3.7500000
v 5.1780339 0.0646174 3.7500000
v 7.2485250 0.1266437 3.7500000
v 7.2485250 0.1266437 -3.7500000
v 5.1780339 0.0646174 -3.7500000
v -7.2480883 0.1391361 -3.4000000
v -5.1777219 0.0771135 -3.4000000
v -5.1777219 0.0771135 -3.7500000
v -7.2480883 0.1391361 -3.7500000
v -5.1777219 0.0771135 -3.4000000
v -3.1068396 0.0357616 -3.4000000
v -3.1068396 0.0357616 -3.7500000
v -5.1777219 0.0771135 -3.7500000
v -3.1068396 0.0357616 -3.4000000
v -1.0356476 0.0150847 -3.4000000
v -1.0356476 0.0150847 -3.7500000
v -3.1068396 0.0357616 -3.7500000
v -1.0356476 0.0150847 -3.4000000
v 1.0356476 0.0150847 -3.4000000
v 1.0356476 0.0150847 -3.7500000
v -1.0356476 0.0150847 -3.7500000
v 1.0356476 0.0150847 -3.4000000
v 3.1068396 0.0357616 -3.4000000
v 3.1068396 0.0357616 -3.7500000
v 1.0356476 0.0150847 -3.7500000
v 3.1068396 0.0357616 -3.4000000
v 5.1777219 0.0771135 -3.4000000
v 5.1777219 0.0771135 -3.7500000
v 3.1068396 0.0357616 -3.7500000
v 5.1777219 0.0771135 -3.4000000
v 7.2480883 0.1391361 -3.4000000
v 7.2480883 0.1391361 -3.7500000
v 5.1777219 0.0771135 -3.7500000
v -7.2480883 0.1391361 3.7500000
v -5.1777219 0.0771135 3.7500000
v -5.1777219 0.0771135 3.4000000
v -7.2480883 0.1391361 3.4000000
v -5.1777219 0.0771135 3.7500000
v -3.1068396 0.0357616 3.7500000
v -3.1068396 0.0357616 3.4000000
v -5.1777219 0.0771135 3.4000000
v -3.1068396 0.0357616 3.7500000
v -1.0356476 0.0150847 3.7500000
v -1.0356476 0.0150847 3.4000000
v -3.1068396 0.0357616 3.4000000
v -1.0356476 0.0150847 3.7500000
v 1.0356476 0.0150847 3.7500000
v 1.0356476 0.0150847 3.4000000
v -1.0356476 0.0150847 3.4000000
v 1.0356476 0.0150847 3.7500000
v 3.1068396 0.0357616 3.7500000
v 3.1068396 0.0357616 3.4000000
v 1.0356476 0.0150847 3.4000000
v 3.1068396 0.0357616 3.7500000
v 5.1777219 0.0771135 3.7500000
v 5.1777219 0.0771135 3.4000000
v 3.1068396 0.0357616 3.4000000
v 5.1777219 0.0771135 3.7500000
v 7.2480883 0.1391361 3.7500000
v 7.2480883 0.1391361 3.4000000
v 5.1777219 0.0771135 3.4000000
v -0.2999818 0.0127169 3.7500000
v 0.2999818 0.0127169 3.7500000
v 0.2999818 0.0127169 -3.7500000
v -0.2999818 0.0127169 -3.7500000
v -6.8976479 0.1471944 -1.2958333
v -4.7155218 0.0860964 -1.2958333
v -4.7155218 0.0860964 -3.4000000
v -6.8976479 0.1471944 -3.4000000
v -4.7155218 0.0860964 -1.2958333
v -2.5328736 0.0479619 -1.2958333
v -2.5328736 0.0479619 -3.4000000
v -4.7155218 0.0860964 -3.4000000
v -2.5328736 0.0479619 -1.2958333
v -0.3499450 0.0327951 -1.2958333
v -0.3499450 0.0327951 -3.4000000
v -2.5328736 0.0479619 -3.4000000
v -6.8966505 0.1771778 -1.2458333
v -4.7148399 0.1160886 -1.2458333
v -4.7148399 0.1160886 -1.2958333
v -6.8966505 0.1771778 -1.2958333
v -4.7148399 0.1160886 -1.2458333
v -2.5325074 0.0779597 -1.2458333
v -2.5325074 0.0779597 -1.2958333
v -4.7148399 0.1160886 -1.2958333
v -2.5325074 0.0779597 -1.2458333
v -0.3498944 0.0627951 -1.2458333
v -0.3498944 0.0627951 -1.2958333
v -2.5325074 0.0779597 -1.2958333
v -6.8937414 0.2646294 -2.3604167
v -4.7128512 0.2035660 -2.3604167
v -4.7142717 0.1410822 -3.3500000
v -6.8958193 0.2021639 -3.3500000
v -6.8958193 0.2021639 -1.3708333
v -4.7142717 0.1410822 -1.3708333
v -4.7128512 0.2035660 -2.3604167
v -6.8937414 0.2646294 -2.3604167
v -4.7128512 0.2035660 -2.3604167
v -2.5314391 0.1654532 -2.3604167
v -2.5322022 0.1029578 -3.3500000
v -4.7142717 0.1410822 -3.3500000
v -4.7142717 0.1410822 -1.3708333
v -2.5322022 0.1029578 -1.3708333
v -2.5314391 0.1654532 -2.3604167
v -4.7128512 0.2035660 -2.3604167
v -2.5314391 0.1654532 -2.3604167
v -0.3497468 0.1502950 -2.3604167
v -0.3498522 0.0877951 -3.3500000
v -2.5322022 0.1029578 -3.3500000
v -2.5322022 0.1029578 -1.3708333
v -0.3498522 0.0877951 -1.3708333
v -0.3497468 0.1502950 -2.3604167
v -2.5314391 0.1654532 -2.3604167
v 0.3499450 0.0327951 -1.2958333
v 2.5328736 0.0479619 -1.2958333
v 2.5328736 0.0479619 -3.4000000
v 0.3499450 0.0327951 -3.4000000
v 2.5328736 0.0479619 -1.2958333
v 4.7155218 0.0860964 -1.2958333
v 4.7155218 0.0860964 -3.4000000
v 2.5328736 0.0479619 -3.4000000
v 4.7155218 0.0860964 -1.2958333
v 6.8976479 0.1471944 -1.2958333
v 6.8976479 0.1471944 -3.4000000
v 4.7155218 0.0860964 -3.4000000
v 0.3498944 0.0627951 -1.2458333
v 2.5325074 0.0779597 -1.2458333
v 2.5325074 0.0779597 -1.2958333
v 0.3498944 0.0627951 -1.2958333
v 2.5325074 0.0779597 -1.2458333
v 4.7148399 0.1160886 -1.2458333
v 4.7148399 0.1160886 -1.2958333
v 2.5325074 0.0779597 -1.2958333
v 4.7148399 0.1160886 -1.2458333
v 6.8966505 0.1771778 -1.2458333
v 6.8966505 0.1771778 -1.2958333
v 4.7148399 0.1160886 -1.2958333
v 0.3497468 0.1502950 -2.3604167
v 2.5314391 0.1654532 -2.3604167
v 2.5322022 0.1029578 -3.3500000
v 0.3498522 0.0877951 -3.3500000
v 0.3498522 0.0877951 -1.3708333
v 2.5322022 0.1029578 -1.3708333
v 2.5314391 0.1654532 -2.3604167
v 0.3497468 0.1502950 -2.3604167
v 2.5314391 0.1654532 -2.3604167
v 4.7128512 0.2035660 -2.3604167
v 4.7142717 0.1410822 -3.3500000
v 2.5322022 0.1029578 -3.3500000
v 2.5322022 0.1029578 -1.3708333
v 4.7142717 0.1410822 -1.3708333
v 4.7128512 0.2035660 -2.3604167
v 2.5314391 0.1654532 -2.3604167
v 4.7128512 0.2035660 -2.3604167
v 6.8937414 0.2646294 -2.3604167
v 6.8958193 0.2021639 -3.3500000
v 4.7142717 0.1410822 -3.3500000
v 4.7142717 0.1410822 -1.3708333
v 6.8958193 0.2021639 -1.3708333
v 6.8937414 0.2646294 -2.3604167
v 4.7128512 0.2035660 -2.3604167
v -6.8976479 0.1471944 0.9708333
v -4.7155218 0.0860964 0.9708333
v -4.7155218 0.0860964 -1.1333333
v -6.8976479 0.1471944 -1.1333333
v -4.7155218 0.0860964 0.9708333
v -2.5328736 0.0479619 0.9708333
v -2.5328736 0.0479619 -1.1333333
v -4.7155218 0.0860964 -1.1333333
v -2.5328736 0.0479619 0.9708333
v -0.3499450 0.0327951 0.9708333
v -0.3499450 0.0327951 -1.1333333
v -2.5328736 0.0479619 -1.1333333
v -6.8966505 0.1771778 1.0208333
v -4.7148399 0.1160886 1.0208333
v -4.7148399 0.1160886 0.9708333
v -6.8966505 0.1771778 0.9708333
v -4.7148399 0.1160886 1.0208333
v -2.5325074 0.0779597 1.0208333
v -2.5325074 0.0779597 0.9708333
v -4.7148399 0.1160886 0.9708333
v -2.5325074 0.0779597 1.0208333
v -0.3498944 0.0627951 1.0208333
v -0.3498944 0.0627951 0.9708333
v -2.5325074 0.0779597 0.9708333
v -6.8937414 0.2646294 -0.0937500
v -4.7128512 0.2035660 -0.0937500
v -4.7142717 0.1410822 -1.0833333
v -6.8958193 0.2021639 -1.0833333
v -6.8958193 0.2021639 0.8958333
v -4.7142717 0.1410822 0.8958333
v -4.7128512 0.2035660 -0.0937500
v -6.8937414 0.2646294 -0.0937500
v -4.7128512 0.2035660 -0.0937500
v -2.5314391 0.1654532 -0.0937500
v -2.5322022 0.1029578 -1.0833333
v -4.7142717 0.1410822 -1.0833333
v -4.7142717 0.1410822 0.8958333
v -2.5322022 0.1029578 0.8958333
v -2.5314391 0.1654532 -0.0937500
v -4.7128512 0.2035660 -0.0937500
v -2.5314391 0.1654532 -0.0937500
v -0.3497468 0.1502950 -0.0937500
v -0.3498522 0.0877951 -1.0833333
v -2.5322022 0.1029578 -1.0833333
v -2.5322022 0.1029578 0.8958333
v -0.3498522 0.0877951 0.8958333
v -0.3497468 0.1502950 -0.0937500
v -2.5314391 0.1654532 -0.0937500
v 0.3499450 0.0327951 0.9708333
v 2.5328736 0.0479619 0.9708333
v 2.5328736 0.0479619 -1.1333333
v 0.3499450 0.0327951 -1.1333333
v 2.5328736 0.0479619 0.9708333
v 4.7155218 0.0860964 0.9708333
v 4.7155218 0.0860964 -1.1333333
v 2.5328736 0.0479619 -1.1333333
v 4.7155218 0.0860964 0.9708333
v 6.8976479 0.1471944 0.9708333
v 6.8976479 0.1471944 -1.1333333
v 4.7155218 0.0860964 -1.1333333
v 0.3498944 0.0627951 1.0208333
v 2.5325074 0.0779597 1.0208333
v 2.5325074 0.0779597 0.9708333
v 0.3498944 0.0627951 0.9708333
v 2.5325074 0.0779597 1.0208333
v 4.7148399 0.1160886 1.0208333
v 4.7148399 0.1160886 0.9708333
v 2.5325074 0.0779597 0.9708333
v 4.7148399 0.1160886 1.0208333
v 6.8966505 0.1771778 1.0208333
v 6.8966505 0.1771778 0.9708333
v 4.7148399 0.1160886 0.9708333
v 0.3497468 0.1502950 -0.0937500
v 2.5314391 0.1654532 -0.0937500
v 2.5322022 0.1029578 -1.0833333
v 0.3498522 0.0877951 -1.0833333
v 0.3498522 0.0877951 0.8958333
v 2.5322022 0.1029578 0.8958333
v 2.5314391 0.1654532 -0.0937500
v 0.3497468 0.1502950 -0.0937500
v 2.5314391 0.1654532 -0.0937500
v 4.7128512 0.2035660 -0.0937500
v 4.7142717 0.1410822 -1.0833333
v 2.5322022 0.1029578 -1.0833333
v 2.5322022 0.1029578 0.8958333
v 4.7142717 0.1410822 0.8958333
v 4.7128512 0.2035660 -0.0937500
v 2.5314391 0.1654532 -0.0937500
v 4.7128512 0.2035660 -0.0937500
v 6.8937414 0.2646294 -0.0937500
v 6.8958193 0.2021639 -1.0833333
v 4.7142717 0.1410822 -1.0833333
v 4.7142717 0.1410822 0.8958333
v 6.8958193 0.2021639 0.8958333
v 6.8937414 0.2646294 -0.0937500
v 4.7128512 0.2035660 -0.0937500
v -6.8976479 0.1471944 3.2375000
v -4.7155218 0.0860964 3.2375000
v -4.7155218 0.0860964 1.1333333
v -6.8976479 0.1471944 1.1333333
v -4.7155218 0.0860964 3.2375000
v -2.5328736 0.0479619 3.2375000
v -2.5328736 0.0479619 1.1333333
v -4.7155218 0.0860964 1.1333333
v -2.5328736 0.0479619 3.2375000
v -0.3499450 0.0327951 3.2375000
v -0.3499450 0.0327951 1.1333333
v -2.5328736 0.0479619 1.1333333
v -6.8966505 0.1771778 3.2875000
v -4.7148399 0.1160886 3.2875000
v -4.7148399 0.1160886 3.2375000
v -6.8966505 0.1771778 3.2375000
v -4.7148399 0.1160886 3.2875000
v -2.5325074 0.0779597 3.2875000
v -2.5325074 0.0779597 3.2375000
v -4.7148399 0.1160886 3.2375000
v -2.5325074 0.0779597 3.2875000
v -0.3498944 0.0627951 3.2875000
v -0.3498944 0.0627951 3.2375000
v -2.5325074 0.0779597 3.2375000
v -6.8937414 0.2646294 2.1729167
v -4.7128512 0.2035660 2.1729167
v -4.7142717 0.1410822 1.1833333
v -6.8958193 0.2021639 1.1833333
v -6.8958193 0.2021639 3.1625000
v -4.7142717 0.1410822 3.1625000
v -4.7128512 0.2035660 2.1729167
v -6.8937414 0.2646294 2.1729167
v -4.7128512 0.2035660 2.1729167
v -2.5314391 0.1654532 2.1729167
v -2.5322022 0.1029578 1.1833333
v -4.7142717 0.1410822 1.1833333
v -4.7142717 0.1410822 3.1625000
v -2.5322022 0.1029578 3.1625000
v -2.5314391 0.1654532 2.1729167
v -4.7128512 0.2035660 2.1729167
v -2.5314391 0.1654532 2.1729167
v -0.3497468 0.1502950 2.1729167
v -0.3498522 0.0877951 1.1833333
v -2.5322022 0.1029578 1.1833333
v -2.5322022 0.1029578 3.1625000
v -0.3498522 0.0877951 3.1625000
v -0.3497468 0.1502950 2.1729167
v -2.5314391 0.1654532 2.1729167
v 0.3499450 0.0327951 3.2375000
v 2.5328736 0.0479619 3.2375000
v 2.5328736 0.0479619 1.1333333
v 0.3499450 0.0327951 1.1333333
v 2.5328736 0.0479619 3.2375000
v 4.7155218 0.0860964 3.2375000
v 4.7155218 0.0860964 1.1333333
v 2.5328736 0.0479619 1.1333333
v 4.7155218 0.0860964 3.2375000
v 6.8976479 0.1471944 3.2375000
v 6.8976479 0.1471944 1.1333333
v 4.7155218 0.0860964 1.1333333
v 0.3498944 0.0627951 3.2875000
v 2.5325074 0.0779597 3.2875000
v 2.5325074 0.0779597 3.2375000
v 0.3498944 0.0627951 3.2375000
v 2.5325074 0.0779597 3.2875000
v 4.7148399 0.1160886 3.2875000
v 4.7148399 0.1160886 3.2375000
v 2.5325074 0.0779597 3.2375000
v 4.7148399 0.1160886 3.2875000
v 6.8966505 0.1771778 3.2875000
v 6.8966505 0.1771778 3.2375000
v 4.7148399 0.1160886 3.2375000
v 0.3497468 0.1502950 2.1729167
v 2.5314391 0.1654532 2.1729167
v 2.5322022 0.1029578 1.1833333
v 0.3498522 0.0877951 1.1833333
v 0.3498522 0.0877951 3.1625000
v 2.5322022 0.1029578 3.1625000
v 2.5314391 0.1654532 2.1729167
v 0.3497468 0.1502950 2.1729167
v 2.5314391 0.1654532 2.1729167
v 4.7128512 0.2035660 2.1729167
v 4.7142717 0.1410822 1.1833333
v 2.5322022 0.1029578 1.1833333
v 2.5322022 0.1029578 3.1625000
v 4.7142717 0.1410822 3.1625000
v 4.7128512 0.2035660 2.1729167
v 2.5314391 0.1654532 2.1729167
v 4.7128512 0.2035660 2.1729167
v 6.8937414 0.2646294 2.1729167
v 6.8958193 0.2021639 1.1833333
v 4.7142717 0.1410822 1.1833333
v 4.7142717 0.1410822 3.1625000
v 6.8958193 0.2021639 3.1625000
v 6.8937414 0.2646294 2.1729167
v 4.7128512 0.2035660 2.1729167
vt 0.005000 0.995000
vt 0.245000 0.995000
vt 0.245000 0.755000
vt 0.255000 0.995000
vt 0.495000 0.995000
vt 0.495000 0.755000
vt 0.505000 0.995000
vt 0.745000 0.995000
vt 0.745000 0.755000
vt 0.755000 0.995000
vt 0.995000 0.995000
vt 0.995000 0.755000
vt 0.005000 0.745000
vt 0.245000 0.745000
vt 0.245000 0.505000
vt 0.255000 0.745000
vt 0.495000 0.745000
vt 0.495000 0.505000
vt 0.505000 0.745000
vt 0.745000 0.745000
vt 0.745000 0.505000
vt 0.755000 0.745000
vt 0.995000 0.745000
vt 0.995000 0.505000
vt 0.005000 0.495000
vt 0.245000 0.495000
vt 0.245000 0.255000
vt 0.255000 0.495000
vt 0.495000 0.495000
vt 0.495000 0.255000
vt 0.505000 0.495000
vt 0.745000 0.495000
vt 0.745000 0.255000
vt 0.755000 0.495000
vt 0.995000 0.495000
vt 0.995000 0.255000
vt 0.005000 0.245000
vt 0.245000 0.245000
vt 0.245000 0.005000
vt 0.255000 0.245000
vt 0.495000 0.245000
vt 0.495000 0.005000
vt 0.505000 0.245000
vt 0.745000 0.245000
vt 0.745000 0.005000
vt 0.755000 0.245000
vt 0.995000 0.245000
vt 0.995000 0.005000
g ornament
usemtl farm-kit
f 113/22 114/23 115/24
f 113/22 115/23 116/24
f 117/22 118/23 119/24
f 117/22 119/23 120/24
f 121/22 122/23 123/24
f 121/22 123/23 124/24
f 125/22 126/23 127/24
f 125/22 127/23 128/24
f 129/22 130/23 131/24
f 129/22 131/23 132/24
f 133/22 134/23 135/24
f 133/22 135/23 136/24
f 161/22 162/23 163/24
f 161/22 163/23 164/24
f 165/22 166/23 167/24
f 165/22 167/23 168/24
f 169/22 170/23 171/24
f 169/22 171/23 172/24
f 173/22 174/23 175/24
f 173/22 175/23 176/24
f 177/22 178/23 179/24
f 177/22 179/23 180/24
f 181/22 182/23 183/24
f 181/22 183/23 184/24
f 209/22 210/23 211/24
f 209/22 211/23 212/24
f 213/22 214/23 215/24
f 213/22 215/23 216/24
f 217/22 218/23 219/24
f 217/22 219/23 220/24
f 221/22 222/23 223/24
f 221/22 223/23 224/24
f 225/22 226/23 227/24
f 225/22 227/23 228/24
f 229/22 230/23 231/24
f 229/22 231/23 232/24
f 257/22 258/23 259/24
f 257/22 259/23 260/24
f 261/22 262/23 263/24
f 261/22 263/23 264/24
f 265/22 266/23 267/24
f 265/22 267/23 268/24
f 269/22 270/23 271/24
f 269/22 271/23 272/24
f 273/22 274/23 275/24
f 273/22 275/23 276/24
f 277/22 278/23 279/24
f 277/22 279/23 280/24
f 305/22 306/23 307/24
f 305/22 307/23 308/24
f 309/22 310/23 311/24
f 309/22 311/23 312/24
f 313/22 314/23 315/24
f 313/22 315/23 316/24
f 317/22 318/23 319/24
f 317/22 319/23 320/24
f 321/22 322/23 323/24
f 321/22 323/23 324/24
f 325/22 326/23 327/24
f 325/22 327/23 328/24
f 353/22 354/23 355/24
f 353/22 355/23 356/24
f 357/22 358/23 359/24
f 357/22 359/23 360/24
f 361/22 362/23 363/24
f 361/22 363/23 364/24
f 365/22 366/23 367/24
f 365/22 367/23 368/24
f 369/22 370/23 371/24
f 369/22 371/23 372/24
f 373/22 374/23 375/24
f 373/22 375/23 376/24
g solid
usemtl farm-kit
f 101/28 102/29 103/30
f 101/28 103/29 104/30
f 105/28 106/29 107/30
f 105/28 107/29 108/30
f 109/28 110/29 111/30
f 109/28 111/29 112/30
f 149/28 150/29 151/30
f 149/28 151/29 152/30
f 153/28 154/29 155/30
f 153/28 155/29 156/30
f 157/28 158/29 159/30
f 157/28 159/29 160/30
f 197/28 198/29 199/30
f 197/28 199/29 200/30
f 201/28 202/29 203/30
f 201/28 203/29 204/30
f 205/28 206/29 207/30
f 205/28 207/29 208/30
f 245/28 246/29 247/30
f 245/28 247/29 248/30
f 249/28 250/29 251/30
f 249/28 251/29 252/30
f 253/28 254/29 255/30
f 253/28 255/29 256/30
f 293/28 294/29 295/30
f 293/28 295/29 296/30
f 297/28 298/29 299/30
f 297/28 299/29 300/30
f 301/28 302/29 303/30
f 301/28 303/29 304/30
f 341/28 342/29 343/30
f 341/28 343/29 344/30
f 345/28 346/29 347/30
f 345/28 347/29 348/30
f 349/28 350/29 351/30
f 349/28 351/29 352/30
g support
usemtl farm-kit
f 1/1 2/2 3/3
f 1/1 3/2 4/3
f 5/1 6/2 7/3
f 5/1 7/2 8/3
f 9/1 10/2 11/3
f 9/1 11/2 12/3
f 13/1 14/2 15/3
f 13/1 15/2 16/3
f 17/1 18/2 19/3
f 17/1 19/2 20/3
f 21/1 22/2 23/3
f 21/1 23/2 24/3
f 25/1 26/2 27/3
f 25/1 27/2 28/3
f 29/4 30/5 31/6
f 29/4 31/5 32/6
f 33/4 34/5 35/6
f 33/4 35/5 36/6
f 37/4 38/5 39/6
f 37/4 39/5 40/6
f 41/4 42/5 43/6
f 41/4 43/5 44/6
f 45/4 46/5 47/6
f 45/4 47/5 48/6
f 49/4 50/5 51/6
f 49/4 51/5 52/6
f 53/4 54/5 55/6
f 53/4 55/5 56/6
f 57/4 58/5 59/6
f 57/4 59/5 60/6
f 61/4 62/5 63/6
f 61/4 63/5 64/6
f 65/4 66/5 67/6
f 65/4 67/5 68/6
f 69/4 70/5 71/6
f 69/4 71/5 72/6
f 73/4 74/5 75/6
f 73/4 75/5 76/6
f 77/4 78/5 79/6
f 77/4 79/5 80/6
f 81/4 82/5 83/6
f 81/4 83/5 84/6
f 85/4 86/5 87/6
f 85/4 87/5 88/6
g water
usemtl farm-water
f 89/25 90/26 91/27
f 89/25 91/26 92/27
f 93/25 94/26 95/27
f 93/25 95/26 96/27
f 97/25 98/26 99/27
f 97/25 99/26 100/27
f 137/25 138/26 139/27
f 137/25 139/26 140/27
f 141/25 142/26 143/27
f 141/25 143/26 144/27
f 145/25 146/26 147/27
f 145/25 147/26 148/27
f 185/25 186/26 187/27
f 185/25 187/26 188/27
f 189/25 190/26 191/27
f 189/25 191/26 192/27
f 193/25 194/26 195/27
f 193/25 195/26 196/27
f 233/25 234/26 235/27
f 233/25 235/26 236/27
f 237/25 238/26 239/27
f 237/25 239/26 240/27
f 241/25 242/26 243/27
f 241/25 243/26 244/27
f 281/25 282/26 283/27
f 281/25 283/26 284/27
f 285/25 286/26 287/27
f 285/25 287/26 288/27
f 289/25 290/26 291/27
f 289/25 291/26 292/27
f 329/25 330/26 331/27
f 329/25 331/26 332/27
f 333/25 334/26 335/27
f 333/25 335/26 336/27
f 337/25 338/26 339/27
f 337/25 339/26 340/27
