mtllib TorusAgri_GrainA.mtl
o TorusAgri_GrainA
usemtl TorusAgricultureKit
s off
v -0.450000 0.000000 -0.325000
v 0.450000 0.000000 -0.325000
v 0.450000 0.017500 -0.325000
v -0.450000 0.017500 -0.325000
v -0.450000 0.000000 0.325000
v 0.450000 0.000000 0.325000
v 0.450000 0.017500 0.325000
v -0.450000 0.017500 0.325000
v -0.412500 0.017500 -0.287500
v 0.412500 0.017500 -0.287500
v 0.412500 0.037500 -0.287500
v -0.412500 0.037500 -0.287500
v -0.412500 0.017500 0.287500
v 0.412500 0.017500 0.287500
v 0.412500 0.037500 0.287500
v -0.412500 0.037500 0.287500
v -0.427500 0.017500 -0.302500
v 0.427500 0.017500 -0.302500
v 0.427500 0.052500 -0.302500
v -0.427500 0.052500 -0.302500
v -0.427500 0.017500 -0.272500
v 0.427500 0.017500 -0.272500
v 0.427500 0.052500 -0.272500
v -0.427500 0.052500 -0.272500
v -0.427500 0.017500 0.272500
v 0.427500 0.017500 0.272500
v 0.427500 0.052500 0.272500
v -0.427500 0.052500 0.272500
v -0.427500 0.017500 0.302500
v 0.427500 0.017500 0.302500
v 0.427500 0.052500 0.302500
v -0.427500 0.052500 0.302500
v -0.397500 0.017500 -0.272500
v -0.397500 0.052500 -0.272500
v -0.397500 0.017500 0.272500
v -0.397500 0.052500 0.272500
v 0.397500 0.017500 -0.272500
v 0.397500 0.052500 -0.272500
v 0.397500 0.017500 0.272500
v 0.397500 0.052500 0.272500
v -0.255500 0.037500 -0.180000
v -0.262500 0.037500 -0.187000
v -0.262500 0.337500 -0.187000
v -0.255500 0.337500 -0.180000
v -0.262500 0.037500 -0.180000
v -0.262500 0.337500 -0.180000
v -0.269500 0.037500 -0.180000
v -0.269500 0.337500 -0.180000
v -0.262500 0.037500 -0.173000
v -0.262500 0.337500 -0.173000
v -0.262500 0.440000 -0.180000
v -0.290000 0.377500 -0.180000
v -0.262500 0.377500 -0.155000
v -0.262500 0.315000 -0.180000
v -0.235000 0.377500 -0.180000
v -0.262500 0.377500 -0.205000
v -0.292500 0.213750 -0.180000
v -0.342500 0.202500 -0.180000
v -0.292500 0.202500 -0.163750
v -0.292500 0.191250 -0.180000
v -0.242500 0.202500 -0.180000
v -0.292500 0.202500 -0.196250
v -0.232500 0.213750 -0.180000
v -0.282500 0.202500 -0.180000
v -0.232500 0.202500 -0.163750
v -0.232500 0.191250 -0.180000
v -0.182500 0.202500 -0.180000
v -0.232500 0.202500 -0.196250
v -0.255500 0.037500 0.000000
v -0.262500 0.037500 -0.007000
v -0.262500 0.337500 -0.007000
v -0.255500 0.337500 0.000000
v -0.262500 0.037500 0.000000
v -0.262500 0.337500 0.000000
v -0.269500 0.037500 -0.000000
v -0.269500 0.337500 -0.000000
v -0.262500 0.037500 0.007000
v -0.262500 0.337500 0.007000
v -0.262500 0.440000 0.000000
v -0.290000 0.377500 0.000000
v -0.262500 0.377500 0.025000
v -0.262500 0.315000 0.000000
v -0.235000 0.377500 0.000000
v -0.262500 0.377500 -0.025000
v -0.292500 0.213750 0.000000
v -0.342500 0.202500 0.000000
v -0.292500 0.202500 0.016250
v -0.292500 0.191250 0.000000
v -0.242500 0.202500 0.000000
v -0.292500 0.202500 -0.016250
v -0.232500 0.213750 0.000000
v -0.282500 0.202500 0.000000
v -0.232500 0.202500 0.016250
v -0.232500 0.191250 0.000000
v -0.182500 0.202500 0.000000
v -0.232500 0.202500 -0.016250
v -0.255500 0.037500 0.180000
v -0.262500 0.037500 0.173000
v -0.262500 0.337500 0.173000
v -0.255500 0.337500 0.180000
v -0.262500 0.037500 0.180000
v -0.262500 0.337500 0.180000
v -0.269500 0.037500 0.180000
v -0.269500 0.337500 0.180000
v -0.262500 0.037500 0.187000
v -0.262500 0.337500 0.187000
v -0.262500 0.440000 0.180000
v -0.290000 0.377500 0.180000
v -0.262500 0.377500 0.205000
v -0.262500 0.315000 0.180000
v -0.235000 0.377500 0.180000
v -0.262500 0.377500 0.155000
v -0.292500 0.213750 0.180000
v -0.342500 0.202500 0.180000
v -0.292500 0.202500 0.196250
v -0.292500 0.191250 0.180000
v -0.242500 0.202500 0.180000
v -0.292500 0.202500 0.163750
v -0.232500 0.213750 0.180000
v -0.282500 0.202500 0.180000
v -0.232500 0.202500 0.196250
v -0.232500 0.191250 0.180000
v -0.182500 0.202500 0.180000
v -0.232500 0.202500 0.163750
v -0.080500 0.037500 -0.180000
v -0.087500 0.037500 -0.187000
v -0.087500 0.337500 -0.187000
v -0.080500 0.337500 -0.180000
v -0.087500 0.037500 -0.180000
v -0.087500 0.337500 -0.180000
v -0.094500 0.037500 -0.180000
v -0.094500 0.337500 -0.180000
v -0.087500 0.037500 -0.173000
v -0.087500 0.337500 -0.173000
v -0.087500 0.440000 -0.180000
v -0.115000 0.377500 -0.180000
v -0.087500 0.377500 -0.155000
v -0.087500 0.315000 -0.180000
v -0.060000 0.377500 -0.180000
v -0.087500 0.377500 -0.205000
v -0.117500 0.213750 -0.180000
v -0.167500 0.202500 -0.180000
v -0.117500 0.202500 -0.163750
v -0.117500 0.191250 -0.180000
v -0.067500 0.202500 -0.180000
v -0.117500 0.202500 -0.196250
v -0.057500 0.213750 -0.180000
v -0.107500 0.202500 -0.180000
v -0.057500 0.202500 -0.163750
v -0.057500 0.191250 -0.180000
v -0.007500 0.202500 -0.180000
v -0.057500 0.202500 -0.196250
v -0.080500 0.037500 0.000000
v -0.087500 0.037500 -0.007000
v -0.087500 0.337500 -0.007000
v -0.080500 0.337500 0.000000
v -0.087500 0.037500 0.000000
v -0.087500 0.337500 0.000000
v -0.094500 0.037500 -0.000000
v -0.094500 0.337500 -0.000000
v -0.087500 0.037500 0.007000
v -0.087500 0.337500 0.007000
v -0.087500 0.440000 0.000000
v -0.115000 0.377500 0.000000
v -0.087500 0.377500 0.025000
v -0.087500 0.315000 0.000000
v -0.060000 0.377500 0.000000
v -0.087500 0.377500 -0.025000
v -0.117500 0.213750 0.000000
v -0.167500 0.202500 0.000000
v -0.117500 0.202500 0.016250
v -0.117500 0.191250 0.000000
v -0.067500 0.202500 0.000000
v -0.117500 0.202500 -0.016250
v -0.057500 0.213750 0.000000
v -0.107500 0.202500 0.000000
v -0.057500 0.202500 0.016250
v -0.057500 0.191250 0.000000
v -0.007500 0.202500 0.000000
v -0.057500 0.202500 -0.016250
v -0.080500 0.037500 0.180000
v -0.087500 0.037500 0.173000
v -0.087500 0.337500 0.173000
v -0.080500 0.337500 0.180000
v -0.087500 0.037500 0.180000
v -0.087500 0.337500 0.180000
v -0.094500 0.037500 0.180000
v -0.094500 0.337500 0.180000
v -0.087500 0.037500 0.187000
v -0.087500 0.337500 0.187000
v -0.087500 0.440000 0.180000
v -0.115000 0.377500 0.180000
v -0.087500 0.377500 0.205000
v -0.087500 0.315000 0.180000
v -0.060000 0.377500 0.180000
v -0.087500 0.377500 0.155000
v -0.117500 0.213750 0.180000
v -0.167500 0.202500 0.180000
v -0.117500 0.202500 0.196250
v -0.117500 0.191250 0.180000
v -0.067500 0.202500 0.180000
v -0.117500 0.202500 0.163750
v -0.057500 0.213750 0.180000
v -0.107500 0.202500 0.180000
v -0.057500 0.202500 0.196250
v -0.057500 0.191250 0.180000
v -0.007500 0.202500 0.180000
v -0.057500 0.202500 0.163750
v 0.094500 0.037500 -0.180000
v 0.087500 0.037500 -0.187000
v 0.087500 0.337500 -0.187000
v 0.094500 0.337500 -0.180000
v 0.087500 0.037500 -0.180000
v 0.087500 0.337500 -0.180000
v 0.080500 0.037500 -0.180000
v 0.080500 0.337500 -0.180000
v 0.087500 0.037500 -0.173000
v 0.087500 0.337500 -0.173000
v 0.087500 0.440000 -0.180000
v 0.060000 0.377500 -0.180000
v 0.087500 0.377500 -0.155000
v 0.087500 0.315000 -0.180000
v 0.115000 0.377500 -0.180000
v 0.087500 0.377500 -0.205000
v 0.057500 0.213750 -0.180000
v 0.007500 0.202500 -0.180000
v 0.057500 0.202500 -0.163750
v 0.057500 0.191250 -0.180000
v 0.107500 0.202500 -0.180000
v 0.057500 0.202500 -0.196250
v 0.117500 0.213750 -0.180000
v 0.067500 0.202500 -0.180000
v 0.117500 0.202500 -0.163750
v 0.117500 0.191250 -0.180000
v 0.167500 0.202500 -0.180000
v 0.117500 0.202500 -0.196250
v 0.094500 0.037500 0.000000
v 0.087500 0.037500 -0.007000
v 0.087500 0.337500 -0.007000
v 0.094500 0.337500 0.000000
v 0.087500 0.037500 0.000000
v 0.087500 0.337500 0.000000
v 0.080500 0.037500 -0.000000
v 0.080500 0.337500 -0.000000
v 0.087500 0.037500 0.007000
v 0.087500 0.337500 0.007000
v 0.087500 0.440000 0.000000
v 0.060000 0.377500 0.000000
v 0.087500 0.377500 0.025000
v 0.087500 0.315000 0.000000
v 0.115000 0.377500 0.000000
v 0.087500 0.377500 -0.025000
v 0.057500 0.213750 0.000000
v 0.007500 0.202500 0.000000
v 0.057500 0.202500 0.016250
v 0.057500 0.191250 0.000000
v 0.107500 0.202500 0.000000
v 0.057500 0.202500 -0.016250
v 0.117500 0.213750 0.000000
v 0.067500 0.202500 0.000000
v 0.117500 0.202500 0.016250
v 0.117500 0.191250 0.000000
v 0.167500 0.202500 0.000000
v 0.117500 0.202500 -0.016250
v 0.094500 0.037500 0.180000
v 0.087500 0.037500 0.173000
v 0.087500 0.337500 0.173000
v 0.094500 0.337500 0.180000
v 0.087500 0.037500 0.180000
v 0.087500 0.337500 0.180000
v 0.080500 0.037500 0.180000
v 0.080500 0.337500 0.180000
v 0.087500 0.037500 0.187000
v 0.087500 0.337500 0.187000
v 0.087500 0.440000 0.180000
v 0.060000 0.377500 0.180000
v 0.087500 0.377500 0.205000
v 0.087500 0.315000 0.180000
v 0.115000 0.377500 0.180000
v 0.087500 0.377500 0.155000
v 0.057500 0.213750 0.180000
v 0.007500 0.202500 0.180000
v 0.057500 0.202500 0.196250
v 0.057500 0.191250 0.180000
v 0.107500 0.202500 0.180000
v 0.057500 0.202500 0.163750
v 0.117500 0.213750 0.180000
v 0.067500 0.202500 0.180000
v 0.117500 0.202500 0.196250
v 0.117500 0.191250 0.180000
v 0.167500 0.202500 0.180000
v 0.117500 0.202500 0.163750
v 0.269500 0.037500 -0.180000
v 0.262500 0.037500 -0.187000
v 0.262500 0.337500 -0.187000
v 0.269500 0.337500 -0.180000
v 0.262500 0.037500 -0.180000
v 0.262500 0.337500 -0.180000
v 0.255500 0.037500 -0.180000
v 0.255500 0.337500 -0.180000
v 0.262500 0.037500 -0.173000
v 0.262500 0.337500 -0.173000
v 0.262500 0.440000 -0.180000
v 0.235000 0.377500 -0.180000
v 0.262500 0.377500 -0.155000
v 0.262500 0.315000 -0.180000
v 0.290000 0.377500 -0.180000
v 0.262500 0.377500 -0.205000
v 0.232500 0.213750 -0.180000
v 0.182500 0.202500 -0.180000
v 0.232500 0.202500 -0.163750
v 0.232500 0.191250 -0.180000
v 0.282500 0.202500 -0.180000
v 0.232500 0.202500 -0.196250
v 0.292500 0.213750 -0.180000
v 0.242500 0.202500 -0.180000
v 0.292500 0.202500 -0.163750
v 0.292500 0.191250 -0.180000
v 0.342500 0.202500 -0.180000
v 0.292500 0.202500 -0.196250
v 0.269500 0.037500 0.000000
v 0.262500 0.037500 -0.007000
v 0.262500 0.337500 -0.007000
v 0.269500 0.337500 0.000000
v 0.262500 0.037500 0.000000
v 0.262500 0.337500 0.000000
v 0.255500 0.037500 -0.000000
v 0.255500 0.337500 -0.000000
v 0.262500 0.037500 0.007000
v 0.262500 0.337500 0.007000
v 0.262500 0.440000 0.000000
v 0.235000 0.377500 0.000000
v 0.262500 0.377500 0.025000
v 0.262500 0.315000 0.000000
v 0.290000 0.377500 0.000000
v 0.262500 0.377500 -0.025000
v 0.232500 0.213750 0.000000
v 0.182500 0.202500 0.000000
v 0.232500 0.202500 0.016250
v 0.232500 0.191250 0.000000
v 0.282500 0.202500 0.000000
v 0.232500 0.202500 -0.016250
v 0.292500 0.213750 0.000000
v 0.242500 0.202500 0.000000
v 0.292500 0.202500 0.016250
v 0.292500 0.191250 0.000000
v 0.342500 0.202500 0.000000
v 0.292500 0.202500 -0.016250
v 0.269500 0.037500 0.180000
v 0.262500 0.037500 0.173000
v 0.262500 0.337500 0.173000
v 0.269500 0.337500 0.180000
v 0.262500 0.037500 0.180000
v 0.262500 0.337500 0.180000
v 0.255500 0.037500 0.180000
v 0.255500 0.337500 0.180000
v 0.262500 0.037500 0.187000
v 0.262500 0.337500 0.187000
v 0.262500 0.440000 0.180000
v 0.235000 0.377500 0.180000
v 0.262500 0.377500 0.205000
v 0.262500 0.315000 0.180000
v 0.290000 0.377500 0.180000
v 0.262500 0.377500 0.155000
v 0.232500 0.213750 0.180000
v 0.182500 0.202500 0.180000
v 0.232500 0.202500 0.196250
v 0.232500 0.191250 0.180000
v 0.282500 0.202500 0.180000
v 0.232500 0.202500 0.163750
v 0.292500 0.213750 0.180000
v 0.242500 0.202500 0.180000
v 0.292500 0.202500 0.196250
v 0.292500 0.191250 0.180000
v 0.342500 0.202500 0.180000
v 0.292500 0.202500 0.163750
vt 0.765625 0.015625
vt 0.984375 0.015625
vt 0.984375 0.234375
vt 0.765625 0.234375
vt 0.765625 0.015625
vt 0.984375 0.015625
vt 0.984375 0.234375
vt 0.765625 0.234375
vt 0.765625 0.015625
vt 0.984375 0.015625
vt 0.984375 0.234375
vt 0.765625 0.234375
vt 0.765625 0.015625
vt 0.984375 0.015625
vt 0.984375 0.234375
vt 0.765625 0.234375
vt 0.765625 0.015625
vt 0.984375 0.015625
vt 0.984375 0.234375
vt 0.765625 0.234375
vt 0.765625 0.015625
vt 0.984375 0.015625
vt 0.984375 0.234375
vt 0.765625 0.234375
vt 0.515625 0.515625
vt 0.734375 0.515625
vt 0.734375 0.734375
vt 0.515625 0.734375
vt 0.515625 0.515625
vt 0.734375 0.515625
vt 0.734375 0.734375
vt 0.515625 0.734375
vt 0.515625 0.515625
vt 0.734375 0.515625
vt 0.734375 0.734375
vt 0.515625 0.734375
vt 0.515625 0.515625
vt 0.734375 0.515625
vt 0.734375 0.734375
vt 0.515625 0.734375
vt 0.515625 0.515625
vt 0.734375 0.515625
vt 0.734375 0.734375
vt 0.515625 0.734375
vt 0.515625 0.515625
vt 0.734375 0.515625
vt 0.734375 0.734375
vt 0.515625 0.734375
vt 0.015625 0.765625
vt 0.234375 0.765625
vt 0.234375 0.984375
vt 0.015625 0.984375
vt 0.015625 0.765625
vt 0.234375 0.765625
vt 0.234375 0.984375
vt 0.015625 0.984375
vt 0.015625 0.765625
vt 0.234375 0.765625
vt 0.234375 0.984375
vt 0.015625 0.984375
vt 0.015625 0.765625
vt 0.234375 0.765625
vt 0.234375 0.984375
vt 0.015625 0.984375
vt 0.015625 0.765625
vt 0.234375 0.765625
vt 0.234375 0.984375
vt 0.015625 0.984375
vt 0.015625 0.765625
vt 0.234375 0.765625
vt 0.234375 0.984375
vt 0.015625 0.984375
vt 0.015625 0.765625
vt 0.234375 0.765625
vt 0.234375 0.984375
vt 0.015625 0.984375
vt 0.015625 0.765625
vt 0.234375 0.765625
vt 0.234375 0.984375
vt 0.015625 0.984375
vt 0.015625 0.765625
vt 0.234375 0.765625
vt 0.234375 0.984375
vt 0.015625 0.984375
vt 0.015625 0.765625
vt 0.234375 0.765625
vt 0.234375 0.984375
vt 0.015625 0.984375
vt 0.015625 0.765625
vt 0.234375 0.765625
vt 0.234375 0.984375
vt 0.015625 0.984375
vt 0.015625 0.765625
vt 0.234375 0.765625
vt 0.234375 0.984375
vt 0.015625 0.984375
vt 0.015625 0.765625
vt 0.234375 0.765625
vt 0.234375 0.984375
vt 0.015625 0.984375
vt 0.015625 0.765625
vt 0.234375 0.765625
vt 0.234375 0.984375
vt 0.015625 0.984375
vt 0.015625 0.765625
vt 0.234375 0.765625
vt 0.234375 0.984375
vt 0.015625 0.984375
vt 0.015625 0.765625
vt 0.234375 0.765625
vt 0.234375 0.984375
vt 0.015625 0.984375
vt 0.015625 0.765625
vt 0.234375 0.765625
vt 0.234375 0.984375
vt 0.015625 0.984375
vt 0.015625 0.765625
vt 0.234375 0.765625
vt 0.234375 0.984375
vt 0.015625 0.984375
vt 0.015625 0.765625
vt 0.234375 0.765625
vt 0.234375 0.984375
vt 0.015625 0.984375
vt 0.015625 0.765625
vt 0.234375 0.765625
vt 0.234375 0.984375
vt 0.015625 0.984375
vt 0.015625 0.765625
vt 0.234375 0.765625
vt 0.234375 0.984375
vt 0.015625 0.984375
vt 0.015625 0.765625
vt 0.234375 0.765625
vt 0.234375 0.984375
vt 0.015625 0.984375
vt 0.015625 0.765625
vt 0.234375 0.765625
vt 0.234375 0.984375
vt 0.015625 0.984375
vt 0.015625 0.765625
vt 0.234375 0.765625
vt 0.234375 0.984375
vt 0.015625 0.984375
vt 0.015625 0.515625
vt 0.234375 0.515625
vt 0.234375 0.734375
vt 0.015625 0.734375
vt 0.015625 0.515625
vt 0.234375 0.515625
vt 0.234375 0.734375
vt 0.015625 0.515625
vt 0.234375 0.515625
vt 0.234375 0.734375
vt 0.015625 0.515625
vt 0.234375 0.515625
vt 0.234375 0.734375
vt 0.015625 0.734375
vt 0.015625 0.515625
vt 0.234375 0.515625
vt 0.234375 0.734375
vt 0.015625 0.515625
vt 0.234375 0.515625
vt 0.234375 0.734375
vt 0.015625 0.515625
vt 0.234375 0.515625
vt 0.234375 0.734375
vt 0.015625 0.734375
vt 0.015625 0.515625
vt 0.234375 0.515625
vt 0.234375 0.734375
vt 0.015625 0.515625
vt 0.234375 0.515625
vt 0.234375 0.734375
vt 0.015625 0.515625
vt 0.234375 0.515625
vt 0.234375 0.734375
vt 0.015625 0.734375
vt 0.015625 0.515625
vt 0.234375 0.515625
vt 0.234375 0.734375
vt 0.015625 0.515625
vt 0.234375 0.515625
vt 0.234375 0.734375
vt 0.015625 0.265625
vt 0.234375 0.265625
vt 0.234375 0.484375
vt 0.015625 0.265625
vt 0.234375 0.265625
vt 0.234375 0.484375
vt 0.015625 0.265625
vt 0.234375 0.265625
vt 0.234375 0.484375
vt 0.015625 0.265625
vt 0.234375 0.265625
vt 0.234375 0.484375
vt 0.015625 0.265625
vt 0.234375 0.265625
vt 0.234375 0.484375
vt 0.015625 0.265625
vt 0.234375 0.265625
vt 0.234375 0.484375
vt 0.015625 0.265625
vt 0.234375 0.265625
vt 0.234375 0.484375
vt 0.015625 0.265625
vt 0.234375 0.265625
vt 0.234375 0.484375
vt 0.265625 0.515625
vt 0.484375 0.515625
vt 0.484375 0.734375
vt 0.265625 0.515625
vt 0.484375 0.515625
vt 0.484375 0.734375
vt 0.265625 0.515625
vt 0.484375 0.515625
vt 0.484375 0.734375
vt 0.265625 0.515625
vt 0.484375 0.515625
vt 0.484375 0.734375
vt 0.265625 0.515625
vt 0.484375 0.515625
vt 0.484375 0.734375
vt 0.265625 0.515625
vt 0.484375 0.515625
vt 0.484375 0.734375
vt 0.265625 0.515625
vt 0.484375 0.515625
vt 0.484375 0.734375
vt 0.265625 0.515625
vt 0.484375 0.515625
vt 0.484375 0.734375
vt 0.265625 0.515625
vt 0.484375 0.515625
vt 0.484375 0.734375
vt 0.265625 0.515625
vt 0.484375 0.515625
vt 0.484375 0.734375
vt 0.265625 0.515625
vt 0.484375 0.515625
vt 0.484375 0.734375
vt 0.265625 0.515625
vt 0.484375 0.515625
vt 0.484375 0.734375
vt 0.265625 0.515625
vt 0.484375 0.515625
vt 0.484375 0.734375
vt 0.265625 0.515625
vt 0.484375 0.515625
vt 0.484375 0.734375
vt 0.265625 0.515625
vt 0.484375 0.515625
vt 0.484375 0.734375
vt 0.265625 0.515625
vt 0.484375 0.515625
vt 0.484375 0.734375
vt 0.015625 0.515625
vt 0.234375 0.515625
vt 0.234375 0.734375
vt 0.015625 0.734375
vt 0.015625 0.515625
vt 0.234375 0.515625
vt 0.234375 0.734375
vt 0.015625 0.515625
vt 0.234375 0.515625
vt 0.234375 0.734375
vt 0.015625 0.515625
vt 0.234375 0.515625
vt 0.234375 0.734375
vt 0.015625 0.734375
vt 0.015625 0.515625
vt 0.234375 0.515625
vt 0.234375 0.734375
vt 0.015625 0.515625
vt 0.234375 0.515625
vt 0.234375 0.734375
vt 0.015625 0.515625
vt 0.234375 0.515625
vt 0.234375 0.734375
vt 0.015625 0.734375
vt 0.015625 0.515625
vt 0.234375 0.515625
vt 0.234375 0.734375
vt 0.015625 0.515625
vt 0.234375 0.515625
vt 0.234375 0.734375
vt 0.015625 0.515625
vt 0.234375 0.515625
vt 0.234375 0.734375
vt 0.015625 0.734375
vt 0.015625 0.515625
vt 0.234375 0.515625
vt 0.234375 0.734375
vt 0.015625 0.515625
vt 0.234375 0.515625
vt 0.234375 0.734375
vt 0.015625 0.265625
vt 0.234375 0.265625
vt 0.234375 0.484375
vt 0.015625 0.265625
vt 0.234375 0.265625
vt 0.234375 0.484375
vt 0.015625 0.265625
vt 0.234375 0.265625
vt 0.234375 0.484375
vt 0.015625 0.265625
vt 0.234375 0.265625
vt 0.234375 0.484375
vt 0.015625 0.265625
vt 0.234375 0.265625
vt 0.234375 0.484375
vt 0.015625 0.265625
vt 0.234375 0.265625
vt 0.234375 0.484375
vt 0.015625 0.265625
vt 0.234375 0.265625
vt 0.234375 0.484375
vt 0.015625 0.265625
vt 0.234375 0.265625
vt 0.234375 0.484375
vt 0.265625 0.515625
vt 0.484375 0.515625
vt 0.484375 0.734375
vt 0.265625 0.515625
vt 0.484375 0.515625
vt 0.484375 0.734375
vt 0.265625 0.515625
vt 0.484375 0.515625
vt 0.484375 0.734375
vt 0.265625 0.515625
vt 0.484375 0.515625
vt 0.484375 0.734375
vt 0.265625 0.515625
vt 0.484375 0.515625
vt 0.484375 0.734375
vt 0.265625 0.515625
vt 0.484375 0.515625
vt 0.484375 0.734375
vt 0.265625 0.515625
vt 0.484375 0.515625
vt 0.484375 0.734375
vt 0.265625 0.515625
vt 0.484375 0.515625
vt 0.484375 0.734375
vt 0.265625 0.515625
vt 0.484375 0.515625
vt 0.484375 0.734375
vt 0.265625 0.515625
vt 0.484375 0.515625
vt 0.484375 0.734375
vt 0.265625 0.515625
vt 0.484375 0.515625
vt 0.484375 0.734375
vt 0.265625 0.515625
vt 0.484375 0.515625
vt 0.484375 0.734375
vt 0.265625 0.515625
vt 0.484375 0.515625
vt 0.484375 0.734375
vt 0.265625 0.515625
vt 0.484375 0.515625
vt 0.484375 0.734375
vt 0.265625 0.515625
vt 0.484375 0.515625
vt 0.484375 0.734375
vt 0.265625 0.515625
vt 0.484375 0.515625
vt 0.484375 0.734375
vt 0.015625 0.515625
vt 0.234375 0.515625
vt 0.234375 0.734375
vt 0.015625 0.734375
vt 0.015625 0.515625
vt 0.234375 0.515625
vt 0.234375 0.734375
vt 0.015625 0.515625
vt 0.234375 0.515625
vt 0.234375 0.734375
vt 0.015625 0.515625
vt 0.234375 0.515625
vt 0.234375 0.734375
vt 0.015625 0.734375
vt 0.015625 0.515625
vt 0.234375 0.515625
vt 0.234375 0.734375
vt 0.015625 0.515625
vt 0.234375 0.515625
vt 0.234375 0.734375
vt 0.015625 0.515625
vt 0.234375 0.515625
vt 0.234375 0.734375
vt 0.015625 0.734375
vt 0.015625 0.515625
vt 0.234375 0.515625
vt 0.234375 0.734375
vt 0.015625 0.515625
vt 0.234375 0.515625
vt 0.234375 0.734375
vt 0.015625 0.515625
vt 0.234375 0.515625
vt 0.234375 0.734375
vt 0.015625 0.734375
vt 0.015625 0.515625
vt 0.234375 0.515625
vt 0.234375 0.734375
vt 0.015625 0.515625
vt 0.234375 0.515625
vt 0.234375 0.734375
vt 0.015625 0.265625
vt 0.234375 0.265625
vt 0.234375 0.484375
vt 0.015625 0.265625
vt 0.234375 0.265625
vt 0.234375 0.484375
vt 0.015625 0.265625
vt 0.234375 0.265625
vt 0.234375 0.484375
vt 0.015625 0.265625
vt 0.234375 0.265625
vt 0.234375 0.484375
vt 0.015625 0.265625
vt 0.234375 0.265625
vt 0.234375 0.484375
vt 0.015625 0.265625
vt 0.234375 0.265625
vt 0.234375 0.484375
vt 0.015625 0.265625
vt 0.234375 0.265625
vt 0.234375 0.484375
vt 0.015625 0.265625
vt 0.234375 0.265625
vt 0.234375 0.484375
vt 0.265625 0.515625
vt 0.484375 0.515625
vt 0.484375 0.734375
vt 0.265625 0.515625
vt 0.484375 0.515625
vt 0.484375 0.734375
vt 0.265625 0.515625
vt 0.484375 0.515625
vt 0.484375 0.734375
vt 0.265625 0.515625
vt 0.484375 0.515625
vt 0.484375 0.734375
vt 0.265625 0.515625
vt 0.484375 0.515625
vt 0.484375 0.734375
vt 0.265625 0.515625
vt 0.484375 0.515625
vt 0.484375 0.734375
vt 0.265625 0.515625
vt 0.484375 0.515625
vt 0.484375 0.734375
vt 0.265625 0.515625
vt 0.484375 0.515625
vt 0.484375 0.734375
vt 0.265625 0.515625
vt 0.484375 0.515625
vt 0.484375 0.734375
vt 0.265625 0.515625
vt 0.484375 0.515625
vt 0.484375 0.734375
vt 0.265625 0.515625
vt 0.484375 0.515625
vt 0.484375 0.734375
vt 0.265625 0.515625
vt 0.484375 0.515625
vt 0.484375 0.734375
vt 0.265625 0.515625
vt 0.484375 0.515625
vt 0.484375 0.734375
vt 0.265625 0.515625
vt 0.484375 0.515625
vt 0.484375 0.734375
vt 0.265625 0.515625
vt 0.484375 0.515625
vt 0.484375 0.734375
vt 0.265625 0.515625
vt 0.484375 0.515625
vt 0.484375 0.734375
vt 0.015625 0.515625
vt 0.234375 0.515625
vt 0.234375 0.734375
vt 0.015625 0.734375
vt 0.015625 0.515625
vt 0.234375 0.515625
vt 0.234375 0.734375
vt 0.015625 0.515625
vt 0.234375 0.515625
vt 0.234375 0.734375
vt 0.015625 0.515625
vt 0.234375 0.515625
vt 0.234375 0.734375
vt 0.015625 0.734375
vt 0.015625 0.515625
vt 0.234375 0.515625
vt 0.234375 0.734375
vt 0.015625 0.515625
vt 0.234375 0.515625
vt 0.234375 0.734375
vt 0.015625 0.515625
vt 0.234375 0.515625
vt 0.234375 0.734375
vt 0.015625 0.734375
vt 0.015625 0.515625
vt 0.234375 0.515625
vt 0.234375 0.734375
vt 0.015625 0.515625
vt 0.234375 0.515625
vt 0.234375 0.734375
vt 0.015625 0.515625
vt 0.234375 0.515625
vt 0.234375 0.734375
vt 0.015625 0.734375
vt 0.015625 0.515625
vt 0.234375 0.515625
vt 0.234375 0.734375
vt 0.015625 0.515625
vt 0.234375 0.515625
vt 0.234375 0.734375
vt 0.015625 0.265625
vt 0.234375 0.265625
vt 0.234375 0.484375
vt 0.015625 0.265625
vt 0.234375 0.265625
vt 0.234375 0.484375
vt 0.015625 0.265625
vt 0.234375 0.265625
vt 0.234375 0.484375
vt 0.015625 0.265625
vt 0.234375 0.265625
vt 0.234375 0.484375
vt 0.015625 0.265625
vt 0.234375 0.265625
vt 0.234375 0.484375
vt 0.015625 0.265625
vt 0.234375 0.265625
vt 0.234375 0.484375
vt 0.015625 0.265625
vt 0.234375 0.265625
vt 0.234375 0.484375
vt 0.015625 0.265625
vt 0.234375 0.265625
vt 0.234375 0.484375
vt 0.265625 0.515625
vt 0.484375 0.515625
vt 0.484375 0.734375
vt 0.265625 0.515625
vt 0.484375 0.515625
vt 0.484375 0.734375
vt 0.265625 0.515625
vt 0.484375 0.515625
vt 0.484375 0.734375
vt 0.265625 0.515625
vt 0.484375 0.515625
vt 0.484375 0.734375
vt 0.265625 0.515625
vt 0.484375 0.515625
vt 0.484375 0.734375
vt 0.265625 0.515625
vt 0.484375 0.515625
vt 0.484375 0.734375
vt 0.265625 0.515625
vt 0.484375 0.515625
vt 0.484375 0.734375
vt 0.265625 0.515625
vt 0.484375 0.515625
vt 0.484375 0.734375
vt 0.265625 0.515625
vt 0.484375 0.515625
vt 0.484375 0.734375
vt 0.265625 0.515625
vt 0.484375 0.515625
vt 0.484375 0.734375
vt 0.265625 0.515625
vt 0.484375 0.515625
vt 0.484375 0.734375
vt 0.265625 0.515625
vt 0.484375 0.515625
vt 0.484375 0.734375
vt 0.265625 0.515625
vt 0.484375 0.515625
vt 0.484375 0.734375
vt 0.265625 0.515625
vt 0.484375 0.515625
vt 0.484375 0.734375
vt 0.265625 0.515625
vt 0.484375 0.515625
vt 0.484375 0.734375
vt 0.265625 0.515625
vt 0.484375 0.515625
vt 0.484375 0.734375
vt 0.015625 0.515625
vt 0.234375 0.515625
vt 0.234375 0.734375
vt 0.015625 0.734375
vt 0.015625 0.515625
vt 0.234375 0.515625
vt 0.234375 0.734375
vt 0.015625 0.515625
vt 0.234375 0.515625
vt 0.234375 0.734375
vt 0.015625 0.515625
vt 0.234375 0.515625
vt 0.234375 0.734375
vt 0.015625 0.734375
vt 0.015625 0.515625
vt 0.234375 0.515625
vt 0.234375 0.734375
vt 0.015625 0.515625
vt 0.234375 0.515625
vt 0.234375 0.734375
vt 0.015625 0.515625
vt 0.234375 0.515625
vt 0.234375 0.734375
vt 0.015625 0.734375
vt 0.015625 0.515625
vt 0.234375 0.515625
vt 0.234375 0.734375
vt 0.015625 0.515625
vt 0.234375 0.515625
vt 0.234375 0.734375
vt 0.015625 0.515625
vt 0.234375 0.515625
vt 0.234375 0.734375
vt 0.015625 0.734375
vt 0.015625 0.515625
vt 0.234375 0.515625
vt 0.234375 0.734375
vt 0.015625 0.515625
vt 0.234375 0.515625
vt 0.234375 0.734375
vt 0.015625 0.265625
vt 0.234375 0.265625
vt 0.234375 0.484375
vt 0.015625 0.265625
vt 0.234375 0.265625
vt 0.234375 0.484375
vt 0.015625 0.265625
vt 0.234375 0.265625
vt 0.234375 0.484375
vt 0.015625 0.265625
vt 0.234375 0.265625
vt 0.234375 0.484375
vt 0.015625 0.265625
vt 0.234375 0.265625
vt 0.234375 0.484375
vt 0.015625 0.265625
vt 0.234375 0.265625
vt 0.234375 0.484375
vt 0.015625 0.265625
vt 0.234375 0.265625
vt 0.234375 0.484375
vt 0.015625 0.265625
vt 0.234375 0.265625
vt 0.234375 0.484375
vt 0.265625 0.515625
vt 0.484375 0.515625
vt 0.484375 0.734375
vt 0.265625 0.515625
vt 0.484375 0.515625
vt 0.484375 0.734375
vt 0.265625 0.515625
vt 0.484375 0.515625
vt 0.484375 0.734375
vt 0.265625 0.515625
vt 0.484375 0.515625
vt 0.484375 0.734375
vt 0.265625 0.515625
vt 0.484375 0.515625
vt 0.484375 0.734375
vt 0.265625 0.515625
vt 0.484375 0.515625
vt 0.484375 0.734375
vt 0.265625 0.515625
vt 0.484375 0.515625
vt 0.484375 0.734375
vt 0.265625 0.515625
vt 0.484375 0.515625
vt 0.484375 0.734375
vt 0.265625 0.515625
vt 0.484375 0.515625
vt 0.484375 0.734375
vt 0.265625 0.515625
vt 0.484375 0.515625
vt 0.484375 0.734375
vt 0.265625 0.515625
vt 0.484375 0.515625
vt 0.484375 0.734375
vt 0.265625 0.515625
vt 0.484375 0.515625
vt 0.484375 0.734375
vt 0.265625 0.515625
vt 0.484375 0.515625
vt 0.484375 0.734375
vt 0.265625 0.515625
vt 0.484375 0.515625
vt 0.484375 0.734375
vt 0.265625 0.515625
vt 0.484375 0.515625
vt 0.484375 0.734375
vt 0.265625 0.515625
vt 0.484375 0.515625
vt 0.484375 0.734375
vt 0.015625 0.515625
vt 0.234375 0.515625
vt 0.234375 0.734375
vt 0.015625 0.734375
vt 0.015625 0.515625
vt 0.234375 0.515625
vt 0.234375 0.734375
vt 0.015625 0.515625
vt 0.234375 0.515625
vt 0.234375 0.734375
vt 0.015625 0.515625
vt 0.234375 0.515625
vt 0.234375 0.734375
vt 0.015625 0.734375
vt 0.015625 0.515625
vt 0.234375 0.515625
vt 0.234375 0.734375
vt 0.015625 0.515625
vt 0.234375 0.515625
vt 0.234375 0.734375
vt 0.015625 0.515625
vt 0.234375 0.515625
vt 0.234375 0.734375
vt 0.015625 0.734375
vt 0.015625 0.515625
vt 0.234375 0.515625
vt 0.234375 0.734375
vt 0.015625 0.515625
vt 0.234375 0.515625
vt 0.234375 0.734375
vt 0.015625 0.515625
vt 0.234375 0.515625
vt 0.234375 0.734375
vt 0.015625 0.734375
vt 0.015625 0.515625
vt 0.234375 0.515625
vt 0.234375 0.734375
vt 0.015625 0.515625
vt 0.234375 0.515625
vt 0.234375 0.734375
vt 0.015625 0.265625
vt 0.234375 0.265625
vt 0.234375 0.484375
vt 0.015625 0.265625
vt 0.234375 0.265625
vt 0.234375 0.484375
vt 0.015625 0.265625
vt 0.234375 0.265625
vt 0.234375 0.484375
vt 0.015625 0.265625
vt 0.234375 0.265625
vt 0.234375 0.484375
vt 0.015625 0.265625
vt 0.234375 0.265625
vt 0.234375 0.484375
vt 0.015625 0.265625
vt 0.234375 0.265625
vt 0.234375 0.484375
vt 0.015625 0.265625
vt 0.234375 0.265625
vt 0.234375 0.484375
vt 0.015625 0.265625
vt 0.234375 0.265625
vt 0.234375 0.484375
vt 0.265625 0.515625
vt 0.484375 0.515625
vt 0.484375 0.734375
vt 0.265625 0.515625
vt 0.484375 0.515625
vt 0.484375 0.734375
vt 0.265625 0.515625
vt 0.484375 0.515625
vt 0.484375 0.734375
vt 0.265625 0.515625
vt 0.484375 0.515625
vt 0.484375 0.734375
vt 0.265625 0.515625
vt 0.484375 0.515625
vt 0.484375 0.734375
vt 0.265625 0.515625
vt 0.484375 0.515625
vt 0.484375 0.734375
vt 0.265625 0.515625
vt 0.484375 0.515625
vt 0.484375 0.734375
vt 0.265625 0.515625
vt 0.484375 0.515625
vt 0.484375 0.734375
vt 0.265625 0.515625
vt 0.484375 0.515625
vt 0.484375 0.734375
vt 0.265625 0.515625
vt 0.484375 0.515625
vt 0.484375 0.734375
vt 0.265625 0.515625
vt 0.484375 0.515625
vt 0.484375 0.734375
vt 0.265625 0.515625
vt 0.484375 0.515625
vt 0.484375 0.734375
vt 0.265625 0.515625
vt 0.484375 0.515625
vt 0.484375 0.734375
vt 0.265625 0.515625
vt 0.484375 0.515625
vt 0.484375 0.734375
vt 0.265625 0.515625
vt 0.484375 0.515625
vt 0.484375 0.734375
vt 0.265625 0.515625
vt 0.484375 0.515625
vt 0.484375 0.734375
vt 0.015625 0.515625
vt 0.234375 0.515625
vt 0.234375 0.734375
vt 0.015625 0.734375
vt 0.015625 0.515625
vt 0.234375 0.515625
vt 0.234375 0.734375
vt 0.015625 0.515625
vt 0.234375 0.515625
vt 0.234375 0.734375
vt 0.015625 0.515625
vt 0.234375 0.515625
vt 0.234375 0.734375
vt 0.015625 0.734375
vt 0.015625 0.515625
vt 0.234375 0.515625
vt 0.234375 0.734375
vt 0.015625 0.515625
vt 0.234375 0.515625
vt 0.234375 0.734375
vt 0.015625 0.515625
vt 0.234375 0.515625
vt 0.234375 0.734375
vt 0.015625 0.734375
vt 0.015625 0.515625
vt 0.234375 0.515625
vt 0.234375 0.734375
vt 0.015625 0.515625
vt 0.234375 0.515625
vt 0.234375 0.734375
vt 0.015625 0.515625
vt 0.234375 0.515625
vt 0.234375 0.734375
vt 0.015625 0.734375
vt 0.015625 0.515625
vt 0.234375 0.515625
vt 0.234375 0.734375
vt 0.015625 0.515625
vt 0.234375 0.515625
vt 0.234375 0.734375
vt 0.015625 0.265625
vt 0.234375 0.265625
vt 0.234375 0.484375
vt 0.015625 0.265625
vt 0.234375 0.265625
vt 0.234375 0.484375
vt 0.015625 0.265625
vt 0.234375 0.265625
vt 0.234375 0.484375
vt 0.015625 0.265625
vt 0.234375 0.265625
vt 0.234375 0.484375
vt 0.015625 0.265625
vt 0.234375 0.265625
vt 0.234375 0.484375
vt 0.015625 0.265625
vt 0.234375 0.265625
vt 0.234375 0.484375
vt 0.015625 0.265625
vt 0.234375 0.265625
vt 0.234375 0.484375
vt 0.015625 0.265625
vt 0.234375 0.265625
vt 0.234375 0.484375
vt 0.265625 0.515625
vt 0.484375 0.515625
vt 0.484375 0.734375
vt 0.265625 0.515625
vt 0.484375 0.515625
vt 0.484375 0.734375
vt 0.265625 0.515625
vt 0.484375 0.515625
vt 0.484375 0.734375
vt 0.265625 0.515625
vt 0.484375 0.515625
vt 0.484375 0.734375
vt 0.265625 0.515625
vt 0.484375 0.515625
vt 0.484375 0.734375
vt 0.265625 0.515625
vt 0.484375 0.515625
vt 0.484375 0.734375
vt 0.265625 0.515625
vt 0.484375 0.515625
vt 0.484375 0.734375
vt 0.265625 0.515625
vt 0.484375 0.515625
vt 0.484375 0.734375
vt 0.265625 0.515625
vt 0.484375 0.515625
vt 0.484375 0.734375
vt 0.265625 0.515625
vt 0.484375 0.515625
vt 0.484375 0.734375
vt 0.265625 0.515625
vt 0.484375 0.515625
vt 0.484375 0.734375
vt 0.265625 0.515625
vt 0.484375 0.515625
vt 0.484375 0.734375
vt 0.265625 0.515625
vt 0.484375 0.515625
vt 0.484375 0.734375
vt 0.265625 0.515625
vt 0.484375 0.515625
vt 0.484375 0.734375
vt 0.265625 0.515625
vt 0.484375 0.515625
vt 0.484375 0.734375
vt 0.265625 0.515625
vt 0.484375 0.515625
vt 0.484375 0.734375
vt 0.015625 0.515625
vt 0.234375 0.515625
vt 0.234375 0.734375
vt 0.015625 0.734375
vt 0.015625 0.515625
vt 0.234375 0.515625
vt 0.234375 0.734375
vt 0.015625 0.515625
vt 0.234375 0.515625
vt 0.234375 0.734375
vt 0.015625 0.515625
vt 0.234375 0.515625
vt 0.234375 0.734375
vt 0.015625 0.734375
vt 0.015625 0.515625
vt 0.234375 0.515625
vt 0.234375 0.734375
vt 0.015625 0.515625
vt 0.234375 0.515625
vt 0.234375 0.734375
vt 0.015625 0.515625
vt 0.234375 0.515625
vt 0.234375 0.734375
vt 0.015625 0.734375
vt 0.015625 0.515625
vt 0.234375 0.515625
vt 0.234375 0.734375
vt 0.015625 0.515625
vt 0.234375 0.515625
vt 0.234375 0.734375
vt 0.015625 0.515625
vt 0.234375 0.515625
vt 0.234375 0.734375
vt 0.015625 0.734375
vt 0.015625 0.515625
vt 0.234375 0.515625
vt 0.234375 0.734375
vt 0.015625 0.515625
vt 0.234375 0.515625
vt 0.234375 0.734375
vt 0.015625 0.265625
vt 0.234375 0.265625
vt 0.234375 0.484375
vt 0.015625 0.265625
vt 0.234375 0.265625
vt 0.234375 0.484375
vt 0.015625 0.265625
vt 0.234375 0.265625
vt 0.234375 0.484375
vt 0.015625 0.265625
vt 0.234375 0.265625
vt 0.234375 0.484375
vt 0.015625 0.265625
vt 0.234375 0.265625
vt 0.234375 0.484375
vt 0.015625 0.265625
vt 0.234375 0.265625
vt 0.234375 0.484375
vt 0.015625 0.265625
vt 0.234375 0.265625
vt 0.234375 0.484375
vt 0.015625 0.265625
vt 0.234375 0.265625
vt 0.234375 0.484375
vt 0.265625 0.515625
vt 0.484375 0.515625
vt 0.484375 0.734375
vt 0.265625 0.515625
vt 0.484375 0.515625
vt 0.484375 0.734375
vt 0.265625 0.515625
vt 0.484375 0.515625
vt 0.484375 0.734375
vt 0.265625 0.515625
vt 0.484375 0.515625
vt 0.484375 0.734375
vt 0.265625 0.515625
vt 0.484375 0.515625
vt 0.484375 0.734375
vt 0.265625 0.515625
vt 0.484375 0.515625
vt 0.484375 0.734375
vt 0.265625 0.515625
vt 0.484375 0.515625
vt 0.484375 0.734375
vt 0.265625 0.515625
vt 0.484375 0.515625
vt 0.484375 0.734375
vt 0.265625 0.515625
vt 0.484375 0.515625
vt 0.484375 0.734375
vt 0.265625 0.515625
vt 0.484375 0.515625
vt 0.484375 0.734375
vt 0.265625 0.515625
vt 0.484375 0.515625
vt 0.484375 0.734375
vt 0.265625 0.515625
vt 0.484375 0.515625
vt 0.484375 0.734375
vt 0.265625 0.515625
vt 0.484375 0.515625
vt 0.484375 0.734375
vt 0.265625 0.515625
vt 0.484375 0.515625
vt 0.484375 0.734375
vt 0.265625 0.515625
vt 0.484375 0.515625
vt 0.484375 0.734375
vt 0.265625 0.515625
vt 0.484375 0.515625
vt 0.484375 0.734375
vt 0.015625 0.515625
vt 0.234375 0.515625
vt 0.234375 0.734375
vt 0.015625 0.734375
vt 0.015625 0.515625
vt 0.234375 0.515625
vt 0.234375 0.734375
vt 0.015625 0.515625
vt 0.234375 0.515625
vt 0.234375 0.734375
vt 0.015625 0.515625
vt 0.234375 0.515625
vt 0.234375 0.734375
vt 0.015625 0.734375
vt 0.015625 0.515625
vt 0.234375 0.515625
vt 0.234375 0.734375
vt 0.015625 0.515625
vt 0.234375 0.515625
vt 0.234375 0.734375
vt 0.015625 0.515625
vt 0.234375 0.515625
vt 0.234375 0.734375
vt 0.015625 0.734375
vt 0.015625 0.515625
vt 0.234375 0.515625
vt 0.234375 0.734375
vt 0.015625 0.515625
vt 0.234375 0.515625
vt 0.234375 0.734375
vt 0.015625 0.515625
vt 0.234375 0.515625
vt 0.234375 0.734375
vt 0.015625 0.734375
vt 0.015625 0.515625
vt 0.234375 0.515625
vt 0.234375 0.734375
vt 0.015625 0.515625
vt 0.234375 0.515625
vt 0.234375 0.734375
vt 0.015625 0.265625
vt 0.234375 0.265625
vt 0.234375 0.484375
vt 0.015625 0.265625
vt 0.234375 0.265625
vt 0.234375 0.484375
vt 0.015625 0.265625
vt 0.234375 0.265625
vt 0.234375 0.484375
vt 0.015625 0.265625
vt 0.234375 0.265625
vt 0.234375 0.484375
vt 0.015625 0.265625
vt 0.234375 0.265625
vt 0.234375 0.484375
vt 0.015625 0.265625
vt 0.234375 0.265625
vt 0.234375 0.484375
vt 0.015625 0.265625
vt 0.234375 0.265625
vt 0.234375 0.484375
vt 0.015625 0.265625
vt 0.234375 0.265625
vt 0.234375 0.484375
vt 0.265625 0.515625
vt 0.484375 0.515625
vt 0.484375 0.734375
vt 0.265625 0.515625
vt 0.484375 0.515625
vt 0.484375 0.734375
vt 0.265625 0.515625
vt 0.484375 0.515625
vt 0.484375 0.734375
vt 0.265625 0.515625
vt 0.484375 0.515625
vt 0.484375 0.734375
vt 0.265625 0.515625
vt 0.484375 0.515625
vt 0.484375 0.734375
vt 0.265625 0.515625
vt 0.484375 0.515625
vt 0.484375 0.734375
vt 0.265625 0.515625
vt 0.484375 0.515625
vt 0.484375 0.734375
vt 0.265625 0.515625
vt 0.484375 0.515625
vt 0.484375 0.734375
vt 0.265625 0.515625
vt 0.484375 0.515625
vt 0.484375 0.734375
vt 0.265625 0.515625
vt 0.484375 0.515625
vt 0.484375 0.734375
vt 0.265625 0.515625
vt 0.484375 0.515625
vt 0.484375 0.734375
vt 0.265625 0.515625
vt 0.484375 0.515625
vt 0.484375 0.734375
vt 0.265625 0.515625
vt 0.484375 0.515625
vt 0.484375 0.734375
vt 0.265625 0.515625
vt 0.484375 0.515625
vt 0.484375 0.734375
vt 0.265625 0.515625
vt 0.484375 0.515625
vt 0.484375 0.734375
vt 0.265625 0.515625
vt 0.484375 0.515625
vt 0.484375 0.734375
vt 0.015625 0.515625
vt 0.234375 0.515625
vt 0.234375 0.734375
vt 0.015625 0.734375
vt 0.015625 0.515625
vt 0.234375 0.515625
vt 0.234375 0.734375
vt 0.015625 0.515625
vt 0.234375 0.515625
vt 0.234375 0.734375
vt 0.015625 0.515625
vt 0.234375 0.515625
vt 0.234375 0.734375
vt 0.015625 0.734375
vt 0.015625 0.515625
vt 0.234375 0.515625
vt 0.234375 0.734375
vt 0.015625 0.515625
vt 0.234375 0.515625
vt 0.234375 0.734375
vt 0.015625 0.515625
vt 0.234375 0.515625
vt 0.234375 0.734375
vt 0.015625 0.734375
vt 0.015625 0.515625
vt 0.234375 0.515625
vt 0.234375 0.734375
vt 0.015625 0.515625
vt 0.234375 0.515625
vt 0.234375 0.734375
vt 0.015625 0.515625
vt 0.234375 0.515625
vt 0.234375 0.734375
vt 0.015625 0.734375
vt 0.015625 0.515625
vt 0.234375 0.515625
vt 0.234375 0.734375
vt 0.015625 0.515625
vt 0.234375 0.515625
vt 0.234375 0.734375
vt 0.015625 0.265625
vt 0.234375 0.265625
vt 0.234375 0.484375
vt 0.015625 0.265625
vt 0.234375 0.265625
vt 0.234375 0.484375
vt 0.015625 0.265625
vt 0.234375 0.265625
vt 0.234375 0.484375
vt 0.015625 0.265625
vt 0.234375 0.265625
vt 0.234375 0.484375
vt 0.015625 0.265625
vt 0.234375 0.265625
vt 0.234375 0.484375
vt 0.015625 0.265625
vt 0.234375 0.265625
vt 0.234375 0.484375
vt 0.015625 0.265625
vt 0.234375 0.265625
vt 0.234375 0.484375
vt 0.015625 0.265625
vt 0.234375 0.265625
vt 0.234375 0.484375
vt 0.265625 0.515625
vt 0.484375 0.515625
vt 0.484375 0.734375
vt 0.265625 0.515625
vt 0.484375 0.515625
vt 0.484375 0.734375
vt 0.265625 0.515625
vt 0.484375 0.515625
vt 0.484375 0.734375
vt 0.265625 0.515625
vt 0.484375 0.515625
vt 0.484375 0.734375
vt 0.265625 0.515625
vt 0.484375 0.515625
vt 0.484375 0.734375
vt 0.265625 0.515625
vt 0.484375 0.515625
vt 0.484375 0.734375
vt 0.265625 0.515625
vt 0.484375 0.515625
vt 0.484375 0.734375
vt 0.265625 0.515625
vt 0.484375 0.515625
vt 0.484375 0.734375
vt 0.265625 0.515625
vt 0.484375 0.515625
vt 0.484375 0.734375
vt 0.265625 0.515625
vt 0.484375 0.515625
vt 0.484375 0.734375
vt 0.265625 0.515625
vt 0.484375 0.515625
vt 0.484375 0.734375
vt 0.265625 0.515625
vt 0.484375 0.515625
vt 0.484375 0.734375
vt 0.265625 0.515625
vt 0.484375 0.515625
vt 0.484375 0.734375
vt 0.265625 0.515625
vt 0.484375 0.515625
vt 0.484375 0.734375
vt 0.265625 0.515625
vt 0.484375 0.515625
vt 0.484375 0.734375
vt 0.265625 0.515625
vt 0.484375 0.515625
vt 0.484375 0.734375
vt 0.015625 0.515625
vt 0.234375 0.515625
vt 0.234375 0.734375
vt 0.015625 0.734375
vt 0.015625 0.515625
vt 0.234375 0.515625
vt 0.234375 0.734375
vt 0.015625 0.515625
vt 0.234375 0.515625
vt 0.234375 0.734375
vt 0.015625 0.515625
vt 0.234375 0.515625
vt 0.234375 0.734375
vt 0.015625 0.734375
vt 0.015625 0.515625
vt 0.234375 0.515625
vt 0.234375 0.734375
vt 0.015625 0.515625
vt 0.234375 0.515625
vt 0.234375 0.734375
vt 0.015625 0.515625
vt 0.234375 0.515625
vt 0.234375 0.734375
vt 0.015625 0.734375
vt 0.015625 0.515625
vt 0.234375 0.515625
vt 0.234375 0.734375
vt 0.015625 0.515625
vt 0.234375 0.515625
vt 0.234375 0.734375
vt 0.015625 0.515625
vt 0.234375 0.515625
vt 0.234375 0.734375
vt 0.015625 0.734375
vt 0.015625 0.515625
vt 0.234375 0.515625
vt 0.234375 0.734375
vt 0.015625 0.515625
vt 0.234375 0.515625
vt 0.234375 0.734375
vt 0.015625 0.265625
vt 0.234375 0.265625
vt 0.234375 0.484375
vt 0.015625 0.265625
vt 0.234375 0.265625
vt 0.234375 0.484375
vt 0.015625 0.265625
vt 0.234375 0.265625
vt 0.234375 0.484375
vt 0.015625 0.265625
vt 0.234375 0.265625
vt 0.234375 0.484375
vt 0.015625 0.265625
vt 0.234375 0.265625
vt 0.234375 0.484375
vt 0.015625 0.265625
vt 0.234375 0.265625
vt 0.234375 0.484375
vt 0.015625 0.265625
vt 0.234375 0.265625
vt 0.234375 0.484375
vt 0.015625 0.265625
vt 0.234375 0.265625
vt 0.234375 0.484375
vt 0.265625 0.515625
vt 0.484375 0.515625
vt 0.484375 0.734375
vt 0.265625 0.515625
vt 0.484375 0.515625
vt 0.484375 0.734375
vt 0.265625 0.515625
vt 0.484375 0.515625
vt 0.484375 0.734375
vt 0.265625 0.515625
vt 0.484375 0.515625
vt 0.484375 0.734375
vt 0.265625 0.515625
vt 0.484375 0.515625
vt 0.484375 0.734375
vt 0.265625 0.515625
vt 0.484375 0.515625
vt 0.484375 0.734375
vt 0.265625 0.515625
vt 0.484375 0.515625
vt 0.484375 0.734375
vt 0.265625 0.515625
vt 0.484375 0.515625
vt 0.484375 0.734375
vt 0.265625 0.515625
vt 0.484375 0.515625
vt 0.484375 0.734375
vt 0.265625 0.515625
vt 0.484375 0.515625
vt 0.484375 0.734375
vt 0.265625 0.515625
vt 0.484375 0.515625
vt 0.484375 0.734375
vt 0.265625 0.515625
vt 0.484375 0.515625
vt 0.484375 0.734375
vt 0.265625 0.515625
vt 0.484375 0.515625
vt 0.484375 0.734375
vt 0.265625 0.515625
vt 0.484375 0.515625
vt 0.484375 0.734375
vt 0.265625 0.515625
vt 0.484375 0.515625
vt 0.484375 0.734375
vt 0.265625 0.515625
vt 0.484375 0.515625
vt 0.484375 0.734375
vt 0.015625 0.515625
vt 0.234375 0.515625
vt 0.234375 0.734375
vt 0.015625 0.734375
vt 0.015625 0.515625
vt 0.234375 0.515625
vt 0.234375 0.734375
vt 0.015625 0.515625
vt 0.234375 0.515625
vt 0.234375 0.734375
vt 0.015625 0.515625
vt 0.234375 0.515625
vt 0.234375 0.734375
vt 0.015625 0.734375
vt 0.015625 0.515625
vt 0.234375 0.515625
vt 0.234375 0.734375
vt 0.015625 0.515625
vt 0.234375 0.515625
vt 0.234375 0.734375
vt 0.015625 0.515625
vt 0.234375 0.515625
vt 0.234375 0.734375
vt 0.015625 0.734375
vt 0.015625 0.515625
vt 0.234375 0.515625
vt 0.234375 0.734375
vt 0.015625 0.515625
vt 0.234375 0.515625
vt 0.234375 0.734375
vt 0.015625 0.515625
vt 0.234375 0.515625
vt 0.234375 0.734375
vt 0.015625 0.734375
vt 0.015625 0.515625
vt 0.234375 0.515625
vt 0.234375 0.734375
vt 0.015625 0.515625
vt 0.234375 0.515625
vt 0.234375 0.734375
vt 0.015625 0.265625
vt 0.234375 0.265625
vt 0.234375 0.484375
vt 0.015625 0.265625
vt 0.234375 0.265625
vt 0.234375 0.484375
vt 0.015625 0.265625
vt 0.234375 0.265625
vt 0.234375 0.484375
vt 0.015625 0.265625
vt 0.234375 0.265625
vt 0.234375 0.484375
vt 0.015625 0.265625
vt 0.234375 0.265625
vt 0.234375 0.484375
vt 0.015625 0.265625
vt 0.234375 0.265625
vt 0.234375 0.484375
vt 0.015625 0.265625
vt 0.234375 0.265625
vt 0.234375 0.484375
vt 0.015625 0.265625
vt 0.234375 0.265625
vt 0.234375 0.484375
vt 0.265625 0.515625
vt 0.484375 0.515625
vt 0.484375 0.734375
vt 0.265625 0.515625
vt 0.484375 0.515625
vt 0.484375 0.734375
vt 0.265625 0.515625
vt 0.484375 0.515625
vt 0.484375 0.734375
vt 0.265625 0.515625
vt 0.484375 0.515625
vt 0.484375 0.734375
vt 0.265625 0.515625
vt 0.484375 0.515625
vt 0.484375 0.734375
vt 0.265625 0.515625
vt 0.484375 0.515625
vt 0.484375 0.734375
vt 0.265625 0.515625
vt 0.484375 0.515625
vt 0.484375 0.734375
vt 0.265625 0.515625
vt 0.484375 0.515625
vt 0.484375 0.734375
vt 0.265625 0.515625
vt 0.484375 0.515625
vt 0.484375 0.734375
vt 0.265625 0.515625
vt 0.484375 0.515625
vt 0.484375 0.734375
vt 0.265625 0.515625
vt 0.484375 0.515625
vt 0.484375 0.734375
vt 0.265625 0.515625
vt 0.484375 0.515625
vt 0.484375 0.734375
vt 0.265625 0.515625
vt 0.484375 0.515625
vt 0.484375 0.734375
vt 0.265625 0.515625
vt 0.484375 0.515625
vt 0.484375 0.734375
vt 0.265625 0.515625
vt 0.484375 0.515625
vt 0.484375 0.734375
vt 0.265625 0.515625
vt 0.484375 0.515625
vt 0.484375 0.734375
vn 0.00000000 0.00000000 -1.00000000
vn 0.00000000 0.00000000 1.00000000
vn -1.00000000 0.00000000 0.00000000
vn 1.00000000 0.00000000 0.00000000
vn 0.00000000 -1.00000000 0.00000000
vn 0.00000000 1.00000000 0.00000000
vn 0.00000000 0.00000000 -1.00000000
vn 0.00000000 0.00000000 1.00000000
vn -1.00000000 0.00000000 0.00000000
vn 1.00000000 0.00000000 0.00000000
vn 0.00000000 -1.00000000 0.00000000
vn 0.00000000 1.00000000 0.00000000
vn 0.00000000 0.00000000 -1.00000000
vn 0.00000000 0.00000000 1.00000000
vn -1.00000000 0.00000000 0.00000000
vn 1.00000000 0.00000000 0.00000000
vn 0.00000000 -1.00000000 0.00000000
vn 0.00000000 1.00000000 0.00000000
vn 0.00000000 0.00000000 -1.00000000
vn 0.00000000 0.00000000 1.00000000
vn -1.00000000 0.00000000 0.00000000
vn 1.00000000 0.00000000 0.00000000
vn 0.00000000 -1.00000000 0.00000000
vn 0.00000000 1.00000000 0.00000000
vn 0.00000000 0.00000000 -1.00000000
vn 0.00000000 0.00000000 1.00000000
vn -1.00000000 0.00000000 0.00000000
vn 1.00000000 0.00000000 0.00000000
vn 0.00000000 -1.00000000 0.00000000
vn 0.00000000 1.00000000 0.00000000
vn 0.00000000 0.00000000 -1.00000000
vn 0.00000000 0.00000000 1.00000000
vn -1.00000000 0.00000000 0.00000000
vn 1.00000000 0.00000000 0.00000000
vn 0.00000000 -1.00000000 0.00000000
vn 0.00000000 1.00000000 0.00000000
vn 0.70710678 0.00000000 -0.70710678
vn 0.00000000 -1.00000000 0.00000000
vn -0.00000000 1.00000000 0.00000000
vn -0.70710678 0.00000000 -0.70710678
vn -0.00000000 -1.00000000 -0.00000000
vn 0.00000000 1.00000000 0.00000000
vn -0.70710678 0.00000000 0.70710678
vn 0.00000000 -1.00000000 0.00000000
vn 0.00000000 1.00000000 -0.00000000
vn 0.70710678 0.00000000 0.70710678
vn 0.00000000 -1.00000000 0.00000000
vn 0.00000000 1.00000000 0.00000000
vn -0.64501365 0.28380600 0.70951501
vn -0.64501365 -0.28380600 0.70951501
vn 0.64501365 0.28380600 0.70951501
vn 0.64501365 -0.28380600 0.70951501
vn 0.64501365 0.28380600 -0.70951501
vn 0.64501365 -0.28380600 -0.70951501
vn -0.64501365 0.28380600 -0.70951501
vn -0.64501365 -0.28380600 -0.70951501
vn -0.18190678 0.80847456 0.55971315
vn -0.18190678 -0.80847456 0.55971315
vn 0.18190678 0.80847456 0.55971315
vn 0.18190678 -0.80847456 0.55971315
vn 0.18190678 0.80847456 -0.55971315
vn 0.18190678 -0.80847456 -0.55971315
vn -0.18190678 0.80847456 -0.55971315
vn -0.18190678 -0.80847456 -0.55971315
vn -0.18190678 0.80847456 0.55971315
vn -0.18190678 -0.80847456 0.55971315
vn 0.18190678 0.80847456 0.55971315
vn 0.18190678 -0.80847456 0.55971315
vn 0.18190678 0.80847456 -0.55971315
vn 0.18190678 -0.80847456 -0.55971315
vn -0.18190678 0.80847456 -0.55971315
vn -0.18190678 -0.80847456 -0.55971315
vn 0.70710678 0.00000000 -0.70710678
vn 0.00000000 -1.00000000 0.00000000
vn -0.00000000 1.00000000 0.00000000
vn -0.70710678 0.00000000 -0.70710678
vn 0.00000000 -1.00000000 -0.00000000
vn 0.00000000 1.00000000 0.00000000
vn -0.70710678 0.00000000 0.70710678
vn -0.00000000 -1.00000000 0.00000000
vn 0.00000000 1.00000000 -0.00000000
vn 0.70710678 0.00000000 0.70710678
vn 0.00000000 -1.00000000 0.00000000
vn 0.00000000 1.00000000 0.00000000
vn -0.64501365 0.28380600 0.70951501
vn -0.64501365 -0.28380600 0.70951501
vn 0.64501365 0.28380600 0.70951501
vn 0.64501365 -0.28380600 0.70951501
vn 0.64501365 0.28380600 -0.70951501
vn 0.64501365 -0.28380600 -0.70951501
vn -0.64501365 0.28380600 -0.70951501
vn -0.64501365 -0.28380600 -0.70951501
vn -0.18190678 0.80847456 0.55971315
vn -0.18190678 -0.80847456 0.55971315
vn 0.18190678 0.80847456 0.55971315
vn 0.18190678 -0.80847456 0.55971315
vn 0.18190678 0.80847456 -0.55971315
vn 0.18190678 -0.80847456 -0.55971315
vn -0.18190678 0.80847456 -0.55971315
vn -0.18190678 -0.80847456 -0.55971315
vn -0.18190678 0.80847456 0.55971315
vn -0.18190678 -0.80847456 0.55971315
vn 0.18190678 0.80847456 0.55971315
vn 0.18190678 -0.80847456 0.55971315
vn 0.18190678 0.80847456 -0.55971315
vn 0.18190678 -0.80847456 -0.55971315
vn -0.18190678 0.80847456 -0.55971315
vn -0.18190678 -0.80847456 -0.55971315
vn 0.70710678 0.00000000 -0.70710678
vn 0.00000000 -1.00000000 0.00000000
vn -0.00000000 1.00000000 0.00000000
vn -0.70710678 0.00000000 -0.70710678
vn -0.00000000 -1.00000000 -0.00000000
vn 0.00000000 1.00000000 0.00000000
vn -0.70710678 0.00000000 0.70710678
vn 0.00000000 -1.00000000 0.00000000
vn 0.00000000 1.00000000 -0.00000000
vn 0.70710678 0.00000000 0.70710678
vn 0.00000000 -1.00000000 0.00000000
vn 0.00000000 1.00000000 0.00000000
vn -0.64501365 0.28380600 0.70951501
vn -0.64501365 -0.28380600 0.70951501
vn 0.64501365 0.28380600 0.70951501
vn 0.64501365 -0.28380600 0.70951501
vn 0.64501365 0.28380600 -0.70951501
vn 0.64501365 -0.28380600 -0.70951501
vn -0.64501365 0.28380600 -0.70951501
vn -0.64501365 -0.28380600 -0.70951501
vn -0.18190678 0.80847456 0.55971315
vn -0.18190678 -0.80847456 0.55971315
vn 0.18190678 0.80847456 0.55971315
vn 0.18190678 -0.80847456 0.55971315
vn 0.18190678 0.80847456 -0.55971315
vn 0.18190678 -0.80847456 -0.55971315
vn -0.18190678 0.80847456 -0.55971315
vn -0.18190678 -0.80847456 -0.55971315
vn -0.18190678 0.80847456 0.55971315
vn -0.18190678 -0.80847456 0.55971315
vn 0.18190678 0.80847456 0.55971315
vn 0.18190678 -0.80847456 0.55971315
vn 0.18190678 0.80847456 -0.55971315
vn 0.18190678 -0.80847456 -0.55971315
vn -0.18190678 0.80847456 -0.55971315
vn -0.18190678 -0.80847456 -0.55971315
vn 0.70710678 0.00000000 -0.70710678
vn 0.00000000 -1.00000000 0.00000000
vn -0.00000000 1.00000000 0.00000000
vn -0.70710678 0.00000000 -0.70710678
vn -0.00000000 -1.00000000 -0.00000000
vn 0.00000000 1.00000000 0.00000000
vn -0.70710678 0.00000000 0.70710678
vn 0.00000000 -1.00000000 0.00000000
vn 0.00000000 1.00000000 -0.00000000
vn 0.70710678 0.00000000 0.70710678
vn 0.00000000 -1.00000000 0.00000000
vn 0.00000000 1.00000000 0.00000000
vn -0.64501365 0.28380600 0.70951501
vn -0.64501365 -0.28380600 0.70951501
vn 0.64501365 0.28380600 0.70951501
vn 0.64501365 -0.28380600 0.70951501
vn 0.64501365 0.28380600 -0.70951501
vn 0.64501365 -0.28380600 -0.70951501
vn -0.64501365 0.28380600 -0.70951501
vn -0.64501365 -0.28380600 -0.70951501
vn -0.18190678 0.80847456 0.55971315
vn -0.18190678 -0.80847456 0.55971315
vn 0.18190678 0.80847456 0.55971315
vn 0.18190678 -0.80847456 0.55971315
vn 0.18190678 0.80847456 -0.55971315
vn 0.18190678 -0.80847456 -0.55971315
vn -0.18190678 0.80847456 -0.55971315
vn -0.18190678 -0.80847456 -0.55971315
vn -0.18190678 0.80847456 0.55971315
vn -0.18190678 -0.80847456 0.55971315
vn 0.18190678 0.80847456 0.55971315
vn 0.18190678 -0.80847456 0.55971315
vn 0.18190678 0.80847456 -0.55971315
vn 0.18190678 -0.80847456 -0.55971315
vn -0.18190678 0.80847456 -0.55971315
vn -0.18190678 -0.80847456 -0.55971315
vn 0.70710678 0.00000000 -0.70710678
vn 0.00000000 -1.00000000 0.00000000
vn -0.00000000 1.00000000 0.00000000
vn -0.70710678 0.00000000 -0.70710678
vn 0.00000000 -1.00000000 -0.00000000
vn 0.00000000 1.00000000 0.00000000
vn -0.70710678 0.00000000 0.70710678
vn -0.00000000 -1.00000000 0.00000000
vn 0.00000000 1.00000000 -0.00000000
vn 0.70710678 0.00000000 0.70710678
vn 0.00000000 -1.00000000 0.00000000
vn 0.00000000 1.00000000 0.00000000
vn -0.64501365 0.28380600 0.70951501
vn -0.64501365 -0.28380600 0.70951501
vn 0.64501365 0.28380600 0.70951501
vn 0.64501365 -0.28380600 0.70951501
vn 0.64501365 0.28380600 -0.70951501
vn 0.64501365 -0.28380600 -0.70951501
vn -0.64501365 0.28380600 -0.70951501
vn -0.64501365 -0.28380600 -0.70951501
vn -0.18190678 0.80847456 0.55971315
vn -0.18190678 -0.80847456 0.55971315
vn 0.18190678 0.80847456 0.55971315
vn 0.18190678 -0.80847456 0.55971315
vn 0.18190678 0.80847456 -0.55971315
vn 0.18190678 -0.80847456 -0.55971315
vn -0.18190678 0.80847456 -0.55971315
vn -0.18190678 -0.80847456 -0.55971315
vn -0.18190678 0.80847456 0.55971315
vn -0.18190678 -0.80847456 0.55971315
vn 0.18190678 0.80847456 0.55971315
vn 0.18190678 -0.80847456 0.55971315
vn 0.18190678 0.80847456 -0.55971315
vn 0.18190678 -0.80847456 -0.55971315
vn -0.18190678 0.80847456 -0.55971315
vn -0.18190678 -0.80847456 -0.55971315
vn 0.70710678 0.00000000 -0.70710678
vn 0.00000000 -1.00000000 0.00000000
vn -0.00000000 1.00000000 0.00000000
vn -0.70710678 0.00000000 -0.70710678
vn -0.00000000 -1.00000000 -0.00000000
vn 0.00000000 1.00000000 0.00000000
vn -0.70710678 0.00000000 0.70710678
vn 0.00000000 -1.00000000 0.00000000
vn 0.00000000 1.00000000 -0.00000000
vn 0.70710678 0.00000000 0.70710678
vn 0.00000000 -1.00000000 0.00000000
vn 0.00000000 1.00000000 0.00000000
vn -0.64501365 0.28380600 0.70951501
vn -0.64501365 -0.28380600 0.70951501
vn 0.64501365 0.28380600 0.70951501
vn 0.64501365 -0.28380600 0.70951501
vn 0.64501365 0.28380600 -0.70951501
vn 0.64501365 -0.28380600 -0.70951501
vn -0.64501365 0.28380600 -0.70951501
vn -0.64501365 -0.28380600 -0.70951501
vn -0.18190678 0.80847456 0.55971315
vn -0.18190678 -0.80847456 0.55971315
vn 0.18190678 0.80847456 0.55971315
vn 0.18190678 -0.80847456 0.55971315
vn 0.18190678 0.80847456 -0.55971315
vn 0.18190678 -0.80847456 -0.55971315
vn -0.18190678 0.80847456 -0.55971315
vn -0.18190678 -0.80847456 -0.55971315
vn -0.18190678 0.80847456 0.55971315
vn -0.18190678 -0.80847456 0.55971315
vn 0.18190678 0.80847456 0.55971315
vn 0.18190678 -0.80847456 0.55971315
vn 0.18190678 0.80847456 -0.55971315
vn 0.18190678 -0.80847456 -0.55971315
vn -0.18190678 0.80847456 -0.55971315
vn -0.18190678 -0.80847456 -0.55971315
vn 0.70710678 0.00000000 -0.70710678
vn 0.00000000 -1.00000000 0.00000000
vn -0.00000000 1.00000000 0.00000000
vn -0.70710678 0.00000000 -0.70710678
vn -0.00000000 -1.00000000 -0.00000000
vn 0.00000000 1.00000000 0.00000000
vn -0.70710678 0.00000000 0.70710678
vn 0.00000000 -1.00000000 0.00000000
vn 0.00000000 1.00000000 -0.00000000
vn 0.70710678 0.00000000 0.70710678
vn 0.00000000 -1.00000000 0.00000000
vn 0.00000000 1.00000000 0.00000000
vn -0.64501365 0.28380600 0.70951501
vn -0.64501365 -0.28380600 0.70951501
vn 0.64501365 0.28380600 0.70951501
vn 0.64501365 -0.28380600 0.70951501
vn 0.64501365 0.28380600 -0.70951501
vn 0.64501365 -0.28380600 -0.70951501
vn -0.64501365 0.28380600 -0.70951501
vn -0.64501365 -0.28380600 -0.70951501
vn -0.18190678 0.80847456 0.55971315
vn -0.18190678 -0.80847456 0.55971315
vn 0.18190678 0.80847456 0.55971315
vn 0.18190678 -0.80847456 0.55971315
vn 0.18190678 0.80847456 -0.55971315
vn 0.18190678 -0.80847456 -0.55971315
vn -0.18190678 0.80847456 -0.55971315
vn -0.18190678 -0.80847456 -0.55971315
vn -0.18190678 0.80847456 0.55971315
vn -0.18190678 -0.80847456 0.55971315
vn 0.18190678 0.80847456 0.55971315
vn 0.18190678 -0.80847456 0.55971315
vn 0.18190678 0.80847456 -0.55971315
vn 0.18190678 -0.80847456 -0.55971315
vn -0.18190678 0.80847456 -0.55971315
vn -0.18190678 -0.80847456 -0.55971315
vn 0.70710678 0.00000000 -0.70710678
vn 0.00000000 -1.00000000 0.00000000
vn -0.00000000 1.00000000 0.00000000
vn -0.70710678 0.00000000 -0.70710678
vn 0.00000000 -1.00000000 -0.00000000
vn 0.00000000 1.00000000 0.00000000
vn -0.70710678 0.00000000 0.70710678
vn -0.00000000 -1.00000000 0.00000000
vn 0.00000000 1.00000000 -0.00000000
vn 0.70710678 0.00000000 0.70710678
vn 0.00000000 -1.00000000 0.00000000
vn 0.00000000 1.00000000 0.00000000
vn -0.64501365 0.28380600 0.70951501
vn -0.64501365 -0.28380600 0.70951501
vn 0.64501365 0.28380600 0.70951501
vn 0.64501365 -0.28380600 0.70951501
vn 0.64501365 0.28380600 -0.70951501
vn 0.64501365 -0.28380600 -0.70951501
vn -0.64501365 0.28380600 -0.70951501
vn -0.64501365 -0.28380600 -0.70951501
vn -0.18190678 0.80847456 0.55971315
vn -0.18190678 -0.80847456 0.55971315
vn 0.18190678 0.80847456 0.55971315
vn 0.18190678 -0.80847456 0.55971315
vn 0.18190678 0.80847456 -0.55971315
vn 0.18190678 -0.80847456 -0.55971315
vn -0.18190678 0.80847456 -0.55971315
vn -0.18190678 -0.80847456 -0.55971315
vn -0.18190678 0.80847456 0.55971315
vn -0.18190678 -0.80847456 0.55971315
vn 0.18190678 0.80847456 0.55971315
vn 0.18190678 -0.80847456 0.55971315
vn 0.18190678 0.80847456 -0.55971315
vn 0.18190678 -0.80847456 -0.55971315
vn -0.18190678 0.80847456 -0.55971315
vn -0.18190678 -0.80847456 -0.55971315
vn 0.70710678 0.00000000 -0.70710678
vn 0.00000000 -1.00000000 0.00000000
vn -0.00000000 1.00000000 0.00000000
vn -0.70710678 0.00000000 -0.70710678
vn -0.00000000 -1.00000000 -0.00000000
vn 0.00000000 1.00000000 0.00000000
vn -0.70710678 0.00000000 0.70710678
vn 0.00000000 -1.00000000 0.00000000
vn 0.00000000 1.00000000 -0.00000000
vn 0.70710678 0.00000000 0.70710678
vn 0.00000000 -1.00000000 0.00000000
vn 0.00000000 1.00000000 0.00000000
vn -0.64501365 0.28380600 0.70951501
vn -0.64501365 -0.28380600 0.70951501
vn 0.64501365 0.28380600 0.70951501
vn 0.64501365 -0.28380600 0.70951501
vn 0.64501365 0.28380600 -0.70951501
vn 0.64501365 -0.28380600 -0.70951501
vn -0.64501365 0.28380600 -0.70951501
vn -0.64501365 -0.28380600 -0.70951501
vn -0.18190678 0.80847456 0.55971315
vn -0.18190678 -0.80847456 0.55971315
vn 0.18190678 0.80847456 0.55971315
vn 0.18190678 -0.80847456 0.55971315
vn 0.18190678 0.80847456 -0.55971315
vn 0.18190678 -0.80847456 -0.55971315
vn -0.18190678 0.80847456 -0.55971315
vn -0.18190678 -0.80847456 -0.55971315
vn -0.18190678 0.80847456 0.55971315
vn -0.18190678 -0.80847456 0.55971315
vn 0.18190678 0.80847456 0.55971315
vn 0.18190678 -0.80847456 0.55971315
vn 0.18190678 0.80847456 -0.55971315
vn 0.18190678 -0.80847456 -0.55971315
vn -0.18190678 0.80847456 -0.55971315
vn -0.18190678 -0.80847456 -0.55971315
vn 0.70710678 0.00000000 -0.70710678
vn 0.00000000 -1.00000000 0.00000000
vn -0.00000000 1.00000000 0.00000000
vn -0.70710678 0.00000000 -0.70710678
vn -0.00000000 -1.00000000 -0.00000000
vn 0.00000000 1.00000000 0.00000000
vn -0.70710678 0.00000000 0.70710678
vn 0.00000000 -1.00000000 0.00000000
vn 0.00000000 1.00000000 -0.00000000
vn 0.70710678 0.00000000 0.70710678
vn 0.00000000 -1.00000000 0.00000000
vn 0.00000000 1.00000000 0.00000000
vn -0.64501365 0.28380600 0.70951501
vn -0.64501365 -0.28380600 0.70951501
vn 0.64501365 0.28380600 0.70951501
vn 0.64501365 -0.28380600 0.70951501
vn 0.64501365 0.28380600 -0.70951501
vn 0.64501365 -0.28380600 -0.70951501
vn -0.64501365 0.28380600 -0.70951501
vn -0.64501365 -0.28380600 -0.70951501
vn -0.18190678 0.80847456 0.55971315
vn -0.18190678 -0.80847456 0.55971315
vn 0.18190678 0.80847456 0.55971315
vn 0.18190678 -0.80847456 0.55971315
vn 0.18190678 0.80847456 -0.55971315
vn 0.18190678 -0.80847456 -0.55971315
vn -0.18190678 0.80847456 -0.55971315
vn -0.18190678 -0.80847456 -0.55971315
vn -0.18190678 0.80847456 0.55971315
vn -0.18190678 -0.80847456 0.55971315
vn 0.18190678 0.80847456 0.55971315
vn 0.18190678 -0.80847456 0.55971315
vn 0.18190678 0.80847456 -0.55971315
vn 0.18190678 -0.80847456 -0.55971315
vn -0.18190678 0.80847456 -0.55971315
vn -0.18190678 -0.80847456 -0.55971315
vn 0.70710678 0.00000000 -0.70710678
vn 0.00000000 -1.00000000 0.00000000
vn -0.00000000 1.00000000 0.00000000
vn -0.70710678 0.00000000 -0.70710678
vn 0.00000000 -1.00000000 -0.00000000
vn 0.00000000 1.00000000 0.00000000
vn -0.70710678 0.00000000 0.70710678
vn -0.00000000 -1.00000000 0.00000000
vn 0.00000000 1.00000000 -0.00000000
vn 0.70710678 0.00000000 0.70710678
vn 0.00000000 -1.00000000 0.00000000
vn 0.00000000 1.00000000 0.00000000
vn -0.64501365 0.28380600 0.70951501
vn -0.64501365 -0.28380600 0.70951501
vn 0.64501365 0.28380600 0.70951501
vn 0.64501365 -0.28380600 0.70951501
vn 0.64501365 0.28380600 -0.70951501
vn 0.64501365 -0.28380600 -0.70951501
vn -0.64501365 0.28380600 -0.70951501
vn -0.64501365 -0.28380600 -0.70951501
vn -0.18190678 0.80847456 0.55971315
vn -0.18190678 -0.80847456 0.55971315
vn 0.18190678 0.80847456 0.55971315
vn 0.18190678 -0.80847456 0.55971315
vn 0.18190678 0.80847456 -0.55971315
vn 0.18190678 -0.80847456 -0.55971315
vn -0.18190678 0.80847456 -0.55971315
vn -0.18190678 -0.80847456 -0.55971315
vn -0.18190678 0.80847456 0.55971315
vn -0.18190678 -0.80847456 0.55971315
vn 0.18190678 0.80847456 0.55971315
vn 0.18190678 -0.80847456 0.55971315
vn 0.18190678 0.80847456 -0.55971315
vn 0.18190678 -0.80847456 -0.55971315
vn -0.18190678 0.80847456 -0.55971315
vn -0.18190678 -0.80847456 -0.55971315
vn 0.70710678 0.00000000 -0.70710678
vn 0.00000000 -1.00000000 0.00000000
vn -0.00000000 1.00000000 0.00000000
vn -0.70710678 0.00000000 -0.70710678
vn -0.00000000 -1.00000000 -0.00000000
vn 0.00000000 1.00000000 0.00000000
vn -0.70710678 0.00000000 0.70710678
vn 0.00000000 -1.00000000 0.00000000
vn 0.00000000 1.00000000 -0.00000000
vn 0.70710678 0.00000000 0.70710678
vn 0.00000000 -1.00000000 0.00000000
vn 0.00000000 1.00000000 0.00000000
vn -0.64501365 0.28380600 0.70951501
vn -0.64501365 -0.28380600 0.70951501
vn 0.64501365 0.28380600 0.70951501
vn 0.64501365 -0.28380600 0.70951501
vn 0.64501365 0.28380600 -0.70951501
vn 0.64501365 -0.28380600 -0.70951501
vn -0.64501365 0.28380600 -0.70951501
vn -0.64501365 -0.28380600 -0.70951501
vn -0.18190678 0.80847456 0.55971315
vn -0.18190678 -0.80847456 0.55971315
vn 0.18190678 0.80847456 0.55971315
vn 0.18190678 -0.80847456 0.55971315
vn 0.18190678 0.80847456 -0.55971315
vn 0.18190678 -0.80847456 -0.55971315
vn -0.18190678 0.80847456 -0.55971315
vn -0.18190678 -0.80847456 -0.55971315
vn -0.18190678 0.80847456 0.55971315
vn -0.18190678 -0.80847456 0.55971315
vn 0.18190678 0.80847456 0.55971315
vn 0.18190678 -0.80847456 0.55971315
vn 0.18190678 0.80847456 -0.55971315
vn 0.18190678 -0.80847456 -0.55971315
vn -0.18190678 0.80847456 -0.55971315
vn -0.18190678 -0.80847456 -0.55971315
f 1/1/1 4/2/1 3/3/1
f 1/1/1 3/3/1 2/4/1
f 5/5/2 6/6/2 7/7/2
f 5/5/2 7/7/2 8/8/2
f 1/9/3 5/10/3 8/11/3
f 1/9/3 8/11/3 4/12/3
f 2/13/4 3/14/4 7/15/4
f 2/13/4 7/15/4 6/16/4
f 1/17/5 2/18/5 6/19/5
f 1/17/5 6/19/5 5/20/5
f 4/21/6 8/22/6 7/23/6
f 4/21/6 7/23/6 3/24/6
f 9/25/7 12/26/7 11/27/7
f 9/25/7 11/27/7 10/28/7
f 13/29/8 14/30/8 15/31/8
f 13/29/8 15/31/8 16/32/8
f 9/33/9 13/34/9 16/35/9
f 9/33/9 16/35/9 12/36/9
f 10/37/10 11/38/10 15/39/10
f 10/37/10 15/39/10 14/40/10
f 9/41/11 10/42/11 14/43/11
f 9/41/11 14/43/11 13/44/11
f 12/45/12 16/46/12 15/47/12
f 12/45/12 15/47/12 11/48/12
f 17/49/13 20/50/13 19/51/13
f 17/49/13 19/51/13 18/52/13
f 21/53/14 22/54/14 23/55/14
f 21/53/14 23/55/14 24/56/14
f 17/57/15 21/58/15 24/59/15
f 17/57/15 24/59/15 20/60/15
f 18/61/16 19/62/16 23/63/16
f 18/61/16 23/63/16 22/64/16
f 17/65/17 18/66/17 22/67/17
f 17/65/17 22/67/17 21/68/17
f 20/69/18 24/70/18 23/71/18
f 20/69/18 23/71/18 19/72/18
f 25/73/19 28/74/19 27/75/19
f 25/73/19 27/75/19 26/76/19
f 29/77/20 30/78/20 31/79/20
f 29/77/20 31/79/20 32/80/20
f 25/81/21 29/82/21 32/83/21
f 25/81/21 32/83/21 28/84/21
f 26/85/22 27/86/22 31/87/22
f 26/85/22 31/87/22 30/88/22
f 25/89/23 26/90/23 30/91/23
f 25/89/23 30/91/23 29/92/23
f 28/93/24 32/94/24 31/95/24
f 28/93/24 31/95/24 27/96/24
f 21/97/25 24/98/25 34/99/25
f 21/97/25 34/99/25 33/100/25
f 25/101/26 35/102/26 36/103/26
f 25/101/26 36/103/26 28/104/26
f 21/105/27 25/106/27 28/107/27
f 21/105/27 28/107/27 24/108/27
f 33/109/28 34/110/28 36/111/28
f 33/109/28 36/111/28 35/112/28
f 21/113/29 33/114/29 35/115/29
f 21/113/29 35/115/29 25/116/29
f 24/117/30 28/118/30 36/119/30
f 24/117/30 36/119/30 34/120/30
f 37/121/31 38/122/31 23/123/31
f 37/121/31 23/123/31 22/124/31
f 39/125/32 26/126/32 27/127/32
f 39/125/32 27/127/32 40/128/32
f 37/129/33 39/130/33 40/131/33
f 37/129/33 40/131/33 38/132/33
f 22/133/34 23/134/34 27/135/34
f 22/133/34 27/135/34 26/136/34
f 37/137/35 22/138/35 26/139/35
f 37/137/35 26/139/35 39/140/35
f 38/141/36 40/142/36 27/143/36
f 38/141/36 27/143/36 23/144/36
f 41/145/37 42/146/37 43/147/37
f 41/145/37 43/147/37 44/148/37
f 45/149/38 42/150/38 41/151/38
f 46/152/39 44/153/39 43/154/39
f 42/155/40 47/156/40 48/157/40
f 42/155/40 48/157/40 43/158/40
f 45/159/41 47/160/41 42/161/41
f 46/162/42 43/163/42 48/164/42
f 47/165/43 49/166/43 50/167/43
f 47/165/43 50/167/43 48/168/43
f 45/169/44 49/170/44 47/171/44
f 46/172/45 48/173/45 50/174/45
f 49/175/46 41/176/46 44/177/46
f 49/175/46 44/177/46 50/178/46
f 45/179/47 41/180/47 49/181/47
f 46/182/48 50/183/48 44/184/48
f 51/185/49 52/186/49 53/187/49
f 54/188/50 53/189/50 52/190/50
f 51/191/51 53/192/51 55/193/51
f 54/194/52 55/195/52 53/196/52
f 51/197/53 55/198/53 56/199/53
f 54/200/54 56/201/54 55/202/54
f 51/203/55 56/204/55 52/205/55
f 54/206/56 52/207/56 56/208/56
f 57/209/57 58/210/57 59/211/57
f 60/212/58 59/213/58 58/214/58
f 57/215/59 59/216/59 61/217/59
f 60/218/60 61/219/60 59/220/60
f 57/221/61 61/222/61 62/223/61
f 60/224/62 62/225/62 61/226/62
f 57/227/63 62/228/63 58/229/63
f 60/230/64 58/231/64 62/232/64
f 63/233/65 64/234/65 65/235/65
f 66/236/66 65/237/66 64/238/66
f 63/239/67 65/240/67 67/241/67
f 66/242/68 67/243/68 65/244/68
f 63/245/69 67/246/69 68/247/69
f 66/248/70 68/249/70 67/250/70
f 63/251/71 68/252/71 64/253/71
f 66/254/72 64/255/72 68/256/72
f 69/257/73 70/258/73 71/259/73
f 69/257/73 71/259/73 72/260/73
f 73/261/74 70/262/74 69/263/74
f 74/264/75 72/265/75 71/266/75
f 70/267/76 75/268/76 76/269/76
f 70/267/76 76/269/76 71/270/76
f 73/271/77 75/272/77 70/273/77
f 74/274/78 71/275/78 76/276/78
f 75/277/79 77/278/79 78/279/79
f 75/277/79 78/279/79 76/280/79
f 73/281/80 77/282/80 75/283/80
f 74/284/81 76/285/81 78/286/81
f 77/287/82 69/288/82 72/289/82
f 77/287/82 72/289/82 78/290/82
f 73/291/83 69/292/83 77/293/83
f 74/294/84 78/295/84 72/296/84
f 79/297/85 80/298/85 81/299/85
f 82/300/86 81/301/86 80/302/86
f 79/303/87 81/304/87 83/305/87
f 82/306/88 83/307/88 81/308/88
f 79/309/89 83/310/89 84/311/89
f 82/312/90 84/313/90 83/314/90
f 79/315/91 84/316/91 80/317/91
f 82/318/92 80/319/92 84/320/92
f 85/321/93 86/322/93 87/323/93
f 88/324/94 87/325/94 86/326/94
f 85/327/95 87/328/95 89/329/95
f 88/330/96 89/331/96 87/332/96
f 85/333/97 89/334/97 90/335/97
f 88/336/98 90/337/98 89/338/98
f 85/339/99 90/340/99 86/341/99
f 88/342/100 86/343/100 90/344/100
f 91/345/101 92/346/101 93/347/101
f 94/348/102 93/349/102 92/350/102
f 91/351/103 93/352/103 95/353/103
f 94/354/104 95/355/104 93/356/104
f 91/357/105 95/358/105 96/359/105
f 94/360/106 96/361/106 95/362/106
f 91/363/107 96/364/107 92/365/107
f 94/366/108 92/367/108 96/368/108
f 97/369/109 98/370/109 99/371/109
f 97/369/109 99/371/109 100/372/109
f 101/373/110 98/374/110 97/375/110
f 102/376/111 100/377/111 99/378/111
f 98/379/112 103/380/112 104/381/112
f 98/379/112 104/381/112 99/382/112
f 101/383/113 103/384/113 98/385/113
f 102/386/114 99/387/114 104/388/114
f 103/389/115 105/390/115 106/391/115
f 103/389/115 106/391/115 104/392/115
f 101/393/116 105/394/116 103/395/116
f 102/396/117 104/397/117 106/398/117
f 105/399/118 97/400/118 100/401/118
f 105/399/118 100/401/118 106/402/118
f 101/403/119 97/404/119 105/405/119
f 102/406/120 106/407/120 100/408/120
f 107/409/121 108/410/121 109/411/121
f 110/412/122 109/413/122 108/414/122
f 107/415/123 109/416/123 111/417/123
f 110/418/124 111/419/124 109/420/124
f 107/421/125 111/422/125 112/423/125
f 110/424/126 112/425/126 111/426/126
f 107/427/127 112/428/127 108/429/127
f 110/430/128 108/431/128 112/432/128
f 113/433/129 114/434/129 115/435/129
f 116/436/130 115/437/130 114/438/130
f 113/439/131 115/440/131 117/441/131
f 116/442/132 117/443/132 115/444/132
f 113/445/133 117/446/133 118/447/133
f 116/448/134 118/449/134 117/450/134
f 113/451/135 118/452/135 114/453/135
f 116/454/136 114/455/136 118/456/136
f 119/457/137 120/458/137 121/459/137
f 122/460/138 121/461/138 120/462/138
f 119/463/139 121/464/139 123/465/139
f 122/466/140 123/467/140 121/468/140
f 119/469/141 123/470/141 124/471/141
f 122/472/142 124/473/142 123/474/142
f 119/475/143 124/476/143 120/477/143
f 122/478/144 120/479/144 124/480/144
f 125/481/145 126/482/145 127/483/145
f 125/481/145 127/483/145 128/484/145
f 129/485/146 126/486/146 125/487/146
f 130/488/147 128/489/147 127/490/147
f 126/491/148 131/492/148 132/493/148
f 126/491/148 132/493/148 127/494/148
f 129/495/149 131/496/149 126/497/149
f 130/498/150 127/499/150 132/500/150
f 131/501/151 133/502/151 134/503/151
f 131/501/151 134/503/151 132/504/151
f 129/505/152 133/506/152 131/507/152
f 130/508/153 132/509/153 134/510/153
f 133/511/154 125/512/154 128/513/154
f 133/511/154 128/513/154 134/514/154
f 129/515/155 125/516/155 133/517/155
f 130/518/156 134/519/156 128/520/156
f 135/521/157 136/522/157 137/523/157
f 138/524/158 137/525/158 136/526/158
f 135/527/159 137/528/159 139/529/159
f 138/530/160 139/531/160 137/532/160
f 135/533/161 139/534/161 140/535/161
f 138/536/162 140/537/162 139/538/162
f 135/539/163 140/540/163 136/541/163
f 138/542/164 136/543/164 140/544/164
f 141/545/165 142/546/165 143/547/165
f 144/548/166 143/549/166 142/550/166
f 141/551/167 143/552/167 145/553/167
f 144/554/168 145/555/168 143/556/168
f 141/557/169 145/558/169 146/559/169
f 144/560/170 146/561/170 145/562/170
f 141/563/171 146/564/171 142/565/171
f 144/566/172 142/567/172 146/568/172
f 147/569/173 148/570/173 149/571/173
f 150/572/174 149/573/174 148/574/174
f 147/575/175 149/576/175 151/577/175
f 150/578/176 151/579/176 149/580/176
f 147/581/177 151/582/177 152/583/177
f 150/584/178 152/585/178 151/586/178
f 147/587/179 152/588/179 148/589/179
f 150/590/180 148/591/180 152/592/180
f 153/593/181 154/594/181 155/595/181
f 153/593/181 155/595/181 156/596/181
f 157/597/182 154/598/182 153/599/182
f 158/600/183 156/601/183 155/602/183
f 154/603/184 159/604/184 160/605/184
f 154/603/184 160/605/184 155/606/184
f 157/607/185 159/608/185 154/609/185
f 158/610/186 155/611/186 160/612/186
f 159/613/187 161/614/187 162/615/187
f 159/613/187 162/615/187 160/616/187
f 157/617/188 161/618/188 159/619/188
f 158/620/189 160/621/189 162/622/189
f 161/623/190 153/624/190 156/625/190
f 161/623/190 156/625/190 162/626/190
f 157/627/191 153/628/191 161/629/191
f 158/630/192 162/631/192 156/632/192
f 163/633/193 164/634/193 165/635/193
f 166/636/194 165/637/194 164/638/194
f 163/639/195 165/640/195 167/641/195
f 166/642/196 167/643/196 165/644/196
f 163/645/197 167/646/197 168/647/197
f 166/648/198 168/649/198 167/650/198
f 163/651/199 168/652/199 164/653/199
f 166/654/200 164/655/200 168/656/200
f 169/657/201 170/658/201 171/659/201
f 172/660/202 171/661/202 170/662/202
f 169/663/203 171/664/203 173/665/203
f 172/666/204 173/667/204 171/668/204
f 169/669/205 173/670/205 174/671/205
f 172/672/206 174/673/206 173/674/206
f 169/675/207 174/676/207 170/677/207
f 172/678/208 170/679/208 174/680/208
f 175/681/209 176/682/209 177/683/209
f 178/684/210 177/685/210 176/686/210
f 175/687/211 177/688/211 179/689/211
f 178/690/212 179/691/212 177/692/212
f 175/693/213 179/694/213 180/695/213
f 178/696/214 180/697/214 179/698/214
f 175/699/215 180/700/215 176/701/215
f 178/702/216 176/703/216 180/704/216
f 181/705/217 182/706/217 183/707/217
f 181/705/217 183/707/217 184/708/217
f 185/709/218 182/710/218 181/711/218
f 186/712/219 184/713/219 183/714/219
f 182/715/220 187/716/220 188/717/220
f 182/715/220 188/717/220 183/718/220
f 185/719/221 187/720/221 182/721/221
f 186/722/222 183/723/222 188/724/222
f 187/725/223 189/726/223 190/727/223
f 187/725/223 190/727/223 188/728/223
f 185/729/224 189/730/224 187/731/224
f 186/732/225 188/733/225 190/734/225
f 189/735/226 181/736/226 184/737/226
f 189/735/226 184/737/226 190/738/226
f 185/739/227 181/740/227 189/741/227
f 186/742/228 190/743/228 184/744/228
f 191/745/229 192/746/229 193/747/229
f 194/748/230 193/749/230 192/750/230
f 191/751/231 193/752/231 195/753/231
f 194/754/232 195/755/232 193/756/232
f 191/757/233 195/758/233 196/759/233
f 194/760/234 196/761/234 195/762/234
f 191/763/235 196/764/235 192/765/235
f 194/766/236 192/767/236 196/768/236
f 197/769/237 198/770/237 199/771/237
f 200/772/238 199/773/238 198/774/238
f 197/775/239 199/776/239 201/777/239
f 200/778/240 201/779/240 199/780/240
f 197/781/241 201/782/241 202/783/241
f 200/784/242 202/785/242 201/786/242
f 197/787/243 202/788/243 198/789/243
f 200/790/244 198/791/244 202/792/244
f 203/793/245 204/794/245 205/795/245
f 206/796/246 205/797/246 204/798/246
f 203/799/247 205/800/247 207/801/247
f 206/802/248 207/803/248 205/804/248
f 203/805/249 207/806/249 208/807/249
f 206/808/250 208/809/250 207/810/250
f 203/811/251 208/812/251 204/813/251
f 206/814/252 204/815/252 208/816/252
f 209/817/253 210/818/253 211/819/253
f 209/817/253 211/819/253 212/820/253
f 213/821/254 210/822/254 209/823/254
f 214/824/255 212/825/255 211/826/255
f 210/827/256 215/828/256 216/829/256
f 210/827/256 216/829/256 211/830/256
f 213/831/257 215/832/257 210/833/257
f 214/834/258 211/835/258 216/836/258
f 215/837/259 217/838/259 218/839/259
f 215/837/259 218/839/259 216/840/259
f 213/841/260 217/842/260 215/843/260
f 214/844/261 216/845/261 218/846/261
f 217/847/262 209/848/262 212/849/262
f 217/847/262 212/849/262 218/850/262
f 213/851/263 209/852/263 217/853/263
f 214/854/264 218/855/264 212/856/264
f 219/857/265 220/858/265 221/859/265
f 222/860/266 221/861/266 220/862/266
f 219/863/267 221/864/267 223/865/267
f 222/866/268 223/867/268 221/868/268
f 219/869/269 223/870/269 224/871/269
f 222/872/270 224/873/270 223/874/270
f 219/875/271 224/876/271 220/877/271
f 222/878/272 220/879/272 224/880/272
f 225/881/273 226/882/273 227/883/273
f 228/884/274 227/885/274 226/886/274
f 225/887/275 227/888/275 229/889/275
f 228/890/276 229/891/276 227/892/276
f 225/893/277 229/894/277 230/895/277
f 228/896/278 230/897/278 229/898/278
f 225/899/279 230/900/279 226/901/279
f 228/902/280 226/903/280 230/904/280
f 231/905/281 232/906/281 233/907/281
f 234/908/282 233/909/282 232/910/282
f 231/911/283 233/912/283 235/913/283
f 234/914/284 235/915/284 233/916/284
f 231/917/285 235/918/285 236/919/285
f 234/920/286 236/921/286 235/922/286
f 231/923/287 236/924/287 232/925/287
f 234/926/288 232/927/288 236/928/288
f 237/929/289 238/930/289 239/931/289
f 237/929/289 239/931/289 240/932/289
f 241/933/290 238/934/290 237/935/290
f 242/936/291 240/937/291 239/938/291
f 238/939/292 243/940/292 244/941/292
f 238/939/292 244/941/292 239/942/292
f 241/943/293 243/944/293 238/945/293
f 242/946/294 239/947/294 244/948/294
f 243/949/295 245/950/295 246/951/295
f 243/949/295 246/951/295 244/952/295
f 241/953/296 245/954/296 243/955/296
f 242/956/297 244/957/297 246/958/297
f 245/959/298 237/960/298 240/961/298
f 245/959/298 240/961/298 246/962/298
f 241/963/299 237/964/299 245/965/299
f 242/966/300 246/967/300 240/968/300
f 247/969/301 248/970/301 249/971/301
f 250/972/302 249/973/302 248/974/302
f 247/975/303 249/976/303 251/977/303
f 250/978/304 251/979/304 249/980/304
f 247/981/305 251/982/305 252/983/305
f 250/984/306 252/985/306 251/986/306
f 247/987/307 252/988/307 248/989/307
f 250/990/308 248/991/308 252/992/308
f 253/993/309 254/994/309 255/995/309
f 256/996/310 255/997/310 254/998/310
f 253/999/311 255/1000/311 257/1001/311
f 256/1002/312 257/1003/312 255/1004/312
f 253/1005/313 257/1006/313 258/1007/313
f 256/1008/314 258/1009/314 257/1010/314
f 253/1011/315 258/1012/315 254/1013/315
f 256/1014/316 254/1015/316 258/1016/316
f 259/1017/317 260/1018/317 261/1019/317
f 262/1020/318 261/1021/318 260/1022/318
f 259/1023/319 261/1024/319 263/1025/319
f 262/1026/320 263/1027/320 261/1028/320
f 259/1029/321 263/1030/321 264/1031/321
f 262/1032/322 264/1033/322 263/1034/322
f 259/1035/323 264/1036/323 260/1037/323
f 262/1038/324 260/1039/324 264/1040/324
f 265/1041/325 266/1042/325 267/1043/325
f 265/1041/325 267/1043/325 268/1044/325
f 269/1045/326 266/1046/326 265/1047/326
f 270/1048/327 268/1049/327 267/1050/327
f 266/1051/328 271/1052/328 272/1053/328
f 266/1051/328 272/1053/328 267/1054/328
f 269/1055/329 271/1056/329 266/1057/329
f 270/1058/330 267/1059/330 272/1060/330
f 271/1061/331 273/1062/331 274/1063/331
f 271/1061/331 274/1063/331 272/1064/331
f 269/1065/332 273/1066/332 271/1067/332
f 270/1068/333 272/1069/333 274/1070/333
f 273/1071/334 265/1072/334 268/1073/334
f 273/1071/334 268/1073/334 274/1074/334
f 269/1075/335 265/1076/335 273/1077/335
f 270/1078/336 274/1079/336 268/1080/336
f 275/1081/337 276/1082/337 277/1083/337
f 278/1084/338 277/1085/338 276/1086/338
f 275/1087/339 277/1088/339 279/1089/339
f 278/1090/340 279/1091/340 277/1092/340
f 275/1093/341 279/1094/341 280/1095/341
f 278/1096/342 280/1097/342 279/1098/342
f 275/1099/343 280/1100/343 276/1101/343
f 278/1102/344 276/1103/344 280/1104/344
f 281/1105/345 282/1106/345 283/1107/345
f 284/1108/346 283/1109/346 282/1110/346
f 281/1111/347 283/1112/347 285/1113/347
f 284/1114/348 285/1115/348 283/1116/348
f 281/1117/349 285/1118/349 286/1119/349
f 284/1120/350 286/1121/350 285/1122/350
f 281/1123/351 286/1124/351 282/1125/351
f 284/1126/352 282/1127/352 286/1128/352
f 287/1129/353 288/1130/353 289/1131/353
f 290/1132/354 289/1133/354 288/1134/354
f 287/1135/355 289/1136/355 291/1137/355
f 290/1138/356 291/1139/356 289/1140/356
f 287/1141/357 291/1142/357 292/1143/357
f 290/1144/358 292/1145/358 291/1146/358
f 287/1147/359 292/1148/359 288/1149/359
f 290/1150/360 288/1151/360 292/1152/360
f 293/1153/361 294/1154/361 295/1155/361
f 293/1153/361 295/1155/361 296/1156/361
f 297/1157/362 294/1158/362 293/1159/362
f 298/1160/363 296/1161/363 295/1162/363
f 294/1163/364 299/1164/364 300/1165/364
f 294/1163/364 300/1165/364 295/1166/364
f 297/1167/365 299/1168/365 294/1169/365
f 298/1170/366 295/1171/366 300/1172/366
f 299/1173/367 301/1174/367 302/1175/367
f 299/1173/367 302/1175/367 300/1176/367
f 297/1177/368 301/1178/368 299/1179/368
f 298/1180/369 300/1181/369 302/1182/369
f 301/1183/370 293/1184/370 296/1185/370
f 301/1183/370 296/1185/370 302/1186/370
f 297/1187/371 293/1188/371 301/1189/371
f 298/1190/372 302/1191/372 296/1192/372
f 303/1193/373 304/1194/373 305/1195/373
f 306/1196/374 305/1197/374 304/1198/374
f 303/1199/375 305/1200/375 307/1201/375
f 306/1202/376 307/1203/376 305/1204/376
f 303/1205/377 307/1206/377 308/1207/377
f 306/1208/378 308/1209/378 307/1210/378
f 303/1211/379 308/1212/379 304/1213/379
f 306/1214/380 304/1215/380 308/1216/380
f 309/1217/381 310/1218/381 311/1219/381
f 312/1220/382 311/1221/382 310/1222/382
f 309/1223/383 311/1224/383 313/1225/383
f 312/1226/384 313/1227/384 311/1228/384
f 309/1229/385 313/1230/385 314/1231/385
f 312/1232/386 314/1233/386 313/1234/386
f 309/1235/387 314/1236/387 310/1237/387
f 312/1238/388 310/1239/388 314/1240/388
f 315/1241/389 316/1242/389 317/1243/389
f 318/1244/390 317/1245/390 316/1246/390
f 315/1247/391 317/1248/391 319/1249/391
f 318/1250/392 319/1251/392 317/1252/392
f 315/1253/393 319/1254/393 320/1255/393
f 318/1256/394 320/1257/394 319/1258/394
f 315/1259/395 320/1260/395 316/1261/395
f 318/1262/396 316/1263/396 320/1264/396
f 321/1265/397 322/1266/397 323/1267/397
f 321/1265/397 323/1267/397 324/1268/397
f 325/1269/398 322/1270/398 321/1271/398
f 326/1272/399 324/1273/399 323/1274/399
f 322/1275/400 327/1276/400 328/1277/400
f 322/1275/400 328/1277/400 323/1278/400
f 325/1279/401 327/1280/401 322/1281/401
f 326/1282/402 323/1283/402 328/1284/402
f 327/1285/403 329/1286/403 330/1287/403
f 327/1285/403 330/1287/403 328/1288/403
f 325/1289/404 329/1290/404 327/1291/404
f 326/1292/405 328/1293/405 330/1294/405
f 329/1295/406 321/1296/406 324/1297/406
f 329/1295/406 324/1297/406 330/1298/406
f 325/1299/407 321/1300/407 329/1301/407
f 326/1302/408 330/1303/408 324/1304/408
f 331/1305/409 332/1306/409 333/1307/409
f 334/1308/410 333/1309/410 332/1310/410
f 331/1311/411 333/1312/411 335/1313/411
f 334/1314/412 335/1315/412 333/1316/412
f 331/1317/413 335/1318/413 336/1319/413
f 334/1320/414 336/1321/414 335/1322/414
f 331/1323/415 336/1324/415 332/1325/415
f 334/1326/416 332/1327/416 336/1328/416
f 337/1329/417 338/1330/417 339/1331/417
f 340/1332/418 339/1333/418 338/1334/418
f 337/1335/419 339/1336/419 341/1337/419
f 340/1338/420 341/1339/420 339/1340/420
f 337/1341/421 341/1342/421 342/1343/421
f 340/1344/422 342/1345/422 341/1346/422
f 337/1347/423 342/1348/423 338/1349/423
f 340/1350/424 338/1351/424 342/1352/424
f 343/1353/425 344/1354/425 345/1355/425
f 346/1356/426 345/1357/426 344/1358/426
f 343/1359/427 345/1360/427 347/1361/427
f 346/1362/428 347/1363/428 345/1364/428
f 343/1365/429 347/1366/429 348/1367/429
f 346/1368/430 348/1369/430 347/1370/430
f 343/1371/431 348/1372/431 344/1373/431
f 346/1374/432 344/1375/432 348/1376/432
f 349/1377/433 350/1378/433 351/1379/433
f 349/1377/433 351/1379/433 352/1380/433
f 353/1381/434 350/1382/434 349/1383/434
f 354/1384/435 352/1385/435 351/1386/435
f 350/1387/436 355/1388/436 356/1389/436
f 350/1387/436 356/1389/436 351/1390/436
f 353/1391/437 355/1392/437 350/1393/437
f 354/1394/438 351/1395/438 356/1396/438
f 355/1397/439 357/1398/439 358/1399/439
f 355/1397/439 358/1399/439 356/1400/439
f 353/1401/440 357/1402/440 355/1403/440
f 354/1404/441 356/1405/441 358/1406/441
f 357/1407/442 349/1408/442 352/1409/442
f 357/1407/442 352/1409/442 358/1410/442
f 353/1411/443 349/1412/443 357/1413/443
f 354/1414/444 358/1415/444 352/1416/444
f 359/1417/445 360/1418/445 361/1419/445
f 362/1420/446 361/1421/446 360/1422/446
f 359/1423/447 361/1424/447 363/1425/447
f 362/1426/448 363/1427/448 361/1428/448
f 359/1429/449 363/1430/449 364/1431/449
f 362/1432/450 364/1433/450 363/1434/450
f 359/1435/451 364/1436/451 360/1437/451
f 362/1438/452 360/1439/452 364/1440/452
f 365/1441/453 366/1442/453 367/1443/453
f 368/1444/454 367/1445/454 366/1446/454
f 365/1447/455 367/1448/455 369/1449/455
f 368/1450/456 369/1451/456 367/1452/456
f 365/1453/457 369/1454/457 370/1455/457
f 368/1456/458 370/1457/458 369/1458/458
f 365/1459/459 370/1460/459 366/1461/459
f 368/1462/460 366/1463/460 370/1464/460
f 371/1465/461 372/1466/461 373/1467/461
f 374/1468/462 373/1469/462 372/1470/462
f 371/1471/463 373/1472/463 375/1473/463
f 374/1474/464 375/1475/464 373/1476/464
f 371/1477/465 375/1478/465 376/1479/465
f 374/1480/466 376/1481/466 375/1482/466
f 371/1483/467 376/1484/467 372/1485/467
f 374/1486/468 372/1487/468 376/1488/468
