mtllib TorusSettlementFarm_A08.mtl
v -8.7473755 0.1855782 2.3750000
v -6.5613927 0.1043946 2.3750000
v -6.5613927 0.1043946 -2.3750000
v -8.7473755 0.1855782 -2.3750000
v -6.5613927 0.1043946 2.3750000
v -4.3746719 0.0463998 2.3750000
v -4.3746719 0.0463998 -2.3750000
v -6.5613927 0.1043946 -2.3750000
v -4.3746719 0.0463998 2.3750000
v -2.1874590 0.0116003 2.3750000
v -2.1874590 0.0116003 -2.3750000
v -4.3746719 0.0463998 -2.3750000
v -2.1874590 0.0116003 2.3750000
v 0.0000000 0.0000000 2.3750000
v 0.0000000 0.0000000 -2.3750000
v -2.1874590 0.0116003 -2.3750000
v 0.0000000 0.0000000 2.3750000
v 2.1874590 0.0116003 2.3750000
v 2.1874590 0.0116003 -2.3750000
v 0.0000000 0.0000000 -2.3750000
v 2.1874590 0.0116003 2.3750000
v 4.3746719 0.0463998 2.3750000
v 4.3746719 0.0463998 -2.3750000
v 2.1874590 0.0116003 -2.3750000
v 4.3746719 0.0463998 2.3750000
v 6.5613927 0.1043946 2.3750000
v 6.5613927 0.1043946 -2.3750000
v 4.3746719 0.0463998 -2.3750000
v 6.5613927 0.1043946 2.3750000
v 8.7473755 0.1855782 2.3750000
v 8.7473755 0.1855782 -2.3750000
v 6.5613927 0.1043946 -2.3750000
v -8.7468454 0.1980670 -2.0250000
v -6.5609951 0.1168883 -2.0250000
v -6.5609951 0.1168883 -2.3750000
v -8.7468454 0.1980670 -2.3750000
v -6.5609951 0.1168883 -2.0250000
v -4.3744068 0.0588970 -2.0250000
v -4.3744068 0.0588970 -2.3750000
v -6.5609951 0.1168883 -2.3750000
v -4.3744068 0.0588970 -2.0250000
v -2.1873264 0.0240996 -2.0250000
v -2.1873264 0.0240996 -2.3750000
v -4.3744068 0.0588970 -2.3750000
v -2.1873264 0.0240996 -2.0250000
v 0.0000000 0.0125000 -2.0250000
v 0.0000000 0.0125000 -2.3750000
v -2.1873264 0.0240996 -2.3750000
v 0.0000000 0.0125000 -2.0250000
v 2.1873264 0.0240996 -2.0250000
v 2.1873264 0.0240996 -2.3750000
v 0.0000000 0.0125000 -2.3750000
v 2.1873264 0.0240996 -2.0250000
v 4.3744068 0.0588970 -2.0250000
v 4.3744068 0.0588970 -2.3750000
v 2.1873264 0.0240996 -2.3750000
v 4.3744068 0.0588970 -2.0250000
v 6.5609951 0.1168883 -2.0250000
v 6.5609951 0.1168883 -2.3750000
v 4.3744068 0.0588970 -2.3750000
v 6.5609951 0.1168883 -2.0250000
v 8.7468454 0.1980670 -2.0250000
v 8.7468454 0.1980670 -2.3750000
v 6.5609951 0.1168883 -2.3750000
v -8.7468454 0.1980670 2.3750000
v -6.5609951 0.1168883 2.3750000
v -6.5609951 0.1168883 2.0250000
v -8.7468454 0.1980670 2.0250000
v -6.5609951 0.1168883 2.3750000
v -4.3744068 0.0588970 2.3750000
v -4.3744068 0.0588970 2.0250000
v -6.5609951 0.1168883 2.0250000
v -4.3744068 0.0588970 2.3750000
v -2.1873264 0.0240996 2.3750000
v -2.1873264 0.0240996 2.0250000
v -4.3744068 0.0588970 2.0250000
v -2.1873264 0.0240996 2.3750000
v 0.0000000 0.0125000 2.3750000
v 0.0000000 0.0125000 2.0250000
v -2.1873264 0.0240996 2.0250000
v 0.0000000 0.0125000 2.3750000
v 2.1873264 0.0240996 2.3750000
v 2.1873264 0.0240996 2.0250000
v 0.0000000 0.0125000 2.0250000
v 2.1873264 0.0240996 2.3750000
v 4.3744068 0.0588970 2.3750000
v 4.3744068 0.0588970 2.0250000
v 2.1873264 0.0240996 2.0250000
v 4.3744068 0.0588970 2.3750000
v 6.5609951 0.1168883 2.3750000
v 6.5609951 0.1168883 2.0250000
v 4.3744068 0.0588970 2.0250000
v 6.5609951 0.1168883 2.3750000
v 8.7468454 0.1980670 2.3750000
v 8.7468454 0.1980670 2.0250000
v 6.5609951 0.1168883 2.0250000
v -0.2999817 0.0127182 2.3750000
v 0.2999817 0.0127182 2.3750000
v 0.2999817 0.0127182 -2.3750000
v -0.2999817 0.0127182 -2.3750000
v -8.3963547 0.2035040 -0.8375000
v -6.3854726 0.1313860 -0.8375000
v -6.3854726 0.1313860 -2.0250000
v -8.3963547 0.2035040 -2.0250000
v -6.3854726 0.1313860 -0.8375000
v -4.3739826 0.0788925 -0.8375000
v -4.3739826 0.0788925 -2.0250000
v -6.3854726 0.1313860 -2.0250000
v -4.3739826 0.0788925 -0.8375000
v -2.3620761 0.0460284 -0.8375000
v -2.3620761 0.0460284 -2.0250000
v -4.3739826 0.0788925 -2.0250000
v -2.3620761 0.0460284 -0.8375000
v -0.3499447 0.0327969 -0.8375000
v -0.3499447 0.0327969 -2.0250000
v -2.3620761 0.0460284 -2.0250000
v -8.3951332 0.2334791 -0.7875000
v -6.3845437 0.1613716 -0.7875000
v -6.3845437 0.1613716 -0.8375000
v -8.3951332 0.2334791 -0.8375000
v -6.3845437 0.1613716 -0.7875000
v -4.3733463 0.1088857 -0.7875000
v -4.3733463 0.1088857 -0.8375000
v -6.3845437 0.1613716 -0.8375000
v -4.3733463 0.1088857 -0.7875000
v -2.3617324 0.0760264 -0.7875000
v -2.3617324 0.0760264 -0.8375000
v -4.3733463 0.1088857 -0.8375000
v -2.3617324 0.0760264 -0.7875000
v -0.3498938 0.0627969 -0.7875000
v -0.3498938 0.0627969 -0.8375000
v -2.3617324 0.0760264 -0.8375000
v -8.3915706 0.3209065 -1.4437500
v -6.3818343 0.2488296 -1.4437500
v -6.3837696 0.1863596 -1.9750000
v -8.3941153 0.2584583 -1.9750000
v -8.3941153 0.2584583 -0.9125000
v -6.3837696 0.1863596 -0.9125000
v -6.3818343 0.2488296 -1.4437500
v -8.3915706 0.3209065 -1.4437500
v -6.3818343 0.2488296 -1.4437500
v -4.3714903 0.1963660 -1.4437500
v -4.3728160 0.1338801 -1.9750000
v -6.3837696 0.1863596 -1.9750000
v -6.3837696 0.1863596 -0.9125000
v -4.3728160 0.1338801 -0.9125000
v -4.3714903 0.1963660 -1.4437500
v -6.3818343 0.2488296 -1.4437500
v -4.3714903 0.1963660 -1.4437500
v -2.3607302 0.1635207 -1.4437500
v -2.3614461 0.1010248 -1.9750000
v -4.3728160 0.1338801 -1.9750000
v -4.3728160 0.1338801 -0.9125000
v -2.3614461 0.1010248 -0.9125000
v -2.3607302 0.1635207 -1.4437500
v -4.3714903 0.1963660 -1.4437500
v -2.3607302 0.1635207 -1.4437500
v -0.3497453 0.1502968 -1.4437500
v -0.3498513 0.0877968 -1.9750000
v -2.3614461 0.1010248 -1.9750000
v -2.3614461 0.1010248 -0.9125000
v -0.3498513 0.0877968 -0.9125000
v -0.3497453 0.1502968 -1.4437500
v -2.3607302 0.1635207 -1.4437500
v 0.3499447 0.0327969 -0.8375000
v 2.3620761 0.0460284 -0.8375000
v 2.3620761 0.0460284 -2.0250000
v 0.3499447 0.0327969 -2.0250000
v 2.3620761 0.0460284 -0.8375000
v 4.3739826 0.0788925 -0.8375000
v 4.3739826 0.0788925 -2.0250000
v 2.3620761 0.0460284 -2.0250000
v 4.3739826 0.0788925 -0.8375000
v 6.3854726 0.1313860 -0.8375000
v 6.3854726 0.1313860 -2.0250000
v 4.3739826 0.0788925 -2.0250000
v 6.3854726 0.1313860 -0.8375000
v 8.3963547 0.2035040 -0.8375000
v 8.3963547 0.2035040 -2.0250000
v 6.3854726 0.1313860 -2.0250000
v 0.3498938 0.0627969 -0.7875000
v 2.3617324 0.0760264 -0.7875000
v 2.3617324 0.0760264 -0.8375000
v 0.3498938 0.0627969 -0.8375000
v 2.3617324 0.0760264 -0.7875000
v 4.3733463 0.1088857 -0.7875000
v 4.3733463 0.1088857 -0.8375000
v 2.3617324 0.0760264 -0.8375000
v 4.3733463 0.1088857 -0.7875000
v 6.3845437 0.1613716 -0.7875000
v 6.3845437 0.1613716 -0.8375000
v 4.3733463 0.1088857 -0.8375000
v 6.3845437 0.1613716 -0.7875000
v 8.3951332 0.2334791 -0.7875000
v 8.3951332 0.2334791 -0.8375000
v 6.3845437 0.1613716 -0.8375000
v 0.3497453 0.1502968 -1.4437500
v 2.3607302 0.1635207 -1.4437500
v 2.3614461 0.1010248 -1.9750000
v 0.3498513 0.0877968 -1.9750000
v 0.3498513 0.0877968 -0.9125000
v 2.3614461 0.1010248 -0.9125000
v 2.3607302 0.1635207 -1.4437500
v 0.3497453 0.1502968 -1.4437500
v 2.3607302 0.1635207 -1.4437500
v 4.3714903 0.1963660 -1.4437500
v 4.3728160 0.1338801 -1.9750000
v 2.3614461 0.1010248 -1.9750000
v 2.3614461 0.1010248 -0.9125000
v 4.3728160 0.1338801 -0.9125000
v 4.3714903 0.1963660 -1.4437500
v 2.3607302 0.1635207 -1.4437500
v 4.3714903 0.1963660 -1.4437500
v 6.3818343 0.2488296 -1.4437500
v 6.3837696 0.1863596 -1.9750000
v 4.3728160 0.1338801 -1.9750000
v 4.3728160 0.1338801 -0.9125000
v 6.3837696 0.1863596 -0.9125000
v 6.3818343 0.2488296 -1.4437500
v 4.3714903 0.1963660 -1.4437500
v 6.3818343 0.2488296 -1.4437500
v 8.3915706 0.3209065 -1.4437500
v 8.3941153 0.2584583 -1.9750000
v 6.3837696 0.1863596 -1.9750000
v 6.3837696 0.1863596 -0.9125000
v 8.3941153 0.2584583 -0.9125000
v 8.3915706 0.3209065 -1.4437500
v 6.3818343 0.2488296 -1.4437500
v -8.3963547 0.2035040 0.5125000
v -6.3854726 0.1313860 0.5125000
v -6.3854726 0.1313860 -0.6750000
v -8.3963547 0.2035040 -0.6750000
v -6.3854726 0.1313860 0.5125000
v -4.3739826 0.0788925 0.5125000
v -4.3739826 0.0788925 -0.6750000
v -6.3854726 0.1313860 -0.6750000
v -4.3739826 0.0788925 0.5125000
v -2.3620761 0.0460284 0.5125000
v -2.3620761 0.0460284 -0.6750000
v -4.3739826 0.0788925 -0.6750000
v -2.3620761 0.0460284 0.5125000
v -0.3499447 0.0327969 0.5125000
v -0.3499447 0.0327969 -0.6750000
v -2.3620761 0.0460284 -0.6750000
v -8.3951332 0.2334791 0.5625000
v -6.3845437 0.1613716 0.5625000
v -6.3845437 0.1613716 0.5125000
v -8.3951332 0.2334791 0.5125000
v -6.3845437 0.1613716 0.5625000
v -4.3733463 0.1088857 0.5625000
v -4.3733463 0.1088857 0.5125000
v -6.3845437 0.1613716 0.5125000
v -4.3733463 0.1088857 0.5625000
v -2.3617324 0.0760264 0.5625000
v -2.3617324 0.0760264 0.5125000
v -4.3733463 0.1088857 0.5125000
v -2.3617324 0.0760264 0.5625000
v -0.3498938 0.0627969 0.5625000
v -0.3498938 0.0627969 0.5125000
v -2.3617324 0.0760264 0.5125000
v -8.3915706 0.3209065 -0.0937500
v -6.3818343 0.2488296 -0.0937500
v -6.3837696 0.1863596 -0.6250000
v -8.3941153 0.2584583 -0.6250000
v -8.3941153 0.2584583 0.4375000
v -6.3837696 0.1863596 0.4375000
v -6.3818343 0.2488296 -0.0937500
v -8.3915706 0.3209065 -0.0937500
v -6.3818343 0.2488296 -0.0937500
v -4.3714903 0.1963660 -0.0937500
v -4.3728160 0.1338801 -0.6250000
v -6.3837696 0.1863596 -0.6250000
v -6.3837696 0.1863596 0.4375000
v -4.3728160 0.1338801 0.4375000
v -4.3714903 0.1963660 -0.0937500
v -6.3818343 0.2488296 -0.0937500
v -4.3714903 0.1963660 -0.0937500
v -2.3607302 0.1635207 -0.0937500
v -2.3614461 0.1010248 -0.6250000
v -4.3728160 0.1338801 -0.6250000
v -4.3728160 0.1338801 0.4375000
v -2.3614461 0.1010248 0.4375000
v -2.3607302 0.1635207 -0.0937500
v -4.3714903 0.1963660 -0.0937500
v -2.3607302 0.1635207 -0.0937500
v -0.3497453 0.1502968 -0.0937500
v -0.3498513 0.0877968 -0.6250000
v -2.3614461 0.1010248 -0.6250000
v -2.3614461 0.1010248 0.4375000
v -0.3498513 0.0877968 0.4375000
v -0.3497453 0.1502968 -0.0937500
v -2.3607302 0.1635207 -0.0937500
v 0.3499447 0.0327969 0.5125000
v 2.3620761 0.0460284 0.5125000
v 2.3620761 0.0460284 -0.6750000
v 0.3499447 0.0327969 -0.6750000
v 2.3620761 0.0460284 0.5125000
v 4.3739826 0.0788925 0.5125000
v 4.3739826 0.0788925 -0.6750000
v 2.3620761 0.0460284 -0.6750000
v 4.3739826 0.0788925 0.5125000
v 6.3854726 0.1313860 0.5125000
v 6.3854726 0.1313860 -0.6750000
v 4.3739826 0.0788925 -0.6750000
v 6.3854726 0.1313860 0.5125000
v 8.3963547 0.2035040 0.5125000
v 8.3963547 0.2035040 -0.6750000
v 6.3854726 0.1313860 -0.6750000
v 0.3498938 0.0627969 0.5625000
v 2.3617324 0.0760264 0.5625000
v 2.3617324 0.0760264 0.5125000
v 0.3498938 0.0627969 0.5125000
v 2.3617324 0.0760264 0.5625000
v 4.3733463 0.1088857 0.5625000
v 4.3733463 0.1088857 0.5125000
v 2.3617324 0.0760264 0.5125000
v 4.3733463 0.1088857 0.5625000
v 6.3845437 0.1613716 0.5625000
v 6.3845437 0.1613716 0.5125000
v 4.3733463 0.1088857 0.5125000
v 6.3845437 0.1613716 0.5625000
v 8.3951332 0.2334791 0.5625000
v 8.3951332 0.2334791 0.5125000
v 6.3845437 0.1613716 0.5125000
v 0.3497453 0.1502968 -0.0937500
v 2.3607302 0.1635207 -0.0937500
v 2.3614461 0.1010248 -0.6250000
v 0.3498513 0.0877968 -0.6250000
v 0.3498513 0.0877968 0.4375000
v 2.3614461 0.1010248 0.4375000
v 2.3607302 0.1635207 -0.0937500
v 0.3497453 0.1502968 -0.0937500
v 2.3607302 0.1635207 -0.0937500
v 4.3714903 0.1963660 -0.0937500
v 4.3728160 0.1338801 -0.6250000
v 2.3614461 0.1010248 -0.6250000
v 2.3614461 0.1010248 0.4375000
v 4.3728160 0.1338801 0.4375000
v 4.3714903 0.1963660 -0.0937500
v 2.3607302 0.1635207 -0.0937500
v 4.3714903 0.1963660 -0.0937500
v 6.3818343 0.2488296 -0.0937500
v 6.3837696 0.1863596 -0.6250000
v 4.3728160 0.1338801 -0.6250000
v 4.3728160 0.1338801 0.4375000
v 6.3837696 0.1863596 0.4375000
v 6.3818343 0.2488296 -0.0937500
v 4.3714903 0.1963660 -0.0937500
v 6.3818343 0.2488296 -0.0937500
v 8.3915706 0.3209065 -0.0937500
v 8.3941153 0.2584583 -0.6250000
v 6.3837696 0.1863596 -0.6250000
v 6.3837696 0.1863596 0.4375000
v 8.3941153 0.2584583 0.4375000
v 8.3915706 0.3209065 -0.0937500
v 6.3818343 0.2488296 -0.0937500
v -8.3963547 0.2035040 1.8625000
v -6.3854726 0.1313860 1.8625000
v -6.3854726 0.1313860 0.6750000
v -8.3963547 0.2035040 0.6750000
v -6.3854726 0.1313860 1.8625000
v -4.3739826 0.0788925 1.8625000
v -4.3739826 0.0788925 0.6750000
v -6.3854726 0.1313860 0.6750000
v -4.3739826 0.0788925 1.8625000
v -2.3620761 0.0460284 1.8625000
v -2.3620761 0.0460284 0.6750000
v -4.3739826 0.0788925 0.6750000
v -2.3620761 0.0460284 1.8625000
v -0.3499447 0.0327969 1.8625000
v -0.3499447 0.0327969 0.6750000
v -2.3620761 0.0460284 0.6750000
v -8.3951332 0.2334791 1.9125000
v -6.3845437 0.1613716 1.9125000
v -6.3845437 0.1613716 1.8625000
v -8.3951332 0.2334791 1.8625000
v -6.3845437 0.1613716 1.9125000
v -4.3733463 0.1088857 1.9125000
v -4.3733463 0.1088857 1.8625000
v -6.3845437 0.1613716 1.8625000
v -4.3733463 0.1088857 1.9125000
v -2.3617324 0.0760264 1.9125000
v -2.3617324 0.0760264 1.8625000
v -4.3733463 0.1088857 1.8625000
v -2.3617324 0.0760264 1.9125000
v -0.3498938 0.0627969 1.9125000
v -0.3498938 0.0627969 1.8625000
v -2.3617324 0.0760264 1.8625000
v -8.3915706 0.3209065 1.2562500
v -6.3818343 0.2488296 1.2562500
v -6.3837696 0.1863596 0.7250000
v -8.3941153 0.2584583 0.7250000
v -8.3941153 0.2584583 1.7875000
v -6.3837696 0.1863596 1.7875000
v -6.3818343 0.2488296 1.2562500
v -8.3915706 0.3209065 1.2562500
v -6.3818343 0.2488296 1.2562500
v -4.3714903 0.1963660 1.2562500
v -4.3728160 0.1338801 0.7250000
v -6.3837696 0.1863596 0.7250000
v -6.3837696 0.1863596 1.7875000
v -4.3728160 0.1338801 1.7875000
v -4.3714903 0.1963660 1.2562500
v -6.3818343 0.2488296 1.2562500
v -4.3714903 0.1963660 1.2562500
v -2.3607302 0.1635207 1.2562500
v -2.3614461 0.1010248 0.7250000
v -4.3728160 0.1338801 0.7250000
v -4.3728160 0.1338801 1.7875000
v -2.3614461 0.1010248 1.7875000
v -2.3607302 0.1635207 1.2562500
v -4.3714903 0.1963660 1.2562500
v -2.3607302 0.1635207 1.2562500
v -0.3497453 0.1502968 1.2562500
v -0.3498513 0.0877968 0.7250000
v -2.3614461 0.1010248 0.7250000
v -2.3614461 0.1010248 1.7875000
v -0.3498513 0.0877968 1.7875000
v -0.3497453 0.1502968 1.2562500
v -2.3607302 0.1635207 1.2562500
v 0.3499447 0.0327969 1.8625000
v 2.3620761 0.0460284 1.8625000
v 2.3620761 0.0460284 0.6750000
v 0.3499447 0.0327969 0.6750000
v 2.3620761 0.0460284 1.8625000
v 4.3739826 0.0788925 1.8625000
v 4.3739826 0.0788925 0.6750000
v 2.3620761 0.0460284 0.6750000
v 4.3739826 0.0788925 1.8625000
v 6.3854726 0.1313860 1.8625000
v 6.3854726 0.1313860 0.6750000
v 4.3739826 0.0788925 0.6750000
v 6.3854726 0.1313860 1.8625000
v 8.3963547 0.2035040 1.8625000
v 8.3963547 0.2035040 0.6750000
v 6.3854726 0.1313860 0.6750000
v 0.3498938 0.0627969 1.9125000
v 2.3617324 0.0760264 1.9125000
v 2.3617324 0.0760264 1.8625000
v 0.3498938 0.0627969 1.8625000
v 2.3617324 0.0760264 1.9125000
v 4.3733463 0.1088857 1.9125000
v 4.3733463 0.1088857 1.8625000
v 2.3617324 0.0760264 1.8625000
v 4.3733463 0.1088857 1.9125000
v 6.3845437 0.1613716 1.9125000
v 6.3845437 0.1613716 1.8625000
v 4.3733463 0.1088857 1.8625000
v 6.3845437 0.1613716 1.9125000
v 8.3951332 0.2334791 1.9125000
v 8.3951332 0.2334791 1.8625000
v 6.3845437 0.1613716 1.8625000
v 0.3497453 0.1502968 1.2562500
v 2.3607302 0.1635207 1.2562500
v 2.3614461 0.1010248 0.7250000
v 0.3498513 0.0877968 0.7250000
v 0.3498513 0.0877968 1.7875000
v 2.3614461 0.1010248 1.7875000
v 2.3607302 0.1635207 1.2562500
v 0.3497453 0.1502968 1.2562500
v 2.3607302 0.1635207 1.2562500
v 4.3714903 0.1963660 1.2562500
v 4.3728160 0.1338801 0.7250000
v 2.3614461 0.1010248 0.7250000
v 2.3614461 0.1010248 1.7875000
v 4.3728160 0.1338801 1.7875000
v 4.3714903 0.1963660 1.2562500
v 2.3607302 0.1635207 1.2562500
v 4.3714903 0.1963660 1.2562500
v 6.3818343 0.2488296 1.2562500
v 6.3837696 0.1863596 0.7250000
v 4.3728160 0.1338801 0.7250000
v 4.3728160 0.1338801 1.7875000
v 6.3837696 0.1863596 1.7875000
v 6.3818343 0.2488296 1.2562500
v 4.3714903 0.1963660 1.2562500
v 6.3818343 0.2488296 1.2562500
v 8.3915706 0.3209065 1.2562500
v 8.3941153 0.2584583 0.7250000
v 6.3837696 0.1863596 0.7250000
v 6.3837696 0.1863596 1.7875000
v 8.3941153 0.2584583 1.7875000
v 8.3915706 0.3209065 1.2562500
v 6.3818343 0.2488296 1.2562500
vt 0.005000 0.995000
vt 0.245000 0.995000
vt 0.245000 0.755000
vt 0.255000 0.995000
vt 0.495000 0.995000
vt 0.495000 0.755000
vt 0.505000 0.995000
vt 0.745000 0.995000
vt 0.745000 0.755000
vt 0.755000 0.995000
vt 0.995000 0.995000
vt 0.995000 0.755000
vt 0.005000 0.745000
vt 0.245000 0.745000
vt 0.245000 0.505000
vt 0.255000 0.745000
vt 0.495000 0.745000
vt 0.495000 0.505000
vt 0.505000 0.745000
vt 0.745000 0.745000
vt 0.745000 0.505000
vt 0.755000 0.745000
vt 0.995000 0.745000
vt 0.995000 0.505000
vt 0.005000 0.495000
vt 0.245000 0.495000
vt 0.245000 0.255000
vt 0.255000 0.495000
vt 0.495000 0.495000
vt 0.495000 0.255000
vt 0.505000 0.495000
vt 0.745000 0.495000
vt 0.745000 0.255000
vt 0.755000 0.495000
vt 0.995000 0.495000
vt 0.995000 0.255000
vt 0.005000 0.245000
vt 0.245000 0.245000
vt 0.245000 0.005000
vt 0.255000 0.245000
vt 0.495000 0.245000
vt 0.495000 0.005000
vt 0.505000 0.245000
vt 0.745000 0.245000
vt 0.745000 0.005000
vt 0.755000 0.245000
vt 0.995000 0.245000
vt 0.995000 0.005000
g ornament
usemtl farm-kit
f 133/22 134/23 135/24
f 133/22 135/23 136/24
f 137/22 138/23 139/24
f 137/22 139/23 140/24
f 141/22 142/23 143/24
f 141/22 143/23 144/24
f 145/22 146/23 147/24
f 145/22 147/23 148/24
f 149/22 150/23 151/24
f 149/22 151/23 152/24
f 153/22 154/23 155/24
f 153/22 155/23 156/24
f 157/22 158/23 159/24
f 157/22 159/23 160/24
f 161/22 162/23 163/24
f 161/22 163/23 164/24
f 197/22 198/23 199/24
f 197/22 199/23 200/24
f 201/22 202/23 203/24
f 201/22 203/23 204/24
f 205/22 206/23 207/24
f 205/22 207/23 208/24
f 209/22 210/23 211/24
f 209/22 211/23 212/24
f 213/22 214/23 215/24
f 213/22 215/23 216/24
f 217/22 218/23 219/24
f 217/22 219/23 220/24
f 221/22 222/23 223/24
f 221/22 223/23 224/24
f 225/22 226/23 227/24
f 225/22 227/23 228/24
f 261/22 262/23 263/24
f 261/22 263/23 264/24
f 265/22 266/23 267/24
f 265/22 267/23 268/24
f 269/22 270/23 271/24
f 269/22 271/23 272/24
f 273/22 274/23 275/24
f 273/22 275/23 276/24
f 277/22 278/23 279/24
f 277/22 279/23 280/24
f 281/22 282/23 283/24
f 281/22 283/23 284/24
f 285/22 286/23 287/24
f 285/22 287/23 288/24
f 289/22 290/23 291/24
f 289/22 291/23 292/24
f 325/22 326/23 327/24
f 325/22 327/23 328/24
f 329/22 330/23 331/24
f 329/22 331/23 332/24
f 333/22 334/23 335/24
f 333/22 335/23 336/24
f 337/22 338/23 339/24
f 337/22 339/23 340/24
f 341/22 342/23 343/24
f 341/22 343/23 344/24
f 345/22 346/23 347/24
f 345/22 347/23 348/24
f 349/22 350/23 351/24
f 349/22 351/23 352/24
f 353/22 354/23 355/24
f 353/22 355/23 356/24
f 389/22 390/23 391/24
f 389/22 391/23 392/24
f 393/22 394/23 395/24
f 393/22 395/23 396/24
f 397/22 398/23 399/24
f 397/22 399/23 400/24
f 401/22 402/23 403/24
f 401/22 403/23 404/24
f 405/22 406/23 407/24
f 405/22 407/23 408/24
f 409/22 410/23 411/24
f 409/22 411/23 412/24
f 413/22 414/23 415/24
f 413/22 415/23 416/24
f 417/22 418/23 419/24
f 417/22 419/23 420/24
f 453/22 454/23 455/24
f 453/22 455/23 456/24
f 457/22 458/23 459/24
f 457/22 459/23 460/24
f 461/22 462/23 463/24
f 461/22 463/23 464/24
f 465/22 466/23 467/24
f 465/22 467/23 468/24
f 469/22 470/23 471/24
f 469/22 471/23 472/24
f 473/22 474/23 475/24
f 473/22 475/23 476/24
f 477/22 478/23 479/24
f 477/22 479/23 480/24
f 481/22 482/23 483/24
f 481/22 483/23 484/24
g solid
usemtl farm-kit
f 117/28 118/29 119/30
f 117/28 119/29 120/30
f 121/28 122/29 123/30
f 121/28 123/29 124/30
f 125/28 126/29 127/30
f 125/28 127/29 128/30
f 129/28 130/29 131/30
f 129/28 131/29 132/30
f 181/28 182/29 183/30
f 181/28 183/29 184/30
f 185/28 186/29 187/30
f 185/28 187/29 188/30
f 189/28 190/29 191/30
f 189/28 191/29 192/30
f 193/28 194/29 195/30
f 193/28 195/29 196/30
f 245/28 246/29 247/30
f 245/28 247/29 248/30
f 249/28 250/29 251/30
f 249/28 251/29 252/30
f 253/28 254/29 255/30
f 253/28 255/29 256/30
f 257/28 258/29 259/30
f 257/28 259/29 260/30
f 309/28 310/29 311/30
f 309/28 311/29 312/30
f 313/28 314/29 315/30
f 313/28 315/29 316/30
f 317/28 318/29 319/30
f 317/28 319/29 320/30
f 321/28 322/29 323/30
f 321/28 323/29 324/30
f 373/28 374/29 375/30
f 373/28 375/29 376/30
f 377/28 378/29 379/30
f 377/28 379/29 380/30
f 381/28 382/29 383/30
f 381/28 383/29 384/30
f 385/28 386/29 387/30
f 385/28 387/29 388/30
f 437/28 438/29 439/30
f 437/28 439/29 440/30
f 441/28 442/29 443/30
f 441/28 443/29 444/30
f 445/28 446/29 447/30
f 445/28 447/29 448/30
f 449/28 450/29 451/30
f 449/28 451/29 452/30
g support
usemtl farm-kit
f 1/1 2/2 3/3
f 1/1 3/2 4/3
f 5/1 6/2 7/3
f 5/1 7/2 8/3
f 9/1 10/2 11/3
f 9/1 11/2 12/3
f 13/1 14/2 15/3
f 13/1 15/2 16/3
f 17/1 18/2 19/3
f 17/1 19/2 20/3
f 21/1 22/2 23/3
f 21/1 23/2 24/3
f 25/1 26/2 27/3
f 25/1 27/2 28/3
f 29/1 30/2 31/3
f 29/1 31/2 32/3
f 33/4 34/5 35/6
f 33/4 35/5 36/6
f 37/4 38/5 39/6
f 37/4 39/5 40/6
f 41/4 42/5 43/6
f 41/4 43/5 44/6
f 45/4 46/5 47/6
f 45/4 47/5 48/6
f 49/4 50/5 51/6
f 49/4 51/5 52/6
f 53/4 54/5 55/6
f 53/4 55/5 56/6
f 57/4 58/5 59/6
f 57/4 59/5 60/6
f 61/4 62/5 63/6
f 61/4 63/5 64/6
f 65/4 66/5 67/6
f 65/4 67/5 68/6
f 69/4 70/5 71/6
f 69/4 71/5 72/6
f 73/4 74/5 75/6
f 73/4 75/5 76/6
f 77/4 78/5 79/6
f 77/4 79/5 80/6
f 81/4 82/5 83/6
f 81/4 83/5 84/6
f 85/4 86/5 87/6
f 85/4 87/5 88/6
f 89/4 90/5 91/6
f 89/4 91/5 92/6
f 93/4 94/5 95/6
f 93/4 95/5 96/6
f 97/4 98/5 99/6
f 97/4 99/5 100/6
g water
usemtl farm-water
f 101/25 102/26 103/27
f 101/25 103/26 104/27
f 105/25 106/26 107/27
f 105/25 107/26 108/27
f 109/25 110/26 111/27
f 109/25 111/26 112/27
f 113/25 114/26 115/27
f 113/25 115/26 116/27
f 165/25 166/26 167/27
f 165/25 167/26 168/27
f 169/25 170/26 171/27
f 169/25 171/26 172/27
f 173/25 174/26 175/27
f 173/25 175/26 176/27
f 177/25 178/26 179/27
f 177/25 179/26 180/27
f 229/25 230/26 231/27
f 229/25 231/26 232/27
f 233/25 234/26 235/27
f 233/25 235/26 236/27
f 237/25 238/26 239/27
f 237/25 239/26 240/27
f 241/25 242/26 243/27
f 241/25 243/26 244/27
f 293/25 294/26 295/27
f 293/25 295/26 296/27
f 297/25 298/26 299/27
f 297/25 299/26 300/27
f 301/25 302/26 303/27
f 301/25 303/26 304/27
f 305/25 306/26 307/27
f 305/25 307/26 308/27
f 357/25 358/26 359/27
f 357/25 359/26 360/27
f 361/25 362/26 363/27
f 361/25 363/26 364/27
f 365/25 366/26 367/27
f 365/25 367/26 368/27
f 369/25 370/26 371/27
f 369/25 371/26 372/27
f 421/25 422/26 423/27
f 421/25 423/26 424/27
f 425/25 426/26 427/27
f 425/25 427/26 428/27
f 429/25 430/26 431/27
f 429/25 431/26 432/27
f 433/25 434/26 435/27
f 433/25 435/26 436/27
