mtllib TorusSign_A.mtl
o TorusSign_A
usemtl TorusStreetKit
s off
v -0.047500 0.000000 -0.037500
v 0.047500 0.000000 -0.037500
v 0.047500 0.017500 -0.037500
v -0.047500 0.017500 -0.037500
v -0.047500 0.000000 0.037500
v 0.047500 0.000000 0.037500
v 0.047500 0.017500 0.037500
v -0.047500 0.017500 0.037500
v -0.011875 0.008750 -0.011875
v 0.011875 0.008750 -0.011875
v 0.011875 0.406250 -0.011875
v -0.011875 0.406250 -0.011875
v -0.011875 0.008750 0.011875
v 0.011875 0.008750 0.011875
v 0.011875 0.406250 0.011875
v -0.011875 0.406250 0.011875
v -0.100000 0.288750 -0.012500
v 0.100000 0.288750 -0.012500
v 0.100000 0.541250 -0.012500
v -0.100000 0.541250 -0.012500
v -0.100000 0.288750 0.012500
v 0.100000 0.288750 0.012500
v 0.100000 0.541250 0.012500
v -0.100000 0.541250 0.012500
v -0.091250 0.298750 0.010875
v 0.091250 0.298750 0.010875
v 0.091250 0.531250 0.010875
v -0.091250 0.531250 0.010875
v -0.091250 0.298750 0.017125
v 0.091250 0.298750 0.017125
v 0.091250 0.531250 0.017125
v -0.091250 0.531250 0.017125
v -0.100000 0.539375 -0.015000
v 0.100000 0.539375 -0.015000
v 0.100000 0.553125 -0.015000
v -0.100000 0.553125 -0.015000
v -0.100000 0.539375 0.015000
v 0.100000 0.539375 0.015000
v 0.100000 0.553125 0.015000
v -0.100000 0.553125 0.015000
vt 0.265625 0.765625
vt 0.484375 0.765625
vt 0.484375 0.984375
vt 0.265625 0.984375
vt 0.265625 0.765625
vt 0.484375 0.765625
vt 0.484375 0.984375
vt 0.265625 0.984375
vt 0.265625 0.765625
vt 0.484375 0.765625
vt 0.484375 0.984375
vt 0.265625 0.984375
vt 0.265625 0.765625
vt 0.484375 0.765625
vt 0.484375 0.984375
vt 0.265625 0.984375
vt 0.265625 0.765625
vt 0.484375 0.765625
vt 0.484375 0.984375
vt 0.265625 0.984375
vt 0.265625 0.765625
vt 0.484375 0.765625
vt 0.484375 0.984375
vt 0.265625 0.984375
vt 0.265625 0.765625
vt 0.484375 0.765625
vt 0.484375 0.984375
vt 0.265625 0.984375
vt 0.265625 0.765625
vt 0.484375 0.765625
vt 0.484375 0.984375
vt 0.265625 0.984375
vt 0.265625 0.765625
vt 0.484375 0.765625
vt 0.484375 0.984375
vt 0.265625 0.984375
vt 0.265625 0.765625
vt 0.484375 0.765625
vt 0.484375 0.984375
vt 0.265625 0.984375
vt 0.265625 0.765625
vt 0.484375 0.765625
vt 0.484375 0.984375
vt 0.265625 0.984375
vt 0.265625 0.765625
vt 0.484375 0.765625
vt 0.484375 0.984375
vt 0.265625 0.984375
vt 0.265625 0.765625
vt 0.484375 0.765625
vt 0.484375 0.984375
vt 0.265625 0.984375
vt 0.265625 0.765625
vt 0.484375 0.765625
vt 0.484375 0.984375
vt 0.265625 0.984375
vt 0.265625 0.765625
vt 0.484375 0.765625
vt 0.484375 0.984375
vt 0.265625 0.984375
vt 0.265625 0.765625
vt 0.484375 0.765625
vt 0.484375 0.984375
vt 0.265625 0.984375
vt 0.265625 0.765625
vt 0.484375 0.765625
vt 0.484375 0.984375
vt 0.265625 0.984375
vt 0.265625 0.765625
vt 0.484375 0.765625
vt 0.484375 0.984375
vt 0.265625 0.984375
vt 0.015625 0.015625
vt 0.484375 0.015625
vt 0.484375 0.484375
vt 0.015625 0.484375
vt 0.015625 0.765625
vt 0.234375 0.765625
vt 0.234375 0.984375
vt 0.015625 0.984375
vt 0.015625 0.765625
vt 0.234375 0.765625
vt 0.234375 0.984375
vt 0.015625 0.984375
vt 0.015625 0.765625
vt 0.234375 0.765625
vt 0.234375 0.984375
vt 0.015625 0.984375
vt 0.015625 0.765625
vt 0.234375 0.765625
vt 0.234375 0.984375
vt 0.015625 0.984375
vt 0.515625 0.765625
vt 0.734375 0.765625
vt 0.734375 0.984375
vt 0.515625 0.984375
vt 0.515625 0.765625
vt 0.734375 0.765625
vt 0.734375 0.984375
vt 0.515625 0.984375
vt 0.515625 0.765625
vt 0.734375 0.765625
vt 0.734375 0.984375
vt 0.515625 0.984375
vt 0.515625 0.765625
vt 0.734375 0.765625
vt 0.734375 0.984375
vt 0.515625 0.984375
vt 0.515625 0.765625
vt 0.734375 0.765625
vt 0.734375 0.984375
vt 0.515625 0.984375
vt 0.515625 0.765625
vt 0.734375 0.765625
vt 0.734375 0.984375
vt 0.515625 0.984375
vn 0.00000000 0.00000000 -1.00000000
vn 0.00000000 0.00000000 1.00000000
vn -1.00000000 0.00000000 0.00000000
vn 1.00000000 0.00000000 0.00000000
vn 0.00000000 -1.00000000 0.00000000
vn 0.00000000 1.00000000 0.00000000
vn 0.00000000 0.00000000 -1.00000000
vn 0.00000000 0.00000000 1.00000000
vn -1.00000000 0.00000000 0.00000000
vn 1.00000000 0.00000000 0.00000000
vn 0.00000000 -1.00000000 0.00000000
vn 0.00000000 1.00000000 0.00000000
vn 0.00000000 0.00000000 -1.00000000
vn 0.00000000 0.00000000 1.00000000
vn -1.00000000 0.00000000 0.00000000
vn 1.00000000 0.00000000 0.00000000
vn 0.00000000 -1.00000000 0.00000000
vn 0.00000000 1.00000000 0.00000000
vn 0.00000000 0.00000000 1.00000000
vn -1.00000000 0.00000000 0.00000000
vn 1.00000000 0.00000000 0.00000000
vn 0.00000000 -1.00000000 0.00000000
vn 0.00000000 1.00000000 0.00000000
vn 0.00000000 0.00000000 -1.00000000
vn 0.00000000 0.00000000 1.00000000
vn -1.00000000 0.00000000 0.00000000
vn 1.00000000 0.00000000 0.00000000
vn 0.00000000 -1.00000000 0.00000000
vn 0.00000000 1.00000000 0.00000000
f 1/1/1 4/2/1 3/3/1
f 1/1/1 3/3/1 2/4/1
f 5/5/2 6/6/2 7/7/2
f 5/5/2 7/7/2 8/8/2
f 1/9/3 5/10/3 8/11/3
f 1/9/3 8/11/3 4/12/3
f 2/13/4 3/14/4 7/15/4
f 2/13/4 7/15/4 6/16/4
f 1/17/5 2/18/5 6/19/5
f 1/17/5 6/19/5 5/20/5
f 4/21/6 8/22/6 7/23/6
f 4/21/6 7/23/6 3/24/6
f 9/25/7 12/26/7 11/27/7
f 9/25/7 11/27/7 10/28/7
f 13/29/8 14/30/8 15/31/8
f 13/29/8 15/31/8 16/32/8
f 9/33/9 13/34/9 16/35/9
f 9/33/9 16/35/9 12/36/9
f 10/37/10 11/38/10 15/39/10
f 10/37/10 15/39/10 14/40/10
f 9/41/11 10/42/11 14/43/11
f 9/41/11 14/43/11 13/44/11
f 12/45/12 16/46/12 15/47/12
f 12/45/12 15/47/12 11/48/12
f 17/49/13 20/50/13 19/51/13
f 17/49/13 19/51/13 18/52/13
f 21/53/14 22/54/14 23/55/14
f 21/53/14 23/55/14 24/56/14
f 17/57/15 21/58/15 24/59/15
f 17/57/15 24/59/15 20/60/15
f 18/61/16 19/62/16 23/63/16
f 18/61/16 23/63/16 22/64/16
f 17/65/17 18/66/17 22/67/17
f 17/65/17 22/67/17 21/68/17
f 20/69/18 24/70/18 23/71/18
f 20/69/18 23/71/18 19/72/18
f 29/73/19 30/74/19 31/75/19
f 29/73/19 31/75/19 32/76/19
f 25/77/20 29/78/20 32/79/20
f 25/77/20 32/79/20 28/80/20
f 26/81/21 27/82/21 31/83/21
f 26/81/21 31/83/21 30/84/21
f 25/85/22 26/86/22 30/87/22
f 25/85/22 30/87/22 29/88/22
f 28/89/23 32/90/23 31/91/23
f 28/89/23 31/91/23 27/92/23
f 33/93/24 36/94/24 35/95/24
f 33/93/24 35/95/24 34/96/24
f 37/97/25 38/98/25 39/99/25
f 37/97/25 39/99/25 40/100/25
f 33/101/26 37/102/26 40/103/26
f 33/101/26 40/103/26 36/104/26
f 34/105/27 35/106/27 39/107/27
f 34/105/27 39/107/27 38/108/27
f 33/109/28 34/110/28 38/111/28
f 33/109/28 38/111/28 37/112/28
f 36/113/29 40/114/29 39/115/29
f 36/113/29 39/115/29 35/116/29
