mtllib TorusAgri_LegumeA.mtl
o TorusAgri_LegumeA
usemtl TorusAgricultureKit
s off
v -0.450000 0.000000 -0.325000
v 0.450000 0.000000 -0.325000
v 0.450000 0.017500 -0.325000
v -0.450000 0.017500 -0.325000
v -0.450000 0.000000 0.325000
v 0.450000 0.000000 0.325000
v 0.450000 0.017500 0.325000
v -0.450000 0.017500 0.325000
v -0.412500 0.017500 -0.287500
v 0.412500 0.017500 -0.287500
v 0.412500 0.037500 -0.287500
v -0.412500 0.037500 -0.287500
v -0.412500 0.017500 0.287500
v 0.412500 0.017500 0.287500
v 0.412500 0.037500 0.287500
v -0.412500 0.037500 0.287500
v -0.427500 0.017500 -0.302500
v 0.427500 0.017500 -0.302500
v 0.427500 0.052500 -0.302500
v -0.427500 0.052500 -0.302500
v -0.427500 0.017500 -0.272500
v 0.427500 0.017500 -0.272500
v 0.427500 0.052500 -0.272500
v -0.427500 0.052500 -0.272500
v -0.427500 0.017500 0.272500
v 0.427500 0.017500 0.272500
v 0.427500 0.052500 0.272500
v -0.427500 0.052500 0.272500
v -0.427500 0.017500 0.302500
v 0.427500 0.017500 0.302500
v 0.427500 0.052500 0.302500
v -0.427500 0.052500 0.302500
v -0.397500 0.017500 -0.272500
v -0.397500 0.052500 -0.272500
v -0.397500 0.017500 0.272500
v -0.397500 0.052500 0.272500
v 0.397500 0.017500 -0.272500
v 0.397500 0.052500 -0.272500
v 0.397500 0.017500 0.272500
v 0.397500 0.052500 0.272500
v -0.253750 0.037500 -0.180000
v -0.262500 0.037500 -0.188750
v -0.262500 0.200000 -0.188750
v -0.253750 0.200000 -0.180000
v -0.262500 0.037500 -0.180000
v -0.262500 0.200000 -0.180000
v -0.271250 0.037500 -0.180000
v -0.271250 0.200000 -0.180000
v -0.262500 0.037500 -0.171250
v -0.262500 0.200000 -0.171250
v -0.307500 0.153750 -0.180000
v -0.370000 0.132500 -0.180000
v -0.307500 0.132500 -0.142500
v -0.307500 0.111250 -0.180000
v -0.245000 0.132500 -0.180000
v -0.307500 0.132500 -0.217500
v -0.217500 0.196250 -0.162500
v -0.280000 0.175000 -0.162500
v -0.217500 0.175000 -0.125000
v -0.217500 0.153750 -0.162500
v -0.155000 0.175000 -0.162500
v -0.217500 0.175000 -0.200000
v -0.292500 0.155000 -0.147500
v -0.307500 0.112500 -0.147500
v -0.292500 0.112500 -0.131250
v -0.292500 0.070000 -0.147500
v -0.277500 0.112500 -0.147500
v -0.292500 0.112500 -0.163750
v -0.232500 0.155000 -0.147500
v -0.247500 0.112500 -0.147500
v -0.232500 0.112500 -0.131250
v -0.232500 0.070000 -0.147500
v -0.217500 0.112500 -0.147500
v -0.232500 0.112500 -0.163750
v -0.253750 0.037500 0.000000
v -0.262500 0.037500 -0.008750
v -0.262500 0.200000 -0.008750
v -0.253750 0.200000 0.000000
v -0.262500 0.037500 0.000000
v -0.262500 0.200000 0.000000
v -0.271250 0.037500 -0.000000
v -0.271250 0.200000 -0.000000
v -0.262500 0.037500 0.008750
v -0.262500 0.200000 0.008750
v -0.307500 0.153750 0.000000
v -0.370000 0.132500 0.000000
v -0.307500 0.132500 0.037500
v -0.307500 0.111250 0.000000
v -0.245000 0.132500 0.000000
v -0.307500 0.132500 -0.037500
v -0.217500 0.196250 0.017500
v -0.280000 0.175000 0.017500
v -0.217500 0.175000 0.055000
v -0.217500 0.153750 0.017500
v -0.155000 0.175000 0.017500
v -0.217500 0.175000 -0.020000
v -0.292500 0.155000 0.032500
v -0.307500 0.112500 0.032500
v -0.292500 0.112500 0.048750
v -0.292500 0.070000 0.032500
v -0.277500 0.112500 0.032500
v -0.292500 0.112500 0.016250
v -0.232500 0.155000 0.032500
v -0.247500 0.112500 0.032500
v -0.232500 0.112500 0.048750
v -0.232500 0.070000 0.032500
v -0.217500 0.112500 0.032500
v -0.232500 0.112500 0.016250
v -0.253750 0.037500 0.180000
v -0.262500 0.037500 0.171250
v -0.262500 0.200000 0.171250
v -0.253750 0.200000 0.180000
v -0.262500 0.037500 0.180000
v -0.262500 0.200000 0.180000
v -0.271250 0.037500 0.180000
v -0.271250 0.200000 0.180000
v -0.262500 0.037500 0.188750
v -0.262500 0.200000 0.188750
v -0.307500 0.153750 0.180000
v -0.370000 0.132500 0.180000
v -0.307500 0.132500 0.217500
v -0.307500 0.111250 0.180000
v -0.245000 0.132500 0.180000
v -0.307500 0.132500 0.142500
v -0.217500 0.196250 0.197500
v -0.280000 0.175000 0.197500
v -0.217500 0.175000 0.235000
v -0.217500 0.153750 0.197500
v -0.155000 0.175000 0.197500
v -0.217500 0.175000 0.160000
v -0.292500 0.155000 0.212500
v -0.307500 0.112500 0.212500
v -0.292500 0.112500 0.228750
v -0.292500 0.070000 0.212500
v -0.277500 0.112500 0.212500
v -0.292500 0.112500 0.196250
v -0.232500 0.155000 0.212500
v -0.247500 0.112500 0.212500
v -0.232500 0.112500 0.228750
v -0.232500 0.070000 0.212500
v -0.217500 0.112500 0.212500
v -0.232500 0.112500 0.196250
v -0.078750 0.037500 -0.180000
v -0.087500 0.037500 -0.188750
v -0.087500 0.200000 -0.188750
v -0.078750 0.200000 -0.180000
v -0.087500 0.037500 -0.180000
v -0.087500 0.200000 -0.180000
v -0.096250 0.037500 -0.180000
v -0.096250 0.200000 -0.180000
v -0.087500 0.037500 -0.171250
v -0.087500 0.200000 -0.171250
v -0.132500 0.153750 -0.180000
v -0.195000 0.132500 -0.180000
v -0.132500 0.132500 -0.142500
v -0.132500 0.111250 -0.180000
v -0.070000 0.132500 -0.180000
v -0.132500 0.132500 -0.217500
v -0.042500 0.196250 -0.162500
v -0.105000 0.175000 -0.162500
v -0.042500 0.175000 -0.125000
v -0.042500 0.153750 -0.162500
v 0.020000 0.175000 -0.162500
v -0.042500 0.175000 -0.200000
v -0.117500 0.155000 -0.147500
v -0.132500 0.112500 -0.147500
v -0.117500 0.112500 -0.131250
v -0.117500 0.070000 -0.147500
v -0.102500 0.112500 -0.147500
v -0.117500 0.112500 -0.163750
v -0.057500 0.155000 -0.147500
v -0.072500 0.112500 -0.147500
v -0.057500 0.112500 -0.131250
v -0.057500 0.070000 -0.147500
v -0.042500 0.112500 -0.147500
v -0.057500 0.112500 -0.163750
v -0.078750 0.037500 0.000000
v -0.087500 0.037500 -0.008750
v -0.087500 0.200000 -0.008750
v -0.078750 0.200000 0.000000
v -0.087500 0.037500 0.000000
v -0.087500 0.200000 0.000000
v -0.096250 0.037500 -0.000000
v -0.096250 0.200000 -0.000000
v -0.087500 0.037500 0.008750
v -0.087500 0.200000 0.008750
v -0.132500 0.153750 0.000000
v -0.195000 0.132500 0.000000
v -0.132500 0.132500 0.037500
v -0.132500 0.111250 0.000000
v -0.070000 0.132500 0.000000
v -0.132500 0.132500 -0.037500
v -0.042500 0.196250 0.017500
v -0.105000 0.175000 0.017500
v -0.042500 0.175000 0.055000
v -0.042500 0.153750 0.017500
v 0.020000 0.175000 0.017500
v -0.042500 0.175000 -0.020000
v -0.117500 0.155000 0.032500
v -0.132500 0.112500 0.032500
v -0.117500 0.112500 0.048750
v -0.117500 0.070000 0.032500
v -0.102500 0.112500 0.032500
v -0.117500 0.112500 0.016250
v -0.057500 0.155000 0.032500
v -0.072500 0.112500 0.032500
v -0.057500 0.112500 0.048750
v -0.057500 0.070000 0.032500
v -0.042500 0.112500 0.032500
v -0.057500 0.112500 0.016250
v -0.078750 0.037500 0.180000
v -0.087500 0.037500 0.171250
v -0.087500 0.200000 0.171250
v -0.078750 0.200000 0.180000
v -0.087500 0.037500 0.180000
v -0.087500 0.200000 0.180000
v -0.096250 0.037500 0.180000
v -0.096250 0.200000 0.180000
v -0.087500 0.037500 0.188750
v -0.087500 0.200000 0.188750
v -0.132500 0.153750 0.180000
v -0.195000 0.132500 0.180000
v -0.132500 0.132500 0.217500
v -0.132500 0.111250 0.180000
v -0.070000 0.132500 0.180000
v -0.132500 0.132500 0.142500
v -0.042500 0.196250 0.197500
v -0.105000 0.175000 0.197500
v -0.042500 0.175000 0.235000
v -0.042500 0.153750 0.197500
v 0.020000 0.175000 0.197500
v -0.042500 0.175000 0.160000
v -0.117500 0.155000 0.212500
v -0.132500 0.112500 0.212500
v -0.117500 0.112500 0.228750
v -0.117500 0.070000 0.212500
v -0.102500 0.112500 0.212500
v -0.117500 0.112500 0.196250
v -0.057500 0.155000 0.212500
v -0.072500 0.112500 0.212500
v -0.057500 0.112500 0.228750
v -0.057500 0.070000 0.212500
v -0.042500 0.112500 0.212500
v -0.057500 0.112500 0.196250
v 0.096250 0.037500 -0.180000
v 0.087500 0.037500 -0.188750
v 0.087500 0.200000 -0.188750
v 0.096250 0.200000 -0.180000
v 0.087500 0.037500 -0.180000
v 0.087500 0.200000 -0.180000
v 0.078750 0.037500 -0.180000
v 0.078750 0.200000 -0.180000
v 0.087500 0.037500 -0.171250
v 0.087500 0.200000 -0.171250
v 0.042500 0.153750 -0.180000
v -0.020000 0.132500 -0.180000
v 0.042500 0.132500 -0.142500
v 0.042500 0.111250 -0.180000
v 0.105000 0.132500 -0.180000
v 0.042500 0.132500 -0.217500
v 0.132500 0.196250 -0.162500
v 0.070000 0.175000 -0.162500
v 0.132500 0.175000 -0.125000
v 0.132500 0.153750 -0.162500
v 0.195000 0.175000 -0.162500
v 0.132500 0.175000 -0.200000
v 0.057500 0.155000 -0.147500
v 0.042500 0.112500 -0.147500
v 0.057500 0.112500 -0.131250
v 0.057500 0.070000 -0.147500
v 0.072500 0.112500 -0.147500
v 0.057500 0.112500 -0.163750
v 0.117500 0.155000 -0.147500
v 0.102500 0.112500 -0.147500
v 0.117500 0.112500 -0.131250
v 0.117500 0.070000 -0.147500
v 0.132500 0.112500 -0.147500
v 0.117500 0.112500 -0.163750
v 0.096250 0.037500 0.000000
v 0.087500 0.037500 -0.008750
v 0.087500 0.200000 -0.008750
v 0.096250 0.200000 0.000000
v 0.087500 0.037500 0.000000
v 0.087500 0.200000 0.000000
v 0.078750 0.037500 -0.000000
v 0.078750 0.200000 -0.000000
v 0.087500 0.037500 0.008750
v 0.087500 0.200000 0.008750
v 0.042500 0.153750 0.000000
v -0.020000 0.132500 0.000000
v 0.042500 0.132500 0.037500
v 0.042500 0.111250 0.000000
v 0.105000 0.132500 0.000000
v 0.042500 0.132500 -0.037500
v 0.132500 0.196250 0.017500
v 0.070000 0.175000 0.017500
v 0.132500 0.175000 0.055000
v 0.132500 0.153750 0.017500
v 0.195000 0.175000 0.017500
v 0.132500 0.175000 -0.020000
v 0.057500 0.155000 0.032500
v 0.042500 0.112500 0.032500
v 0.057500 0.112500 0.048750
v 0.057500 0.070000 0.032500
v 0.072500 0.112500 0.032500
v 0.057500 0.112500 0.016250
v 0.117500 0.155000 0.032500
v 0.102500 0.112500 0.032500
v 0.117500 0.112500 0.048750
v 0.117500 0.070000 0.032500
v 0.132500 0.112500 0.032500
v 0.117500 0.112500 0.016250
v 0.096250 0.037500 0.180000
v 0.087500 0.037500 0.171250
v 0.087500 0.200000 0.171250
v 0.096250 0.200000 0.180000
v 0.087500 0.037500 0.180000
v 0.087500 0.200000 0.180000
v 0.078750 0.037500 0.180000
v 0.078750 0.200000 0.180000
v 0.087500 0.037500 0.188750
v 0.087500 0.200000 0.188750
v 0.042500 0.153750 0.180000
v -0.020000 0.132500 0.180000
v 0.042500 0.132500 0.217500
v 0.042500 0.111250 0.180000
v 0.105000 0.132500 0.180000
v 0.042500 0.132500 0.142500
v 0.132500 0.196250 0.197500
v 0.070000 0.175000 0.197500
v 0.132500 0.175000 0.235000
v 0.132500 0.153750 0.197500
v 0.195000 0.175000 0.197500
v 0.132500 0.175000 0.160000
v 0.057500 0.155000 0.212500
v 0.042500 0.112500 0.212500
v 0.057500 0.112500 0.228750
v 0.057500 0.070000 0.212500
v 0.072500 0.112500 0.212500
v 0.057500 0.112500 0.196250
v 0.117500 0.155000 0.212500
v 0.102500 0.112500 0.212500
v 0.117500 0.112500 0.228750
v 0.117500 0.070000 0.212500
v 0.132500 0.112500 0.212500
v 0.117500 0.112500 0.196250
v 0.271250 0.037500 -0.180000
v 0.262500 0.037500 -0.188750
v 0.262500 0.200000 -0.188750
v 0.271250 0.200000 -0.180000
v 0.262500 0.037500 -0.180000
v 0.262500 0.200000 -0.180000
v 0.253750 0.037500 -0.180000
v 0.253750 0.200000 -0.180000
v 0.262500 0.037500 -0.171250
v 0.262500 0.200000 -0.171250
v 0.217500 0.153750 -0.180000
v 0.155000 0.132500 -0.180000
v 0.217500 0.132500 -0.142500
v 0.217500 0.111250 -0.180000
v 0.280000 0.132500 -0.180000
v 0.217500 0.132500 -0.217500
v 0.307500 0.196250 -0.162500
v 0.245000 0.175000 -0.162500
v 0.307500 0.175000 -0.125000
v 0.307500 0.153750 -0.162500
v 0.370000 0.175000 -0.162500
v 0.307500 0.175000 -0.200000
v 0.232500 0.155000 -0.147500
v 0.217500 0.112500 -0.147500
v 0.232500 0.112500 -0.131250
v 0.232500 0.070000 -0.147500
v 0.247500 0.112500 -0.147500
v 0.232500 0.112500 -0.163750
v 0.292500 0.155000 -0.147500
v 0.277500 0.112500 -0.147500
v 0.292500 0.112500 -0.131250
v 0.292500 0.070000 -0.147500
v 0.307500 0.112500 -0.147500
v 0.292500 0.112500 -0.163750
v 0.271250 0.037500 0.000000
v 0.262500 0.037500 -0.008750
v 0.262500 0.200000 -0.008750
v 0.271250 0.200000 0.000000
v 0.262500 0.037500 0.000000
v 0.262500 0.200000 0.000000
v 0.253750 0.037500 -0.000000
v 0.253750 0.200000 -0.000000
v 0.262500 0.037500 0.008750
v 0.262500 0.200000 0.008750
v 0.217500 0.153750 0.000000
v 0.155000 0.132500 0.000000
v 0.217500 0.132500 0.037500
v 0.217500 0.111250 0.000000
v 0.280000 0.132500 0.000000
v 0.217500 0.132500 -0.037500
v 0.307500 0.196250 0.017500
v 0.245000 0.175000 0.017500
v 0.307500 0.175000 0.055000
v 0.307500 0.153750 0.017500
v 0.370000 0.175000 0.017500
v 0.307500 0.175000 -0.020000
v 0.232500 0.155000 0.032500
v 0.217500 0.112500 0.032500
v 0.232500 0.112500 0.048750
v 0.232500 0.070000 0.032500
v 0.247500 0.112500 0.032500
v 0.232500 0.112500 0.016250
v 0.292500 0.155000 0.032500
v 0.277500 0.112500 0.032500
v 0.292500 0.112500 0.048750
v 0.292500 0.070000 0.032500
v 0.307500 0.112500 0.032500
v 0.292500 0.112500 0.016250
v 0.271250 0.037500 0.180000
v 0.262500 0.037500 0.171250
v 0.262500 0.200000 0.171250
v 0.271250 0.200000 0.180000
v 0.262500 0.037500 0.180000
v 0.262500 0.200000 0.180000
v 0.253750 0.037500 0.180000
v 0.253750 0.200000 0.180000
v 0.262500 0.037500 0.188750
v 0.262500 0.200000 0.188750
v 0.217500 0.153750 0.180000
v 0.155000 0.132500 0.180000
v 0.217500 0.132500 0.217500
v 0.217500 0.111250 0.180000
v 0.280000 0.132500 0.180000
v 0.217500 0.132500 0.142500
v 0.307500 0.196250 0.197500
v 0.245000 0.175000 0.197500
v 0.307500 0.175000 0.235000
v 0.307500 0.153750 0.197500
v 0.370000 0.175000 0.197500
v 0.307500 0.175000 0.160000
v 0.232500 0.155000 0.212500
v 0.217500 0.112500 0.212500
v 0.232500 0.112500 0.228750
v 0.232500 0.070000 0.212500
v 0.247500 0.112500 0.212500
v 0.232500 0.112500 0.196250
v 0.292500 0.155000 0.212500
v 0.277500 0.112500 0.212500
v 0.292500 0.112500 0.228750
v 0.292500 0.070000 0.212500
v 0.307500 0.112500 0.212500
v 0.292500 0.112500 0.196250
vt 0.765625 0.015625
vt 0.984375 0.015625
vt 0.984375 0.234375
vt 0.765625 0.234375
vt 0.765625 0.015625
vt 0.984375 0.015625
vt 0.984375 0.234375
vt 0.765625 0.234375
vt 0.765625 0.015625
vt 0.984375 0.015625
vt 0.984375 0.234375
vt 0.765625 0.234375
vt 0.765625 0.015625
vt 0.984375 0.015625
vt 0.984375 0.234375
vt 0.765625 0.234375
vt 0.765625 0.015625
vt 0.984375 0.015625
vt 0.984375 0.234375
vt 0.765625 0.234375
vt 0.765625 0.015625
vt 0.984375 0.015625
vt 0.984375 0.234375
vt 0.765625 0.234375
vt 0.515625 0.515625
vt 0.734375 0.515625
vt 0.734375 0.734375
vt 0.515625 0.734375
vt 0.515625 0.515625
vt 0.734375 0.515625
vt 0.734375 0.734375
vt 0.515625 0.734375
vt 0.515625 0.515625
vt 0.734375 0.515625
vt 0.734375 0.734375
vt 0.515625 0.734375
vt 0.515625 0.515625
vt 0.734375 0.515625
vt 0.734375 0.734375
vt 0.515625 0.734375
vt 0.515625 0.515625
vt 0.734375 0.515625
vt 0.734375 0.734375
vt 0.515625 0.734375
vt 0.515625 0.515625
vt 0.734375 0.515625
vt 0.734375 0.734375
vt 0.515625 0.734375
vt 0.015625 0.765625
vt 0.234375 0.765625
vt 0.234375 0.984375
vt 0.015625 0.984375
vt 0.015625 0.765625
vt 0.234375 0.765625
vt 0.234375 0.984375
vt 0.015625 0.984375
vt 0.015625 0.765625
vt 0.234375 0.765625
vt 0.234375 0.984375
vt 0.015625 0.984375
vt 0.015625 0.765625
vt 0.234375 0.765625
vt 0.234375 0.984375
vt 0.015625 0.984375
vt 0.015625 0.765625
vt 0.234375 0.765625
vt 0.234375 0.984375
vt 0.015625 0.984375
vt 0.015625 0.765625
vt 0.234375 0.765625
vt 0.234375 0.984375
vt 0.015625 0.984375
vt 0.015625 0.765625
vt 0.234375 0.765625
vt 0.234375 0.984375
vt 0.015625 0.984375
vt 0.015625 0.765625
vt 0.234375 0.765625
vt 0.234375 0.984375
vt 0.015625 0.984375
vt 0.015625 0.765625
vt 0.234375 0.765625
vt 0.234375 0.984375
vt 0.015625 0.984375
vt 0.015625 0.765625
vt 0.234375 0.765625
vt 0.234375 0.984375
vt 0.015625 0.984375
vt 0.015625 0.765625
vt 0.234375 0.765625
vt 0.234375 0.984375
vt 0.015625 0.984375
vt 0.015625 0.765625
vt 0.234375 0.765625
vt 0.234375 0.984375
vt 0.015625 0.984375
vt 0.015625 0.765625
vt 0.234375 0.765625
vt 0.234375 0.984375
vt 0.015625 0.984375
vt 0.015625 0.765625
vt 0.234375 0.765625
vt 0.234375 0.984375
vt 0.015625 0.984375
vt 0.015625 0.765625
vt 0.234375 0.765625
vt 0.234375 0.984375
vt 0.015625 0.984375
vt 0.015625 0.765625
vt 0.234375 0.765625
vt 0.234375 0.984375
vt 0.015625 0.984375
vt 0.015625 0.765625
vt 0.234375 0.765625
vt 0.234375 0.984375
vt 0.015625 0.984375
vt 0.015625 0.765625
vt 0.234375 0.765625
vt 0.234375 0.984375
vt 0.015625 0.984375
vt 0.015625 0.765625
vt 0.234375 0.765625
vt 0.234375 0.984375
vt 0.015625 0.984375
vt 0.015625 0.765625
vt 0.234375 0.765625
vt 0.234375 0.984375
vt 0.015625 0.984375
vt 0.015625 0.765625
vt 0.234375 0.765625
vt 0.234375 0.984375
vt 0.015625 0.984375
vt 0.015625 0.765625
vt 0.234375 0.765625
vt 0.234375 0.984375
vt 0.015625 0.984375
vt 0.015625 0.765625
vt 0.234375 0.765625
vt 0.234375 0.984375
vt 0.015625 0.984375
vt 0.015625 0.765625
vt 0.234375 0.765625
vt 0.234375 0.984375
vt 0.015625 0.984375
vt 0.015625 0.515625
vt 0.234375 0.515625
vt 0.234375 0.734375
vt 0.015625 0.734375
vt 0.015625 0.515625
vt 0.234375 0.515625
vt 0.234375 0.734375
vt 0.015625 0.515625
vt 0.234375 0.515625
vt 0.234375 0.734375
vt 0.015625 0.515625
vt 0.234375 0.515625
vt 0.234375 0.734375
vt 0.015625 0.734375
vt 0.015625 0.515625
vt 0.234375 0.515625
vt 0.234375 0.734375
vt 0.015625 0.515625
vt 0.234375 0.515625
vt 0.234375 0.734375
vt 0.015625 0.515625
vt 0.234375 0.515625
vt 0.234375 0.734375
vt 0.015625 0.734375
vt 0.015625 0.515625
vt 0.234375 0.515625
vt 0.234375 0.734375
vt 0.015625 0.515625
vt 0.234375 0.515625
vt 0.234375 0.734375
vt 0.015625 0.515625
vt 0.234375 0.515625
vt 0.234375 0.734375
vt 0.015625 0.734375
vt 0.015625 0.515625
vt 0.234375 0.515625
vt 0.234375 0.734375
vt 0.015625 0.515625
vt 0.234375 0.515625
vt 0.234375 0.734375
vt 0.015625 0.515625
vt 0.234375 0.515625
vt 0.234375 0.734375
vt 0.015625 0.515625
vt 0.234375 0.515625
vt 0.234375 0.734375
vt 0.015625 0.515625
vt 0.234375 0.515625
vt 0.234375 0.734375
vt 0.015625 0.515625
vt 0.234375 0.515625
vt 0.234375 0.734375
vt 0.015625 0.515625
vt 0.234375 0.515625
vt 0.234375 0.734375
vt 0.015625 0.515625
vt 0.234375 0.515625
vt 0.234375 0.734375
vt 0.015625 0.515625
vt 0.234375 0.515625
vt 0.234375 0.734375
vt 0.015625 0.515625
vt 0.234375 0.515625
vt 0.234375 0.734375
vt 0.015625 0.515625
vt 0.234375 0.515625
vt 0.234375 0.734375
vt 0.015625 0.515625
vt 0.234375 0.515625
vt 0.234375 0.734375
vt 0.015625 0.515625
vt 0.234375 0.515625
vt 0.234375 0.734375
vt 0.015625 0.515625
vt 0.234375 0.515625
vt 0.234375 0.734375
vt 0.015625 0.515625
vt 0.234375 0.515625
vt 0.234375 0.734375
vt 0.015625 0.515625
vt 0.234375 0.515625
vt 0.234375 0.734375
vt 0.015625 0.515625
vt 0.234375 0.515625
vt 0.234375 0.734375
vt 0.015625 0.515625
vt 0.234375 0.515625
vt 0.234375 0.734375
vt 0.265625 0.265625
vt 0.484375 0.265625
vt 0.484375 0.484375
vt 0.265625 0.265625
vt 0.484375 0.265625
vt 0.484375 0.484375
vt 0.265625 0.265625
vt 0.484375 0.265625
vt 0.484375 0.484375
vt 0.265625 0.265625
vt 0.484375 0.265625
vt 0.484375 0.484375
vt 0.265625 0.265625
vt 0.484375 0.265625
vt 0.484375 0.484375
vt 0.265625 0.265625
vt 0.484375 0.265625
vt 0.484375 0.484375
vt 0.265625 0.265625
vt 0.484375 0.265625
vt 0.484375 0.484375
vt 0.265625 0.265625
vt 0.484375 0.265625
vt 0.484375 0.484375
vt 0.265625 0.265625
vt 0.484375 0.265625
vt 0.484375 0.484375
vt 0.265625 0.265625
vt 0.484375 0.265625
vt 0.484375 0.484375
vt 0.265625 0.265625
vt 0.484375 0.265625
vt 0.484375 0.484375
vt 0.265625 0.265625
vt 0.484375 0.265625
vt 0.484375 0.484375
vt 0.265625 0.265625
vt 0.484375 0.265625
vt 0.484375 0.484375
vt 0.265625 0.265625
vt 0.484375 0.265625
vt 0.484375 0.484375
vt 0.265625 0.265625
vt 0.484375 0.265625
vt 0.484375 0.484375
vt 0.265625 0.265625
vt 0.484375 0.265625
vt 0.484375 0.484375
vt 0.015625 0.515625
vt 0.234375 0.515625
vt 0.234375 0.734375
vt 0.015625 0.734375
vt 0.015625 0.515625
vt 0.234375 0.515625
vt 0.234375 0.734375
vt 0.015625 0.515625
vt 0.234375 0.515625
vt 0.234375 0.734375
vt 0.015625 0.515625
vt 0.234375 0.515625
vt 0.234375 0.734375
vt 0.015625 0.734375
vt 0.015625 0.515625
vt 0.234375 0.515625
vt 0.234375 0.734375
vt 0.015625 0.515625
vt 0.234375 0.515625
vt 0.234375 0.734375
vt 0.015625 0.515625
vt 0.234375 0.515625
vt 0.234375 0.734375
vt 0.015625 0.734375
vt 0.015625 0.515625
vt 0.234375 0.515625
vt 0.234375 0.734375
vt 0.015625 0.515625
vt 0.234375 0.515625
vt 0.234375 0.734375
vt 0.015625 0.515625
vt 0.234375 0.515625
vt 0.234375 0.734375
vt 0.015625 0.734375
vt 0.015625 0.515625
vt 0.234375 0.515625
vt 0.234375 0.734375
vt 0.015625 0.515625
vt 0.234375 0.515625
vt 0.234375 0.734375
vt 0.015625 0.515625
vt 0.234375 0.515625
vt 0.234375 0.734375
vt 0.015625 0.515625
vt 0.234375 0.515625
vt 0.234375 0.734375
vt 0.015625 0.515625
vt 0.234375 0.515625
vt 0.234375 0.734375
vt 0.015625 0.515625
vt 0.234375 0.515625
vt 0.234375 0.734375
vt 0.015625 0.515625
vt 0.234375 0.515625
vt 0.234375 0.734375
vt 0.015625 0.515625
vt 0.234375 0.515625
vt 0.234375 0.734375
vt 0.015625 0.515625
vt 0.234375 0.515625
vt 0.234375 0.734375
vt 0.015625 0.515625
vt 0.234375 0.515625
vt 0.234375 0.734375
vt 0.015625 0.515625
vt 0.234375 0.515625
vt 0.234375 0.734375
vt 0.015625 0.515625
vt 0.234375 0.515625
vt 0.234375 0.734375
vt 0.015625 0.515625
vt 0.234375 0.515625
vt 0.234375 0.734375
vt 0.015625 0.515625
vt 0.234375 0.515625
vt 0.234375 0.734375
vt 0.015625 0.515625
vt 0.234375 0.515625
vt 0.234375 0.734375
vt 0.015625 0.515625
vt 0.234375 0.515625
vt 0.234375 0.734375
vt 0.015625 0.515625
vt 0.234375 0.515625
vt 0.234375 0.734375
vt 0.015625 0.515625
vt 0.234375 0.515625
vt 0.234375 0.734375
vt 0.265625 0.265625
vt 0.484375 0.265625
vt 0.484375 0.484375
vt 0.265625 0.265625
vt 0.484375 0.265625
vt 0.484375 0.484375
vt 0.265625 0.265625
vt 0.484375 0.265625
vt 0.484375 0.484375
vt 0.265625 0.265625
vt 0.484375 0.265625
vt 0.484375 0.484375
vt 0.265625 0.265625
vt 0.484375 0.265625
vt 0.484375 0.484375
vt 0.265625 0.265625
vt 0.484375 0.265625
vt 0.484375 0.484375
vt 0.265625 0.265625
vt 0.484375 0.265625
vt 0.484375 0.484375
vt 0.265625 0.265625
vt 0.484375 0.265625
vt 0.484375 0.484375
vt 0.265625 0.265625
vt 0.484375 0.265625
vt 0.484375 0.484375
vt 0.265625 0.265625
vt 0.484375 0.265625
vt 0.484375 0.484375
vt 0.265625 0.265625
vt 0.484375 0.265625
vt 0.484375 0.484375
vt 0.265625 0.265625
vt 0.484375 0.265625
vt 0.484375 0.484375
vt 0.265625 0.265625
vt 0.484375 0.265625
vt 0.484375 0.484375
vt 0.265625 0.265625
vt 0.484375 0.265625
vt 0.484375 0.484375
vt 0.265625 0.265625
vt 0.484375 0.265625
vt 0.484375 0.484375
vt 0.265625 0.265625
vt 0.484375 0.265625
vt 0.484375 0.484375
vt 0.015625 0.515625
vt 0.234375 0.515625
vt 0.234375 0.734375
vt 0.015625 0.734375
vt 0.015625 0.515625
vt 0.234375 0.515625
vt 0.234375 0.734375
vt 0.015625 0.515625
vt 0.234375 0.515625
vt 0.234375 0.734375
vt 0.015625 0.515625
vt 0.234375 0.515625
vt 0.234375 0.734375
vt 0.015625 0.734375
vt 0.015625 0.515625
vt 0.234375 0.515625
vt 0.234375 0.734375
vt 0.015625 0.515625
vt 0.234375 0.515625
vt 0.234375 0.734375
vt 0.015625 0.515625
vt 0.234375 0.515625
vt 0.234375 0.734375
vt 0.015625 0.734375
vt 0.015625 0.515625
vt 0.234375 0.515625
vt 0.234375 0.734375
vt 0.015625 0.515625
vt 0.234375 0.515625
vt 0.234375 0.734375
vt 0.015625 0.515625
vt 0.234375 0.515625
vt 0.234375 0.734375
vt 0.015625 0.734375
vt 0.015625 0.515625
vt 0.234375 0.515625
vt 0.234375 0.734375
vt 0.015625 0.515625
vt 0.234375 0.515625
vt 0.234375 0.734375
vt 0.015625 0.515625
vt 0.234375 0.515625
vt 0.234375 0.734375
vt 0.015625 0.515625
vt 0.234375 0.515625
vt 0.234375 0.734375
vt 0.015625 0.515625
vt 0.234375 0.515625
vt 0.234375 0.734375
vt 0.015625 0.515625
vt 0.234375 0.515625
vt 0.234375 0.734375
vt 0.015625 0.515625
vt 0.234375 0.515625
vt 0.234375 0.734375
vt 0.015625 0.515625
vt 0.234375 0.515625
vt 0.234375 0.734375
vt 0.015625 0.515625
vt 0.234375 0.515625
vt 0.234375 0.734375
vt 0.015625 0.515625
vt 0.234375 0.515625
vt 0.234375 0.734375
vt 0.015625 0.515625
vt 0.234375 0.515625
vt 0.234375 0.734375
vt 0.015625 0.515625
vt 0.234375 0.515625
vt 0.234375 0.734375
vt 0.015625 0.515625
vt 0.234375 0.515625
vt 0.234375 0.734375
vt 0.015625 0.515625
vt 0.234375 0.515625
vt 0.234375 0.734375
vt 0.015625 0.515625
vt 0.234375 0.515625
vt 0.234375 0.734375
vt 0.015625 0.515625
vt 0.234375 0.515625
vt 0.234375 0.734375
vt 0.015625 0.515625
vt 0.234375 0.515625
vt 0.234375 0.734375
vt 0.015625 0.515625
vt 0.234375 0.515625
vt 0.234375 0.734375
vt 0.265625 0.265625
vt 0.484375 0.265625
vt 0.484375 0.484375
vt 0.265625 0.265625
vt 0.484375 0.265625
vt 0.484375 0.484375
vt 0.265625 0.265625
vt 0.484375 0.265625
vt 0.484375 0.484375
vt 0.265625 0.265625
vt 0.484375 0.265625
vt 0.484375 0.484375
vt 0.265625 0.265625
vt 0.484375 0.265625
vt 0.484375 0.484375
vt 0.265625 0.265625
vt 0.484375 0.265625
vt 0.484375 0.484375
vt 0.265625 0.265625
vt 0.484375 0.265625
vt 0.484375 0.484375
vt 0.265625 0.265625
vt 0.484375 0.265625
vt 0.484375 0.484375
vt 0.265625 0.265625
vt 0.484375 0.265625
vt 0.484375 0.484375
vt 0.265625 0.265625
vt 0.484375 0.265625
vt 0.484375 0.484375
vt 0.265625 0.265625
vt 0.484375 0.265625
vt 0.484375 0.484375
vt 0.265625 0.265625
vt 0.484375 0.265625
vt 0.484375 0.484375
vt 0.265625 0.265625
vt 0.484375 0.265625
vt 0.484375 0.484375
vt 0.265625 0.265625
vt 0.484375 0.265625
vt 0.484375 0.484375
vt 0.265625 0.265625
vt 0.484375 0.265625
vt 0.484375 0.484375
vt 0.265625 0.265625
vt 0.484375 0.265625
vt 0.484375 0.484375
vt 0.015625 0.515625
vt 0.234375 0.515625
vt 0.234375 0.734375
vt 0.015625 0.734375
vt 0.015625 0.515625
vt 0.234375 0.515625
vt 0.234375 0.734375
vt 0.015625 0.515625
vt 0.234375 0.515625
vt 0.234375 0.734375
vt 0.015625 0.515625
vt 0.234375 0.515625
vt 0.234375 0.734375
vt 0.015625 0.734375
vt 0.015625 0.515625
vt 0.234375 0.515625
vt 0.234375 0.734375
vt 0.015625 0.515625
vt 0.234375 0.515625
vt 0.234375 0.734375
vt 0.015625 0.515625
vt 0.234375 0.515625
vt 0.234375 0.734375
vt 0.015625 0.734375
vt 0.015625 0.515625
vt 0.234375 0.515625
vt 0.234375 0.734375
vt 0.015625 0.515625
vt 0.234375 0.515625
vt 0.234375 0.734375
vt 0.015625 0.515625
vt 0.234375 0.515625
vt 0.234375 0.734375
vt 0.015625 0.734375
vt 0.015625 0.515625
vt 0.234375 0.515625
vt 0.234375 0.734375
vt 0.015625 0.515625
vt 0.234375 0.515625
vt 0.234375 0.734375
vt 0.015625 0.515625
vt 0.234375 0.515625
vt 0.234375 0.734375
vt 0.015625 0.515625
vt 0.234375 0.515625
vt 0.234375 0.734375
vt 0.015625 0.515625
vt 0.234375 0.515625
vt 0.234375 0.734375
vt 0.015625 0.515625
vt 0.234375 0.515625
vt 0.234375 0.734375
vt 0.015625 0.515625
vt 0.234375 0.515625
vt 0.234375 0.734375
vt 0.015625 0.515625
vt 0.234375 0.515625
vt 0.234375 0.734375
vt 0.015625 0.515625
vt 0.234375 0.515625
vt 0.234375 0.734375
vt 0.015625 0.515625
vt 0.234375 0.515625
vt 0.234375 0.734375
vt 0.015625 0.515625
vt 0.234375 0.515625
vt 0.234375 0.734375
vt 0.015625 0.515625
vt 0.234375 0.515625
vt 0.234375 0.734375
vt 0.015625 0.515625
vt 0.234375 0.515625
vt 0.234375 0.734375
vt 0.015625 0.515625
vt 0.234375 0.515625
vt 0.234375 0.734375
vt 0.015625 0.515625
vt 0.234375 0.515625
vt 0.234375 0.734375
vt 0.015625 0.515625
vt 0.234375 0.515625
vt 0.234375 0.734375
vt 0.015625 0.515625
vt 0.234375 0.515625
vt 0.234375 0.734375
vt 0.015625 0.515625
vt 0.234375 0.515625
vt 0.234375 0.734375
vt 0.265625 0.265625
vt 0.484375 0.265625
vt 0.484375 0.484375
vt 0.265625 0.265625
vt 0.484375 0.265625
vt 0.484375 0.484375
vt 0.265625 0.265625
vt 0.484375 0.265625
vt 0.484375 0.484375
vt 0.265625 0.265625
vt 0.484375 0.265625
vt 0.484375 0.484375
vt 0.265625 0.265625
vt 0.484375 0.265625
vt 0.484375 0.484375
vt 0.265625 0.265625
vt 0.484375 0.265625
vt 0.484375 0.484375
vt 0.265625 0.265625
vt 0.484375 0.265625
vt 0.484375 0.484375
vt 0.265625 0.265625
vt 0.484375 0.265625
vt 0.484375 0.484375
vt 0.265625 0.265625
vt 0.484375 0.265625
vt 0.484375 0.484375
vt 0.265625 0.265625
vt 0.484375 0.265625
vt 0.484375 0.484375
vt 0.265625 0.265625
vt 0.484375 0.265625
vt 0.484375 0.484375
vt 0.265625 0.265625
vt 0.484375 0.265625
vt 0.484375 0.484375
vt 0.265625 0.265625
vt 0.484375 0.265625
vt 0.484375 0.484375
vt 0.265625 0.265625
vt 0.484375 0.265625
vt 0.484375 0.484375
vt 0.265625 0.265625
vt 0.484375 0.265625
vt 0.484375 0.484375
vt 0.265625 0.265625
vt 0.484375 0.265625
vt 0.484375 0.484375
vt 0.015625 0.515625
vt 0.234375 0.515625
vt 0.234375 0.734375
vt 0.015625 0.734375
vt 0.015625 0.515625
vt 0.234375 0.515625
vt 0.234375 0.734375
vt 0.015625 0.515625
vt 0.234375 0.515625
vt 0.234375 0.734375
vt 0.015625 0.515625
vt 0.234375 0.515625
vt 0.234375 0.734375
vt 0.015625 0.734375
vt 0.015625 0.515625
vt 0.234375 0.515625
vt 0.234375 0.734375
vt 0.015625 0.515625
vt 0.234375 0.515625
vt 0.234375 0.734375
vt 0.015625 0.515625
vt 0.234375 0.515625
vt 0.234375 0.734375
vt 0.015625 0.734375
vt 0.015625 0.515625
vt 0.234375 0.515625
vt 0.234375 0.734375
vt 0.015625 0.515625
vt 0.234375 0.515625
vt 0.234375 0.734375
vt 0.015625 0.515625
vt 0.234375 0.515625
vt 0.234375 0.734375
vt 0.015625 0.734375
vt 0.015625 0.515625
vt 0.234375 0.515625
vt 0.234375 0.734375
vt 0.015625 0.515625
vt 0.234375 0.515625
vt 0.234375 0.734375
vt 0.015625 0.515625
vt 0.234375 0.515625
vt 0.234375 0.734375
vt 0.015625 0.515625
vt 0.234375 0.515625
vt 0.234375 0.734375
vt 0.015625 0.515625
vt 0.234375 0.515625
vt 0.234375 0.734375
vt 0.015625 0.515625
vt 0.234375 0.515625
vt 0.234375 0.734375
vt 0.015625 0.515625
vt 0.234375 0.515625
vt 0.234375 0.734375
vt 0.015625 0.515625
vt 0.234375 0.515625
vt 0.234375 0.734375
vt 0.015625 0.515625
vt 0.234375 0.515625
vt 0.234375 0.734375
vt 0.015625 0.515625
vt 0.234375 0.515625
vt 0.234375 0.734375
vt 0.015625 0.515625
vt 0.234375 0.515625
vt 0.234375 0.734375
vt 0.015625 0.515625
vt 0.234375 0.515625
vt 0.234375 0.734375
vt 0.015625 0.515625
vt 0.234375 0.515625
vt 0.234375 0.734375
vt 0.015625 0.515625
vt 0.234375 0.515625
vt 0.234375 0.734375
vt 0.015625 0.515625
vt 0.234375 0.515625
vt 0.234375 0.734375
vt 0.015625 0.515625
vt 0.234375 0.515625
vt 0.234375 0.734375
vt 0.015625 0.515625
vt 0.234375 0.515625
vt 0.234375 0.734375
vt 0.015625 0.515625
vt 0.234375 0.515625
vt 0.234375 0.734375
vt 0.265625 0.265625
vt 0.484375 0.265625
vt 0.484375 0.484375
vt 0.265625 0.265625
vt 0.484375 0.265625
vt 0.484375 0.484375
vt 0.265625 0.265625
vt 0.484375 0.265625
vt 0.484375 0.484375
vt 0.265625 0.265625
vt 0.484375 0.265625
vt 0.484375 0.484375
vt 0.265625 0.265625
vt 0.484375 0.265625
vt 0.484375 0.484375
vt 0.265625 0.265625
vt 0.484375 0.265625
vt 0.484375 0.484375
vt 0.265625 0.265625
vt 0.484375 0.265625
vt 0.484375 0.484375
vt 0.265625 0.265625
vt 0.484375 0.265625
vt 0.484375 0.484375
vt 0.265625 0.265625
vt 0.484375 0.265625
vt 0.484375 0.484375
vt 0.265625 0.265625
vt 0.484375 0.265625
vt 0.484375 0.484375
vt 0.265625 0.265625
vt 0.484375 0.265625
vt 0.484375 0.484375
vt 0.265625 0.265625
vt 0.484375 0.265625
vt 0.484375 0.484375
vt 0.265625 0.265625
vt 0.484375 0.265625
vt 0.484375 0.484375
vt 0.265625 0.265625
vt 0.484375 0.265625
vt 0.484375 0.484375
vt 0.265625 0.265625
vt 0.484375 0.265625
vt 0.484375 0.484375
vt 0.265625 0.265625
vt 0.484375 0.265625
vt 0.484375 0.484375
vt 0.015625 0.515625
vt 0.234375 0.515625
vt 0.234375 0.734375
vt 0.015625 0.734375
vt 0.015625 0.515625
vt 0.234375 0.515625
vt 0.234375 0.734375
vt 0.015625 0.515625
vt 0.234375 0.515625
vt 0.234375 0.734375
vt 0.015625 0.515625
vt 0.234375 0.515625
vt 0.234375 0.734375
vt 0.015625 0.734375
vt 0.015625 0.515625
vt 0.234375 0.515625
vt 0.234375 0.734375
vt 0.015625 0.515625
vt 0.234375 0.515625
vt 0.234375 0.734375
vt 0.015625 0.515625
vt 0.234375 0.515625
vt 0.234375 0.734375
vt 0.015625 0.734375
vt 0.015625 0.515625
vt 0.234375 0.515625
vt 0.234375 0.734375
vt 0.015625 0.515625
vt 0.234375 0.515625
vt 0.234375 0.734375
vt 0.015625 0.515625
vt 0.234375 0.515625
vt 0.234375 0.734375
vt 0.015625 0.734375
vt 0.015625 0.515625
vt 0.234375 0.515625
vt 0.234375 0.734375
vt 0.015625 0.515625
vt 0.234375 0.515625
vt 0.234375 0.734375
vt 0.015625 0.515625
vt 0.234375 0.515625
vt 0.234375 0.734375
vt 0.015625 0.515625
vt 0.234375 0.515625
vt 0.234375 0.734375
vt 0.015625 0.515625
vt 0.234375 0.515625
vt 0.234375 0.734375
vt 0.015625 0.515625
vt 0.234375 0.515625
vt 0.234375 0.734375
vt 0.015625 0.515625
vt 0.234375 0.515625
vt 0.234375 0.734375
vt 0.015625 0.515625
vt 0.234375 0.515625
vt 0.234375 0.734375
vt 0.015625 0.515625
vt 0.234375 0.515625
vt 0.234375 0.734375
vt 0.015625 0.515625
vt 0.234375 0.515625
vt 0.234375 0.734375
vt 0.015625 0.515625
vt 0.234375 0.515625
vt 0.234375 0.734375
vt 0.015625 0.515625
vt 0.234375 0.515625
vt 0.234375 0.734375
vt 0.015625 0.515625
vt 0.234375 0.515625
vt 0.234375 0.734375
vt 0.015625 0.515625
vt 0.234375 0.515625
vt 0.234375 0.734375
vt 0.015625 0.515625
vt 0.234375 0.515625
vt 0.234375 0.734375
vt 0.015625 0.515625
vt 0.234375 0.515625
vt 0.234375 0.734375
vt 0.015625 0.515625
vt 0.234375 0.515625
vt 0.234375 0.734375
vt 0.015625 0.515625
vt 0.234375 0.515625
vt 0.234375 0.734375
vt 0.265625 0.265625
vt 0.484375 0.265625
vt 0.484375 0.484375
vt 0.265625 0.265625
vt 0.484375 0.265625
vt 0.484375 0.484375
vt 0.265625 0.265625
vt 0.484375 0.265625
vt 0.484375 0.484375
vt 0.265625 0.265625
vt 0.484375 0.265625
vt 0.484375 0.484375
vt 0.265625 0.265625
vt 0.484375 0.265625
vt 0.484375 0.484375
vt 0.265625 0.265625
vt 0.484375 0.265625
vt 0.484375 0.484375
vt 0.265625 0.265625
vt 0.484375 0.265625
vt 0.484375 0.484375
vt 0.265625 0.265625
vt 0.484375 0.265625
vt 0.484375 0.484375
vt 0.265625 0.265625
vt 0.484375 0.265625
vt 0.484375 0.484375
vt 0.265625 0.265625
vt 0.484375 0.265625
vt 0.484375 0.484375
vt 0.265625 0.265625
vt 0.484375 0.265625
vt 0.484375 0.484375
vt 0.265625 0.265625
vt 0.484375 0.265625
vt 0.484375 0.484375
vt 0.265625 0.265625
vt 0.484375 0.265625
vt 0.484375 0.484375
vt 0.265625 0.265625
vt 0.484375 0.265625
vt 0.484375 0.484375
vt 0.265625 0.265625
vt 0.484375 0.265625
vt 0.484375 0.484375
vt 0.265625 0.265625
vt 0.484375 0.265625
vt 0.484375 0.484375
vt 0.015625 0.515625
vt 0.234375 0.515625
vt 0.234375 0.734375
vt 0.015625 0.734375
vt 0.015625 0.515625
vt 0.234375 0.515625
vt 0.234375 0.734375
vt 0.015625 0.515625
vt 0.234375 0.515625
vt 0.234375 0.734375
vt 0.015625 0.515625
vt 0.234375 0.515625
vt 0.234375 0.734375
vt 0.015625 0.734375
vt 0.015625 0.515625
vt 0.234375 0.515625
vt 0.234375 0.734375
vt 0.015625 0.515625
vt 0.234375 0.515625
vt 0.234375 0.734375
vt 0.015625 0.515625
vt 0.234375 0.515625
vt 0.234375 0.734375
vt 0.015625 0.734375
vt 0.015625 0.515625
vt 0.234375 0.515625
vt 0.234375 0.734375
vt 0.015625 0.515625
vt 0.234375 0.515625
vt 0.234375 0.734375
vt 0.015625 0.515625
vt 0.234375 0.515625
vt 0.234375 0.734375
vt 0.015625 0.734375
vt 0.015625 0.515625
vt 0.234375 0.515625
vt 0.234375 0.734375
vt 0.015625 0.515625
vt 0.234375 0.515625
vt 0.234375 0.734375
vt 0.015625 0.515625
vt 0.234375 0.515625
vt 0.234375 0.734375
vt 0.015625 0.515625
vt 0.234375 0.515625
vt 0.234375 0.734375
vt 0.015625 0.515625
vt 0.234375 0.515625
vt 0.234375 0.734375
vt 0.015625 0.515625
vt 0.234375 0.515625
vt 0.234375 0.734375
vt 0.015625 0.515625
vt 0.234375 0.515625
vt 0.234375 0.734375
vt 0.015625 0.515625
vt 0.234375 0.515625
vt 0.234375 0.734375
vt 0.015625 0.515625
vt 0.234375 0.515625
vt 0.234375 0.734375
vt 0.015625 0.515625
vt 0.234375 0.515625
vt 0.234375 0.734375
vt 0.015625 0.515625
vt 0.234375 0.515625
vt 0.234375 0.734375
vt 0.015625 0.515625
vt 0.234375 0.515625
vt 0.234375 0.734375
vt 0.015625 0.515625
vt 0.234375 0.515625
vt 0.234375 0.734375
vt 0.015625 0.515625
vt 0.234375 0.515625
vt 0.234375 0.734375
vt 0.015625 0.515625
vt 0.234375 0.515625
vt 0.234375 0.734375
vt 0.015625 0.515625
vt 0.234375 0.515625
vt 0.234375 0.734375
vt 0.015625 0.515625
vt 0.234375 0.515625
vt 0.234375 0.734375
vt 0.015625 0.515625
vt 0.234375 0.515625
vt 0.234375 0.734375
vt 0.265625 0.265625
vt 0.484375 0.265625
vt 0.484375 0.484375
vt 0.265625 0.265625
vt 0.484375 0.265625
vt 0.484375 0.484375
vt 0.265625 0.265625
vt 0.484375 0.265625
vt 0.484375 0.484375
vt 0.265625 0.265625
vt 0.484375 0.265625
vt 0.484375 0.484375
vt 0.265625 0.265625
vt 0.484375 0.265625
vt 0.484375 0.484375
vt 0.265625 0.265625
vt 0.484375 0.265625
vt 0.484375 0.484375
vt 0.265625 0.265625
vt 0.484375 0.265625
vt 0.484375 0.484375
vt 0.265625 0.265625
vt 0.484375 0.265625
vt 0.484375 0.484375
vt 0.265625 0.265625
vt 0.484375 0.265625
vt 0.484375 0.484375
vt 0.265625 0.265625
vt 0.484375 0.265625
vt 0.484375 0.484375
vt 0.265625 0.265625
vt 0.484375 0.265625
vt 0.484375 0.484375
vt 0.265625 0.265625
vt 0.484375 0.265625
vt 0.484375 0.484375
vt 0.265625 0.265625
vt 0.484375 0.265625
vt 0.484375 0.484375
vt 0.265625 0.265625
vt 0.484375 0.265625
vt 0.484375 0.484375
vt 0.265625 0.265625
vt 0.484375 0.265625
vt 0.484375 0.484375
vt 0.265625 0.265625
vt 0.484375 0.265625
vt 0.484375 0.484375
vt 0.015625 0.515625
vt 0.234375 0.515625
vt 0.234375 0.734375
vt 0.015625 0.734375
vt 0.015625 0.515625
vt 0.234375 0.515625
vt 0.234375 0.734375
vt 0.015625 0.515625
vt 0.234375 0.515625
vt 0.234375 0.734375
vt 0.015625 0.515625
vt 0.234375 0.515625
vt 0.234375 0.734375
vt 0.015625 0.734375
vt 0.015625 0.515625
vt 0.234375 0.515625
vt 0.234375 0.734375
vt 0.015625 0.515625
vt 0.234375 0.515625
vt 0.234375 0.734375
vt 0.015625 0.515625
vt 0.234375 0.515625
vt 0.234375 0.734375
vt 0.015625 0.734375
vt 0.015625 0.515625
vt 0.234375 0.515625
vt 0.234375 0.734375
vt 0.015625 0.515625
vt 0.234375 0.515625
vt 0.234375 0.734375
vt 0.015625 0.515625
vt 0.234375 0.515625
vt 0.234375 0.734375
vt 0.015625 0.734375
vt 0.015625 0.515625
vt 0.234375 0.515625
vt 0.234375 0.734375
vt 0.015625 0.515625
vt 0.234375 0.515625
vt 0.234375 0.734375
vt 0.015625 0.515625
vt 0.234375 0.515625
vt 0.234375 0.734375
vt 0.015625 0.515625
vt 0.234375 0.515625
vt 0.234375 0.734375
vt 0.015625 0.515625
vt 0.234375 0.515625
vt 0.234375 0.734375
vt 0.015625 0.515625
vt 0.234375 0.515625
vt 0.234375 0.734375
vt 0.015625 0.515625
vt 0.234375 0.515625
vt 0.234375 0.734375
vt 0.015625 0.515625
vt 0.234375 0.515625
vt 0.234375 0.734375
vt 0.015625 0.515625
vt 0.234375 0.515625
vt 0.234375 0.734375
vt 0.015625 0.515625
vt 0.234375 0.515625
vt 0.234375 0.734375
vt 0.015625 0.515625
vt 0.234375 0.515625
vt 0.234375 0.734375
vt 0.015625 0.515625
vt 0.234375 0.515625
vt 0.234375 0.734375
vt 0.015625 0.515625
vt 0.234375 0.515625
vt 0.234375 0.734375
vt 0.015625 0.515625
vt 0.234375 0.515625
vt 0.234375 0.734375
vt 0.015625 0.515625
vt 0.234375 0.515625
vt 0.234375 0.734375
vt 0.015625 0.515625
vt 0.234375 0.515625
vt 0.234375 0.734375
vt 0.015625 0.515625
vt 0.234375 0.515625
vt 0.234375 0.734375
vt 0.015625 0.515625
vt 0.234375 0.515625
vt 0.234375 0.734375
vt 0.265625 0.265625
vt 0.484375 0.265625
vt 0.484375 0.484375
vt 0.265625 0.265625
vt 0.484375 0.265625
vt 0.484375 0.484375
vt 0.265625 0.265625
vt 0.484375 0.265625
vt 0.484375 0.484375
vt 0.265625 0.265625
vt 0.484375 0.265625
vt 0.484375 0.484375
vt 0.265625 0.265625
vt 0.484375 0.265625
vt 0.484375 0.484375
vt 0.265625 0.265625
vt 0.484375 0.265625
vt 0.484375 0.484375
vt 0.265625 0.265625
vt 0.484375 0.265625
vt 0.484375 0.484375
vt 0.265625 0.265625
vt 0.484375 0.265625
vt 0.484375 0.484375
vt 0.265625 0.265625
vt 0.484375 0.265625
vt 0.484375 0.484375
vt 0.265625 0.265625
vt 0.484375 0.265625
vt 0.484375 0.484375
vt 0.265625 0.265625
vt 0.484375 0.265625
vt 0.484375 0.484375
vt 0.265625 0.265625
vt 0.484375 0.265625
vt 0.484375 0.484375
vt 0.265625 0.265625
vt 0.484375 0.265625
vt 0.484375 0.484375
vt 0.265625 0.265625
vt 0.484375 0.265625
vt 0.484375 0.484375
vt 0.265625 0.265625
vt 0.484375 0.265625
vt 0.484375 0.484375
vt 0.265625 0.265625
vt 0.484375 0.265625
vt 0.484375 0.484375
vt 0.015625 0.515625
vt 0.234375 0.515625
vt 0.234375 0.734375
vt 0.015625 0.734375
vt 0.015625 0.515625
vt 0.234375 0.515625
vt 0.234375 0.734375
vt 0.015625 0.515625
vt 0.234375 0.515625
vt 0.234375 0.734375
vt 0.015625 0.515625
vt 0.234375 0.515625
vt 0.234375 0.734375
vt 0.015625 0.734375
vt 0.015625 0.515625
vt 0.234375 0.515625
vt 0.234375 0.734375
vt 0.015625 0.515625
vt 0.234375 0.515625
vt 0.234375 0.734375
vt 0.015625 0.515625
vt 0.234375 0.515625
vt 0.234375 0.734375
vt 0.015625 0.734375
vt 0.015625 0.515625
vt 0.234375 0.515625
vt 0.234375 0.734375
vt 0.015625 0.515625
vt 0.234375 0.515625
vt 0.234375 0.734375
vt 0.015625 0.515625
vt 0.234375 0.515625
vt 0.234375 0.734375
vt 0.015625 0.734375
vt 0.015625 0.515625
vt 0.234375 0.515625
vt 0.234375 0.734375
vt 0.015625 0.515625
vt 0.234375 0.515625
vt 0.234375 0.734375
vt 0.015625 0.515625
vt 0.234375 0.515625
vt 0.234375 0.734375
vt 0.015625 0.515625
vt 0.234375 0.515625
vt 0.234375 0.734375
vt 0.015625 0.515625
vt 0.234375 0.515625
vt 0.234375 0.734375
vt 0.015625 0.515625
vt 0.234375 0.515625
vt 0.234375 0.734375
vt 0.015625 0.515625
vt 0.234375 0.515625
vt 0.234375 0.734375
vt 0.015625 0.515625
vt 0.234375 0.515625
vt 0.234375 0.734375
vt 0.015625 0.515625
vt 0.234375 0.515625
vt 0.234375 0.734375
vt 0.015625 0.515625
vt 0.234375 0.515625
vt 0.234375 0.734375
vt 0.015625 0.515625
vt 0.234375 0.515625
vt 0.234375 0.734375
vt 0.015625 0.515625
vt 0.234375 0.515625
vt 0.234375 0.734375
vt 0.015625 0.515625
vt 0.234375 0.515625
vt 0.234375 0.734375
vt 0.015625 0.515625
vt 0.234375 0.515625
vt 0.234375 0.734375
vt 0.015625 0.515625
vt 0.234375 0.515625
vt 0.234375 0.734375
vt 0.015625 0.515625
vt 0.234375 0.515625
vt 0.234375 0.734375
vt 0.015625 0.515625
vt 0.234375 0.515625
vt 0.234375 0.734375
vt 0.015625 0.515625
vt 0.234375 0.515625
vt 0.234375 0.734375
vt 0.265625 0.265625
vt 0.484375 0.265625
vt 0.484375 0.484375
vt 0.265625 0.265625
vt 0.484375 0.265625
vt 0.484375 0.484375
vt 0.265625 0.265625
vt 0.484375 0.265625
vt 0.484375 0.484375
vt 0.265625 0.265625
vt 0.484375 0.265625
vt 0.484375 0.484375
vt 0.265625 0.265625
vt 0.484375 0.265625
vt 0.484375 0.484375
vt 0.265625 0.265625
vt 0.484375 0.265625
vt 0.484375 0.484375
vt 0.265625 0.265625
vt 0.484375 0.265625
vt 0.484375 0.484375
vt 0.265625 0.265625
vt 0.484375 0.265625
vt 0.484375 0.484375
vt 0.265625 0.265625
vt 0.484375 0.265625
vt 0.484375 0.484375
vt 0.265625 0.265625
vt 0.484375 0.265625
vt 0.484375 0.484375
vt 0.265625 0.265625
vt 0.484375 0.265625
vt 0.484375 0.484375
vt 0.265625 0.265625
vt 0.484375 0.265625
vt 0.484375 0.484375
vt 0.265625 0.265625
vt 0.484375 0.265625
vt 0.484375 0.484375
vt 0.265625 0.265625
vt 0.484375 0.265625
vt 0.484375 0.484375
vt 0.265625 0.265625
vt 0.484375 0.265625
vt 0.484375 0.484375
vt 0.265625 0.265625
vt 0.484375 0.265625
vt 0.484375 0.484375
vt 0.015625 0.515625
vt 0.234375 0.515625
vt 0.234375 0.734375
vt 0.015625 0.734375
vt 0.015625 0.515625
vt 0.234375 0.515625
vt 0.234375 0.734375
vt 0.015625 0.515625
vt 0.234375 0.515625
vt 0.234375 0.734375
vt 0.015625 0.515625
vt 0.234375 0.515625
vt 0.234375 0.734375
vt 0.015625 0.734375
vt 0.015625 0.515625
vt 0.234375 0.515625
vt 0.234375 0.734375
vt 0.015625 0.515625
vt 0.234375 0.515625
vt 0.234375 0.734375
vt 0.015625 0.515625
vt 0.234375 0.515625
vt 0.234375 0.734375
vt 0.015625 0.734375
vt 0.015625 0.515625
vt 0.234375 0.515625
vt 0.234375 0.734375
vt 0.015625 0.515625
vt 0.234375 0.515625
vt 0.234375 0.734375
vt 0.015625 0.515625
vt 0.234375 0.515625
vt 0.234375 0.734375
vt 0.015625 0.734375
vt 0.015625 0.515625
vt 0.234375 0.515625
vt 0.234375 0.734375
vt 0.015625 0.515625
vt 0.234375 0.515625
vt 0.234375 0.734375
vt 0.015625 0.515625
vt 0.234375 0.515625
vt 0.234375 0.734375
vt 0.015625 0.515625
vt 0.234375 0.515625
vt 0.234375 0.734375
vt 0.015625 0.515625
vt 0.234375 0.515625
vt 0.234375 0.734375
vt 0.015625 0.515625
vt 0.234375 0.515625
vt 0.234375 0.734375
vt 0.015625 0.515625
vt 0.234375 0.515625
vt 0.234375 0.734375
vt 0.015625 0.515625
vt 0.234375 0.515625
vt 0.234375 0.734375
vt 0.015625 0.515625
vt 0.234375 0.515625
vt 0.234375 0.734375
vt 0.015625 0.515625
vt 0.234375 0.515625
vt 0.234375 0.734375
vt 0.015625 0.515625
vt 0.234375 0.515625
vt 0.234375 0.734375
vt 0.015625 0.515625
vt 0.234375 0.515625
vt 0.234375 0.734375
vt 0.015625 0.515625
vt 0.234375 0.515625
vt 0.234375 0.734375
vt 0.015625 0.515625
vt 0.234375 0.515625
vt 0.234375 0.734375
vt 0.015625 0.515625
vt 0.234375 0.515625
vt 0.234375 0.734375
vt 0.015625 0.515625
vt 0.234375 0.515625
vt 0.234375 0.734375
vt 0.015625 0.515625
vt 0.234375 0.515625
vt 0.234375 0.734375
vt 0.015625 0.515625
vt 0.234375 0.515625
vt 0.234375 0.734375
vt 0.265625 0.265625
vt 0.484375 0.265625
vt 0.484375 0.484375
vt 0.265625 0.265625
vt 0.484375 0.265625
vt 0.484375 0.484375
vt 0.265625 0.265625
vt 0.484375 0.265625
vt 0.484375 0.484375
vt 0.265625 0.265625
vt 0.484375 0.265625
vt 0.484375 0.484375
vt 0.265625 0.265625
vt 0.484375 0.265625
vt 0.484375 0.484375
vt 0.265625 0.265625
vt 0.484375 0.265625
vt 0.484375 0.484375
vt 0.265625 0.265625
vt 0.484375 0.265625
vt 0.484375 0.484375
vt 0.265625 0.265625
vt 0.484375 0.265625
vt 0.484375 0.484375
vt 0.265625 0.265625
vt 0.484375 0.265625
vt 0.484375 0.484375
vt 0.265625 0.265625
vt 0.484375 0.265625
vt 0.484375 0.484375
vt 0.265625 0.265625
vt 0.484375 0.265625
vt 0.484375 0.484375
vt 0.265625 0.265625
vt 0.484375 0.265625
vt 0.484375 0.484375
vt 0.265625 0.265625
vt 0.484375 0.265625
vt 0.484375 0.484375
vt 0.265625 0.265625
vt 0.484375 0.265625
vt 0.484375 0.484375
vt 0.265625 0.265625
vt 0.484375 0.265625
vt 0.484375 0.484375
vt 0.265625 0.265625
vt 0.484375 0.265625
vt 0.484375 0.484375
vt 0.015625 0.515625
vt 0.234375 0.515625
vt 0.234375 0.734375
vt 0.015625 0.734375
vt 0.015625 0.515625
vt 0.234375 0.515625
vt 0.234375 0.734375
vt 0.015625 0.515625
vt 0.234375 0.515625
vt 0.234375 0.734375
vt 0.015625 0.515625
vt 0.234375 0.515625
vt 0.234375 0.734375
vt 0.015625 0.734375
vt 0.015625 0.515625
vt 0.234375 0.515625
vt 0.234375 0.734375
vt 0.015625 0.515625
vt 0.234375 0.515625
vt 0.234375 0.734375
vt 0.015625 0.515625
vt 0.234375 0.515625
vt 0.234375 0.734375
vt 0.015625 0.734375
vt 0.015625 0.515625
vt 0.234375 0.515625
vt 0.234375 0.734375
vt 0.015625 0.515625
vt 0.234375 0.515625
vt 0.234375 0.734375
vt 0.015625 0.515625
vt 0.234375 0.515625
vt 0.234375 0.734375
vt 0.015625 0.734375
vt 0.015625 0.515625
vt 0.234375 0.515625
vt 0.234375 0.734375
vt 0.015625 0.515625
vt 0.234375 0.515625
vt 0.234375 0.734375
vt 0.015625 0.515625
vt 0.234375 0.515625
vt 0.234375 0.734375
vt 0.015625 0.515625
vt 0.234375 0.515625
vt 0.234375 0.734375
vt 0.015625 0.515625
vt 0.234375 0.515625
vt 0.234375 0.734375
vt 0.015625 0.515625
vt 0.234375 0.515625
vt 0.234375 0.734375
vt 0.015625 0.515625
vt 0.234375 0.515625
vt 0.234375 0.734375
vt 0.015625 0.515625
vt 0.234375 0.515625
vt 0.234375 0.734375
vt 0.015625 0.515625
vt 0.234375 0.515625
vt 0.234375 0.734375
vt 0.015625 0.515625
vt 0.234375 0.515625
vt 0.234375 0.734375
vt 0.015625 0.515625
vt 0.234375 0.515625
vt 0.234375 0.734375
vt 0.015625 0.515625
vt 0.234375 0.515625
vt 0.234375 0.734375
vt 0.015625 0.515625
vt 0.234375 0.515625
vt 0.234375 0.734375
vt 0.015625 0.515625
vt 0.234375 0.515625
vt 0.234375 0.734375
vt 0.015625 0.515625
vt 0.234375 0.515625
vt 0.234375 0.734375
vt 0.015625 0.515625
vt 0.234375 0.515625
vt 0.234375 0.734375
vt 0.015625 0.515625
vt 0.234375 0.515625
vt 0.234375 0.734375
vt 0.015625 0.515625
vt 0.234375 0.515625
vt 0.234375 0.734375
vt 0.265625 0.265625
vt 0.484375 0.265625
vt 0.484375 0.484375
vt 0.265625 0.265625
vt 0.484375 0.265625
vt 0.484375 0.484375
vt 0.265625 0.265625
vt 0.484375 0.265625
vt 0.484375 0.484375
vt 0.265625 0.265625
vt 0.484375 0.265625
vt 0.484375 0.484375
vt 0.265625 0.265625
vt 0.484375 0.265625
vt 0.484375 0.484375
vt 0.265625 0.265625
vt 0.484375 0.265625
vt 0.484375 0.484375
vt 0.265625 0.265625
vt 0.484375 0.265625
vt 0.484375 0.484375
vt 0.265625 0.265625
vt 0.484375 0.265625
vt 0.484375 0.484375
vt 0.265625 0.265625
vt 0.484375 0.265625
vt 0.484375 0.484375
vt 0.265625 0.265625
vt 0.484375 0.265625
vt 0.484375 0.484375
vt 0.265625 0.265625
vt 0.484375 0.265625
vt 0.484375 0.484375
vt 0.265625 0.265625
vt 0.484375 0.265625
vt 0.484375 0.484375
vt 0.265625 0.265625
vt 0.484375 0.265625
vt 0.484375 0.484375
vt 0.265625 0.265625
vt 0.484375 0.265625
vt 0.484375 0.484375
vt 0.265625 0.265625
vt 0.484375 0.265625
vt 0.484375 0.484375
vt 0.265625 0.265625
vt 0.484375 0.265625
vt 0.484375 0.484375
vt 0.015625 0.515625
vt 0.234375 0.515625
vt 0.234375 0.734375
vt 0.015625 0.734375
vt 0.015625 0.515625
vt 0.234375 0.515625
vt 0.234375 0.734375
vt 0.015625 0.515625
vt 0.234375 0.515625
vt 0.234375 0.734375
vt 0.015625 0.515625
vt 0.234375 0.515625
vt 0.234375 0.734375
vt 0.015625 0.734375
vt 0.015625 0.515625
vt 0.234375 0.515625
vt 0.234375 0.734375
vt 0.015625 0.515625
vt 0.234375 0.515625
vt 0.234375 0.734375
vt 0.015625 0.515625
vt 0.234375 0.515625
vt 0.234375 0.734375
vt 0.015625 0.734375
vt 0.015625 0.515625
vt 0.234375 0.515625
vt 0.234375 0.734375
vt 0.015625 0.515625
vt 0.234375 0.515625
vt 0.234375 0.734375
vt 0.015625 0.515625
vt 0.234375 0.515625
vt 0.234375 0.734375
vt 0.015625 0.734375
vt 0.015625 0.515625
vt 0.234375 0.515625
vt 0.234375 0.734375
vt 0.015625 0.515625
vt 0.234375 0.515625
vt 0.234375 0.734375
vt 0.015625 0.515625
vt 0.234375 0.515625
vt 0.234375 0.734375
vt 0.015625 0.515625
vt 0.234375 0.515625
vt 0.234375 0.734375
vt 0.015625 0.515625
vt 0.234375 0.515625
vt 0.234375 0.734375
vt 0.015625 0.515625
vt 0.234375 0.515625
vt 0.234375 0.734375
vt 0.015625 0.515625
vt 0.234375 0.515625
vt 0.234375 0.734375
vt 0.015625 0.515625
vt 0.234375 0.515625
vt 0.234375 0.734375
vt 0.015625 0.515625
vt 0.234375 0.515625
vt 0.234375 0.734375
vt 0.015625 0.515625
vt 0.234375 0.515625
vt 0.234375 0.734375
vt 0.015625 0.515625
vt 0.234375 0.515625
vt 0.234375 0.734375
vt 0.015625 0.515625
vt 0.234375 0.515625
vt 0.234375 0.734375
vt 0.015625 0.515625
vt 0.234375 0.515625
vt 0.234375 0.734375
vt 0.015625 0.515625
vt 0.234375 0.515625
vt 0.234375 0.734375
vt 0.015625 0.515625
vt 0.234375 0.515625
vt 0.234375 0.734375
vt 0.015625 0.515625
vt 0.234375 0.515625
vt 0.234375 0.734375
vt 0.015625 0.515625
vt 0.234375 0.515625
vt 0.234375 0.734375
vt 0.015625 0.515625
vt 0.234375 0.515625
vt 0.234375 0.734375
vt 0.265625 0.265625
vt 0.484375 0.265625
vt 0.484375 0.484375
vt 0.265625 0.265625
vt 0.484375 0.265625
vt 0.484375 0.484375
vt 0.265625 0.265625
vt 0.484375 0.265625
vt 0.484375 0.484375
vt 0.265625 0.265625
vt 0.484375 0.265625
vt 0.484375 0.484375
vt 0.265625 0.265625
vt 0.484375 0.265625
vt 0.484375 0.484375
vt 0.265625 0.265625
vt 0.484375 0.265625
vt 0.484375 0.484375
vt 0.265625 0.265625
vt 0.484375 0.265625
vt 0.484375 0.484375
vt 0.265625 0.265625
vt 0.484375 0.265625
vt 0.484375 0.484375
vt 0.265625 0.265625
vt 0.484375 0.265625
vt 0.484375 0.484375
vt 0.265625 0.265625
vt 0.484375 0.265625
vt 0.484375 0.484375
vt 0.265625 0.265625
vt 0.484375 0.265625
vt 0.484375 0.484375
vt 0.265625 0.265625
vt 0.484375 0.265625
vt 0.484375 0.484375
vt 0.265625 0.265625
vt 0.484375 0.265625
vt 0.484375 0.484375
vt 0.265625 0.265625
vt 0.484375 0.265625
vt 0.484375 0.484375
vt 0.265625 0.265625
vt 0.484375 0.265625
vt 0.484375 0.484375
vt 0.265625 0.265625
vt 0.484375 0.265625
vt 0.484375 0.484375
vn 0.00000000 0.00000000 -1.00000000
vn 0.00000000 0.00000000 1.00000000
vn -1.00000000 0.00000000 0.00000000
vn 1.00000000 0.00000000 0.00000000
vn 0.00000000 -1.00000000 0.00000000
vn 0.00000000 1.00000000 0.00000000
vn 0.00000000 0.00000000 -1.00000000
vn 0.00000000 0.00000000 1.00000000
vn -1.00000000 0.00000000 0.00000000
vn 1.00000000 0.00000000 0.00000000
vn 0.00000000 -1.00000000 0.00000000
vn 0.00000000 1.00000000 0.00000000
vn 0.00000000 0.00000000 -1.00000000
vn 0.00000000 0.00000000 1.00000000
vn -1.00000000 0.00000000 0.00000000
vn 1.00000000 0.00000000 0.00000000
vn 0.00000000 -1.00000000 0.00000000
vn 0.00000000 1.00000000 0.00000000
vn 0.00000000 0.00000000 -1.00000000
vn 0.00000000 0.00000000 1.00000000
vn -1.00000000 0.00000000 0.00000000
vn 1.00000000 0.00000000 0.00000000
vn 0.00000000 -1.00000000 0.00000000
vn 0.00000000 1.00000000 0.00000000
vn 0.00000000 0.00000000 -1.00000000
vn 0.00000000 0.00000000 1.00000000
vn -1.00000000 0.00000000 0.00000000
vn 1.00000000 0.00000000 0.00000000
vn 0.00000000 -1.00000000 0.00000000
vn 0.00000000 1.00000000 0.00000000
vn 0.00000000 0.00000000 -1.00000000
vn 0.00000000 0.00000000 1.00000000
vn -1.00000000 0.00000000 0.00000000
vn 1.00000000 0.00000000 0.00000000
vn 0.00000000 -1.00000000 0.00000000
vn 0.00000000 1.00000000 0.00000000
vn 0.70710678 0.00000000 -0.70710678
vn 0.00000000 -1.00000000 0.00000000
vn -0.00000000 1.00000000 0.00000000
vn -0.70710678 0.00000000 -0.70710678
vn -0.00000000 -1.00000000 -0.00000000
vn 0.00000000 1.00000000 0.00000000
vn -0.70710678 0.00000000 0.70710678
vn 0.00000000 -1.00000000 0.00000000
vn 0.00000000 1.00000000 -0.00000000
vn 0.70710678 0.00000000 0.70710678
vn 0.00000000 -1.00000000 0.00000000
vn 0.00000000 1.00000000 0.00000000
vn -0.28365745 0.83428661 0.47276241
vn -0.28365745 -0.83428661 0.47276241
vn 0.28365745 0.83428661 0.47276241
vn 0.28365745 -0.83428661 0.47276241
vn 0.28365745 0.83428661 -0.47276241
vn 0.28365745 -0.83428661 -0.47276241
vn -0.28365745 0.83428661 -0.47276241
vn -0.28365745 -0.83428661 -0.47276241
vn -0.28365745 0.83428661 0.47276241
vn -0.28365745 -0.83428661 0.47276241
vn 0.28365745 0.83428661 0.47276241
vn 0.28365745 -0.83428661 0.47276241
vn 0.28365745 0.83428661 -0.47276241
vn 0.28365745 -0.83428661 -0.47276241
vn -0.28365745 0.83428661 -0.47276241
vn -0.28365745 -0.83428661 -0.47276241
vn -0.71127309 0.25103756 0.65655977
vn -0.71127309 -0.25103756 0.65655977
vn 0.71127309 0.25103756 0.65655977
vn 0.71127309 -0.25103756 0.65655977
vn 0.71127309 0.25103756 -0.65655977
vn 0.71127309 -0.25103756 -0.65655977
vn -0.71127309 0.25103756 -0.65655977
vn -0.71127309 -0.25103756 -0.65655977
vn -0.71127309 0.25103756 0.65655977
vn -0.71127309 -0.25103756 0.65655977
vn 0.71127309 0.25103756 0.65655977
vn 0.71127309 -0.25103756 0.65655977
vn 0.71127309 0.25103756 -0.65655977
vn 0.71127309 -0.25103756 -0.65655977
vn -0.71127309 0.25103756 -0.65655977
vn -0.71127309 -0.25103756 -0.65655977
vn 0.70710678 0.00000000 -0.70710678
vn 0.00000000 -1.00000000 0.00000000
vn -0.00000000 1.00000000 0.00000000
vn -0.70710678 0.00000000 -0.70710678
vn 0.00000000 -1.00000000 -0.00000000
vn 0.00000000 1.00000000 0.00000000
vn -0.70710678 0.00000000 0.70710678
vn -0.00000000 -1.00000000 0.00000000
vn 0.00000000 1.00000000 -0.00000000
vn 0.70710678 0.00000000 0.70710678
vn 0.00000000 -1.00000000 0.00000000
vn 0.00000000 1.00000000 0.00000000
vn -0.28365745 0.83428661 0.47276241
vn -0.28365745 -0.83428661 0.47276241
vn 0.28365745 0.83428661 0.47276241
vn 0.28365745 -0.83428661 0.47276241
vn 0.28365745 0.83428661 -0.47276241
vn 0.28365745 -0.83428661 -0.47276241
vn -0.28365745 0.83428661 -0.47276241
vn -0.28365745 -0.83428661 -0.47276241
vn -0.28365745 0.83428661 0.47276241
vn -0.28365745 -0.83428661 0.47276241
vn 0.28365745 0.83428661 0.47276241
vn 0.28365745 -0.83428661 0.47276241
vn 0.28365745 0.83428661 -0.47276241
vn 0.28365745 -0.83428661 -0.47276241
vn -0.28365745 0.83428661 -0.47276241
vn -0.28365745 -0.83428661 -0.47276241
vn -0.71127309 0.25103756 0.65655977
vn -0.71127309 -0.25103756 0.65655977
vn 0.71127309 0.25103756 0.65655977
vn 0.71127309 -0.25103756 0.65655977
vn 0.71127309 0.25103756 -0.65655977
vn 0.71127309 -0.25103756 -0.65655977
vn -0.71127309 0.25103756 -0.65655977
vn -0.71127309 -0.25103756 -0.65655977
vn -0.71127309 0.25103756 0.65655977
vn -0.71127309 -0.25103756 0.65655977
vn 0.71127309 0.25103756 0.65655977
vn 0.71127309 -0.25103756 0.65655977
vn 0.71127309 0.25103756 -0.65655977
vn 0.71127309 -0.25103756 -0.65655977
vn -0.71127309 0.25103756 -0.65655977
vn -0.71127309 -0.25103756 -0.65655977
vn 0.70710678 0.00000000 -0.70710678
vn 0.00000000 -1.00000000 0.00000000
vn -0.00000000 1.00000000 0.00000000
vn -0.70710678 0.00000000 -0.70710678
vn -0.00000000 -1.00000000 -0.00000000
vn 0.00000000 1.00000000 0.00000000
vn -0.70710678 0.00000000 0.70710678
vn 0.00000000 -1.00000000 0.00000000
vn 0.00000000 1.00000000 -0.00000000
vn 0.70710678 0.00000000 0.70710678
vn 0.00000000 -1.00000000 0.00000000
vn 0.00000000 1.00000000 0.00000000
vn -0.28365745 0.83428661 0.47276241
vn -0.28365745 -0.83428661 0.47276241
vn 0.28365745 0.83428661 0.47276241
vn 0.28365745 -0.83428661 0.47276241
vn 0.28365745 0.83428661 -0.47276241
vn 0.28365745 -0.83428661 -0.47276241
vn -0.28365745 0.83428661 -0.47276241
vn -0.28365745 -0.83428661 -0.47276241
vn -0.28365745 0.83428661 0.47276241
vn -0.28365745 -0.83428661 0.47276241
vn 0.28365745 0.83428661 0.47276241
vn 0.28365745 -0.83428661 0.47276241
vn 0.28365745 0.83428661 -0.47276241
vn 0.28365745 -0.83428661 -0.47276241
vn -0.28365745 0.83428661 -0.47276241
vn -0.28365745 -0.83428661 -0.47276241
vn -0.71127309 0.25103756 0.65655977
vn -0.71127309 -0.25103756 0.65655977
vn 0.71127309 0.25103756 0.65655977
vn 0.71127309 -0.25103756 0.65655977
vn 0.71127309 0.25103756 -0.65655977
vn 0.71127309 -0.25103756 -0.65655977
vn -0.71127309 0.25103756 -0.65655977
vn -0.71127309 -0.25103756 -0.65655977
vn -0.71127309 0.25103756 0.65655977
vn -0.71127309 -0.25103756 0.65655977
vn 0.71127309 0.25103756 0.65655977
vn 0.71127309 -0.25103756 0.65655977
vn 0.71127309 0.25103756 -0.65655977
vn 0.71127309 -0.25103756 -0.65655977
vn -0.71127309 0.25103756 -0.65655977
vn -0.71127309 -0.25103756 -0.65655977
vn 0.70710678 0.00000000 -0.70710678
vn 0.00000000 -1.00000000 0.00000000
vn -0.00000000 1.00000000 0.00000000
vn -0.70710678 0.00000000 -0.70710678
vn -0.00000000 -1.00000000 -0.00000000
vn 0.00000000 1.00000000 0.00000000
vn -0.70710678 0.00000000 0.70710678
vn 0.00000000 -1.00000000 0.00000000
vn 0.00000000 1.00000000 -0.00000000
vn 0.70710678 0.00000000 0.70710678
vn 0.00000000 -1.00000000 0.00000000
vn 0.00000000 1.00000000 0.00000000
vn -0.28365745 0.83428661 0.47276241
vn -0.28365745 -0.83428661 0.47276241
vn 0.28365745 0.83428661 0.47276241
vn 0.28365745 -0.83428661 0.47276241
vn 0.28365745 0.83428661 -0.47276241
vn 0.28365745 -0.83428661 -0.47276241
vn -0.28365745 0.83428661 -0.47276241
vn -0.28365745 -0.83428661 -0.47276241
vn -0.28365745 0.83428661 0.47276241
vn -0.28365745 -0.83428661 0.47276241
vn 0.28365745 0.83428661 0.47276241
vn 0.28365745 -0.83428661 0.47276241
vn 0.28365745 0.83428661 -0.47276241
vn 0.28365745 -0.83428661 -0.47276241
vn -0.28365745 0.83428661 -0.47276241
vn -0.28365745 -0.83428661 -0.47276241
vn -0.71127309 0.25103756 0.65655977
vn -0.71127309 -0.25103756 0.65655977
vn 0.71127309 0.25103756 0.65655977
vn 0.71127309 -0.25103756 0.65655977
vn 0.71127309 0.25103756 -0.65655977
vn 0.71127309 -0.25103756 -0.65655977
vn -0.71127309 0.25103756 -0.65655977
vn -0.71127309 -0.25103756 -0.65655977
vn -0.71127309 0.25103756 0.65655977
vn -0.71127309 -0.25103756 0.65655977
vn 0.71127309 0.25103756 0.65655977
vn 0.71127309 -0.25103756 0.65655977
vn 0.71127309 0.25103756 -0.65655977
vn 0.71127309 -0.25103756 -0.65655977
vn -0.71127309 0.25103756 -0.65655977
vn -0.71127309 -0.25103756 -0.65655977
vn 0.70710678 0.00000000 -0.70710678
vn 0.00000000 -1.00000000 0.00000000
vn -0.00000000 1.00000000 0.00000000
vn -0.70710678 0.00000000 -0.70710678
vn 0.00000000 -1.00000000 -0.00000000
vn 0.00000000 1.00000000 0.00000000
vn -0.70710678 0.00000000 0.70710678
vn -0.00000000 -1.00000000 0.00000000
vn 0.00000000 1.00000000 -0.00000000
vn 0.70710678 0.00000000 0.70710678
vn 0.00000000 -1.00000000 0.00000000
vn 0.00000000 1.00000000 0.00000000
vn -0.28365745 0.83428661 0.47276241
vn -0.28365745 -0.83428661 0.47276241
vn 0.28365745 0.83428661 0.47276241
vn 0.28365745 -0.83428661 0.47276241
vn 0.28365745 0.83428661 -0.47276241
vn 0.28365745 -0.83428661 -0.47276241
vn -0.28365745 0.83428661 -0.47276241
vn -0.28365745 -0.83428661 -0.47276241
vn -0.28365745 0.83428661 0.47276241
vn -0.28365745 -0.83428661 0.47276241
vn 0.28365745 0.83428661 0.47276241
vn 0.28365745 -0.83428661 0.47276241
vn 0.28365745 0.83428661 -0.47276241
vn 0.28365745 -0.83428661 -0.47276241
vn -0.28365745 0.83428661 -0.47276241
vn -0.28365745 -0.83428661 -0.47276241
vn -0.71127309 0.25103756 0.65655977
vn -0.71127309 -0.25103756 0.65655977
vn 0.71127309 0.25103756 0.65655977
vn 0.71127309 -0.25103756 0.65655977
vn 0.71127309 0.25103756 -0.65655977
vn 0.71127309 -0.25103756 -0.65655977
vn -0.71127309 0.25103756 -0.65655977
vn -0.71127309 -0.25103756 -0.65655977
vn -0.71127309 0.25103756 0.65655977
vn -0.71127309 -0.25103756 0.65655977
vn 0.71127309 0.25103756 0.65655977
vn 0.71127309 -0.25103756 0.65655977
vn 0.71127309 0.25103756 -0.65655977
vn 0.71127309 -0.25103756 -0.65655977
vn -0.71127309 0.25103756 -0.65655977
vn -0.71127309 -0.25103756 -0.65655977
vn 0.70710678 0.00000000 -0.70710678
vn 0.00000000 -1.00000000 0.00000000
vn -0.00000000 1.00000000 0.00000000
vn -0.70710678 0.00000000 -0.70710678
vn -0.00000000 -1.00000000 -0.00000000
vn 0.00000000 1.00000000 0.00000000
vn -0.70710678 0.00000000 0.70710678
vn 0.00000000 -1.00000000 0.00000000
vn 0.00000000 1.00000000 -0.00000000
vn 0.70710678 0.00000000 0.70710678
vn 0.00000000 -1.00000000 0.00000000
vn 0.00000000 1.00000000 0.00000000
vn -0.28365745 0.83428661 0.47276241
vn -0.28365745 -0.83428661 0.47276241
vn 0.28365745 0.83428661 0.47276241
vn 0.28365745 -0.83428661 0.47276241
vn 0.28365745 0.83428661 -0.47276241
vn 0.28365745 -0.83428661 -0.47276241
vn -0.28365745 0.83428661 -0.47276241
vn -0.28365745 -0.83428661 -0.47276241
vn -0.28365745 0.83428661 0.47276241
vn -0.28365745 -0.83428661 0.47276241
vn 0.28365745 0.83428661 0.47276241
vn 0.28365745 -0.83428661 0.47276241
vn 0.28365745 0.83428661 -0.47276241
vn 0.28365745 -0.83428661 -0.47276241
vn -0.28365745 0.83428661 -0.47276241
vn -0.28365745 -0.83428661 -0.47276241
vn -0.71127309 0.25103756 0.65655977
vn -0.71127309 -0.25103756 0.65655977
vn 0.71127309 0.25103756 0.65655977
vn 0.71127309 -0.25103756 0.65655977
vn 0.71127309 0.25103756 -0.65655977
vn 0.71127309 -0.25103756 -0.65655977
vn -0.71127309 0.25103756 -0.65655977
vn -0.71127309 -0.25103756 -0.65655977
vn -0.71127309 0.25103756 0.65655977
vn -0.71127309 -0.25103756 0.65655977
vn 0.71127309 0.25103756 0.65655977
vn 0.71127309 -0.25103756 0.65655977
vn 0.71127309 0.25103756 -0.65655977
vn 0.71127309 -0.25103756 -0.65655977
vn -0.71127309 0.25103756 -0.65655977
vn -0.71127309 -0.25103756 -0.65655977
vn 0.70710678 0.00000000 -0.70710678
vn 0.00000000 -1.00000000 0.00000000
vn -0.00000000 1.00000000 0.00000000
vn -0.70710678 0.00000000 -0.70710678
vn -0.00000000 -1.00000000 -0.00000000
vn 0.00000000 1.00000000 0.00000000
vn -0.70710678 0.00000000 0.70710678
vn 0.00000000 -1.00000000 0.00000000
vn 0.00000000 1.00000000 -0.00000000
vn 0.70710678 0.00000000 0.70710678
vn 0.00000000 -1.00000000 0.00000000
vn 0.00000000 1.00000000 0.00000000
vn -0.28365745 0.83428661 0.47276241
vn -0.28365745 -0.83428661 0.47276241
vn 0.28365745 0.83428661 0.47276241
vn 0.28365745 -0.83428661 0.47276241
vn 0.28365745 0.83428661 -0.47276241
vn 0.28365745 -0.83428661 -0.47276241
vn -0.28365745 0.83428661 -0.47276241
vn -0.28365745 -0.83428661 -0.47276241
vn -0.28365745 0.83428661 0.47276241
vn -0.28365745 -0.83428661 0.47276241
vn 0.28365745 0.83428661 0.47276241
vn 0.28365745 -0.83428661 0.47276241
vn 0.28365745 0.83428661 -0.47276241
vn 0.28365745 -0.83428661 -0.47276241
vn -0.28365745 0.83428661 -0.47276241
vn -0.28365745 -0.83428661 -0.47276241
vn -0.71127309 0.25103756 0.65655977
vn -0.71127309 -0.25103756 0.65655977
vn 0.71127309 0.25103756 0.65655977
vn 0.71127309 -0.25103756 0.65655977
vn 0.71127309 0.25103756 -0.65655977
vn 0.71127309 -0.25103756 -0.65655977
vn -0.71127309 0.25103756 -0.65655977
vn -0.71127309 -0.25103756 -0.65655977
vn -0.71127309 0.25103756 0.65655977
vn -0.71127309 -0.25103756 0.65655977
vn 0.71127309 0.25103756 0.65655977
vn 0.71127309 -0.25103756 0.65655977
vn 0.71127309 0.25103756 -0.65655977
vn 0.71127309 -0.25103756 -0.65655977
vn -0.71127309 0.25103756 -0.65655977
vn -0.71127309 -0.25103756 -0.65655977
vn 0.70710678 0.00000000 -0.70710678
vn 0.00000000 -1.00000000 0.00000000
vn -0.00000000 1.00000000 0.00000000
vn -0.70710678 0.00000000 -0.70710678
vn 0.00000000 -1.00000000 -0.00000000
vn 0.00000000 1.00000000 0.00000000
vn -0.70710678 0.00000000 0.70710678
vn -0.00000000 -1.00000000 0.00000000
vn 0.00000000 1.00000000 -0.00000000
vn 0.70710678 0.00000000 0.70710678
vn 0.00000000 -1.00000000 0.00000000
vn 0.00000000 1.00000000 0.00000000
vn -0.28365745 0.83428661 0.47276241
vn -0.28365745 -0.83428661 0.47276241
vn 0.28365745 0.83428661 0.47276241
vn 0.28365745 -0.83428661 0.47276241
vn 0.28365745 0.83428661 -0.47276241
vn 0.28365745 -0.83428661 -0.47276241
vn -0.28365745 0.83428661 -0.47276241
vn -0.28365745 -0.83428661 -0.47276241
vn -0.28365745 0.83428661 0.47276241
vn -0.28365745 -0.83428661 0.47276241
vn 0.28365745 0.83428661 0.47276241
vn 0.28365745 -0.83428661 0.47276241
vn 0.28365745 0.83428661 -0.47276241
vn 0.28365745 -0.83428661 -0.47276241
vn -0.28365745 0.83428661 -0.47276241
vn -0.28365745 -0.83428661 -0.47276241
vn -0.71127309 0.25103756 0.65655977
vn -0.71127309 -0.25103756 0.65655977
vn 0.71127309 0.25103756 0.65655977
vn 0.71127309 -0.25103756 0.65655977
vn 0.71127309 0.25103756 -0.65655977
vn 0.71127309 -0.25103756 -0.65655977
vn -0.71127309 0.25103756 -0.65655977
vn -0.71127309 -0.25103756 -0.65655977
vn -0.71127309 0.25103756 0.65655977
vn -0.71127309 -0.25103756 0.65655977
vn 0.71127309 0.25103756 0.65655977
vn 0.71127309 -0.25103756 0.65655977
vn 0.71127309 0.25103756 -0.65655977
vn 0.71127309 -0.25103756 -0.65655977
vn -0.71127309 0.25103756 -0.65655977
vn -0.71127309 -0.25103756 -0.65655977
vn 0.70710678 0.00000000 -0.70710678
vn 0.00000000 -1.00000000 0.00000000
vn -0.00000000 1.00000000 0.00000000
vn -0.70710678 0.00000000 -0.70710678
vn -0.00000000 -1.00000000 -0.00000000
vn 0.00000000 1.00000000 0.00000000
vn -0.70710678 0.00000000 0.70710678
vn 0.00000000 -1.00000000 0.00000000
vn 0.00000000 1.00000000 -0.00000000
vn 0.70710678 0.00000000 0.70710678
vn 0.00000000 -1.00000000 0.00000000
vn 0.00000000 1.00000000 0.00000000
vn -0.28365745 0.83428661 0.47276241
vn -0.28365745 -0.83428661 0.47276241
vn 0.28365745 0.83428661 0.47276241
vn 0.28365745 -0.83428661 0.47276241
vn 0.28365745 0.83428661 -0.47276241
vn 0.28365745 -0.83428661 -0.47276241
vn -0.28365745 0.83428661 -0.47276241
vn -0.28365745 -0.83428661 -0.47276241
vn -0.28365745 0.83428661 0.47276241
vn -0.28365745 -0.83428661 0.47276241
vn 0.28365745 0.83428661 0.47276241
vn 0.28365745 -0.83428661 0.47276241
vn 0.28365745 0.83428661 -0.47276241
vn 0.28365745 -0.83428661 -0.47276241
vn -0.28365745 0.83428661 -0.47276241
vn -0.28365745 -0.83428661 -0.47276241
vn -0.71127309 0.25103756 0.65655977
vn -0.71127309 -0.25103756 0.65655977
vn 0.71127309 0.25103756 0.65655977
vn 0.71127309 -0.25103756 0.65655977
vn 0.71127309 0.25103756 -0.65655977
vn 0.71127309 -0.25103756 -0.65655977
vn -0.71127309 0.25103756 -0.65655977
vn -0.71127309 -0.25103756 -0.65655977
vn -0.71127309 0.25103756 0.65655977
vn -0.71127309 -0.25103756 0.65655977
vn 0.71127309 0.25103756 0.65655977
vn 0.71127309 -0.25103756 0.65655977
vn 0.71127309 0.25103756 -0.65655977
vn 0.71127309 -0.25103756 -0.65655977
vn -0.71127309 0.25103756 -0.65655977
vn -0.71127309 -0.25103756 -0.65655977
vn 0.70710678 0.00000000 -0.70710678
vn 0.00000000 -1.00000000 0.00000000
vn -0.00000000 1.00000000 0.00000000
vn -0.70710678 0.00000000 -0.70710678
vn -0.00000000 -1.00000000 -0.00000000
vn 0.00000000 1.00000000 0.00000000
vn -0.70710678 0.00000000 0.70710678
vn 0.00000000 -1.00000000 0.00000000
vn 0.00000000 1.00000000 -0.00000000
vn 0.70710678 0.00000000 0.70710678
vn 0.00000000 -1.00000000 0.00000000
vn 0.00000000 1.00000000 0.00000000
vn -0.28365745 0.83428661 0.47276241
vn -0.28365745 -0.83428661 0.47276241
vn 0.28365745 0.83428661 0.47276241
vn 0.28365745 -0.83428661 0.47276241
vn 0.28365745 0.83428661 -0.47276241
vn 0.28365745 -0.83428661 -0.47276241
vn -0.28365745 0.83428661 -0.47276241
vn -0.28365745 -0.83428661 -0.47276241
vn -0.28365745 0.83428661 0.47276241
vn -0.28365745 -0.83428661 0.47276241
vn 0.28365745 0.83428661 0.47276241
vn 0.28365745 -0.83428661 0.47276241
vn 0.28365745 0.83428661 -0.47276241
vn 0.28365745 -0.83428661 -0.47276241
vn -0.28365745 0.83428661 -0.47276241
vn -0.28365745 -0.83428661 -0.47276241
vn -0.71127309 0.25103756 0.65655977
vn -0.71127309 -0.25103756 0.65655977
vn 0.71127309 0.25103756 0.65655977
vn 0.71127309 -0.25103756 0.65655977
vn 0.71127309 0.25103756 -0.65655977
vn 0.71127309 -0.25103756 -0.65655977
vn -0.71127309 0.25103756 -0.65655977
vn -0.71127309 -0.25103756 -0.65655977
vn -0.71127309 0.25103756 0.65655977
vn -0.71127309 -0.25103756 0.65655977
vn 0.71127309 0.25103756 0.65655977
vn 0.71127309 -0.25103756 0.65655977
vn 0.71127309 0.25103756 -0.65655977
vn 0.71127309 -0.25103756 -0.65655977
vn -0.71127309 0.25103756 -0.65655977
vn -0.71127309 -0.25103756 -0.65655977
vn 0.70710678 0.00000000 -0.70710678
vn 0.00000000 -1.00000000 0.00000000
vn -0.00000000 1.00000000 0.00000000
vn -0.70710678 0.00000000 -0.70710678
vn 0.00000000 -1.00000000 -0.00000000
vn 0.00000000 1.00000000 0.00000000
vn -0.70710678 0.00000000 0.70710678
vn -0.00000000 -1.00000000 0.00000000
vn 0.00000000 1.00000000 -0.00000000
vn 0.70710678 0.00000000 0.70710678
vn 0.00000000 -1.00000000 0.00000000
vn 0.00000000 1.00000000 0.00000000
vn -0.28365745 0.83428661 0.47276241
vn -0.28365745 -0.83428661 0.47276241
vn 0.28365745 0.83428661 0.47276241
vn 0.28365745 -0.83428661 0.47276241
vn 0.28365745 0.83428661 -0.47276241
vn 0.28365745 -0.83428661 -0.47276241
vn -0.28365745 0.83428661 -0.47276241
vn -0.28365745 -0.83428661 -0.47276241
vn -0.28365745 0.83428661 0.47276241
vn -0.28365745 -0.83428661 0.47276241
vn 0.28365745 0.83428661 0.47276241
vn 0.28365745 -0.83428661 0.47276241
vn 0.28365745 0.83428661 -0.47276241
vn 0.28365745 -0.83428661 -0.47276241
vn -0.28365745 0.83428661 -0.47276241
vn -0.28365745 -0.83428661 -0.47276241
vn -0.71127309 0.25103756 0.65655977
vn -0.71127309 -0.25103756 0.65655977
vn 0.71127309 0.25103756 0.65655977
vn 0.71127309 -0.25103756 0.65655977
vn 0.71127309 0.25103756 -0.65655977
vn 0.71127309 -0.25103756 -0.65655977
vn -0.71127309 0.25103756 -0.65655977
vn -0.71127309 -0.25103756 -0.65655977
vn -0.71127309 0.25103756 0.65655977
vn -0.71127309 -0.25103756 0.65655977
vn 0.71127309 0.25103756 0.65655977
vn 0.71127309 -0.25103756 0.65655977
vn 0.71127309 0.25103756 -0.65655977
vn 0.71127309 -0.25103756 -0.65655977
vn -0.71127309 0.25103756 -0.65655977
vn -0.71127309 -0.25103756 -0.65655977
vn 0.70710678 0.00000000 -0.70710678
vn 0.00000000 -1.00000000 0.00000000
vn -0.00000000 1.00000000 0.00000000
vn -0.70710678 0.00000000 -0.70710678
vn -0.00000000 -1.00000000 -0.00000000
vn 0.00000000 1.00000000 0.00000000
vn -0.70710678 0.00000000 0.70710678
vn 0.00000000 -1.00000000 0.00000000
vn 0.00000000 1.00000000 -0.00000000
vn 0.70710678 0.00000000 0.70710678
vn 0.00000000 -1.00000000 0.00000000
vn 0.00000000 1.00000000 0.00000000
vn -0.28365745 0.83428661 0.47276241
vn -0.28365745 -0.83428661 0.47276241
vn 0.28365745 0.83428661 0.47276241
vn 0.28365745 -0.83428661 0.47276241
vn 0.28365745 0.83428661 -0.47276241
vn 0.28365745 -0.83428661 -0.47276241
vn -0.28365745 0.83428661 -0.47276241
vn -0.28365745 -0.83428661 -0.47276241
vn -0.28365745 0.83428661 0.47276241
vn -0.28365745 -0.83428661 0.47276241
vn 0.28365745 0.83428661 0.47276241
vn 0.28365745 -0.83428661 0.47276241
vn 0.28365745 0.83428661 -0.47276241
vn 0.28365745 -0.83428661 -0.47276241
vn -0.28365745 0.83428661 -0.47276241
vn -0.28365745 -0.83428661 -0.47276241
vn -0.71127309 0.25103756 0.65655977
vn -0.71127309 -0.25103756 0.65655977
vn 0.71127309 0.25103756 0.65655977
vn 0.71127309 -0.25103756 0.65655977
vn 0.71127309 0.25103756 -0.65655977
vn 0.71127309 -0.25103756 -0.65655977
vn -0.71127309 0.25103756 -0.65655977
vn -0.71127309 -0.25103756 -0.65655977
vn -0.71127309 0.25103756 0.65655977
vn -0.71127309 -0.25103756 0.65655977
vn 0.71127309 0.25103756 0.65655977
vn 0.71127309 -0.25103756 0.65655977
vn 0.71127309 0.25103756 -0.65655977
vn 0.71127309 -0.25103756 -0.65655977
vn -0.71127309 0.25103756 -0.65655977
vn -0.71127309 -0.25103756 -0.65655977
f 1/1/1 4/2/1 3/3/1
f 1/1/1 3/3/1 2/4/1
f 5/5/2 6/6/2 7/7/2
f 5/5/2 7/7/2 8/8/2
f 1/9/3 5/10/3 8/11/3
f 1/9/3 8/11/3 4/12/3
f 2/13/4 3/14/4 7/15/4
f 2/13/4 7/15/4 6/16/4
f 1/17/5 2/18/5 6/19/5
f 1/17/5 6/19/5 5/20/5
f 4/21/6 8/22/6 7/23/6
f 4/21/6 7/23/6 3/24/6
f 9/25/7 12/26/7 11/27/7
f 9/25/7 11/27/7 10/28/7
f 13/29/8 14/30/8 15/31/8
f 13/29/8 15/31/8 16/32/8
f 9/33/9 13/34/9 16/35/9
f 9/33/9 16/35/9 12/36/9
f 10/37/10 11/38/10 15/39/10
f 10/37/10 15/39/10 14/40/10
f 9/41/11 10/42/11 14/43/11
f 9/41/11 14/43/11 13/44/11
f 12/45/12 16/46/12 15/47/12
f 12/45/12 15/47/12 11/48/12
f 17/49/13 20/50/13 19/51/13
f 17/49/13 19/51/13 18/52/13
f 21/53/14 22/54/14 23/55/14
f 21/53/14 23/55/14 24/56/14
f 17/57/15 21/58/15 24/59/15
f 17/57/15 24/59/15 20/60/15
f 18/61/16 19/62/16 23/63/16
f 18/61/16 23/63/16 22/64/16
f 17/65/17 18/66/17 22/67/17
f 17/65/17 22/67/17 21/68/17
f 20/69/18 24/70/18 23/71/18
f 20/69/18 23/71/18 19/72/18
f 25/73/19 28/74/19 27/75/19
f 25/73/19 27/75/19 26/76/19
f 29/77/20 30/78/20 31/79/20
f 29/77/20 31/79/20 32/80/20
f 25/81/21 29/82/21 32/83/21
f 25/81/21 32/83/21 28/84/21
f 26/85/22 27/86/22 31/87/22
f 26/85/22 31/87/22 30/88/22
f 25/89/23 26/90/23 30/91/23
f 25/89/23 30/91/23 29/92/23
f 28/93/24 32/94/24 31/95/24
f 28/93/24 31/95/24 27/96/24
f 21/97/25 24/98/25 34/99/25
f 21/97/25 34/99/25 33/100/25
f 25/101/26 35/102/26 36/103/26
f 25/101/26 36/103/26 28/104/26
f 21/105/27 25/106/27 28/107/27
f 21/105/27 28/107/27 24/108/27
f 33/109/28 34/110/28 36/111/28
f 33/109/28 36/111/28 35/112/28
f 21/113/29 33/114/29 35/115/29
f 21/113/29 35/115/29 25/116/29
f 24/117/30 28/118/30 36/119/30
f 24/117/30 36/119/30 34/120/30
f 37/121/31 38/122/31 23/123/31
f 37/121/31 23/123/31 22/124/31
f 39/125/32 26/126/32 27/127/32
f 39/125/32 27/127/32 40/128/32
f 37/129/33 39/130/33 40/131/33
f 37/129/33 40/131/33 38/132/33
f 22/133/34 23/134/34 27/135/34
f 22/133/34 27/135/34 26/136/34
f 37/137/35 22/138/35 26/139/35
f 37/137/35 26/139/35 39/140/35
f 38/141/36 40/142/36 27/143/36
f 38/141/36 27/143/36 23/144/36
f 41/145/37 42/146/37 43/147/37
f 41/145/37 43/147/37 44/148/37
f 45/149/38 42/150/38 41/151/38
f 46/152/39 44/153/39 43/154/39
f 42/155/40 47/156/40 48/157/40
f 42/155/40 48/157/40 43/158/40
f 45/159/41 47/160/41 42/161/41
f 46/162/42 43/163/42 48/164/42
f 47/165/43 49/166/43 50/167/43
f 47/165/43 50/167/43 48/168/43
f 45/169/44 49/170/44 47/171/44
f 46/172/45 48/173/45 50/174/45
f 49/175/46 41/176/46 44/177/46
f 49/175/46 44/177/46 50/178/46
f 45/179/47 41/180/47 49/181/47
f 46/182/48 50/183/48 44/184/48
f 51/185/49 52/186/49 53/187/49
f 54/188/50 53/189/50 52/190/50
f 51/191/51 53/192/51 55/193/51
f 54/194/52 55/195/52 53/196/52
f 51/197/53 55/198/53 56/199/53
f 54/200/54 56/201/54 55/202/54
f 51/203/55 56/204/55 52/205/55
f 54/206/56 52/207/56 56/208/56
f 57/209/57 58/210/57 59/211/57
f 60/212/58 59/213/58 58/214/58
f 57/215/59 59/216/59 61/217/59
f 60/218/60 61/219/60 59/220/60
f 57/221/61 61/222/61 62/223/61
f 60/224/62 62/225/62 61/226/62
f 57/227/63 62/228/63 58/229/63
f 60/230/64 58/231/64 62/232/64
f 63/233/65 64/234/65 65/235/65
f 66/236/66 65/237/66 64/238/66
f 63/239/67 65/240/67 67/241/67
f 66/242/68 67/243/68 65/244/68
f 63/245/69 67/246/69 68/247/69
f 66/248/70 68/249/70 67/250/70
f 63/251/71 68/252/71 64/253/71
f 66/254/72 64/255/72 68/256/72
f 69/257/73 70/258/73 71/259/73
f 72/260/74 71/261/74 70/262/74
f 69/263/75 71/264/75 73/265/75
f 72/266/76 73/267/76 71/268/76
f 69/269/77 73/270/77 74/271/77
f 72/272/78 74/273/78 73/274/78
f 69/275/79 74/276/79 70/277/79
f 72/278/80 70/279/80 74/280/80
f 75/281/81 76/282/81 77/283/81
f 75/281/81 77/283/81 78/284/81
f 79/285/82 76/286/82 75/287/82
f 80/288/83 78/289/83 77/290/83
f 76/291/84 81/292/84 82/293/84
f 76/291/84 82/293/84 77/294/84
f 79/295/85 81/296/85 76/297/85
f 80/298/86 77/299/86 82/300/86
f 81/301/87 83/302/87 84/303/87
f 81/301/87 84/303/87 82/304/87
f 79/305/88 83/306/88 81/307/88
f 80/308/89 82/309/89 84/310/89
f 83/311/90 75/312/90 78/313/90
f 83/311/90 78/313/90 84/314/90
f 79/315/91 75/316/91 83/317/91
f 80/318/92 84/319/92 78/320/92
f 85/321/93 86/322/93 87/323/93
f 88/324/94 87/325/94 86/326/94
f 85/327/95 87/328/95 89/329/95
f 88/330/96 89/331/96 87/332/96
f 85/333/97 89/334/97 90/335/97
f 88/336/98 90/337/98 89/338/98
f 85/339/99 90/340/99 86/341/99
f 88/342/100 86/343/100 90/344/100
f 91/345/101 92/346/101 93/347/101
f 94/348/102 93/349/102 92/350/102
f 91/351/103 93/352/103 95/353/103
f 94/354/104 95/355/104 93/356/104
f 91/357/105 95/358/105 96/359/105
f 94/360/106 96/361/106 95/362/106
f 91/363/107 96/364/107 92/365/107
f 94/366/108 92/367/108 96/368/108
f 97/369/109 98/370/109 99/371/109
f 100/372/110 99/373/110 98/374/110
f 97/375/111 99/376/111 101/377/111
f 100/378/112 101/379/112 99/380/112
f 97/381/113 101/382/113 102/383/113
f 100/384/114 102/385/114 101/386/114
f 97/387/115 102/388/115 98/389/115
f 100/390/116 98/391/116 102/392/116
f 103/393/117 104/394/117 105/395/117
f 106/396/118 105/397/118 104/398/118
f 103/399/119 105/400/119 107/401/119
f 106/402/120 107/403/120 105/404/120
f 103/405/121 107/406/121 108/407/121
f 106/408/122 108/409/122 107/410/122
f 103/411/123 108/412/123 104/413/123
f 106/414/124 104/415/124 108/416/124
f 109/417/125 110/418/125 111/419/125
f 109/417/125 111/419/125 112/420/125
f 113/421/126 110/422/126 109/423/126
f 114/424/127 112/425/127 111/426/127
f 110/427/128 115/428/128 116/429/128
f 110/427/128 116/429/128 111/430/128
f 113/431/129 115/432/129 110/433/129
f 114/434/130 111/435/130 116/436/130
f 115/437/131 117/438/131 118/439/131
f 115/437/131 118/439/131 116/440/131
f 113/441/132 117/442/132 115/443/132
f 114/444/133 116/445/133 118/446/133
f 117/447/134 109/448/134 112/449/134
f 117/447/134 112/449/134 118/450/134
f 113/451/135 109/452/135 117/453/135
f 114/454/136 118/455/136 112/456/136
f 119/457/137 120/458/137 121/459/137
f 122/460/138 121/461/138 120/462/138
f 119/463/139 121/464/139 123/465/139
f 122/466/140 123/467/140 121/468/140
f 119/469/141 123/470/141 124/471/141
f 122/472/142 124/473/142 123/474/142
f 119/475/143 124/476/143 120/477/143
f 122/478/144 120/479/144 124/480/144
f 125/481/145 126/482/145 127/483/145
f 128/484/146 127/485/146 126/486/146
f 125/487/147 127/488/147 129/489/147
f 128/490/148 129/491/148 127/492/148
f 125/493/149 129/494/149 130/495/149
f 128/496/150 130/497/150 129/498/150
f 125/499/151 130/500/151 126/501/151
f 128/502/152 126/503/152 130/504/152
f 131/505/153 132/506/153 133/507/153
f 134/508/154 133/509/154 132/510/154
f 131/511/155 133/512/155 135/513/155
f 134/514/156 135/515/156 133/516/156
f 131/517/157 135/518/157 136/519/157
f 134/520/158 136/521/158 135/522/158
f 131/523/159 136/524/159 132/525/159
f 134/526/160 132/527/160 136/528/160
f 137/529/161 138/530/161 139/531/161
f 140/532/162 139/533/162 138/534/162
f 137/535/163 139/536/163 141/537/163
f 140/538/164 141/539/164 139/540/164
f 137/541/165 141/542/165 142/543/165
f 140/544/166 142/545/166 141/546/166
f 137/547/167 142/548/167 138/549/167
f 140/550/168 138/551/168 142/552/168
f 143/553/169 144/554/169 145/555/169
f 143/553/169 145/555/169 146/556/169
f 147/557/170 144/558/170 143/559/170
f 148/560/171 146/561/171 145/562/171
f 144/563/172 149/564/172 150/565/172
f 144/563/172 150/565/172 145/566/172
f 147/567/173 149/568/173 144/569/173
f 148/570/174 145/571/174 150/572/174
f 149/573/175 151/574/175 152/575/175
f 149/573/175 152/575/175 150/576/175
f 147/577/176 151/578/176 149/579/176
f 148/580/177 150/581/177 152/582/177
f 151/583/178 143/584/178 146/585/178
f 151/583/178 146/585/178 152/586/178
f 147/587/179 143/588/179 151/589/179
f 148/590/180 152/591/180 146/592/180
f 153/593/181 154/594/181 155/595/181
f 156/596/182 155/597/182 154/598/182
f 153/599/183 155/600/183 157/601/183
f 156/602/184 157/603/184 155/604/184
f 153/605/185 157/606/185 158/607/185
f 156/608/186 158/609/186 157/610/186
f 153/611/187 158/612/187 154/613/187
f 156/614/188 154/615/188 158/616/188
f 159/617/189 160/618/189 161/619/189
f 162/620/190 161/621/190 160/622/190
f 159/623/191 161/624/191 163/625/191
f 162/626/192 163/627/192 161/628/192
f 159/629/193 163/630/193 164/631/193
f 162/632/194 164/633/194 163/634/194
f 159/635/195 164/636/195 160/637/195
f 162/638/196 160/639/196 164/640/196
f 165/641/197 166/642/197 167/643/197
f 168/644/198 167/645/198 166/646/198
f 165/647/199 167/648/199 169/649/199
f 168/650/200 169/651/200 167/652/200
f 165/653/201 169/654/201 170/655/201
f 168/656/202 170/657/202 169/658/202
f 165/659/203 170/660/203 166/661/203
f 168/662/204 166/663/204 170/664/204
f 171/665/205 172/666/205 173/667/205
f 174/668/206 173/669/206 172/670/206
f 171/671/207 173/672/207 175/673/207
f 174/674/208 175/675/208 173/676/208
f 171/677/209 175/678/209 176/679/209
f 174/680/210 176/681/210 175/682/210
f 171/683/211 176/684/211 172/685/211
f 174/686/212 172/687/212 176/688/212
f 177/689/213 178/690/213 179/691/213
f 177/689/213 179/691/213 180/692/213
f 181/693/214 178/694/214 177/695/214
f 182/696/215 180/697/215 179/698/215
f 178/699/216 183/700/216 184/701/216
f 178/699/216 184/701/216 179/702/216
f 181/703/217 183/704/217 178/705/217
f 182/706/218 179/707/218 184/708/218
f 183/709/219 185/710/219 186/711/219
f 183/709/219 186/711/219 184/712/219
f 181/713/220 185/714/220 183/715/220
f 182/716/221 184/717/221 186/718/221
f 185/719/222 177/720/222 180/721/222
f 185/719/222 180/721/222 186/722/222
f 181/723/223 177/724/223 185/725/223
f 182/726/224 186/727/224 180/728/224
f 187/729/225 188/730/225 189/731/225
f 190/732/226 189/733/226 188/734/226
f 187/735/227 189/736/227 191/737/227
f 190/738/228 191/739/228 189/740/228
f 187/741/229 191/742/229 192/743/229
f 190/744/230 192/745/230 191/746/230
f 187/747/231 192/748/231 188/749/231
f 190/750/232 188/751/232 192/752/232
f 193/753/233 194/754/233 195/755/233
f 196/756/234 195/757/234 194/758/234
f 193/759/235 195/760/235 197/761/235
f 196/762/236 197/763/236 195/764/236
f 193/765/237 197/766/237 198/767/237
f 196/768/238 198/769/238 197/770/238
f 193/771/239 198/772/239 194/773/239
f 196/774/240 194/775/240 198/776/240
f 199/777/241 200/778/241 201/779/241
f 202/780/242 201/781/242 200/782/242
f 199/783/243 201/784/243 203/785/243
f 202/786/244 203/787/244 201/788/244
f 199/789/245 203/790/245 204/791/245
f 202/792/246 204/793/246 203/794/246
f 199/795/247 204/796/247 200/797/247
f 202/798/248 200/799/248 204/800/248
f 205/801/249 206/802/249 207/803/249
f 208/804/250 207/805/250 206/806/250
f 205/807/251 207/808/251 209/809/251
f 208/810/252 209/811/252 207/812/252
f 205/813/253 209/814/253 210/815/253
f 208/816/254 210/817/254 209/818/254
f 205/819/255 210/820/255 206/821/255
f 208/822/256 206/823/256 210/824/256
f 211/825/257 212/826/257 213/827/257
f 211/825/257 213/827/257 214/828/257
f 215/829/258 212/830/258 211/831/258
f 216/832/259 214/833/259 213/834/259
f 212/835/260 217/836/260 218/837/260
f 212/835/260 218/837/260 213/838/260
f 215/839/261 217/840/261 212/841/261
f 216/842/262 213/843/262 218/844/262
f 217/845/263 219/846/263 220/847/263
f 217/845/263 220/847/263 218/848/263
f 215/849/264 219/850/264 217/851/264
f 216/852/265 218/853/265 220/854/265
f 219/855/266 211/856/266 214/857/266
f 219/855/266 214/857/266 220/858/266
f 215/859/267 211/860/267 219/861/267
f 216/862/268 220/863/268 214/864/268
f 221/865/269 222/866/269 223/867/269
f 224/868/270 223/869/270 222/870/270
f 221/871/271 223/872/271 225/873/271
f 224/874/272 225/875/272 223/876/272
f 221/877/273 225/878/273 226/879/273
f 224/880/274 226/881/274 225/882/274
f 221/883/275 226/884/275 222/885/275
f 224/886/276 222/887/276 226/888/276
f 227/889/277 228/890/277 229/891/277
f 230/892/278 229/893/278 228/894/278
f 227/895/279 229/896/279 231/897/279
f 230/898/280 231/899/280 229/900/280
f 227/901/281 231/902/281 232/903/281
f 230/904/282 232/905/282 231/906/282
f 227/907/283 232/908/283 228/909/283
f 230/910/284 228/911/284 232/912/284
f 233/913/285 234/914/285 235/915/285
f 236/916/286 235/917/286 234/918/286
f 233/919/287 235/920/287 237/921/287
f 236/922/288 237/923/288 235/924/288
f 233/925/289 237/926/289 238/927/289
f 236/928/290 238/929/290 237/930/290
f 233/931/291 238/932/291 234/933/291
f 236/934/292 234/935/292 238/936/292
f 239/937/293 240/938/293 241/939/293
f 242/940/294 241/941/294 240/942/294
f 239/943/295 241/944/295 243/945/295
f 242/946/296 243/947/296 241/948/296
f 239/949/297 243/950/297 244/951/297
f 242/952/298 244/953/298 243/954/298
f 239/955/299 244/956/299 240/957/299
f 242/958/300 240/959/300 244/960/300
f 245/961/301 246/962/301 247/963/301
f 245/961/301 247/963/301 248/964/301
f 249/965/302 246/966/302 245/967/302
f 250/968/303 248/969/303 247/970/303
f 246/971/304 251/972/304 252/973/304
f 246/971/304 252/973/304 247/974/304
f 249/975/305 251/976/305 246/977/305
f 250/978/306 247/979/306 252/980/306
f 251/981/307 253/982/307 254/983/307
f 251/981/307 254/983/307 252/984/307
f 249/985/308 253/986/308 251/987/308
f 250/988/309 252/989/309 254/990/309
f 253/991/310 245/992/310 248/993/310
f 253/991/310 248/993/310 254/994/310
f 249/995/311 245/996/311 253/997/311
f 250/998/312 254/999/312 248/1000/312
f 255/1001/313 256/1002/313 257/1003/313
f 258/1004/314 257/1005/314 256/1006/314
f 255/1007/315 257/1008/315 259/1009/315
f 258/1010/316 259/1011/316 257/1012/316
f 255/1013/317 259/1014/317 260/1015/317
f 258/1016/318 260/1017/318 259/1018/318
f 255/1019/319 260/1020/319 256/1021/319
f 258/1022/320 256/1023/320 260/1024/320
f 261/1025/321 262/1026/321 263/1027/321
f 264/1028/322 263/1029/322 262/1030/322
f 261/1031/323 263/1032/323 265/1033/323
f 264/1034/324 265/1035/324 263/1036/324
f 261/1037/325 265/1038/325 266/1039/325
f 264/1040/326 266/1041/326 265/1042/326
f 261/1043/327 266/1044/327 262/1045/327
f 264/1046/328 262/1047/328 266/1048/328
f 267/1049/329 268/1050/329 269/1051/329
f 270/1052/330 269/1053/330 268/1054/330
f 267/1055/331 269/1056/331 271/1057/331
f 270/1058/332 271/1059/332 269/1060/332
f 267/1061/333 271/1062/333 272/1063/333
f 270/1064/334 272/1065/334 271/1066/334
f 267/1067/335 272/1068/335 268/1069/335
f 270/1070/336 268/1071/336 272/1072/336
f 273/1073/337 274/1074/337 275/1075/337
f 276/1076/338 275/1077/338 274/1078/338
f 273/1079/339 275/1080/339 277/1081/339
f 276/1082/340 277/1083/340 275/1084/340
f 273/1085/341 277/1086/341 278/1087/341
f 276/1088/342 278/1089/342 277/1090/342
f 273/1091/343 278/1092/343 274/1093/343
f 276/1094/344 274/1095/344 278/1096/344
f 279/1097/345 280/1098/345 281/1099/345
f 279/1097/345 281/1099/345 282/1100/345
f 283/1101/346 280/1102/346 279/1103/346
f 284/1104/347 282/1105/347 281/1106/347
f 280/1107/348 285/1108/348 286/1109/348
f 280/1107/348 286/1109/348 281/1110/348
f 283/1111/349 285/1112/349 280/1113/349
f 284/1114/350 281/1115/350 286/1116/350
f 285/1117/351 287/1118/351 288/1119/351
f 285/1117/351 288/1119/351 286/1120/351
f 283/1121/352 287/1122/352 285/1123/352
f 284/1124/353 286/1125/353 288/1126/353
f 287/1127/354 279/1128/354 282/1129/354
f 287/1127/354 282/1129/354 288/1130/354
f 283/1131/355 279/1132/355 287/1133/355
f 284/1134/356 288/1135/356 282/1136/356
f 289/1137/357 290/1138/357 291/1139/357
f 292/1140/358 291/1141/358 290/1142/358
f 289/1143/359 291/1144/359 293/1145/359
f 292/1146/360 293/1147/360 291/1148/360
f 289/1149/361 293/1150/361 294/1151/361
f 292/1152/362 294/1153/362 293/1154/362
f 289/1155/363 294/1156/363 290/1157/363
f 292/1158/364 290/1159/364 294/1160/364
f 295/1161/365 296/1162/365 297/1163/365
f 298/1164/366 297/1165/366 296/1166/366
f 295/1167/367 297/1168/367 299/1169/367
f 298/1170/368 299/1171/368 297/1172/368
f 295/1173/369 299/1174/369 300/1175/369
f 298/1176/370 300/1177/370 299/1178/370
f 295/1179/371 300/1180/371 296/1181/371
f 298/1182/372 296/1183/372 300/1184/372
f 301/1185/373 302/1186/373 303/1187/373
f 304/1188/374 303/1189/374 302/1190/374
f 301/1191/375 303/1192/375 305/1193/375
f 304/1194/376 305/1195/376 303/1196/376
f 301/1197/377 305/1198/377 306/1199/377
f 304/1200/378 306/1201/378 305/1202/378
f 301/1203/379 306/1204/379 302/1205/379
f 304/1206/380 302/1207/380 306/1208/380
f 307/1209/381 308/1210/381 309/1211/381
f 310/1212/382 309/1213/382 308/1214/382
f 307/1215/383 309/1216/383 311/1217/383
f 310/1218/384 311/1219/384 309/1220/384
f 307/1221/385 311/1222/385 312/1223/385
f 310/1224/386 312/1225/386 311/1226/386
f 307/1227/387 312/1228/387 308/1229/387
f 310/1230/388 308/1231/388 312/1232/388
f 313/1233/389 314/1234/389 315/1235/389
f 313/1233/389 315/1235/389 316/1236/389
f 317/1237/390 314/1238/390 313/1239/390
f 318/1240/391 316/1241/391 315/1242/391
f 314/1243/392 319/1244/392 320/1245/392
f 314/1243/392 320/1245/392 315/1246/392
f 317/1247/393 319/1248/393 314/1249/393
f 318/1250/394 315/1251/394 320/1252/394
f 319/1253/395 321/1254/395 322/1255/395
f 319/1253/395 322/1255/395 320/1256/395
f 317/1257/396 321/1258/396 319/1259/396
f 318/1260/397 320/1261/397 322/1262/397
f 321/1263/398 313/1264/398 316/1265/398
f 321/1263/398 316/1265/398 322/1266/398
f 317/1267/399 313/1268/399 321/1269/399
f 318/1270/400 322/1271/400 316/1272/400
f 323/1273/401 324/1274/401 325/1275/401
f 326/1276/402 325/1277/402 324/1278/402
f 323/1279/403 325/1280/403 327/1281/403
f 326/1282/404 327/1283/404 325/1284/404
f 323/1285/405 327/1286/405 328/1287/405
f 326/1288/406 328/1289/406 327/1290/406
f 323/1291/407 328/1292/407 324/1293/407
f 326/1294/408 324/1295/408 328/1296/408
f 329/1297/409 330/1298/409 331/1299/409
f 332/1300/410 331/1301/410 330/1302/410
f 329/1303/411 331/1304/411 333/1305/411
f 332/1306/412 333/1307/412 331/1308/412
f 329/1309/413 333/1310/413 334/1311/413
f 332/1312/414 334/1313/414 333/1314/414
f 329/1315/415 334/1316/415 330/1317/415
f 332/1318/416 330/1319/416 334/1320/416
f 335/1321/417 336/1322/417 337/1323/417
f 338/1324/418 337/1325/418 336/1326/418
f 335/1327/419 337/1328/419 339/1329/419
f 338/1330/420 339/1331/420 337/1332/420
f 335/1333/421 339/1334/421 340/1335/421
f 338/1336/422 340/1337/422 339/1338/422
f 335/1339/423 340/1340/423 336/1341/423
f 338/1342/424 336/1343/424 340/1344/424
f 341/1345/425 342/1346/425 343/1347/425
f 344/1348/426 343/1349/426 342/1350/426
f 341/1351/427 343/1352/427 345/1353/427
f 344/1354/428 345/1355/428 343/1356/428
f 341/1357/429 345/1358/429 346/1359/429
f 344/1360/430 346/1361/430 345/1362/430
f 341/1363/431 346/1364/431 342/1365/431
f 344/1366/432 342/1367/432 346/1368/432
f 347/1369/433 348/1370/433 349/1371/433
f 347/1369/433 349/1371/433 350/1372/433
f 351/1373/434 348/1374/434 347/1375/434
f 352/1376/435 350/1377/435 349/1378/435
f 348/1379/436 353/1380/436 354/1381/436
f 348/1379/436 354/1381/436 349/1382/436
f 351/1383/437 353/1384/437 348/1385/437
f 352/1386/438 349/1387/438 354/1388/438
f 353/1389/439 355/1390/439 356/1391/439
f 353/1389/439 356/1391/439 354/1392/439
f 351/1393/440 355/1394/440 353/1395/440
f 352/1396/441 354/1397/441 356/1398/441
f 355/1399/442 347/1400/442 350/1401/442
f 355/1399/442 350/1401/442 356/1402/442
f 351/1403/443 347/1404/443 355/1405/443
f 352/1406/444 356/1407/444 350/1408/444
f 357/1409/445 358/1410/445 359/1411/445
f 360/1412/446 359/1413/446 358/1414/446
f 357/1415/447 359/1416/447 361/1417/447
f 360/1418/448 361/1419/448 359/1420/448
f 357/1421/449 361/1422/449 362/1423/449
f 360/1424/450 362/1425/450 361/1426/450
f 357/1427/451 362/1428/451 358/1429/451
f 360/1430/452 358/1431/452 362/1432/452
f 363/1433/453 364/1434/453 365/1435/453
f 366/1436/454 365/1437/454 364/1438/454
f 363/1439/455 365/1440/455 367/1441/455
f 366/1442/456 367/1443/456 365/1444/456
f 363/1445/457 367/1446/457 368/1447/457
f 366/1448/458 368/1449/458 367/1450/458
f 363/1451/459 368/1452/459 364/1453/459
f 366/1454/460 364/1455/460 368/1456/460
f 369/1457/461 370/1458/461 371/1459/461
f 372/1460/462 371/1461/462 370/1462/462
f 369/1463/463 371/1464/463 373/1465/463
f 372/1466/464 373/1467/464 371/1468/464
f 369/1469/465 373/1470/465 374/1471/465
f 372/1472/466 374/1473/466 373/1474/466
f 369/1475/467 374/1476/467 370/1477/467
f 372/1478/468 370/1479/468 374/1480/468
f 375/1481/469 376/1482/469 377/1483/469
f 378/1484/470 377/1485/470 376/1486/470
f 375/1487/471 377/1488/471 379/1489/471
f 378/1490/472 379/1491/472 377/1492/472
f 375/1493/473 379/1494/473 380/1495/473
f 378/1496/474 380/1497/474 379/1498/474
f 375/1499/475 380/1500/475 376/1501/475
f 378/1502/476 376/1503/476 380/1504/476
f 381/1505/477 382/1506/477 383/1507/477
f 381/1505/477 383/1507/477 384/1508/477
f 385/1509/478 382/1510/478 381/1511/478
f 386/1512/479 384/1513/479 383/1514/479
f 382/1515/480 387/1516/480 388/1517/480
f 382/1515/480 388/1517/480 383/1518/480
f 385/1519/481 387/1520/481 382/1521/481
f 386/1522/482 383/1523/482 388/1524/482
f 387/1525/483 389/1526/483 390/1527/483
f 387/1525/483 390/1527/483 388/1528/483
f 385/1529/484 389/1530/484 387/1531/484
f 386/1532/485 388/1533/485 390/1534/485
f 389/1535/486 381/1536/486 384/1537/486
f 389/1535/486 384/1537/486 390/1538/486
f 385/1539/487 381/1540/487 389/1541/487
f 386/1542/488 390/1543/488 384/1544/488
f 391/1545/489 392/1546/489 393/1547/489
f 394/1548/490 393/1549/490 392/1550/490
f 391/1551/491 393/1552/491 395/1553/491
f 394/1554/492 395/1555/492 393/1556/492
f 391/1557/493 395/1558/493 396/1559/493
f 394/1560/494 396/1561/494 395/1562/494
f 391/1563/495 396/1564/495 392/1565/495
f 394/1566/496 392/1567/496 396/1568/496
f 397/1569/497 398/1570/497 399/1571/497
f 400/1572/498 399/1573/498 398/1574/498
f 397/1575/499 399/1576/499 401/1577/499
f 400/1578/500 401/1579/500 399/1580/500
f 397/1581/501 401/1582/501 402/1583/501
f 400/1584/502 402/1585/502 401/1586/502
f 397/1587/503 402/1588/503 398/1589/503
f 400/1590/504 398/1591/504 402/1592/504
f 403/1593/505 404/1594/505 405/1595/505
f 406/1596/506 405/1597/506 404/1598/506
f 403/1599/507 405/1600/507 407/1601/507
f 406/1602/508 407/1603/508 405/1604/508
f 403/1605/509 407/1606/509 408/1607/509
f 406/1608/510 408/1609/510 407/1610/510
f 403/1611/511 408/1612/511 404/1613/511
f 406/1614/512 404/1615/512 408/1616/512
f 409/1617/513 410/1618/513 411/1619/513
f 412/1620/514 411/1621/514 410/1622/514
f 409/1623/515 411/1624/515 413/1625/515
f 412/1626/516 413/1627/516 411/1628/516
f 409/1629/517 413/1630/517 414/1631/517
f 412/1632/518 414/1633/518 413/1634/518
f 409/1635/519 414/1636/519 410/1637/519
f 412/1638/520 410/1639/520 414/1640/520
f 415/1641/521 416/1642/521 417/1643/521
f 415/1641/521 417/1643/521 418/1644/521
f 419/1645/522 416/1646/522 415/1647/522
f 420/1648/523 418/1649/523 417/1650/523
f 416/1651/524 421/1652/524 422/1653/524
f 416/1651/524 422/1653/524 417/1654/524
f 419/1655/525 421/1656/525 416/1657/525
f 420/1658/526 417/1659/526 422/1660/526
f 421/1661/527 423/1662/527 424/1663/527
f 421/1661/527 424/1663/527 422/1664/527
f 419/1665/528 423/1666/528 421/1667/528
f 420/1668/529 422/1669/529 424/1670/529
f 423/1671/530 415/1672/530 418/1673/530
f 423/1671/530 418/1673/530 424/1674/530
f 419/1675/531 415/1676/531 423/1677/531
f 420/1678/532 424/1679/532 418/1680/532
f 425/1681/533 426/1682/533 427/1683/533
f 428/1684/534 427/1685/534 426/1686/534
f 425/1687/535 427/1688/535 429/1689/535
f 428/1690/536 429/1691/536 427/1692/536
f 425/1693/537 429/1694/537 430/1695/537
f 428/1696/538 430/1697/538 429/1698/538
f 425/1699/539 430/1700/539 426/1701/539
f 428/1702/540 426/1703/540 430/1704/540
f 431/1705/541 432/1706/541 433/1707/541
f 434/1708/542 433/1709/542 432/1710/542
f 431/1711/543 433/1712/543 435/1713/543
f 434/1714/544 435/1715/544 433/1716/544
f 431/1717/545 435/1718/545 436/1719/545
f 434/1720/546 436/1721/546 435/1722/546
f 431/1723/547 436/1724/547 432/1725/547
f 434/1726/548 432/1727/548 436/1728/548
f 437/1729/549 438/1730/549 439/1731/549
f 440/1732/550 439/1733/550 438/1734/550
f 437/1735/551 439/1736/551 441/1737/551
f 440/1738/552 441/1739/552 439/1740/552
f 437/1741/553 441/1742/553 442/1743/553
f 440/1744/554 442/1745/554 441/1746/554
f 437/1747/555 442/1748/555 438/1749/555
f 440/1750/556 438/1751/556 442/1752/556
f 443/1753/557 444/1754/557 445/1755/557
f 446/1756/558 445/1757/558 444/1758/558
f 443/1759/559 445/1760/559 447/1761/559
f 446/1762/560 447/1763/560 445/1764/560
f 443/1765/561 447/1766/561 448/1767/561
f 446/1768/562 448/1769/562 447/1770/562
f 443/1771/563 448/1772/563 444/1773/563
f 446/1774/564 444/1775/564 448/1776/564
