mtllib TorusSettlementFarm_Rabbits.mtl
v -7.2485250 0.1266437 3.7500000
v -5.1780339 0.0646174 3.7500000
v -5.1780339 0.0646174 -3.7500000
v -7.2485250 0.1266437 -3.7500000
v -5.1780339 0.0646174 3.7500000
v -3.1070267 0.0232630 3.7500000
v -3.1070267 0.0232630 -3.7500000
v -5.1780339 0.0646174 -3.7500000
v -3.1070267 0.0232630 3.7500000
v -1.0357100 0.0025848 3.7500000
v -1.0357100 0.0025848 -3.7500000
v -3.1070267 0.0232630 -3.7500000
v -1.0357100 0.0025848 3.7500000
v 1.0357100 0.0025848 3.7500000
v 1.0357100 0.0025848 -3.7500000
v -1.0357100 0.0025848 -3.7500000
v 1.0357100 0.0025848 3.7500000
v 3.1070267 0.0232630 3.7500000
v 3.1070267 0.0232630 -3.7500000
v 1.0357100 0.0025848 -3.7500000
v 3.1070267 0.0232630 3.7500000
v 5.1780339 0.0646174 3.7500000
v 5.1780339 0.0646174 -3.7500000
v 3.1070267 0.0232630 -3.7500000
v 5.1780339 0.0646174 3.7500000
v 7.2485250 0.1266437 3.7500000
v 7.2485250 0.1266437 -3.7500000
v 5.1780339 0.0646174 -3.7500000
v -7.2480883 0.1391361 -3.4000000
v -5.1777219 0.0771135 -3.4000000
v -5.1777219 0.0771135 -3.7500000
v -7.2480883 0.1391361 -3.7500000
v -5.1777219 0.0771135 -3.4000000
v -3.1068396 0.0357616 -3.4000000
v -3.1068396 0.0357616 -3.7500000
v -5.1777219 0.0771135 -3.7500000
v -3.1068396 0.0357616 -3.4000000
v -1.0356476 0.0150847 -3.4000000
v -1.0356476 0.0150847 -3.7500000
v -3.1068396 0.0357616 -3.7500000
v -1.0356476 0.0150847 -3.4000000
v 1.0356476 0.0150847 -3.4000000
v 1.0356476 0.0150847 -3.7500000
v -1.0356476 0.0150847 -3.7500000
v 1.0356476 0.0150847 -3.4000000
v 3.1068396 0.0357616 -3.4000000
v 3.1068396 0.0357616 -3.7500000
v 1.0356476 0.0150847 -3.7500000
v 3.1068396 0.0357616 -3.4000000
v 5.1777219 0.0771135 -3.4000000
v 5.1777219 0.0771135 -3.7500000
v 3.1068396 0.0357616 -3.7500000
v 5.1777219 0.0771135 -3.4000000
v 7.2480883 0.1391361 -3.4000000
v 7.2480883 0.1391361 -3.7500000
v 5.1777219 0.0771135 -3.7500000
v -7.2480883 0.1391361 3.7500000
v -5.1777219 0.0771135 3.7500000
v -5.1777219 0.0771135 3.4000000
v -7.2480883 0.1391361 3.4000000
v -5.1777219 0.0771135 3.7500000
v -3.1068396 0.0357616 3.7500000
v -3.1068396 0.0357616 3.4000000
v -5.1777219 0.0771135 3.4000000
v -3.1068396 0.0357616 3.7500000
v -1.0356476 0.0150847 3.7500000
v -1.0356476 0.0150847 3.4000000
v -3.1068396 0.0357616 3.4000000
v -1.0356476 0.0150847 3.7500000
v 1.0356476 0.0150847 3.7500000
v 1.0356476 0.0150847 3.4000000
v -1.0356476 0.0150847 3.4000000
v 1.0356476 0.0150847 3.7500000
v 3.1068396 0.0357616 3.7500000
v 3.1068396 0.0357616 3.4000000
v 1.0356476 0.0150847 3.4000000
v 3.1068396 0.0357616 3.7500000
v 5.1777219 0.0771135 3.7500000
v 5.1777219 0.0771135 3.4000000
v 3.1068396 0.0357616 3.4000000
v 5.1777219 0.0771135 3.7500000
v 7.2480883 0.1391361 3.7500000
v 7.2480883 0.1391361 3.4000000
v 5.1777219 0.0771135 3.4000000
v -0.2999818 0.0127169 3.7500000
v 0.2999818 0.0127169 3.7500000
v 0.2999818 0.0127169 -3.7500000
v -0.2999818 0.0127169 -3.7500000
v -6.5761224 0.7420533 -0.5625000
v -1.5178088 0.6430684 -0.5625000
v -1.5178088 0.6430684 -2.8875000
v -6.5761224 0.7420533 -2.8875000
v -6.5761224 0.7420533 -2.8875000
v -1.5178088 0.6430684 -2.8875000
v -1.5223946 0.0180852 -2.8875000
v -6.5959911 0.1173692 -2.8875000
v -1.5178088 0.6430684 -2.8875000
v -1.5178088 0.6430684 -0.5625000
v -1.5223946 0.0180852 -0.5625000
v -1.5223946 0.0180852 -2.8875000
v -1.5178088 0.6430684 -0.5625000
v -6.5761224 0.7420533 -0.5625000
v -6.5959911 0.1173692 -0.5625000
v -1.5223946 0.0180852 -0.5625000
v -6.5761224 0.7420533 -0.5625000
v -6.5761224 0.7420533 -2.8875000
v -6.5959911 0.1173692 -2.8875000
v -6.5959911 0.1173692 -0.5625000
v -6.5962464 0.8927707 -1.7250000
v -4.8950589 0.8454669 -1.7250000
v -4.8986110 0.6955090 -2.9125000
v -6.6010330 0.7428471 -2.9125000
v -6.6010330 0.7428471 -0.5375000
v -4.8986110 0.6955090 -0.5375000
v -4.8950589 0.8454669 -1.7250000
v -6.5962464 0.8927707 -1.7250000
v -4.8950589 0.8454669 -1.7250000
v -3.1935396 0.8121703 -1.7250000
v -3.1958569 0.6621882 -2.9125000
v -4.8986110 0.6955090 -2.9125000
v -4.8986110 0.6955090 -0.5375000
v -3.1958569 0.6621882 -0.5375000
v -3.1935396 0.8121703 -1.7250000
v -4.8950589 0.8454669 -1.7250000
v -3.1935396 0.8121703 -1.7250000
v -1.4918038 0.7928831 -1.7250000
v -1.4928863 0.6428870 -2.9125000
v -3.1958569 0.6621882 -2.9125000
v -3.1958569 0.6621882 -0.5375000
v -1.4928863 0.6428870 -0.5375000
v -1.4918038 0.7928831 -1.7250000
v -3.1935396 0.8121703 -1.7250000
v -6.5958321 0.1223667 -0.3125000
v -4.9049626 0.0754857 -0.3125000
v -4.9049626 0.0754857 -0.5375000
v -6.5958321 0.1223667 -0.5375000
v -4.9049626 0.0754857 -0.3125000
v -3.2137671 0.0423911 -0.3125000
v -3.2137671 0.0423911 -0.5375000
v -4.9049626 0.0754857 -0.5375000
v -3.2137671 0.0423911 -0.3125000
v -1.5223579 0.0230851 -0.3125000
v -1.5223579 0.0230851 -0.5375000
v -3.2137671 0.0423911 -0.5375000
v 1.5178088 0.6430684 -0.5625000
v 6.5761224 0.7420533 -0.5625000
v 6.5761224 0.7420533 -2.8875000
v 1.5178088 0.6430684 -2.8875000
v 1.5178088 0.6430684 -2.8875000
v 6.5761224 0.7420533 -2.8875000
v 6.5959911 0.1173692 -2.8875000
v 1.5223946 0.0180852 -2.8875000
v 6.5761224 0.7420533 -2.8875000
v 6.5761224 0.7420533 -0.5625000
v 6.5959911 0.1173692 -0.5625000
v 6.5959911 0.1173692 -2.8875000
v 6.5761224 0.7420533 -0.5625000
v 1.5178088 0.6430684 -0.5625000
v 1.5223946 0.0180852 -0.5625000
v 6.5959911 0.1173692 -0.5625000
v 1.5178088 0.6430684 -0.5625000
v 1.5178088 0.6430684 -2.8875000
v 1.5223946 0.0180852 -2.8875000
v 1.5223946 0.0180852 -0.5625000
v 1.4918038 0.7928831 -1.7250000
v 3.1935396 0.8121703 -1.7250000
v 3.1958569 0.6621882 -2.9125000
v 1.4928863 0.6428870 -2.9125000
v 1.4928863 0.6428870 -0.5375000
v 3.1958569 0.6621882 -0.5375000
v 3.1935396 0.8121703 -1.7250000
v 1.4918038 0.7928831 -1.7250000
v 3.1935396 0.8121703 -1.7250000
v 4.8950589 0.8454669 -1.7250000
v 4.8986110 0.6955090 -2.9125000
v 3.1958569 0.6621882 -2.9125000
v 3.1958569 0.6621882 -0.5375000
v 4.8986110 0.6955090 -0.5375000
v 4.8950589 0.8454669 -1.7250000
v 3.1935396 0.8121703 -1.7250000
v 4.8950589 0.8454669 -1.7250000
v 6.5962464 0.8927707 -1.7250000
v 6.6010330 0.7428471 -2.9125000
v 4.8986110 0.6955090 -2.9125000
v 4.8986110 0.6955090 -0.5375000
v 6.6010330 0.7428471 -0.5375000
v 6.5962464 0.8927707 -1.7250000
v 4.8950589 0.8454669 -1.7250000
v 1.5223579 0.0230851 -0.3125000
v 3.2137671 0.0423911 -0.3125000
v 3.2137671 0.0423911 -0.5375000
v 1.5223579 0.0230851 -0.5375000
v 3.2137671 0.0423911 -0.3125000
v 4.9049626 0.0754857 -0.3125000
v 4.9049626 0.0754857 -0.5375000
v 3.2137671 0.0423911 -0.5375000
v 4.9049626 0.0754857 -0.3125000
v 6.5958321 0.1223667 -0.3125000
v 6.5958321 0.1223667 -0.5375000
v 4.9049626 0.0754857 -0.5375000
v -5.5727298 0.2274007 1.0012500
v -5.4378765 0.2238189 1.0012500
v -5.4378765 0.2238189 0.9487500
v -5.5727298 0.2274007 0.9487500
v -5.5727298 0.2274007 0.9487500
v -5.4378765 0.2238189 0.9487500
v -5.4392534 0.1713369 0.9487500
v -5.5741408 0.1749196 0.9487500
v -5.4378765 0.2238189 0.9487500
v -5.4378765 0.2238189 1.0012500
v -5.4392534 0.1713369 1.0012500
v -5.4392534 0.1713369 0.9487500
v -5.4378765 0.2238189 1.0012500
v -5.5727298 0.2274007 1.0012500
v -5.5741408 0.1749196 1.0012500
v -5.4392534 0.1713369 1.0012500
v -5.5727298 0.2274007 1.0012500
v -5.5727298 0.2274007 0.9487500
v -5.5741408 0.1749196 0.9487500
v -5.5741408 0.1749196 1.0012500
v -5.4624228 0.2169617 0.9975000
v -5.4212158 0.2158799 0.9975000
v -5.4212158 0.2158799 0.9525000
v -5.4624228 0.2169617 0.9525000
v -5.4624228 0.2169617 0.9525000
v -5.4212158 0.2158799 0.9525000
v -5.4223923 0.1708953 0.9525000
v -5.4636082 0.1719773 0.9525000
v -5.4212158 0.2158799 0.9525000
v -5.4212158 0.2158799 0.9975000
v -5.4223923 0.1708953 0.9975000
v -5.4223923 0.1708953 0.9525000
v -5.4212158 0.2158799 0.9975000
v -5.4624228 0.2169617 0.9975000
v -5.4636082 0.1719773 0.9975000
v -5.4223923 0.1708953 0.9975000
v -5.4624228 0.2169617 0.9975000
v -5.4624228 0.2169617 0.9525000
v -5.4636082 0.1719773 0.9525000
v -5.4636082 0.1719773 0.9975000
v -1.9510362 0.1616793 1.0012500
v -1.8161410 0.1604539 1.0012500
v -1.8161410 0.1604539 0.9487500
v -1.9510362 0.1616793 0.9487500
v -1.9510362 0.1616793 0.9487500
v -1.8161410 0.1604539 0.9487500
v -1.8166009 0.1079559 0.9487500
v -1.9515302 0.1091817 0.9487500
v -1.8161410 0.1604539 0.9487500
v -1.8161410 0.1604539 1.0012500
v -1.8166009 0.1079559 1.0012500
v -1.8166009 0.1079559 0.9487500
v -1.8161410 0.1604539 1.0012500
v -1.9510362 0.1616793 1.0012500
v -1.9515302 0.1091817 1.0012500
v -1.8166009 0.1079559 1.0012500
v -1.9510362 0.1616793 1.0012500
v -1.9510362 0.1616793 0.9487500
v -1.9515302 0.1091817 0.9487500
v -1.9515302 0.1091817 1.0012500
v -1.8405637 0.1531689 0.9975000
v -1.7993441 0.1528071 0.9975000
v -1.7993441 0.1528071 0.9525000
v -1.8405637 0.1531689 0.9525000
v -1.8405637 0.1531689 0.9525000
v -1.7993441 0.1528071 0.9525000
v -1.7997346 0.1078088 0.9525000
v -1.8409632 0.1081707 0.9525000
v -1.7993441 0.1528071 0.9525000
v -1.7993441 0.1528071 0.9975000
v -1.7997346 0.1078088 0.9975000
v -1.7997346 0.1078088 0.9525000
v -1.7993441 0.1528071 0.9975000
v -1.8405637 0.1531689 0.9975000
v -1.8409632 0.1081707 0.9975000
v -1.7997346 0.1078088 0.9975000
v -1.8405637 0.1531689 0.9975000
v -1.8405637 0.1531689 0.9525000
v -1.8409632 0.1081707 0.9525000
v -1.8409632 0.1081707 0.9975000
v 1.6712527 0.1592354 1.0012500
v 1.8061488 0.1603666 1.0012500
v 1.8061488 0.1603666 0.9487500
v 1.6712527 0.1592354 0.9487500
v 1.6712527 0.1592354 0.9487500
v 1.8061488 0.1603666 0.9487500
v 1.8066061 0.1078686 0.9487500
v 1.6716759 0.1067371 0.9487500
v 1.8061488 0.1603666 0.9487500
v 1.8061488 0.1603666 1.0012500
v 1.8066061 0.1078686 1.0012500
v 1.8066061 0.1078686 0.9487500
v 1.8061488 0.1603666 1.0012500
v 1.6712527 0.1592354 1.0012500
v 1.6716759 0.1067371 1.0012500
v 1.8066061 0.1078686 1.0012500
v 1.6712527 0.1592354 1.0012500
v 1.6712527 0.1592354 0.9487500
v 1.6716759 0.1067371 0.9487500
v 1.6716759 0.1067371 1.0012500
v 1.7818570 0.1526561 0.9975000
v 1.8230766 0.1530145 0.9975000
v 1.8230766 0.1530145 0.9525000
v 1.7818570 0.1526561 0.9525000
v 1.7818570 0.1526561 0.9525000
v 1.8230766 0.1530145 0.9525000
v 1.8234723 0.1080162 0.9525000
v 1.7822437 0.1076578 0.9525000
v 1.8230766 0.1530145 0.9525000
v 1.8230766 0.1530145 0.9975000
v 1.8234723 0.1080162 0.9975000
v 1.8234723 0.1080162 0.9525000
v 1.8230766 0.1530145 0.9975000
v 1.7818570 0.1526561 0.9975000
v 1.7822437 0.1076578 0.9975000
v 1.8234723 0.1080162 0.9975000
v 1.7818570 0.1526561 0.9975000
v 1.7818570 0.1526561 0.9525000
v 1.7822437 0.1076578 0.9525000
v 1.7822437 0.1076578 0.9975000
v 5.2930316 0.2200695 1.0012500
v 5.4278873 0.2235571 1.0012500
v 5.4278873 0.2235571 0.9487500
v 5.2930316 0.2200695 0.9487500
v 5.2930316 0.2200695 0.9487500
v 5.4278873 0.2235571 0.9487500
v 5.4292616 0.1710751 0.9487500
v 5.2943718 0.1675866 0.9487500
v 5.4278873 0.2235571 0.9487500
v 5.4278873 0.2235571 1.0012500
v 5.4292616 0.1710751 1.0012500
v 5.4292616 0.1710751 0.9487500
v 5.4278873 0.2235571 1.0012500
v 5.2930316 0.2200695 1.0012500
v 5.2943718 0.1675866 1.0012500
v 5.4292616 0.1710751 1.0012500
v 5.2930316 0.2200695 1.0012500
v 5.2930316 0.2200695 0.9487500
v 5.2943718 0.1675866 0.9487500
v 5.2943718 0.1675866 1.0012500
v 5.4037340 0.2154234 0.9975000
v 5.4449411 0.2165018 0.9975000
v 5.4449411 0.2165018 0.9525000
v 5.4037340 0.2154234 0.9525000
v 5.4037340 0.2154234 0.9525000
v 5.4449411 0.2165018 0.9525000
v 5.4461227 0.1715173 0.9525000
v 5.4049067 0.1704387 0.9525000
v 5.4449411 0.2165018 0.9525000
v 5.4449411 0.2165018 0.9975000
v 5.4461227 0.1715173 0.9975000
v 5.4461227 0.1715173 0.9525000
v 5.4449411 0.2165018 0.9975000
v 5.4037340 0.2154234 0.9975000
v 5.4049067 0.1704387 0.9975000
v 5.4461227 0.1715173 0.9975000
v 5.4037340 0.2154234 0.9975000
v 5.4037340 0.2154234 0.9525000
v 5.4049067 0.1704387 0.9525000
v 5.4049067 0.1704387 0.9975000
v -5.5727298 0.2274007 2.3512500
v -5.4378765 0.2238189 2.3512500
v -5.4378765 0.2238189 2.2987500
v -5.5727298 0.2274007 2.2987500
v -5.5727298 0.2274007 2.2987500
v -5.4378765 0.2238189 2.2987500
v -5.4392534 0.1713369 2.2987500
v -5.5741408 0.1749196 2.2987500
v -5.4378765 0.2238189 2.2987500
v -5.4378765 0.2238189 2.3512500
v -5.4392534 0.1713369 2.3512500
v -5.4392534 0.1713369 2.2987500
v -5.4378765 0.2238189 2.3512500
v -5.5727298 0.2274007 2.3512500
v -5.5741408 0.1749196 2.3512500
v -5.4392534 0.1713369 2.3512500
v -5.5727298 0.2274007 2.3512500
v -5.5727298 0.2274007 2.2987500
v -5.5741408 0.1749196 2.2987500
v -5.5741408 0.1749196 2.3512500
v -5.4624228 0.2169617 2.3475000
v -5.4212158 0.2158799 2.3475000
v -5.4212158 0.2158799 2.3025000
v -5.4624228 0.2169617 2.3025000
v -5.4624228 0.2169617 2.3025000
v -5.4212158 0.2158799 2.3025000
v -5.4223923 0.1708953 2.3025000
v -5.4636082 0.1719773 2.3025000
v -5.4212158 0.2158799 2.3025000
v -5.4212158 0.2158799 2.3475000
v -5.4223923 0.1708953 2.3475000
v -5.4223923 0.1708953 2.3025000
v -5.4212158 0.2158799 2.3475000
v -5.4624228 0.2169617 2.3475000
v -5.4636082 0.1719773 2.3475000
v -5.4223923 0.1708953 2.3475000
v -5.4624228 0.2169617 2.3475000
v -5.4624228 0.2169617 2.3025000
v -5.4636082 0.1719773 2.3025000
v -5.4636082 0.1719773 2.3475000
v -1.9510362 0.1616793 2.3512500
v -1.8161410 0.1604539 2.3512500
v -1.8161410 0.1604539 2.2987500
v -1.9510362 0.1616793 2.2987500
v -1.9510362 0.1616793 2.2987500
v -1.8161410 0.1604539 2.2987500
v -1.8166009 0.1079559 2.2987500
v -1.9515302 0.1091817 2.2987500
v -1.8161410 0.1604539 2.2987500
v -1.8161410 0.1604539 2.3512500
v -1.8166009 0.1079559 2.3512500
v -1.8166009 0.1079559 2.2987500
v -1.8161410 0.1604539 2.3512500
v -1.9510362 0.1616793 2.3512500
v -1.9515302 0.1091817 2.3512500
v -1.8166009 0.1079559 2.3512500
v -1.9510362 0.1616793 2.3512500
v -1.9510362 0.1616793 2.2987500
v -1.9515302 0.1091817 2.2987500
v -1.9515302 0.1091817 2.3512500
v -1.8405637 0.1531689 2.3475000
v -1.7993441 0.1528071 2.3475000
v -1.7993441 0.1528071 2.3025000
v -1.8405637 0.1531689 2.3025000
v -1.8405637 0.1531689 2.3025000
v -1.7993441 0.1528071 2.3025000
v -1.7997346 0.1078088 2.3025000
v -1.8409632 0.1081707 2.3025000
v -1.7993441 0.1528071 2.3025000
v -1.7993441 0.1528071 2.3475000
v -1.7997346 0.1078088 2.3475000
v -1.7997346 0.1078088 2.3025000
v -1.7993441 0.1528071 2.3475000
v -1.8405637 0.1531689 2.3475000
v -1.8409632 0.1081707 2.3475000
v -1.7997346 0.1078088 2.3475000
v -1.8405637 0.1531689 2.3475000
v -1.8405637 0.1531689 2.3025000
v -1.8409632 0.1081707 2.3025000
v -1.8409632 0.1081707 2.3475000
v 1.6712527 0.1592354 2.3512500
v 1.8061488 0.1603666 2.3512500
v 1.8061488 0.1603666 2.2987500
v 1.6712527 0.1592354 2.2987500
v 1.6712527 0.1592354 2.2987500
v 1.8061488 0.1603666 2.2987500
v 1.8066061 0.1078686 2.2987500
v 1.6716759 0.1067371 2.2987500
v 1.8061488 0.1603666 2.2987500
v 1.8061488 0.1603666 2.3512500
v 1.8066061 0.1078686 2.3512500
v 1.8066061 0.1078686 2.2987500
v 1.8061488 0.1603666 2.3512500
v 1.6712527 0.1592354 2.3512500
v 1.6716759 0.1067371 2.3512500
v 1.8066061 0.1078686 2.3512500
v 1.6712527 0.1592354 2.3512500
v 1.6712527 0.1592354 2.2987500
v 1.6716759 0.1067371 2.2987500
v 1.6716759 0.1067371 2.3512500
v 1.7818570 0.1526561 2.3475000
v 1.8230766 0.1530145 2.3475000
v 1.8230766 0.1530145 2.3025000
v 1.7818570 0.1526561 2.3025000
v 1.7818570 0.1526561 2.3025000
v 1.8230766 0.1530145 2.3025000
v 1.8234723 0.1080162 2.3025000
v 1.7822437 0.1076578 2.3025000
v 1.8230766 0.1530145 2.3025000
v 1.8230766 0.1530145 2.3475000
v 1.8234723 0.1080162 2.3475000
v 1.8234723 0.1080162 2.3025000
v 1.8230766 0.1530145 2.3475000
v 1.7818570 0.1526561 2.3475000
v 1.7822437 0.1076578 2.3475000
v 1.8234723 0.1080162 2.3475000
v 1.7818570 0.1526561 2.3475000
v 1.7818570 0.1526561 2.3025000
v 1.7822437 0.1076578 2.3025000
v 1.7822437 0.1076578 2.3475000
v 5.2930316 0.2200695 2.3512500
v 5.4278873 0.2235571 2.3512500
v 5.4278873 0.2235571 2.2987500
v 5.2930316 0.2200695 2.2987500
v 5.2930316 0.2200695 2.2987500
v 5.4278873 0.2235571 2.2987500
v 5.4292616 0.1710751 2.2987500
v 5.2943718 0.1675866 2.2987500
v 5.4278873 0.2235571 2.2987500
v 5.4278873 0.2235571 2.3512500
v 5.4292616 0.1710751 2.3512500
v 5.4292616 0.1710751 2.2987500
v 5.4278873 0.2235571 2.3512500
v 5.2930316 0.2200695 2.3512500
v 5.2943718 0.1675866 2.3512500
v 5.4292616 0.1710751 2.3512500
v 5.2930316 0.2200695 2.3512500
v 5.2930316 0.2200695 2.2987500
v 5.2943718 0.1675866 2.2987500
v 5.2943718 0.1675866 2.3512500
v 5.4037340 0.2154234 2.3475000
v 5.4449411 0.2165018 2.3475000
v 5.4449411 0.2165018 2.3025000
v 5.4037340 0.2154234 2.3025000
v 5.4037340 0.2154234 2.3025000
v 5.4449411 0.2165018 2.3025000
v 5.4461227 0.1715173 2.3025000
v 5.4049067 0.1704387 2.3025000
v 5.4449411 0.2165018 2.3025000
v 5.4449411 0.2165018 2.3475000
v 5.4461227 0.1715173 2.3475000
v 5.4461227 0.1715173 2.3025000
v 5.4449411 0.2165018 2.3475000
v 5.4037340 0.2154234 2.3475000
v 5.4049067 0.1704387 2.3475000
v 5.4461227 0.1715173 2.3475000
v 5.4037340 0.2154234 2.3475000
v 5.4037340 0.2154234 2.3025000
v 5.4049067 0.1704387 2.3025000
v 5.4049067 0.1704387 2.3475000
v -6.8971492 0.1621861 1.8875000
v -4.7068516 0.1009033 1.8875000
v -4.7075890 0.0684117 0.3750000
v -6.8982297 0.1297040 0.3750000
v -6.8982297 0.1297040 3.4000000
v -4.7075890 0.0684117 3.4000000
v -4.7068516 0.1009033 1.8875000
v -6.8971492 0.1621861 1.8875000
v -4.7068516 0.1009033 1.8875000
v -2.5160289 0.0627580 1.8875000
v -2.5164230 0.0302604 0.3750000
v -4.7075890 0.0684117 0.3750000
v -4.7075890 0.0684117 3.4000000
v -2.5164230 0.0302604 3.4000000
v -2.5160289 0.0627580 1.8875000
v -4.7068516 0.1009033 1.8875000
v -2.5160289 0.0627580 1.8875000
v -0.3249255 0.0477545 1.8875000
v -0.3249764 0.0152545 0.3750000
v -2.5164230 0.0302604 0.3750000
v -2.5164230 0.0302604 3.4000000
v -0.3249764 0.0152545 3.4000000
v -0.3249255 0.0477545 1.8875000
v -2.5160289 0.0627580 1.8875000
v 0.3249255 0.0477545 1.8875000
v 2.5160289 0.0627580 1.8875000
v 2.5164230 0.0302604 0.3750000
v 0.3249764 0.0152545 0.3750000
v 0.3249764 0.0152545 3.4000000
v 2.5164230 0.0302604 3.4000000
v 2.5160289 0.0627580 1.8875000
v 0.3249255 0.0477545 1.8875000
v 2.5160289 0.0627580 1.8875000
v 4.7068516 0.1009033 1.8875000
v 4.7075890 0.0684117 0.3750000
v 2.5164230 0.0302604 0.3750000
v 2.5164230 0.0302604 3.4000000
v 4.7075890 0.0684117 3.4000000
v 4.7068516 0.1009033 1.8875000
v 2.5160289 0.0627580 1.8875000
v 4.7068516 0.1009033 1.8875000
v 6.8971492 0.1621861 1.8875000
v 6.8982297 0.1297040 0.3750000
v 4.7075890 0.0684117 0.3750000
v 4.7075890 0.0684117 3.4000000
v 6.8982297 0.1297040 3.4000000
v 6.8971492 0.1621861 1.8875000
v 4.7068516 0.1009033 1.8875000
vt 0.005000 0.995000
vt 0.245000 0.995000
vt 0.245000 0.755000
vt 0.255000 0.995000
vt 0.495000 0.995000
vt 0.495000 0.755000
vt 0.505000 0.995000
vt 0.745000 0.995000
vt 0.745000 0.755000
vt 0.755000 0.995000
vt 0.995000 0.995000
vt 0.995000 0.755000
vt 0.005000 0.745000
vt 0.245000 0.745000
vt 0.245000 0.505000
vt 0.255000 0.745000
vt 0.495000 0.745000
vt 0.495000 0.505000
vt 0.505000 0.745000
vt 0.745000 0.745000
vt 0.745000 0.505000
vt 0.755000 0.745000
vt 0.995000 0.745000
vt 0.995000 0.505000
vt 0.005000 0.495000
vt 0.245000 0.495000
vt 0.245000 0.255000
vt 0.255000 0.495000
vt 0.495000 0.495000
vt 0.495000 0.255000
vt 0.505000 0.495000
vt 0.745000 0.495000
vt 0.745000 0.255000
vt 0.755000 0.495000
vt 0.995000 0.495000
vt 0.995000 0.255000
vt 0.005000 0.245000
vt 0.245000 0.245000
vt 0.245000 0.005000
vt 0.255000 0.245000
vt 0.495000 0.245000
vt 0.495000 0.005000
vt 0.505000 0.245000
vt 0.745000 0.245000
vt 0.745000 0.005000
vt 0.755000 0.245000
vt 0.995000 0.245000
vt 0.995000 0.005000
g ornament
usemtl farm-kit
f 109/31 110/32 111/33
f 109/31 111/32 112/33
f 113/31 114/32 115/33
f 113/31 115/32 116/33
f 117/31 118/32 119/33
f 117/31 119/32 120/33
f 121/31 122/32 123/33
f 121/31 123/32 124/33
f 125/31 126/32 127/33
f 125/31 127/32 128/33
f 129/31 130/32 131/33
f 129/31 131/32 132/33
f 165/31 166/32 167/33
f 165/31 167/32 168/33
f 169/31 170/32 171/33
f 169/31 171/32 172/33
f 173/31 174/32 175/33
f 173/31 175/32 176/33
f 177/31 178/32 179/33
f 177/31 179/32 180/33
f 181/31 182/32 183/33
f 181/31 183/32 184/33
f 185/31 186/32 187/33
f 185/31 187/32 188/33
f 201/28 202/29 203/30
f 201/28 203/29 204/30
f 205/28 206/29 207/30
f 205/28 207/29 208/30
f 209/28 210/29 211/30
f 209/28 211/29 212/30
f 213/28 214/29 215/30
f 213/28 215/29 216/30
f 217/28 218/29 219/30
f 217/28 219/29 220/30
f 221/34 222/35 223/36
f 221/34 223/35 224/36
f 225/34 226/35 227/36
f 225/34 227/35 228/36
f 229/34 230/35 231/36
f 229/34 231/35 232/36
f 233/34 234/35 235/36
f 233/34 235/35 236/36
f 237/34 238/35 239/36
f 237/34 239/35 240/36
f 241/28 242/29 243/30
f 241/28 243/29 244/30
f 245/28 246/29 247/30
f 245/28 247/29 248/30
f 249/28 250/29 251/30
f 249/28 251/29 252/30
f 253/28 254/29 255/30
f 253/28 255/29 256/30
f 257/28 258/29 259/30
f 257/28 259/29 260/30
f 261/34 262/35 263/36
f 261/34 263/35 264/36
f 265/34 266/35 267/36
f 265/34 267/35 268/36
f 269/34 270/35 271/36
f 269/34 271/35 272/36
f 273/34 274/35 275/36
f 273/34 275/35 276/36
f 277/34 278/35 279/36
f 277/34 279/35 280/36
f 281/28 282/29 283/30
f 281/28 283/29 284/30
f 285/28 286/29 287/30
f 285/28 287/29 288/30
f 289/28 290/29 291/30
f 289/28 291/29 292/30
f 293/28 294/29 295/30
f 293/28 295/29 296/30
f 297/28 298/29 299/30
f 297/28 299/29 300/30
f 301/34 302/35 303/36
f 301/34 303/35 304/36
f 305/34 306/35 307/36
f 305/34 307/35 308/36
f 309/34 310/35 311/36
f 309/34 311/35 312/36
f 313/34 314/35 315/36
f 313/34 315/35 316/36
f 317/34 318/35 319/36
f 317/34 319/35 320/36
f 321/28 322/29 323/30
f 321/28 323/29 324/30
f 325/28 326/29 327/30
f 325/28 327/29 328/30
f 329/28 330/29 331/30
f 329/28 331/29 332/30
f 333/28 334/29 335/30
f 333/28 335/29 336/30
f 337/28 338/29 339/30
f 337/28 339/29 340/30
f 341/34 342/35 343/36
f 341/34 343/35 344/36
f 345/34 346/35 347/36
f 345/34 347/35 348/36
f 349/34 350/35 351/36
f 349/34 351/35 352/36
f 353/34 354/35 355/36
f 353/34 355/35 356/36
f 357/34 358/35 359/36
f 357/34 359/35 360/36
f 361/28 362/29 363/30
f 361/28 363/29 364/30
f 365/28 366/29 367/30
f 365/28 367/29 368/30
f 369/28 370/29 371/30
f 369/28 371/29 372/30
f 373/28 374/29 375/30
f 373/28 375/29 376/30
f 377/28 378/29 379/30
f 377/28 379/29 380/30
f 381/34 382/35 383/36
f 381/34 383/35 384/36
f 385/34 386/35 387/36
f 385/34 387/35 388/36
f 389/34 390/35 391/36
f 389/34 391/35 392/36
f 393/34 394/35 395/36
f 393/34 395/35 396/36
f 397/34 398/35 399/36
f 397/34 399/35 400/36
f 401/28 402/29 403/30
f 401/28 403/29 404/30
f 405/28 406/29 407/30
f 405/28 407/29 408/30
f 409/28 410/29 411/30
f 409/28 411/29 412/30
f 413/28 414/29 415/30
f 413/28 415/29 416/30
f 417/28 418/29 419/30
f 417/28 419/29 420/30
f 421/34 422/35 423/36
f 421/34 423/35 424/36
f 425/34 426/35 427/36
f 425/34 427/35 428/36
f 429/34 430/35 431/36
f 429/34 431/35 432/36
f 433/34 434/35 435/36
f 433/34 435/35 436/36
f 437/34 438/35 439/36
f 437/34 439/35 440/36
f 441/28 442/29 443/30
f 441/28 443/29 444/30
f 445/28 446/29 447/30
f 445/28 447/29 448/30
f 449/28 450/29 451/30
f 449/28 451/29 452/30
f 453/28 454/29 455/30
f 453/28 455/29 456/30
f 457/28 458/29 459/30
f 457/28 459/29 460/30
f 461/34 462/35 463/36
f 461/34 463/35 464/36
f 465/34 466/35 467/36
f 465/34 467/35 468/36
f 469/34 470/35 471/36
f 469/34 471/35 472/36
f 473/34 474/35 475/36
f 473/34 475/35 476/36
f 477/34 478/35 479/36
f 477/34 479/35 480/36
f 481/28 482/29 483/30
f 481/28 483/29 484/30
f 485/28 486/29 487/30
f 485/28 487/29 488/30
f 489/28 490/29 491/30
f 489/28 491/29 492/30
f 493/28 494/29 495/30
f 493/28 495/29 496/30
f 497/28 498/29 499/30
f 497/28 499/29 500/30
f 501/34 502/35 503/36
f 501/34 503/35 504/36
f 505/34 506/35 507/36
f 505/34 507/35 508/36
f 509/34 510/35 511/36
f 509/34 511/35 512/36
f 513/34 514/35 515/36
f 513/34 515/35 516/36
f 517/34 518/35 519/36
f 517/34 519/35 520/36
f 521/13 522/14 523/15
f 521/13 523/14 524/15
f 525/13 526/14 527/15
f 525/13 527/14 528/15
f 529/13 530/14 531/15
f 529/13 531/14 532/15
f 533/13 534/14 535/15
f 533/13 535/14 536/15
f 537/13 538/14 539/15
f 537/13 539/14 540/15
f 541/13 542/14 543/15
f 541/13 543/14 544/15
f 545/13 546/14 547/15
f 545/13 547/14 548/15
f 549/13 550/14 551/15
f 549/13 551/14 552/15
f 553/13 554/14 555/15
f 553/13 555/14 556/15
f 557/13 558/14 559/15
f 557/13 559/14 560/15
f 561/13 562/14 563/15
f 561/13 563/14 564/15
f 565/13 566/14 567/15
f 565/13 567/14 568/15
g solid
usemtl farm-kit
f 89/28 90/29 91/30
f 89/28 91/29 92/30
f 93/28 94/29 95/30
f 93/28 95/29 96/30
f 97/28 98/29 99/30
f 97/28 99/29 100/30
f 101/28 102/29 103/30
f 101/28 103/29 104/30
f 105/28 106/29 107/30
f 105/28 107/29 108/30
f 145/28 146/29 147/30
f 145/28 147/29 148/30
f 149/28 150/29 151/30
f 149/28 151/29 152/30
f 153/28 154/29 155/30
f 153/28 155/29 156/30
f 157/28 158/29 159/30
f 157/28 159/29 160/30
f 161/28 162/29 163/30
f 161/28 163/29 164/30
g support
usemtl farm-kit
f 1/1 2/2 3/3
f 1/1 3/2 4/3
f 5/1 6/2 7/3
f 5/1 7/2 8/3
f 9/1 10/2 11/3
f 9/1 11/2 12/3
f 13/1 14/2 15/3
f 13/1 15/2 16/3
f 17/1 18/2 19/3
f 17/1 19/2 20/3
f 21/1 22/2 23/3
f 21/1 23/2 24/3
f 25/1 26/2 27/3
f 25/1 27/2 28/3
f 29/4 30/5 31/6
f 29/4 31/5 32/6
f 33/4 34/5 35/6
f 33/4 35/5 36/6
f 37/4 38/5 39/6
f 37/4 39/5 40/6
f 41/4 42/5 43/6
f 41/4 43/5 44/6
f 45/4 46/5 47/6
f 45/4 47/5 48/6
f 49/4 50/5 51/6
f 49/4 51/5 52/6
f 53/4 54/5 55/6
f 53/4 55/5 56/6
f 57/4 58/5 59/6
f 57/4 59/5 60/6
f 61/4 62/5 63/6
f 61/4 63/5 64/6
f 65/4 66/5 67/6
f 65/4 67/5 68/6
f 69/4 70/5 71/6
f 69/4 71/5 72/6
f 73/4 74/5 75/6
f 73/4 75/5 76/6
f 77/4 78/5 79/6
f 77/4 79/5 80/6
f 81/4 82/5 83/6
f 81/4 83/5 84/6
f 85/4 86/5 87/6
f 85/4 87/5 88/6
f 133/4 134/5 135/6
f 133/4 135/5 136/6
f 137/4 138/5 139/6
f 137/4 139/5 140/6
f 141/4 142/5 143/6
f 141/4 143/5 144/6
f 189/4 190/5 191/6
f 189/4 191/5 192/6
f 193/4 194/5 195/6
f 193/4 195/5 196/6
f 197/4 198/5 199/6
f 197/4 199/5 200/6
