mtllib TorusSettlementFarm_Processing.mtl
v -7.2485250 0.1266437 3.7500000
v -5.1780339 0.0646174 3.7500000
v -5.1780339 0.0646174 -3.7500000
v -7.2485250 0.1266437 -3.7500000
v -5.1780339 0.0646174 3.7500000
v -3.1070267 0.0232630 3.7500000
v -3.1070267 0.0232630 -3.7500000
v -5.1780339 0.0646174 -3.7500000
v -3.1070267 0.0232630 3.7500000
v -1.0357100 0.0025848 3.7500000
v -1.0357100 0.0025848 -3.7500000
v -3.1070267 0.0232630 -3.7500000
v -1.0357100 0.0025848 3.7500000
v 1.0357100 0.0025848 3.7500000
v 1.0357100 0.0025848 -3.7500000
v -1.0357100 0.0025848 -3.7500000
v 1.0357100 0.0025848 3.7500000
v 3.1070267 0.0232630 3.7500000
v 3.1070267 0.0232630 -3.7500000
v 1.0357100 0.0025848 -3.7500000
v 3.1070267 0.0232630 3.7500000
v 5.1780339 0.0646174 3.7500000
v 5.1780339 0.0646174 -3.7500000
v 3.1070267 0.0232630 -3.7500000
v 5.1780339 0.0646174 3.7500000
v 7.2485250 0.1266437 3.7500000
v 7.2485250 0.1266437 -3.7500000
v 5.1780339 0.0646174 -3.7500000
v -7.2480883 0.1391361 -3.4000000
v -5.1777219 0.0771135 -3.4000000
v -5.1777219 0.0771135 -3.7500000
v -7.2480883 0.1391361 -3.7500000
v -5.1777219 0.0771135 -3.4000000
v -3.1068396 0.0357616 -3.4000000
v -3.1068396 0.0357616 -3.7500000
v -5.1777219 0.0771135 -3.7500000
v -3.1068396 0.0357616 -3.4000000
v -1.0356476 0.0150847 -3.4000000
v -1.0356476 0.0150847 -3.7500000
v -3.1068396 0.0357616 -3.7500000
v -1.0356476 0.0150847 -3.4000000
v 1.0356476 0.0150847 -3.4000000
v 1.0356476 0.0150847 -3.7500000
v -1.0356476 0.0150847 -3.7500000
v 1.0356476 0.0150847 -3.4000000
v 3.1068396 0.0357616 -3.4000000
v 3.1068396 0.0357616 -3.7500000
v 1.0356476 0.0150847 -3.7500000
v 3.1068396 0.0357616 -3.4000000
v 5.1777219 0.0771135 -3.4000000
v 5.1777219 0.0771135 -3.7500000
v 3.1068396 0.0357616 -3.7500000
v 5.1777219 0.0771135 -3.4000000
v 7.2480883 0.1391361 -3.4000000
v 7.2480883 0.1391361 -3.7500000
v 5.1777219 0.0771135 -3.7500000
v -7.2480883 0.1391361 3.7500000
v -5.1777219 0.0771135 3.7500000
v -5.1777219 0.0771135 3.4000000
v -7.2480883 0.1391361 3.4000000
v -5.1777219 0.0771135 3.7500000
v -3.1068396 0.0357616 3.7500000
v -3.1068396 0.0357616 3.4000000
v -5.1777219 0.0771135 3.4000000
v -3.1068396 0.0357616 3.7500000
v -1.0356476 0.0150847 3.7500000
v -1.0356476 0.0150847 3.4000000
v -3.1068396 0.0357616 3.4000000
v -1.0356476 0.0150847 3.7500000
v 1.0356476 0.0150847 3.7500000
v 1.0356476 0.0150847 3.4000000
v -1.0356476 0.0150847 3.4000000
v 1.0356476 0.0150847 3.7500000
v 3.1068396 0.0357616 3.7500000
v 3.1068396 0.0357616 3.4000000
v 1.0356476 0.0150847 3.4000000
v 3.1068396 0.0357616 3.7500000
v 5.1777219 0.0771135 3.7500000
v 5.1777219 0.0771135 3.4000000
v 3.1068396 0.0357616 3.4000000
v 5.1777219 0.0771135 3.7500000
v 7.2480883 0.1391361 3.7500000
v 7.2480883 0.1391361 3.4000000
v 5.1777219 0.0771135 3.4000000
v -0.2999818 0.0127169 3.7500000
v 0.2999818 0.0127169 3.7500000
v 0.2999818 0.0127169 -3.7500000
v -0.2999818 0.0127169 -3.7500000
v -6.5705592 0.9169649 -0.5625000
v -1.5165248 0.8180637 -0.5625000
v -1.5165248 0.8180637 -2.8875000
v -6.5705592 0.9169649 -2.8875000
v -6.5705592 0.9169649 -2.8875000
v -1.5165248 0.8180637 -2.8875000
v -1.5223946 0.0180852 -2.8875000
v -6.5959911 0.1173692 -2.8875000
v -1.5165248 0.8180637 -2.8875000
v -1.5165248 0.8180637 -0.5625000
v -1.5223946 0.0180852 -0.5625000
v -1.5223946 0.0180852 -2.8875000
v -1.5165248 0.8180637 -0.5625000
v -6.5705592 0.9169649 -0.5625000
v -6.5959911 0.1173692 -0.5625000
v -1.5223946 0.0180852 -0.5625000
v -6.5705592 0.9169649 -0.5625000
v -6.5705592 0.9169649 -2.8875000
v -6.5959911 0.1173692 -2.8875000
v -6.5959911 0.1173692 -0.5625000
v -6.5906622 1.0676816 -1.7250000
v -4.8909148 1.0204178 -1.7250000
v -4.8944669 0.8704599 -2.9125000
v -6.5954487 0.9177580 -2.9125000
v -6.5954487 0.9177580 -0.5375000
v -4.8944669 0.8704599 -0.5375000
v -4.8909148 1.0204178 -1.7250000
v -6.5906622 1.0676816 -1.7250000
v -4.8909148 1.0204178 -1.7250000
v -3.1908360 0.9871494 -1.7250000
v -3.1931533 0.8371673 -2.9125000
v -4.8944669 0.8704599 -2.9125000
v -4.8944669 0.8704599 -0.5375000
v -3.1931533 0.8371673 -0.5375000
v -3.1908360 0.9871494 -1.7250000
v -4.8909148 1.0204178 -1.7250000
v -3.1908360 0.9871494 -1.7250000
v -1.4905408 0.9678785 -1.7250000
v -1.4916233 0.8178824 -2.9125000
v -3.1931533 0.8371673 -2.9125000
v -3.1931533 0.8371673 -0.5375000
v -1.4916233 0.8178824 -0.5375000
v -1.4905408 0.9678785 -1.7250000
v -3.1908360 0.9871494 -1.7250000
v -6.5958321 0.1223667 -0.3125000
v -4.9049626 0.0754857 -0.3125000
v -4.9049626 0.0754857 -0.5375000
v -6.5958321 0.1223667 -0.5375000
v -4.9049626 0.0754857 -0.3125000
v -3.2137671 0.0423911 -0.3125000
v -3.2137671 0.0423911 -0.5375000
v -4.9049626 0.0754857 -0.5375000
v -3.2137671 0.0423911 -0.3125000
v -1.5223579 0.0230851 -0.3125000
v -1.5223579 0.0230851 -0.5375000
v -3.2137671 0.0423911 -0.5375000
v 1.5165248 0.8180637 -0.5625000
v 6.5705592 0.9169649 -0.5625000
v 6.5705592 0.9169649 -2.8875000
v 1.5165248 0.8180637 -2.8875000
v 1.5165248 0.8180637 -2.8875000
v 6.5705592 0.9169649 -2.8875000
v 6.5959911 0.1173692 -2.8875000
v 1.5223946 0.0180852 -2.8875000
v 6.5705592 0.9169649 -2.8875000
v 6.5705592 0.9169649 -0.5625000
v 6.5959911 0.1173692 -0.5625000
v 6.5959911 0.1173692 -2.8875000
v 6.5705592 0.9169649 -0.5625000
v 1.5165248 0.8180637 -0.5625000
v 1.5223946 0.0180852 -0.5625000
v 6.5959911 0.1173692 -0.5625000
v 1.5165248 0.8180637 -0.5625000
v 1.5165248 0.8180637 -2.8875000
v 1.5223946 0.0180852 -2.8875000
v 1.5223946 0.0180852 -0.5625000
v 1.4905408 0.9678785 -1.7250000
v 3.1908360 0.9871494 -1.7250000
v 3.1931533 0.8371673 -2.9125000
v 1.4916233 0.8178824 -2.9125000
v 1.4916233 0.8178824 -0.5375000
v 3.1931533 0.8371673 -0.5375000
v 3.1908360 0.9871494 -1.7250000
v 1.4905408 0.9678785 -1.7250000
v 3.1908360 0.9871494 -1.7250000
v 4.8909148 1.0204178 -1.7250000
v 4.8944669 0.8704599 -2.9125000
v 3.1931533 0.8371673 -2.9125000
v 3.1931533 0.8371673 -0.5375000
v 4.8944669 0.8704599 -0.5375000
v 4.8909148 1.0204178 -1.7250000
v 3.1908360 0.9871494 -1.7250000
v 4.8909148 1.0204178 -1.7250000
v 6.5906622 1.0676816 -1.7250000
v 6.5954487 0.9177580 -2.9125000
v 4.8944669 0.8704599 -2.9125000
v 4.8944669 0.8704599 -0.5375000
v 6.5954487 0.9177580 -0.5375000
v 6.5906622 1.0676816 -1.7250000
v 4.8909148 1.0204178 -1.7250000
v 1.5223579 0.0230851 -0.3125000
v 3.2137671 0.0423911 -0.3125000
v 3.2137671 0.0423911 -0.5375000
v 1.5223579 0.0230851 -0.5375000
v 3.2137671 0.0423911 -0.3125000
v 4.9049626 0.0754857 -0.3125000
v 4.9049626 0.0754857 -0.5375000
v 3.2137671 0.0423911 -0.5375000
v 4.9049626 0.0754857 -0.3125000
v 6.5958321 0.1223667 -0.3125000
v 6.5958321 0.1223667 -0.5375000
v 4.9049626 0.0754857 -0.5375000
v -6.8974817 0.1521916 3.4000000
v -4.7070785 0.0909059 3.4000000
v -4.7070785 0.0909059 0.9000000
v -6.8974817 0.1521916 0.9000000
v -4.7070785 0.0909059 3.4000000
v -2.5161502 0.0527588 3.4000000
v -2.5161502 0.0527588 0.9000000
v -4.7070785 0.0909059 0.9000000
v -2.5161502 0.0527588 3.4000000
v -0.3249411 0.0377545 3.4000000
v -0.3249411 0.0377545 0.9000000
v -2.5161502 0.0527588 0.9000000
v 0.3249411 0.0377545 3.4000000
v 2.5161502 0.0527588 3.4000000
v 2.5161502 0.0527588 0.9000000
v 0.3249411 0.0377545 0.9000000
v 2.5161502 0.0527588 3.4000000
v 4.7070785 0.0909059 3.4000000
v 4.7070785 0.0909059 0.9000000
v 2.5161502 0.0527588 0.9000000
v 4.7070785 0.0909059 3.4000000
v 6.8974817 0.1521916 3.4000000
v 6.8974817 0.1521916 0.9000000
v 4.7070785 0.0909059 0.9000000
v -4.6750512 0.3652515 2.0625000
v -4.3007039 0.3571408 2.0625000
v -4.3007039 0.3571408 1.6875000
v -4.6750512 0.3652515 1.6875000
v -4.6750512 0.3652515 1.6875000
v -4.3007039 0.3571408 1.6875000
v -4.3069312 0.0572055 1.6875000
v -4.6818205 0.0653278 1.6875000
v -4.3007039 0.3571408 1.6875000
v -4.3007039 0.3571408 2.0625000
v -4.3069312 0.0572055 2.0625000
v -4.3069312 0.0572055 1.6875000
v -4.3007039 0.3571408 2.0625000
v -4.6750512 0.3652515 2.0625000
v -4.6818205 0.0653278 2.0625000
v -4.3069312 0.0572055 2.0625000
v -4.6750512 0.3652515 2.0625000
v -4.6750512 0.3652515 1.6875000
v -4.6818205 0.0653278 1.6875000
v -4.6818205 0.0653278 2.0625000
v -4.2408070 0.3559059 2.0625000
v -3.8664435 0.3485801 2.0625000
v -3.8664435 0.3485801 1.6875000
v -4.2408070 0.3559059 1.6875000
v -4.2408070 0.3559059 1.6875000
v -3.8664435 0.3485801 1.6875000
v -3.8720419 0.0486323 1.6875000
v -4.2469475 0.0559688 1.6875000
v -3.8664435 0.3485801 1.6875000
v -3.8664435 0.3485801 2.0625000
v -3.8720419 0.0486323 2.0625000
v -3.8720419 0.0486323 1.6875000
v -3.8664435 0.3485801 2.0625000
v -4.2408070 0.3559059 2.0625000
v -4.2469475 0.0559688 2.0625000
v -3.8720419 0.0486323 2.0625000
v -4.2408070 0.3559059 2.0625000
v -4.2408070 0.3559059 1.6875000
v -4.2469475 0.0559688 1.6875000
v -4.2469475 0.0559688 2.0625000
v -3.8065441 0.3474707 2.0625000
v -3.4321660 0.3409297 2.0625000
v -3.4321660 0.3409297 1.6875000
v -3.8065441 0.3474707 1.6875000
v -3.8065441 0.3474707 1.6875000
v -3.4321660 0.3409297 1.6875000
v -3.4371357 0.0409709 1.6875000
v -3.8120558 0.0475214 1.6875000
v -3.4321660 0.3409297 1.6875000
v -3.4321660 0.3409297 2.0625000
v -3.4371357 0.0409709 2.0625000
v -3.4371357 0.0409709 1.6875000
v -3.4321660 0.3409297 2.0625000
v -3.8065441 0.3474707 2.0625000
v -3.8120558 0.0475214 2.0625000
v -3.4371357 0.0409709 2.0625000
v -3.8065441 0.3474707 2.0625000
v -3.8065441 0.3474707 1.6875000
v -3.8120558 0.0475214 1.6875000
v -3.8120558 0.0475214 2.0625000
v 3.4321660 0.3409297 2.0625000
v 3.8065441 0.3474707 2.0625000
v 3.8065441 0.3474707 1.6875000
v 3.4321660 0.3409297 1.6875000
v 3.4321660 0.3409297 1.6875000
v 3.8065441 0.3474707 1.6875000
v 3.8120558 0.0475214 1.6875000
v 3.4371357 0.0409709 1.6875000
v 3.8065441 0.3474707 1.6875000
v 3.8065441 0.3474707 2.0625000
v 3.8120558 0.0475214 2.0625000
v 3.8120558 0.0475214 1.6875000
v 3.8065441 0.3474707 2.0625000
v 3.4321660 0.3409297 2.0625000
v 3.4371357 0.0409709 2.0625000
v 3.8120558 0.0475214 2.0625000
v 3.4321660 0.3409297 2.0625000
v 3.4321660 0.3409297 1.6875000
v 3.4371357 0.0409709 1.6875000
v 3.4371357 0.0409709 2.0625000
v 3.8664435 0.3485801 2.0625000
v 4.2408070 0.3559059 2.0625000
v 4.2408070 0.3559059 1.6875000
v 3.8664435 0.3485801 1.6875000
v 3.8664435 0.3485801 1.6875000
v 4.2408070 0.3559059 1.6875000
v 4.2469475 0.0559688 1.6875000
v 3.8720419 0.0486323 1.6875000
v 4.2408070 0.3559059 1.6875000
v 4.2408070 0.3559059 2.0625000
v 4.2469475 0.0559688 2.0625000
v 4.2469475 0.0559688 1.6875000
v 4.2408070 0.3559059 2.0625000
v 3.8664435 0.3485801 2.0625000
v 3.8720419 0.0486323 2.0625000
v 4.2469475 0.0559688 2.0625000
v 3.8664435 0.3485801 2.0625000
v 3.8664435 0.3485801 1.6875000
v 3.8720419 0.0486323 1.6875000
v 3.8720419 0.0486323 2.0625000
v 4.3007039 0.3571408 2.0625000
v 4.6750512 0.3652515 2.0625000
v 4.6750512 0.3652515 1.6875000
v 4.3007039 0.3571408 1.6875000
v 4.3007039 0.3571408 1.6875000
v 4.6750512 0.3652515 1.6875000
v 4.6818205 0.0653278 1.6875000
v 4.3069312 0.0572055 1.6875000
v 4.6750512 0.3652515 1.6875000
v 4.6750512 0.3652515 2.0625000
v 4.6818205 0.0653278 2.0625000
v 4.6818205 0.0653278 1.6875000
v 4.6750512 0.3652515 2.0625000
v 4.3007039 0.3571408 2.0625000
v 4.3069312 0.0572055 2.0625000
v 4.6818205 0.0653278 2.0625000
v 4.3007039 0.3571408 2.0625000
v 4.3007039 0.3571408 1.6875000
v 4.3069312 0.0572055 1.6875000
v 4.3069312 0.0572055 2.0625000
vt 0.005000 0.995000
vt 0.245000 0.995000
vt 0.245000 0.755000
vt 0.255000 0.995000
vt 0.495000 0.995000
vt 0.495000 0.755000
vt 0.505000 0.995000
vt 0.745000 0.995000
vt 0.745000 0.755000
vt 0.755000 0.995000
vt 0.995000 0.995000
vt 0.995000 0.755000
vt 0.005000 0.745000
vt 0.245000 0.745000
vt 0.245000 0.505000
vt 0.255000 0.745000
vt 0.495000 0.745000
vt 0.495000 0.505000
vt 0.505000 0.745000
vt 0.745000 0.745000
vt 0.745000 0.505000
vt 0.755000 0.745000
vt 0.995000 0.745000
vt 0.995000 0.505000
vt 0.005000 0.495000
vt 0.245000 0.495000
vt 0.245000 0.255000
vt 0.255000 0.495000
vt 0.495000 0.495000
vt 0.495000 0.255000
vt 0.505000 0.495000
vt 0.745000 0.495000
vt 0.745000 0.255000
vt 0.755000 0.495000
vt 0.995000 0.495000
vt 0.995000 0.255000
vt 0.005000 0.245000
vt 0.245000 0.245000
vt 0.245000 0.005000
vt 0.255000 0.245000
vt 0.495000 0.245000
vt 0.495000 0.005000
vt 0.505000 0.245000
vt 0.745000 0.245000
vt 0.745000 0.005000
vt 0.755000 0.245000
vt 0.995000 0.245000
vt 0.995000 0.005000
g ornament
usemtl farm-kit
f 109/31 110/32 111/33
f 109/31 111/32 112/33
f 113/31 114/32 115/33
f 113/31 115/32 116/33
f 117/31 118/32 119/33
f 117/31 119/32 120/33
f 121/31 122/32 123/33
f 121/31 123/32 124/33
f 125/31 126/32 127/33
f 125/31 127/32 128/33
f 129/31 130/32 131/33
f 129/31 131/32 132/33
f 165/31 166/32 167/33
f 165/31 167/32 168/33
f 169/31 170/32 171/33
f 169/31 171/32 172/33
f 173/31 174/32 175/33
f 173/31 175/32 176/33
f 177/31 178/32 179/33
f 177/31 179/32 180/33
f 181/31 182/32 183/33
f 181/31 183/32 184/33
f 185/31 186/32 187/33
f 185/31 187/32 188/33
f 201/4 202/5 203/6
f 201/4 203/5 204/6
f 205/4 206/5 207/6
f 205/4 207/5 208/6
f 209/4 210/5 211/6
f 209/4 211/5 212/6
f 213/4 214/5 215/6
f 213/4 215/5 216/6
f 217/4 218/5 219/6
f 217/4 219/5 220/6
f 221/4 222/5 223/6
f 221/4 223/5 224/6
g solid
usemtl farm-kit
f 89/28 90/29 91/30
f 89/28 91/29 92/30
f 93/28 94/29 95/30
f 93/28 95/29 96/30
f 97/28 98/29 99/30
f 97/28 99/29 100/30
f 101/28 102/29 103/30
f 101/28 103/29 104/30
f 105/28 106/29 107/30
f 105/28 107/29 108/30
f 145/28 146/29 147/30
f 145/28 147/29 148/30
f 149/28 150/29 151/30
f 149/28 151/29 152/30
f 153/28 154/29 155/30
f 153/28 155/29 156/30
f 157/28 158/29 159/30
f 157/28 159/29 160/30
f 161/28 162/29 163/30
f 161/28 163/29 164/30
f 225/34 226/35 227/36
f 225/34 227/35 228/36
f 229/34 230/35 231/36
f 229/34 231/35 232/36
f 233/34 234/35 235/36
f 233/34 235/35 236/36
f 237/34 238/35 239/36
f 237/34 239/35 240/36
f 241/34 242/35 243/36
f 241/34 243/35 244/36
f 245/34 246/35 247/36
f 245/34 247/35 248/36
f 249/34 250/35 251/36
f 249/34 251/35 252/36
f 253/34 254/35 255/36
f 253/34 255/35 256/36
f 257/34 258/35 259/36
f 257/34 259/35 260/36
f 261/34 262/35 263/36
f 261/34 263/35 264/36
f 265/34 266/35 267/36
f 265/34 267/35 268/36
f 269/34 270/35 271/36
f 269/34 271/35 272/36
f 273/34 274/35 275/36
f 273/34 275/35 276/36
f 277/34 278/35 279/36
f 277/34 279/35 280/36
f 281/34 282/35 283/36
f 281/34 283/35 284/36
f 285/34 286/35 287/36
f 285/34 287/35 288/36
f 289/34 290/35 291/36
f 289/34 291/35 292/36
f 293/34 294/35 295/36
f 293/34 295/35 296/36
f 297/34 298/35 299/36
f 297/34 299/35 300/36
f 301/34 302/35 303/36
f 301/34 303/35 304/36
f 305/34 306/35 307/36
f 305/34 307/35 308/36
f 309/34 310/35 311/36
f 309/34 311/35 312/36
f 313/34 314/35 315/36
f 313/34 315/35 316/36
f 317/34 318/35 319/36
f 317/34 319/35 320/36
f 321/34 322/35 323/36
f 321/34 323/35 324/36
f 325/34 326/35 327/36
f 325/34 327/35 328/36
f 329/34 330/35 331/36
f 329/34 331/35 332/36
f 333/34 334/35 335/36
f 333/34 335/35 336/36
f 337/34 338/35 339/36
f 337/34 339/35 340/36
f 341/34 342/35 343/36
f 341/34 343/35 344/36
g support
usemtl farm-kit
f 1/1 2/2 3/3
f 1/1 3/2 4/3
f 5/1 6/2 7/3
f 5/1 7/2 8/3
f 9/1 10/2 11/3
f 9/1 11/2 12/3
f 13/1 14/2 15/3
f 13/1 15/2 16/3
f 17/1 18/2 19/3
f 17/1 19/2 20/3
f 21/1 22/2 23/3
f 21/1 23/2 24/3
f 25/1 26/2 27/3
f 25/1 27/2 28/3
f 29/4 30/5 31/6
f 29/4 31/5 32/6
f 33/4 34/5 35/6
f 33/4 35/5 36/6
f 37/4 38/5 39/6
f 37/4 39/5 40/6
f 41/4 42/5 43/6
f 41/4 43/5 44/6
f 45/4 46/5 47/6
f 45/4 47/5 48/6
f 49/4 50/5 51/6
f 49/4 51/5 52/6
f 53/4 54/5 55/6
f 53/4 55/5 56/6
f 57/4 58/5 59/6
f 57/4 59/5 60/6
f 61/4 62/5 63/6
f 61/4 63/5 64/6
f 65/4 66/5 67/6
f 65/4 67/5 68/6
f 69/4 70/5 71/6
f 69/4 71/5 72/6
f 73/4 74/5 75/6
f 73/4 75/5 76/6
f 77/4 78/5 79/6
f 77/4 79/5 80/6
f 81/4 82/5 83/6
f 81/4 83/5 84/6
f 85/4 86/5 87/6
f 85/4 87/5 88/6
f 133/4 134/5 135/6
f 133/4 135/5 136/6
f 137/4 138/5 139/6
f 137/4 139/5 140/6
f 141/4 142/5 143/6
f 141/4 143/5 144/6
f 189/4 190/5 191/6
f 189/4 191/5 192/6
f 193/4 194/5 195/6
f 193/4 195/5 196/6
f 197/4 198/5 199/6
f 197/4 199/5 200/6
