mtllib TorusSettlementFarm_A26.mtl
v -1.2742557 0.0038661 4.2500000
v 0.0000000 0.0000000 4.2500000
v 0.0000000 0.0000000 -4.2500000
v -1.2742557 0.0038661 -4.2500000
v 0.0000000 0.0000000 4.2500000
v 1.2742557 0.0038661 4.2500000
v 1.2742557 0.0038661 -4.2500000
v 0.0000000 0.0000000 -4.2500000
v -1.2741799 0.0163658 -3.9000000
v 0.0000000 0.0125000 -3.9000000
v 0.0000000 0.0125000 -4.2500000
v -1.2741799 0.0163658 -4.2500000
v 0.0000000 0.0125000 -3.9000000
v 1.2741799 0.0163658 -3.9000000
v 1.2741799 0.0163658 -4.2500000
v 0.0000000 0.0125000 -4.2500000
v -1.2741799 0.0163658 4.2500000
v 0.0000000 0.0125000 4.2500000
v 0.0000000 0.0125000 3.9000000
v -1.2741799 0.0163658 3.9000000
v 0.0000000 0.0125000 4.2500000
v 1.2741799 0.0163658 4.2500000
v 1.2741799 0.0163658 3.9000000
v 0.0000000 0.0125000 3.9000000
v -0.2548375 0.0126546 4.2500000
v 0.2548375 0.0126546 4.2500000
v 0.2548375 0.0126546 -4.2500000
v -0.2548375 0.0126546 -4.2500000
v -0.9232703 0.2270318 -3.7105714
v -0.2795528 0.2251863 -3.7105714
v -0.2797693 0.0626864 -3.9000000
v -0.9239855 0.0645334 -3.9000000
v -0.9239855 0.0645334 -3.5211429
v -0.2797693 0.0626864 -3.5211429
v -0.2795528 0.2251863 -3.7105714
v -0.9232703 0.2270318 -3.7105714
v 0.2795528 0.2251863 -3.7105714
v 0.9232703 0.2270318 -3.7105714
v 0.9239855 0.0645334 -3.9000000
v 0.2797693 0.0626864 -3.9000000
v 0.2797693 0.0626864 -3.5211429
v 0.9239855 0.0645334 -3.5211429
v 0.9232703 0.2270318 -3.7105714
v 0.2795528 0.2251863 -3.7105714
v -0.9232703 0.2270318 -3.1534286
v -0.2795528 0.2251863 -3.1534286
v -0.2797693 0.0626864 -3.3428571
v -0.9239855 0.0645334 -3.3428571
v -0.9239855 0.0645334 -2.9640000
v -0.2797693 0.0626864 -2.9640000
v -0.2795528 0.2251863 -3.1534286
v -0.9232703 0.2270318 -3.1534286
v 0.2795528 0.2251863 -3.1534286
v 0.9232703 0.2270318 -3.1534286
v 0.9239855 0.0645334 -3.3428571
v 0.2797693 0.0626864 -3.3428571
v 0.2797693 0.0626864 -2.9640000
v 0.9239855 0.0645334 -2.9640000
v 0.9232703 0.2270318 -3.1534286
v 0.2795528 0.2251863 -3.1534286
v -0.9232703 0.2270318 -2.5962857
v -0.2795528 0.2251863 -2.5962857
v -0.2797693 0.0626864 -2.7857143
v -0.9239855 0.0645334 -2.7857143
v -0.9239855 0.0645334 -2.4068571
v -0.2797693 0.0626864 -2.4068571
v -0.2795528 0.2251863 -2.5962857
v -0.9232703 0.2270318 -2.5962857
v 0.2795528 0.2251863 -2.5962857
v 0.9232703 0.2270318 -2.5962857
v 0.9239855 0.0645334 -2.7857143
v 0.2797693 0.0626864 -2.7857143
v 0.2797693 0.0626864 -2.4068571
v 0.9239855 0.0645334 -2.4068571
v 0.9232703 0.2270318 -2.5962857
v 0.2795528 0.2251863 -2.5962857
v -0.9232703 0.2270318 -2.0391429
v -0.2795528 0.2251863 -2.0391429
v -0.2797693 0.0626864 -2.2285714
v -0.9239855 0.0645334 -2.2285714
v -0.9239855 0.0645334 -1.8497143
v -0.2797693 0.0626864 -1.8497143
v -0.2795528 0.2251863 -2.0391429
v -0.9232703 0.2270318 -2.0391429
v 0.2795528 0.2251863 -2.0391429
v 0.9232703 0.2270318 -2.0391429
v 0.9239855 0.0645334 -2.2285714
v 0.2797693 0.0626864 -2.2285714
v 0.2797693 0.0626864 -1.8497143
v 0.9239855 0.0645334 -1.8497143
v 0.9232703 0.2270318 -2.0391429
v 0.2795528 0.2251863 -2.0391429
v -0.9232703 0.2270318 -1.4820000
v -0.2795528 0.2251863 -1.4820000
v -0.2797693 0.0626864 -1.6714286
v -0.9239855 0.0645334 -1.6714286
v -0.9239855 0.0645334 -1.2925714
v -0.2797693 0.0626864 -1.2925714
v -0.2795528 0.2251863 -1.4820000
v -0.9232703 0.2270318 -1.4820000
v 0.2795528 0.2251863 -1.4820000
v 0.9232703 0.2270318 -1.4820000
v 0.9239855 0.0645334 -1.6714286
v 0.2797693 0.0626864 -1.6714286
v 0.2797693 0.0626864 -1.2925714
v 0.9239855 0.0645334 -1.2925714
v 0.9232703 0.2270318 -1.4820000
v 0.2795528 0.2251863 -1.4820000
v -0.9232703 0.2270318 -0.9248571
v -0.2795528 0.2251863 -0.9248571
v -0.2797693 0.0626864 -1.1142857
v -0.9239855 0.0645334 -1.1142857
v -0.9239855 0.0645334 -0.7354286
v -0.2797693 0.0626864 -0.7354286
v -0.2795528 0.2251863 -0.9248571
v -0.9232703 0.2270318 -0.9248571
v 0.2795528 0.2251863 -0.9248571
v 0.9232703 0.2270318 -0.9248571
v 0.9239855 0.0645334 -1.1142857
v 0.2797693 0.0626864 -1.1142857
v 0.2797693 0.0626864 -0.7354286
v 0.9239855 0.0645334 -0.7354286
v 0.9232703 0.2270318 -0.9248571
v 0.2795528 0.2251863 -0.9248571
v -0.9232703 0.2270318 -0.3677143
v -0.2795528 0.2251863 -0.3677143
v -0.2797693 0.0626864 -0.5571429
v -0.9239855 0.0645334 -0.5571429
v -0.9239855 0.0645334 -0.1782857
v -0.2797693 0.0626864 -0.1782857
v -0.2795528 0.2251863 -0.3677143
v -0.9232703 0.2270318 -0.3677143
v 0.2795528 0.2251863 -0.3677143
v 0.9232703 0.2270318 -0.3677143
v 0.9239855 0.0645334 -0.5571429
v 0.2797693 0.0626864 -0.5571429
v 0.2797693 0.0626864 -0.1782857
v 0.9239855 0.0645334 -0.1782857
v 0.9232703 0.2270318 -0.3677143
v 0.2795528 0.2251863 -0.3677143
v -0.9232703 0.2270318 0.1894286
v -0.2795528 0.2251863 0.1894286
v -0.2797693 0.0626864 0.0000000
v -0.9239855 0.0645334 0.0000000
v -0.9239855 0.0645334 0.3788571
v -0.2797693 0.0626864 0.3788571
v -0.2795528 0.2251863 0.1894286
v -0.9232703 0.2270318 0.1894286
v 0.2795528 0.2251863 0.1894286
v 0.9232703 0.2270318 0.1894286
v 0.9239855 0.0645334 0.0000000
v 0.2797693 0.0626864 0.0000000
v 0.2797693 0.0626864 0.3788571
v 0.9239855 0.0645334 0.3788571
v 0.9232703 0.2270318 0.1894286
v 0.2795528 0.2251863 0.1894286
v -0.9232703 0.2270318 0.7465714
v -0.2795528 0.2251863 0.7465714
v -0.2797693 0.0626864 0.5571429
v -0.9239855 0.0645334 0.5571429
v -0.9239855 0.0645334 0.9360000
v -0.2797693 0.0626864 0.9360000
v -0.2795528 0.2251863 0.7465714
v -0.9232703 0.2270318 0.7465714
v 0.2795528 0.2251863 0.7465714
v 0.9232703 0.2270318 0.7465714
v 0.9239855 0.0645334 0.5571429
v 0.2797693 0.0626864 0.5571429
v 0.2797693 0.0626864 0.9360000
v 0.9239855 0.0645334 0.9360000
v 0.9232703 0.2270318 0.7465714
v 0.2795528 0.2251863 0.7465714
v -0.9232703 0.2270318 1.3037143
v -0.2795528 0.2251863 1.3037143
v -0.2797693 0.0626864 1.1142857
v -0.9239855 0.0645334 1.1142857
v -0.9239855 0.0645334 1.4931429
v -0.2797693 0.0626864 1.4931429
v -0.2795528 0.2251863 1.3037143
v -0.9232703 0.2270318 1.3037143
v 0.2795528 0.2251863 1.3037143
v 0.9232703 0.2270318 1.3037143
v 0.9239855 0.0645334 1.1142857
v 0.2797693 0.0626864 1.1142857
v 0.2797693 0.0626864 1.4931429
v 0.9239855 0.0645334 1.4931429
v 0.9232703 0.2270318 1.3037143
v 0.2795528 0.2251863 1.3037143
v -0.9232703 0.2270318 1.8608571
v -0.2795528 0.2251863 1.8608571
v -0.2797693 0.0626864 1.6714286
v -0.9239855 0.0645334 1.6714286
v -0.9239855 0.0645334 2.0502857
v -0.2797693 0.0626864 2.0502857
v -0.2795528 0.2251863 1.8608571
v -0.9232703 0.2270318 1.8608571
v 0.2795528 0.2251863 1.8608571
v 0.9232703 0.2270318 1.8608571
v 0.9239855 0.0645334 1.6714286
v 0.2797693 0.0626864 1.6714286
v 0.2797693 0.0626864 2.0502857
v 0.9239855 0.0645334 2.0502857
v 0.9232703 0.2270318 1.8608571
v 0.2795528 0.2251863 1.8608571
v -0.9232703 0.2270318 2.4180000
v -0.2795528 0.2251863 2.4180000
v -0.2797693 0.0626864 2.2285714
v -0.9239855 0.0645334 2.2285714
v -0.9239855 0.0645334 2.6074286
v -0.2797693 0.0626864 2.6074286
v -0.2795528 0.2251863 2.4180000
v -0.9232703 0.2270318 2.4180000
v 0.2795528 0.2251863 2.4180000
v 0.9232703 0.2270318 2.4180000
v 0.9239855 0.0645334 2.2285714
v 0.2797693 0.0626864 2.2285714
v 0.2797693 0.0626864 2.6074286
v 0.9239855 0.0645334 2.6074286
v 0.9232703 0.2270318 2.4180000
v 0.2795528 0.2251863 2.4180000
v -0.9232703 0.2270318 2.9751429
v -0.2795528 0.2251863 2.9751429
v -0.2797693 0.0626864 2.7857143
v -0.9239855 0.0645334 2.7857143
v -0.9239855 0.0645334 3.1645714
v -0.2797693 0.0626864 3.1645714
v -0.2795528 0.2251863 2.9751429
v -0.9232703 0.2270318 2.9751429
v 0.2795528 0.2251863 2.9751429
v 0.9232703 0.2270318 2.9751429
v 0.9239855 0.0645334 2.7857143
v 0.2797693 0.0626864 2.7857143
v 0.2797693 0.0626864 3.1645714
v 0.9239855 0.0645334 3.1645714
v 0.9232703 0.2270318 2.9751429
v 0.2795528 0.2251863 2.9751429
v -0.9232703 0.2270318 3.5322857
v -0.2795528 0.2251863 3.5322857
v -0.2797693 0.0626864 3.3428571
v -0.9239855 0.0645334 3.3428571
v -0.9239855 0.0645334 3.7217143
v -0.2797693 0.0626864 3.7217143
v -0.2795528 0.2251863 3.5322857
v -0.9232703 0.2270318 3.5322857
v 0.2795528 0.2251863 3.5322857
v 0.9232703 0.2270318 3.5322857
v 0.9239855 0.0645334 3.3428571
v 0.2797693 0.0626864 3.3428571
v 0.2797693 0.0626864 3.7217143
v 0.9239855 0.0645334 3.7217143
v 0.9232703 0.2270318 3.5322857
v 0.2795528 0.2251863 3.5322857
v -0.9204095 0.8770255 -2.5250000
v 0.9204095 0.8770255 -2.5250000
v 0.9204095 0.8770255 -2.5750000
v -0.9204095 0.8770255 -2.5750000
v -0.9204095 0.8770255 2.5750000
v 0.9204095 0.8770255 2.5750000
v 0.9204095 0.8770255 2.5250000
v -0.9204095 0.8770255 2.5250000
vt 0.005000 0.995000
vt 0.245000 0.995000
vt 0.245000 0.755000
vt 0.255000 0.995000
vt 0.495000 0.995000
vt 0.495000 0.755000
vt 0.505000 0.995000
vt 0.745000 0.995000
vt 0.745000 0.755000
vt 0.755000 0.995000
vt 0.995000 0.995000
vt 0.995000 0.755000
vt 0.005000 0.745000
vt 0.245000 0.745000
vt 0.245000 0.505000
vt 0.255000 0.745000
vt 0.495000 0.745000
vt 0.495000 0.505000
vt 0.505000 0.745000
vt 0.745000 0.745000
vt 0.745000 0.505000
vt 0.755000 0.745000
vt 0.995000 0.745000
vt 0.995000 0.505000
vt 0.005000 0.495000
vt 0.245000 0.495000
vt 0.245000 0.255000
vt 0.255000 0.495000
vt 0.495000 0.495000
vt 0.495000 0.255000
vt 0.505000 0.495000
vt 0.745000 0.495000
vt 0.745000 0.255000
vt 0.755000 0.495000
vt 0.995000 0.495000
vt 0.995000 0.255000
vt 0.005000 0.245000
vt 0.245000 0.245000
vt 0.245000 0.005000
vt 0.255000 0.245000
vt 0.495000 0.245000
vt 0.495000 0.005000
vt 0.505000 0.245000
vt 0.745000 0.245000
vt 0.745000 0.005000
vt 0.755000 0.245000
vt 0.995000 0.245000
vt 0.995000 0.005000
g lighting
usemtl farm-kit
f 253/43 254/44 255/45
f 253/43 255/44 256/45
f 257/43 258/44 259/45
f 257/43 259/44 260/45
g ornament
usemtl farm-kit
f 29/7 30/8 31/9
f 29/7 31/8 32/9
f 33/7 34/8 35/9
f 33/7 35/8 36/9
f 37/7 38/8 39/9
f 37/7 39/8 40/9
f 41/7 42/8 43/9
f 41/7 43/8 44/9
f 45/7 46/8 47/9
f 45/7 47/8 48/9
f 49/7 50/8 51/9
f 49/7 51/8 52/9
f 53/7 54/8 55/9
f 53/7 55/8 56/9
f 57/7 58/8 59/9
f 57/7 59/8 60/9
f 61/7 62/8 63/9
f 61/7 63/8 64/9
f 65/7 66/8 67/9
f 65/7 67/8 68/9
f 69/7 70/8 71/9
f 69/7 71/8 72/9
f 73/7 74/8 75/9
f 73/7 75/8 76/9
f 77/7 78/8 79/9
f 77/7 79/8 80/9
f 81/7 82/8 83/9
f 81/7 83/8 84/9
f 85/7 86/8 87/9
f 85/7 87/8 88/9
f 89/7 90/8 91/9
f 89/7 91/8 92/9
f 93/7 94/8 95/9
f 93/7 95/8 96/9
f 97/7 98/8 99/9
f 97/7 99/8 100/9
f 101/7 102/8 103/9
f 101/7 103/8 104/9
f 105/7 106/8 107/9
f 105/7 107/8 108/9
f 109/7 110/8 111/9
f 109/7 111/8 112/9
f 113/7 114/8 115/9
f 113/7 115/8 116/9
f 117/7 118/8 119/9
f 117/7 119/8 120/9
f 121/7 122/8 123/9
f 121/7 123/8 124/9
f 125/7 126/8 127/9
f 125/7 127/8 128/9
f 129/7 130/8 131/9
f 129/7 131/8 132/9
f 133/7 134/8 135/9
f 133/7 135/8 136/9
f 137/7 138/8 139/9
f 137/7 139/8 140/9
f 141/7 142/8 143/9
f 141/7 143/8 144/9
f 145/7 146/8 147/9
f 145/7 147/8 148/9
f 149/7 150/8 151/9
f 149/7 151/8 152/9
f 153/7 154/8 155/9
f 153/7 155/8 156/9
f 157/7 158/8 159/9
f 157/7 159/8 160/9
f 161/7 162/8 163/9
f 161/7 163/8 164/9
f 165/7 166/8 167/9
f 165/7 167/8 168/9
f 169/7 170/8 171/9
f 169/7 171/8 172/9
f 173/7 174/8 175/9
f 173/7 175/8 176/9
f 177/7 178/8 179/9
f 177/7 179/8 180/9
f 181/7 182/8 183/9
f 181/7 183/8 184/9
f 185/7 186/8 187/9
f 185/7 187/8 188/9
f 189/7 190/8 191/9
f 189/7 191/8 192/9
f 193/7 194/8 195/9
f 193/7 195/8 196/9
f 197/7 198/8 199/9
f 197/7 199/8 200/9
f 201/7 202/8 203/9
f 201/7 203/8 204/9
f 205/7 206/8 207/9
f 205/7 207/8 208/9
f 209/7 210/8 211/9
f 209/7 211/8 212/9
f 213/7 214/8 215/9
f 213/7 215/8 216/9
f 217/7 218/8 219/9
f 217/7 219/8 220/9
f 221/7 222/8 223/9
f 221/7 223/8 224/9
f 225/7 226/8 227/9
f 225/7 227/8 228/9
f 229/7 230/8 231/9
f 229/7 231/8 232/9
f 233/7 234/8 235/9
f 233/7 235/8 236/9
f 237/7 238/8 239/9
f 237/7 239/8 240/9
f 241/7 242/8 243/9
f 241/7 243/8 244/9
f 245/7 246/8 247/9
f 245/7 247/8 248/9
f 249/7 250/8 251/9
f 249/7 251/8 252/9
g support
usemtl farm-kit
f 1/1 2/2 3/3
f 1/1 3/2 4/3
f 5/1 6/2 7/3
f 5/1 7/2 8/3
f 9/4 10/5 11/6
f 9/4 11/5 12/6
f 13/4 14/5 15/6
f 13/4 15/5 16/6
f 17/4 18/5 19/6
f 17/4 19/5 20/6
f 21/4 22/5 23/6
f 21/4 23/5 24/6
f 25/4 26/5 27/6
f 25/4 27/5 28/6
