mtllib TorusUtility_WaterTankA.mtl
o TorusUtility_WaterTankA
usemtl TorusUtilityKit
v -0.97500000 0.00000000 -0.75000000
v -0.97500000 0.04000000 -0.75000000
v 0.97500000 0.04000000 -0.75000000
v 0.97500000 0.00000000 -0.75000000
v -0.97500000 0.00000000 0.70000000
v 0.97500000 0.00000000 0.70000000
v 0.97500000 0.04000000 0.70000000
v -0.97500000 0.04000000 0.70000000
v -0.85000000 0.04000000 0.62500000
v -0.85000000 0.04100000 0.62500000
v 0.85000000 0.04100000 0.62500000
v 0.85000000 0.04000000 0.62500000
v -0.85000000 0.04000000 0.65000000
v 0.85000000 0.04000000 0.65000000
v 0.85000000 0.04100000 0.65000000
v -0.85000000 0.04100000 0.65000000
v -0.12500000 0.18750000 0.04990000
v -0.01880000 0.18750000 0.02144380
v 0.02250000 0.24437500 0.09297750
v -0.12500000 0.24437500 0.13250000
v 0.05894380 0.18750000 -0.05630000
v 0.13047750 0.24437500 -0.01500000
v 0.08740000 0.18750000 -0.16250000
v 0.17000000 0.24437500 -0.16250000
v 0.05894380 0.18750000 -0.26870000
v 0.13047750 0.24437500 -0.31000000
v -0.01880000 0.18750000 -0.34644380
v 0.02250000 0.24437500 -0.41797750
v -0.12500000 0.18750000 -0.37490000
v -0.12500000 0.24437500 -0.45750000
v -0.23120000 0.18750000 -0.34644380
v -0.27250000 0.24437500 -0.41797750
v -0.30894380 0.18750000 -0.26870000
v -0.38047750 0.24437500 -0.31000000
v -0.33740000 0.18750000 -0.16250000
v -0.42000000 0.24437500 -0.16250000
v -0.30894380 0.18750000 -0.05630000
v -0.38047750 0.24437500 -0.01500000
v -0.23120000 0.18750000 0.02144380
v -0.27250000 0.24437500 0.09297750
v 0.02250000 0.94312500 0.09297750
v -0.12500000 0.94312500 0.13250000
v 0.13047750 0.94312500 -0.01500000
v 0.17000000 0.94312500 -0.16250000
v 0.13047750 0.94312500 -0.31000000
v 0.02250000 0.94312500 -0.41797750
v -0.12500000 0.94312500 -0.45750000
v -0.27250000 0.94312500 -0.41797750
v -0.38047750 0.94312500 -0.31000000
v -0.42000000 0.94312500 -0.16250000
v -0.38047750 0.94312500 -0.01500000
v -0.27250000 0.94312500 0.09297750
v -0.01880000 1.00000000 0.02144380
v -0.12500000 1.00000000 0.04990000
v 0.05894380 1.00000000 -0.05630000
v 0.08740000 1.00000000 -0.16250000
v 0.05894380 1.00000000 -0.26870000
v -0.01880000 1.00000000 -0.34644380
v -0.12500000 1.00000000 -0.37490000
v -0.23120000 1.00000000 -0.34644380
v -0.30894380 1.00000000 -0.26870000
v -0.33740000 1.00000000 -0.16250000
v -0.30894380 1.00000000 -0.05630000
v -0.23120000 1.00000000 0.02144380
v -0.12500000 0.18750000 -0.16250000
v -0.12500000 1.00000000 -0.16250000
v -0.12500000 0.23750000 0.13875000
v 0.08801592 0.23750000 0.05051593
v 0.08801592 0.26000000 0.05051593
v -0.12500000 0.26000000 0.13875000
v 0.17625000 0.23750000 -0.16250000
v 0.17625000 0.26000000 -0.16250000
v 0.08801592 0.23750000 -0.37551592
v 0.08801592 0.26000000 -0.37551592
v -0.12500000 0.23750000 -0.46375000
v -0.12500000 0.26000000 -0.46375000
v -0.33801592 0.23750000 -0.37551592
v -0.33801592 0.26000000 -0.37551592
v -0.42625000 0.23750000 -0.16250000
v -0.42625000 0.26000000 -0.16250000
v -0.33801592 0.23750000 0.05051593
v -0.33801592 0.26000000 0.05051593
v -0.12500000 0.23750000 -0.16250000
v -0.12500000 0.26000000 -0.16250000
v -0.12500000 0.95000000 0.13875000
v 0.08801592 0.95000000 0.05051593
v 0.08801592 0.97250000 0.05051593
v -0.12500000 0.97250000 0.13875000
v 0.17625000 0.95000000 -0.16250000
v 0.17625000 0.97250000 -0.16250000
v 0.08801592 0.95000000 -0.37551592
v 0.08801592 0.97250000 -0.37551592
v -0.12500000 0.95000000 -0.46375000
v -0.12500000 0.97250000 -0.46375000
v -0.33801592 0.95000000 -0.37551592
v -0.33801592 0.97250000 -0.37551592
v -0.42625000 0.95000000 -0.16250000
v -0.42625000 0.97250000 -0.16250000
v -0.33801592 0.95000000 0.05051593
v -0.33801592 0.97250000 0.05051593
v -0.12500000 0.95000000 -0.16250000
v -0.12500000 0.97250000 -0.16250000
v -0.12500000 1.00000000 -0.07990000
v -0.07644895 1.00000000 -0.09567520
v -0.07644895 1.04500000 -0.09567520
v -0.12500000 1.04500000 -0.07990000
v -0.04644272 1.00000000 -0.13697520
v -0.04644272 1.04500000 -0.13697520
v -0.04644272 1.00000000 -0.18802480
v -0.04644272 1.04500000 -0.18802480
v -0.07644895 1.00000000 -0.22932480
v -0.07644895 1.04500000 -0.22932480
v -0.12500000 1.00000000 -0.24510000
v -0.12500000 1.04500000 -0.24510000
v -0.17355105 1.00000000 -0.22932480
v -0.17355105 1.04500000 -0.22932480
v -0.20355728 1.00000000 -0.18802480
v -0.20355728 1.04500000 -0.18802480
v -0.20355728 1.00000000 -0.13697520
v -0.20355728 1.04500000 -0.13697520
v -0.17355105 1.00000000 -0.09567520
v -0.17355105 1.04500000 -0.09567520
v -0.12500000 1.04500000 -0.16250000
v -0.29250000 0.04000000 -0.33000000
v -0.29250000 0.18750000 -0.33000000
v -0.25250000 0.18750000 -0.33000000
v -0.25250000 0.04000000 -0.33000000
v -0.29250000 0.04000000 -0.29000000
v -0.25250000 0.04000000 -0.29000000
v -0.25250000 0.18750000 -0.29000000
v -0.29250000 0.18750000 -0.29000000
v -0.29250000 0.04000000 -0.03500000
v -0.29250000 0.18750000 -0.03500000
v -0.25250000 0.18750000 -0.03500000
v -0.25250000 0.04000000 -0.03500000
v -0.29250000 0.04000000 0.00500000
v -0.25250000 0.04000000 0.00500000
v -0.25250000 0.18750000 0.00500000
v -0.29250000 0.18750000 0.00500000
v 0.00250000 0.04000000 -0.33000000
v 0.00250000 0.18750000 -0.33000000
v 0.04250000 0.18750000 -0.33000000
v 0.04250000 0.04000000 -0.33000000
v 0.00250000 0.04000000 -0.29000000
v 0.04250000 0.04000000 -0.29000000
v 0.04250000 0.18750000 -0.29000000
v 0.00250000 0.18750000 -0.29000000
v 0.00250000 0.04000000 -0.03500000
v 0.00250000 0.18750000 -0.03500000
v 0.04250000 0.18750000 -0.03500000
v 0.04250000 0.04000000 -0.03500000
v 0.00250000 0.04000000 0.00500000
v 0.04250000 0.04000000 0.00500000
v 0.04250000 0.18750000 0.00500000
v 0.00250000 0.18750000 0.00500000
v -0.08500000 0.25000000 -0.16250000
v -0.09671573 0.27828428 -0.16250000
v -0.09671573 0.27828428 0.28750000
v -0.08500000 0.25000000 0.28750000
v -0.12500000 0.29000000 -0.16250000
v -0.12500000 0.29000000 0.28750000
v -0.15328427 0.27828428 -0.16250000
v -0.15328427 0.27828428 0.28750000
v -0.16500000 0.25000000 -0.16250000
v -0.16500000 0.25000000 0.28750000
v -0.15328427 0.22171573 -0.16250000
v -0.15328427 0.22171573 0.28750000
v -0.12500000 0.21000000 -0.16250000
v -0.12500000 0.21000000 0.28750000
v -0.09671573 0.22171573 -0.16250000
v -0.09671573 0.22171573 0.28750000
v -0.12500000 0.25000000 -0.16250000
v -0.12500000 0.25000000 0.28750000
v -0.12500000 0.25000000 0.24750000
v -0.12500000 0.27828428 0.25921573
v 0.47500000 0.27828428 0.25921573
v 0.47500000 0.25000000 0.24750000
v 0.47500000 0.29000000 0.28750000
v -0.12500000 0.27828428 0.31578428
v 0.47500000 0.27828428 0.31578428
v -0.12500000 0.25000000 0.32750000
v 0.47500000 0.25000000 0.32750000
v -0.12500000 0.22171573 0.31578428
v 0.47500000 0.22171573 0.31578428
v 0.47500000 0.21000000 0.28750000
v -0.12500000 0.22171573 0.25921573
v 0.47500000 0.22171573 0.25921573
v 0.47500000 0.25000000 0.28750000
v 0.37000000 0.25000000 0.24750000
v 0.35315865 0.29065865 0.24750000
v 0.35315865 0.29065865 0.32750000
v 0.37000000 0.25000000 0.32750000
v 0.31250000 0.30750000 0.24750000
v 0.31250000 0.30750000 0.32750000
v 0.27184135 0.29065865 0.24750000
v 0.27184135 0.29065865 0.32750000
v 0.25500000 0.25000000 0.24750000
v 0.25500000 0.25000000 0.32750000
v 0.27184135 0.20934135 0.24750000
v 0.27184135 0.20934135 0.32750000
v 0.31250000 0.19250000 0.24750000
v 0.31250000 0.19250000 0.32750000
v 0.35315865 0.20934135 0.24750000
v 0.35315865 0.20934135 0.32750000
v 0.31250000 0.25000000 0.24750000
v 0.31250000 0.25000000 0.32750000
v 0.31250000 0.25000000 0.30250000
v 0.32310660 0.25000000 0.29810660
v 0.32310660 0.35500000 0.29810660
v 0.31250000 0.35500000 0.30250000
v 0.32750000 0.25000000 0.28750000
v 0.32750000 0.35500000 0.28750000
v 0.32310660 0.25000000 0.27689340
v 0.32310660 0.35500000 0.27689340
v 0.31250000 0.25000000 0.27250000
v 0.31250000 0.35500000 0.27250000
v 0.30189340 0.25000000 0.27689340
v 0.30189340 0.35500000 0.27689340
v 0.29750000 0.25000000 0.28750000
v 0.29750000 0.35500000 0.28750000
v 0.30189340 0.25000000 0.29810660
v 0.30189340 0.35500000 0.29810660
v 0.31250000 0.25000000 0.28750000
v 0.31250000 0.35500000 0.28750000
v 0.38058395 0.36000000 0.29084847
v 0.37654197 0.36757773 0.28917425
v 0.35896838 0.36757773 0.33160065
v 0.36301035 0.36000000 0.33327488
v 0.36845803 0.36757773 0.28582575
v 0.35088442 0.36757773 0.32825217
v 0.36441605 0.36000000 0.28415153
v 0.34684245 0.36000000 0.32657792
v 0.36845803 0.35242228 0.28582575
v 0.35088442 0.35242228 0.32825217
v 0.37654197 0.35242228 0.28917425
v 0.35896838 0.35242228 0.33160065
v 0.37250000 0.36000000 0.28750000
v 0.35492640 0.36000000 0.32992640
v 0.35827487 0.36000000 0.33801035
v 0.35660065 0.36757773 0.33396837
v 0.31417425 0.36757773 0.35154198
v 0.31584848 0.36000000 0.35558395
v 0.35325218 0.36757773 0.32588442
v 0.31082575 0.36757773 0.34345803
v 0.35157793 0.36000000 0.32184245
v 0.30915152 0.36000000 0.33941605
v 0.35325218 0.35242228 0.32588442
v 0.31082575 0.35242228 0.34345803
v 0.35660065 0.35242228 0.33396837
v 0.31417425 0.35242228 0.35154198
v 0.31250000 0.36000000 0.34750000
v 0.30915152 0.36000000 0.35558395
v 0.31082575 0.36757773 0.35154198
v 0.26839935 0.36757773 0.33396837
v 0.26672513 0.36000000 0.33801035
v 0.31417425 0.36757773 0.34345803
v 0.27174782 0.36757773 0.32588442
v 0.31584848 0.36000000 0.33941605
v 0.27342207 0.36000000 0.32184245
v 0.31417425 0.35242228 0.34345803
v 0.27174782 0.35242228 0.32588442
v 0.31082575 0.35242228 0.35154198
v 0.26839935 0.35242228 0.33396837
v 0.27007360 0.36000000 0.32992640
v 0.26198965 0.36000000 0.33327488
v 0.26603162 0.36757773 0.33160065
v 0.24845802 0.36757773 0.28917425
v 0.24441605 0.36000000 0.29084847
v 0.27411558 0.36757773 0.32825217
v 0.25654197 0.36757773 0.28582575
v 0.27815755 0.36000000 0.32657792
v 0.26058395 0.36000000 0.28415153
v 0.27411558 0.35242228 0.32825217
v 0.25654197 0.35242228 0.28582575
v 0.26603162 0.35242228 0.33160065
v 0.24845802 0.35242228 0.28917425
v 0.25250000 0.36000000 0.28750000
v 0.24441605 0.36000000 0.28415153
v 0.24845802 0.36757773 0.28582575
v 0.26603162 0.36757773 0.24339935
v 0.26198965 0.36000000 0.24172513
v 0.25654197 0.36757773 0.28917425
v 0.27411558 0.36757773 0.24674783
v 0.26058395 0.36000000 0.29084847
v 0.27815755 0.36000000 0.24842207
v 0.25654197 0.35242228 0.28917425
v 0.27411558 0.35242228 0.24674783
v 0.24845802 0.35242228 0.28582575
v 0.26603162 0.35242228 0.24339935
v 0.27007360 0.36000000 0.24507360
v 0.26672513 0.36000000 0.23698965
v 0.26839935 0.36757773 0.24103162
v 0.31082575 0.36757773 0.22345803
v 0.30915152 0.36000000 0.21941605
v 0.27174782 0.36757773 0.24911558
v 0.31417425 0.36757773 0.23154198
v 0.27342207 0.36000000 0.25315755
v 0.31584848 0.36000000 0.23558395
v 0.27174782 0.35242228 0.24911558
v 0.31417425 0.35242228 0.23154198
v 0.26839935 0.35242228 0.24103162
v 0.31082575 0.35242228 0.22345803
v 0.31250000 0.36000000 0.22750000
v 0.31584848 0.36000000 0.21941605
v 0.31417425 0.36757773 0.22345803
v 0.35660065 0.36757773 0.24103162
v 0.35827487 0.36000000 0.23698965
v 0.31082575 0.36757773 0.23154198
v 0.35325218 0.36757773 0.24911558
v 0.30915152 0.36000000 0.23558395
v 0.35157793 0.36000000 0.25315755
v 0.31082575 0.35242228 0.23154198
v 0.35325218 0.35242228 0.24911558
v 0.31417425 0.35242228 0.22345803
v 0.35660065 0.35242228 0.24103162
v 0.35492640 0.36000000 0.24507360
v 0.36301035 0.36000000 0.24172513
v 0.35896838 0.36757773 0.24339935
v 0.37654197 0.36757773 0.28582575
v 0.38058395 0.36000000 0.28415153
v 0.35088442 0.36757773 0.24674783
v 0.36845803 0.36757773 0.28917425
v 0.34684245 0.36000000 0.24842207
v 0.36441605 0.36000000 0.29084847
v 0.35088442 0.35242228 0.24674783
v 0.36845803 0.35242228 0.28917425
v 0.35896838 0.35242228 0.24339935
v 0.37654197 0.35242228 0.28582575
v 0.25625000 0.35437500 0.28312500
v 0.25625000 0.36562500 0.28312500
v 0.36875000 0.36562500 0.28312500
v 0.36875000 0.35437500 0.28312500
v 0.25625000 0.35437500 0.29187500
v 0.36875000 0.35437500 0.29187500
v 0.36875000 0.36562500 0.29187500
v 0.25625000 0.36562500 0.29187500
v 0.53500000 0.25000000 0.26000000
v 0.52354102 0.28526713 0.26000000
v 0.52354102 0.28526713 0.31750000
v 0.53500000 0.25000000 0.31750000
v 0.49354103 0.30706340 0.26000000
v 0.49354103 0.30706340 0.31750000
v 0.45645897 0.30706340 0.26000000
v 0.45645897 0.30706340 0.31750000
v 0.42645898 0.28526713 0.26000000
v 0.42645898 0.28526713 0.31750000
v 0.41500000 0.25000000 0.26000000
v 0.41500000 0.25000000 0.31750000
v 0.42645898 0.21473287 0.26000000
v 0.42645898 0.21473287 0.31750000
v 0.45645897 0.19293660 0.26000000
v 0.45645897 0.19293660 0.31750000
v 0.49354103 0.19293660 0.26000000
v 0.49354103 0.19293660 0.31750000
v 0.52354102 0.21473287 0.26000000
v 0.52354102 0.21473287 0.31750000
v 0.47500000 0.25000000 0.26000000
v 0.47500000 0.25000000 0.31750000
v -0.14375000 0.29375000 0.12875000
v -0.14375000 0.85625000 0.12875000
v -0.10625000 0.85625000 0.12875000
v -0.10625000 0.29375000 0.12875000
v -0.14375000 0.29375000 0.14625000
v -0.10625000 0.29375000 0.14625000
v -0.10625000 0.85625000 0.14625000
v -0.14375000 0.85625000 0.14625000
v -0.13750000 0.32500000 0.14625000
v -0.13750000 0.55000000 0.14625000
v -0.11250000 0.55000000 0.14625000
v -0.11250000 0.32500000 0.14625000
v -0.13750000 0.32500000 0.15375000
v -0.11250000 0.32500000 0.15375000
v -0.11250000 0.55000000 0.15375000
v -0.13750000 0.55000000 0.15375000
v 0.57500000 0.04000000 -0.16250000
v 0.57500000 0.61000000 -0.16250000
v 0.75000000 0.61000000 -0.16250000
v 0.75000000 0.04000000 -0.16250000
v 0.57500000 0.04000000 -0.03750000
v 0.75000000 0.04000000 -0.03750000
v 0.75000000 0.61000000 -0.03750000
v 0.57500000 0.61000000 -0.03750000
v 0.60000000 0.37500000 -0.03875000
v 0.60000000 0.52500000 -0.03875000
v 0.72500000 0.52500000 -0.03875000
v 0.72500000 0.37500000 -0.03875000
v 0.60000000 0.37500000 -0.03125000
v 0.72500000 0.37500000 -0.03125000
v 0.72500000 0.52500000 -0.03125000
v 0.60000000 0.52500000 -0.03125000
vt 0.01562500 0.26562500
vt 0.23437500 0.26562500
vt 0.23437500 0.48437500
vt 0.01562500 0.48437500
vt 0.01562500 0.26562500
vt 0.23437500 0.26562500
vt 0.23437500 0.48437500
vt 0.01562500 0.48437500
vt 0.01562500 0.26562500
vt 0.23437500 0.26562500
vt 0.23437500 0.48437500
vt 0.01562500 0.48437500
vt 0.01562500 0.26562500
vt 0.23437500 0.26562500
vt 0.23437500 0.48437500
vt 0.01562500 0.48437500
vt 0.01562500 0.26562500
vt 0.23437500 0.26562500
vt 0.23437500 0.48437500
vt 0.01562500 0.48437500
vt 0.01562500 0.26562500
vt 0.23437500 0.26562500
vt 0.23437500 0.48437500
vt 0.01562500 0.48437500
vt 0.01562500 0.01562500
vt 0.23437500 0.01562500
vt 0.23437500 0.23437500
vt 0.01562500 0.23437500
vt 0.01562500 0.01562500
vt 0.23437500 0.01562500
vt 0.23437500 0.23437500
vt 0.01562500 0.23437500
vt 0.01562500 0.01562500
vt 0.23437500 0.01562500
vt 0.23437500 0.23437500
vt 0.01562500 0.23437500
vt 0.01562500 0.01562500
vt 0.23437500 0.01562500
vt 0.23437500 0.23437500
vt 0.01562500 0.23437500
vt 0.01562500 0.01562500
vt 0.23437500 0.01562500
vt 0.23437500 0.23437500
vt 0.01562500 0.23437500
vt 0.01562500 0.01562500
vt 0.23437500 0.01562500
vt 0.23437500 0.23437500
vt 0.01562500 0.23437500
vt 0.26562500 0.76562500
vt 0.48437500 0.76562500
vt 0.48437500 0.98437500
vt 0.26562500 0.98437500
vt 0.26562500 0.76562500
vt 0.48437500 0.76562500
vt 0.48437500 0.98437500
vt 0.26562500 0.98437500
vt 0.26562500 0.76562500
vt 0.48437500 0.76562500
vt 0.48437500 0.98437500
vt 0.26562500 0.98437500
vt 0.26562500 0.76562500
vt 0.48437500 0.76562500
vt 0.48437500 0.98437500
vt 0.26562500 0.98437500
vt 0.26562500 0.76562500
vt 0.48437500 0.76562500
vt 0.48437500 0.98437500
vt 0.26562500 0.98437500
vt 0.26562500 0.76562500
vt 0.48437500 0.76562500
vt 0.48437500 0.98437500
vt 0.26562500 0.98437500
vt 0.26562500 0.76562500
vt 0.48437500 0.76562500
vt 0.48437500 0.98437500
vt 0.26562500 0.98437500
vt 0.26562500 0.76562500
vt 0.48437500 0.76562500
vt 0.48437500 0.98437500
vt 0.26562500 0.98437500
vt 0.26562500 0.76562500
vt 0.48437500 0.76562500
vt 0.48437500 0.98437500
vt 0.26562500 0.98437500
vt 0.26562500 0.76562500
vt 0.48437500 0.76562500
vt 0.48437500 0.98437500
vt 0.26562500 0.98437500
vt 0.26562500 0.76562500
vt 0.48437500 0.76562500
vt 0.48437500 0.98437500
vt 0.26562500 0.98437500
vt 0.26562500 0.76562500
vt 0.48437500 0.76562500
vt 0.48437500 0.98437500
vt 0.26562500 0.98437500
vt 0.26562500 0.76562500
vt 0.48437500 0.76562500
vt 0.48437500 0.98437500
vt 0.26562500 0.98437500
vt 0.26562500 0.76562500
vt 0.48437500 0.76562500
vt 0.48437500 0.98437500
vt 0.26562500 0.98437500
vt 0.26562500 0.76562500
vt 0.48437500 0.76562500
vt 0.48437500 0.98437500
vt 0.26562500 0.98437500
vt 0.26562500 0.76562500
vt 0.48437500 0.76562500
vt 0.48437500 0.98437500
vt 0.26562500 0.98437500
vt 0.26562500 0.76562500
vt 0.48437500 0.76562500
vt 0.48437500 0.98437500
vt 0.26562500 0.98437500
vt 0.26562500 0.76562500
vt 0.48437500 0.76562500
vt 0.48437500 0.98437500
vt 0.26562500 0.98437500
vt 0.26562500 0.76562500
vt 0.48437500 0.76562500
vt 0.48437500 0.98437500
vt 0.26562500 0.98437500
vt 0.26562500 0.76562500
vt 0.48437500 0.76562500
vt 0.48437500 0.98437500
vt 0.26562500 0.98437500
vt 0.26562500 0.76562500
vt 0.48437500 0.76562500
vt 0.48437500 0.98437500
vt 0.26562500 0.98437500
vt 0.26562500 0.76562500
vt 0.48437500 0.76562500
vt 0.48437500 0.98437500
vt 0.26562500 0.98437500
vt 0.26562500 0.76562500
vt 0.48437500 0.76562500
vt 0.48437500 0.98437500
vt 0.26562500 0.98437500
vt 0.26562500 0.76562500
vt 0.48437500 0.76562500
vt 0.48437500 0.98437500
vt 0.26562500 0.98437500
vt 0.26562500 0.76562500
vt 0.48437500 0.76562500
vt 0.48437500 0.98437500
vt 0.26562500 0.98437500
vt 0.26562500 0.76562500
vt 0.48437500 0.76562500
vt 0.48437500 0.98437500
vt 0.26562500 0.98437500
vt 0.26562500 0.76562500
vt 0.48437500 0.76562500
vt 0.48437500 0.98437500
vt 0.26562500 0.98437500
vt 0.26562500 0.76562500
vt 0.48437500 0.76562500
vt 0.48437500 0.98437500
vt 0.26562500 0.98437500
vt 0.26562500 0.76562500
vt 0.48437500 0.76562500
vt 0.48437500 0.98437500
vt 0.26562500 0.98437500
vt 0.26562500 0.76562500
vt 0.48437500 0.76562500
vt 0.48437500 0.98437500
vt 0.26562500 0.98437500
vt 0.26562500 0.76562500
vt 0.48437500 0.76562500
vt 0.48437500 0.98437500
vt 0.26562500 0.98437500
vt 0.26562500 0.76562500
vt 0.48437500 0.76562500
vt 0.48437500 0.98437500
vt 0.26562500 0.98437500
vt 0.26562500 0.76562500
vt 0.48437500 0.76562500
vt 0.48437500 0.98437500
vt 0.26562500 0.98437500
vt 0.26562500 0.76562500
vt 0.48437500 0.76562500
vt 0.48437500 0.98437500
vt 0.26562500 0.98437500
vt 0.26562500 0.76562500
vt 0.48437500 0.76562500
vt 0.48437500 0.98437500
vt 0.26562500 0.98437500
vt 0.26562500 0.76562500
vt 0.48437500 0.76562500
vt 0.48437500 0.98437500
vt 0.26562500 0.98437500
vt 0.26562500 0.76562500
vt 0.48437500 0.76562500
vt 0.48437500 0.98437500
vt 0.26562500 0.76562500
vt 0.48437500 0.76562500
vt 0.48437500 0.98437500
vt 0.26562500 0.76562500
vt 0.48437500 0.76562500
vt 0.48437500 0.98437500
vt 0.26562500 0.76562500
vt 0.48437500 0.76562500
vt 0.48437500 0.98437500
vt 0.26562500 0.76562500
vt 0.48437500 0.76562500
vt 0.48437500 0.98437500
vt 0.26562500 0.76562500
vt 0.48437500 0.76562500
vt 0.48437500 0.98437500
vt 0.26562500 0.76562500
vt 0.48437500 0.76562500
vt 0.48437500 0.98437500
vt 0.26562500 0.76562500
vt 0.48437500 0.76562500
vt 0.48437500 0.98437500
vt 0.26562500 0.76562500
vt 0.48437500 0.76562500
vt 0.48437500 0.98437500
vt 0.26562500 0.76562500
vt 0.48437500 0.76562500
vt 0.48437500 0.98437500
vt 0.26562500 0.76562500
vt 0.48437500 0.76562500
vt 0.48437500 0.98437500
vt 0.26562500 0.76562500
vt 0.48437500 0.76562500
vt 0.48437500 0.98437500
vt 0.26562500 0.76562500
vt 0.48437500 0.76562500
vt 0.48437500 0.98437500
vt 0.26562500 0.76562500
vt 0.48437500 0.76562500
vt 0.48437500 0.98437500
vt 0.26562500 0.76562500
vt 0.48437500 0.76562500
vt 0.48437500 0.98437500
vt 0.26562500 0.76562500
vt 0.48437500 0.76562500
vt 0.48437500 0.98437500
vt 0.26562500 0.76562500
vt 0.48437500 0.76562500
vt 0.48437500 0.98437500
vt 0.26562500 0.76562500
vt 0.48437500 0.76562500
vt 0.48437500 0.98437500
vt 0.26562500 0.76562500
vt 0.48437500 0.76562500
vt 0.48437500 0.98437500
vt 0.26562500 0.76562500
vt 0.48437500 0.76562500
vt 0.48437500 0.98437500
vt 0.26562500 0.76562500
vt 0.48437500 0.76562500
vt 0.48437500 0.98437500
vt 0.26562500 0.76562500
vt 0.48437500 0.76562500
vt 0.48437500 0.98437500
vt 0.26562500 0.76562500
vt 0.48437500 0.76562500
vt 0.48437500 0.98437500
vt 0.26562500 0.76562500
vt 0.48437500 0.76562500
vt 0.48437500 0.98437500
vt 0.51562500 0.76562500
vt 0.73437500 0.76562500
vt 0.73437500 0.98437500
vt 0.51562500 0.98437500
vt 0.51562500 0.76562500
vt 0.73437500 0.76562500
vt 0.73437500 0.98437500
vt 0.51562500 0.98437500
vt 0.51562500 0.76562500
vt 0.73437500 0.76562500
vt 0.73437500 0.98437500
vt 0.51562500 0.98437500
vt 0.51562500 0.76562500
vt 0.73437500 0.76562500
vt 0.73437500 0.98437500
vt 0.51562500 0.98437500
vt 0.51562500 0.76562500
vt 0.73437500 0.76562500
vt 0.73437500 0.98437500
vt 0.51562500 0.98437500
vt 0.51562500 0.76562500
vt 0.73437500 0.76562500
vt 0.73437500 0.98437500
vt 0.51562500 0.98437500
vt 0.51562500 0.76562500
vt 0.73437500 0.76562500
vt 0.73437500 0.98437500
vt 0.51562500 0.98437500
vt 0.51562500 0.76562500
vt 0.73437500 0.76562500
vt 0.73437500 0.98437500
vt 0.51562500 0.98437500
vt 0.51562500 0.76562500
vt 0.73437500 0.76562500
vt 0.73437500 0.98437500
vt 0.51562500 0.76562500
vt 0.73437500 0.76562500
vt 0.73437500 0.98437500
vt 0.51562500 0.76562500
vt 0.73437500 0.76562500
vt 0.73437500 0.98437500
vt 0.51562500 0.76562500
vt 0.73437500 0.76562500
vt 0.73437500 0.98437500
vt 0.51562500 0.76562500
vt 0.73437500 0.76562500
vt 0.73437500 0.98437500
vt 0.51562500 0.76562500
vt 0.73437500 0.76562500
vt 0.73437500 0.98437500
vt 0.51562500 0.76562500
vt 0.73437500 0.76562500
vt 0.73437500 0.98437500
vt 0.51562500 0.76562500
vt 0.73437500 0.76562500
vt 0.73437500 0.98437500
vt 0.51562500 0.76562500
vt 0.73437500 0.76562500
vt 0.73437500 0.98437500
vt 0.51562500 0.76562500
vt 0.73437500 0.76562500
vt 0.73437500 0.98437500
vt 0.51562500 0.76562500
vt 0.73437500 0.76562500
vt 0.73437500 0.98437500
vt 0.51562500 0.76562500
vt 0.73437500 0.76562500
vt 0.73437500 0.98437500
vt 0.51562500 0.76562500
vt 0.73437500 0.76562500
vt 0.73437500 0.98437500
vt 0.51562500 0.76562500
vt 0.73437500 0.76562500
vt 0.73437500 0.98437500
vt 0.51562500 0.76562500
vt 0.73437500 0.76562500
vt 0.73437500 0.98437500
vt 0.51562500 0.76562500
vt 0.73437500 0.76562500
vt 0.73437500 0.98437500
vt 0.51562500 0.76562500
vt 0.73437500 0.76562500
vt 0.73437500 0.98437500
vt 0.51562500 0.98437500
vt 0.51562500 0.76562500
vt 0.73437500 0.76562500
vt 0.73437500 0.98437500
vt 0.51562500 0.98437500
vt 0.51562500 0.76562500
vt 0.73437500 0.76562500
vt 0.73437500 0.98437500
vt 0.51562500 0.98437500
vt 0.51562500 0.76562500
vt 0.73437500 0.76562500
vt 0.73437500 0.98437500
vt 0.51562500 0.98437500
vt 0.51562500 0.76562500
vt 0.73437500 0.76562500
vt 0.73437500 0.98437500
vt 0.51562500 0.98437500
vt 0.51562500 0.76562500
vt 0.73437500 0.76562500
vt 0.73437500 0.98437500
vt 0.51562500 0.98437500
vt 0.51562500 0.76562500
vt 0.73437500 0.76562500
vt 0.73437500 0.98437500
vt 0.51562500 0.98437500
vt 0.51562500 0.76562500
vt 0.73437500 0.76562500
vt 0.73437500 0.98437500
vt 0.51562500 0.98437500
vt 0.51562500 0.76562500
vt 0.73437500 0.76562500
vt 0.73437500 0.98437500
vt 0.51562500 0.76562500
vt 0.73437500 0.76562500
vt 0.73437500 0.98437500
vt 0.51562500 0.76562500
vt 0.73437500 0.76562500
vt 0.73437500 0.98437500
vt 0.51562500 0.76562500
vt 0.73437500 0.76562500
vt 0.73437500 0.98437500
vt 0.51562500 0.76562500
vt 0.73437500 0.76562500
vt 0.73437500 0.98437500
vt 0.51562500 0.76562500
vt 0.73437500 0.76562500
vt 0.73437500 0.98437500
vt 0.51562500 0.76562500
vt 0.73437500 0.76562500
vt 0.73437500 0.98437500
vt 0.51562500 0.76562500
vt 0.73437500 0.76562500
vt 0.73437500 0.98437500
vt 0.51562500 0.76562500
vt 0.73437500 0.76562500
vt 0.73437500 0.98437500
vt 0.51562500 0.76562500
vt 0.73437500 0.76562500
vt 0.73437500 0.98437500
vt 0.51562500 0.76562500
vt 0.73437500 0.76562500
vt 0.73437500 0.98437500
vt 0.51562500 0.76562500
vt 0.73437500 0.76562500
vt 0.73437500 0.98437500
vt 0.51562500 0.76562500
vt 0.73437500 0.76562500
vt 0.73437500 0.98437500
vt 0.51562500 0.76562500
vt 0.73437500 0.76562500
vt 0.73437500 0.98437500
vt 0.51562500 0.76562500
vt 0.73437500 0.76562500
vt 0.73437500 0.98437500
vt 0.51562500 0.76562500
vt 0.73437500 0.76562500
vt 0.73437500 0.98437500
vt 0.51562500 0.76562500
vt 0.73437500 0.76562500
vt 0.73437500 0.98437500
vt 0.51562500 0.98437500
vt 0.51562500 0.76562500
vt 0.73437500 0.76562500
vt 0.73437500 0.98437500
vt 0.51562500 0.98437500
vt 0.51562500 0.76562500
vt 0.73437500 0.76562500
vt 0.73437500 0.98437500
vt 0.51562500 0.98437500
vt 0.51562500 0.76562500
vt 0.73437500 0.76562500
vt 0.73437500 0.98437500
vt 0.51562500 0.98437500
vt 0.51562500 0.76562500
vt 0.73437500 0.76562500
vt 0.73437500 0.98437500
vt 0.51562500 0.98437500
vt 0.51562500 0.76562500
vt 0.73437500 0.76562500
vt 0.73437500 0.98437500
vt 0.51562500 0.98437500
vt 0.51562500 0.76562500
vt 0.73437500 0.76562500
vt 0.73437500 0.98437500
vt 0.51562500 0.98437500
vt 0.51562500 0.76562500
vt 0.73437500 0.76562500
vt 0.73437500 0.98437500
vt 0.51562500 0.98437500
vt 0.51562500 0.76562500
vt 0.73437500 0.76562500
vt 0.73437500 0.98437500
vt 0.51562500 0.98437500
vt 0.51562500 0.76562500
vt 0.73437500 0.76562500
vt 0.73437500 0.98437500
vt 0.51562500 0.98437500
vt 0.51562500 0.76562500
vt 0.73437500 0.76562500
vt 0.73437500 0.98437500
vt 0.51562500 0.76562500
vt 0.73437500 0.76562500
vt 0.73437500 0.98437500
vt 0.51562500 0.76562500
vt 0.73437500 0.76562500
vt 0.73437500 0.98437500
vt 0.51562500 0.76562500
vt 0.73437500 0.76562500
vt 0.73437500 0.98437500
vt 0.51562500 0.76562500
vt 0.73437500 0.76562500
vt 0.73437500 0.98437500
vt 0.51562500 0.76562500
vt 0.73437500 0.76562500
vt 0.73437500 0.98437500
vt 0.51562500 0.76562500
vt 0.73437500 0.76562500
vt 0.73437500 0.98437500
vt 0.51562500 0.76562500
vt 0.73437500 0.76562500
vt 0.73437500 0.98437500
vt 0.51562500 0.76562500
vt 0.73437500 0.76562500
vt 0.73437500 0.98437500
vt 0.51562500 0.76562500
vt 0.73437500 0.76562500
vt 0.73437500 0.98437500
vt 0.51562500 0.76562500
vt 0.73437500 0.76562500
vt 0.73437500 0.98437500
vt 0.51562500 0.76562500
vt 0.73437500 0.76562500
vt 0.73437500 0.98437500
vt 0.51562500 0.76562500
vt 0.73437500 0.76562500
vt 0.73437500 0.98437500
vt 0.51562500 0.76562500
vt 0.73437500 0.76562500
vt 0.73437500 0.98437500
vt 0.51562500 0.76562500
vt 0.73437500 0.76562500
vt 0.73437500 0.98437500
vt 0.51562500 0.76562500
vt 0.73437500 0.76562500
vt 0.73437500 0.98437500
vt 0.51562500 0.76562500
vt 0.73437500 0.76562500
vt 0.73437500 0.98437500
vt 0.51562500 0.76562500
vt 0.73437500 0.76562500
vt 0.73437500 0.98437500
vt 0.51562500 0.76562500
vt 0.73437500 0.76562500
vt 0.73437500 0.98437500
vt 0.51562500 0.76562500
vt 0.73437500 0.76562500
vt 0.73437500 0.98437500
vt 0.51562500 0.76562500
vt 0.73437500 0.76562500
vt 0.73437500 0.98437500
vt 0.51562500 0.98437500
vt 0.51562500 0.76562500
vt 0.73437500 0.76562500
vt 0.73437500 0.98437500
vt 0.51562500 0.98437500
vt 0.51562500 0.76562500
vt 0.73437500 0.76562500
vt 0.73437500 0.98437500
vt 0.51562500 0.98437500
vt 0.51562500 0.76562500
vt 0.73437500 0.76562500
vt 0.73437500 0.98437500
vt 0.51562500 0.98437500
vt 0.51562500 0.76562500
vt 0.73437500 0.76562500
vt 0.73437500 0.98437500
vt 0.51562500 0.98437500
vt 0.51562500 0.76562500
vt 0.73437500 0.76562500
vt 0.73437500 0.98437500
vt 0.51562500 0.98437500
vt 0.51562500 0.76562500
vt 0.73437500 0.76562500
vt 0.73437500 0.98437500
vt 0.51562500 0.98437500
vt 0.51562500 0.76562500
vt 0.73437500 0.76562500
vt 0.73437500 0.98437500
vt 0.51562500 0.98437500
vt 0.51562500 0.76562500
vt 0.73437500 0.76562500
vt 0.73437500 0.98437500
vt 0.51562500 0.98437500
vt 0.51562500 0.76562500
vt 0.73437500 0.76562500
vt 0.73437500 0.98437500
vt 0.51562500 0.98437500
vt 0.51562500 0.76562500
vt 0.73437500 0.76562500
vt 0.73437500 0.98437500
vt 0.51562500 0.98437500
vt 0.51562500 0.76562500
vt 0.73437500 0.76562500
vt 0.73437500 0.98437500
vt 0.51562500 0.98437500
vt 0.51562500 0.76562500
vt 0.73437500 0.76562500
vt 0.73437500 0.98437500
vt 0.51562500 0.98437500
vt 0.51562500 0.76562500
vt 0.73437500 0.76562500
vt 0.73437500 0.98437500
vt 0.51562500 0.98437500
vt 0.51562500 0.76562500
vt 0.73437500 0.76562500
vt 0.73437500 0.98437500
vt 0.51562500 0.98437500
vt 0.51562500 0.76562500
vt 0.73437500 0.76562500
vt 0.73437500 0.98437500
vt 0.51562500 0.98437500
vt 0.51562500 0.76562500
vt 0.73437500 0.76562500
vt 0.73437500 0.98437500
vt 0.51562500 0.98437500
vt 0.51562500 0.76562500
vt 0.73437500 0.76562500
vt 0.73437500 0.98437500
vt 0.51562500 0.98437500
vt 0.51562500 0.76562500
vt 0.73437500 0.76562500
vt 0.73437500 0.98437500
vt 0.51562500 0.98437500
vt 0.51562500 0.76562500
vt 0.73437500 0.76562500
vt 0.73437500 0.98437500
vt 0.51562500 0.98437500
vt 0.51562500 0.76562500
vt 0.73437500 0.76562500
vt 0.73437500 0.98437500
vt 0.51562500 0.98437500
vt 0.51562500 0.76562500
vt 0.73437500 0.76562500
vt 0.73437500 0.98437500
vt 0.51562500 0.98437500
vt 0.51562500 0.76562500
vt 0.73437500 0.76562500
vt 0.73437500 0.98437500
vt 0.51562500 0.98437500
vt 0.51562500 0.76562500
vt 0.73437500 0.76562500
vt 0.73437500 0.98437500
vt 0.51562500 0.98437500
vt 0.26562500 0.51562500
vt 0.48437500 0.51562500
vt 0.48437500 0.73437500
vt 0.26562500 0.73437500
vt 0.26562500 0.51562500
vt 0.48437500 0.51562500
vt 0.48437500 0.73437500
vt 0.26562500 0.73437500
vt 0.26562500 0.51562500
vt 0.48437500 0.51562500
vt 0.48437500 0.73437500
vt 0.26562500 0.73437500
vt 0.26562500 0.51562500
vt 0.48437500 0.51562500
vt 0.48437500 0.73437500
vt 0.26562500 0.73437500
vt 0.26562500 0.51562500
vt 0.48437500 0.51562500
vt 0.48437500 0.73437500
vt 0.26562500 0.73437500
vt 0.26562500 0.51562500
vt 0.48437500 0.51562500
vt 0.48437500 0.73437500
vt 0.26562500 0.73437500
vt 0.26562500 0.51562500
vt 0.48437500 0.51562500
vt 0.48437500 0.73437500
vt 0.26562500 0.73437500
vt 0.26562500 0.51562500
vt 0.48437500 0.51562500
vt 0.48437500 0.73437500
vt 0.26562500 0.73437500
vt 0.26562500 0.51562500
vt 0.48437500 0.51562500
vt 0.48437500 0.73437500
vt 0.26562500 0.51562500
vt 0.48437500 0.51562500
vt 0.48437500 0.73437500
vt 0.26562500 0.51562500
vt 0.48437500 0.51562500
vt 0.48437500 0.73437500
vt 0.26562500 0.51562500
vt 0.48437500 0.51562500
vt 0.48437500 0.73437500
vt 0.26562500 0.51562500
vt 0.48437500 0.51562500
vt 0.48437500 0.73437500
vt 0.26562500 0.51562500
vt 0.48437500 0.51562500
vt 0.48437500 0.73437500
vt 0.26562500 0.51562500
vt 0.48437500 0.51562500
vt 0.48437500 0.73437500
vt 0.26562500 0.51562500
vt 0.48437500 0.51562500
vt 0.48437500 0.73437500
vt 0.26562500 0.51562500
vt 0.48437500 0.51562500
vt 0.48437500 0.73437500
vt 0.26562500 0.51562500
vt 0.48437500 0.51562500
vt 0.48437500 0.73437500
vt 0.26562500 0.51562500
vt 0.48437500 0.51562500
vt 0.48437500 0.73437500
vt 0.26562500 0.51562500
vt 0.48437500 0.51562500
vt 0.48437500 0.73437500
vt 0.26562500 0.51562500
vt 0.48437500 0.51562500
vt 0.48437500 0.73437500
vt 0.26562500 0.51562500
vt 0.48437500 0.51562500
vt 0.48437500 0.73437500
vt 0.26562500 0.51562500
vt 0.48437500 0.51562500
vt 0.48437500 0.73437500
vt 0.26562500 0.51562500
vt 0.48437500 0.51562500
vt 0.48437500 0.73437500
vt 0.26562500 0.51562500
vt 0.48437500 0.51562500
vt 0.48437500 0.73437500
vt 0.26562500 0.73437500
vt 0.26562500 0.51562500
vt 0.48437500 0.51562500
vt 0.48437500 0.73437500
vt 0.26562500 0.73437500
vt 0.26562500 0.51562500
vt 0.48437500 0.51562500
vt 0.48437500 0.73437500
vt 0.26562500 0.73437500
vt 0.26562500 0.51562500
vt 0.48437500 0.51562500
vt 0.48437500 0.73437500
vt 0.26562500 0.73437500
vt 0.26562500 0.51562500
vt 0.48437500 0.51562500
vt 0.48437500 0.73437500
vt 0.26562500 0.73437500
vt 0.26562500 0.51562500
vt 0.48437500 0.51562500
vt 0.48437500 0.73437500
vt 0.26562500 0.73437500
vt 0.26562500 0.51562500
vt 0.48437500 0.51562500
vt 0.48437500 0.73437500
vt 0.26562500 0.73437500
vt 0.26562500 0.51562500
vt 0.48437500 0.51562500
vt 0.48437500 0.73437500
vt 0.26562500 0.73437500
vt 0.26562500 0.51562500
vt 0.48437500 0.51562500
vt 0.48437500 0.73437500
vt 0.26562500 0.51562500
vt 0.48437500 0.51562500
vt 0.48437500 0.73437500
vt 0.26562500 0.51562500
vt 0.48437500 0.51562500
vt 0.48437500 0.73437500
vt 0.26562500 0.51562500
vt 0.48437500 0.51562500
vt 0.48437500 0.73437500
vt 0.26562500 0.51562500
vt 0.48437500 0.51562500
vt 0.48437500 0.73437500
vt 0.26562500 0.51562500
vt 0.48437500 0.51562500
vt 0.48437500 0.73437500
vt 0.26562500 0.51562500
vt 0.48437500 0.51562500
vt 0.48437500 0.73437500
vt 0.26562500 0.51562500
vt 0.48437500 0.51562500
vt 0.48437500 0.73437500
vt 0.26562500 0.51562500
vt 0.48437500 0.51562500
vt 0.48437500 0.73437500
vt 0.26562500 0.51562500
vt 0.48437500 0.51562500
vt 0.48437500 0.73437500
vt 0.26562500 0.51562500
vt 0.48437500 0.51562500
vt 0.48437500 0.73437500
vt 0.26562500 0.51562500
vt 0.48437500 0.51562500
vt 0.48437500 0.73437500
vt 0.26562500 0.51562500
vt 0.48437500 0.51562500
vt 0.48437500 0.73437500
vt 0.26562500 0.51562500
vt 0.48437500 0.51562500
vt 0.48437500 0.73437500
vt 0.26562500 0.51562500
vt 0.48437500 0.51562500
vt 0.48437500 0.73437500
vt 0.26562500 0.51562500
vt 0.48437500 0.51562500
vt 0.48437500 0.73437500
vt 0.01562500 0.51562500
vt 0.23437500 0.51562500
vt 0.23437500 0.73437500
vt 0.01562500 0.73437500
vt 0.01562500 0.51562500
vt 0.23437500 0.51562500
vt 0.23437500 0.73437500
vt 0.01562500 0.73437500
vt 0.01562500 0.51562500
vt 0.23437500 0.51562500
vt 0.23437500 0.73437500
vt 0.01562500 0.73437500
vt 0.01562500 0.51562500
vt 0.23437500 0.51562500
vt 0.23437500 0.73437500
vt 0.01562500 0.73437500
vt 0.01562500 0.51562500
vt 0.23437500 0.51562500
vt 0.23437500 0.73437500
vt 0.01562500 0.73437500
vt 0.01562500 0.51562500
vt 0.23437500 0.51562500
vt 0.23437500 0.73437500
vt 0.01562500 0.73437500
vt 0.01562500 0.51562500
vt 0.23437500 0.51562500
vt 0.23437500 0.73437500
vt 0.01562500 0.73437500
vt 0.01562500 0.51562500
vt 0.23437500 0.51562500
vt 0.23437500 0.73437500
vt 0.01562500 0.73437500
vt 0.01562500 0.51562500
vt 0.23437500 0.51562500
vt 0.23437500 0.73437500
vt 0.01562500 0.51562500
vt 0.23437500 0.51562500
vt 0.23437500 0.73437500
vt 0.01562500 0.51562500
vt 0.23437500 0.51562500
vt 0.23437500 0.73437500
vt 0.01562500 0.51562500
vt 0.23437500 0.51562500
vt 0.23437500 0.73437500
vt 0.01562500 0.51562500
vt 0.23437500 0.51562500
vt 0.23437500 0.73437500
vt 0.01562500 0.51562500
vt 0.23437500 0.51562500
vt 0.23437500 0.73437500
vt 0.01562500 0.51562500
vt 0.23437500 0.51562500
vt 0.23437500 0.73437500
vt 0.01562500 0.51562500
vt 0.23437500 0.51562500
vt 0.23437500 0.73437500
vt 0.01562500 0.51562500
vt 0.23437500 0.51562500
vt 0.23437500 0.73437500
vt 0.01562500 0.51562500
vt 0.23437500 0.51562500
vt 0.23437500 0.73437500
vt 0.01562500 0.51562500
vt 0.23437500 0.51562500
vt 0.23437500 0.73437500
vt 0.01562500 0.51562500
vt 0.23437500 0.51562500
vt 0.23437500 0.73437500
vt 0.01562500 0.51562500
vt 0.23437500 0.51562500
vt 0.23437500 0.73437500
vt 0.01562500 0.51562500
vt 0.23437500 0.51562500
vt 0.23437500 0.73437500
vt 0.01562500 0.51562500
vt 0.23437500 0.51562500
vt 0.23437500 0.73437500
vt 0.01562500 0.51562500
vt 0.23437500 0.51562500
vt 0.23437500 0.73437500
vt 0.51562500 0.76562500
vt 0.73437500 0.76562500
vt 0.73437500 0.98437500
vt 0.51562500 0.98437500
vt 0.51562500 0.76562500
vt 0.73437500 0.76562500
vt 0.73437500 0.98437500
vt 0.51562500 0.98437500
vt 0.51562500 0.76562500
vt 0.73437500 0.76562500
vt 0.73437500 0.98437500
vt 0.51562500 0.98437500
vt 0.51562500 0.76562500
vt 0.73437500 0.76562500
vt 0.73437500 0.98437500
vt 0.51562500 0.98437500
vt 0.51562500 0.76562500
vt 0.73437500 0.76562500
vt 0.73437500 0.98437500
vt 0.51562500 0.98437500
vt 0.51562500 0.76562500
vt 0.73437500 0.76562500
vt 0.73437500 0.98437500
vt 0.51562500 0.98437500
vt 0.51562500 0.76562500
vt 0.73437500 0.76562500
vt 0.73437500 0.98437500
vt 0.51562500 0.98437500
vt 0.51562500 0.76562500
vt 0.73437500 0.76562500
vt 0.73437500 0.98437500
vt 0.51562500 0.98437500
vt 0.51562500 0.76562500
vt 0.73437500 0.76562500
vt 0.73437500 0.98437500
vt 0.51562500 0.76562500
vt 0.73437500 0.76562500
vt 0.73437500 0.98437500
vt 0.51562500 0.76562500
vt 0.73437500 0.76562500
vt 0.73437500 0.98437500
vt 0.51562500 0.76562500
vt 0.73437500 0.76562500
vt 0.73437500 0.98437500
vt 0.51562500 0.76562500
vt 0.73437500 0.76562500
vt 0.73437500 0.98437500
vt 0.51562500 0.76562500
vt 0.73437500 0.76562500
vt 0.73437500 0.98437500
vt 0.51562500 0.76562500
vt 0.73437500 0.76562500
vt 0.73437500 0.98437500
vt 0.51562500 0.76562500
vt 0.73437500 0.76562500
vt 0.73437500 0.98437500
vt 0.51562500 0.76562500
vt 0.73437500 0.76562500
vt 0.73437500 0.98437500
vt 0.51562500 0.76562500
vt 0.73437500 0.76562500
vt 0.73437500 0.98437500
vt 0.51562500 0.76562500
vt 0.73437500 0.76562500
vt 0.73437500 0.98437500
vt 0.51562500 0.76562500
vt 0.73437500 0.76562500
vt 0.73437500 0.98437500
vt 0.51562500 0.76562500
vt 0.73437500 0.76562500
vt 0.73437500 0.98437500
vt 0.51562500 0.76562500
vt 0.73437500 0.76562500
vt 0.73437500 0.98437500
vt 0.51562500 0.76562500
vt 0.73437500 0.76562500
vt 0.73437500 0.98437500
vt 0.51562500 0.76562500
vt 0.73437500 0.76562500
vt 0.73437500 0.98437500
vt 0.51562500 0.01562500
vt 0.73437500 0.01562500
vt 0.73437500 0.23437500
vt 0.51562500 0.23437500
vt 0.51562500 0.01562500
vt 0.73437500 0.01562500
vt 0.73437500 0.23437500
vt 0.51562500 0.23437500
vt 0.51562500 0.01562500
vt 0.73437500 0.01562500
vt 0.73437500 0.23437500
vt 0.51562500 0.23437500
vt 0.51562500 0.01562500
vt 0.73437500 0.01562500
vt 0.73437500 0.23437500
vt 0.51562500 0.23437500
vt 0.51562500 0.01562500
vt 0.73437500 0.01562500
vt 0.73437500 0.23437500
vt 0.51562500 0.23437500
vt 0.51562500 0.01562500
vt 0.73437500 0.01562500
vt 0.73437500 0.23437500
vt 0.51562500 0.23437500
vt 0.51562500 0.01562500
vt 0.73437500 0.01562500
vt 0.73437500 0.23437500
vt 0.51562500 0.01562500
vt 0.73437500 0.01562500
vt 0.73437500 0.23437500
vt 0.51562500 0.01562500
vt 0.73437500 0.01562500
vt 0.73437500 0.23437500
vt 0.51562500 0.01562500
vt 0.73437500 0.01562500
vt 0.73437500 0.23437500
vt 0.51562500 0.01562500
vt 0.73437500 0.01562500
vt 0.73437500 0.23437500
vt 0.51562500 0.01562500
vt 0.73437500 0.01562500
vt 0.73437500 0.23437500
vt 0.51562500 0.01562500
vt 0.73437500 0.01562500
vt 0.73437500 0.23437500
vt 0.51562500 0.01562500
vt 0.73437500 0.01562500
vt 0.73437500 0.23437500
vt 0.51562500 0.01562500
vt 0.73437500 0.01562500
vt 0.73437500 0.23437500
vt 0.51562500 0.01562500
vt 0.73437500 0.01562500
vt 0.73437500 0.23437500
vt 0.51562500 0.01562500
vt 0.73437500 0.01562500
vt 0.73437500 0.23437500
vt 0.51562500 0.01562500
vt 0.73437500 0.01562500
vt 0.73437500 0.23437500
vt 0.51562500 0.01562500
vt 0.73437500 0.01562500
vt 0.73437500 0.23437500
vt 0.51562500 0.23437500
vt 0.51562500 0.01562500
vt 0.73437500 0.01562500
vt 0.73437500 0.23437500
vt 0.51562500 0.23437500
vt 0.51562500 0.01562500
vt 0.73437500 0.01562500
vt 0.73437500 0.23437500
vt 0.51562500 0.23437500
vt 0.51562500 0.01562500
vt 0.73437500 0.01562500
vt 0.73437500 0.23437500
vt 0.51562500 0.23437500
vt 0.51562500 0.01562500
vt 0.73437500 0.01562500
vt 0.73437500 0.23437500
vt 0.51562500 0.23437500
vt 0.51562500 0.01562500
vt 0.73437500 0.01562500
vt 0.73437500 0.23437500
vt 0.51562500 0.23437500
vt 0.51562500 0.01562500
vt 0.73437500 0.01562500
vt 0.73437500 0.23437500
vt 0.51562500 0.01562500
vt 0.73437500 0.01562500
vt 0.73437500 0.23437500
vt 0.51562500 0.01562500
vt 0.73437500 0.01562500
vt 0.73437500 0.23437500
vt 0.51562500 0.01562500
vt 0.73437500 0.01562500
vt 0.73437500 0.23437500
vt 0.51562500 0.01562500
vt 0.73437500 0.01562500
vt 0.73437500 0.23437500
vt 0.51562500 0.01562500
vt 0.73437500 0.01562500
vt 0.73437500 0.23437500
vt 0.51562500 0.01562500
vt 0.73437500 0.01562500
vt 0.73437500 0.23437500
vt 0.51562500 0.01562500
vt 0.73437500 0.01562500
vt 0.73437500 0.23437500
vt 0.51562500 0.01562500
vt 0.73437500 0.01562500
vt 0.73437500 0.23437500
vt 0.51562500 0.01562500
vt 0.73437500 0.01562500
vt 0.73437500 0.23437500
vt 0.51562500 0.01562500
vt 0.73437500 0.01562500
vt 0.73437500 0.23437500
vt 0.51562500 0.01562500
vt 0.73437500 0.01562500
vt 0.73437500 0.23437500
vt 0.51562500 0.01562500
vt 0.73437500 0.01562500
vt 0.73437500 0.23437500
vt 0.51562500 0.23437500
vt 0.51562500 0.01562500
vt 0.73437500 0.01562500
vt 0.73437500 0.23437500
vt 0.51562500 0.23437500
vt 0.51562500 0.01562500
vt 0.73437500 0.01562500
vt 0.73437500 0.23437500
vt 0.51562500 0.23437500
vt 0.51562500 0.01562500
vt 0.73437500 0.01562500
vt 0.73437500 0.23437500
vt 0.51562500 0.23437500
vt 0.51562500 0.01562500
vt 0.73437500 0.01562500
vt 0.73437500 0.23437500
vt 0.51562500 0.23437500
vt 0.51562500 0.01562500
vt 0.73437500 0.01562500
vt 0.73437500 0.23437500
vt 0.51562500 0.23437500
vt 0.51562500 0.01562500
vt 0.73437500 0.01562500
vt 0.73437500 0.23437500
vt 0.51562500 0.01562500
vt 0.73437500 0.01562500
vt 0.73437500 0.23437500
vt 0.51562500 0.01562500
vt 0.73437500 0.01562500
vt 0.73437500 0.23437500
vt 0.51562500 0.01562500
vt 0.73437500 0.01562500
vt 0.73437500 0.23437500
vt 0.51562500 0.01562500
vt 0.73437500 0.01562500
vt 0.73437500 0.23437500
vt 0.51562500 0.01562500
vt 0.73437500 0.01562500
vt 0.73437500 0.23437500
vt 0.51562500 0.01562500
vt 0.73437500 0.01562500
vt 0.73437500 0.23437500
vt 0.51562500 0.01562500
vt 0.73437500 0.01562500
vt 0.73437500 0.23437500
vt 0.51562500 0.01562500
vt 0.73437500 0.01562500
vt 0.73437500 0.23437500
vt 0.51562500 0.01562500
vt 0.73437500 0.01562500
vt 0.73437500 0.23437500
vt 0.51562500 0.01562500
vt 0.73437500 0.01562500
vt 0.73437500 0.23437500
vt 0.51562500 0.01562500
vt 0.73437500 0.01562500
vt 0.73437500 0.23437500
vt 0.51562500 0.01562500
vt 0.73437500 0.01562500
vt 0.73437500 0.23437500
vt 0.51562500 0.23437500
vt 0.51562500 0.01562500
vt 0.73437500 0.01562500
vt 0.73437500 0.23437500
vt 0.51562500 0.23437500
vt 0.51562500 0.01562500
vt 0.73437500 0.01562500
vt 0.73437500 0.23437500
vt 0.51562500 0.23437500
vt 0.51562500 0.01562500
vt 0.73437500 0.01562500
vt 0.73437500 0.23437500
vt 0.51562500 0.23437500
vt 0.51562500 0.01562500
vt 0.73437500 0.01562500
vt 0.73437500 0.23437500
vt 0.51562500 0.23437500
vt 0.51562500 0.01562500
vt 0.73437500 0.01562500
vt 0.73437500 0.23437500
vt 0.51562500 0.23437500
vt 0.51562500 0.01562500
vt 0.73437500 0.01562500
vt 0.73437500 0.23437500
vt 0.51562500 0.01562500
vt 0.73437500 0.01562500
vt 0.73437500 0.23437500
vt 0.51562500 0.01562500
vt 0.73437500 0.01562500
vt 0.73437500 0.23437500
vt 0.51562500 0.01562500
vt 0.73437500 0.01562500
vt 0.73437500 0.23437500
vt 0.51562500 0.01562500
vt 0.73437500 0.01562500
vt 0.73437500 0.23437500
vt 0.51562500 0.01562500
vt 0.73437500 0.01562500
vt 0.73437500 0.23437500
vt 0.51562500 0.01562500
vt 0.73437500 0.01562500
vt 0.73437500 0.23437500
vt 0.51562500 0.01562500
vt 0.73437500 0.01562500
vt 0.73437500 0.23437500
vt 0.51562500 0.01562500
vt 0.73437500 0.01562500
vt 0.73437500 0.23437500
vt 0.51562500 0.01562500
vt 0.73437500 0.01562500
vt 0.73437500 0.23437500
vt 0.51562500 0.01562500
vt 0.73437500 0.01562500
vt 0.73437500 0.23437500
vt 0.51562500 0.01562500
vt 0.73437500 0.01562500
vt 0.73437500 0.23437500
vt 0.51562500 0.01562500
vt 0.73437500 0.01562500
vt 0.73437500 0.23437500
vt 0.51562500 0.23437500
vt 0.51562500 0.01562500
vt 0.73437500 0.01562500
vt 0.73437500 0.23437500
vt 0.51562500 0.23437500
vt 0.51562500 0.01562500
vt 0.73437500 0.01562500
vt 0.73437500 0.23437500
vt 0.51562500 0.23437500
vt 0.51562500 0.01562500
vt 0.73437500 0.01562500
vt 0.73437500 0.23437500
vt 0.51562500 0.23437500
vt 0.51562500 0.01562500
vt 0.73437500 0.01562500
vt 0.73437500 0.23437500
vt 0.51562500 0.23437500
vt 0.51562500 0.01562500
vt 0.73437500 0.01562500
vt 0.73437500 0.23437500
vt 0.51562500 0.23437500
vt 0.51562500 0.01562500
vt 0.73437500 0.01562500
vt 0.73437500 0.23437500
vt 0.51562500 0.01562500
vt 0.73437500 0.01562500
vt 0.73437500 0.23437500
vt 0.51562500 0.01562500
vt 0.73437500 0.01562500
vt 0.73437500 0.23437500
vt 0.51562500 0.01562500
vt 0.73437500 0.01562500
vt 0.73437500 0.23437500
vt 0.51562500 0.01562500
vt 0.73437500 0.01562500
vt 0.73437500 0.23437500
vt 0.51562500 0.01562500
vt 0.73437500 0.01562500
vt 0.73437500 0.23437500
vt 0.51562500 0.01562500
vt 0.73437500 0.01562500
vt 0.73437500 0.23437500
vt 0.51562500 0.01562500
vt 0.73437500 0.01562500
vt 0.73437500 0.23437500
vt 0.51562500 0.01562500
vt 0.73437500 0.01562500
vt 0.73437500 0.23437500
vt 0.51562500 0.01562500
vt 0.73437500 0.01562500
vt 0.73437500 0.23437500
vt 0.51562500 0.01562500
vt 0.73437500 0.01562500
vt 0.73437500 0.23437500
vt 0.51562500 0.01562500
vt 0.73437500 0.01562500
vt 0.73437500 0.23437500
vt 0.51562500 0.01562500
vt 0.73437500 0.01562500
vt 0.73437500 0.23437500
vt 0.51562500 0.23437500
vt 0.51562500 0.01562500
vt 0.73437500 0.01562500
vt 0.73437500 0.23437500
vt 0.51562500 0.23437500
vt 0.51562500 0.01562500
vt 0.73437500 0.01562500
vt 0.73437500 0.23437500
vt 0.51562500 0.23437500
vt 0.51562500 0.01562500
vt 0.73437500 0.01562500
vt 0.73437500 0.23437500
vt 0.51562500 0.23437500
vt 0.51562500 0.01562500
vt 0.73437500 0.01562500
vt 0.73437500 0.23437500
vt 0.51562500 0.23437500
vt 0.51562500 0.01562500
vt 0.73437500 0.01562500
vt 0.73437500 0.23437500
vt 0.51562500 0.23437500
vt 0.51562500 0.01562500
vt 0.73437500 0.01562500
vt 0.73437500 0.23437500
vt 0.51562500 0.01562500
vt 0.73437500 0.01562500
vt 0.73437500 0.23437500
vt 0.51562500 0.01562500
vt 0.73437500 0.01562500
vt 0.73437500 0.23437500
vt 0.51562500 0.01562500
vt 0.73437500 0.01562500
vt 0.73437500 0.23437500
vt 0.51562500 0.01562500
vt 0.73437500 0.01562500
vt 0.73437500 0.23437500
vt 0.51562500 0.01562500
vt 0.73437500 0.01562500
vt 0.73437500 0.23437500
vt 0.51562500 0.01562500
vt 0.73437500 0.01562500
vt 0.73437500 0.23437500
vt 0.51562500 0.01562500
vt 0.73437500 0.01562500
vt 0.73437500 0.23437500
vt 0.51562500 0.01562500
vt 0.73437500 0.01562500
vt 0.73437500 0.23437500
vt 0.51562500 0.01562500
vt 0.73437500 0.01562500
vt 0.73437500 0.23437500
vt 0.51562500 0.01562500
vt 0.73437500 0.01562500
vt 0.73437500 0.23437500
vt 0.51562500 0.01562500
vt 0.73437500 0.01562500
vt 0.73437500 0.23437500
vt 0.51562500 0.01562500
vt 0.73437500 0.01562500
vt 0.73437500 0.23437500
vt 0.51562500 0.23437500
vt 0.51562500 0.01562500
vt 0.73437500 0.01562500
vt 0.73437500 0.23437500
vt 0.51562500 0.23437500
vt 0.51562500 0.01562500
vt 0.73437500 0.01562500
vt 0.73437500 0.23437500
vt 0.51562500 0.23437500
vt 0.51562500 0.01562500
vt 0.73437500 0.01562500
vt 0.73437500 0.23437500
vt 0.51562500 0.23437500
vt 0.51562500 0.01562500
vt 0.73437500 0.01562500
vt 0.73437500 0.23437500
vt 0.51562500 0.23437500
vt 0.51562500 0.01562500
vt 0.73437500 0.01562500
vt 0.73437500 0.23437500
vt 0.51562500 0.23437500
vt 0.51562500 0.01562500
vt 0.73437500 0.01562500
vt 0.73437500 0.23437500
vt 0.51562500 0.01562500
vt 0.73437500 0.01562500
vt 0.73437500 0.23437500
vt 0.51562500 0.01562500
vt 0.73437500 0.01562500
vt 0.73437500 0.23437500
vt 0.51562500 0.01562500
vt 0.73437500 0.01562500
vt 0.73437500 0.23437500
vt 0.51562500 0.01562500
vt 0.73437500 0.01562500
vt 0.73437500 0.23437500
vt 0.51562500 0.01562500
vt 0.73437500 0.01562500
vt 0.73437500 0.23437500
vt 0.51562500 0.01562500
vt 0.73437500 0.01562500
vt 0.73437500 0.23437500
vt 0.51562500 0.01562500
vt 0.73437500 0.01562500
vt 0.73437500 0.23437500
vt 0.51562500 0.01562500
vt 0.73437500 0.01562500
vt 0.73437500 0.23437500
vt 0.51562500 0.01562500
vt 0.73437500 0.01562500
vt 0.73437500 0.23437500
vt 0.51562500 0.01562500
vt 0.73437500 0.01562500
vt 0.73437500 0.23437500
vt 0.51562500 0.01562500
vt 0.73437500 0.01562500
vt 0.73437500 0.23437500
vt 0.51562500 0.01562500
vt 0.73437500 0.01562500
vt 0.73437500 0.23437500
vt 0.51562500 0.23437500
vt 0.51562500 0.01562500
vt 0.73437500 0.01562500
vt 0.73437500 0.23437500
vt 0.51562500 0.23437500
vt 0.51562500 0.01562500
vt 0.73437500 0.01562500
vt 0.73437500 0.23437500
vt 0.51562500 0.23437500
vt 0.51562500 0.01562500
vt 0.73437500 0.01562500
vt 0.73437500 0.23437500
vt 0.51562500 0.23437500
vt 0.51562500 0.01562500
vt 0.73437500 0.01562500
vt 0.73437500 0.23437500
vt 0.51562500 0.23437500
vt 0.51562500 0.01562500
vt 0.73437500 0.01562500
vt 0.73437500 0.23437500
vt 0.51562500 0.23437500
vt 0.51562500 0.01562500
vt 0.73437500 0.01562500
vt 0.73437500 0.23437500
vt 0.51562500 0.01562500
vt 0.73437500 0.01562500
vt 0.73437500 0.23437500
vt 0.51562500 0.01562500
vt 0.73437500 0.01562500
vt 0.73437500 0.23437500
vt 0.51562500 0.01562500
vt 0.73437500 0.01562500
vt 0.73437500 0.23437500
vt 0.51562500 0.01562500
vt 0.73437500 0.01562500
vt 0.73437500 0.23437500
vt 0.51562500 0.01562500
vt 0.73437500 0.01562500
vt 0.73437500 0.23437500
vt 0.51562500 0.01562500
vt 0.73437500 0.01562500
vt 0.73437500 0.23437500
vt 0.51562500 0.01562500
vt 0.73437500 0.01562500
vt 0.73437500 0.23437500
vt 0.51562500 0.01562500
vt 0.73437500 0.01562500
vt 0.73437500 0.23437500
vt 0.51562500 0.01562500
vt 0.73437500 0.01562500
vt 0.73437500 0.23437500
vt 0.51562500 0.01562500
vt 0.73437500 0.01562500
vt 0.73437500 0.23437500
vt 0.51562500 0.01562500
vt 0.73437500 0.01562500
vt 0.73437500 0.23437500
vt 0.51562500 0.01562500
vt 0.73437500 0.01562500
vt 0.73437500 0.23437500
vt 0.51562500 0.23437500
vt 0.51562500 0.01562500
vt 0.73437500 0.01562500
vt 0.73437500 0.23437500
vt 0.51562500 0.23437500
vt 0.51562500 0.01562500
vt 0.73437500 0.01562500
vt 0.73437500 0.23437500
vt 0.51562500 0.23437500
vt 0.51562500 0.01562500
vt 0.73437500 0.01562500
vt 0.73437500 0.23437500
vt 0.51562500 0.23437500
vt 0.51562500 0.01562500
vt 0.73437500 0.01562500
vt 0.73437500 0.23437500
vt 0.51562500 0.23437500
vt 0.51562500 0.01562500
vt 0.73437500 0.01562500
vt 0.73437500 0.23437500
vt 0.51562500 0.23437500
vt 0.51562500 0.76562500
vt 0.73437500 0.76562500
vt 0.73437500 0.98437500
vt 0.51562500 0.98437500
vt 0.51562500 0.76562500
vt 0.73437500 0.76562500
vt 0.73437500 0.98437500
vt 0.51562500 0.98437500
vt 0.51562500 0.76562500
vt 0.73437500 0.76562500
vt 0.73437500 0.98437500
vt 0.51562500 0.98437500
vt 0.51562500 0.76562500
vt 0.73437500 0.76562500
vt 0.73437500 0.98437500
vt 0.51562500 0.98437500
vt 0.51562500 0.76562500
vt 0.73437500 0.76562500
vt 0.73437500 0.98437500
vt 0.51562500 0.98437500
vt 0.51562500 0.76562500
vt 0.73437500 0.76562500
vt 0.73437500 0.98437500
vt 0.51562500 0.98437500
vt 0.51562500 0.76562500
vt 0.73437500 0.76562500
vt 0.73437500 0.98437500
vt 0.51562500 0.98437500
vt 0.51562500 0.76562500
vt 0.73437500 0.76562500
vt 0.73437500 0.98437500
vt 0.51562500 0.98437500
vt 0.51562500 0.76562500
vt 0.73437500 0.76562500
vt 0.73437500 0.98437500
vt 0.51562500 0.98437500
vt 0.51562500 0.76562500
vt 0.73437500 0.76562500
vt 0.73437500 0.98437500
vt 0.51562500 0.98437500
vt 0.51562500 0.76562500
vt 0.73437500 0.76562500
vt 0.73437500 0.98437500
vt 0.51562500 0.76562500
vt 0.73437500 0.76562500
vt 0.73437500 0.98437500
vt 0.51562500 0.76562500
vt 0.73437500 0.76562500
vt 0.73437500 0.98437500
vt 0.51562500 0.76562500
vt 0.73437500 0.76562500
vt 0.73437500 0.98437500
vt 0.51562500 0.76562500
vt 0.73437500 0.76562500
vt 0.73437500 0.98437500
vt 0.51562500 0.76562500
vt 0.73437500 0.76562500
vt 0.73437500 0.98437500
vt 0.51562500 0.76562500
vt 0.73437500 0.76562500
vt 0.73437500 0.98437500
vt 0.51562500 0.76562500
vt 0.73437500 0.76562500
vt 0.73437500 0.98437500
vt 0.51562500 0.76562500
vt 0.73437500 0.76562500
vt 0.73437500 0.98437500
vt 0.51562500 0.76562500
vt 0.73437500 0.76562500
vt 0.73437500 0.98437500
vt 0.51562500 0.76562500
vt 0.73437500 0.76562500
vt 0.73437500 0.98437500
vt 0.51562500 0.76562500
vt 0.73437500 0.76562500
vt 0.73437500 0.98437500
vt 0.51562500 0.76562500
vt 0.73437500 0.76562500
vt 0.73437500 0.98437500
vt 0.51562500 0.76562500
vt 0.73437500 0.76562500
vt 0.73437500 0.98437500
vt 0.51562500 0.76562500
vt 0.73437500 0.76562500
vt 0.73437500 0.98437500
vt 0.51562500 0.76562500
vt 0.73437500 0.76562500
vt 0.73437500 0.98437500
vt 0.51562500 0.76562500
vt 0.73437500 0.76562500
vt 0.73437500 0.98437500
vt 0.51562500 0.76562500
vt 0.73437500 0.76562500
vt 0.73437500 0.98437500
vt 0.51562500 0.76562500
vt 0.73437500 0.76562500
vt 0.73437500 0.98437500
vt 0.51562500 0.76562500
vt 0.73437500 0.76562500
vt 0.73437500 0.98437500
vt 0.51562500 0.51562500
vt 0.73437500 0.51562500
vt 0.73437500 0.73437500
vt 0.51562500 0.73437500
vt 0.51562500 0.51562500
vt 0.73437500 0.51562500
vt 0.73437500 0.73437500
vt 0.51562500 0.73437500
vt 0.51562500 0.51562500
vt 0.73437500 0.51562500
vt 0.73437500 0.73437500
vt 0.51562500 0.73437500
vt 0.51562500 0.51562500
vt 0.73437500 0.51562500
vt 0.73437500 0.73437500
vt 0.51562500 0.73437500
vt 0.51562500 0.51562500
vt 0.73437500 0.51562500
vt 0.73437500 0.73437500
vt 0.51562500 0.73437500
vt 0.51562500 0.51562500
vt 0.73437500 0.51562500
vt 0.73437500 0.73437500
vt 0.51562500 0.73437500
vt 0.26562500 0.51562500
vt 0.48437500 0.51562500
vt 0.48437500 0.73437500
vt 0.26562500 0.73437500
vt 0.26562500 0.51562500
vt 0.48437500 0.51562500
vt 0.48437500 0.73437500
vt 0.26562500 0.73437500
vt 0.26562500 0.51562500
vt 0.48437500 0.51562500
vt 0.48437500 0.73437500
vt 0.26562500 0.73437500
vt 0.26562500 0.51562500
vt 0.48437500 0.51562500
vt 0.48437500 0.73437500
vt 0.26562500 0.73437500
vt 0.26562500 0.51562500
vt 0.48437500 0.51562500
vt 0.48437500 0.73437500
vt 0.26562500 0.73437500
vt 0.26562500 0.51562500
vt 0.48437500 0.51562500
vt 0.48437500 0.73437500
vt 0.26562500 0.73437500
vt 0.01562500 0.76562500
vt 0.23437500 0.76562500
vt 0.23437500 0.98437500
vt 0.01562500 0.98437500
vt 0.01562500 0.76562500
vt 0.23437500 0.76562500
vt 0.23437500 0.98437500
vt 0.01562500 0.98437500
vt 0.01562500 0.76562500
vt 0.23437500 0.76562500
vt 0.23437500 0.98437500
vt 0.01562500 0.98437500
vt 0.01562500 0.76562500
vt 0.23437500 0.76562500
vt 0.23437500 0.98437500
vt 0.01562500 0.98437500
vt 0.01562500 0.76562500
vt 0.23437500 0.76562500
vt 0.23437500 0.98437500
vt 0.01562500 0.98437500
vt 0.01562500 0.76562500
vt 0.23437500 0.76562500
vt 0.23437500 0.98437500
vt 0.01562500 0.98437500
vt 0.76562500 0.01562500
vt 0.98437500 0.01562500
vt 0.98437500 0.23437500
vt 0.76562500 0.23437500
vt 0.76562500 0.01562500
vt 0.98437500 0.01562500
vt 0.98437500 0.23437500
vt 0.76562500 0.23437500
vt 0.76562500 0.01562500
vt 0.98437500 0.01562500
vt 0.98437500 0.23437500
vt 0.76562500 0.23437500
vt 0.76562500 0.01562500
vt 0.98437500 0.01562500
vt 0.98437500 0.23437500
vt 0.76562500 0.23437500
vt 0.76562500 0.01562500
vt 0.98437500 0.01562500
vt 0.98437500 0.23437500
vt 0.76562500 0.23437500
vt 0.76562500 0.01562500
vt 0.98437500 0.01562500
vt 0.98437500 0.23437500
vt 0.76562500 0.23437500
vn 0.00000000 0.00000000 -1.00000000
vn 0.00000000 0.00000000 1.00000000
vn -1.00000000 0.00000000 0.00000000
vn 1.00000000 0.00000000 0.00000000
vn 0.00000000 -1.00000000 0.00000000
vn 0.00000000 1.00000000 0.00000000
vn 0.00000000 0.00000000 -1.00000000
vn 0.00000000 0.00000000 1.00000000
vn -1.00000000 0.00000000 0.00000000
vn 1.00000000 0.00000000 0.00000000
vn 0.00000000 -1.00000000 0.00000000
vn 0.00000000 1.00000000 0.00000000
vn 0.15023496 -0.81428641 0.56068450
vn 0.41044954 -0.81428641 0.41044954
vn 0.56068450 -0.81428641 0.15023496
vn 0.56068450 -0.81428641 -0.15023496
vn 0.41044954 -0.81428641 -0.41044954
vn 0.15023496 -0.81428641 -0.56068450
vn -0.15023496 -0.81428641 -0.56068450
vn -0.41044954 -0.81428641 -0.41044954
vn -0.56068450 -0.81428641 -0.15023496
vn -0.56068450 -0.81428641 0.15023496
vn -0.41044954 -0.81428641 0.41044954
vn -0.15023496 -0.81428641 0.56068450
vn 0.25881905 0.00000000 0.96592583
vn 0.70710678 0.00000000 0.70710678
vn 0.96592583 0.00000000 0.25881905
vn 0.96592583 0.00000000 -0.25881905
vn 0.70710678 0.00000000 -0.70710678
vn 0.25881905 0.00000000 -0.96592583
vn -0.25881905 0.00000000 -0.96592583
vn -0.70710678 0.00000000 -0.70710678
vn -0.96592583 0.00000000 -0.25881905
vn -0.96592583 0.00000000 0.25881905
vn -0.70710678 0.00000000 0.70710678
vn -0.25881905 0.00000000 0.96592583
vn 0.15023496 0.81428641 0.56068450
vn 0.41044954 0.81428641 0.41044954
vn 0.56068450 0.81428641 0.15023496
vn 0.56068450 0.81428641 -0.15023496
vn 0.41044954 0.81428641 -0.41044954
vn 0.15023496 0.81428641 -0.56068450
vn -0.15023496 0.81428641 -0.56068450
vn -0.41044954 0.81428641 -0.41044954
vn -0.56068450 0.81428641 -0.15023496
vn -0.56068450 0.81428641 0.15023496
vn -0.41044954 0.81428641 0.41044954
vn -0.15023496 0.81428641 0.56068450
vn 0.00000000 -1.00000000 0.00000000
vn 0.00000000 -1.00000000 0.00000000
vn 0.00000000 -1.00000000 0.00000000
vn 0.00000000 -1.00000000 0.00000000
vn 0.00000000 -1.00000000 0.00000000
vn 0.00000000 -1.00000000 0.00000000
vn 0.00000000 -1.00000000 -0.00000000
vn 0.00000000 -1.00000000 0.00000000
vn 0.00000000 -1.00000000 0.00000000
vn -0.00000000 -1.00000000 0.00000000
vn 0.00000000 -1.00000000 0.00000000
vn 0.00000000 -1.00000000 0.00000000
vn 0.00000000 1.00000000 0.00000000
vn 0.00000000 1.00000000 0.00000000
vn 0.00000000 1.00000000 0.00000000
vn -0.00000000 1.00000000 0.00000000
vn 0.00000000 1.00000000 0.00000000
vn 0.00000000 1.00000000 0.00000000
vn 0.00000000 1.00000000 0.00000000
vn 0.00000000 1.00000000 0.00000000
vn 0.00000000 1.00000000 0.00000000
vn 0.00000000 1.00000000 0.00000000
vn 0.00000000 1.00000000 0.00000000
vn 0.00000000 1.00000000 -0.00000000
vn 0.38268343 0.00000000 0.92387953
vn 0.92387953 0.00000000 0.38268343
vn 0.92387953 0.00000000 -0.38268343
vn 0.38268343 0.00000000 -0.92387953
vn -0.38268343 0.00000000 -0.92387953
vn -0.92387953 0.00000000 -0.38268343
vn -0.92387953 0.00000000 0.38268343
vn -0.38268343 0.00000000 0.92387953
vn 0.00000000 -1.00000000 0.00000000
vn 0.00000000 -1.00000000 0.00000000
vn 0.00000000 -1.00000000 0.00000000
vn 0.00000000 -1.00000000 0.00000000
vn 0.00000000 -1.00000000 -0.00000000
vn 0.00000000 -1.00000000 0.00000000
vn -0.00000000 -1.00000000 0.00000000
vn 0.00000000 -1.00000000 0.00000000
vn 0.00000000 1.00000000 0.00000000
vn 0.00000000 1.00000000 0.00000000
vn -0.00000000 1.00000000 0.00000000
vn 0.00000000 1.00000000 0.00000000
vn 0.00000000 1.00000000 0.00000000
vn 0.00000000 1.00000000 0.00000000
vn 0.00000000 1.00000000 0.00000000
vn 0.00000000 1.00000000 -0.00000000
vn 0.38268343 0.00000000 0.92387953
vn 0.92387953 0.00000000 0.38268343
vn 0.92387953 0.00000000 -0.38268343
vn 0.38268343 0.00000000 -0.92387953
vn -0.38268343 0.00000000 -0.92387953
vn -0.92387953 0.00000000 -0.38268343
vn -0.92387953 0.00000000 0.38268343
vn -0.38268343 0.00000000 0.92387953
vn 0.00000000 -1.00000000 0.00000000
vn 0.00000000 -1.00000000 0.00000000
vn 0.00000000 -1.00000000 0.00000000
vn 0.00000000 -1.00000000 0.00000000
vn 0.00000000 -1.00000000 -0.00000000
vn 0.00000000 -1.00000000 0.00000000
vn -0.00000000 -1.00000000 0.00000000
vn 0.00000000 -1.00000000 0.00000000
vn 0.00000000 1.00000000 0.00000000
vn 0.00000000 1.00000000 0.00000000
vn -0.00000000 1.00000000 0.00000000
vn 0.00000000 1.00000000 0.00000000
vn 0.00000000 1.00000000 0.00000000
vn 0.00000000 1.00000000 0.00000000
vn 0.00000000 1.00000000 0.00000000
vn 0.00000000 1.00000000 -0.00000000
vn 0.30901699 0.00000000 0.95105652
vn 0.80901699 0.00000000 0.58778525
vn 1.00000000 0.00000000 0.00000000
vn 0.80901699 0.00000000 -0.58778525
vn 0.30901699 0.00000000 -0.95105652
vn -0.30901699 0.00000000 -0.95105652
vn -0.80901699 0.00000000 -0.58778525
vn -1.00000000 0.00000000 0.00000000
vn -0.80901699 0.00000000 0.58778525
vn -0.30901699 0.00000000 0.95105652
vn 0.00000000 -1.00000000 0.00000000
vn 0.00000000 -1.00000000 0.00000000
vn 0.00000000 -1.00000000 0.00000000
vn 0.00000000 -1.00000000 0.00000000
vn 0.00000000 -1.00000000 0.00000000
vn 0.00000000 -1.00000000 -0.00000000
vn 0.00000000 -1.00000000 0.00000000
vn -0.00000000 -1.00000000 0.00000000
vn 0.00000000 -1.00000000 0.00000000
vn 0.00000000 -1.00000000 0.00000000
vn 0.00000000 1.00000000 0.00000000
vn 0.00000000 1.00000000 0.00000000
vn -0.00000000 1.00000000 0.00000000
vn 0.00000000 1.00000000 0.00000000
vn 0.00000000 1.00000000 0.00000000
vn 0.00000000 1.00000000 0.00000000
vn 0.00000000 1.00000000 0.00000000
vn 0.00000000 1.00000000 0.00000000
vn 0.00000000 1.00000000 0.00000000
vn 0.00000000 1.00000000 -0.00000000
vn 0.00000000 0.00000000 -1.00000000
vn 0.00000000 0.00000000 1.00000000
vn -1.00000000 0.00000000 0.00000000
vn 1.00000000 0.00000000 0.00000000
vn 0.00000000 -1.00000000 0.00000000
vn 0.00000000 1.00000000 0.00000000
vn 0.00000000 0.00000000 -1.00000000
vn 0.00000000 0.00000000 1.00000000
vn -1.00000000 0.00000000 0.00000000
vn 1.00000000 0.00000000 0.00000000
vn 0.00000000 -1.00000000 0.00000000
vn 0.00000000 1.00000000 0.00000000
vn 0.00000000 0.00000000 -1.00000000
vn 0.00000000 0.00000000 1.00000000
vn -1.00000000 0.00000000 0.00000000
vn 1.00000000 0.00000000 0.00000000
vn 0.00000000 -1.00000000 0.00000000
vn 0.00000000 1.00000000 0.00000000
vn 0.00000000 0.00000000 -1.00000000
vn 0.00000000 0.00000000 1.00000000
vn -1.00000000 0.00000000 0.00000000
vn 1.00000000 0.00000000 0.00000000
vn 0.00000000 -1.00000000 0.00000000
vn 0.00000000 1.00000000 0.00000000
vn 0.92387953 0.38268343 0.00000000
vn 0.38268343 0.92387953 0.00000000
vn -0.38268343 0.92387953 0.00000000
vn -0.92387953 0.38268343 0.00000000
vn -0.92387953 -0.38268343 0.00000000
vn -0.38268343 -0.92387953 0.00000000
vn 0.38268343 -0.92387953 0.00000000
vn 0.92387953 -0.38268343 0.00000000
vn 0.00000000 0.00000000 -1.00000000
vn 0.00000000 0.00000000 -1.00000000
vn 0.00000000 0.00000000 -1.00000000
vn 0.00000000 0.00000000 -1.00000000
vn -0.00000000 0.00000000 -1.00000000
vn 0.00000000 -0.00000000 -1.00000000
vn 0.00000000 0.00000000 -1.00000000
vn 0.00000000 0.00000000 -1.00000000
vn 0.00000000 0.00000000 1.00000000
vn 0.00000000 0.00000000 1.00000000
vn 0.00000000 -0.00000000 1.00000000
vn 0.00000000 0.00000000 1.00000000
vn 0.00000000 0.00000000 1.00000000
vn 0.00000000 0.00000000 1.00000000
vn 0.00000000 0.00000000 1.00000000
vn -0.00000000 0.00000000 1.00000000
vn 0.00000000 0.38268343 -0.92387953
vn 0.00000000 0.92387953 -0.38268343
vn 0.00000000 0.92387953 0.38268343
vn 0.00000000 0.38268343 0.92387953
vn 0.00000000 -0.38268343 0.92387953
vn 0.00000000 -0.92387953 0.38268343
vn 0.00000000 -0.92387953 -0.38268343
vn 0.00000000 -0.38268343 -0.92387953
vn -1.00000000 0.00000000 0.00000000
vn -1.00000000 0.00000000 0.00000000
vn -1.00000000 0.00000000 0.00000000
vn -1.00000000 0.00000000 0.00000000
vn -1.00000000 0.00000000 0.00000000
vn -1.00000000 0.00000000 0.00000000
vn -1.00000000 -0.00000000 0.00000000
vn -1.00000000 0.00000000 -0.00000000
vn 1.00000000 0.00000000 0.00000000
vn 1.00000000 -0.00000000 0.00000000
vn 1.00000000 0.00000000 0.00000000
vn 1.00000000 0.00000000 0.00000000
vn 1.00000000 0.00000000 -0.00000000
vn 1.00000000 0.00000000 0.00000000
vn 1.00000000 0.00000000 0.00000000
vn 1.00000000 0.00000000 0.00000000
vn 0.92387953 0.38268343 0.00000000
vn 0.38268343 0.92387953 0.00000000
vn -0.38268343 0.92387953 0.00000000
vn -0.92387953 0.38268343 0.00000000
vn -0.92387953 -0.38268343 0.00000000
vn -0.38268343 -0.92387953 0.00000000
vn 0.38268343 -0.92387953 0.00000000
vn 0.92387953 -0.38268343 0.00000000
vn 0.00000000 0.00000000 -1.00000000
vn 0.00000000 0.00000000 -1.00000000
vn 0.00000000 0.00000000 -1.00000000
vn 0.00000000 0.00000000 -1.00000000
vn -0.00000000 0.00000000 -1.00000000
vn 0.00000000 -0.00000000 -1.00000000
vn 0.00000000 0.00000000 -1.00000000
vn 0.00000000 0.00000000 -1.00000000
vn 0.00000000 0.00000000 1.00000000
vn 0.00000000 0.00000000 1.00000000
vn 0.00000000 -0.00000000 1.00000000
vn 0.00000000 0.00000000 1.00000000
vn 0.00000000 0.00000000 1.00000000
vn 0.00000000 0.00000000 1.00000000
vn 0.00000000 0.00000000 1.00000000
vn -0.00000000 0.00000000 1.00000000
vn 0.38268343 0.00000000 0.92387953
vn 0.92387953 0.00000000 0.38268343
vn 0.92387953 0.00000000 -0.38268343
vn 0.38268343 0.00000000 -0.92387953
vn -0.38268343 0.00000000 -0.92387953
vn -0.92387953 0.00000000 -0.38268343
vn -0.92387953 0.00000000 0.38268343
vn -0.38268343 0.00000000 0.92387953
vn 0.00000000 -1.00000000 0.00000000
vn 0.00000000 -1.00000000 0.00000000
vn 0.00000000 -1.00000000 0.00000000
vn 0.00000000 -1.00000000 0.00000000
vn 0.00000000 -1.00000000 -0.00000000
vn -0.00000000 -1.00000000 0.00000000
vn 0.00000000 -1.00000000 0.00000000
vn 0.00000000 -1.00000000 0.00000000
vn 0.00000000 1.00000000 0.00000000
vn 0.00000000 1.00000000 0.00000000
vn -0.00000000 1.00000000 0.00000000
vn 0.00000000 1.00000000 0.00000000
vn 0.00000000 1.00000000 0.00000000
vn 0.00000000 1.00000000 0.00000000
vn 0.00000000 1.00000000 0.00000000
vn 0.00000000 1.00000000 -0.00000000
vn 0.80010315 0.50000000 0.33141357
vn 0.00000000 1.00000000 0.00000000
vn -0.80010315 0.50000000 -0.33141357
vn -0.80010315 -0.50000000 -0.33141357
vn 0.00000000 -1.00000000 0.00000000
vn 0.80010315 -0.50000000 0.33141357
vn 0.38268343 -0.00000000 -0.92387953
vn 0.38268343 0.00000000 -0.92387953
vn 0.38268343 0.00000000 -0.92387953
vn 0.38268343 -0.00000000 -0.92387953
vn 0.38268343 0.00000000 -0.92387953
vn 0.38268343 0.00000000 -0.92387953
vn -0.38268343 0.00000000 0.92387953
vn -0.38268343 0.00000000 0.92387953
vn -0.38268343 -0.00000000 0.92387953
vn -0.38268343 0.00000000 0.92387953
vn -0.38268343 0.00000000 0.92387953
vn -0.38268343 -0.00000000 0.92387953
vn 0.33141357 0.50000000 0.80010315
vn 0.00000000 1.00000000 0.00000000
vn -0.33141357 0.50000000 -0.80010315
vn -0.33141357 -0.50000000 -0.80010315
vn 0.00000000 -1.00000000 0.00000000
vn 0.33141357 -0.50000000 0.80010315
vn 0.92387953 0.00000000 -0.38268343
vn 0.92387953 0.00000000 -0.38268343
vn 0.92387953 -0.00000000 -0.38268343
vn 0.92387953 0.00000000 -0.38268343
vn 0.92387953 0.00000000 -0.38268343
vn 0.92387953 -0.00000000 -0.38268343
vn -0.92387953 -0.00000000 0.38268343
vn -0.92387953 0.00000000 0.38268343
vn -0.92387953 0.00000000 0.38268343
vn -0.92387953 -0.00000000 0.38268343
vn -0.92387953 0.00000000 0.38268343
vn -0.92387953 0.00000000 0.38268343
vn -0.33141357 0.50000000 0.80010315
vn 0.00000000 1.00000000 0.00000000
vn 0.33141357 0.50000000 -0.80010315
vn 0.33141357 -0.50000000 -0.80010315
vn -0.00000000 -1.00000000 0.00000000
vn -0.33141357 -0.50000000 0.80010315
vn 0.92387953 -0.00000000 0.38268343
vn 0.92387953 0.00000000 0.38268343
vn 0.92387953 0.00000000 0.38268343
vn 0.92387953 -0.00000000 0.38268343
vn 0.92387953 0.00000000 0.38268343
vn 0.92387953 0.00000000 0.38268343
vn -0.92387953 0.00000000 -0.38268343
vn -0.92387953 0.00000000 -0.38268343
vn -0.92387953 -0.00000000 -0.38268343
vn -0.92387953 0.00000000 -0.38268343
vn -0.92387953 0.00000000 -0.38268343
vn -0.92387953 -0.00000000 -0.38268343
vn -0.80010315 0.50000000 0.33141357
vn 0.00000000 1.00000000 0.00000000
vn 0.80010315 0.50000000 -0.33141357
vn 0.80010315 -0.50000000 -0.33141357
vn -0.00000000 -1.00000000 0.00000000
vn -0.80010315 -0.50000000 0.33141357
vn 0.38268343 0.00000000 0.92387953
vn 0.38268343 0.00000000 0.92387953
vn 0.38268343 -0.00000000 0.92387953
vn 0.38268343 0.00000000 0.92387953
vn 0.38268343 0.00000000 0.92387953
vn 0.38268343 -0.00000000 0.92387953
vn -0.38268343 0.00000000 -0.92387953
vn -0.38268343 0.00000000 -0.92387953
vn -0.38268343 0.00000000 -0.92387953
vn -0.38268343 -0.00000000 -0.92387953
vn -0.38268343 -0.00000000 -0.92387953
vn -0.38268343 0.00000000 -0.92387953
vn -0.80010315 0.50000000 -0.33141357
vn -0.00000000 1.00000000 0.00000000
vn 0.80010315 0.50000000 0.33141357
vn 0.80010315 -0.50000000 0.33141357
vn 0.00000000 -1.00000000 -0.00000000
vn -0.80010315 -0.50000000 -0.33141357
vn -0.38268343 0.00000000 0.92387953
vn -0.38268343 0.00000000 0.92387953
vn -0.38268343 0.00000000 0.92387953
vn -0.38268343 -0.00000000 0.92387953
vn -0.38268343 -0.00000000 0.92387953
vn -0.38268343 0.00000000 0.92387953
vn 0.38268343 0.00000000 -0.92387953
vn 0.38268343 0.00000000 -0.92387953
vn 0.38268343 -0.00000000 -0.92387953
vn 0.38268343 0.00000000 -0.92387953
vn 0.38268343 0.00000000 -0.92387953
vn 0.38268343 -0.00000000 -0.92387953
vn -0.33141357 0.50000000 -0.80010315
vn -0.00000000 1.00000000 0.00000000
vn 0.33141357 0.50000000 0.80010315
vn 0.33141357 -0.50000000 0.80010315
vn 0.00000000 -1.00000000 -0.00000000
vn -0.33141357 -0.50000000 -0.80010315
vn -0.92387953 0.00000000 0.38268343
vn -0.92387953 0.00000000 0.38268343
vn -0.92387953 0.00000000 0.38268343
vn -0.92387953 -0.00000000 0.38268343
vn -0.92387953 0.00000000 0.38268343
vn -0.92387953 0.00000000 0.38268343
vn 0.92387953 0.00000000 -0.38268343
vn 0.92387953 0.00000000 -0.38268343
vn 0.92387953 0.00000000 -0.38268343
vn 0.92387953 0.00000000 -0.38268343
vn 0.92387953 0.00000000 -0.38268343
vn 0.92387953 0.00000000 -0.38268343
vn 0.33141357 0.50000000 -0.80010315
vn 0.00000000 1.00000000 -0.00000000
vn -0.33141357 0.50000000 0.80010315
vn -0.33141357 -0.50000000 0.80010315
vn 0.00000000 -1.00000000 0.00000000
vn 0.33141357 -0.50000000 -0.80010315
vn -0.92387953 0.00000000 -0.38268343
vn -0.92387953 0.00000000 -0.38268343
vn -0.92387953 0.00000000 -0.38268343
vn -0.92387953 0.00000000 -0.38268343
vn -0.92387953 0.00000000 -0.38268343
vn -0.92387953 0.00000000 -0.38268343
vn 0.92387953 0.00000000 0.38268343
vn 0.92387953 0.00000000 0.38268343
vn 0.92387953 0.00000000 0.38268343
vn 0.92387953 0.00000000 0.38268343
vn 0.92387953 0.00000000 0.38268343
vn 0.92387953 0.00000000 0.38268343
vn 0.80010315 0.50000000 -0.33141357
vn 0.00000000 1.00000000 -0.00000000
vn -0.80010315 0.50000000 0.33141357
vn -0.80010315 -0.50000000 0.33141357
vn 0.00000000 -1.00000000 0.00000000
vn 0.80010315 -0.50000000 -0.33141357
vn -0.38268343 0.00000000 -0.92387953
vn -0.38268343 0.00000000 -0.92387953
vn -0.38268343 0.00000000 -0.92387953
vn -0.38268343 0.00000000 -0.92387953
vn -0.38268343 0.00000000 -0.92387953
vn -0.38268343 -0.00000000 -0.92387953
vn 0.38268343 -0.00000000 0.92387953
vn 0.38268343 -0.00000000 0.92387953
vn 0.38268343 -0.00000000 0.92387953
vn 0.38268343 -0.00000000 0.92387953
vn 0.38268343 0.00000000 0.92387953
vn 0.38268343 0.00000000 0.92387953
vn 0.00000000 0.00000000 -1.00000000
vn 0.00000000 0.00000000 1.00000000
vn -1.00000000 0.00000000 0.00000000
vn 1.00000000 0.00000000 0.00000000
vn 0.00000000 -1.00000000 0.00000000
vn 0.00000000 1.00000000 0.00000000
vn 0.95105652 0.30901699 0.00000000
vn 0.58778525 0.80901699 0.00000000
vn 0.00000000 1.00000000 0.00000000
vn -0.58778525 0.80901699 0.00000000
vn -0.95105652 0.30901699 0.00000000
vn -0.95105652 -0.30901699 0.00000000
vn -0.58778525 -0.80901699 0.00000000
vn 0.00000000 -1.00000000 0.00000000
vn 0.58778525 -0.80901699 0.00000000
vn 0.95105652 -0.30901699 0.00000000
vn 0.00000000 0.00000000 -1.00000000
vn 0.00000000 0.00000000 -1.00000000
vn 0.00000000 0.00000000 -1.00000000
vn 0.00000000 0.00000000 -1.00000000
vn 0.00000000 0.00000000 -1.00000000
vn -0.00000000 0.00000000 -1.00000000
vn 0.00000000 0.00000000 -1.00000000
vn 0.00000000 -0.00000000 -1.00000000
vn 0.00000000 0.00000000 -1.00000000
vn 0.00000000 0.00000000 -1.00000000
vn 0.00000000 0.00000000 1.00000000
vn 0.00000000 0.00000000 1.00000000
vn 0.00000000 -0.00000000 1.00000000
vn 0.00000000 0.00000000 1.00000000
vn 0.00000000 0.00000000 1.00000000
vn 0.00000000 0.00000000 1.00000000
vn 0.00000000 0.00000000 1.00000000
vn 0.00000000 0.00000000 1.00000000
vn 0.00000000 0.00000000 1.00000000
vn -0.00000000 0.00000000 1.00000000
vn 0.00000000 0.00000000 -1.00000000
vn 0.00000000 0.00000000 1.00000000
vn -1.00000000 0.00000000 0.00000000
vn 1.00000000 0.00000000 0.00000000
vn 0.00000000 -1.00000000 0.00000000
vn 0.00000000 1.00000000 0.00000000
vn 0.00000000 0.00000000 -1.00000000
vn 0.00000000 0.00000000 1.00000000
vn -1.00000000 0.00000000 0.00000000
vn 1.00000000 0.00000000 0.00000000
vn 0.00000000 -1.00000000 0.00000000
vn 0.00000000 1.00000000 0.00000000
vn 0.00000000 0.00000000 -1.00000000
vn 0.00000000 0.00000000 1.00000000
vn -1.00000000 0.00000000 0.00000000
vn 1.00000000 0.00000000 0.00000000
vn 0.00000000 -1.00000000 0.00000000
vn 0.00000000 1.00000000 0.00000000
vn 0.00000000 0.00000000 -1.00000000
vn 0.00000000 0.00000000 1.00000000
vn -1.00000000 0.00000000 0.00000000
vn 1.00000000 0.00000000 0.00000000
vn 0.00000000 -1.00000000 0.00000000
vn 0.00000000 1.00000000 0.00000000
f 1/1/1 2/2/1 3/3/1
f 1/1/1 3/3/1 4/4/1
f 5/5/2 6/6/2 7/7/2
f 5/5/2 7/7/2 8/8/2
f 1/9/3 5/10/3 8/11/3
f 1/9/3 8/11/3 2/12/3
f 4/13/4 3/14/4 7/15/4
f 4/13/4 7/15/4 6/16/4
f 1/17/5 4/18/5 6/19/5
f 1/17/5 6/19/5 5/20/5
f 2/21/6 8/22/6 7/23/6
f 2/21/6 7/23/6 3/24/6
f 9/25/7 10/26/7 11/27/7
f 9/25/7 11/27/7 12/28/7
f 13/29/8 14/30/8 15/31/8
f 13/29/8 15/31/8 16/32/8
f 9/33/9 13/34/9 16/35/9
f 9/33/9 16/35/9 10/36/9
f 12/37/10 11/38/10 15/39/10
f 12/37/10 15/39/10 14/40/10
f 9/41/11 12/42/11 14/43/11
f 9/41/11 14/43/11 13/44/11
f 10/45/12 16/46/12 15/47/12
f 10/45/12 15/47/12 11/48/12
f 17/49/13 18/50/13 19/51/13
f 17/49/13 19/51/13 20/52/13
f 18/53/14 21/54/14 22/55/14
f 18/53/14 22/55/14 19/56/14
f 21/57/15 23/58/15 24/59/15
f 21/57/15 24/59/15 22/60/15
f 23/61/16 25/62/16 26/63/16
f 23/61/16 26/63/16 24/64/16
f 25/65/17 27/66/17 28/67/17
f 25/65/17 28/67/17 26/68/17
f 27/69/18 29/70/18 30/71/18
f 27/69/18 30/71/18 28/72/18
f 29/73/19 31/74/19 32/75/19
f 29/73/19 32/75/19 30/76/19
f 31/77/20 33/78/20 34/79/20
f 31/77/20 34/79/20 32/80/20
f 33/81/21 35/82/21 36/83/21
f 33/81/21 36/83/21 34/84/21
f 35/85/22 37/86/22 38/87/22
f 35/85/22 38/87/22 36/88/22
f 37/89/23 39/90/23 40/91/23
f 37/89/23 40/91/23 38/92/23
f 39/93/24 17/94/24 20/95/24
f 39/93/24 20/95/24 40/96/24
f 20/97/25 19/98/25 41/99/25
f 20/97/25 41/99/25 42/100/25
f 19/101/26 22/102/26 43/103/26
f 19/101/26 43/103/26 41/104/26
f 22/105/27 24/106/27 44/107/27
f 22/105/27 44/107/27 43/108/27
f 24/109/28 26/110/28 45/111/28
f 24/109/28 45/111/28 44/112/28
f 26/113/29 28/114/29 46/115/29
f 26/113/29 46/115/29 45/116/29
f 28/117/30 30/118/30 47/119/30
f 28/117/30 47/119/30 46/120/30
f 30/121/31 32/122/31 48/123/31
f 30/121/31 48/123/31 47/124/31
f 32/125/32 34/126/32 49/127/32
f 32/125/32 49/127/32 48/128/32
f 34/129/33 36/130/33 50/131/33
f 34/129/33 50/131/33 49/132/33
f 36/133/34 38/134/34 51/135/34
f 36/133/34 51/135/34 50/136/34
f 38/137/35 40/138/35 52/139/35
f 38/137/35 52/139/35 51/140/35
f 40/141/36 20/142/36 42/143/36
f 40/141/36 42/143/36 52/144/36
f 42/145/37 41/146/37 53/147/37
f 42/145/37 53/147/37 54/148/37
f 41/149/38 43/150/38 55/151/38
f 41/149/38 55/151/38 53/152/38
f 43/153/39 44/154/39 56/155/39
f 43/153/39 56/155/39 55/156/39
f 44/157/40 45/158/40 57/159/40
f 44/157/40 57/159/40 56/160/40
f 45/161/41 46/162/41 58/163/41
f 45/161/41 58/163/41 57/164/41
f 46/165/42 47/166/42 59/167/42
f 46/165/42 59/167/42 58/168/42
f 47/169/43 48/170/43 60/171/43
f 47/169/43 60/171/43 59/172/43
f 48/173/44 49/174/44 61/175/44
f 48/173/44 61/175/44 60/176/44
f 49/177/45 50/178/45 62/179/45
f 49/177/45 62/179/45 61/180/45
f 50/181/46 51/182/46 63/183/46
f 50/181/46 63/183/46 62/184/46
f 51/185/47 52/186/47 64/187/47
f 51/185/47 64/187/47 63/188/47
f 52/189/48 42/190/48 54/191/48
f 52/189/48 54/191/48 64/192/48
f 65/193/49 18/194/49 17/195/49
f 65/196/50 21/197/50 18/198/50
f 65/199/51 23/200/51 21/201/51
f 65/202/52 25/203/52 23/204/52
f 65/205/53 27/206/53 25/207/53
f 65/208/54 29/209/54 27/210/54
f 65/211/55 31/212/55 29/213/55
f 65/214/56 33/215/56 31/216/56
f 65/217/57 35/218/57 33/219/57
f 65/220/58 37/221/58 35/222/58
f 65/223/59 39/224/59 37/225/59
f 65/226/60 17/227/60 39/228/60
f 66/229/61 54/230/61 53/231/61
f 66/232/62 53/233/62 55/234/62
f 66/235/63 55/236/63 56/237/63
f 66/238/64 56/239/64 57/240/64
f 66/241/65 57/242/65 58/243/65
f 66/244/66 58/245/66 59/246/66
f 66/247/67 59/248/67 60/249/67
f 66/250/68 60/251/68 61/252/68
f 66/253/69 61/254/69 62/255/69
f 66/256/70 62/257/70 63/258/70
f 66/259/71 63/260/71 64/261/71
f 66/262/72 64/263/72 54/264/72
f 67/265/73 68/266/73 69/267/73
f 67/265/73 69/267/73 70/268/73
f 68/269/74 71/270/74 72/271/74
f 68/269/74 72/271/74 69/272/74
f 71/273/75 73/274/75 74/275/75
f 71/273/75 74/275/75 72/276/75
f 73/277/76 75/278/76 76/279/76
f 73/277/76 76/279/76 74/280/76
f 75/281/77 77/282/77 78/283/77
f 75/281/77 78/283/77 76/284/77
f 77/285/78 79/286/78 80/287/78
f 77/285/78 80/287/78 78/288/78
f 79/289/79 81/290/79 82/291/79
f 79/289/79 82/291/79 80/292/79
f 81/293/80 67/294/80 70/295/80
f 81/293/80 70/295/80 82/296/80
f 83/297/81 68/298/81 67/299/81
f 83/300/82 71/301/82 68/302/82
f 83/303/83 73/304/83 71/305/83
f 83/306/84 75/307/84 73/308/84
f 83/309/85 77/310/85 75/311/85
f 83/312/86 79/313/86 77/314/86
f 83/315/87 81/316/87 79/317/87
f 83/318/88 67/319/88 81/320/88
f 84/321/89 70/322/89 69/323/89
f 84/324/90 69/325/90 72/326/90
f 84/327/91 72/328/91 74/329/91
f 84/330/92 74/331/92 76/332/92
f 84/333/93 76/334/93 78/335/93
f 84/336/94 78/337/94 80/338/94
f 84/339/95 80/340/95 82/341/95
f 84/342/96 82/343/96 70/344/96
f 85/345/97 86/346/97 87/347/97
f 85/345/97 87/347/97 88/348/97
f 86/349/98 89/350/98 90/351/98
f 86/349/98 90/351/98 87/352/98
f 89/353/99 91/354/99 92/355/99
f 89/353/99 92/355/99 90/356/99
f 91/357/100 93/358/100 94/359/100
f 91/357/100 94/359/100 92/360/100
f 93/361/101 95/362/101 96/363/101
f 93/361/101 96/363/101 94/364/101
f 95/365/102 97/366/102 98/367/102
f 95/365/102 98/367/102 96/368/102
f 97/369/103 99/370/103 100/371/103
f 97/369/103 100/371/103 98/372/103
f 99/373/104 85/374/104 88/375/104
f 99/373/104 88/375/104 100/376/104
f 101/377/105 86/378/105 85/379/105
f 101/380/106 89/381/106 86/382/106
f 101/383/107 91/384/107 89/385/107
f 101/386/108 93/387/108 91/388/108
f 101/389/109 95/390/109 93/391/109
f 101/392/110 97/393/110 95/394/110
f 101/395/111 99/396/111 97/397/111
f 101/398/112 85/399/112 99/400/112
f 102/401/113 88/402/113 87/403/113
f 102/404/114 87/405/114 90/406/114
f 102/407/115 90/408/115 92/409/115
f 102/410/116 92/411/116 94/412/116
f 102/413/117 94/414/117 96/415/117
f 102/416/118 96/417/118 98/418/118
f 102/419/119 98/420/119 100/421/119
f 102/422/120 100/423/120 88/424/120
f 103/425/121 104/426/121 105/427/121
f 103/425/121 105/427/121 106/428/121
f 104/429/122 107/430/122 108/431/122
f 104/429/122 108/431/122 105/432/122
f 107/433/123 109/434/123 110/435/123
f 107/433/123 110/435/123 108/436/123
f 109/437/124 111/438/124 112/439/124
f 109/437/124 112/439/124 110/440/124
f 111/441/125 113/442/125 114/443/125
f 111/441/125 114/443/125 112/444/125
f 113/445/126 115/446/126 116/447/126
f 113/445/126 116/447/126 114/448/126
f 115/449/127 117/450/127 118/451/127
f 115/449/127 118/451/127 116/452/127
f 117/453/128 119/454/128 120/455/128
f 117/453/128 120/455/128 118/456/128
f 119/457/129 121/458/129 122/459/129
f 119/457/129 122/459/129 120/460/129
f 121/461/130 103/462/130 106/463/130
f 121/461/130 106/463/130 122/464/130
f 66/465/131 104/466/131 103/467/131
f 66/468/132 107/469/132 104/470/132
f 66/471/133 109/472/133 107/473/133
f 66/474/134 111/475/134 109/476/134
f 66/477/135 113/478/135 111/479/135
f 66/480/136 115/481/136 113/482/136
f 66/483/137 117/484/137 115/485/137
f 66/486/138 119/487/138 117/488/138
f 66/489/139 121/490/139 119/491/139
f 66/492/140 103/493/140 121/494/140
f 123/495/141 106/496/141 105/497/141
f 123/498/142 105/499/142 108/500/142
f 123/501/143 108/502/143 110/503/143
f 123/504/144 110/505/144 112/506/144
f 123/507/145 112/508/145 114/509/145
f 123/510/146 114/511/146 116/512/146
f 123/513/147 116/514/147 118/515/147
f 123/516/148 118/517/148 120/518/148
f 123/519/149 120/520/149 122/521/149
f 123/522/150 122/523/150 106/524/150
f 124/525/151 125/526/151 126/527/151
f 124/525/151 126/527/151 127/528/151
f 128/529/152 129/530/152 130/531/152
f 128/529/152 130/531/152 131/532/152
f 124/533/153 128/534/153 131/535/153
f 124/533/153 131/535/153 125/536/153
f 127/537/154 126/538/154 130/539/154
f 127/537/154 130/539/154 129/540/154
f 124/541/155 127/542/155 129/543/155
f 124/541/155 129/543/155 128/544/155
f 125/545/156 131/546/156 130/547/156
f 125/545/156 130/547/156 126/548/156
f 132/549/157 133/550/157 134/551/157
f 132/549/157 134/551/157 135/552/157
f 136/553/158 137/554/158 138/555/158
f 136/553/158 138/555/158 139/556/158
f 132/557/159 136/558/159 139/559/159
f 132/557/159 139/559/159 133/560/159
f 135/561/160 134/562/160 138/563/160
f 135/561/160 138/563/160 137/564/160
f 132/565/161 135/566/161 137/567/161
f 132/565/161 137/567/161 136/568/161
f 133/569/162 139/570/162 138/571/162
f 133/569/162 138/571/162 134/572/162
f 140/573/163 141/574/163 142/575/163
f 140/573/163 142/575/163 143/576/163
f 144/577/164 145/578/164 146/579/164
f 144/577/164 146/579/164 147/580/164
f 140/581/165 144/582/165 147/583/165
f 140/581/165 147/583/165 141/584/165
f 143/585/166 142/586/166 146/587/166
f 143/585/166 146/587/166 145/588/166
f 140/589/167 143/590/167 145/591/167
f 140/589/167 145/591/167 144/592/167
f 141/593/168 147/594/168 146/595/168
f 141/593/168 146/595/168 142/596/168
f 148/597/169 149/598/169 150/599/169
f 148/597/169 150/599/169 151/600/169
f 152/601/170 153/602/170 154/603/170
f 152/601/170 154/603/170 155/604/170
f 148/605/171 152/606/171 155/607/171
f 148/605/171 155/607/171 149/608/171
f 151/609/172 150/610/172 154/611/172
f 151/609/172 154/611/172 153/612/172
f 148/613/173 151/614/173 153/615/173
f 148/613/173 153/615/173 152/616/173
f 149/617/174 155/618/174 154/619/174
f 149/617/174 154/619/174 150/620/174
f 156/621/175 157/622/175 158/623/175
f 156/621/175 158/623/175 159/624/175
f 157/625/176 160/626/176 161/627/176
f 157/625/176 161/627/176 158/628/176
f 160/629/177 162/630/177 163/631/177
f 160/629/177 163/631/177 161/632/177
f 162/633/178 164/634/178 165/635/178
f 162/633/178 165/635/178 163/636/178
f 164/637/179 166/638/179 167/639/179
f 164/637/179 167/639/179 165/640/179
f 166/641/180 168/642/180 169/643/180
f 166/641/180 169/643/180 167/644/180
f 168/645/181 170/646/181 171/647/181
f 168/645/181 171/647/181 169/648/181
f 170/649/182 156/650/182 159/651/182
f 170/649/182 159/651/182 171/652/182
f 172/653/183 157/654/183 156/655/183
f 172/656/184 160/657/184 157/658/184
f 172/659/185 162/660/185 160/661/185
f 172/662/186 164/663/186 162/664/186
f 172/665/187 166/666/187 164/667/187
f 172/668/188 168/669/188 166/670/188
f 172/671/189 170/672/189 168/673/189
f 172/674/190 156/675/190 170/676/190
f 173/677/191 159/678/191 158/679/191
f 173/680/192 158/681/192 161/682/192
f 173/683/193 161/684/193 163/685/193
f 173/686/194 163/687/194 165/688/194
f 173/689/195 165/690/195 167/691/195
f 173/692/196 167/693/196 169/694/196
f 173/695/197 169/696/197 171/697/197
f 173/698/198 171/699/198 159/700/198
f 174/701/199 175/702/199 176/703/199
f 174/701/199 176/703/199 177/704/199
f 175/705/200 161/706/200 178/707/200
f 175/705/200 178/707/200 176/708/200
f 161/709/201 179/710/201 180/711/201
f 161/709/201 180/711/201 178/712/201
f 179/713/202 181/714/202 182/715/202
f 179/713/202 182/715/202 180/716/202
f 181/717/203 183/718/203 184/719/203
f 181/717/203 184/719/203 182/720/203
f 183/721/204 169/722/204 185/723/204
f 183/721/204 185/723/204 184/724/204
f 169/725/205 186/726/205 187/727/205
f 169/725/205 187/727/205 185/728/205
f 186/729/206 174/730/206 177/731/206
f 186/729/206 177/731/206 187/732/206
f 173/733/207 175/734/207 174/735/207
f 173/736/208 161/737/208 175/738/208
f 173/739/209 179/740/209 161/741/209
f 173/742/210 181/743/210 179/744/210
f 173/745/211 183/746/211 181/747/211
f 173/748/212 169/749/212 183/750/212
f 173/751/213 186/752/213 169/753/213
f 173/754/214 174/755/214 186/756/214
f 188/757/215 177/758/215 176/759/215
f 188/760/216 176/761/216 178/762/216
f 188/763/217 178/764/217 180/765/217
f 188/766/218 180/767/218 182/768/218
f 188/769/219 182/770/219 184/771/219
f 188/772/220 184/773/220 185/774/220
f 188/775/221 185/776/221 187/777/221
f 188/778/222 187/779/222 177/780/222
f 189/781/223 190/782/223 191/783/223
f 189/781/223 191/783/223 192/784/223
f 190/785/224 193/786/224 194/787/224
f 190/785/224 194/787/224 191/788/224
f 193/789/225 195/790/225 196/791/225
f 193/789/225 196/791/225 194/792/225
f 195/793/226 197/794/226 198/795/226
f 195/793/226 198/795/226 196/796/226
f 197/797/227 199/798/227 200/799/227
f 197/797/227 200/799/227 198/800/227
f 199/801/228 201/802/228 202/803/228
f 199/801/228 202/803/228 200/804/228
f 201/805/229 203/806/229 204/807/229
f 201/805/229 204/807/229 202/808/229
f 203/809/230 189/810/230 192/811/230
f 203/809/230 192/811/230 204/812/230
f 205/813/231 190/814/231 189/815/231
f 205/816/232 193/817/232 190/818/232
f 205/819/233 195/820/233 193/821/233
f 205/822/234 197/823/234 195/824/234
f 205/825/235 199/826/235 197/827/235
f 205/828/236 201/829/236 199/830/236
f 205/831/237 203/832/237 201/833/237
f 205/834/238 189/835/238 203/836/238
f 206/837/239 192/838/239 191/839/239
f 206/840/240 191/841/240 194/842/240
f 206/843/241 194/844/241 196/845/241
f 206/846/242 196/847/242 198/848/242
f 206/849/243 198/850/243 200/851/243
f 206/852/244 200/853/244 202/854/244
f 206/855/245 202/856/245 204/857/245
f 206/858/246 204/859/246 192/860/246
f 207/861/247 208/862/247 209/863/247
f 207/861/247 209/863/247 210/864/247
f 208/865/248 211/866/248 212/867/248
f 208/865/248 212/867/248 209/868/248
f 211/869/249 213/870/249 214/871/249
f 211/869/249 214/871/249 212/872/249
f 213/873/250 215/874/250 216/875/250
f 213/873/250 216/875/250 214/876/250
f 215/877/251 217/878/251 218/879/251
f 215/877/251 218/879/251 216/880/251
f 217/881/252 219/882/252 220/883/252
f 217/881/252 220/883/252 218/884/252
f 219/885/253 221/886/253 222/887/253
f 219/885/253 222/887/253 220/888/253
f 221/889/254 207/890/254 210/891/254
f 221/889/254 210/891/254 222/892/254
f 223/893/255 208/894/255 207/895/255
f 223/896/256 211/897/256 208/898/256
f 223/899/257 213/900/257 211/901/257
f 223/902/258 215/903/258 213/904/258
f 223/905/259 217/906/259 215/907/259
f 223/908/260 219/909/260 217/910/260
f 223/911/261 221/912/261 219/913/261
f 223/914/262 207/915/262 221/916/262
f 224/917/263 210/918/263 209/919/263
f 224/920/264 209/921/264 212/922/264
f 224/923/265 212/924/265 214/925/265
f 224/926/266 214/927/266 216/928/266
f 224/929/267 216/930/267 218/931/267
f 224/932/268 218/933/268 220/934/268
f 224/935/269 220/936/269 222/937/269
f 224/938/270 222/939/270 210/940/270
f 225/941/271 226/942/271 227/943/271
f 225/941/271 227/943/271 228/944/271
f 226/945/272 229/946/272 230/947/272
f 226/945/272 230/947/272 227/948/272
f 229/949/273 231/950/273 232/951/273
f 229/949/273 232/951/273 230/952/273
f 231/953/274 233/954/274 234/955/274
f 231/953/274 234/955/274 232/956/274
f 233/957/275 235/958/275 236/959/275
f 233/957/275 236/959/275 234/960/275
f 235/961/276 225/962/276 228/963/276
f 235/961/276 228/963/276 236/964/276
f 237/965/277 226/966/277 225/967/277
f 237/968/278 229/969/278 226/970/278
f 237/971/279 231/972/279 229/973/279
f 237/974/280 233/975/280 231/976/280
f 237/977/281 235/978/281 233/979/281
f 237/980/282 225/981/282 235/982/282
f 238/983/283 228/984/283 227/985/283
f 238/986/284 227/987/284 230/988/284
f 238/989/285 230/990/285 232/991/285
f 238/992/286 232/993/286 234/994/286
f 238/995/287 234/996/287 236/997/287
f 238/998/288 236/999/288 228/1000/288
f 239/1001/289 240/1002/289 241/1003/289
f 239/1001/289 241/1003/289 242/1004/289
f 240/1005/290 243/1006/290 244/1007/290
f 240/1005/290 244/1007/290 241/1008/290
f 243/1009/291 245/1010/291 246/1011/291
f 243/1009/291 246/1011/291 244/1012/291
f 245/1013/292 247/1014/292 248/1015/292
f 245/1013/292 248/1015/292 246/1016/292
f 247/1017/293 249/1018/293 250/1019/293
f 247/1017/293 250/1019/293 248/1020/293
f 249/1021/294 239/1022/294 242/1023/294
f 249/1021/294 242/1023/294 250/1024/294
f 238/1025/295 240/1026/295 239/1027/295
f 238/1028/296 243/1029/296 240/1030/296
f 238/1031/297 245/1032/297 243/1033/297
f 238/1034/298 247/1035/298 245/1036/298
f 238/1037/299 249/1038/299 247/1039/299
f 238/1040/300 239/1041/300 249/1042/300
f 251/1043/301 242/1044/301 241/1045/301
f 251/1046/302 241/1047/302 244/1048/302
f 251/1049/303 244/1050/303 246/1051/303
f 251/1052/304 246/1053/304 248/1054/304
f 251/1055/305 248/1056/305 250/1057/305
f 251/1058/306 250/1059/306 242/1060/306
f 252/1061/307 253/1062/307 254/1063/307
f 252/1061/307 254/1063/307 255/1064/307
f 253/1065/308 256/1066/308 257/1067/308
f 253/1065/308 257/1067/308 254/1068/308
f 256/1069/309 258/1070/309 259/1071/309
f 256/1069/309 259/1071/309 257/1072/309
f 258/1073/310 260/1074/310 261/1075/310
f 258/1073/310 261/1075/310 259/1076/310
f 260/1077/311 262/1078/311 263/1079/311
f 260/1077/311 263/1079/311 261/1080/311
f 262/1081/312 252/1082/312 255/1083/312
f 262/1081/312 255/1083/312 263/1084/312
f 251/1085/313 253/1086/313 252/1087/313
f 251/1088/314 256/1089/314 253/1090/314
f 251/1091/315 258/1092/315 256/1093/315
f 251/1094/316 260/1095/316 258/1096/316
f 251/1097/317 262/1098/317 260/1099/317
f 251/1100/318 252/1101/318 262/1102/318
f 264/1103/319 255/1104/319 254/1105/319
f 264/1106/320 254/1107/320 257/1108/320
f 264/1109/321 257/1110/321 259/1111/321
f 264/1112/322 259/1113/322 261/1114/322
f 264/1115/323 261/1116/323 263/1117/323
f 264/1118/324 263/1119/324 255/1120/324
f 265/1121/325 266/1122/325 267/1123/325
f 265/1121/325 267/1123/325 268/1124/325
f 266/1125/326 269/1126/326 270/1127/326
f 266/1125/326 270/1127/326 267/1128/326
f 269/1129/327 271/1130/327 272/1131/327
f 269/1129/327 272/1131/327 270/1132/327
f 271/1133/328 273/1134/328 274/1135/328
f 271/1133/328 274/1135/328 272/1136/328
f 273/1137/329 275/1138/329 276/1139/329
f 273/1137/329 276/1139/329 274/1140/329
f 275/1141/330 265/1142/330 268/1143/330
f 275/1141/330 268/1143/330 276/1144/330
f 264/1145/331 266/1146/331 265/1147/331
f 264/1148/332 269/1149/332 266/1150/332
f 264/1151/333 271/1152/333 269/1153/333
f 264/1154/334 273/1155/334 271/1156/334
f 264/1157/335 275/1158/335 273/1159/335
f 264/1160/336 265/1161/336 275/1162/336
f 277/1163/337 268/1164/337 267/1165/337
f 277/1166/338 267/1167/338 270/1168/338
f 277/1169/339 270/1170/339 272/1171/339
f 277/1172/340 272/1173/340 274/1174/340
f 277/1175/341 274/1176/341 276/1177/341
f 277/1178/342 276/1179/342 268/1180/342
f 278/1181/343 279/1182/343 280/1183/343
f 278/1181/343 280/1183/343 281/1184/343
f 279/1185/344 282/1186/344 283/1187/344
f 279/1185/344 283/1187/344 280/1188/344
f 282/1189/345 284/1190/345 285/1191/345
f 282/1189/345 285/1191/345 283/1192/345
f 284/1193/346 286/1194/346 287/1195/346
f 284/1193/346 287/1195/346 285/1196/346
f 286/1197/347 288/1198/347 289/1199/347
f 286/1197/347 289/1199/347 287/1200/347
f 288/1201/348 278/1202/348 281/1203/348
f 288/1201/348 281/1203/348 289/1204/348
f 277/1205/349 279/1206/349 278/1207/349
f 277/1208/350 282/1209/350 279/1210/350
f 277/1211/351 284/1212/351 282/1213/351
f 277/1214/352 286/1215/352 284/1216/352
f 277/1217/353 288/1218/353 286/1219/353
f 277/1220/354 278/1221/354 288/1222/354
f 290/1223/355 281/1224/355 280/1225/355
f 290/1226/356 280/1227/356 283/1228/356
f 290/1229/357 283/1230/357 285/1231/357
f 290/1232/358 285/1233/358 287/1234/358
f 290/1235/359 287/1236/359 289/1237/359
f 290/1238/360 289/1239/360 281/1240/360
f 291/1241/361 292/1242/361 293/1243/361
f 291/1241/361 293/1243/361 294/1244/361
f 292/1245/362 295/1246/362 296/1247/362
f 292/1245/362 296/1247/362 293/1248/362
f 295/1249/363 297/1250/363 298/1251/363
f 295/1249/363 298/1251/363 296/1252/363
f 297/1253/364 299/1254/364 300/1255/364
f 297/1253/364 300/1255/364 298/1256/364
f 299/1257/365 301/1258/365 302/1259/365
f 299/1257/365 302/1259/365 300/1260/365
f 301/1261/366 291/1262/366 294/1263/366
f 301/1261/366 294/1263/366 302/1264/366
f 290/1265/367 292/1266/367 291/1267/367
f 290/1268/368 295/1269/368 292/1270/368
f 290/1271/369 297/1272/369 295/1273/369
f 290/1274/370 299/1275/370 297/1276/370
f 290/1277/371 301/1278/371 299/1279/371
f 290/1280/372 291/1281/372 301/1282/372
f 303/1283/373 294/1284/373 293/1285/373
f 303/1286/374 293/1287/374 296/1288/374
f 303/1289/375 296/1290/375 298/1291/375
f 303/1292/376 298/1293/376 300/1294/376
f 303/1295/377 300/1296/377 302/1297/377
f 303/1298/378 302/1299/378 294/1300/378
f 304/1301/379 305/1302/379 306/1303/379
f 304/1301/379 306/1303/379 307/1304/379
f 305/1305/380 308/1306/380 309/1307/380
f 305/1305/380 309/1307/380 306/1308/380
f 308/1309/381 310/1310/381 311/1311/381
f 308/1309/381 311/1311/381 309/1312/381
f 310/1313/382 312/1314/382 313/1315/382
f 310/1313/382 313/1315/382 311/1316/382
f 312/1317/383 314/1318/383 315/1319/383
f 312/1317/383 315/1319/383 313/1320/383
f 314/1321/384 304/1322/384 307/1323/384
f 314/1321/384 307/1323/384 315/1324/384
f 303/1325/385 305/1326/385 304/1327/385
f 303/1328/386 308/1329/386 305/1330/386
f 303/1331/387 310/1332/387 308/1333/387
f 303/1334/388 312/1335/388 310/1336/388
f 303/1337/389 314/1338/389 312/1339/389
f 303/1340/390 304/1341/390 314/1342/390
f 316/1343/391 307/1344/391 306/1345/391
f 316/1346/392 306/1347/392 309/1348/392
f 316/1349/393 309/1350/393 311/1351/393
f 316/1352/394 311/1353/394 313/1354/394
f 316/1355/395 313/1356/395 315/1357/395
f 316/1358/396 315/1359/396 307/1360/396
f 317/1361/397 318/1362/397 319/1363/397
f 317/1361/397 319/1363/397 320/1364/397
f 318/1365/398 321/1366/398 322/1367/398
f 318/1365/398 322/1367/398 319/1368/398
f 321/1369/399 323/1370/399 324/1371/399
f 321/1369/399 324/1371/399 322/1372/399
f 323/1373/400 325/1374/400 326/1375/400
f 323/1373/400 326/1375/400 324/1376/400
f 325/1377/401 327/1378/401 328/1379/401
f 325/1377/401 328/1379/401 326/1380/401
f 327/1381/402 317/1382/402 320/1383/402
f 327/1381/402 320/1383/402 328/1384/402
f 316/1385/403 318/1386/403 317/1387/403
f 316/1388/404 321/1389/404 318/1390/404
f 316/1391/405 323/1392/405 321/1393/405
f 316/1394/406 325/1395/406 323/1396/406
f 316/1397/407 327/1398/407 325/1399/407
f 316/1400/408 317/1401/408 327/1402/408
f 237/1403/409 320/1404/409 319/1405/409
f 237/1406/410 319/1407/410 322/1408/410
f 237/1409/411 322/1410/411 324/1411/411
f 237/1412/412 324/1413/412 326/1414/412
f 237/1415/413 326/1416/413 328/1417/413
f 237/1418/414 328/1419/414 320/1420/414
f 329/1421/415 330/1422/415 331/1423/415
f 329/1421/415 331/1423/415 332/1424/415
f 333/1425/416 334/1426/416 335/1427/416
f 333/1425/416 335/1427/416 336/1428/416
f 329/1429/417 333/1430/417 336/1431/417
f 329/1429/417 336/1431/417 330/1432/417
f 332/1433/418 331/1434/418 335/1435/418
f 332/1433/418 335/1435/418 334/1436/418
f 329/1437/419 332/1438/419 334/1439/419
f 329/1437/419 334/1439/419 333/1440/419
f 330/1441/420 336/1442/420 335/1443/420
f 330/1441/420 335/1443/420 331/1444/420
f 337/1445/421 338/1446/421 339/1447/421
f 337/1445/421 339/1447/421 340/1448/421
f 338/1449/422 341/1450/422 342/1451/422
f 338/1449/422 342/1451/422 339/1452/422
f 341/1453/423 343/1454/423 344/1455/423
f 341/1453/423 344/1455/423 342/1456/423
f 343/1457/424 345/1458/424 346/1459/424
f 343/1457/424 346/1459/424 344/1460/424
f 345/1461/425 347/1462/425 348/1463/425
f 345/1461/425 348/1463/425 346/1464/425
f 347/1465/426 349/1466/426 350/1467/426
f 347/1465/426 350/1467/426 348/1468/426
f 349/1469/427 351/1470/427 352/1471/427
f 349/1469/427 352/1471/427 350/1472/427
f 351/1473/428 353/1474/428 354/1475/428
f 351/1473/428 354/1475/428 352/1476/428
f 353/1477/429 355/1478/429 356/1479/429
f 353/1477/429 356/1479/429 354/1480/429
f 355/1481/430 337/1482/430 340/1483/430
f 355/1481/430 340/1483/430 356/1484/430
f 357/1485/431 338/1486/431 337/1487/431
f 357/1488/432 341/1489/432 338/1490/432
f 357/1491/433 343/1492/433 341/1493/433
f 357/1494/434 345/1495/434 343/1496/434
f 357/1497/435 347/1498/435 345/1499/435
f 357/1500/436 349/1501/436 347/1502/436
f 357/1503/437 351/1504/437 349/1505/437
f 357/1506/438 353/1507/438 351/1508/438
f 357/1509/439 355/1510/439 353/1511/439
f 357/1512/440 337/1513/440 355/1514/440
f 358/1515/441 340/1516/441 339/1517/441
f 358/1518/442 339/1519/442 342/1520/442
f 358/1521/443 342/1522/443 344/1523/443
f 358/1524/444 344/1525/444 346/1526/444
f 358/1527/445 346/1528/445 348/1529/445
f 358/1530/446 348/1531/446 350/1532/446
f 358/1533/447 350/1534/447 352/1535/447
f 358/1536/448 352/1537/448 354/1538/448
f 358/1539/449 354/1540/449 356/1541/449
f 358/1542/450 356/1543/450 340/1544/450
f 359/1545/451 360/1546/451 361/1547/451
f 359/1545/451 361/1547/451 362/1548/451
f 363/1549/452 364/1550/452 365/1551/452
f 363/1549/452 365/1551/452 366/1552/452
f 359/1553/453 363/1554/453 366/1555/453
f 359/1553/453 366/1555/453 360/1556/453
f 362/1557/454 361/1558/454 365/1559/454
f 362/1557/454 365/1559/454 364/1560/454
f 359/1561/455 362/1562/455 364/1563/455
f 359/1561/455 364/1563/455 363/1564/455
f 360/1565/456 366/1566/456 365/1567/456
f 360/1565/456 365/1567/456 361/1568/456
f 367/1569/457 368/1570/457 369/1571/457
f 367/1569/457 369/1571/457 370/1572/457
f 371/1573/458 372/1574/458 373/1575/458
f 371/1573/458 373/1575/458 374/1576/458
f 367/1577/459 371/1578/459 374/1579/459
f 367/1577/459 374/1579/459 368/1580/459
f 370/1581/460 369/1582/460 373/1583/460
f 370/1581/460 373/1583/460 372/1584/460
f 367/1585/461 370/1586/461 372/1587/461
f 367/1585/461 372/1587/461 371/1588/461
f 368/1589/462 374/1590/462 373/1591/462
f 368/1589/462 373/1591/462 369/1592/462
f 375/1593/463 376/1594/463 377/1595/463
f 375/1593/463 377/1595/463 378/1596/463
f 379/1597/464 380/1598/464 381/1599/464
f 379/1597/464 381/1599/464 382/1600/464
f 375/1601/465 379/1602/465 382/1603/465
f 375/1601/465 382/1603/465 376/1604/465
f 378/1605/466 377/1606/466 381/1607/466
f 378/1605/466 381/1607/466 380/1608/466
f 375/1609/467 378/1610/467 380/1611/467
f 375/1609/467 380/1611/467 379/1612/467
f 376/1613/468 382/1614/468 381/1615/468
f 376/1613/468 381/1615/468 377/1616/468
f 383/1617/469 384/1618/469 385/1619/469
f 383/1617/469 385/1619/469 386/1620/469
f 387/1621/470 388/1622/470 389/1623/470
f 387/1621/470 389/1623/470 390/1624/470
f 383/1625/471 387/1626/471 390/1627/471
f 383/1625/471 390/1627/471 384/1628/471
f 386/1629/472 385/1630/472 389/1631/472
f 386/1629/472 389/1631/472 388/1632/472
f 383/1633/473 386/1634/473 388/1635/473
f 383/1633/473 388/1635/473 387/1636/473
f 384/1637/474 390/1638/474 389/1639/474
f 384/1637/474 389/1639/474 385/1640/474
