mtllib TorusAgri_VegetablesA.mtl
o TorusAgri_VegetablesA
usemtl TorusAgricultureKit
s off
v -0.450000 0.000000 -0.325000
v 0.450000 0.000000 -0.325000
v 0.450000 0.017500 -0.325000
v -0.450000 0.017500 -0.325000
v -0.450000 0.000000 0.325000
v 0.450000 0.000000 0.325000
v 0.450000 0.017500 0.325000
v -0.450000 0.017500 0.325000
v -0.412500 0.017500 -0.287500
v 0.412500 0.017500 -0.287500
v 0.412500 0.037500 -0.287500
v -0.412500 0.037500 -0.287500
v -0.412500 0.017500 0.287500
v 0.412500 0.017500 0.287500
v 0.412500 0.037500 0.287500
v -0.412500 0.037500 0.287500
v -0.427500 0.017500 -0.302500
v 0.427500 0.017500 -0.302500
v 0.427500 0.052500 -0.302500
v -0.427500 0.052500 -0.302500
v -0.427500 0.017500 -0.272500
v 0.427500 0.017500 -0.272500
v 0.427500 0.052500 -0.272500
v -0.427500 0.052500 -0.272500
v -0.427500 0.017500 0.272500
v 0.427500 0.017500 0.272500
v 0.427500 0.052500 0.272500
v -0.427500 0.052500 0.272500
v -0.427500 0.017500 0.302500
v 0.427500 0.017500 0.302500
v 0.427500 0.052500 0.302500
v -0.427500 0.052500 0.302500
v -0.397500 0.017500 -0.272500
v -0.397500 0.052500 -0.272500
v -0.397500 0.017500 0.272500
v -0.397500 0.052500 0.272500
v 0.397500 0.017500 -0.272500
v 0.397500 0.052500 -0.272500
v 0.397500 0.017500 0.272500
v 0.397500 0.052500 0.272500
v -0.295000 0.117500 -0.180000
v -0.350000 0.077500 -0.180000
v -0.295000 0.077500 -0.125000
v -0.295000 0.037500 -0.180000
v -0.240000 0.077500 -0.180000
v -0.295000 0.077500 -0.235000
v -0.230000 0.117500 -0.180000
v -0.285000 0.077500 -0.180000
v -0.230000 0.077500 -0.125000
v -0.230000 0.037500 -0.180000
v -0.175000 0.077500 -0.180000
v -0.230000 0.077500 -0.235000
v -0.262500 0.117500 -0.212500
v -0.317500 0.077500 -0.212500
v -0.262500 0.077500 -0.157500
v -0.262500 0.037500 -0.212500
v -0.207500 0.077500 -0.212500
v -0.262500 0.077500 -0.267500
v -0.262500 0.117500 -0.147500
v -0.317500 0.077500 -0.147500
v -0.262500 0.077500 -0.092500
v -0.262500 0.037500 -0.147500
v -0.207500 0.077500 -0.147500
v -0.262500 0.077500 -0.202500
v -0.262500 0.147500 -0.180000
v -0.302500 0.112500 -0.180000
v -0.262500 0.112500 -0.140000
v -0.262500 0.077500 -0.180000
v -0.222500 0.112500 -0.180000
v -0.262500 0.112500 -0.220000
v -0.295000 0.117500 0.000000
v -0.350000 0.077500 0.000000
v -0.295000 0.077500 0.055000
v -0.295000 0.037500 0.000000
v -0.240000 0.077500 0.000000
v -0.295000 0.077500 -0.055000
v -0.230000 0.117500 0.000000
v -0.285000 0.077500 0.000000
v -0.230000 0.077500 0.055000
v -0.230000 0.037500 0.000000
v -0.175000 0.077500 0.000000
v -0.230000 0.077500 -0.055000
v -0.262500 0.117500 -0.032500
v -0.317500 0.077500 -0.032500
v -0.262500 0.077500 0.022500
v -0.262500 0.037500 -0.032500
v -0.207500 0.077500 -0.032500
v -0.262500 0.077500 -0.087500
v -0.262500 0.117500 0.032500
v -0.317500 0.077500 0.032500
v -0.262500 0.077500 0.087500
v -0.262500 0.037500 0.032500
v -0.207500 0.077500 0.032500
v -0.262500 0.077500 -0.022500
v -0.262500 0.147500 0.000000
v -0.302500 0.112500 0.000000
v -0.262500 0.112500 0.040000
v -0.262500 0.077500 0.000000
v -0.222500 0.112500 0.000000
v -0.262500 0.112500 -0.040000
v -0.295000 0.117500 0.180000
v -0.350000 0.077500 0.180000
v -0.295000 0.077500 0.235000
v -0.295000 0.037500 0.180000
v -0.240000 0.077500 0.180000
v -0.295000 0.077500 0.125000
v -0.230000 0.117500 0.180000
v -0.285000 0.077500 0.180000
v -0.230000 0.077500 0.235000
v -0.230000 0.037500 0.180000
v -0.175000 0.077500 0.180000
v -0.230000 0.077500 0.125000
v -0.262500 0.117500 0.147500
v -0.317500 0.077500 0.147500
v -0.262500 0.077500 0.202500
v -0.262500 0.037500 0.147500
v -0.207500 0.077500 0.147500
v -0.262500 0.077500 0.092500
v -0.262500 0.117500 0.212500
v -0.317500 0.077500 0.212500
v -0.262500 0.077500 0.267500
v -0.262500 0.037500 0.212500
v -0.207500 0.077500 0.212500
v -0.262500 0.077500 0.157500
v -0.262500 0.147500 0.180000
v -0.302500 0.112500 0.180000
v -0.262500 0.112500 0.220000
v -0.262500 0.077500 0.180000
v -0.222500 0.112500 0.180000
v -0.262500 0.112500 0.140000
v -0.120000 0.117500 -0.180000
v -0.120000 0.077500 -0.125000
v -0.120000 0.037500 -0.180000
v -0.065000 0.077500 -0.180000
v -0.120000 0.077500 -0.235000
v -0.055000 0.117500 -0.180000
v -0.110000 0.077500 -0.180000
v -0.055000 0.077500 -0.125000
v -0.055000 0.037500 -0.180000
v 0.000000 0.077500 -0.180000
v -0.055000 0.077500 -0.235000
v -0.087500 0.117500 -0.212500
v -0.142500 0.077500 -0.212500
v -0.087500 0.077500 -0.157500
v -0.087500 0.037500 -0.212500
v -0.032500 0.077500 -0.212500
v -0.087500 0.077500 -0.267500
v -0.087500 0.117500 -0.147500
v -0.142500 0.077500 -0.147500
v -0.087500 0.077500 -0.092500
v -0.087500 0.037500 -0.147500
v -0.032500 0.077500 -0.147500
v -0.087500 0.077500 -0.202500
v -0.087500 0.147500 -0.180000
v -0.127500 0.112500 -0.180000
v -0.087500 0.112500 -0.140000
v -0.087500 0.077500 -0.180000
v -0.047500 0.112500 -0.180000
v -0.087500 0.112500 -0.220000
v -0.120000 0.117500 0.000000
v -0.120000 0.077500 0.055000
v -0.120000 0.037500 0.000000
v -0.065000 0.077500 0.000000
v -0.120000 0.077500 -0.055000
v -0.055000 0.117500 0.000000
v -0.110000 0.077500 0.000000
v -0.055000 0.077500 0.055000
v -0.055000 0.037500 0.000000
v 0.000000 0.077500 0.000000
v -0.055000 0.077500 -0.055000
v -0.087500 0.117500 -0.032500
v -0.142500 0.077500 -0.032500
v -0.087500 0.077500 0.022500
v -0.087500 0.037500 -0.032500
v -0.032500 0.077500 -0.032500
v -0.087500 0.077500 -0.087500
v -0.087500 0.117500 0.032500
v -0.142500 0.077500 0.032500
v -0.087500 0.077500 0.087500
v -0.087500 0.037500 0.032500
v -0.032500 0.077500 0.032500
v -0.087500 0.077500 -0.022500
v -0.087500 0.147500 0.000000
v -0.127500 0.112500 0.000000
v -0.087500 0.112500 0.040000
v -0.087500 0.077500 0.000000
v -0.047500 0.112500 0.000000
v -0.087500 0.112500 -0.040000
v -0.120000 0.117500 0.180000
v -0.120000 0.077500 0.235000
v -0.120000 0.037500 0.180000
v -0.065000 0.077500 0.180000
v -0.120000 0.077500 0.125000
v -0.055000 0.117500 0.180000
v -0.110000 0.077500 0.180000
v -0.055000 0.077500 0.235000
v -0.055000 0.037500 0.180000
v 0.000000 0.077500 0.180000
v -0.055000 0.077500 0.125000
v -0.087500 0.117500 0.147500
v -0.142500 0.077500 0.147500
v -0.087500 0.077500 0.202500
v -0.087500 0.037500 0.147500
v -0.032500 0.077500 0.147500
v -0.087500 0.077500 0.092500
v -0.087500 0.117500 0.212500
v -0.142500 0.077500 0.212500
v -0.087500 0.077500 0.267500
v -0.087500 0.037500 0.212500
v -0.032500 0.077500 0.212500
v -0.087500 0.077500 0.157500
v -0.087500 0.147500 0.180000
v -0.127500 0.112500 0.180000
v -0.087500 0.112500 0.220000
v -0.087500 0.077500 0.180000
v -0.047500 0.112500 0.180000
v -0.087500 0.112500 0.140000
v 0.055000 0.117500 -0.180000
v 0.055000 0.077500 -0.125000
v 0.055000 0.037500 -0.180000
v 0.110000 0.077500 -0.180000
v 0.055000 0.077500 -0.235000
v 0.120000 0.117500 -0.180000
v 0.065000 0.077500 -0.180000
v 0.120000 0.077500 -0.125000
v 0.120000 0.037500 -0.180000
v 0.175000 0.077500 -0.180000
v 0.120000 0.077500 -0.235000
v 0.087500 0.117500 -0.212500
v 0.032500 0.077500 -0.212500
v 0.087500 0.077500 -0.157500
v 0.087500 0.037500 -0.212500
v 0.142500 0.077500 -0.212500
v 0.087500 0.077500 -0.267500
v 0.087500 0.117500 -0.147500
v 0.032500 0.077500 -0.147500
v 0.087500 0.077500 -0.092500
v 0.087500 0.037500 -0.147500
v 0.142500 0.077500 -0.147500
v 0.087500 0.077500 -0.202500
v 0.087500 0.147500 -0.180000
v 0.047500 0.112500 -0.180000
v 0.087500 0.112500 -0.140000
v 0.087500 0.077500 -0.180000
v 0.127500 0.112500 -0.180000
v 0.087500 0.112500 -0.220000
v 0.055000 0.117500 0.000000
v 0.055000 0.077500 0.055000
v 0.055000 0.037500 0.000000
v 0.110000 0.077500 0.000000
v 0.055000 0.077500 -0.055000
v 0.120000 0.117500 0.000000
v 0.065000 0.077500 0.000000
v 0.120000 0.077500 0.055000
v 0.120000 0.037500 0.000000
v 0.175000 0.077500 0.000000
v 0.120000 0.077500 -0.055000
v 0.087500 0.117500 -0.032500
v 0.032500 0.077500 -0.032500
v 0.087500 0.077500 0.022500
v 0.087500 0.037500 -0.032500
v 0.142500 0.077500 -0.032500
v 0.087500 0.077500 -0.087500
v 0.087500 0.117500 0.032500
v 0.032500 0.077500 0.032500
v 0.087500 0.077500 0.087500
v 0.087500 0.037500 0.032500
v 0.142500 0.077500 0.032500
v 0.087500 0.077500 -0.022500
v 0.087500 0.147500 0.000000
v 0.047500 0.112500 0.000000
v 0.087500 0.112500 0.040000
v 0.087500 0.077500 0.000000
v 0.127500 0.112500 0.000000
v 0.087500 0.112500 -0.040000
v 0.055000 0.117500 0.180000
v 0.055000 0.077500 0.235000
v 0.055000 0.037500 0.180000
v 0.110000 0.077500 0.180000
v 0.055000 0.077500 0.125000
v 0.120000 0.117500 0.180000
v 0.065000 0.077500 0.180000
v 0.120000 0.077500 0.235000
v 0.120000 0.037500 0.180000
v 0.175000 0.077500 0.180000
v 0.120000 0.077500 0.125000
v 0.087500 0.117500 0.147500
v 0.032500 0.077500 0.147500
v 0.087500 0.077500 0.202500
v 0.087500 0.037500 0.147500
v 0.142500 0.077500 0.147500
v 0.087500 0.077500 0.092500
v 0.087500 0.117500 0.212500
v 0.032500 0.077500 0.212500
v 0.087500 0.077500 0.267500
v 0.087500 0.037500 0.212500
v 0.142500 0.077500 0.212500
v 0.087500 0.077500 0.157500
v 0.087500 0.147500 0.180000
v 0.047500 0.112500 0.180000
v 0.087500 0.112500 0.220000
v 0.087500 0.077500 0.180000
v 0.127500 0.112500 0.180000
v 0.087500 0.112500 0.140000
v 0.230000 0.117500 -0.180000
v 0.230000 0.077500 -0.125000
v 0.230000 0.037500 -0.180000
v 0.285000 0.077500 -0.180000
v 0.230000 0.077500 -0.235000
v 0.295000 0.117500 -0.180000
v 0.240000 0.077500 -0.180000
v 0.295000 0.077500 -0.125000
v 0.295000 0.037500 -0.180000
v 0.350000 0.077500 -0.180000
v 0.295000 0.077500 -0.235000
v 0.262500 0.117500 -0.212500
v 0.207500 0.077500 -0.212500
v 0.262500 0.077500 -0.157500
v 0.262500 0.037500 -0.212500
v 0.317500 0.077500 -0.212500
v 0.262500 0.077500 -0.267500
v 0.262500 0.117500 -0.147500
v 0.207500 0.077500 -0.147500
v 0.262500 0.077500 -0.092500
v 0.262500 0.037500 -0.147500
v 0.317500 0.077500 -0.147500
v 0.262500 0.077500 -0.202500
v 0.262500 0.147500 -0.180000
v 0.222500 0.112500 -0.180000
v 0.262500 0.112500 -0.140000
v 0.262500 0.077500 -0.180000
v 0.302500 0.112500 -0.180000
v 0.262500 0.112500 -0.220000
v 0.230000 0.117500 0.000000
v 0.230000 0.077500 0.055000
v 0.230000 0.037500 0.000000
v 0.285000 0.077500 0.000000
v 0.230000 0.077500 -0.055000
v 0.295000 0.117500 0.000000
v 0.240000 0.077500 0.000000
v 0.295000 0.077500 0.055000
v 0.295000 0.037500 0.000000
v 0.350000 0.077500 0.000000
v 0.295000 0.077500 -0.055000
v 0.262500 0.117500 -0.032500
v 0.207500 0.077500 -0.032500
v 0.262500 0.077500 0.022500
v 0.262500 0.037500 -0.032500
v 0.317500 0.077500 -0.032500
v 0.262500 0.077500 -0.087500
v 0.262500 0.117500 0.032500
v 0.207500 0.077500 0.032500
v 0.262500 0.077500 0.087500
v 0.262500 0.037500 0.032500
v 0.317500 0.077500 0.032500
v 0.262500 0.077500 -0.022500
v 0.262500 0.147500 0.000000
v 0.222500 0.112500 0.000000
v 0.262500 0.112500 0.040000
v 0.262500 0.077500 0.000000
v 0.302500 0.112500 0.000000
v 0.262500 0.112500 -0.040000
v 0.230000 0.117500 0.180000
v 0.230000 0.077500 0.235000
v 0.230000 0.037500 0.180000
v 0.285000 0.077500 0.180000
v 0.230000 0.077500 0.125000
v 0.295000 0.117500 0.180000
v 0.240000 0.077500 0.180000
v 0.295000 0.077500 0.235000
v 0.295000 0.037500 0.180000
v 0.350000 0.077500 0.180000
v 0.295000 0.077500 0.125000
v 0.262500 0.117500 0.147500
v 0.207500 0.077500 0.147500
v 0.262500 0.077500 0.202500
v 0.262500 0.037500 0.147500
v 0.317500 0.077500 0.147500
v 0.262500 0.077500 0.092500
v 0.262500 0.117500 0.212500
v 0.207500 0.077500 0.212500
v 0.262500 0.077500 0.267500
v 0.262500 0.037500 0.212500
v 0.317500 0.077500 0.212500
v 0.262500 0.077500 0.157500
v 0.262500 0.147500 0.180000
v 0.222500 0.112500 0.180000
v 0.262500 0.112500 0.220000
v 0.262500 0.077500 0.180000
v 0.302500 0.112500 0.180000
v 0.262500 0.112500 0.140000
vt 0.765625 0.015625
vt 0.984375 0.015625
vt 0.984375 0.234375
vt 0.765625 0.234375
vt 0.765625 0.015625
vt 0.984375 0.015625
vt 0.984375 0.234375
vt 0.765625 0.234375
vt 0.765625 0.015625
vt 0.984375 0.015625
vt 0.984375 0.234375
vt 0.765625 0.234375
vt 0.765625 0.015625
vt 0.984375 0.015625
vt 0.984375 0.234375
vt 0.765625 0.234375
vt 0.765625 0.015625
vt 0.984375 0.015625
vt 0.984375 0.234375
vt 0.765625 0.234375
vt 0.765625 0.015625
vt 0.984375 0.015625
vt 0.984375 0.234375
vt 0.765625 0.234375
vt 0.515625 0.515625
vt 0.734375 0.515625
vt 0.734375 0.734375
vt 0.515625 0.734375
vt 0.515625 0.515625
vt 0.734375 0.515625
vt 0.734375 0.734375
vt 0.515625 0.734375
vt 0.515625 0.515625
vt 0.734375 0.515625
vt 0.734375 0.734375
vt 0.515625 0.734375
vt 0.515625 0.515625
vt 0.734375 0.515625
vt 0.734375 0.734375
vt 0.515625 0.734375
vt 0.515625 0.515625
vt 0.734375 0.515625
vt 0.734375 0.734375
vt 0.515625 0.734375
vt 0.515625 0.515625
vt 0.734375 0.515625
vt 0.734375 0.734375
vt 0.515625 0.734375
vt 0.015625 0.765625
vt 0.234375 0.765625
vt 0.234375 0.984375
vt 0.015625 0.984375
vt 0.015625 0.765625
vt 0.234375 0.765625
vt 0.234375 0.984375
vt 0.015625 0.984375
vt 0.015625 0.765625
vt 0.234375 0.765625
vt 0.234375 0.984375
vt 0.015625 0.984375
vt 0.015625 0.765625
vt 0.234375 0.765625
vt 0.234375 0.984375
vt 0.015625 0.984375
vt 0.015625 0.765625
vt 0.234375 0.765625
vt 0.234375 0.984375
vt 0.015625 0.984375
vt 0.015625 0.765625
vt 0.234375 0.765625
vt 0.234375 0.984375
vt 0.015625 0.984375
vt 0.015625 0.765625
vt 0.234375 0.765625
vt 0.234375 0.984375
vt 0.015625 0.984375
vt 0.015625 0.765625
vt 0.234375 0.765625
vt 0.234375 0.984375
vt 0.015625 0.984375
vt 0.015625 0.765625
vt 0.234375 0.765625
vt 0.234375 0.984375
vt 0.015625 0.984375
vt 0.015625 0.765625
vt 0.234375 0.765625
vt 0.234375 0.984375
vt 0.015625 0.984375
vt 0.015625 0.765625
vt 0.234375 0.765625
vt 0.234375 0.984375
vt 0.015625 0.984375
vt 0.015625 0.765625
vt 0.234375 0.765625
vt 0.234375 0.984375
vt 0.015625 0.984375
vt 0.015625 0.765625
vt 0.234375 0.765625
vt 0.234375 0.984375
vt 0.015625 0.984375
vt 0.015625 0.765625
vt 0.234375 0.765625
vt 0.234375 0.984375
vt 0.015625 0.984375
vt 0.015625 0.765625
vt 0.234375 0.765625
vt 0.234375 0.984375
vt 0.015625 0.984375
vt 0.015625 0.765625
vt 0.234375 0.765625
vt 0.234375 0.984375
vt 0.015625 0.984375
vt 0.015625 0.765625
vt 0.234375 0.765625
vt 0.234375 0.984375
vt 0.015625 0.984375
vt 0.015625 0.765625
vt 0.234375 0.765625
vt 0.234375 0.984375
vt 0.015625 0.984375
vt 0.015625 0.765625
vt 0.234375 0.765625
vt 0.234375 0.984375
vt 0.015625 0.984375
vt 0.015625 0.765625
vt 0.234375 0.765625
vt 0.234375 0.984375
vt 0.015625 0.984375
vt 0.015625 0.765625
vt 0.234375 0.765625
vt 0.234375 0.984375
vt 0.015625 0.984375
vt 0.015625 0.765625
vt 0.234375 0.765625
vt 0.234375 0.984375
vt 0.015625 0.984375
vt 0.015625 0.765625
vt 0.234375 0.765625
vt 0.234375 0.984375
vt 0.015625 0.984375
vt 0.015625 0.765625
vt 0.234375 0.765625
vt 0.234375 0.984375
vt 0.015625 0.984375
vt 0.265625 0.515625
vt 0.484375 0.515625
vt 0.484375 0.734375
vt 0.265625 0.515625
vt 0.484375 0.515625
vt 0.484375 0.734375
vt 0.265625 0.515625
vt 0.484375 0.515625
vt 0.484375 0.734375
vt 0.265625 0.515625
vt 0.484375 0.515625
vt 0.484375 0.734375
vt 0.265625 0.515625
vt 0.484375 0.515625
vt 0.484375 0.734375
vt 0.265625 0.515625
vt 0.484375 0.515625
vt 0.484375 0.734375
vt 0.265625 0.515625
vt 0.484375 0.515625
vt 0.484375 0.734375
vt 0.265625 0.515625
vt 0.484375 0.515625
vt 0.484375 0.734375
vt 0.265625 0.515625
vt 0.484375 0.515625
vt 0.484375 0.734375
vt 0.265625 0.515625
vt 0.484375 0.515625
vt 0.484375 0.734375
vt 0.265625 0.515625
vt 0.484375 0.515625
vt 0.484375 0.734375
vt 0.265625 0.515625
vt 0.484375 0.515625
vt 0.484375 0.734375
vt 0.265625 0.515625
vt 0.484375 0.515625
vt 0.484375 0.734375
vt 0.265625 0.515625
vt 0.484375 0.515625
vt 0.484375 0.734375
vt 0.265625 0.515625
vt 0.484375 0.515625
vt 0.484375 0.734375
vt 0.265625 0.515625
vt 0.484375 0.515625
vt 0.484375 0.734375
vt 0.015625 0.515625
vt 0.234375 0.515625
vt 0.234375 0.734375
vt 0.015625 0.515625
vt 0.234375 0.515625
vt 0.234375 0.734375
vt 0.015625 0.515625
vt 0.234375 0.515625
vt 0.234375 0.734375
vt 0.015625 0.515625
vt 0.234375 0.515625
vt 0.234375 0.734375
vt 0.015625 0.515625
vt 0.234375 0.515625
vt 0.234375 0.734375
vt 0.015625 0.515625
vt 0.234375 0.515625
vt 0.234375 0.734375
vt 0.015625 0.515625
vt 0.234375 0.515625
vt 0.234375 0.734375
vt 0.015625 0.515625
vt 0.234375 0.515625
vt 0.234375 0.734375
vt 0.015625 0.515625
vt 0.234375 0.515625
vt 0.234375 0.734375
vt 0.015625 0.515625
vt 0.234375 0.515625
vt 0.234375 0.734375
vt 0.015625 0.515625
vt 0.234375 0.515625
vt 0.234375 0.734375
vt 0.015625 0.515625
vt 0.234375 0.515625
vt 0.234375 0.734375
vt 0.015625 0.515625
vt 0.234375 0.515625
vt 0.234375 0.734375
vt 0.015625 0.515625
vt 0.234375 0.515625
vt 0.234375 0.734375
vt 0.015625 0.515625
vt 0.234375 0.515625
vt 0.234375 0.734375
vt 0.015625 0.515625
vt 0.234375 0.515625
vt 0.234375 0.734375
vt 0.265625 0.265625
vt 0.484375 0.265625
vt 0.484375 0.484375
vt 0.265625 0.265625
vt 0.484375 0.265625
vt 0.484375 0.484375
vt 0.265625 0.265625
vt 0.484375 0.265625
vt 0.484375 0.484375
vt 0.265625 0.265625
vt 0.484375 0.265625
vt 0.484375 0.484375
vt 0.265625 0.265625
vt 0.484375 0.265625
vt 0.484375 0.484375
vt 0.265625 0.265625
vt 0.484375 0.265625
vt 0.484375 0.484375
vt 0.265625 0.265625
vt 0.484375 0.265625
vt 0.484375 0.484375
vt 0.265625 0.265625
vt 0.484375 0.265625
vt 0.484375 0.484375
vt 0.265625 0.515625
vt 0.484375 0.515625
vt 0.484375 0.734375
vt 0.265625 0.515625
vt 0.484375 0.515625
vt 0.484375 0.734375
vt 0.265625 0.515625
vt 0.484375 0.515625
vt 0.484375 0.734375
vt 0.265625 0.515625
vt 0.484375 0.515625
vt 0.484375 0.734375
vt 0.265625 0.515625
vt 0.484375 0.515625
vt 0.484375 0.734375
vt 0.265625 0.515625
vt 0.484375 0.515625
vt 0.484375 0.734375
vt 0.265625 0.515625
vt 0.484375 0.515625
vt 0.484375 0.734375
vt 0.265625 0.515625
vt 0.484375 0.515625
vt 0.484375 0.734375
vt 0.265625 0.515625
vt 0.484375 0.515625
vt 0.484375 0.734375
vt 0.265625 0.515625
vt 0.484375 0.515625
vt 0.484375 0.734375
vt 0.265625 0.515625
vt 0.484375 0.515625
vt 0.484375 0.734375
vt 0.265625 0.515625
vt 0.484375 0.515625
vt 0.484375 0.734375
vt 0.265625 0.515625
vt 0.484375 0.515625
vt 0.484375 0.734375
vt 0.265625 0.515625
vt 0.484375 0.515625
vt 0.484375 0.734375
vt 0.265625 0.515625
vt 0.484375 0.515625
vt 0.484375 0.734375
vt 0.265625 0.515625
vt 0.484375 0.515625
vt 0.484375 0.734375
vt 0.015625 0.515625
vt 0.234375 0.515625
vt 0.234375 0.734375
vt 0.015625 0.515625
vt 0.234375 0.515625
vt 0.234375 0.734375
vt 0.015625 0.515625
vt 0.234375 0.515625
vt 0.234375 0.734375
vt 0.015625 0.515625
vt 0.234375 0.515625
vt 0.234375 0.734375
vt 0.015625 0.515625
vt 0.234375 0.515625
vt 0.234375 0.734375
vt 0.015625 0.515625
vt 0.234375 0.515625
vt 0.234375 0.734375
vt 0.015625 0.515625
vt 0.234375 0.515625
vt 0.234375 0.734375
vt 0.015625 0.515625
vt 0.234375 0.515625
vt 0.234375 0.734375
vt 0.015625 0.515625
vt 0.234375 0.515625
vt 0.234375 0.734375
vt 0.015625 0.515625
vt 0.234375 0.515625
vt 0.234375 0.734375
vt 0.015625 0.515625
vt 0.234375 0.515625
vt 0.234375 0.734375
vt 0.015625 0.515625
vt 0.234375 0.515625
vt 0.234375 0.734375
vt 0.015625 0.515625
vt 0.234375 0.515625
vt 0.234375 0.734375
vt 0.015625 0.515625
vt 0.234375 0.515625
vt 0.234375 0.734375
vt 0.015625 0.515625
vt 0.234375 0.515625
vt 0.234375 0.734375
vt 0.015625 0.515625
vt 0.234375 0.515625
vt 0.234375 0.734375
vt 0.265625 0.265625
vt 0.484375 0.265625
vt 0.484375 0.484375
vt 0.265625 0.265625
vt 0.484375 0.265625
vt 0.484375 0.484375
vt 0.265625 0.265625
vt 0.484375 0.265625
vt 0.484375 0.484375
vt 0.265625 0.265625
vt 0.484375 0.265625
vt 0.484375 0.484375
vt 0.265625 0.265625
vt 0.484375 0.265625
vt 0.484375 0.484375
vt 0.265625 0.265625
vt 0.484375 0.265625
vt 0.484375 0.484375
vt 0.265625 0.265625
vt 0.484375 0.265625
vt 0.484375 0.484375
vt 0.265625 0.265625
vt 0.484375 0.265625
vt 0.484375 0.484375
vt 0.265625 0.515625
vt 0.484375 0.515625
vt 0.484375 0.734375
vt 0.265625 0.515625
vt 0.484375 0.515625
vt 0.484375 0.734375
vt 0.265625 0.515625
vt 0.484375 0.515625
vt 0.484375 0.734375
vt 0.265625 0.515625
vt 0.484375 0.515625
vt 0.484375 0.734375
vt 0.265625 0.515625
vt 0.484375 0.515625
vt 0.484375 0.734375
vt 0.265625 0.515625
vt 0.484375 0.515625
vt 0.484375 0.734375
vt 0.265625 0.515625
vt 0.484375 0.515625
vt 0.484375 0.734375
vt 0.265625 0.515625
vt 0.484375 0.515625
vt 0.484375 0.734375
vt 0.265625 0.515625
vt 0.484375 0.515625
vt 0.484375 0.734375
vt 0.265625 0.515625
vt 0.484375 0.515625
vt 0.484375 0.734375
vt 0.265625 0.515625
vt 0.484375 0.515625
vt 0.484375 0.734375
vt 0.265625 0.515625
vt 0.484375 0.515625
vt 0.484375 0.734375
vt 0.265625 0.515625
vt 0.484375 0.515625
vt 0.484375 0.734375
vt 0.265625 0.515625
vt 0.484375 0.515625
vt 0.484375 0.734375
vt 0.265625 0.515625
vt 0.484375 0.515625
vt 0.484375 0.734375
vt 0.265625 0.515625
vt 0.484375 0.515625
vt 0.484375 0.734375
vt 0.015625 0.515625
vt 0.234375 0.515625
vt 0.234375 0.734375
vt 0.015625 0.515625
vt 0.234375 0.515625
vt 0.234375 0.734375
vt 0.015625 0.515625
vt 0.234375 0.515625
vt 0.234375 0.734375
vt 0.015625 0.515625
vt 0.234375 0.515625
vt 0.234375 0.734375
vt 0.015625 0.515625
vt 0.234375 0.515625
vt 0.234375 0.734375
vt 0.015625 0.515625
vt 0.234375 0.515625
vt 0.234375 0.734375
vt 0.015625 0.515625
vt 0.234375 0.515625
vt 0.234375 0.734375
vt 0.015625 0.515625
vt 0.234375 0.515625
vt 0.234375 0.734375
vt 0.015625 0.515625
vt 0.234375 0.515625
vt 0.234375 0.734375
vt 0.015625 0.515625
vt 0.234375 0.515625
vt 0.234375 0.734375
vt 0.015625 0.515625
vt 0.234375 0.515625
vt 0.234375 0.734375
vt 0.015625 0.515625
vt 0.234375 0.515625
vt 0.234375 0.734375
vt 0.015625 0.515625
vt 0.234375 0.515625
vt 0.234375 0.734375
vt 0.015625 0.515625
vt 0.234375 0.515625
vt 0.234375 0.734375
vt 0.015625 0.515625
vt 0.234375 0.515625
vt 0.234375 0.734375
vt 0.015625 0.515625
vt 0.234375 0.515625
vt 0.234375 0.734375
vt 0.265625 0.265625
vt 0.484375 0.265625
vt 0.484375 0.484375
vt 0.265625 0.265625
vt 0.484375 0.265625
vt 0.484375 0.484375
vt 0.265625 0.265625
vt 0.484375 0.265625
vt 0.484375 0.484375
vt 0.265625 0.265625
vt 0.484375 0.265625
vt 0.484375 0.484375
vt 0.265625 0.265625
vt 0.484375 0.265625
vt 0.484375 0.484375
vt 0.265625 0.265625
vt 0.484375 0.265625
vt 0.484375 0.484375
vt 0.265625 0.265625
vt 0.484375 0.265625
vt 0.484375 0.484375
vt 0.265625 0.265625
vt 0.484375 0.265625
vt 0.484375 0.484375
vt 0.265625 0.515625
vt 0.484375 0.515625
vt 0.484375 0.734375
vt 0.265625 0.515625
vt 0.484375 0.515625
vt 0.484375 0.734375
vt 0.265625 0.515625
vt 0.484375 0.515625
vt 0.484375 0.734375
vt 0.265625 0.515625
vt 0.484375 0.515625
vt 0.484375 0.734375
vt 0.265625 0.515625
vt 0.484375 0.515625
vt 0.484375 0.734375
vt 0.265625 0.515625
vt 0.484375 0.515625
vt 0.484375 0.734375
vt 0.265625 0.515625
vt 0.484375 0.515625
vt 0.484375 0.734375
vt 0.265625 0.515625
vt 0.484375 0.515625
vt 0.484375 0.734375
vt 0.265625 0.515625
vt 0.484375 0.515625
vt 0.484375 0.734375
vt 0.265625 0.515625
vt 0.484375 0.515625
vt 0.484375 0.734375
vt 0.265625 0.515625
vt 0.484375 0.515625
vt 0.484375 0.734375
vt 0.265625 0.515625
vt 0.484375 0.515625
vt 0.484375 0.734375
vt 0.265625 0.515625
vt 0.484375 0.515625
vt 0.484375 0.734375
vt 0.265625 0.515625
vt 0.484375 0.515625
vt 0.484375 0.734375
vt 0.265625 0.515625
vt 0.484375 0.515625
vt 0.484375 0.734375
vt 0.265625 0.515625
vt 0.484375 0.515625
vt 0.484375 0.734375
vt 0.015625 0.515625
vt 0.234375 0.515625
vt 0.234375 0.734375
vt 0.015625 0.515625
vt 0.234375 0.515625
vt 0.234375 0.734375
vt 0.015625 0.515625
vt 0.234375 0.515625
vt 0.234375 0.734375
vt 0.015625 0.515625
vt 0.234375 0.515625
vt 0.234375 0.734375
vt 0.015625 0.515625
vt 0.234375 0.515625
vt 0.234375 0.734375
vt 0.015625 0.515625
vt 0.234375 0.515625
vt 0.234375 0.734375
vt 0.015625 0.515625
vt 0.234375 0.515625
vt 0.234375 0.734375
vt 0.015625 0.515625
vt 0.234375 0.515625
vt 0.234375 0.734375
vt 0.015625 0.515625
vt 0.234375 0.515625
vt 0.234375 0.734375
vt 0.015625 0.515625
vt 0.234375 0.515625
vt 0.234375 0.734375
vt 0.015625 0.515625
vt 0.234375 0.515625
vt 0.234375 0.734375
vt 0.015625 0.515625
vt 0.234375 0.515625
vt 0.234375 0.734375
vt 0.015625 0.515625
vt 0.234375 0.515625
vt 0.234375 0.734375
vt 0.015625 0.515625
vt 0.234375 0.515625
vt 0.234375 0.734375
vt 0.015625 0.515625
vt 0.234375 0.515625
vt 0.234375 0.734375
vt 0.015625 0.515625
vt 0.234375 0.515625
vt 0.234375 0.734375
vt 0.265625 0.265625
vt 0.484375 0.265625
vt 0.484375 0.484375
vt 0.265625 0.265625
vt 0.484375 0.265625
vt 0.484375 0.484375
vt 0.265625 0.265625
vt 0.484375 0.265625
vt 0.484375 0.484375
vt 0.265625 0.265625
vt 0.484375 0.265625
vt 0.484375 0.484375
vt 0.265625 0.265625
vt 0.484375 0.265625
vt 0.484375 0.484375
vt 0.265625 0.265625
vt 0.484375 0.265625
vt 0.484375 0.484375
vt 0.265625 0.265625
vt 0.484375 0.265625
vt 0.484375 0.484375
vt 0.265625 0.265625
vt 0.484375 0.265625
vt 0.484375 0.484375
vt 0.265625 0.515625
vt 0.484375 0.515625
vt 0.484375 0.734375
vt 0.265625 0.515625
vt 0.484375 0.515625
vt 0.484375 0.734375
vt 0.265625 0.515625
vt 0.484375 0.515625
vt 0.484375 0.734375
vt 0.265625 0.515625
vt 0.484375 0.515625
vt 0.484375 0.734375
vt 0.265625 0.515625
vt 0.484375 0.515625
vt 0.484375 0.734375
vt 0.265625 0.515625
vt 0.484375 0.515625
vt 0.484375 0.734375
vt 0.265625 0.515625
vt 0.484375 0.515625
vt 0.484375 0.734375
vt 0.265625 0.515625
vt 0.484375 0.515625
vt 0.484375 0.734375
vt 0.265625 0.515625
vt 0.484375 0.515625
vt 0.484375 0.734375
vt 0.265625 0.515625
vt 0.484375 0.515625
vt 0.484375 0.734375
vt 0.265625 0.515625
vt 0.484375 0.515625
vt 0.484375 0.734375
vt 0.265625 0.515625
vt 0.484375 0.515625
vt 0.484375 0.734375
vt 0.265625 0.515625
vt 0.484375 0.515625
vt 0.484375 0.734375
vt 0.265625 0.515625
vt 0.484375 0.515625
vt 0.484375 0.734375
vt 0.265625 0.515625
vt 0.484375 0.515625
vt 0.484375 0.734375
vt 0.265625 0.515625
vt 0.484375 0.515625
vt 0.484375 0.734375
vt 0.015625 0.515625
vt 0.234375 0.515625
vt 0.234375 0.734375
vt 0.015625 0.515625
vt 0.234375 0.515625
vt 0.234375 0.734375
vt 0.015625 0.515625
vt 0.234375 0.515625
vt 0.234375 0.734375
vt 0.015625 0.515625
vt 0.234375 0.515625
vt 0.234375 0.734375
vt 0.015625 0.515625
vt 0.234375 0.515625
vt 0.234375 0.734375
vt 0.015625 0.515625
vt 0.234375 0.515625
vt 0.234375 0.734375
vt 0.015625 0.515625
vt 0.234375 0.515625
vt 0.234375 0.734375
vt 0.015625 0.515625
vt 0.234375 0.515625
vt 0.234375 0.734375
vt 0.015625 0.515625
vt 0.234375 0.515625
vt 0.234375 0.734375
vt 0.015625 0.515625
vt 0.234375 0.515625
vt 0.234375 0.734375
vt 0.015625 0.515625
vt 0.234375 0.515625
vt 0.234375 0.734375
vt 0.015625 0.515625
vt 0.234375 0.515625
vt 0.234375 0.734375
vt 0.015625 0.515625
vt 0.234375 0.515625
vt 0.234375 0.734375
vt 0.015625 0.515625
vt 0.234375 0.515625
vt 0.234375 0.734375
vt 0.015625 0.515625
vt 0.234375 0.515625
vt 0.234375 0.734375
vt 0.015625 0.515625
vt 0.234375 0.515625
vt 0.234375 0.734375
vt 0.265625 0.265625
vt 0.484375 0.265625
vt 0.484375 0.484375
vt 0.265625 0.265625
vt 0.484375 0.265625
vt 0.484375 0.484375
vt 0.265625 0.265625
vt 0.484375 0.265625
vt 0.484375 0.484375
vt 0.265625 0.265625
vt 0.484375 0.265625
vt 0.484375 0.484375
vt 0.265625 0.265625
vt 0.484375 0.265625
vt 0.484375 0.484375
vt 0.265625 0.265625
vt 0.484375 0.265625
vt 0.484375 0.484375
vt 0.265625 0.265625
vt 0.484375 0.265625
vt 0.484375 0.484375
vt 0.265625 0.265625
vt 0.484375 0.265625
vt 0.484375 0.484375
vt 0.265625 0.515625
vt 0.484375 0.515625
vt 0.484375 0.734375
vt 0.265625 0.515625
vt 0.484375 0.515625
vt 0.484375 0.734375
vt 0.265625 0.515625
vt 0.484375 0.515625
vt 0.484375 0.734375
vt 0.265625 0.515625
vt 0.484375 0.515625
vt 0.484375 0.734375
vt 0.265625 0.515625
vt 0.484375 0.515625
vt 0.484375 0.734375
vt 0.265625 0.515625
vt 0.484375 0.515625
vt 0.484375 0.734375
vt 0.265625 0.515625
vt 0.484375 0.515625
vt 0.484375 0.734375
vt 0.265625 0.515625
vt 0.484375 0.515625
vt 0.484375 0.734375
vt 0.265625 0.515625
vt 0.484375 0.515625
vt 0.484375 0.734375
vt 0.265625 0.515625
vt 0.484375 0.515625
vt 0.484375 0.734375
vt 0.265625 0.515625
vt 0.484375 0.515625
vt 0.484375 0.734375
vt 0.265625 0.515625
vt 0.484375 0.515625
vt 0.484375 0.734375
vt 0.265625 0.515625
vt 0.484375 0.515625
vt 0.484375 0.734375
vt 0.265625 0.515625
vt 0.484375 0.515625
vt 0.484375 0.734375
vt 0.265625 0.515625
vt 0.484375 0.515625
vt 0.484375 0.734375
vt 0.265625 0.515625
vt 0.484375 0.515625
vt 0.484375 0.734375
vt 0.015625 0.515625
vt 0.234375 0.515625
vt 0.234375 0.734375
vt 0.015625 0.515625
vt 0.234375 0.515625
vt 0.234375 0.734375
vt 0.015625 0.515625
vt 0.234375 0.515625
vt 0.234375 0.734375
vt 0.015625 0.515625
vt 0.234375 0.515625
vt 0.234375 0.734375
vt 0.015625 0.515625
vt 0.234375 0.515625
vt 0.234375 0.734375
vt 0.015625 0.515625
vt 0.234375 0.515625
vt 0.234375 0.734375
vt 0.015625 0.515625
vt 0.234375 0.515625
vt 0.234375 0.734375
vt 0.015625 0.515625
vt 0.234375 0.515625
vt 0.234375 0.734375
vt 0.015625 0.515625
vt 0.234375 0.515625
vt 0.234375 0.734375
vt 0.015625 0.515625
vt 0.234375 0.515625
vt 0.234375 0.734375
vt 0.015625 0.515625
vt 0.234375 0.515625
vt 0.234375 0.734375
vt 0.015625 0.515625
vt 0.234375 0.515625
vt 0.234375 0.734375
vt 0.015625 0.515625
vt 0.234375 0.515625
vt 0.234375 0.734375
vt 0.015625 0.515625
vt 0.234375 0.515625
vt 0.234375 0.734375
vt 0.015625 0.515625
vt 0.234375 0.515625
vt 0.234375 0.734375
vt 0.015625 0.515625
vt 0.234375 0.515625
vt 0.234375 0.734375
vt 0.265625 0.265625
vt 0.484375 0.265625
vt 0.484375 0.484375
vt 0.265625 0.265625
vt 0.484375 0.265625
vt 0.484375 0.484375
vt 0.265625 0.265625
vt 0.484375 0.265625
vt 0.484375 0.484375
vt 0.265625 0.265625
vt 0.484375 0.265625
vt 0.484375 0.484375
vt 0.265625 0.265625
vt 0.484375 0.265625
vt 0.484375 0.484375
vt 0.265625 0.265625
vt 0.484375 0.265625
vt 0.484375 0.484375
vt 0.265625 0.265625
vt 0.484375 0.265625
vt 0.484375 0.484375
vt 0.265625 0.265625
vt 0.484375 0.265625
vt 0.484375 0.484375
vt 0.265625 0.515625
vt 0.484375 0.515625
vt 0.484375 0.734375
vt 0.265625 0.515625
vt 0.484375 0.515625
vt 0.484375 0.734375
vt 0.265625 0.515625
vt 0.484375 0.515625
vt 0.484375 0.734375
vt 0.265625 0.515625
vt 0.484375 0.515625
vt 0.484375 0.734375
vt 0.265625 0.515625
vt 0.484375 0.515625
vt 0.484375 0.734375
vt 0.265625 0.515625
vt 0.484375 0.515625
vt 0.484375 0.734375
vt 0.265625 0.515625
vt 0.484375 0.515625
vt 0.484375 0.734375
vt 0.265625 0.515625
vt 0.484375 0.515625
vt 0.484375 0.734375
vt 0.265625 0.515625
vt 0.484375 0.515625
vt 0.484375 0.734375
vt 0.265625 0.515625
vt 0.484375 0.515625
vt 0.484375 0.734375
vt 0.265625 0.515625
vt 0.484375 0.515625
vt 0.484375 0.734375
vt 0.265625 0.515625
vt 0.484375 0.515625
vt 0.484375 0.734375
vt 0.265625 0.515625
vt 0.484375 0.515625
vt 0.484375 0.734375
vt 0.265625 0.515625
vt 0.484375 0.515625
vt 0.484375 0.734375
vt 0.265625 0.515625
vt 0.484375 0.515625
vt 0.484375 0.734375
vt 0.265625 0.515625
vt 0.484375 0.515625
vt 0.484375 0.734375
vt 0.015625 0.515625
vt 0.234375 0.515625
vt 0.234375 0.734375
vt 0.015625 0.515625
vt 0.234375 0.515625
vt 0.234375 0.734375
vt 0.015625 0.515625
vt 0.234375 0.515625
vt 0.234375 0.734375
vt 0.015625 0.515625
vt 0.234375 0.515625
vt 0.234375 0.734375
vt 0.015625 0.515625
vt 0.234375 0.515625
vt 0.234375 0.734375
vt 0.015625 0.515625
vt 0.234375 0.515625
vt 0.234375 0.734375
vt 0.015625 0.515625
vt 0.234375 0.515625
vt 0.234375 0.734375
vt 0.015625 0.515625
vt 0.234375 0.515625
vt 0.234375 0.734375
vt 0.015625 0.515625
vt 0.234375 0.515625
vt 0.234375 0.734375
vt 0.015625 0.515625
vt 0.234375 0.515625
vt 0.234375 0.734375
vt 0.015625 0.515625
vt 0.234375 0.515625
vt 0.234375 0.734375
vt 0.015625 0.515625
vt 0.234375 0.515625
vt 0.234375 0.734375
vt 0.015625 0.515625
vt 0.234375 0.515625
vt 0.234375 0.734375
vt 0.015625 0.515625
vt 0.234375 0.515625
vt 0.234375 0.734375
vt 0.015625 0.515625
vt 0.234375 0.515625
vt 0.234375 0.734375
vt 0.015625 0.515625
vt 0.234375 0.515625
vt 0.234375 0.734375
vt 0.265625 0.265625
vt 0.484375 0.265625
vt 0.484375 0.484375
vt 0.265625 0.265625
vt 0.484375 0.265625
vt 0.484375 0.484375
vt 0.265625 0.265625
vt 0.484375 0.265625
vt 0.484375 0.484375
vt 0.265625 0.265625
vt 0.484375 0.265625
vt 0.484375 0.484375
vt 0.265625 0.265625
vt 0.484375 0.265625
vt 0.484375 0.484375
vt 0.265625 0.265625
vt 0.484375 0.265625
vt 0.484375 0.484375
vt 0.265625 0.265625
vt 0.484375 0.265625
vt 0.484375 0.484375
vt 0.265625 0.265625
vt 0.484375 0.265625
vt 0.484375 0.484375
vt 0.265625 0.515625
vt 0.484375 0.515625
vt 0.484375 0.734375
vt 0.265625 0.515625
vt 0.484375 0.515625
vt 0.484375 0.734375
vt 0.265625 0.515625
vt 0.484375 0.515625
vt 0.484375 0.734375
vt 0.265625 0.515625
vt 0.484375 0.515625
vt 0.484375 0.734375
vt 0.265625 0.515625
vt 0.484375 0.515625
vt 0.484375 0.734375
vt 0.265625 0.515625
vt 0.484375 0.515625
vt 0.484375 0.734375
vt 0.265625 0.515625
vt 0.484375 0.515625
vt 0.484375 0.734375
vt 0.265625 0.515625
vt 0.484375 0.515625
vt 0.484375 0.734375
vt 0.265625 0.515625
vt 0.484375 0.515625
vt 0.484375 0.734375
vt 0.265625 0.515625
vt 0.484375 0.515625
vt 0.484375 0.734375
vt 0.265625 0.515625
vt 0.484375 0.515625
vt 0.484375 0.734375
vt 0.265625 0.515625
vt 0.484375 0.515625
vt 0.484375 0.734375
vt 0.265625 0.515625
vt 0.484375 0.515625
vt 0.484375 0.734375
vt 0.265625 0.515625
vt 0.484375 0.515625
vt 0.484375 0.734375
vt 0.265625 0.515625
vt 0.484375 0.515625
vt 0.484375 0.734375
vt 0.265625 0.515625
vt 0.484375 0.515625
vt 0.484375 0.734375
vt 0.015625 0.515625
vt 0.234375 0.515625
vt 0.234375 0.734375
vt 0.015625 0.515625
vt 0.234375 0.515625
vt 0.234375 0.734375
vt 0.015625 0.515625
vt 0.234375 0.515625
vt 0.234375 0.734375
vt 0.015625 0.515625
vt 0.234375 0.515625
vt 0.234375 0.734375
vt 0.015625 0.515625
vt 0.234375 0.515625
vt 0.234375 0.734375
vt 0.015625 0.515625
vt 0.234375 0.515625
vt 0.234375 0.734375
vt 0.015625 0.515625
vt 0.234375 0.515625
vt 0.234375 0.734375
vt 0.015625 0.515625
vt 0.234375 0.515625
vt 0.234375 0.734375
vt 0.015625 0.515625
vt 0.234375 0.515625
vt 0.234375 0.734375
vt 0.015625 0.515625
vt 0.234375 0.515625
vt 0.234375 0.734375
vt 0.015625 0.515625
vt 0.234375 0.515625
vt 0.234375 0.734375
vt 0.015625 0.515625
vt 0.234375 0.515625
vt 0.234375 0.734375
vt 0.015625 0.515625
vt 0.234375 0.515625
vt 0.234375 0.734375
vt 0.015625 0.515625
vt 0.234375 0.515625
vt 0.234375 0.734375
vt 0.015625 0.515625
vt 0.234375 0.515625
vt 0.234375 0.734375
vt 0.015625 0.515625
vt 0.234375 0.515625
vt 0.234375 0.734375
vt 0.265625 0.265625
vt 0.484375 0.265625
vt 0.484375 0.484375
vt 0.265625 0.265625
vt 0.484375 0.265625
vt 0.484375 0.484375
vt 0.265625 0.265625
vt 0.484375 0.265625
vt 0.484375 0.484375
vt 0.265625 0.265625
vt 0.484375 0.265625
vt 0.484375 0.484375
vt 0.265625 0.265625
vt 0.484375 0.265625
vt 0.484375 0.484375
vt 0.265625 0.265625
vt 0.484375 0.265625
vt 0.484375 0.484375
vt 0.265625 0.265625
vt 0.484375 0.265625
vt 0.484375 0.484375
vt 0.265625 0.265625
vt 0.484375 0.265625
vt 0.484375 0.484375
vt 0.265625 0.515625
vt 0.484375 0.515625
vt 0.484375 0.734375
vt 0.265625 0.515625
vt 0.484375 0.515625
vt 0.484375 0.734375
vt 0.265625 0.515625
vt 0.484375 0.515625
vt 0.484375 0.734375
vt 0.265625 0.515625
vt 0.484375 0.515625
vt 0.484375 0.734375
vt 0.265625 0.515625
vt 0.484375 0.515625
vt 0.484375 0.734375
vt 0.265625 0.515625
vt 0.484375 0.515625
vt 0.484375 0.734375
vt 0.265625 0.515625
vt 0.484375 0.515625
vt 0.484375 0.734375
vt 0.265625 0.515625
vt 0.484375 0.515625
vt 0.484375 0.734375
vt 0.265625 0.515625
vt 0.484375 0.515625
vt 0.484375 0.734375
vt 0.265625 0.515625
vt 0.484375 0.515625
vt 0.484375 0.734375
vt 0.265625 0.515625
vt 0.484375 0.515625
vt 0.484375 0.734375
vt 0.265625 0.515625
vt 0.484375 0.515625
vt 0.484375 0.734375
vt 0.265625 0.515625
vt 0.484375 0.515625
vt 0.484375 0.734375
vt 0.265625 0.515625
vt 0.484375 0.515625
vt 0.484375 0.734375
vt 0.265625 0.515625
vt 0.484375 0.515625
vt 0.484375 0.734375
vt 0.265625 0.515625
vt 0.484375 0.515625
vt 0.484375 0.734375
vt 0.015625 0.515625
vt 0.234375 0.515625
vt 0.234375 0.734375
vt 0.015625 0.515625
vt 0.234375 0.515625
vt 0.234375 0.734375
vt 0.015625 0.515625
vt 0.234375 0.515625
vt 0.234375 0.734375
vt 0.015625 0.515625
vt 0.234375 0.515625
vt 0.234375 0.734375
vt 0.015625 0.515625
vt 0.234375 0.515625
vt 0.234375 0.734375
vt 0.015625 0.515625
vt 0.234375 0.515625
vt 0.234375 0.734375
vt 0.015625 0.515625
vt 0.234375 0.515625
vt 0.234375 0.734375
vt 0.015625 0.515625
vt 0.234375 0.515625
vt 0.234375 0.734375
vt 0.015625 0.515625
vt 0.234375 0.515625
vt 0.234375 0.734375
vt 0.015625 0.515625
vt 0.234375 0.515625
vt 0.234375 0.734375
vt 0.015625 0.515625
vt 0.234375 0.515625
vt 0.234375 0.734375
vt 0.015625 0.515625
vt 0.234375 0.515625
vt 0.234375 0.734375
vt 0.015625 0.515625
vt 0.234375 0.515625
vt 0.234375 0.734375
vt 0.015625 0.515625
vt 0.234375 0.515625
vt 0.234375 0.734375
vt 0.015625 0.515625
vt 0.234375 0.515625
vt 0.234375 0.734375
vt 0.015625 0.515625
vt 0.234375 0.515625
vt 0.234375 0.734375
vt 0.265625 0.265625
vt 0.484375 0.265625
vt 0.484375 0.484375
vt 0.265625 0.265625
vt 0.484375 0.265625
vt 0.484375 0.484375
vt 0.265625 0.265625
vt 0.484375 0.265625
vt 0.484375 0.484375
vt 0.265625 0.265625
vt 0.484375 0.265625
vt 0.484375 0.484375
vt 0.265625 0.265625
vt 0.484375 0.265625
vt 0.484375 0.484375
vt 0.265625 0.265625
vt 0.484375 0.265625
vt 0.484375 0.484375
vt 0.265625 0.265625
vt 0.484375 0.265625
vt 0.484375 0.484375
vt 0.265625 0.265625
vt 0.484375 0.265625
vt 0.484375 0.484375
vt 0.265625 0.515625
vt 0.484375 0.515625
vt 0.484375 0.734375
vt 0.265625 0.515625
vt 0.484375 0.515625
vt 0.484375 0.734375
vt 0.265625 0.515625
vt 0.484375 0.515625
vt 0.484375 0.734375
vt 0.265625 0.515625
vt 0.484375 0.515625
vt 0.484375 0.734375
vt 0.265625 0.515625
vt 0.484375 0.515625
vt 0.484375 0.734375
vt 0.265625 0.515625
vt 0.484375 0.515625
vt 0.484375 0.734375
vt 0.265625 0.515625
vt 0.484375 0.515625
vt 0.484375 0.734375
vt 0.265625 0.515625
vt 0.484375 0.515625
vt 0.484375 0.734375
vt 0.265625 0.515625
vt 0.484375 0.515625
vt 0.484375 0.734375
vt 0.265625 0.515625
vt 0.484375 0.515625
vt 0.484375 0.734375
vt 0.265625 0.515625
vt 0.484375 0.515625
vt 0.484375 0.734375
vt 0.265625 0.515625
vt 0.484375 0.515625
vt 0.484375 0.734375
vt 0.265625 0.515625
vt 0.484375 0.515625
vt 0.484375 0.734375
vt 0.265625 0.515625
vt 0.484375 0.515625
vt 0.484375 0.734375
vt 0.265625 0.515625
vt 0.484375 0.515625
vt 0.484375 0.734375
vt 0.265625 0.515625
vt 0.484375 0.515625
vt 0.484375 0.734375
vt 0.015625 0.515625
vt 0.234375 0.515625
vt 0.234375 0.734375
vt 0.015625 0.515625
vt 0.234375 0.515625
vt 0.234375 0.734375
vt 0.015625 0.515625
vt 0.234375 0.515625
vt 0.234375 0.734375
vt 0.015625 0.515625
vt 0.234375 0.515625
vt 0.234375 0.734375
vt 0.015625 0.515625
vt 0.234375 0.515625
vt 0.234375 0.734375
vt 0.015625 0.515625
vt 0.234375 0.515625
vt 0.234375 0.734375
vt 0.015625 0.515625
vt 0.234375 0.515625
vt 0.234375 0.734375
vt 0.015625 0.515625
vt 0.234375 0.515625
vt 0.234375 0.734375
vt 0.015625 0.515625
vt 0.234375 0.515625
vt 0.234375 0.734375
vt 0.015625 0.515625
vt 0.234375 0.515625
vt 0.234375 0.734375
vt 0.015625 0.515625
vt 0.234375 0.515625
vt 0.234375 0.734375
vt 0.015625 0.515625
vt 0.234375 0.515625
vt 0.234375 0.734375
vt 0.015625 0.515625
vt 0.234375 0.515625
vt 0.234375 0.734375
vt 0.015625 0.515625
vt 0.234375 0.515625
vt 0.234375 0.734375
vt 0.015625 0.515625
vt 0.234375 0.515625
vt 0.234375 0.734375
vt 0.015625 0.515625
vt 0.234375 0.515625
vt 0.234375 0.734375
vt 0.265625 0.265625
vt 0.484375 0.265625
vt 0.484375 0.484375
vt 0.265625 0.265625
vt 0.484375 0.265625
vt 0.484375 0.484375
vt 0.265625 0.265625
vt 0.484375 0.265625
vt 0.484375 0.484375
vt 0.265625 0.265625
vt 0.484375 0.265625
vt 0.484375 0.484375
vt 0.265625 0.265625
vt 0.484375 0.265625
vt 0.484375 0.484375
vt 0.265625 0.265625
vt 0.484375 0.265625
vt 0.484375 0.484375
vt 0.265625 0.265625
vt 0.484375 0.265625
vt 0.484375 0.484375
vt 0.265625 0.265625
vt 0.484375 0.265625
vt 0.484375 0.484375
vt 0.265625 0.515625
vt 0.484375 0.515625
vt 0.484375 0.734375
vt 0.265625 0.515625
vt 0.484375 0.515625
vt 0.484375 0.734375
vt 0.265625 0.515625
vt 0.484375 0.515625
vt 0.484375 0.734375
vt 0.265625 0.515625
vt 0.484375 0.515625
vt 0.484375 0.734375
vt 0.265625 0.515625
vt 0.484375 0.515625
vt 0.484375 0.734375
vt 0.265625 0.515625
vt 0.484375 0.515625
vt 0.484375 0.734375
vt 0.265625 0.515625
vt 0.484375 0.515625
vt 0.484375 0.734375
vt 0.265625 0.515625
vt 0.484375 0.515625
vt 0.484375 0.734375
vt 0.265625 0.515625
vt 0.484375 0.515625
vt 0.484375 0.734375
vt 0.265625 0.515625
vt 0.484375 0.515625
vt 0.484375 0.734375
vt 0.265625 0.515625
vt 0.484375 0.515625
vt 0.484375 0.734375
vt 0.265625 0.515625
vt 0.484375 0.515625
vt 0.484375 0.734375
vt 0.265625 0.515625
vt 0.484375 0.515625
vt 0.484375 0.734375
vt 0.265625 0.515625
vt 0.484375 0.515625
vt 0.484375 0.734375
vt 0.265625 0.515625
vt 0.484375 0.515625
vt 0.484375 0.734375
vt 0.265625 0.515625
vt 0.484375 0.515625
vt 0.484375 0.734375
vt 0.015625 0.515625
vt 0.234375 0.515625
vt 0.234375 0.734375
vt 0.015625 0.515625
vt 0.234375 0.515625
vt 0.234375 0.734375
vt 0.015625 0.515625
vt 0.234375 0.515625
vt 0.234375 0.734375
vt 0.015625 0.515625
vt 0.234375 0.515625
vt 0.234375 0.734375
vt 0.015625 0.515625
vt 0.234375 0.515625
vt 0.234375 0.734375
vt 0.015625 0.515625
vt 0.234375 0.515625
vt 0.234375 0.734375
vt 0.015625 0.515625
vt 0.234375 0.515625
vt 0.234375 0.734375
vt 0.015625 0.515625
vt 0.234375 0.515625
vt 0.234375 0.734375
vt 0.015625 0.515625
vt 0.234375 0.515625
vt 0.234375 0.734375
vt 0.015625 0.515625
vt 0.234375 0.515625
vt 0.234375 0.734375
vt 0.015625 0.515625
vt 0.234375 0.515625
vt 0.234375 0.734375
vt 0.015625 0.515625
vt 0.234375 0.515625
vt 0.234375 0.734375
vt 0.015625 0.515625
vt 0.234375 0.515625
vt 0.234375 0.734375
vt 0.015625 0.515625
vt 0.234375 0.515625
vt 0.234375 0.734375
vt 0.015625 0.515625
vt 0.234375 0.515625
vt 0.234375 0.734375
vt 0.015625 0.515625
vt 0.234375 0.515625
vt 0.234375 0.734375
vt 0.265625 0.265625
vt 0.484375 0.265625
vt 0.484375 0.484375
vt 0.265625 0.265625
vt 0.484375 0.265625
vt 0.484375 0.484375
vt 0.265625 0.265625
vt 0.484375 0.265625
vt 0.484375 0.484375
vt 0.265625 0.265625
vt 0.484375 0.265625
vt 0.484375 0.484375
vt 0.265625 0.265625
vt 0.484375 0.265625
vt 0.484375 0.484375
vt 0.265625 0.265625
vt 0.484375 0.265625
vt 0.484375 0.484375
vt 0.265625 0.265625
vt 0.484375 0.265625
vt 0.484375 0.484375
vt 0.265625 0.265625
vt 0.484375 0.265625
vt 0.484375 0.484375
vt 0.265625 0.515625
vt 0.484375 0.515625
vt 0.484375 0.734375
vt 0.265625 0.515625
vt 0.484375 0.515625
vt 0.484375 0.734375
vt 0.265625 0.515625
vt 0.484375 0.515625
vt 0.484375 0.734375
vt 0.265625 0.515625
vt 0.484375 0.515625
vt 0.484375 0.734375
vt 0.265625 0.515625
vt 0.484375 0.515625
vt 0.484375 0.734375
vt 0.265625 0.515625
vt 0.484375 0.515625
vt 0.484375 0.734375
vt 0.265625 0.515625
vt 0.484375 0.515625
vt 0.484375 0.734375
vt 0.265625 0.515625
vt 0.484375 0.515625
vt 0.484375 0.734375
vt 0.265625 0.515625
vt 0.484375 0.515625
vt 0.484375 0.734375
vt 0.265625 0.515625
vt 0.484375 0.515625
vt 0.484375 0.734375
vt 0.265625 0.515625
vt 0.484375 0.515625
vt 0.484375 0.734375
vt 0.265625 0.515625
vt 0.484375 0.515625
vt 0.484375 0.734375
vt 0.265625 0.515625
vt 0.484375 0.515625
vt 0.484375 0.734375
vt 0.265625 0.515625
vt 0.484375 0.515625
vt 0.484375 0.734375
vt 0.265625 0.515625
vt 0.484375 0.515625
vt 0.484375 0.734375
vt 0.265625 0.515625
vt 0.484375 0.515625
vt 0.484375 0.734375
vt 0.015625 0.515625
vt 0.234375 0.515625
vt 0.234375 0.734375
vt 0.015625 0.515625
vt 0.234375 0.515625
vt 0.234375 0.734375
vt 0.015625 0.515625
vt 0.234375 0.515625
vt 0.234375 0.734375
vt 0.015625 0.515625
vt 0.234375 0.515625
vt 0.234375 0.734375
vt 0.015625 0.515625
vt 0.234375 0.515625
vt 0.234375 0.734375
vt 0.015625 0.515625
vt 0.234375 0.515625
vt 0.234375 0.734375
vt 0.015625 0.515625
vt 0.234375 0.515625
vt 0.234375 0.734375
vt 0.015625 0.515625
vt 0.234375 0.515625
vt 0.234375 0.734375
vt 0.015625 0.515625
vt 0.234375 0.515625
vt 0.234375 0.734375
vt 0.015625 0.515625
vt 0.234375 0.515625
vt 0.234375 0.734375
vt 0.015625 0.515625
vt 0.234375 0.515625
vt 0.234375 0.734375
vt 0.015625 0.515625
vt 0.234375 0.515625
vt 0.234375 0.734375
vt 0.015625 0.515625
vt 0.234375 0.515625
vt 0.234375 0.734375
vt 0.015625 0.515625
vt 0.234375 0.515625
vt 0.234375 0.734375
vt 0.015625 0.515625
vt 0.234375 0.515625
vt 0.234375 0.734375
vt 0.015625 0.515625
vt 0.234375 0.515625
vt 0.234375 0.734375
vt 0.265625 0.265625
vt 0.484375 0.265625
vt 0.484375 0.484375
vt 0.265625 0.265625
vt 0.484375 0.265625
vt 0.484375 0.484375
vt 0.265625 0.265625
vt 0.484375 0.265625
vt 0.484375 0.484375
vt 0.265625 0.265625
vt 0.484375 0.265625
vt 0.484375 0.484375
vt 0.265625 0.265625
vt 0.484375 0.265625
vt 0.484375 0.484375
vt 0.265625 0.265625
vt 0.484375 0.265625
vt 0.484375 0.484375
vt 0.265625 0.265625
vt 0.484375 0.265625
vt 0.484375 0.484375
vt 0.265625 0.265625
vt 0.484375 0.265625
vt 0.484375 0.484375
vn 0.00000000 0.00000000 -1.00000000
vn 0.00000000 0.00000000 1.00000000
vn -1.00000000 0.00000000 0.00000000
vn 1.00000000 0.00000000 0.00000000
vn 0.00000000 -1.00000000 0.00000000
vn 0.00000000 1.00000000 0.00000000
vn 0.00000000 0.00000000 -1.00000000
vn 0.00000000 0.00000000 1.00000000
vn -1.00000000 0.00000000 0.00000000
vn 1.00000000 0.00000000 0.00000000
vn 0.00000000 -1.00000000 0.00000000
vn 0.00000000 1.00000000 0.00000000
vn 0.00000000 0.00000000 -1.00000000
vn 0.00000000 0.00000000 1.00000000
vn -1.00000000 0.00000000 0.00000000
vn 1.00000000 0.00000000 0.00000000
vn 0.00000000 -1.00000000 0.00000000
vn 0.00000000 1.00000000 0.00000000
vn 0.00000000 0.00000000 -1.00000000
vn 0.00000000 0.00000000 1.00000000
vn -1.00000000 0.00000000 0.00000000
vn 1.00000000 0.00000000 0.00000000
vn 0.00000000 -1.00000000 0.00000000
vn 0.00000000 1.00000000 0.00000000
vn 0.00000000 0.00000000 -1.00000000
vn 0.00000000 0.00000000 1.00000000
vn -1.00000000 0.00000000 0.00000000
vn 1.00000000 0.00000000 0.00000000
vn 0.00000000 -1.00000000 0.00000000
vn 0.00000000 1.00000000 0.00000000
vn 0.00000000 0.00000000 -1.00000000
vn 0.00000000 0.00000000 1.00000000
vn -1.00000000 0.00000000 0.00000000
vn 1.00000000 0.00000000 0.00000000
vn 0.00000000 -1.00000000 0.00000000
vn 0.00000000 1.00000000 0.00000000
vn -0.50697940 0.69709668 0.50697940
vn -0.50697940 -0.69709668 0.50697940
vn 0.50697940 0.69709668 0.50697940
vn 0.50697940 -0.69709668 0.50697940
vn 0.50697940 0.69709668 -0.50697940
vn 0.50697940 -0.69709668 -0.50697940
vn -0.50697940 0.69709668 -0.50697940
vn -0.50697940 -0.69709668 -0.50697940
vn -0.50697940 0.69709668 0.50697940
vn -0.50697940 -0.69709668 0.50697940
vn 0.50697940 0.69709668 0.50697940
vn 0.50697940 -0.69709668 0.50697940
vn 0.50697940 0.69709668 -0.50697940
vn 0.50697940 -0.69709668 -0.50697940
vn -0.50697940 0.69709668 -0.50697940
vn -0.50697940 -0.69709668 -0.50697940
vn -0.50697940 0.69709668 0.50697940
vn -0.50697940 -0.69709668 0.50697940
vn 0.50697940 0.69709668 0.50697940
vn 0.50697940 -0.69709668 0.50697940
vn 0.50697940 0.69709668 -0.50697940
vn 0.50697940 -0.69709668 -0.50697940
vn -0.50697940 0.69709668 -0.50697940
vn -0.50697940 -0.69709668 -0.50697940
vn -0.50697940 0.69709668 0.50697940
vn -0.50697940 -0.69709668 0.50697940
vn 0.50697940 0.69709668 0.50697940
vn 0.50697940 -0.69709668 0.50697940
vn 0.50697940 0.69709668 -0.50697940
vn 0.50697940 -0.69709668 -0.50697940
vn -0.50697940 0.69709668 -0.50697940
vn -0.50697940 -0.69709668 -0.50697940
vn -0.54997194 0.62853936 0.54997194
vn -0.54997194 -0.62853936 0.54997194
vn 0.54997194 0.62853936 0.54997194
vn 0.54997194 -0.62853936 0.54997194
vn 0.54997194 0.62853936 -0.54997194
vn 0.54997194 -0.62853936 -0.54997194
vn -0.54997194 0.62853936 -0.54997194
vn -0.54997194 -0.62853936 -0.54997194
vn -0.50697940 0.69709668 0.50697940
vn -0.50697940 -0.69709668 0.50697940
vn 0.50697940 0.69709668 0.50697940
vn 0.50697940 -0.69709668 0.50697940
vn 0.50697940 0.69709668 -0.50697940
vn 0.50697940 -0.69709668 -0.50697940
vn -0.50697940 0.69709668 -0.50697940
vn -0.50697940 -0.69709668 -0.50697940
vn -0.50697940 0.69709668 0.50697940
vn -0.50697940 -0.69709668 0.50697940
vn 0.50697940 0.69709668 0.50697940
vn 0.50697940 -0.69709668 0.50697940
vn 0.50697940 0.69709668 -0.50697940
vn 0.50697940 -0.69709668 -0.50697940
vn -0.50697940 0.69709668 -0.50697940
vn -0.50697940 -0.69709668 -0.50697940
vn -0.50697940 0.69709668 0.50697940
vn -0.50697940 -0.69709668 0.50697940
vn 0.50697940 0.69709668 0.50697940
vn 0.50697940 -0.69709668 0.50697940
vn 0.50697940 0.69709668 -0.50697940
vn 0.50697940 -0.69709668 -0.50697940
vn -0.50697940 0.69709668 -0.50697940
vn -0.50697940 -0.69709668 -0.50697940
vn -0.50697940 0.69709668 0.50697940
vn -0.50697940 -0.69709668 0.50697940
vn 0.50697940 0.69709668 0.50697940
vn 0.50697940 -0.69709668 0.50697940
vn 0.50697940 0.69709668 -0.50697940
vn 0.50697940 -0.69709668 -0.50697940
vn -0.50697940 0.69709668 -0.50697940
vn -0.50697940 -0.69709668 -0.50697940
vn -0.54997194 0.62853936 0.54997194
vn -0.54997194 -0.62853936 0.54997194
vn 0.54997194 0.62853936 0.54997194
vn 0.54997194 -0.62853936 0.54997194
vn 0.54997194 0.62853936 -0.54997194
vn 0.54997194 -0.62853936 -0.54997194
vn -0.54997194 0.62853936 -0.54997194
vn -0.54997194 -0.62853936 -0.54997194
vn -0.50697940 0.69709668 0.50697940
vn -0.50697940 -0.69709668 0.50697940
vn 0.50697940 0.69709668 0.50697940
vn 0.50697940 -0.69709668 0.50697940
vn 0.50697940 0.69709668 -0.50697940
vn 0.50697940 -0.69709668 -0.50697940
vn -0.50697940 0.69709668 -0.50697940
vn -0.50697940 -0.69709668 -0.50697940
vn -0.50697940 0.69709668 0.50697940
vn -0.50697940 -0.69709668 0.50697940
vn 0.50697940 0.69709668 0.50697940
vn 0.50697940 -0.69709668 0.50697940
vn 0.50697940 0.69709668 -0.50697940
vn 0.50697940 -0.69709668 -0.50697940
vn -0.50697940 0.69709668 -0.50697940
vn -0.50697940 -0.69709668 -0.50697940
vn -0.50697940 0.69709668 0.50697940
vn -0.50697940 -0.69709668 0.50697940
vn 0.50697940 0.69709668 0.50697940
vn 0.50697940 -0.69709668 0.50697940
vn 0.50697940 0.69709668 -0.50697940
vn 0.50697940 -0.69709668 -0.50697940
vn -0.50697940 0.69709668 -0.50697940
vn -0.50697940 -0.69709668 -0.50697940
vn -0.50697940 0.69709668 0.50697940
vn -0.50697940 -0.69709668 0.50697940
vn 0.50697940 0.69709668 0.50697940
vn 0.50697940 -0.69709668 0.50697940
vn 0.50697940 0.69709668 -0.50697940
vn 0.50697940 -0.69709668 -0.50697940
vn -0.50697940 0.69709668 -0.50697940
vn -0.50697940 -0.69709668 -0.50697940
vn -0.54997194 0.62853936 0.54997194
vn -0.54997194 -0.62853936 0.54997194
vn 0.54997194 0.62853936 0.54997194
vn 0.54997194 -0.62853936 0.54997194
vn 0.54997194 0.62853936 -0.54997194
vn 0.54997194 -0.62853936 -0.54997194
vn -0.54997194 0.62853936 -0.54997194
vn -0.54997194 -0.62853936 -0.54997194
vn -0.50697940 0.69709668 0.50697940
vn -0.50697940 -0.69709668 0.50697940
vn 0.50697940 0.69709668 0.50697940
vn 0.50697940 -0.69709668 0.50697940
vn 0.50697940 0.69709668 -0.50697940
vn 0.50697940 -0.69709668 -0.50697940
vn -0.50697940 0.69709668 -0.50697940
vn -0.50697940 -0.69709668 -0.50697940
vn -0.50697940 0.69709668 0.50697940
vn -0.50697940 -0.69709668 0.50697940
vn 0.50697940 0.69709668 0.50697940
vn 0.50697940 -0.69709668 0.50697940
vn 0.50697940 0.69709668 -0.50697940
vn 0.50697940 -0.69709668 -0.50697940
vn -0.50697940 0.69709668 -0.50697940
vn -0.50697940 -0.69709668 -0.50697940
vn -0.50697940 0.69709668 0.50697940
vn -0.50697940 -0.69709668 0.50697940
vn 0.50697940 0.69709668 0.50697940
vn 0.50697940 -0.69709668 0.50697940
vn 0.50697940 0.69709668 -0.50697940
vn 0.50697940 -0.69709668 -0.50697940
vn -0.50697940 0.69709668 -0.50697940
vn -0.50697940 -0.69709668 -0.50697940
vn -0.50697940 0.69709668 0.50697940
vn -0.50697940 -0.69709668 0.50697940
vn 0.50697940 0.69709668 0.50697940
vn 0.50697940 -0.69709668 0.50697940
vn 0.50697940 0.69709668 -0.50697940
vn 0.50697940 -0.69709668 -0.50697940
vn -0.50697940 0.69709668 -0.50697940
vn -0.50697940 -0.69709668 -0.50697940
vn -0.54997194 0.62853936 0.54997194
vn -0.54997194 -0.62853936 0.54997194
vn 0.54997194 0.62853936 0.54997194
vn 0.54997194 -0.62853936 0.54997194
vn 0.54997194 0.62853936 -0.54997194
vn 0.54997194 -0.62853936 -0.54997194
vn -0.54997194 0.62853936 -0.54997194
vn -0.54997194 -0.62853936 -0.54997194
vn -0.50697940 0.69709668 0.50697940
vn -0.50697940 -0.69709668 0.50697940
vn 0.50697940 0.69709668 0.50697940
vn 0.50697940 -0.69709668 0.50697940
vn 0.50697940 0.69709668 -0.50697940
vn 0.50697940 -0.69709668 -0.50697940
vn -0.50697940 0.69709668 -0.50697940
vn -0.50697940 -0.69709668 -0.50697940
vn -0.50697940 0.69709668 0.50697940
vn -0.50697940 -0.69709668 0.50697940
vn 0.50697940 0.69709668 0.50697940
vn 0.50697940 -0.69709668 0.50697940
vn 0.50697940 0.69709668 -0.50697940
vn 0.50697940 -0.69709668 -0.50697940
vn -0.50697940 0.69709668 -0.50697940
vn -0.50697940 -0.69709668 -0.50697940
vn -0.50697940 0.69709668 0.50697940
vn -0.50697940 -0.69709668 0.50697940
vn 0.50697940 0.69709668 0.50697940
vn 0.50697940 -0.69709668 0.50697940
vn 0.50697940 0.69709668 -0.50697940
vn 0.50697940 -0.69709668 -0.50697940
vn -0.50697940 0.69709668 -0.50697940
vn -0.50697940 -0.69709668 -0.50697940
vn -0.50697940 0.69709668 0.50697940
vn -0.50697940 -0.69709668 0.50697940
vn 0.50697940 0.69709668 0.50697940
vn 0.50697940 -0.69709668 0.50697940
vn 0.50697940 0.69709668 -0.50697940
vn 0.50697940 -0.69709668 -0.50697940
vn -0.50697940 0.69709668 -0.50697940
vn -0.50697940 -0.69709668 -0.50697940
vn -0.54997194 0.62853936 0.54997194
vn -0.54997194 -0.62853936 0.54997194
vn 0.54997194 0.62853936 0.54997194
vn 0.54997194 -0.62853936 0.54997194
vn 0.54997194 0.62853936 -0.54997194
vn 0.54997194 -0.62853936 -0.54997194
vn -0.54997194 0.62853936 -0.54997194
vn -0.54997194 -0.62853936 -0.54997194
vn -0.50697940 0.69709668 0.50697940
vn -0.50697940 -0.69709668 0.50697940
vn 0.50697940 0.69709668 0.50697940
vn 0.50697940 -0.69709668 0.50697940
vn 0.50697940 0.69709668 -0.50697940
vn 0.50697940 -0.69709668 -0.50697940
vn -0.50697940 0.69709668 -0.50697940
vn -0.50697940 -0.69709668 -0.50697940
vn -0.50697940 0.69709668 0.50697940
vn -0.50697940 -0.69709668 0.50697940
vn 0.50697940 0.69709668 0.50697940
vn 0.50697940 -0.69709668 0.50697940
vn 0.50697940 0.69709668 -0.50697940
vn 0.50697940 -0.69709668 -0.50697940
vn -0.50697940 0.69709668 -0.50697940
vn -0.50697940 -0.69709668 -0.50697940
vn -0.50697940 0.69709668 0.50697940
vn -0.50697940 -0.69709668 0.50697940
vn 0.50697940 0.69709668 0.50697940
vn 0.50697940 -0.69709668 0.50697940
vn 0.50697940 0.69709668 -0.50697940
vn 0.50697940 -0.69709668 -0.50697940
vn -0.50697940 0.69709668 -0.50697940
vn -0.50697940 -0.69709668 -0.50697940
vn -0.50697940 0.69709668 0.50697940
vn -0.50697940 -0.69709668 0.50697940
vn 0.50697940 0.69709668 0.50697940
vn 0.50697940 -0.69709668 0.50697940
vn 0.50697940 0.69709668 -0.50697940
vn 0.50697940 -0.69709668 -0.50697940
vn -0.50697940 0.69709668 -0.50697940
vn -0.50697940 -0.69709668 -0.50697940
vn -0.54997194 0.62853936 0.54997194
vn -0.54997194 -0.62853936 0.54997194
vn 0.54997194 0.62853936 0.54997194
vn 0.54997194 -0.62853936 0.54997194
vn 0.54997194 0.62853936 -0.54997194
vn 0.54997194 -0.62853936 -0.54997194
vn -0.54997194 0.62853936 -0.54997194
vn -0.54997194 -0.62853936 -0.54997194
vn -0.50697940 0.69709668 0.50697940
vn -0.50697940 -0.69709668 0.50697940
vn 0.50697940 0.69709668 0.50697940
vn 0.50697940 -0.69709668 0.50697940
vn 0.50697940 0.69709668 -0.50697940
vn 0.50697940 -0.69709668 -0.50697940
vn -0.50697940 0.69709668 -0.50697940
vn -0.50697940 -0.69709668 -0.50697940
vn -0.50697940 0.69709668 0.50697940
vn -0.50697940 -0.69709668 0.50697940
vn 0.50697940 0.69709668 0.50697940
vn 0.50697940 -0.69709668 0.50697940
vn 0.50697940 0.69709668 -0.50697940
vn 0.50697940 -0.69709668 -0.50697940
vn -0.50697940 0.69709668 -0.50697940
vn -0.50697940 -0.69709668 -0.50697940
vn -0.50697940 0.69709668 0.50697940
vn -0.50697940 -0.69709668 0.50697940
vn 0.50697940 0.69709668 0.50697940
vn 0.50697940 -0.69709668 0.50697940
vn 0.50697940 0.69709668 -0.50697940
vn 0.50697940 -0.69709668 -0.50697940
vn -0.50697940 0.69709668 -0.50697940
vn -0.50697940 -0.69709668 -0.50697940
vn -0.50697940 0.69709668 0.50697940
vn -0.50697940 -0.69709668 0.50697940
vn 0.50697940 0.69709668 0.50697940
vn 0.50697940 -0.69709668 0.50697940
vn 0.50697940 0.69709668 -0.50697940
vn 0.50697940 -0.69709668 -0.50697940
vn -0.50697940 0.69709668 -0.50697940
vn -0.50697940 -0.69709668 -0.50697940
vn -0.54997194 0.62853936 0.54997194
vn -0.54997194 -0.62853936 0.54997194
vn 0.54997194 0.62853936 0.54997194
vn 0.54997194 -0.62853936 0.54997194
vn 0.54997194 0.62853936 -0.54997194
vn 0.54997194 -0.62853936 -0.54997194
vn -0.54997194 0.62853936 -0.54997194
vn -0.54997194 -0.62853936 -0.54997194
vn -0.50697940 0.69709668 0.50697940
vn -0.50697940 -0.69709668 0.50697940
vn 0.50697940 0.69709668 0.50697940
vn 0.50697940 -0.69709668 0.50697940
vn 0.50697940 0.69709668 -0.50697940
vn 0.50697940 -0.69709668 -0.50697940
vn -0.50697940 0.69709668 -0.50697940
vn -0.50697940 -0.69709668 -0.50697940
vn -0.50697940 0.69709668 0.50697940
vn -0.50697940 -0.69709668 0.50697940
vn 0.50697940 0.69709668 0.50697940
vn 0.50697940 -0.69709668 0.50697940
vn 0.50697940 0.69709668 -0.50697940
vn 0.50697940 -0.69709668 -0.50697940
vn -0.50697940 0.69709668 -0.50697940
vn -0.50697940 -0.69709668 -0.50697940
vn -0.50697940 0.69709668 0.50697940
vn -0.50697940 -0.69709668 0.50697940
vn 0.50697940 0.69709668 0.50697940
vn 0.50697940 -0.69709668 0.50697940
vn 0.50697940 0.69709668 -0.50697940
vn 0.50697940 -0.69709668 -0.50697940
vn -0.50697940 0.69709668 -0.50697940
vn -0.50697940 -0.69709668 -0.50697940
vn -0.50697940 0.69709668 0.50697940
vn -0.50697940 -0.69709668 0.50697940
vn 0.50697940 0.69709668 0.50697940
vn 0.50697940 -0.69709668 0.50697940
vn 0.50697940 0.69709668 -0.50697940
vn 0.50697940 -0.69709668 -0.50697940
vn -0.50697940 0.69709668 -0.50697940
vn -0.50697940 -0.69709668 -0.50697940
vn -0.54997194 0.62853936 0.54997194
vn -0.54997194 -0.62853936 0.54997194
vn 0.54997194 0.62853936 0.54997194
vn 0.54997194 -0.62853936 0.54997194
vn 0.54997194 0.62853936 -0.54997194
vn 0.54997194 -0.62853936 -0.54997194
vn -0.54997194 0.62853936 -0.54997194
vn -0.54997194 -0.62853936 -0.54997194
vn -0.50697940 0.69709668 0.50697940
vn -0.50697940 -0.69709668 0.50697940
vn 0.50697940 0.69709668 0.50697940
vn 0.50697940 -0.69709668 0.50697940
vn 0.50697940 0.69709668 -0.50697940
vn 0.50697940 -0.69709668 -0.50697940
vn -0.50697940 0.69709668 -0.50697940
vn -0.50697940 -0.69709668 -0.50697940
vn -0.50697940 0.69709668 0.50697940
vn -0.50697940 -0.69709668 0.50697940
vn 0.50697940 0.69709668 0.50697940
vn 0.50697940 -0.69709668 0.50697940
vn 0.50697940 0.69709668 -0.50697940
vn 0.50697940 -0.69709668 -0.50697940
vn -0.50697940 0.69709668 -0.50697940
vn -0.50697940 -0.69709668 -0.50697940
vn -0.50697940 0.69709668 0.50697940
vn -0.50697940 -0.69709668 0.50697940
vn 0.50697940 0.69709668 0.50697940
vn 0.50697940 -0.69709668 0.50697940
vn 0.50697940 0.69709668 -0.50697940
vn 0.50697940 -0.69709668 -0.50697940
vn -0.50697940 0.69709668 -0.50697940
vn -0.50697940 -0.69709668 -0.50697940
vn -0.50697940 0.69709668 0.50697940
vn -0.50697940 -0.69709668 0.50697940
vn 0.50697940 0.69709668 0.50697940
vn 0.50697940 -0.69709668 0.50697940
vn 0.50697940 0.69709668 -0.50697940
vn 0.50697940 -0.69709668 -0.50697940
vn -0.50697940 0.69709668 -0.50697940
vn -0.50697940 -0.69709668 -0.50697940
vn -0.54997194 0.62853936 0.54997194
vn -0.54997194 -0.62853936 0.54997194
vn 0.54997194 0.62853936 0.54997194
vn 0.54997194 -0.62853936 0.54997194
vn 0.54997194 0.62853936 -0.54997194
vn 0.54997194 -0.62853936 -0.54997194
vn -0.54997194 0.62853936 -0.54997194
vn -0.54997194 -0.62853936 -0.54997194
vn -0.50697940 0.69709668 0.50697940
vn -0.50697940 -0.69709668 0.50697940
vn 0.50697940 0.69709668 0.50697940
vn 0.50697940 -0.69709668 0.50697940
vn 0.50697940 0.69709668 -0.50697940
vn 0.50697940 -0.69709668 -0.50697940
vn -0.50697940 0.69709668 -0.50697940
vn -0.50697940 -0.69709668 -0.50697940
vn -0.50697940 0.69709668 0.50697940
vn -0.50697940 -0.69709668 0.50697940
vn 0.50697940 0.69709668 0.50697940
vn 0.50697940 -0.69709668 0.50697940
vn 0.50697940 0.69709668 -0.50697940
vn 0.50697940 -0.69709668 -0.50697940
vn -0.50697940 0.69709668 -0.50697940
vn -0.50697940 -0.69709668 -0.50697940
vn -0.50697940 0.69709668 0.50697940
vn -0.50697940 -0.69709668 0.50697940
vn 0.50697940 0.69709668 0.50697940
vn 0.50697940 -0.69709668 0.50697940
vn 0.50697940 0.69709668 -0.50697940
vn 0.50697940 -0.69709668 -0.50697940
vn -0.50697940 0.69709668 -0.50697940
vn -0.50697940 -0.69709668 -0.50697940
vn -0.50697940 0.69709668 0.50697940
vn -0.50697940 -0.69709668 0.50697940
vn 0.50697940 0.69709668 0.50697940
vn 0.50697940 -0.69709668 0.50697940
vn 0.50697940 0.69709668 -0.50697940
vn 0.50697940 -0.69709668 -0.50697940
vn -0.50697940 0.69709668 -0.50697940
vn -0.50697940 -0.69709668 -0.50697940
vn -0.54997194 0.62853936 0.54997194
vn -0.54997194 -0.62853936 0.54997194
vn 0.54997194 0.62853936 0.54997194
vn 0.54997194 -0.62853936 0.54997194
vn 0.54997194 0.62853936 -0.54997194
vn 0.54997194 -0.62853936 -0.54997194
vn -0.54997194 0.62853936 -0.54997194
vn -0.54997194 -0.62853936 -0.54997194
vn -0.50697940 0.69709668 0.50697940
vn -0.50697940 -0.69709668 0.50697940
vn 0.50697940 0.69709668 0.50697940
vn 0.50697940 -0.69709668 0.50697940
vn 0.50697940 0.69709668 -0.50697940
vn 0.50697940 -0.69709668 -0.50697940
vn -0.50697940 0.69709668 -0.50697940
vn -0.50697940 -0.69709668 -0.50697940
vn -0.50697940 0.69709668 0.50697940
vn -0.50697940 -0.69709668 0.50697940
vn 0.50697940 0.69709668 0.50697940
vn 0.50697940 -0.69709668 0.50697940
vn 0.50697940 0.69709668 -0.50697940
vn 0.50697940 -0.69709668 -0.50697940
vn -0.50697940 0.69709668 -0.50697940
vn -0.50697940 -0.69709668 -0.50697940
vn -0.50697940 0.69709668 0.50697940
vn -0.50697940 -0.69709668 0.50697940
vn 0.50697940 0.69709668 0.50697940
vn 0.50697940 -0.69709668 0.50697940
vn 0.50697940 0.69709668 -0.50697940
vn 0.50697940 -0.69709668 -0.50697940
vn -0.50697940 0.69709668 -0.50697940
vn -0.50697940 -0.69709668 -0.50697940
vn -0.50697940 0.69709668 0.50697940
vn -0.50697940 -0.69709668 0.50697940
vn 0.50697940 0.69709668 0.50697940
vn 0.50697940 -0.69709668 0.50697940
vn 0.50697940 0.69709668 -0.50697940
vn 0.50697940 -0.69709668 -0.50697940
vn -0.50697940 0.69709668 -0.50697940
vn -0.50697940 -0.69709668 -0.50697940
vn -0.54997194 0.62853936 0.54997194
vn -0.54997194 -0.62853936 0.54997194
vn 0.54997194 0.62853936 0.54997194
vn 0.54997194 -0.62853936 0.54997194
vn 0.54997194 0.62853936 -0.54997194
vn 0.54997194 -0.62853936 -0.54997194
vn -0.54997194 0.62853936 -0.54997194
vn -0.54997194 -0.62853936 -0.54997194
vn -0.50697940 0.69709668 0.50697940
vn -0.50697940 -0.69709668 0.50697940
vn 0.50697940 0.69709668 0.50697940
vn 0.50697940 -0.69709668 0.50697940
vn 0.50697940 0.69709668 -0.50697940
vn 0.50697940 -0.69709668 -0.50697940
vn -0.50697940 0.69709668 -0.50697940
vn -0.50697940 -0.69709668 -0.50697940
vn -0.50697940 0.69709668 0.50697940
vn -0.50697940 -0.69709668 0.50697940
vn 0.50697940 0.69709668 0.50697940
vn 0.50697940 -0.69709668 0.50697940
vn 0.50697940 0.69709668 -0.50697940
vn 0.50697940 -0.69709668 -0.50697940
vn -0.50697940 0.69709668 -0.50697940
vn -0.50697940 -0.69709668 -0.50697940
vn -0.50697940 0.69709668 0.50697940
vn -0.50697940 -0.69709668 0.50697940
vn 0.50697940 0.69709668 0.50697940
vn 0.50697940 -0.69709668 0.50697940
vn 0.50697940 0.69709668 -0.50697940
vn 0.50697940 -0.69709668 -0.50697940
vn -0.50697940 0.69709668 -0.50697940
vn -0.50697940 -0.69709668 -0.50697940
vn -0.50697940 0.69709668 0.50697940
vn -0.50697940 -0.69709668 0.50697940
vn 0.50697940 0.69709668 0.50697940
vn 0.50697940 -0.69709668 0.50697940
vn 0.50697940 0.69709668 -0.50697940
vn 0.50697940 -0.69709668 -0.50697940
vn -0.50697940 0.69709668 -0.50697940
vn -0.50697940 -0.69709668 -0.50697940
vn -0.54997194 0.62853936 0.54997194
vn -0.54997194 -0.62853936 0.54997194
vn 0.54997194 0.62853936 0.54997194
vn 0.54997194 -0.62853936 0.54997194
vn 0.54997194 0.62853936 -0.54997194
vn 0.54997194 -0.62853936 -0.54997194
vn -0.54997194 0.62853936 -0.54997194
vn -0.54997194 -0.62853936 -0.54997194
f 1/1/1 4/2/1 3/3/1
f 1/1/1 3/3/1 2/4/1
f 5/5/2 6/6/2 7/7/2
f 5/5/2 7/7/2 8/8/2
f 1/9/3 5/10/3 8/11/3
f 1/9/3 8/11/3 4/12/3
f 2/13/4 3/14/4 7/15/4
f 2/13/4 7/15/4 6/16/4
f 1/17/5 2/18/5 6/19/5
f 1/17/5 6/19/5 5/20/5
f 4/21/6 8/22/6 7/23/6
f 4/21/6 7/23/6 3/24/6
f 9/25/7 12/26/7 11/27/7
f 9/25/7 11/27/7 10/28/7
f 13/29/8 14/30/8 15/31/8
f 13/29/8 15/31/8 16/32/8
f 9/33/9 13/34/9 16/35/9
f 9/33/9 16/35/9 12/36/9
f 10/37/10 11/38/10 15/39/10
f 10/37/10 15/39/10 14/40/10
f 9/41/11 10/42/11 14/43/11
f 9/41/11 14/43/11 13/44/11
f 12/45/12 16/46/12 15/47/12
f 12/45/12 15/47/12 11/48/12
f 17/49/13 20/50/13 19/51/13
f 17/49/13 19/51/13 18/52/13
f 21/53/14 22/54/14 23/55/14
f 21/53/14 23/55/14 24/56/14
f 17/57/15 21/58/15 24/59/15
f 17/57/15 24/59/15 20/60/15
f 18/61/16 19/62/16 23/63/16
f 18/61/16 23/63/16 22/64/16
f 17/65/17 18/66/17 22/67/17
f 17/65/17 22/67/17 21/68/17
f 20/69/18 24/70/18 23/71/18
f 20/69/18 23/71/18 19/72/18
f 25/73/19 28/74/19 27/75/19
f 25/73/19 27/75/19 26/76/19
f 29/77/20 30/78/20 31/79/20
f 29/77/20 31/79/20 32/80/20
f 25/81/21 29/82/21 32/83/21
f 25/81/21 32/83/21 28/84/21
f 26/85/22 27/86/22 31/87/22
f 26/85/22 31/87/22 30/88/22
f 25/89/23 26/90/23 30/91/23
f 25/89/23 30/91/23 29/92/23
f 28/93/24 32/94/24 31/95/24
f 28/93/24 31/95/24 27/96/24
f 21/97/25 24/98/25 34/99/25
f 21/97/25 34/99/25 33/100/25
f 25/101/26 35/102/26 36/103/26
f 25/101/26 36/103/26 28/104/26
f 21/105/27 25/106/27 28/107/27
f 21/105/27 28/107/27 24/108/27
f 33/109/28 34/110/28 36/111/28
f 33/109/28 36/111/28 35/112/28
f 21/113/29 33/114/29 35/115/29
f 21/113/29 35/115/29 25/116/29
f 24/117/30 28/118/30 36/119/30
f 24/117/30 36/119/30 34/120/30
f 37/121/31 38/122/31 23/123/31
f 37/121/31 23/123/31 22/124/31
f 39/125/32 26/126/32 27/127/32
f 39/125/32 27/127/32 40/128/32
f 37/129/33 39/130/33 40/131/33
f 37/129/33 40/131/33 38/132/33
f 22/133/34 23/134/34 27/135/34
f 22/133/34 27/135/34 26/136/34
f 37/137/35 22/138/35 26/139/35
f 37/137/35 26/139/35 39/140/35
f 38/141/36 40/142/36 27/143/36
f 38/141/36 27/143/36 23/144/36
f 41/145/37 42/146/37 43/147/37
f 44/148/38 43/149/38 42/150/38
f 41/151/39 43/152/39 45/153/39
f 44/154/40 45/155/40 43/156/40
f 41/157/41 45/158/41 46/159/41
f 44/160/42 46/161/42 45/162/42
f 41/163/43 46/164/43 42/165/43
f 44/166/44 42/167/44 46/168/44
f 47/169/45 48/170/45 49/171/45
f 50/172/46 49/173/46 48/174/46
f 47/175/47 49/176/47 51/177/47
f 50/178/48 51/179/48 49/180/48
f 47/181/49 51/182/49 52/183/49
f 50/184/50 52/185/50 51/186/50
f 47/187/51 52/188/51 48/189/51
f 50/190/52 48/191/52 52/192/52
f 53/193/53 54/194/53 55/195/53
f 56/196/54 55/197/54 54/198/54
f 53/199/55 55/200/55 57/201/55
f 56/202/56 57/203/56 55/204/56
f 53/205/57 57/206/57 58/207/57
f 56/208/58 58/209/58 57/210/58
f 53/211/59 58/212/59 54/213/59
f 56/214/60 54/215/60 58/216/60
f 59/217/61 60/218/61 61/219/61
f 62/220/62 61/221/62 60/222/62
f 59/223/63 61/224/63 63/225/63
f 62/226/64 63/227/64 61/228/64
f 59/229/65 63/230/65 64/231/65
f 62/232/66 64/233/66 63/234/66
f 59/235/67 64/236/67 60/237/67
f 62/238/68 60/239/68 64/240/68
f 65/241/69 66/242/69 67/243/69
f 68/244/70 67/245/70 66/246/70
f 65/247/71 67/248/71 69/249/71
f 68/250/72 69/251/72 67/252/72
f 65/253/73 69/254/73 70/255/73
f 68/256/74 70/257/74 69/258/74
f 65/259/75 70/260/75 66/261/75
f 68/262/76 66/263/76 70/264/76
f 71/265/77 72/266/77 73/267/77
f 74/268/78 73/269/78 72/270/78
f 71/271/79 73/272/79 75/273/79
f 74/274/80 75/275/80 73/276/80
f 71/277/81 75/278/81 76/279/81
f 74/280/82 76/281/82 75/282/82
f 71/283/83 76/284/83 72/285/83
f 74/286/84 72/287/84 76/288/84
f 77/289/85 78/290/85 79/291/85
f 80/292/86 79/293/86 78/294/86
f 77/295/87 79/296/87 81/297/87
f 80/298/88 81/299/88 79/300/88
f 77/301/89 81/302/89 82/303/89
f 80/304/90 82/305/90 81/306/90
f 77/307/91 82/308/91 78/309/91
f 80/310/92 78/311/92 82/312/92
f 83/313/93 84/314/93 85/315/93
f 86/316/94 85/317/94 84/318/94
f 83/319/95 85/320/95 87/321/95
f 86/322/96 87/323/96 85/324/96
f 83/325/97 87/326/97 88/327/97
f 86/328/98 88/329/98 87/330/98
f 83/331/99 88/332/99 84/333/99
f 86/334/100 84/335/100 88/336/100
f 89/337/101 90/338/101 91/339/101
f 92/340/102 91/341/102 90/342/102
f 89/343/103 91/344/103 93/345/103
f 92/346/104 93/347/104 91/348/104
f 89/349/105 93/350/105 94/351/105
f 92/352/106 94/353/106 93/354/106
f 89/355/107 94/356/107 90/357/107
f 92/358/108 90/359/108 94/360/108
f 95/361/109 96/362/109 97/363/109
f 98/364/110 97/365/110 96/366/110
f 95/367/111 97/368/111 99/369/111
f 98/370/112 99/371/112 97/372/112
f 95/373/113 99/374/113 100/375/113
f 98/376/114 100/377/114 99/378/114
f 95/379/115 100/380/115 96/381/115
f 98/382/116 96/383/116 100/384/116
f 101/385/117 102/386/117 103/387/117
f 104/388/118 103/389/118 102/390/118
f 101/391/119 103/392/119 105/393/119
f 104/394/120 105/395/120 103/396/120
f 101/397/121 105/398/121 106/399/121
f 104/400/122 106/401/122 105/402/122
f 101/403/123 106/404/123 102/405/123
f 104/406/124 102/407/124 106/408/124
f 107/409/125 108/410/125 109/411/125
f 110/412/126 109/413/126 108/414/126
f 107/415/127 109/416/127 111/417/127
f 110/418/128 111/419/128 109/420/128
f 107/421/129 111/422/129 112/423/129
f 110/424/130 112/425/130 111/426/130
f 107/427/131 112/428/131 108/429/131
f 110/430/132 108/431/132 112/432/132
f 113/433/133 114/434/133 115/435/133
f 116/436/134 115/437/134 114/438/134
f 113/439/135 115/440/135 117/441/135
f 116/442/136 117/443/136 115/444/136
f 113/445/137 117/446/137 118/447/137
f 116/448/138 118/449/138 117/450/138
f 113/451/139 118/452/139 114/453/139
f 116/454/140 114/455/140 118/456/140
f 119/457/141 120/458/141 121/459/141
f 122/460/142 121/461/142 120/462/142
f 119/463/143 121/464/143 123/465/143
f 122/466/144 123/467/144 121/468/144
f 119/469/145 123/470/145 124/471/145
f 122/472/146 124/473/146 123/474/146
f 119/475/147 124/476/147 120/477/147
f 122/478/148 120/479/148 124/480/148
f 125/481/149 126/482/149 127/483/149
f 128/484/150 127/485/150 126/486/150
f 125/487/151 127/488/151 129/489/151
f 128/490/152 129/491/152 127/492/152
f 125/493/153 129/494/153 130/495/153
f 128/496/154 130/497/154 129/498/154
f 125/499/155 130/500/155 126/501/155
f 128/502/156 126/503/156 130/504/156
f 131/505/157 51/506/157 132/507/157
f 133/508/158 132/509/158 51/510/158
f 131/511/159 132/512/159 134/513/159
f 133/514/160 134/515/160 132/516/160
f 131/517/161 134/518/161 135/519/161
f 133/520/162 135/521/162 134/522/162
f 131/523/163 135/524/163 51/525/163
f 133/526/164 51/527/164 135/528/164
f 136/529/165 137/530/165 138/531/165
f 139/532/166 138/533/166 137/534/166
f 136/535/167 138/536/167 140/537/167
f 139/538/168 140/539/168 138/540/168
f 136/541/169 140/542/169 141/543/169
f 139/544/170 141/545/170 140/546/170
f 136/547/171 141/548/171 137/549/171
f 139/550/172 137/551/172 141/552/172
f 142/553/173 143/554/173 144/555/173
f 145/556/174 144/557/174 143/558/174
f 142/559/175 144/560/175 146/561/175
f 145/562/176 146/563/176 144/564/176
f 142/565/177 146/566/177 147/567/177
f 145/568/178 147/569/178 146/570/178
f 142/571/179 147/572/179 143/573/179
f 145/574/180 143/575/180 147/576/180
f 148/577/181 149/578/181 150/579/181
f 151/580/182 150/581/182 149/582/182
f 148/583/183 150/584/183 152/585/183
f 151/586/184 152/587/184 150/588/184
f 148/589/185 152/590/185 153/591/185
f 151/592/186 153/593/186 152/594/186
f 148/595/187 153/596/187 149/597/187
f 151/598/188 149/599/188 153/600/188
f 154/601/189 155/602/189 156/603/189
f 157/604/190 156/605/190 155/606/190
f 154/607/191 156/608/191 158/609/191
f 157/610/192 158/611/192 156/612/192
f 154/613/193 158/614/193 159/615/193
f 157/616/194 159/617/194 158/618/194
f 154/619/195 159/620/195 155/621/195
f 157/622/196 155/623/196 159/624/196
f 160/625/197 81/626/197 161/627/197
f 162/628/198 161/629/198 81/630/198
f 160/631/199 161/632/199 163/633/199
f 162/634/200 163/635/200 161/636/200
f 160/637/201 163/638/201 164/639/201
f 162/640/202 164/641/202 163/642/202
f 160/643/203 164/644/203 81/645/203
f 162/646/204 81/647/204 164/648/204
f 165/649/205 166/650/205 167/651/205
f 168/652/206 167/653/206 166/654/206
f 165/655/207 167/656/207 169/657/207
f 168/658/208 169/659/208 167/660/208
f 165/661/209 169/662/209 170/663/209
f 168/664/210 170/665/210 169/666/210
f 165/667/211 170/668/211 166/669/211
f 168/670/212 166/671/212 170/672/212
f 171/673/213 172/674/213 173/675/213
f 174/676/214 173/677/214 172/678/214
f 171/679/215 173/680/215 175/681/215
f 174/682/216 175/683/216 173/684/216
f 171/685/217 175/686/217 176/687/217
f 174/688/218 176/689/218 175/690/218
f 171/691/219 176/692/219 172/693/219
f 174/694/220 172/695/220 176/696/220
f 177/697/221 178/698/221 179/699/221
f 180/700/222 179/701/222 178/702/222
f 177/703/223 179/704/223 181/705/223
f 180/706/224 181/707/224 179/708/224
f 177/709/225 181/710/225 182/711/225
f 180/712/226 182/713/226 181/714/226
f 177/715/227 182/716/227 178/717/227
f 180/718/228 178/719/228 182/720/228
f 183/721/229 184/722/229 185/723/229
f 186/724/230 185/725/230 184/726/230
f 183/727/231 185/728/231 187/729/231
f 186/730/232 187/731/232 185/732/232
f 183/733/233 187/734/233 188/735/233
f 186/736/234 188/737/234 187/738/234
f 183/739/235 188/740/235 184/741/235
f 186/742/236 184/743/236 188/744/236
f 189/745/237 111/746/237 190/747/237
f 191/748/238 190/749/238 111/750/238
f 189/751/239 190/752/239 192/753/239
f 191/754/240 192/755/240 190/756/240
f 189/757/241 192/758/241 193/759/241
f 191/760/242 193/761/242 192/762/242
f 189/763/243 193/764/243 111/765/243
f 191/766/244 111/767/244 193/768/244
f 194/769/245 195/770/245 196/771/245
f 197/772/246 196/773/246 195/774/246
f 194/775/247 196/776/247 198/777/247
f 197/778/248 198/779/248 196/780/248
f 194/781/249 198/782/249 199/783/249
f 197/784/250 199/785/250 198/786/250
f 194/787/251 199/788/251 195/789/251
f 197/790/252 195/791/252 199/792/252
f 200/793/253 201/794/253 202/795/253
f 203/796/254 202/797/254 201/798/254
f 200/799/255 202/800/255 204/801/255
f 203/802/256 204/803/256 202/804/256
f 200/805/257 204/806/257 205/807/257
f 203/808/258 205/809/258 204/810/258
f 200/811/259 205/812/259 201/813/259
f 203/814/260 201/815/260 205/816/260
f 206/817/261 207/818/261 208/819/261
f 209/820/262 208/821/262 207/822/262
f 206/823/263 208/824/263 210/825/263
f 209/826/264 210/827/264 208/828/264
f 206/829/265 210/830/265 211/831/265
f 209/832/266 211/833/266 210/834/266
f 206/835/267 211/836/267 207/837/267
f 209/838/268 207/839/268 211/840/268
f 212/841/269 213/842/269 214/843/269
f 215/844/270 214/845/270 213/846/270
f 212/847/271 214/848/271 216/849/271
f 215/850/272 216/851/272 214/852/272
f 212/853/273 216/854/273 217/855/273
f 215/856/274 217/857/274 216/858/274
f 212/859/275 217/860/275 213/861/275
f 215/862/276 213/863/276 217/864/276
f 218/865/277 140/866/277 219/867/277
f 220/868/278 219/869/278 140/870/278
f 218/871/279 219/872/279 221/873/279
f 220/874/280 221/875/280 219/876/280
f 218/877/281 221/878/281 222/879/281
f 220/880/282 222/881/282 221/882/282
f 218/883/283 222/884/283 140/885/283
f 220/886/284 140/887/284 222/888/284
f 223/889/285 224/890/285 225/891/285
f 226/892/286 225/893/286 224/894/286
f 223/895/287 225/896/287 227/897/287
f 226/898/288 227/899/288 225/900/288
f 223/901/289 227/902/289 228/903/289
f 226/904/290 228/905/290 227/906/290
f 223/907/291 228/908/291 224/909/291
f 226/910/292 224/911/292 228/912/292
f 229/913/293 230/914/293 231/915/293
f 232/916/294 231/917/294 230/918/294
f 229/919/295 231/920/295 233/921/295
f 232/922/296 233/923/296 231/924/296
f 229/925/297 233/926/297 234/927/297
f 232/928/298 234/929/298 233/930/298
f 229/931/299 234/932/299 230/933/299
f 232/934/300 230/935/300 234/936/300
f 235/937/301 236/938/301 237/939/301
f 238/940/302 237/941/302 236/942/302
f 235/943/303 237/944/303 239/945/303
f 238/946/304 239/947/304 237/948/304
f 235/949/305 239/950/305 240/951/305
f 238/952/306 240/953/306 239/954/306
f 235/955/307 240/956/307 236/957/307
f 238/958/308 236/959/308 240/960/308
f 241/961/309 242/962/309 243/963/309
f 244/964/310 243/965/310 242/966/310
f 241/967/311 243/968/311 245/969/311
f 244/970/312 245/971/312 243/972/312
f 241/973/313 245/974/313 246/975/313
f 244/976/314 246/977/314 245/978/314
f 241/979/315 246/980/315 242/981/315
f 244/982/316 242/983/316 246/984/316
f 247/985/317 169/986/317 248/987/317
f 249/988/318 248/989/318 169/990/318
f 247/991/319 248/992/319 250/993/319
f 249/994/320 250/995/320 248/996/320
f 247/997/321 250/998/321 251/999/321
f 249/1000/322 251/1001/322 250/1002/322
f 247/1003/323 251/1004/323 169/1005/323
f 249/1006/324 169/1007/324 251/1008/324
f 252/1009/325 253/1010/325 254/1011/325
f 255/1012/326 254/1013/326 253/1014/326
f 252/1015/327 254/1016/327 256/1017/327
f 255/1018/328 256/1019/328 254/1020/328
f 252/1021/329 256/1022/329 257/1023/329
f 255/1024/330 257/1025/330 256/1026/330
f 252/1027/331 257/1028/331 253/1029/331
f 255/1030/332 253/1031/332 257/1032/332
f 258/1033/333 259/1034/333 260/1035/333
f 261/1036/334 260/1037/334 259/1038/334
f 258/1039/335 260/1040/335 262/1041/335
f 261/1042/336 262/1043/336 260/1044/336
f 258/1045/337 262/1046/337 263/1047/337
f 261/1048/338 263/1049/338 262/1050/338
f 258/1051/339 263/1052/339 259/1053/339
f 261/1054/340 259/1055/340 263/1056/340
f 264/1057/341 265/1058/341 266/1059/341
f 267/1060/342 266/1061/342 265/1062/342
f 264/1063/343 266/1064/343 268/1065/343
f 267/1066/344 268/1067/344 266/1068/344
f 264/1069/345 268/1070/345 269/1071/345
f 267/1072/346 269/1073/346 268/1074/346
f 264/1075/347 269/1076/347 265/1077/347
f 267/1078/348 265/1079/348 269/1080/348
f 270/1081/349 271/1082/349 272/1083/349
f 273/1084/350 272/1085/350 271/1086/350
f 270/1087/351 272/1088/351 274/1089/351
f 273/1090/352 274/1091/352 272/1092/352
f 270/1093/353 274/1094/353 275/1095/353
f 273/1096/354 275/1097/354 274/1098/354
f 270/1099/355 275/1100/355 271/1101/355
f 273/1102/356 271/1103/356 275/1104/356
f 276/1105/357 198/1106/357 277/1107/357
f 278/1108/358 277/1109/358 198/1110/358
f 276/1111/359 277/1112/359 279/1113/359
f 278/1114/360 279/1115/360 277/1116/360
f 276/1117/361 279/1118/361 280/1119/361
f 278/1120/362 280/1121/362 279/1122/362
f 276/1123/363 280/1124/363 198/1125/363
f 278/1126/364 198/1127/364 280/1128/364
f 281/1129/365 282/1130/365 283/1131/365
f 284/1132/366 283/1133/366 282/1134/366
f 281/1135/367 283/1136/367 285/1137/367
f 284/1138/368 285/1139/368 283/1140/368
f 281/1141/369 285/1142/369 286/1143/369
f 284/1144/370 286/1145/370 285/1146/370
f 281/1147/371 286/1148/371 282/1149/371
f 284/1150/372 282/1151/372 286/1152/372
f 287/1153/373 288/1154/373 289/1155/373
f 290/1156/374 289/1157/374 288/1158/374
f 287/1159/375 289/1160/375 291/1161/375
f 290/1162/376 291/1163/376 289/1164/376
f 287/1165/377 291/1166/377 292/1167/377
f 290/1168/378 292/1169/378 291/1170/378
f 287/1171/379 292/1172/379 288/1173/379
f 290/1174/380 288/1175/380 292/1176/380
f 293/1177/381 294/1178/381 295/1179/381
f 296/1180/382 295/1181/382 294/1182/382
f 293/1183/383 295/1184/383 297/1185/383
f 296/1186/384 297/1187/384 295/1188/384
f 293/1189/385 297/1190/385 298/1191/385
f 296/1192/386 298/1193/386 297/1194/386
f 293/1195/387 298/1196/387 294/1197/387
f 296/1198/388 294/1199/388 298/1200/388
f 299/1201/389 300/1202/389 301/1203/389
f 302/1204/390 301/1205/390 300/1206/390
f 299/1207/391 301/1208/391 303/1209/391
f 302/1210/392 303/1211/392 301/1212/392
f 299/1213/393 303/1214/393 304/1215/393
f 302/1216/394 304/1217/394 303/1218/394
f 299/1219/395 304/1220/395 300/1221/395
f 302/1222/396 300/1223/396 304/1224/396
f 305/1225/397 227/1226/397 306/1227/397
f 307/1228/398 306/1229/398 227/1230/398
f 305/1231/399 306/1232/399 308/1233/399
f 307/1234/400 308/1235/400 306/1236/400
f 305/1237/401 308/1238/401 309/1239/401
f 307/1240/402 309/1241/402 308/1242/402
f 305/1243/403 309/1244/403 227/1245/403
f 307/1246/404 227/1247/404 309/1248/404
f 310/1249/405 311/1250/405 312/1251/405
f 313/1252/406 312/1253/406 311/1254/406
f 310/1255/407 312/1256/407 314/1257/407
f 313/1258/408 314/1259/408 312/1260/408
f 310/1261/409 314/1262/409 315/1263/409
f 313/1264/410 315/1265/410 314/1266/410
f 310/1267/411 315/1268/411 311/1269/411
f 313/1270/412 311/1271/412 315/1272/412
f 316/1273/413 317/1274/413 318/1275/413
f 319/1276/414 318/1277/414 317/1278/414
f 316/1279/415 318/1280/415 320/1281/415
f 319/1282/416 320/1283/416 318/1284/416
f 316/1285/417 320/1286/417 321/1287/417
f 319/1288/418 321/1289/418 320/1290/418
f 316/1291/419 321/1292/419 317/1293/419
f 319/1294/420 317/1295/420 321/1296/420
f 322/1297/421 323/1298/421 324/1299/421
f 325/1300/422 324/1301/422 323/1302/422
f 322/1303/423 324/1304/423 326/1305/423
f 325/1306/424 326/1307/424 324/1308/424
f 322/1309/425 326/1310/425 327/1311/425
f 325/1312/426 327/1313/426 326/1314/426
f 322/1315/427 327/1316/427 323/1317/427
f 325/1318/428 323/1319/428 327/1320/428
f 328/1321/429 329/1322/429 330/1323/429
f 331/1324/430 330/1325/430 329/1326/430
f 328/1327/431 330/1328/431 332/1329/431
f 331/1330/432 332/1331/432 330/1332/432
f 328/1333/433 332/1334/433 333/1335/433
f 331/1336/434 333/1337/434 332/1338/434
f 328/1339/435 333/1340/435 329/1341/435
f 331/1342/436 329/1343/436 333/1344/436
f 334/1345/437 256/1346/437 335/1347/437
f 336/1348/438 335/1349/438 256/1350/438
f 334/1351/439 335/1352/439 337/1353/439
f 336/1354/440 337/1355/440 335/1356/440
f 334/1357/441 337/1358/441 338/1359/441
f 336/1360/442 338/1361/442 337/1362/442
f 334/1363/443 338/1364/443 256/1365/443
f 336/1366/444 256/1367/444 338/1368/444
f 339/1369/445 340/1370/445 341/1371/445
f 342/1372/446 341/1373/446 340/1374/446
f 339/1375/447 341/1376/447 343/1377/447
f 342/1378/448 343/1379/448 341/1380/448
f 339/1381/449 343/1382/449 344/1383/449
f 342/1384/450 344/1385/450 343/1386/450
f 339/1387/451 344/1388/451 340/1389/451
f 342/1390/452 340/1391/452 344/1392/452
f 345/1393/453 346/1394/453 347/1395/453
f 348/1396/454 347/1397/454 346/1398/454
f 345/1399/455 347/1400/455 349/1401/455
f 348/1402/456 349/1403/456 347/1404/456
f 345/1405/457 349/1406/457 350/1407/457
f 348/1408/458 350/1409/458 349/1410/458
f 345/1411/459 350/1412/459 346/1413/459
f 348/1414/460 346/1415/460 350/1416/460
f 351/1417/461 352/1418/461 353/1419/461
f 354/1420/462 353/1421/462 352/1422/462
f 351/1423/463 353/1424/463 355/1425/463
f 354/1426/464 355/1427/464 353/1428/464
f 351/1429/465 355/1430/465 356/1431/465
f 354/1432/466 356/1433/466 355/1434/466
f 351/1435/467 356/1436/467 352/1437/467
f 354/1438/468 352/1439/468 356/1440/468
f 357/1441/469 358/1442/469 359/1443/469
f 360/1444/470 359/1445/470 358/1446/470
f 357/1447/471 359/1448/471 361/1449/471
f 360/1450/472 361/1451/472 359/1452/472
f 357/1453/473 361/1454/473 362/1455/473
f 360/1456/474 362/1457/474 361/1458/474
f 357/1459/475 362/1460/475 358/1461/475
f 360/1462/476 358/1463/476 362/1464/476
f 363/1465/477 285/1466/477 364/1467/477
f 365/1468/478 364/1469/478 285/1470/478
f 363/1471/479 364/1472/479 366/1473/479
f 365/1474/480 366/1475/480 364/1476/480
f 363/1477/481 366/1478/481 367/1479/481
f 365/1480/482 367/1481/482 366/1482/482
f 363/1483/483 367/1484/483 285/1485/483
f 365/1486/484 285/1487/484 367/1488/484
f 368/1489/485 369/1490/485 370/1491/485
f 371/1492/486 370/1493/486 369/1494/486
f 368/1495/487 370/1496/487 372/1497/487
f 371/1498/488 372/1499/488 370/1500/488
f 368/1501/489 372/1502/489 373/1503/489
f 371/1504/490 373/1505/490 372/1506/490
f 368/1507/491 373/1508/491 369/1509/491
f 371/1510/492 369/1511/492 373/1512/492
f 374/1513/493 375/1514/493 376/1515/493
f 377/1516/494 376/1517/494 375/1518/494
f 374/1519/495 376/1520/495 378/1521/495
f 377/1522/496 378/1523/496 376/1524/496
f 374/1525/497 378/1526/497 379/1527/497
f 377/1528/498 379/1529/498 378/1530/498
f 374/1531/499 379/1532/499 375/1533/499
f 377/1534/500 375/1535/500 379/1536/500
f 380/1537/501 381/1538/501 382/1539/501
f 383/1540/502 382/1541/502 381/1542/502
f 380/1543/503 382/1544/503 384/1545/503
f 383/1546/504 384/1547/504 382/1548/504
f 380/1549/505 384/1550/505 385/1551/505
f 383/1552/506 385/1553/506 384/1554/506
f 380/1555/507 385/1556/507 381/1557/507
f 383/1558/508 381/1559/508 385/1560/508
f 386/1561/509 387/1562/509 388/1563/509
f 389/1564/510 388/1565/510 387/1566/510
f 386/1567/511 388/1568/511 390/1569/511
f 389/1570/512 390/1571/512 388/1572/512
f 386/1573/513 390/1574/513 391/1575/513
f 389/1576/514 391/1577/514 390/1578/514
f 386/1579/515 391/1580/515 387/1581/515
f 389/1582/516 387/1583/516 391/1584/516
