mtllib TorusSettlementFarm_Drying.mtl
v -7.2485250 0.1266437 3.7500000
v -5.1780339 0.0646174 3.7500000
v -5.1780339 0.0646174 -3.7500000
v -7.2485250 0.1266437 -3.7500000
v -5.1780339 0.0646174 3.7500000
v -3.1070267 0.0232630 3.7500000
v -3.1070267 0.0232630 -3.7500000
v -5.1780339 0.0646174 -3.7500000
v -3.1070267 0.0232630 3.7500000
v -1.0357100 0.0025848 3.7500000
v -1.0357100 0.0025848 -3.7500000
v -3.1070267 0.0232630 -3.7500000
v -1.0357100 0.0025848 3.7500000
v 1.0357100 0.0025848 3.7500000
v 1.0357100 0.0025848 -3.7500000
v -1.0357100 0.0025848 -3.7500000
v 1.0357100 0.0025848 3.7500000
v 3.1070267 0.0232630 3.7500000
v 3.1070267 0.0232630 -3.7500000
v 1.0357100 0.0025848 -3.7500000
v 3.1070267 0.0232630 3.7500000
v 5.1780339 0.0646174 3.7500000
v 5.1780339 0.0646174 -3.7500000
v 3.1070267 0.0232630 -3.7500000
v 5.1780339 0.0646174 3.7500000
v 7.2485250 0.1266437 3.7500000
v 7.2485250 0.1266437 -3.7500000
v 5.1780339 0.0646174 -3.7500000
v -7.2480883 0.1391361 -3.4000000
v -5.1777219 0.0771135 -3.4000000
v -5.1777219 0.0771135 -3.7500000
v -7.2480883 0.1391361 -3.7500000
v -5.1777219 0.0771135 -3.4000000
v -3.1068396 0.0357616 -3.4000000
v -3.1068396 0.0357616 -3.7500000
v -5.1777219 0.0771135 -3.7500000
v -3.1068396 0.0357616 -3.4000000
v -1.0356476 0.0150847 -3.4000000
v -1.0356476 0.0150847 -3.7500000
v -3.1068396 0.0357616 -3.7500000
v -1.0356476 0.0150847 -3.4000000
v 1.0356476 0.0150847 -3.4000000
v 1.0356476 0.0150847 -3.7500000
v -1.0356476 0.0150847 -3.7500000
v 1.0356476 0.0150847 -3.4000000
v 3.1068396 0.0357616 -3.4000000
v 3.1068396 0.0357616 -3.7500000
v 1.0356476 0.0150847 -3.7500000
v 3.1068396 0.0357616 -3.4000000
v 5.1777219 0.0771135 -3.4000000
v 5.1777219 0.0771135 -3.7500000
v 3.1068396 0.0357616 -3.7500000
v 5.1777219 0.0771135 -3.4000000
v 7.2480883 0.1391361 -3.4000000
v 7.2480883 0.1391361 -3.7500000
v 5.1777219 0.0771135 -3.7500000
v -7.2480883 0.1391361 3.7500000
v -5.1777219 0.0771135 3.7500000
v -5.1777219 0.0771135 3.4000000
v -7.2480883 0.1391361 3.4000000
v -5.1777219 0.0771135 3.7500000
v -3.1068396 0.0357616 3.7500000
v -3.1068396 0.0357616 3.4000000
v -5.1777219 0.0771135 3.4000000
v -3.1068396 0.0357616 3.7500000
v -1.0356476 0.0150847 3.7500000
v -1.0356476 0.0150847 3.4000000
v -3.1068396 0.0357616 3.4000000
v -1.0356476 0.0150847 3.7500000
v 1.0356476 0.0150847 3.7500000
v 1.0356476 0.0150847 3.4000000
v -1.0356476 0.0150847 3.4000000
v 1.0356476 0.0150847 3.7500000
v 3.1068396 0.0357616 3.7500000
v 3.1068396 0.0357616 3.4000000
v 1.0356476 0.0150847 3.4000000
v 3.1068396 0.0357616 3.7500000
v 5.1777219 0.0771135 3.7500000
v 5.1777219 0.0771135 3.4000000
v 3.1068396 0.0357616 3.4000000
v 5.1777219 0.0771135 3.7500000
v 7.2480883 0.1391361 3.7500000
v 7.2480883 0.1391361 3.4000000
v 5.1777219 0.0771135 3.4000000
v -0.2999818 0.0127169 3.7500000
v 0.2999818 0.0127169 3.7500000
v 0.2999818 0.0127169 -3.7500000
v -0.2999818 0.0127169 -3.7500000
v -6.5761224 0.7420533 -0.5625000
v -1.5178088 0.6430684 -0.5625000
v -1.5178088 0.6430684 -2.8875000
v -6.5761224 0.7420533 -2.8875000
v -6.5761224 0.7420533 -2.8875000
v -1.5178088 0.6430684 -2.8875000
v -1.5223946 0.0180852 -2.8875000
v -6.5959911 0.1173692 -2.8875000
v -1.5178088 0.6430684 -2.8875000
v -1.5178088 0.6430684 -0.5625000
v -1.5223946 0.0180852 -0.5625000
v -1.5223946 0.0180852 -2.8875000
v -1.5178088 0.6430684 -0.5625000
v -6.5761224 0.7420533 -0.5625000
v -6.5959911 0.1173692 -0.5625000
v -1.5223946 0.0180852 -0.5625000
v -6.5761224 0.7420533 -0.5625000
v -6.5761224 0.7420533 -2.8875000
v -6.5959911 0.1173692 -2.8875000
v -6.5959911 0.1173692 -0.5625000
v -6.5962464 0.8927707 -1.7250000
v -4.8950589 0.8454669 -1.7250000
v -4.8986110 0.6955090 -2.9125000
v -6.6010330 0.7428471 -2.9125000
v -6.6010330 0.7428471 -0.5375000
v -4.8986110 0.6955090 -0.5375000
v -4.8950589 0.8454669 -1.7250000
v -6.5962464 0.8927707 -1.7250000
v -4.8950589 0.8454669 -1.7250000
v -3.1935396 0.8121703 -1.7250000
v -3.1958569 0.6621882 -2.9125000
v -4.8986110 0.6955090 -2.9125000
v -4.8986110 0.6955090 -0.5375000
v -3.1958569 0.6621882 -0.5375000
v -3.1935396 0.8121703 -1.7250000
v -4.8950589 0.8454669 -1.7250000
v -3.1935396 0.8121703 -1.7250000
v -1.4918038 0.7928831 -1.7250000
v -1.4928863 0.6428870 -2.9125000
v -3.1958569 0.6621882 -2.9125000
v -3.1958569 0.6621882 -0.5375000
v -1.4928863 0.6428870 -0.5375000
v -1.4918038 0.7928831 -1.7250000
v -3.1935396 0.8121703 -1.7250000
v -6.5958321 0.1223667 -0.3125000
v -4.9049626 0.0754857 -0.3125000
v -4.9049626 0.0754857 -0.5375000
v -6.5958321 0.1223667 -0.5375000
v -4.9049626 0.0754857 -0.3125000
v -3.2137671 0.0423911 -0.3125000
v -3.2137671 0.0423911 -0.5375000
v -4.9049626 0.0754857 -0.5375000
v -3.2137671 0.0423911 -0.3125000
v -1.5223579 0.0230851 -0.3125000
v -1.5223579 0.0230851 -0.5375000
v -3.2137671 0.0423911 -0.5375000
v 1.5178088 0.6430684 -0.5625000
v 6.5761224 0.7420533 -0.5625000
v 6.5761224 0.7420533 -2.8875000
v 1.5178088 0.6430684 -2.8875000
v 1.5178088 0.6430684 -2.8875000
v 6.5761224 0.7420533 -2.8875000
v 6.5959911 0.1173692 -2.8875000
v 1.5223946 0.0180852 -2.8875000
v 6.5761224 0.7420533 -2.8875000
v 6.5761224 0.7420533 -0.5625000
v 6.5959911 0.1173692 -0.5625000
v 6.5959911 0.1173692 -2.8875000
v 6.5761224 0.7420533 -0.5625000
v 1.5178088 0.6430684 -0.5625000
v 1.5223946 0.0180852 -0.5625000
v 6.5959911 0.1173692 -0.5625000
v 1.5178088 0.6430684 -0.5625000
v 1.5178088 0.6430684 -2.8875000
v 1.5223946 0.0180852 -2.8875000
v 1.5223946 0.0180852 -0.5625000
v 1.4918038 0.7928831 -1.7250000
v 3.1935396 0.8121703 -1.7250000
v 3.1958569 0.6621882 -2.9125000
v 1.4928863 0.6428870 -2.9125000
v 1.4928863 0.6428870 -0.5375000
v 3.1958569 0.6621882 -0.5375000
v 3.1935396 0.8121703 -1.7250000
v 1.4918038 0.7928831 -1.7250000
v 3.1935396 0.8121703 -1.7250000
v 4.8950589 0.8454669 -1.7250000
v 4.8986110 0.6955090 -2.9125000
v 3.1958569 0.6621882 -2.9125000
v 3.1958569 0.6621882 -0.5375000
v 4.8986110 0.6955090 -0.5375000
v 4.8950589 0.8454669 -1.7250000
v 3.1935396 0.8121703 -1.7250000
v 4.8950589 0.8454669 -1.7250000
v 6.5962464 0.8927707 -1.7250000
v 6.6010330 0.7428471 -2.9125000
v 4.8986110 0.6955090 -2.9125000
v 4.8986110 0.6955090 -0.5375000
v 6.6010330 0.7428471 -0.5375000
v 6.5962464 0.8927707 -1.7250000
v 4.8950589 0.8454669 -1.7250000
v 1.5223579 0.0230851 -0.3125000
v 3.2137671 0.0423911 -0.3125000
v 3.2137671 0.0423911 -0.5375000
v 1.5223579 0.0230851 -0.5375000
v 3.2137671 0.0423911 -0.3125000
v 4.9049626 0.0754857 -0.3125000
v 4.9049626 0.0754857 -0.5375000
v 3.2137671 0.0423911 -0.5375000
v 4.9049626 0.0754857 -0.3125000
v 6.5958321 0.1223667 -0.3125000
v 6.5958321 0.1223667 -0.5375000
v 4.9049626 0.0754857 -0.5375000
v -6.8974817 0.1521916 3.4000000
v -4.7070785 0.0909059 3.4000000
v -4.7070785 0.0909059 0.9000000
v -6.8974817 0.1521916 0.9000000
v -4.7070785 0.0909059 3.4000000
v -2.5161502 0.0527588 3.4000000
v -2.5161502 0.0527588 0.9000000
v -4.7070785 0.0909059 0.9000000
v -2.5161502 0.0527588 3.4000000
v -0.3249411 0.0377545 3.4000000
v -0.3249411 0.0377545 0.9000000
v -2.5161502 0.0527588 0.9000000
v 0.3249411 0.0377545 3.4000000
v 2.5161502 0.0527588 3.4000000
v 2.5161502 0.0527588 0.9000000
v 0.3249411 0.0377545 0.9000000
v 2.5161502 0.0527588 3.4000000
v 4.7070785 0.0909059 3.4000000
v 4.7070785 0.0909059 0.9000000
v 2.5161502 0.0527588 0.9000000
v 4.7070785 0.0909059 3.4000000
v 6.8974817 0.1521916 3.4000000
v 6.8974817 0.1521916 0.9000000
v 4.7070785 0.0909059 0.9000000
v -6.3759206 0.1980279 1.3687500
v -1.7391411 0.1072919 1.3687500
v -1.7391411 0.1072919 1.1812500
v -6.3759206 0.1980279 1.1812500
v -6.3759206 0.1980279 1.1812500
v -1.7391411 0.1072919 1.1812500
v -1.7398748 0.0197949 1.1812500
v -6.3786105 0.1105693 1.1812500
v -1.7391411 0.1072919 1.1812500
v -1.7391411 0.1072919 1.3687500
v -1.7398748 0.0197949 1.3687500
v -1.7398748 0.0197949 1.1812500
v -1.7391411 0.1072919 1.3687500
v -6.3759206 0.1980279 1.3687500
v -6.3786105 0.1105693 1.3687500
v -1.7398748 0.0197949 1.3687500
v -6.3759206 0.1980279 1.3687500
v -6.3759206 0.1980279 1.1812500
v -6.3786105 0.1105693 1.1812500
v -6.3786105 0.1105693 1.3687500
v 1.7391411 0.1072919 1.3687500
v 6.3759206 0.1980279 1.3687500
v 6.3759206 0.1980279 1.1812500
v 1.7391411 0.1072919 1.1812500
v 1.7391411 0.1072919 1.1812500
v 6.3759206 0.1980279 1.1812500
v 6.3786105 0.1105693 1.1812500
v 1.7398748 0.0197949 1.1812500
v 6.3759206 0.1980279 1.1812500
v 6.3759206 0.1980279 1.3687500
v 6.3786105 0.1105693 1.3687500
v 6.3786105 0.1105693 1.1812500
v 6.3759206 0.1980279 1.3687500
v 1.7391411 0.1072919 1.3687500
v 1.7398748 0.0197949 1.3687500
v 6.3786105 0.1105693 1.3687500
v 1.7391411 0.1072919 1.3687500
v 1.7391411 0.1072919 1.1812500
v 1.7398748 0.0197949 1.1812500
v 1.7398748 0.0197949 1.3687500
v -6.3759206 0.1980279 1.7812500
v -1.7391411 0.1072919 1.7812500
v -1.7391411 0.1072919 1.5937500
v -6.3759206 0.1980279 1.5937500
v -6.3759206 0.1980279 1.5937500
v -1.7391411 0.1072919 1.5937500
v -1.7398748 0.0197949 1.5937500
v -6.3786105 0.1105693 1.5937500
v -1.7391411 0.1072919 1.5937500
v -1.7391411 0.1072919 1.7812500
v -1.7398748 0.0197949 1.7812500
v -1.7398748 0.0197949 1.5937500
v -1.7391411 0.1072919 1.7812500
v -6.3759206 0.1980279 1.7812500
v -6.3786105 0.1105693 1.7812500
v -1.7398748 0.0197949 1.7812500
v -6.3759206 0.1980279 1.7812500
v -6.3759206 0.1980279 1.5937500
v -6.3786105 0.1105693 1.5937500
v -6.3786105 0.1105693 1.7812500
v 1.7391411 0.1072919 1.7812500
v 6.3759206 0.1980279 1.7812500
v 6.3759206 0.1980279 1.5937500
v 1.7391411 0.1072919 1.5937500
v 1.7391411 0.1072919 1.5937500
v 6.3759206 0.1980279 1.5937500
v 6.3786105 0.1105693 1.5937500
v 1.7398748 0.0197949 1.5937500
v 6.3759206 0.1980279 1.5937500
v 6.3759206 0.1980279 1.7812500
v 6.3786105 0.1105693 1.7812500
v 6.3786105 0.1105693 1.5937500
v 6.3759206 0.1980279 1.7812500
v 1.7391411 0.1072919 1.7812500
v 1.7398748 0.0197949 1.7812500
v 6.3786105 0.1105693 1.7812500
v 1.7391411 0.1072919 1.7812500
v 1.7391411 0.1072919 1.5937500
v 1.7398748 0.0197949 1.5937500
v 1.7398748 0.0197949 1.7812500
v -6.3759206 0.1980279 2.1937500
v -1.7391411 0.1072919 2.1937500
v -1.7391411 0.1072919 2.0062500
v -6.3759206 0.1980279 2.0062500
v -6.3759206 0.1980279 2.0062500
v -1.7391411 0.1072919 2.0062500
v -1.7398748 0.0197949 2.0062500
v -6.3786105 0.1105693 2.0062500
v -1.7391411 0.1072919 2.0062500
v -1.7391411 0.1072919 2.1937500
v -1.7398748 0.0197949 2.1937500
v -1.7398748 0.0197949 2.0062500
v -1.7391411 0.1072919 2.1937500
v -6.3759206 0.1980279 2.1937500
v -6.3786105 0.1105693 2.1937500
v -1.7398748 0.0197949 2.1937500
v -6.3759206 0.1980279 2.1937500
v -6.3759206 0.1980279 2.0062500
v -6.3786105 0.1105693 2.0062500
v -6.3786105 0.1105693 2.1937500
v 1.7391411 0.1072919 2.1937500
v 6.3759206 0.1980279 2.1937500
v 6.3759206 0.1980279 2.0062500
v 1.7391411 0.1072919 2.0062500
v 1.7391411 0.1072919 2.0062500
v 6.3759206 0.1980279 2.0062500
v 6.3786105 0.1105693 2.0062500
v 1.7398748 0.0197949 2.0062500
v 6.3759206 0.1980279 2.0062500
v 6.3759206 0.1980279 2.1937500
v 6.3786105 0.1105693 2.1937500
v 6.3786105 0.1105693 2.0062500
v 6.3759206 0.1980279 2.1937500
v 1.7391411 0.1072919 2.1937500
v 1.7398748 0.0197949 2.1937500
v 6.3786105 0.1105693 2.1937500
v 1.7391411 0.1072919 2.1937500
v 1.7391411 0.1072919 2.0062500
v 1.7398748 0.0197949 2.0062500
v 1.7398748 0.0197949 2.1937500
v -6.3759206 0.1980279 2.6062500
v -1.7391411 0.1072919 2.6062500
v -1.7391411 0.1072919 2.4187500
v -6.3759206 0.1980279 2.4187500
v -6.3759206 0.1980279 2.4187500
v -1.7391411 0.1072919 2.4187500
v -1.7398748 0.0197949 2.4187500
v -6.3786105 0.1105693 2.4187500
v -1.7391411 0.1072919 2.4187500
v -1.7391411 0.1072919 2.6062500
v -1.7398748 0.0197949 2.6062500
v -1.7398748 0.0197949 2.4187500
v -1.7391411 0.1072919 2.6062500
v -6.3759206 0.1980279 2.6062500
v -6.3786105 0.1105693 2.6062500
v -1.7398748 0.0197949 2.6062500
v -6.3759206 0.1980279 2.6062500
v -6.3759206 0.1980279 2.4187500
v -6.3786105 0.1105693 2.4187500
v -6.3786105 0.1105693 2.6062500
v 1.7391411 0.1072919 2.6062500
v 6.3759206 0.1980279 2.6062500
v 6.3759206 0.1980279 2.4187500
v 1.7391411 0.1072919 2.4187500
v 1.7391411 0.1072919 2.4187500
v 6.3759206 0.1980279 2.4187500
v 6.3786105 0.1105693 2.4187500
v 1.7398748 0.0197949 2.4187500
v 6.3759206 0.1980279 2.4187500
v 6.3759206 0.1980279 2.6062500
v 6.3786105 0.1105693 2.6062500
v 6.3786105 0.1105693 2.4187500
v 6.3759206 0.1980279 2.6062500
v 1.7391411 0.1072919 2.6062500
v 1.7398748 0.0197949 2.6062500
v 6.3786105 0.1105693 2.6062500
v 1.7391411 0.1072919 2.6062500
v 1.7391411 0.1072919 2.4187500
v 1.7398748 0.0197949 2.4187500
v 1.7398748 0.0197949 2.6062500
v -6.3759206 0.1980279 3.0187500
v -1.7391411 0.1072919 3.0187500
v -1.7391411 0.1072919 2.8312500
v -6.3759206 0.1980279 2.8312500
v -6.3759206 0.1980279 2.8312500
v -1.7391411 0.1072919 2.8312500
v -1.7398748 0.0197949 2.8312500
v -6.3786105 0.1105693 2.8312500
v -1.7391411 0.1072919 2.8312500
v -1.7391411 0.1072919 3.0187500
v -1.7398748 0.0197949 3.0187500
v -1.7398748 0.0197949 2.8312500
v -1.7391411 0.1072919 3.0187500
v -6.3759206 0.1980279 3.0187500
v -6.3786105 0.1105693 3.0187500
v -1.7398748 0.0197949 3.0187500
v -6.3759206 0.1980279 3.0187500
v -6.3759206 0.1980279 2.8312500
v -6.3786105 0.1105693 2.8312500
v -6.3786105 0.1105693 3.0187500
v 1.7391411 0.1072919 3.0187500
v 6.3759206 0.1980279 3.0187500
v 6.3759206 0.1980279 2.8312500
v 1.7391411 0.1072919 2.8312500
v 1.7391411 0.1072919 2.8312500
v 6.3759206 0.1980279 2.8312500
v 6.3786105 0.1105693 2.8312500
v 1.7398748 0.0197949 2.8312500
v 6.3759206 0.1980279 2.8312500
v 6.3759206 0.1980279 3.0187500
v 6.3786105 0.1105693 3.0187500
v 6.3786105 0.1105693 2.8312500
v 6.3759206 0.1980279 3.0187500
v 1.7391411 0.1072919 3.0187500
v 1.7398748 0.0197949 3.0187500
v 6.3786105 0.1105693 3.0187500
v 1.7391411 0.1072919 3.0187500
v 1.7391411 0.1072919 2.8312500
v 1.7398748 0.0197949 2.8312500
v 1.7398748 0.0197949 3.0187500
vt 0.005000 0.995000
vt 0.245000 0.995000
vt 0.245000 0.755000
vt 0.255000 0.995000
vt 0.495000 0.995000
vt 0.495000 0.755000
vt 0.505000 0.995000
vt 0.745000 0.995000
vt 0.745000 0.755000
vt 0.755000 0.995000
vt 0.995000 0.995000
vt 0.995000 0.755000
vt 0.005000 0.745000
vt 0.245000 0.745000
vt 0.245000 0.505000
vt 0.255000 0.745000
vt 0.495000 0.745000
vt 0.495000 0.505000
vt 0.505000 0.745000
vt 0.745000 0.745000
vt 0.745000 0.505000
vt 0.755000 0.745000
vt 0.995000 0.745000
vt 0.995000 0.505000
vt 0.005000 0.495000
vt 0.245000 0.495000
vt 0.245000 0.255000
vt 0.255000 0.495000
vt 0.495000 0.495000
vt 0.495000 0.255000
vt 0.505000 0.495000
vt 0.745000 0.495000
vt 0.745000 0.255000
vt 0.755000 0.495000
vt 0.995000 0.495000
vt 0.995000 0.255000
vt 0.005000 0.245000
vt 0.245000 0.245000
vt 0.245000 0.005000
vt 0.255000 0.245000
vt 0.495000 0.245000
vt 0.495000 0.005000
vt 0.505000 0.245000
vt 0.745000 0.245000
vt 0.745000 0.005000
vt 0.755000 0.245000
vt 0.995000 0.245000
vt 0.995000 0.005000
g ornament
usemtl farm-kit
f 109/31 110/32 111/33
f 109/31 111/32 112/33
f 113/31 114/32 115/33
f 113/31 115/32 116/33
f 117/31 118/32 119/33
f 117/31 119/32 120/33
f 121/31 122/32 123/33
f 121/31 123/32 124/33
f 125/31 126/32 127/33
f 125/31 127/32 128/33
f 129/31 130/32 131/33
f 129/31 131/32 132/33
f 165/31 166/32 167/33
f 165/31 167/32 168/33
f 169/31 170/32 171/33
f 169/31 171/32 172/33
f 173/31 174/32 175/33
f 173/31 175/32 176/33
f 177/31 178/32 179/33
f 177/31 179/32 180/33
f 181/31 182/32 183/33
f 181/31 183/32 184/33
f 185/31 186/32 187/33
f 185/31 187/32 188/33
f 201/4 202/5 203/6
f 201/4 203/5 204/6
f 205/4 206/5 207/6
f 205/4 207/5 208/6
f 209/4 210/5 211/6
f 209/4 211/5 212/6
f 213/4 214/5 215/6
f 213/4 215/5 216/6
f 217/4 218/5 219/6
f 217/4 219/5 220/6
f 221/4 222/5 223/6
f 221/4 223/5 224/6
g solid
usemtl farm-kit
f 89/28 90/29 91/30
f 89/28 91/29 92/30
f 93/28 94/29 95/30
f 93/28 95/29 96/30
f 97/28 98/29 99/30
f 97/28 99/29 100/30
f 101/28 102/29 103/30
f 101/28 103/29 104/30
f 105/28 106/29 107/30
f 105/28 107/29 108/30
f 145/28 146/29 147/30
f 145/28 147/29 148/30
f 149/28 150/29 151/30
f 149/28 151/29 152/30
f 153/28 154/29 155/30
f 153/28 155/29 156/30
f 157/28 158/29 159/30
f 157/28 159/29 160/30
f 161/28 162/29 163/30
f 161/28 163/29 164/30
f 225/7 226/8 227/9
f 225/7 227/8 228/9
f 229/7 230/8 231/9
f 229/7 231/8 232/9
f 233/7 234/8 235/9
f 233/7 235/8 236/9
f 237/7 238/8 239/9
f 237/7 239/8 240/9
f 241/7 242/8 243/9
f 241/7 243/8 244/9
f 245/7 246/8 247/9
f 245/7 247/8 248/9
f 249/7 250/8 251/9
f 249/7 251/8 252/9
f 253/7 254/8 255/9
f 253/7 255/8 256/9
f 257/7 258/8 259/9
f 257/7 259/8 260/9
f 261/7 262/8 263/9
f 261/7 263/8 264/9
f 265/7 266/8 267/9
f 265/7 267/8 268/9
f 269/7 270/8 271/9
f 269/7 271/8 272/9
f 273/7 274/8 275/9
f 273/7 275/8 276/9
f 277/7 278/8 279/9
f 277/7 279/8 280/9
f 281/7 282/8 283/9
f 281/7 283/8 284/9
f 285/7 286/8 287/9
f 285/7 287/8 288/9
f 289/7 290/8 291/9
f 289/7 291/8 292/9
f 293/7 294/8 295/9
f 293/7 295/8 296/9
f 297/7 298/8 299/9
f 297/7 299/8 300/9
f 301/7 302/8 303/9
f 301/7 303/8 304/9
f 305/7 306/8 307/9
f 305/7 307/8 308/9
f 309/7 310/8 311/9
f 309/7 311/8 312/9
f 313/7 314/8 315/9
f 313/7 315/8 316/9
f 317/7 318/8 319/9
f 317/7 319/8 320/9
f 321/7 322/8 323/9
f 321/7 323/8 324/9
f 325/7 326/8 327/9
f 325/7 327/8 328/9
f 329/7 330/8 331/9
f 329/7 331/8 332/9
f 333/7 334/8 335/9
f 333/7 335/8 336/9
f 337/7 338/8 339/9
f 337/7 339/8 340/9
f 341/7 342/8 343/9
f 341/7 343/8 344/9
f 345/7 346/8 347/9
f 345/7 347/8 348/9
f 349/7 350/8 351/9
f 349/7 351/8 352/9
f 353/7 354/8 355/9
f 353/7 355/8 356/9
f 357/7 358/8 359/9
f 357/7 359/8 360/9
f 361/7 362/8 363/9
f 361/7 363/8 364/9
f 365/7 366/8 367/9
f 365/7 367/8 368/9
f 369/7 370/8 371/9
f 369/7 371/8 372/9
f 373/7 374/8 375/9
f 373/7 375/8 376/9
f 377/7 378/8 379/9
f 377/7 379/8 380/9
f 381/7 382/8 383/9
f 381/7 383/8 384/9
f 385/7 386/8 387/9
f 385/7 387/8 388/9
f 389/7 390/8 391/9
f 389/7 391/8 392/9
f 393/7 394/8 395/9
f 393/7 395/8 396/9
f 397/7 398/8 399/9
f 397/7 399/8 400/9
f 401/7 402/8 403/9
f 401/7 403/8 404/9
f 405/7 406/8 407/9
f 405/7 407/8 408/9
f 409/7 410/8 411/9
f 409/7 411/8 412/9
f 413/7 414/8 415/9
f 413/7 415/8 416/9
f 417/7 418/8 419/9
f 417/7 419/8 420/9
f 421/7 422/8 423/9
f 421/7 423/8 424/9
g support
usemtl farm-kit
f 1/1 2/2 3/3
f 1/1 3/2 4/3
f 5/1 6/2 7/3
f 5/1 7/2 8/3
f 9/1 10/2 11/3
f 9/1 11/2 12/3
f 13/1 14/2 15/3
f 13/1 15/2 16/3
f 17/1 18/2 19/3
f 17/1 19/2 20/3
f 21/1 22/2 23/3
f 21/1 23/2 24/3
f 25/1 26/2 27/3
f 25/1 27/2 28/3
f 29/4 30/5 31/6
f 29/4 31/5 32/6
f 33/4 34/5 35/6
f 33/4 35/5 36/6
f 37/4 38/5 39/6
f 37/4 39/5 40/6
f 41/4 42/5 43/6
f 41/4 43/5 44/6
f 45/4 46/5 47/6
f 45/4 47/5 48/6
f 49/4 50/5 51/6
f 49/4 51/5 52/6
f 53/4 54/5 55/6
f 53/4 55/5 56/6
f 57/4 58/5 59/6
f 57/4 59/5 60/6
f 61/4 62/5 63/6
f 61/4 63/5 64/6
f 65/4 66/5 67/6
f 65/4 67/5 68/6
f 69/4 70/5 71/6
f 69/4 71/5 72/6
f 73/4 74/5 75/6
f 73/4 75/5 76/6
f 77/4 78/5 79/6
f 77/4 79/5 80/6
f 81/4 82/5 83/6
f 81/4 83/5 84/6
f 85/4 86/5 87/6
f 85/4 87/5 88/6
f 133/4 134/5 135/6
f 133/4 135/5 136/6
f 137/4 138/5 139/6
f 137/4 139/5 140/6
f 141/4 142/5 143/6
f 141/4 143/5 144/6
f 189/4 190/5 191/6
f 189/4 191/5 192/6
f 193/4 194/5 195/6
f 193/4 195/5 196/6
f 197/4 198/5 199/6
f 197/4 199/5 200/6
