mtllib TorusSettlementFarm_Wheat.mtl
v -7.2485250 0.1266437 3.7500000
v -5.1780339 0.0646174 3.7500000
v -5.1780339 0.0646174 -3.7500000
v -7.2485250 0.1266437 -3.7500000
v -5.1780339 0.0646174 3.7500000
v -3.1070267 0.0232630 3.7500000
v -3.1070267 0.0232630 -3.7500000
v -5.1780339 0.0646174 -3.7500000
v -3.1070267 0.0232630 3.7500000
v -1.0357100 0.0025848 3.7500000
v -1.0357100 0.0025848 -3.7500000
v -3.1070267 0.0232630 -3.7500000
v -1.0357100 0.0025848 3.7500000
v 1.0357100 0.0025848 3.7500000
v 1.0357100 0.0025848 -3.7500000
v -1.0357100 0.0025848 -3.7500000
v 1.0357100 0.0025848 3.7500000
v 3.1070267 0.0232630 3.7500000
v 3.1070267 0.0232630 -3.7500000
v 1.0357100 0.0025848 -3.7500000
v 3.1070267 0.0232630 3.7500000
v 5.1780339 0.0646174 3.7500000
v 5.1780339 0.0646174 -3.7500000
v 3.1070267 0.0232630 -3.7500000
v 5.1780339 0.0646174 3.7500000
v 7.2485250 0.1266437 3.7500000
v 7.2485250 0.1266437 -3.7500000
v 5.1780339 0.0646174 -3.7500000
v -7.2480883 0.1391361 -3.4000000
v -5.1777219 0.0771135 -3.4000000
v -5.1777219 0.0771135 -3.7500000
v -7.2480883 0.1391361 -3.7500000
v -5.1777219 0.0771135 -3.4000000
v -3.1068396 0.0357616 -3.4000000
v -3.1068396 0.0357616 -3.7500000
v -5.1777219 0.0771135 -3.7500000
v -3.1068396 0.0357616 -3.4000000
v -1.0356476 0.0150847 -3.4000000
v -1.0356476 0.0150847 -3.7500000
v -3.1068396 0.0357616 -3.7500000
v -1.0356476 0.0150847 -3.4000000
v 1.0356476 0.0150847 -3.4000000
v 1.0356476 0.0150847 -3.7500000
v -1.0356476 0.0150847 -3.7500000
v 1.0356476 0.0150847 -3.4000000
v 3.1068396 0.0357616 -3.4000000
v 3.1068396 0.0357616 -3.7500000
v 1.0356476 0.0150847 -3.7500000
v 3.1068396 0.0357616 -3.4000000
v 5.1777219 0.0771135 -3.4000000
v 5.1777219 0.0771135 -3.7500000
v 3.1068396 0.0357616 -3.7500000
v 5.1777219 0.0771135 -3.4000000
v 7.2480883 0.1391361 -3.4000000
v 7.2480883 0.1391361 -3.7500000
v 5.1777219 0.0771135 -3.7500000
v -7.2480883 0.1391361 3.7500000
v -5.1777219 0.0771135 3.7500000
v -5.1777219 0.0771135 3.4000000
v -7.2480883 0.1391361 3.4000000
v -5.1777219 0.0771135 3.7500000
v -3.1068396 0.0357616 3.7500000
v -3.1068396 0.0357616 3.4000000
v -5.1777219 0.0771135 3.4000000
v -3.1068396 0.0357616 3.7500000
v -1.0356476 0.0150847 3.7500000
v -1.0356476 0.0150847 3.4000000
v -3.1068396 0.0357616 3.4000000
v -1.0356476 0.0150847 3.7500000
v 1.0356476 0.0150847 3.7500000
v 1.0356476 0.0150847 3.4000000
v -1.0356476 0.0150847 3.4000000
v 1.0356476 0.0150847 3.7500000
v 3.1068396 0.0357616 3.7500000
v 3.1068396 0.0357616 3.4000000
v 1.0356476 0.0150847 3.4000000
v 3.1068396 0.0357616 3.7500000
v 5.1777219 0.0771135 3.7500000
v 5.1777219 0.0771135 3.4000000
v 3.1068396 0.0357616 3.4000000
v 5.1777219 0.0771135 3.7500000
v 7.2480883 0.1391361 3.7500000
v 7.2480883 0.1391361 3.4000000
v 5.1777219 0.0771135 3.4000000
v -0.2999818 0.0127169 3.7500000
v 0.2999818 0.0127169 3.7500000
v 0.2999818 0.0127169 -3.7500000
v -0.2999818 0.0127169 -3.7500000
v -6.8912479 0.3395879 -3.2348571
v -4.7028243 0.2783576 -3.2348571
v -4.7065113 0.1158995 -3.4000000
v -6.8966505 0.1771778 -3.4000000
v -6.8966505 0.1771778 -3.0697143
v -4.7065113 0.1158995 -3.0697143
v -4.7028243 0.2783576 -3.2348571
v -6.8912479 0.3395879 -3.2348571
v -4.7028243 0.2783576 -3.2348571
v -2.5138761 0.2402450 -3.2348571
v -2.5158470 0.0777569 -3.4000000
v -4.7065113 0.1158995 -3.4000000
v -4.7065113 0.1158995 -3.0697143
v -2.5158470 0.0777569 -3.0697143
v -2.5138761 0.2402450 -3.2348571
v -4.7028243 0.2783576 -3.2348571
v -2.5138761 0.2402450 -3.2348571
v -0.3246475 0.2252542 -3.2348571
v -0.3249020 0.0627544 -3.4000000
v -2.5158470 0.0777569 -3.4000000
v -2.5158470 0.0777569 -3.0697143
v -0.3249020 0.0627544 -3.0697143
v -0.3246475 0.2252542 -3.2348571
v -2.5138761 0.2402450 -3.2348571
v 0.3246475 0.2252542 -3.2348571
v 2.5138761 0.2402450 -3.2348571
v 2.5158470 0.0777569 -3.4000000
v 0.3249020 0.0627544 -3.4000000
v 0.3249020 0.0627544 -3.0697143
v 2.5158470 0.0777569 -3.0697143
v 2.5138761 0.2402450 -3.2348571
v 0.3246475 0.2252542 -3.2348571
v 2.5138761 0.2402450 -3.2348571
v 4.7028243 0.2783576 -3.2348571
v 4.7065113 0.1158995 -3.4000000
v 2.5158470 0.0777569 -3.4000000
v 2.5158470 0.0777569 -3.0697143
v 4.7065113 0.1158995 -3.0697143
v 4.7028243 0.2783576 -3.2348571
v 2.5138761 0.2402450 -3.2348571
v 4.7028243 0.2783576 -3.2348571
v 6.8912479 0.3395879 -3.2348571
v 6.8966505 0.1771778 -3.4000000
v 4.7065113 0.1158995 -3.4000000
v 4.7065113 0.1158995 -3.0697143
v 6.8966505 0.1771778 -3.0697143
v 6.8912479 0.3395879 -3.2348571
v 4.7028243 0.2783576 -3.2348571
v -6.8912479 0.3395879 -2.7491429
v -4.7028243 0.2783576 -2.7491429
v -4.7065113 0.1158995 -2.9142857
v -6.8966505 0.1771778 -2.9142857
v -6.8966505 0.1771778 -2.5840000
v -4.7065113 0.1158995 -2.5840000
v -4.7028243 0.2783576 -2.7491429
v -6.8912479 0.3395879 -2.7491429
v -4.7028243 0.2783576 -2.7491429
v -2.5138761 0.2402450 -2.7491429
v -2.5158470 0.0777569 -2.9142857
v -4.7065113 0.1158995 -2.9142857
v -4.7065113 0.1158995 -2.5840000
v -2.5158470 0.0777569 -2.5840000
v -2.5138761 0.2402450 -2.7491429
v -4.7028243 0.2783576 -2.7491429
v -2.5138761 0.2402450 -2.7491429
v -0.3246475 0.2252542 -2.7491429
v -0.3249020 0.0627544 -2.9142857
v -2.5158470 0.0777569 -2.9142857
v -2.5158470 0.0777569 -2.5840000
v -0.3249020 0.0627544 -2.5840000
v -0.3246475 0.2252542 -2.7491429
v -2.5138761 0.2402450 -2.7491429
v 0.3246475 0.2252542 -2.7491429
v 2.5138761 0.2402450 -2.7491429
v 2.5158470 0.0777569 -2.9142857
v 0.3249020 0.0627544 -2.9142857
v 0.3249020 0.0627544 -2.5840000
v 2.5158470 0.0777569 -2.5840000
v 2.5138761 0.2402450 -2.7491429
v 0.3246475 0.2252542 -2.7491429
v 2.5138761 0.2402450 -2.7491429
v 4.7028243 0.2783576 -2.7491429
v 4.7065113 0.1158995 -2.9142857
v 2.5158470 0.0777569 -2.9142857
v 2.5158470 0.0777569 -2.5840000
v 4.7065113 0.1158995 -2.5840000
v 4.7028243 0.2783576 -2.7491429
v 2.5138761 0.2402450 -2.7491429
v 4.7028243 0.2783576 -2.7491429
v 6.8912479 0.3395879 -2.7491429
v 6.8966505 0.1771778 -2.9142857
v 4.7065113 0.1158995 -2.9142857
v 4.7065113 0.1158995 -2.5840000
v 6.8966505 0.1771778 -2.5840000
v 6.8912479 0.3395879 -2.7491429
v 4.7028243 0.2783576 -2.7491429
v -6.8912479 0.3395879 -2.2634286
v -4.7028243 0.2783576 -2.2634286
v -4.7065113 0.1158995 -2.4285714
v -6.8966505 0.1771778 -2.4285714
v -6.8966505 0.1771778 -2.0982857
v -4.7065113 0.1158995 -2.0982857
v -4.7028243 0.2783576 -2.2634286
v -6.8912479 0.3395879 -2.2634286
v -4.7028243 0.2783576 -2.2634286
v -2.5138761 0.2402450 -2.2634286
v -2.5158470 0.0777569 -2.4285714
v -4.7065113 0.1158995 -2.4285714
v -4.7065113 0.1158995 -2.0982857
v -2.5158470 0.0777569 -2.0982857
v -2.5138761 0.2402450 -2.2634286
v -4.7028243 0.2783576 -2.2634286
v -2.5138761 0.2402450 -2.2634286
v -0.3246475 0.2252542 -2.2634286
v -0.3249020 0.0627544 -2.4285714
v -2.5158470 0.0777569 -2.4285714
v -2.5158470 0.0777569 -2.0982857
v -0.3249020 0.0627544 -2.0982857
v -0.3246475 0.2252542 -2.2634286
v -2.5138761 0.2402450 -2.2634286
v 0.3246475 0.2252542 -2.2634286
v 2.5138761 0.2402450 -2.2634286
v 2.5158470 0.0777569 -2.4285714
v 0.3249020 0.0627544 -2.4285714
v 0.3249020 0.0627544 -2.0982857
v 2.5158470 0.0777569 -2.0982857
v 2.5138761 0.2402450 -2.2634286
v 0.3246475 0.2252542 -2.2634286
v 2.5138761 0.2402450 -2.2634286
v 4.7028243 0.2783576 -2.2634286
v 4.7065113 0.1158995 -2.4285714
v 2.5158470 0.0777569 -2.4285714
v 2.5158470 0.0777569 -2.0982857
v 4.7065113 0.1158995 -2.0982857
v 4.7028243 0.2783576 -2.2634286
v 2.5138761 0.2402450 -2.2634286
v 4.7028243 0.2783576 -2.2634286
v 6.8912479 0.3395879 -2.2634286
v 6.8966505 0.1771778 -2.4285714
v 4.7065113 0.1158995 -2.4285714
v 4.7065113 0.1158995 -2.0982857
v 6.8966505 0.1771778 -2.0982857
v 6.8912479 0.3395879 -2.2634286
v 4.7028243 0.2783576 -2.2634286
v -6.8912479 0.3395879 -1.7777143
v -4.7028243 0.2783576 -1.7777143
v -4.7065113 0.1158995 -1.9428571
v -6.8966505 0.1771778 -1.9428571
v -6.8966505 0.1771778 -1.6125714
v -4.7065113 0.1158995 -1.6125714
v -4.7028243 0.2783576 -1.7777143
v -6.8912479 0.3395879 -1.7777143
v -4.7028243 0.2783576 -1.7777143
v -2.5138761 0.2402450 -1.7777143
v -2.5158470 0.0777569 -1.9428571
v -4.7065113 0.1158995 -1.9428571
v -4.7065113 0.1158995 -1.6125714
v -2.5158470 0.0777569 -1.6125714
v -2.5138761 0.2402450 -1.7777143
v -4.7028243 0.2783576 -1.7777143
v -2.5138761 0.2402450 -1.7777143
v -0.3246475 0.2252542 -1.7777143
v -0.3249020 0.0627544 -1.9428571
v -2.5158470 0.0777569 -1.9428571
v -2.5158470 0.0777569 -1.6125714
v -0.3249020 0.0627544 -1.6125714
v -0.3246475 0.2252542 -1.7777143
v -2.5138761 0.2402450 -1.7777143
v 0.3246475 0.2252542 -1.7777143
v 2.5138761 0.2402450 -1.7777143
v 2.5158470 0.0777569 -1.9428571
v 0.3249020 0.0627544 -1.9428571
v 0.3249020 0.0627544 -1.6125714
v 2.5158470 0.0777569 -1.6125714
v 2.5138761 0.2402450 -1.7777143
v 0.3246475 0.2252542 -1.7777143
v 2.5138761 0.2402450 -1.7777143
v 4.7028243 0.2783576 -1.7777143
v 4.7065113 0.1158995 -1.9428571
v 2.5158470 0.0777569 -1.9428571
v 2.5158470 0.0777569 -1.6125714
v 4.7065113 0.1158995 -1.6125714
v 4.7028243 0.2783576 -1.7777143
v 2.5138761 0.2402450 -1.7777143
v 4.7028243 0.2783576 -1.7777143
v 6.8912479 0.3395879 -1.7777143
v 6.8966505 0.1771778 -1.9428571
v 4.7065113 0.1158995 -1.9428571
v 4.7065113 0.1158995 -1.6125714
v 6.8966505 0.1771778 -1.6125714
v 6.8912479 0.3395879 -1.7777143
v 4.7028243 0.2783576 -1.7777143
v -6.8912479 0.3395879 -1.2920000
v -4.7028243 0.2783576 -1.2920000
v -4.7065113 0.1158995 -1.4571429
v -6.8966505 0.1771778 -1.4571429
v -6.8966505 0.1771778 -1.1268571
v -4.7065113 0.1158995 -1.1268571
v -4.7028243 0.2783576 -1.2920000
v -6.8912479 0.3395879 -1.2920000
v -4.7028243 0.2783576 -1.2920000
v -2.5138761 0.2402450 -1.2920000
v -2.5158470 0.0777569 -1.4571429
v -4.7065113 0.1158995 -1.4571429
v -4.7065113 0.1158995 -1.1268571
v -2.5158470 0.0777569 -1.1268571
v -2.5138761 0.2402450 -1.2920000
v -4.7028243 0.2783576 -1.2920000
v -2.5138761 0.2402450 -1.2920000
v -0.3246475 0.2252542 -1.2920000
v -0.3249020 0.0627544 -1.4571429
v -2.5158470 0.0777569 -1.4571429
v -2.5158470 0.0777569 -1.1268571
v -0.3249020 0.0627544 -1.1268571
v -0.3246475 0.2252542 -1.2920000
v -2.5138761 0.2402450 -1.2920000
v 0.3246475 0.2252542 -1.2920000
v 2.5138761 0.2402450 -1.2920000
v 2.5158470 0.0777569 -1.4571429
v 0.3249020 0.0627544 -1.4571429
v 0.3249020 0.0627544 -1.1268571
v 2.5158470 0.0777569 -1.1268571
v 2.5138761 0.2402450 -1.2920000
v 0.3246475 0.2252542 -1.2920000
v 2.5138761 0.2402450 -1.2920000
v 4.7028243 0.2783576 -1.2920000
v 4.7065113 0.1158995 -1.4571429
v 2.5158470 0.0777569 -1.4571429
v 2.5158470 0.0777569 -1.1268571
v 4.7065113 0.1158995 -1.1268571
v 4.7028243 0.2783576 -1.2920000
v 2.5138761 0.2402450 -1.2920000
v 4.7028243 0.2783576 -1.2920000
v 6.8912479 0.3395879 -1.2920000
v 6.8966505 0.1771778 -1.4571429
v 4.7065113 0.1158995 -1.4571429
v 4.7065113 0.1158995 -1.1268571
v 6.8966505 0.1771778 -1.1268571
v 6.8912479 0.3395879 -1.2920000
v 4.7028243 0.2783576 -1.2920000
v -6.8912479 0.3395879 -0.8062857
v -4.7028243 0.2783576 -0.8062857
v -4.7065113 0.1158995 -0.9714286
v -6.8966505 0.1771778 -0.9714286
v -6.8966505 0.1771778 -0.6411429
v -4.7065113 0.1158995 -0.6411429
v -4.7028243 0.2783576 -0.8062857
v -6.8912479 0.3395879 -0.8062857
v -4.7028243 0.2783576 -0.8062857
v -2.5138761 0.2402450 -0.8062857
v -2.5158470 0.0777569 -0.9714286
v -4.7065113 0.1158995 -0.9714286
v -4.7065113 0.1158995 -0.6411429
v -2.5158470 0.0777569 -0.6411429
v -2.5138761 0.2402450 -0.8062857
v -4.7028243 0.2783576 -0.8062857
v -2.5138761 0.2402450 -0.8062857
v -0.3246475 0.2252542 -0.8062857
v -0.3249020 0.0627544 -0.9714286
v -2.5158470 0.0777569 -0.9714286
v -2.5158470 0.0777569 -0.6411429
v -0.3249020 0.0627544 -0.6411429
v -0.3246475 0.2252542 -0.8062857
v -2.5138761 0.2402450 -0.8062857
v 0.3246475 0.2252542 -0.8062857
v 2.5138761 0.2402450 -0.8062857
v 2.5158470 0.0777569 -0.9714286
v 0.3249020 0.0627544 -0.9714286
v 0.3249020 0.0627544 -0.6411429
v 2.5158470 0.0777569 -0.6411429
v 2.5138761 0.2402450 -0.8062857
v 0.3246475 0.2252542 -0.8062857
v 2.5138761 0.2402450 -0.8062857
v 4.7028243 0.2783576 -0.8062857
v 4.7065113 0.1158995 -0.9714286
v 2.5158470 0.0777569 -0.9714286
v 2.5158470 0.0777569 -0.6411429
v 4.7065113 0.1158995 -0.6411429
v 4.7028243 0.2783576 -0.8062857
v 2.5138761 0.2402450 -0.8062857
v 4.7028243 0.2783576 -0.8062857
v 6.8912479 0.3395879 -0.8062857
v 6.8966505 0.1771778 -0.9714286
v 4.7065113 0.1158995 -0.9714286
v 4.7065113 0.1158995 -0.6411429
v 6.8966505 0.1771778 -0.6411429
v 6.8912479 0.3395879 -0.8062857
v 4.7028243 0.2783576 -0.8062857
v -6.8912479 0.3395879 -0.3205714
v -4.7028243 0.2783576 -0.3205714
v -4.7065113 0.1158995 -0.4857143
v -6.8966505 0.1771778 -0.4857143
v -6.8966505 0.1771778 -0.1554286
v -4.7065113 0.1158995 -0.1554286
v -4.7028243 0.2783576 -0.3205714
v -6.8912479 0.3395879 -0.3205714
v -4.7028243 0.2783576 -0.3205714
v -2.5138761 0.2402450 -0.3205714
v -2.5158470 0.0777569 -0.4857143
v -4.7065113 0.1158995 -0.4857143
v -4.7065113 0.1158995 -0.1554286
v -2.5158470 0.0777569 -0.1554286
v -2.5138761 0.2402450 -0.3205714
v -4.7028243 0.2783576 -0.3205714
v -2.5138761 0.2402450 -0.3205714
v -0.3246475 0.2252542 -0.3205714
v -0.3249020 0.0627544 -0.4857143
v -2.5158470 0.0777569 -0.4857143
v -2.5158470 0.0777569 -0.1554286
v -0.3249020 0.0627544 -0.1554286
v -0.3246475 0.2252542 -0.3205714
v -2.5138761 0.2402450 -0.3205714
v 0.3246475 0.2252542 -0.3205714
v 2.5138761 0.2402450 -0.3205714
v 2.5158470 0.0777569 -0.4857143
v 0.3249020 0.0627544 -0.4857143
v 0.3249020 0.0627544 -0.1554286
v 2.5158470 0.0777569 -0.1554286
v 2.5138761 0.2402450 -0.3205714
v 0.3246475 0.2252542 -0.3205714
v 2.5138761 0.2402450 -0.3205714
v 4.7028243 0.2783576 -0.3205714
v 4.7065113 0.1158995 -0.4857143
v 2.5158470 0.0777569 -0.4857143
v 2.5158470 0.0777569 -0.1554286
v 4.7065113 0.1158995 -0.1554286
v 4.7028243 0.2783576 -0.3205714
v 2.5138761 0.2402450 -0.3205714
v 4.7028243 0.2783576 -0.3205714
v 6.8912479 0.3395879 -0.3205714
v 6.8966505 0.1771778 -0.4857143
v 4.7065113 0.1158995 -0.4857143
v 4.7065113 0.1158995 -0.1554286
v 6.8966505 0.1771778 -0.1554286
v 6.8912479 0.3395879 -0.3205714
v 4.7028243 0.2783576 -0.3205714
v -6.8912479 0.3395879 0.1651429
v -4.7028243 0.2783576 0.1651429
v -4.7065113 0.1158995 0.0000000
v -6.8966505 0.1771778 0.0000000
v -6.8966505 0.1771778 0.3302857
v -4.7065113 0.1158995 0.3302857
v -4.7028243 0.2783576 0.1651429
v -6.8912479 0.3395879 0.1651429
v -4.7028243 0.2783576 0.1651429
v -2.5138761 0.2402450 0.1651429
v -2.5158470 0.0777569 0.0000000
v -4.7065113 0.1158995 0.0000000
v -4.7065113 0.1158995 0.3302857
v -2.5158470 0.0777569 0.3302857
v -2.5138761 0.2402450 0.1651429
v -4.7028243 0.2783576 0.1651429
v -2.5138761 0.2402450 0.1651429
v -0.3246475 0.2252542 0.1651429
v -0.3249020 0.0627544 0.0000000
v -2.5158470 0.0777569 0.0000000
v -2.5158470 0.0777569 0.3302857
v -0.3249020 0.0627544 0.3302857
v -0.3246475 0.2252542 0.1651429
v -2.5138761 0.2402450 0.1651429
v 0.3246475 0.2252542 0.1651429
v 2.5138761 0.2402450 0.1651429
v 2.5158470 0.0777569 0.0000000
v 0.3249020 0.0627544 0.0000000
v 0.3249020 0.0627544 0.3302857
v 2.5158470 0.0777569 0.3302857
v 2.5138761 0.2402450 0.1651429
v 0.3246475 0.2252542 0.1651429
v 2.5138761 0.2402450 0.1651429
v 4.7028243 0.2783576 0.1651429
v 4.7065113 0.1158995 0.0000000
v 2.5158470 0.0777569 0.0000000
v 2.5158470 0.0777569 0.3302857
v 4.7065113 0.1158995 0.3302857
v 4.7028243 0.2783576 0.1651429
v 2.5138761 0.2402450 0.1651429
v 4.7028243 0.2783576 0.1651429
v 6.8912479 0.3395879 0.1651429
v 6.8966505 0.1771778 0.0000000
v 4.7065113 0.1158995 0.0000000
v 4.7065113 0.1158995 0.3302857
v 6.8966505 0.1771778 0.3302857
v 6.8912479 0.3395879 0.1651429
v 4.7028243 0.2783576 0.1651429
v -6.8912479 0.3395879 0.6508571
v -4.7028243 0.2783576 0.6508571
v -4.7065113 0.1158995 0.4857143
v -6.8966505 0.1771778 0.4857143
v -6.8966505 0.1771778 0.8160000
v -4.7065113 0.1158995 0.8160000
v -4.7028243 0.2783576 0.6508571
v -6.8912479 0.3395879 0.6508571
v -4.7028243 0.2783576 0.6508571
v -2.5138761 0.2402450 0.6508571
v -2.5158470 0.0777569 0.4857143
v -4.7065113 0.1158995 0.4857143
v -4.7065113 0.1158995 0.8160000
v -2.5158470 0.0777569 0.8160000
v -2.5138761 0.2402450 0.6508571
v -4.7028243 0.2783576 0.6508571
v -2.5138761 0.2402450 0.6508571
v -0.3246475 0.2252542 0.6508571
v -0.3249020 0.0627544 0.4857143
v -2.5158470 0.0777569 0.4857143
v -2.5158470 0.0777569 0.8160000
v -0.3249020 0.0627544 0.8160000
v -0.3246475 0.2252542 0.6508571
v -2.5138761 0.2402450 0.6508571
v 0.3246475 0.2252542 0.6508571
v 2.5138761 0.2402450 0.6508571
v 2.5158470 0.0777569 0.4857143
v 0.3249020 0.0627544 0.4857143
v 0.3249020 0.0627544 0.8160000
v 2.5158470 0.0777569 0.8160000
v 2.5138761 0.2402450 0.6508571
v 0.3246475 0.2252542 0.6508571
v 2.5138761 0.2402450 0.6508571
v 4.7028243 0.2783576 0.6508571
v 4.7065113 0.1158995 0.4857143
v 2.5158470 0.0777569 0.4857143
v 2.5158470 0.0777569 0.8160000
v 4.7065113 0.1158995 0.8160000
v 4.7028243 0.2783576 0.6508571
v 2.5138761 0.2402450 0.6508571
v 4.7028243 0.2783576 0.6508571
v 6.8912479 0.3395879 0.6508571
v 6.8966505 0.1771778 0.4857143
v 4.7065113 0.1158995 0.4857143
v 4.7065113 0.1158995 0.8160000
v 6.8966505 0.1771778 0.8160000
v 6.8912479 0.3395879 0.6508571
v 4.7028243 0.2783576 0.6508571
v -6.8912479 0.3395879 1.1365714
v -4.7028243 0.2783576 1.1365714
v -4.7065113 0.1158995 0.9714286
v -6.8966505 0.1771778 0.9714286
v -6.8966505 0.1771778 1.3017143
v -4.7065113 0.1158995 1.3017143
v -4.7028243 0.2783576 1.1365714
v -6.8912479 0.3395879 1.1365714
v -4.7028243 0.2783576 1.1365714
v -2.5138761 0.2402450 1.1365714
v -2.5158470 0.0777569 0.9714286
v -4.7065113 0.1158995 0.9714286
v -4.7065113 0.1158995 1.3017143
v -2.5158470 0.0777569 1.3017143
v -2.5138761 0.2402450 1.1365714
v -4.7028243 0.2783576 1.1365714
v -2.5138761 0.2402450 1.1365714
v -0.3246475 0.2252542 1.1365714
v -0.3249020 0.0627544 0.9714286
v -2.5158470 0.0777569 0.9714286
v -2.5158470 0.0777569 1.3017143
v -0.3249020 0.0627544 1.3017143
v -0.3246475 0.2252542 1.1365714
v -2.5138761 0.2402450 1.1365714
v 0.3246475 0.2252542 1.1365714
v 2.5138761 0.2402450 1.1365714
v 2.5158470 0.0777569 0.9714286
v 0.3249020 0.0627544 0.9714286
v 0.3249020 0.0627544 1.3017143
v 2.5158470 0.0777569 1.3017143
v 2.5138761 0.2402450 1.1365714
v 0.3246475 0.2252542 1.1365714
v 2.5138761 0.2402450 1.1365714
v 4.7028243 0.2783576 1.1365714
v 4.7065113 0.1158995 0.9714286
v 2.5158470 0.0777569 0.9714286
v 2.5158470 0.0777569 1.3017143
v 4.7065113 0.1158995 1.3017143
v 4.7028243 0.2783576 1.1365714
v 2.5138761 0.2402450 1.1365714
v 4.7028243 0.2783576 1.1365714
v 6.8912479 0.3395879 1.1365714
v 6.8966505 0.1771778 0.9714286
v 4.7065113 0.1158995 0.9714286
v 4.7065113 0.1158995 1.3017143
v 6.8966505 0.1771778 1.3017143
v 6.8912479 0.3395879 1.1365714
v 4.7028243 0.2783576 1.1365714
v -6.8912479 0.3395879 1.6222857
v -4.7028243 0.2783576 1.6222857
v -4.7065113 0.1158995 1.4571429
v -6.8966505 0.1771778 1.4571429
v -6.8966505 0.1771778 1.7874286
v -4.7065113 0.1158995 1.7874286
v -4.7028243 0.2783576 1.6222857
v -6.8912479 0.3395879 1.6222857
v -4.7028243 0.2783576 1.6222857
v -2.5138761 0.2402450 1.6222857
v -2.5158470 0.0777569 1.4571429
v -4.7065113 0.1158995 1.4571429
v -4.7065113 0.1158995 1.7874286
v -2.5158470 0.0777569 1.7874286
v -2.5138761 0.2402450 1.6222857
v -4.7028243 0.2783576 1.6222857
v -2.5138761 0.2402450 1.6222857
v -0.3246475 0.2252542 1.6222857
v -0.3249020 0.0627544 1.4571429
v -2.5158470 0.0777569 1.4571429
v -2.5158470 0.0777569 1.7874286
v -0.3249020 0.0627544 1.7874286
v -0.3246475 0.2252542 1.6222857
v -2.5138761 0.2402450 1.6222857
v 0.3246475 0.2252542 1.6222857
v 2.5138761 0.2402450 1.6222857
v 2.5158470 0.0777569 1.4571429
v 0.3249020 0.0627544 1.4571429
v 0.3249020 0.0627544 1.7874286
v 2.5158470 0.0777569 1.7874286
v 2.5138761 0.2402450 1.6222857
v 0.3246475 0.2252542 1.6222857
v 2.5138761 0.2402450 1.6222857
v 4.7028243 0.2783576 1.6222857
v 4.7065113 0.1158995 1.4571429
v 2.5158470 0.0777569 1.4571429
v 2.5158470 0.0777569 1.7874286
v 4.7065113 0.1158995 1.7874286
v 4.7028243 0.2783576 1.6222857
v 2.5138761 0.2402450 1.6222857
v 4.7028243 0.2783576 1.6222857
v 6.8912479 0.3395879 1.6222857
v 6.8966505 0.1771778 1.4571429
v 4.7065113 0.1158995 1.4571429
v 4.7065113 0.1158995 1.7874286
v 6.8966505 0.1771778 1.7874286
v 6.8912479 0.3395879 1.6222857
v 4.7028243 0.2783576 1.6222857
v -6.8912479 0.3395879 2.1080000
v -4.7028243 0.2783576 2.1080000
v -4.7065113 0.1158995 1.9428571
v -6.8966505 0.1771778 1.9428571
v -6.8966505 0.1771778 2.2731429
v -4.7065113 0.1158995 2.2731429
v -4.7028243 0.2783576 2.1080000
v -6.8912479 0.3395879 2.1080000
v -4.7028243 0.2783576 2.1080000
v -2.5138761 0.2402450 2.1080000
v -2.5158470 0.0777569 1.9428571
v -4.7065113 0.1158995 1.9428571
v -4.7065113 0.1158995 2.2731429
v -2.5158470 0.0777569 2.2731429
v -2.5138761 0.2402450 2.1080000
v -4.7028243 0.2783576 2.1080000
v -2.5138761 0.2402450 2.1080000
v -0.3246475 0.2252542 2.1080000
v -0.3249020 0.0627544 1.9428571
v -2.5158470 0.0777569 1.9428571
v -2.5158470 0.0777569 2.2731429
v -0.3249020 0.0627544 2.2731429
v -0.3246475 0.2252542 2.1080000
v -2.5138761 0.2402450 2.1080000
v 0.3246475 0.2252542 2.1080000
v 2.5138761 0.2402450 2.1080000
v 2.5158470 0.0777569 1.9428571
v 0.3249020 0.0627544 1.9428571
v 0.3249020 0.0627544 2.2731429
v 2.5158470 0.0777569 2.2731429
v 2.5138761 0.2402450 2.1080000
v 0.3246475 0.2252542 2.1080000
v 2.5138761 0.2402450 2.1080000
v 4.7028243 0.2783576 2.1080000
v 4.7065113 0.1158995 1.9428571
v 2.5158470 0.0777569 1.9428571
v 2.5158470 0.0777569 2.2731429
v 4.7065113 0.1158995 2.2731429
v 4.7028243 0.2783576 2.1080000
v 2.5138761 0.2402450 2.1080000
v 4.7028243 0.2783576 2.1080000
v 6.8912479 0.3395879 2.1080000
v 6.8966505 0.1771778 1.9428571
v 4.7065113 0.1158995 1.9428571
v 4.7065113 0.1158995 2.2731429
v 6.8966505 0.1771778 2.2731429
v 6.8912479 0.3395879 2.1080000
v 4.7028243 0.2783576 2.1080000
v -6.8912479 0.3395879 2.5937143
v -4.7028243 0.2783576 2.5937143
v -4.7065113 0.1158995 2.4285714
v -6.8966505 0.1771778 2.4285714
v -6.8966505 0.1771778 2.7588571
v -4.7065113 0.1158995 2.7588571
v -4.7028243 0.2783576 2.5937143
v -6.8912479 0.3395879 2.5937143
v -4.7028243 0.2783576 2.5937143
v -2.5138761 0.2402450 2.5937143
v -2.5158470 0.0777569 2.4285714
v -4.7065113 0.1158995 2.4285714
v -4.7065113 0.1158995 2.7588571
v -2.5158470 0.0777569 2.7588571
v -2.5138761 0.2402450 2.5937143
v -4.7028243 0.2783576 2.5937143
v -2.5138761 0.2402450 2.5937143
v -0.3246475 0.2252542 2.5937143
v -0.3249020 0.0627544 2.4285714
v -2.5158470 0.0777569 2.4285714
v -2.5158470 0.0777569 2.7588571
v -0.3249020 0.0627544 2.7588571
v -0.3246475 0.2252542 2.5937143
v -2.5138761 0.2402450 2.5937143
v 0.3246475 0.2252542 2.5937143
v 2.5138761 0.2402450 2.5937143
v 2.5158470 0.0777569 2.4285714
v 0.3249020 0.0627544 2.4285714
v 0.3249020 0.0627544 2.7588571
v 2.5158470 0.0777569 2.7588571
v 2.5138761 0.2402450 2.5937143
v 0.3246475 0.2252542 2.5937143
v 2.5138761 0.2402450 2.5937143
v 4.7028243 0.2783576 2.5937143
v 4.7065113 0.1158995 2.4285714
v 2.5158470 0.0777569 2.4285714
v 2.5158470 0.0777569 2.7588571
v 4.7065113 0.1158995 2.7588571
v 4.7028243 0.2783576 2.5937143
v 2.5138761 0.2402450 2.5937143
v 4.7028243 0.2783576 2.5937143
v 6.8912479 0.3395879 2.5937143
v 6.8966505 0.1771778 2.4285714
v 4.7065113 0.1158995 2.4285714
v 4.7065113 0.1158995 2.7588571
v 6.8966505 0.1771778 2.7588571
v 6.8912479 0.3395879 2.5937143
v 4.7028243 0.2783576 2.5937143
v -6.8912479 0.3395879 3.0794286
v -4.7028243 0.2783576 3.0794286
v -4.7065113 0.1158995 2.9142857
v -6.8966505 0.1771778 2.9142857
v -6.8966505 0.1771778 3.2445714
v -4.7065113 0.1158995 3.2445714
v -4.7028243 0.2783576 3.0794286
v -6.8912479 0.3395879 3.0794286
v -4.7028243 0.2783576 3.0794286
v -2.5138761 0.2402450 3.0794286
v -2.5158470 0.0777569 2.9142857
v -4.7065113 0.1158995 2.9142857
v -4.7065113 0.1158995 3.2445714
v -2.5158470 0.0777569 3.2445714
v -2.5138761 0.2402450 3.0794286
v -4.7028243 0.2783576 3.0794286
v -2.5138761 0.2402450 3.0794286
v -0.3246475 0.2252542 3.0794286
v -0.3249020 0.0627544 2.9142857
v -2.5158470 0.0777569 2.9142857
v -2.5158470 0.0777569 3.2445714
v -0.3249020 0.0627544 3.2445714
v -0.3246475 0.2252542 3.0794286
v -2.5138761 0.2402450 3.0794286
v 0.3246475 0.2252542 3.0794286
v 2.5138761 0.2402450 3.0794286
v 2.5158470 0.0777569 2.9142857
v 0.3249020 0.0627544 2.9142857
v 0.3249020 0.0627544 3.2445714
v 2.5158470 0.0777569 3.2445714
v 2.5138761 0.2402450 3.0794286
v 0.3246475 0.2252542 3.0794286
v 2.5138761 0.2402450 3.0794286
v 4.7028243 0.2783576 3.0794286
v 4.7065113 0.1158995 2.9142857
v 2.5158470 0.0777569 2.9142857
v 2.5158470 0.0777569 3.2445714
v 4.7065113 0.1158995 3.2445714
v 4.7028243 0.2783576 3.0794286
v 2.5138761 0.2402450 3.0794286
v 4.7028243 0.2783576 3.0794286
v 6.8912479 0.3395879 3.0794286
v 6.8966505 0.1771778 2.9142857
v 4.7065113 0.1158995 2.9142857
v 4.7065113 0.1158995 3.2445714
v 6.8966505 0.1771778 3.2445714
v 6.8912479 0.3395879 3.0794286
v 4.7028243 0.2783576 3.0794286
vt 0.005000 0.995000
vt 0.245000 0.995000
vt 0.245000 0.755000
vt 0.255000 0.995000
vt 0.495000 0.995000
vt 0.495000 0.755000
vt 0.505000 0.995000
vt 0.745000 0.995000
vt 0.745000 0.755000
vt 0.755000 0.995000
vt 0.995000 0.995000
vt 0.995000 0.755000
vt 0.005000 0.745000
vt 0.245000 0.745000
vt 0.245000 0.505000
vt 0.255000 0.745000
vt 0.495000 0.745000
vt 0.495000 0.505000
vt 0.505000 0.745000
vt 0.745000 0.745000
vt 0.745000 0.505000
vt 0.755000 0.745000
vt 0.995000 0.745000
vt 0.995000 0.505000
vt 0.005000 0.495000
vt 0.245000 0.495000
vt 0.245000 0.255000
vt 0.255000 0.495000
vt 0.495000 0.495000
vt 0.495000 0.255000
vt 0.505000 0.495000
vt 0.745000 0.495000
vt 0.745000 0.255000
vt 0.755000 0.495000
vt 0.995000 0.495000
vt 0.995000 0.255000
vt 0.005000 0.245000
vt 0.245000 0.245000
vt 0.245000 0.005000
vt 0.255000 0.245000
vt 0.495000 0.245000
vt 0.495000 0.005000
vt 0.505000 0.245000
vt 0.745000 0.245000
vt 0.745000 0.005000
vt 0.755000 0.245000
vt 0.995000 0.245000
vt 0.995000 0.005000
g ornament
usemtl farm-kit
f 89/7 90/8 91/9
f 89/7 91/8 92/9
f 93/7 94/8 95/9
f 93/7 95/8 96/9
f 97/7 98/8 99/9
f 97/7 99/8 100/9
f 101/7 102/8 103/9
f 101/7 103/8 104/9
f 105/7 106/8 107/9
f 105/7 107/8 108/9
f 109/7 110/8 111/9
f 109/7 111/8 112/9
f 113/7 114/8 115/9
f 113/7 115/8 116/9
f 117/7 118/8 119/9
f 117/7 119/8 120/9
f 121/7 122/8 123/9
f 121/7 123/8 124/9
f 125/7 126/8 127/9
f 125/7 127/8 128/9
f 129/7 130/8 131/9
f 129/7 131/8 132/9
f 133/7 134/8 135/9
f 133/7 135/8 136/9
f 137/7 138/8 139/9
f 137/7 139/8 140/9
f 141/7 142/8 143/9
f 141/7 143/8 144/9
f 145/7 146/8 147/9
f 145/7 147/8 148/9
f 149/7 150/8 151/9
f 149/7 151/8 152/9
f 153/7 154/8 155/9
f 153/7 155/8 156/9
f 157/7 158/8 159/9
f 157/7 159/8 160/9
f 161/7 162/8 163/9
f 161/7 163/8 164/9
f 165/7 166/8 167/9
f 165/7 167/8 168/9
f 169/7 170/8 171/9
f 169/7 171/8 172/9
f 173/7 174/8 175/9
f 173/7 175/8 176/9
f 177/7 178/8 179/9
f 177/7 179/8 180/9
f 181/7 182/8 183/9
f 181/7 183/8 184/9
f 185/7 186/8 187/9
f 185/7 187/8 188/9
f 189/7 190/8 191/9
f 189/7 191/8 192/9
f 193/7 194/8 195/9
f 193/7 195/8 196/9
f 197/7 198/8 199/9
f 197/7 199/8 200/9
f 201/7 202/8 203/9
f 201/7 203/8 204/9
f 205/7 206/8 207/9
f 205/7 207/8 208/9
f 209/7 210/8 211/9
f 209/7 211/8 212/9
f 213/7 214/8 215/9
f 213/7 215/8 216/9
f 217/7 218/8 219/9
f 217/7 219/8 220/9
f 221/7 222/8 223/9
f 221/7 223/8 224/9
f 225/7 226/8 227/9
f 225/7 227/8 228/9
f 229/7 230/8 231/9
f 229/7 231/8 232/9
f 233/7 234/8 235/9
f 233/7 235/8 236/9
f 237/7 238/8 239/9
f 237/7 239/8 240/9
f 241/7 242/8 243/9
f 241/7 243/8 244/9
f 245/7 246/8 247/9
f 245/7 247/8 248/9
f 249/7 250/8 251/9
f 249/7 251/8 252/9
f 253/7 254/8 255/9
f 253/7 255/8 256/9
f 257/7 258/8 259/9
f 257/7 259/8 260/9
f 261/7 262/8 263/9
f 261/7 263/8 264/9
f 265/7 266/8 267/9
f 265/7 267/8 268/9
f 269/7 270/8 271/9
f 269/7 271/8 272/9
f 273/7 274/8 275/9
f 273/7 275/8 276/9
f 277/7 278/8 279/9
f 277/7 279/8 280/9
f 281/7 282/8 283/9
f 281/7 283/8 284/9
f 285/7 286/8 287/9
f 285/7 287/8 288/9
f 289/7 290/8 291/9
f 289/7 291/8 292/9
f 293/7 294/8 295/9
f 293/7 295/8 296/9
f 297/7 298/8 299/9
f 297/7 299/8 300/9
f 301/7 302/8 303/9
f 301/7 303/8 304/9
f 305/7 306/8 307/9
f 305/7 307/8 308/9
f 309/7 310/8 311/9
f 309/7 311/8 312/9
f 313/7 314/8 315/9
f 313/7 315/8 316/9
f 317/7 318/8 319/9
f 317/7 319/8 320/9
f 321/7 322/8 323/9
f 321/7 323/8 324/9
f 325/7 326/8 327/9
f 325/7 327/8 328/9
f 329/7 330/8 331/9
f 329/7 331/8 332/9
f 333/7 334/8 335/9
f 333/7 335/8 336/9
f 337/7 338/8 339/9
f 337/7 339/8 340/9
f 341/7 342/8 343/9
f 341/7 343/8 344/9
f 345/7 346/8 347/9
f 345/7 347/8 348/9
f 349/7 350/8 351/9
f 349/7 351/8 352/9
f 353/7 354/8 355/9
f 353/7 355/8 356/9
f 357/7 358/8 359/9
f 357/7 359/8 360/9
f 361/7 362/8 363/9
f 361/7 363/8 364/9
f 365/7 366/8 367/9
f 365/7 367/8 368/9
f 369/7 370/8 371/9
f 369/7 371/8 372/9
f 373/7 374/8 375/9
f 373/7 375/8 376/9
f 377/7 378/8 379/9
f 377/7 379/8 380/9
f 381/7 382/8 383/9
f 381/7 383/8 384/9
f 385/7 386/8 387/9
f 385/7 387/8 388/9
f 389/7 390/8 391/9
f 389/7 391/8 392/9
f 393/7 394/8 395/9
f 393/7 395/8 396/9
f 397/7 398/8 399/9
f 397/7 399/8 400/9
f 401/7 402/8 403/9
f 401/7 403/8 404/9
f 405/7 406/8 407/9
f 405/7 407/8 408/9
f 409/7 410/8 411/9
f 409/7 411/8 412/9
f 413/7 414/8 415/9
f 413/7 415/8 416/9
f 417/7 418/8 419/9
f 417/7 419/8 420/9
f 421/7 422/8 423/9
f 421/7 423/8 424/9
f 425/7 426/8 427/9
f 425/7 427/8 428/9
f 429/7 430/8 431/9
f 429/7 431/8 432/9
f 433/7 434/8 435/9
f 433/7 435/8 436/9
f 437/7 438/8 439/9
f 437/7 439/8 440/9
f 441/7 442/8 443/9
f 441/7 443/8 444/9
f 445/7 446/8 447/9
f 445/7 447/8 448/9
f 449/7 450/8 451/9
f 449/7 451/8 452/9
f 453/7 454/8 455/9
f 453/7 455/8 456/9
f 457/7 458/8 459/9
f 457/7 459/8 460/9
f 461/7 462/8 463/9
f 461/7 463/8 464/9
f 465/7 466/8 467/9
f 465/7 467/8 468/9
f 469/7 470/8 471/9
f 469/7 471/8 472/9
f 473/7 474/8 475/9
f 473/7 475/8 476/9
f 477/7 478/8 479/9
f 477/7 479/8 480/9
f 481/7 482/8 483/9
f 481/7 483/8 484/9
f 485/7 486/8 487/9
f 485/7 487/8 488/9
f 489/7 490/8 491/9
f 489/7 491/8 492/9
f 493/7 494/8 495/9
f 493/7 495/8 496/9
f 497/7 498/8 499/9
f 497/7 499/8 500/9
f 501/7 502/8 503/9
f 501/7 503/8 504/9
f 505/7 506/8 507/9
f 505/7 507/8 508/9
f 509/7 510/8 511/9
f 509/7 511/8 512/9
f 513/7 514/8 515/9
f 513/7 515/8 516/9
f 517/7 518/8 519/9
f 517/7 519/8 520/9
f 521/7 522/8 523/9
f 521/7 523/8 524/9
f 525/7 526/8 527/9
f 525/7 527/8 528/9
f 529/7 530/8 531/9
f 529/7 531/8 532/9
f 533/7 534/8 535/9
f 533/7 535/8 536/9
f 537/7 538/8 539/9
f 537/7 539/8 540/9
f 541/7 542/8 543/9
f 541/7 543/8 544/9
f 545/7 546/8 547/9
f 545/7 547/8 548/9
f 549/7 550/8 551/9
f 549/7 551/8 552/9
f 553/7 554/8 555/9
f 553/7 555/8 556/9
f 557/7 558/8 559/9
f 557/7 559/8 560/9
f 561/7 562/8 563/9
f 561/7 563/8 564/9
f 565/7 566/8 567/9
f 565/7 567/8 568/9
f 569/7 570/8 571/9
f 569/7 571/8 572/9
f 573/7 574/8 575/9
f 573/7 575/8 576/9
f 577/7 578/8 579/9
f 577/7 579/8 580/9
f 581/7 582/8 583/9
f 581/7 583/8 584/9
f 585/7 586/8 587/9
f 585/7 587/8 588/9
f 589/7 590/8 591/9
f 589/7 591/8 592/9
f 593/7 594/8 595/9
f 593/7 595/8 596/9
f 597/7 598/8 599/9
f 597/7 599/8 600/9
f 601/7 602/8 603/9
f 601/7 603/8 604/9
f 605/7 606/8 607/9
f 605/7 607/8 608/9
f 609/7 610/8 611/9
f 609/7 611/8 612/9
f 613/7 614/8 615/9
f 613/7 615/8 616/9
f 617/7 618/8 619/9
f 617/7 619/8 620/9
f 621/7 622/8 623/9
f 621/7 623/8 624/9
f 625/7 626/8 627/9
f 625/7 627/8 628/9
f 629/7 630/8 631/9
f 629/7 631/8 632/9
f 633/7 634/8 635/9
f 633/7 635/8 636/9
f 637/7 638/8 639/9
f 637/7 639/8 640/9
f 641/7 642/8 643/9
f 641/7 643/8 644/9
f 645/7 646/8 647/9
f 645/7 647/8 648/9
f 649/7 650/8 651/9
f 649/7 651/8 652/9
f 653/7 654/8 655/9
f 653/7 655/8 656/9
f 657/7 658/8 659/9
f 657/7 659/8 660/9
f 661/7 662/8 663/9
f 661/7 663/8 664/9
f 665/7 666/8 667/9
f 665/7 667/8 668/9
f 669/7 670/8 671/9
f 669/7 671/8 672/9
f 673/7 674/8 675/9
f 673/7 675/8 676/9
f 677/7 678/8 679/9
f 677/7 679/8 680/9
f 681/7 682/8 683/9
f 681/7 683/8 684/9
f 685/7 686/8 687/9
f 685/7 687/8 688/9
f 689/7 690/8 691/9
f 689/7 691/8 692/9
f 693/7 694/8 695/9
f 693/7 695/8 696/9
f 697/7 698/8 699/9
f 697/7 699/8 700/9
f 701/7 702/8 703/9
f 701/7 703/8 704/9
f 705/7 706/8 707/9
f 705/7 707/8 708/9
f 709/7 710/8 711/9
f 709/7 711/8 712/9
f 713/7 714/8 715/9
f 713/7 715/8 716/9
f 717/7 718/8 719/9
f 717/7 719/8 720/9
f 721/7 722/8 723/9
f 721/7 723/8 724/9
f 725/7 726/8 727/9
f 725/7 727/8 728/9
f 729/7 730/8 731/9
f 729/7 731/8 732/9
f 733/7 734/8 735/9
f 733/7 735/8 736/9
f 737/7 738/8 739/9
f 737/7 739/8 740/9
f 741/7 742/8 743/9
f 741/7 743/8 744/9
f 745/7 746/8 747/9
f 745/7 747/8 748/9
f 749/7 750/8 751/9
f 749/7 751/8 752/9
f 753/7 754/8 755/9
f 753/7 755/8 756/9
f 757/7 758/8 759/9
f 757/7 759/8 760/9
g support
usemtl farm-kit
f 1/1 2/2 3/3
f 1/1 3/2 4/3
f 5/1 6/2 7/3
f 5/1 7/2 8/3
f 9/1 10/2 11/3
f 9/1 11/2 12/3
f 13/1 14/2 15/3
f 13/1 15/2 16/3
f 17/1 18/2 19/3
f 17/1 19/2 20/3
f 21/1 22/2 23/3
f 21/1 23/2 24/3
f 25/1 26/2 27/3
f 25/1 27/2 28/3
f 29/4 30/5 31/6
f 29/4 31/5 32/6
f 33/4 34/5 35/6
f 33/4 35/5 36/6
f 37/4 38/5 39/6
f 37/4 39/5 40/6
f 41/4 42/5 43/6
f 41/4 43/5 44/6
f 45/4 46/5 47/6
f 45/4 47/5 48/6
f 49/4 50/5 51/6
f 49/4 51/5 52/6
f 53/4 54/5 55/6
f 53/4 55/5 56/6
f 57/4 58/5 59/6
f 57/4 59/5 60/6
f 61/4 62/5 63/6
f 61/4 63/5 64/6
f 65/4 66/5 67/6
f 65/4 67/5 68/6
f 69/4 70/5 71/6
f 69/4 71/5 72/6
f 73/4 74/5 75/6
f 73/4 75/5 76/6
f 77/4 78/5 79/6
f 77/4 79/5 80/6
f 81/4 82/5 83/6
f 81/4 83/5 84/6
f 85/4 86/5 87/6
f 85/4 87/5 88/6
