mtllib TorusSettlementFarm_A36.mtl
v -8.7475564 0.1790686 6.0000000
v -6.5614691 0.1007322 6.0000000
v -6.5614691 0.1007322 -6.0000000
v -8.7475564 0.1790686 -6.0000000
v -6.5614691 0.1007322 6.0000000
v -4.3746945 0.0447718 6.0000000
v -4.3746945 0.0447718 -6.0000000
v -6.5614691 0.1007322 -6.0000000
v -4.3746945 0.0447718 6.0000000
v -2.1874618 0.0111933 6.0000000
v -2.1874618 0.0111933 -6.0000000
v -4.3746945 0.0447718 -6.0000000
v -2.1874618 0.0111933 6.0000000
v 0.0000000 0.0000000 6.0000000
v 0.0000000 0.0000000 -6.0000000
v -2.1874618 0.0111933 -6.0000000
v 0.0000000 0.0000000 6.0000000
v 2.1874618 0.0111933 6.0000000
v 2.1874618 0.0111933 -6.0000000
v 0.0000000 0.0000000 -6.0000000
v 2.1874618 0.0111933 6.0000000
v 4.3746945 0.0447718 6.0000000
v 4.3746945 0.0447718 -6.0000000
v 2.1874618 0.0111933 -6.0000000
v 4.3746945 0.0447718 6.0000000
v 6.5614691 0.1007322 6.0000000
v 6.5614691 0.1007322 -6.0000000
v 4.3746945 0.0447718 -6.0000000
v 6.5614691 0.1007322 6.0000000
v 8.7475564 0.1790686 6.0000000
v 8.7475564 0.1790686 -6.0000000
v 6.5614691 0.1007322 -6.0000000
v -8.7470449 0.1915581 -5.6500000
v -6.5610854 0.1132263 -5.6500000
v -6.5610854 0.1132263 -6.0000000
v -8.7470449 0.1915581 -6.0000000
v -6.5610854 0.1132263 -5.6500000
v -4.3744387 0.0572692 -5.6500000
v -4.3744387 0.0572692 -6.0000000
v -6.5610854 0.1132263 -6.0000000
v -4.3744387 0.0572692 -5.6500000
v -2.1873339 0.0236926 -5.6500000
v -2.1873339 0.0236926 -6.0000000
v -4.3744387 0.0572692 -6.0000000
v -2.1873339 0.0236926 -5.6500000
v 0.0000000 0.0125000 -5.6500000
v 0.0000000 0.0125000 -6.0000000
v -2.1873339 0.0236926 -6.0000000
v 0.0000000 0.0125000 -5.6500000
v 2.1873339 0.0236926 -5.6500000
v 2.1873339 0.0236926 -6.0000000
v 0.0000000 0.0125000 -6.0000000
v 2.1873339 0.0236926 -5.6500000
v 4.3744387 0.0572692 -5.6500000
v 4.3744387 0.0572692 -6.0000000
v 2.1873339 0.0236926 -6.0000000
v 4.3744387 0.0572692 -5.6500000
v 6.5610854 0.1132263 -5.6500000
v 6.5610854 0.1132263 -6.0000000
v 4.3744387 0.0572692 -6.0000000
v 6.5610854 0.1132263 -5.6500000
v 8.7470449 0.1915581 -5.6500000
v 8.7470449 0.1915581 -6.0000000
v 6.5610854 0.1132263 -6.0000000
v -8.7470449 0.1915581 6.0000000
v -6.5610854 0.1132263 6.0000000
v -6.5610854 0.1132263 5.6500000
v -8.7470449 0.1915581 5.6500000
v -6.5610854 0.1132263 6.0000000
v -4.3744387 0.0572692 6.0000000
v -4.3744387 0.0572692 5.6500000
v -6.5610854 0.1132263 5.6500000
v -4.3744387 0.0572692 6.0000000
v -2.1873339 0.0236926 6.0000000
v -2.1873339 0.0236926 5.6500000
v -4.3744387 0.0572692 5.6500000
v -2.1873339 0.0236926 6.0000000
v 0.0000000 0.0125000 6.0000000
v 0.0000000 0.0125000 5.6500000
v -2.1873339 0.0236926 5.6500000
v 0.0000000 0.0125000 6.0000000
v 2.1873339 0.0236926 6.0000000
v 2.1873339 0.0236926 5.6500000
v 0.0000000 0.0125000 5.6500000
v 2.1873339 0.0236926 6.0000000
v 4.3744387 0.0572692 6.0000000
v 4.3744387 0.0572692 5.6500000
v 2.1873339 0.0236926 5.6500000
v 4.3744387 0.0572692 6.0000000
v 6.5610854 0.1132263 6.0000000
v 6.5610854 0.1132263 5.6500000
v 4.3744387 0.0572692 5.6500000
v 6.5610854 0.1132263 6.0000000
v 8.7470449 0.1915581 6.0000000
v 8.7470449 0.1915581 5.6500000
v 6.5610854 0.1132263 5.6500000
v -0.2999824 0.0127105 6.0000000
v 0.2999824 0.0127105 6.0000000
v 0.2999824 0.0127105 -6.0000000
v -0.2999824 0.0127105 -6.0000000
v -8.3922395 0.3074214 -5.3755714
v -6.3760486 0.2376817 -5.3755714
v -6.3784366 0.1577174 -5.6500000
v -8.3953826 0.2274831 -5.6500000
v -8.3953826 0.2274831 -5.1011429
v -6.3784366 0.1577174 -5.1011429
v -6.3760486 0.2376817 -5.3755714
v -8.3922395 0.3074214 -5.3755714
v -6.3760486 0.2376817 -5.3755714
v -4.3592890 0.1869867 -5.3755714
v -4.3609216 0.1070033 -5.6500000
v -6.3784366 0.1577174 -5.6500000
v -6.3784366 0.1577174 -5.1011429
v -4.3609216 0.1070033 -5.1011429
v -4.3592890 0.1869867 -5.3755714
v -6.3760486 0.2376817 -5.3755714
v -4.3592890 0.1869867 -5.3755714
v -2.3421406 0.1553408 -5.3755714
v -2.3430177 0.0753456 -5.6500000
v -4.3609216 0.1070033 -5.6500000
v -4.3609216 0.1070033 -5.1011429
v -2.3430177 0.0753456 -5.1011429
v -2.3421406 0.1553408 -5.3755714
v -4.3592890 0.1869867 -5.3755714
v -2.3421406 0.1553408 -5.3755714
v -0.3247832 0.1427469 -5.3755714
v -0.3249048 0.0627470 -5.6500000
v -2.3430177 0.0753456 -5.6500000
v -2.3430177 0.0753456 -5.1011429
v -0.3249048 0.0627470 -5.1011429
v -0.3247832 0.1427469 -5.3755714
v -2.3421406 0.1553408 -5.3755714
v 0.3247832 0.1427469 -5.3755714
v 2.3421406 0.1553408 -5.3755714
v 2.3430177 0.0753456 -5.6500000
v 0.3249048 0.0627470 -5.6500000
v 0.3249048 0.0627470 -5.1011429
v 2.3430177 0.0753456 -5.1011429
v 2.3421406 0.1553408 -5.3755714
v 0.3247832 0.1427469 -5.3755714
v 2.3421406 0.1553408 -5.3755714
v 4.3592890 0.1869867 -5.3755714
v 4.3609216 0.1070033 -5.6500000
v 2.3430177 0.0753456 -5.6500000
v 2.3430177 0.0753456 -5.1011429
v 4.3609216 0.1070033 -5.1011429
v 4.3592890 0.1869867 -5.3755714
v 2.3421406 0.1553408 -5.3755714
v 4.3592890 0.1869867 -5.3755714
v 6.3760486 0.2376817 -5.3755714
v 6.3784366 0.1577174 -5.6500000
v 4.3609216 0.1070033 -5.6500000
v 4.3609216 0.1070033 -5.1011429
v 6.3784366 0.1577174 -5.1011429
v 6.3760486 0.2376817 -5.3755714
v 4.3592890 0.1869867 -5.3755714
v 6.3760486 0.2376817 -5.3755714
v 8.3922395 0.3074214 -5.3755714
v 8.3953826 0.2274831 -5.6500000
v 6.3784366 0.1577174 -5.6500000
v 6.3784366 0.1577174 -5.1011429
v 8.3953826 0.2274831 -5.1011429
v 8.3922395 0.3074214 -5.3755714
v 6.3760486 0.2376817 -5.3755714
v -8.3922395 0.3074214 -4.5684286
v -6.3760486 0.2376817 -4.5684286
v -6.3784366 0.1577174 -4.8428571
v -8.3953826 0.2274831 -4.8428571
v -8.3953826 0.2274831 -4.2940000
v -6.3784366 0.1577174 -4.2940000
v -6.3760486 0.2376817 -4.5684286
v -8.3922395 0.3074214 -4.5684286
v -6.3760486 0.2376817 -4.5684286
v -4.3592890 0.1869867 -4.5684286
v -4.3609216 0.1070033 -4.8428571
v -6.3784366 0.1577174 -4.8428571
v -6.3784366 0.1577174 -4.2940000
v -4.3609216 0.1070033 -4.2940000
v -4.3592890 0.1869867 -4.5684286
v -6.3760486 0.2376817 -4.5684286
v -4.3592890 0.1869867 -4.5684286
v -2.3421406 0.1553408 -4.5684286
v -2.3430177 0.0753456 -4.8428571
v -4.3609216 0.1070033 -4.8428571
v -4.3609216 0.1070033 -4.2940000
v -2.3430177 0.0753456 -4.2940000
v -2.3421406 0.1553408 -4.5684286
v -4.3592890 0.1869867 -4.5684286
v -2.3421406 0.1553408 -4.5684286
v -0.3247832 0.1427469 -4.5684286
v -0.3249048 0.0627470 -4.8428571
v -2.3430177 0.0753456 -4.8428571
v -2.3430177 0.0753456 -4.2940000
v -0.3249048 0.0627470 -4.2940000
v -0.3247832 0.1427469 -4.5684286
v -2.3421406 0.1553408 -4.5684286
v 0.3247832 0.1427469 -4.5684286
v 2.3421406 0.1553408 -4.5684286
v 2.3430177 0.0753456 -4.8428571
v 0.3249048 0.0627470 -4.8428571
v 0.3249048 0.0627470 -4.2940000
v 2.3430177 0.0753456 -4.2940000
v 2.3421406 0.1553408 -4.5684286
v 0.3247832 0.1427469 -4.5684286
v 2.3421406 0.1553408 -4.5684286
v 4.3592890 0.1869867 -4.5684286
v 4.3609216 0.1070033 -4.8428571
v 2.3430177 0.0753456 -4.8428571
v 2.3430177 0.0753456 -4.2940000
v 4.3609216 0.1070033 -4.2940000
v 4.3592890 0.1869867 -4.5684286
v 2.3421406 0.1553408 -4.5684286
v 4.3592890 0.1869867 -4.5684286
v 6.3760486 0.2376817 -4.5684286
v 6.3784366 0.1577174 -4.8428571
v 4.3609216 0.1070033 -4.8428571
v 4.3609216 0.1070033 -4.2940000
v 6.3784366 0.1577174 -4.2940000
v 6.3760486 0.2376817 -4.5684286
v 4.3592890 0.1869867 -4.5684286
v 6.3760486 0.2376817 -4.5684286
v 8.3922395 0.3074214 -4.5684286
v 8.3953826 0.2274831 -4.8428571
v 6.3784366 0.1577174 -4.8428571
v 6.3784366 0.1577174 -4.2940000
v 8.3953826 0.2274831 -4.2940000
v 8.3922395 0.3074214 -4.5684286
v 6.3760486 0.2376817 -4.5684286
v -8.3922395 0.3074214 -3.7612857
v -6.3760486 0.2376817 -3.7612857
v -6.3784366 0.1577174 -4.0357143
v -8.3953826 0.2274831 -4.0357143
v -8.3953826 0.2274831 -3.4868571
v -6.3784366 0.1577174 -3.4868571
v -6.3760486 0.2376817 -3.7612857
v -8.3922395 0.3074214 -3.7612857
v -6.3760486 0.2376817 -3.7612857
v -4.3592890 0.1869867 -3.7612857
v -4.3609216 0.1070033 -4.0357143
v -6.3784366 0.1577174 -4.0357143
v -6.3784366 0.1577174 -3.4868571
v -4.3609216 0.1070033 -3.4868571
v -4.3592890 0.1869867 -3.7612857
v -6.3760486 0.2376817 -3.7612857
v -4.3592890 0.1869867 -3.7612857
v -2.3421406 0.1553408 -3.7612857
v -2.3430177 0.0753456 -4.0357143
v -4.3609216 0.1070033 -4.0357143
v -4.3609216 0.1070033 -3.4868571
v -2.3430177 0.0753456 -3.4868571
v -2.3421406 0.1553408 -3.7612857
v -4.3592890 0.1869867 -3.7612857
v -2.3421406 0.1553408 -3.7612857
v -0.3247832 0.1427469 -3.7612857
v -0.3249048 0.0627470 -4.0357143
v -2.3430177 0.0753456 -4.0357143
v -2.3430177 0.0753456 -3.4868571
v -0.3249048 0.0627470 -3.4868571
v -0.3247832 0.1427469 -3.7612857
v -2.3421406 0.1553408 -3.7612857
v 0.3247832 0.1427469 -3.7612857
v 2.3421406 0.1553408 -3.7612857
v 2.3430177 0.0753456 -4.0357143
v 0.3249048 0.0627470 -4.0357143
v 0.3249048 0.0627470 -3.4868571
v 2.3430177 0.0753456 -3.4868571
v 2.3421406 0.1553408 -3.7612857
v 0.3247832 0.1427469 -3.7612857
v 2.3421406 0.1553408 -3.7612857
v 4.3592890 0.1869867 -3.7612857
v 4.3609216 0.1070033 -4.0357143
v 2.3430177 0.0753456 -4.0357143
v 2.3430177 0.0753456 -3.4868571
v 4.3609216 0.1070033 -3.4868571
v 4.3592890 0.1869867 -3.7612857
v 2.3421406 0.1553408 -3.7612857
v 4.3592890 0.1869867 -3.7612857
v 6.3760486 0.2376817 -3.7612857
v 6.3784366 0.1577174 -4.0357143
v 4.3609216 0.1070033 -4.0357143
v 4.3609216 0.1070033 -3.4868571
v 6.3784366 0.1577174 -3.4868571
v 6.3760486 0.2376817 -3.7612857
v 4.3592890 0.1869867 -3.7612857
v 6.3760486 0.2376817 -3.7612857
v 8.3922395 0.3074214 -3.7612857
v 8.3953826 0.2274831 -4.0357143
v 6.3784366 0.1577174 -4.0357143
v 6.3784366 0.1577174 -3.4868571
v 8.3953826 0.2274831 -3.4868571
v 8.3922395 0.3074214 -3.7612857
v 6.3760486 0.2376817 -3.7612857
v -8.3922395 0.3074214 -2.9541429
v -6.3760486 0.2376817 -2.9541429
v -6.3784366 0.1577174 -3.2285714
v -8.3953826 0.2274831 -3.2285714
v -8.3953826 0.2274831 -2.6797143
v -6.3784366 0.1577174 -2.6797143
v -6.3760486 0.2376817 -2.9541429
v -8.3922395 0.3074214 -2.9541429
v -6.3760486 0.2376817 -2.9541429
v -4.3592890 0.1869867 -2.9541429
v -4.3609216 0.1070033 -3.2285714
v -6.3784366 0.1577174 -3.2285714
v -6.3784366 0.1577174 -2.6797143
v -4.3609216 0.1070033 -2.6797143
v -4.3592890 0.1869867 -2.9541429
v -6.3760486 0.2376817 -2.9541429
v -4.3592890 0.1869867 -2.9541429
v -2.3421406 0.1553408 -2.9541429
v -2.3430177 0.0753456 -3.2285714
v -4.3609216 0.1070033 -3.2285714
v -4.3609216 0.1070033 -2.6797143
v -2.3430177 0.0753456 -2.6797143
v -2.3421406 0.1553408 -2.9541429
v -4.3592890 0.1869867 -2.9541429
v -2.3421406 0.1553408 -2.9541429
v -0.3247832 0.1427469 -2.9541429
v -0.3249048 0.0627470 -3.2285714
v -2.3430177 0.0753456 -3.2285714
v -2.3430177 0.0753456 -2.6797143
v -0.3249048 0.0627470 -2.6797143
v -0.3247832 0.1427469 -2.9541429
v -2.3421406 0.1553408 -2.9541429
v 0.3247832 0.1427469 -2.9541429
v 2.3421406 0.1553408 -2.9541429
v 2.3430177 0.0753456 -3.2285714
v 0.3249048 0.0627470 -3.2285714
v 0.3249048 0.0627470 -2.6797143
v 2.3430177 0.0753456 -2.6797143
v 2.3421406 0.1553408 -2.9541429
v 0.3247832 0.1427469 -2.9541429
v 2.3421406 0.1553408 -2.9541429
v 4.3592890 0.1869867 -2.9541429
v 4.3609216 0.1070033 -3.2285714
v 2.3430177 0.0753456 -3.2285714
v 2.3430177 0.0753456 -2.6797143
v 4.3609216 0.1070033 -2.6797143
v 4.3592890 0.1869867 -2.9541429
v 2.3421406 0.1553408 -2.9541429
v 4.3592890 0.1869867 -2.9541429
v 6.3760486 0.2376817 -2.9541429
v 6.3784366 0.1577174 -3.2285714
v 4.3609216 0.1070033 -3.2285714
v 4.3609216 0.1070033 -2.6797143
v 6.3784366 0.1577174 -2.6797143
v 6.3760486 0.2376817 -2.9541429
v 4.3592890 0.1869867 -2.9541429
v 6.3760486 0.2376817 -2.9541429
v 8.3922395 0.3074214 -2.9541429
v 8.3953826 0.2274831 -3.2285714
v 6.3784366 0.1577174 -3.2285714
v 6.3784366 0.1577174 -2.6797143
v 8.3953826 0.2274831 -2.6797143
v 8.3922395 0.3074214 -2.9541429
v 6.3760486 0.2376817 -2.9541429
v -8.3922395 0.3074214 -2.1470000
v -6.3760486 0.2376817 -2.1470000
v -6.3784366 0.1577174 -2.4214286
v -8.3953826 0.2274831 -2.4214286
v -8.3953826 0.2274831 -1.8725714
v -6.3784366 0.1577174 -1.8725714
v -6.3760486 0.2376817 -2.1470000
v -8.3922395 0.3074214 -2.1470000
v -6.3760486 0.2376817 -2.1470000
v -4.3592890 0.1869867 -2.1470000
v -4.3609216 0.1070033 -2.4214286
v -6.3784366 0.1577174 -2.4214286
v -6.3784366 0.1577174 -1.8725714
v -4.3609216 0.1070033 -1.8725714
v -4.3592890 0.1869867 -2.1470000
v -6.3760486 0.2376817 -2.1470000
v -4.3592890 0.1869867 -2.1470000
v -2.3421406 0.1553408 -2.1470000
v -2.3430177 0.0753456 -2.4214286
v -4.3609216 0.1070033 -2.4214286
v -4.3609216 0.1070033 -1.8725714
v -2.3430177 0.0753456 -1.8725714
v -2.3421406 0.1553408 -2.1470000
v -4.3592890 0.1869867 -2.1470000
v -2.3421406 0.1553408 -2.1470000
v -0.3247832 0.1427469 -2.1470000
v -0.3249048 0.0627470 -2.4214286
v -2.3430177 0.0753456 -2.4214286
v -2.3430177 0.0753456 -1.8725714
v -0.3249048 0.0627470 -1.8725714
v -0.3247832 0.1427469 -2.1470000
v -2.3421406 0.1553408 -2.1470000
v 0.3247832 0.1427469 -2.1470000
v 2.3421406 0.1553408 -2.1470000
v 2.3430177 0.0753456 -2.4214286
v 0.3249048 0.0627470 -2.4214286
v 0.3249048 0.0627470 -1.8725714
v 2.3430177 0.0753456 -1.8725714
v 2.3421406 0.1553408 -2.1470000
v 0.3247832 0.1427469 -2.1470000
v 2.3421406 0.1553408 -2.1470000
v 4.3592890 0.1869867 -2.1470000
v 4.3609216 0.1070033 -2.4214286
v 2.3430177 0.0753456 -2.4214286
v 2.3430177 0.0753456 -1.8725714
v 4.3609216 0.1070033 -1.8725714
v 4.3592890 0.1869867 -2.1470000
v 2.3421406 0.1553408 -2.1470000
v 4.3592890 0.1869867 -2.1470000
v 6.3760486 0.2376817 -2.1470000
v 6.3784366 0.1577174 -2.4214286
v 4.3609216 0.1070033 -2.4214286
v 4.3609216 0.1070033 -1.8725714
v 6.3784366 0.1577174 -1.8725714
v 6.3760486 0.2376817 -2.1470000
v 4.3592890 0.1869867 -2.1470000
v 6.3760486 0.2376817 -2.1470000
v 8.3922395 0.3074214 -2.1470000
v 8.3953826 0.2274831 -2.4214286
v 6.3784366 0.1577174 -2.4214286
v 6.3784366 0.1577174 -1.8725714
v 8.3953826 0.2274831 -1.8725714
v 8.3922395 0.3074214 -2.1470000
v 6.3760486 0.2376817 -2.1470000
v -8.3922395 0.3074214 -1.3398571
v -6.3760486 0.2376817 -1.3398571
v -6.3784366 0.1577174 -1.6142857
v -8.3953826 0.2274831 -1.6142857
v -8.3953826 0.2274831 -1.0654286
v -6.3784366 0.1577174 -1.0654286
v -6.3760486 0.2376817 -1.3398571
v -8.3922395 0.3074214 -1.3398571
v -6.3760486 0.2376817 -1.3398571
v -4.3592890 0.1869867 -1.3398571
v -4.3609216 0.1070033 -1.6142857
v -6.3784366 0.1577174 -1.6142857
v -6.3784366 0.1577174 -1.0654286
v -4.3609216 0.1070033 -1.0654286
v -4.3592890 0.1869867 -1.3398571
v -6.3760486 0.2376817 -1.3398571
v -4.3592890 0.1869867 -1.3398571
v -2.3421406 0.1553408 -1.3398571
v -2.3430177 0.0753456 -1.6142857
v -4.3609216 0.1070033 -1.6142857
v -4.3609216 0.1070033 -1.0654286
v -2.3430177 0.0753456 -1.0654286
v -2.3421406 0.1553408 -1.3398571
v -4.3592890 0.1869867 -1.3398571
v -2.3421406 0.1553408 -1.3398571
v -0.3247832 0.1427469 -1.3398571
v -0.3249048 0.0627470 -1.6142857
v -2.3430177 0.0753456 -1.6142857
v -2.3430177 0.0753456 -1.0654286
v -0.3249048 0.0627470 -1.0654286
v -0.3247832 0.1427469 -1.3398571
v -2.3421406 0.1553408 -1.3398571
v 0.3247832 0.1427469 -1.3398571
v 2.3421406 0.1553408 -1.3398571
v 2.3430177 0.0753456 -1.6142857
v 0.3249048 0.0627470 -1.6142857
v 0.3249048 0.0627470 -1.0654286
v 2.3430177 0.0753456 -1.0654286
v 2.3421406 0.1553408 -1.3398571
v 0.3247832 0.1427469 -1.3398571
v 2.3421406 0.1553408 -1.3398571
v 4.3592890 0.1869867 -1.3398571
v 4.3609216 0.1070033 -1.6142857
v 2.3430177 0.0753456 -1.6142857
v 2.3430177 0.0753456 -1.0654286
v 4.3609216 0.1070033 -1.0654286
v 4.3592890 0.1869867 -1.3398571
v 2.3421406 0.1553408 -1.3398571
v 4.3592890 0.1869867 -1.3398571
v 6.3760486 0.2376817 -1.3398571
v 6.3784366 0.1577174 -1.6142857
v 4.3609216 0.1070033 -1.6142857
v 4.3609216 0.1070033 -1.0654286
v 6.3784366 0.1577174 -1.0654286
v 6.3760486 0.2376817 -1.3398571
v 4.3592890 0.1869867 -1.3398571
v 6.3760486 0.2376817 -1.3398571
v 8.3922395 0.3074214 -1.3398571
v 8.3953826 0.2274831 -1.6142857
v 6.3784366 0.1577174 -1.6142857
v 6.3784366 0.1577174 -1.0654286
v 8.3953826 0.2274831 -1.0654286
v 8.3922395 0.3074214 -1.3398571
v 6.3760486 0.2376817 -1.3398571
v -8.3922395 0.3074214 -0.5327143
v -6.3760486 0.2376817 -0.5327143
v -6.3784366 0.1577174 -0.8071429
v -8.3953826 0.2274831 -0.8071429
v -8.3953826 0.2274831 -0.2582857
v -6.3784366 0.1577174 -0.2582857
v -6.3760486 0.2376817 -0.5327143
v -8.3922395 0.3074214 -0.5327143
v -6.3760486 0.2376817 -0.5327143
v -4.3592890 0.1869867 -0.5327143
v -4.3609216 0.1070033 -0.8071429
v -6.3784366 0.1577174 -0.8071429
v -6.3784366 0.1577174 -0.2582857
v -4.3609216 0.1070033 -0.2582857
v -4.3592890 0.1869867 -0.5327143
v -6.3760486 0.2376817 -0.5327143
v -4.3592890 0.1869867 -0.5327143
v -2.3421406 0.1553408 -0.5327143
v -2.3430177 0.0753456 -0.8071429
v -4.3609216 0.1070033 -0.8071429
v -4.3609216 0.1070033 -0.2582857
v -2.3430177 0.0753456 -0.2582857
v -2.3421406 0.1553408 -0.5327143
v -4.3592890 0.1869867 -0.5327143
v -2.3421406 0.1553408 -0.5327143
v -0.3247832 0.1427469 -0.5327143
v -0.3249048 0.0627470 -0.8071429
v -2.3430177 0.0753456 -0.8071429
v -2.3430177 0.0753456 -0.2582857
v -0.3249048 0.0627470 -0.2582857
v -0.3247832 0.1427469 -0.5327143
v -2.3421406 0.1553408 -0.5327143
v 0.3247832 0.1427469 -0.5327143
v 2.3421406 0.1553408 -0.5327143
v 2.3430177 0.0753456 -0.8071429
v 0.3249048 0.0627470 -0.8071429
v 0.3249048 0.0627470 -0.2582857
v 2.3430177 0.0753456 -0.2582857
v 2.3421406 0.1553408 -0.5327143
v 0.3247832 0.1427469 -0.5327143
v 2.3421406 0.1553408 -0.5327143
v 4.3592890 0.1869867 -0.5327143
v 4.3609216 0.1070033 -0.8071429
v 2.3430177 0.0753456 -0.8071429
v 2.3430177 0.0753456 -0.2582857
v 4.3609216 0.1070033 -0.2582857
v 4.3592890 0.1869867 -0.5327143
v 2.3421406 0.1553408 -0.5327143
v 4.3592890 0.1869867 -0.5327143
v 6.3760486 0.2376817 -0.5327143
v 6.3784366 0.1577174 -0.8071429
v 4.3609216 0.1070033 -0.8071429
v 4.3609216 0.1070033 -0.2582857
v 6.3784366 0.1577174 -0.2582857
v 6.3760486 0.2376817 -0.5327143
v 4.3592890 0.1869867 -0.5327143
v 6.3760486 0.2376817 -0.5327143
v 8.3922395 0.3074214 -0.5327143
v 8.3953826 0.2274831 -0.8071429
v 6.3784366 0.1577174 -0.8071429
v 6.3784366 0.1577174 -0.2582857
v 8.3953826 0.2274831 -0.2582857
v 8.3922395 0.3074214 -0.5327143
v 6.3760486 0.2376817 -0.5327143
v -8.3922395 0.3074214 0.2744286
v -6.3760486 0.2376817 0.2744286
v -6.3784366 0.1577174 0.0000000
v -8.3953826 0.2274831 0.0000000
v -8.3953826 0.2274831 0.5488571
v -6.3784366 0.1577174 0.5488571
v -6.3760486 0.2376817 0.2744286
v -8.3922395 0.3074214 0.2744286
v -6.3760486 0.2376817 0.2744286
v -4.3592890 0.1869867 0.2744286
v -4.3609216 0.1070033 0.0000000
v -6.3784366 0.1577174 0.0000000
v -6.3784366 0.1577174 0.5488571
v -4.3609216 0.1070033 0.5488571
v -4.3592890 0.1869867 0.2744286
v -6.3760486 0.2376817 0.2744286
v -4.3592890 0.1869867 0.2744286
v -2.3421406 0.1553408 0.2744286
v -2.3430177 0.0753456 0.0000000
v -4.3609216 0.1070033 0.0000000
v -4.3609216 0.1070033 0.5488571
v -2.3430177 0.0753456 0.5488571
v -2.3421406 0.1553408 0.2744286
v -4.3592890 0.1869867 0.2744286
v -2.3421406 0.1553408 0.2744286
v -0.3247832 0.1427469 0.2744286
v -0.3249048 0.0627470 0.0000000
v -2.3430177 0.0753456 0.0000000
v -2.3430177 0.0753456 0.5488571
v -0.3249048 0.0627470 0.5488571
v -0.3247832 0.1427469 0.2744286
v -2.3421406 0.1553408 0.2744286
v 0.3247832 0.1427469 0.2744286
v 2.3421406 0.1553408 0.2744286
v 2.3430177 0.0753456 0.0000000
v 0.3249048 0.0627470 0.0000000
v 0.3249048 0.0627470 0.5488571
v 2.3430177 0.0753456 0.5488571
v 2.3421406 0.1553408 0.2744286
v 0.3247832 0.1427469 0.2744286
v 2.3421406 0.1553408 0.2744286
v 4.3592890 0.1869867 0.2744286
v 4.3609216 0.1070033 0.0000000
v 2.3430177 0.0753456 0.0000000
v 2.3430177 0.0753456 0.5488571
v 4.3609216 0.1070033 0.5488571
v 4.3592890 0.1869867 0.2744286
v 2.3421406 0.1553408 0.2744286
v 4.3592890 0.1869867 0.2744286
v 6.3760486 0.2376817 0.2744286
v 6.3784366 0.1577174 0.0000000
v 4.3609216 0.1070033 0.0000000
v 4.3609216 0.1070033 0.5488571
v 6.3784366 0.1577174 0.5488571
v 6.3760486 0.2376817 0.2744286
v 4.3592890 0.1869867 0.2744286
v 6.3760486 0.2376817 0.2744286
v 8.3922395 0.3074214 0.2744286
v 8.3953826 0.2274831 0.0000000
v 6.3784366 0.1577174 0.0000000
v 6.3784366 0.1577174 0.5488571
v 8.3953826 0.2274831 0.5488571
v 8.3922395 0.3074214 0.2744286
v 6.3760486 0.2376817 0.2744286
v -8.3922395 0.3074214 1.0815714
v -6.3760486 0.2376817 1.0815714
v -6.3784366 0.1577174 0.8071429
v -8.3953826 0.2274831 0.8071429
v -8.3953826 0.2274831 1.3560000
v -6.3784366 0.1577174 1.3560000
v -6.3760486 0.2376817 1.0815714
v -8.3922395 0.3074214 1.0815714
v -6.3760486 0.2376817 1.0815714
v -4.3592890 0.1869867 1.0815714
v -4.3609216 0.1070033 0.8071429
v -6.3784366 0.1577174 0.8071429
v -6.3784366 0.1577174 1.3560000
v -4.3609216 0.1070033 1.3560000
v -4.3592890 0.1869867 1.0815714
v -6.3760486 0.2376817 1.0815714
v -4.3592890 0.1869867 1.0815714
v -2.3421406 0.1553408 1.0815714
v -2.3430177 0.0753456 0.8071429
v -4.3609216 0.1070033 0.8071429
v -4.3609216 0.1070033 1.3560000
v -2.3430177 0.0753456 1.3560000
v -2.3421406 0.1553408 1.0815714
v -4.3592890 0.1869867 1.0815714
v -2.3421406 0.1553408 1.0815714
v -0.3247832 0.1427469 1.0815714
v -0.3249048 0.0627470 0.8071429
v -2.3430177 0.0753456 0.8071429
v -2.3430177 0.0753456 1.3560000
v -0.3249048 0.0627470 1.3560000
v -0.3247832 0.1427469 1.0815714
v -2.3421406 0.1553408 1.0815714
v 0.3247832 0.1427469 1.0815714
v 2.3421406 0.1553408 1.0815714
v 2.3430177 0.0753456 0.8071429
v 0.3249048 0.0627470 0.8071429
v 0.3249048 0.0627470 1.3560000
v 2.3430177 0.0753456 1.3560000
v 2.3421406 0.1553408 1.0815714
v 0.3247832 0.1427469 1.0815714
v 2.3421406 0.1553408 1.0815714
v 4.3592890 0.1869867 1.0815714
v 4.3609216 0.1070033 0.8071429
v 2.3430177 0.0753456 0.8071429
v 2.3430177 0.0753456 1.3560000
v 4.3609216 0.1070033 1.3560000
v 4.3592890 0.1869867 1.0815714
v 2.3421406 0.1553408 1.0815714
v 4.3592890 0.1869867 1.0815714
v 6.3760486 0.2376817 1.0815714
v 6.3784366 0.1577174 0.8071429
v 4.3609216 0.1070033 0.8071429
v 4.3609216 0.1070033 1.3560000
v 6.3784366 0.1577174 1.3560000
v 6.3760486 0.2376817 1.0815714
v 4.3592890 0.1869867 1.0815714
v 6.3760486 0.2376817 1.0815714
v 8.3922395 0.3074214 1.0815714
v 8.3953826 0.2274831 0.8071429
v 6.3784366 0.1577174 0.8071429
v 6.3784366 0.1577174 1.3560000
v 8.3953826 0.2274831 1.3560000
v 8.3922395 0.3074214 1.0815714
v 6.3760486 0.2376817 1.0815714
v -8.3922395 0.3074214 1.8887143
v -6.3760486 0.2376817 1.8887143
v -6.3784366 0.1577174 1.6142857
v -8.3953826 0.2274831 1.6142857
v -8.3953826 0.2274831 2.1631429
v -6.3784366 0.1577174 2.1631429
v -6.3760486 0.2376817 1.8887143
v -8.3922395 0.3074214 1.8887143
v -6.3760486 0.2376817 1.8887143
v -4.3592890 0.1869867 1.8887143
v -4.3609216 0.1070033 1.6142857
v -6.3784366 0.1577174 1.6142857
v -6.3784366 0.1577174 2.1631429
v -4.3609216 0.1070033 2.1631429
v -4.3592890 0.1869867 1.8887143
v -6.3760486 0.2376817 1.8887143
v -4.3592890 0.1869867 1.8887143
v -2.3421406 0.1553408 1.8887143
v -2.3430177 0.0753456 1.6142857
v -4.3609216 0.1070033 1.6142857
v -4.3609216 0.1070033 2.1631429
v -2.3430177 0.0753456 2.1631429
v -2.3421406 0.1553408 1.8887143
v -4.3592890 0.1869867 1.8887143
v -2.3421406 0.1553408 1.8887143
v -0.3247832 0.1427469 1.8887143
v -0.3249048 0.0627470 1.6142857
v -2.3430177 0.0753456 1.6142857
v -2.3430177 0.0753456 2.1631429
v -0.3249048 0.0627470 2.1631429
v -0.3247832 0.1427469 1.8887143
v -2.3421406 0.1553408 1.8887143
v 0.3247832 0.1427469 1.8887143
v 2.3421406 0.1553408 1.8887143
v 2.3430177 0.0753456 1.6142857
v 0.3249048 0.0627470 1.6142857
v 0.3249048 0.0627470 2.1631429
v 2.3430177 0.0753456 2.1631429
v 2.3421406 0.1553408 1.8887143
v 0.3247832 0.1427469 1.8887143
v 2.3421406 0.1553408 1.8887143
v 4.3592890 0.1869867 1.8887143
v 4.3609216 0.1070033 1.6142857
v 2.3430177 0.0753456 1.6142857
v 2.3430177 0.0753456 2.1631429
v 4.3609216 0.1070033 2.1631429
v 4.3592890 0.1869867 1.8887143
v 2.3421406 0.1553408 1.8887143
v 4.3592890 0.1869867 1.8887143
v 6.3760486 0.2376817 1.8887143
v 6.3784366 0.1577174 1.6142857
v 4.3609216 0.1070033 1.6142857
v 4.3609216 0.1070033 2.1631429
v 6.3784366 0.1577174 2.1631429
v 6.3760486 0.2376817 1.8887143
v 4.3592890 0.1869867 1.8887143
v 6.3760486 0.2376817 1.8887143
v 8.3922395 0.3074214 1.8887143
v 8.3953826 0.2274831 1.6142857
v 6.3784366 0.1577174 1.6142857
v 6.3784366 0.1577174 2.1631429
v 8.3953826 0.2274831 2.1631429
v 8.3922395 0.3074214 1.8887143
v 6.3760486 0.2376817 1.8887143
v -8.3922395 0.3074214 2.6958571
v -6.3760486 0.2376817 2.6958571
v -6.3784366 0.1577174 2.4214286
v -8.3953826 0.2274831 2.4214286
v -8.3953826 0.2274831 2.9702857
v -6.3784366 0.1577174 2.9702857
v -6.3760486 0.2376817 2.6958571
v -8.3922395 0.3074214 2.6958571
v -6.3760486 0.2376817 2.6958571
v -4.3592890 0.1869867 2.6958571
v -4.3609216 0.1070033 2.4214286
v -6.3784366 0.1577174 2.4214286
v -6.3784366 0.1577174 2.9702857
v -4.3609216 0.1070033 2.9702857
v -4.3592890 0.1869867 2.6958571
v -6.3760486 0.2376817 2.6958571
v -4.3592890 0.1869867 2.6958571
v -2.3421406 0.1553408 2.6958571
v -2.3430177 0.0753456 2.4214286
v -4.3609216 0.1070033 2.4214286
v -4.3609216 0.1070033 2.9702857
v -2.3430177 0.0753456 2.9702857
v -2.3421406 0.1553408 2.6958571
v -4.3592890 0.1869867 2.6958571
v -2.3421406 0.1553408 2.6958571
v -0.3247832 0.1427469 2.6958571
v -0.3249048 0.0627470 2.4214286
v -2.3430177 0.0753456 2.4214286
v -2.3430177 0.0753456 2.9702857
v -0.3249048 0.0627470 2.9702857
v -0.3247832 0.1427469 2.6958571
v -2.3421406 0.1553408 2.6958571
v 0.3247832 0.1427469 2.6958571
v 2.3421406 0.1553408 2.6958571
v 2.3430177 0.0753456 2.4214286
v 0.3249048 0.0627470 2.4214286
v 0.3249048 0.0627470 2.9702857
v 2.3430177 0.0753456 2.9702857
v 2.3421406 0.1553408 2.6958571
v 0.3247832 0.1427469 2.6958571
v 2.3421406 0.1553408 2.6958571
v 4.3592890 0.1869867 2.6958571
v 4.3609216 0.1070033 2.4214286
v 2.3430177 0.0753456 2.4214286
v 2.3430177 0.0753456 2.9702857
v 4.3609216 0.1070033 2.9702857
v 4.3592890 0.1869867 2.6958571
v 2.3421406 0.1553408 2.6958571
v 4.3592890 0.1869867 2.6958571
v 6.3760486 0.2376817 2.6958571
v 6.3784366 0.1577174 2.4214286
v 4.3609216 0.1070033 2.4214286
v 4.3609216 0.1070033 2.9702857
v 6.3784366 0.1577174 2.9702857
v 6.3760486 0.2376817 2.6958571
v 4.3592890 0.1869867 2.6958571
v 6.3760486 0.2376817 2.6958571
v 8.3922395 0.3074214 2.6958571
v 8.3953826 0.2274831 2.4214286
v 6.3784366 0.1577174 2.4214286
v 6.3784366 0.1577174 2.9702857
v 8.3953826 0.2274831 2.9702857
v 8.3922395 0.3074214 2.6958571
v 6.3760486 0.2376817 2.6958571
v -8.3922395 0.3074214 3.5030000
v -6.3760486 0.2376817 3.5030000
v -6.3784366 0.1577174 3.2285714
v -8.3953826 0.2274831 3.2285714
v -8.3953826 0.2274831 3.7774286
v -6.3784366 0.1577174 3.7774286
v -6.3760486 0.2376817 3.5030000
v -8.3922395 0.3074214 3.5030000
v -6.3760486 0.2376817 3.5030000
v -4.3592890 0.1869867 3.5030000
v -4.3609216 0.1070033 3.2285714
v -6.3784366 0.1577174 3.2285714
v -6.3784366 0.1577174 3.7774286
v -4.3609216 0.1070033 3.7774286
v -4.3592890 0.1869867 3.5030000
v -6.3760486 0.2376817 3.5030000
v -4.3592890 0.1869867 3.5030000
v -2.3421406 0.1553408 3.5030000
v -2.3430177 0.0753456 3.2285714
v -4.3609216 0.1070033 3.2285714
v -4.3609216 0.1070033 3.7774286
v -2.3430177 0.0753456 3.7774286
v -2.3421406 0.1553408 3.5030000
v -4.3592890 0.1869867 3.5030000
v -2.3421406 0.1553408 3.5030000
v -0.3247832 0.1427469 3.5030000
v -0.3249048 0.0627470 3.2285714
v -2.3430177 0.0753456 3.2285714
v -2.3430177 0.0753456 3.7774286
v -0.3249048 0.0627470 3.7774286
v -0.3247832 0.1427469 3.5030000
v -2.3421406 0.1553408 3.5030000
v 0.3247832 0.1427469 3.5030000
v 2.3421406 0.1553408 3.5030000
v 2.3430177 0.0753456 3.2285714
v 0.3249048 0.0627470 3.2285714
v 0.3249048 0.0627470 3.7774286
v 2.3430177 0.0753456 3.7774286
v 2.3421406 0.1553408 3.5030000
v 0.3247832 0.1427469 3.5030000
v 2.3421406 0.1553408 3.5030000
v 4.3592890 0.1869867 3.5030000
v 4.3609216 0.1070033 3.2285714
v 2.3430177 0.0753456 3.2285714
v 2.3430177 0.0753456 3.7774286
v 4.3609216 0.1070033 3.7774286
v 4.3592890 0.1869867 3.5030000
v 2.3421406 0.1553408 3.5030000
v 4.3592890 0.1869867 3.5030000
v 6.3760486 0.2376817 3.5030000
v 6.3784366 0.1577174 3.2285714
v 4.3609216 0.1070033 3.2285714
v 4.3609216 0.1070033 3.7774286
v 6.3784366 0.1577174 3.7774286
v 6.3760486 0.2376817 3.5030000
v 4.3592890 0.1869867 3.5030000
v 6.3760486 0.2376817 3.5030000
v 8.3922395 0.3074214 3.5030000
v 8.3953826 0.2274831 3.2285714
v 6.3784366 0.1577174 3.2285714
v 6.3784366 0.1577174 3.7774286
v 8.3953826 0.2274831 3.7774286
v 8.3922395 0.3074214 3.5030000
v 6.3760486 0.2376817 3.5030000
v -8.3922395 0.3074214 4.3101429
v -6.3760486 0.2376817 4.3101429
v -6.3784366 0.1577174 4.0357143
v -8.3953826 0.2274831 4.0357143
v -8.3953826 0.2274831 4.5845714
v -6.3784366 0.1577174 4.5845714
v -6.3760486 0.2376817 4.3101429
v -8.3922395 0.3074214 4.3101429
v -6.3760486 0.2376817 4.3101429
v -4.3592890 0.1869867 4.3101429
v -4.3609216 0.1070033 4.0357143
v -6.3784366 0.1577174 4.0357143
v -6.3784366 0.1577174 4.5845714
v -4.3609216 0.1070033 4.5845714
v -4.3592890 0.1869867 4.3101429
v -6.3760486 0.2376817 4.3101429
v -4.3592890 0.1869867 4.3101429
v -2.3421406 0.1553408 4.3101429
v -2.3430177 0.0753456 4.0357143
v -4.3609216 0.1070033 4.0357143
v -4.3609216 0.1070033 4.5845714
v -2.3430177 0.0753456 4.5845714
v -2.3421406 0.1553408 4.3101429
v -4.3592890 0.1869867 4.3101429
v -2.3421406 0.1553408 4.3101429
v -0.3247832 0.1427469 4.3101429
v -0.3249048 0.0627470 4.0357143
v -2.3430177 0.0753456 4.0357143
v -2.3430177 0.0753456 4.5845714
v -0.3249048 0.0627470 4.5845714
v -0.3247832 0.1427469 4.3101429
v -2.3421406 0.1553408 4.3101429
v 0.3247832 0.1427469 4.3101429
v 2.3421406 0.1553408 4.3101429
v 2.3430177 0.0753456 4.0357143
v 0.3249048 0.0627470 4.0357143
v 0.3249048 0.0627470 4.5845714
v 2.3430177 0.0753456 4.5845714
v 2.3421406 0.1553408 4.3101429
v 0.3247832 0.1427469 4.3101429
v 2.3421406 0.1553408 4.3101429
v 4.3592890 0.1869867 4.3101429
v 4.3609216 0.1070033 4.0357143
v 2.3430177 0.0753456 4.0357143
v 2.3430177 0.0753456 4.5845714
v 4.3609216 0.1070033 4.5845714
v 4.3592890 0.1869867 4.3101429
v 2.3421406 0.1553408 4.3101429
v 4.3592890 0.1869867 4.3101429
v 6.3760486 0.2376817 4.3101429
v 6.3784366 0.1577174 4.0357143
v 4.3609216 0.1070033 4.0357143
v 4.3609216 0.1070033 4.5845714
v 6.3784366 0.1577174 4.5845714
v 6.3760486 0.2376817 4.3101429
v 4.3592890 0.1869867 4.3101429
v 6.3760486 0.2376817 4.3101429
v 8.3922395 0.3074214 4.3101429
v 8.3953826 0.2274831 4.0357143
v 6.3784366 0.1577174 4.0357143
v 6.3784366 0.1577174 4.5845714
v 8.3953826 0.2274831 4.5845714
v 8.3922395 0.3074214 4.3101429
v 6.3760486 0.2376817 4.3101429
v -8.3922395 0.3074214 5.1172857
v -6.3760486 0.2376817 5.1172857
v -6.3784366 0.1577174 4.8428571
v -8.3953826 0.2274831 4.8428571
v -8.3953826 0.2274831 5.3917143
v -6.3784366 0.1577174 5.3917143
v -6.3760486 0.2376817 5.1172857
v -8.3922395 0.3074214 5.1172857
v -6.3760486 0.2376817 5.1172857
v -4.3592890 0.1869867 5.1172857
v -4.3609216 0.1070033 4.8428571
v -6.3784366 0.1577174 4.8428571
v -6.3784366 0.1577174 5.3917143
v -4.3609216 0.1070033 5.3917143
v -4.3592890 0.1869867 5.1172857
v -6.3760486 0.2376817 5.1172857
v -4.3592890 0.1869867 5.1172857
v -2.3421406 0.1553408 5.1172857
v -2.3430177 0.0753456 4.8428571
v -4.3609216 0.1070033 4.8428571
v -4.3609216 0.1070033 5.3917143
v -2.3430177 0.0753456 5.3917143
v -2.3421406 0.1553408 5.1172857
v -4.3592890 0.1869867 5.1172857
v -2.3421406 0.1553408 5.1172857
v -0.3247832 0.1427469 5.1172857
v -0.3249048 0.0627470 4.8428571
v -2.3430177 0.0753456 4.8428571
v -2.3430177 0.0753456 5.3917143
v -0.3249048 0.0627470 5.3917143
v -0.3247832 0.1427469 5.1172857
v -2.3421406 0.1553408 5.1172857
v 0.3247832 0.1427469 5.1172857
v 2.3421406 0.1553408 5.1172857
v 2.3430177 0.0753456 4.8428571
v 0.3249048 0.0627470 4.8428571
v 0.3249048 0.0627470 5.3917143
v 2.3430177 0.0753456 5.3917143
v 2.3421406 0.1553408 5.1172857
v 0.3247832 0.1427469 5.1172857
v 2.3421406 0.1553408 5.1172857
v 4.3592890 0.1869867 5.1172857
v 4.3609216 0.1070033 4.8428571
v 2.3430177 0.0753456 4.8428571
v 2.3430177 0.0753456 5.3917143
v 4.3609216 0.1070033 5.3917143
v 4.3592890 0.1869867 5.1172857
v 2.3421406 0.1553408 5.1172857
v 4.3592890 0.1869867 5.1172857
v 6.3760486 0.2376817 5.1172857
v 6.3784366 0.1577174 4.8428571
v 4.3609216 0.1070033 4.8428571
v 4.3609216 0.1070033 5.3917143
v 6.3784366 0.1577174 5.3917143
v 6.3760486 0.2376817 5.1172857
v 4.3592890 0.1869867 5.1172857
v 6.3760486 0.2376817 5.1172857
v 8.3922395 0.3074214 5.1172857
v 8.3953826 0.2274831 4.8428571
v 6.3784366 0.1577174 4.8428571
v 6.3784366 0.1577174 5.3917143
v 8.3953826 0.2274831 5.3917143
v 8.3922395 0.3074214 5.1172857
v 6.3760486 0.2376817 5.1172857
v -8.3634610 1.0393558 -3.5750000
v -6.2733022 0.9674554 -3.5750000
v -6.2733022 0.9674554 -3.6250000
v -8.3634610 1.0393558 -3.6250000
v -6.2733022 0.9674554 -3.5750000
v -4.1825379 0.9160929 -3.5750000
v -4.1825379 0.9160929 -3.6250000
v -6.2733022 0.9674554 -3.6250000
v -4.1825379 0.9160929 -3.5750000
v -2.0913699 0.8852735 -3.5750000
v -2.0913699 0.8852735 -3.6250000
v -4.1825379 0.9160929 -3.6250000
v -2.0913699 0.8852735 -3.5750000
v 0.0000000 0.8750000 -3.5750000
v 0.0000000 0.8750000 -3.6250000
v -2.0913699 0.8852735 -3.6250000
v 0.0000000 0.8750000 -3.5750000
v 2.0913699 0.8852735 -3.5750000
v 2.0913699 0.8852735 -3.6250000
v 0.0000000 0.8750000 -3.6250000
v 2.0913699 0.8852735 -3.5750000
v 4.1825379 0.9160929 -3.5750000
v 4.1825379 0.9160929 -3.6250000
v 2.0913699 0.8852735 -3.6250000
v 4.1825379 0.9160929 -3.5750000
v 6.2733022 0.9674554 -3.5750000
v 6.2733022 0.9674554 -3.6250000
v 4.1825379 0.9160929 -3.6250000
v 6.2733022 0.9674554 -3.5750000
v 8.3634610 1.0393558 -3.5750000
v 8.3634610 1.0393558 -3.6250000
v 6.2733022 0.9674554 -3.6250000
v -8.3634610 1.0393558 3.6250000
v -6.2733022 0.9674554 3.6250000
v -6.2733022 0.9674554 3.5750000
v -8.3634610 1.0393558 3.5750000
v -6.2733022 0.9674554 3.6250000
v -4.1825379 0.9160929 3.6250000
v -4.1825379 0.9160929 3.5750000
v -6.2733022 0.9674554 3.5750000
v -4.1825379 0.9160929 3.6250000
v -2.0913699 0.8852735 3.6250000
v -2.0913699 0.8852735 3.5750000
v -4.1825379 0.9160929 3.5750000
v -2.0913699 0.8852735 3.6250000
v 0.0000000 0.8750000 3.6250000
v 0.0000000 0.8750000 3.5750000
v -2.0913699 0.8852735 3.5750000
v 0.0000000 0.8750000 3.6250000
v 2.0913699 0.8852735 3.6250000
v 2.0913699 0.8852735 3.5750000
v 0.0000000 0.8750000 3.5750000
v 2.0913699 0.8852735 3.6250000
v 4.1825379 0.9160929 3.6250000
v 4.1825379 0.9160929 3.5750000
v 2.0913699 0.8852735 3.5750000
v 4.1825379 0.9160929 3.6250000
v 6.2733022 0.9674554 3.6250000
v 6.2733022 0.9674554 3.5750000
v 4.1825379 0.9160929 3.5750000
v 6.2733022 0.9674554 3.6250000
v 8.3634610 1.0393558 3.6250000
v 8.3634610 1.0393558 3.5750000
v 6.2733022 0.9674554 3.5750000
vt 0.005000 0.995000
vt 0.245000 0.995000
vt 0.245000 0.755000
vt 0.255000 0.995000
vt 0.495000 0.995000
vt 0.495000 0.755000
vt 0.505000 0.995000
vt 0.745000 0.995000
vt 0.745000 0.755000
vt 0.755000 0.995000
vt 0.995000 0.995000
vt 0.995000 0.755000
vt 0.005000 0.745000
vt 0.245000 0.745000
vt 0.245000 0.505000
vt 0.255000 0.745000
vt 0.495000 0.745000
vt 0.495000 0.505000
vt 0.505000 0.745000
vt 0.745000 0.745000
vt 0.745000 0.505000
vt 0.755000 0.745000
vt 0.995000 0.745000
vt 0.995000 0.505000
vt 0.005000 0.495000
vt 0.245000 0.495000
vt 0.245000 0.255000
vt 0.255000 0.495000
vt 0.495000 0.495000
vt 0.495000 0.255000
vt 0.505000 0.495000
vt 0.745000 0.495000
vt 0.745000 0.255000
vt 0.755000 0.495000
vt 0.995000 0.495000
vt 0.995000 0.255000
vt 0.005000 0.245000
vt 0.245000 0.245000
vt 0.245000 0.005000
vt 0.255000 0.245000
vt 0.495000 0.245000
vt 0.495000 0.005000
vt 0.505000 0.245000
vt 0.745000 0.245000
vt 0.745000 0.005000
vt 0.755000 0.245000
vt 0.995000 0.245000
vt 0.995000 0.005000
g lighting
usemtl farm-kit
f 997/43 998/44 999/45
f 997/43 999/44 1000/45
f 1001/43 1002/44 1003/45
f 1001/43 1003/44 1004/45
f 1005/43 1006/44 1007/45
f 1005/43 1007/44 1008/45
f 1009/43 1010/44 1011/45
f 1009/43 1011/44 1012/45
f 1013/43 1014/44 1015/45
f 1013/43 1015/44 1016/45
f 1017/43 1018/44 1019/45
f 1017/43 1019/44 1020/45
f 1021/43 1022/44 1023/45
f 1021/43 1023/44 1024/45
f 1025/43 1026/44 1027/45
f 1025/43 1027/44 1028/45
f 1029/43 1030/44 1031/45
f 1029/43 1031/44 1032/45
f 1033/43 1034/44 1035/45
f 1033/43 1035/44 1036/45
f 1037/43 1038/44 1039/45
f 1037/43 1039/44 1040/45
f 1041/43 1042/44 1043/45
f 1041/43 1043/44 1044/45
f 1045/43 1046/44 1047/45
f 1045/43 1047/44 1048/45
f 1049/43 1050/44 1051/45
f 1049/43 1051/44 1052/45
f 1053/43 1054/44 1055/45
f 1053/43 1055/44 1056/45
f 1057/43 1058/44 1059/45
f 1057/43 1059/44 1060/45
g ornament
usemtl farm-kit
f 101/16 102/17 103/18
f 101/16 103/17 104/18
f 105/16 106/17 107/18
f 105/16 107/17 108/18
f 109/16 110/17 111/18
f 109/16 111/17 112/18
f 113/16 114/17 115/18
f 113/16 115/17 116/18
f 117/16 118/17 119/18
f 117/16 119/17 120/18
f 121/16 122/17 123/18
f 121/16 123/17 124/18
f 125/16 126/17 127/18
f 125/16 127/17 128/18
f 129/16 130/17 131/18
f 129/16 131/17 132/18
f 133/16 134/17 135/18
f 133/16 135/17 136/18
f 137/16 138/17 139/18
f 137/16 139/17 140/18
f 141/16 142/17 143/18
f 141/16 143/17 144/18
f 145/16 146/17 147/18
f 145/16 147/17 148/18
f 149/16 150/17 151/18
f 149/16 151/17 152/18
f 153/16 154/17 155/18
f 153/16 155/17 156/18
f 157/16 158/17 159/18
f 157/16 159/17 160/18
f 161/16 162/17 163/18
f 161/16 163/17 164/18
f 165/16 166/17 167/18
f 165/16 167/17 168/18
f 169/16 170/17 171/18
f 169/16 171/17 172/18
f 173/16 174/17 175/18
f 173/16 175/17 176/18
f 177/16 178/17 179/18
f 177/16 179/17 180/18
f 181/16 182/17 183/18
f 181/16 183/17 184/18
f 185/16 186/17 187/18
f 185/16 187/17 188/18
f 189/16 190/17 191/18
f 189/16 191/17 192/18
f 193/16 194/17 195/18
f 193/16 195/17 196/18
f 197/16 198/17 199/18
f 197/16 199/17 200/18
f 201/16 202/17 203/18
f 201/16 203/17 204/18
f 205/16 206/17 207/18
f 205/16 207/17 208/18
f 209/16 210/17 211/18
f 209/16 211/17 212/18
f 213/16 214/17 215/18
f 213/16 215/17 216/18
f 217/16 218/17 219/18
f 217/16 219/17 220/18
f 221/16 222/17 223/18
f 221/16 223/17 224/18
f 225/16 226/17 227/18
f 225/16 227/17 228/18
f 229/16 230/17 231/18
f 229/16 231/17 232/18
f 233/16 234/17 235/18
f 233/16 235/17 236/18
f 237/16 238/17 239/18
f 237/16 239/17 240/18
f 241/16 242/17 243/18
f 241/16 243/17 244/18
f 245/16 246/17 247/18
f 245/16 247/17 248/18
f 249/16 250/17 251/18
f 249/16 251/17 252/18
f 253/16 254/17 255/18
f 253/16 255/17 256/18
f 257/16 258/17 259/18
f 257/16 259/17 260/18
f 261/16 262/17 263/18
f 261/16 263/17 264/18
f 265/16 266/17 267/18
f 265/16 267/17 268/18
f 269/16 270/17 271/18
f 269/16 271/17 272/18
f 273/16 274/17 275/18
f 273/16 275/17 276/18
f 277/16 278/17 279/18
f 277/16 279/17 280/18
f 281/16 282/17 283/18
f 281/16 283/17 284/18
f 285/16 286/17 287/18
f 285/16 287/17 288/18
f 289/16 290/17 291/18
f 289/16 291/17 292/18
f 293/16 294/17 295/18
f 293/16 295/17 296/18
f 297/16 298/17 299/18
f 297/16 299/17 300/18
f 301/16 302/17 303/18
f 301/16 303/17 304/18
f 305/16 306/17 307/18
f 305/16 307/17 308/18
f 309/16 310/17 311/18
f 309/16 311/17 312/18
f 313/16 314/17 315/18
f 313/16 315/17 316/18
f 317/16 318/17 319/18
f 317/16 319/17 320/18
f 321/16 322/17 323/18
f 321/16 323/17 324/18
f 325/16 326/17 327/18
f 325/16 327/17 328/18
f 329/16 330/17 331/18
f 329/16 331/17 332/18
f 333/16 334/17 335/18
f 333/16 335/17 336/18
f 337/16 338/17 339/18
f 337/16 339/17 340/18
f 341/16 342/17 343/18
f 341/16 343/17 344/18
f 345/16 346/17 347/18
f 345/16 347/17 348/18
f 349/16 350/17 351/18
f 349/16 351/17 352/18
f 353/16 354/17 355/18
f 353/16 355/17 356/18
f 357/16 358/17 359/18
f 357/16 359/17 360/18
f 361/16 362/17 363/18
f 361/16 363/17 364/18
f 365/16 366/17 367/18
f 365/16 367/17 368/18
f 369/16 370/17 371/18
f 369/16 371/17 372/18
f 373/16 374/17 375/18
f 373/16 375/17 376/18
f 377/16 378/17 379/18
f 377/16 379/17 380/18
f 381/16 382/17 383/18
f 381/16 383/17 384/18
f 385/16 386/17 387/18
f 385/16 387/17 388/18
f 389/16 390/17 391/18
f 389/16 391/17 392/18
f 393/16 394/17 395/18
f 393/16 395/17 396/18
f 397/16 398/17 399/18
f 397/16 399/17 400/18
f 401/16 402/17 403/18
f 401/16 403/17 404/18
f 405/16 406/17 407/18
f 405/16 407/17 408/18
f 409/16 410/17 411/18
f 409/16 411/17 412/18
f 413/16 414/17 415/18
f 413/16 415/17 416/18
f 417/16 418/17 419/18
f 417/16 419/17 420/18
f 421/16 422/17 423/18
f 421/16 423/17 424/18
f 425/16 426/17 427/18
f 425/16 427/17 428/18
f 429/16 430/17 431/18
f 429/16 431/17 432/18
f 433/16 434/17 435/18
f 433/16 435/17 436/18
f 437/16 438/17 439/18
f 437/16 439/17 440/18
f 441/16 442/17 443/18
f 441/16 443/17 444/18
f 445/16 446/17 447/18
f 445/16 447/17 448/18
f 449/16 450/17 451/18
f 449/16 451/17 452/18
f 453/16 454/17 455/18
f 453/16 455/17 456/18
f 457/16 458/17 459/18
f 457/16 459/17 460/18
f 461/16 462/17 463/18
f 461/16 463/17 464/18
f 465/16 466/17 467/18
f 465/16 467/17 468/18
f 469/16 470/17 471/18
f 469/16 471/17 472/18
f 473/16 474/17 475/18
f 473/16 475/17 476/18
f 477/16 478/17 479/18
f 477/16 479/17 480/18
f 481/16 482/17 483/18
f 481/16 483/17 484/18
f 485/16 486/17 487/18
f 485/16 487/17 488/18
f 489/16 490/17 491/18
f 489/16 491/17 492/18
f 493/16 494/17 495/18
f 493/16 495/17 496/18
f 497/16 498/17 499/18
f 497/16 499/17 500/18
f 501/16 502/17 503/18
f 501/16 503/17 504/18
f 505/16 506/17 507/18
f 505/16 507/17 508/18
f 509/16 510/17 511/18
f 509/16 511/17 512/18
f 513/16 514/17 515/18
f 513/16 515/17 516/18
f 517/16 518/17 519/18
f 517/16 519/17 520/18
f 521/16 522/17 523/18
f 521/16 523/17 524/18
f 525/16 526/17 527/18
f 525/16 527/17 528/18
f 529/16 530/17 531/18
f 529/16 531/17 532/18
f 533/16 534/17 535/18
f 533/16 535/17 536/18
f 537/16 538/17 539/18
f 537/16 539/17 540/18
f 541/16 542/17 543/18
f 541/16 543/17 544/18
f 545/16 546/17 547/18
f 545/16 547/17 548/18
f 549/16 550/17 551/18
f 549/16 551/17 552/18
f 553/16 554/17 555/18
f 553/16 555/17 556/18
f 557/16 558/17 559/18
f 557/16 559/17 560/18
f 561/16 562/17 563/18
f 561/16 563/17 564/18
f 565/16 566/17 567/18
f 565/16 567/17 568/18
f 569/16 570/17 571/18
f 569/16 571/17 572/18
f 573/16 574/17 575/18
f 573/16 575/17 576/18
f 577/16 578/17 579/18
f 577/16 579/17 580/18
f 581/16 582/17 583/18
f 581/16 583/17 584/18
f 585/16 586/17 587/18
f 585/16 587/17 588/18
f 589/16 590/17 591/18
f 589/16 591/17 592/18
f 593/16 594/17 595/18
f 593/16 595/17 596/18
f 597/16 598/17 599/18
f 597/16 599/17 600/18
f 601/16 602/17 603/18
f 601/16 603/17 604/18
f 605/16 606/17 607/18
f 605/16 607/17 608/18
f 609/16 610/17 611/18
f 609/16 611/17 612/18
f 613/16 614/17 615/18
f 613/16 615/17 616/18
f 617/16 618/17 619/18
f 617/16 619/17 620/18
f 621/16 622/17 623/18
f 621/16 623/17 624/18
f 625/16 626/17 627/18
f 625/16 627/17 628/18
f 629/16 630/17 631/18
f 629/16 631/17 632/18
f 633/16 634/17 635/18
f 633/16 635/17 636/18
f 637/16 638/17 639/18
f 637/16 639/17 640/18
f 641/16 642/17 643/18
f 641/16 643/17 644/18
f 645/16 646/17 647/18
f 645/16 647/17 648/18
f 649/16 650/17 651/18
f 649/16 651/17 652/18
f 653/16 654/17 655/18
f 653/16 655/17 656/18
f 657/16 658/17 659/18
f 657/16 659/17 660/18
f 661/16 662/17 663/18
f 661/16 663/17 664/18
f 665/16 666/17 667/18
f 665/16 667/17 668/18
f 669/16 670/17 671/18
f 669/16 671/17 672/18
f 673/16 674/17 675/18
f 673/16 675/17 676/18
f 677/16 678/17 679/18
f 677/16 679/17 680/18
f 681/16 682/17 683/18
f 681/16 683/17 684/18
f 685/16 686/17 687/18
f 685/16 687/17 688/18
f 689/16 690/17 691/18
f 689/16 691/17 692/18
f 693/16 694/17 695/18
f 693/16 695/17 696/18
f 697/16 698/17 699/18
f 697/16 699/17 700/18
f 701/16 702/17 703/18
f 701/16 703/17 704/18
f 705/16 706/17 707/18
f 705/16 707/17 708/18
f 709/16 710/17 711/18
f 709/16 711/17 712/18
f 713/16 714/17 715/18
f 713/16 715/17 716/18
f 717/16 718/17 719/18
f 717/16 719/17 720/18
f 721/16 722/17 723/18
f 721/16 723/17 724/18
f 725/16 726/17 727/18
f 725/16 727/17 728/18
f 729/16 730/17 731/18
f 729/16 731/17 732/18
f 733/16 734/17 735/18
f 733/16 735/17 736/18
f 737/16 738/17 739/18
f 737/16 739/17 740/18
f 741/16 742/17 743/18
f 741/16 743/17 744/18
f 745/16 746/17 747/18
f 745/16 747/17 748/18
f 749/16 750/17 751/18
f 749/16 751/17 752/18
f 753/16 754/17 755/18
f 753/16 755/17 756/18
f 757/16 758/17 759/18
f 757/16 759/17 760/18
f 761/16 762/17 763/18
f 761/16 763/17 764/18
f 765/16 766/17 767/18
f 765/16 767/17 768/18
f 769/16 770/17 771/18
f 769/16 771/17 772/18
f 773/16 774/17 775/18
f 773/16 775/17 776/18
f 777/16 778/17 779/18
f 777/16 779/17 780/18
f 781/16 782/17 783/18
f 781/16 783/17 784/18
f 785/16 786/17 787/18
f 785/16 787/17 788/18
f 789/16 790/17 791/18
f 789/16 791/17 792/18
f 793/16 794/17 795/18
f 793/16 795/17 796/18
f 797/16 798/17 799/18
f 797/16 799/17 800/18
f 801/16 802/17 803/18
f 801/16 803/17 804/18
f 805/16 806/17 807/18
f 805/16 807/17 808/18
f 809/16 810/17 811/18
f 809/16 811/17 812/18
f 813/16 814/17 815/18
f 813/16 815/17 816/18
f 817/16 818/17 819/18
f 817/16 819/17 820/18
f 821/16 822/17 823/18
f 821/16 823/17 824/18
f 825/16 826/17 827/18
f 825/16 827/17 828/18
f 829/16 830/17 831/18
f 829/16 831/17 832/18
f 833/16 834/17 835/18
f 833/16 835/17 836/18
f 837/16 838/17 839/18
f 837/16 839/17 840/18
f 841/16 842/17 843/18
f 841/16 843/17 844/18
f 845/16 846/17 847/18
f 845/16 847/17 848/18
f 849/16 850/17 851/18
f 849/16 851/17 852/18
f 853/16 854/17 855/18
f 853/16 855/17 856/18
f 857/16 858/17 859/18
f 857/16 859/17 860/18
f 861/16 862/17 863/18
f 861/16 863/17 864/18
f 865/16 866/17 867/18
f 865/16 867/17 868/18
f 869/16 870/17 871/18
f 869/16 871/17 872/18
f 873/16 874/17 875/18
f 873/16 875/17 876/18
f 877/16 878/17 879/18
f 877/16 879/17 880/18
f 881/16 882/17 883/18
f 881/16 883/17 884/18
f 885/16 886/17 887/18
f 885/16 887/17 888/18
f 889/16 890/17 891/18
f 889/16 891/17 892/18
f 893/16 894/17 895/18
f 893/16 895/17 896/18
f 897/16 898/17 899/18
f 897/16 899/17 900/18
f 901/16 902/17 903/18
f 901/16 903/17 904/18
f 905/16 906/17 907/18
f 905/16 907/17 908/18
f 909/16 910/17 911/18
f 909/16 911/17 912/18
f 913/16 914/17 915/18
f 913/16 915/17 916/18
f 917/16 918/17 919/18
f 917/16 919/17 920/18
f 921/16 922/17 923/18
f 921/16 923/17 924/18
f 925/16 926/17 927/18
f 925/16 927/17 928/18
f 929/16 930/17 931/18
f 929/16 931/17 932/18
f 933/16 934/17 935/18
f 933/16 935/17 936/18
f 937/16 938/17 939/18
f 937/16 939/17 940/18
f 941/16 942/17 943/18
f 941/16 943/17 944/18
f 945/16 946/17 947/18
f 945/16 947/17 948/18
f 949/16 950/17 951/18
f 949/16 951/17 952/18
f 953/16 954/17 955/18
f 953/16 955/17 956/18
f 957/16 958/17 959/18
f 957/16 959/17 960/18
f 961/16 962/17 963/18
f 961/16 963/17 964/18
f 965/16 966/17 967/18
f 965/16 967/17 968/18
f 969/16 970/17 971/18
f 969/16 971/17 972/18
f 973/16 974/17 975/18
f 973/16 975/17 976/18
f 977/16 978/17 979/18
f 977/16 979/17 980/18
f 981/16 982/17 983/18
f 981/16 983/17 984/18
f 985/16 986/17 987/18
f 985/16 987/17 988/18
f 989/16 990/17 991/18
f 989/16 991/17 992/18
f 993/16 994/17 995/18
f 993/16 995/17 996/18
g support
usemtl farm-kit
f 1/1 2/2 3/3
f 1/1 3/2 4/3
f 5/1 6/2 7/3
f 5/1 7/2 8/3
f 9/1 10/2 11/3
f 9/1 11/2 12/3
f 13/1 14/2 15/3
f 13/1 15/2 16/3
f 17/1 18/2 19/3
f 17/1 19/2 20/3
f 21/1 22/2 23/3
f 21/1 23/2 24/3
f 25/1 26/2 27/3
f 25/1 27/2 28/3
f 29/1 30/2 31/3
f 29/1 31/2 32/3
f 33/4 34/5 35/6
f 33/4 35/5 36/6
f 37/4 38/5 39/6
f 37/4 39/5 40/6
f 41/4 42/5 43/6
f 41/4 43/5 44/6
f 45/4 46/5 47/6
f 45/4 47/5 48/6
f 49/4 50/5 51/6
f 49/4 51/5 52/6
f 53/4 54/5 55/6
f 53/4 55/5 56/6
f 57/4 58/5 59/6
f 57/4 59/5 60/6
f 61/4 62/5 63/6
f 61/4 63/5 64/6
f 65/4 66/5 67/6
f 65/4 67/5 68/6
f 69/4 70/5 71/6
f 69/4 71/5 72/6
f 73/4 74/5 75/6
f 73/4 75/5 76/6
f 77/4 78/5 79/6
f 77/4 79/5 80/6
f 81/4 82/5 83/6
f 81/4 83/5 84/6
f 85/4 86/5 87/6
f 85/4 87/5 88/6
f 89/4 90/5 91/6
f 89/4 91/5 92/6
f 93/4 94/5 95/6
f 93/4 95/5 96/6
f 97/4 98/5 99/6
f 97/4 99/5 100/6
