mtllib TorusSettlementFarm_Orchard.mtl
v -7.2485250 0.1266437 1.5000000
v -5.1780339 0.0646174 1.5000000
v -5.1780339 0.0646174 -1.5000000
v -7.2485250 0.1266437 -1.5000000
v -5.1780339 0.0646174 1.5000000
v -3.1070267 0.0232630 1.5000000
v -3.1070267 0.0232630 -1.5000000
v -5.1780339 0.0646174 -1.5000000
v -3.1070267 0.0232630 1.5000000
v -1.0357100 0.0025848 1.5000000
v -1.0357100 0.0025848 -1.5000000
v -3.1070267 0.0232630 -1.5000000
v -1.0357100 0.0025848 1.5000000
v 1.0357100 0.0025848 1.5000000
v 1.0357100 0.0025848 -1.5000000
v -1.0357100 0.0025848 -1.5000000
v 1.0357100 0.0025848 1.5000000
v 3.1070267 0.0232630 1.5000000
v 3.1070267 0.0232630 -1.5000000
v 1.0357100 0.0025848 -1.5000000
v 3.1070267 0.0232630 1.5000000
v 5.1780339 0.0646174 1.5000000
v 5.1780339 0.0646174 -1.5000000
v 3.1070267 0.0232630 -1.5000000
v 5.1780339 0.0646174 1.5000000
v 7.2485250 0.1266437 1.5000000
v 7.2485250 0.1266437 -1.5000000
v 5.1780339 0.0646174 -1.5000000
v -7.2480883 0.1391361 -1.1500000
v -5.1777219 0.0771135 -1.1500000
v -5.1777219 0.0771135 -1.5000000
v -7.2480883 0.1391361 -1.5000000
v -5.1777219 0.0771135 -1.1500000
v -3.1068396 0.0357616 -1.1500000
v -3.1068396 0.0357616 -1.5000000
v -5.1777219 0.0771135 -1.5000000
v -3.1068396 0.0357616 -1.1500000
v -1.0356476 0.0150847 -1.1500000
v -1.0356476 0.0150847 -1.5000000
v -3.1068396 0.0357616 -1.5000000
v -1.0356476 0.0150847 -1.1500000
v 1.0356476 0.0150847 -1.1500000
v 1.0356476 0.0150847 -1.5000000
v -1.0356476 0.0150847 -1.5000000
v 1.0356476 0.0150847 -1.1500000
v 3.1068396 0.0357616 -1.1500000
v 3.1068396 0.0357616 -1.5000000
v 1.0356476 0.0150847 -1.5000000
v 3.1068396 0.0357616 -1.1500000
v 5.1777219 0.0771135 -1.1500000
v 5.1777219 0.0771135 -1.5000000
v 3.1068396 0.0357616 -1.5000000
v 5.1777219 0.0771135 -1.1500000
v 7.2480883 0.1391361 -1.1500000
v 7.2480883 0.1391361 -1.5000000
v 5.1777219 0.0771135 -1.5000000
v -7.2480883 0.1391361 1.5000000
v -5.1777219 0.0771135 1.5000000
v -5.1777219 0.0771135 1.1500000
v -7.2480883 0.1391361 1.1500000
v -5.1777219 0.0771135 1.5000000
v -3.1068396 0.0357616 1.5000000
v -3.1068396 0.0357616 1.1500000
v -5.1777219 0.0771135 1.1500000
v -3.1068396 0.0357616 1.5000000
v -1.0356476 0.0150847 1.5000000
v -1.0356476 0.0150847 1.1500000
v -3.1068396 0.0357616 1.1500000
v -1.0356476 0.0150847 1.5000000
v 1.0356476 0.0150847 1.5000000
v 1.0356476 0.0150847 1.1500000
v -1.0356476 0.0150847 1.1500000
v 1.0356476 0.0150847 1.5000000
v 3.1068396 0.0357616 1.5000000
v 3.1068396 0.0357616 1.1500000
v 1.0356476 0.0150847 1.1500000
v 3.1068396 0.0357616 1.5000000
v 5.1777219 0.0771135 1.5000000
v 5.1777219 0.0771135 1.1500000
v 3.1068396 0.0357616 1.1500000
v 5.1777219 0.0771135 1.5000000
v 7.2480883 0.1391361 1.5000000
v 7.2480883 0.1391361 1.1500000
v 5.1777219 0.0771135 1.1500000
v -0.2999818 0.0127169 1.5000000
v 0.2999818 0.0127169 1.5000000
v 0.2999818 0.0127169 -1.5000000
v -0.2999818 0.0127169 -1.5000000
v -6.8983960 0.1247068 1.1500000
v -4.7077024 0.0634130 1.1500000
v -4.7077024 0.0634130 -1.1500000
v -6.8983960 0.1247068 -1.1500000
v -4.7077024 0.0634130 1.1500000
v -2.5164837 0.0252608 1.1500000
v -2.5164837 0.0252608 -1.1500000
v -4.7077024 0.0634130 -1.1500000
v -2.5164837 0.0252608 1.1500000
v -0.3249842 0.0102545 1.1500000
v -0.3249842 0.0102545 -1.1500000
v -2.5164837 0.0252608 -1.1500000
v 0.3249842 0.0102545 1.1500000
v 2.5164837 0.0252608 1.1500000
v 2.5164837 0.0252608 -1.1500000
v 0.3249842 0.0102545 -1.1500000
v 2.5164837 0.0252608 1.1500000
v 4.7077024 0.0634130 1.1500000
v 4.7077024 0.0634130 -1.1500000
v 2.5164837 0.0252608 -1.1500000
v 4.7077024 0.0634130 1.1500000
v 6.8983960 0.1247068 1.1500000
v 6.8983960 0.1247068 -1.1500000
v 4.7077024 0.0634130 -1.1500000
v -5.5255717 0.6362841 -0.8687500
v -5.4632631 0.6346291 -0.8687500
v -5.4632631 0.6346291 -0.9312500
v -5.5255717 0.6362841 -0.9312500
v -5.5255717 0.6362841 -0.9312500
v -5.4632631 0.6346291 -0.9312500
v -5.4777834 0.0848208 -0.9312500
v -5.5402576 0.0864802 -0.9312500
v -5.4632631 0.6346291 -0.9312500
v -5.4632631 0.6346291 -0.8687500
v -5.4777834 0.0848208 -0.8687500
v -5.4777834 0.0848208 -0.9312500
v -5.4632631 0.6346291 -0.8687500
v -5.5255717 0.6362841 -0.8687500
v -5.5402576 0.0864802 -0.8687500
v -5.4777834 0.0848208 -0.8687500
v -5.5255717 0.6362841 -0.8687500
v -5.5255717 0.6362841 -0.9312500
v -5.5402576 0.0864802 -0.9312500
v -5.5402576 0.0864802 -0.8687500
v -5.4794825 1.1977560 -0.9000000
v -5.1756239 0.6897523 -0.5818019
v -5.0442591 0.6865065 -0.9000000
v -5.4987320 0.4730116 -0.9000000
v -5.0442591 0.6865065 -0.9000000
v -5.1756239 0.6897523 -0.5818019
v -5.4794825 1.1977560 -0.9000000
v -5.4927580 0.6979322 -0.4500000
v -5.1756239 0.6897523 -0.5818019
v -5.4987320 0.4730116 -0.9000000
v -5.1756239 0.6897523 -0.5818019
v -5.4927580 0.6979322 -0.4500000
v -5.4794825 1.1977560 -0.9000000
v -5.8098792 0.7065984 -0.5818019
v -5.4927580 0.6979322 -0.4500000
v -5.4987320 0.4730116 -0.9000000
v -5.4927580 0.6979322 -0.4500000
v -5.8098792 0.7065984 -0.5818019
v -5.4794825 1.1977560 -0.9000000
v -5.9412312 0.7103305 -0.9000000
v -5.8098792 0.7065984 -0.5818019
v -5.4987320 0.4730116 -0.9000000
v -5.8098792 0.7065984 -0.5818019
v -5.9412312 0.7103305 -0.9000000
v -5.4794825 1.1977560 -0.9000000
v -5.8098792 0.7065984 -1.2181981
v -5.9412312 0.7103305 -0.9000000
v -5.4987320 0.4730116 -0.9000000
v -5.9412312 0.7103305 -0.9000000
v -5.8098792 0.7065984 -1.2181981
v -5.4794825 1.1977560 -0.9000000
v -5.4927580 0.6979322 -1.3500000
v -5.8098792 0.7065984 -1.2181981
v -5.4987320 0.4730116 -0.9000000
v -5.8098792 0.7065984 -1.2181981
v -5.4927580 0.6979322 -1.3500000
v -5.4794825 1.1977560 -0.9000000
v -5.1756239 0.6897523 -1.2181981
v -5.4927580 0.6979322 -1.3500000
v -5.4987320 0.4730116 -0.9000000
v -5.4927580 0.6979322 -1.3500000
v -5.1756239 0.6897523 -1.2181981
v -5.4794825 1.1977560 -0.9000000
v -5.0442591 0.6865065 -0.9000000
v -5.1756239 0.6897523 -1.2181981
v -5.4987320 0.4730116 -0.9000000
v -5.1756239 0.6897523 -1.2181981
v -5.0442591 0.6865065 -0.9000000
v -1.9110282 0.5713242 -0.8687500
v -1.8487002 0.5707580 -0.8687500
v -1.8487002 0.5707580 -0.9312500
v -1.9110282 0.5713242 -0.9312500
v -1.9110282 0.5713242 -0.9312500
v -1.8487002 0.5707580 -0.9312500
v -1.8536137 0.0207799 -0.9312500
v -1.9161073 0.0213476 -0.9312500
v -1.8487002 0.5707580 -0.9312500
v -1.8487002 0.5707580 -0.8687500
v -1.8536137 0.0207799 -0.8687500
v -1.8536137 0.0207799 -0.9312500
v -1.8487002 0.5707580 -0.8687500
v -1.9110282 0.5713242 -0.8687500
v -1.9161073 0.0213476 -0.8687500
v -1.8536137 0.0207799 -0.8687500
v -1.9110282 0.5713242 -0.8687500
v -1.9110282 0.5713242 -0.9312500
v -1.9161073 0.0213476 -0.9312500
v -1.9161073 0.0213476 -0.8687500
v -1.8747543 1.1335155 -0.9000000
v -1.5620678 0.6308975 -0.5818019
v -1.4306663 0.6299470 -0.9000000
v -1.8813404 0.4085454 -0.9000000
v -1.4306663 0.6299470 -0.9000000
v -1.5620678 0.6308975 -0.5818019
v -1.8747543 1.1335155 -0.9000000
v -1.8792964 0.6335361 -0.4500000
v -1.5620678 0.6308975 -0.5818019
v -1.8813404 0.4085454 -0.9000000
v -1.5620678 0.6308975 -0.5818019
v -1.8792964 0.6335361 -0.4500000
v -1.8747543 1.1335155 -0.9000000
v -2.1965206 0.6366612 -0.5818019
v -1.8792964 0.6335361 -0.4500000
v -1.8813404 0.4085454 -0.9000000
v -1.8792964 0.6335361 -0.4500000
v -2.1965206 0.6366612 -0.5818019
v -1.8747543 1.1335155 -0.9000000
v -2.3279177 0.6380982 -0.9000000
v -2.1965206 0.6366612 -0.5818019
v -1.8813404 0.4085454 -0.9000000
v -2.1965206 0.6366612 -0.5818019
v -2.3279177 0.6380982 -0.9000000
v -1.8747543 1.1335155 -0.9000000
v -2.1965206 0.6366612 -1.2181981
v -2.3279177 0.6380982 -0.9000000
v -1.8813404 0.4085454 -0.9000000
v -2.3279177 0.6380982 -0.9000000
v -2.1965206 0.6366612 -1.2181981
v -1.8747543 1.1335155 -0.9000000
v -1.8792964 0.6335361 -1.3500000
v -2.1965206 0.6366612 -1.2181981
v -1.8813404 0.4085454 -0.9000000
v -2.1965206 0.6366612 -1.2181981
v -1.8792964 0.6335361 -1.3500000
v -1.8747543 1.1335155 -0.9000000
v -1.5620678 0.6308975 -1.2181981
v -1.8792964 0.6335361 -1.3500000
v -1.8813404 0.4085454 -0.9000000
v -1.8792964 0.6335361 -1.3500000
v -1.5620678 0.6308975 -1.2181981
v -1.8747543 1.1335155 -0.9000000
v -1.4306663 0.6299470 -0.9000000
v -1.5620678 0.6308975 -1.2181981
v -1.8813404 0.4085454 -0.9000000
v -1.5620678 0.6308975 -1.2181981
v -1.4306663 0.6299470 -0.9000000
v 1.7040986 0.5695166 -0.8687500
v 1.7664270 0.5700393 -0.8687500
v 1.7664270 0.5700393 -0.9312500
v 1.7040986 0.5695166 -0.9312500
v 1.7040986 0.5695166 -0.9312500
v 1.7664270 0.5700393 -0.9312500
v 1.7711218 0.0200593 -0.9312500
v 1.7086278 0.0195353 -0.9312500
v 1.7664270 0.5700393 -0.9312500
v 1.7664270 0.5700393 -0.8687500
v 1.7711218 0.0200593 -0.8687500
v 1.7711218 0.0200593 -0.9312500
v 1.7664270 0.5700393 -0.8687500
v 1.7040986 0.5695166 -0.8687500
v 1.7086278 0.0195353 -0.8687500
v 1.7711218 0.0200593 -0.8687500
v 1.7040986 0.5695166 -0.8687500
v 1.7040986 0.5695166 -0.9312500
v 1.7086278 0.0195353 -0.9312500
v 1.7086278 0.0195353 -0.8687500
v 1.7305460 1.1322558 -0.9000000
v 2.0519650 0.6351768 -0.5818019
v 2.1833631 0.6365220 -0.9000000
v 1.7366254 0.4072813 -0.9000000
v 2.1833631 0.6365220 -0.9000000
v 2.0519650 0.6351768 -0.5818019
v 1.7305460 1.1322558 -0.9000000
v 1.7347387 0.6322734 -0.4500000
v 2.0519650 0.6351768 -0.5818019
v 1.7366254 0.4072813 -0.9000000
v 2.0519650 0.6351768 -0.5818019
v 1.7347387 0.6322734 -0.4500000
v 1.7305460 1.1322558 -0.9000000
v 1.4175083 0.6298564 -0.5818019
v 1.7347387 0.6322734 -0.4500000
v 1.7366254 0.4072813 -0.9000000
v 1.7347387 0.6322734 -0.4500000
v 1.4175083 0.6298564 -0.5818019
v 1.7305460 1.1322558 -0.9000000
v 1.2861062 0.6289978 -0.9000000
v 1.4175083 0.6298564 -0.5818019
v 1.7366254 0.4072813 -0.9000000
v 1.4175083 0.6298564 -0.5818019
v 1.2861062 0.6289978 -0.9000000
v 1.7305460 1.1322558 -0.9000000
v 1.4175083 0.6298564 -1.2181981
v 1.2861062 0.6289978 -0.9000000
v 1.7366254 0.4072813 -0.9000000
v 1.2861062 0.6289978 -0.9000000
v 1.4175083 0.6298564 -1.2181981
v 1.7305460 1.1322558 -0.9000000
v 1.7347387 0.6322734 -1.3500000
v 1.4175083 0.6298564 -1.2181981
v 1.7366254 0.4072813 -0.9000000
v 1.4175083 0.6298564 -1.2181981
v 1.7347387 0.6322734 -1.3500000
v 1.7305460 1.1322558 -0.9000000
v 2.0519650 0.6351768 -1.2181981
v 1.7347387 0.6322734 -1.3500000
v 1.7366254 0.4072813 -0.9000000
v 1.7347387 0.6322734 -1.3500000
v 2.0519650 0.6351768 -1.2181981
v 1.7305460 1.1322558 -0.9000000
v 2.1833631 0.6365220 -0.9000000
v 2.0519650 0.6351768 -1.2181981
v 1.7366254 0.4072813 -0.9000000
v 2.0519650 0.6351768 -1.2181981
v 2.1833631 0.6365220 -0.9000000
v 5.3187053 0.6308619 -0.8687500
v 5.3810150 0.6324733 -0.8687500
v 5.3810150 0.6324733 -0.9312500
v 5.3187053 0.6308619 -0.9312500
v 5.3187053 0.6308619 -0.9312500
v 5.3810150 0.6324733 -0.9312500
v 5.3953167 0.0826593 -0.9312500
v 5.3328414 0.0810436 -0.9312500
v 5.3810150 0.6324733 -0.9312500
v 5.3810150 0.6324733 -0.8687500
v 5.3953167 0.0826593 -0.8687500
v 5.3953167 0.0826593 -0.9312500
v 5.3810150 0.6324733 -0.8687500
v 5.3187053 0.6308619 -0.8687500
v 5.3328414 0.0810436 -0.8687500
v 5.3953167 0.0826593 -0.8687500
v 5.3187053 0.6308619 -0.8687500
v 5.3187053 0.6308619 -0.9312500
v 5.3328414 0.0810436 -0.9312500
v 5.3328414 0.0810436 -0.8687500
v 5.3353182 1.1939773 -0.9000000
v 5.6653716 0.7025890 -0.5818019
v 5.7967261 0.7062293 -0.9000000
v 5.3540613 0.4692196 -0.9000000
v 5.7967261 0.7062293 -0.9000000
v 5.6653716 0.7025890 -0.5818019
v 5.3353182 1.1939773 -0.9000000
v 5.3482444 0.6941444 -0.4500000
v 5.6653716 0.7025890 -0.5818019
v 5.3540613 0.4692196 -0.9000000
v 5.6653716 0.7025890 -0.5818019
v 5.3482444 0.6941444 -0.4500000
v 5.3353182 1.1939773 -0.9000000
v 5.0311047 0.6861861 -0.5818019
v 5.3482444 0.6941444 -0.4500000
v 5.3540613 0.4692196 -0.9000000
v 5.3482444 0.6941444 -0.4500000
v 5.0311047 0.6861861 -0.5818019
v 5.3353182 1.1939773 -0.9000000
v 4.8997376 0.6830321 -0.9000000
v 5.0311047 0.6861861 -0.5818019
v 5.3540613 0.4692196 -0.9000000
v 5.0311047 0.6861861 -0.5818019
v 4.8997376 0.6830321 -0.9000000
v 5.3353182 1.1939773 -0.9000000
v 5.0311047 0.6861861 -1.2181981
v 4.8997376 0.6830321 -0.9000000
v 5.3540613 0.4692196 -0.9000000
v 4.8997376 0.6830321 -0.9000000
v 5.0311047 0.6861861 -1.2181981
v 5.3353182 1.1939773 -0.9000000
v 5.3482444 0.6941444 -1.3500000
v 5.0311047 0.6861861 -1.2181981
v 5.3540613 0.4692196 -0.9000000
v 5.0311047 0.6861861 -1.2181981
v 5.3482444 0.6941444 -1.3500000
v 5.3353182 1.1939773 -0.9000000
v 5.6653716 0.7025890 -1.2181981
v 5.3482444 0.6941444 -1.3500000
v 5.3540613 0.4692196 -0.9000000
v 5.3482444 0.6941444 -1.3500000
v 5.6653716 0.7025890 -1.2181981
v 5.3353182 1.1939773 -0.9000000
v 5.7967261 0.7062293 -0.9000000
v 5.6653716 0.7025890 -1.2181981
v 5.3540613 0.4692196 -0.9000000
v 5.6653716 0.7025890 -1.2181981
v 5.7967261 0.7062293 -0.9000000
v -5.5255717 0.6362841 0.0312500
v -5.4632631 0.6346291 0.0312500
v -5.4632631 0.6346291 -0.0312500
v -5.5255717 0.6362841 -0.0312500
v -5.5255717 0.6362841 -0.0312500
v -5.4632631 0.6346291 -0.0312500
v -5.4777834 0.0848208 -0.0312500
v -5.5402576 0.0864802 -0.0312500
v -5.4632631 0.6346291 -0.0312500
v -5.4632631 0.6346291 0.0312500
v -5.4777834 0.0848208 0.0312500
v -5.4777834 0.0848208 -0.0312500
v -5.4632631 0.6346291 0.0312500
v -5.5255717 0.6362841 0.0312500
v -5.5402576 0.0864802 0.0312500
v -5.4777834 0.0848208 0.0312500
v -5.5255717 0.6362841 0.0312500
v -5.5255717 0.6362841 -0.0312500
v -5.5402576 0.0864802 -0.0312500
v -5.5402576 0.0864802 0.0312500
v -5.4794825 1.1977560 0.0000000
v -5.1756239 0.6897523 0.3181981
v -5.0442591 0.6865065 0.0000000
v -5.4987320 0.4730116 0.0000000
v -5.0442591 0.6865065 0.0000000
v -5.1756239 0.6897523 0.3181981
v -5.4794825 1.1977560 0.0000000
v -5.4927580 0.6979322 0.4500000
v -5.1756239 0.6897523 0.3181981
v -5.4987320 0.4730116 0.0000000
v -5.1756239 0.6897523 0.3181981
v -5.4927580 0.6979322 0.4500000
v -5.4794825 1.1977560 0.0000000
v -5.8098792 0.7065984 0.3181981
v -5.4927580 0.6979322 0.4500000
v -5.4987320 0.4730116 0.0000000
v -5.4927580 0.6979322 0.4500000
v -5.8098792 0.7065984 0.3181981
v -5.4794825 1.1977560 0.0000000
v -5.9412312 0.7103305 0.0000000
v -5.8098792 0.7065984 0.3181981
v -5.4987320 0.4730116 0.0000000
v -5.8098792 0.7065984 0.3181981
v -5.9412312 0.7103305 0.0000000
v -5.4794825 1.1977560 0.0000000
v -5.8098792 0.7065984 -0.3181981
v -5.9412312 0.7103305 0.0000000
v -5.4987320 0.4730116 0.0000000
v -5.9412312 0.7103305 0.0000000
v -5.8098792 0.7065984 -0.3181981
v -5.4794825 1.1977560 0.0000000
v -5.4927580 0.6979322 -0.4500000
v -5.8098792 0.7065984 -0.3181981
v -5.4987320 0.4730116 0.0000000
v -5.8098792 0.7065984 -0.3181981
v -5.4927580 0.6979322 -0.4500000
v -5.4794825 1.1977560 0.0000000
v -5.1756239 0.6897523 -0.3181981
v -5.4927580 0.6979322 -0.4500000
v -5.4987320 0.4730116 0.0000000
v -5.4927580 0.6979322 -0.4500000
v -5.1756239 0.6897523 -0.3181981
v -5.4794825 1.1977560 0.0000000
v -5.0442591 0.6865065 0.0000000
v -5.1756239 0.6897523 -0.3181981
v -5.4987320 0.4730116 0.0000000
v -5.1756239 0.6897523 -0.3181981
v -5.0442591 0.6865065 0.0000000
v -1.9110282 0.5713242 0.0312500
v -1.8487002 0.5707580 0.0312500
v -1.8487002 0.5707580 -0.0312500
v -1.9110282 0.5713242 -0.0312500
v -1.9110282 0.5713242 -0.0312500
v -1.8487002 0.5707580 -0.0312500
v -1.8536137 0.0207799 -0.0312500
v -1.9161073 0.0213476 -0.0312500
v -1.8487002 0.5707580 -0.0312500
v -1.8487002 0.5707580 0.0312500
v -1.8536137 0.0207799 0.0312500
v -1.8536137 0.0207799 -0.0312500
v -1.8487002 0.5707580 0.0312500
v -1.9110282 0.5713242 0.0312500
v -1.9161073 0.0213476 0.0312500
v -1.8536137 0.0207799 0.0312500
v -1.9110282 0.5713242 0.0312500
v -1.9110282 0.5713242 -0.0312500
v -1.9161073 0.0213476 -0.0312500
v -1.9161073 0.0213476 0.0312500
v -1.8747543 1.1335155 0.0000000
v -1.5620678 0.6308975 0.3181981
v -1.4306663 0.6299470 0.0000000
v -1.8813404 0.4085454 0.0000000
v -1.4306663 0.6299470 0.0000000
v -1.5620678 0.6308975 0.3181981
v -1.8747543 1.1335155 0.0000000
v -1.8792964 0.6335361 0.4500000
v -1.5620678 0.6308975 0.3181981
v -1.8813404 0.4085454 0.0000000
v -1.5620678 0.6308975 0.3181981
v -1.8792964 0.6335361 0.4500000
v -1.8747543 1.1335155 0.0000000
v -2.1965206 0.6366612 0.3181981
v -1.8792964 0.6335361 0.4500000
v -1.8813404 0.4085454 0.0000000
v -1.8792964 0.6335361 0.4500000
v -2.1965206 0.6366612 0.3181981
v -1.8747543 1.1335155 0.0000000
v -2.3279177 0.6380982 0.0000000
v -2.1965206 0.6366612 0.3181981
v -1.8813404 0.4085454 0.0000000
v -2.1965206 0.6366612 0.3181981
v -2.3279177 0.6380982 0.0000000
v -1.8747543 1.1335155 0.0000000
v -2.1965206 0.6366612 -0.3181981
v -2.3279177 0.6380982 0.0000000
v -1.8813404 0.4085454 0.0000000
v -2.3279177 0.6380982 0.0000000
v -2.1965206 0.6366612 -0.3181981
v -1.8747543 1.1335155 0.0000000
v -1.8792964 0.6335361 -0.4500000
v -2.1965206 0.6366612 -0.3181981
v -1.8813404 0.4085454 0.0000000
v -2.1965206 0.6366612 -0.3181981
v -1.8792964 0.6335361 -0.4500000
v -1.8747543 1.1335155 0.0000000
v -1.5620678 0.6308975 -0.3181981
v -1.8792964 0.6335361 -0.4500000
v -1.8813404 0.4085454 0.0000000
v -1.8792964 0.6335361 -0.4500000
v -1.5620678 0.6308975 -0.3181981
v -1.8747543 1.1335155 0.0000000
v -1.4306663 0.6299470 0.0000000
v -1.5620678 0.6308975 -0.3181981
v -1.8813404 0.4085454 0.0000000
v -1.5620678 0.6308975 -0.3181981
v -1.4306663 0.6299470 0.0000000
v 1.7040986 0.5695166 0.0312500
v 1.7664270 0.5700393 0.0312500
v 1.7664270 0.5700393 -0.0312500
v 1.7040986 0.5695166 -0.0312500
v 1.7040986 0.5695166 -0.0312500
v 1.7664270 0.5700393 -0.0312500
v 1.7711218 0.0200593 -0.0312500
v 1.7086278 0.0195353 -0.0312500
v 1.7664270 0.5700393 -0.0312500
v 1.7664270 0.5700393 0.0312500
v 1.7711218 0.0200593 0.0312500
v 1.7711218 0.0200593 -0.0312500
v 1.7664270 0.5700393 0.0312500
v 1.7040986 0.5695166 0.0312500
v 1.7086278 0.0195353 0.0312500
v 1.7711218 0.0200593 0.0312500
v 1.7040986 0.5695166 0.0312500
v 1.7040986 0.5695166 -0.0312500
v 1.7086278 0.0195353 -0.0312500
v 1.7086278 0.0195353 0.0312500
v 1.7305460 1.1322558 0.0000000
v 2.0519650 0.6351768 0.3181981
v 2.1833631 0.6365220 0.0000000
v 1.7366254 0.4072813 0.0000000
v 2.1833631 0.6365220 0.0000000
v 2.0519650 0.6351768 0.3181981
v 1.7305460 1.1322558 0.0000000
v 1.7347387 0.6322734 0.4500000
v 2.0519650 0.6351768 0.3181981
v 1.7366254 0.4072813 0.0000000
v 2.0519650 0.6351768 0.3181981
v 1.7347387 0.6322734 0.4500000
v 1.7305460 1.1322558 0.0000000
v 1.4175083 0.6298564 0.3181981
v 1.7347387 0.6322734 0.4500000
v 1.7366254 0.4072813 0.0000000
v 1.7347387 0.6322734 0.4500000
v 1.4175083 0.6298564 0.3181981
v 1.7305460 1.1322558 0.0000000
v 1.2861062 0.6289978 0.0000000
v 1.4175083 0.6298564 0.3181981
v 1.7366254 0.4072813 0.0000000
v 1.4175083 0.6298564 0.3181981
v 1.2861062 0.6289978 0.0000000
v 1.7305460 1.1322558 0.0000000
v 1.4175083 0.6298564 -0.3181981
v 1.2861062 0.6289978 0.0000000
v 1.7366254 0.4072813 0.0000000
v 1.2861062 0.6289978 0.0000000
v 1.4175083 0.6298564 -0.3181981
v 1.7305460 1.1322558 0.0000000
v 1.7347387 0.6322734 -0.4500000
v 1.4175083 0.6298564 -0.3181981
v 1.7366254 0.4072813 0.0000000
v 1.4175083 0.6298564 -0.3181981
v 1.7347387 0.6322734 -0.4500000
v 1.7305460 1.1322558 0.0000000
v 2.0519650 0.6351768 -0.3181981
v 1.7347387 0.6322734 -0.4500000
v 1.7366254 0.4072813 0.0000000
v 1.7347387 0.6322734 -0.4500000
v 2.0519650 0.6351768 -0.3181981
v 1.7305460 1.1322558 0.0000000
v 2.1833631 0.6365220 0.0000000
v 2.0519650 0.6351768 -0.3181981
v 1.7366254 0.4072813 0.0000000
v 2.0519650 0.6351768 -0.3181981
v 2.1833631 0.6365220 0.0000000
v 5.3187053 0.6308619 0.0312500
v 5.3810150 0.6324733 0.0312500
v 5.3810150 0.6324733 -0.0312500
v 5.3187053 0.6308619 -0.0312500
v 5.3187053 0.6308619 -0.0312500
v 5.3810150 0.6324733 -0.0312500
v 5.3953167 0.0826593 -0.0312500
v 5.3328414 0.0810436 -0.0312500
v 5.3810150 0.6324733 -0.0312500
v 5.3810150 0.6324733 0.0312500
v 5.3953167 0.0826593 0.0312500
v 5.3953167 0.0826593 -0.0312500
v 5.3810150 0.6324733 0.0312500
v 5.3187053 0.6308619 0.0312500
v 5.3328414 0.0810436 0.0312500
v 5.3953167 0.0826593 0.0312500
v 5.3187053 0.6308619 0.0312500
v 5.3187053 0.6308619 -0.0312500
v 5.3328414 0.0810436 -0.0312500
v 5.3328414 0.0810436 0.0312500
v 5.3353182 1.1939773 0.0000000
v 5.6653716 0.7025890 0.3181981
v 5.7967261 0.7062293 0.0000000
v 5.3540613 0.4692196 0.0000000
v 5.7967261 0.7062293 0.0000000
v 5.6653716 0.7025890 0.3181981
v 5.3353182 1.1939773 0.0000000
v 5.3482444 0.6941444 0.4500000
v 5.6653716 0.7025890 0.3181981
v 5.3540613 0.4692196 0.0000000
v 5.6653716 0.7025890 0.3181981
v 5.3482444 0.6941444 0.4500000
v 5.3353182 1.1939773 0.0000000
v 5.0311047 0.6861861 0.3181981
v 5.3482444 0.6941444 0.4500000
v 5.3540613 0.4692196 0.0000000
v 5.3482444 0.6941444 0.4500000
v 5.0311047 0.6861861 0.3181981
v 5.3353182 1.1939773 0.0000000
v 4.8997376 0.6830321 0.0000000
v 5.0311047 0.6861861 0.3181981
v 5.3540613 0.4692196 0.0000000
v 5.0311047 0.6861861 0.3181981
v 4.8997376 0.6830321 0.0000000
v 5.3353182 1.1939773 0.0000000
v 5.0311047 0.6861861 -0.3181981
v 4.8997376 0.6830321 0.0000000
v 5.3540613 0.4692196 0.0000000
v 4.8997376 0.6830321 0.0000000
v 5.0311047 0.6861861 -0.3181981
v 5.3353182 1.1939773 0.0000000
v 5.3482444 0.6941444 -0.4500000
v 5.0311047 0.6861861 -0.3181981
v 5.3540613 0.4692196 0.0000000
v 5.0311047 0.6861861 -0.3181981
v 5.3482444 0.6941444 -0.4500000
v 5.3353182 1.1939773 0.0000000
v 5.6653716 0.7025890 -0.3181981
v 5.3482444 0.6941444 -0.4500000
v 5.3540613 0.4692196 0.0000000
v 5.3482444 0.6941444 -0.4500000
v 5.6653716 0.7025890 -0.3181981
v 5.3353182 1.1939773 0.0000000
v 5.7967261 0.7062293 0.0000000
v 5.6653716 0.7025890 -0.3181981
v 5.3540613 0.4692196 0.0000000
v 5.6653716 0.7025890 -0.3181981
v 5.7967261 0.7062293 0.0000000
v -5.5255717 0.6362841 0.9312500
v -5.4632631 0.6346291 0.9312500
v -5.4632631 0.6346291 0.8687500
v -5.5255717 0.6362841 0.8687500
v -5.5255717 0.6362841 0.8687500
v -5.4632631 0.6346291 0.8687500
v -5.4777834 0.0848208 0.8687500
v -5.5402576 0.0864802 0.8687500
v -5.4632631 0.6346291 0.8687500
v -5.4632631 0.6346291 0.9312500
v -5.4777834 0.0848208 0.9312500
v -5.4777834 0.0848208 0.8687500
v -5.4632631 0.6346291 0.9312500
v -5.5255717 0.6362841 0.9312500
v -5.5402576 0.0864802 0.9312500
v -5.4777834 0.0848208 0.9312500
v -5.5255717 0.6362841 0.9312500
v -5.5255717 0.6362841 0.8687500
v -5.5402576 0.0864802 0.8687500
v -5.5402576 0.0864802 0.9312500
v -5.4794825 1.1977560 0.9000000
v -5.1756239 0.6897523 1.2181981
v -5.0442591 0.6865065 0.9000000
v -5.4987320 0.4730116 0.9000000
v -5.0442591 0.6865065 0.9000000
v -5.1756239 0.6897523 1.2181981
v -5.4794825 1.1977560 0.9000000
v -5.4927580 0.6979322 1.3500000
v -5.1756239 0.6897523 1.2181981
v -5.4987320 0.4730116 0.9000000
v -5.1756239 0.6897523 1.2181981
v -5.4927580 0.6979322 1.3500000
v -5.4794825 1.1977560 0.9000000
v -5.8098792 0.7065984 1.2181981
v -5.4927580 0.6979322 1.3500000
v -5.4987320 0.4730116 0.9000000
v -5.4927580 0.6979322 1.3500000
v -5.8098792 0.7065984 1.2181981
v -5.4794825 1.1977560 0.9000000
v -5.9412312 0.7103305 0.9000000
v -5.8098792 0.7065984 1.2181981
v -5.4987320 0.4730116 0.9000000
v -5.8098792 0.7065984 1.2181981
v -5.9412312 0.7103305 0.9000000
v -5.4794825 1.1977560 0.9000000
v -5.8098792 0.7065984 0.5818019
v -5.9412312 0.7103305 0.9000000
v -5.4987320 0.4730116 0.9000000
v -5.9412312 0.7103305 0.9000000
v -5.8098792 0.7065984 0.5818019
v -5.4794825 1.1977560 0.9000000
v -5.4927580 0.6979322 0.4500000
v -5.8098792 0.7065984 0.5818019
v -5.4987320 0.4730116 0.9000000
v -5.8098792 0.7065984 0.5818019
v -5.4927580 0.6979322 0.4500000
v -5.4794825 1.1977560 0.9000000
v -5.1756239 0.6897523 0.5818019
v -5.4927580 0.6979322 0.4500000
v -5.4987320 0.4730116 0.9000000
v -5.4927580 0.6979322 0.4500000
v -5.1756239 0.6897523 0.5818019
v -5.4794825 1.1977560 0.9000000
v -5.0442591 0.6865065 0.9000000
v -5.1756239 0.6897523 0.5818019
v -5.4987320 0.4730116 0.9000000
v -5.1756239 0.6897523 0.5818019
v -5.0442591 0.6865065 0.9000000
v -1.9110282 0.5713242 0.9312500
v -1.8487002 0.5707580 0.9312500
v -1.8487002 0.5707580 0.8687500
v -1.9110282 0.5713242 0.8687500
v -1.9110282 0.5713242 0.8687500
v -1.8487002 0.5707580 0.8687500
v -1.8536137 0.0207799 0.8687500
v -1.9161073 0.0213476 0.8687500
v -1.8487002 0.5707580 0.8687500
v -1.8487002 0.5707580 0.9312500
v -1.8536137 0.0207799 0.9312500
v -1.8536137 0.0207799 0.8687500
v -1.8487002 0.5707580 0.9312500
v -1.9110282 0.5713242 0.9312500
v -1.9161073 0.0213476 0.9312500
v -1.8536137 0.0207799 0.9312500
v -1.9110282 0.5713242 0.9312500
v -1.9110282 0.5713242 0.8687500
v -1.9161073 0.0213476 0.8687500
v -1.9161073 0.0213476 0.9312500
v -1.8747543 1.1335155 0.9000000
v -1.5620678 0.6308975 1.2181981
v -1.4306663 0.6299470 0.9000000
v -1.8813404 0.4085454 0.9000000
v -1.4306663 0.6299470 0.9000000
v -1.5620678 0.6308975 1.2181981
v -1.8747543 1.1335155 0.9000000
v -1.8792964 0.6335361 1.3500000
v -1.5620678 0.6308975 1.2181981
v -1.8813404 0.4085454 0.9000000
v -1.5620678 0.6308975 1.2181981
v -1.8792964 0.6335361 1.3500000
v -1.8747543 1.1335155 0.9000000
v -2.1965206 0.6366612 1.2181981
v -1.8792964 0.6335361 1.3500000
v -1.8813404 0.4085454 0.9000000
v -1.8792964 0.6335361 1.3500000
v -2.1965206 0.6366612 1.2181981
v -1.8747543 1.1335155 0.9000000
v -2.3279177 0.6380982 0.9000000
v -2.1965206 0.6366612 1.2181981
v -1.8813404 0.4085454 0.9000000
v -2.1965206 0.6366612 1.2181981
v -2.3279177 0.6380982 0.9000000
v -1.8747543 1.1335155 0.9000000
v -2.1965206 0.6366612 0.5818019
v -2.3279177 0.6380982 0.9000000
v -1.8813404 0.4085454 0.9000000
v -2.3279177 0.6380982 0.9000000
v -2.1965206 0.6366612 0.5818019
v -1.8747543 1.1335155 0.9000000
v -1.8792964 0.6335361 0.4500000
v -2.1965206 0.6366612 0.5818019
v -1.8813404 0.4085454 0.9000000
v -2.1965206 0.6366612 0.5818019
v -1.8792964 0.6335361 0.4500000
v -1.8747543 1.1335155 0.9000000
v -1.5620678 0.6308975 0.5818019
v -1.8792964 0.6335361 0.4500000
v -1.8813404 0.4085454 0.9000000
v -1.8792964 0.6335361 0.4500000
v -1.5620678 0.6308975 0.5818019
v -1.8747543 1.1335155 0.9000000
v -1.4306663 0.6299470 0.9000000
v -1.5620678 0.6308975 0.5818019
v -1.8813404 0.4085454 0.9000000
v -1.5620678 0.6308975 0.5818019
v -1.4306663 0.6299470 0.9000000
v 1.7040986 0.5695166 0.9312500
v 1.7664270 0.5700393 0.9312500
v 1.7664270 0.5700393 0.8687500
v 1.7040986 0.5695166 0.8687500
v 1.7040986 0.5695166 0.8687500
v 1.7664270 0.5700393 0.8687500
v 1.7711218 0.0200593 0.8687500
v 1.7086278 0.0195353 0.8687500
v 1.7664270 0.5700393 0.8687500
v 1.7664270 0.5700393 0.9312500
v 1.7711218 0.0200593 0.9312500
v 1.7711218 0.0200593 0.8687500
v 1.7664270 0.5700393 0.9312500
v 1.7040986 0.5695166 0.9312500
v 1.7086278 0.0195353 0.9312500
v 1.7711218 0.0200593 0.9312500
v 1.7040986 0.5695166 0.9312500
v 1.7040986 0.5695166 0.8687500
v 1.7086278 0.0195353 0.8687500
v 1.7086278 0.0195353 0.9312500
v 1.7305460 1.1322558 0.9000000
v 2.0519650 0.6351768 1.2181981
v 2.1833631 0.6365220 0.9000000
v 1.7366254 0.4072813 0.9000000
v 2.1833631 0.6365220 0.9000000
v 2.0519650 0.6351768 1.2181981
v 1.7305460 1.1322558 0.9000000
v 1.7347387 0.6322734 1.3500000
v 2.0519650 0.6351768 1.2181981
v 1.7366254 0.4072813 0.9000000
v 2.0519650 0.6351768 1.2181981
v 1.7347387 0.6322734 1.3500000
v 1.7305460 1.1322558 0.9000000
v 1.4175083 0.6298564 1.2181981
v 1.7347387 0.6322734 1.3500000
v 1.7366254 0.4072813 0.9000000
v 1.7347387 0.6322734 1.3500000
v 1.4175083 0.6298564 1.2181981
v 1.7305460 1.1322558 0.9000000
v 1.2861062 0.6289978 0.9000000
v 1.4175083 0.6298564 1.2181981
v 1.7366254 0.4072813 0.9000000
v 1.4175083 0.6298564 1.2181981
v 1.2861062 0.6289978 0.9000000
v 1.7305460 1.1322558 0.9000000
v 1.4175083 0.6298564 0.5818019
v 1.2861062 0.6289978 0.9000000
v 1.7366254 0.4072813 0.9000000
v 1.2861062 0.6289978 0.9000000
v 1.4175083 0.6298564 0.5818019
v 1.7305460 1.1322558 0.9000000
v 1.7347387 0.6322734 0.4500000
v 1.4175083 0.6298564 0.5818019
v 1.7366254 0.4072813 0.9000000
v 1.4175083 0.6298564 0.5818019
v 1.7347387 0.6322734 0.4500000
v 1.7305460 1.1322558 0.9000000
v 2.0519650 0.6351768 0.5818019
v 1.7347387 0.6322734 0.4500000
v 1.7366254 0.4072813 0.9000000
v 1.7347387 0.6322734 0.4500000
v 2.0519650 0.6351768 0.5818019
v 1.7305460 1.1322558 0.9000000
v 2.1833631 0.6365220 0.9000000
v 2.0519650 0.6351768 0.5818019
v 1.7366254 0.4072813 0.9000000
v 2.0519650 0.6351768 0.5818019
v 2.1833631 0.6365220 0.9000000
v 5.3187053 0.6308619 0.9312500
v 5.3810150 0.6324733 0.9312500
v 5.3810150 0.6324733 0.8687500
v 5.3187053 0.6308619 0.8687500
v 5.3187053 0.6308619 0.8687500
v 5.3810150 0.6324733 0.8687500
v 5.3953167 0.0826593 0.8687500
v 5.3328414 0.0810436 0.8687500
v 5.3810150 0.6324733 0.8687500
v 5.3810150 0.6324733 0.9312500
v 5.3953167 0.0826593 0.9312500
v 5.3953167 0.0826593 0.8687500
v 5.3810150 0.6324733 0.9312500
v 5.3187053 0.6308619 0.9312500
v 5.3328414 0.0810436 0.9312500
v 5.3953167 0.0826593 0.9312500
v 5.3187053 0.6308619 0.9312500
v 5.3187053 0.6308619 0.8687500
v 5.3328414 0.0810436 0.8687500
v 5.3328414 0.0810436 0.9312500
v 5.3353182 1.1939773 0.9000000
v 5.6653716 0.7025890 1.2181981
v 5.7967261 0.7062293 0.9000000
v 5.3540613 0.4692196 0.9000000
v 5.7967261 0.7062293 0.9000000
v 5.6653716 0.7025890 1.2181981
v 5.3353182 1.1939773 0.9000000
v 5.3482444 0.6941444 1.3500000
v 5.6653716 0.7025890 1.2181981
v 5.3540613 0.4692196 0.9000000
v 5.6653716 0.7025890 1.2181981
v 5.3482444 0.6941444 1.3500000
v 5.3353182 1.1939773 0.9000000
v 5.0311047 0.6861861 1.2181981
v 5.3482444 0.6941444 1.3500000
v 5.3540613 0.4692196 0.9000000
v 5.3482444 0.6941444 1.3500000
v 5.0311047 0.6861861 1.2181981
v 5.3353182 1.1939773 0.9000000
v 4.8997376 0.6830321 0.9000000
v 5.0311047 0.6861861 1.2181981
v 5.3540613 0.4692196 0.9000000
v 5.0311047 0.6861861 1.2181981
v 4.8997376 0.6830321 0.9000000
v 5.3353182 1.1939773 0.9000000
v 5.0311047 0.6861861 0.5818019
v 4.8997376 0.6830321 0.9000000
v 5.3540613 0.4692196 0.9000000
v 4.8997376 0.6830321 0.9000000
v 5.0311047 0.6861861 0.5818019
v 5.3353182 1.1939773 0.9000000
v 5.3482444 0.6941444 0.4500000
v 5.0311047 0.6861861 0.5818019
v 5.3540613 0.4692196 0.9000000
v 5.0311047 0.6861861 0.5818019
v 5.3482444 0.6941444 0.4500000
v 5.3353182 1.1939773 0.9000000
v 5.6653716 0.7025890 0.5818019
v 5.3482444 0.6941444 0.4500000
v 5.3540613 0.4692196 0.9000000
v 5.3482444 0.6941444 0.4500000
v 5.6653716 0.7025890 0.5818019
v 5.3353182 1.1939773 0.9000000
v 5.7967261 0.7062293 0.9000000
v 5.6653716 0.7025890 0.5818019
v 5.3540613 0.4692196 0.9000000
v 5.6653716 0.7025890 0.5818019
v 5.7967261 0.7062293 0.9000000
vt 0.005000 0.995000
vt 0.245000 0.995000
vt 0.245000 0.755000
vt 0.255000 0.995000
vt 0.495000 0.995000
vt 0.495000 0.755000
vt 0.505000 0.995000
vt 0.745000 0.995000
vt 0.745000 0.755000
vt 0.755000 0.995000
vt 0.995000 0.995000
vt 0.995000 0.755000
vt 0.005000 0.745000
vt 0.245000 0.745000
vt 0.245000 0.505000
vt 0.255000 0.745000
vt 0.495000 0.745000
vt 0.495000 0.505000
vt 0.505000 0.745000
vt 0.745000 0.745000
vt 0.745000 0.505000
vt 0.755000 0.745000
vt 0.995000 0.745000
vt 0.995000 0.505000
vt 0.005000 0.495000
vt 0.245000 0.495000
vt 0.245000 0.255000
vt 0.255000 0.495000
vt 0.495000 0.495000
vt 0.495000 0.255000
vt 0.505000 0.495000
vt 0.745000 0.495000
vt 0.745000 0.255000
vt 0.755000 0.495000
vt 0.995000 0.495000
vt 0.995000 0.255000
vt 0.005000 0.245000
vt 0.245000 0.245000
vt 0.245000 0.005000
vt 0.255000 0.245000
vt 0.495000 0.245000
vt 0.495000 0.005000
vt 0.505000 0.245000
vt 0.745000 0.245000
vt 0.745000 0.005000
vt 0.755000 0.245000
vt 0.995000 0.245000
vt 0.995000 0.005000
g ornament
usemtl farm-kit
f 89/13 90/14 91/15
f 89/13 91/14 92/15
f 93/13 94/14 95/15
f 93/13 95/14 96/15
f 97/13 98/14 99/15
f 97/13 99/14 100/15
f 101/13 102/14 103/15
f 101/13 103/14 104/15
f 105/13 106/14 107/15
f 105/13 107/14 108/15
f 109/13 110/14 111/15
f 109/13 111/14 112/15
f 133/37 134/38 135/39
f 136/37 137/38 138/39
f 139/37 140/38 141/39
f 142/37 143/38 144/39
f 145/37 146/38 147/39
f 148/37 149/38 150/39
f 151/37 152/38 153/39
f 154/37 155/38 156/39
f 157/37 158/38 159/39
f 160/37 161/38 162/39
f 163/37 164/38 165/39
f 166/37 167/38 168/39
f 169/37 170/38 171/39
f 172/37 173/38 174/39
f 175/37 176/38 177/39
f 178/37 179/38 180/39
f 201/37 202/38 203/39
f 204/37 205/38 206/39
f 207/37 208/38 209/39
f 210/37 211/38 212/39
f 213/37 214/38 215/39
f 216/37 217/38 218/39
f 219/37 220/38 221/39
f 222/37 223/38 224/39
f 225/37 226/38 227/39
f 228/37 229/38 230/39
f 231/37 232/38 233/39
f 234/37 235/38 236/39
f 237/37 238/38 239/39
f 240/37 241/38 242/39
f 243/37 244/38 245/39
f 246/37 247/38 248/39
f 269/37 270/38 271/39
f 272/37 273/38 274/39
f 275/37 276/38 277/39
f 278/37 279/38 280/39
f 281/37 282/38 283/39
f 284/37 285/38 286/39
f 287/37 288/38 289/39
f 290/37 291/38 292/39
f 293/37 294/38 295/39
f 296/37 297/38 298/39
f 299/37 300/38 301/39
f 302/37 303/38 304/39
f 305/37 306/38 307/39
f 308/37 309/38 310/39
f 311/37 312/38 313/39
f 314/37 315/38 316/39
f 337/37 338/38 339/39
f 340/37 341/38 342/39
f 343/37 344/38 345/39
f 346/37 347/38 348/39
f 349/37 350/38 351/39
f 352/37 353/38 354/39
f 355/37 356/38 357/39
f 358/37 359/38 360/39
f 361/37 362/38 363/39
f 364/37 365/38 366/39
f 367/37 368/38 369/39
f 370/37 371/38 372/39
f 373/37 374/38 375/39
f 376/37 377/38 378/39
f 379/37 380/38 381/39
f 382/37 383/38 384/39
f 405/37 406/38 407/39
f 408/37 409/38 410/39
f 411/37 412/38 413/39
f 414/37 415/38 416/39
f 417/37 418/38 419/39
f 420/37 421/38 422/39
f 423/37 424/38 425/39
f 426/37 427/38 428/39
f 429/37 430/38 431/39
f 432/37 433/38 434/39
f 435/37 436/38 437/39
f 438/37 439/38 440/39
f 441/37 442/38 443/39
f 444/37 445/38 446/39
f 447/37 448/38 449/39
f 450/37 451/38 452/39
f 473/37 474/38 475/39
f 476/37 477/38 478/39
f 479/37 480/38 481/39
f 482/37 483/38 484/39
f 485/37 486/38 487/39
f 488/37 489/38 490/39
f 491/37 492/38 493/39
f 494/37 495/38 496/39
f 497/37 498/38 499/39
f 500/37 501/38 502/39
f 503/37 504/38 505/39
f 506/37 507/38 508/39
f 509/37 510/38 511/39
f 512/37 513/38 514/39
f 515/37 516/38 517/39
f 518/37 519/38 520/39
f 541/37 542/38 543/39
f 544/37 545/38 546/39
f 547/37 548/38 549/39
f 550/37 551/38 552/39
f 553/37 554/38 555/39
f 556/37 557/38 558/39
f 559/37 560/38 561/39
f 562/37 563/38 564/39
f 565/37 566/38 567/39
f 568/37 569/38 570/39
f 571/37 572/38 573/39
f 574/37 575/38 576/39
f 577/37 578/38 579/39
f 580/37 581/38 582/39
f 583/37 584/38 585/39
f 586/37 587/38 588/39
f 609/37 610/38 611/39
f 612/37 613/38 614/39
f 615/37 616/38 617/39
f 618/37 619/38 620/39
f 621/37 622/38 623/39
f 624/37 625/38 626/39
f 627/37 628/38 629/39
f 630/37 631/38 632/39
f 633/37 634/38 635/39
f 636/37 637/38 638/39
f 639/37 640/38 641/39
f 642/37 643/38 644/39
f 645/37 646/38 647/39
f 648/37 649/38 650/39
f 651/37 652/38 653/39
f 654/37 655/38 656/39
f 677/37 678/38 679/39
f 680/37 681/38 682/39
f 683/37 684/38 685/39
f 686/37 687/38 688/39
f 689/37 690/38 691/39
f 692/37 693/38 694/39
f 695/37 696/38 697/39
f 698/37 699/38 700/39
f 701/37 702/38 703/39
f 704/37 705/38 706/39
f 707/37 708/38 709/39
f 710/37 711/38 712/39
f 713/37 714/38 715/39
f 716/37 717/38 718/39
f 719/37 720/38 721/39
f 722/37 723/38 724/39
f 745/37 746/38 747/39
f 748/37 749/38 750/39
f 751/37 752/38 753/39
f 754/37 755/38 756/39
f 757/37 758/38 759/39
f 760/37 761/38 762/39
f 763/37 764/38 765/39
f 766/37 767/38 768/39
f 769/37 770/38 771/39
f 772/37 773/38 774/39
f 775/37 776/38 777/39
f 778/37 779/38 780/39
f 781/37 782/38 783/39
f 784/37 785/38 786/39
f 787/37 788/38 789/39
f 790/37 791/38 792/39
f 813/37 814/38 815/39
f 816/37 817/38 818/39
f 819/37 820/38 821/39
f 822/37 823/38 824/39
f 825/37 826/38 827/39
f 828/37 829/38 830/39
f 831/37 832/38 833/39
f 834/37 835/38 836/39
f 837/37 838/38 839/39
f 840/37 841/38 842/39
f 843/37 844/38 845/39
f 846/37 847/38 848/39
f 849/37 850/38 851/39
f 852/37 853/38 854/39
f 855/37 856/38 857/39
f 858/37 859/38 860/39
f 881/37 882/38 883/39
f 884/37 885/38 886/39
f 887/37 888/38 889/39
f 890/37 891/38 892/39
f 893/37 894/38 895/39
f 896/37 897/38 898/39
f 899/37 900/38 901/39
f 902/37 903/38 904/39
f 905/37 906/38 907/39
f 908/37 909/38 910/39
f 911/37 912/38 913/39
f 914/37 915/38 916/39
f 917/37 918/38 919/39
f 920/37 921/38 922/39
f 923/37 924/38 925/39
f 926/37 927/38 928/39
g solid
usemtl farm-kit
f 113/34 114/35 115/36
f 113/34 115/35 116/36
f 117/34 118/35 119/36
f 117/34 119/35 120/36
f 121/34 122/35 123/36
f 121/34 123/35 124/36
f 125/34 126/35 127/36
f 125/34 127/35 128/36
f 129/34 130/35 131/36
f 129/34 131/35 132/36
f 181/34 182/35 183/36
f 181/34 183/35 184/36
f 185/34 186/35 187/36
f 185/34 187/35 188/36
f 189/34 190/35 191/36
f 189/34 191/35 192/36
f 193/34 194/35 195/36
f 193/34 195/35 196/36
f 197/34 198/35 199/36
f 197/34 199/35 200/36
f 249/34 250/35 251/36
f 249/34 251/35 252/36
f 253/34 254/35 255/36
f 253/34 255/35 256/36
f 257/34 258/35 259/36
f 257/34 259/35 260/36
f 261/34 262/35 263/36
f 261/34 263/35 264/36
f 265/34 266/35 267/36
f 265/34 267/35 268/36
f 317/34 318/35 319/36
f 317/34 319/35 320/36
f 321/34 322/35 323/36
f 321/34 323/35 324/36
f 325/34 326/35 327/36
f 325/34 327/35 328/36
f 329/34 330/35 331/36
f 329/34 331/35 332/36
f 333/34 334/35 335/36
f 333/34 335/35 336/36
f 385/34 386/35 387/36
f 385/34 387/35 388/36
f 389/34 390/35 391/36
f 389/34 391/35 392/36
f 393/34 394/35 395/36
f 393/34 395/35 396/36
f 397/34 398/35 399/36
f 397/34 399/35 400/36
f 401/34 402/35 403/36
f 401/34 403/35 404/36
f 453/34 454/35 455/36
f 453/34 455/35 456/36
f 457/34 458/35 459/36
f 457/34 459/35 460/36
f 461/34 462/35 463/36
f 461/34 463/35 464/36
f 465/34 466/35 467/36
f 465/34 467/35 468/36
f 469/34 470/35 471/36
f 469/34 471/35 472/36
f 521/34 522/35 523/36
f 521/34 523/35 524/36
f 525/34 526/35 527/36
f 525/34 527/35 528/36
f 529/34 530/35 531/36
f 529/34 531/35 532/36
f 533/34 534/35 535/36
f 533/34 535/35 536/36
f 537/34 538/35 539/36
f 537/34 539/35 540/36
f 589/34 590/35 591/36
f 589/34 591/35 592/36
f 593/34 594/35 595/36
f 593/34 595/35 596/36
f 597/34 598/35 599/36
f 597/34 599/35 600/36
f 601/34 602/35 603/36
f 601/34 603/35 604/36
f 605/34 606/35 607/36
f 605/34 607/35 608/36
f 657/34 658/35 659/36
f 657/34 659/35 660/36
f 661/34 662/35 663/36
f 661/34 663/35 664/36
f 665/34 666/35 667/36
f 665/34 667/35 668/36
f 669/34 670/35 671/36
f 669/34 671/35 672/36
f 673/34 674/35 675/36
f 673/34 675/35 676/36
f 725/34 726/35 727/36
f 725/34 727/35 728/36
f 729/34 730/35 731/36
f 729/34 731/35 732/36
f 733/34 734/35 735/36
f 733/34 735/35 736/36
f 737/34 738/35 739/36
f 737/34 739/35 740/36
f 741/34 742/35 743/36
f 741/34 743/35 744/36
f 793/34 794/35 795/36
f 793/34 795/35 796/36
f 797/34 798/35 799/36
f 797/34 799/35 800/36
f 801/34 802/35 803/36
f 801/34 803/35 804/36
f 805/34 806/35 807/36
f 805/34 807/35 808/36
f 809/34 810/35 811/36
f 809/34 811/35 812/36
f 861/34 862/35 863/36
f 861/34 863/35 864/36
f 865/34 866/35 867/36
f 865/34 867/35 868/36
f 869/34 870/35 871/36
f 869/34 871/35 872/36
f 873/34 874/35 875/36
f 873/34 875/35 876/36
f 877/34 878/35 879/36
f 877/34 879/35 880/36
g support
usemtl farm-kit
f 1/1 2/2 3/3
f 1/1 3/2 4/3
f 5/1 6/2 7/3
f 5/1 7/2 8/3
f 9/1 10/2 11/3
f 9/1 11/2 12/3
f 13/1 14/2 15/3
f 13/1 15/2 16/3
f 17/1 18/2 19/3
f 17/1 19/2 20/3
f 21/1 22/2 23/3
f 21/1 23/2 24/3
f 25/1 26/2 27/3
f 25/1 27/2 28/3
f 29/4 30/5 31/6
f 29/4 31/5 32/6
f 33/4 34/5 35/6
f 33/4 35/5 36/6
f 37/4 38/5 39/6
f 37/4 39/5 40/6
f 41/4 42/5 43/6
f 41/4 43/5 44/6
f 45/4 46/5 47/6
f 45/4 47/5 48/6
f 49/4 50/5 51/6
f 49/4 51/5 52/6
f 53/4 54/5 55/6
f 53/4 55/5 56/6
f 57/4 58/5 59/6
f 57/4 59/5 60/6
f 61/4 62/5 63/6
f 61/4 63/5 64/6
f 65/4 66/5 67/6
f 65/4 67/5 68/6
f 69/4 70/5 71/6
f 69/4 71/5 72/6
f 73/4 74/5 75/6
f 73/4 75/5 76/6
f 77/4 78/5 79/6
f 77/4 79/5 80/6
f 81/4 82/5 83/6
f 81/4 83/5 84/6
f 85/4 86/5 87/6
f 85/4 87/5 88/6
