mtllib TorusSettlementFarm_A78.mtl
v -0.1096491 0.0000270 4.7500000
v 0.1096491 0.0000270 4.7500000
v 0.1096491 0.0000270 -4.7500000
v -0.1096491 0.0000270 -4.7500000
v -0.1096430 0.0125270 -4.7171053
v 0.1096430 0.0125270 -4.7171053
v 0.1096430 0.0125270 -4.7500000
v -0.1096430 0.0125270 -4.7500000
v -0.1096430 0.0125270 4.7500000
v 0.1096430 0.0125270 4.7500000
v 0.1096430 0.0125270 4.7171053
v -0.1096430 0.0125270 4.7171053
v -0.0219286 0.0125011 4.7500000
v 0.0219286 0.0125011 4.7500000
v 0.0219286 0.0125011 -4.7500000
v -0.0219286 0.0125011 -4.7500000
v -0.0767432 0.0325132 -1.7348684
v -0.0719193 0.0325116 -1.7348684
v -0.0719193 0.0325116 -4.7171053
v -0.0767432 0.0325132 -4.7171053
v -0.0767328 0.0625132 -1.6848684
v -0.0719096 0.0625116 -1.6848684
v -0.0719096 0.0625116 -1.7348684
v -0.0767328 0.0625132 -1.7348684
v 0.0719193 0.0325116 -1.7348684
v 0.0767432 0.0325132 -1.7348684
v 0.0767432 0.0325132 -4.7171053
v 0.0719193 0.0325116 -4.7171053
v 0.0719096 0.0625116 -1.6848684
v 0.0767328 0.0625132 -1.6848684
v 0.0767328 0.0625132 -1.7348684
v 0.0719096 0.0625116 -1.7348684
v -0.0767432 0.0325132 1.4098684
v -0.0719193 0.0325116 1.4098684
v -0.0719193 0.0325116 -1.5723684
v -0.0767432 0.0325132 -1.5723684
v -0.0767328 0.0625132 1.4598684
v -0.0719096 0.0625116 1.4598684
v -0.0719096 0.0625116 1.4098684
v -0.0767328 0.0625132 1.4098684
v 0.0719193 0.0325116 1.4098684
v 0.0767432 0.0325132 1.4098684
v 0.0767432 0.0325132 -1.5723684
v 0.0719193 0.0325116 -1.5723684
v 0.0719096 0.0625116 1.4598684
v 0.0767328 0.0625132 1.4598684
v 0.0767328 0.0625132 1.4098684
v 0.0719096 0.0625116 1.4098684
v -0.0767432 0.0325132 4.5546053
v -0.0719193 0.0325116 4.5546053
v -0.0719193 0.0325116 1.5723684
v -0.0767432 0.0325132 1.5723684
v -0.0767328 0.0625132 4.6046053
v -0.0719096 0.0625116 4.6046053
v -0.0719096 0.0625116 4.5546053
v -0.0767328 0.0625132 4.5546053
v 0.0719193 0.0325116 4.5546053
v 0.0767432 0.0325132 4.5546053
v 0.0767432 0.0325132 1.5723684
v 0.0719193 0.0325116 1.5723684
v 0.0719096 0.0625116 4.6046053
v 0.0767328 0.0625132 4.6046053
v 0.0767328 0.0625132 4.5546053
v 0.0719096 0.0625116 4.5546053
vt 0.005000 0.995000
vt 0.245000 0.995000
vt 0.245000 0.755000
vt 0.255000 0.995000
vt 0.495000 0.995000
vt 0.495000 0.755000
vt 0.505000 0.995000
vt 0.745000 0.995000
vt 0.745000 0.755000
vt 0.755000 0.995000
vt 0.995000 0.995000
vt 0.995000 0.755000
vt 0.005000 0.745000
vt 0.245000 0.745000
vt 0.245000 0.505000
vt 0.255000 0.745000
vt 0.495000 0.745000
vt 0.495000 0.505000
vt 0.505000 0.745000
vt 0.745000 0.745000
vt 0.745000 0.505000
vt 0.755000 0.745000
vt 0.995000 0.745000
vt 0.995000 0.505000
vt 0.005000 0.495000
vt 0.245000 0.495000
vt 0.245000 0.255000
vt 0.255000 0.495000
vt 0.495000 0.495000
vt 0.495000 0.255000
vt 0.505000 0.495000
vt 0.745000 0.495000
vt 0.745000 0.255000
vt 0.755000 0.495000
vt 0.995000 0.495000
vt 0.995000 0.255000
vt 0.005000 0.245000
vt 0.245000 0.245000
vt 0.245000 0.005000
vt 0.255000 0.245000
vt 0.495000 0.245000
vt 0.495000 0.005000
vt 0.505000 0.245000
vt 0.745000 0.245000
vt 0.745000 0.005000
vt 0.755000 0.245000
vt 0.995000 0.245000
vt 0.995000 0.005000
g solid
usemtl farm-kit
f 21/28 22/29 23/30
f 21/28 23/29 24/30
f 29/28 30/29 31/30
f 29/28 31/29 32/30
f 37/28 38/29 39/30
f 37/28 39/29 40/30
f 45/28 46/29 47/30
f 45/28 47/29 48/30
f 53/28 54/29 55/30
f 53/28 55/29 56/30
f 61/28 62/29 63/30
f 61/28 63/29 64/30
g support
usemtl farm-kit
f 1/1 2/2 3/3
f 1/1 3/2 4/3
f 5/4 6/5 7/6
f 5/4 7/5 8/6
f 9/4 10/5 11/6
f 9/4 11/5 12/6
f 13/4 14/5 15/6
f 13/4 15/5 16/6
g water
usemtl farm-water
f 17/25 18/26 19/27
f 17/25 19/26 20/27
f 25/25 26/26 27/27
f 25/25 27/26 28/27
f 33/25 34/26 35/27
f 33/25 35/26 36/27
f 41/25 42/26 43/27
f 41/25 43/26 44/27
f 49/25 50/26 51/27
f 49/25 51/26 52/27
f 57/25 58/26 59/27
f 57/25 59/26 60/27
