mtllib TorusUtility_LightA.mtl
o TorusUtility_LightA
usemtl TorusUtilityKit
v -0.97500000 0.00000000 -0.75000000
v -0.97500000 0.04000000 -0.75000000
v 0.97500000 0.04000000 -0.75000000
v 0.97500000 0.00000000 -0.75000000
v -0.97500000 0.00000000 0.70000000
v 0.97500000 0.00000000 0.70000000
v 0.97500000 0.04000000 0.70000000
v -0.97500000 0.04000000 0.70000000
v -0.85000000 0.04000000 0.62500000
v -0.85000000 0.04100000 0.62500000
v 0.85000000 0.04100000 0.62500000
v 0.85000000 0.04000000 0.62500000
v -0.85000000 0.04000000 0.65000000
v 0.85000000 0.04000000 0.65000000
v 0.85000000 0.04100000 0.65000000
v -0.85000000 0.04100000 0.65000000
v -0.76250000 0.04000000 -0.23750000
v -0.76250000 0.07000000 -0.23750000
v -0.53750000 0.07000000 -0.23750000
v -0.53750000 0.04000000 -0.23750000
v -0.76250000 0.04000000 0.06250000
v -0.53750000 0.04000000 0.06250000
v -0.53750000 0.07000000 0.06250000
v -0.76250000 0.07000000 0.06250000
v -0.67125000 0.05500000 -0.10875000
v -0.67125000 0.98500000 -0.10875000
v -0.62875000 0.98500000 -0.10875000
v -0.62875000 0.05500000 -0.10875000
v -0.67125000 0.05500000 -0.06625000
v -0.62875000 0.05500000 -0.06625000
v -0.62875000 0.98500000 -0.06625000
v -0.67125000 0.98500000 -0.06625000
v 0.53750000 0.04000000 -0.23750000
v 0.53750000 0.07000000 -0.23750000
v 0.76250000 0.07000000 -0.23750000
v 0.76250000 0.04000000 -0.23750000
v 0.53750000 0.04000000 0.06250000
v 0.76250000 0.04000000 0.06250000
v 0.76250000 0.07000000 0.06250000
v 0.53750000 0.07000000 0.06250000
v 0.62875000 0.05500000 -0.10875000
v 0.62875000 0.98500000 -0.10875000
v 0.67125000 0.98500000 -0.10875000
v 0.67125000 0.05500000 -0.10875000
v 0.62875000 0.05500000 -0.06625000
v 0.67125000 0.05500000 -0.06625000
v 0.67125000 0.98500000 -0.06625000
v 0.62875000 0.98500000 -0.06625000
v -0.70000000 0.96500000 -0.13125000
v -0.70000000 1.01500000 -0.13125000
v 0.70000000 1.01500000 -0.13125000
v 0.70000000 0.96500000 -0.13125000
v -0.70000000 0.96500000 -0.04375000
v 0.70000000 0.96500000 -0.04375000
v 0.70000000 1.01500000 -0.04375000
v -0.70000000 1.01500000 -0.04375000
v -0.40000000 0.86375000 -0.10000000
v -0.40000000 0.97625000 -0.10000000
v -0.37500000 0.97625000 -0.10000000
v -0.37500000 0.86375000 -0.10000000
v -0.40000000 0.86375000 -0.07500000
v -0.37500000 0.86375000 -0.07500000
v -0.37500000 0.97625000 -0.07500000
v -0.40000000 0.97625000 -0.07500000
v -0.51750000 0.90000000 -0.35000000
v -0.25750000 0.90000000 -0.35000000
v -0.29750000 0.83750000 -0.35000000
v -0.47750000 0.83750000 -0.35000000
v -0.51250000 0.84000000 -0.35000000
v -0.51250000 0.89500000 -0.35000000
v -0.26250000 0.89500000 -0.35000000
v -0.26250000 0.84000000 -0.35000000
v -0.51250000 0.84000000 0.17500000
v -0.26250000 0.84000000 0.17500000
v -0.26250000 0.89500000 0.17500000
v -0.51250000 0.89500000 0.17500000
v -0.42875000 0.82000000 -0.32000000
v -0.43424175 0.83325825 -0.32000000
v -0.43424175 0.83325825 0.14500000
v -0.42875000 0.82000000 0.14500000
v -0.44750000 0.83875000 -0.32000000
v -0.44750000 0.83875000 0.14500000
v -0.46075825 0.83325825 -0.32000000
v -0.46075825 0.83325825 0.14500000
v -0.46625000 0.82000000 -0.32000000
v -0.46625000 0.82000000 0.14500000
v -0.46075825 0.80674175 -0.32000000
v -0.46075825 0.80674175 0.14500000
v -0.44750000 0.80125000 -0.32000000
v -0.44750000 0.80125000 0.14500000
v -0.43424175 0.80674175 -0.32000000
v -0.43424175 0.80674175 0.14500000
v -0.44750000 0.82000000 -0.32000000
v -0.44750000 0.82000000 0.14500000
v -0.30875000 0.82000000 -0.32000000
v -0.31424175 0.83325825 -0.32000000
v -0.31424175 0.83325825 0.14500000
v -0.30875000 0.82000000 0.14500000
v -0.32750000 0.83875000 -0.32000000
v -0.32750000 0.83875000 0.14500000
v -0.34075825 0.83325825 -0.32000000
v -0.34075825 0.83325825 0.14500000
v -0.34625000 0.82000000 -0.32000000
v -0.34625000 0.82000000 0.14500000
v -0.34075825 0.80674175 -0.32000000
v -0.34075825 0.80674175 0.14500000
v -0.32750000 0.80125000 -0.32000000
v -0.32750000 0.80125000 0.14500000
v -0.31424175 0.80674175 -0.32000000
v -0.31424175 0.80674175 0.14500000
v -0.32750000 0.82000000 -0.32000000
v -0.32750000 0.82000000 0.14500000
v -0.01250000 0.86375000 -0.10000000
v -0.01250000 0.97625000 -0.10000000
v 0.01250000 0.97625000 -0.10000000
v 0.01250000 0.86375000 -0.10000000
v -0.01250000 0.86375000 -0.07500000
v 0.01250000 0.86375000 -0.07500000
v 0.01250000 0.97625000 -0.07500000
v -0.01250000 0.97625000 -0.07500000
v -0.13000000 0.90000000 -0.35000000
v 0.13000000 0.90000000 -0.35000000
v 0.09000000 0.83750000 -0.35000000
v -0.09000000 0.83750000 -0.35000000
v -0.12500000 0.84000000 -0.35000000
v -0.12500000 0.89500000 -0.35000000
v 0.12500000 0.89500000 -0.35000000
v 0.12500000 0.84000000 -0.35000000
v -0.12500000 0.84000000 0.17500000
v 0.12500000 0.84000000 0.17500000
v 0.12500000 0.89500000 0.17500000
v -0.12500000 0.89500000 0.17500000
v -0.04125000 0.82000000 -0.32000000
v -0.04674175 0.83325825 -0.32000000
v -0.04674175 0.83325825 0.14500000
v -0.04125000 0.82000000 0.14500000
v -0.06000000 0.83875000 -0.32000000
v -0.06000000 0.83875000 0.14500000
v -0.07325825 0.83325825 -0.32000000
v -0.07325825 0.83325825 0.14500000
v -0.07875000 0.82000000 -0.32000000
v -0.07875000 0.82000000 0.14500000
v -0.07325825 0.80674175 -0.32000000
v -0.07325825 0.80674175 0.14500000
v -0.06000000 0.80125000 -0.32000000
v -0.06000000 0.80125000 0.14500000
v -0.04674175 0.80674175 -0.32000000
v -0.04674175 0.80674175 0.14500000
v -0.06000000 0.82000000 -0.32000000
v -0.06000000 0.82000000 0.14500000
v 0.07875000 0.82000000 -0.32000000
v 0.07325825 0.83325825 -0.32000000
v 0.07325825 0.83325825 0.14500000
v 0.07875000 0.82000000 0.14500000
v 0.06000000 0.83875000 -0.32000000
v 0.06000000 0.83875000 0.14500000
v 0.04674175 0.83325825 -0.32000000
v 0.04674175 0.83325825 0.14500000
v 0.04125000 0.82000000 -0.32000000
v 0.04125000 0.82000000 0.14500000
v 0.04674175 0.80674175 -0.32000000
v 0.04674175 0.80674175 0.14500000
v 0.06000000 0.80125000 -0.32000000
v 0.06000000 0.80125000 0.14500000
v 0.07325825 0.80674175 -0.32000000
v 0.07325825 0.80674175 0.14500000
v 0.06000000 0.82000000 -0.32000000
v 0.06000000 0.82000000 0.14500000
v 0.37500000 0.86375000 -0.10000000
v 0.37500000 0.97625000 -0.10000000
v 0.40000000 0.97625000 -0.10000000
v 0.40000000 0.86375000 -0.10000000
v 0.37500000 0.86375000 -0.07500000
v 0.40000000 0.86375000 -0.07500000
v 0.40000000 0.97625000 -0.07500000
v 0.37500000 0.97625000 -0.07500000
v 0.25750000 0.90000000 -0.35000000
v 0.51750000 0.90000000 -0.35000000
v 0.47750000 0.83750000 -0.35000000
v 0.29750000 0.83750000 -0.35000000
v 0.26250000 0.84000000 -0.35000000
v 0.26250000 0.89500000 -0.35000000
v 0.51250000 0.89500000 -0.35000000
v 0.51250000 0.84000000 -0.35000000
v 0.26250000 0.84000000 0.17500000
v 0.51250000 0.84000000 0.17500000
v 0.51250000 0.89500000 0.17500000
v 0.26250000 0.89500000 0.17500000
v 0.34625000 0.82000000 -0.32000000
v 0.34075825 0.83325825 -0.32000000
v 0.34075825 0.83325825 0.14500000
v 0.34625000 0.82000000 0.14500000
v 0.32750000 0.83875000 -0.32000000
v 0.32750000 0.83875000 0.14500000
v 0.31424175 0.83325825 -0.32000000
v 0.31424175 0.83325825 0.14500000
v 0.30875000 0.82000000 -0.32000000
v 0.30875000 0.82000000 0.14500000
v 0.31424175 0.80674175 -0.32000000
v 0.31424175 0.80674175 0.14500000
v 0.32750000 0.80125000 -0.32000000
v 0.32750000 0.80125000 0.14500000
v 0.34075825 0.80674175 -0.32000000
v 0.34075825 0.80674175 0.14500000
v 0.32750000 0.82000000 -0.32000000
v 0.32750000 0.82000000 0.14500000
v 0.46625000 0.82000000 -0.32000000
v 0.46075825 0.83325825 -0.32000000
v 0.46075825 0.83325825 0.14500000
v 0.46625000 0.82000000 0.14500000
v 0.44750000 0.83875000 -0.32000000
v 0.44750000 0.83875000 0.14500000
v 0.43424175 0.83325825 -0.32000000
v 0.43424175 0.83325825 0.14500000
v 0.42875000 0.82000000 -0.32000000
v 0.42875000 0.82000000 0.14500000
v 0.43424175 0.80674175 -0.32000000
v 0.43424175 0.80674175 0.14500000
v 0.44750000 0.80125000 -0.32000000
v 0.44750000 0.80125000 0.14500000
v 0.46075825 0.80674175 -0.32000000
v 0.46075825 0.80674175 0.14500000
v 0.44750000 0.82000000 -0.32000000
v 0.44750000 0.82000000 0.14500000
v 0.58750000 0.25000000 -0.08000000
v 0.58750000 0.45000000 -0.08000000
v 0.71250000 0.45000000 -0.08000000
v 0.71250000 0.25000000 -0.08000000
v 0.58750000 0.25000000 -0.00500000
v 0.71250000 0.25000000 -0.00500000
v 0.71250000 0.45000000 -0.00500000
v 0.58750000 0.45000000 -0.00500000
v 0.60625000 0.33125000 -0.00500000
v 0.60625000 0.41875000 -0.00500000
v 0.69375000 0.41875000 -0.00500000
v 0.69375000 0.33125000 -0.00500000
v 0.60625000 0.33125000 0.00250000
v 0.69375000 0.33125000 0.00250000
v 0.69375000 0.41875000 0.00250000
v 0.60625000 0.41875000 0.00250000
v 0.65000000 0.45000000 -0.07625000
v 0.65795495 0.45000000 -0.07954505
v 0.65795495 0.99000000 -0.07954505
v 0.65000000 0.99000000 -0.07625000
v 0.66125000 0.45000000 -0.08750000
v 0.66125000 0.99000000 -0.08750000
v 0.65795495 0.45000000 -0.09545495
v 0.65795495 0.99000000 -0.09545495
v 0.65000000 0.45000000 -0.09875000
v 0.65000000 0.99000000 -0.09875000
v 0.64204505 0.45000000 -0.09545495
v 0.64204505 0.99000000 -0.09545495
v 0.63875000 0.45000000 -0.08750000
v 0.63875000 0.99000000 -0.08750000
v 0.64204505 0.45000000 -0.07954505
v 0.64204505 0.99000000 -0.07954505
v 0.65000000 0.45000000 -0.08750000
v 0.65000000 0.99000000 -0.08750000
v 0.65000000 0.99795495 -0.07954505
v 0.00000000 0.99795495 -0.07954505
v 0.00000000 0.99000000 -0.07625000
v 0.65000000 1.00125000 -0.08750000
v 0.00000000 1.00125000 -0.08750000
v 0.65000000 0.99795495 -0.09545495
v 0.00000000 0.99795495 -0.09545495
v 0.00000000 0.99000000 -0.09875000
v 0.65000000 0.98204505 -0.09545495
v 0.00000000 0.98204505 -0.09545495
v 0.65000000 0.97875000 -0.08750000
v 0.00000000 0.97875000 -0.08750000
v 0.65000000 0.98204505 -0.07954505
v 0.00000000 0.98204505 -0.07954505
v 0.00000000 0.99000000 -0.08750000
vt 0.01562500 0.26562500
vt 0.23437500 0.26562500
vt 0.23437500 0.48437500
vt 0.01562500 0.48437500
vt 0.01562500 0.26562500
vt 0.23437500 0.26562500
vt 0.23437500 0.48437500
vt 0.01562500 0.48437500
vt 0.01562500 0.26562500
vt 0.23437500 0.26562500
vt 0.23437500 0.48437500
vt 0.01562500 0.48437500
vt 0.01562500 0.26562500
vt 0.23437500 0.26562500
vt 0.23437500 0.48437500
vt 0.01562500 0.48437500
vt 0.01562500 0.26562500
vt 0.23437500 0.26562500
vt 0.23437500 0.48437500
vt 0.01562500 0.48437500
vt 0.01562500 0.26562500
vt 0.23437500 0.26562500
vt 0.23437500 0.48437500
vt 0.01562500 0.48437500
vt 0.01562500 0.01562500
vt 0.23437500 0.01562500
vt 0.23437500 0.23437500
vt 0.01562500 0.23437500
vt 0.01562500 0.01562500
vt 0.23437500 0.01562500
vt 0.23437500 0.23437500
vt 0.01562500 0.23437500
vt 0.01562500 0.01562500
vt 0.23437500 0.01562500
vt 0.23437500 0.23437500
vt 0.01562500 0.23437500
vt 0.01562500 0.01562500
vt 0.23437500 0.01562500
vt 0.23437500 0.23437500
vt 0.01562500 0.23437500
vt 0.01562500 0.01562500
vt 0.23437500 0.01562500
vt 0.23437500 0.23437500
vt 0.01562500 0.23437500
vt 0.01562500 0.01562500
vt 0.23437500 0.01562500
vt 0.23437500 0.23437500
vt 0.01562500 0.23437500
vt 0.51562500 0.76562500
vt 0.73437500 0.76562500
vt 0.73437500 0.98437500
vt 0.51562500 0.98437500
vt 0.51562500 0.76562500
vt 0.73437500 0.76562500
vt 0.73437500 0.98437500
vt 0.51562500 0.98437500
vt 0.51562500 0.76562500
vt 0.73437500 0.76562500
vt 0.73437500 0.98437500
vt 0.51562500 0.98437500
vt 0.51562500 0.76562500
vt 0.73437500 0.76562500
vt 0.73437500 0.98437500
vt 0.51562500 0.98437500
vt 0.51562500 0.76562500
vt 0.73437500 0.76562500
vt 0.73437500 0.98437500
vt 0.51562500 0.98437500
vt 0.51562500 0.76562500
vt 0.73437500 0.76562500
vt 0.73437500 0.98437500
vt 0.51562500 0.98437500
vt 0.51562500 0.76562500
vt 0.73437500 0.76562500
vt 0.73437500 0.98437500
vt 0.51562500 0.98437500
vt 0.51562500 0.76562500
vt 0.73437500 0.76562500
vt 0.73437500 0.98437500
vt 0.51562500 0.98437500
vt 0.51562500 0.76562500
vt 0.73437500 0.76562500
vt 0.73437500 0.98437500
vt 0.51562500 0.98437500
vt 0.51562500 0.76562500
vt 0.73437500 0.76562500
vt 0.73437500 0.98437500
vt 0.51562500 0.98437500
vt 0.51562500 0.76562500
vt 0.73437500 0.76562500
vt 0.73437500 0.98437500
vt 0.51562500 0.98437500
vt 0.51562500 0.76562500
vt 0.73437500 0.76562500
vt 0.73437500 0.98437500
vt 0.51562500 0.98437500
vt 0.51562500 0.76562500
vt 0.73437500 0.76562500
vt 0.73437500 0.98437500
vt 0.51562500 0.98437500
vt 0.51562500 0.76562500
vt 0.73437500 0.76562500
vt 0.73437500 0.98437500
vt 0.51562500 0.98437500
vt 0.51562500 0.76562500
vt 0.73437500 0.76562500
vt 0.73437500 0.98437500
vt 0.51562500 0.98437500
vt 0.51562500 0.76562500
vt 0.73437500 0.76562500
vt 0.73437500 0.98437500
vt 0.51562500 0.98437500
vt 0.51562500 0.76562500
vt 0.73437500 0.76562500
vt 0.73437500 0.98437500
vt 0.51562500 0.98437500
vt 0.51562500 0.76562500
vt 0.73437500 0.76562500
vt 0.73437500 0.98437500
vt 0.51562500 0.98437500
vt 0.51562500 0.76562500
vt 0.73437500 0.76562500
vt 0.73437500 0.98437500
vt 0.51562500 0.98437500
vt 0.51562500 0.76562500
vt 0.73437500 0.76562500
vt 0.73437500 0.98437500
vt 0.51562500 0.98437500
vt 0.51562500 0.76562500
vt 0.73437500 0.76562500
vt 0.73437500 0.98437500
vt 0.51562500 0.98437500
vt 0.51562500 0.76562500
vt 0.73437500 0.76562500
vt 0.73437500 0.98437500
vt 0.51562500 0.98437500
vt 0.51562500 0.76562500
vt 0.73437500 0.76562500
vt 0.73437500 0.98437500
vt 0.51562500 0.98437500
vt 0.51562500 0.76562500
vt 0.73437500 0.76562500
vt 0.73437500 0.98437500
vt 0.51562500 0.98437500
vt 0.51562500 0.76562500
vt 0.73437500 0.76562500
vt 0.73437500 0.98437500
vt 0.51562500 0.98437500
vt 0.51562500 0.76562500
vt 0.73437500 0.76562500
vt 0.73437500 0.98437500
vt 0.51562500 0.98437500
vt 0.51562500 0.76562500
vt 0.73437500 0.76562500
vt 0.73437500 0.98437500
vt 0.51562500 0.98437500
vt 0.51562500 0.76562500
vt 0.73437500 0.76562500
vt 0.73437500 0.98437500
vt 0.51562500 0.98437500
vt 0.51562500 0.76562500
vt 0.73437500 0.76562500
vt 0.73437500 0.98437500
vt 0.51562500 0.98437500
vt 0.51562500 0.76562500
vt 0.73437500 0.76562500
vt 0.73437500 0.98437500
vt 0.51562500 0.98437500
vt 0.51562500 0.76562500
vt 0.73437500 0.76562500
vt 0.73437500 0.98437500
vt 0.51562500 0.98437500
vt 0.51562500 0.76562500
vt 0.73437500 0.76562500
vt 0.73437500 0.98437500
vt 0.51562500 0.98437500
vt 0.51562500 0.76562500
vt 0.73437500 0.76562500
vt 0.73437500 0.98437500
vt 0.51562500 0.98437500
vt 0.51562500 0.76562500
vt 0.73437500 0.76562500
vt 0.73437500 0.98437500
vt 0.51562500 0.98437500
vt 0.51562500 0.76562500
vt 0.73437500 0.76562500
vt 0.73437500 0.98437500
vt 0.51562500 0.98437500
vt 0.51562500 0.76562500
vt 0.73437500 0.76562500
vt 0.73437500 0.98437500
vt 0.51562500 0.98437500
vt 0.01562500 0.26562500
vt 0.23437500 0.26562500
vt 0.23437500 0.48437500
vt 0.01562500 0.48437500
vt 0.01562500 0.26562500
vt 0.23437500 0.26562500
vt 0.23437500 0.48437500
vt 0.01562500 0.48437500
vt 0.01562500 0.26562500
vt 0.23437500 0.26562500
vt 0.23437500 0.48437500
vt 0.01562500 0.48437500
vt 0.01562500 0.26562500
vt 0.23437500 0.26562500
vt 0.23437500 0.48437500
vt 0.01562500 0.48437500
vt 0.01562500 0.26562500
vt 0.23437500 0.26562500
vt 0.23437500 0.48437500
vt 0.01562500 0.48437500
vt 0.01562500 0.26562500
vt 0.23437500 0.26562500
vt 0.23437500 0.48437500
vt 0.01562500 0.48437500
vt 0.01562500 0.26562500
vt 0.23437500 0.26562500
vt 0.23437500 0.48437500
vt 0.01562500 0.48437500
vt 0.76562500 0.26562500
vt 0.98437500 0.26562500
vt 0.98437500 0.48437500
vt 0.76562500 0.48437500
vt 0.76562500 0.26562500
vt 0.98437500 0.26562500
vt 0.98437500 0.48437500
vt 0.76562500 0.48437500
vt 0.76562500 0.26562500
vt 0.98437500 0.26562500
vt 0.98437500 0.48437500
vt 0.76562500 0.48437500
vt 0.76562500 0.26562500
vt 0.98437500 0.26562500
vt 0.98437500 0.48437500
vt 0.76562500 0.48437500
vt 0.76562500 0.26562500
vt 0.98437500 0.26562500
vt 0.98437500 0.48437500
vt 0.76562500 0.48437500
vt 0.76562500 0.26562500
vt 0.98437500 0.26562500
vt 0.98437500 0.48437500
vt 0.76562500 0.48437500
vt 0.76562500 0.26562500
vt 0.98437500 0.26562500
vt 0.98437500 0.48437500
vt 0.76562500 0.48437500
vt 0.76562500 0.26562500
vt 0.98437500 0.26562500
vt 0.98437500 0.48437500
vt 0.76562500 0.48437500
vt 0.76562500 0.26562500
vt 0.98437500 0.26562500
vt 0.98437500 0.48437500
vt 0.76562500 0.26562500
vt 0.98437500 0.26562500
vt 0.98437500 0.48437500
vt 0.76562500 0.26562500
vt 0.98437500 0.26562500
vt 0.98437500 0.48437500
vt 0.76562500 0.26562500
vt 0.98437500 0.26562500
vt 0.98437500 0.48437500
vt 0.76562500 0.26562500
vt 0.98437500 0.26562500
vt 0.98437500 0.48437500
vt 0.76562500 0.26562500
vt 0.98437500 0.26562500
vt 0.98437500 0.48437500
vt 0.76562500 0.26562500
vt 0.98437500 0.26562500
vt 0.98437500 0.48437500
vt 0.76562500 0.26562500
vt 0.98437500 0.26562500
vt 0.98437500 0.48437500
vt 0.76562500 0.26562500
vt 0.98437500 0.26562500
vt 0.98437500 0.48437500
vt 0.76562500 0.26562500
vt 0.98437500 0.26562500
vt 0.98437500 0.48437500
vt 0.76562500 0.26562500
vt 0.98437500 0.26562500
vt 0.98437500 0.48437500
vt 0.76562500 0.26562500
vt 0.98437500 0.26562500
vt 0.98437500 0.48437500
vt 0.76562500 0.26562500
vt 0.98437500 0.26562500
vt 0.98437500 0.48437500
vt 0.76562500 0.26562500
vt 0.98437500 0.26562500
vt 0.98437500 0.48437500
vt 0.76562500 0.26562500
vt 0.98437500 0.26562500
vt 0.98437500 0.48437500
vt 0.76562500 0.26562500
vt 0.98437500 0.26562500
vt 0.98437500 0.48437500
vt 0.76562500 0.26562500
vt 0.98437500 0.26562500
vt 0.98437500 0.48437500
vt 0.76562500 0.48437500
vt 0.76562500 0.26562500
vt 0.98437500 0.26562500
vt 0.98437500 0.48437500
vt 0.76562500 0.48437500
vt 0.76562500 0.26562500
vt 0.98437500 0.26562500
vt 0.98437500 0.48437500
vt 0.76562500 0.48437500
vt 0.76562500 0.26562500
vt 0.98437500 0.26562500
vt 0.98437500 0.48437500
vt 0.76562500 0.48437500
vt 0.76562500 0.26562500
vt 0.98437500 0.26562500
vt 0.98437500 0.48437500
vt 0.76562500 0.48437500
vt 0.76562500 0.26562500
vt 0.98437500 0.26562500
vt 0.98437500 0.48437500
vt 0.76562500 0.48437500
vt 0.76562500 0.26562500
vt 0.98437500 0.26562500
vt 0.98437500 0.48437500
vt 0.76562500 0.48437500
vt 0.76562500 0.26562500
vt 0.98437500 0.26562500
vt 0.98437500 0.48437500
vt 0.76562500 0.48437500
vt 0.76562500 0.26562500
vt 0.98437500 0.26562500
vt 0.98437500 0.48437500
vt 0.76562500 0.26562500
vt 0.98437500 0.26562500
vt 0.98437500 0.48437500
vt 0.76562500 0.26562500
vt 0.98437500 0.26562500
vt 0.98437500 0.48437500
vt 0.76562500 0.26562500
vt 0.98437500 0.26562500
vt 0.98437500 0.48437500
vt 0.76562500 0.26562500
vt 0.98437500 0.26562500
vt 0.98437500 0.48437500
vt 0.76562500 0.26562500
vt 0.98437500 0.26562500
vt 0.98437500 0.48437500
vt 0.76562500 0.26562500
vt 0.98437500 0.26562500
vt 0.98437500 0.48437500
vt 0.76562500 0.26562500
vt 0.98437500 0.26562500
vt 0.98437500 0.48437500
vt 0.76562500 0.26562500
vt 0.98437500 0.26562500
vt 0.98437500 0.48437500
vt 0.76562500 0.26562500
vt 0.98437500 0.26562500
vt 0.98437500 0.48437500
vt 0.76562500 0.26562500
vt 0.98437500 0.26562500
vt 0.98437500 0.48437500
vt 0.76562500 0.26562500
vt 0.98437500 0.26562500
vt 0.98437500 0.48437500
vt 0.76562500 0.26562500
vt 0.98437500 0.26562500
vt 0.98437500 0.48437500
vt 0.76562500 0.26562500
vt 0.98437500 0.26562500
vt 0.98437500 0.48437500
vt 0.76562500 0.26562500
vt 0.98437500 0.26562500
vt 0.98437500 0.48437500
vt 0.76562500 0.26562500
vt 0.98437500 0.26562500
vt 0.98437500 0.48437500
vt 0.51562500 0.76562500
vt 0.73437500 0.76562500
vt 0.73437500 0.98437500
vt 0.51562500 0.98437500
vt 0.51562500 0.76562500
vt 0.73437500 0.76562500
vt 0.73437500 0.98437500
vt 0.51562500 0.98437500
vt 0.51562500 0.76562500
vt 0.73437500 0.76562500
vt 0.73437500 0.98437500
vt 0.51562500 0.98437500
vt 0.51562500 0.76562500
vt 0.73437500 0.76562500
vt 0.73437500 0.98437500
vt 0.51562500 0.98437500
vt 0.51562500 0.76562500
vt 0.73437500 0.76562500
vt 0.73437500 0.98437500
vt 0.51562500 0.98437500
vt 0.51562500 0.76562500
vt 0.73437500 0.76562500
vt 0.73437500 0.98437500
vt 0.51562500 0.98437500
vt 0.01562500 0.26562500
vt 0.23437500 0.26562500
vt 0.23437500 0.48437500
vt 0.01562500 0.48437500
vt 0.01562500 0.26562500
vt 0.23437500 0.26562500
vt 0.23437500 0.48437500
vt 0.01562500 0.48437500
vt 0.01562500 0.26562500
vt 0.23437500 0.26562500
vt 0.23437500 0.48437500
vt 0.01562500 0.48437500
vt 0.01562500 0.26562500
vt 0.23437500 0.26562500
vt 0.23437500 0.48437500
vt 0.01562500 0.48437500
vt 0.01562500 0.26562500
vt 0.23437500 0.26562500
vt 0.23437500 0.48437500
vt 0.01562500 0.48437500
vt 0.01562500 0.26562500
vt 0.23437500 0.26562500
vt 0.23437500 0.48437500
vt 0.01562500 0.48437500
vt 0.01562500 0.26562500
vt 0.23437500 0.26562500
vt 0.23437500 0.48437500
vt 0.01562500 0.48437500
vt 0.76562500 0.26562500
vt 0.98437500 0.26562500
vt 0.98437500 0.48437500
vt 0.76562500 0.48437500
vt 0.76562500 0.26562500
vt 0.98437500 0.26562500
vt 0.98437500 0.48437500
vt 0.76562500 0.48437500
vt 0.76562500 0.26562500
vt 0.98437500 0.26562500
vt 0.98437500 0.48437500
vt 0.76562500 0.48437500
vt 0.76562500 0.26562500
vt 0.98437500 0.26562500
vt 0.98437500 0.48437500
vt 0.76562500 0.48437500
vt 0.76562500 0.26562500
vt 0.98437500 0.26562500
vt 0.98437500 0.48437500
vt 0.76562500 0.48437500
vt 0.76562500 0.26562500
vt 0.98437500 0.26562500
vt 0.98437500 0.48437500
vt 0.76562500 0.48437500
vt 0.76562500 0.26562500
vt 0.98437500 0.26562500
vt 0.98437500 0.48437500
vt 0.76562500 0.48437500
vt 0.76562500 0.26562500
vt 0.98437500 0.26562500
vt 0.98437500 0.48437500
vt 0.76562500 0.48437500
vt 0.76562500 0.26562500
vt 0.98437500 0.26562500
vt 0.98437500 0.48437500
vt 0.76562500 0.26562500
vt 0.98437500 0.26562500
vt 0.98437500 0.48437500
vt 0.76562500 0.26562500
vt 0.98437500 0.26562500
vt 0.98437500 0.48437500
vt 0.76562500 0.26562500
vt 0.98437500 0.26562500
vt 0.98437500 0.48437500
vt 0.76562500 0.26562500
vt 0.98437500 0.26562500
vt 0.98437500 0.48437500
vt 0.76562500 0.26562500
vt 0.98437500 0.26562500
vt 0.98437500 0.48437500
vt 0.76562500 0.26562500
vt 0.98437500 0.26562500
vt 0.98437500 0.48437500
vt 0.76562500 0.26562500
vt 0.98437500 0.26562500
vt 0.98437500 0.48437500
vt 0.76562500 0.26562500
vt 0.98437500 0.26562500
vt 0.98437500 0.48437500
vt 0.76562500 0.26562500
vt 0.98437500 0.26562500
vt 0.98437500 0.48437500
vt 0.76562500 0.26562500
vt 0.98437500 0.26562500
vt 0.98437500 0.48437500
vt 0.76562500 0.26562500
vt 0.98437500 0.26562500
vt 0.98437500 0.48437500
vt 0.76562500 0.26562500
vt 0.98437500 0.26562500
vt 0.98437500 0.48437500
vt 0.76562500 0.26562500
vt 0.98437500 0.26562500
vt 0.98437500 0.48437500
vt 0.76562500 0.26562500
vt 0.98437500 0.26562500
vt 0.98437500 0.48437500
vt 0.76562500 0.26562500
vt 0.98437500 0.26562500
vt 0.98437500 0.48437500
vt 0.76562500 0.26562500
vt 0.98437500 0.26562500
vt 0.98437500 0.48437500
vt 0.76562500 0.48437500
vt 0.76562500 0.26562500
vt 0.98437500 0.26562500
vt 0.98437500 0.48437500
vt 0.76562500 0.48437500
vt 0.76562500 0.26562500
vt 0.98437500 0.26562500
vt 0.98437500 0.48437500
vt 0.76562500 0.48437500
vt 0.76562500 0.26562500
vt 0.98437500 0.26562500
vt 0.98437500 0.48437500
vt 0.76562500 0.48437500
vt 0.76562500 0.26562500
vt 0.98437500 0.26562500
vt 0.98437500 0.48437500
vt 0.76562500 0.48437500
vt 0.76562500 0.26562500
vt 0.98437500 0.26562500
vt 0.98437500 0.48437500
vt 0.76562500 0.48437500
vt 0.76562500 0.26562500
vt 0.98437500 0.26562500
vt 0.98437500 0.48437500
vt 0.76562500 0.48437500
vt 0.76562500 0.26562500
vt 0.98437500 0.26562500
vt 0.98437500 0.48437500
vt 0.76562500 0.48437500
vt 0.76562500 0.26562500
vt 0.98437500 0.26562500
vt 0.98437500 0.48437500
vt 0.76562500 0.26562500
vt 0.98437500 0.26562500
vt 0.98437500 0.48437500
vt 0.76562500 0.26562500
vt 0.98437500 0.26562500
vt 0.98437500 0.48437500
vt 0.76562500 0.26562500
vt 0.98437500 0.26562500
vt 0.98437500 0.48437500
vt 0.76562500 0.26562500
vt 0.98437500 0.26562500
vt 0.98437500 0.48437500
vt 0.76562500 0.26562500
vt 0.98437500 0.26562500
vt 0.98437500 0.48437500
vt 0.76562500 0.26562500
vt 0.98437500 0.26562500
vt 0.98437500 0.48437500
vt 0.76562500 0.26562500
vt 0.98437500 0.26562500
vt 0.98437500 0.48437500
vt 0.76562500 0.26562500
vt 0.98437500 0.26562500
vt 0.98437500 0.48437500
vt 0.76562500 0.26562500
vt 0.98437500 0.26562500
vt 0.98437500 0.48437500
vt 0.76562500 0.26562500
vt 0.98437500 0.26562500
vt 0.98437500 0.48437500
vt 0.76562500 0.26562500
vt 0.98437500 0.26562500
vt 0.98437500 0.48437500
vt 0.76562500 0.26562500
vt 0.98437500 0.26562500
vt 0.98437500 0.48437500
vt 0.76562500 0.26562500
vt 0.98437500 0.26562500
vt 0.98437500 0.48437500
vt 0.76562500 0.26562500
vt 0.98437500 0.26562500
vt 0.98437500 0.48437500
vt 0.76562500 0.26562500
vt 0.98437500 0.26562500
vt 0.98437500 0.48437500
vt 0.51562500 0.76562500
vt 0.73437500 0.76562500
vt 0.73437500 0.98437500
vt 0.51562500 0.98437500
vt 0.51562500 0.76562500
vt 0.73437500 0.76562500
vt 0.73437500 0.98437500
vt 0.51562500 0.98437500
vt 0.51562500 0.76562500
vt 0.73437500 0.76562500
vt 0.73437500 0.98437500
vt 0.51562500 0.98437500
vt 0.51562500 0.76562500
vt 0.73437500 0.76562500
vt 0.73437500 0.98437500
vt 0.51562500 0.98437500
vt 0.51562500 0.76562500
vt 0.73437500 0.76562500
vt 0.73437500 0.98437500
vt 0.51562500 0.98437500
vt 0.51562500 0.76562500
vt 0.73437500 0.76562500
vt 0.73437500 0.98437500
vt 0.51562500 0.98437500
vt 0.01562500 0.26562500
vt 0.23437500 0.26562500
vt 0.23437500 0.48437500
vt 0.01562500 0.48437500
vt 0.01562500 0.26562500
vt 0.23437500 0.26562500
vt 0.23437500 0.48437500
vt 0.01562500 0.48437500
vt 0.01562500 0.26562500
vt 0.23437500 0.26562500
vt 0.23437500 0.48437500
vt 0.01562500 0.48437500
vt 0.01562500 0.26562500
vt 0.23437500 0.26562500
vt 0.23437500 0.48437500
vt 0.01562500 0.48437500
vt 0.01562500 0.26562500
vt 0.23437500 0.26562500
vt 0.23437500 0.48437500
vt 0.01562500 0.48437500
vt 0.01562500 0.26562500
vt 0.23437500 0.26562500
vt 0.23437500 0.48437500
vt 0.01562500 0.48437500
vt 0.01562500 0.26562500
vt 0.23437500 0.26562500
vt 0.23437500 0.48437500
vt 0.01562500 0.48437500
vt 0.76562500 0.26562500
vt 0.98437500 0.26562500
vt 0.98437500 0.48437500
vt 0.76562500 0.48437500
vt 0.76562500 0.26562500
vt 0.98437500 0.26562500
vt 0.98437500 0.48437500
vt 0.76562500 0.48437500
vt 0.76562500 0.26562500
vt 0.98437500 0.26562500
vt 0.98437500 0.48437500
vt 0.76562500 0.48437500
vt 0.76562500 0.26562500
vt 0.98437500 0.26562500
vt 0.98437500 0.48437500
vt 0.76562500 0.48437500
vt 0.76562500 0.26562500
vt 0.98437500 0.26562500
vt 0.98437500 0.48437500
vt 0.76562500 0.48437500
vt 0.76562500 0.26562500
vt 0.98437500 0.26562500
vt 0.98437500 0.48437500
vt 0.76562500 0.48437500
vt 0.76562500 0.26562500
vt 0.98437500 0.26562500
vt 0.98437500 0.48437500
vt 0.76562500 0.48437500
vt 0.76562500 0.26562500
vt 0.98437500 0.26562500
vt 0.98437500 0.48437500
vt 0.76562500 0.48437500
vt 0.76562500 0.26562500
vt 0.98437500 0.26562500
vt 0.98437500 0.48437500
vt 0.76562500 0.26562500
vt 0.98437500 0.26562500
vt 0.98437500 0.48437500
vt 0.76562500 0.26562500
vt 0.98437500 0.26562500
vt 0.98437500 0.48437500
vt 0.76562500 0.26562500
vt 0.98437500 0.26562500
vt 0.98437500 0.48437500
vt 0.76562500 0.26562500
vt 0.98437500 0.26562500
vt 0.98437500 0.48437500
vt 0.76562500 0.26562500
vt 0.98437500 0.26562500
vt 0.98437500 0.48437500
vt 0.76562500 0.26562500
vt 0.98437500 0.26562500
vt 0.98437500 0.48437500
vt 0.76562500 0.26562500
vt 0.98437500 0.26562500
vt 0.98437500 0.48437500
vt 0.76562500 0.26562500
vt 0.98437500 0.26562500
vt 0.98437500 0.48437500
vt 0.76562500 0.26562500
vt 0.98437500 0.26562500
vt 0.98437500 0.48437500
vt 0.76562500 0.26562500
vt 0.98437500 0.26562500
vt 0.98437500 0.48437500
vt 0.76562500 0.26562500
vt 0.98437500 0.26562500
vt 0.98437500 0.48437500
vt 0.76562500 0.26562500
vt 0.98437500 0.26562500
vt 0.98437500 0.48437500
vt 0.76562500 0.26562500
vt 0.98437500 0.26562500
vt 0.98437500 0.48437500
vt 0.76562500 0.26562500
vt 0.98437500 0.26562500
vt 0.98437500 0.48437500
vt 0.76562500 0.26562500
vt 0.98437500 0.26562500
vt 0.98437500 0.48437500
vt 0.76562500 0.26562500
vt 0.98437500 0.26562500
vt 0.98437500 0.48437500
vt 0.76562500 0.48437500
vt 0.76562500 0.26562500
vt 0.98437500 0.26562500
vt 0.98437500 0.48437500
vt 0.76562500 0.48437500
vt 0.76562500 0.26562500
vt 0.98437500 0.26562500
vt 0.98437500 0.48437500
vt 0.76562500 0.48437500
vt 0.76562500 0.26562500
vt 0.98437500 0.26562500
vt 0.98437500 0.48437500
vt 0.76562500 0.48437500
vt 0.76562500 0.26562500
vt 0.98437500 0.26562500
vt 0.98437500 0.48437500
vt 0.76562500 0.48437500
vt 0.76562500 0.26562500
vt 0.98437500 0.26562500
vt 0.98437500 0.48437500
vt 0.76562500 0.48437500
vt 0.76562500 0.26562500
vt 0.98437500 0.26562500
vt 0.98437500 0.48437500
vt 0.76562500 0.48437500
vt 0.76562500 0.26562500
vt 0.98437500 0.26562500
vt 0.98437500 0.48437500
vt 0.76562500 0.48437500
vt 0.76562500 0.26562500
vt 0.98437500 0.26562500
vt 0.98437500 0.48437500
vt 0.76562500 0.26562500
vt 0.98437500 0.26562500
vt 0.98437500 0.48437500
vt 0.76562500 0.26562500
vt 0.98437500 0.26562500
vt 0.98437500 0.48437500
vt 0.76562500 0.26562500
vt 0.98437500 0.26562500
vt 0.98437500 0.48437500
vt 0.76562500 0.26562500
vt 0.98437500 0.26562500
vt 0.98437500 0.48437500
vt 0.76562500 0.26562500
vt 0.98437500 0.26562500
vt 0.98437500 0.48437500
vt 0.76562500 0.26562500
vt 0.98437500 0.26562500
vt 0.98437500 0.48437500
vt 0.76562500 0.26562500
vt 0.98437500 0.26562500
vt 0.98437500 0.48437500
vt 0.76562500 0.26562500
vt 0.98437500 0.26562500
vt 0.98437500 0.48437500
vt 0.76562500 0.26562500
vt 0.98437500 0.26562500
vt 0.98437500 0.48437500
vt 0.76562500 0.26562500
vt 0.98437500 0.26562500
vt 0.98437500 0.48437500
vt 0.76562500 0.26562500
vt 0.98437500 0.26562500
vt 0.98437500 0.48437500
vt 0.76562500 0.26562500
vt 0.98437500 0.26562500
vt 0.98437500 0.48437500
vt 0.76562500 0.26562500
vt 0.98437500 0.26562500
vt 0.98437500 0.48437500
vt 0.76562500 0.26562500
vt 0.98437500 0.26562500
vt 0.98437500 0.48437500
vt 0.76562500 0.26562500
vt 0.98437500 0.26562500
vt 0.98437500 0.48437500
vt 0.01562500 0.76562500
vt 0.23437500 0.76562500
vt 0.23437500 0.98437500
vt 0.01562500 0.98437500
vt 0.01562500 0.76562500
vt 0.23437500 0.76562500
vt 0.23437500 0.98437500
vt 0.01562500 0.98437500
vt 0.01562500 0.76562500
vt 0.23437500 0.76562500
vt 0.23437500 0.98437500
vt 0.01562500 0.98437500
vt 0.01562500 0.76562500
vt 0.23437500 0.76562500
vt 0.23437500 0.98437500
vt 0.01562500 0.98437500
vt 0.01562500 0.76562500
vt 0.23437500 0.76562500
vt 0.23437500 0.98437500
vt 0.01562500 0.98437500
vt 0.01562500 0.76562500
vt 0.23437500 0.76562500
vt 0.23437500 0.98437500
vt 0.01562500 0.98437500
vt 0.76562500 0.01562500
vt 0.98437500 0.01562500
vt 0.98437500 0.23437500
vt 0.76562500 0.23437500
vt 0.76562500 0.01562500
vt 0.98437500 0.01562500
vt 0.98437500 0.23437500
vt 0.76562500 0.23437500
vt 0.76562500 0.01562500
vt 0.98437500 0.01562500
vt 0.98437500 0.23437500
vt 0.76562500 0.23437500
vt 0.76562500 0.01562500
vt 0.98437500 0.01562500
vt 0.98437500 0.23437500
vt 0.76562500 0.23437500
vt 0.76562500 0.01562500
vt 0.98437500 0.01562500
vt 0.98437500 0.23437500
vt 0.76562500 0.23437500
vt 0.76562500 0.01562500
vt 0.98437500 0.01562500
vt 0.98437500 0.23437500
vt 0.76562500 0.23437500
vt 0.01562500 0.51562500
vt 0.23437500 0.51562500
vt 0.23437500 0.73437500
vt 0.01562500 0.73437500
vt 0.01562500 0.51562500
vt 0.23437500 0.51562500
vt 0.23437500 0.73437500
vt 0.01562500 0.73437500
vt 0.01562500 0.51562500
vt 0.23437500 0.51562500
vt 0.23437500 0.73437500
vt 0.01562500 0.73437500
vt 0.01562500 0.51562500
vt 0.23437500 0.51562500
vt 0.23437500 0.73437500
vt 0.01562500 0.73437500
vt 0.01562500 0.51562500
vt 0.23437500 0.51562500
vt 0.23437500 0.73437500
vt 0.01562500 0.73437500
vt 0.01562500 0.51562500
vt 0.23437500 0.51562500
vt 0.23437500 0.73437500
vt 0.01562500 0.73437500
vt 0.01562500 0.51562500
vt 0.23437500 0.51562500
vt 0.23437500 0.73437500
vt 0.01562500 0.73437500
vt 0.01562500 0.51562500
vt 0.23437500 0.51562500
vt 0.23437500 0.73437500
vt 0.01562500 0.73437500
vt 0.01562500 0.51562500
vt 0.23437500 0.51562500
vt 0.23437500 0.73437500
vt 0.01562500 0.51562500
vt 0.23437500 0.51562500
vt 0.23437500 0.73437500
vt 0.01562500 0.51562500
vt 0.23437500 0.51562500
vt 0.23437500 0.73437500
vt 0.01562500 0.51562500
vt 0.23437500 0.51562500
vt 0.23437500 0.73437500
vt 0.01562500 0.51562500
vt 0.23437500 0.51562500
vt 0.23437500 0.73437500
vt 0.01562500 0.51562500
vt 0.23437500 0.51562500
vt 0.23437500 0.73437500
vt 0.01562500 0.51562500
vt 0.23437500 0.51562500
vt 0.23437500 0.73437500
vt 0.01562500 0.51562500
vt 0.23437500 0.51562500
vt 0.23437500 0.73437500
vt 0.01562500 0.51562500
vt 0.23437500 0.51562500
vt 0.23437500 0.73437500
vt 0.01562500 0.51562500
vt 0.23437500 0.51562500
vt 0.23437500 0.73437500
vt 0.01562500 0.51562500
vt 0.23437500 0.51562500
vt 0.23437500 0.73437500
vt 0.01562500 0.51562500
vt 0.23437500 0.51562500
vt 0.23437500 0.73437500
vt 0.01562500 0.51562500
vt 0.23437500 0.51562500
vt 0.23437500 0.73437500
vt 0.01562500 0.51562500
vt 0.23437500 0.51562500
vt 0.23437500 0.73437500
vt 0.01562500 0.51562500
vt 0.23437500 0.51562500
vt 0.23437500 0.73437500
vt 0.01562500 0.51562500
vt 0.23437500 0.51562500
vt 0.23437500 0.73437500
vt 0.01562500 0.51562500
vt 0.23437500 0.51562500
vt 0.23437500 0.73437500
vt 0.01562500 0.73437500
vt 0.01562500 0.51562500
vt 0.23437500 0.51562500
vt 0.23437500 0.73437500
vt 0.01562500 0.73437500
vt 0.01562500 0.51562500
vt 0.23437500 0.51562500
vt 0.23437500 0.73437500
vt 0.01562500 0.73437500
vt 0.01562500 0.51562500
vt 0.23437500 0.51562500
vt 0.23437500 0.73437500
vt 0.01562500 0.73437500
vt 0.01562500 0.51562500
vt 0.23437500 0.51562500
vt 0.23437500 0.73437500
vt 0.01562500 0.73437500
vt 0.01562500 0.51562500
vt 0.23437500 0.51562500
vt 0.23437500 0.73437500
vt 0.01562500 0.73437500
vt 0.01562500 0.51562500
vt 0.23437500 0.51562500
vt 0.23437500 0.73437500
vt 0.01562500 0.73437500
vt 0.01562500 0.51562500
vt 0.23437500 0.51562500
vt 0.23437500 0.73437500
vt 0.01562500 0.73437500
vt 0.01562500 0.51562500
vt 0.23437500 0.51562500
vt 0.23437500 0.73437500
vt 0.01562500 0.51562500
vt 0.23437500 0.51562500
vt 0.23437500 0.73437500
vt 0.01562500 0.51562500
vt 0.23437500 0.51562500
vt 0.23437500 0.73437500
vt 0.01562500 0.51562500
vt 0.23437500 0.51562500
vt 0.23437500 0.73437500
vt 0.01562500 0.51562500
vt 0.23437500 0.51562500
vt 0.23437500 0.73437500
vt 0.01562500 0.51562500
vt 0.23437500 0.51562500
vt 0.23437500 0.73437500
vt 0.01562500 0.51562500
vt 0.23437500 0.51562500
vt 0.23437500 0.73437500
vt 0.01562500 0.51562500
vt 0.23437500 0.51562500
vt 0.23437500 0.73437500
vt 0.01562500 0.51562500
vt 0.23437500 0.51562500
vt 0.23437500 0.73437500
vt 0.01562500 0.51562500
vt 0.23437500 0.51562500
vt 0.23437500 0.73437500
vt 0.01562500 0.51562500
vt 0.23437500 0.51562500
vt 0.23437500 0.73437500
vt 0.01562500 0.51562500
vt 0.23437500 0.51562500
vt 0.23437500 0.73437500
vt 0.01562500 0.51562500
vt 0.23437500 0.51562500
vt 0.23437500 0.73437500
vt 0.01562500 0.51562500
vt 0.23437500 0.51562500
vt 0.23437500 0.73437500
vt 0.01562500 0.51562500
vt 0.23437500 0.51562500
vt 0.23437500 0.73437500
vt 0.01562500 0.51562500
vt 0.23437500 0.51562500
vt 0.23437500 0.73437500
vn 0.00000000 0.00000000 -1.00000000
vn 0.00000000 0.00000000 1.00000000
vn -1.00000000 0.00000000 0.00000000
vn 1.00000000 0.00000000 0.00000000
vn 0.00000000 -1.00000000 0.00000000
vn 0.00000000 1.00000000 0.00000000
vn 0.00000000 0.00000000 -1.00000000
vn 0.00000000 0.00000000 1.00000000
vn -1.00000000 0.00000000 0.00000000
vn 1.00000000 0.00000000 0.00000000
vn 0.00000000 -1.00000000 0.00000000
vn 0.00000000 1.00000000 0.00000000
vn 0.00000000 0.00000000 -1.00000000
vn 0.00000000 0.00000000 1.00000000
vn -1.00000000 0.00000000 0.00000000
vn 1.00000000 0.00000000 0.00000000
vn 0.00000000 -1.00000000 0.00000000
vn 0.00000000 1.00000000 0.00000000
vn 0.00000000 0.00000000 -1.00000000
vn 0.00000000 0.00000000 1.00000000
vn -1.00000000 0.00000000 0.00000000
vn 1.00000000 0.00000000 0.00000000
vn 0.00000000 -1.00000000 0.00000000
vn 0.00000000 1.00000000 0.00000000
vn 0.00000000 0.00000000 -1.00000000
vn 0.00000000 0.00000000 1.00000000
vn -1.00000000 0.00000000 0.00000000
vn 1.00000000 0.00000000 0.00000000
vn 0.00000000 -1.00000000 0.00000000
vn 0.00000000 1.00000000 0.00000000
vn 0.00000000 0.00000000 -1.00000000
vn 0.00000000 0.00000000 1.00000000
vn -1.00000000 0.00000000 0.00000000
vn 1.00000000 0.00000000 0.00000000
vn 0.00000000 -1.00000000 0.00000000
vn 0.00000000 1.00000000 0.00000000
vn 0.00000000 0.00000000 -1.00000000
vn 0.00000000 0.00000000 1.00000000
vn -1.00000000 0.00000000 0.00000000
vn 1.00000000 0.00000000 0.00000000
vn 0.00000000 -1.00000000 0.00000000
vn 0.00000000 1.00000000 0.00000000
vn 0.00000000 0.00000000 -1.00000000
vn 0.00000000 0.00000000 1.00000000
vn -1.00000000 0.00000000 0.00000000
vn 1.00000000 0.00000000 0.00000000
vn 0.00000000 -1.00000000 0.00000000
vn 0.00000000 1.00000000 0.00000000
vn 0.00000000 0.00000000 -1.00000000
vn 0.00000000 0.00000000 -1.00000000
vn 0.00000000 0.00000000 1.00000000
vn -1.00000000 0.00000000 0.00000000
vn 1.00000000 0.00000000 0.00000000
vn 0.00000000 -1.00000000 0.00000000
vn 0.00000000 1.00000000 0.00000000
vn 0.92387953 0.38268343 0.00000000
vn 0.38268343 0.92387953 0.00000000
vn -0.38268343 0.92387953 0.00000000
vn -0.92387953 0.38268343 0.00000000
vn -0.92387953 -0.38268343 0.00000000
vn -0.38268343 -0.92387953 0.00000000
vn 0.38268343 -0.92387953 0.00000000
vn 0.92387953 -0.38268343 0.00000000
vn 0.00000000 0.00000000 -1.00000000
vn 0.00000000 0.00000000 -1.00000000
vn 0.00000000 0.00000000 -1.00000000
vn 0.00000000 0.00000000 -1.00000000
vn -0.00000000 0.00000000 -1.00000000
vn 0.00000000 -0.00000000 -1.00000000
vn 0.00000000 0.00000000 -1.00000000
vn 0.00000000 0.00000000 -1.00000000
vn 0.00000000 0.00000000 1.00000000
vn 0.00000000 0.00000000 1.00000000
vn -0.00000000 0.00000000 1.00000000
vn -0.00000000 0.00000000 1.00000000
vn -0.00000000 -0.00000000 1.00000000
vn -0.00000000 -0.00000000 1.00000000
vn 0.00000000 -0.00000000 1.00000000
vn 0.00000000 -0.00000000 1.00000000
vn 0.92387953 0.38268343 0.00000000
vn 0.38268343 0.92387953 0.00000000
vn -0.38268343 0.92387953 0.00000000
vn -0.92387953 0.38268343 0.00000000
vn -0.92387953 -0.38268343 0.00000000
vn -0.38268343 -0.92387953 0.00000000
vn 0.38268343 -0.92387953 0.00000000
vn 0.92387953 -0.38268343 0.00000000
vn 0.00000000 0.00000000 -1.00000000
vn 0.00000000 0.00000000 -1.00000000
vn 0.00000000 0.00000000 -1.00000000
vn 0.00000000 0.00000000 -1.00000000
vn -0.00000000 0.00000000 -1.00000000
vn 0.00000000 -0.00000000 -1.00000000
vn 0.00000000 0.00000000 -1.00000000
vn 0.00000000 0.00000000 -1.00000000
vn 0.00000000 0.00000000 1.00000000
vn 0.00000000 0.00000000 1.00000000
vn -0.00000000 0.00000000 1.00000000
vn -0.00000000 0.00000000 1.00000000
vn -0.00000000 -0.00000000 1.00000000
vn -0.00000000 -0.00000000 1.00000000
vn 0.00000000 -0.00000000 1.00000000
vn 0.00000000 -0.00000000 1.00000000
vn 0.00000000 0.00000000 -1.00000000
vn 0.00000000 0.00000000 1.00000000
vn -1.00000000 0.00000000 0.00000000
vn 1.00000000 0.00000000 0.00000000
vn 0.00000000 -1.00000000 0.00000000
vn 0.00000000 1.00000000 0.00000000
vn 0.00000000 0.00000000 -1.00000000
vn 0.00000000 0.00000000 -1.00000000
vn 0.00000000 0.00000000 1.00000000
vn -1.00000000 0.00000000 0.00000000
vn 1.00000000 0.00000000 0.00000000
vn 0.00000000 -1.00000000 0.00000000
vn 0.00000000 1.00000000 0.00000000
vn 0.92387953 0.38268343 0.00000000
vn 0.38268343 0.92387953 0.00000000
vn -0.38268343 0.92387953 0.00000000
vn -0.92387953 0.38268343 0.00000000
vn -0.92387953 -0.38268343 0.00000000
vn -0.38268343 -0.92387953 0.00000000
vn 0.38268343 -0.92387953 0.00000000
vn 0.92387953 -0.38268343 0.00000000
vn 0.00000000 0.00000000 -1.00000000
vn 0.00000000 0.00000000 -1.00000000
vn 0.00000000 0.00000000 -1.00000000
vn 0.00000000 0.00000000 -1.00000000
vn -0.00000000 0.00000000 -1.00000000
vn 0.00000000 -0.00000000 -1.00000000
vn 0.00000000 0.00000000 -1.00000000
vn 0.00000000 0.00000000 -1.00000000
vn 0.00000000 0.00000000 1.00000000
vn 0.00000000 0.00000000 1.00000000
vn -0.00000000 0.00000000 1.00000000
vn -0.00000000 0.00000000 1.00000000
vn -0.00000000 -0.00000000 1.00000000
vn -0.00000000 -0.00000000 1.00000000
vn 0.00000000 -0.00000000 1.00000000
vn 0.00000000 -0.00000000 1.00000000
vn 0.92387953 0.38268343 0.00000000
vn 0.38268343 0.92387953 0.00000000
vn -0.38268343 0.92387953 0.00000000
vn -0.92387953 0.38268343 0.00000000
vn -0.92387953 -0.38268343 0.00000000
vn -0.38268343 -0.92387953 0.00000000
vn 0.38268343 -0.92387953 0.00000000
vn 0.92387953 -0.38268343 0.00000000
vn 0.00000000 0.00000000 -1.00000000
vn 0.00000000 0.00000000 -1.00000000
vn 0.00000000 0.00000000 -1.00000000
vn 0.00000000 0.00000000 -1.00000000
vn -0.00000000 0.00000000 -1.00000000
vn 0.00000000 -0.00000000 -1.00000000
vn 0.00000000 0.00000000 -1.00000000
vn 0.00000000 0.00000000 -1.00000000
vn 0.00000000 0.00000000 1.00000000
vn 0.00000000 0.00000000 1.00000000
vn -0.00000000 0.00000000 1.00000000
vn -0.00000000 0.00000000 1.00000000
vn -0.00000000 -0.00000000 1.00000000
vn -0.00000000 -0.00000000 1.00000000
vn 0.00000000 -0.00000000 1.00000000
vn 0.00000000 -0.00000000 1.00000000
vn 0.00000000 0.00000000 -1.00000000
vn 0.00000000 0.00000000 1.00000000
vn -1.00000000 0.00000000 0.00000000
vn 1.00000000 0.00000000 0.00000000
vn 0.00000000 -1.00000000 0.00000000
vn 0.00000000 1.00000000 0.00000000
vn 0.00000000 0.00000000 -1.00000000
vn 0.00000000 0.00000000 -1.00000000
vn 0.00000000 0.00000000 1.00000000
vn -1.00000000 0.00000000 0.00000000
vn 1.00000000 0.00000000 0.00000000
vn 0.00000000 -1.00000000 0.00000000
vn 0.00000000 1.00000000 0.00000000
vn 0.92387953 0.38268343 0.00000000
vn 0.38268343 0.92387953 0.00000000
vn -0.38268343 0.92387953 0.00000000
vn -0.92387953 0.38268343 0.00000000
vn -0.92387953 -0.38268343 0.00000000
vn -0.38268343 -0.92387953 0.00000000
vn 0.38268343 -0.92387953 0.00000000
vn 0.92387953 -0.38268343 0.00000000
vn 0.00000000 0.00000000 -1.00000000
vn 0.00000000 0.00000000 -1.00000000
vn 0.00000000 0.00000000 -1.00000000
vn 0.00000000 0.00000000 -1.00000000
vn -0.00000000 0.00000000 -1.00000000
vn 0.00000000 -0.00000000 -1.00000000
vn 0.00000000 0.00000000 -1.00000000
vn 0.00000000 0.00000000 -1.00000000
vn 0.00000000 0.00000000 1.00000000
vn 0.00000000 0.00000000 1.00000000
vn -0.00000000 0.00000000 1.00000000
vn -0.00000000 0.00000000 1.00000000
vn -0.00000000 -0.00000000 1.00000000
vn -0.00000000 -0.00000000 1.00000000
vn 0.00000000 -0.00000000 1.00000000
vn 0.00000000 -0.00000000 1.00000000
vn 0.92387953 0.38268343 0.00000000
vn 0.38268343 0.92387953 0.00000000
vn -0.38268343 0.92387953 0.00000000
vn -0.92387953 0.38268343 0.00000000
vn -0.92387953 -0.38268343 0.00000000
vn -0.38268343 -0.92387953 0.00000000
vn 0.38268343 -0.92387953 0.00000000
vn 0.92387953 -0.38268343 0.00000000
vn 0.00000000 0.00000000 -1.00000000
vn 0.00000000 0.00000000 -1.00000000
vn 0.00000000 0.00000000 -1.00000000
vn 0.00000000 0.00000000 -1.00000000
vn -0.00000000 0.00000000 -1.00000000
vn 0.00000000 -0.00000000 -1.00000000
vn 0.00000000 0.00000000 -1.00000000
vn 0.00000000 0.00000000 -1.00000000
vn 0.00000000 0.00000000 1.00000000
vn 0.00000000 0.00000000 1.00000000
vn -0.00000000 0.00000000 1.00000000
vn -0.00000000 0.00000000 1.00000000
vn -0.00000000 -0.00000000 1.00000000
vn -0.00000000 -0.00000000 1.00000000
vn 0.00000000 -0.00000000 1.00000000
vn 0.00000000 -0.00000000 1.00000000
vn 0.00000000 0.00000000 -1.00000000
vn 0.00000000 0.00000000 1.00000000
vn -1.00000000 0.00000000 0.00000000
vn 1.00000000 0.00000000 0.00000000
vn 0.00000000 -1.00000000 0.00000000
vn 0.00000000 1.00000000 0.00000000
vn 0.00000000 0.00000000 -1.00000000
vn 0.00000000 0.00000000 1.00000000
vn -1.00000000 0.00000000 0.00000000
vn 1.00000000 0.00000000 0.00000000
vn 0.00000000 -1.00000000 0.00000000
vn 0.00000000 1.00000000 0.00000000
vn 0.38268343 0.00000000 0.92387953
vn 0.92387953 0.00000000 0.38268343
vn 0.92387953 0.00000000 -0.38268343
vn 0.38268343 0.00000000 -0.92387953
vn -0.38268343 0.00000000 -0.92387953
vn -0.92387953 0.00000000 -0.38268343
vn -0.92387953 0.00000000 0.38268343
vn -0.38268343 0.00000000 0.92387953
vn 0.00000000 -1.00000000 0.00000000
vn 0.00000000 -1.00000000 0.00000000
vn 0.00000000 -1.00000000 0.00000000
vn 0.00000000 -1.00000000 0.00000000
vn 0.00000000 -1.00000000 -0.00000000
vn -0.00000000 -1.00000000 0.00000000
vn 0.00000000 -1.00000000 0.00000000
vn 0.00000000 -1.00000000 0.00000000
vn 0.00000000 1.00000000 0.00000000
vn 0.00000000 1.00000000 0.00000000
vn -0.00000000 1.00000000 0.00000000
vn 0.00000000 1.00000000 0.00000000
vn 0.00000000 1.00000000 0.00000000
vn 0.00000000 1.00000000 0.00000000
vn 0.00000000 1.00000000 0.00000000
vn 0.00000000 1.00000000 -0.00000000
vn 0.00000000 0.38268343 0.92387953
vn 0.00000000 0.92387953 0.38268343
vn 0.00000000 0.92387953 -0.38268343
vn 0.00000000 0.38268343 -0.92387953
vn 0.00000000 -0.38268343 -0.92387953
vn 0.00000000 -0.92387953 -0.38268343
vn 0.00000000 -0.92387953 0.38268343
vn 0.00000000 -0.38268343 0.92387953
vn 1.00000000 0.00000000 0.00000000
vn 1.00000000 0.00000000 0.00000000
vn 1.00000000 -0.00000000 0.00000000
vn 1.00000000 0.00000000 0.00000000
vn 1.00000000 0.00000000 0.00000000
vn 1.00000000 0.00000000 0.00000000
vn 1.00000000 0.00000000 0.00000000
vn 1.00000000 0.00000000 -0.00000000
vn -1.00000000 0.00000000 0.00000000
vn -1.00000000 0.00000000 0.00000000
vn -1.00000000 0.00000000 0.00000000
vn -1.00000000 0.00000000 0.00000000
vn -1.00000000 0.00000000 -0.00000000
vn -1.00000000 -0.00000000 0.00000000
vn -1.00000000 0.00000000 0.00000000
vn -1.00000000 0.00000000 0.00000000
f 1/1/1 2/2/1 3/3/1
f 1/1/1 3/3/1 4/4/1
f 5/5/2 6/6/2 7/7/2
f 5/5/2 7/7/2 8/8/2
f 1/9/3 5/10/3 8/11/3
f 1/9/3 8/11/3 2/12/3
f 4/13/4 3/14/4 7/15/4
f 4/13/4 7/15/4 6/16/4
f 1/17/5 4/18/5 6/19/5
f 1/17/5 6/19/5 5/20/5
f 2/21/6 8/22/6 7/23/6
f 2/21/6 7/23/6 3/24/6
f 9/25/7 10/26/7 11/27/7
f 9/25/7 11/27/7 12/28/7
f 13/29/8 14/30/8 15/31/8
f 13/29/8 15/31/8 16/32/8
f 9/33/9 13/34/9 16/35/9
f 9/33/9 16/35/9 10/36/9
f 12/37/10 11/38/10 15/39/10
f 12/37/10 15/39/10 14/40/10
f 9/41/11 12/42/11 14/43/11
f 9/41/11 14/43/11 13/44/11
f 10/45/12 16/46/12 15/47/12
f 10/45/12 15/47/12 11/48/12
f 17/49/13 18/50/13 19/51/13
f 17/49/13 19/51/13 20/52/13
f 21/53/14 22/54/14 23/55/14
f 21/53/14 23/55/14 24/56/14
f 17/57/15 21/58/15 24/59/15
f 17/57/15 24/59/15 18/60/15
f 20/61/16 19/62/16 23/63/16
f 20/61/16 23/63/16 22/64/16
f 17/65/17 20/66/17 22/67/17
f 17/65/17 22/67/17 21/68/17
f 18/69/18 24/70/18 23/71/18
f 18/69/18 23/71/18 19/72/18
f 25/73/19 26/74/19 27/75/19
f 25/73/19 27/75/19 28/76/19
f 29/77/20 30/78/20 31/79/20
f 29/77/20 31/79/20 32/80/20
f 25/81/21 29/82/21 32/83/21
f 25/81/21 32/83/21 26/84/21
f 28/85/22 27/86/22 31/87/22
f 28/85/22 31/87/22 30/88/22
f 25/89/23 28/90/23 30/91/23
f 25/89/23 30/91/23 29/92/23
f 26/93/24 32/94/24 31/95/24
f 26/93/24 31/95/24 27/96/24
f 33/97/25 34/98/25 35/99/25
f 33/97/25 35/99/25 36/100/25
f 37/101/26 38/102/26 39/103/26
f 37/101/26 39/103/26 40/104/26
f 33/105/27 37/106/27 40/107/27
f 33/105/27 40/107/27 34/108/27
f 36/109/28 35/110/28 39/111/28
f 36/109/28 39/111/28 38/112/28
f 33/113/29 36/114/29 38/115/29
f 33/113/29 38/115/29 37/116/29
f 34/117/30 40/118/30 39/119/30
f 34/117/30 39/119/30 35/120/30
f 41/121/31 42/122/31 43/123/31
f 41/121/31 43/123/31 44/124/31
f 45/125/32 46/126/32 47/127/32
f 45/125/32 47/127/32 48/128/32
f 41/129/33 45/130/33 48/131/33
f 41/129/33 48/131/33 42/132/33
f 44/133/34 43/134/34 47/135/34
f 44/133/34 47/135/34 46/136/34
f 41/137/35 44/138/35 46/139/35
f 41/137/35 46/139/35 45/140/35
f 42/141/36 48/142/36 47/143/36
f 42/141/36 47/143/36 43/144/36
f 49/145/37 50/146/37 51/147/37
f 49/145/37 51/147/37 52/148/37
f 53/149/38 54/150/38 55/151/38
f 53/149/38 55/151/38 56/152/38
f 49/153/39 53/154/39 56/155/39
f 49/153/39 56/155/39 50/156/39
f 52/157/40 51/158/40 55/159/40
f 52/157/40 55/159/40 54/160/40
f 49/161/41 52/162/41 54/163/41
f 49/161/41 54/163/41 53/164/41
f 50/165/42 56/166/42 55/167/42
f 50/165/42 55/167/42 51/168/42
f 57/169/43 58/170/43 59/171/43
f 57/169/43 59/171/43 60/172/43
f 61/173/44 62/174/44 63/175/44
f 61/173/44 63/175/44 64/176/44
f 57/177/45 61/178/45 64/179/45
f 57/177/45 64/179/45 58/180/45
f 60/181/46 59/182/46 63/183/46
f 60/181/46 63/183/46 62/184/46
f 57/185/47 60/186/47 62/187/47
f 57/185/47 62/187/47 61/188/47
f 58/189/48 64/190/48 63/191/48
f 58/189/48 63/191/48 59/192/48
f 65/193/49 66/194/49 67/195/49
f 65/193/49 67/195/49 68/196/49
f 69/197/50 70/198/50 71/199/50
f 69/197/50 71/199/50 72/200/50
f 73/201/51 74/202/51 75/203/51
f 73/201/51 75/203/51 76/204/51
f 69/205/52 73/206/52 76/207/52
f 69/205/52 76/207/52 70/208/52
f 72/209/53 71/210/53 75/211/53
f 72/209/53 75/211/53 74/212/53
f 69/213/54 72/214/54 74/215/54
f 69/213/54 74/215/54 73/216/54
f 70/217/55 76/218/55 75/219/55
f 70/217/55 75/219/55 71/220/55
f 77/221/56 78/222/56 79/223/56
f 77/221/56 79/223/56 80/224/56
f 78/225/57 81/226/57 82/227/57
f 78/225/57 82/227/57 79/228/57
f 81/229/58 83/230/58 84/231/58
f 81/229/58 84/231/58 82/232/58
f 83/233/59 85/234/59 86/235/59
f 83/233/59 86/235/59 84/236/59
f 85/237/60 87/238/60 88/239/60
f 85/237/60 88/239/60 86/240/60
f 87/241/61 89/242/61 90/243/61
f 87/241/61 90/243/61 88/244/61
f 89/245/62 91/246/62 92/247/62
f 89/245/62 92/247/62 90/248/62
f 91/249/63 77/250/63 80/251/63
f 91/249/63 80/251/63 92/252/63
f 93/253/64 78/254/64 77/255/64
f 93/256/65 81/257/65 78/258/65
f 93/259/66 83/260/66 81/261/66
f 93/262/67 85/263/67 83/264/67
f 93/265/68 87/266/68 85/267/68
f 93/268/69 89/269/69 87/270/69
f 93/271/70 91/272/70 89/273/70
f 93/274/71 77/275/71 91/276/71
f 94/277/72 80/278/72 79/279/72
f 94/280/73 79/281/73 82/282/73
f 94/283/74 82/284/74 84/285/74
f 94/286/75 84/287/75 86/288/75
f 94/289/76 86/290/76 88/291/76
f 94/292/77 88/293/77 90/294/77
f 94/295/78 90/296/78 92/297/78
f 94/298/79 92/299/79 80/300/79
f 95/301/80 96/302/80 97/303/80
f 95/301/80 97/303/80 98/304/80
f 96/305/81 99/306/81 100/307/81
f 96/305/81 100/307/81 97/308/81
f 99/309/82 101/310/82 102/311/82
f 99/309/82 102/311/82 100/312/82
f 101/313/83 103/314/83 104/315/83
f 101/313/83 104/315/83 102/316/83
f 103/317/84 105/318/84 106/319/84
f 103/317/84 106/319/84 104/320/84
f 105/321/85 107/322/85 108/323/85
f 105/321/85 108/323/85 106/324/85
f 107/325/86 109/326/86 110/327/86
f 107/325/86 110/327/86 108/328/86
f 109/329/87 95/330/87 98/331/87
f 109/329/87 98/331/87 110/332/87
f 111/333/88 96/334/88 95/335/88
f 111/336/89 99/337/89 96/338/89
f 111/339/90 101/340/90 99/341/90
f 111/342/91 103/343/91 101/344/91
f 111/345/92 105/346/92 103/347/92
f 111/348/93 107/349/93 105/350/93
f 111/351/94 109/352/94 107/353/94
f 111/354/95 95/355/95 109/356/95
f 112/357/96 98/358/96 97/359/96
f 112/360/97 97/361/97 100/362/97
f 112/363/98 100/364/98 102/365/98
f 112/366/99 102/367/99 104/368/99
f 112/369/100 104/370/100 106/371/100
f 112/372/101 106/373/101 108/374/101
f 112/375/102 108/376/102 110/377/102
f 112/378/103 110/379/103 98/380/103
f 113/381/104 114/382/104 115/383/104
f 113/381/104 115/383/104 116/384/104
f 117/385/105 118/386/105 119/387/105
f 117/385/105 119/387/105 120/388/105
f 113/389/106 117/390/106 120/391/106
f 113/389/106 120/391/106 114/392/106
f 116/393/107 115/394/107 119/395/107
f 116/393/107 119/395/107 118/396/107
f 113/397/108 116/398/108 118/399/108
f 113/397/108 118/399/108 117/400/108
f 114/401/109 120/402/109 119/403/109
f 114/401/109 119/403/109 115/404/109
f 121/405/110 122/406/110 123/407/110
f 121/405/110 123/407/110 124/408/110
f 125/409/111 126/410/111 127/411/111
f 125/409/111 127/411/111 128/412/111
f 129/413/112 130/414/112 131/415/112
f 129/413/112 131/415/112 132/416/112
f 125/417/113 129/418/113 132/419/113
f 125/417/113 132/419/113 126/420/113
f 128/421/114 127/422/114 131/423/114
f 128/421/114 131/423/114 130/424/114
f 125/425/115 128/426/115 130/427/115
f 125/425/115 130/427/115 129/428/115
f 126/429/116 132/430/116 131/431/116
f 126/429/116 131/431/116 127/432/116
f 133/433/117 134/434/117 135/435/117
f 133/433/117 135/435/117 136/436/117
f 134/437/118 137/438/118 138/439/118
f 134/437/118 138/439/118 135/440/118
f 137/441/119 139/442/119 140/443/119
f 137/441/119 140/443/119 138/444/119
f 139/445/120 141/446/120 142/447/120
f 139/445/120 142/447/120 140/448/120
f 141/449/121 143/450/121 144/451/121
f 141/449/121 144/451/121 142/452/121
f 143/453/122 145/454/122 146/455/122
f 143/453/122 146/455/122 144/456/122
f 145/457/123 147/458/123 148/459/123
f 145/457/123 148/459/123 146/460/123
f 147/461/124 133/462/124 136/463/124
f 147/461/124 136/463/124 148/464/124
f 149/465/125 134/466/125 133/467/125
f 149/468/126 137/469/126 134/470/126
f 149/471/127 139/472/127 137/473/127
f 149/474/128 141/475/128 139/476/128
f 149/477/129 143/478/129 141/479/129
f 149/480/130 145/481/130 143/482/130
f 149/483/131 147/484/131 145/485/131
f 149/486/132 133/487/132 147/488/132
f 150/489/133 136/490/133 135/491/133
f 150/492/134 135/493/134 138/494/134
f 150/495/135 138/496/135 140/497/135
f 150/498/136 140/499/136 142/500/136
f 150/501/137 142/502/137 144/503/137
f 150/504/138 144/505/138 146/506/138
f 150/507/139 146/508/139 148/509/139
f 150/510/140 148/511/140 136/512/140
f 151/513/141 152/514/141 153/515/141
f 151/513/141 153/515/141 154/516/141
f 152/517/142 155/518/142 156/519/142
f 152/517/142 156/519/142 153/520/142
f 155/521/143 157/522/143 158/523/143
f 155/521/143 158/523/143 156/524/143
f 157/525/144 159/526/144 160/527/144
f 157/525/144 160/527/144 158/528/144
f 159/529/145 161/530/145 162/531/145
f 159/529/145 162/531/145 160/532/145
f 161/533/146 163/534/146 164/535/146
f 161/533/146 164/535/146 162/536/146
f 163/537/147 165/538/147 166/539/147
f 163/537/147 166/539/147 164/540/147
f 165/541/148 151/542/148 154/543/148
f 165/541/148 154/543/148 166/544/148
f 167/545/149 152/546/149 151/547/149
f 167/548/150 155/549/150 152/550/150
f 167/551/151 157/552/151 155/553/151
f 167/554/152 159/555/152 157/556/152
f 167/557/153 161/558/153 159/559/153
f 167/560/154 163/561/154 161/562/154
f 167/563/155 165/564/155 163/565/155
f 167/566/156 151/567/156 165/568/156
f 168/569/157 154/570/157 153/571/157
f 168/572/158 153/573/158 156/574/158
f 168/575/159 156/576/159 158/577/159
f 168/578/160 158/579/160 160/580/160
f 168/581/161 160/582/161 162/583/161
f 168/584/162 162/585/162 164/586/162
f 168/587/163 164/588/163 166/589/163
f 168/590/164 166/591/164 154/592/164
f 169/593/165 170/594/165 171/595/165
f 169/593/165 171/595/165 172/596/165
f 173/597/166 174/598/166 175/599/166
f 173/597/166 175/599/166 176/600/166
f 169/601/167 173/602/167 176/603/167
f 169/601/167 176/603/167 170/604/167
f 172/605/168 171/606/168 175/607/168
f 172/605/168 175/607/168 174/608/168
f 169/609/169 172/610/169 174/611/169
f 169/609/169 174/611/169 173/612/169
f 170/613/170 176/614/170 175/615/170
f 170/613/170 175/615/170 171/616/170
f 177/617/171 178/618/171 179/619/171
f 177/617/171 179/619/171 180/620/171
f 181/621/172 182/622/172 183/623/172
f 181/621/172 183/623/172 184/624/172
f 185/625/173 186/626/173 187/627/173
f 185/625/173 187/627/173 188/628/173
f 181/629/174 185/630/174 188/631/174
f 181/629/174 188/631/174 182/632/174
f 184/633/175 183/634/175 187/635/175
f 184/633/175 187/635/175 186/636/175
f 181/637/176 184/638/176 186/639/176
f 181/637/176 186/639/176 185/640/176
f 182/641/177 188/642/177 187/643/177
f 182/641/177 187/643/177 183/644/177
f 189/645/178 190/646/178 191/647/178
f 189/645/178 191/647/178 192/648/178
f 190/649/179 193/650/179 194/651/179
f 190/649/179 194/651/179 191/652/179
f 193/653/180 195/654/180 196/655/180
f 193/653/180 196/655/180 194/656/180
f 195/657/181 197/658/181 198/659/181
f 195/657/181 198/659/181 196/660/181
f 197/661/182 199/662/182 200/663/182
f 197/661/182 200/663/182 198/664/182
f 199/665/183 201/666/183 202/667/183
f 199/665/183 202/667/183 200/668/183
f 201/669/184 203/670/184 204/671/184
f 201/669/184 204/671/184 202/672/184
f 203/673/185 189/674/185 192/675/185
f 203/673/185 192/675/185 204/676/185
f 205/677/186 190/678/186 189/679/186
f 205/680/187 193/681/187 190/682/187
f 205/683/188 195/684/188 193/685/188
f 205/686/189 197/687/189 195/688/189
f 205/689/190 199/690/190 197/691/190
f 205/692/191 201/693/191 199/694/191
f 205/695/192 203/696/192 201/697/192
f 205/698/193 189/699/193 203/700/193
f 206/701/194 192/702/194 191/703/194
f 206/704/195 191/705/195 194/706/195
f 206/707/196 194/708/196 196/709/196
f 206/710/197 196/711/197 198/712/197
f 206/713/198 198/714/198 200/715/198
f 206/716/199 200/717/199 202/718/199
f 206/719/200 202/720/200 204/721/200
f 206/722/201 204/723/201 192/724/201
f 207/725/202 208/726/202 209/727/202
f 207/725/202 209/727/202 210/728/202
f 208/729/203 211/730/203 212/731/203
f 208/729/203 212/731/203 209/732/203
f 211/733/204 213/734/204 214/735/204
f 211/733/204 214/735/204 212/736/204
f 213/737/205 215/738/205 216/739/205
f 213/737/205 216/739/205 214/740/205
f 215/741/206 217/742/206 218/743/206
f 215/741/206 218/743/206 216/744/206
f 217/745/207 219/746/207 220/747/207
f 217/745/207 220/747/207 218/748/207
f 219/749/208 221/750/208 222/751/208
f 219/749/208 222/751/208 220/752/208
f 221/753/209 207/754/209 210/755/209
f 221/753/209 210/755/209 222/756/209
f 223/757/210 208/758/210 207/759/210
f 223/760/211 211/761/211 208/762/211
f 223/763/212 213/764/212 211/765/212
f 223/766/213 215/767/213 213/768/213
f 223/769/214 217/770/214 215/771/214
f 223/772/215 219/773/215 217/774/215
f 223/775/216 221/776/216 219/777/216
f 223/778/217 207/779/217 221/780/217
f 224/781/218 210/782/218 209/783/218
f 224/784/219 209/785/219 212/786/219
f 224/787/220 212/788/220 214/789/220
f 224/790/221 214/791/221 216/792/221
f 224/793/222 216/794/222 218/795/222
f 224/796/223 218/797/223 220/798/223
f 224/799/224 220/800/224 222/801/224
f 224/802/225 222/803/225 210/804/225
f 225/805/226 226/806/226 227/807/226
f 225/805/226 227/807/226 228/808/226
f 229/809/227 230/810/227 231/811/227
f 229/809/227 231/811/227 232/812/227
f 225/813/228 229/814/228 232/815/228
f 225/813/228 232/815/228 226/816/228
f 228/817/229 227/818/229 231/819/229
f 228/817/229 231/819/229 230/820/229
f 225/821/230 228/822/230 230/823/230
f 225/821/230 230/823/230 229/824/230
f 226/825/231 232/826/231 231/827/231
f 226/825/231 231/827/231 227/828/231
f 233/829/232 234/830/232 235/831/232
f 233/829/232 235/831/232 236/832/232
f 237/833/233 238/834/233 239/835/233
f 237/833/233 239/835/233 240/836/233
f 233/837/234 237/838/234 240/839/234
f 233/837/234 240/839/234 234/840/234
f 236/841/235 235/842/235 239/843/235
f 236/841/235 239/843/235 238/844/235
f 233/845/236 236/846/236 238/847/236
f 233/845/236 238/847/236 237/848/236
f 234/849/237 240/850/237 239/851/237
f 234/849/237 239/851/237 235/852/237
f 241/853/238 242/854/238 243/855/238
f 241/853/238 243/855/238 244/856/238
f 242/857/239 245/858/239 246/859/239
f 242/857/239 246/859/239 243/860/239
f 245/861/240 247/862/240 248/863/240
f 245/861/240 248/863/240 246/864/240
f 247/865/241 249/866/241 250/867/241
f 247/865/241 250/867/241 248/868/241
f 249/869/242 251/870/242 252/871/242
f 249/869/242 252/871/242 250/872/242
f 251/873/243 253/874/243 254/875/243
f 251/873/243 254/875/243 252/876/243
f 253/877/244 255/878/244 256/879/244
f 253/877/244 256/879/244 254/880/244
f 255/881/245 241/882/245 244/883/245
f 255/881/245 244/883/245 256/884/245
f 257/885/246 242/886/246 241/887/246
f 257/888/247 245/889/247 242/890/247
f 257/891/248 247/892/248 245/893/248
f 257/894/249 249/895/249 247/896/249
f 257/897/250 251/898/250 249/899/250
f 257/900/251 253/901/251 251/902/251
f 257/903/252 255/904/252 253/905/252
f 257/906/253 241/907/253 255/908/253
f 258/909/254 244/910/254 243/911/254
f 258/912/255 243/913/255 246/914/255
f 258/915/256 246/916/256 248/917/256
f 258/918/257 248/919/257 250/920/257
f 258/921/258 250/922/258 252/923/258
f 258/924/259 252/925/259 254/926/259
f 258/927/260 254/928/260 256/929/260
f 258/930/261 256/931/261 244/932/261
f 244/933/262 259/934/262 260/935/262
f 244/933/262 260/935/262 261/936/262
f 259/937/263 262/938/263 263/939/263
f 259/937/263 263/939/263 260/940/263
f 262/941/264 264/942/264 265/943/264
f 262/941/264 265/943/264 263/944/264
f 264/945/265 250/946/265 266/947/265
f 264/945/265 266/947/265 265/948/265
f 250/949/266 267/950/266 268/951/266
f 250/949/266 268/951/266 266/952/266
f 267/953/267 269/954/267 270/955/267
f 267/953/267 270/955/267 268/956/267
f 269/957/268 271/958/268 272/959/268
f 269/957/268 272/959/268 270/960/268
f 271/961/269 244/962/269 261/963/269
f 271/961/269 261/963/269 272/964/269
f 258/965/270 259/966/270 244/967/270
f 258/968/271 262/969/271 259/970/271
f 258/971/272 264/972/272 262/973/272
f 258/974/273 250/975/273 264/976/273
f 258/977/274 267/978/274 250/979/274
f 258/980/275 269/981/275 267/982/275
f 258/983/276 271/984/276 269/985/276
f 258/986/277 244/987/277 271/988/277
f 273/989/278 261/990/278 260/991/278
f 273/992/279 260/993/279 263/994/279
f 273/995/280 263/996/280 265/997/280
f 273/998/281 265/999/281 266/1000/281
f 273/1001/282 266/1002/282 268/1003/282
f 273/1004/283 268/1005/283 270/1006/283
f 273/1007/284 270/1008/284 272/1009/284
f 273/1010/285 272/1011/285 261/1012/285
