mtllib TorusDistrict_Terrace01.mtl
o TorusDistrict_Terrace01
usemtl TorusDistrictLandscape
v -0.085016334 0.015016465 -2.000000000
v -0.085016334 0.015016465 2.000000000
v 0.085016334 0.015016465 2.000000000
v 0.085016334 0.015016465 -2.000000000
v -0.085022144 0.000016466 2.000000000
v -0.085022144 0.000016466 -2.000000000
v 0.085022144 0.000016466 -2.000000000
v 0.085022144 0.000016466 2.000000000
v -0.085022144 0.000016466 -2.000000000
v -0.085016334 0.015016465 -2.000000000
v 0.085016334 0.015016465 -2.000000000
v 0.085022144 0.000016466 -2.000000000
v -0.085016334 0.015016465 2.000000000
v -0.085022144 0.000016466 2.000000000
v 0.085022144 0.000016466 2.000000000
v 0.085016334 0.015016465 2.000000000
v -0.085022144 0.000016466 2.000000000
v -0.085016334 0.015016465 2.000000000
v -0.085016334 0.015016465 -2.000000000
v -0.085022144 0.000016466 -2.000000000
v 0.085022144 0.000016466 -2.000000000
v 0.085016334 0.015016465 -2.000000000
v 0.085016334 0.015016465 2.000000000
v 0.085022144 0.000016466 2.000000000
vt 0.010000000 0.760000000
vt 0.240000000 0.760000000
vt 0.240000000 0.990000000
vt 0.010000000 0.990000000
vt 0.760000000 0.510000000
vt 0.990000000 0.510000000
vt 0.990000000 0.740000000
vt 0.760000000 0.740000000
vt 0.760000000 0.510000000
vt 0.990000000 0.510000000
vt 0.990000000 0.740000000
vt 0.760000000 0.740000000
vt 0.760000000 0.510000000
vt 0.990000000 0.510000000
vt 0.990000000 0.740000000
vt 0.760000000 0.740000000
vt 0.760000000 0.510000000
vt 0.990000000 0.510000000
vt 0.990000000 0.740000000
vt 0.760000000 0.740000000
vt 0.760000000 0.510000000
vt 0.990000000 0.510000000
vt 0.990000000 0.740000000
vt 0.760000000 0.740000000
vn 0.000387345 0.999999925 0.000000000
vn 0.000387345 0.999999925 0.000000000
vn -0.000387345 0.999999925 0.000000000
vn -0.000387345 0.999999925 0.000000000
vn -0.000387345 -0.999999925 0.000000000
vn -0.000387345 -0.999999925 0.000000000
vn 0.000387345 -0.999999925 0.000000000
vn 0.000387345 -0.999999925 0.000000000
vn 0.000000000 0.000000000 -1.000000000
vn 0.000000000 0.000000000 -1.000000000
vn 0.000000000 0.000000000 -1.000000000
vn 0.000000000 0.000000000 -1.000000000
vn 0.000000000 0.000000000 1.000000000
vn 0.000000000 0.000000000 1.000000000
vn 0.000000000 0.000000000 1.000000000
vn 0.000000000 0.000000000 1.000000000
vn -0.999999925 0.000387345 0.000000000
vn -0.999999925 0.000387345 0.000000000
vn -0.999999925 0.000387345 0.000000000
vn -0.999999925 0.000387345 0.000000000
vn 0.999999925 0.000387345 0.000000000
vn 0.999999925 0.000387345 0.000000000
vn 0.999999925 0.000387345 0.000000000
vn 0.999999925 0.000387345 0.000000000
f 1/1/1 2/2/2 3/3/3
f 1/1/1 3/3/3 4/4/4
f 5/5/5 6/6/6 7/7/7
f 5/5/5 7/7/7 8/8/8
f 9/9/9 10/10/10 11/11/11
f 9/9/9 11/11/11 12/12/12
f 13/13/13 14/14/14 15/15/15
f 13/13/13 15/15/15 16/16/16
f 17/17/17 18/18/18 19/19/19
f 17/17/17 19/19/19 20/20/20
f 21/21/21 22/22/22 23/23/23
f 21/21/21 23/23/23 24/24/24
