mtllib TorusSettlementFarm_A09.mtl
v -4.0997664 0.0407509 2.3750000
v -2.0499845 0.0101880 2.3750000
v -2.0499845 0.0101880 -2.3750000
v -4.0997664 0.0407509 -2.3750000
v -2.0499845 0.0101880 2.3750000
v 0.0000000 0.0000000 2.3750000
v 0.0000000 0.0000000 -2.3750000
v -2.0499845 0.0101880 -2.3750000
v 0.0000000 0.0000000 2.3750000
v 2.0499845 0.0101880 2.3750000
v 2.0499845 0.0101880 -2.3750000
v 0.0000000 0.0000000 -2.3750000
v 2.0499845 0.0101880 2.3750000
v 4.0997664 0.0407509 2.3750000
v 4.0997664 0.0407509 -2.3750000
v 2.0499845 0.0101880 -2.3750000
v -4.0995179 0.0532484 -2.0250000
v -2.0498602 0.0226874 -2.0250000
v -2.0498602 0.0226874 -2.3750000
v -4.0995179 0.0532484 -2.3750000
v -2.0498602 0.0226874 -2.0250000
v 0.0000000 0.0125000 -2.0250000
v 0.0000000 0.0125000 -2.3750000
v -2.0498602 0.0226874 -2.3750000
v 0.0000000 0.0125000 -2.0250000
v 2.0498602 0.0226874 -2.0250000
v 2.0498602 0.0226874 -2.3750000
v 0.0000000 0.0125000 -2.3750000
v 2.0498602 0.0226874 -2.0250000
v 4.0995179 0.0532484 -2.0250000
v 4.0995179 0.0532484 -2.3750000
v 2.0498602 0.0226874 -2.3750000
v -4.0995179 0.0532484 2.3750000
v -2.0498602 0.0226874 2.3750000
v -2.0498602 0.0226874 2.0250000
v -4.0995179 0.0532484 2.0250000
v -2.0498602 0.0226874 2.3750000
v 0.0000000 0.0125000 2.3750000
v 0.0000000 0.0125000 2.0250000
v -2.0498602 0.0226874 2.0250000
v 0.0000000 0.0125000 2.3750000
v 2.0498602 0.0226874 2.3750000
v 2.0498602 0.0226874 2.0250000
v 0.0000000 0.0125000 2.0250000
v 2.0498602 0.0226874 2.3750000
v 4.0995179 0.0532484 2.3750000
v 4.0995179 0.0532484 2.0250000
v 2.0498602 0.0226874 2.0250000
v -0.2999817 0.0127182 2.3750000
v 0.2999817 0.0127182 2.3750000
v 0.2999817 0.0127182 -2.3750000
v -0.2999817 0.0127182 -2.3750000
v -3.7492389 0.0665853 -0.8375000
v -2.0496614 0.0426864 -0.8375000
v -2.0496614 0.0426864 -2.0250000
v -3.7492389 0.0665853 -2.0250000
v -2.0496614 0.0426864 -0.8375000
v -0.3499447 0.0327969 -0.8375000
v -0.3499447 0.0327969 -2.0250000
v -2.0496614 0.0426864 -2.0250000
v -3.7486935 0.0965803 -0.7875000
v -2.0493632 0.0726849 -0.7875000
v -2.0493632 0.0726849 -0.8375000
v -3.7486935 0.0965803 -0.8375000
v -2.0493632 0.0726849 -0.7875000
v -0.3498938 0.0627969 -0.7875000
v -0.3498938 0.0627969 -0.8375000
v -2.0493632 0.0726849 -0.8375000
v -3.7471027 0.1840658 -1.4437500
v -2.0484936 0.1601806 -1.4437500
v -2.0491148 0.0976837 -1.9750000
v -3.7482390 0.1215762 -1.9750000
v -3.7482390 0.1215762 -0.9125000
v -2.0491148 0.0976837 -0.9125000
v -2.0484936 0.1601806 -1.4437500
v -3.7471027 0.1840658 -1.4437500
v -2.0484936 0.1601806 -1.4437500
v -0.3497453 0.1502968 -1.4437500
v -0.3498513 0.0877968 -1.9750000
v -2.0491148 0.0976837 -1.9750000
v -2.0491148 0.0976837 -0.9125000
v -0.3498513 0.0877968 -0.9125000
v -0.3497453 0.1502968 -1.4437500
v -2.0484936 0.1601806 -1.4437500
v 0.3499447 0.0327969 -0.8375000
v 2.0496614 0.0426864 -0.8375000
v 2.0496614 0.0426864 -2.0250000
v 0.3499447 0.0327969 -2.0250000
v 2.0496614 0.0426864 -0.8375000
v 3.7492389 0.0665853 -0.8375000
v 3.7492389 0.0665853 -2.0250000
v 2.0496614 0.0426864 -2.0250000
v 0.3498938 0.0627969 -0.7875000
v 2.0493632 0.0726849 -0.7875000
v 2.0493632 0.0726849 -0.8375000
v 0.3498938 0.0627969 -0.8375000
v 2.0493632 0.0726849 -0.7875000
v 3.7486935 0.0965803 -0.7875000
v 3.7486935 0.0965803 -0.8375000
v 2.0493632 0.0726849 -0.8375000
v 0.3497453 0.1502968 -1.4437500
v 2.0484936 0.1601806 -1.4437500
v 2.0491148 0.0976837 -1.9750000
v 0.3498513 0.0877968 -1.9750000
v 0.3498513 0.0877968 -0.9125000
v 2.0491148 0.0976837 -0.9125000
v 2.0484936 0.1601806 -1.4437500
v 0.3497453 0.1502968 -1.4437500
v 2.0484936 0.1601806 -1.4437500
v 3.7471027 0.1840658 -1.4437500
v 3.7482390 0.1215762 -1.9750000
v 2.0491148 0.0976837 -1.9750000
v 2.0491148 0.0976837 -0.9125000
v 3.7482390 0.1215762 -0.9125000
v 3.7471027 0.1840658 -1.4437500
v 2.0484936 0.1601806 -1.4437500
v -3.7492389 0.0665853 0.5125000
v -2.0496614 0.0426864 0.5125000
v -2.0496614 0.0426864 -0.6750000
v -3.7492389 0.0665853 -0.6750000
v -2.0496614 0.0426864 0.5125000
v -0.3499447 0.0327969 0.5125000
v -0.3499447 0.0327969 -0.6750000
v -2.0496614 0.0426864 -0.6750000
v -3.7486935 0.0965803 0.5625000
v -2.0493632 0.0726849 0.5625000
v -2.0493632 0.0726849 0.5125000
v -3.7486935 0.0965803 0.5125000
v -2.0493632 0.0726849 0.5625000
v -0.3498938 0.0627969 0.5625000
v -0.3498938 0.0627969 0.5125000
v -2.0493632 0.0726849 0.5125000
v -3.7471027 0.1840658 -0.0937500
v -2.0484936 0.1601806 -0.0937500
v -2.0491148 0.0976837 -0.6250000
v -3.7482390 0.1215762 -0.6250000
v -3.7482390 0.1215762 0.4375000
v -2.0491148 0.0976837 0.4375000
v -2.0484936 0.1601806 -0.0937500
v -3.7471027 0.1840658 -0.0937500
v -2.0484936 0.1601806 -0.0937500
v -0.3497453 0.1502968 -0.0937500
v -0.3498513 0.0877968 -0.6250000
v -2.0491148 0.0976837 -0.6250000
v -2.0491148 0.0976837 0.4375000
v -0.3498513 0.0877968 0.4375000
v -0.3497453 0.1502968 -0.0937500
v -2.0484936 0.1601806 -0.0937500
v 0.3499447 0.0327969 0.5125000
v 2.0496614 0.0426864 0.5125000
v 2.0496614 0.0426864 -0.6750000
v 0.3499447 0.0327969 -0.6750000
v 2.0496614 0.0426864 0.5125000
v 3.7492389 0.0665853 0.5125000
v 3.7492389 0.0665853 -0.6750000
v 2.0496614 0.0426864 -0.6750000
v 0.3498938 0.0627969 0.5625000
v 2.0493632 0.0726849 0.5625000
v 2.0493632 0.0726849 0.5125000
v 0.3498938 0.0627969 0.5125000
v 2.0493632 0.0726849 0.5625000
v 3.7486935 0.0965803 0.5625000
v 3.7486935 0.0965803 0.5125000
v 2.0493632 0.0726849 0.5125000
v 0.3497453 0.1502968 -0.0937500
v 2.0484936 0.1601806 -0.0937500
v 2.0491148 0.0976837 -0.6250000
v 0.3498513 0.0877968 -0.6250000
v 0.3498513 0.0877968 0.4375000
v 2.0491148 0.0976837 0.4375000
v 2.0484936 0.1601806 -0.0937500
v 0.3497453 0.1502968 -0.0937500
v 2.0484936 0.1601806 -0.0937500
v 3.7471027 0.1840658 -0.0937500
v 3.7482390 0.1215762 -0.6250000
v 2.0491148 0.0976837 -0.6250000
v 2.0491148 0.0976837 0.4375000
v 3.7482390 0.1215762 0.4375000
v 3.7471027 0.1840658 -0.0937500
v 2.0484936 0.1601806 -0.0937500
v -3.7492389 0.0665853 1.8625000
v -2.0496614 0.0426864 1.8625000
v -2.0496614 0.0426864 0.6750000
v -3.7492389 0.0665853 0.6750000
v -2.0496614 0.0426864 1.8625000
v -0.3499447 0.0327969 1.8625000
v -0.3499447 0.0327969 0.6750000
v -2.0496614 0.0426864 0.6750000
v -3.7486935 0.0965803 1.9125000
v -2.0493632 0.0726849 1.9125000
v -2.0493632 0.0726849 1.8625000
v -3.7486935 0.0965803 1.8625000
v -2.0493632 0.0726849 1.9125000
v -0.3498938 0.0627969 1.9125000
v -0.3498938 0.0627969 1.8625000
v -2.0493632 0.0726849 1.8625000
v -3.7471027 0.1840658 1.2562500
v -2.0484936 0.1601806 1.2562500
v -2.0491148 0.0976837 0.7250000
v -3.7482390 0.1215762 0.7250000
v -3.7482390 0.1215762 1.7875000
v -2.0491148 0.0976837 1.7875000
v -2.0484936 0.1601806 1.2562500
v -3.7471027 0.1840658 1.2562500
v -2.0484936 0.1601806 1.2562500
v -0.3497453 0.1502968 1.2562500
v -0.3498513 0.0877968 0.7250000
v -2.0491148 0.0976837 0.7250000
v -2.0491148 0.0976837 1.7875000
v -0.3498513 0.0877968 1.7875000
v -0.3497453 0.1502968 1.2562500
v -2.0484936 0.1601806 1.2562500
v 0.3499447 0.0327969 1.8625000
v 2.0496614 0.0426864 1.8625000
v 2.0496614 0.0426864 0.6750000
v 0.3499447 0.0327969 0.6750000
v 2.0496614 0.0426864 1.8625000
v 3.7492389 0.0665853 1.8625000
v 3.7492389 0.0665853 0.6750000
v 2.0496614 0.0426864 0.6750000
v 0.3498938 0.0627969 1.9125000
v 2.0493632 0.0726849 1.9125000
v 2.0493632 0.0726849 1.8625000
v 0.3498938 0.0627969 1.8625000
v 2.0493632 0.0726849 1.9125000
v 3.7486935 0.0965803 1.9125000
v 3.7486935 0.0965803 1.8625000
v 2.0493632 0.0726849 1.8625000
v 0.3497453 0.1502968 1.2562500
v 2.0484936 0.1601806 1.2562500
v 2.0491148 0.0976837 0.7250000
v 0.3498513 0.0877968 0.7250000
v 0.3498513 0.0877968 1.7875000
v 2.0491148 0.0976837 1.7875000
v 2.0484936 0.1601806 1.2562500
v 0.3497453 0.1502968 1.2562500
v 2.0484936 0.1601806 1.2562500
v 3.7471027 0.1840658 1.2562500
v 3.7482390 0.1215762 0.7250000
v 2.0491148 0.0976837 0.7250000
v 2.0491148 0.0976837 1.7875000
v 3.7482390 0.1215762 1.7875000
v 3.7471027 0.1840658 1.2562500
v 2.0484936 0.1601806 1.2562500
vt 0.005000 0.995000
vt 0.245000 0.995000
vt 0.245000 0.755000
vt 0.255000 0.995000
vt 0.495000 0.995000
vt 0.495000 0.755000
vt 0.505000 0.995000
vt 0.745000 0.995000
vt 0.745000 0.755000
vt 0.755000 0.995000
vt 0.995000 0.995000
vt 0.995000 0.755000
vt 0.005000 0.745000
vt 0.245000 0.745000
vt 0.245000 0.505000
vt 0.255000 0.745000
vt 0.495000 0.745000
vt 0.495000 0.505000
vt 0.505000 0.745000
vt 0.745000 0.745000
vt 0.745000 0.505000
vt 0.755000 0.745000
vt 0.995000 0.745000
vt 0.995000 0.505000
vt 0.005000 0.495000
vt 0.245000 0.495000
vt 0.245000 0.255000
vt 0.255000 0.495000
vt 0.495000 0.495000
vt 0.495000 0.255000
vt 0.505000 0.495000
vt 0.745000 0.495000
vt 0.745000 0.255000
vt 0.755000 0.495000
vt 0.995000 0.495000
vt 0.995000 0.255000
vt 0.005000 0.245000
vt 0.245000 0.245000
vt 0.245000 0.005000
vt 0.255000 0.245000
vt 0.495000 0.245000
vt 0.495000 0.005000
vt 0.505000 0.245000
vt 0.745000 0.245000
vt 0.745000 0.005000
vt 0.755000 0.245000
vt 0.995000 0.245000
vt 0.995000 0.005000
g ornament
usemtl farm-kit
f 69/22 70/23 71/24
f 69/22 71/23 72/24
f 73/22 74/23 75/24
f 73/22 75/23 76/24
f 77/22 78/23 79/24
f 77/22 79/23 80/24
f 81/22 82/23 83/24
f 81/22 83/23 84/24
f 101/22 102/23 103/24
f 101/22 103/23 104/24
f 105/22 106/23 107/24
f 105/22 107/23 108/24
f 109/22 110/23 111/24
f 109/22 111/23 112/24
f 113/22 114/23 115/24
f 113/22 115/23 116/24
f 133/22 134/23 135/24
f 133/22 135/23 136/24
f 137/22 138/23 139/24
f 137/22 139/23 140/24
f 141/22 142/23 143/24
f 141/22 143/23 144/24
f 145/22 146/23 147/24
f 145/22 147/23 148/24
f 165/22 166/23 167/24
f 165/22 167/23 168/24
f 169/22 170/23 171/24
f 169/22 171/23 172/24
f 173/22 174/23 175/24
f 173/22 175/23 176/24
f 177/22 178/23 179/24
f 177/22 179/23 180/24
f 197/22 198/23 199/24
f 197/22 199/23 200/24
f 201/22 202/23 203/24
f 201/22 203/23 204/24
f 205/22 206/23 207/24
f 205/22 207/23 208/24
f 209/22 210/23 211/24
f 209/22 211/23 212/24
f 229/22 230/23 231/24
f 229/22 231/23 232/24
f 233/22 234/23 235/24
f 233/22 235/23 236/24
f 237/22 238/23 239/24
f 237/22 239/23 240/24
f 241/22 242/23 243/24
f 241/22 243/23 244/24
g solid
usemtl farm-kit
f 61/28 62/29 63/30
f 61/28 63/29 64/30
f 65/28 66/29 67/30
f 65/28 67/29 68/30
f 93/28 94/29 95/30
f 93/28 95/29 96/30
f 97/28 98/29 99/30
f 97/28 99/29 100/30
f 125/28 126/29 127/30
f 125/28 127/29 128/30
f 129/28 130/29 131/30
f 129/28 131/29 132/30
f 157/28 158/29 159/30
f 157/28 159/29 160/30
f 161/28 162/29 163/30
f 161/28 163/29 164/30
f 189/28 190/29 191/30
f 189/28 191/29 192/30
f 193/28 194/29 195/30
f 193/28 195/29 196/30
f 221/28 222/29 223/30
f 221/28 223/29 224/30
f 225/28 226/29 227/30
f 225/28 227/29 228/30
g support
usemtl farm-kit
f 1/1 2/2 3/3
f 1/1 3/2 4/3
f 5/1 6/2 7/3
f 5/1 7/2 8/3
f 9/1 10/2 11/3
f 9/1 11/2 12/3
f 13/1 14/2 15/3
f 13/1 15/2 16/3
f 17/4 18/5 19/6
f 17/4 19/5 20/6
f 21/4 22/5 23/6
f 21/4 23/5 24/6
f 25/4 26/5 27/6
f 25/4 27/5 28/6
f 29/4 30/5 31/6
f 29/4 31/5 32/6
f 33/4 34/5 35/6
f 33/4 35/5 36/6
f 37/4 38/5 39/6
f 37/4 39/5 40/6
f 41/4 42/5 43/6
f 41/4 43/5 44/6
f 45/4 46/5 47/6
f 45/4 47/5 48/6
f 49/4 50/5 51/6
f 49/4 51/5 52/6
g water
usemtl farm-water
f 53/25 54/26 55/27
f 53/25 55/26 56/27
f 57/25 58/26 59/27
f 57/25 59/26 60/27
f 85/25 86/26 87/27
f 85/25 87/26 88/27
f 89/25 90/26 91/27
f 89/25 91/26 92/27
f 117/25 118/26 119/27
f 117/25 119/26 120/27
f 121/25 122/26 123/27
f 121/25 123/26 124/27
f 149/25 150/26 151/27
f 149/25 151/26 152/27
f 153/25 154/26 155/27
f 153/25 155/26 156/27
f 181/25 182/26 183/27
f 181/25 183/26 184/27
f 185/25 186/26 187/27
f 185/25 187/26 188/27
f 213/25 214/26 215/27
f 213/25 215/26 216/27
f 217/25 218/26 219/27
f 217/25 219/26 220/27
