mtllib TorusAgri_IrrigationA.mtl
o TorusAgri_IrrigationA
usemtl TorusAgricultureKit
s off
v -0.600000 0.000000 -0.375000
v 0.600000 0.000000 -0.375000
v 0.600000 0.032500 -0.375000
v -0.600000 0.032500 -0.375000
v -0.600000 0.000000 0.375000
v 0.600000 0.000000 0.375000
v 0.600000 0.032500 0.375000
v -0.600000 0.032500 0.375000
v -0.543750 0.033750 -0.075000
v -0.156250 0.033750 -0.075000
v -0.156250 0.121250 -0.075000
v -0.543750 0.121250 -0.075000
v -0.543750 0.033750 0.175000
v -0.156250 0.033750 0.175000
v -0.156250 0.121250 0.175000
v -0.543750 0.121250 0.175000
v -0.462500 0.182500 0.135000
v -0.462500 0.132538 0.118766
v -0.225000 0.132538 0.118766
v -0.225000 0.182500 0.135000
v -0.462500 0.182500 0.050000
v -0.225000 0.182500 0.050000
v -0.462500 0.101660 0.076266
v -0.225000 0.101660 0.076266
v -0.462500 0.101660 0.023734
v -0.225000 0.101660 0.023734
v -0.462500 0.132538 -0.018766
v -0.225000 0.132538 -0.018766
v -0.462500 0.182500 -0.035000
v -0.225000 0.182500 -0.035000
v -0.462500 0.232462 -0.018766
v -0.225000 0.232462 -0.018766
v -0.462500 0.263340 0.023734
v -0.225000 0.263340 0.023734
v -0.462500 0.263340 0.076266
v -0.225000 0.263340 0.076266
v -0.462500 0.232462 0.118766
v -0.225000 0.232462 0.118766
v -0.120000 0.120000 -0.137500
v -0.131459 0.120000 -0.172767
v -0.131459 0.465000 -0.172767
v -0.120000 0.465000 -0.137500
v -0.180000 0.120000 -0.137500
v -0.180000 0.465000 -0.137500
v -0.161459 0.120000 -0.194563
v -0.161459 0.465000 -0.194563
v -0.198541 0.120000 -0.194563
v -0.198541 0.465000 -0.194563
v -0.228541 0.120000 -0.172767
v -0.228541 0.465000 -0.172767
v -0.240000 0.120000 -0.137500
v -0.240000 0.465000 -0.137500
v -0.228541 0.120000 -0.102233
v -0.228541 0.465000 -0.102233
v -0.198541 0.120000 -0.080437
v -0.198541 0.465000 -0.080437
v -0.161459 0.120000 -0.080437
v -0.161459 0.465000 -0.080437
v -0.131459 0.120000 -0.102233
v -0.131459 0.465000 -0.102233
v -0.110000 0.465000 -0.137500
v -0.123369 0.465000 -0.178645
v -0.123369 0.487500 -0.178645
v -0.110000 0.487500 -0.137500
v -0.180000 0.487500 -0.137500
v -0.158369 0.465000 -0.204074
v -0.158369 0.487500 -0.204074
v -0.201631 0.465000 -0.204074
v -0.201631 0.487500 -0.204074
v -0.236631 0.465000 -0.178645
v -0.236631 0.487500 -0.178645
v -0.250000 0.465000 -0.137500
v -0.250000 0.487500 -0.137500
v -0.236631 0.465000 -0.096355
v -0.236631 0.487500 -0.096355
v -0.201631 0.465000 -0.070926
v -0.201631 0.487500 -0.070926
v -0.158369 0.465000 -0.070926
v -0.158369 0.487500 -0.070926
v -0.123369 0.465000 -0.096355
v -0.123369 0.487500 -0.096355
v -0.228921 0.150000 0.057869
v -0.235095 0.134090 0.055565
v -0.165095 0.134090 -0.131935
v -0.158921 0.150000 -0.129631
v -0.250000 0.150000 0.050000
v -0.180000 0.150000 -0.137500
v -0.250000 0.127500 0.050000
v -0.180000 0.127500 -0.137500
v -0.264905 0.134090 0.044435
v -0.194905 0.134090 -0.143065
v -0.271079 0.150000 0.042131
v -0.201079 0.150000 -0.145369
v -0.264905 0.165910 0.044435
v -0.194905 0.165910 -0.143065
v -0.250000 0.172500 0.050000
v -0.180000 0.172500 -0.137500
v -0.235095 0.165910 0.055565
v -0.165095 0.165910 -0.131935
v -0.180000 0.387500 -0.113750
v -0.180000 0.370706 -0.120706
v 0.450000 0.370706 -0.120706
v 0.450000 0.387500 -0.113750
v -0.180000 0.387500 -0.137500
v 0.450000 0.387500 -0.137500
v -0.180000 0.363750 -0.137500
v 0.450000 0.363750 -0.137500
v -0.180000 0.370706 -0.154294
v 0.450000 0.370706 -0.154294
v -0.180000 0.387500 -0.161250
v 0.450000 0.387500 -0.161250
v -0.180000 0.404294 -0.154294
v 0.450000 0.404294 -0.154294
v -0.180000 0.411250 -0.137500
v 0.450000 0.411250 -0.137500
v -0.180000 0.404294 -0.120706
v 0.450000 0.404294 -0.120706
v 0.023750 0.387500 -0.137500
v 0.027777 0.387500 -0.147223
v 0.027777 0.075000 -0.147223
v 0.023750 0.075000 -0.137500
v 0.037500 0.387500 -0.137500
v 0.037500 0.075000 -0.137500
v 0.037500 0.387500 -0.151250
v 0.037500 0.075000 -0.151250
v 0.047223 0.387500 -0.147223
v 0.047223 0.075000 -0.147223
v 0.051250 0.387500 -0.137500
v 0.051250 0.075000 -0.137500
v 0.047223 0.387500 -0.127777
v 0.047223 0.075000 -0.127777
v 0.037500 0.387500 -0.123750
v 0.037500 0.075000 -0.123750
v 0.027777 0.387500 -0.127777
v 0.027777 0.075000 -0.127777
v 0.027777 0.065277 -0.137500
v 0.027777 0.065277 0.312500
v 0.023750 0.075000 0.312500
v 0.037500 0.075000 0.312500
v 0.037500 0.061250 -0.137500
v 0.037500 0.061250 0.312500
v 0.047223 0.065277 -0.137500
v 0.047223 0.065277 0.312500
v 0.051250 0.075000 0.312500
v 0.047223 0.084723 -0.137500
v 0.047223 0.084723 0.312500
v 0.037500 0.088750 -0.137500
v 0.037500 0.088750 0.312500
v 0.027777 0.084723 -0.137500
v 0.027777 0.084723 0.312500
v 0.005000 0.202500 -0.160000
v 0.070000 0.202500 -0.160000
v 0.070000 0.222500 -0.160000
v 0.005000 0.222500 -0.160000
v 0.005000 0.202500 -0.115000
v 0.070000 0.202500 -0.115000
v 0.070000 0.222500 -0.115000
v 0.005000 0.222500 -0.115000
v 0.037500 0.410000 -0.137500
v -0.005000 0.400000 -0.137500
v 0.037500 0.400000 -0.095000
v 0.037500 0.390000 -0.137500
v 0.080000 0.400000 -0.137500
v 0.037500 0.400000 -0.180000
v 0.198750 0.387500 -0.137500
v 0.202777 0.387500 -0.147223
v 0.202777 0.075000 -0.147223
v 0.198750 0.075000 -0.137500
v 0.212500 0.387500 -0.137500
v 0.212500 0.075000 -0.137500
v 0.212500 0.387500 -0.151250
v 0.212500 0.075000 -0.151250
v 0.222223 0.387500 -0.147223
v 0.222223 0.075000 -0.147223
v 0.226250 0.387500 -0.137500
v 0.226250 0.075000 -0.137500
v 0.222223 0.387500 -0.127777
v 0.222223 0.075000 -0.127777
v 0.212500 0.387500 -0.123750
v 0.212500 0.075000 -0.123750
v 0.202777 0.387500 -0.127777
v 0.202777 0.075000 -0.127777
v 0.202777 0.065277 -0.137500
v 0.202777 0.065277 0.312500
v 0.198750 0.075000 0.312500
v 0.212500 0.075000 0.312500
v 0.212500 0.061250 -0.137500
v 0.212500 0.061250 0.312500
v 0.222223 0.065277 -0.137500
v 0.222223 0.065277 0.312500
v 0.226250 0.075000 0.312500
v 0.222223 0.084723 -0.137500
v 0.222223 0.084723 0.312500
v 0.212500 0.088750 -0.137500
v 0.212500 0.088750 0.312500
v 0.202777 0.084723 -0.137500
v 0.202777 0.084723 0.312500
v 0.180000 0.202500 -0.160000
v 0.245000 0.202500 -0.160000
v 0.245000 0.222500 -0.160000
v 0.180000 0.222500 -0.160000
v 0.180000 0.202500 -0.115000
v 0.245000 0.202500 -0.115000
v 0.245000 0.222500 -0.115000
v 0.180000 0.222500 -0.115000
v 0.212500 0.410000 -0.137500
v 0.170000 0.400000 -0.137500
v 0.212500 0.400000 -0.095000
v 0.212500 0.390000 -0.137500
v 0.255000 0.400000 -0.137500
v 0.212500 0.400000 -0.180000
v 0.373750 0.387500 -0.137500
v 0.377777 0.387500 -0.147223
v 0.377777 0.075000 -0.147223
v 0.373750 0.075000 -0.137500
v 0.387500 0.387500 -0.137500
v 0.387500 0.075000 -0.137500
v 0.387500 0.387500 -0.151250
v 0.387500 0.075000 -0.151250
v 0.397223 0.387500 -0.147223
v 0.397223 0.075000 -0.147223
v 0.401250 0.387500 -0.137500
v 0.401250 0.075000 -0.137500
v 0.397223 0.387500 -0.127777
v 0.397223 0.075000 -0.127777
v 0.387500 0.387500 -0.123750
v 0.387500 0.075000 -0.123750
v 0.377777 0.387500 -0.127777
v 0.377777 0.075000 -0.127777
v 0.377777 0.065277 -0.137500
v 0.377777 0.065277 0.312500
v 0.373750 0.075000 0.312500
v 0.387500 0.075000 0.312500
v 0.387500 0.061250 -0.137500
v 0.387500 0.061250 0.312500
v 0.397223 0.065277 -0.137500
v 0.397223 0.065277 0.312500
v 0.401250 0.075000 0.312500
v 0.397223 0.084723 -0.137500
v 0.397223 0.084723 0.312500
v 0.387500 0.088750 -0.137500
v 0.387500 0.088750 0.312500
v 0.377777 0.084723 -0.137500
v 0.377777 0.084723 0.312500
v 0.355000 0.202500 -0.160000
v 0.420000 0.202500 -0.160000
v 0.420000 0.222500 -0.160000
v 0.355000 0.222500 -0.160000
v 0.355000 0.202500 -0.115000
v 0.420000 0.202500 -0.115000
v 0.420000 0.222500 -0.115000
v 0.355000 0.222500 -0.115000
v 0.387500 0.410000 -0.137500
v 0.345000 0.400000 -0.137500
v 0.387500 0.400000 -0.095000
v 0.387500 0.390000 -0.137500
v 0.430000 0.400000 -0.137500
v 0.387500 0.400000 -0.180000
v -0.470000 0.271250 0.040000
v -0.380000 0.271250 0.040000
v -0.380000 0.358750 0.040000
v -0.470000 0.358750 0.040000
v -0.470000 0.271250 0.070000
v -0.380000 0.271250 0.070000
v -0.380000 0.358750 0.070000
v -0.470000 0.358750 0.070000
vt 0.765625 0.015625
vt 0.984375 0.015625
vt 0.984375 0.234375
vt 0.765625 0.234375
vt 0.765625 0.015625
vt 0.984375 0.015625
vt 0.984375 0.234375
vt 0.765625 0.234375
vt 0.765625 0.015625
vt 0.984375 0.015625
vt 0.984375 0.234375
vt 0.765625 0.234375
vt 0.765625 0.015625
vt 0.984375 0.015625
vt 0.984375 0.234375
vt 0.765625 0.234375
vt 0.765625 0.015625
vt 0.984375 0.015625
vt 0.984375 0.234375
vt 0.765625 0.234375
vt 0.765625 0.015625
vt 0.984375 0.015625
vt 0.984375 0.234375
vt 0.765625 0.234375
vt 0.265625 0.765625
vt 0.484375 0.765625
vt 0.484375 0.984375
vt 0.265625 0.984375
vt 0.265625 0.765625
vt 0.484375 0.765625
vt 0.484375 0.984375
vt 0.265625 0.984375
vt 0.265625 0.765625
vt 0.484375 0.765625
vt 0.484375 0.984375
vt 0.265625 0.984375
vt 0.265625 0.765625
vt 0.484375 0.765625
vt 0.484375 0.984375
vt 0.265625 0.984375
vt 0.265625 0.765625
vt 0.484375 0.765625
vt 0.484375 0.984375
vt 0.265625 0.984375
vt 0.265625 0.765625
vt 0.484375 0.765625
vt 0.484375 0.984375
vt 0.265625 0.984375
vt 0.765625 0.765625
vt 0.984375 0.765625
vt 0.984375 0.984375
vt 0.765625 0.984375
vt 0.765625 0.765625
vt 0.984375 0.765625
vt 0.984375 0.984375
vt 0.765625 0.765625
vt 0.984375 0.765625
vt 0.984375 0.984375
vt 0.765625 0.765625
vt 0.984375 0.765625
vt 0.984375 0.984375
vt 0.765625 0.984375
vt 0.765625 0.765625
vt 0.984375 0.765625
vt 0.984375 0.984375
vt 0.765625 0.765625
vt 0.984375 0.765625
vt 0.984375 0.984375
vt 0.765625 0.765625
vt 0.984375 0.765625
vt 0.984375 0.984375
vt 0.765625 0.984375
vt 0.765625 0.765625
vt 0.984375 0.765625
vt 0.984375 0.984375
vt 0.765625 0.765625
vt 0.984375 0.765625
vt 0.984375 0.984375
vt 0.765625 0.765625
vt 0.984375 0.765625
vt 0.984375 0.984375
vt 0.765625 0.984375
vt 0.765625 0.765625
vt 0.984375 0.765625
vt 0.984375 0.984375
vt 0.765625 0.765625
vt 0.984375 0.765625
vt 0.984375 0.984375
vt 0.765625 0.765625
vt 0.984375 0.765625
vt 0.984375 0.984375
vt 0.765625 0.984375
vt 0.765625 0.765625
vt 0.984375 0.765625
vt 0.984375 0.984375
vt 0.765625 0.765625
vt 0.984375 0.765625
vt 0.984375 0.984375
vt 0.765625 0.765625
vt 0.984375 0.765625
vt 0.984375 0.984375
vt 0.765625 0.984375
vt 0.765625 0.765625
vt 0.984375 0.765625
vt 0.984375 0.984375
vt 0.765625 0.765625
vt 0.984375 0.765625
vt 0.984375 0.984375
vt 0.765625 0.765625
vt 0.984375 0.765625
vt 0.984375 0.984375
vt 0.765625 0.984375
vt 0.765625 0.765625
vt 0.984375 0.765625
vt 0.984375 0.984375
vt 0.765625 0.765625
vt 0.984375 0.765625
vt 0.984375 0.984375
vt 0.765625 0.765625
vt 0.984375 0.765625
vt 0.984375 0.984375
vt 0.765625 0.984375
vt 0.765625 0.765625
vt 0.984375 0.765625
vt 0.984375 0.984375
vt 0.765625 0.765625
vt 0.984375 0.765625
vt 0.984375 0.984375
vt 0.765625 0.765625
vt 0.984375 0.765625
vt 0.984375 0.984375
vt 0.765625 0.984375
vt 0.765625 0.765625
vt 0.984375 0.765625
vt 0.984375 0.984375
vt 0.765625 0.765625
vt 0.984375 0.765625
vt 0.984375 0.984375
vt 0.765625 0.765625
vt 0.984375 0.765625
vt 0.984375 0.984375
vt 0.765625 0.984375
vt 0.765625 0.765625
vt 0.984375 0.765625
vt 0.984375 0.984375
vt 0.765625 0.765625
vt 0.984375 0.765625
vt 0.984375 0.984375
vt 0.015625 0.765625
vt 0.234375 0.765625
vt 0.234375 0.984375
vt 0.015625 0.984375
vt 0.015625 0.765625
vt 0.234375 0.765625
vt 0.234375 0.984375
vt 0.015625 0.765625
vt 0.234375 0.765625
vt 0.234375 0.984375
vt 0.015625 0.765625
vt 0.234375 0.765625
vt 0.234375 0.984375
vt 0.015625 0.984375
vt 0.015625 0.765625
vt 0.234375 0.765625
vt 0.234375 0.984375
vt 0.015625 0.765625
vt 0.234375 0.765625
vt 0.234375 0.984375
vt 0.015625 0.765625
vt 0.234375 0.765625
vt 0.234375 0.984375
vt 0.015625 0.984375
vt 0.015625 0.765625
vt 0.234375 0.765625
vt 0.234375 0.984375
vt 0.015625 0.765625
vt 0.234375 0.765625
vt 0.234375 0.984375
vt 0.015625 0.765625
vt 0.234375 0.765625
vt 0.234375 0.984375
vt 0.015625 0.984375
vt 0.015625 0.765625
vt 0.234375 0.765625
vt 0.234375 0.984375
vt 0.015625 0.765625
vt 0.234375 0.765625
vt 0.234375 0.984375
vt 0.015625 0.765625
vt 0.234375 0.765625
vt 0.234375 0.984375
vt 0.015625 0.984375
vt 0.015625 0.765625
vt 0.234375 0.765625
vt 0.234375 0.984375
vt 0.015625 0.765625
vt 0.234375 0.765625
vt 0.234375 0.984375
vt 0.015625 0.765625
vt 0.234375 0.765625
vt 0.234375 0.984375
vt 0.015625 0.984375
vt 0.015625 0.765625
vt 0.234375 0.765625
vt 0.234375 0.984375
vt 0.015625 0.765625
vt 0.234375 0.765625
vt 0.234375 0.984375
vt 0.015625 0.765625
vt 0.234375 0.765625
vt 0.234375 0.984375
vt 0.015625 0.984375
vt 0.015625 0.765625
vt 0.234375 0.765625
vt 0.234375 0.984375
vt 0.015625 0.765625
vt 0.234375 0.765625
vt 0.234375 0.984375
vt 0.015625 0.765625
vt 0.234375 0.765625
vt 0.234375 0.984375
vt 0.015625 0.984375
vt 0.015625 0.765625
vt 0.234375 0.765625
vt 0.234375 0.984375
vt 0.015625 0.765625
vt 0.234375 0.765625
vt 0.234375 0.984375
vt 0.015625 0.765625
vt 0.234375 0.765625
vt 0.234375 0.984375
vt 0.015625 0.984375
vt 0.015625 0.765625
vt 0.234375 0.765625
vt 0.234375 0.984375
vt 0.015625 0.765625
vt 0.234375 0.765625
vt 0.234375 0.984375
vt 0.015625 0.765625
vt 0.234375 0.765625
vt 0.234375 0.984375
vt 0.015625 0.984375
vt 0.015625 0.765625
vt 0.234375 0.765625
vt 0.234375 0.984375
vt 0.015625 0.765625
vt 0.234375 0.765625
vt 0.234375 0.984375
vt 0.515625 0.765625
vt 0.734375 0.765625
vt 0.734375 0.984375
vt 0.515625 0.984375
vt 0.515625 0.765625
vt 0.734375 0.765625
vt 0.734375 0.984375
vt 0.515625 0.765625
vt 0.734375 0.765625
vt 0.734375 0.984375
vt 0.515625 0.765625
vt 0.734375 0.765625
vt 0.734375 0.984375
vt 0.515625 0.984375
vt 0.515625 0.765625
vt 0.734375 0.765625
vt 0.734375 0.984375
vt 0.515625 0.765625
vt 0.734375 0.765625
vt 0.734375 0.984375
vt 0.515625 0.765625
vt 0.734375 0.765625
vt 0.734375 0.984375
vt 0.515625 0.984375
vt 0.515625 0.765625
vt 0.734375 0.765625
vt 0.734375 0.984375
vt 0.515625 0.765625
vt 0.734375 0.765625
vt 0.734375 0.984375
vt 0.515625 0.765625
vt 0.734375 0.765625
vt 0.734375 0.984375
vt 0.515625 0.984375
vt 0.515625 0.765625
vt 0.734375 0.765625
vt 0.734375 0.984375
vt 0.515625 0.765625
vt 0.734375 0.765625
vt 0.734375 0.984375
vt 0.515625 0.765625
vt 0.734375 0.765625
vt 0.734375 0.984375
vt 0.515625 0.984375
vt 0.515625 0.765625
vt 0.734375 0.765625
vt 0.734375 0.984375
vt 0.515625 0.765625
vt 0.734375 0.765625
vt 0.734375 0.984375
vt 0.515625 0.765625
vt 0.734375 0.765625
vt 0.734375 0.984375
vt 0.515625 0.984375
vt 0.515625 0.765625
vt 0.734375 0.765625
vt 0.734375 0.984375
vt 0.515625 0.765625
vt 0.734375 0.765625
vt 0.734375 0.984375
vt 0.515625 0.765625
vt 0.734375 0.765625
vt 0.734375 0.984375
vt 0.515625 0.984375
vt 0.515625 0.765625
vt 0.734375 0.765625
vt 0.734375 0.984375
vt 0.515625 0.765625
vt 0.734375 0.765625
vt 0.734375 0.984375
vt 0.515625 0.765625
vt 0.734375 0.765625
vt 0.734375 0.984375
vt 0.515625 0.984375
vt 0.515625 0.765625
vt 0.734375 0.765625
vt 0.734375 0.984375
vt 0.515625 0.765625
vt 0.734375 0.765625
vt 0.734375 0.984375
vt 0.515625 0.765625
vt 0.734375 0.765625
vt 0.734375 0.984375
vt 0.515625 0.984375
vt 0.515625 0.765625
vt 0.734375 0.765625
vt 0.734375 0.984375
vt 0.515625 0.765625
vt 0.734375 0.765625
vt 0.734375 0.984375
vt 0.515625 0.765625
vt 0.734375 0.765625
vt 0.734375 0.984375
vt 0.515625 0.984375
vt 0.515625 0.765625
vt 0.734375 0.765625
vt 0.734375 0.984375
vt 0.515625 0.765625
vt 0.734375 0.765625
vt 0.734375 0.984375
vt 0.765625 0.765625
vt 0.984375 0.765625
vt 0.984375 0.984375
vt 0.765625 0.984375
vt 0.765625 0.765625
vt 0.984375 0.765625
vt 0.984375 0.984375
vt 0.765625 0.765625
vt 0.984375 0.765625
vt 0.984375 0.984375
vt 0.765625 0.765625
vt 0.984375 0.765625
vt 0.984375 0.984375
vt 0.765625 0.984375
vt 0.765625 0.765625
vt 0.984375 0.765625
vt 0.984375 0.984375
vt 0.765625 0.765625
vt 0.984375 0.765625
vt 0.984375 0.984375
vt 0.765625 0.765625
vt 0.984375 0.765625
vt 0.984375 0.984375
vt 0.765625 0.984375
vt 0.765625 0.765625
vt 0.984375 0.765625
vt 0.984375 0.984375
vt 0.765625 0.765625
vt 0.984375 0.765625
vt 0.984375 0.984375
vt 0.765625 0.765625
vt 0.984375 0.765625
vt 0.984375 0.984375
vt 0.765625 0.984375
vt 0.765625 0.765625
vt 0.984375 0.765625
vt 0.984375 0.984375
vt 0.765625 0.765625
vt 0.984375 0.765625
vt 0.984375 0.984375
vt 0.765625 0.765625
vt 0.984375 0.765625
vt 0.984375 0.984375
vt 0.765625 0.984375
vt 0.765625 0.765625
vt 0.984375 0.765625
vt 0.984375 0.984375
vt 0.765625 0.765625
vt 0.984375 0.765625
vt 0.984375 0.984375
vt 0.765625 0.765625
vt 0.984375 0.765625
vt 0.984375 0.984375
vt 0.765625 0.984375
vt 0.765625 0.765625
vt 0.984375 0.765625
vt 0.984375 0.984375
vt 0.765625 0.765625
vt 0.984375 0.765625
vt 0.984375 0.984375
vt 0.765625 0.765625
vt 0.984375 0.765625
vt 0.984375 0.984375
vt 0.765625 0.984375
vt 0.765625 0.765625
vt 0.984375 0.765625
vt 0.984375 0.984375
vt 0.765625 0.765625
vt 0.984375 0.765625
vt 0.984375 0.984375
vt 0.765625 0.765625
vt 0.984375 0.765625
vt 0.984375 0.984375
vt 0.765625 0.984375
vt 0.765625 0.765625
vt 0.984375 0.765625
vt 0.984375 0.984375
vt 0.765625 0.765625
vt 0.984375 0.765625
vt 0.984375 0.984375
vt 0.765625 0.765625
vt 0.984375 0.765625
vt 0.984375 0.984375
vt 0.765625 0.984375
vt 0.765625 0.765625
vt 0.984375 0.765625
vt 0.984375 0.984375
vt 0.765625 0.765625
vt 0.984375 0.765625
vt 0.984375 0.984375
vt 0.765625 0.765625
vt 0.984375 0.765625
vt 0.984375 0.984375
vt 0.765625 0.984375
vt 0.765625 0.765625
vt 0.984375 0.765625
vt 0.984375 0.984375
vt 0.765625 0.765625
vt 0.984375 0.765625
vt 0.984375 0.984375
vt 0.765625 0.765625
vt 0.984375 0.765625
vt 0.984375 0.984375
vt 0.765625 0.984375
vt 0.765625 0.765625
vt 0.984375 0.765625
vt 0.984375 0.984375
vt 0.765625 0.765625
vt 0.984375 0.765625
vt 0.984375 0.984375
vt 0.765625 0.765625
vt 0.984375 0.765625
vt 0.984375 0.984375
vt 0.765625 0.984375
vt 0.765625 0.765625
vt 0.984375 0.765625
vt 0.984375 0.984375
vt 0.765625 0.765625
vt 0.984375 0.765625
vt 0.984375 0.984375
vt 0.765625 0.765625
vt 0.984375 0.765625
vt 0.984375 0.984375
vt 0.765625 0.984375
vt 0.765625 0.765625
vt 0.984375 0.765625
vt 0.984375 0.984375
vt 0.765625 0.765625
vt 0.984375 0.765625
vt 0.984375 0.984375
vt 0.765625 0.765625
vt 0.984375 0.765625
vt 0.984375 0.984375
vt 0.765625 0.984375
vt 0.765625 0.765625
vt 0.984375 0.765625
vt 0.984375 0.984375
vt 0.765625 0.765625
vt 0.984375 0.765625
vt 0.984375 0.984375
vt 0.765625 0.765625
vt 0.984375 0.765625
vt 0.984375 0.984375
vt 0.765625 0.984375
vt 0.765625 0.765625
vt 0.984375 0.765625
vt 0.984375 0.984375
vt 0.765625 0.765625
vt 0.984375 0.765625
vt 0.984375 0.984375
vt 0.765625 0.765625
vt 0.984375 0.765625
vt 0.984375 0.984375
vt 0.765625 0.984375
vt 0.765625 0.765625
vt 0.984375 0.765625
vt 0.984375 0.984375
vt 0.765625 0.765625
vt 0.984375 0.765625
vt 0.984375 0.984375
vt 0.765625 0.765625
vt 0.984375 0.765625
vt 0.984375 0.984375
vt 0.765625 0.984375
vt 0.765625 0.765625
vt 0.984375 0.765625
vt 0.984375 0.984375
vt 0.765625 0.765625
vt 0.984375 0.765625
vt 0.984375 0.984375
vt 0.765625 0.765625
vt 0.984375 0.765625
vt 0.984375 0.984375
vt 0.765625 0.984375
vt 0.765625 0.765625
vt 0.984375 0.765625
vt 0.984375 0.984375
vt 0.765625 0.765625
vt 0.984375 0.765625
vt 0.984375 0.984375
vt 0.765625 0.765625
vt 0.984375 0.765625
vt 0.984375 0.984375
vt 0.765625 0.984375
vt 0.765625 0.765625
vt 0.984375 0.765625
vt 0.984375 0.984375
vt 0.765625 0.765625
vt 0.984375 0.765625
vt 0.984375 0.984375
vt 0.765625 0.765625
vt 0.984375 0.765625
vt 0.984375 0.984375
vt 0.765625 0.984375
vt 0.765625 0.765625
vt 0.984375 0.765625
vt 0.984375 0.984375
vt 0.765625 0.765625
vt 0.984375 0.765625
vt 0.984375 0.984375
vt 0.765625 0.765625
vt 0.984375 0.765625
vt 0.984375 0.984375
vt 0.765625 0.984375
vt 0.765625 0.765625
vt 0.984375 0.765625
vt 0.984375 0.984375
vt 0.765625 0.765625
vt 0.984375 0.765625
vt 0.984375 0.984375
vt 0.765625 0.765625
vt 0.984375 0.765625
vt 0.984375 0.984375
vt 0.765625 0.984375
vt 0.765625 0.765625
vt 0.984375 0.765625
vt 0.984375 0.984375
vt 0.765625 0.765625
vt 0.984375 0.765625
vt 0.984375 0.984375
vt 0.765625 0.765625
vt 0.984375 0.765625
vt 0.984375 0.984375
vt 0.765625 0.984375
vt 0.765625 0.765625
vt 0.984375 0.765625
vt 0.984375 0.984375
vt 0.765625 0.765625
vt 0.984375 0.765625
vt 0.984375 0.984375
vt 0.765625 0.765625
vt 0.984375 0.765625
vt 0.984375 0.984375
vt 0.765625 0.984375
vt 0.765625 0.765625
vt 0.984375 0.765625
vt 0.984375 0.984375
vt 0.765625 0.765625
vt 0.984375 0.765625
vt 0.984375 0.984375
vt 0.765625 0.765625
vt 0.984375 0.765625
vt 0.984375 0.984375
vt 0.765625 0.984375
vt 0.765625 0.765625
vt 0.984375 0.765625
vt 0.984375 0.984375
vt 0.765625 0.765625
vt 0.984375 0.765625
vt 0.984375 0.984375
vt 0.765625 0.765625
vt 0.984375 0.765625
vt 0.984375 0.984375
vt 0.765625 0.984375
vt 0.765625 0.765625
vt 0.984375 0.765625
vt 0.984375 0.984375
vt 0.765625 0.765625
vt 0.984375 0.765625
vt 0.984375 0.984375
vt 0.765625 0.765625
vt 0.984375 0.765625
vt 0.984375 0.984375
vt 0.765625 0.984375
vt 0.765625 0.765625
vt 0.984375 0.765625
vt 0.984375 0.984375
vt 0.765625 0.765625
vt 0.984375 0.765625
vt 0.984375 0.984375
vt 0.765625 0.765625
vt 0.984375 0.765625
vt 0.984375 0.984375
vt 0.765625 0.984375
vt 0.765625 0.765625
vt 0.984375 0.765625
vt 0.984375 0.984375
vt 0.765625 0.765625
vt 0.984375 0.765625
vt 0.984375 0.984375
vt 0.765625 0.765625
vt 0.984375 0.765625
vt 0.984375 0.984375
vt 0.765625 0.984375
vt 0.765625 0.765625
vt 0.984375 0.765625
vt 0.984375 0.984375
vt 0.765625 0.765625
vt 0.984375 0.765625
vt 0.984375 0.984375
vt 0.765625 0.765625
vt 0.984375 0.765625
vt 0.984375 0.984375
vt 0.765625 0.984375
vt 0.765625 0.765625
vt 0.984375 0.765625
vt 0.984375 0.984375
vt 0.765625 0.765625
vt 0.984375 0.765625
vt 0.984375 0.984375
vt 0.765625 0.765625
vt 0.984375 0.765625
vt 0.984375 0.984375
vt 0.765625 0.984375
vt 0.765625 0.765625
vt 0.984375 0.765625
vt 0.984375 0.984375
vt 0.765625 0.765625
vt 0.984375 0.765625
vt 0.984375 0.984375
vt 0.765625 0.765625
vt 0.984375 0.765625
vt 0.984375 0.984375
vt 0.765625 0.984375
vt 0.765625 0.765625
vt 0.984375 0.765625
vt 0.984375 0.984375
vt 0.765625 0.765625
vt 0.984375 0.765625
vt 0.984375 0.984375
vt 0.515625 0.765625
vt 0.734375 0.765625
vt 0.734375 0.984375
vt 0.515625 0.984375
vt 0.515625 0.765625
vt 0.734375 0.765625
vt 0.734375 0.984375
vt 0.515625 0.984375
vt 0.515625 0.765625
vt 0.734375 0.765625
vt 0.734375 0.984375
vt 0.515625 0.984375
vt 0.515625 0.765625
vt 0.734375 0.765625
vt 0.734375 0.984375
vt 0.515625 0.984375
vt 0.515625 0.765625
vt 0.734375 0.765625
vt 0.734375 0.984375
vt 0.515625 0.984375
vt 0.515625 0.765625
vt 0.734375 0.765625
vt 0.734375 0.984375
vt 0.515625 0.984375
vt 0.515625 0.765625
vt 0.734375 0.765625
vt 0.734375 0.984375
vt 0.515625 0.765625
vt 0.734375 0.765625
vt 0.734375 0.984375
vt 0.515625 0.765625
vt 0.734375 0.765625
vt 0.734375 0.984375
vt 0.515625 0.765625
vt 0.734375 0.765625
vt 0.734375 0.984375
vt 0.515625 0.765625
vt 0.734375 0.765625
vt 0.734375 0.984375
vt 0.515625 0.765625
vt 0.734375 0.765625
vt 0.734375 0.984375
vt 0.515625 0.765625
vt 0.734375 0.765625
vt 0.734375 0.984375
vt 0.515625 0.765625
vt 0.734375 0.765625
vt 0.734375 0.984375
vt 0.765625 0.765625
vt 0.984375 0.765625
vt 0.984375 0.984375
vt 0.765625 0.984375
vt 0.765625 0.765625
vt 0.984375 0.765625
vt 0.984375 0.984375
vt 0.765625 0.765625
vt 0.984375 0.765625
vt 0.984375 0.984375
vt 0.765625 0.765625
vt 0.984375 0.765625
vt 0.984375 0.984375
vt 0.765625 0.984375
vt 0.765625 0.765625
vt 0.984375 0.765625
vt 0.984375 0.984375
vt 0.765625 0.765625
vt 0.984375 0.765625
vt 0.984375 0.984375
vt 0.765625 0.765625
vt 0.984375 0.765625
vt 0.984375 0.984375
vt 0.765625 0.984375
vt 0.765625 0.765625
vt 0.984375 0.765625
vt 0.984375 0.984375
vt 0.765625 0.765625
vt 0.984375 0.765625
vt 0.984375 0.984375
vt 0.765625 0.765625
vt 0.984375 0.765625
vt 0.984375 0.984375
vt 0.765625 0.984375
vt 0.765625 0.765625
vt 0.984375 0.765625
vt 0.984375 0.984375
vt 0.765625 0.765625
vt 0.984375 0.765625
vt 0.984375 0.984375
vt 0.765625 0.765625
vt 0.984375 0.765625
vt 0.984375 0.984375
vt 0.765625 0.984375
vt 0.765625 0.765625
vt 0.984375 0.765625
vt 0.984375 0.984375
vt 0.765625 0.765625
vt 0.984375 0.765625
vt 0.984375 0.984375
vt 0.765625 0.765625
vt 0.984375 0.765625
vt 0.984375 0.984375
vt 0.765625 0.984375
vt 0.765625 0.765625
vt 0.984375 0.765625
vt 0.984375 0.984375
vt 0.765625 0.765625
vt 0.984375 0.765625
vt 0.984375 0.984375
vt 0.765625 0.765625
vt 0.984375 0.765625
vt 0.984375 0.984375
vt 0.765625 0.984375
vt 0.765625 0.765625
vt 0.984375 0.765625
vt 0.984375 0.984375
vt 0.765625 0.765625
vt 0.984375 0.765625
vt 0.984375 0.984375
vt 0.765625 0.765625
vt 0.984375 0.765625
vt 0.984375 0.984375
vt 0.765625 0.984375
vt 0.765625 0.765625
vt 0.984375 0.765625
vt 0.984375 0.984375
vt 0.765625 0.765625
vt 0.984375 0.765625
vt 0.984375 0.984375
vt 0.765625 0.765625
vt 0.984375 0.765625
vt 0.984375 0.984375
vt 0.765625 0.984375
vt 0.765625 0.765625
vt 0.984375 0.765625
vt 0.984375 0.984375
vt 0.765625 0.765625
vt 0.984375 0.765625
vt 0.984375 0.984375
vt 0.765625 0.765625
vt 0.984375 0.765625
vt 0.984375 0.984375
vt 0.765625 0.984375
vt 0.765625 0.765625
vt 0.984375 0.765625
vt 0.984375 0.984375
vt 0.765625 0.765625
vt 0.984375 0.765625
vt 0.984375 0.984375
vt 0.765625 0.765625
vt 0.984375 0.765625
vt 0.984375 0.984375
vt 0.765625 0.984375
vt 0.765625 0.765625
vt 0.984375 0.765625
vt 0.984375 0.984375
vt 0.765625 0.765625
vt 0.984375 0.765625
vt 0.984375 0.984375
vt 0.765625 0.765625
vt 0.984375 0.765625
vt 0.984375 0.984375
vt 0.765625 0.984375
vt 0.765625 0.765625
vt 0.984375 0.765625
vt 0.984375 0.984375
vt 0.765625 0.765625
vt 0.984375 0.765625
vt 0.984375 0.984375
vt 0.765625 0.765625
vt 0.984375 0.765625
vt 0.984375 0.984375
vt 0.765625 0.984375
vt 0.765625 0.765625
vt 0.984375 0.765625
vt 0.984375 0.984375
vt 0.765625 0.765625
vt 0.984375 0.765625
vt 0.984375 0.984375
vt 0.765625 0.765625
vt 0.984375 0.765625
vt 0.984375 0.984375
vt 0.765625 0.984375
vt 0.765625 0.765625
vt 0.984375 0.765625
vt 0.984375 0.984375
vt 0.765625 0.765625
vt 0.984375 0.765625
vt 0.984375 0.984375
vt 0.765625 0.765625
vt 0.984375 0.765625
vt 0.984375 0.984375
vt 0.765625 0.984375
vt 0.765625 0.765625
vt 0.984375 0.765625
vt 0.984375 0.984375
vt 0.765625 0.765625
vt 0.984375 0.765625
vt 0.984375 0.984375
vt 0.765625 0.765625
vt 0.984375 0.765625
vt 0.984375 0.984375
vt 0.765625 0.984375
vt 0.765625 0.765625
vt 0.984375 0.765625
vt 0.984375 0.984375
vt 0.765625 0.765625
vt 0.984375 0.765625
vt 0.984375 0.984375
vt 0.515625 0.765625
vt 0.734375 0.765625
vt 0.734375 0.984375
vt 0.515625 0.984375
vt 0.515625 0.765625
vt 0.734375 0.765625
vt 0.734375 0.984375
vt 0.515625 0.984375
vt 0.515625 0.765625
vt 0.734375 0.765625
vt 0.734375 0.984375
vt 0.515625 0.984375
vt 0.515625 0.765625
vt 0.734375 0.765625
vt 0.734375 0.984375
vt 0.515625 0.984375
vt 0.515625 0.765625
vt 0.734375 0.765625
vt 0.734375 0.984375
vt 0.515625 0.984375
vt 0.515625 0.765625
vt 0.734375 0.765625
vt 0.734375 0.984375
vt 0.515625 0.984375
vt 0.515625 0.765625
vt 0.734375 0.765625
vt 0.734375 0.984375
vt 0.515625 0.765625
vt 0.734375 0.765625
vt 0.734375 0.984375
vt 0.515625 0.765625
vt 0.734375 0.765625
vt 0.734375 0.984375
vt 0.515625 0.765625
vt 0.734375 0.765625
vt 0.734375 0.984375
vt 0.515625 0.765625
vt 0.734375 0.765625
vt 0.734375 0.984375
vt 0.515625 0.765625
vt 0.734375 0.765625
vt 0.734375 0.984375
vt 0.515625 0.765625
vt 0.734375 0.765625
vt 0.734375 0.984375
vt 0.515625 0.765625
vt 0.734375 0.765625
vt 0.734375 0.984375
vt 0.765625 0.765625
vt 0.984375 0.765625
vt 0.984375 0.984375
vt 0.765625 0.984375
vt 0.765625 0.765625
vt 0.984375 0.765625
vt 0.984375 0.984375
vt 0.765625 0.765625
vt 0.984375 0.765625
vt 0.984375 0.984375
vt 0.765625 0.765625
vt 0.984375 0.765625
vt 0.984375 0.984375
vt 0.765625 0.984375
vt 0.765625 0.765625
vt 0.984375 0.765625
vt 0.984375 0.984375
vt 0.765625 0.765625
vt 0.984375 0.765625
vt 0.984375 0.984375
vt 0.765625 0.765625
vt 0.984375 0.765625
vt 0.984375 0.984375
vt 0.765625 0.984375
vt 0.765625 0.765625
vt 0.984375 0.765625
vt 0.984375 0.984375
vt 0.765625 0.765625
vt 0.984375 0.765625
vt 0.984375 0.984375
vt 0.765625 0.765625
vt 0.984375 0.765625
vt 0.984375 0.984375
vt 0.765625 0.984375
vt 0.765625 0.765625
vt 0.984375 0.765625
vt 0.984375 0.984375
vt 0.765625 0.765625
vt 0.984375 0.765625
vt 0.984375 0.984375
vt 0.765625 0.765625
vt 0.984375 0.765625
vt 0.984375 0.984375
vt 0.765625 0.984375
vt 0.765625 0.765625
vt 0.984375 0.765625
vt 0.984375 0.984375
vt 0.765625 0.765625
vt 0.984375 0.765625
vt 0.984375 0.984375
vt 0.765625 0.765625
vt 0.984375 0.765625
vt 0.984375 0.984375
vt 0.765625 0.984375
vt 0.765625 0.765625
vt 0.984375 0.765625
vt 0.984375 0.984375
vt 0.765625 0.765625
vt 0.984375 0.765625
vt 0.984375 0.984375
vt 0.765625 0.765625
vt 0.984375 0.765625
vt 0.984375 0.984375
vt 0.765625 0.984375
vt 0.765625 0.765625
vt 0.984375 0.765625
vt 0.984375 0.984375
vt 0.765625 0.765625
vt 0.984375 0.765625
vt 0.984375 0.984375
vt 0.765625 0.765625
vt 0.984375 0.765625
vt 0.984375 0.984375
vt 0.765625 0.984375
vt 0.765625 0.765625
vt 0.984375 0.765625
vt 0.984375 0.984375
vt 0.765625 0.765625
vt 0.984375 0.765625
vt 0.984375 0.984375
vt 0.765625 0.765625
vt 0.984375 0.765625
vt 0.984375 0.984375
vt 0.765625 0.984375
vt 0.765625 0.765625
vt 0.984375 0.765625
vt 0.984375 0.984375
vt 0.765625 0.765625
vt 0.984375 0.765625
vt 0.984375 0.984375
vt 0.765625 0.765625
vt 0.984375 0.765625
vt 0.984375 0.984375
vt 0.765625 0.984375
vt 0.765625 0.765625
vt 0.984375 0.765625
vt 0.984375 0.984375
vt 0.765625 0.765625
vt 0.984375 0.765625
vt 0.984375 0.984375
vt 0.765625 0.765625
vt 0.984375 0.765625
vt 0.984375 0.984375
vt 0.765625 0.984375
vt 0.765625 0.765625
vt 0.984375 0.765625
vt 0.984375 0.984375
vt 0.765625 0.765625
vt 0.984375 0.765625
vt 0.984375 0.984375
vt 0.765625 0.765625
vt 0.984375 0.765625
vt 0.984375 0.984375
vt 0.765625 0.984375
vt 0.765625 0.765625
vt 0.984375 0.765625
vt 0.984375 0.984375
vt 0.765625 0.765625
vt 0.984375 0.765625
vt 0.984375 0.984375
vt 0.765625 0.765625
vt 0.984375 0.765625
vt 0.984375 0.984375
vt 0.765625 0.984375
vt 0.765625 0.765625
vt 0.984375 0.765625
vt 0.984375 0.984375
vt 0.765625 0.765625
vt 0.984375 0.765625
vt 0.984375 0.984375
vt 0.765625 0.765625
vt 0.984375 0.765625
vt 0.984375 0.984375
vt 0.765625 0.984375
vt 0.765625 0.765625
vt 0.984375 0.765625
vt 0.984375 0.984375
vt 0.765625 0.765625
vt 0.984375 0.765625
vt 0.984375 0.984375
vt 0.765625 0.765625
vt 0.984375 0.765625
vt 0.984375 0.984375
vt 0.765625 0.984375
vt 0.765625 0.765625
vt 0.984375 0.765625
vt 0.984375 0.984375
vt 0.765625 0.765625
vt 0.984375 0.765625
vt 0.984375 0.984375
vt 0.765625 0.765625
vt 0.984375 0.765625
vt 0.984375 0.984375
vt 0.765625 0.984375
vt 0.765625 0.765625
vt 0.984375 0.765625
vt 0.984375 0.984375
vt 0.765625 0.765625
vt 0.984375 0.765625
vt 0.984375 0.984375
vt 0.515625 0.765625
vt 0.734375 0.765625
vt 0.734375 0.984375
vt 0.515625 0.984375
vt 0.515625 0.765625
vt 0.734375 0.765625
vt 0.734375 0.984375
vt 0.515625 0.984375
vt 0.515625 0.765625
vt 0.734375 0.765625
vt 0.734375 0.984375
vt 0.515625 0.984375
vt 0.515625 0.765625
vt 0.734375 0.765625
vt 0.734375 0.984375
vt 0.515625 0.984375
vt 0.515625 0.765625
vt 0.734375 0.765625
vt 0.734375 0.984375
vt 0.515625 0.984375
vt 0.515625 0.765625
vt 0.734375 0.765625
vt 0.734375 0.984375
vt 0.515625 0.984375
vt 0.515625 0.765625
vt 0.734375 0.765625
vt 0.734375 0.984375
vt 0.515625 0.765625
vt 0.734375 0.765625
vt 0.734375 0.984375
vt 0.515625 0.765625
vt 0.734375 0.765625
vt 0.734375 0.984375
vt 0.515625 0.765625
vt 0.734375 0.765625
vt 0.734375 0.984375
vt 0.515625 0.765625
vt 0.734375 0.765625
vt 0.734375 0.984375
vt 0.515625 0.765625
vt 0.734375 0.765625
vt 0.734375 0.984375
vt 0.515625 0.765625
vt 0.734375 0.765625
vt 0.734375 0.984375
vt 0.515625 0.765625
vt 0.734375 0.765625
vt 0.734375 0.984375
vt 0.515625 0.015625
vt 0.734375 0.015625
vt 0.734375 0.234375
vt 0.515625 0.234375
vt 0.515625 0.015625
vt 0.734375 0.015625
vt 0.734375 0.234375
vt 0.515625 0.234375
vt 0.515625 0.015625
vt 0.734375 0.015625
vt 0.734375 0.234375
vt 0.515625 0.234375
vt 0.515625 0.015625
vt 0.734375 0.015625
vt 0.734375 0.234375
vt 0.515625 0.234375
vt 0.515625 0.015625
vt 0.734375 0.015625
vt 0.734375 0.234375
vt 0.515625 0.234375
vt 0.515625 0.015625
vt 0.734375 0.015625
vt 0.734375 0.234375
vt 0.515625 0.234375
vn 0.00000000 0.00000000 -1.00000000
vn 0.00000000 0.00000000 1.00000000
vn -1.00000000 0.00000000 0.00000000
vn 1.00000000 0.00000000 0.00000000
vn 0.00000000 -1.00000000 0.00000000
vn 0.00000000 1.00000000 0.00000000
vn 0.00000000 0.00000000 -1.00000000
vn 0.00000000 0.00000000 1.00000000
vn -1.00000000 0.00000000 0.00000000
vn 1.00000000 0.00000000 0.00000000
vn 0.00000000 -1.00000000 0.00000000
vn 0.00000000 1.00000000 0.00000000
vn 0.00000000 -0.30902323 0.95105449
vn -1.00000000 0.00000000 0.00000000
vn 1.00000000 0.00000000 -0.00000000
vn 0.00000000 -0.80901751 0.58778454
vn -1.00000000 0.00000000 0.00000000
vn 1.00000000 0.00000000 0.00000000
vn 0.00000000 -1.00000000 0.00000000
vn -1.00000000 -0.00000000 0.00000000
vn 1.00000000 0.00000000 0.00000000
vn 0.00000000 -0.80901751 -0.58778454
vn -1.00000000 0.00000000 0.00000000
vn 1.00000000 0.00000000 0.00000000
vn 0.00000000 -0.30902323 -0.95105449
vn -1.00000000 0.00000000 -0.00000000
vn 1.00000000 0.00000000 0.00000000
vn 0.00000000 0.30902323 -0.95105449
vn -1.00000000 0.00000000 0.00000000
vn 1.00000000 0.00000000 0.00000000
vn 0.00000000 0.80901751 -0.58778454
vn -1.00000000 0.00000000 0.00000000
vn 1.00000000 0.00000000 0.00000000
vn 0.00000000 1.00000000 0.00000000
vn -1.00000000 0.00000000 0.00000000
vn 1.00000000 -0.00000000 0.00000000
vn 0.00000000 0.80901751 0.58778454
vn -1.00000000 0.00000000 0.00000000
vn 1.00000000 0.00000000 0.00000000
vn 0.00000000 0.30902323 0.95105449
vn -1.00000000 0.00000000 0.00000000
vn 1.00000000 0.00000000 0.00000000
vn 0.95105606 0.00000000 -0.30901839
vn 0.00000000 -1.00000000 0.00000000
vn -0.00000000 1.00000000 0.00000000
vn 0.58778038 0.00000000 -0.80902053
vn 0.00000000 -1.00000000 0.00000000
vn 0.00000000 1.00000000 0.00000000
vn 0.00000000 0.00000000 -1.00000000
vn 0.00000000 -1.00000000 -0.00000000
vn 0.00000000 1.00000000 0.00000000
vn -0.58778038 0.00000000 -0.80902053
vn 0.00000000 -1.00000000 0.00000000
vn 0.00000000 1.00000000 0.00000000
vn -0.95105606 0.00000000 -0.30901839
vn -0.00000000 -1.00000000 0.00000000
vn 0.00000000 1.00000000 0.00000000
vn -0.95105606 0.00000000 0.30901839
vn 0.00000000 -1.00000000 0.00000000
vn 0.00000000 1.00000000 0.00000000
vn -0.58778038 0.00000000 0.80902053
vn 0.00000000 -1.00000000 0.00000000
vn 0.00000000 1.00000000 0.00000000
vn 0.00000000 0.00000000 1.00000000
vn 0.00000000 -1.00000000 0.00000000
vn 0.00000000 1.00000000 -0.00000000
vn 0.58778038 0.00000000 0.80902053
vn 0.00000000 -1.00000000 0.00000000
vn 0.00000000 1.00000000 0.00000000
vn 0.95105606 0.00000000 0.30901839
vn 0.00000000 -1.00000000 0.00000000
vn 0.00000000 1.00000000 0.00000000
vn 0.95105530 0.00000000 -0.30902074
vn 0.00000000 -1.00000000 0.00000000
vn -0.00000000 1.00000000 0.00000000
vn 0.58778543 0.00000000 -0.80901687
vn 0.00000000 -1.00000000 0.00000000
vn 0.00000000 1.00000000 0.00000000
vn 0.00000000 0.00000000 -1.00000000
vn 0.00000000 -1.00000000 -0.00000000
vn 0.00000000 1.00000000 0.00000000
vn -0.58778543 0.00000000 -0.80901687
vn 0.00000000 -1.00000000 0.00000000
vn 0.00000000 1.00000000 0.00000000
vn -0.95105530 0.00000000 -0.30902074
vn -0.00000000 -1.00000000 0.00000000
vn 0.00000000 1.00000000 0.00000000
vn -0.95105530 0.00000000 0.30902074
vn 0.00000000 -1.00000000 0.00000000
vn 0.00000000 1.00000000 0.00000000
vn -0.58778543 0.00000000 0.80901687
vn 0.00000000 -1.00000000 0.00000000
vn 0.00000000 1.00000000 0.00000000
vn 0.00000000 0.00000000 1.00000000
vn 0.00000000 -1.00000000 0.00000000
vn 0.00000000 1.00000000 -0.00000000
vn 0.58778543 0.00000000 0.80901687
vn 0.00000000 -1.00000000 0.00000000
vn 0.00000000 1.00000000 0.00000000
vn 0.95105530 0.00000000 0.30902074
vn 0.00000000 -1.00000000 0.00000000
vn 0.00000000 1.00000000 0.00000000
vn 0.86553341 -0.38267131 0.32313247
vn -0.34973492 0.00004802 0.93684870
vn 0.34973492 -0.00004802 -0.93684870
vn 0.35850724 -0.92388240 0.13384270
vn -0.34977991 0.00000000 0.93683190
vn 0.34977991 0.00000000 -0.93683190
vn -0.35850724 -0.92388240 -0.13384270
vn -0.34977991 0.00000000 0.93683190
vn 0.34977991 0.00000000 -0.93683190
vn -0.86553341 -0.38267131 -0.32313247
vn -0.34973492 -0.00004802 0.93684870
vn 0.34973492 0.00004802 -0.93684870
vn -0.86553341 0.38267131 -0.32313247
vn -0.34973492 0.00004802 0.93684870
vn 0.34973492 -0.00004802 -0.93684870
vn -0.35850724 0.92388240 -0.13384270
vn -0.34977991 0.00000000 0.93683190
vn 0.34977991 0.00000000 -0.93683190
vn 0.35850724 0.92388240 0.13384270
vn -0.34977991 0.00000000 0.93683190
vn 0.34977991 0.00000000 -0.93683190
vn 0.86553341 0.38267131 0.32313247
vn -0.34973492 -0.00004802 0.93684870
vn 0.34973492 0.00004802 -0.93684870
vn 0.00000000 -0.38266922 0.92388542
vn -1.00000000 0.00000000 0.00000000
vn 1.00000000 0.00000000 -0.00000000
vn 0.00000000 -0.92388542 0.38266922
vn -1.00000000 0.00000000 0.00000000
vn 1.00000000 0.00000000 0.00000000
vn 0.00000000 -0.92388542 -0.38266922
vn -1.00000000 -0.00000000 0.00000000
vn 1.00000000 0.00000000 0.00000000
vn 0.00000000 -0.38266922 -0.92388542
vn -1.00000000 0.00000000 -0.00000000
vn 1.00000000 0.00000000 0.00000000
vn 0.00000000 0.38266922 -0.92388542
vn -1.00000000 0.00000000 0.00000000
vn 1.00000000 0.00000000 0.00000000
vn 0.00000000 0.92388542 -0.38266922
vn -1.00000000 0.00000000 0.00000000
vn 1.00000000 -0.00000000 0.00000000
vn 0.00000000 0.92388542 0.38266922
vn -1.00000000 0.00000000 0.00000000
vn 1.00000000 0.00000000 0.00000000
vn 0.00000000 0.38266922 0.92388542
vn -1.00000000 0.00000000 0.00000000
vn 1.00000000 0.00000000 0.00000000
vn -0.92389292 0.00000000 -0.38265111
vn 0.00000000 1.00000000 0.00000000
vn -0.00000000 -1.00000000 0.00000000
vn -0.38265111 0.00000000 -0.92389292
vn 0.00000000 1.00000000 0.00000000
vn 0.00000000 -1.00000000 -0.00000000
vn 0.38265111 0.00000000 -0.92389292
vn 0.00000000 1.00000000 0.00000000
vn 0.00000000 -1.00000000 0.00000000
vn 0.92389292 0.00000000 -0.38265111
vn -0.00000000 1.00000000 0.00000000
vn 0.00000000 -1.00000000 0.00000000
vn 0.92389292 0.00000000 0.38265111
vn 0.00000000 1.00000000 0.00000000
vn 0.00000000 -1.00000000 0.00000000
vn 0.38265111 0.00000000 0.92389292
vn 0.00000000 1.00000000 0.00000000
vn 0.00000000 -1.00000000 0.00000000
vn -0.38265111 0.00000000 0.92389292
vn 0.00000000 1.00000000 -0.00000000
vn 0.00000000 -1.00000000 0.00000000
vn -0.92389292 0.00000000 0.38265111
vn 0.00000000 1.00000000 0.00000000
vn 0.00000000 -1.00000000 0.00000000
vn -0.92389292 -0.38265111 0.00000000
vn -0.00000000 0.00000000 -1.00000000
vn 0.00000000 0.00000000 1.00000000
vn -0.38265111 -0.92389292 0.00000000
vn 0.00000000 -0.00000000 -1.00000000
vn 0.00000000 0.00000000 1.00000000
vn 0.38265111 -0.92389292 0.00000000
vn 0.00000000 0.00000000 -1.00000000
vn 0.00000000 0.00000000 1.00000000
vn 0.92389292 -0.38265111 0.00000000
vn 0.00000000 0.00000000 -1.00000000
vn -0.00000000 0.00000000 1.00000000
vn 0.92389292 0.38265111 0.00000000
vn 0.00000000 0.00000000 -1.00000000
vn 0.00000000 0.00000000 1.00000000
vn 0.38265111 0.92389292 0.00000000
vn 0.00000000 0.00000000 -1.00000000
vn 0.00000000 0.00000000 1.00000000
vn -0.38265111 0.92389292 0.00000000
vn 0.00000000 0.00000000 -1.00000000
vn 0.00000000 -0.00000000 1.00000000
vn -0.92389292 0.38265111 0.00000000
vn 0.00000000 0.00000000 -1.00000000
vn 0.00000000 0.00000000 1.00000000
vn 0.00000000 0.00000000 -1.00000000
vn 0.00000000 0.00000000 1.00000000
vn -1.00000000 0.00000000 0.00000000
vn 1.00000000 0.00000000 0.00000000
vn 0.00000000 -1.00000000 0.00000000
vn 0.00000000 1.00000000 0.00000000
vn -0.22325823 0.94884747 0.22325823
vn -0.22325823 -0.94884747 0.22325823
vn 0.22325823 0.94884747 0.22325823
vn 0.22325823 -0.94884747 0.22325823
vn 0.22325823 0.94884747 -0.22325823
vn 0.22325823 -0.94884747 -0.22325823
vn -0.22325823 0.94884747 -0.22325823
vn -0.22325823 -0.94884747 -0.22325823
vn -0.92389292 0.00000000 -0.38265111
vn 0.00000000 1.00000000 0.00000000
vn -0.00000000 -1.00000000 0.00000000
vn -0.38265111 0.00000000 -0.92389292
vn 0.00000000 1.00000000 0.00000000
vn 0.00000000 -1.00000000 -0.00000000
vn 0.38265111 0.00000000 -0.92389292
vn 0.00000000 1.00000000 0.00000000
vn 0.00000000 -1.00000000 0.00000000
vn 0.92389292 0.00000000 -0.38265111
vn -0.00000000 1.00000000 0.00000000
vn 0.00000000 -1.00000000 0.00000000
vn 0.92389292 0.00000000 0.38265111
vn 0.00000000 1.00000000 0.00000000
vn 0.00000000 -1.00000000 0.00000000
vn 0.38265111 0.00000000 0.92389292
vn 0.00000000 1.00000000 0.00000000
vn 0.00000000 -1.00000000 0.00000000
vn -0.38265111 0.00000000 0.92389292
vn 0.00000000 1.00000000 -0.00000000
vn 0.00000000 -1.00000000 0.00000000
vn -0.92389292 0.00000000 0.38265111
vn 0.00000000 1.00000000 0.00000000
vn 0.00000000 -1.00000000 0.00000000
vn -0.92389292 -0.38265111 0.00000000
vn -0.00000000 0.00000000 -1.00000000
vn 0.00000000 0.00000000 1.00000000
vn -0.38265111 -0.92389292 0.00000000
vn 0.00000000 -0.00000000 -1.00000000
vn 0.00000000 0.00000000 1.00000000
vn 0.38265111 -0.92389292 0.00000000
vn 0.00000000 0.00000000 -1.00000000
vn 0.00000000 0.00000000 1.00000000
vn 0.92389292 -0.38265111 0.00000000
vn 0.00000000 0.00000000 -1.00000000
vn -0.00000000 0.00000000 1.00000000
vn 0.92389292 0.38265111 0.00000000
vn 0.00000000 0.00000000 -1.00000000
vn 0.00000000 0.00000000 1.00000000
vn 0.38265111 0.92389292 0.00000000
vn 0.00000000 0.00000000 -1.00000000
vn 0.00000000 0.00000000 1.00000000
vn -0.38265111 0.92389292 0.00000000
vn 0.00000000 0.00000000 -1.00000000
vn 0.00000000 -0.00000000 1.00000000
vn -0.92389292 0.38265111 0.00000000
vn 0.00000000 0.00000000 -1.00000000
vn 0.00000000 0.00000000 1.00000000
vn 0.00000000 0.00000000 -1.00000000
vn 0.00000000 0.00000000 1.00000000
vn -1.00000000 0.00000000 0.00000000
vn 1.00000000 0.00000000 0.00000000
vn 0.00000000 -1.00000000 0.00000000
vn 0.00000000 1.00000000 0.00000000
vn -0.22325823 0.94884747 0.22325823
vn -0.22325823 -0.94884747 0.22325823
vn 0.22325823 0.94884747 0.22325823
vn 0.22325823 -0.94884747 0.22325823
vn 0.22325823 0.94884747 -0.22325823
vn 0.22325823 -0.94884747 -0.22325823
vn -0.22325823 0.94884747 -0.22325823
vn -0.22325823 -0.94884747 -0.22325823
vn -0.92389292 0.00000000 -0.38265111
vn 0.00000000 1.00000000 0.00000000
vn -0.00000000 -1.00000000 0.00000000
vn -0.38265111 0.00000000 -0.92389292
vn 0.00000000 1.00000000 0.00000000
vn 0.00000000 -1.00000000 -0.00000000
vn 0.38265111 0.00000000 -0.92389292
vn 0.00000000 1.00000000 0.00000000
vn 0.00000000 -1.00000000 0.00000000
vn 0.92389292 0.00000000 -0.38265111
vn -0.00000000 1.00000000 0.00000000
vn 0.00000000 -1.00000000 0.00000000
vn 0.92389292 0.00000000 0.38265111
vn 0.00000000 1.00000000 0.00000000
vn 0.00000000 -1.00000000 0.00000000
vn 0.38265111 0.00000000 0.92389292
vn 0.00000000 1.00000000 0.00000000
vn 0.00000000 -1.00000000 0.00000000
vn -0.38265111 0.00000000 0.92389292
vn 0.00000000 1.00000000 -0.00000000
vn 0.00000000 -1.00000000 0.00000000
vn -0.92389292 0.00000000 0.38265111
vn 0.00000000 1.00000000 0.00000000
vn 0.00000000 -1.00000000 0.00000000
vn -0.92389292 -0.38265111 0.00000000
vn -0.00000000 0.00000000 -1.00000000
vn 0.00000000 0.00000000 1.00000000
vn -0.38265111 -0.92389292 0.00000000
vn 0.00000000 -0.00000000 -1.00000000
vn 0.00000000 0.00000000 1.00000000
vn 0.38265111 -0.92389292 0.00000000
vn 0.00000000 0.00000000 -1.00000000
vn 0.00000000 0.00000000 1.00000000
vn 0.92389292 -0.38265111 0.00000000
vn 0.00000000 0.00000000 -1.00000000
vn -0.00000000 0.00000000 1.00000000
vn 0.92389292 0.38265111 0.00000000
vn 0.00000000 0.00000000 -1.00000000
vn 0.00000000 0.00000000 1.00000000
vn 0.38265111 0.92389292 0.00000000
vn 0.00000000 0.00000000 -1.00000000
vn 0.00000000 0.00000000 1.00000000
vn -0.38265111 0.92389292 0.00000000
vn 0.00000000 0.00000000 -1.00000000
vn 0.00000000 -0.00000000 1.00000000
vn -0.92389292 0.38265111 0.00000000
vn 0.00000000 0.00000000 -1.00000000
vn 0.00000000 0.00000000 1.00000000
vn 0.00000000 0.00000000 -1.00000000
vn 0.00000000 0.00000000 1.00000000
vn -1.00000000 0.00000000 0.00000000
vn 1.00000000 0.00000000 0.00000000
vn 0.00000000 -1.00000000 0.00000000
vn 0.00000000 1.00000000 0.00000000
vn -0.22325823 0.94884747 0.22325823
vn -0.22325823 -0.94884747 0.22325823
vn 0.22325823 0.94884747 0.22325823
vn 0.22325823 -0.94884747 0.22325823
vn 0.22325823 0.94884747 -0.22325823
vn 0.22325823 -0.94884747 -0.22325823
vn -0.22325823 0.94884747 -0.22325823
vn -0.22325823 -0.94884747 -0.22325823
vn 0.00000000 0.00000000 -1.00000000
vn 0.00000000 0.00000000 1.00000000
vn -1.00000000 0.00000000 0.00000000
vn 1.00000000 0.00000000 0.00000000
vn 0.00000000 -1.00000000 0.00000000
vn 0.00000000 1.00000000 0.00000000
f 1/1/1 4/2/1 3/3/1
f 1/1/1 3/3/1 2/4/1
f 5/5/2 6/6/2 7/7/2
f 5/5/2 7/7/2 8/8/2
f 1/9/3 5/10/3 8/11/3
f 1/9/3 8/11/3 4/12/3
f 2/13/4 3/14/4 7/15/4
f 2/13/4 7/15/4 6/16/4
f 1/17/5 2/18/5 6/19/5
f 1/17/5 6/19/5 5/20/5
f 4/21/6 8/22/6 7/23/6
f 4/21/6 7/23/6 3/24/6
f 9/25/7 12/26/7 11/27/7
f 9/25/7 11/27/7 10/28/7
f 13/29/8 14/30/8 15/31/8
f 13/29/8 15/31/8 16/32/8
f 9/33/9 13/34/9 16/35/9
f 9/33/9 16/35/9 12/36/9
f 10/37/10 11/38/10 15/39/10
f 10/37/10 15/39/10 14/40/10
f 9/41/11 10/42/11 14/43/11
f 9/41/11 14/43/11 13/44/11
f 12/45/12 16/46/12 15/47/12
f 12/45/12 15/47/12 11/48/12
f 17/49/13 18/50/13 19/51/13
f 17/49/13 19/51/13 20/52/13
f 21/53/14 18/54/14 17/55/14
f 22/56/15 20/57/15 19/58/15
f 18/59/16 23/60/16 24/61/16
f 18/59/16 24/61/16 19/62/16
f 21/63/17 23/64/17 18/65/17
f 22/66/18 19/67/18 24/68/18
f 23/69/19 25/70/19 26/71/19
f 23/69/19 26/71/19 24/72/19
f 21/73/20 25/74/20 23/75/20
f 22/76/21 24/77/21 26/78/21
f 25/79/22 27/80/22 28/81/22
f 25/79/22 28/81/22 26/82/22
f 21/83/23 27/84/23 25/85/23
f 22/86/24 26/87/24 28/88/24
f 27/89/25 29/90/25 30/91/25
f 27/89/25 30/91/25 28/92/25
f 21/93/26 29/94/26 27/95/26
f 22/96/27 28/97/27 30/98/27
f 29/99/28 31/100/28 32/101/28
f 29/99/28 32/101/28 30/102/28
f 21/103/29 31/104/29 29/105/29
f 22/106/30 30/107/30 32/108/30
f 31/109/31 33/110/31 34/111/31
f 31/109/31 34/111/31 32/112/31
f 21/113/32 33/114/32 31/115/32
f 22/116/33 32/117/33 34/118/33
f 33/119/34 35/120/34 36/121/34
f 33/119/34 36/121/34 34/122/34
f 21/123/35 35/124/35 33/125/35
f 22/126/36 34/127/36 36/128/36
f 35/129/37 37/130/37 38/131/37
f 35/129/37 38/131/37 36/132/37
f 21/133/38 37/134/38 35/135/38
f 22/136/39 36/137/39 38/138/39
f 37/139/40 17/140/40 20/141/40
f 37/139/40 20/141/40 38/142/40
f 21/143/41 17/144/41 37/145/41
f 22/146/42 38/147/42 20/148/42
f 39/149/43 40/150/43 41/151/43
f 39/149/43 41/151/43 42/152/43
f 43/153/44 40/154/44 39/155/44
f 44/156/45 42/157/45 41/158/45
f 40/159/46 45/160/46 46/161/46
f 40/159/46 46/161/46 41/162/46
f 43/163/47 45/164/47 40/165/47
f 44/166/48 41/167/48 46/168/48
f 45/169/49 47/170/49 48/171/49
f 45/169/49 48/171/49 46/172/49
f 43/173/50 47/174/50 45/175/50
f 44/176/51 46/177/51 48/178/51
f 47/179/52 49/180/52 50/181/52
f 47/179/52 50/181/52 48/182/52
f 43/183/53 49/184/53 47/185/53
f 44/186/54 48/187/54 50/188/54
f 49/189/55 51/190/55 52/191/55
f 49/189/55 52/191/55 50/192/55
f 43/193/56 51/194/56 49/195/56
f 44/196/57 50/197/57 52/198/57
f 51/199/58 53/200/58 54/201/58
f 51/199/58 54/201/58 52/202/58
f 43/203/59 53/204/59 51/205/59
f 44/206/60 52/207/60 54/208/60
f 53/209/61 55/210/61 56/211/61
f 53/209/61 56/211/61 54/212/61
f 43/213/62 55/214/62 53/215/62
f 44/216/63 54/217/63 56/218/63
f 55/219/64 57/220/64 58/221/64
f 55/219/64 58/221/64 56/222/64
f 43/223/65 57/224/65 55/225/65
f 44/226/66 56/227/66 58/228/66
f 57/229/67 59/230/67 60/231/67
f 57/229/67 60/231/67 58/232/67
f 43/233/68 59/234/68 57/235/68
f 44/236/69 58/237/69 60/238/69
f 59/239/70 39/240/70 42/241/70
f 59/239/70 42/241/70 60/242/70
f 43/243/71 39/244/71 59/245/71
f 44/246/72 60/247/72 42/248/72
f 61/249/73 62/250/73 63/251/73
f 61/249/73 63/251/73 64/252/73
f 44/253/74 62/254/74 61/255/74
f 65/256/75 64/257/75 63/258/75
f 62/259/76 66/260/76 67/261/76
f 62/259/76 67/261/76 63/262/76
f 44/263/77 66/264/77 62/265/77
f 65/266/78 63/267/78 67/268/78
f 66/269/79 68/270/79 69/271/79
f 66/269/79 69/271/79 67/272/79
f 44/273/80 68/274/80 66/275/80
f 65/276/81 67/277/81 69/278/81
f 68/279/82 70/280/82 71/281/82
f 68/279/82 71/281/82 69/282/82
f 44/283/83 70/284/83 68/285/83
f 65/286/84 69/287/84 71/288/84
f 70/289/85 72/290/85 73/291/85
f 70/289/85 73/291/85 71/292/85
f 44/293/86 72/294/86 70/295/86
f 65/296/87 71/297/87 73/298/87
f 72/299/88 74/300/88 75/301/88
f 72/299/88 75/301/88 73/302/88
f 44/303/89 74/304/89 72/305/89
f 65/306/90 73/307/90 75/308/90
f 74/309/91 76/310/91 77/311/91
f 74/309/91 77/311/91 75/312/91
f 44/313/92 76/314/92 74/315/92
f 65/316/93 75/317/93 77/318/93
f 76/319/94 78/320/94 79/321/94
f 76/319/94 79/321/94 77/322/94
f 44/323/95 78/324/95 76/325/95
f 65/326/96 77/327/96 79/328/96
f 78/329/97 80/330/97 81/331/97
f 78/329/97 81/331/97 79/332/97
f 44/333/98 80/334/98 78/335/98
f 65/336/99 79/337/99 81/338/99
f 80/339/100 61/340/100 64/341/100
f 80/339/100 64/341/100 81/342/100
f 44/343/101 61/344/101 80/345/101
f 65/346/102 81/347/102 64/348/102
f 82/349/103 83/350/103 84/351/103
f 82/349/103 84/351/103 85/352/103
f 86/353/104 83/354/104 82/355/104
f 87/356/105 85/357/105 84/358/105
f 83/359/106 88/360/106 89/361/106
f 83/359/106 89/361/106 84/362/106
f 86/363/107 88/364/107 83/365/107
f 87/366/108 84/367/108 89/368/108
f 88/369/109 90/370/109 91/371/109
f 88/369/109 91/371/109 89/372/109
f 86/373/110 90/374/110 88/375/110
f 87/376/111 89/377/111 91/378/111
f 90/379/112 92/380/112 93/381/112
f 90/379/112 93/381/112 91/382/112
f 86/383/113 92/384/113 90/385/113
f 87/386/114 91/387/114 93/388/114
f 92/389/115 94/390/115 95/391/115
f 92/389/115 95/391/115 93/392/115
f 86/393/116 94/394/116 92/395/116
f 87/396/117 93/397/117 95/398/117
f 94/399/118 96/400/118 97/401/118
f 94/399/118 97/401/118 95/402/118
f 86/403/119 96/404/119 94/405/119
f 87/406/120 95/407/120 97/408/120
f 96/409/121 98/410/121 99/411/121
f 96/409/121 99/411/121 97/412/121
f 86/413/122 98/414/122 96/415/122
f 87/416/123 97/417/123 99/418/123
f 98/419/124 82/420/124 85/421/124
f 98/419/124 85/421/124 99/422/124
f 86/423/125 82/424/125 98/425/125
f 87/426/126 99/427/126 85/428/126
f 100/429/127 101/430/127 102/431/127
f 100/429/127 102/431/127 103/432/127
f 104/433/128 101/434/128 100/435/128
f 105/436/129 103/437/129 102/438/129
f 101/439/130 106/440/130 107/441/130
f 101/439/130 107/441/130 102/442/130
f 104/443/131 106/444/131 101/445/131
f 105/446/132 102/447/132 107/448/132
f 106/449/133 108/450/133 109/451/133
f 106/449/133 109/451/133 107/452/133
f 104/453/134 108/454/134 106/455/134
f 105/456/135 107/457/135 109/458/135
f 108/459/136 110/460/136 111/461/136
f 108/459/136 111/461/136 109/462/136
f 104/463/137 110/464/137 108/465/137
f 105/466/138 109/467/138 111/468/138
f 110/469/139 112/470/139 113/471/139
f 110/469/139 113/471/139 111/472/139
f 104/473/140 112/474/140 110/475/140
f 105/476/141 111/477/141 113/478/141
f 112/479/142 114/480/142 115/481/142
f 112/479/142 115/481/142 113/482/142
f 104/483/143 114/484/143 112/485/143
f 105/486/144 113/487/144 115/488/144
f 114/489/145 116/490/145 117/491/145
f 114/489/145 117/491/145 115/492/145
f 104/493/146 116/494/146 114/495/146
f 105/496/147 115/497/147 117/498/147
f 116/499/148 100/500/148 103/501/148
f 116/499/148 103/501/148 117/502/148
f 104/503/149 100/504/149 116/505/149
f 105/506/150 117/507/150 103/508/150
f 118/509/151 119/510/151 120/511/151
f 118/509/151 120/511/151 121/512/151
f 122/513/152 119/514/152 118/515/152
f 123/516/153 121/517/153 120/518/153
f 119/519/154 124/520/154 125/521/154
f 119/519/154 125/521/154 120/522/154
f 122/523/155 124/524/155 119/525/155
f 123/526/156 120/527/156 125/528/156
f 124/529/157 126/530/157 127/531/157
f 124/529/157 127/531/157 125/532/157
f 122/533/158 126/534/158 124/535/158
f 123/536/159 125/537/159 127/538/159
f 126/539/160 128/540/160 129/541/160
f 126/539/160 129/541/160 127/542/160
f 122/543/161 128/544/161 126/545/161
f 123/546/162 127/547/162 129/548/162
f 128/549/163 130/550/163 131/551/163
f 128/549/163 131/551/163 129/552/163
f 122/553/164 130/554/164 128/555/164
f 123/556/165 129/557/165 131/558/165
f 130/559/166 132/560/166 133/561/166
f 130/559/166 133/561/166 131/562/166
f 122/563/167 132/564/167 130/565/167
f 123/566/168 131/567/168 133/568/168
f 132/569/169 134/570/169 135/571/169
f 132/569/169 135/571/169 133/572/169
f 122/573/170 134/574/170 132/575/170
f 123/576/171 133/577/171 135/578/171
f 134/579/172 118/580/172 121/581/172
f 134/579/172 121/581/172 135/582/172
f 122/583/173 118/584/173 134/585/173
f 123/586/174 135/587/174 121/588/174
f 121/589/175 136/590/175 137/591/175
f 121/589/175 137/591/175 138/592/175
f 123/593/176 136/594/176 121/595/176
f 139/596/177 138/597/177 137/598/177
f 136/599/178 140/600/178 141/601/178
f 136/599/178 141/601/178 137/602/178
f 123/603/179 140/604/179 136/605/179
f 139/606/180 137/607/180 141/608/180
f 140/609/181 142/610/181 143/611/181
f 140/609/181 143/611/181 141/612/181
f 123/613/182 142/614/182 140/615/182
f 139/616/183 141/617/183 143/618/183
f 142/619/184 129/620/184 144/621/184
f 142/619/184 144/621/184 143/622/184
f 123/623/185 129/624/185 142/625/185
f 139/626/186 143/627/186 144/628/186
f 129/629/187 145/630/187 146/631/187
f 129/629/187 146/631/187 144/632/187
f 123/633/188 145/634/188 129/635/188
f 139/636/189 144/637/189 146/638/189
f 145/639/190 147/640/190 148/641/190
f 145/639/190 148/641/190 146/642/190
f 123/643/191 147/644/191 145/645/191
f 139/646/192 146/647/192 148/648/192
f 147/649/193 149/650/193 150/651/193
f 147/649/193 150/651/193 148/652/193
f 123/653/194 149/654/194 147/655/194
f 139/656/195 148/657/195 150/658/195
f 149/659/196 121/660/196 138/661/196
f 149/659/196 138/661/196 150/662/196
f 123/663/197 121/664/197 149/665/197
f 139/666/198 150/667/198 138/668/198
f 151/669/199 154/670/199 153/671/199
f 151/669/199 153/671/199 152/672/199
f 155/673/200 156/674/200 157/675/200
f 155/673/200 157/675/200 158/676/200
f 151/677/201 155/678/201 158/679/201
f 151/677/201 158/679/201 154/680/201
f 152/681/202 153/682/202 157/683/202
f 152/681/202 157/683/202 156/684/202
f 151/685/203 152/686/203 156/687/203
f 151/685/203 156/687/203 155/688/203
f 154/689/204 158/690/204 157/691/204
f 154/689/204 157/691/204 153/692/204
f 159/693/205 160/694/205 161/695/205
f 162/696/206 161/697/206 160/698/206
f 159/699/207 161/700/207 163/701/207
f 162/702/208 163/703/208 161/704/208
f 159/705/209 163/706/209 164/707/209
f 162/708/210 164/709/210 163/710/210
f 159/711/211 164/712/211 160/713/211
f 162/714/212 160/715/212 164/716/212
f 165/717/213 166/718/213 167/719/213
f 165/717/213 167/719/213 168/720/213
f 169/721/214 166/722/214 165/723/214
f 170/724/215 168/725/215 167/726/215
f 166/727/216 171/728/216 172/729/216
f 166/727/216 172/729/216 167/730/216
f 169/731/217 171/732/217 166/733/217
f 170/734/218 167/735/218 172/736/218
f 171/737/219 173/738/219 174/739/219
f 171/737/219 174/739/219 172/740/219
f 169/741/220 173/742/220 171/743/220
f 170/744/221 172/745/221 174/746/221
f 173/747/222 175/748/222 176/749/222
f 173/747/222 176/749/222 174/750/222
f 169/751/223 175/752/223 173/753/223
f 170/754/224 174/755/224 176/756/224
f 175/757/225 177/758/225 178/759/225
f 175/757/225 178/759/225 176/760/225
f 169/761/226 177/762/226 175/763/226
f 170/764/227 176/765/227 178/766/227
f 177/767/228 179/768/228 180/769/228
f 177/767/228 180/769/228 178/770/228
f 169/771/229 179/772/229 177/773/229
f 170/774/230 178/775/230 180/776/230
f 179/777/231 181/778/231 182/779/231
f 179/777/231 182/779/231 180/780/231
f 169/781/232 181/782/232 179/783/232
f 170/784/233 180/785/233 182/786/233
f 181/787/234 165/788/234 168/789/234
f 181/787/234 168/789/234 182/790/234
f 169/791/235 165/792/235 181/793/235
f 170/794/236 182/795/236 168/796/236
f 168/797/237 183/798/237 184/799/237
f 168/797/237 184/799/237 185/800/237
f 170/801/238 183/802/238 168/803/238
f 186/804/239 185/805/239 184/806/239
f 183/807/240 187/808/240 188/809/240
f 183/807/240 188/809/240 184/810/240
f 170/811/241 187/812/241 183/813/241
f 186/814/242 184/815/242 188/816/242
f 187/817/243 189/818/243 190/819/243
f 187/817/243 190/819/243 188/820/243
f 170/821/244 189/822/244 187/823/244
f 186/824/245 188/825/245 190/826/245
f 189/827/246 176/828/246 191/829/246
f 189/827/246 191/829/246 190/830/246
f 170/831/247 176/832/247 189/833/247
f 186/834/248 190/835/248 191/836/248
f 176/837/249 192/838/249 193/839/249
f 176/837/249 193/839/249 191/840/249
f 170/841/250 192/842/250 176/843/250
f 186/844/251 191/845/251 193/846/251
f 192/847/252 194/848/252 195/849/252
f 192/847/252 195/849/252 193/850/252
f 170/851/253 194/852/253 192/853/253
f 186/854/254 193/855/254 195/856/254
f 194/857/255 196/858/255 197/859/255
f 194/857/255 197/859/255 195/860/255
f 170/861/256 196/862/256 194/863/256
f 186/864/257 195/865/257 197/866/257
f 196/867/258 168/868/258 185/869/258
f 196/867/258 185/869/258 197/870/258
f 170/871/259 168/872/259 196/873/259
f 186/874/260 197/875/260 185/876/260
f 198/877/261 201/878/261 200/879/261
f 198/877/261 200/879/261 199/880/261
f 202/881/262 203/882/262 204/883/262
f 202/881/262 204/883/262 205/884/262
f 198/885/263 202/886/263 205/887/263
f 198/885/263 205/887/263 201/888/263
f 199/889/264 200/890/264 204/891/264
f 199/889/264 204/891/264 203/892/264
f 198/893/265 199/894/265 203/895/265
f 198/893/265 203/895/265 202/896/265
f 201/897/266 205/898/266 204/899/266
f 201/897/266 204/899/266 200/900/266
f 206/901/267 207/902/267 208/903/267
f 209/904/268 208/905/268 207/906/268
f 206/907/269 208/908/269 210/909/269
f 209/910/270 210/911/270 208/912/270
f 206/913/271 210/914/271 211/915/271
f 209/916/272 211/917/272 210/918/272
f 206/919/273 211/920/273 207/921/273
f 209/922/274 207/923/274 211/924/274
f 212/925/275 213/926/275 214/927/275
f 212/925/275 214/927/275 215/928/275
f 216/929/276 213/930/276 212/931/276
f 217/932/277 215/933/277 214/934/277
f 213/935/278 218/936/278 219/937/278
f 213/935/278 219/937/278 214/938/278
f 216/939/279 218/940/279 213/941/279
f 217/942/280 214/943/280 219/944/280
f 218/945/281 220/946/281 221/947/281
f 218/945/281 221/947/281 219/948/281
f 216/949/282 220/950/282 218/951/282
f 217/952/283 219/953/283 221/954/283
f 220/955/284 222/956/284 223/957/284
f 220/955/284 223/957/284 221/958/284
f 216/959/285 222/960/285 220/961/285
f 217/962/286 221/963/286 223/964/286
f 222/965/287 224/966/287 225/967/287
f 222/965/287 225/967/287 223/968/287
f 216/969/288 224/970/288 222/971/288
f 217/972/289 223/973/289 225/974/289
f 224/975/290 226/976/290 227/977/290
f 224/975/290 227/977/290 225/978/290
f 216/979/291 226/980/291 224/981/291
f 217/982/292 225/983/292 227/984/292
f 226/985/293 228/986/293 229/987/293
f 226/985/293 229/987/293 227/988/293
f 216/989/294 228/990/294 226/991/294
f 217/992/295 227/993/295 229/994/295
f 228/995/296 212/996/296 215/997/296
f 228/995/296 215/997/296 229/998/296
f 216/999/297 212/1000/297 228/1001/297
f 217/1002/298 229/1003/298 215/1004/298
f 215/1005/299 230/1006/299 231/1007/299
f 215/1005/299 231/1007/299 232/1008/299
f 217/1009/300 230/1010/300 215/1011/300
f 233/1012/301 232/1013/301 231/1014/301
f 230/1015/302 234/1016/302 235/1017/302
f 230/1015/302 235/1017/302 231/1018/302
f 217/1019/303 234/1020/303 230/1021/303
f 233/1022/304 231/1023/304 235/1024/304
f 234/1025/305 236/1026/305 237/1027/305
f 234/1025/305 237/1027/305 235/1028/305
f 217/1029/306 236/1030/306 234/1031/306
f 233/1032/307 235/1033/307 237/1034/307
f 236/1035/308 223/1036/308 238/1037/308
f 236/1035/308 238/1037/308 237/1038/308
f 217/1039/309 223/1040/309 236/1041/309
f 233/1042/310 237/1043/310 238/1044/310
f 223/1045/311 239/1046/311 240/1047/311
f 223/1045/311 240/1047/311 238/1048/311
f 217/1049/312 239/1050/312 223/1051/312
f 233/1052/313 238/1053/313 240/1054/313
f 239/1055/314 241/1056/314 242/1057/314
f 239/1055/314 242/1057/314 240/1058/314
f 217/1059/315 241/1060/315 239/1061/315
f 233/1062/316 240/1063/316 242/1064/316
f 241/1065/317 243/1066/317 244/1067/317
f 241/1065/317 244/1067/317 242/1068/317
f 217/1069/318 243/1070/318 241/1071/318
f 233/1072/319 242/1073/319 244/1074/319
f 243/1075/320 215/1076/320 232/1077/320
f 243/1075/320 232/1077/320 244/1078/320
f 217/1079/321 215/1080/321 243/1081/321
f 233/1082/322 244/1083/322 232/1084/322
f 245/1085/323 248/1086/323 247/1087/323
f 245/1085/323 247/1087/323 246/1088/323
f 249/1089/324 250/1090/324 251/1091/324
f 249/1089/324 251/1091/324 252/1092/324
f 245/1093/325 249/1094/325 252/1095/325
f 245/1093/325 252/1095/325 248/1096/325
f 246/1097/326 247/1098/326 251/1099/326
f 246/1097/326 251/1099/326 250/1100/326
f 245/1101/327 246/1102/327 250/1103/327
f 245/1101/327 250/1103/327 249/1104/327
f 248/1105/328 252/1106/328 251/1107/328
f 248/1105/328 251/1107/328 247/1108/328
f 253/1109/329 254/1110/329 255/1111/329
f 256/1112/330 255/1113/330 254/1114/330
f 253/1115/331 255/1116/331 257/1117/331
f 256/1118/332 257/1119/332 255/1120/332
f 253/1121/333 257/1122/333 258/1123/333
f 256/1124/334 258/1125/334 257/1126/334
f 253/1127/335 258/1128/335 254/1129/335
f 256/1130/336 254/1131/336 258/1132/336
f 259/1133/337 262/1134/337 261/1135/337
f 259/1133/337 261/1135/337 260/1136/337
f 263/1137/338 264/1138/338 265/1139/338
f 263/1137/338 265/1139/338 266/1140/338
f 259/1141/339 263/1142/339 266/1143/339
f 259/1141/339 266/1143/339 262/1144/339
f 260/1145/340 261/1146/340 265/1147/340
f 260/1145/340 265/1147/340 264/1148/340
f 259/1149/341 260/1150/341 264/1151/341
f 259/1149/341 264/1151/341 263/1152/341
f 262/1153/342 266/1154/342 265/1155/342
f 262/1153/342 265/1155/342 261/1156/342
