mtllib TorusSettlementFarm_A71.mtl
v -8.7477244 0.1728048 7.2500000
v -6.5615400 0.0972083 7.2500000
v -6.5615400 0.0972083 -7.2500000
v -8.7477244 0.1728048 -7.2500000
v -6.5615400 0.0972083 7.2500000
v -4.3747155 0.0432054 7.2500000
v -4.3747155 0.0432054 -7.2500000
v -6.5615400 0.0972083 -7.2500000
v -4.3747155 0.0432054 7.2500000
v -2.1874644 0.0108016 7.2500000
v -2.1874644 0.0108016 -7.2500000
v -4.3747155 0.0432054 -7.2500000
v -2.1874644 0.0108016 7.2500000
v 0.0000000 0.0000000 7.2500000
v 0.0000000 0.0000000 -7.2500000
v -2.1874644 0.0108016 -7.2500000
v 0.0000000 0.0000000 7.2500000
v 2.1874644 0.0108016 7.2500000
v 2.1874644 0.0108016 -7.2500000
v 0.0000000 0.0000000 -7.2500000
v 2.1874644 0.0108016 7.2500000
v 4.3747155 0.0432054 7.2500000
v 4.3747155 0.0432054 -7.2500000
v 2.1874644 0.0108016 -7.2500000
v 4.3747155 0.0432054 7.2500000
v 6.5615400 0.0972083 7.2500000
v 6.5615400 0.0972083 -7.2500000
v 4.3747155 0.0432054 -7.2500000
v 6.5615400 0.0972083 7.2500000
v 8.7477244 0.1728048 7.2500000
v 8.7477244 0.1728048 -7.2500000
v 6.5615400 0.0972083 -7.2500000
v -8.7472308 0.1852951 -6.9000000
v -6.5611697 0.1097028 -6.9000000
v -6.5611697 0.1097028 -7.2500000
v -8.7472308 0.1852951 -7.2500000
v -6.5611697 0.1097028 -6.9000000
v -4.3744687 0.0557030 -6.9000000
v -4.3744687 0.0557030 -7.2500000
v -6.5611697 0.1097028 -7.2500000
v -4.3744687 0.0557030 -6.9000000
v -2.1873410 0.0233010 -6.9000000
v -2.1873410 0.0233010 -7.2500000
v -4.3744687 0.0557030 -7.2500000
v -2.1873410 0.0233010 -6.9000000
v 0.0000000 0.0125000 -6.9000000
v 0.0000000 0.0125000 -7.2500000
v -2.1873410 0.0233010 -7.2500000
v 0.0000000 0.0125000 -6.9000000
v 2.1873410 0.0233010 -6.9000000
v 2.1873410 0.0233010 -7.2500000
v 0.0000000 0.0125000 -7.2500000
v 2.1873410 0.0233010 -6.9000000
v 4.3744687 0.0557030 -6.9000000
v 4.3744687 0.0557030 -7.2500000
v 2.1873410 0.0233010 -7.2500000
v 4.3744687 0.0557030 -6.9000000
v 6.5611697 0.1097028 -6.9000000
v 6.5611697 0.1097028 -7.2500000
v 4.3744687 0.0557030 -7.2500000
v 6.5611697 0.1097028 -6.9000000
v 8.7472308 0.1852951 -6.9000000
v 8.7472308 0.1852951 -7.2500000
v 6.5611697 0.1097028 -7.2500000
v -8.7472308 0.1852951 7.2500000
v -6.5611697 0.1097028 7.2500000
v -6.5611697 0.1097028 6.9000000
v -8.7472308 0.1852951 6.9000000
v -6.5611697 0.1097028 7.2500000
v -4.3744687 0.0557030 7.2500000
v -4.3744687 0.0557030 6.9000000
v -6.5611697 0.1097028 6.9000000
v -4.3744687 0.0557030 7.2500000
v -2.1873410 0.0233010 7.2500000
v -2.1873410 0.0233010 6.9000000
v -4.3744687 0.0557030 6.9000000
v -2.1873410 0.0233010 7.2500000
v 0.0000000 0.0125000 7.2500000
v 0.0000000 0.0125000 6.9000000
v -2.1873410 0.0233010 6.9000000
v 0.0000000 0.0125000 7.2500000
v 2.1873410 0.0233010 7.2500000
v 2.1873410 0.0233010 6.9000000
v 0.0000000 0.0125000 6.9000000
v 2.1873410 0.0233010 7.2500000
v 4.3744687 0.0557030 7.2500000
v 4.3744687 0.0557030 6.9000000
v 2.1873410 0.0233010 6.9000000
v 4.3744687 0.0557030 7.2500000
v 6.5611697 0.1097028 7.2500000
v 6.5611697 0.1097028 6.9000000
v 4.3744687 0.0557030 6.9000000
v 6.5611697 0.1097028 7.2500000
v 8.7472308 0.1852951 7.2500000
v 8.7472308 0.1852951 6.9000000
v 6.5611697 0.1097028 6.9000000
v -0.2999830 0.0127031 7.2500000
v 0.2999830 0.0127031 7.2500000
v 0.2999830 0.0127031 -7.2500000
v -0.2999830 0.0127031 -7.2500000
v -7.7448893 0.9484429 -1.0875000
v -2.0175438 0.8217225 -1.0875000
v -2.0175438 0.8217225 -5.5825000
v -7.7448893 0.9484429 -5.5825000
v -7.7448893 0.9484429 -5.5825000
v -2.0175438 0.8217225 -5.5825000
v -2.0248575 0.0217559 -5.5825000
v -7.7729648 0.1489357 -5.5825000
v -2.0175438 0.8217225 -5.5825000
v -2.0175438 0.8217225 -1.0875000
v -2.0248575 0.0217559 -1.0875000
v -2.0248575 0.0217559 -5.5825000
v -2.0175438 0.8217225 -1.0875000
v -7.7448893 0.9484429 -1.0875000
v -7.7729648 0.1489357 -1.0875000
v -2.0248575 0.0217559 -1.0875000
v -7.7448893 0.9484429 -1.0875000
v -7.7448893 0.9484429 -5.5825000
v -7.7729648 0.1489357 -5.5825000
v -7.7729648 0.1489357 -1.0875000
v -7.7645011 1.0992254 -3.3350000
v -5.8404909 1.0398504 -3.3350000
v -5.8444633 0.8899030 -5.6075000
v -7.7697822 0.9493184 -5.6075000
v -7.7697822 0.9493184 -1.0625000
v -5.8444633 0.8899030 -1.0625000
v -5.8404909 1.0398504 -3.3350000
v -7.7645011 1.0992254 -3.3350000
v -5.8404909 1.0398504 -3.3350000
v -3.9160357 0.9972708 -3.3350000
v -3.9186992 0.8472945 -5.6075000
v -5.8444633 0.8899030 -5.6075000
v -5.8444633 0.8899030 -1.0625000
v -3.9186992 0.8472945 -1.0625000
v -3.9160357 0.9972708 -3.3350000
v -5.8404909 1.0398504 -3.3350000
v -3.9160357 0.9972708 -3.3350000
v -1.9912822 0.9714900 -3.3350000
v -1.9926366 0.8214962 -5.6075000
v -3.9186992 0.8472945 -5.6075000
v -3.9186992 0.8472945 -1.0625000
v -1.9926366 0.8214962 -1.0625000
v -1.9912822 0.9714900 -3.3350000
v -3.9160357 0.9972708 -3.3350000
v -7.7727893 0.1539326 -0.8375000
v -5.8571876 0.0949613 -0.8375000
v -5.8571876 0.0949613 -1.0625000
v -7.7727893 0.1539326 -1.0625000
v -5.8571876 0.0949613 -0.8375000
v -3.9411472 0.0525679 -0.8375000
v -3.9411472 0.0525679 -1.0625000
v -5.8571876 0.0949613 -1.0625000
v -3.9411472 0.0525679 -0.8375000
v -2.0248118 0.0267557 -0.8375000
v -2.0248118 0.0267557 -1.0625000
v -3.9411472 0.0525679 -1.0625000
v 2.0175438 0.8217225 -1.0875000
v 7.7448893 0.9484429 -1.0875000
v 7.7448893 0.9484429 -5.5825000
v 2.0175438 0.8217225 -5.5825000
v 2.0175438 0.8217225 -5.5825000
v 7.7448893 0.9484429 -5.5825000
v 7.7729648 0.1489357 -5.5825000
v 2.0248575 0.0217559 -5.5825000
v 7.7448893 0.9484429 -5.5825000
v 7.7448893 0.9484429 -1.0875000
v 7.7729648 0.1489357 -1.0875000
v 7.7729648 0.1489357 -5.5825000
v 7.7448893 0.9484429 -1.0875000
v 2.0175438 0.8217225 -1.0875000
v 2.0248575 0.0217559 -1.0875000
v 7.7729648 0.1489357 -1.0875000
v 2.0175438 0.8217225 -1.0875000
v 2.0175438 0.8217225 -5.5825000
v 2.0248575 0.0217559 -5.5825000
v 2.0248575 0.0217559 -1.0875000
v 1.9912822 0.9714900 -3.3350000
v 3.9160357 0.9972708 -3.3350000
v 3.9186992 0.8472945 -5.6075000
v 1.9926366 0.8214962 -5.6075000
v 1.9926366 0.8214962 -1.0625000
v 3.9186992 0.8472945 -1.0625000
v 3.9160357 0.9972708 -3.3350000
v 1.9912822 0.9714900 -3.3350000
v 3.9160357 0.9972708 -3.3350000
v 5.8404909 1.0398504 -3.3350000
v 5.8444633 0.8899030 -5.6075000
v 3.9186992 0.8472945 -5.6075000
v 3.9186992 0.8472945 -1.0625000
v 5.8444633 0.8899030 -1.0625000
v 5.8404909 1.0398504 -3.3350000
v 3.9160357 0.9972708 -3.3350000
v 5.8404909 1.0398504 -3.3350000
v 7.7645011 1.0992254 -3.3350000
v 7.7697822 0.9493184 -5.6075000
v 5.8444633 0.8899030 -5.6075000
v 5.8444633 0.8899030 -1.0625000
v 7.7697822 0.9493184 -1.0625000
v 7.7645011 1.0992254 -3.3350000
v 5.8404909 1.0398504 -3.3350000
v 2.0248118 0.0267557 -0.8375000
v 3.9411472 0.0525679 -0.8375000
v 3.9411472 0.0525679 -1.0625000
v 2.0248118 0.0267557 -1.0625000
v 3.9411472 0.0525679 -0.8375000
v 5.8571876 0.0949613 -0.8375000
v 5.8571876 0.0949613 -1.0625000
v 3.9411472 0.0525679 -1.0625000
v 5.8571876 0.0949613 -0.8375000
v 7.7727893 0.1539326 -0.8375000
v 7.7727893 0.1539326 -1.0625000
v 5.8571876 0.0949613 -1.0625000
v -8.3965649 0.1967316 6.9000000
v -6.3792871 0.1293976 6.9000000
v -6.3792871 0.1293976 1.7400000
v -8.3965649 0.1967316 1.7400000
v -6.3792871 0.1293976 6.9000000
v -4.3614794 0.0804516 6.9000000
v -4.3614794 0.0804516 1.7400000
v -6.3792871 0.1293976 1.7400000
v -4.3614794 0.0804516 6.9000000
v -2.3433095 0.0498977 6.9000000
v -2.3433095 0.0498977 1.7400000
v -4.3614794 0.0804516 1.7400000
v -2.3433095 0.0498977 6.9000000
v -0.3249449 0.0377384 6.9000000
v -0.3249449 0.0377384 1.7400000
v -2.3433095 0.0498977 1.7400000
v 0.3249449 0.0377384 6.9000000
v 2.3433095 0.0498977 6.9000000
v 2.3433095 0.0498977 1.7400000
v 0.3249449 0.0377384 1.7400000
v 2.3433095 0.0498977 6.9000000
v 4.3614794 0.0804516 6.9000000
v 4.3614794 0.0804516 1.7400000
v 2.3433095 0.0498977 1.7400000
v 4.3614794 0.0804516 6.9000000
v 6.3792871 0.1293976 6.9000000
v 6.3792871 0.1293976 1.7400000
v 4.3614794 0.0804516 1.7400000
v 6.3792871 0.1293976 6.9000000
v 8.3965649 0.1967316 6.9000000
v 8.3965649 0.1967316 1.7400000
v 6.3792871 0.1293976 1.7400000
v -5.5790252 0.3828712 3.8125000
v -5.2046656 0.3737428 3.8125000
v -5.2046656 0.3737428 3.4375000
v -5.5790252 0.3828712 3.4375000
v -5.5790252 0.3828712 3.4375000
v -5.2046656 0.3737428 3.4375000
v -5.2117248 0.0738259 3.4375000
v -5.5865921 0.0829667 3.4375000
v -5.2046656 0.3737428 3.4375000
v -5.2046656 0.3737428 3.8125000
v -5.2117248 0.0738259 3.8125000
v -5.2117248 0.0738259 3.4375000
v -5.2046656 0.3737428 3.8125000
v -5.5790252 0.3828712 3.8125000
v -5.5865921 0.0829667 3.8125000
v -5.2117248 0.0738259 3.8125000
v -5.5790252 0.3828712 3.8125000
v -5.5790252 0.3828712 3.4375000
v -5.5865921 0.0829667 3.4375000
v -5.5865921 0.0829667 3.8125000
v -5.0798757 0.3708409 3.8125000
v -4.7054964 0.3625575 3.8125000
v -4.7054964 0.3625575 3.4375000
v -5.0798757 0.3708409 3.4375000
v -5.0798757 0.3708409 3.4375000
v -4.7054964 0.3625575 3.4375000
v -4.7118786 0.0626254 3.4375000
v -5.0867656 0.0709200 3.4375000
v -4.7054964 0.3625575 3.4375000
v -4.7054964 0.3625575 3.8125000
v -4.7118786 0.0626254 3.8125000
v -4.7118786 0.0626254 3.4375000
v -4.7054964 0.3625575 3.8125000
v -5.0798757 0.3708409 3.8125000
v -5.0867656 0.0709200 3.8125000
v -4.7118786 0.0626254 3.8125000
v -5.0798757 0.3708409 3.8125000
v -5.0798757 0.3708409 3.4375000
v -5.0867656 0.0709200 3.4375000
v -5.0867656 0.0709200 3.8125000
v -4.5807003 0.3599373 3.8125000
v -4.2063033 0.3524991 3.8125000
v -4.2063033 0.3524991 3.4375000
v -4.5807003 0.3599373 3.4375000
v -4.5807003 0.3599373 3.4375000
v -4.2063033 0.3524991 3.4375000
v -4.2120084 0.0525533 3.4375000
v -4.5869132 0.0600016 3.4375000
v -4.2063033 0.3524991 3.4375000
v -4.2063033 0.3524991 3.8125000
v -4.2120084 0.0525533 3.8125000
v -4.2120084 0.0525533 3.4375000
v -4.2063033 0.3524991 3.8125000
v -4.5807003 0.3599373 3.8125000
v -4.5869132 0.0600016 3.8125000
v -4.2120084 0.0525533 3.8125000
v -4.5807003 0.3599373 3.8125000
v -4.5807003 0.3599373 3.4375000
v -4.5869132 0.0600016 3.4375000
v -4.5869132 0.0600016 3.8125000
v 4.2063033 0.3524991 3.8125000
v 4.5807003 0.3599373 3.8125000
v 4.5807003 0.3599373 3.4375000
v 4.2063033 0.3524991 3.4375000
v 4.2063033 0.3524991 3.4375000
v 4.5807003 0.3599373 3.4375000
v 4.5869132 0.0600016 3.4375000
v 4.2120084 0.0525533 3.4375000
v 4.5807003 0.3599373 3.4375000
v 4.5807003 0.3599373 3.8125000
v 4.5869132 0.0600016 3.8125000
v 4.5869132 0.0600016 3.4375000
v 4.5807003 0.3599373 3.8125000
v 4.2063033 0.3524991 3.8125000
v 4.2120084 0.0525533 3.8125000
v 4.5869132 0.0600016 3.8125000
v 4.2063033 0.3524991 3.8125000
v 4.2063033 0.3524991 3.4375000
v 4.2120084 0.0525533 3.4375000
v 4.2120084 0.0525533 3.8125000
v 4.7054964 0.3625575 3.8125000
v 5.0798757 0.3708409 3.8125000
v 5.0798757 0.3708409 3.4375000
v 4.7054964 0.3625575 3.4375000
v 4.7054964 0.3625575 3.4375000
v 5.0798757 0.3708409 3.4375000
v 5.0867656 0.0709200 3.4375000
v 4.7118786 0.0626254 3.4375000
v 5.0798757 0.3708409 3.4375000
v 5.0798757 0.3708409 3.8125000
v 5.0867656 0.0709200 3.8125000
v 5.0867656 0.0709200 3.4375000
v 5.0798757 0.3708409 3.8125000
v 4.7054964 0.3625575 3.8125000
v 4.7118786 0.0626254 3.8125000
v 5.0867656 0.0709200 3.8125000
v 4.7054964 0.3625575 3.8125000
v 4.7054964 0.3625575 3.4375000
v 4.7118786 0.0626254 3.4375000
v 4.7118786 0.0626254 3.8125000
v 5.2046656 0.3737428 3.8125000
v 5.5790252 0.3828712 3.8125000
v 5.5790252 0.3828712 3.4375000
v 5.2046656 0.3737428 3.4375000
v 5.2046656 0.3737428 3.4375000
v 5.5790252 0.3828712 3.4375000
v 5.5865921 0.0829667 3.4375000
v 5.2117248 0.0738259 3.4375000
v 5.5790252 0.3828712 3.4375000
v 5.5790252 0.3828712 3.8125000
v 5.5865921 0.0829667 3.8125000
v 5.5865921 0.0829667 3.4375000
v 5.5790252 0.3828712 3.8125000
v 5.2046656 0.3737428 3.8125000
v 5.2117248 0.0738259 3.8125000
v 5.5865921 0.0829667 3.8125000
v 5.2046656 0.3737428 3.8125000
v 5.2046656 0.3737428 3.4375000
v 5.2117248 0.0738259 3.4375000
v 5.2117248 0.0738259 3.8125000
vt 0.005000 0.995000
vt 0.245000 0.995000
vt 0.245000 0.755000
vt 0.255000 0.995000
vt 0.495000 0.995000
vt 0.495000 0.755000
vt 0.505000 0.995000
vt 0.745000 0.995000
vt 0.745000 0.755000
vt 0.755000 0.995000
vt 0.995000 0.995000
vt 0.995000 0.755000
vt 0.005000 0.745000
vt 0.245000 0.745000
vt 0.245000 0.505000
vt 0.255000 0.745000
vt 0.495000 0.745000
vt 0.495000 0.505000
vt 0.505000 0.745000
vt 0.745000 0.745000
vt 0.745000 0.505000
vt 0.755000 0.745000
vt 0.995000 0.745000
vt 0.995000 0.505000
vt 0.005000 0.495000
vt 0.245000 0.495000
vt 0.245000 0.255000
vt 0.255000 0.495000
vt 0.495000 0.495000
vt 0.495000 0.255000
vt 0.505000 0.495000
vt 0.745000 0.495000
vt 0.745000 0.255000
vt 0.755000 0.495000
vt 0.995000 0.495000
vt 0.995000 0.255000
vt 0.005000 0.245000
vt 0.245000 0.245000
vt 0.245000 0.005000
vt 0.255000 0.245000
vt 0.495000 0.245000
vt 0.495000 0.005000
vt 0.505000 0.245000
vt 0.745000 0.245000
vt 0.745000 0.005000
vt 0.755000 0.245000
vt 0.995000 0.245000
vt 0.995000 0.005000
g ornament
usemtl farm-kit
f 121/31 122/32 123/33
f 121/31 123/32 124/33
f 125/31 126/32 127/33
f 125/31 127/32 128/33
f 129/31 130/32 131/33
f 129/31 131/32 132/33
f 133/31 134/32 135/33
f 133/31 135/32 136/33
f 137/31 138/32 139/33
f 137/31 139/32 140/33
f 141/31 142/32 143/33
f 141/31 143/32 144/33
f 177/31 178/32 179/33
f 177/31 179/32 180/33
f 181/31 182/32 183/33
f 181/31 183/32 184/33
f 185/31 186/32 187/33
f 185/31 187/32 188/33
f 189/31 190/32 191/33
f 189/31 191/32 192/33
f 193/31 194/32 195/33
f 193/31 195/32 196/33
f 197/31 198/32 199/33
f 197/31 199/32 200/33
f 213/4 214/5 215/6
f 213/4 215/5 216/6
f 217/4 218/5 219/6
f 217/4 219/5 220/6
f 221/4 222/5 223/6
f 221/4 223/5 224/6
f 225/4 226/5 227/6
f 225/4 227/5 228/6
f 229/4 230/5 231/6
f 229/4 231/5 232/6
f 233/4 234/5 235/6
f 233/4 235/5 236/6
f 237/4 238/5 239/6
f 237/4 239/5 240/6
f 241/4 242/5 243/6
f 241/4 243/5 244/6
g solid
usemtl farm-kit
f 101/28 102/29 103/30
f 101/28 103/29 104/30
f 105/28 106/29 107/30
f 105/28 107/29 108/30
f 109/28 110/29 111/30
f 109/28 111/29 112/30
f 113/28 114/29 115/30
f 113/28 115/29 116/30
f 117/28 118/29 119/30
f 117/28 119/29 120/30
f 157/28 158/29 159/30
f 157/28 159/29 160/30
f 161/28 162/29 163/30
f 161/28 163/29 164/30
f 165/28 166/29 167/30
f 165/28 167/29 168/30
f 169/28 170/29 171/30
f 169/28 171/29 172/30
f 173/28 174/29 175/30
f 173/28 175/29 176/30
f 245/34 246/35 247/36
f 245/34 247/35 248/36
f 249/34 250/35 251/36
f 249/34 251/35 252/36
f 253/34 254/35 255/36
f 253/34 255/35 256/36
f 257/34 258/35 259/36
f 257/34 259/35 260/36
f 261/34 262/35 263/36
f 261/34 263/35 264/36
f 265/34 266/35 267/36
f 265/34 267/35 268/36
f 269/34 270/35 271/36
f 269/34 271/35 272/36
f 273/34 274/35 275/36
f 273/34 275/35 276/36
f 277/34 278/35 279/36
f 277/34 279/35 280/36
f 281/34 282/35 283/36
f 281/34 283/35 284/36
f 285/34 286/35 287/36
f 285/34 287/35 288/36
f 289/34 290/35 291/36
f 289/34 291/35 292/36
f 293/34 294/35 295/36
f 293/34 295/35 296/36
f 297/34 298/35 299/36
f 297/34 299/35 300/36
f 301/34 302/35 303/36
f 301/34 303/35 304/36
f 305/34 306/35 307/36
f 305/34 307/35 308/36
f 309/34 310/35 311/36
f 309/34 311/35 312/36
f 313/34 314/35 315/36
f 313/34 315/35 316/36
f 317/34 318/35 319/36
f 317/34 319/35 320/36
f 321/34 322/35 323/36
f 321/34 323/35 324/36
f 325/34 326/35 327/36
f 325/34 327/35 328/36
f 329/34 330/35 331/36
f 329/34 331/35 332/36
f 333/34 334/35 335/36
f 333/34 335/35 336/36
f 337/34 338/35 339/36
f 337/34 339/35 340/36
f 341/34 342/35 343/36
f 341/34 343/35 344/36
f 345/34 346/35 347/36
f 345/34 347/35 348/36
f 349/34 350/35 351/36
f 349/34 351/35 352/36
f 353/34 354/35 355/36
f 353/34 355/35 356/36
f 357/34 358/35 359/36
f 357/34 359/35 360/36
f 361/34 362/35 363/36
f 361/34 363/35 364/36
g support
usemtl farm-kit
f 1/1 2/2 3/3
f 1/1 3/2 4/3
f 5/1 6/2 7/3
f 5/1 7/2 8/3
f 9/1 10/2 11/3
f 9/1 11/2 12/3
f 13/1 14/2 15/3
f 13/1 15/2 16/3
f 17/1 18/2 19/3
f 17/1 19/2 20/3
f 21/1 22/2 23/3
f 21/1 23/2 24/3
f 25/1 26/2 27/3
f 25/1 27/2 28/3
f 29/1 30/2 31/3
f 29/1 31/2 32/3
f 33/4 34/5 35/6
f 33/4 35/5 36/6
f 37/4 38/5 39/6
f 37/4 39/5 40/6
f 41/4 42/5 43/6
f 41/4 43/5 44/6
f 45/4 46/5 47/6
f 45/4 47/5 48/6
f 49/4 50/5 51/6
f 49/4 51/5 52/6
f 53/4 54/5 55/6
f 53/4 55/5 56/6
f 57/4 58/5 59/6
f 57/4 59/5 60/6
f 61/4 62/5 63/6
f 61/4 63/5 64/6
f 65/4 66/5 67/6
f 65/4 67/5 68/6
f 69/4 70/5 71/6
f 69/4 71/5 72/6
f 73/4 74/5 75/6
f 73/4 75/5 76/6
f 77/4 78/5 79/6
f 77/4 79/5 80/6
f 81/4 82/5 83/6
f 81/4 83/5 84/6
f 85/4 86/5 87/6
f 85/4 87/5 88/6
f 89/4 90/5 91/6
f 89/4 91/5 92/6
f 93/4 94/5 95/6
f 93/4 95/5 96/6
f 97/4 98/5 99/6
f 97/4 99/5 100/6
f 145/4 146/5 147/6
f 145/4 147/5 148/6
f 149/4 150/5 151/6
f 149/4 151/5 152/6
f 153/4 154/5 155/6
f 153/4 155/5 156/6
f 201/4 202/5 203/6
f 201/4 203/5 204/6
f 205/4 206/5 207/6
f 205/4 207/5 208/6
f 209/4 210/5 211/6
f 209/4 211/5 212/6
