mtllib TorusSettlementFarm_A22.mtl
v -8.7474684 0.1822653 4.2500000
v -6.5614319 0.1025307 4.2500000
v -6.5614319 0.1025307 -4.2500000
v -8.7474684 0.1822653 -4.2500000
v -6.5614319 0.1025307 4.2500000
v -4.3746835 0.0455713 4.2500000
v -4.3746835 0.0455713 -4.2500000
v -6.5614319 0.1025307 -4.2500000
v -4.3746835 0.0455713 4.2500000
v -2.1874604 0.0113931 4.2500000
v -2.1874604 0.0113931 -4.2500000
v -4.3746835 0.0455713 -4.2500000
v -2.1874604 0.0113931 4.2500000
v 0.0000000 0.0000000 4.2500000
v 0.0000000 0.0000000 -4.2500000
v -2.1874604 0.0113931 -4.2500000
v 0.0000000 0.0000000 4.2500000
v 2.1874604 0.0113931 4.2500000
v 2.1874604 0.0113931 -4.2500000
v 0.0000000 0.0000000 -4.2500000
v 2.1874604 0.0113931 4.2500000
v 4.3746835 0.0455713 4.2500000
v 4.3746835 0.0455713 -4.2500000
v 2.1874604 0.0113931 -4.2500000
v 4.3746835 0.0455713 4.2500000
v 6.5614319 0.1025307 4.2500000
v 6.5614319 0.1025307 -4.2500000
v 4.3746835 0.0455713 -4.2500000
v 6.5614319 0.1025307 4.2500000
v 8.7474684 0.1822653 4.2500000
v 8.7474684 0.1822653 -4.2500000
v 6.5614319 0.1025307 -4.2500000
v -8.7469477 0.1947544 -3.9000000
v -6.5610414 0.1150246 -3.9000000
v -6.5610414 0.1150246 -4.2500000
v -8.7469477 0.1947544 -4.2500000
v -6.5610414 0.1150246 -3.9000000
v -4.3744231 0.0580686 -3.9000000
v -4.3744231 0.0580686 -4.2500000
v -6.5610414 0.1150246 -4.2500000
v -4.3744231 0.0580686 -3.9000000
v -2.1873302 0.0238924 -3.9000000
v -2.1873302 0.0238924 -4.2500000
v -4.3744231 0.0580686 -4.2500000
v -2.1873302 0.0238924 -3.9000000
v 0.0000000 0.0125000 -3.9000000
v 0.0000000 0.0125000 -4.2500000
v -2.1873302 0.0238924 -4.2500000
v 0.0000000 0.0125000 -3.9000000
v 2.1873302 0.0238924 -3.9000000
v 2.1873302 0.0238924 -4.2500000
v 0.0000000 0.0125000 -4.2500000
v 2.1873302 0.0238924 -3.9000000
v 4.3744231 0.0580686 -3.9000000
v 4.3744231 0.0580686 -4.2500000
v 2.1873302 0.0238924 -4.2500000
v 4.3744231 0.0580686 -3.9000000
v 6.5610414 0.1150246 -3.9000000
v 6.5610414 0.1150246 -4.2500000
v 4.3744231 0.0580686 -4.2500000
v 6.5610414 0.1150246 -3.9000000
v 8.7469477 0.1947544 -3.9000000
v 8.7469477 0.1947544 -4.2500000
v 6.5610414 0.1150246 -4.2500000
v -8.7469477 0.1947544 4.2500000
v -6.5610414 0.1150246 4.2500000
v -6.5610414 0.1150246 3.9000000
v -8.7469477 0.1947544 3.9000000
v -6.5610414 0.1150246 4.2500000
v -4.3744231 0.0580686 4.2500000
v -4.3744231 0.0580686 3.9000000
v -6.5610414 0.1150246 3.9000000
v -4.3744231 0.0580686 4.2500000
v -2.1873302 0.0238924 4.2500000
v -2.1873302 0.0238924 3.9000000
v -4.3744231 0.0580686 3.9000000
v -2.1873302 0.0238924 4.2500000
v 0.0000000 0.0125000 4.2500000
v 0.0000000 0.0125000 3.9000000
v -2.1873302 0.0238924 3.9000000
v 0.0000000 0.0125000 4.2500000
v 2.1873302 0.0238924 4.2500000
v 2.1873302 0.0238924 3.9000000
v 0.0000000 0.0125000 3.9000000
v 2.1873302 0.0238924 4.2500000
v 4.3744231 0.0580686 4.2500000
v 4.3744231 0.0580686 3.9000000
v 2.1873302 0.0238924 3.9000000
v 4.3744231 0.0580686 4.2500000
v 6.5610414 0.1150246 4.2500000
v 6.5610414 0.1150246 3.9000000
v 4.3744231 0.0580686 3.9000000
v 6.5610414 0.1150246 4.2500000
v 8.7469477 0.1947544 4.2500000
v 8.7469477 0.1947544 3.9000000
v 6.5610414 0.1150246 3.9000000
v -0.2999820 0.0127143 4.2500000
v 0.2999820 0.0127143 4.2500000
v 0.2999820 0.0127143 -4.2500000
v -0.2999820 0.0127143 -4.2500000
v -8.3887626 0.3927976 -3.7105714
v -6.3734320 0.3218419 -3.7105714
v -6.3783691 0.1594169 -3.9000000
v -8.3952608 0.2304276 -3.9000000
v -8.3952608 0.2304276 -3.5211429
v -6.3783691 0.1594169 -3.5211429
v -6.3734320 0.3218419 -3.7105714
v -8.3887626 0.3927976 -3.7105714
v -6.3734320 0.3218419 -3.7105714
v -4.3575125 0.2702627 -3.7105714
v -4.3608880 0.1077978 -3.9000000
v -6.3783691 0.1594169 -3.9000000
v -6.3783691 0.1594169 -3.5211429
v -4.3608880 0.1077978 -3.5211429
v -4.3575125 0.2702627 -3.7105714
v -6.3734320 0.3218419 -3.7105714
v -4.3575125 0.2702627 -3.7105714
v -2.3411902 0.2380648 -3.7105714
v -2.3430038 0.0755749 -3.9000000
v -4.3608880 0.1077978 -3.9000000
v -4.3608880 0.1077978 -3.5211429
v -2.3430038 0.0755749 -3.5211429
v -2.3411902 0.2380648 -3.7105714
v -4.3575125 0.2702627 -3.7105714
v -2.3411902 0.2380648 -3.7105714
v -0.3246517 0.2252512 -3.7105714
v -0.3249031 0.0627514 -3.9000000
v -2.3430038 0.0755749 -3.9000000
v -2.3430038 0.0755749 -3.5211429
v -0.3249031 0.0627514 -3.5211429
v -0.3246517 0.2252512 -3.7105714
v -2.3411902 0.2380648 -3.7105714
v 0.3246517 0.2252512 -3.7105714
v 2.3411902 0.2380648 -3.7105714
v 2.3430038 0.0755749 -3.9000000
v 0.3249031 0.0627514 -3.9000000
v 0.3249031 0.0627514 -3.5211429
v 2.3430038 0.0755749 -3.5211429
v 2.3411902 0.2380648 -3.7105714
v 0.3246517 0.2252512 -3.7105714
v 2.3411902 0.2380648 -3.7105714
v 4.3575125 0.2702627 -3.7105714
v 4.3608880 0.1077978 -3.9000000
v 2.3430038 0.0755749 -3.9000000
v 2.3430038 0.0755749 -3.5211429
v 4.3608880 0.1077978 -3.5211429
v 4.3575125 0.2702627 -3.7105714
v 2.3411902 0.2380648 -3.7105714
v 4.3575125 0.2702627 -3.7105714
v 6.3734320 0.3218419 -3.7105714
v 6.3783691 0.1594169 -3.9000000
v 4.3608880 0.1077978 -3.9000000
v 4.3608880 0.1077978 -3.5211429
v 6.3783691 0.1594169 -3.5211429
v 6.3734320 0.3218419 -3.7105714
v 4.3575125 0.2702627 -3.7105714
v 6.3734320 0.3218419 -3.7105714
v 8.3887626 0.3927976 -3.7105714
v 8.3952608 0.2304276 -3.9000000
v 6.3783691 0.1594169 -3.9000000
v 6.3783691 0.1594169 -3.5211429
v 8.3952608 0.2304276 -3.5211429
v 8.3887626 0.3927976 -3.7105714
v 6.3734320 0.3218419 -3.7105714
v -8.3887626 0.3927976 -3.1534286
v -6.3734320 0.3218419 -3.1534286
v -6.3783691 0.1594169 -3.3428571
v -8.3952608 0.2304276 -3.3428571
v -8.3952608 0.2304276 -2.9640000
v -6.3783691 0.1594169 -2.9640000
v -6.3734320 0.3218419 -3.1534286
v -8.3887626 0.3927976 -3.1534286
v -6.3734320 0.3218419 -3.1534286
v -4.3575125 0.2702627 -3.1534286
v -4.3608880 0.1077978 -3.3428571
v -6.3783691 0.1594169 -3.3428571
v -6.3783691 0.1594169 -2.9640000
v -4.3608880 0.1077978 -2.9640000
v -4.3575125 0.2702627 -3.1534286
v -6.3734320 0.3218419 -3.1534286
v -4.3575125 0.2702627 -3.1534286
v -2.3411902 0.2380648 -3.1534286
v -2.3430038 0.0755749 -3.3428571
v -4.3608880 0.1077978 -3.3428571
v -4.3608880 0.1077978 -2.9640000
v -2.3430038 0.0755749 -2.9640000
v -2.3411902 0.2380648 -3.1534286
v -4.3575125 0.2702627 -3.1534286
v -2.3411902 0.2380648 -3.1534286
v -0.3246517 0.2252512 -3.1534286
v -0.3249031 0.0627514 -3.3428571
v -2.3430038 0.0755749 -3.3428571
v -2.3430038 0.0755749 -2.9640000
v -0.3249031 0.0627514 -2.9640000
v -0.3246517 0.2252512 -3.1534286
v -2.3411902 0.2380648 -3.1534286
v 0.3246517 0.2252512 -3.1534286
v 2.3411902 0.2380648 -3.1534286
v 2.3430038 0.0755749 -3.3428571
v 0.3249031 0.0627514 -3.3428571
v 0.3249031 0.0627514 -2.9640000
v 2.3430038 0.0755749 -2.9640000
v 2.3411902 0.2380648 -3.1534286
v 0.3246517 0.2252512 -3.1534286
v 2.3411902 0.2380648 -3.1534286
v 4.3575125 0.2702627 -3.1534286
v 4.3608880 0.1077978 -3.3428571
v 2.3430038 0.0755749 -3.3428571
v 2.3430038 0.0755749 -2.9640000
v 4.3608880 0.1077978 -2.9640000
v 4.3575125 0.2702627 -3.1534286
v 2.3411902 0.2380648 -3.1534286
v 4.3575125 0.2702627 -3.1534286
v 6.3734320 0.3218419 -3.1534286
v 6.3783691 0.1594169 -3.3428571
v 4.3608880 0.1077978 -3.3428571
v 4.3608880 0.1077978 -2.9640000
v 6.3783691 0.1594169 -2.9640000
v 6.3734320 0.3218419 -3.1534286
v 4.3575125 0.2702627 -3.1534286
v 6.3734320 0.3218419 -3.1534286
v 8.3887626 0.3927976 -3.1534286
v 8.3952608 0.2304276 -3.3428571
v 6.3783691 0.1594169 -3.3428571
v 6.3783691 0.1594169 -2.9640000
v 8.3952608 0.2304276 -2.9640000
v 8.3887626 0.3927976 -3.1534286
v 6.3734320 0.3218419 -3.1534286
v -8.3887626 0.3927976 -2.5962857
v -6.3734320 0.3218419 -2.5962857
v -6.3783691 0.1594169 -2.7857143
v -8.3952608 0.2304276 -2.7857143
v -8.3952608 0.2304276 -2.4068571
v -6.3783691 0.1594169 -2.4068571
v -6.3734320 0.3218419 -2.5962857
v -8.3887626 0.3927976 -2.5962857
v -6.3734320 0.3218419 -2.5962857
v -4.3575125 0.2702627 -2.5962857
v -4.3608880 0.1077978 -2.7857143
v -6.3783691 0.1594169 -2.7857143
v -6.3783691 0.1594169 -2.4068571
v -4.3608880 0.1077978 -2.4068571
v -4.3575125 0.2702627 -2.5962857
v -6.3734320 0.3218419 -2.5962857
v -4.3575125 0.2702627 -2.5962857
v -2.3411902 0.2380648 -2.5962857
v -2.3430038 0.0755749 -2.7857143
v -4.3608880 0.1077978 -2.7857143
v -4.3608880 0.1077978 -2.4068571
v -2.3430038 0.0755749 -2.4068571
v -2.3411902 0.2380648 -2.5962857
v -4.3575125 0.2702627 -2.5962857
v -2.3411902 0.2380648 -2.5962857
v -0.3246517 0.2252512 -2.5962857
v -0.3249031 0.0627514 -2.7857143
v -2.3430038 0.0755749 -2.7857143
v -2.3430038 0.0755749 -2.4068571
v -0.3249031 0.0627514 -2.4068571
v -0.3246517 0.2252512 -2.5962857
v -2.3411902 0.2380648 -2.5962857
v 0.3246517 0.2252512 -2.5962857
v 2.3411902 0.2380648 -2.5962857
v 2.3430038 0.0755749 -2.7857143
v 0.3249031 0.0627514 -2.7857143
v 0.3249031 0.0627514 -2.4068571
v 2.3430038 0.0755749 -2.4068571
v 2.3411902 0.2380648 -2.5962857
v 0.3246517 0.2252512 -2.5962857
v 2.3411902 0.2380648 -2.5962857
v 4.3575125 0.2702627 -2.5962857
v 4.3608880 0.1077978 -2.7857143
v 2.3430038 0.0755749 -2.7857143
v 2.3430038 0.0755749 -2.4068571
v 4.3608880 0.1077978 -2.4068571
v 4.3575125 0.2702627 -2.5962857
v 2.3411902 0.2380648 -2.5962857
v 4.3575125 0.2702627 -2.5962857
v 6.3734320 0.3218419 -2.5962857
v 6.3783691 0.1594169 -2.7857143
v 4.3608880 0.1077978 -2.7857143
v 4.3608880 0.1077978 -2.4068571
v 6.3783691 0.1594169 -2.4068571
v 6.3734320 0.3218419 -2.5962857
v 4.3575125 0.2702627 -2.5962857
v 6.3734320 0.3218419 -2.5962857
v 8.3887626 0.3927976 -2.5962857
v 8.3952608 0.2304276 -2.7857143
v 6.3783691 0.1594169 -2.7857143
v 6.3783691 0.1594169 -2.4068571
v 8.3952608 0.2304276 -2.4068571
v 8.3887626 0.3927976 -2.5962857
v 6.3734320 0.3218419 -2.5962857
v -8.3887626 0.3927976 -2.0391429
v -6.3734320 0.3218419 -2.0391429
v -6.3783691 0.1594169 -2.2285714
v -8.3952608 0.2304276 -2.2285714
v -8.3952608 0.2304276 -1.8497143
v -6.3783691 0.1594169 -1.8497143
v -6.3734320 0.3218419 -2.0391429
v -8.3887626 0.3927976 -2.0391429
v -6.3734320 0.3218419 -2.0391429
v -4.3575125 0.2702627 -2.0391429
v -4.3608880 0.1077978 -2.2285714
v -6.3783691 0.1594169 -2.2285714
v -6.3783691 0.1594169 -1.8497143
v -4.3608880 0.1077978 -1.8497143
v -4.3575125 0.2702627 -2.0391429
v -6.3734320 0.3218419 -2.0391429
v -4.3575125 0.2702627 -2.0391429
v -2.3411902 0.2380648 -2.0391429
v -2.3430038 0.0755749 -2.2285714
v -4.3608880 0.1077978 -2.2285714
v -4.3608880 0.1077978 -1.8497143
v -2.3430038 0.0755749 -1.8497143
v -2.3411902 0.2380648 -2.0391429
v -4.3575125 0.2702627 -2.0391429
v -2.3411902 0.2380648 -2.0391429
v -0.3246517 0.2252512 -2.0391429
v -0.3249031 0.0627514 -2.2285714
v -2.3430038 0.0755749 -2.2285714
v -2.3430038 0.0755749 -1.8497143
v -0.3249031 0.0627514 -1.8497143
v -0.3246517 0.2252512 -2.0391429
v -2.3411902 0.2380648 -2.0391429
v 0.3246517 0.2252512 -2.0391429
v 2.3411902 0.2380648 -2.0391429
v 2.3430038 0.0755749 -2.2285714
v 0.3249031 0.0627514 -2.2285714
v 0.3249031 0.0627514 -1.8497143
v 2.3430038 0.0755749 -1.8497143
v 2.3411902 0.2380648 -2.0391429
v 0.3246517 0.2252512 -2.0391429
v 2.3411902 0.2380648 -2.0391429
v 4.3575125 0.2702627 -2.0391429
v 4.3608880 0.1077978 -2.2285714
v 2.3430038 0.0755749 -2.2285714
v 2.3430038 0.0755749 -1.8497143
v 4.3608880 0.1077978 -1.8497143
v 4.3575125 0.2702627 -2.0391429
v 2.3411902 0.2380648 -2.0391429
v 4.3575125 0.2702627 -2.0391429
v 6.3734320 0.3218419 -2.0391429
v 6.3783691 0.1594169 -2.2285714
v 4.3608880 0.1077978 -2.2285714
v 4.3608880 0.1077978 -1.8497143
v 6.3783691 0.1594169 -1.8497143
v 6.3734320 0.3218419 -2.0391429
v 4.3575125 0.2702627 -2.0391429
v 6.3734320 0.3218419 -2.0391429
v 8.3887626 0.3927976 -2.0391429
v 8.3952608 0.2304276 -2.2285714
v 6.3783691 0.1594169 -2.2285714
v 6.3783691 0.1594169 -1.8497143
v 8.3952608 0.2304276 -1.8497143
v 8.3887626 0.3927976 -2.0391429
v 6.3734320 0.3218419 -2.0391429
v -8.3887626 0.3927976 -1.4820000
v -6.3734320 0.3218419 -1.4820000
v -6.3783691 0.1594169 -1.6714286
v -8.3952608 0.2304276 -1.6714286
v -8.3952608 0.2304276 -1.2925714
v -6.3783691 0.1594169 -1.2925714
v -6.3734320 0.3218419 -1.4820000
v -8.3887626 0.3927976 -1.4820000
v -6.3734320 0.3218419 -1.4820000
v -4.3575125 0.2702627 -1.4820000
v -4.3608880 0.1077978 -1.6714286
v -6.3783691 0.1594169 -1.6714286
v -6.3783691 0.1594169 -1.2925714
v -4.3608880 0.1077978 -1.2925714
v -4.3575125 0.2702627 -1.4820000
v -6.3734320 0.3218419 -1.4820000
v -4.3575125 0.2702627 -1.4820000
v -2.3411902 0.2380648 -1.4820000
v -2.3430038 0.0755749 -1.6714286
v -4.3608880 0.1077978 -1.6714286
v -4.3608880 0.1077978 -1.2925714
v -2.3430038 0.0755749 -1.2925714
v -2.3411902 0.2380648 -1.4820000
v -4.3575125 0.2702627 -1.4820000
v -2.3411902 0.2380648 -1.4820000
v -0.3246517 0.2252512 -1.4820000
v -0.3249031 0.0627514 -1.6714286
v -2.3430038 0.0755749 -1.6714286
v -2.3430038 0.0755749 -1.2925714
v -0.3249031 0.0627514 -1.2925714
v -0.3246517 0.2252512 -1.4820000
v -2.3411902 0.2380648 -1.4820000
v 0.3246517 0.2252512 -1.4820000
v 2.3411902 0.2380648 -1.4820000
v 2.3430038 0.0755749 -1.6714286
v 0.3249031 0.0627514 -1.6714286
v 0.3249031 0.0627514 -1.2925714
v 2.3430038 0.0755749 -1.2925714
v 2.3411902 0.2380648 -1.4820000
v 0.3246517 0.2252512 -1.4820000
v 2.3411902 0.2380648 -1.4820000
v 4.3575125 0.2702627 -1.4820000
v 4.3608880 0.1077978 -1.6714286
v 2.3430038 0.0755749 -1.6714286
v 2.3430038 0.0755749 -1.2925714
v 4.3608880 0.1077978 -1.2925714
v 4.3575125 0.2702627 -1.4820000
v 2.3411902 0.2380648 -1.4820000
v 4.3575125 0.2702627 -1.4820000
v 6.3734320 0.3218419 -1.4820000
v 6.3783691 0.1594169 -1.6714286
v 4.3608880 0.1077978 -1.6714286
v 4.3608880 0.1077978 -1.2925714
v 6.3783691 0.1594169 -1.2925714
v 6.3734320 0.3218419 -1.4820000
v 4.3575125 0.2702627 -1.4820000
v 6.3734320 0.3218419 -1.4820000
v 8.3887626 0.3927976 -1.4820000
v 8.3952608 0.2304276 -1.6714286
v 6.3783691 0.1594169 -1.6714286
v 6.3783691 0.1594169 -1.2925714
v 8.3952608 0.2304276 -1.2925714
v 8.3887626 0.3927976 -1.4820000
v 6.3734320 0.3218419 -1.4820000
v -8.3887626 0.3927976 -0.9248571
v -6.3734320 0.3218419 -0.9248571
v -6.3783691 0.1594169 -1.1142857
v -8.3952608 0.2304276 -1.1142857
v -8.3952608 0.2304276 -0.7354286
v -6.3783691 0.1594169 -0.7354286
v -6.3734320 0.3218419 -0.9248571
v -8.3887626 0.3927976 -0.9248571
v -6.3734320 0.3218419 -0.9248571
v -4.3575125 0.2702627 -0.9248571
v -4.3608880 0.1077978 -1.1142857
v -6.3783691 0.1594169 -1.1142857
v -6.3783691 0.1594169 -0.7354286
v -4.3608880 0.1077978 -0.7354286
v -4.3575125 0.2702627 -0.9248571
v -6.3734320 0.3218419 -0.9248571
v -4.3575125 0.2702627 -0.9248571
v -2.3411902 0.2380648 -0.9248571
v -2.3430038 0.0755749 -1.1142857
v -4.3608880 0.1077978 -1.1142857
v -4.3608880 0.1077978 -0.7354286
v -2.3430038 0.0755749 -0.7354286
v -2.3411902 0.2380648 -0.9248571
v -4.3575125 0.2702627 -0.9248571
v -2.3411902 0.2380648 -0.9248571
v -0.3246517 0.2252512 -0.9248571
v -0.3249031 0.0627514 -1.1142857
v -2.3430038 0.0755749 -1.1142857
v -2.3430038 0.0755749 -0.7354286
v -0.3249031 0.0627514 -0.7354286
v -0.3246517 0.2252512 -0.9248571
v -2.3411902 0.2380648 -0.9248571
v 0.3246517 0.2252512 -0.9248571
v 2.3411902 0.2380648 -0.9248571
v 2.3430038 0.0755749 -1.1142857
v 0.3249031 0.0627514 -1.1142857
v 0.3249031 0.0627514 -0.7354286
v 2.3430038 0.0755749 -0.7354286
v 2.3411902 0.2380648 -0.9248571
v 0.3246517 0.2252512 -0.9248571
v 2.3411902 0.2380648 -0.9248571
v 4.3575125 0.2702627 -0.9248571
v 4.3608880 0.1077978 -1.1142857
v 2.3430038 0.0755749 -1.1142857
v 2.3430038 0.0755749 -0.7354286
v 4.3608880 0.1077978 -0.7354286
v 4.3575125 0.2702627 -0.9248571
v 2.3411902 0.2380648 -0.9248571
v 4.3575125 0.2702627 -0.9248571
v 6.3734320 0.3218419 -0.9248571
v 6.3783691 0.1594169 -1.1142857
v 4.3608880 0.1077978 -1.1142857
v 4.3608880 0.1077978 -0.7354286
v 6.3783691 0.1594169 -0.7354286
v 6.3734320 0.3218419 -0.9248571
v 4.3575125 0.2702627 -0.9248571
v 6.3734320 0.3218419 -0.9248571
v 8.3887626 0.3927976 -0.9248571
v 8.3952608 0.2304276 -1.1142857
v 6.3783691 0.1594169 -1.1142857
v 6.3783691 0.1594169 -0.7354286
v 8.3952608 0.2304276 -0.7354286
v 8.3887626 0.3927976 -0.9248571
v 6.3734320 0.3218419 -0.9248571
v -8.3887626 0.3927976 -0.3677143
v -6.3734320 0.3218419 -0.3677143
v -6.3783691 0.1594169 -0.5571429
v -8.3952608 0.2304276 -0.5571429
v -8.3952608 0.2304276 -0.1782857
v -6.3783691 0.1594169 -0.1782857
v -6.3734320 0.3218419 -0.3677143
v -8.3887626 0.3927976 -0.3677143
v -6.3734320 0.3218419 -0.3677143
v -4.3575125 0.2702627 -0.3677143
v -4.3608880 0.1077978 -0.5571429
v -6.3783691 0.1594169 -0.5571429
v -6.3783691 0.1594169 -0.1782857
v -4.3608880 0.1077978 -0.1782857
v -4.3575125 0.2702627 -0.3677143
v -6.3734320 0.3218419 -0.3677143
v -4.3575125 0.2702627 -0.3677143
v -2.3411902 0.2380648 -0.3677143
v -2.3430038 0.0755749 -0.5571429
v -4.3608880 0.1077978 -0.5571429
v -4.3608880 0.1077978 -0.1782857
v -2.3430038 0.0755749 -0.1782857
v -2.3411902 0.2380648 -0.3677143
v -4.3575125 0.2702627 -0.3677143
v -2.3411902 0.2380648 -0.3677143
v -0.3246517 0.2252512 -0.3677143
v -0.3249031 0.0627514 -0.5571429
v -2.3430038 0.0755749 -0.5571429
v -2.3430038 0.0755749 -0.1782857
v -0.3249031 0.0627514 -0.1782857
v -0.3246517 0.2252512 -0.3677143
v -2.3411902 0.2380648 -0.3677143
v 0.3246517 0.2252512 -0.3677143
v 2.3411902 0.2380648 -0.3677143
v 2.3430038 0.0755749 -0.5571429
v 0.3249031 0.0627514 -0.5571429
v 0.3249031 0.0627514 -0.1782857
v 2.3430038 0.0755749 -0.1782857
v 2.3411902 0.2380648 -0.3677143
v 0.3246517 0.2252512 -0.3677143
v 2.3411902 0.2380648 -0.3677143
v 4.3575125 0.2702627 -0.3677143
v 4.3608880 0.1077978 -0.5571429
v 2.3430038 0.0755749 -0.5571429
v 2.3430038 0.0755749 -0.1782857
v 4.3608880 0.1077978 -0.1782857
v 4.3575125 0.2702627 -0.3677143
v 2.3411902 0.2380648 -0.3677143
v 4.3575125 0.2702627 -0.3677143
v 6.3734320 0.3218419 -0.3677143
v 6.3783691 0.1594169 -0.5571429
v 4.3608880 0.1077978 -0.5571429
v 4.3608880 0.1077978 -0.1782857
v 6.3783691 0.1594169 -0.1782857
v 6.3734320 0.3218419 -0.3677143
v 4.3575125 0.2702627 -0.3677143
v 6.3734320 0.3218419 -0.3677143
v 8.3887626 0.3927976 -0.3677143
v 8.3952608 0.2304276 -0.5571429
v 6.3783691 0.1594169 -0.5571429
v 6.3783691 0.1594169 -0.1782857
v 8.3952608 0.2304276 -0.1782857
v 8.3887626 0.3927976 -0.3677143
v 6.3734320 0.3218419 -0.3677143
v -8.3887626 0.3927976 0.1894286
v -6.3734320 0.3218419 0.1894286
v -6.3783691 0.1594169 0.0000000
v -8.3952608 0.2304276 0.0000000
v -8.3952608 0.2304276 0.3788571
v -6.3783691 0.1594169 0.3788571
v -6.3734320 0.3218419 0.1894286
v -8.3887626 0.3927976 0.1894286
v -6.3734320 0.3218419 0.1894286
v -4.3575125 0.2702627 0.1894286
v -4.3608880 0.1077978 0.0000000
v -6.3783691 0.1594169 0.0000000
v -6.3783691 0.1594169 0.3788571
v -4.3608880 0.1077978 0.3788571
v -4.3575125 0.2702627 0.1894286
v -6.3734320 0.3218419 0.1894286
v -4.3575125 0.2702627 0.1894286
v -2.3411902 0.2380648 0.1894286
v -2.3430038 0.0755749 0.0000000
v -4.3608880 0.1077978 0.0000000
v -4.3608880 0.1077978 0.3788571
v -2.3430038 0.0755749 0.3788571
v -2.3411902 0.2380648 0.1894286
v -4.3575125 0.2702627 0.1894286
v -2.3411902 0.2380648 0.1894286
v -0.3246517 0.2252512 0.1894286
v -0.3249031 0.0627514 0.0000000
v -2.3430038 0.0755749 0.0000000
v -2.3430038 0.0755749 0.3788571
v -0.3249031 0.0627514 0.3788571
v -0.3246517 0.2252512 0.1894286
v -2.3411902 0.2380648 0.1894286
v 0.3246517 0.2252512 0.1894286
v 2.3411902 0.2380648 0.1894286
v 2.3430038 0.0755749 0.0000000
v 0.3249031 0.0627514 0.0000000
v 0.3249031 0.0627514 0.3788571
v 2.3430038 0.0755749 0.3788571
v 2.3411902 0.2380648 0.1894286
v 0.3246517 0.2252512 0.1894286
v 2.3411902 0.2380648 0.1894286
v 4.3575125 0.2702627 0.1894286
v 4.3608880 0.1077978 0.0000000
v 2.3430038 0.0755749 0.0000000
v 2.3430038 0.0755749 0.3788571
v 4.3608880 0.1077978 0.3788571
v 4.3575125 0.2702627 0.1894286
v 2.3411902 0.2380648 0.1894286
v 4.3575125 0.2702627 0.1894286
v 6.3734320 0.3218419 0.1894286
v 6.3783691 0.1594169 0.0000000
v 4.3608880 0.1077978 0.0000000
v 4.3608880 0.1077978 0.3788571
v 6.3783691 0.1594169 0.3788571
v 6.3734320 0.3218419 0.1894286
v 4.3575125 0.2702627 0.1894286
v 6.3734320 0.3218419 0.1894286
v 8.3887626 0.3927976 0.1894286
v 8.3952608 0.2304276 0.0000000
v 6.3783691 0.1594169 0.0000000
v 6.3783691 0.1594169 0.3788571
v 8.3952608 0.2304276 0.3788571
v 8.3887626 0.3927976 0.1894286
v 6.3734320 0.3218419 0.1894286
v -8.3887626 0.3927976 0.7465714
v -6.3734320 0.3218419 0.7465714
v -6.3783691 0.1594169 0.5571429
v -8.3952608 0.2304276 0.5571429
v -8.3952608 0.2304276 0.9360000
v -6.3783691 0.1594169 0.9360000
v -6.3734320 0.3218419 0.7465714
v -8.3887626 0.3927976 0.7465714
v -6.3734320 0.3218419 0.7465714
v -4.3575125 0.2702627 0.7465714
v -4.3608880 0.1077978 0.5571429
v -6.3783691 0.1594169 0.5571429
v -6.3783691 0.1594169 0.9360000
v -4.3608880 0.1077978 0.9360000
v -4.3575125 0.2702627 0.7465714
v -6.3734320 0.3218419 0.7465714
v -4.3575125 0.2702627 0.7465714
v -2.3411902 0.2380648 0.7465714
v -2.3430038 0.0755749 0.5571429
v -4.3608880 0.1077978 0.5571429
v -4.3608880 0.1077978 0.9360000
v -2.3430038 0.0755749 0.9360000
v -2.3411902 0.2380648 0.7465714
v -4.3575125 0.2702627 0.7465714
v -2.3411902 0.2380648 0.7465714
v -0.3246517 0.2252512 0.7465714
v -0.3249031 0.0627514 0.5571429
v -2.3430038 0.0755749 0.5571429
v -2.3430038 0.0755749 0.9360000
v -0.3249031 0.0627514 0.9360000
v -0.3246517 0.2252512 0.7465714
v -2.3411902 0.2380648 0.7465714
v 0.3246517 0.2252512 0.7465714
v 2.3411902 0.2380648 0.7465714
v 2.3430038 0.0755749 0.5571429
v 0.3249031 0.0627514 0.5571429
v 0.3249031 0.0627514 0.9360000
v 2.3430038 0.0755749 0.9360000
v 2.3411902 0.2380648 0.7465714
v 0.3246517 0.2252512 0.7465714
v 2.3411902 0.2380648 0.7465714
v 4.3575125 0.2702627 0.7465714
v 4.3608880 0.1077978 0.5571429
v 2.3430038 0.0755749 0.5571429
v 2.3430038 0.0755749 0.9360000
v 4.3608880 0.1077978 0.9360000
v 4.3575125 0.2702627 0.7465714
v 2.3411902 0.2380648 0.7465714
v 4.3575125 0.2702627 0.7465714
v 6.3734320 0.3218419 0.7465714
v 6.3783691 0.1594169 0.5571429
v 4.3608880 0.1077978 0.5571429
v 4.3608880 0.1077978 0.9360000
v 6.3783691 0.1594169 0.9360000
v 6.3734320 0.3218419 0.7465714
v 4.3575125 0.2702627 0.7465714
v 6.3734320 0.3218419 0.7465714
v 8.3887626 0.3927976 0.7465714
v 8.3952608 0.2304276 0.5571429
v 6.3783691 0.1594169 0.5571429
v 6.3783691 0.1594169 0.9360000
v 8.3952608 0.2304276 0.9360000
v 8.3887626 0.3927976 0.7465714
v 6.3734320 0.3218419 0.7465714
v -8.3887626 0.3927976 1.3037143
v -6.3734320 0.3218419 1.3037143
v -6.3783691 0.1594169 1.1142857
v -8.3952608 0.2304276 1.1142857
v -8.3952608 0.2304276 1.4931429
v -6.3783691 0.1594169 1.4931429
v -6.3734320 0.3218419 1.3037143
v -8.3887626 0.3927976 1.3037143
v -6.3734320 0.3218419 1.3037143
v -4.3575125 0.2702627 1.3037143
v -4.3608880 0.1077978 1.1142857
v -6.3783691 0.1594169 1.1142857
v -6.3783691 0.1594169 1.4931429
v -4.3608880 0.1077978 1.4931429
v -4.3575125 0.2702627 1.3037143
v -6.3734320 0.3218419 1.3037143
v -4.3575125 0.2702627 1.3037143
v -2.3411902 0.2380648 1.3037143
v -2.3430038 0.0755749 1.1142857
v -4.3608880 0.1077978 1.1142857
v -4.3608880 0.1077978 1.4931429
v -2.3430038 0.0755749 1.4931429
v -2.3411902 0.2380648 1.3037143
v -4.3575125 0.2702627 1.3037143
v -2.3411902 0.2380648 1.3037143
v -0.3246517 0.2252512 1.3037143
v -0.3249031 0.0627514 1.1142857
v -2.3430038 0.0755749 1.1142857
v -2.3430038 0.0755749 1.4931429
v -0.3249031 0.0627514 1.4931429
v -0.3246517 0.2252512 1.3037143
v -2.3411902 0.2380648 1.3037143
v 0.3246517 0.2252512 1.3037143
v 2.3411902 0.2380648 1.3037143
v 2.3430038 0.0755749 1.1142857
v 0.3249031 0.0627514 1.1142857
v 0.3249031 0.0627514 1.4931429
v 2.3430038 0.0755749 1.4931429
v 2.3411902 0.2380648 1.3037143
v 0.3246517 0.2252512 1.3037143
v 2.3411902 0.2380648 1.3037143
v 4.3575125 0.2702627 1.3037143
v 4.3608880 0.1077978 1.1142857
v 2.3430038 0.0755749 1.1142857
v 2.3430038 0.0755749 1.4931429
v 4.3608880 0.1077978 1.4931429
v 4.3575125 0.2702627 1.3037143
v 2.3411902 0.2380648 1.3037143
v 4.3575125 0.2702627 1.3037143
v 6.3734320 0.3218419 1.3037143
v 6.3783691 0.1594169 1.1142857
v 4.3608880 0.1077978 1.1142857
v 4.3608880 0.1077978 1.4931429
v 6.3783691 0.1594169 1.4931429
v 6.3734320 0.3218419 1.3037143
v 4.3575125 0.2702627 1.3037143
v 6.3734320 0.3218419 1.3037143
v 8.3887626 0.3927976 1.3037143
v 8.3952608 0.2304276 1.1142857
v 6.3783691 0.1594169 1.1142857
v 6.3783691 0.1594169 1.4931429
v 8.3952608 0.2304276 1.4931429
v 8.3887626 0.3927976 1.3037143
v 6.3734320 0.3218419 1.3037143
v -8.3887626 0.3927976 1.8608571
v -6.3734320 0.3218419 1.8608571
v -6.3783691 0.1594169 1.6714286
v -8.3952608 0.2304276 1.6714286
v -8.3952608 0.2304276 2.0502857
v -6.3783691 0.1594169 2.0502857
v -6.3734320 0.3218419 1.8608571
v -8.3887626 0.3927976 1.8608571
v -6.3734320 0.3218419 1.8608571
v -4.3575125 0.2702627 1.8608571
v -4.3608880 0.1077978 1.6714286
v -6.3783691 0.1594169 1.6714286
v -6.3783691 0.1594169 2.0502857
v -4.3608880 0.1077978 2.0502857
v -4.3575125 0.2702627 1.8608571
v -6.3734320 0.3218419 1.8608571
v -4.3575125 0.2702627 1.8608571
v -2.3411902 0.2380648 1.8608571
v -2.3430038 0.0755749 1.6714286
v -4.3608880 0.1077978 1.6714286
v -4.3608880 0.1077978 2.0502857
v -2.3430038 0.0755749 2.0502857
v -2.3411902 0.2380648 1.8608571
v -4.3575125 0.2702627 1.8608571
v -2.3411902 0.2380648 1.8608571
v -0.3246517 0.2252512 1.8608571
v -0.3249031 0.0627514 1.6714286
v -2.3430038 0.0755749 1.6714286
v -2.3430038 0.0755749 2.0502857
v -0.3249031 0.0627514 2.0502857
v -0.3246517 0.2252512 1.8608571
v -2.3411902 0.2380648 1.8608571
v 0.3246517 0.2252512 1.8608571
v 2.3411902 0.2380648 1.8608571
v 2.3430038 0.0755749 1.6714286
v 0.3249031 0.0627514 1.6714286
v 0.3249031 0.0627514 2.0502857
v 2.3430038 0.0755749 2.0502857
v 2.3411902 0.2380648 1.8608571
v 0.3246517 0.2252512 1.8608571
v 2.3411902 0.2380648 1.8608571
v 4.3575125 0.2702627 1.8608571
v 4.3608880 0.1077978 1.6714286
v 2.3430038 0.0755749 1.6714286
v 2.3430038 0.0755749 2.0502857
v 4.3608880 0.1077978 2.0502857
v 4.3575125 0.2702627 1.8608571
v 2.3411902 0.2380648 1.8608571
v 4.3575125 0.2702627 1.8608571
v 6.3734320 0.3218419 1.8608571
v 6.3783691 0.1594169 1.6714286
v 4.3608880 0.1077978 1.6714286
v 4.3608880 0.1077978 2.0502857
v 6.3783691 0.1594169 2.0502857
v 6.3734320 0.3218419 1.8608571
v 4.3575125 0.2702627 1.8608571
v 6.3734320 0.3218419 1.8608571
v 8.3887626 0.3927976 1.8608571
v 8.3952608 0.2304276 1.6714286
v 6.3783691 0.1594169 1.6714286
v 6.3783691 0.1594169 2.0502857
v 8.3952608 0.2304276 2.0502857
v 8.3887626 0.3927976 1.8608571
v 6.3734320 0.3218419 1.8608571
v -8.3887626 0.3927976 2.4180000
v -6.3734320 0.3218419 2.4180000
v -6.3783691 0.1594169 2.2285714
v -8.3952608 0.2304276 2.2285714
v -8.3952608 0.2304276 2.6074286
v -6.3783691 0.1594169 2.6074286
v -6.3734320 0.3218419 2.4180000
v -8.3887626 0.3927976 2.4180000
v -6.3734320 0.3218419 2.4180000
v -4.3575125 0.2702627 2.4180000
v -4.3608880 0.1077978 2.2285714
v -6.3783691 0.1594169 2.2285714
v -6.3783691 0.1594169 2.6074286
v -4.3608880 0.1077978 2.6074286
v -4.3575125 0.2702627 2.4180000
v -6.3734320 0.3218419 2.4180000
v -4.3575125 0.2702627 2.4180000
v -2.3411902 0.2380648 2.4180000
v -2.3430038 0.0755749 2.2285714
v -4.3608880 0.1077978 2.2285714
v -4.3608880 0.1077978 2.6074286
v -2.3430038 0.0755749 2.6074286
v -2.3411902 0.2380648 2.4180000
v -4.3575125 0.2702627 2.4180000
v -2.3411902 0.2380648 2.4180000
v -0.3246517 0.2252512 2.4180000
v -0.3249031 0.0627514 2.2285714
v -2.3430038 0.0755749 2.2285714
v -2.3430038 0.0755749 2.6074286
v -0.3249031 0.0627514 2.6074286
v -0.3246517 0.2252512 2.4180000
v -2.3411902 0.2380648 2.4180000
v 0.3246517 0.2252512 2.4180000
v 2.3411902 0.2380648 2.4180000
v 2.3430038 0.0755749 2.2285714
v 0.3249031 0.0627514 2.2285714
v 0.3249031 0.0627514 2.6074286
v 2.3430038 0.0755749 2.6074286
v 2.3411902 0.2380648 2.4180000
v 0.3246517 0.2252512 2.4180000
v 2.3411902 0.2380648 2.4180000
v 4.3575125 0.2702627 2.4180000
v 4.3608880 0.1077978 2.2285714
v 2.3430038 0.0755749 2.2285714
v 2.3430038 0.0755749 2.6074286
v 4.3608880 0.1077978 2.6074286
v 4.3575125 0.2702627 2.4180000
v 2.3411902 0.2380648 2.4180000
v 4.3575125 0.2702627 2.4180000
v 6.3734320 0.3218419 2.4180000
v 6.3783691 0.1594169 2.2285714
v 4.3608880 0.1077978 2.2285714
v 4.3608880 0.1077978 2.6074286
v 6.3783691 0.1594169 2.6074286
v 6.3734320 0.3218419 2.4180000
v 4.3575125 0.2702627 2.4180000
v 6.3734320 0.3218419 2.4180000
v 8.3887626 0.3927976 2.4180000
v 8.3952608 0.2304276 2.2285714
v 6.3783691 0.1594169 2.2285714
v 6.3783691 0.1594169 2.6074286
v 8.3952608 0.2304276 2.6074286
v 8.3887626 0.3927976 2.4180000
v 6.3734320 0.3218419 2.4180000
v -8.3887626 0.3927976 2.9751429
v -6.3734320 0.3218419 2.9751429
v -6.3783691 0.1594169 2.7857143
v -8.3952608 0.2304276 2.7857143
v -8.3952608 0.2304276 3.1645714
v -6.3783691 0.1594169 3.1645714
v -6.3734320 0.3218419 2.9751429
v -8.3887626 0.3927976 2.9751429
v -6.3734320 0.3218419 2.9751429
v -4.3575125 0.2702627 2.9751429
v -4.3608880 0.1077978 2.7857143
v -6.3783691 0.1594169 2.7857143
v -6.3783691 0.1594169 3.1645714
v -4.3608880 0.1077978 3.1645714
v -4.3575125 0.2702627 2.9751429
v -6.3734320 0.3218419 2.9751429
v -4.3575125 0.2702627 2.9751429
v -2.3411902 0.2380648 2.9751429
v -2.3430038 0.0755749 2.7857143
v -4.3608880 0.1077978 2.7857143
v -4.3608880 0.1077978 3.1645714
v -2.3430038 0.0755749 3.1645714
v -2.3411902 0.2380648 2.9751429
v -4.3575125 0.2702627 2.9751429
v -2.3411902 0.2380648 2.9751429
v -0.3246517 0.2252512 2.9751429
v -0.3249031 0.0627514 2.7857143
v -2.3430038 0.0755749 2.7857143
v -2.3430038 0.0755749 3.1645714
v -0.3249031 0.0627514 3.1645714
v -0.3246517 0.2252512 2.9751429
v -2.3411902 0.2380648 2.9751429
v 0.3246517 0.2252512 2.9751429
v 2.3411902 0.2380648 2.9751429
v 2.3430038 0.0755749 2.7857143
v 0.3249031 0.0627514 2.7857143
v 0.3249031 0.0627514 3.1645714
v 2.3430038 0.0755749 3.1645714
v 2.3411902 0.2380648 2.9751429
v 0.3246517 0.2252512 2.9751429
v 2.3411902 0.2380648 2.9751429
v 4.3575125 0.2702627 2.9751429
v 4.3608880 0.1077978 2.7857143
v 2.3430038 0.0755749 2.7857143
v 2.3430038 0.0755749 3.1645714
v 4.3608880 0.1077978 3.1645714
v 4.3575125 0.2702627 2.9751429
v 2.3411902 0.2380648 2.9751429
v 4.3575125 0.2702627 2.9751429
v 6.3734320 0.3218419 2.9751429
v 6.3783691 0.1594169 2.7857143
v 4.3608880 0.1077978 2.7857143
v 4.3608880 0.1077978 3.1645714
v 6.3783691 0.1594169 3.1645714
v 6.3734320 0.3218419 2.9751429
v 4.3575125 0.2702627 2.9751429
v 6.3734320 0.3218419 2.9751429
v 8.3887626 0.3927976 2.9751429
v 8.3952608 0.2304276 2.7857143
v 6.3783691 0.1594169 2.7857143
v 6.3783691 0.1594169 3.1645714
v 8.3952608 0.2304276 3.1645714
v 8.3887626 0.3927976 2.9751429
v 6.3734320 0.3218419 2.9751429
v -8.3887626 0.3927976 3.5322857
v -6.3734320 0.3218419 3.5322857
v -6.3783691 0.1594169 3.3428571
v -8.3952608 0.2304276 3.3428571
v -8.3952608 0.2304276 3.7217143
v -6.3783691 0.1594169 3.7217143
v -6.3734320 0.3218419 3.5322857
v -8.3887626 0.3927976 3.5322857
v -6.3734320 0.3218419 3.5322857
v -4.3575125 0.2702627 3.5322857
v -4.3608880 0.1077978 3.3428571
v -6.3783691 0.1594169 3.3428571
v -6.3783691 0.1594169 3.7217143
v -4.3608880 0.1077978 3.7217143
v -4.3575125 0.2702627 3.5322857
v -6.3734320 0.3218419 3.5322857
v -4.3575125 0.2702627 3.5322857
v -2.3411902 0.2380648 3.5322857
v -2.3430038 0.0755749 3.3428571
v -4.3608880 0.1077978 3.3428571
v -4.3608880 0.1077978 3.7217143
v -2.3430038 0.0755749 3.7217143
v -2.3411902 0.2380648 3.5322857
v -4.3575125 0.2702627 3.5322857
v -2.3411902 0.2380648 3.5322857
v -0.3246517 0.2252512 3.5322857
v -0.3249031 0.0627514 3.3428571
v -2.3430038 0.0755749 3.3428571
v -2.3430038 0.0755749 3.7217143
v -0.3249031 0.0627514 3.7217143
v -0.3246517 0.2252512 3.5322857
v -2.3411902 0.2380648 3.5322857
v 0.3246517 0.2252512 3.5322857
v 2.3411902 0.2380648 3.5322857
v 2.3430038 0.0755749 3.3428571
v 0.3249031 0.0627514 3.3428571
v 0.3249031 0.0627514 3.7217143
v 2.3430038 0.0755749 3.7217143
v 2.3411902 0.2380648 3.5322857
v 0.3246517 0.2252512 3.5322857
v 2.3411902 0.2380648 3.5322857
v 4.3575125 0.2702627 3.5322857
v 4.3608880 0.1077978 3.3428571
v 2.3430038 0.0755749 3.3428571
v 2.3430038 0.0755749 3.7217143
v 4.3608880 0.1077978 3.7217143
v 4.3575125 0.2702627 3.5322857
v 2.3411902 0.2380648 3.5322857
v 4.3575125 0.2702627 3.5322857
v 6.3734320 0.3218419 3.5322857
v 6.3783691 0.1594169 3.3428571
v 4.3608880 0.1077978 3.3428571
v 4.3608880 0.1077978 3.7217143
v 6.3783691 0.1594169 3.7217143
v 6.3734320 0.3218419 3.5322857
v 4.3575125 0.2702627 3.5322857
v 6.3734320 0.3218419 3.5322857
v 8.3887626 0.3927976 3.5322857
v 8.3952608 0.2304276 3.3428571
v 6.3783691 0.1594169 3.3428571
v 6.3783691 0.1594169 3.7217143
v 8.3952608 0.2304276 3.7217143
v 8.3887626 0.3927976 3.5322857
v 6.3734320 0.3218419 3.5322857
v -8.3627695 1.0422777 -2.5250000
v -6.2728090 0.9690992 -2.5250000
v -6.2728090 0.9690992 -2.5750000
v -8.3627695 1.0422777 -2.5750000
v -6.2728090 0.9690992 -2.5250000
v -4.1822212 0.9168236 -2.5250000
v -4.1822212 0.9168236 -2.5750000
v -6.2728090 0.9690992 -2.5750000
v -4.1822212 0.9168236 -2.5250000
v -2.0912151 0.8854562 -2.5250000
v -2.0912151 0.8854562 -2.5750000
v -4.1822212 0.9168236 -2.5750000
v -2.0912151 0.8854562 -2.5250000
v 0.0000000 0.8750000 -2.5250000
v 0.0000000 0.8750000 -2.5750000
v -2.0912151 0.8854562 -2.5750000
v 0.0000000 0.8750000 -2.5250000
v 2.0912151 0.8854562 -2.5250000
v 2.0912151 0.8854562 -2.5750000
v 0.0000000 0.8750000 -2.5750000
v 2.0912151 0.8854562 -2.5250000
v 4.1822212 0.9168236 -2.5250000
v 4.1822212 0.9168236 -2.5750000
v 2.0912151 0.8854562 -2.5750000
v 4.1822212 0.9168236 -2.5250000
v 6.2728090 0.9690992 -2.5250000
v 6.2728090 0.9690992 -2.5750000
v 4.1822212 0.9168236 -2.5750000
v 6.2728090 0.9690992 -2.5250000
v 8.3627695 1.0422777 -2.5250000
v 8.3627695 1.0422777 -2.5750000
v 6.2728090 0.9690992 -2.5750000
v -8.3627695 1.0422777 2.5750000
v -6.2728090 0.9690992 2.5750000
v -6.2728090 0.9690992 2.5250000
v -8.3627695 1.0422777 2.5250000
v -6.2728090 0.9690992 2.5750000
v -4.1822212 0.9168236 2.5750000
v -4.1822212 0.9168236 2.5250000
v -6.2728090 0.9690992 2.5250000
v -4.1822212 0.9168236 2.5750000
v -2.0912151 0.8854562 2.5750000
v -2.0912151 0.8854562 2.5250000
v -4.1822212 0.9168236 2.5250000
v -2.0912151 0.8854562 2.5750000
v 0.0000000 0.8750000 2.5750000
v 0.0000000 0.8750000 2.5250000
v -2.0912151 0.8854562 2.5250000
v 0.0000000 0.8750000 2.5750000
v 2.0912151 0.8854562 2.5750000
v 2.0912151 0.8854562 2.5250000
v 0.0000000 0.8750000 2.5250000
v 2.0912151 0.8854562 2.5750000
v 4.1822212 0.9168236 2.5750000
v 4.1822212 0.9168236 2.5250000
v 2.0912151 0.8854562 2.5250000
v 4.1822212 0.9168236 2.5750000
v 6.2728090 0.9690992 2.5750000
v 6.2728090 0.9690992 2.5250000
v 4.1822212 0.9168236 2.5250000
v 6.2728090 0.9690992 2.5750000
v 8.3627695 1.0422777 2.5750000
v 8.3627695 1.0422777 2.5250000
v 6.2728090 0.9690992 2.5250000
vt 0.005000 0.995000
vt 0.245000 0.995000
vt 0.245000 0.755000
vt 0.255000 0.995000
vt 0.495000 0.995000
vt 0.495000 0.755000
vt 0.505000 0.995000
vt 0.745000 0.995000
vt 0.745000 0.755000
vt 0.755000 0.995000
vt 0.995000 0.995000
vt 0.995000 0.755000
vt 0.005000 0.745000
vt 0.245000 0.745000
vt 0.245000 0.505000
vt 0.255000 0.745000
vt 0.495000 0.745000
vt 0.495000 0.505000
vt 0.505000 0.745000
vt 0.745000 0.745000
vt 0.745000 0.505000
vt 0.755000 0.745000
vt 0.995000 0.745000
vt 0.995000 0.505000
vt 0.005000 0.495000
vt 0.245000 0.495000
vt 0.245000 0.255000
vt 0.255000 0.495000
vt 0.495000 0.495000
vt 0.495000 0.255000
vt 0.505000 0.495000
vt 0.745000 0.495000
vt 0.745000 0.255000
vt 0.755000 0.495000
vt 0.995000 0.495000
vt 0.995000 0.255000
vt 0.005000 0.245000
vt 0.245000 0.245000
vt 0.245000 0.005000
vt 0.255000 0.245000
vt 0.495000 0.245000
vt 0.495000 0.005000
vt 0.505000 0.245000
vt 0.745000 0.245000
vt 0.745000 0.005000
vt 0.755000 0.245000
vt 0.995000 0.245000
vt 0.995000 0.005000
g lighting
usemtl farm-kit
f 997/43 998/44 999/45
f 997/43 999/44 1000/45
f 1001/43 1002/44 1003/45
f 1001/43 1003/44 1004/45
f 1005/43 1006/44 1007/45
f 1005/43 1007/44 1008/45
f 1009/43 1010/44 1011/45
f 1009/43 1011/44 1012/45
f 1013/43 1014/44 1015/45
f 1013/43 1015/44 1016/45
f 1017/43 1018/44 1019/45
f 1017/43 1019/44 1020/45
f 1021/43 1022/44 1023/45
f 1021/43 1023/44 1024/45
f 1025/43 1026/44 1027/45
f 1025/43 1027/44 1028/45
f 1029/43 1030/44 1031/45
f 1029/43 1031/44 1032/45
f 1033/43 1034/44 1035/45
f 1033/43 1035/44 1036/45
f 1037/43 1038/44 1039/45
f 1037/43 1039/44 1040/45
f 1041/43 1042/44 1043/45
f 1041/43 1043/44 1044/45
f 1045/43 1046/44 1047/45
f 1045/43 1047/44 1048/45
f 1049/43 1050/44 1051/45
f 1049/43 1051/44 1052/45
f 1053/43 1054/44 1055/45
f 1053/43 1055/44 1056/45
f 1057/43 1058/44 1059/45
f 1057/43 1059/44 1060/45
g ornament
usemtl farm-kit
f 101/7 102/8 103/9
f 101/7 103/8 104/9
f 105/7 106/8 107/9
f 105/7 107/8 108/9
f 109/7 110/8 111/9
f 109/7 111/8 112/9
f 113/7 114/8 115/9
f 113/7 115/8 116/9
f 117/7 118/8 119/9
f 117/7 119/8 120/9
f 121/7 122/8 123/9
f 121/7 123/8 124/9
f 125/7 126/8 127/9
f 125/7 127/8 128/9
f 129/7 130/8 131/9
f 129/7 131/8 132/9
f 133/7 134/8 135/9
f 133/7 135/8 136/9
f 137/7 138/8 139/9
f 137/7 139/8 140/9
f 141/7 142/8 143/9
f 141/7 143/8 144/9
f 145/7 146/8 147/9
f 145/7 147/8 148/9
f 149/7 150/8 151/9
f 149/7 151/8 152/9
f 153/7 154/8 155/9
f 153/7 155/8 156/9
f 157/7 158/8 159/9
f 157/7 159/8 160/9
f 161/7 162/8 163/9
f 161/7 163/8 164/9
f 165/7 166/8 167/9
f 165/7 167/8 168/9
f 169/7 170/8 171/9
f 169/7 171/8 172/9
f 173/7 174/8 175/9
f 173/7 175/8 176/9
f 177/7 178/8 179/9
f 177/7 179/8 180/9
f 181/7 182/8 183/9
f 181/7 183/8 184/9
f 185/7 186/8 187/9
f 185/7 187/8 188/9
f 189/7 190/8 191/9
f 189/7 191/8 192/9
f 193/7 194/8 195/9
f 193/7 195/8 196/9
f 197/7 198/8 199/9
f 197/7 199/8 200/9
f 201/7 202/8 203/9
f 201/7 203/8 204/9
f 205/7 206/8 207/9
f 205/7 207/8 208/9
f 209/7 210/8 211/9
f 209/7 211/8 212/9
f 213/7 214/8 215/9
f 213/7 215/8 216/9
f 217/7 218/8 219/9
f 217/7 219/8 220/9
f 221/7 222/8 223/9
f 221/7 223/8 224/9
f 225/7 226/8 227/9
f 225/7 227/8 228/9
f 229/7 230/8 231/9
f 229/7 231/8 232/9
f 233/7 234/8 235/9
f 233/7 235/8 236/9
f 237/7 238/8 239/9
f 237/7 239/8 240/9
f 241/7 242/8 243/9
f 241/7 243/8 244/9
f 245/7 246/8 247/9
f 245/7 247/8 248/9
f 249/7 250/8 251/9
f 249/7 251/8 252/9
f 253/7 254/8 255/9
f 253/7 255/8 256/9
f 257/7 258/8 259/9
f 257/7 259/8 260/9
f 261/7 262/8 263/9
f 261/7 263/8 264/9
f 265/7 266/8 267/9
f 265/7 267/8 268/9
f 269/7 270/8 271/9
f 269/7 271/8 272/9
f 273/7 274/8 275/9
f 273/7 275/8 276/9
f 277/7 278/8 279/9
f 277/7 279/8 280/9
f 281/7 282/8 283/9
f 281/7 283/8 284/9
f 285/7 286/8 287/9
f 285/7 287/8 288/9
f 289/7 290/8 291/9
f 289/7 291/8 292/9
f 293/7 294/8 295/9
f 293/7 295/8 296/9
f 297/7 298/8 299/9
f 297/7 299/8 300/9
f 301/7 302/8 303/9
f 301/7 303/8 304/9
f 305/7 306/8 307/9
f 305/7 307/8 308/9
f 309/7 310/8 311/9
f 309/7 311/8 312/9
f 313/7 314/8 315/9
f 313/7 315/8 316/9
f 317/7 318/8 319/9
f 317/7 319/8 320/9
f 321/7 322/8 323/9
f 321/7 323/8 324/9
f 325/7 326/8 327/9
f 325/7 327/8 328/9
f 329/7 330/8 331/9
f 329/7 331/8 332/9
f 333/7 334/8 335/9
f 333/7 335/8 336/9
f 337/7 338/8 339/9
f 337/7 339/8 340/9
f 341/7 342/8 343/9
f 341/7 343/8 344/9
f 345/7 346/8 347/9
f 345/7 347/8 348/9
f 349/7 350/8 351/9
f 349/7 351/8 352/9
f 353/7 354/8 355/9
f 353/7 355/8 356/9
f 357/7 358/8 359/9
f 357/7 359/8 360/9
f 361/7 362/8 363/9
f 361/7 363/8 364/9
f 365/7 366/8 367/9
f 365/7 367/8 368/9
f 369/7 370/8 371/9
f 369/7 371/8 372/9
f 373/7 374/8 375/9
f 373/7 375/8 376/9
f 377/7 378/8 379/9
f 377/7 379/8 380/9
f 381/7 382/8 383/9
f 381/7 383/8 384/9
f 385/7 386/8 387/9
f 385/7 387/8 388/9
f 389/7 390/8 391/9
f 389/7 391/8 392/9
f 393/7 394/8 395/9
f 393/7 395/8 396/9
f 397/7 398/8 399/9
f 397/7 399/8 400/9
f 401/7 402/8 403/9
f 401/7 403/8 404/9
f 405/7 406/8 407/9
f 405/7 407/8 408/9
f 409/7 410/8 411/9
f 409/7 411/8 412/9
f 413/7 414/8 415/9
f 413/7 415/8 416/9
f 417/7 418/8 419/9
f 417/7 419/8 420/9
f 421/7 422/8 423/9
f 421/7 423/8 424/9
f 425/7 426/8 427/9
f 425/7 427/8 428/9
f 429/7 430/8 431/9
f 429/7 431/8 432/9
f 433/7 434/8 435/9
f 433/7 435/8 436/9
f 437/7 438/8 439/9
f 437/7 439/8 440/9
f 441/7 442/8 443/9
f 441/7 443/8 444/9
f 445/7 446/8 447/9
f 445/7 447/8 448/9
f 449/7 450/8 451/9
f 449/7 451/8 452/9
f 453/7 454/8 455/9
f 453/7 455/8 456/9
f 457/7 458/8 459/9
f 457/7 459/8 460/9
f 461/7 462/8 463/9
f 461/7 463/8 464/9
f 465/7 466/8 467/9
f 465/7 467/8 468/9
f 469/7 470/8 471/9
f 469/7 471/8 472/9
f 473/7 474/8 475/9
f 473/7 475/8 476/9
f 477/7 478/8 479/9
f 477/7 479/8 480/9
f 481/7 482/8 483/9
f 481/7 483/8 484/9
f 485/7 486/8 487/9
f 485/7 487/8 488/9
f 489/7 490/8 491/9
f 489/7 491/8 492/9
f 493/7 494/8 495/9
f 493/7 495/8 496/9
f 497/7 498/8 499/9
f 497/7 499/8 500/9
f 501/7 502/8 503/9
f 501/7 503/8 504/9
f 505/7 506/8 507/9
f 505/7 507/8 508/9
f 509/7 510/8 511/9
f 509/7 511/8 512/9
f 513/7 514/8 515/9
f 513/7 515/8 516/9
f 517/7 518/8 519/9
f 517/7 519/8 520/9
f 521/7 522/8 523/9
f 521/7 523/8 524/9
f 525/7 526/8 527/9
f 525/7 527/8 528/9
f 529/7 530/8 531/9
f 529/7 531/8 532/9
f 533/7 534/8 535/9
f 533/7 535/8 536/9
f 537/7 538/8 539/9
f 537/7 539/8 540/9
f 541/7 542/8 543/9
f 541/7 543/8 544/9
f 545/7 546/8 547/9
f 545/7 547/8 548/9
f 549/7 550/8 551/9
f 549/7 551/8 552/9
f 553/7 554/8 555/9
f 553/7 555/8 556/9
f 557/7 558/8 559/9
f 557/7 559/8 560/9
f 561/7 562/8 563/9
f 561/7 563/8 564/9
f 565/7 566/8 567/9
f 565/7 567/8 568/9
f 569/7 570/8 571/9
f 569/7 571/8 572/9
f 573/7 574/8 575/9
f 573/7 575/8 576/9
f 577/7 578/8 579/9
f 577/7 579/8 580/9
f 581/7 582/8 583/9
f 581/7 583/8 584/9
f 585/7 586/8 587/9
f 585/7 587/8 588/9
f 589/7 590/8 591/9
f 589/7 591/8 592/9
f 593/7 594/8 595/9
f 593/7 595/8 596/9
f 597/7 598/8 599/9
f 597/7 599/8 600/9
f 601/7 602/8 603/9
f 601/7 603/8 604/9
f 605/7 606/8 607/9
f 605/7 607/8 608/9
f 609/7 610/8 611/9
f 609/7 611/8 612/9
f 613/7 614/8 615/9
f 613/7 615/8 616/9
f 617/7 618/8 619/9
f 617/7 619/8 620/9
f 621/7 622/8 623/9
f 621/7 623/8 624/9
f 625/7 626/8 627/9
f 625/7 627/8 628/9
f 629/7 630/8 631/9
f 629/7 631/8 632/9
f 633/7 634/8 635/9
f 633/7 635/8 636/9
f 637/7 638/8 639/9
f 637/7 639/8 640/9
f 641/7 642/8 643/9
f 641/7 643/8 644/9
f 645/7 646/8 647/9
f 645/7 647/8 648/9
f 649/7 650/8 651/9
f 649/7 651/8 652/9
f 653/7 654/8 655/9
f 653/7 655/8 656/9
f 657/7 658/8 659/9
f 657/7 659/8 660/9
f 661/7 662/8 663/9
f 661/7 663/8 664/9
f 665/7 666/8 667/9
f 665/7 667/8 668/9
f 669/7 670/8 671/9
f 669/7 671/8 672/9
f 673/7 674/8 675/9
f 673/7 675/8 676/9
f 677/7 678/8 679/9
f 677/7 679/8 680/9
f 681/7 682/8 683/9
f 681/7 683/8 684/9
f 685/7 686/8 687/9
f 685/7 687/8 688/9
f 689/7 690/8 691/9
f 689/7 691/8 692/9
f 693/7 694/8 695/9
f 693/7 695/8 696/9
f 697/7 698/8 699/9
f 697/7 699/8 700/9
f 701/7 702/8 703/9
f 701/7 703/8 704/9
f 705/7 706/8 707/9
f 705/7 707/8 708/9
f 709/7 710/8 711/9
f 709/7 711/8 712/9
f 713/7 714/8 715/9
f 713/7 715/8 716/9
f 717/7 718/8 719/9
f 717/7 719/8 720/9
f 721/7 722/8 723/9
f 721/7 723/8 724/9
f 725/7 726/8 727/9
f 725/7 727/8 728/9
f 729/7 730/8 731/9
f 729/7 731/8 732/9
f 733/7 734/8 735/9
f 733/7 735/8 736/9
f 737/7 738/8 739/9
f 737/7 739/8 740/9
f 741/7 742/8 743/9
f 741/7 743/8 744/9
f 745/7 746/8 747/9
f 745/7 747/8 748/9
f 749/7 750/8 751/9
f 749/7 751/8 752/9
f 753/7 754/8 755/9
f 753/7 755/8 756/9
f 757/7 758/8 759/9
f 757/7 759/8 760/9
f 761/7 762/8 763/9
f 761/7 763/8 764/9
f 765/7 766/8 767/9
f 765/7 767/8 768/9
f 769/7 770/8 771/9
f 769/7 771/8 772/9
f 773/7 774/8 775/9
f 773/7 775/8 776/9
f 777/7 778/8 779/9
f 777/7 779/8 780/9
f 781/7 782/8 783/9
f 781/7 783/8 784/9
f 785/7 786/8 787/9
f 785/7 787/8 788/9
f 789/7 790/8 791/9
f 789/7 791/8 792/9
f 793/7 794/8 795/9
f 793/7 795/8 796/9
f 797/7 798/8 799/9
f 797/7 799/8 800/9
f 801/7 802/8 803/9
f 801/7 803/8 804/9
f 805/7 806/8 807/9
f 805/7 807/8 808/9
f 809/7 810/8 811/9
f 809/7 811/8 812/9
f 813/7 814/8 815/9
f 813/7 815/8 816/9
f 817/7 818/8 819/9
f 817/7 819/8 820/9
f 821/7 822/8 823/9
f 821/7 823/8 824/9
f 825/7 826/8 827/9
f 825/7 827/8 828/9
f 829/7 830/8 831/9
f 829/7 831/8 832/9
f 833/7 834/8 835/9
f 833/7 835/8 836/9
f 837/7 838/8 839/9
f 837/7 839/8 840/9
f 841/7 842/8 843/9
f 841/7 843/8 844/9
f 845/7 846/8 847/9
f 845/7 847/8 848/9
f 849/7 850/8 851/9
f 849/7 851/8 852/9
f 853/7 854/8 855/9
f 853/7 855/8 856/9
f 857/7 858/8 859/9
f 857/7 859/8 860/9
f 861/7 862/8 863/9
f 861/7 863/8 864/9
f 865/7 866/8 867/9
f 865/7 867/8 868/9
f 869/7 870/8 871/9
f 869/7 871/8 872/9
f 873/7 874/8 875/9
f 873/7 875/8 876/9
f 877/7 878/8 879/9
f 877/7 879/8 880/9
f 881/7 882/8 883/9
f 881/7 883/8 884/9
f 885/7 886/8 887/9
f 885/7 887/8 888/9
f 889/7 890/8 891/9
f 889/7 891/8 892/9
f 893/7 894/8 895/9
f 893/7 895/8 896/9
f 897/7 898/8 899/9
f 897/7 899/8 900/9
f 901/7 902/8 903/9
f 901/7 903/8 904/9
f 905/7 906/8 907/9
f 905/7 907/8 908/9
f 909/7 910/8 911/9
f 909/7 911/8 912/9
f 913/7 914/8 915/9
f 913/7 915/8 916/9
f 917/7 918/8 919/9
f 917/7 919/8 920/9
f 921/7 922/8 923/9
f 921/7 923/8 924/9
f 925/7 926/8 927/9
f 925/7 927/8 928/9
f 929/7 930/8 931/9
f 929/7 931/8 932/9
f 933/7 934/8 935/9
f 933/7 935/8 936/9
f 937/7 938/8 939/9
f 937/7 939/8 940/9
f 941/7 942/8 943/9
f 941/7 943/8 944/9
f 945/7 946/8 947/9
f 945/7 947/8 948/9
f 949/7 950/8 951/9
f 949/7 951/8 952/9
f 953/7 954/8 955/9
f 953/7 955/8 956/9
f 957/7 958/8 959/9
f 957/7 959/8 960/9
f 961/7 962/8 963/9
f 961/7 963/8 964/9
f 965/7 966/8 967/9
f 965/7 967/8 968/9
f 969/7 970/8 971/9
f 969/7 971/8 972/9
f 973/7 974/8 975/9
f 973/7 975/8 976/9
f 977/7 978/8 979/9
f 977/7 979/8 980/9
f 981/7 982/8 983/9
f 981/7 983/8 984/9
f 985/7 986/8 987/9
f 985/7 987/8 988/9
f 989/7 990/8 991/9
f 989/7 991/8 992/9
f 993/7 994/8 995/9
f 993/7 995/8 996/9
g support
usemtl farm-kit
f 1/1 2/2 3/3
f 1/1 3/2 4/3
f 5/1 6/2 7/3
f 5/1 7/2 8/3
f 9/1 10/2 11/3
f 9/1 11/2 12/3
f 13/1 14/2 15/3
f 13/1 15/2 16/3
f 17/1 18/2 19/3
f 17/1 19/2 20/3
f 21/1 22/2 23/3
f 21/1 23/2 24/3
f 25/1 26/2 27/3
f 25/1 27/2 28/3
f 29/1 30/2 31/3
f 29/1 31/2 32/3
f 33/4 34/5 35/6
f 33/4 35/5 36/6
f 37/4 38/5 39/6
f 37/4 39/5 40/6
f 41/4 42/5 43/6
f 41/4 43/5 44/6
f 45/4 46/5 47/6
f 45/4 47/5 48/6
f 49/4 50/5 51/6
f 49/4 51/5 52/6
f 53/4 54/5 55/6
f 53/4 55/5 56/6
f 57/4 58/5 59/6
f 57/4 59/5 60/6
f 61/4 62/5 63/6
f 61/4 63/5 64/6
f 65/4 66/5 67/6
f 65/4 67/5 68/6
f 69/4 70/5 71/6
f 69/4 71/5 72/6
f 73/4 74/5 75/6
f 73/4 75/5 76/6
f 77/4 78/5 79/6
f 77/4 79/5 80/6
f 81/4 82/5 83/6
f 81/4 83/5 84/6
f 85/4 86/5 87/6
f 85/4 87/5 88/6
f 89/4 90/5 91/6
f 89/4 91/5 92/6
f 93/4 94/5 95/6
f 93/4 95/5 96/6
f 97/4 98/5 99/6
f 97/4 99/5 100/6
