mtllib TorusSettlementFarm_A17.mtl
v -4.8468858 0.0569589 2.3750000
v -2.9083028 0.0205058 2.3750000
v -2.9083028 0.0205058 -2.3750000
v -4.8468858 0.0569589 -2.3750000
v -2.9083028 0.0205058 2.3750000
v -0.9694628 0.0022785 2.3750000
v -0.9694628 0.0022785 -2.3750000
v -2.9083028 0.0205058 -2.3750000
v -0.9694628 0.0022785 2.3750000
v 0.9694628 0.0022785 2.3750000
v 0.9694628 0.0022785 -2.3750000
v -0.9694628 0.0022785 -2.3750000
v 0.9694628 0.0022785 2.3750000
v 2.9083028 0.0205058 2.3750000
v 2.9083028 0.0205058 -2.3750000
v 0.9694628 0.0022785 -2.3750000
v 2.9083028 0.0205058 2.3750000
v 4.8468858 0.0569589 2.3750000
v 4.8468858 0.0569589 -2.3750000
v 2.9083028 0.0205058 -2.3750000
v -4.8465920 0.0694554 -2.0250000
v -2.9081266 0.0330046 -2.0250000
v -2.9081266 0.0330046 -2.3750000
v -4.8465920 0.0694554 -2.3750000
v -2.9081266 0.0330046 -2.0250000
v -0.9694041 0.0147783 -2.0250000
v -0.9694041 0.0147783 -2.3750000
v -2.9081266 0.0330046 -2.3750000
v -0.9694041 0.0147783 -2.0250000
v 0.9694041 0.0147783 -2.0250000
v 0.9694041 0.0147783 -2.3750000
v -0.9694041 0.0147783 -2.3750000
v 0.9694041 0.0147783 -2.0250000
v 2.9081266 0.0330046 -2.0250000
v 2.9081266 0.0330046 -2.3750000
v 0.9694041 0.0147783 -2.3750000
v 2.9081266 0.0330046 -2.0250000
v 4.8465920 0.0694554 -2.0250000
v 4.8465920 0.0694554 -2.3750000
v 2.9081266 0.0330046 -2.3750000
v -4.8465920 0.0694554 2.3750000
v -2.9081266 0.0330046 2.3750000
v -2.9081266 0.0330046 2.0250000
v -4.8465920 0.0694554 2.0250000
v -2.9081266 0.0330046 2.3750000
v -0.9694041 0.0147783 2.3750000
v -0.9694041 0.0147783 2.0250000
v -2.9081266 0.0330046 2.0250000
v -0.9694041 0.0147783 2.3750000
v 0.9694041 0.0147783 2.3750000
v 0.9694041 0.0147783 2.0250000
v -0.9694041 0.0147783 2.0250000
v 0.9694041 0.0147783 2.3750000
v 2.9081266 0.0330046 2.3750000
v 2.9081266 0.0330046 2.0250000
v 0.9694041 0.0147783 2.0250000
v 2.9081266 0.0330046 2.3750000
v 4.8465920 0.0694554 2.3750000
v 4.8465920 0.0694554 2.0250000
v 2.9081266 0.0330046 2.0250000
v -0.2999817 0.0127182 2.3750000
v 0.2999817 0.0127182 2.3750000
v 0.2999817 0.0127182 -2.3750000
v -0.2999817 0.0127182 -2.3750000
v -4.4962670 0.0815230 -0.8375000
v -2.4232283 0.0467380 -0.8375000
v -2.4232283 0.0467380 -2.0250000
v -4.4962670 0.0815230 -2.0250000
v -2.4232283 0.0467380 -0.8375000
v -0.3499447 0.0327969 -0.8375000
v -0.3499447 0.0327969 -2.0250000
v -2.4232283 0.0467380 -2.0250000
v -4.4956129 0.1115159 -0.7875000
v -2.4228758 0.0767359 -0.7875000
v -2.4228758 0.0767359 -0.8375000
v -4.4956129 0.1115159 -0.8375000
v -2.4228758 0.0767359 -0.7875000
v -0.3498938 0.0627969 -0.7875000
v -0.3498938 0.0627969 -0.8375000
v -2.4228758 0.0767359 -0.8375000
v -4.4937051 0.1989951 -1.4437500
v -2.4218476 0.1642299 -1.4437500
v -2.4225820 0.1017342 -1.9750000
v -4.4950678 0.1365100 -1.9750000
v -4.4950678 0.1365100 -0.9125000
v -2.4225820 0.1017342 -0.9125000
v -2.4218476 0.1642299 -1.4437500
v -4.4937051 0.1989951 -1.4437500
v -2.4218476 0.1642299 -1.4437500
v -0.3497453 0.1502968 -1.4437500
v -0.3498513 0.0877968 -1.9750000
v -2.4225820 0.1017342 -1.9750000
v -2.4225820 0.1017342 -0.9125000
v -0.3498513 0.0877968 -0.9125000
v -0.3497453 0.1502968 -1.4437500
v -2.4218476 0.1642299 -1.4437500
v 0.3499447 0.0327969 -0.8375000
v 2.4232283 0.0467380 -0.8375000
v 2.4232283 0.0467380 -2.0250000
v 0.3499447 0.0327969 -2.0250000
v 2.4232283 0.0467380 -0.8375000
v 4.4962670 0.0815230 -0.8375000
v 4.4962670 0.0815230 -2.0250000
v 2.4232283 0.0467380 -2.0250000
v 0.3498938 0.0627969 -0.7875000
v 2.4228758 0.0767359 -0.7875000
v 2.4228758 0.0767359 -0.8375000
v 0.3498938 0.0627969 -0.8375000
v 2.4228758 0.0767359 -0.7875000
v 4.4956129 0.1115159 -0.7875000
v 4.4956129 0.1115159 -0.8375000
v 2.4228758 0.0767359 -0.8375000
v 0.3497453 0.1502968 -1.4437500
v 2.4218476 0.1642299 -1.4437500
v 2.4225820 0.1017342 -1.9750000
v 0.3498513 0.0877968 -1.9750000
v 0.3498513 0.0877968 -0.9125000
v 2.4225820 0.1017342 -0.9125000
v 2.4218476 0.1642299 -1.4437500
v 0.3497453 0.1502968 -1.4437500
v 2.4218476 0.1642299 -1.4437500
v 4.4937051 0.1989951 -1.4437500
v 4.4950678 0.1365100 -1.9750000
v 2.4225820 0.1017342 -1.9750000
v 2.4225820 0.1017342 -0.9125000
v 4.4950678 0.1365100 -0.9125000
v 4.4937051 0.1989951 -1.4437500
v 2.4218476 0.1642299 -1.4437500
v -4.4962670 0.0815230 0.5125000
v -2.4232283 0.0467380 0.5125000
v -2.4232283 0.0467380 -0.6750000
v -4.4962670 0.0815230 -0.6750000
v -2.4232283 0.0467380 0.5125000
v -0.3499447 0.0327969 0.5125000
v -0.3499447 0.0327969 -0.6750000
v -2.4232283 0.0467380 -0.6750000
v -4.4956129 0.1115159 0.5625000
v -2.4228758 0.0767359 0.5625000
v -2.4228758 0.0767359 0.5125000
v -4.4956129 0.1115159 0.5125000
v -2.4228758 0.0767359 0.5625000
v -0.3498938 0.0627969 0.5625000
v -0.3498938 0.0627969 0.5125000
v -2.4228758 0.0767359 0.5125000
v -4.4937051 0.1989951 -0.0937500
v -2.4218476 0.1642299 -0.0937500
v -2.4225820 0.1017342 -0.6250000
v -4.4950678 0.1365100 -0.6250000
v -4.4950678 0.1365100 0.4375000
v -2.4225820 0.1017342 0.4375000
v -2.4218476 0.1642299 -0.0937500
v -4.4937051 0.1989951 -0.0937500
v -2.4218476 0.1642299 -0.0937500
v -0.3497453 0.1502968 -0.0937500
v -0.3498513 0.0877968 -0.6250000
v -2.4225820 0.1017342 -0.6250000
v -2.4225820 0.1017342 0.4375000
v -0.3498513 0.0877968 0.4375000
v -0.3497453 0.1502968 -0.0937500
v -2.4218476 0.1642299 -0.0937500
v 0.3499447 0.0327969 0.5125000
v 2.4232283 0.0467380 0.5125000
v 2.4232283 0.0467380 -0.6750000
v 0.3499447 0.0327969 -0.6750000
v 2.4232283 0.0467380 0.5125000
v 4.4962670 0.0815230 0.5125000
v 4.4962670 0.0815230 -0.6750000
v 2.4232283 0.0467380 -0.6750000
v 0.3498938 0.0627969 0.5625000
v 2.4228758 0.0767359 0.5625000
v 2.4228758 0.0767359 0.5125000
v 0.3498938 0.0627969 0.5125000
v 2.4228758 0.0767359 0.5625000
v 4.4956129 0.1115159 0.5625000
v 4.4956129 0.1115159 0.5125000
v 2.4228758 0.0767359 0.5125000
v 0.3497453 0.1502968 -0.0937500
v 2.4218476 0.1642299 -0.0937500
v 2.4225820 0.1017342 -0.6250000
v 0.3498513 0.0877968 -0.6250000
v 0.3498513 0.0877968 0.4375000
v 2.4225820 0.1017342 0.4375000
v 2.4218476 0.1642299 -0.0937500
v 0.3497453 0.1502968 -0.0937500
v 2.4218476 0.1642299 -0.0937500
v 4.4937051 0.1989951 -0.0937500
v 4.4950678 0.1365100 -0.6250000
v 2.4225820 0.1017342 -0.6250000
v 2.4225820 0.1017342 0.4375000
v 4.4950678 0.1365100 0.4375000
v 4.4937051 0.1989951 -0.0937500
v 2.4218476 0.1642299 -0.0937500
v -4.4962670 0.0815230 1.8625000
v -2.4232283 0.0467380 1.8625000
v -2.4232283 0.0467380 0.6750000
v -4.4962670 0.0815230 0.6750000
v -2.4232283 0.0467380 1.8625000
v -0.3499447 0.0327969 1.8625000
v -0.3499447 0.0327969 0.6750000
v -2.4232283 0.0467380 0.6750000
v -4.4956129 0.1115159 1.9125000
v -2.4228758 0.0767359 1.9125000
v -2.4228758 0.0767359 1.8625000
v -4.4956129 0.1115159 1.8625000
v -2.4228758 0.0767359 1.9125000
v -0.3498938 0.0627969 1.9125000
v -0.3498938 0.0627969 1.8625000
v -2.4228758 0.0767359 1.8625000
v -4.4937051 0.1989951 1.2562500
v -2.4218476 0.1642299 1.2562500
v -2.4225820 0.1017342 0.7250000
v -4.4950678 0.1365100 0.7250000
v -4.4950678 0.1365100 1.7875000
v -2.4225820 0.1017342 1.7875000
v -2.4218476 0.1642299 1.2562500
v -4.4937051 0.1989951 1.2562500
v -2.4218476 0.1642299 1.2562500
v -0.3497453 0.1502968 1.2562500
v -0.3498513 0.0877968 0.7250000
v -2.4225820 0.1017342 0.7250000
v -2.4225820 0.1017342 1.7875000
v -0.3498513 0.0877968 1.7875000
v -0.3497453 0.1502968 1.2562500
v -2.4218476 0.1642299 1.2562500
v 0.3499447 0.0327969 1.8625000
v 2.4232283 0.0467380 1.8625000
v 2.4232283 0.0467380 0.6750000
v 0.3499447 0.0327969 0.6750000
v 2.4232283 0.0467380 1.8625000
v 4.4962670 0.0815230 1.8625000
v 4.4962670 0.0815230 0.6750000
v 2.4232283 0.0467380 0.6750000
v 0.3498938 0.0627969 1.9125000
v 2.4228758 0.0767359 1.9125000
v 2.4228758 0.0767359 1.8625000
v 0.3498938 0.0627969 1.8625000
v 2.4228758 0.0767359 1.9125000
v 4.4956129 0.1115159 1.9125000
v 4.4956129 0.1115159 1.8625000
v 2.4228758 0.0767359 1.8625000
v 0.3497453 0.1502968 1.2562500
v 2.4218476 0.1642299 1.2562500
v 2.4225820 0.1017342 0.7250000
v 0.3498513 0.0877968 0.7250000
v 0.3498513 0.0877968 1.7875000
v 2.4225820 0.1017342 1.7875000
v 2.4218476 0.1642299 1.2562500
v 0.3497453 0.1502968 1.2562500
v 2.4218476 0.1642299 1.2562500
v 4.4937051 0.1989951 1.2562500
v 4.4950678 0.1365100 0.7250000
v 2.4225820 0.1017342 0.7250000
v 2.4225820 0.1017342 1.7875000
v 4.4950678 0.1365100 1.7875000
v 4.4937051 0.1989951 1.2562500
v 2.4218476 0.1642299 1.2562500
vt 0.005000 0.995000
vt 0.245000 0.995000
vt 0.245000 0.755000
vt 0.255000 0.995000
vt 0.495000 0.995000
vt 0.495000 0.755000
vt 0.505000 0.995000
vt 0.745000 0.995000
vt 0.745000 0.755000
vt 0.755000 0.995000
vt 0.995000 0.995000
vt 0.995000 0.755000
vt 0.005000 0.745000
vt 0.245000 0.745000
vt 0.245000 0.505000
vt 0.255000 0.745000
vt 0.495000 0.745000
vt 0.495000 0.505000
vt 0.505000 0.745000
vt 0.745000 0.745000
vt 0.745000 0.505000
vt 0.755000 0.745000
vt 0.995000 0.745000
vt 0.995000 0.505000
vt 0.005000 0.495000
vt 0.245000 0.495000
vt 0.245000 0.255000
vt 0.255000 0.495000
vt 0.495000 0.495000
vt 0.495000 0.255000
vt 0.505000 0.495000
vt 0.745000 0.495000
vt 0.745000 0.255000
vt 0.755000 0.495000
vt 0.995000 0.495000
vt 0.995000 0.255000
vt 0.005000 0.245000
vt 0.245000 0.245000
vt 0.245000 0.005000
vt 0.255000 0.245000
vt 0.495000 0.245000
vt 0.495000 0.005000
vt 0.505000 0.245000
vt 0.745000 0.245000
vt 0.745000 0.005000
vt 0.755000 0.245000
vt 0.995000 0.245000
vt 0.995000 0.005000
g ornament
usemtl farm-kit
f 81/22 82/23 83/24
f 81/22 83/23 84/24
f 85/22 86/23 87/24
f 85/22 87/23 88/24
f 89/22 90/23 91/24
f 89/22 91/23 92/24
f 93/22 94/23 95/24
f 93/22 95/23 96/24
f 113/22 114/23 115/24
f 113/22 115/23 116/24
f 117/22 118/23 119/24
f 117/22 119/23 120/24
f 121/22 122/23 123/24
f 121/22 123/23 124/24
f 125/22 126/23 127/24
f 125/22 127/23 128/24
f 145/22 146/23 147/24
f 145/22 147/23 148/24
f 149/22 150/23 151/24
f 149/22 151/23 152/24
f 153/22 154/23 155/24
f 153/22 155/23 156/24
f 157/22 158/23 159/24
f 157/22 159/23 160/24
f 177/22 178/23 179/24
f 177/22 179/23 180/24
f 181/22 182/23 183/24
f 181/22 183/23 184/24
f 185/22 186/23 187/24
f 185/22 187/23 188/24
f 189/22 190/23 191/24
f 189/22 191/23 192/24
f 209/22 210/23 211/24
f 209/22 211/23 212/24
f 213/22 214/23 215/24
f 213/22 215/23 216/24
f 217/22 218/23 219/24
f 217/22 219/23 220/24
f 221/22 222/23 223/24
f 221/22 223/23 224/24
f 241/22 242/23 243/24
f 241/22 243/23 244/24
f 245/22 246/23 247/24
f 245/22 247/23 248/24
f 249/22 250/23 251/24
f 249/22 251/23 252/24
f 253/22 254/23 255/24
f 253/22 255/23 256/24
g solid
usemtl farm-kit
f 73/28 74/29 75/30
f 73/28 75/29 76/30
f 77/28 78/29 79/30
f 77/28 79/29 80/30
f 105/28 106/29 107/30
f 105/28 107/29 108/30
f 109/28 110/29 111/30
f 109/28 111/29 112/30
f 137/28 138/29 139/30
f 137/28 139/29 140/30
f 141/28 142/29 143/30
f 141/28 143/29 144/30
f 169/28 170/29 171/30
f 169/28 171/29 172/30
f 173/28 174/29 175/30
f 173/28 175/29 176/30
f 201/28 202/29 203/30
f 201/28 203/29 204/30
f 205/28 206/29 207/30
f 205/28 207/29 208/30
f 233/28 234/29 235/30
f 233/28 235/29 236/30
f 237/28 238/29 239/30
f 237/28 239/29 240/30
g support
usemtl farm-kit
f 1/1 2/2 3/3
f 1/1 3/2 4/3
f 5/1 6/2 7/3
f 5/1 7/2 8/3
f 9/1 10/2 11/3
f 9/1 11/2 12/3
f 13/1 14/2 15/3
f 13/1 15/2 16/3
f 17/1 18/2 19/3
f 17/1 19/2 20/3
f 21/4 22/5 23/6
f 21/4 23/5 24/6
f 25/4 26/5 27/6
f 25/4 27/5 28/6
f 29/4 30/5 31/6
f 29/4 31/5 32/6
f 33/4 34/5 35/6
f 33/4 35/5 36/6
f 37/4 38/5 39/6
f 37/4 39/5 40/6
f 41/4 42/5 43/6
f 41/4 43/5 44/6
f 45/4 46/5 47/6
f 45/4 47/5 48/6
f 49/4 50/5 51/6
f 49/4 51/5 52/6
f 53/4 54/5 55/6
f 53/4 55/5 56/6
f 57/4 58/5 59/6
f 57/4 59/5 60/6
f 61/4 62/5 63/6
f 61/4 63/5 64/6
g water
usemtl farm-water
f 65/25 66/26 67/27
f 65/25 67/26 68/27
f 69/25 70/26 71/27
f 69/25 71/26 72/27
f 97/25 98/26 99/27
f 97/25 99/26 100/27
f 101/25 102/26 103/27
f 101/25 103/26 104/27
f 129/25 130/26 131/27
f 129/25 131/26 132/27
f 133/25 134/26 135/27
f 133/25 135/26 136/27
f 161/25 162/26 163/27
f 161/25 163/26 164/27
f 165/25 166/26 167/27
f 165/25 167/26 168/27
f 193/25 194/26 195/27
f 193/25 195/26 196/27
f 197/25 198/26 199/27
f 197/25 199/26 200/27
f 225/25 226/26 227/27
f 225/25 227/26 228/27
f 229/25 230/26 231/27
f 229/25 231/26 232/27
