mtllib TorusSettlementFarm_A40.mtl
v -1.3888791 0.0045123 6.0000000
v 0.0000000 0.0000000 6.0000000
v 0.0000000 0.0000000 -6.0000000
v -1.3888791 0.0045123 -6.0000000
v 0.0000000 0.0000000 6.0000000
v 1.3888791 0.0045123 6.0000000
v 1.3888791 0.0045123 -6.0000000
v 0.0000000 0.0000000 -6.0000000
v -1.3887979 0.0170120 -5.6500000
v 0.0000000 0.0125000 -5.6500000
v 0.0000000 0.0125000 -6.0000000
v -1.3887979 0.0170120 -6.0000000
v 0.0000000 0.0125000 -5.6500000
v 1.3887979 0.0170120 -5.6500000
v 1.3887979 0.0170120 -6.0000000
v 0.0000000 0.0125000 -6.0000000
v -1.3887979 0.0170120 6.0000000
v 0.0000000 0.0125000 6.0000000
v 0.0000000 0.0125000 5.6500000
v -1.3887979 0.0170120 5.6500000
v 0.0000000 0.0125000 6.0000000
v 1.3887979 0.0170120 6.0000000
v 1.3887979 0.0170120 5.6500000
v 0.0000000 0.0125000 5.6500000
v -0.2777615 0.0126805 6.0000000
v 0.2777615 0.0126805 6.0000000
v 0.2777615 0.0126805 -6.0000000
v -0.2777615 0.0126805 -6.0000000
v -1.0381922 0.1450230 -5.3755714
v -0.3025758 0.1427143 -5.3755714
v -0.3026891 0.0627144 -5.6500000
v -1.0385810 0.0650239 -5.6500000
v -1.0385810 0.0650239 -5.1011429
v -0.3026891 0.0627144 -5.1011429
v -0.3025758 0.1427143 -5.3755714
v -1.0381922 0.1450230 -5.3755714
v 0.3025758 0.1427143 -5.3755714
v 1.0381922 0.1450230 -5.3755714
v 1.0385810 0.0650239 -5.6500000
v 0.3026891 0.0627144 -5.6500000
v 0.3026891 0.0627144 -5.1011429
v 1.0385810 0.0650239 -5.1011429
v 1.0381922 0.1450230 -5.3755714
v 0.3025758 0.1427143 -5.3755714
v -1.0381922 0.1450230 -4.5684286
v -0.3025758 0.1427143 -4.5684286
v -0.3026891 0.0627144 -4.8428571
v -1.0385810 0.0650239 -4.8428571
v -1.0385810 0.0650239 -4.2940000
v -0.3026891 0.0627144 -4.2940000
v -0.3025758 0.1427143 -4.5684286
v -1.0381922 0.1450230 -4.5684286
v 0.3025758 0.1427143 -4.5684286
v 1.0381922 0.1450230 -4.5684286
v 1.0385810 0.0650239 -4.8428571
v 0.3026891 0.0627144 -4.8428571
v 0.3026891 0.0627144 -4.2940000
v 1.0385810 0.0650239 -4.2940000
v 1.0381922 0.1450230 -4.5684286
v 0.3025758 0.1427143 -4.5684286
v -1.0381922 0.1450230 -3.7612857
v -0.3025758 0.1427143 -3.7612857
v -0.3026891 0.0627144 -4.0357143
v -1.0385810 0.0650239 -4.0357143
v -1.0385810 0.0650239 -3.4868571
v -0.3026891 0.0627144 -3.4868571
v -0.3025758 0.1427143 -3.7612857
v -1.0381922 0.1450230 -3.7612857
v 0.3025758 0.1427143 -3.7612857
v 1.0381922 0.1450230 -3.7612857
v 1.0385810 0.0650239 -4.0357143
v 0.3026891 0.0627144 -4.0357143
v 0.3026891 0.0627144 -3.4868571
v 1.0385810 0.0650239 -3.4868571
v 1.0381922 0.1450230 -3.7612857
v 0.3025758 0.1427143 -3.7612857
v -1.0381922 0.1450230 -2.9541429
v -0.3025758 0.1427143 -2.9541429
v -0.3026891 0.0627144 -3.2285714
v -1.0385810 0.0650239 -3.2285714
v -1.0385810 0.0650239 -2.6797143
v -0.3026891 0.0627144 -2.6797143
v -0.3025758 0.1427143 -2.9541429
v -1.0381922 0.1450230 -2.9541429
v 0.3025758 0.1427143 -2.9541429
v 1.0381922 0.1450230 -2.9541429
v 1.0385810 0.0650239 -3.2285714
v 0.3026891 0.0627144 -3.2285714
v 0.3026891 0.0627144 -2.6797143
v 1.0385810 0.0650239 -2.6797143
v 1.0381922 0.1450230 -2.9541429
v 0.3025758 0.1427143 -2.9541429
v -1.0381922 0.1450230 -2.1470000
v -0.3025758 0.1427143 -2.1470000
v -0.3026891 0.0627144 -2.4214286
v -1.0385810 0.0650239 -2.4214286
v -1.0385810 0.0650239 -1.8725714
v -0.3026891 0.0627144 -1.8725714
v -0.3025758 0.1427143 -2.1470000
v -1.0381922 0.1450230 -2.1470000
v 0.3025758 0.1427143 -2.1470000
v 1.0381922 0.1450230 -2.1470000
v 1.0385810 0.0650239 -2.4214286
v 0.3026891 0.0627144 -2.4214286
v 0.3026891 0.0627144 -1.8725714
v 1.0385810 0.0650239 -1.8725714
v 1.0381922 0.1450230 -2.1470000
v 0.3025758 0.1427143 -2.1470000
v -1.0381922 0.1450230 -1.3398571
v -0.3025758 0.1427143 -1.3398571
v -0.3026891 0.0627144 -1.6142857
v -1.0385810 0.0650239 -1.6142857
v -1.0385810 0.0650239 -1.0654286
v -0.3026891 0.0627144 -1.0654286
v -0.3025758 0.1427143 -1.3398571
v -1.0381922 0.1450230 -1.3398571
v 0.3025758 0.1427143 -1.3398571
v 1.0381922 0.1450230 -1.3398571
v 1.0385810 0.0650239 -1.6142857
v 0.3026891 0.0627144 -1.6142857
v 0.3026891 0.0627144 -1.0654286
v 1.0385810 0.0650239 -1.0654286
v 1.0381922 0.1450230 -1.3398571
v 0.3025758 0.1427143 -1.3398571
v -1.0381922 0.1450230 -0.5327143
v -0.3025758 0.1427143 -0.5327143
v -0.3026891 0.0627144 -0.8071429
v -1.0385810 0.0650239 -0.8071429
v -1.0385810 0.0650239 -0.2582857
v -0.3026891 0.0627144 -0.2582857
v -0.3025758 0.1427143 -0.5327143
v -1.0381922 0.1450230 -0.5327143
v 0.3025758 0.1427143 -0.5327143
v 1.0381922 0.1450230 -0.5327143
v 1.0385810 0.0650239 -0.8071429
v 0.3026891 0.0627144 -0.8071429
v 0.3026891 0.0627144 -0.2582857
v 1.0385810 0.0650239 -0.2582857
v 1.0381922 0.1450230 -0.5327143
v 0.3025758 0.1427143 -0.5327143
v -1.0381922 0.1450230 0.2744286
v -0.3025758 0.1427143 0.2744286
v -0.3026891 0.0627144 0.0000000
v -1.0385810 0.0650239 0.0000000
v -1.0385810 0.0650239 0.5488571
v -0.3026891 0.0627144 0.5488571
v -0.3025758 0.1427143 0.2744286
v -1.0381922 0.1450230 0.2744286
v 0.3025758 0.1427143 0.2744286
v 1.0381922 0.1450230 0.2744286
v 1.0385810 0.0650239 0.0000000
v 0.3026891 0.0627144 0.0000000
v 0.3026891 0.0627144 0.5488571
v 1.0385810 0.0650239 0.5488571
v 1.0381922 0.1450230 0.2744286
v 0.3025758 0.1427143 0.2744286
v -1.0381922 0.1450230 1.0815714
v -0.3025758 0.1427143 1.0815714
v -0.3026891 0.0627144 0.8071429
v -1.0385810 0.0650239 0.8071429
v -1.0385810 0.0650239 1.3560000
v -0.3026891 0.0627144 1.3560000
v -0.3025758 0.1427143 1.0815714
v -1.0381922 0.1450230 1.0815714
v 0.3025758 0.1427143 1.0815714
v 1.0381922 0.1450230 1.0815714
v 1.0385810 0.0650239 0.8071429
v 0.3026891 0.0627144 0.8071429
v 0.3026891 0.0627144 1.3560000
v 1.0385810 0.0650239 1.3560000
v 1.0381922 0.1450230 1.0815714
v 0.3025758 0.1427143 1.0815714
v -1.0381922 0.1450230 1.8887143
v -0.3025758 0.1427143 1.8887143
v -0.3026891 0.0627144 1.6142857
v -1.0385810 0.0650239 1.6142857
v -1.0385810 0.0650239 2.1631429
v -0.3026891 0.0627144 2.1631429
v -0.3025758 0.1427143 1.8887143
v -1.0381922 0.1450230 1.8887143
v 0.3025758 0.1427143 1.8887143
v 1.0381922 0.1450230 1.8887143
v 1.0385810 0.0650239 1.6142857
v 0.3026891 0.0627144 1.6142857
v 0.3026891 0.0627144 2.1631429
v 1.0385810 0.0650239 2.1631429
v 1.0381922 0.1450230 1.8887143
v 0.3025758 0.1427143 1.8887143
v -1.0381922 0.1450230 2.6958571
v -0.3025758 0.1427143 2.6958571
v -0.3026891 0.0627144 2.4214286
v -1.0385810 0.0650239 2.4214286
v -1.0385810 0.0650239 2.9702857
v -0.3026891 0.0627144 2.9702857
v -0.3025758 0.1427143 2.6958571
v -1.0381922 0.1450230 2.6958571
v 0.3025758 0.1427143 2.6958571
v 1.0381922 0.1450230 2.6958571
v 1.0385810 0.0650239 2.4214286
v 0.3026891 0.0627144 2.4214286
v 0.3026891 0.0627144 2.9702857
v 1.0385810 0.0650239 2.9702857
v 1.0381922 0.1450230 2.6958571
v 0.3025758 0.1427143 2.6958571
v -1.0381922 0.1450230 3.5030000
v -0.3025758 0.1427143 3.5030000
v -0.3026891 0.0627144 3.2285714
v -1.0385810 0.0650239 3.2285714
v -1.0385810 0.0650239 3.7774286
v -0.3026891 0.0627144 3.7774286
v -0.3025758 0.1427143 3.5030000
v -1.0381922 0.1450230 3.5030000
v 0.3025758 0.1427143 3.5030000
v 1.0381922 0.1450230 3.5030000
v 1.0385810 0.0650239 3.2285714
v 0.3026891 0.0627144 3.2285714
v 0.3026891 0.0627144 3.7774286
v 1.0385810 0.0650239 3.7774286
v 1.0381922 0.1450230 3.5030000
v 0.3025758 0.1427143 3.5030000
v -1.0381922 0.1450230 4.3101429
v -0.3025758 0.1427143 4.3101429
v -0.3026891 0.0627144 4.0357143
v -1.0385810 0.0650239 4.0357143
v -1.0385810 0.0650239 4.5845714
v -0.3026891 0.0627144 4.5845714
v -0.3025758 0.1427143 4.3101429
v -1.0381922 0.1450230 4.3101429
v 0.3025758 0.1427143 4.3101429
v 1.0381922 0.1450230 4.3101429
v 1.0385810 0.0650239 4.0357143
v 0.3026891 0.0627144 4.0357143
v 0.3026891 0.0627144 4.5845714
v 1.0385810 0.0650239 4.5845714
v 1.0381922 0.1450230 4.3101429
v 0.3025758 0.1427143 4.3101429
v -1.0381922 0.1450230 5.1172857
v -0.3025758 0.1427143 5.1172857
v -0.3026891 0.0627144 4.8428571
v -1.0385810 0.0650239 4.8428571
v -1.0385810 0.0650239 5.3917143
v -0.3026891 0.0627144 5.3917143
v -0.3025758 0.1427143 5.1172857
v -1.0381922 0.1450230 5.1172857
v 0.3025758 0.1427143 5.1172857
v 1.0381922 0.1450230 5.1172857
v 1.0385810 0.0650239 4.8428571
v 0.3026891 0.0627144 4.8428571
v 0.3026891 0.0627144 5.3917143
v 1.0385810 0.0650239 5.3917143
v 1.0381922 0.1450230 5.1172857
v 0.3025758 0.1427143 5.1172857
v -1.0346321 0.8775143 -3.5750000
v 1.0346321 0.8775143 -3.5750000
v 1.0346321 0.8775143 -3.6250000
v -1.0346321 0.8775143 -3.6250000
v -1.0346321 0.8775143 3.6250000
v 1.0346321 0.8775143 3.6250000
v 1.0346321 0.8775143 3.5750000
v -1.0346321 0.8775143 3.5750000
vt 0.005000 0.995000
vt 0.245000 0.995000
vt 0.245000 0.755000
vt 0.255000 0.995000
vt 0.495000 0.995000
vt 0.495000 0.755000
vt 0.505000 0.995000
vt 0.745000 0.995000
vt 0.745000 0.755000
vt 0.755000 0.995000
vt 0.995000 0.995000
vt 0.995000 0.755000
vt 0.005000 0.745000
vt 0.245000 0.745000
vt 0.245000 0.505000
vt 0.255000 0.745000
vt 0.495000 0.745000
vt 0.495000 0.505000
vt 0.505000 0.745000
vt 0.745000 0.745000
vt 0.745000 0.505000
vt 0.755000 0.745000
vt 0.995000 0.745000
vt 0.995000 0.505000
vt 0.005000 0.495000
vt 0.245000 0.495000
vt 0.245000 0.255000
vt 0.255000 0.495000
vt 0.495000 0.495000
vt 0.495000 0.255000
vt 0.505000 0.495000
vt 0.745000 0.495000
vt 0.745000 0.255000
vt 0.755000 0.495000
vt 0.995000 0.495000
vt 0.995000 0.255000
vt 0.005000 0.245000
vt 0.245000 0.245000
vt 0.245000 0.005000
vt 0.255000 0.245000
vt 0.495000 0.245000
vt 0.495000 0.005000
vt 0.505000 0.245000
vt 0.745000 0.245000
vt 0.745000 0.005000
vt 0.755000 0.245000
vt 0.995000 0.245000
vt 0.995000 0.005000
g lighting
usemtl farm-kit
f 253/43 254/44 255/45
f 253/43 255/44 256/45
f 257/43 258/44 259/45
f 257/43 259/44 260/45
g ornament
usemtl farm-kit
f 29/16 30/17 31/18
f 29/16 31/17 32/18
f 33/16 34/17 35/18
f 33/16 35/17 36/18
f 37/16 38/17 39/18
f 37/16 39/17 40/18
f 41/16 42/17 43/18
f 41/16 43/17 44/18
f 45/16 46/17 47/18
f 45/16 47/17 48/18
f 49/16 50/17 51/18
f 49/16 51/17 52/18
f 53/16 54/17 55/18
f 53/16 55/17 56/18
f 57/16 58/17 59/18
f 57/16 59/17 60/18
f 61/16 62/17 63/18
f 61/16 63/17 64/18
f 65/16 66/17 67/18
f 65/16 67/17 68/18
f 69/16 70/17 71/18
f 69/16 71/17 72/18
f 73/16 74/17 75/18
f 73/16 75/17 76/18
f 77/16 78/17 79/18
f 77/16 79/17 80/18
f 81/16 82/17 83/18
f 81/16 83/17 84/18
f 85/16 86/17 87/18
f 85/16 87/17 88/18
f 89/16 90/17 91/18
f 89/16 91/17 92/18
f 93/16 94/17 95/18
f 93/16 95/17 96/18
f 97/16 98/17 99/18
f 97/16 99/17 100/18
f 101/16 102/17 103/18
f 101/16 103/17 104/18
f 105/16 106/17 107/18
f 105/16 107/17 108/18
f 109/16 110/17 111/18
f 109/16 111/17 112/18
f 113/16 114/17 115/18
f 113/16 115/17 116/18
f 117/16 118/17 119/18
f 117/16 119/17 120/18
f 121/16 122/17 123/18
f 121/16 123/17 124/18
f 125/16 126/17 127/18
f 125/16 127/17 128/18
f 129/16 130/17 131/18
f 129/16 131/17 132/18
f 133/16 134/17 135/18
f 133/16 135/17 136/18
f 137/16 138/17 139/18
f 137/16 139/17 140/18
f 141/16 142/17 143/18
f 141/16 143/17 144/18
f 145/16 146/17 147/18
f 145/16 147/17 148/18
f 149/16 150/17 151/18
f 149/16 151/17 152/18
f 153/16 154/17 155/18
f 153/16 155/17 156/18
f 157/16 158/17 159/18
f 157/16 159/17 160/18
f 161/16 162/17 163/18
f 161/16 163/17 164/18
f 165/16 166/17 167/18
f 165/16 167/17 168/18
f 169/16 170/17 171/18
f 169/16 171/17 172/18
f 173/16 174/17 175/18
f 173/16 175/17 176/18
f 177/16 178/17 179/18
f 177/16 179/17 180/18
f 181/16 182/17 183/18
f 181/16 183/17 184/18
f 185/16 186/17 187/18
f 185/16 187/17 188/18
f 189/16 190/17 191/18
f 189/16 191/17 192/18
f 193/16 194/17 195/18
f 193/16 195/17 196/18
f 197/16 198/17 199/18
f 197/16 199/17 200/18
f 201/16 202/17 203/18
f 201/16 203/17 204/18
f 205/16 206/17 207/18
f 205/16 207/17 208/18
f 209/16 210/17 211/18
f 209/16 211/17 212/18
f 213/16 214/17 215/18
f 213/16 215/17 216/18
f 217/16 218/17 219/18
f 217/16 219/17 220/18
f 221/16 222/17 223/18
f 221/16 223/17 224/18
f 225/16 226/17 227/18
f 225/16 227/17 228/18
f 229/16 230/17 231/18
f 229/16 231/17 232/18
f 233/16 234/17 235/18
f 233/16 235/17 236/18
f 237/16 238/17 239/18
f 237/16 239/17 240/18
f 241/16 242/17 243/18
f 241/16 243/17 244/18
f 245/16 246/17 247/18
f 245/16 247/17 248/18
f 249/16 250/17 251/18
f 249/16 251/17 252/18
g support
usemtl farm-kit
f 1/1 2/2 3/3
f 1/1 3/2 4/3
f 5/1 6/2 7/3
f 5/1 7/2 8/3
f 9/4 10/5 11/6
f 9/4 11/5 12/6
f 13/4 14/5 15/6
f 13/4 15/5 16/6
f 17/4 18/5 19/6
f 17/4 19/5 20/6
f 21/4 22/5 23/6
f 21/4 23/5 24/6
f 25/4 26/5 27/6
f 25/4 27/5 28/6
