mtllib TorusSettlementFarm_A61.mtl
v -4.7739222 0.0523979 12.0000000
v -2.8645005 0.0188637 12.0000000
v -2.8645005 0.0188637 -12.0000000
v -4.7739222 0.0523979 -12.0000000
v -2.8645005 0.0188637 12.0000000
v -0.9548580 0.0020960 12.0000000
v -0.9548580 0.0020960 -12.0000000
v -2.8645005 0.0188637 -12.0000000
v -0.9548580 0.0020960 12.0000000
v 0.9548580 0.0020960 12.0000000
v 0.9548580 0.0020960 -12.0000000
v -0.9548580 0.0020960 -12.0000000
v 0.9548580 0.0020960 12.0000000
v 2.8645005 0.0188637 12.0000000
v 2.8645005 0.0188637 -12.0000000
v 0.9548580 0.0020960 -12.0000000
v 2.8645005 0.0188637 12.0000000
v 4.7739222 0.0523979 12.0000000
v 4.7739222 0.0523979 -12.0000000
v 2.8645005 0.0188637 -12.0000000
v -4.7736478 0.0648949 -11.6500000
v -2.8643359 0.0313626 -11.6500000
v -2.8643359 0.0313626 -12.0000000
v -4.7736478 0.0648949 -12.0000000
v -2.8643359 0.0313626 -11.6500000
v -0.9548032 0.0145959 -11.6500000
v -0.9548032 0.0145959 -12.0000000
v -2.8643359 0.0313626 -12.0000000
v -0.9548032 0.0145959 -11.6500000
v 0.9548032 0.0145959 -11.6500000
v 0.9548032 0.0145959 -12.0000000
v -0.9548032 0.0145959 -12.0000000
v 0.9548032 0.0145959 -11.6500000
v 2.8643359 0.0313626 -11.6500000
v 2.8643359 0.0313626 -12.0000000
v 0.9548032 0.0145959 -12.0000000
v 2.8643359 0.0313626 -11.6500000
v 4.7736478 0.0648949 -11.6500000
v 4.7736478 0.0648949 -12.0000000
v 2.8643359 0.0313626 -12.0000000
v -4.7736478 0.0648949 12.0000000
v -2.8643359 0.0313626 12.0000000
v -2.8643359 0.0313626 11.6500000
v -4.7736478 0.0648949 11.6500000
v -2.8643359 0.0313626 12.0000000
v -0.9548032 0.0145959 12.0000000
v -0.9548032 0.0145959 11.6500000
v -2.8643359 0.0313626 11.6500000
v -0.9548032 0.0145959 12.0000000
v 0.9548032 0.0145959 12.0000000
v 0.9548032 0.0145959 11.6500000
v -0.9548032 0.0145959 11.6500000
v 0.9548032 0.0145959 12.0000000
v 2.8643359 0.0313626 12.0000000
v 2.8643359 0.0313626 11.6500000
v 0.9548032 0.0145959 11.6500000
v 2.8643359 0.0313626 12.0000000
v 4.7736478 0.0648949 12.0000000
v 4.7736478 0.0648949 11.6500000
v 2.8643359 0.0313626 11.6500000
v -0.2999827 0.0127069 12.0000000
v 0.2999827 0.0127069 12.0000000
v 0.2999827 0.0127069 -12.0000000
v -0.2999827 0.0127069 -12.0000000
v -4.3315958 0.6807638 -1.8000000
v -0.9996620 0.6398041 -1.8000000
v -0.9996620 0.6398041 -9.2400000
v -4.3315958 0.6807638 -9.2400000
v -4.3315958 0.6807638 -9.2400000
v -0.9996620 0.6398041 -9.2400000
v -1.0025430 0.0148107 -9.2400000
v -4.3440795 0.0558885 -9.2400000
v -0.9996620 0.6398041 -9.2400000
v -0.9996620 0.6398041 -1.8000000
v -1.0025430 0.0148107 -1.8000000
v -1.0025430 0.0148107 -9.2400000
v -0.9996620 0.6398041 -1.8000000
v -4.3315958 0.6807638 -1.8000000
v -4.3440795 0.0558885 -1.8000000
v -1.0025430 0.0148107 -1.8000000
v -4.3315958 0.6807638 -1.8000000
v -4.3315958 0.6807638 -9.2400000
v -4.3440795 0.0558885 -9.2400000
v -4.3440795 0.0558885 -1.8000000
v -4.3535042 0.8312329 -5.5200000
v -2.6638637 0.8038729 -5.5200000
v -2.6657075 0.6538843 -9.2650000
v -4.3565175 0.6812631 -9.2650000
v -4.3565175 0.6812631 -1.7750000
v -2.6657075 0.6538843 -1.7750000
v -2.6638637 0.8038729 -5.5200000
v -4.3535042 0.8312329 -5.5200000
v -2.6638637 0.8038729 -5.5200000
v -0.9740613 0.7896891 -5.5200000
v -0.9747355 0.6396906 -9.2650000
v -2.6657075 0.6538843 -9.2650000
v -2.6657075 0.6538843 -1.7750000
v -0.9747355 0.6396906 -1.7750000
v -0.9740613 0.7896891 -5.5200000
v -2.6638637 0.8038729 -5.5200000
v -4.3439796 0.0608875 -1.5500000
v -2.6733287 0.0339311 -1.5500000
v -2.6733287 0.0339311 -1.7750000
v -4.3439796 0.0608875 -1.7750000
v -2.6733287 0.0339311 -1.5500000
v -1.0025199 0.0198106 -1.5500000
v -1.0025199 0.0198106 -1.7750000
v -2.6733287 0.0339311 -1.7750000
v 0.9996620 0.6398041 -1.8000000
v 4.3315958 0.6807638 -1.8000000
v 4.3315958 0.6807638 -9.2400000
v 0.9996620 0.6398041 -9.2400000
v 0.9996620 0.6398041 -9.2400000
v 4.3315958 0.6807638 -9.2400000
v 4.3440795 0.0558885 -9.2400000
v 1.0025430 0.0148107 -9.2400000
v 4.3315958 0.6807638 -9.2400000
v 4.3315958 0.6807638 -1.8000000
v 4.3440795 0.0558885 -1.8000000
v 4.3440795 0.0558885 -9.2400000
v 4.3315958 0.6807638 -1.8000000
v 0.9996620 0.6398041 -1.8000000
v 1.0025430 0.0148107 -1.8000000
v 4.3440795 0.0558885 -1.8000000
v 0.9996620 0.6398041 -1.8000000
v 0.9996620 0.6398041 -9.2400000
v 1.0025430 0.0148107 -9.2400000
v 1.0025430 0.0148107 -1.8000000
v 0.9740613 0.7896891 -5.5200000
v 2.6638637 0.8038729 -5.5200000
v 2.6657075 0.6538843 -9.2650000
v 0.9747355 0.6396906 -9.2650000
v 0.9747355 0.6396906 -1.7750000
v 2.6657075 0.6538843 -1.7750000
v 2.6638637 0.8038729 -5.5200000
v 0.9740613 0.7896891 -5.5200000
v 2.6638637 0.8038729 -5.5200000
v 4.3535042 0.8312329 -5.5200000
v 4.3565175 0.6812631 -9.2650000
v 2.6657075 0.6538843 -9.2650000
v 2.6657075 0.6538843 -1.7750000
v 4.3565175 0.6812631 -1.7750000
v 4.3535042 0.8312329 -5.5200000
v 2.6638637 0.8038729 -5.5200000
v 1.0025199 0.0198106 -1.5500000
v 2.6733287 0.0339311 -1.5500000
v 2.6733287 0.0339311 -1.7750000
v 1.0025199 0.0198106 -1.7750000
v 2.6733287 0.0339311 -1.5500000
v 4.3439796 0.0608875 -1.5500000
v 4.3439796 0.0608875 -1.7750000
v 2.6733287 0.0339311 -1.7750000
v -3.6932030 0.1838800 3.1462500
v -3.5583165 0.1816295 3.1462500
v -3.5583165 0.1816295 3.0937500
v -3.6932030 0.1838800 3.0937500
v -3.6932030 0.1838800 3.0937500
v -3.5583165 0.1816295 3.0937500
v -3.5591760 0.1291366 3.0937500
v -3.6940951 0.1313876 3.0937500
v -3.5583165 0.1816295 3.0937500
v -3.5583165 0.1816295 3.1462500
v -3.5591760 0.1291366 3.1462500
v -3.5591760 0.1291366 3.0937500
v -3.5583165 0.1816295 3.1462500
v -3.6932030 0.1838800 3.1462500
v -3.6940951 0.1313876 3.1462500
v -3.5591760 0.1291366 3.1462500
v -3.6932030 0.1838800 3.1462500
v -3.6932030 0.1838800 3.0937500
v -3.6940951 0.1313876 3.0937500
v -3.6940951 0.1313876 3.1462500
v -3.5827947 0.1745307 3.1425000
v -3.5415778 0.1738551 3.1425000
v -3.5415778 0.1738551 3.0975000
v -3.5827947 0.1745307 3.0975000
v -3.5827947 0.1745307 3.0975000
v -3.5415778 0.1738551 3.0975000
v -3.5423110 0.1288611 3.0975000
v -3.5835365 0.1295368 3.0975000
v -3.5415778 0.1738551 3.0975000
v -3.5415778 0.1738551 3.1425000
v -3.5423110 0.1288611 3.1425000
v -3.5423110 0.1288611 3.0975000
v -3.5415778 0.1738551 3.1425000
v -3.5827947 0.1745307 3.1425000
v -3.5835365 0.1295368 3.1425000
v -3.5423110 0.1288611 3.1425000
v -3.5827947 0.1745307 3.1425000
v -3.5827947 0.1745307 3.0975000
v -3.5835365 0.1295368 3.0975000
v -3.5835365 0.1295368 3.1425000
v -1.3078939 0.1564352 3.1462500
v -1.1729907 0.1556652 3.1462500
v -1.1729907 0.1556652 3.0937500
v -1.3078939 0.1564352 3.0937500
v -1.3078939 0.1564352 3.0937500
v -1.1729907 0.1556652 3.0937500
v -1.1732741 0.1031660 3.0937500
v -1.3082098 0.1039361 3.0937500
v -1.1729907 0.1556652 3.0937500
v -1.1729907 0.1556652 3.1462500
v -1.1732741 0.1031660 3.1462500
v -1.1732741 0.1031660 3.0937500
v -1.1729907 0.1556652 3.1462500
v -1.3078939 0.1564352 3.1462500
v -1.3082098 0.1039361 3.1462500
v -1.1732741 0.1031660 3.1462500
v -1.3078939 0.1564352 3.1462500
v -1.3078939 0.1564352 3.0937500
v -1.3082098 0.1039361 3.0937500
v -1.3082098 0.1039361 3.1462500
v -1.1973896 0.1482982 3.1425000
v -1.1561677 0.1480750 3.1425000
v -1.1561677 0.1480750 3.0975000
v -1.1973896 0.1482982 3.0975000
v -1.1973896 0.1482982 3.0975000
v -1.1561677 0.1480750 3.0975000
v -1.1564071 0.1030756 3.0975000
v -1.1976375 0.1032989 3.0975000
v -1.1561677 0.1480750 3.0975000
v -1.1561677 0.1480750 3.1425000
v -1.1564071 0.1030756 3.1425000
v -1.1564071 0.1030756 3.0975000
v -1.1561677 0.1480750 3.1425000
v -1.1973896 0.1482982 3.1425000
v -1.1976375 0.1032989 3.1425000
v -1.1564071 0.1030756 3.1425000
v -1.1973896 0.1482982 3.1425000
v -1.1973896 0.1482982 3.0975000
v -1.1976375 0.1032989 3.0975000
v -1.1976375 0.1032989 3.1425000
v 1.0775728 0.1551712 3.1462500
v 1.2124763 0.1558819 3.1462500
v 1.2124763 0.1558819 3.0937500
v 1.0775728 0.1551712 3.0937500
v 1.0775728 0.1551712 3.0937500
v 1.2124763 0.1558819 3.0937500
v 1.2127692 0.1033828 3.0937500
v 1.0778331 0.1026719 3.0937500
v 1.2124763 0.1558819 3.0937500
v 1.2124763 0.1558819 3.1462500
v 1.2127692 0.1033828 3.1462500
v 1.2127692 0.1033828 3.0937500
v 1.2124763 0.1558819 3.1462500
v 1.0775728 0.1551712 3.1462500
v 1.0778331 0.1026719 3.1462500
v 1.2127692 0.1033828 3.1462500
v 1.0775728 0.1551712 3.1462500
v 1.0775728 0.1551712 3.0937500
v 1.0778331 0.1026719 3.0937500
v 1.0778331 0.1026719 3.1462500
v 1.1881598 0.1482475 3.1425000
v 1.2293816 0.1484768 3.1425000
v 1.2293816 0.1484768 3.0975000
v 1.1881598 0.1482475 3.0975000
v 1.1881598 0.1482475 3.0975000
v 1.2293816 0.1484768 3.0975000
v 1.2296362 0.1034775 3.0975000
v 1.1884058 0.1032482 3.0975000
v 1.2293816 0.1484768 3.0975000
v 1.2293816 0.1484768 3.1425000
v 1.2296362 0.1034775 3.1425000
v 1.2296362 0.1034775 3.0975000
v 1.2293816 0.1484768 3.1425000
v 1.1881598 0.1482475 3.1425000
v 1.1884058 0.1032482 3.1425000
v 1.2296362 0.1034775 3.1425000
v 1.1881598 0.1482475 3.1425000
v 1.1881598 0.1482475 3.0975000
v 1.1884058 0.1032482 3.0975000
v 1.1884058 0.1032482 3.1425000
v 3.4629098 0.1800883 3.1462500
v 3.5977973 0.1822796 3.1462500
v 3.5977973 0.1822796 3.0937500
v 3.4629098 0.1800883 3.0937500
v 3.4629098 0.1800883 3.0937500
v 3.5977973 0.1822796 3.0937500
v 3.5986664 0.1297868 3.0937500
v 3.4637462 0.1275950 3.0937500
v 3.5977973 0.1822796 3.0937500
v 3.5977973 0.1822796 3.1462500
v 3.5986664 0.1297868 3.1462500
v 3.5986664 0.1297868 3.0937500
v 3.5977973 0.1822796 3.1462500
v 3.4629098 0.1800883 3.1462500
v 3.4637462 0.1275950 3.1462500
v 3.5986664 0.1297868 3.1462500
v 3.4629098 0.1800883 3.1462500
v 3.4629098 0.1800883 3.0937500
v 3.4637462 0.1275950 3.0937500
v 3.4637462 0.1275950 3.1462500
v 3.5735660 0.1743788 3.1425000
v 3.6147829 0.1750604 3.1425000
v 3.6147829 0.1750604 3.0975000
v 3.5735660 0.1743788 3.0975000
v 3.5735660 0.1743788 3.0975000
v 3.6147829 0.1750604 3.0975000
v 3.6155313 0.1300666 3.0975000
v 3.5743059 0.1293848 3.0975000
v 3.6147829 0.1750604 3.0975000
v 3.6147829 0.1750604 3.1425000
v 3.6155313 0.1300666 3.1425000
v 3.6155313 0.1300666 3.0975000
v 3.6147829 0.1750604 3.1425000
v 3.5735660 0.1743788 3.1425000
v 3.5743059 0.1293848 3.1425000
v 3.6155313 0.1300666 3.1425000
v 3.5735660 0.1743788 3.1425000
v 3.5735660 0.1743788 3.0975000
v 3.5743059 0.1293848 3.0975000
v 3.5743059 0.1293848 3.1425000
v -3.6932030 0.1838800 7.4662500
v -3.5583165 0.1816295 7.4662500
v -3.5583165 0.1816295 7.4137500
v -3.6932030 0.1838800 7.4137500
v -3.6932030 0.1838800 7.4137500
v -3.5583165 0.1816295 7.4137500
v -3.5591760 0.1291366 7.4137500
v -3.6940951 0.1313876 7.4137500
v -3.5583165 0.1816295 7.4137500
v -3.5583165 0.1816295 7.4662500
v -3.5591760 0.1291366 7.4662500
v -3.5591760 0.1291366 7.4137500
v -3.5583165 0.1816295 7.4662500
v -3.6932030 0.1838800 7.4662500
v -3.6940951 0.1313876 7.4662500
v -3.5591760 0.1291366 7.4662500
v -3.6932030 0.1838800 7.4662500
v -3.6932030 0.1838800 7.4137500
v -3.6940951 0.1313876 7.4137500
v -3.6940951 0.1313876 7.4662500
v -3.5827947 0.1745307 7.4625000
v -3.5415778 0.1738551 7.4625000
v -3.5415778 0.1738551 7.4175000
v -3.5827947 0.1745307 7.4175000
v -3.5827947 0.1745307 7.4175000
v -3.5415778 0.1738551 7.4175000
v -3.5423110 0.1288611 7.4175000
v -3.5835365 0.1295368 7.4175000
v -3.5415778 0.1738551 7.4175000
v -3.5415778 0.1738551 7.4625000
v -3.5423110 0.1288611 7.4625000
v -3.5423110 0.1288611 7.4175000
v -3.5415778 0.1738551 7.4625000
v -3.5827947 0.1745307 7.4625000
v -3.5835365 0.1295368 7.4625000
v -3.5423110 0.1288611 7.4625000
v -3.5827947 0.1745307 7.4625000
v -3.5827947 0.1745307 7.4175000
v -3.5835365 0.1295368 7.4175000
v -3.5835365 0.1295368 7.4625000
v -1.3078939 0.1564352 7.4662500
v -1.1729907 0.1556652 7.4662500
v -1.1729907 0.1556652 7.4137500
v -1.3078939 0.1564352 7.4137500
v -1.3078939 0.1564352 7.4137500
v -1.1729907 0.1556652 7.4137500
v -1.1732741 0.1031660 7.4137500
v -1.3082098 0.1039361 7.4137500
v -1.1729907 0.1556652 7.4137500
v -1.1729907 0.1556652 7.4662500
v -1.1732741 0.1031660 7.4662500
v -1.1732741 0.1031660 7.4137500
v -1.1729907 0.1556652 7.4662500
v -1.3078939 0.1564352 7.4662500
v -1.3082098 0.1039361 7.4662500
v -1.1732741 0.1031660 7.4662500
v -1.3078939 0.1564352 7.4662500
v -1.3078939 0.1564352 7.4137500
v -1.3082098 0.1039361 7.4137500
v -1.3082098 0.1039361 7.4662500
v -1.1973896 0.1482982 7.4625000
v -1.1561677 0.1480750 7.4625000
v -1.1561677 0.1480750 7.4175000
v -1.1973896 0.1482982 7.4175000
v -1.1973896 0.1482982 7.4175000
v -1.1561677 0.1480750 7.4175000
v -1.1564071 0.1030756 7.4175000
v -1.1976375 0.1032989 7.4175000
v -1.1561677 0.1480750 7.4175000
v -1.1561677 0.1480750 7.4625000
v -1.1564071 0.1030756 7.4625000
v -1.1564071 0.1030756 7.4175000
v -1.1561677 0.1480750 7.4625000
v -1.1973896 0.1482982 7.4625000
v -1.1976375 0.1032989 7.4625000
v -1.1564071 0.1030756 7.4625000
v -1.1973896 0.1482982 7.4625000
v -1.1973896 0.1482982 7.4175000
v -1.1976375 0.1032989 7.4175000
v -1.1976375 0.1032989 7.4625000
v 1.0775728 0.1551712 7.4662500
v 1.2124763 0.1558819 7.4662500
v 1.2124763 0.1558819 7.4137500
v 1.0775728 0.1551712 7.4137500
v 1.0775728 0.1551712 7.4137500
v 1.2124763 0.1558819 7.4137500
v 1.2127692 0.1033828 7.4137500
v 1.0778331 0.1026719 7.4137500
v 1.2124763 0.1558819 7.4137500
v 1.2124763 0.1558819 7.4662500
v 1.2127692 0.1033828 7.4662500
v 1.2127692 0.1033828 7.4137500
v 1.2124763 0.1558819 7.4662500
v 1.0775728 0.1551712 7.4662500
v 1.0778331 0.1026719 7.4662500
v 1.2127692 0.1033828 7.4662500
v 1.0775728 0.1551712 7.4662500
v 1.0775728 0.1551712 7.4137500
v 1.0778331 0.1026719 7.4137500
v 1.0778331 0.1026719 7.4662500
v 1.1881598 0.1482475 7.4625000
v 1.2293816 0.1484768 7.4625000
v 1.2293816 0.1484768 7.4175000
v 1.1881598 0.1482475 7.4175000
v 1.1881598 0.1482475 7.4175000
v 1.2293816 0.1484768 7.4175000
v 1.2296362 0.1034775 7.4175000
v 1.1884058 0.1032482 7.4175000
v 1.2293816 0.1484768 7.4175000
v 1.2293816 0.1484768 7.4625000
v 1.2296362 0.1034775 7.4625000
v 1.2296362 0.1034775 7.4175000
v 1.2293816 0.1484768 7.4625000
v 1.1881598 0.1482475 7.4625000
v 1.1884058 0.1032482 7.4625000
v 1.2296362 0.1034775 7.4625000
v 1.1881598 0.1482475 7.4625000
v 1.1881598 0.1482475 7.4175000
v 1.1884058 0.1032482 7.4175000
v 1.1884058 0.1032482 7.4625000
v 3.4629098 0.1800883 7.4662500
v 3.5977973 0.1822796 7.4662500
v 3.5977973 0.1822796 7.4137500
v 3.4629098 0.1800883 7.4137500
v 3.4629098 0.1800883 7.4137500
v 3.5977973 0.1822796 7.4137500
v 3.5986664 0.1297868 7.4137500
v 3.4637462 0.1275950 7.4137500
v 3.5977973 0.1822796 7.4137500
v 3.5977973 0.1822796 7.4662500
v 3.5986664 0.1297868 7.4662500
v 3.5986664 0.1297868 7.4137500
v 3.5977973 0.1822796 7.4662500
v 3.4629098 0.1800883 7.4662500
v 3.4637462 0.1275950 7.4662500
v 3.5986664 0.1297868 7.4662500
v 3.4629098 0.1800883 7.4662500
v 3.4629098 0.1800883 7.4137500
v 3.4637462 0.1275950 7.4137500
v 3.4637462 0.1275950 7.4662500
v 3.5735660 0.1743788 7.4625000
v 3.6147829 0.1750604 7.4625000
v 3.6147829 0.1750604 7.4175000
v 3.5735660 0.1743788 7.4175000
v 3.5735660 0.1743788 7.4175000
v 3.6147829 0.1750604 7.4175000
v 3.6155313 0.1300666 7.4175000
v 3.5743059 0.1293848 7.4175000
v 3.6147829 0.1750604 7.4175000
v 3.6147829 0.1750604 7.4625000
v 3.6155313 0.1300666 7.4625000
v 3.6155313 0.1300666 7.4175000
v 3.6147829 0.1750604 7.4625000
v 3.5735660 0.1743788 7.4625000
v 3.5743059 0.1293848 7.4625000
v 3.6155313 0.1300666 7.4625000
v 3.5735660 0.1743788 7.4625000
v 3.5735660 0.1743788 7.4175000
v 3.5743059 0.1293848 7.4175000
v 3.5743059 0.1293848 7.4625000
v -4.4230343 0.0924874 6.4250000
v -2.3740870 0.0604602 6.4250000
v -2.3744418 0.0279621 1.2000000
v -4.4236953 0.0599941 1.2000000
v -4.4236953 0.0599941 11.6500000
v -2.3744418 0.0279621 11.6500000
v -2.3740870 0.0604602 6.4250000
v -4.4230343 0.0924874 6.4250000
v -2.3740870 0.0604602 6.4250000
v -0.3249289 0.0477428 6.4250000
v -0.3249775 0.0152428 1.2000000
v -2.3744418 0.0279621 1.2000000
v -2.3744418 0.0279621 11.6500000
v -0.3249775 0.0152428 11.6500000
v -0.3249289 0.0477428 6.4250000
v -2.3740870 0.0604602 6.4250000
v 0.3249289 0.0477428 6.4250000
v 2.3740870 0.0604602 6.4250000
v 2.3744418 0.0279621 1.2000000
v 0.3249775 0.0152428 1.2000000
v 0.3249775 0.0152428 11.6500000
v 2.3744418 0.0279621 11.6500000
v 2.3740870 0.0604602 6.4250000
v 0.3249289 0.0477428 6.4250000
v 2.3740870 0.0604602 6.4250000
v 4.4230343 0.0924874 6.4250000
v 4.4236953 0.0599941 1.2000000
v 2.3744418 0.0279621 1.2000000
v 2.3744418 0.0279621 11.6500000
v 4.4236953 0.0599941 11.6500000
v 4.4230343 0.0924874 6.4250000
v 2.3740870 0.0604602 6.4250000
v -4.4062027 0.9198162 -7.1750000
v -2.2032153 0.8862043 -7.1750000
v -2.2032153 0.8862043 -7.2250000
v -4.4062027 0.9198162 -7.2250000
v -2.2032153 0.8862043 -7.1750000
v 0.0000000 0.8750000 -7.1750000
v 0.0000000 0.8750000 -7.2250000
v -2.2032153 0.8862043 -7.2250000
v 0.0000000 0.8750000 -7.1750000
v 2.2032153 0.8862043 -7.1750000
v 2.2032153 0.8862043 -7.2250000
v 0.0000000 0.8750000 -7.2250000
v 2.2032153 0.8862043 -7.1750000
v 4.4062027 0.9198162 -7.1750000
v 4.4062027 0.9198162 -7.2250000
v 2.2032153 0.8862043 -7.2250000
v -4.4062027 0.9198162 7.2250000
v -2.2032153 0.8862043 7.2250000
v -2.2032153 0.8862043 7.1750000
v -4.4062027 0.9198162 7.1750000
v -2.2032153 0.8862043 7.2250000
v 0.0000000 0.8750000 7.2250000
v 0.0000000 0.8750000 7.1750000
v -2.2032153 0.8862043 7.1750000
v 0.0000000 0.8750000 7.2250000
v 2.2032153 0.8862043 7.2250000
v 2.2032153 0.8862043 7.1750000
v 0.0000000 0.8750000 7.1750000
v 2.2032153 0.8862043 7.2250000
v 4.4062027 0.9198162 7.2250000
v 4.4062027 0.9198162 7.1750000
v 2.2032153 0.8862043 7.1750000
vt 0.005000 0.995000
vt 0.245000 0.995000
vt 0.245000 0.755000
vt 0.255000 0.995000
vt 0.495000 0.995000
vt 0.495000 0.755000
vt 0.505000 0.995000
vt 0.745000 0.995000
vt 0.745000 0.755000
vt 0.755000 0.995000
vt 0.995000 0.995000
vt 0.995000 0.755000
vt 0.005000 0.745000
vt 0.245000 0.745000
vt 0.245000 0.505000
vt 0.255000 0.745000
vt 0.495000 0.745000
vt 0.495000 0.505000
vt 0.505000 0.745000
vt 0.745000 0.745000
vt 0.745000 0.505000
vt 0.755000 0.745000
vt 0.995000 0.745000
vt 0.995000 0.505000
vt 0.005000 0.495000
vt 0.245000 0.495000
vt 0.245000 0.255000
vt 0.255000 0.495000
vt 0.495000 0.495000
vt 0.495000 0.255000
vt 0.505000 0.495000
vt 0.745000 0.495000
vt 0.745000 0.255000
vt 0.755000 0.495000
vt 0.995000 0.495000
vt 0.995000 0.255000
vt 0.005000 0.245000
vt 0.245000 0.245000
vt 0.245000 0.005000
vt 0.255000 0.245000
vt 0.495000 0.245000
vt 0.495000 0.005000
vt 0.505000 0.245000
vt 0.745000 0.245000
vt 0.745000 0.005000
vt 0.755000 0.245000
vt 0.995000 0.245000
vt 0.995000 0.005000
g lighting
usemtl farm-kit
f 505/43 506/44 507/45
f 505/43 507/44 508/45
f 509/43 510/44 511/45
f 509/43 511/44 512/45
f 513/43 514/44 515/45
f 513/43 515/44 516/45
f 517/43 518/44 519/45
f 517/43 519/44 520/45
f 521/43 522/44 523/45
f 521/43 523/44 524/45
f 525/43 526/44 527/45
f 525/43 527/44 528/45
f 529/43 530/44 531/45
f 529/43 531/44 532/45
f 533/43 534/44 535/45
f 533/43 535/44 536/45
g ornament
usemtl farm-kit
f 85/31 86/32 87/33
f 85/31 87/32 88/33
f 89/31 90/32 91/33
f 89/31 91/32 92/33
f 93/31 94/32 95/33
f 93/31 95/32 96/33
f 97/31 98/32 99/33
f 97/31 99/32 100/33
f 129/31 130/32 131/33
f 129/31 131/32 132/33
f 133/31 134/32 135/33
f 133/31 135/32 136/33
f 137/31 138/32 139/33
f 137/31 139/32 140/33
f 141/31 142/32 143/33
f 141/31 143/32 144/33
f 153/28 154/29 155/30
f 153/28 155/29 156/30
f 157/28 158/29 159/30
f 157/28 159/29 160/30
f 161/28 162/29 163/30
f 161/28 163/29 164/30
f 165/28 166/29 167/30
f 165/28 167/29 168/30
f 169/28 170/29 171/30
f 169/28 171/29 172/30
f 173/34 174/35 175/36
f 173/34 175/35 176/36
f 177/34 178/35 179/36
f 177/34 179/35 180/36
f 181/34 182/35 183/36
f 181/34 183/35 184/36
f 185/34 186/35 187/36
f 185/34 187/35 188/36
f 189/34 190/35 191/36
f 189/34 191/35 192/36
f 193/28 194/29 195/30
f 193/28 195/29 196/30
f 197/28 198/29 199/30
f 197/28 199/29 200/30
f 201/28 202/29 203/30
f 201/28 203/29 204/30
f 205/28 206/29 207/30
f 205/28 207/29 208/30
f 209/28 210/29 211/30
f 209/28 211/29 212/30
f 213/34 214/35 215/36
f 213/34 215/35 216/36
f 217/34 218/35 219/36
f 217/34 219/35 220/36
f 221/34 222/35 223/36
f 221/34 223/35 224/36
f 225/34 226/35 227/36
f 225/34 227/35 228/36
f 229/34 230/35 231/36
f 229/34 231/35 232/36
f 233/28 234/29 235/30
f 233/28 235/29 236/30
f 237/28 238/29 239/30
f 237/28 239/29 240/30
f 241/28 242/29 243/30
f 241/28 243/29 244/30
f 245/28 246/29 247/30
f 245/28 247/29 248/30
f 249/28 250/29 251/30
f 249/28 251/29 252/30
f 253/34 254/35 255/36
f 253/34 255/35 256/36
f 257/34 258/35 259/36
f 257/34 259/35 260/36
f 261/34 262/35 263/36
f 261/34 263/35 264/36
f 265/34 266/35 267/36
f 265/34 267/35 268/36
f 269/34 270/35 271/36
f 269/34 271/35 272/36
f 273/28 274/29 275/30
f 273/28 275/29 276/30
f 277/28 278/29 279/30
f 277/28 279/29 280/30
f 281/28 282/29 283/30
f 281/28 283/29 284/30
f 285/28 286/29 287/30
f 285/28 287/29 288/30
f 289/28 290/29 291/30
f 289/28 291/29 292/30
f 293/34 294/35 295/36
f 293/34 295/35 296/36
f 297/34 298/35 299/36
f 297/34 299/35 300/36
f 301/34 302/35 303/36
f 301/34 303/35 304/36
f 305/34 306/35 307/36
f 305/34 307/35 308/36
f 309/34 310/35 311/36
f 309/34 311/35 312/36
f 313/28 314/29 315/30
f 313/28 315/29 316/30
f 317/28 318/29 319/30
f 317/28 319/29 320/30
f 321/28 322/29 323/30
f 321/28 323/29 324/30
f 325/28 326/29 327/30
f 325/28 327/29 328/30
f 329/28 330/29 331/30
f 329/28 331/29 332/30
f 333/34 334/35 335/36
f 333/34 335/35 336/36
f 337/34 338/35 339/36
f 337/34 339/35 340/36
f 341/34 342/35 343/36
f 341/34 343/35 344/36
f 345/34 346/35 347/36
f 345/34 347/35 348/36
f 349/34 350/35 351/36
f 349/34 351/35 352/36
f 353/28 354/29 355/30
f 353/28 355/29 356/30
f 357/28 358/29 359/30
f 357/28 359/29 360/30
f 361/28 362/29 363/30
f 361/28 363/29 364/30
f 365/28 366/29 367/30
f 365/28 367/29 368/30
f 369/28 370/29 371/30
f 369/28 371/29 372/30
f 373/34 374/35 375/36
f 373/34 375/35 376/36
f 377/34 378/35 379/36
f 377/34 379/35 380/36
f 381/34 382/35 383/36
f 381/34 383/35 384/36
f 385/34 386/35 387/36
f 385/34 387/35 388/36
f 389/34 390/35 391/36
f 389/34 391/35 392/36
f 393/28 394/29 395/30
f 393/28 395/29 396/30
f 397/28 398/29 399/30
f 397/28 399/29 400/30
f 401/28 402/29 403/30
f 401/28 403/29 404/30
f 405/28 406/29 407/30
f 405/28 407/29 408/30
f 409/28 410/29 411/30
f 409/28 411/29 412/30
f 413/34 414/35 415/36
f 413/34 415/35 416/36
f 417/34 418/35 419/36
f 417/34 419/35 420/36
f 421/34 422/35 423/36
f 421/34 423/35 424/36
f 425/34 426/35 427/36
f 425/34 427/35 428/36
f 429/34 430/35 431/36
f 429/34 431/35 432/36
f 433/28 434/29 435/30
f 433/28 435/29 436/30
f 437/28 438/29 439/30
f 437/28 439/29 440/30
f 441/28 442/29 443/30
f 441/28 443/29 444/30
f 445/28 446/29 447/30
f 445/28 447/29 448/30
f 449/28 450/29 451/30
f 449/28 451/29 452/30
f 453/34 454/35 455/36
f 453/34 455/35 456/36
f 457/34 458/35 459/36
f 457/34 459/35 460/36
f 461/34 462/35 463/36
f 461/34 463/35 464/36
f 465/34 466/35 467/36
f 465/34 467/35 468/36
f 469/34 470/35 471/36
f 469/34 471/35 472/36
f 473/13 474/14 475/15
f 473/13 475/14 476/15
f 477/13 478/14 479/15
f 477/13 479/14 480/15
f 481/13 482/14 483/15
f 481/13 483/14 484/15
f 485/13 486/14 487/15
f 485/13 487/14 488/15
f 489/13 490/14 491/15
f 489/13 491/14 492/15
f 493/13 494/14 495/15
f 493/13 495/14 496/15
f 497/13 498/14 499/15
f 497/13 499/14 500/15
f 501/13 502/14 503/15
f 501/13 503/14 504/15
g solid
usemtl farm-kit
f 65/28 66/29 67/30
f 65/28 67/29 68/30
f 69/28 70/29 71/30
f 69/28 71/29 72/30
f 73/28 74/29 75/30
f 73/28 75/29 76/30
f 77/28 78/29 79/30
f 77/28 79/29 80/30
f 81/28 82/29 83/30
f 81/28 83/29 84/30
f 109/28 110/29 111/30
f 109/28 111/29 112/30
f 113/28 114/29 115/30
f 113/28 115/29 116/30
f 117/28 118/29 119/30
f 117/28 119/29 120/30
f 121/28 122/29 123/30
f 121/28 123/29 124/30
f 125/28 126/29 127/30
f 125/28 127/29 128/30
g support
usemtl farm-kit
f 1/1 2/2 3/3
f 1/1 3/2 4/3
f 5/1 6/2 7/3
f 5/1 7/2 8/3
f 9/1 10/2 11/3
f 9/1 11/2 12/3
f 13/1 14/2 15/3
f 13/1 15/2 16/3
f 17/1 18/2 19/3
f 17/1 19/2 20/3
f 21/4 22/5 23/6
f 21/4 23/5 24/6
f 25/4 26/5 27/6
f 25/4 27/5 28/6
f 29/4 30/5 31/6
f 29/4 31/5 32/6
f 33/4 34/5 35/6
f 33/4 35/5 36/6
f 37/4 38/5 39/6
f 37/4 39/5 40/6
f 41/4 42/5 43/6
f 41/4 43/5 44/6
f 45/4 46/5 47/6
f 45/4 47/5 48/6
f 49/4 50/5 51/6
f 49/4 51/5 52/6
f 53/4 54/5 55/6
f 53/4 55/5 56/6
f 57/4 58/5 59/6
f 57/4 59/5 60/6
f 61/4 62/5 63/6
f 61/4 63/5 64/6
f 101/4 102/5 103/6
f 101/4 103/5 104/6
f 105/4 106/5 107/6
f 105/4 107/5 108/6
f 145/4 146/5 147/6
f 145/4 147/5 148/6
f 149/4 150/5 151/6
f 149/4 151/5 152/6
