mtllib TorusBench_A.mtl
o TorusBench_A
usemtl TorusStreetKit
s off
v -0.198125 0.000000 -0.060625
v -0.181875 0.000000 -0.060625
v -0.181875 0.105000 -0.060625
v -0.198125 0.105000 -0.060625
v -0.198125 0.000000 -0.044375
v -0.181875 0.000000 -0.044375
v -0.181875 0.105000 -0.044375
v -0.198125 0.105000 -0.044375
v -0.198125 0.000000 0.044375
v -0.181875 0.000000 0.044375
v -0.181875 0.105000 0.044375
v -0.198125 0.105000 0.044375
v -0.198125 0.000000 0.060625
v -0.181875 0.000000 0.060625
v -0.181875 0.105000 0.060625
v -0.198125 0.105000 0.060625
v -0.199375 0.088125 -0.075000
v -0.180625 0.088125 -0.075000
v -0.180625 0.104375 -0.075000
v -0.199375 0.104375 -0.075000
v -0.199375 0.088125 0.075000
v -0.180625 0.088125 0.075000
v -0.180625 0.104375 0.075000
v -0.199375 0.104375 0.075000
v -0.198125 0.097500 -0.071875
v -0.181875 0.097500 -0.071875
v -0.181875 0.252500 -0.071875
v -0.198125 0.252500 -0.071875
v -0.198125 0.097500 -0.055625
v -0.181875 0.097500 -0.055625
v -0.181875 0.252500 -0.055625
v -0.198125 0.252500 -0.055625
v -0.196250 0.107500 0.043750
v -0.183750 0.107500 0.043750
v -0.183750 0.172500 0.043750
v -0.196250 0.172500 0.043750
v -0.196250 0.107500 0.056250
v -0.183750 0.107500 0.056250
v -0.183750 0.172500 0.056250
v -0.196250 0.172500 0.056250
v -0.201875 0.166250 -0.072500
v -0.178125 0.166250 -0.072500
v -0.178125 0.181250 -0.072500
v -0.201875 0.181250 -0.072500
v -0.201875 0.166250 0.067500
v -0.178125 0.166250 0.067500
v -0.178125 0.181250 0.067500
v -0.201875 0.181250 0.067500
v 0.181875 0.000000 -0.060625
v 0.198125 0.000000 -0.060625
v 0.198125 0.105000 -0.060625
v 0.181875 0.105000 -0.060625
v 0.181875 0.000000 -0.044375
v 0.198125 0.000000 -0.044375
v 0.198125 0.105000 -0.044375
v 0.181875 0.105000 -0.044375
v 0.181875 0.000000 0.044375
v 0.198125 0.000000 0.044375
v 0.198125 0.105000 0.044375
v 0.181875 0.105000 0.044375
v 0.181875 0.000000 0.060625
v 0.198125 0.000000 0.060625
v 0.198125 0.105000 0.060625
v 0.181875 0.105000 0.060625
v 0.180625 0.088125 -0.075000
v 0.199375 0.088125 -0.075000
v 0.199375 0.104375 -0.075000
v 0.180625 0.104375 -0.075000
v 0.180625 0.088125 0.075000
v 0.199375 0.088125 0.075000
v 0.199375 0.104375 0.075000
v 0.180625 0.104375 0.075000
v 0.181875 0.097500 -0.071875
v 0.198125 0.097500 -0.071875
v 0.198125 0.252500 -0.071875
v 0.181875 0.252500 -0.071875
v 0.181875 0.097500 -0.055625
v 0.198125 0.097500 -0.055625
v 0.198125 0.252500 -0.055625
v 0.181875 0.252500 -0.055625
v 0.183750 0.107500 0.043750
v 0.196250 0.107500 0.043750
v 0.196250 0.172500 0.043750
v 0.183750 0.172500 0.043750
v 0.183750 0.107500 0.056250
v 0.196250 0.107500 0.056250
v 0.196250 0.172500 0.056250
v 0.183750 0.172500 0.056250
v 0.178125 0.166250 -0.072500
v 0.201875 0.166250 -0.072500
v 0.201875 0.181250 -0.072500
v 0.178125 0.181250 -0.072500
v 0.178125 0.166250 0.067500
v 0.201875 0.166250 0.067500
v 0.201875 0.181250 0.067500
v 0.178125 0.181250 0.067500
v -0.225000 0.100000 -0.066875
v 0.225000 0.100000 -0.066875
v 0.225000 0.115000 -0.066875
v -0.225000 0.115000 -0.066875
v -0.225000 0.100000 -0.025625
v 0.225000 0.100000 -0.025625
v 0.225000 0.115000 -0.025625
v -0.225000 0.115000 -0.025625
v -0.225000 0.100000 -0.020625
v 0.225000 0.100000 -0.020625
v 0.225000 0.115000 -0.020625
v -0.225000 0.115000 -0.020625
v -0.225000 0.100000 0.020625
v 0.225000 0.100000 0.020625
v 0.225000 0.115000 0.020625
v -0.225000 0.115000 0.020625
v -0.225000 0.100000 0.025625
v 0.225000 0.100000 0.025625
v 0.225000 0.115000 0.025625
v -0.225000 0.115000 0.025625
v -0.225000 0.100000 0.066875
v 0.225000 0.100000 0.066875
v 0.225000 0.115000 0.066875
v -0.225000 0.115000 0.066875
v -0.225000 0.153750 -0.071875
v 0.225000 0.153750 -0.071875
v 0.225000 0.196250 -0.071875
v -0.225000 0.196250 -0.071875
v -0.225000 0.153750 -0.058125
v 0.225000 0.153750 -0.058125
v 0.225000 0.196250 -0.058125
v -0.225000 0.196250 -0.058125
v -0.225000 0.206250 -0.071875
v 0.225000 0.206250 -0.071875
v 0.225000 0.248750 -0.071875
v -0.225000 0.248750 -0.071875
v -0.225000 0.206250 -0.058125
v 0.225000 0.206250 -0.058125
v 0.225000 0.248750 -0.058125
v -0.225000 0.248750 -0.058125
v -0.190000 0.053750 -0.058750
v 0.190000 0.053750 -0.058750
v 0.190000 0.066250 -0.058750
v -0.190000 0.066250 -0.058750
v -0.190000 0.053750 -0.046250
v 0.190000 0.053750 -0.046250
v 0.190000 0.066250 -0.046250
v -0.190000 0.066250 -0.046250
vt 0.265625 0.765625
vt 0.484375 0.765625
vt 0.484375 0.984375
vt 0.265625 0.984375
vt 0.265625 0.765625
vt 0.484375 0.765625
vt 0.484375 0.984375
vt 0.265625 0.984375
vt 0.265625 0.765625
vt 0.484375 0.765625
vt 0.484375 0.984375
vt 0.265625 0.984375
vt 0.265625 0.765625
vt 0.484375 0.765625
vt 0.484375 0.984375
vt 0.265625 0.984375
vt 0.265625 0.765625
vt 0.484375 0.765625
vt 0.484375 0.984375
vt 0.265625 0.984375
vt 0.265625 0.765625
vt 0.484375 0.765625
vt 0.484375 0.984375
vt 0.265625 0.984375
vt 0.265625 0.765625
vt 0.484375 0.765625
vt 0.484375 0.984375
vt 0.265625 0.984375
vt 0.265625 0.765625
vt 0.484375 0.765625
vt 0.484375 0.984375
vt 0.265625 0.984375
vt 0.265625 0.765625
vt 0.484375 0.765625
vt 0.484375 0.984375
vt 0.265625 0.984375
vt 0.265625 0.765625
vt 0.484375 0.765625
vt 0.484375 0.984375
vt 0.265625 0.984375
vt 0.265625 0.765625
vt 0.484375 0.765625
vt 0.484375 0.984375
vt 0.265625 0.984375
vt 0.265625 0.765625
vt 0.484375 0.765625
vt 0.484375 0.984375
vt 0.265625 0.984375
vt 0.265625 0.765625
vt 0.484375 0.765625
vt 0.484375 0.984375
vt 0.265625 0.984375
vt 0.265625 0.765625
vt 0.484375 0.765625
vt 0.484375 0.984375
vt 0.265625 0.984375
vt 0.265625 0.765625
vt 0.484375 0.765625
vt 0.484375 0.984375
vt 0.265625 0.984375
vt 0.265625 0.765625
vt 0.484375 0.765625
vt 0.484375 0.984375
vt 0.265625 0.984375
vt 0.265625 0.765625
vt 0.484375 0.765625
vt 0.484375 0.984375
vt 0.265625 0.984375
vt 0.265625 0.765625
vt 0.484375 0.765625
vt 0.484375 0.984375
vt 0.265625 0.984375
vt 0.265625 0.765625
vt 0.484375 0.765625
vt 0.484375 0.984375
vt 0.265625 0.984375
vt 0.265625 0.765625
vt 0.484375 0.765625
vt 0.484375 0.984375
vt 0.265625 0.984375
vt 0.265625 0.765625
vt 0.484375 0.765625
vt 0.484375 0.984375
vt 0.265625 0.984375
vt 0.265625 0.765625
vt 0.484375 0.765625
vt 0.484375 0.984375
vt 0.265625 0.984375
vt 0.265625 0.765625
vt 0.484375 0.765625
vt 0.484375 0.984375
vt 0.265625 0.984375
vt 0.265625 0.765625
vt 0.484375 0.765625
vt 0.484375 0.984375
vt 0.265625 0.984375
vt 0.265625 0.765625
vt 0.484375 0.765625
vt 0.484375 0.984375
vt 0.265625 0.984375
vt 0.265625 0.765625
vt 0.484375 0.765625
vt 0.484375 0.984375
vt 0.265625 0.984375
vt 0.265625 0.765625
vt 0.484375 0.765625
vt 0.484375 0.984375
vt 0.265625 0.984375
vt 0.265625 0.765625
vt 0.484375 0.765625
vt 0.484375 0.984375
vt 0.265625 0.984375
vt 0.265625 0.765625
vt 0.484375 0.765625
vt 0.484375 0.984375
vt 0.265625 0.984375
vt 0.265625 0.765625
vt 0.484375 0.765625
vt 0.484375 0.984375
vt 0.265625 0.984375
vt 0.515625 0.765625
vt 0.734375 0.765625
vt 0.734375 0.984375
vt 0.515625 0.984375
vt 0.515625 0.765625
vt 0.734375 0.765625
vt 0.734375 0.984375
vt 0.515625 0.984375
vt 0.515625 0.765625
vt 0.734375 0.765625
vt 0.734375 0.984375
vt 0.515625 0.984375
vt 0.515625 0.765625
vt 0.734375 0.765625
vt 0.734375 0.984375
vt 0.515625 0.984375
vt 0.515625 0.765625
vt 0.734375 0.765625
vt 0.734375 0.984375
vt 0.515625 0.984375
vt 0.515625 0.765625
vt 0.734375 0.765625
vt 0.734375 0.984375
vt 0.515625 0.984375
vt 0.265625 0.765625
vt 0.484375 0.765625
vt 0.484375 0.984375
vt 0.265625 0.984375
vt 0.265625 0.765625
vt 0.484375 0.765625
vt 0.484375 0.984375
vt 0.265625 0.984375
vt 0.265625 0.765625
vt 0.484375 0.765625
vt 0.484375 0.984375
vt 0.265625 0.984375
vt 0.265625 0.765625
vt 0.484375 0.765625
vt 0.484375 0.984375
vt 0.265625 0.984375
vt 0.265625 0.765625
vt 0.484375 0.765625
vt 0.484375 0.984375
vt 0.265625 0.984375
vt 0.265625 0.765625
vt 0.484375 0.765625
vt 0.484375 0.984375
vt 0.265625 0.984375
vt 0.265625 0.765625
vt 0.484375 0.765625
vt 0.484375 0.984375
vt 0.265625 0.984375
vt 0.265625 0.765625
vt 0.484375 0.765625
vt 0.484375 0.984375
vt 0.265625 0.984375
vt 0.265625 0.765625
vt 0.484375 0.765625
vt 0.484375 0.984375
vt 0.265625 0.984375
vt 0.265625 0.765625
vt 0.484375 0.765625
vt 0.484375 0.984375
vt 0.265625 0.984375
vt 0.265625 0.765625
vt 0.484375 0.765625
vt 0.484375 0.984375
vt 0.265625 0.984375
vt 0.265625 0.765625
vt 0.484375 0.765625
vt 0.484375 0.984375
vt 0.265625 0.984375
vt 0.265625 0.765625
vt 0.484375 0.765625
vt 0.484375 0.984375
vt 0.265625 0.984375
vt 0.265625 0.765625
vt 0.484375 0.765625
vt 0.484375 0.984375
vt 0.265625 0.984375
vt 0.265625 0.765625
vt 0.484375 0.765625
vt 0.484375 0.984375
vt 0.265625 0.984375
vt 0.265625 0.765625
vt 0.484375 0.765625
vt 0.484375 0.984375
vt 0.265625 0.984375
vt 0.265625 0.765625
vt 0.484375 0.765625
vt 0.484375 0.984375
vt 0.265625 0.984375
vt 0.265625 0.765625
vt 0.484375 0.765625
vt 0.484375 0.984375
vt 0.265625 0.984375
vt 0.265625 0.765625
vt 0.484375 0.765625
vt 0.484375 0.984375
vt 0.265625 0.984375
vt 0.265625 0.765625
vt 0.484375 0.765625
vt 0.484375 0.984375
vt 0.265625 0.984375
vt 0.265625 0.765625
vt 0.484375 0.765625
vt 0.484375 0.984375
vt 0.265625 0.984375
vt 0.265625 0.765625
vt 0.484375 0.765625
vt 0.484375 0.984375
vt 0.265625 0.984375
vt 0.265625 0.765625
vt 0.484375 0.765625
vt 0.484375 0.984375
vt 0.265625 0.984375
vt 0.265625 0.765625
vt 0.484375 0.765625
vt 0.484375 0.984375
vt 0.265625 0.984375
vt 0.265625 0.765625
vt 0.484375 0.765625
vt 0.484375 0.984375
vt 0.265625 0.984375
vt 0.265625 0.765625
vt 0.484375 0.765625
vt 0.484375 0.984375
vt 0.265625 0.984375
vt 0.265625 0.765625
vt 0.484375 0.765625
vt 0.484375 0.984375
vt 0.265625 0.984375
vt 0.265625 0.765625
vt 0.484375 0.765625
vt 0.484375 0.984375
vt 0.265625 0.984375
vt 0.265625 0.765625
vt 0.484375 0.765625
vt 0.484375 0.984375
vt 0.265625 0.984375
vt 0.265625 0.765625
vt 0.484375 0.765625
vt 0.484375 0.984375
vt 0.265625 0.984375
vt 0.515625 0.765625
vt 0.734375 0.765625
vt 0.734375 0.984375
vt 0.515625 0.984375
vt 0.515625 0.765625
vt 0.734375 0.765625
vt 0.734375 0.984375
vt 0.515625 0.984375
vt 0.515625 0.765625
vt 0.734375 0.765625
vt 0.734375 0.984375
vt 0.515625 0.984375
vt 0.515625 0.765625
vt 0.734375 0.765625
vt 0.734375 0.984375
vt 0.515625 0.984375
vt 0.515625 0.765625
vt 0.734375 0.765625
vt 0.734375 0.984375
vt 0.515625 0.984375
vt 0.515625 0.765625
vt 0.734375 0.765625
vt 0.734375 0.984375
vt 0.515625 0.984375
vt 0.015625 0.765625
vt 0.234375 0.765625
vt 0.234375 0.984375
vt 0.015625 0.984375
vt 0.015625 0.765625
vt 0.234375 0.765625
vt 0.234375 0.984375
vt 0.015625 0.984375
vt 0.015625 0.765625
vt 0.234375 0.765625
vt 0.234375 0.984375
vt 0.015625 0.984375
vt 0.015625 0.765625
vt 0.234375 0.765625
vt 0.234375 0.984375
vt 0.015625 0.984375
vt 0.015625 0.765625
vt 0.234375 0.765625
vt 0.234375 0.984375
vt 0.015625 0.984375
vt 0.015625 0.765625
vt 0.234375 0.765625
vt 0.234375 0.984375
vt 0.015625 0.984375
vt 0.015625 0.765625
vt 0.234375 0.765625
vt 0.234375 0.984375
vt 0.015625 0.984375
vt 0.015625 0.765625
vt 0.234375 0.765625
vt 0.234375 0.984375
vt 0.015625 0.984375
vt 0.015625 0.765625
vt 0.234375 0.765625
vt 0.234375 0.984375
vt 0.015625 0.984375
vt 0.015625 0.765625
vt 0.234375 0.765625
vt 0.234375 0.984375
vt 0.015625 0.984375
vt 0.015625 0.765625
vt 0.234375 0.765625
vt 0.234375 0.984375
vt 0.015625 0.984375
vt 0.015625 0.765625
vt 0.234375 0.765625
vt 0.234375 0.984375
vt 0.015625 0.984375
vt 0.015625 0.765625
vt 0.234375 0.765625
vt 0.234375 0.984375
vt 0.015625 0.984375
vt 0.015625 0.765625
vt 0.234375 0.765625
vt 0.234375 0.984375
vt 0.015625 0.984375
vt 0.015625 0.765625
vt 0.234375 0.765625
vt 0.234375 0.984375
vt 0.015625 0.984375
vt 0.015625 0.765625
vt 0.234375 0.765625
vt 0.234375 0.984375
vt 0.015625 0.984375
vt 0.015625 0.765625
vt 0.234375 0.765625
vt 0.234375 0.984375
vt 0.015625 0.984375
vt 0.015625 0.765625
vt 0.234375 0.765625
vt 0.234375 0.984375
vt 0.015625 0.984375
vt 0.015625 0.765625
vt 0.234375 0.765625
vt 0.234375 0.984375
vt 0.015625 0.984375
vt 0.015625 0.765625
vt 0.234375 0.765625
vt 0.234375 0.984375
vt 0.015625 0.984375
vt 0.015625 0.765625
vt 0.234375 0.765625
vt 0.234375 0.984375
vt 0.015625 0.984375
vt 0.015625 0.765625
vt 0.234375 0.765625
vt 0.234375 0.984375
vt 0.015625 0.984375
vt 0.015625 0.765625
vt 0.234375 0.765625
vt 0.234375 0.984375
vt 0.015625 0.984375
vt 0.015625 0.765625
vt 0.234375 0.765625
vt 0.234375 0.984375
vt 0.015625 0.984375
vt 0.015625 0.765625
vt 0.234375 0.765625
vt 0.234375 0.984375
vt 0.015625 0.984375
vt 0.015625 0.765625
vt 0.234375 0.765625
vt 0.234375 0.984375
vt 0.015625 0.984375
vt 0.015625 0.765625
vt 0.234375 0.765625
vt 0.234375 0.984375
vt 0.015625 0.984375
vt 0.265625 0.765625
vt 0.484375 0.765625
vt 0.484375 0.984375
vt 0.265625 0.984375
vt 0.265625 0.765625
vt 0.484375 0.765625
vt 0.484375 0.984375
vt 0.265625 0.984375
vt 0.265625 0.765625
vt 0.484375 0.765625
vt 0.484375 0.984375
vt 0.265625 0.984375
vt 0.265625 0.765625
vt 0.484375 0.765625
vt 0.484375 0.984375
vt 0.265625 0.984375
vt 0.265625 0.765625
vt 0.484375 0.765625
vt 0.484375 0.984375
vt 0.265625 0.984375
vt 0.265625 0.765625
vt 0.484375 0.765625
vt 0.484375 0.984375
vt 0.265625 0.984375
vn 0.00000000 0.00000000 -1.00000000
vn 0.00000000 0.00000000 1.00000000
vn -1.00000000 0.00000000 0.00000000
vn 1.00000000 0.00000000 0.00000000
vn 0.00000000 -1.00000000 0.00000000
vn 0.00000000 1.00000000 0.00000000
vn 0.00000000 0.00000000 -1.00000000
vn 0.00000000 0.00000000 1.00000000
vn -1.00000000 0.00000000 0.00000000
vn 1.00000000 0.00000000 0.00000000
vn 0.00000000 -1.00000000 0.00000000
vn 0.00000000 1.00000000 0.00000000
vn 0.00000000 0.00000000 -1.00000000
vn 0.00000000 0.00000000 1.00000000
vn -1.00000000 0.00000000 0.00000000
vn 1.00000000 0.00000000 0.00000000
vn 0.00000000 -1.00000000 0.00000000
vn 0.00000000 1.00000000 0.00000000
vn 0.00000000 0.00000000 -1.00000000
vn 0.00000000 0.00000000 1.00000000
vn -1.00000000 0.00000000 0.00000000
vn 1.00000000 0.00000000 0.00000000
vn 0.00000000 -1.00000000 0.00000000
vn 0.00000000 1.00000000 0.00000000
vn 0.00000000 0.00000000 -1.00000000
vn 0.00000000 0.00000000 1.00000000
vn -1.00000000 0.00000000 0.00000000
vn 1.00000000 0.00000000 0.00000000
vn 0.00000000 -1.00000000 0.00000000
vn 0.00000000 1.00000000 0.00000000
vn 0.00000000 0.00000000 -1.00000000
vn 0.00000000 0.00000000 1.00000000
vn -1.00000000 0.00000000 0.00000000
vn 1.00000000 0.00000000 0.00000000
vn 0.00000000 -1.00000000 0.00000000
vn 0.00000000 1.00000000 0.00000000
vn 0.00000000 0.00000000 -1.00000000
vn 0.00000000 0.00000000 1.00000000
vn -1.00000000 0.00000000 0.00000000
vn 1.00000000 0.00000000 0.00000000
vn 0.00000000 -1.00000000 0.00000000
vn 0.00000000 1.00000000 0.00000000
vn 0.00000000 0.00000000 -1.00000000
vn 0.00000000 0.00000000 1.00000000
vn -1.00000000 0.00000000 0.00000000
vn 1.00000000 0.00000000 0.00000000
vn 0.00000000 -1.00000000 0.00000000
vn 0.00000000 1.00000000 0.00000000
vn 0.00000000 0.00000000 -1.00000000
vn 0.00000000 0.00000000 1.00000000
vn -1.00000000 0.00000000 0.00000000
vn 1.00000000 0.00000000 0.00000000
vn 0.00000000 -1.00000000 0.00000000
vn 0.00000000 1.00000000 0.00000000
vn 0.00000000 0.00000000 -1.00000000
vn 0.00000000 0.00000000 1.00000000
vn -1.00000000 0.00000000 0.00000000
vn 1.00000000 0.00000000 0.00000000
vn 0.00000000 -1.00000000 0.00000000
vn 0.00000000 1.00000000 0.00000000
vn 0.00000000 0.00000000 -1.00000000
vn 0.00000000 0.00000000 1.00000000
vn -1.00000000 0.00000000 0.00000000
vn 1.00000000 0.00000000 0.00000000
vn 0.00000000 -1.00000000 0.00000000
vn 0.00000000 1.00000000 0.00000000
vn 0.00000000 0.00000000 -1.00000000
vn 0.00000000 0.00000000 1.00000000
vn -1.00000000 0.00000000 0.00000000
vn 1.00000000 0.00000000 0.00000000
vn 0.00000000 -1.00000000 0.00000000
vn 0.00000000 1.00000000 0.00000000
vn 0.00000000 0.00000000 -1.00000000
vn 0.00000000 0.00000000 1.00000000
vn -1.00000000 0.00000000 0.00000000
vn 1.00000000 0.00000000 0.00000000
vn 0.00000000 1.00000000 0.00000000
vn 0.00000000 0.00000000 -1.00000000
vn 0.00000000 0.00000000 1.00000000
vn -1.00000000 0.00000000 0.00000000
vn 1.00000000 0.00000000 0.00000000
vn 0.00000000 1.00000000 0.00000000
vn 0.00000000 0.00000000 -1.00000000
vn 0.00000000 0.00000000 1.00000000
vn -1.00000000 0.00000000 0.00000000
vn 1.00000000 0.00000000 0.00000000
vn 0.00000000 1.00000000 0.00000000
vn 0.00000000 0.00000000 -1.00000000
vn 0.00000000 0.00000000 1.00000000
vn -1.00000000 0.00000000 0.00000000
vn 1.00000000 0.00000000 0.00000000
vn 0.00000000 -1.00000000 0.00000000
vn 0.00000000 1.00000000 0.00000000
vn 0.00000000 0.00000000 -1.00000000
vn 0.00000000 0.00000000 1.00000000
vn -1.00000000 0.00000000 0.00000000
vn 1.00000000 0.00000000 0.00000000
vn 0.00000000 -1.00000000 0.00000000
vn 0.00000000 1.00000000 0.00000000
vn 0.00000000 0.00000000 -1.00000000
vn 0.00000000 0.00000000 1.00000000
vn -1.00000000 0.00000000 0.00000000
vn 1.00000000 0.00000000 0.00000000
vn 0.00000000 -1.00000000 0.00000000
vn 0.00000000 1.00000000 0.00000000
f 1/1/1 4/2/1 3/3/1
f 1/1/1 3/3/1 2/4/1
f 5/5/2 6/6/2 7/7/2
f 5/5/2 7/7/2 8/8/2
f 1/9/3 5/10/3 8/11/3
f 1/9/3 8/11/3 4/12/3
f 2/13/4 3/14/4 7/15/4
f 2/13/4 7/15/4 6/16/4
f 1/17/5 2/18/5 6/19/5
f 1/17/5 6/19/5 5/20/5
f 4/21/6 8/22/6 7/23/6
f 4/21/6 7/23/6 3/24/6
f 9/25/7 12/26/7 11/27/7
f 9/25/7 11/27/7 10/28/7
f 13/29/8 14/30/8 15/31/8
f 13/29/8 15/31/8 16/32/8
f 9/33/9 13/34/9 16/35/9
f 9/33/9 16/35/9 12/36/9
f 10/37/10 11/38/10 15/39/10
f 10/37/10 15/39/10 14/40/10
f 9/41/11 10/42/11 14/43/11
f 9/41/11 14/43/11 13/44/11
f 12/45/12 16/46/12 15/47/12
f 12/45/12 15/47/12 11/48/12
f 17/49/13 20/50/13 19/51/13
f 17/49/13 19/51/13 18/52/13
f 21/53/14 22/54/14 23/55/14
f 21/53/14 23/55/14 24/56/14
f 17/57/15 21/58/15 24/59/15
f 17/57/15 24/59/15 20/60/15
f 18/61/16 19/62/16 23/63/16
f 18/61/16 23/63/16 22/64/16
f 17/65/17 18/66/17 22/67/17
f 17/65/17 22/67/17 21/68/17
f 20/69/18 24/70/18 23/71/18
f 20/69/18 23/71/18 19/72/18
f 25/73/19 28/74/19 27/75/19
f 25/73/19 27/75/19 26/76/19
f 29/77/20 30/78/20 31/79/20
f 29/77/20 31/79/20 32/80/20
f 25/81/21 29/82/21 32/83/21
f 25/81/21 32/83/21 28/84/21
f 26/85/22 27/86/22 31/87/22
f 26/85/22 31/87/22 30/88/22
f 25/89/23 26/90/23 30/91/23
f 25/89/23 30/91/23 29/92/23
f 28/93/24 32/94/24 31/95/24
f 28/93/24 31/95/24 27/96/24
f 33/97/25 36/98/25 35/99/25
f 33/97/25 35/99/25 34/100/25
f 37/101/26 38/102/26 39/103/26
f 37/101/26 39/103/26 40/104/26
f 33/105/27 37/106/27 40/107/27
f 33/105/27 40/107/27 36/108/27
f 34/109/28 35/110/28 39/111/28
f 34/109/28 39/111/28 38/112/28
f 33/113/29 34/114/29 38/115/29
f 33/113/29 38/115/29 37/116/29
f 36/117/30 40/118/30 39/119/30
f 36/117/30 39/119/30 35/120/30
f 41/121/31 44/122/31 43/123/31
f 41/121/31 43/123/31 42/124/31
f 45/125/32 46/126/32 47/127/32
f 45/125/32 47/127/32 48/128/32
f 41/129/33 45/130/33 48/131/33
f 41/129/33 48/131/33 44/132/33
f 42/133/34 43/134/34 47/135/34
f 42/133/34 47/135/34 46/136/34
f 41/137/35 42/138/35 46/139/35
f 41/137/35 46/139/35 45/140/35
f 44/141/36 48/142/36 47/143/36
f 44/141/36 47/143/36 43/144/36
f 49/145/37 52/146/37 51/147/37
f 49/145/37 51/147/37 50/148/37
f 53/149/38 54/150/38 55/151/38
f 53/149/38 55/151/38 56/152/38
f 49/153/39 53/154/39 56/155/39
f 49/153/39 56/155/39 52/156/39
f 50/157/40 51/158/40 55/159/40
f 50/157/40 55/159/40 54/160/40
f 49/161/41 50/162/41 54/163/41
f 49/161/41 54/163/41 53/164/41
f 52/165/42 56/166/42 55/167/42
f 52/165/42 55/167/42 51/168/42
f 57/169/43 60/170/43 59/171/43
f 57/169/43 59/171/43 58/172/43
f 61/173/44 62/174/44 63/175/44
f 61/173/44 63/175/44 64/176/44
f 57/177/45 61/178/45 64/179/45
f 57/177/45 64/179/45 60/180/45
f 58/181/46 59/182/46 63/183/46
f 58/181/46 63/183/46 62/184/46
f 57/185/47 58/186/47 62/187/47
f 57/185/47 62/187/47 61/188/47
f 60/189/48 64/190/48 63/191/48
f 60/189/48 63/191/48 59/192/48
f 65/193/49 68/194/49 67/195/49
f 65/193/49 67/195/49 66/196/49
f 69/197/50 70/198/50 71/199/50
f 69/197/50 71/199/50 72/200/50
f 65/201/51 69/202/51 72/203/51
f 65/201/51 72/203/51 68/204/51
f 66/205/52 67/206/52 71/207/52
f 66/205/52 71/207/52 70/208/52
f 65/209/53 66/210/53 70/211/53
f 65/209/53 70/211/53 69/212/53
f 68/213/54 72/214/54 71/215/54
f 68/213/54 71/215/54 67/216/54
f 73/217/55 76/218/55 75/219/55
f 73/217/55 75/219/55 74/220/55
f 77/221/56 78/222/56 79/223/56
f 77/221/56 79/223/56 80/224/56
f 73/225/57 77/226/57 80/227/57
f 73/225/57 80/227/57 76/228/57
f 74/229/58 75/230/58 79/231/58
f 74/229/58 79/231/58 78/232/58
f 73/233/59 74/234/59 78/235/59
f 73/233/59 78/235/59 77/236/59
f 76/237/60 80/238/60 79/239/60
f 76/237/60 79/239/60 75/240/60
f 81/241/61 84/242/61 83/243/61
f 81/241/61 83/243/61 82/244/61
f 85/245/62 86/246/62 87/247/62
f 85/245/62 87/247/62 88/248/62
f 81/249/63 85/250/63 88/251/63
f 81/249/63 88/251/63 84/252/63
f 82/253/64 83/254/64 87/255/64
f 82/253/64 87/255/64 86/256/64
f 81/257/65 82/258/65 86/259/65
f 81/257/65 86/259/65 85/260/65
f 84/261/66 88/262/66 87/263/66
f 84/261/66 87/263/66 83/264/66
f 89/265/67 92/266/67 91/267/67
f 89/265/67 91/267/67 90/268/67
f 93/269/68 94/270/68 95/271/68
f 93/269/68 95/271/68 96/272/68
f 89/273/69 93/274/69 96/275/69
f 89/273/69 96/275/69 92/276/69
f 90/277/70 91/278/70 95/279/70
f 90/277/70 95/279/70 94/280/70
f 89/281/71 90/282/71 94/283/71
f 89/281/71 94/283/71 93/284/71
f 92/285/72 96/286/72 95/287/72
f 92/285/72 95/287/72 91/288/72
f 97/289/73 100/290/73 99/291/73
f 97/289/73 99/291/73 98/292/73
f 101/293/74 102/294/74 103/295/74
f 101/293/74 103/295/74 104/296/74
f 97/297/75 101/298/75 104/299/75
f 97/297/75 104/299/75 100/300/75
f 98/301/76 99/302/76 103/303/76
f 98/301/76 103/303/76 102/304/76
f 100/305/77 104/306/77 103/307/77
f 100/305/77 103/307/77 99/308/77
f 105/309/78 108/310/78 107/311/78
f 105/309/78 107/311/78 106/312/78
f 109/313/79 110/314/79 111/315/79
f 109/313/79 111/315/79 112/316/79
f 105/317/80 109/318/80 112/319/80
f 105/317/80 112/319/80 108/320/80
f 106/321/81 107/322/81 111/323/81
f 106/321/81 111/323/81 110/324/81
f 108/325/82 112/326/82 111/327/82
f 108/325/82 111/327/82 107/328/82
f 113/329/83 116/330/83 115/331/83
f 113/329/83 115/331/83 114/332/83
f 117/333/84 118/334/84 119/335/84
f 117/333/84 119/335/84 120/336/84
f 113/337/85 117/338/85 120/339/85
f 113/337/85 120/339/85 116/340/85
f 114/341/86 115/342/86 119/343/86
f 114/341/86 119/343/86 118/344/86
f 116/345/87 120/346/87 119/347/87
f 116/345/87 119/347/87 115/348/87
f 121/349/88 124/350/88 123/351/88
f 121/349/88 123/351/88 122/352/88
f 125/353/89 126/354/89 127/355/89
f 125/353/89 127/355/89 128/356/89
f 121/357/90 125/358/90 128/359/90
f 121/357/90 128/359/90 124/360/90
f 122/361/91 123/362/91 127/363/91
f 122/361/91 127/363/91 126/364/91
f 121/365/92 122/366/92 126/367/92
f 121/365/92 126/367/92 125/368/92
f 124/369/93 128/370/93 127/371/93
f 124/369/93 127/371/93 123/372/93
f 129/373/94 132/374/94 131/375/94
f 129/373/94 131/375/94 130/376/94
f 133/377/95 134/378/95 135/379/95
f 133/377/95 135/379/95 136/380/95
f 129/381/96 133/382/96 136/383/96
f 129/381/96 136/383/96 132/384/96
f 130/385/97 131/386/97 135/387/97
f 130/385/97 135/387/97 134/388/97
f 129/389/98 130/390/98 134/391/98
f 129/389/98 134/391/98 133/392/98
f 132/393/99 136/394/99 135/395/99
f 132/393/99 135/395/99 131/396/99
f 137/397/100 140/398/100 139/399/100
f 137/397/100 139/399/100 138/400/100
f 141/401/101 142/402/101 143/403/101
f 141/401/101 143/403/101 144/404/101
f 137/405/102 141/406/102 144/407/102
f 137/405/102 144/407/102 140/408/102
f 138/409/103 139/410/103 143/411/103
f 138/409/103 143/411/103 142/412/103
f 137/413/104 138/414/104 142/415/104
f 137/413/104 142/415/104 141/416/104
f 140/417/105 144/418/105 143/419/105
f 140/417/105 143/419/105 139/420/105
