mtllib TorusSettlementFarm_Soybeans.mtl
v -7.2485250 0.1266437 3.7500000
v -5.1780339 0.0646174 3.7500000
v -5.1780339 0.0646174 -3.7500000
v -7.2485250 0.1266437 -3.7500000
v -5.1780339 0.0646174 3.7500000
v -3.1070267 0.0232630 3.7500000
v -3.1070267 0.0232630 -3.7500000
v -5.1780339 0.0646174 -3.7500000
v -3.1070267 0.0232630 3.7500000
v -1.0357100 0.0025848 3.7500000
v -1.0357100 0.0025848 -3.7500000
v -3.1070267 0.0232630 -3.7500000
v -1.0357100 0.0025848 3.7500000
v 1.0357100 0.0025848 3.7500000
v 1.0357100 0.0025848 -3.7500000
v -1.0357100 0.0025848 -3.7500000
v 1.0357100 0.0025848 3.7500000
v 3.1070267 0.0232630 3.7500000
v 3.1070267 0.0232630 -3.7500000
v 1.0357100 0.0025848 -3.7500000
v 3.1070267 0.0232630 3.7500000
v 5.1780339 0.0646174 3.7500000
v 5.1780339 0.0646174 -3.7500000
v 3.1070267 0.0232630 -3.7500000
v 5.1780339 0.0646174 3.7500000
v 7.2485250 0.1266437 3.7500000
v 7.2485250 0.1266437 -3.7500000
v 5.1780339 0.0646174 -3.7500000
v -7.2480883 0.1391361 -3.4000000
v -5.1777219 0.0771135 -3.4000000
v -5.1777219 0.0771135 -3.7500000
v -7.2480883 0.1391361 -3.7500000
v -5.1777219 0.0771135 -3.4000000
v -3.1068396 0.0357616 -3.4000000
v -3.1068396 0.0357616 -3.7500000
v -5.1777219 0.0771135 -3.7500000
v -3.1068396 0.0357616 -3.4000000
v -1.0356476 0.0150847 -3.4000000
v -1.0356476 0.0150847 -3.7500000
v -3.1068396 0.0357616 -3.7500000
v -1.0356476 0.0150847 -3.4000000
v 1.0356476 0.0150847 -3.4000000
v 1.0356476 0.0150847 -3.7500000
v -1.0356476 0.0150847 -3.7500000
v 1.0356476 0.0150847 -3.4000000
v 3.1068396 0.0357616 -3.4000000
v 3.1068396 0.0357616 -3.7500000
v 1.0356476 0.0150847 -3.7500000
v 3.1068396 0.0357616 -3.4000000
v 5.1777219 0.0771135 -3.4000000
v 5.1777219 0.0771135 -3.7500000
v 3.1068396 0.0357616 -3.7500000
v 5.1777219 0.0771135 -3.4000000
v 7.2480883 0.1391361 -3.4000000
v 7.2480883 0.1391361 -3.7500000
v 5.1777219 0.0771135 -3.7500000
v -7.2480883 0.1391361 3.7500000
v -5.1777219 0.0771135 3.7500000
v -5.1777219 0.0771135 3.4000000
v -7.2480883 0.1391361 3.4000000
v -5.1777219 0.0771135 3.7500000
v -3.1068396 0.0357616 3.7500000
v -3.1068396 0.0357616 3.4000000
v -5.1777219 0.0771135 3.4000000
v -3.1068396 0.0357616 3.7500000
v -1.0356476 0.0150847 3.7500000
v -1.0356476 0.0150847 3.4000000
v -3.1068396 0.0357616 3.4000000
v -1.0356476 0.0150847 3.7500000
v 1.0356476 0.0150847 3.7500000
v 1.0356476 0.0150847 3.4000000
v -1.0356476 0.0150847 3.4000000
v 1.0356476 0.0150847 3.7500000
v 3.1068396 0.0357616 3.7500000
v 3.1068396 0.0357616 3.4000000
v 1.0356476 0.0150847 3.4000000
v 3.1068396 0.0357616 3.7500000
v 5.1777219 0.0771135 3.7500000
v 5.1777219 0.0771135 3.4000000
v 3.1068396 0.0357616 3.4000000
v 5.1777219 0.0771135 3.7500000
v 7.2480883 0.1391361 3.7500000
v 7.2480883 0.1391361 3.4000000
v 5.1777219 0.0771135 3.4000000
v -0.2999818 0.0127169 3.7500000
v 0.2999818 0.0127169 3.7500000
v 0.2999818 0.0127169 -3.7500000
v -0.2999818 0.0127169 -3.7500000
v -6.8939908 0.2571335 -3.2348571
v -4.7046962 0.1958789 -3.2348571
v -4.7065113 0.1158995 -3.4000000
v -6.8966505 0.1771778 -3.4000000
v -6.8966505 0.1771778 -3.0697143
v -4.7065113 0.1158995 -3.0697143
v -4.7046962 0.1958789 -3.2348571
v -6.8939908 0.2571335 -3.2348571
v -4.7046962 0.1958789 -3.2348571
v -2.5148767 0.1577510 -3.2348571
v -2.5158470 0.0777569 -3.4000000
v -4.7065113 0.1158995 -3.4000000
v -4.7065113 0.1158995 -3.0697143
v -2.5158470 0.0777569 -3.0697143
v -2.5148767 0.1577510 -3.2348571
v -4.7046962 0.1958789 -3.2348571
v -2.5148767 0.1577510 -3.2348571
v -0.3247767 0.1427543 -3.2348571
v -0.3249020 0.0627544 -3.4000000
v -2.5158470 0.0777569 -3.4000000
v -2.5158470 0.0777569 -3.0697143
v -0.3249020 0.0627544 -3.0697143
v -0.3247767 0.1427543 -3.2348571
v -2.5148767 0.1577510 -3.2348571
v 0.3247767 0.1427543 -3.2348571
v 2.5148767 0.1577510 -3.2348571
v 2.5158470 0.0777569 -3.4000000
v 0.3249020 0.0627544 -3.4000000
v 0.3249020 0.0627544 -3.0697143
v 2.5158470 0.0777569 -3.0697143
v 2.5148767 0.1577510 -3.2348571
v 0.3247767 0.1427543 -3.2348571
v 2.5148767 0.1577510 -3.2348571
v 4.7046962 0.1958789 -3.2348571
v 4.7065113 0.1158995 -3.4000000
v 2.5158470 0.0777569 -3.4000000
v 2.5158470 0.0777569 -3.0697143
v 4.7065113 0.1158995 -3.0697143
v 4.7046962 0.1958789 -3.2348571
v 2.5148767 0.1577510 -3.2348571
v 4.7046962 0.1958789 -3.2348571
v 6.8939908 0.2571335 -3.2348571
v 6.8966505 0.1771778 -3.4000000
v 4.7065113 0.1158995 -3.4000000
v 4.7065113 0.1158995 -3.0697143
v 6.8966505 0.1771778 -3.0697143
v 6.8939908 0.2571335 -3.2348571
v 4.7046962 0.1958789 -3.2348571
v -6.8939908 0.2571335 -2.7491429
v -4.7046962 0.1958789 -2.7491429
v -4.7065113 0.1158995 -2.9142857
v -6.8966505 0.1771778 -2.9142857
v -6.8966505 0.1771778 -2.5840000
v -4.7065113 0.1158995 -2.5840000
v -4.7046962 0.1958789 -2.7491429
v -6.8939908 0.2571335 -2.7491429
v -4.7046962 0.1958789 -2.7491429
v -2.5148767 0.1577510 -2.7491429
v -2.5158470 0.0777569 -2.9142857
v -4.7065113 0.1158995 -2.9142857
v -4.7065113 0.1158995 -2.5840000
v -2.5158470 0.0777569 -2.5840000
v -2.5148767 0.1577510 -2.7491429
v -4.7046962 0.1958789 -2.7491429
v -2.5148767 0.1577510 -2.7491429
v -0.3247767 0.1427543 -2.7491429
v -0.3249020 0.0627544 -2.9142857
v -2.5158470 0.0777569 -2.9142857
v -2.5158470 0.0777569 -2.5840000
v -0.3249020 0.0627544 -2.5840000
v -0.3247767 0.1427543 -2.7491429
v -2.5148767 0.1577510 -2.7491429
v 0.3247767 0.1427543 -2.7491429
v 2.5148767 0.1577510 -2.7491429
v 2.5158470 0.0777569 -2.9142857
v 0.3249020 0.0627544 -2.9142857
v 0.3249020 0.0627544 -2.5840000
v 2.5158470 0.0777569 -2.5840000
v 2.5148767 0.1577510 -2.7491429
v 0.3247767 0.1427543 -2.7491429
v 2.5148767 0.1577510 -2.7491429
v 4.7046962 0.1958789 -2.7491429
v 4.7065113 0.1158995 -2.9142857
v 2.5158470 0.0777569 -2.9142857
v 2.5158470 0.0777569 -2.5840000
v 4.7065113 0.1158995 -2.5840000
v 4.7046962 0.1958789 -2.7491429
v 2.5148767 0.1577510 -2.7491429
v 4.7046962 0.1958789 -2.7491429
v 6.8939908 0.2571335 -2.7491429
v 6.8966505 0.1771778 -2.9142857
v 4.7065113 0.1158995 -2.9142857
v 4.7065113 0.1158995 -2.5840000
v 6.8966505 0.1771778 -2.5840000
v 6.8939908 0.2571335 -2.7491429
v 4.7046962 0.1958789 -2.7491429
v -6.8939908 0.2571335 -2.2634286
v -4.7046962 0.1958789 -2.2634286
v -4.7065113 0.1158995 -2.4285714
v -6.8966505 0.1771778 -2.4285714
v -6.8966505 0.1771778 -2.0982857
v -4.7065113 0.1158995 -2.0982857
v -4.7046962 0.1958789 -2.2634286
v -6.8939908 0.2571335 -2.2634286
v -4.7046962 0.1958789 -2.2634286
v -2.5148767 0.1577510 -2.2634286
v -2.5158470 0.0777569 -2.4285714
v -4.7065113 0.1158995 -2.4285714
v -4.7065113 0.1158995 -2.0982857
v -2.5158470 0.0777569 -2.0982857
v -2.5148767 0.1577510 -2.2634286
v -4.7046962 0.1958789 -2.2634286
v -2.5148767 0.1577510 -2.2634286
v -0.3247767 0.1427543 -2.2634286
v -0.3249020 0.0627544 -2.4285714
v -2.5158470 0.0777569 -2.4285714
v -2.5158470 0.0777569 -2.0982857
v -0.3249020 0.0627544 -2.0982857
v -0.3247767 0.1427543 -2.2634286
v -2.5148767 0.1577510 -2.2634286
v 0.3247767 0.1427543 -2.2634286
v 2.5148767 0.1577510 -2.2634286
v 2.5158470 0.0777569 -2.4285714
v 0.3249020 0.0627544 -2.4285714
v 0.3249020 0.0627544 -2.0982857
v 2.5158470 0.0777569 -2.0982857
v 2.5148767 0.1577510 -2.2634286
v 0.3247767 0.1427543 -2.2634286
v 2.5148767 0.1577510 -2.2634286
v 4.7046962 0.1958789 -2.2634286
v 4.7065113 0.1158995 -2.4285714
v 2.5158470 0.0777569 -2.4285714
v 2.5158470 0.0777569 -2.0982857
v 4.7065113 0.1158995 -2.0982857
v 4.7046962 0.1958789 -2.2634286
v 2.5148767 0.1577510 -2.2634286
v 4.7046962 0.1958789 -2.2634286
v 6.8939908 0.2571335 -2.2634286
v 6.8966505 0.1771778 -2.4285714
v 4.7065113 0.1158995 -2.4285714
v 4.7065113 0.1158995 -2.0982857
v 6.8966505 0.1771778 -2.0982857
v 6.8939908 0.2571335 -2.2634286
v 4.7046962 0.1958789 -2.2634286
v -6.8939908 0.2571335 -1.7777143
v -4.7046962 0.1958789 -1.7777143
v -4.7065113 0.1158995 -1.9428571
v -6.8966505 0.1771778 -1.9428571
v -6.8966505 0.1771778 -1.6125714
v -4.7065113 0.1158995 -1.6125714
v -4.7046962 0.1958789 -1.7777143
v -6.8939908 0.2571335 -1.7777143
v -4.7046962 0.1958789 -1.7777143
v -2.5148767 0.1577510 -1.7777143
v -2.5158470 0.0777569 -1.9428571
v -4.7065113 0.1158995 -1.9428571
v -4.7065113 0.1158995 -1.6125714
v -2.5158470 0.0777569 -1.6125714
v -2.5148767 0.1577510 -1.7777143
v -4.7046962 0.1958789 -1.7777143
v -2.5148767 0.1577510 -1.7777143
v -0.3247767 0.1427543 -1.7777143
v -0.3249020 0.0627544 -1.9428571
v -2.5158470 0.0777569 -1.9428571
v -2.5158470 0.0777569 -1.6125714
v -0.3249020 0.0627544 -1.6125714
v -0.3247767 0.1427543 -1.7777143
v -2.5148767 0.1577510 -1.7777143
v 0.3247767 0.1427543 -1.7777143
v 2.5148767 0.1577510 -1.7777143
v 2.5158470 0.0777569 -1.9428571
v 0.3249020 0.0627544 -1.9428571
v 0.3249020 0.0627544 -1.6125714
v 2.5158470 0.0777569 -1.6125714
v 2.5148767 0.1577510 -1.7777143
v 0.3247767 0.1427543 -1.7777143
v 2.5148767 0.1577510 -1.7777143
v 4.7046962 0.1958789 -1.7777143
v 4.7065113 0.1158995 -1.9428571
v 2.5158470 0.0777569 -1.9428571
v 2.5158470 0.0777569 -1.6125714
v 4.7065113 0.1158995 -1.6125714
v 4.7046962 0.1958789 -1.7777143
v 2.5148767 0.1577510 -1.7777143
v 4.7046962 0.1958789 -1.7777143
v 6.8939908 0.2571335 -1.7777143
v 6.8966505 0.1771778 -1.9428571
v 4.7065113 0.1158995 -1.9428571
v 4.7065113 0.1158995 -1.6125714
v 6.8966505 0.1771778 -1.6125714
v 6.8939908 0.2571335 -1.7777143
v 4.7046962 0.1958789 -1.7777143
v -6.8939908 0.2571335 -1.2920000
v -4.7046962 0.1958789 -1.2920000
v -4.7065113 0.1158995 -1.4571429
v -6.8966505 0.1771778 -1.4571429
v -6.8966505 0.1771778 -1.1268571
v -4.7065113 0.1158995 -1.1268571
v -4.7046962 0.1958789 -1.2920000
v -6.8939908 0.2571335 -1.2920000
v -4.7046962 0.1958789 -1.2920000
v -2.5148767 0.1577510 -1.2920000
v -2.5158470 0.0777569 -1.4571429
v -4.7065113 0.1158995 -1.4571429
v -4.7065113 0.1158995 -1.1268571
v -2.5158470 0.0777569 -1.1268571
v -2.5148767 0.1577510 -1.2920000
v -4.7046962 0.1958789 -1.2920000
v -2.5148767 0.1577510 -1.2920000
v -0.3247767 0.1427543 -1.2920000
v -0.3249020 0.0627544 -1.4571429
v -2.5158470 0.0777569 -1.4571429
v -2.5158470 0.0777569 -1.1268571
v -0.3249020 0.0627544 -1.1268571
v -0.3247767 0.1427543 -1.2920000
v -2.5148767 0.1577510 -1.2920000
v 0.3247767 0.1427543 -1.2920000
v 2.5148767 0.1577510 -1.2920000
v 2.5158470 0.0777569 -1.4571429
v 0.3249020 0.0627544 -1.4571429
v 0.3249020 0.0627544 -1.1268571
v 2.5158470 0.0777569 -1.1268571
v 2.5148767 0.1577510 -1.2920000
v 0.3247767 0.1427543 -1.2920000
v 2.5148767 0.1577510 -1.2920000
v 4.7046962 0.1958789 -1.2920000
v 4.7065113 0.1158995 -1.4571429
v 2.5158470 0.0777569 -1.4571429
v 2.5158470 0.0777569 -1.1268571
v 4.7065113 0.1158995 -1.1268571
v 4.7046962 0.1958789 -1.2920000
v 2.5148767 0.1577510 -1.2920000
v 4.7046962 0.1958789 -1.2920000
v 6.8939908 0.2571335 -1.2920000
v 6.8966505 0.1771778 -1.4571429
v 4.7065113 0.1158995 -1.4571429
v 4.7065113 0.1158995 -1.1268571
v 6.8966505 0.1771778 -1.1268571
v 6.8939908 0.2571335 -1.2920000
v 4.7046962 0.1958789 -1.2920000
v -6.8939908 0.2571335 -0.8062857
v -4.7046962 0.1958789 -0.8062857
v -4.7065113 0.1158995 -0.9714286
v -6.8966505 0.1771778 -0.9714286
v -6.8966505 0.1771778 -0.6411429
v -4.7065113 0.1158995 -0.6411429
v -4.7046962 0.1958789 -0.8062857
v -6.8939908 0.2571335 -0.8062857
v -4.7046962 0.1958789 -0.8062857
v -2.5148767 0.1577510 -0.8062857
v -2.5158470 0.0777569 -0.9714286
v -4.7065113 0.1158995 -0.9714286
v -4.7065113 0.1158995 -0.6411429
v -2.5158470 0.0777569 -0.6411429
v -2.5148767 0.1577510 -0.8062857
v -4.7046962 0.1958789 -0.8062857
v -2.5148767 0.1577510 -0.8062857
v -0.3247767 0.1427543 -0.8062857
v -0.3249020 0.0627544 -0.9714286
v -2.5158470 0.0777569 -0.9714286
v -2.5158470 0.0777569 -0.6411429
v -0.3249020 0.0627544 -0.6411429
v -0.3247767 0.1427543 -0.8062857
v -2.5148767 0.1577510 -0.8062857
v 0.3247767 0.1427543 -0.8062857
v 2.5148767 0.1577510 -0.8062857
v 2.5158470 0.0777569 -0.9714286
v 0.3249020 0.0627544 -0.9714286
v 0.3249020 0.0627544 -0.6411429
v 2.5158470 0.0777569 -0.6411429
v 2.5148767 0.1577510 -0.8062857
v 0.3247767 0.1427543 -0.8062857
v 2.5148767 0.1577510 -0.8062857
v 4.7046962 0.1958789 -0.8062857
v 4.7065113 0.1158995 -0.9714286
v 2.5158470 0.0777569 -0.9714286
v 2.5158470 0.0777569 -0.6411429
v 4.7065113 0.1158995 -0.6411429
v 4.7046962 0.1958789 -0.8062857
v 2.5148767 0.1577510 -0.8062857
v 4.7046962 0.1958789 -0.8062857
v 6.8939908 0.2571335 -0.8062857
v 6.8966505 0.1771778 -0.9714286
v 4.7065113 0.1158995 -0.9714286
v 4.7065113 0.1158995 -0.6411429
v 6.8966505 0.1771778 -0.6411429
v 6.8939908 0.2571335 -0.8062857
v 4.7046962 0.1958789 -0.8062857
v -6.8939908 0.2571335 -0.3205714
v -4.7046962 0.1958789 -0.3205714
v -4.7065113 0.1158995 -0.4857143
v -6.8966505 0.1771778 -0.4857143
v -6.8966505 0.1771778 -0.1554286
v -4.7065113 0.1158995 -0.1554286
v -4.7046962 0.1958789 -0.3205714
v -6.8939908 0.2571335 -0.3205714
v -4.7046962 0.1958789 -0.3205714
v -2.5148767 0.1577510 -0.3205714
v -2.5158470 0.0777569 -0.4857143
v -4.7065113 0.1158995 -0.4857143
v -4.7065113 0.1158995 -0.1554286
v -2.5158470 0.0777569 -0.1554286
v -2.5148767 0.1577510 -0.3205714
v -4.7046962 0.1958789 -0.3205714
v -2.5148767 0.1577510 -0.3205714
v -0.3247767 0.1427543 -0.3205714
v -0.3249020 0.0627544 -0.4857143
v -2.5158470 0.0777569 -0.4857143
v -2.5158470 0.0777569 -0.1554286
v -0.3249020 0.0627544 -0.1554286
v -0.3247767 0.1427543 -0.3205714
v -2.5148767 0.1577510 -0.3205714
v 0.3247767 0.1427543 -0.3205714
v 2.5148767 0.1577510 -0.3205714
v 2.5158470 0.0777569 -0.4857143
v 0.3249020 0.0627544 -0.4857143
v 0.3249020 0.0627544 -0.1554286
v 2.5158470 0.0777569 -0.1554286
v 2.5148767 0.1577510 -0.3205714
v 0.3247767 0.1427543 -0.3205714
v 2.5148767 0.1577510 -0.3205714
v 4.7046962 0.1958789 -0.3205714
v 4.7065113 0.1158995 -0.4857143
v 2.5158470 0.0777569 -0.4857143
v 2.5158470 0.0777569 -0.1554286
v 4.7065113 0.1158995 -0.1554286
v 4.7046962 0.1958789 -0.3205714
v 2.5148767 0.1577510 -0.3205714
v 4.7046962 0.1958789 -0.3205714
v 6.8939908 0.2571335 -0.3205714
v 6.8966505 0.1771778 -0.4857143
v 4.7065113 0.1158995 -0.4857143
v 4.7065113 0.1158995 -0.1554286
v 6.8966505 0.1771778 -0.1554286
v 6.8939908 0.2571335 -0.3205714
v 4.7046962 0.1958789 -0.3205714
v -6.8939908 0.2571335 0.1651429
v -4.7046962 0.1958789 0.1651429
v -4.7065113 0.1158995 0.0000000
v -6.8966505 0.1771778 0.0000000
v -6.8966505 0.1771778 0.3302857
v -4.7065113 0.1158995 0.3302857
v -4.7046962 0.1958789 0.1651429
v -6.8939908 0.2571335 0.1651429
v -4.7046962 0.1958789 0.1651429
v -2.5148767 0.1577510 0.1651429
v -2.5158470 0.0777569 0.0000000
v -4.7065113 0.1158995 0.0000000
v -4.7065113 0.1158995 0.3302857
v -2.5158470 0.0777569 0.3302857
v -2.5148767 0.1577510 0.1651429
v -4.7046962 0.1958789 0.1651429
v -2.5148767 0.1577510 0.1651429
v -0.3247767 0.1427543 0.1651429
v -0.3249020 0.0627544 0.0000000
v -2.5158470 0.0777569 0.0000000
v -2.5158470 0.0777569 0.3302857
v -0.3249020 0.0627544 0.3302857
v -0.3247767 0.1427543 0.1651429
v -2.5148767 0.1577510 0.1651429
v 0.3247767 0.1427543 0.1651429
v 2.5148767 0.1577510 0.1651429
v 2.5158470 0.0777569 0.0000000
v 0.3249020 0.0627544 0.0000000
v 0.3249020 0.0627544 0.3302857
v 2.5158470 0.0777569 0.3302857
v 2.5148767 0.1577510 0.1651429
v 0.3247767 0.1427543 0.1651429
v 2.5148767 0.1577510 0.1651429
v 4.7046962 0.1958789 0.1651429
v 4.7065113 0.1158995 0.0000000
v 2.5158470 0.0777569 0.0000000
v 2.5158470 0.0777569 0.3302857
v 4.7065113 0.1158995 0.3302857
v 4.7046962 0.1958789 0.1651429
v 2.5148767 0.1577510 0.1651429
v 4.7046962 0.1958789 0.1651429
v 6.8939908 0.2571335 0.1651429
v 6.8966505 0.1771778 0.0000000
v 4.7065113 0.1158995 0.0000000
v 4.7065113 0.1158995 0.3302857
v 6.8966505 0.1771778 0.3302857
v 6.8939908 0.2571335 0.1651429
v 4.7046962 0.1958789 0.1651429
v -6.8939908 0.2571335 0.6508571
v -4.7046962 0.1958789 0.6508571
v -4.7065113 0.1158995 0.4857143
v -6.8966505 0.1771778 0.4857143
v -6.8966505 0.1771778 0.8160000
v -4.7065113 0.1158995 0.8160000
v -4.7046962 0.1958789 0.6508571
v -6.8939908 0.2571335 0.6508571
v -4.7046962 0.1958789 0.6508571
v -2.5148767 0.1577510 0.6508571
v -2.5158470 0.0777569 0.4857143
v -4.7065113 0.1158995 0.4857143
v -4.7065113 0.1158995 0.8160000
v -2.5158470 0.0777569 0.8160000
v -2.5148767 0.1577510 0.6508571
v -4.7046962 0.1958789 0.6508571
v -2.5148767 0.1577510 0.6508571
v -0.3247767 0.1427543 0.6508571
v -0.3249020 0.0627544 0.4857143
v -2.5158470 0.0777569 0.4857143
v -2.5158470 0.0777569 0.8160000
v -0.3249020 0.0627544 0.8160000
v -0.3247767 0.1427543 0.6508571
v -2.5148767 0.1577510 0.6508571
v 0.3247767 0.1427543 0.6508571
v 2.5148767 0.1577510 0.6508571
v 2.5158470 0.0777569 0.4857143
v 0.3249020 0.0627544 0.4857143
v 0.3249020 0.0627544 0.8160000
v 2.5158470 0.0777569 0.8160000
v 2.5148767 0.1577510 0.6508571
v 0.3247767 0.1427543 0.6508571
v 2.5148767 0.1577510 0.6508571
v 4.7046962 0.1958789 0.6508571
v 4.7065113 0.1158995 0.4857143
v 2.5158470 0.0777569 0.4857143
v 2.5158470 0.0777569 0.8160000
v 4.7065113 0.1158995 0.8160000
v 4.7046962 0.1958789 0.6508571
v 2.5148767 0.1577510 0.6508571
v 4.7046962 0.1958789 0.6508571
v 6.8939908 0.2571335 0.6508571
v 6.8966505 0.1771778 0.4857143
v 4.7065113 0.1158995 0.4857143
v 4.7065113 0.1158995 0.8160000
v 6.8966505 0.1771778 0.8160000
v 6.8939908 0.2571335 0.6508571
v 4.7046962 0.1958789 0.6508571
v -6.8939908 0.2571335 1.1365714
v -4.7046962 0.1958789 1.1365714
v -4.7065113 0.1158995 0.9714286
v -6.8966505 0.1771778 0.9714286
v -6.8966505 0.1771778 1.3017143
v -4.7065113 0.1158995 1.3017143
v -4.7046962 0.1958789 1.1365714
v -6.8939908 0.2571335 1.1365714
v -4.7046962 0.1958789 1.1365714
v -2.5148767 0.1577510 1.1365714
v -2.5158470 0.0777569 0.9714286
v -4.7065113 0.1158995 0.9714286
v -4.7065113 0.1158995 1.3017143
v -2.5158470 0.0777569 1.3017143
v -2.5148767 0.1577510 1.1365714
v -4.7046962 0.1958789 1.1365714
v -2.5148767 0.1577510 1.1365714
v -0.3247767 0.1427543 1.1365714
v -0.3249020 0.0627544 0.9714286
v -2.5158470 0.0777569 0.9714286
v -2.5158470 0.0777569 1.3017143
v -0.3249020 0.0627544 1.3017143
v -0.3247767 0.1427543 1.1365714
v -2.5148767 0.1577510 1.1365714
v 0.3247767 0.1427543 1.1365714
v 2.5148767 0.1577510 1.1365714
v 2.5158470 0.0777569 0.9714286
v 0.3249020 0.0627544 0.9714286
v 0.3249020 0.0627544 1.3017143
v 2.5158470 0.0777569 1.3017143
v 2.5148767 0.1577510 1.1365714
v 0.3247767 0.1427543 1.1365714
v 2.5148767 0.1577510 1.1365714
v 4.7046962 0.1958789 1.1365714
v 4.7065113 0.1158995 0.9714286
v 2.5158470 0.0777569 0.9714286
v 2.5158470 0.0777569 1.3017143
v 4.7065113 0.1158995 1.3017143
v 4.7046962 0.1958789 1.1365714
v 2.5148767 0.1577510 1.1365714
v 4.7046962 0.1958789 1.1365714
v 6.8939908 0.2571335 1.1365714
v 6.8966505 0.1771778 0.9714286
v 4.7065113 0.1158995 0.9714286
v 4.7065113 0.1158995 1.3017143
v 6.8966505 0.1771778 1.3017143
v 6.8939908 0.2571335 1.1365714
v 4.7046962 0.1958789 1.1365714
v -6.8939908 0.2571335 1.6222857
v -4.7046962 0.1958789 1.6222857
v -4.7065113 0.1158995 1.4571429
v -6.8966505 0.1771778 1.4571429
v -6.8966505 0.1771778 1.7874286
v -4.7065113 0.1158995 1.7874286
v -4.7046962 0.1958789 1.6222857
v -6.8939908 0.2571335 1.6222857
v -4.7046962 0.1958789 1.6222857
v -2.5148767 0.1577510 1.6222857
v -2.5158470 0.0777569 1.4571429
v -4.7065113 0.1158995 1.4571429
v -4.7065113 0.1158995 1.7874286
v -2.5158470 0.0777569 1.7874286
v -2.5148767 0.1577510 1.6222857
v -4.7046962 0.1958789 1.6222857
v -2.5148767 0.1577510 1.6222857
v -0.3247767 0.1427543 1.6222857
v -0.3249020 0.0627544 1.4571429
v -2.5158470 0.0777569 1.4571429
v -2.5158470 0.0777569 1.7874286
v -0.3249020 0.0627544 1.7874286
v -0.3247767 0.1427543 1.6222857
v -2.5148767 0.1577510 1.6222857
v 0.3247767 0.1427543 1.6222857
v 2.5148767 0.1577510 1.6222857
v 2.5158470 0.0777569 1.4571429
v 0.3249020 0.0627544 1.4571429
v 0.3249020 0.0627544 1.7874286
v 2.5158470 0.0777569 1.7874286
v 2.5148767 0.1577510 1.6222857
v 0.3247767 0.1427543 1.6222857
v 2.5148767 0.1577510 1.6222857
v 4.7046962 0.1958789 1.6222857
v 4.7065113 0.1158995 1.4571429
v 2.5158470 0.0777569 1.4571429
v 2.5158470 0.0777569 1.7874286
v 4.7065113 0.1158995 1.7874286
v 4.7046962 0.1958789 1.6222857
v 2.5148767 0.1577510 1.6222857
v 4.7046962 0.1958789 1.6222857
v 6.8939908 0.2571335 1.6222857
v 6.8966505 0.1771778 1.4571429
v 4.7065113 0.1158995 1.4571429
v 4.7065113 0.1158995 1.7874286
v 6.8966505 0.1771778 1.7874286
v 6.8939908 0.2571335 1.6222857
v 4.7046962 0.1958789 1.6222857
v -6.8939908 0.2571335 2.1080000
v -4.7046962 0.1958789 2.1080000
v -4.7065113 0.1158995 1.9428571
v -6.8966505 0.1771778 1.9428571
v -6.8966505 0.1771778 2.2731429
v -4.7065113 0.1158995 2.2731429
v -4.7046962 0.1958789 2.1080000
v -6.8939908 0.2571335 2.1080000
v -4.7046962 0.1958789 2.1080000
v -2.5148767 0.1577510 2.1080000
v -2.5158470 0.0777569 1.9428571
v -4.7065113 0.1158995 1.9428571
v -4.7065113 0.1158995 2.2731429
v -2.5158470 0.0777569 2.2731429
v -2.5148767 0.1577510 2.1080000
v -4.7046962 0.1958789 2.1080000
v -2.5148767 0.1577510 2.1080000
v -0.3247767 0.1427543 2.1080000
v -0.3249020 0.0627544 1.9428571
v -2.5158470 0.0777569 1.9428571
v -2.5158470 0.0777569 2.2731429
v -0.3249020 0.0627544 2.2731429
v -0.3247767 0.1427543 2.1080000
v -2.5148767 0.1577510 2.1080000
v 0.3247767 0.1427543 2.1080000
v 2.5148767 0.1577510 2.1080000
v 2.5158470 0.0777569 1.9428571
v 0.3249020 0.0627544 1.9428571
v 0.3249020 0.0627544 2.2731429
v 2.5158470 0.0777569 2.2731429
v 2.5148767 0.1577510 2.1080000
v 0.3247767 0.1427543 2.1080000
v 2.5148767 0.1577510 2.1080000
v 4.7046962 0.1958789 2.1080000
v 4.7065113 0.1158995 1.9428571
v 2.5158470 0.0777569 1.9428571
v 2.5158470 0.0777569 2.2731429
v 4.7065113 0.1158995 2.2731429
v 4.7046962 0.1958789 2.1080000
v 2.5148767 0.1577510 2.1080000
v 4.7046962 0.1958789 2.1080000
v 6.8939908 0.2571335 2.1080000
v 6.8966505 0.1771778 1.9428571
v 4.7065113 0.1158995 1.9428571
v 4.7065113 0.1158995 2.2731429
v 6.8966505 0.1771778 2.2731429
v 6.8939908 0.2571335 2.1080000
v 4.7046962 0.1958789 2.1080000
v -6.8939908 0.2571335 2.5937143
v -4.7046962 0.1958789 2.5937143
v -4.7065113 0.1158995 2.4285714
v -6.8966505 0.1771778 2.4285714
v -6.8966505 0.1771778 2.7588571
v -4.7065113 0.1158995 2.7588571
v -4.7046962 0.1958789 2.5937143
v -6.8939908 0.2571335 2.5937143
v -4.7046962 0.1958789 2.5937143
v -2.5148767 0.1577510 2.5937143
v -2.5158470 0.0777569 2.4285714
v -4.7065113 0.1158995 2.4285714
v -4.7065113 0.1158995 2.7588571
v -2.5158470 0.0777569 2.7588571
v -2.5148767 0.1577510 2.5937143
v -4.7046962 0.1958789 2.5937143
v -2.5148767 0.1577510 2.5937143
v -0.3247767 0.1427543 2.5937143
v -0.3249020 0.0627544 2.4285714
v -2.5158470 0.0777569 2.4285714
v -2.5158470 0.0777569 2.7588571
v -0.3249020 0.0627544 2.7588571
v -0.3247767 0.1427543 2.5937143
v -2.5148767 0.1577510 2.5937143
v 0.3247767 0.1427543 2.5937143
v 2.5148767 0.1577510 2.5937143
v 2.5158470 0.0777569 2.4285714
v 0.3249020 0.0627544 2.4285714
v 0.3249020 0.0627544 2.7588571
v 2.5158470 0.0777569 2.7588571
v 2.5148767 0.1577510 2.5937143
v 0.3247767 0.1427543 2.5937143
v 2.5148767 0.1577510 2.5937143
v 4.7046962 0.1958789 2.5937143
v 4.7065113 0.1158995 2.4285714
v 2.5158470 0.0777569 2.4285714
v 2.5158470 0.0777569 2.7588571
v 4.7065113 0.1158995 2.7588571
v 4.7046962 0.1958789 2.5937143
v 2.5148767 0.1577510 2.5937143
v 4.7046962 0.1958789 2.5937143
v 6.8939908 0.2571335 2.5937143
v 6.8966505 0.1771778 2.4285714
v 4.7065113 0.1158995 2.4285714
v 4.7065113 0.1158995 2.7588571
v 6.8966505 0.1771778 2.7588571
v 6.8939908 0.2571335 2.5937143
v 4.7046962 0.1958789 2.5937143
v -6.8939908 0.2571335 3.0794286
v -4.7046962 0.1958789 3.0794286
v -4.7065113 0.1158995 2.9142857
v -6.8966505 0.1771778 2.9142857
v -6.8966505 0.1771778 3.2445714
v -4.7065113 0.1158995 3.2445714
v -4.7046962 0.1958789 3.0794286
v -6.8939908 0.2571335 3.0794286
v -4.7046962 0.1958789 3.0794286
v -2.5148767 0.1577510 3.0794286
v -2.5158470 0.0777569 2.9142857
v -4.7065113 0.1158995 2.9142857
v -4.7065113 0.1158995 3.2445714
v -2.5158470 0.0777569 3.2445714
v -2.5148767 0.1577510 3.0794286
v -4.7046962 0.1958789 3.0794286
v -2.5148767 0.1577510 3.0794286
v -0.3247767 0.1427543 3.0794286
v -0.3249020 0.0627544 2.9142857
v -2.5158470 0.0777569 2.9142857
v -2.5158470 0.0777569 3.2445714
v -0.3249020 0.0627544 3.2445714
v -0.3247767 0.1427543 3.0794286
v -2.5148767 0.1577510 3.0794286
v 0.3247767 0.1427543 3.0794286
v 2.5148767 0.1577510 3.0794286
v 2.5158470 0.0777569 2.9142857
v 0.3249020 0.0627544 2.9142857
v 0.3249020 0.0627544 3.2445714
v 2.5158470 0.0777569 3.2445714
v 2.5148767 0.1577510 3.0794286
v 0.3247767 0.1427543 3.0794286
v 2.5148767 0.1577510 3.0794286
v 4.7046962 0.1958789 3.0794286
v 4.7065113 0.1158995 2.9142857
v 2.5158470 0.0777569 2.9142857
v 2.5158470 0.0777569 3.2445714
v 4.7065113 0.1158995 3.2445714
v 4.7046962 0.1958789 3.0794286
v 2.5148767 0.1577510 3.0794286
v 4.7046962 0.1958789 3.0794286
v 6.8939908 0.2571335 3.0794286
v 6.8966505 0.1771778 2.9142857
v 4.7065113 0.1158995 2.9142857
v 4.7065113 0.1158995 3.2445714
v 6.8966505 0.1771778 3.2445714
v 6.8939908 0.2571335 3.0794286
v 4.7046962 0.1958789 3.0794286
vt 0.005000 0.995000
vt 0.245000 0.995000
vt 0.245000 0.755000
vt 0.255000 0.995000
vt 0.495000 0.995000
vt 0.495000 0.755000
vt 0.505000 0.995000
vt 0.745000 0.995000
vt 0.745000 0.755000
vt 0.755000 0.995000
vt 0.995000 0.995000
vt 0.995000 0.755000
vt 0.005000 0.745000
vt 0.245000 0.745000
vt 0.245000 0.505000
vt 0.255000 0.745000
vt 0.495000 0.745000
vt 0.495000 0.505000
vt 0.505000 0.745000
vt 0.745000 0.745000
vt 0.745000 0.505000
vt 0.755000 0.745000
vt 0.995000 0.745000
vt 0.995000 0.505000
vt 0.005000 0.495000
vt 0.245000 0.495000
vt 0.245000 0.255000
vt 0.255000 0.495000
vt 0.495000 0.495000
vt 0.495000 0.255000
vt 0.505000 0.495000
vt 0.745000 0.495000
vt 0.745000 0.255000
vt 0.755000 0.495000
vt 0.995000 0.495000
vt 0.995000 0.255000
vt 0.005000 0.245000
vt 0.245000 0.245000
vt 0.245000 0.005000
vt 0.255000 0.245000
vt 0.495000 0.245000
vt 0.495000 0.005000
vt 0.505000 0.245000
vt 0.745000 0.245000
vt 0.745000 0.005000
vt 0.755000 0.245000
vt 0.995000 0.245000
vt 0.995000 0.005000
g ornament
usemtl farm-kit
f 89/13 90/14 91/15
f 89/13 91/14 92/15
f 93/13 94/14 95/15
f 93/13 95/14 96/15
f 97/13 98/14 99/15
f 97/13 99/14 100/15
f 101/13 102/14 103/15
f 101/13 103/14 104/15
f 105/13 106/14 107/15
f 105/13 107/14 108/15
f 109/13 110/14 111/15
f 109/13 111/14 112/15
f 113/13 114/14 115/15
f 113/13 115/14 116/15
f 117/13 118/14 119/15
f 117/13 119/14 120/15
f 121/13 122/14 123/15
f 121/13 123/14 124/15
f 125/13 126/14 127/15
f 125/13 127/14 128/15
f 129/13 130/14 131/15
f 129/13 131/14 132/15
f 133/13 134/14 135/15
f 133/13 135/14 136/15
f 137/13 138/14 139/15
f 137/13 139/14 140/15
f 141/13 142/14 143/15
f 141/13 143/14 144/15
f 145/13 146/14 147/15
f 145/13 147/14 148/15
f 149/13 150/14 151/15
f 149/13 151/14 152/15
f 153/13 154/14 155/15
f 153/13 155/14 156/15
f 157/13 158/14 159/15
f 157/13 159/14 160/15
f 161/13 162/14 163/15
f 161/13 163/14 164/15
f 165/13 166/14 167/15
f 165/13 167/14 168/15
f 169/13 170/14 171/15
f 169/13 171/14 172/15
f 173/13 174/14 175/15
f 173/13 175/14 176/15
f 177/13 178/14 179/15
f 177/13 179/14 180/15
f 181/13 182/14 183/15
f 181/13 183/14 184/15
f 185/13 186/14 187/15
f 185/13 187/14 188/15
f 189/13 190/14 191/15
f 189/13 191/14 192/15
f 193/13 194/14 195/15
f 193/13 195/14 196/15
f 197/13 198/14 199/15
f 197/13 199/14 200/15
f 201/13 202/14 203/15
f 201/13 203/14 204/15
f 205/13 206/14 207/15
f 205/13 207/14 208/15
f 209/13 210/14 211/15
f 209/13 211/14 212/15
f 213/13 214/14 215/15
f 213/13 215/14 216/15
f 217/13 218/14 219/15
f 217/13 219/14 220/15
f 221/13 222/14 223/15
f 221/13 223/14 224/15
f 225/13 226/14 227/15
f 225/13 227/14 228/15
f 229/13 230/14 231/15
f 229/13 231/14 232/15
f 233/13 234/14 235/15
f 233/13 235/14 236/15
f 237/13 238/14 239/15
f 237/13 239/14 240/15
f 241/13 242/14 243/15
f 241/13 243/14 244/15
f 245/13 246/14 247/15
f 245/13 247/14 248/15
f 249/13 250/14 251/15
f 249/13 251/14 252/15
f 253/13 254/14 255/15
f 253/13 255/14 256/15
f 257/13 258/14 259/15
f 257/13 259/14 260/15
f 261/13 262/14 263/15
f 261/13 263/14 264/15
f 265/13 266/14 267/15
f 265/13 267/14 268/15
f 269/13 270/14 271/15
f 269/13 271/14 272/15
f 273/13 274/14 275/15
f 273/13 275/14 276/15
f 277/13 278/14 279/15
f 277/13 279/14 280/15
f 281/13 282/14 283/15
f 281/13 283/14 284/15
f 285/13 286/14 287/15
f 285/13 287/14 288/15
f 289/13 290/14 291/15
f 289/13 291/14 292/15
f 293/13 294/14 295/15
f 293/13 295/14 296/15
f 297/13 298/14 299/15
f 297/13 299/14 300/15
f 301/13 302/14 303/15
f 301/13 303/14 304/15
f 305/13 306/14 307/15
f 305/13 307/14 308/15
f 309/13 310/14 311/15
f 309/13 311/14 312/15
f 313/13 314/14 315/15
f 313/13 315/14 316/15
f 317/13 318/14 319/15
f 317/13 319/14 320/15
f 321/13 322/14 323/15
f 321/13 323/14 324/15
f 325/13 326/14 327/15
f 325/13 327/14 328/15
f 329/13 330/14 331/15
f 329/13 331/14 332/15
f 333/13 334/14 335/15
f 333/13 335/14 336/15
f 337/13 338/14 339/15
f 337/13 339/14 340/15
f 341/13 342/14 343/15
f 341/13 343/14 344/15
f 345/13 346/14 347/15
f 345/13 347/14 348/15
f 349/13 350/14 351/15
f 349/13 351/14 352/15
f 353/13 354/14 355/15
f 353/13 355/14 356/15
f 357/13 358/14 359/15
f 357/13 359/14 360/15
f 361/13 362/14 363/15
f 361/13 363/14 364/15
f 365/13 366/14 367/15
f 365/13 367/14 368/15
f 369/13 370/14 371/15
f 369/13 371/14 372/15
f 373/13 374/14 375/15
f 373/13 375/14 376/15
f 377/13 378/14 379/15
f 377/13 379/14 380/15
f 381/13 382/14 383/15
f 381/13 383/14 384/15
f 385/13 386/14 387/15
f 385/13 387/14 388/15
f 389/13 390/14 391/15
f 389/13 391/14 392/15
f 393/13 394/14 395/15
f 393/13 395/14 396/15
f 397/13 398/14 399/15
f 397/13 399/14 400/15
f 401/13 402/14 403/15
f 401/13 403/14 404/15
f 405/13 406/14 407/15
f 405/13 407/14 408/15
f 409/13 410/14 411/15
f 409/13 411/14 412/15
f 413/13 414/14 415/15
f 413/13 415/14 416/15
f 417/13 418/14 419/15
f 417/13 419/14 420/15
f 421/13 422/14 423/15
f 421/13 423/14 424/15
f 425/13 426/14 427/15
f 425/13 427/14 428/15
f 429/13 430/14 431/15
f 429/13 431/14 432/15
f 433/13 434/14 435/15
f 433/13 435/14 436/15
f 437/13 438/14 439/15
f 437/13 439/14 440/15
f 441/13 442/14 443/15
f 441/13 443/14 444/15
f 445/13 446/14 447/15
f 445/13 447/14 448/15
f 449/13 450/14 451/15
f 449/13 451/14 452/15
f 453/13 454/14 455/15
f 453/13 455/14 456/15
f 457/13 458/14 459/15
f 457/13 459/14 460/15
f 461/13 462/14 463/15
f 461/13 463/14 464/15
f 465/13 466/14 467/15
f 465/13 467/14 468/15
f 469/13 470/14 471/15
f 469/13 471/14 472/15
f 473/13 474/14 475/15
f 473/13 475/14 476/15
f 477/13 478/14 479/15
f 477/13 479/14 480/15
f 481/13 482/14 483/15
f 481/13 483/14 484/15
f 485/13 486/14 487/15
f 485/13 487/14 488/15
f 489/13 490/14 491/15
f 489/13 491/14 492/15
f 493/13 494/14 495/15
f 493/13 495/14 496/15
f 497/13 498/14 499/15
f 497/13 499/14 500/15
f 501/13 502/14 503/15
f 501/13 503/14 504/15
f 505/13 506/14 507/15
f 505/13 507/14 508/15
f 509/13 510/14 511/15
f 509/13 511/14 512/15
f 513/13 514/14 515/15
f 513/13 515/14 516/15
f 517/13 518/14 519/15
f 517/13 519/14 520/15
f 521/13 522/14 523/15
f 521/13 523/14 524/15
f 525/13 526/14 527/15
f 525/13 527/14 528/15
f 529/13 530/14 531/15
f 529/13 531/14 532/15
f 533/13 534/14 535/15
f 533/13 535/14 536/15
f 537/13 538/14 539/15
f 537/13 539/14 540/15
f 541/13 542/14 543/15
f 541/13 543/14 544/15
f 545/13 546/14 547/15
f 545/13 547/14 548/15
f 549/13 550/14 551/15
f 549/13 551/14 552/15
f 553/13 554/14 555/15
f 553/13 555/14 556/15
f 557/13 558/14 559/15
f 557/13 559/14 560/15
f 561/13 562/14 563/15
f 561/13 563/14 564/15
f 565/13 566/14 567/15
f 565/13 567/14 568/15
f 569/13 570/14 571/15
f 569/13 571/14 572/15
f 573/13 574/14 575/15
f 573/13 575/14 576/15
f 577/13 578/14 579/15
f 577/13 579/14 580/15
f 581/13 582/14 583/15
f 581/13 583/14 584/15
f 585/13 586/14 587/15
f 585/13 587/14 588/15
f 589/13 590/14 591/15
f 589/13 591/14 592/15
f 593/13 594/14 595/15
f 593/13 595/14 596/15
f 597/13 598/14 599/15
f 597/13 599/14 600/15
f 601/13 602/14 603/15
f 601/13 603/14 604/15
f 605/13 606/14 607/15
f 605/13 607/14 608/15
f 609/13 610/14 611/15
f 609/13 611/14 612/15
f 613/13 614/14 615/15
f 613/13 615/14 616/15
f 617/13 618/14 619/15
f 617/13 619/14 620/15
f 621/13 622/14 623/15
f 621/13 623/14 624/15
f 625/13 626/14 627/15
f 625/13 627/14 628/15
f 629/13 630/14 631/15
f 629/13 631/14 632/15
f 633/13 634/14 635/15
f 633/13 635/14 636/15
f 637/13 638/14 639/15
f 637/13 639/14 640/15
f 641/13 642/14 643/15
f 641/13 643/14 644/15
f 645/13 646/14 647/15
f 645/13 647/14 648/15
f 649/13 650/14 651/15
f 649/13 651/14 652/15
f 653/13 654/14 655/15
f 653/13 655/14 656/15
f 657/13 658/14 659/15
f 657/13 659/14 660/15
f 661/13 662/14 663/15
f 661/13 663/14 664/15
f 665/13 666/14 667/15
f 665/13 667/14 668/15
f 669/13 670/14 671/15
f 669/13 671/14 672/15
f 673/13 674/14 675/15
f 673/13 675/14 676/15
f 677/13 678/14 679/15
f 677/13 679/14 680/15
f 681/13 682/14 683/15
f 681/13 683/14 684/15
f 685/13 686/14 687/15
f 685/13 687/14 688/15
f 689/13 690/14 691/15
f 689/13 691/14 692/15
f 693/13 694/14 695/15
f 693/13 695/14 696/15
f 697/13 698/14 699/15
f 697/13 699/14 700/15
f 701/13 702/14 703/15
f 701/13 703/14 704/15
f 705/13 706/14 707/15
f 705/13 707/14 708/15
f 709/13 710/14 711/15
f 709/13 711/14 712/15
f 713/13 714/14 715/15
f 713/13 715/14 716/15
f 717/13 718/14 719/15
f 717/13 719/14 720/15
f 721/13 722/14 723/15
f 721/13 723/14 724/15
f 725/13 726/14 727/15
f 725/13 727/14 728/15
f 729/13 730/14 731/15
f 729/13 731/14 732/15
f 733/13 734/14 735/15
f 733/13 735/14 736/15
f 737/13 738/14 739/15
f 737/13 739/14 740/15
f 741/13 742/14 743/15
f 741/13 743/14 744/15
f 745/13 746/14 747/15
f 745/13 747/14 748/15
f 749/13 750/14 751/15
f 749/13 751/14 752/15
f 753/13 754/14 755/15
f 753/13 755/14 756/15
f 757/13 758/14 759/15
f 757/13 759/14 760/15
g support
usemtl farm-kit
f 1/1 2/2 3/3
f 1/1 3/2 4/3
f 5/1 6/2 7/3
f 5/1 7/2 8/3
f 9/1 10/2 11/3
f 9/1 11/2 12/3
f 13/1 14/2 15/3
f 13/1 15/2 16/3
f 17/1 18/2 19/3
f 17/1 19/2 20/3
f 21/1 22/2 23/3
f 21/1 23/2 24/3
f 25/1 26/2 27/3
f 25/1 27/2 28/3
f 29/4 30/5 31/6
f 29/4 31/5 32/6
f 33/4 34/5 35/6
f 33/4 35/5 36/6
f 37/4 38/5 39/6
f 37/4 39/5 40/6
f 41/4 42/5 43/6
f 41/4 43/5 44/6
f 45/4 46/5 47/6
f 45/4 47/5 48/6
f 49/4 50/5 51/6
f 49/4 51/5 52/6
f 53/4 54/5 55/6
f 53/4 55/5 56/6
f 57/4 58/5 59/6
f 57/4 59/5 60/6
f 61/4 62/5 63/6
f 61/4 63/5 64/6
f 65/4 66/5 67/6
f 65/4 67/5 68/6
f 69/4 70/5 71/6
f 69/4 71/5 72/6
f 73/4 74/5 75/6
f 73/4 75/5 76/6
f 77/4 78/5 79/6
f 77/4 79/5 80/6
f 81/4 82/5 83/6
f 81/4 83/5 84/6
f 85/4 86/5 87/6
f 85/4 87/5 88/6
