mtllib TorusSettlementFarm_A72.mtl
v -2.4855800 0.0139465 7.2500000
v -0.8285421 0.0015496 7.2500000
v -0.8285421 0.0015496 -7.2500000
v -2.4855800 0.0139465 -7.2500000
v -0.8285421 0.0015496 7.2500000
v 0.8285421 0.0015496 7.2500000
v 0.8285421 0.0015496 -7.2500000
v -0.8285421 0.0015496 -7.2500000
v 0.8285421 0.0015496 7.2500000
v 2.4855800 0.0139465 7.2500000
v 2.4855800 0.0139465 -7.2500000
v 0.8285421 0.0015496 -7.2500000
v -2.4854397 0.0264457 -6.9000000
v -0.8284954 0.0140495 -6.9000000
v -0.8284954 0.0140495 -7.2500000
v -2.4854397 0.0264457 -7.2500000
v -0.8284954 0.0140495 -6.9000000
v 0.8284954 0.0140495 -6.9000000
v 0.8284954 0.0140495 -7.2500000
v -0.8284954 0.0140495 -7.2500000
v 0.8284954 0.0140495 -6.9000000
v 2.4854397 0.0264457 -6.9000000
v 2.4854397 0.0264457 -7.2500000
v 0.8284954 0.0140495 -7.2500000
v -2.4854397 0.0264457 7.2500000
v -0.8284954 0.0140495 7.2500000
v -0.8284954 0.0140495 6.9000000
v -2.4854397 0.0264457 6.9000000
v -0.8284954 0.0140495 7.2500000
v 0.8284954 0.0140495 7.2500000
v 0.8284954 0.0140495 6.9000000
v -0.8284954 0.0140495 6.9000000
v 0.8284954 0.0140495 7.2500000
v 2.4854397 0.0264457 7.2500000
v 2.4854397 0.0264457 6.9000000
v 0.8284954 0.0140495 6.9000000
v -0.2999830 0.0127031 7.2500000
v 0.2999830 0.0127031 7.2500000
v 0.2999830 0.0127031 -7.2500000
v -0.2999830 0.0127031 -7.2500000
v -2.2535890 0.8240068 -1.0875000
v -0.5200676 0.8131128 -1.0875000
v -0.5200676 0.8131128 -5.5825000
v -2.2535890 0.8240068 -5.5825000
v -2.2535890 0.8240068 -5.5825000
v -0.5200676 0.8131128 -5.5825000
v -0.5219528 0.0131150 -5.5825000
v -2.2617583 0.0240485 -5.5825000
v -0.5200676 0.8131128 -5.5825000
v -0.5200676 0.8131128 -1.0875000
v -0.5219528 0.0131150 -1.0875000
v -0.5219528 0.0131150 -5.5825000
v -0.5200676 0.8131128 -1.0875000
v -2.2535890 0.8240068 -1.0875000
v -2.2617583 0.0240485 -1.0875000
v -0.5219528 0.0131150 -1.0875000
v -2.2535890 0.8240068 -1.0875000
v -2.2535890 0.8240068 -5.5825000
v -2.2617583 0.0240485 -5.5825000
v -2.2617583 0.0240485 -1.0875000
v -2.2769473 0.9742545 -3.3350000
v -0.4948228 0.9630551 -3.3350000
v -0.4951593 0.8130555 -5.6075000
v -2.2784960 0.8242625 -5.6075000
v -2.2784960 0.8242625 -1.0625000
v -0.4951593 0.8130555 -1.0625000
v -0.4948228 0.9630551 -3.3350000
v -2.2769473 0.9742545 -3.3350000
v -2.2617073 0.0290482 -0.8375000
v -0.5219410 0.0181150 -0.8375000
v -0.5219410 0.0181150 -1.0625000
v -2.2617073 0.0290482 -1.0625000
v 0.5200676 0.8131128 -1.0875000
v 2.2535890 0.8240068 -1.0875000
v 2.2535890 0.8240068 -5.5825000
v 0.5200676 0.8131128 -5.5825000
v 0.5200676 0.8131128 -5.5825000
v 2.2535890 0.8240068 -5.5825000
v 2.2617583 0.0240485 -5.5825000
v 0.5219528 0.0131150 -5.5825000
v 2.2535890 0.8240068 -5.5825000
v 2.2535890 0.8240068 -1.0875000
v 2.2617583 0.0240485 -1.0875000
v 2.2617583 0.0240485 -5.5825000
v 2.2535890 0.8240068 -1.0875000
v 0.5200676 0.8131128 -1.0875000
v 0.5219528 0.0131150 -1.0875000
v 2.2617583 0.0240485 -1.0875000
v 0.5200676 0.8131128 -1.0875000
v 0.5200676 0.8131128 -5.5825000
v 0.5219528 0.0131150 -5.5825000
v 0.5219528 0.0131150 -1.0875000
v 0.4948228 0.9630551 -3.3350000
v 2.2769473 0.9742545 -3.3350000
v 2.2784960 0.8242625 -5.6075000
v 0.4951593 0.8130555 -5.6075000
v 0.4951593 0.8130555 -1.0625000
v 2.2784960 0.8242625 -1.0625000
v 2.2769473 0.9742545 -3.3350000
v 0.4948228 0.9630551 -3.3350000
v 0.5219410 0.0181150 -0.8375000
v 2.2617073 0.0290482 -0.8375000
v 2.2617073 0.0290482 -1.0625000
v 0.5219410 0.0181150 -1.0625000
v -2.1352375 0.0477937 6.9000000
v -0.3249449 0.0377384 6.9000000
v -0.3249449 0.0377384 1.7400000
v -2.1352375 0.0477937 1.7400000
v 0.3249449 0.0377384 6.9000000
v 2.1352375 0.0477937 6.9000000
v 2.1352375 0.0477937 1.7400000
v 0.3249449 0.0377384 1.7400000
v -1.7261357 0.3192354 3.8125000
v -1.3516738 0.3166301 3.8125000
v -1.3516738 0.3166301 3.4375000
v -1.7261357 0.3192354 3.4375000
v -1.7261357 0.3192354 3.4375000
v -1.3516738 0.3166301 3.4375000
v -1.3535071 0.0166357 3.4375000
v -1.7284769 0.0192446 3.4375000
v -1.3516738 0.3166301 3.4375000
v -1.3516738 0.3166301 3.8125000
v -1.3535071 0.0166357 3.8125000
v -1.3535071 0.0166357 3.4375000
v -1.3516738 0.3166301 3.8125000
v -1.7261357 0.3192354 3.8125000
v -1.7284769 0.0192446 3.8125000
v -1.3535071 0.0166357 3.8125000
v -1.7261357 0.3192354 3.8125000
v -1.7261357 0.3192354 3.4375000
v -1.7284769 0.0192446 3.4375000
v -1.7284769 0.0192446 3.8125000
v -1.5772123 0.3181234 3.8125000
v -1.2027488 0.3157701 3.8125000
v -1.2027488 0.3157701 3.4375000
v -1.5772123 0.3181234 3.4375000
v -1.5772123 0.3181234 3.4375000
v -1.2027488 0.3157701 3.4375000
v -1.2043801 0.0157745 3.4375000
v -1.5793515 0.0181310 3.4375000
v -1.2027488 0.3157701 3.4375000
v -1.2027488 0.3157701 3.8125000
v -1.2043801 0.0157745 3.8125000
v -1.2043801 0.0157745 3.4375000
v -1.2027488 0.3157701 3.8125000
v -1.5772123 0.3181234 3.8125000
v -1.5793515 0.0181310 3.8125000
v -1.2043801 0.0157745 3.8125000
v -1.5772123 0.3181234 3.8125000
v -1.5772123 0.3181234 3.4375000
v -1.5793515 0.0181310 3.4375000
v -1.5793515 0.0181310 3.8125000
v -1.4282882 0.3171115 3.8125000
v -1.0538232 0.3150104 3.8125000
v -1.0538232 0.3150104 3.4375000
v -1.4282882 0.3171115 3.4375000
v -1.4282882 0.3171115 3.4375000
v -1.0538232 0.3150104 3.4375000
v -1.0552525 0.0150138 3.4375000
v -1.4302254 0.0171178 3.4375000
v -1.0538232 0.3150104 3.4375000
v -1.0538232 0.3150104 3.8125000
v -1.0552525 0.0150138 3.8125000
v -1.0552525 0.0150138 3.4375000
v -1.0538232 0.3150104 3.8125000
v -1.4282882 0.3171115 3.8125000
v -1.4302254 0.0171178 3.8125000
v -1.0552525 0.0150138 3.8125000
v -1.4282882 0.3171115 3.8125000
v -1.4282882 0.3171115 3.4375000
v -1.4302254 0.0171178 3.4375000
v -1.4302254 0.0171178 3.8125000
v 1.0538232 0.3150104 3.8125000
v 1.4282882 0.3171115 3.8125000
v 1.4282882 0.3171115 3.4375000
v 1.0538232 0.3150104 3.4375000
v 1.0538232 0.3150104 3.4375000
v 1.4282882 0.3171115 3.4375000
v 1.4302254 0.0171178 3.4375000
v 1.0552525 0.0150138 3.4375000
v 1.4282882 0.3171115 3.4375000
v 1.4282882 0.3171115 3.8125000
v 1.4302254 0.0171178 3.8125000
v 1.4302254 0.0171178 3.4375000
v 1.4282882 0.3171115 3.8125000
v 1.0538232 0.3150104 3.8125000
v 1.0552525 0.0150138 3.8125000
v 1.4302254 0.0171178 3.8125000
v 1.0538232 0.3150104 3.8125000
v 1.0538232 0.3150104 3.4375000
v 1.0552525 0.0150138 3.4375000
v 1.0552525 0.0150138 3.8125000
v 1.2027488 0.3157701 3.8125000
v 1.5772123 0.3181234 3.8125000
v 1.5772123 0.3181234 3.4375000
v 1.2027488 0.3157701 3.4375000
v 1.2027488 0.3157701 3.4375000
v 1.5772123 0.3181234 3.4375000
v 1.5793515 0.0181310 3.4375000
v 1.2043801 0.0157745 3.4375000
v 1.5772123 0.3181234 3.4375000
v 1.5772123 0.3181234 3.8125000
v 1.5793515 0.0181310 3.8125000
v 1.5793515 0.0181310 3.4375000
v 1.5772123 0.3181234 3.8125000
v 1.2027488 0.3157701 3.8125000
v 1.2043801 0.0157745 3.8125000
v 1.5793515 0.0181310 3.8125000
v 1.2027488 0.3157701 3.8125000
v 1.2027488 0.3157701 3.4375000
v 1.2043801 0.0157745 3.4375000
v 1.2043801 0.0157745 3.8125000
v 1.3516738 0.3166301 3.8125000
v 1.7261357 0.3192354 3.8125000
v 1.7261357 0.3192354 3.4375000
v 1.3516738 0.3166301 3.4375000
v 1.3516738 0.3166301 3.4375000
v 1.7261357 0.3192354 3.4375000
v 1.7284769 0.0192446 3.4375000
v 1.3535071 0.0166357 3.4375000
v 1.7261357 0.3192354 3.4375000
v 1.7261357 0.3192354 3.8125000
v 1.7284769 0.0192446 3.8125000
v 1.7284769 0.0192446 3.4375000
v 1.7261357 0.3192354 3.8125000
v 1.3516738 0.3166301 3.8125000
v 1.3535071 0.0166357 3.8125000
v 1.7284769 0.0192446 3.8125000
v 1.3516738 0.3166301 3.8125000
v 1.3516738 0.3166301 3.4375000
v 1.3535071 0.0166357 3.4375000
v 1.3535071 0.0166357 3.8125000
vt 0.005000 0.995000
vt 0.245000 0.995000
vt 0.245000 0.755000
vt 0.255000 0.995000
vt 0.495000 0.995000
vt 0.495000 0.755000
vt 0.505000 0.995000
vt 0.745000 0.995000
vt 0.745000 0.755000
vt 0.755000 0.995000
vt 0.995000 0.995000
vt 0.995000 0.755000
vt 0.005000 0.745000
vt 0.245000 0.745000
vt 0.245000 0.505000
vt 0.255000 0.745000
vt 0.495000 0.745000
vt 0.495000 0.505000
vt 0.505000 0.745000
vt 0.745000 0.745000
vt 0.745000 0.505000
vt 0.755000 0.745000
vt 0.995000 0.745000
vt 0.995000 0.505000
vt 0.005000 0.495000
vt 0.245000 0.495000
vt 0.245000 0.255000
vt 0.255000 0.495000
vt 0.495000 0.495000
vt 0.495000 0.255000
vt 0.505000 0.495000
vt 0.745000 0.495000
vt 0.745000 0.255000
vt 0.755000 0.495000
vt 0.995000 0.495000
vt 0.995000 0.255000
vt 0.005000 0.245000
vt 0.245000 0.245000
vt 0.245000 0.005000
vt 0.255000 0.245000
vt 0.495000 0.245000
vt 0.495000 0.005000
vt 0.505000 0.245000
vt 0.745000 0.245000
vt 0.745000 0.005000
vt 0.755000 0.245000
vt 0.995000 0.245000
vt 0.995000 0.005000
g ornament
usemtl farm-kit
f 61/31 62/32 63/33
f 61/31 63/32 64/33
f 65/31 66/32 67/33
f 65/31 67/32 68/33
f 93/31 94/32 95/33
f 93/31 95/32 96/33
f 97/31 98/32 99/33
f 97/31 99/32 100/33
f 105/4 106/5 107/6
f 105/4 107/5 108/6
f 109/4 110/5 111/6
f 109/4 111/5 112/6
g solid
usemtl farm-kit
f 41/28 42/29 43/30
f 41/28 43/29 44/30
f 45/28 46/29 47/30
f 45/28 47/29 48/30
f 49/28 50/29 51/30
f 49/28 51/29 52/30
f 53/28 54/29 55/30
f 53/28 55/29 56/30
f 57/28 58/29 59/30
f 57/28 59/29 60/30
f 73/28 74/29 75/30
f 73/28 75/29 76/30
f 77/28 78/29 79/30
f 77/28 79/29 80/30
f 81/28 82/29 83/30
f 81/28 83/29 84/30
f 85/28 86/29 87/30
f 85/28 87/29 88/30
f 89/28 90/29 91/30
f 89/28 91/29 92/30
f 113/34 114/35 115/36
f 113/34 115/35 116/36
f 117/34 118/35 119/36
f 117/34 119/35 120/36
f 121/34 122/35 123/36
f 121/34 123/35 124/36
f 125/34 126/35 127/36
f 125/34 127/35 128/36
f 129/34 130/35 131/36
f 129/34 131/35 132/36
f 133/34 134/35 135/36
f 133/34 135/35 136/36
f 137/34 138/35 139/36
f 137/34 139/35 140/36
f 141/34 142/35 143/36
f 141/34 143/35 144/36
f 145/34 146/35 147/36
f 145/34 147/35 148/36
f 149/34 150/35 151/36
f 149/34 151/35 152/36
f 153/34 154/35 155/36
f 153/34 155/35 156/36
f 157/34 158/35 159/36
f 157/34 159/35 160/36
f 161/34 162/35 163/36
f 161/34 163/35 164/36
f 165/34 166/35 167/36
f 165/34 167/35 168/36
f 169/34 170/35 171/36
f 169/34 171/35 172/36
f 173/34 174/35 175/36
f 173/34 175/35 176/36
f 177/34 178/35 179/36
f 177/34 179/35 180/36
f 181/34 182/35 183/36
f 181/34 183/35 184/36
f 185/34 186/35 187/36
f 185/34 187/35 188/36
f 189/34 190/35 191/36
f 189/34 191/35 192/36
f 193/34 194/35 195/36
f 193/34 195/35 196/36
f 197/34 198/35 199/36
f 197/34 199/35 200/36
f 201/34 202/35 203/36
f 201/34 203/35 204/36
f 205/34 206/35 207/36
f 205/34 207/35 208/36
f 209/34 210/35 211/36
f 209/34 211/35 212/36
f 213/34 214/35 215/36
f 213/34 215/35 216/36
f 217/34 218/35 219/36
f 217/34 219/35 220/36
f 221/34 222/35 223/36
f 221/34 223/35 224/36
f 225/34 226/35 227/36
f 225/34 227/35 228/36
f 229/34 230/35 231/36
f 229/34 231/35 232/36
g support
usemtl farm-kit
f 1/1 2/2 3/3
f 1/1 3/2 4/3
f 5/1 6/2 7/3
f 5/1 7/2 8/3
f 9/1 10/2 11/3
f 9/1 11/2 12/3
f 13/4 14/5 15/6
f 13/4 15/5 16/6
f 17/4 18/5 19/6
f 17/4 19/5 20/6
f 21/4 22/5 23/6
f 21/4 23/5 24/6
f 25/4 26/5 27/6
f 25/4 27/5 28/6
f 29/4 30/5 31/6
f 29/4 31/5 32/6
f 33/4 34/5 35/6
f 33/4 35/5 36/6
f 37/4 38/5 39/6
f 37/4 39/5 40/6
f 69/4 70/5 71/6
f 69/4 71/5 72/6
f 101/4 102/5 103/6
f 101/4 103/5 104/6
